G04 (created by PCBNEW (2013-02-13 BZR 3947)-testing) date 9/18/2013 2:16:13 PM*
%MOIN*%
G04 Gerber Fmt 3.4, Leading zero omitted, Abs format*
%FSLAX34Y34*%
G01*
G70*
G90*
G04 APERTURE LIST*
%ADD10C,0*%
%ADD11C,0.00787402*%
%ADD12C,0.0079*%
%ADD13C,0.015*%
%ADD14C,0.011811*%
%ADD15C,0.012*%
%ADD16C,0.008*%
%ADD17C,0.00625197*%
%ADD18C,0.005*%
%ADD19C,0.00885827*%
%ADD20O,0.4017X0.2049*%
%ADD21R,0.0473701X0.130047*%
%ADD22R,0.0887X0.1655*%
%ADD23R,0.0887X0.1458*%
%ADD24O,0.0277008X0.106425*%
%ADD25C,0.0434331*%
%ADD26R,0.0533X0.0631*%
%ADD27C,0.024*%
%ADD28R,0.043X0.063*%
%ADD29R,0.063X0.043*%
%ADD30C,0.0788661*%
%ADD31C,0.0709921*%
%ADD32C,0.098*%
%ADD33C,0.165*%
%ADD34C,0.075*%
%ADD35O,0.083X0.093*%
%ADD36R,0.083X0.093*%
%ADD37C,0.0473701*%
%ADD38C,0.128*%
G04 APERTURE END LIST*
G54D10*
G54D11*
X16898Y-25327D02*
X16916Y-25309D01*
X16935Y-25252D01*
X16935Y-25215D01*
X16916Y-25159D01*
X16879Y-25121D01*
X16841Y-25102D01*
X16767Y-25084D01*
X16710Y-25084D01*
X16635Y-25102D01*
X16598Y-25121D01*
X16560Y-25159D01*
X16542Y-25215D01*
X16542Y-25252D01*
X16560Y-25309D01*
X16579Y-25327D01*
X16823Y-25477D02*
X16823Y-25665D01*
X16935Y-25440D02*
X16542Y-25571D01*
X16935Y-25702D01*
X16935Y-25834D02*
X16542Y-25834D01*
X16542Y-25984D01*
X16560Y-26021D01*
X16579Y-26040D01*
X16617Y-26059D01*
X16673Y-26059D01*
X16710Y-26040D01*
X16729Y-26021D01*
X16748Y-25984D01*
X16748Y-25834D01*
X16916Y-26208D02*
X16935Y-26265D01*
X16935Y-26358D01*
X16916Y-26396D01*
X16898Y-26415D01*
X16860Y-26433D01*
X16823Y-26433D01*
X16785Y-26415D01*
X16767Y-26396D01*
X16748Y-26358D01*
X16729Y-26283D01*
X16710Y-26246D01*
X16692Y-26227D01*
X16654Y-26208D01*
X16617Y-26208D01*
X16579Y-26227D01*
X16560Y-26246D01*
X16542Y-26283D01*
X16542Y-26377D01*
X16560Y-26433D01*
X1379Y-11590D02*
X1379Y-11721D01*
X1585Y-11777D02*
X1585Y-11590D01*
X1192Y-11590D01*
X1192Y-11777D01*
X1566Y-11927D02*
X1585Y-11984D01*
X1585Y-12077D01*
X1566Y-12115D01*
X1548Y-12134D01*
X1510Y-12152D01*
X1473Y-12152D01*
X1435Y-12134D01*
X1417Y-12115D01*
X1398Y-12077D01*
X1379Y-12002D01*
X1360Y-11965D01*
X1342Y-11946D01*
X1304Y-11927D01*
X1267Y-11927D01*
X1229Y-11946D01*
X1210Y-11965D01*
X1192Y-12002D01*
X1192Y-12096D01*
X1210Y-12152D01*
X1548Y-12546D02*
X1566Y-12527D01*
X1585Y-12471D01*
X1585Y-12434D01*
X1566Y-12377D01*
X1529Y-12340D01*
X1491Y-12321D01*
X1417Y-12302D01*
X1360Y-12302D01*
X1285Y-12321D01*
X1248Y-12340D01*
X1210Y-12377D01*
X1192Y-12434D01*
X1192Y-12471D01*
X1210Y-12527D01*
X1229Y-12546D01*
G54D12*
X15442Y-2871D02*
G75*
G03X15442Y-2871I-591J0D01*
G74*
G01*
X15776Y-4091D02*
X15776Y-4288D01*
X15776Y-4288D02*
X15501Y-4288D01*
X15501Y-4288D02*
X15501Y-4091D01*
X13926Y-4288D02*
X13926Y-4091D01*
X14201Y-4288D02*
X13926Y-4288D01*
X14201Y-4091D02*
X14201Y-4288D01*
X14201Y-1651D02*
X14201Y-1454D01*
X14201Y-1454D02*
X13926Y-1454D01*
X13926Y-1454D02*
X13926Y-1651D01*
X15776Y-1651D02*
X15776Y-1454D01*
X15776Y-1454D02*
X15501Y-1454D01*
X15501Y-1454D02*
X15501Y-1651D01*
G54D13*
X13631Y-3973D02*
X13631Y-1769D01*
X16071Y-3973D02*
X16071Y-1769D01*
X16032Y-4091D02*
X16032Y-1651D01*
X16032Y-1651D02*
X13670Y-1651D01*
X13670Y-1651D02*
X13670Y-4091D01*
X13670Y-4091D02*
X16032Y-4091D01*
G54D12*
X8015Y-2488D02*
X8665Y-2488D01*
X8665Y-2488D02*
X8665Y811D01*
X8665Y811D02*
X5665Y811D01*
X5665Y811D02*
X5665Y-2488D01*
X5665Y-2488D02*
X6365Y-2488D01*
G54D14*
X21951Y-22922D02*
X23251Y-22922D01*
X23251Y-22922D02*
X23251Y-21322D01*
X23251Y-21322D02*
X21951Y-21322D01*
X21951Y-21322D02*
X21951Y-22922D01*
G54D15*
X17387Y-22720D02*
X14601Y-19934D01*
X14601Y-19934D02*
X11815Y-22720D01*
X14467Y-25372D02*
X11815Y-22720D01*
X14735Y-25372D02*
X17387Y-22720D01*
X14467Y-25372D02*
X14735Y-25372D01*
G54D16*
X14851Y-24842D02*
G75*
G03X14851Y-24842I-250J0D01*
G74*
G01*
G54D14*
X7058Y-5021D02*
X7501Y-5021D01*
X7501Y-5021D02*
X7501Y-4221D01*
X7501Y-4221D02*
X7058Y-4221D01*
X6633Y-5021D02*
X6201Y-5021D01*
X6201Y-5021D02*
X6201Y-4221D01*
X6201Y-4221D02*
X6633Y-4221D01*
X24201Y-21064D02*
X24201Y-20622D01*
X24201Y-20622D02*
X23401Y-20622D01*
X23401Y-20622D02*
X23401Y-21064D01*
X24201Y-21490D02*
X24201Y-21922D01*
X24201Y-21922D02*
X23401Y-21922D01*
X23401Y-21922D02*
X23401Y-21490D01*
X23401Y-23229D02*
X23401Y-23672D01*
X23401Y-23672D02*
X24201Y-23672D01*
X24201Y-23672D02*
X24201Y-23229D01*
X23401Y-22803D02*
X23401Y-22372D01*
X23401Y-22372D02*
X24201Y-22372D01*
X24201Y-22372D02*
X24201Y-22803D01*
X8501Y-23728D02*
X8501Y-24170D01*
X8501Y-24170D02*
X9301Y-24170D01*
X9301Y-24170D02*
X9301Y-23728D01*
X8501Y-23302D02*
X8501Y-22870D01*
X8501Y-22870D02*
X9301Y-22870D01*
X9301Y-22870D02*
X9301Y-23302D01*
X11188Y-20034D02*
X10746Y-20034D01*
X10746Y-20034D02*
X10746Y-20834D01*
X10746Y-20834D02*
X11188Y-20834D01*
X11614Y-20034D02*
X12046Y-20034D01*
X12046Y-20034D02*
X12046Y-20834D01*
X12046Y-20834D02*
X11614Y-20834D01*
X22809Y-23872D02*
X23251Y-23872D01*
X23251Y-23872D02*
X23251Y-23072D01*
X23251Y-23072D02*
X22809Y-23072D01*
X22383Y-23872D02*
X21951Y-23872D01*
X21951Y-23872D02*
X21951Y-23072D01*
X21951Y-23072D02*
X22383Y-23072D01*
X21309Y-22122D02*
X21751Y-22122D01*
X21751Y-22122D02*
X21751Y-21322D01*
X21751Y-21322D02*
X21309Y-21322D01*
X20883Y-22122D02*
X20451Y-22122D01*
X20451Y-22122D02*
X20451Y-21322D01*
X20451Y-21322D02*
X20883Y-21322D01*
X7751Y-6163D02*
X7751Y-5721D01*
X7751Y-5721D02*
X6951Y-5721D01*
X6951Y-5721D02*
X6951Y-6163D01*
X7751Y-6589D02*
X7751Y-7021D01*
X7751Y-7021D02*
X6951Y-7021D01*
X6951Y-7021D02*
X6951Y-6589D01*
X8751Y-6163D02*
X8751Y-5721D01*
X8751Y-5721D02*
X7951Y-5721D01*
X7951Y-5721D02*
X7951Y-6163D01*
X8751Y-6589D02*
X8751Y-7021D01*
X8751Y-7021D02*
X7951Y-7021D01*
X7951Y-7021D02*
X7951Y-6589D01*
X8301Y-24113D02*
X8301Y-23670D01*
X8301Y-23670D02*
X7501Y-23670D01*
X7501Y-23670D02*
X7501Y-24113D01*
X8301Y-24538D02*
X8301Y-24970D01*
X8301Y-24970D02*
X7501Y-24970D01*
X7501Y-24970D02*
X7501Y-24538D01*
X21309Y-21172D02*
X21751Y-21172D01*
X21751Y-21172D02*
X21751Y-20372D01*
X21751Y-20372D02*
X21309Y-20372D01*
X20883Y-21172D02*
X20451Y-21172D01*
X20451Y-21172D02*
X20451Y-20372D01*
X20451Y-20372D02*
X20883Y-20372D01*
X8301Y-22513D02*
X8301Y-22070D01*
X8301Y-22070D02*
X7501Y-22070D01*
X7501Y-22070D02*
X7501Y-22513D01*
X8301Y-22938D02*
X8301Y-23370D01*
X8301Y-23370D02*
X7501Y-23370D01*
X7501Y-23370D02*
X7501Y-22938D01*
X13643Y-43722D02*
X13201Y-43722D01*
X13201Y-43722D02*
X13201Y-44522D01*
X13201Y-44522D02*
X13643Y-44522D01*
X14069Y-43722D02*
X14501Y-43722D01*
X14501Y-43722D02*
X14501Y-44522D01*
X14501Y-44522D02*
X14069Y-44522D01*
G54D11*
X13751Y-43972D02*
X13751Y-44272D01*
X13926Y-43972D02*
X13926Y-44272D01*
X13926Y-44272D02*
X13776Y-44122D01*
X13776Y-44122D02*
X13926Y-43972D01*
G54D14*
X4808Y-44522D02*
X5251Y-44522D01*
X5251Y-44522D02*
X5251Y-43722D01*
X5251Y-43722D02*
X4808Y-43722D01*
X4383Y-44522D02*
X3951Y-44522D01*
X3951Y-44522D02*
X3951Y-43722D01*
X3951Y-43722D02*
X4383Y-43722D01*
G54D11*
X4701Y-44272D02*
X4701Y-43972D01*
X4526Y-44272D02*
X4526Y-43972D01*
X4526Y-43972D02*
X4676Y-44122D01*
X4676Y-44122D02*
X4526Y-44272D01*
G54D14*
X28809Y-21272D02*
X29251Y-21272D01*
X29251Y-21272D02*
X29251Y-20472D01*
X29251Y-20472D02*
X28809Y-20472D01*
X28383Y-21272D02*
X27951Y-21272D01*
X27951Y-21272D02*
X27951Y-20472D01*
X27951Y-20472D02*
X28383Y-20472D01*
G54D11*
X28701Y-21022D02*
X28701Y-20722D01*
X28526Y-21022D02*
X28526Y-20722D01*
X28526Y-20722D02*
X28676Y-20872D01*
X28676Y-20872D02*
X28526Y-21022D01*
G54D14*
X28809Y-13772D02*
X29251Y-13772D01*
X29251Y-13772D02*
X29251Y-12972D01*
X29251Y-12972D02*
X28809Y-12972D01*
X28383Y-13772D02*
X27951Y-13772D01*
X27951Y-13772D02*
X27951Y-12972D01*
X27951Y-12972D02*
X28383Y-12972D01*
G54D11*
X28701Y-13522D02*
X28701Y-13222D01*
X28526Y-13522D02*
X28526Y-13222D01*
X28526Y-13222D02*
X28676Y-13372D01*
X28676Y-13372D02*
X28526Y-13522D01*
G54D14*
X27894Y-5721D02*
X27451Y-5721D01*
X27451Y-5721D02*
X27451Y-6521D01*
X27451Y-6521D02*
X27894Y-6521D01*
X28319Y-5721D02*
X28751Y-5721D01*
X28751Y-5721D02*
X28751Y-6521D01*
X28751Y-6521D02*
X28319Y-6521D01*
G54D11*
X28001Y-5971D02*
X28001Y-6271D01*
X28176Y-5971D02*
X28176Y-6271D01*
X28176Y-6271D02*
X28026Y-6121D01*
X28026Y-6121D02*
X28176Y-5971D01*
G54D14*
X20294Y-28220D02*
X19851Y-28220D01*
X19851Y-28220D02*
X19851Y-29020D01*
X19851Y-29020D02*
X20294Y-29020D01*
X20719Y-28220D02*
X21151Y-28220D01*
X21151Y-28220D02*
X21151Y-29020D01*
X21151Y-29020D02*
X20719Y-29020D01*
G54D11*
X20401Y-28470D02*
X20401Y-28770D01*
X20576Y-28470D02*
X20576Y-28770D01*
X20576Y-28770D02*
X20426Y-28620D01*
X20426Y-28620D02*
X20576Y-28470D01*
G54D14*
X20394Y-15720D02*
X19951Y-15720D01*
X19951Y-15720D02*
X19951Y-16520D01*
X19951Y-16520D02*
X20394Y-16520D01*
X20819Y-15720D02*
X21251Y-15720D01*
X21251Y-15720D02*
X21251Y-16520D01*
X21251Y-16520D02*
X20819Y-16520D01*
G54D11*
X20501Y-15970D02*
X20501Y-16270D01*
X20676Y-15970D02*
X20676Y-16270D01*
X20676Y-16270D02*
X20526Y-16120D01*
X20526Y-16120D02*
X20676Y-15970D01*
G54D14*
X20394Y-13221D02*
X19951Y-13221D01*
X19951Y-13221D02*
X19951Y-14021D01*
X19951Y-14021D02*
X20394Y-14021D01*
X20819Y-13221D02*
X21251Y-13221D01*
X21251Y-13221D02*
X21251Y-14021D01*
X21251Y-14021D02*
X20819Y-14021D01*
G54D11*
X20501Y-13471D02*
X20501Y-13771D01*
X20676Y-13471D02*
X20676Y-13771D01*
X20676Y-13771D02*
X20526Y-13621D01*
X20526Y-13621D02*
X20676Y-13471D01*
G54D14*
X20394Y-5721D02*
X19951Y-5721D01*
X19951Y-5721D02*
X19951Y-6521D01*
X19951Y-6521D02*
X20394Y-6521D01*
X20819Y-5721D02*
X21251Y-5721D01*
X21251Y-5721D02*
X21251Y-6521D01*
X21251Y-6521D02*
X20819Y-6521D01*
G54D11*
X20501Y-5971D02*
X20501Y-6271D01*
X20676Y-5971D02*
X20676Y-6271D01*
X20676Y-6271D02*
X20526Y-6121D01*
X20526Y-6121D02*
X20676Y-5971D01*
G54D14*
X1101Y-7121D02*
X1301Y-7121D01*
X4101Y-7121D02*
X3901Y-7121D01*
X3901Y-7121D02*
X3901Y-7521D01*
X3901Y-7521D02*
X1301Y-7521D01*
X1301Y-7521D02*
X1301Y-6721D01*
X1301Y-6721D02*
X3901Y-6721D01*
X3901Y-6721D02*
X3901Y-7121D01*
X12893Y-28220D02*
X12451Y-28220D01*
X12451Y-28220D02*
X12451Y-29020D01*
X12451Y-29020D02*
X12893Y-29020D01*
X13319Y-28220D02*
X13751Y-28220D01*
X13751Y-28220D02*
X13751Y-29020D01*
X13751Y-29020D02*
X13319Y-29020D01*
G54D11*
X13001Y-28470D02*
X13001Y-28770D01*
X13176Y-28470D02*
X13176Y-28770D01*
X13176Y-28770D02*
X13026Y-28620D01*
X13026Y-28620D02*
X13176Y-28470D01*
G54D14*
X28809Y-36272D02*
X29251Y-36272D01*
X29251Y-36272D02*
X29251Y-35472D01*
X29251Y-35472D02*
X28809Y-35472D01*
X28383Y-36272D02*
X27951Y-36272D01*
X27951Y-36272D02*
X27951Y-35472D01*
X27951Y-35472D02*
X28383Y-35472D01*
G54D11*
X28701Y-36022D02*
X28701Y-35722D01*
X28526Y-36022D02*
X28526Y-35722D01*
X28526Y-35722D02*
X28676Y-35872D01*
X28676Y-35872D02*
X28526Y-36022D01*
G54D14*
X28809Y-28772D02*
X29251Y-28772D01*
X29251Y-28772D02*
X29251Y-27972D01*
X29251Y-27972D02*
X28809Y-27972D01*
X28383Y-28772D02*
X27951Y-28772D01*
X27951Y-28772D02*
X27951Y-27972D01*
X27951Y-27972D02*
X28383Y-27972D01*
G54D11*
X28701Y-28522D02*
X28701Y-28222D01*
X28526Y-28522D02*
X28526Y-28222D01*
X28526Y-28222D02*
X28676Y-28372D01*
X28676Y-28372D02*
X28526Y-28522D01*
G54D14*
X20394Y-35720D02*
X19951Y-35720D01*
X19951Y-35720D02*
X19951Y-36520D01*
X19951Y-36520D02*
X20394Y-36520D01*
X20819Y-35720D02*
X21251Y-35720D01*
X21251Y-35720D02*
X21251Y-36520D01*
X21251Y-36520D02*
X20819Y-36520D01*
G54D11*
X20501Y-35970D02*
X20501Y-36270D01*
X20676Y-35970D02*
X20676Y-36270D01*
X20676Y-36270D02*
X20526Y-36120D01*
X20526Y-36120D02*
X20676Y-35970D01*
G54D14*
X13643Y-35972D02*
X13201Y-35972D01*
X13201Y-35972D02*
X13201Y-36772D01*
X13201Y-36772D02*
X13643Y-36772D01*
X14069Y-35972D02*
X14501Y-35972D01*
X14501Y-35972D02*
X14501Y-36772D01*
X14501Y-36772D02*
X14069Y-36772D01*
G54D11*
X13751Y-36222D02*
X13751Y-36522D01*
X13926Y-36222D02*
X13926Y-36522D01*
X13926Y-36522D02*
X13776Y-36372D01*
X13776Y-36372D02*
X13926Y-36222D01*
G54D14*
X4643Y-35722D02*
X4201Y-35722D01*
X4201Y-35722D02*
X4201Y-36522D01*
X4201Y-36522D02*
X4643Y-36522D01*
X5069Y-35722D02*
X5501Y-35722D01*
X5501Y-35722D02*
X5501Y-36522D01*
X5501Y-36522D02*
X5069Y-36522D01*
G54D11*
X4751Y-35972D02*
X4751Y-36272D01*
X4926Y-35972D02*
X4926Y-36272D01*
X4926Y-36272D02*
X4776Y-36122D01*
X4776Y-36122D02*
X4926Y-35972D01*
G54D14*
X5393Y-20720D02*
X4951Y-20720D01*
X4951Y-20720D02*
X4951Y-21520D01*
X4951Y-21520D02*
X5393Y-21520D01*
X5819Y-20720D02*
X6251Y-20720D01*
X6251Y-20720D02*
X6251Y-21520D01*
X6251Y-21520D02*
X5819Y-21520D01*
G54D11*
X5501Y-20970D02*
X5501Y-21270D01*
X5676Y-20970D02*
X5676Y-21270D01*
X5676Y-21270D02*
X5526Y-21120D01*
X5526Y-21120D02*
X5676Y-20970D01*
G54D14*
X5393Y-5721D02*
X4951Y-5721D01*
X4951Y-5721D02*
X4951Y-6521D01*
X4951Y-6521D02*
X5393Y-6521D01*
X5819Y-5721D02*
X6251Y-5721D01*
X6251Y-5721D02*
X6251Y-6521D01*
X6251Y-6521D02*
X5819Y-6521D01*
G54D11*
X5501Y-5971D02*
X5501Y-6271D01*
X5676Y-5971D02*
X5676Y-6271D01*
X5676Y-6271D02*
X5526Y-6121D01*
X5526Y-6121D02*
X5676Y-5971D01*
G54D14*
X12893Y-15720D02*
X12451Y-15720D01*
X12451Y-15720D02*
X12451Y-16520D01*
X12451Y-16520D02*
X12893Y-16520D01*
X13319Y-15720D02*
X13751Y-15720D01*
X13751Y-15720D02*
X13751Y-16520D01*
X13751Y-16520D02*
X13319Y-16520D01*
G54D11*
X13001Y-15970D02*
X13001Y-16270D01*
X13176Y-15970D02*
X13176Y-16270D01*
X13176Y-16270D02*
X13026Y-16120D01*
X13026Y-16120D02*
X13176Y-15970D01*
G54D14*
X12893Y-13221D02*
X12451Y-13221D01*
X12451Y-13221D02*
X12451Y-14021D01*
X12451Y-14021D02*
X12893Y-14021D01*
X13319Y-13221D02*
X13751Y-13221D01*
X13751Y-13221D02*
X13751Y-14021D01*
X13751Y-14021D02*
X13319Y-14021D01*
G54D11*
X13001Y-13471D02*
X13001Y-13771D01*
X13176Y-13471D02*
X13176Y-13771D01*
X13176Y-13771D02*
X13026Y-13621D01*
X13026Y-13621D02*
X13176Y-13471D01*
G54D14*
X5393Y-28220D02*
X4951Y-28220D01*
X4951Y-28220D02*
X4951Y-29020D01*
X4951Y-29020D02*
X5393Y-29020D01*
X5819Y-28220D02*
X6251Y-28220D01*
X6251Y-28220D02*
X6251Y-29020D01*
X6251Y-29020D02*
X5819Y-29020D01*
G54D11*
X5501Y-28470D02*
X5501Y-28770D01*
X5676Y-28470D02*
X5676Y-28770D01*
X5676Y-28770D02*
X5526Y-28620D01*
X5526Y-28620D02*
X5676Y-28470D01*
G54D14*
X5393Y-13221D02*
X4951Y-13221D01*
X4951Y-13221D02*
X4951Y-14021D01*
X4951Y-14021D02*
X5393Y-14021D01*
X5819Y-13221D02*
X6251Y-13221D01*
X6251Y-13221D02*
X6251Y-14021D01*
X6251Y-14021D02*
X5819Y-14021D01*
G54D11*
X5501Y-13471D02*
X5501Y-13771D01*
X5676Y-13471D02*
X5676Y-13771D01*
X5676Y-13771D02*
X5526Y-13621D01*
X5526Y-13621D02*
X5676Y-13471D01*
G54D14*
X12893Y-5721D02*
X12451Y-5721D01*
X12451Y-5721D02*
X12451Y-6521D01*
X12451Y-6521D02*
X12893Y-6521D01*
X13319Y-5721D02*
X13751Y-5721D01*
X13751Y-5721D02*
X13751Y-6521D01*
X13751Y-6521D02*
X13319Y-6521D01*
G54D11*
X13001Y-5971D02*
X13001Y-6271D01*
X13176Y-5971D02*
X13176Y-6271D01*
X13176Y-6271D02*
X13026Y-6121D01*
X13026Y-6121D02*
X13176Y-5971D01*
G54D14*
X20394Y-43222D02*
X19951Y-43222D01*
X19951Y-43222D02*
X19951Y-44022D01*
X19951Y-44022D02*
X20394Y-44022D01*
X20819Y-43222D02*
X21251Y-43222D01*
X21251Y-43222D02*
X21251Y-44022D01*
X21251Y-44022D02*
X20819Y-44022D01*
G54D11*
X20501Y-43472D02*
X20501Y-43772D01*
X20676Y-43472D02*
X20676Y-43772D01*
X20676Y-43772D02*
X20526Y-43622D01*
X20526Y-43622D02*
X20676Y-43472D01*
G54D14*
X27894Y-43222D02*
X27451Y-43222D01*
X27451Y-43222D02*
X27451Y-44022D01*
X27451Y-44022D02*
X27894Y-44022D01*
X28319Y-43222D02*
X28751Y-43222D01*
X28751Y-43222D02*
X28751Y-44022D01*
X28751Y-44022D02*
X28319Y-44022D01*
G54D11*
X28001Y-43472D02*
X28001Y-43772D01*
X28176Y-43472D02*
X28176Y-43772D01*
X28176Y-43772D02*
X28026Y-43622D01*
X28026Y-43622D02*
X28176Y-43472D01*
G54D15*
X15283Y-2438D02*
X15198Y-2467D01*
X15055Y-2467D01*
X14998Y-2438D01*
X14969Y-2410D01*
X14940Y-2353D01*
X14940Y-2296D01*
X14969Y-2238D01*
X14998Y-2210D01*
X15055Y-2181D01*
X15169Y-2153D01*
X15226Y-2124D01*
X15255Y-2096D01*
X15283Y-2038D01*
X15283Y-1981D01*
X15255Y-1924D01*
X15226Y-1896D01*
X15169Y-1867D01*
X15026Y-1867D01*
X14940Y-1896D01*
X14569Y-1867D02*
X14512Y-1867D01*
X14455Y-1896D01*
X14426Y-1924D01*
X14398Y-1981D01*
X14369Y-2096D01*
X14369Y-2238D01*
X14398Y-2353D01*
X14426Y-2410D01*
X14455Y-2438D01*
X14512Y-2467D01*
X14569Y-2467D01*
X14626Y-2438D01*
X14655Y-2410D01*
X14683Y-2353D01*
X14712Y-2238D01*
X14712Y-2096D01*
X14683Y-1981D01*
X14655Y-1924D01*
X14626Y-1896D01*
X14569Y-1867D01*
X10301Y-64D02*
X10301Y-493D01*
X10329Y-579D01*
X10387Y-636D01*
X10472Y-664D01*
X10529Y-664D01*
X9701Y-664D02*
X10044Y-664D01*
X9872Y-664D02*
X9872Y-64D01*
X9929Y-150D01*
X9987Y-207D01*
X10044Y-236D01*
G54D17*
X21367Y-21353D02*
X21760Y-21615D01*
X21367Y-21615D02*
X21760Y-21353D01*
X21760Y-21972D02*
X21760Y-21747D01*
X21760Y-21859D02*
X21367Y-21859D01*
X21423Y-21822D01*
X21460Y-21784D01*
X21479Y-21747D01*
X16048Y-20046D02*
X16327Y-19767D01*
X15783Y-19728D02*
X15783Y-19754D01*
X15810Y-19807D01*
X15836Y-19834D01*
X15889Y-19860D01*
X15942Y-19860D01*
X15982Y-19847D01*
X16048Y-19807D01*
X16088Y-19767D01*
X16128Y-19701D01*
X16141Y-19661D01*
X16141Y-19608D01*
X16115Y-19555D01*
X16088Y-19529D01*
X16035Y-19502D01*
X16009Y-19502D01*
X15492Y-19489D02*
X15651Y-19648D01*
X15571Y-19569D02*
X15849Y-19290D01*
X15836Y-19357D01*
X15836Y-19410D01*
X15849Y-19449D01*
G54D16*
X15401Y-20961D02*
X15266Y-21096D01*
X15549Y-21055D02*
X15030Y-20725D01*
X15360Y-21244D01*
X14882Y-20873D02*
X14720Y-21035D01*
X15225Y-21379D02*
X14801Y-20954D01*
X15050Y-21554D02*
X14626Y-21129D01*
X14835Y-21527D01*
X14438Y-21318D01*
X14862Y-21742D01*
X14505Y-21655D02*
X14411Y-21749D01*
X14592Y-22012D02*
X14727Y-21877D01*
X14303Y-21453D01*
X14168Y-21587D01*
X13919Y-21877D02*
X13926Y-21830D01*
X13966Y-21789D01*
X14027Y-21769D01*
X14094Y-21783D01*
X14148Y-21810D01*
X14242Y-21877D01*
X14303Y-21937D01*
X14370Y-22032D01*
X14397Y-22086D01*
X14411Y-22153D01*
X14390Y-22214D01*
X14363Y-22241D01*
X14303Y-22261D01*
X14269Y-22254D01*
X14128Y-22113D01*
X14182Y-22059D01*
X14081Y-22281D02*
X13946Y-22416D01*
X14229Y-22375D02*
X13710Y-22045D01*
X14040Y-22564D01*
X13549Y-22207D02*
X13374Y-22382D01*
X13629Y-22449D01*
X13589Y-22490D01*
X13582Y-22537D01*
X13589Y-22571D01*
X13616Y-22624D01*
X13717Y-22725D01*
X13771Y-22752D01*
X13805Y-22759D01*
X13852Y-22752D01*
X13932Y-22672D01*
X13939Y-22624D01*
X13932Y-22591D01*
X13306Y-22530D02*
X13273Y-22523D01*
X13225Y-22530D01*
X13158Y-22597D01*
X13151Y-22645D01*
X13158Y-22678D01*
X13185Y-22732D01*
X13225Y-22773D01*
X13299Y-22820D01*
X13704Y-22901D01*
X13528Y-23076D01*
X12983Y-22773D02*
X13326Y-23116D01*
X13353Y-23170D01*
X13360Y-23204D01*
X13353Y-23251D01*
X13299Y-23305D01*
X13252Y-23311D01*
X13219Y-23305D01*
X13165Y-23278D01*
X12821Y-22934D01*
X12707Y-23332D02*
X12990Y-23614D01*
X12613Y-23103D02*
X12983Y-23338D01*
X12808Y-23513D01*
G54D17*
X6512Y-5485D02*
X6530Y-5502D01*
X6582Y-5520D01*
X6617Y-5520D01*
X6670Y-5502D01*
X6705Y-5467D01*
X6723Y-5432D01*
X6740Y-5362D01*
X6740Y-5309D01*
X6723Y-5239D01*
X6705Y-5204D01*
X6670Y-5169D01*
X6617Y-5151D01*
X6582Y-5151D01*
X6530Y-5169D01*
X6512Y-5187D01*
X6302Y-5309D02*
X6337Y-5292D01*
X6354Y-5274D01*
X6372Y-5239D01*
X6372Y-5222D01*
X6354Y-5187D01*
X6337Y-5169D01*
X6302Y-5151D01*
X6232Y-5151D01*
X6197Y-5169D01*
X6179Y-5187D01*
X6162Y-5222D01*
X6162Y-5239D01*
X6179Y-5274D01*
X6197Y-5292D01*
X6232Y-5309D01*
X6302Y-5309D01*
X6337Y-5327D01*
X6354Y-5344D01*
X6372Y-5379D01*
X6372Y-5449D01*
X6354Y-5485D01*
X6337Y-5502D01*
X6302Y-5520D01*
X6232Y-5520D01*
X6197Y-5502D01*
X6179Y-5485D01*
X6162Y-5449D01*
X6162Y-5379D01*
X6179Y-5344D01*
X6197Y-5327D01*
X6232Y-5309D01*
X23173Y-20806D02*
X23192Y-20787D01*
X23210Y-20731D01*
X23210Y-20693D01*
X23192Y-20637D01*
X23154Y-20600D01*
X23117Y-20581D01*
X23042Y-20562D01*
X22985Y-20562D01*
X22910Y-20581D01*
X22873Y-20600D01*
X22835Y-20637D01*
X22817Y-20693D01*
X22817Y-20731D01*
X22835Y-20787D01*
X22854Y-20806D01*
X23210Y-21181D02*
X23210Y-20956D01*
X23210Y-21068D02*
X22817Y-21068D01*
X22873Y-21031D01*
X22910Y-20993D01*
X22929Y-20956D01*
X24673Y-23356D02*
X24692Y-23337D01*
X24710Y-23281D01*
X24710Y-23243D01*
X24692Y-23187D01*
X24654Y-23150D01*
X24617Y-23131D01*
X24542Y-23112D01*
X24485Y-23112D01*
X24410Y-23131D01*
X24373Y-23150D01*
X24335Y-23187D01*
X24317Y-23243D01*
X24317Y-23281D01*
X24335Y-23337D01*
X24354Y-23356D01*
X24354Y-23506D02*
X24335Y-23525D01*
X24317Y-23562D01*
X24317Y-23656D01*
X24335Y-23693D01*
X24354Y-23712D01*
X24392Y-23731D01*
X24429Y-23731D01*
X24485Y-23712D01*
X24710Y-23487D01*
X24710Y-23731D01*
X8273Y-23055D02*
X8291Y-23036D01*
X8310Y-22980D01*
X8310Y-22942D01*
X8291Y-22886D01*
X8254Y-22849D01*
X8216Y-22830D01*
X8142Y-22811D01*
X8085Y-22811D01*
X8010Y-22830D01*
X7973Y-22849D01*
X7935Y-22886D01*
X7917Y-22942D01*
X7917Y-22980D01*
X7935Y-23036D01*
X7954Y-23055D01*
X8048Y-23392D02*
X8310Y-23392D01*
X7898Y-23298D02*
X8179Y-23205D01*
X8179Y-23448D01*
X11062Y-19781D02*
X11080Y-19799D01*
X11137Y-19818D01*
X11174Y-19818D01*
X11230Y-19799D01*
X11268Y-19762D01*
X11287Y-19724D01*
X11305Y-19649D01*
X11305Y-19593D01*
X11287Y-19518D01*
X11268Y-19481D01*
X11230Y-19443D01*
X11174Y-19424D01*
X11137Y-19424D01*
X11080Y-19443D01*
X11062Y-19462D01*
X10705Y-19424D02*
X10893Y-19424D01*
X10912Y-19612D01*
X10893Y-19593D01*
X10855Y-19574D01*
X10762Y-19574D01*
X10724Y-19593D01*
X10705Y-19612D01*
X10687Y-19649D01*
X10687Y-19743D01*
X10705Y-19781D01*
X10724Y-19799D01*
X10762Y-19818D01*
X10855Y-19818D01*
X10893Y-19799D01*
X10912Y-19781D01*
X21517Y-23343D02*
X21535Y-23362D01*
X21592Y-23381D01*
X21629Y-23381D01*
X21685Y-23362D01*
X21723Y-23325D01*
X21742Y-23287D01*
X21760Y-23212D01*
X21760Y-23156D01*
X21742Y-23081D01*
X21723Y-23043D01*
X21685Y-23006D01*
X21629Y-22987D01*
X21592Y-22987D01*
X21535Y-23006D01*
X21517Y-23025D01*
X21179Y-22987D02*
X21254Y-22987D01*
X21292Y-23006D01*
X21310Y-23025D01*
X21348Y-23081D01*
X21367Y-23156D01*
X21367Y-23306D01*
X21348Y-23343D01*
X21329Y-23362D01*
X21292Y-23381D01*
X21217Y-23381D01*
X21179Y-23362D01*
X21160Y-23343D01*
X21142Y-23306D01*
X21142Y-23212D01*
X21160Y-23175D01*
X21179Y-23156D01*
X21217Y-23137D01*
X21292Y-23137D01*
X21329Y-23156D01*
X21348Y-23175D01*
X21367Y-23212D01*
X21517Y-22593D02*
X21535Y-22612D01*
X21592Y-22631D01*
X21629Y-22631D01*
X21685Y-22612D01*
X21723Y-22575D01*
X21742Y-22537D01*
X21760Y-22462D01*
X21760Y-22406D01*
X21742Y-22331D01*
X21723Y-22293D01*
X21685Y-22256D01*
X21629Y-22237D01*
X21592Y-22237D01*
X21535Y-22256D01*
X21517Y-22275D01*
X21385Y-22237D02*
X21123Y-22237D01*
X21292Y-22631D01*
X7562Y-7620D02*
X7685Y-7444D01*
X7773Y-7620D02*
X7773Y-7251D01*
X7632Y-7251D01*
X7597Y-7269D01*
X7580Y-7287D01*
X7562Y-7322D01*
X7562Y-7374D01*
X7580Y-7409D01*
X7597Y-7427D01*
X7632Y-7444D01*
X7773Y-7444D01*
X7212Y-7620D02*
X7422Y-7620D01*
X7317Y-7620D02*
X7317Y-7251D01*
X7352Y-7304D01*
X7387Y-7339D01*
X7422Y-7357D01*
X8562Y-7620D02*
X8685Y-7444D01*
X8773Y-7620D02*
X8773Y-7251D01*
X8632Y-7251D01*
X8597Y-7269D01*
X8580Y-7287D01*
X8562Y-7322D01*
X8562Y-7374D01*
X8580Y-7409D01*
X8597Y-7427D01*
X8632Y-7444D01*
X8773Y-7444D01*
X8422Y-7287D02*
X8404Y-7269D01*
X8369Y-7251D01*
X8282Y-7251D01*
X8247Y-7269D01*
X8229Y-7287D01*
X8212Y-7322D01*
X8212Y-7357D01*
X8229Y-7409D01*
X8440Y-7620D01*
X8212Y-7620D01*
X7273Y-24605D02*
X7291Y-24586D01*
X7310Y-24530D01*
X7310Y-24492D01*
X7291Y-24436D01*
X7254Y-24399D01*
X7216Y-24380D01*
X7142Y-24361D01*
X7085Y-24361D01*
X7010Y-24380D01*
X6973Y-24399D01*
X6935Y-24436D01*
X6917Y-24492D01*
X6917Y-24530D01*
X6935Y-24586D01*
X6954Y-24605D01*
X6917Y-24736D02*
X6917Y-24980D01*
X7067Y-24848D01*
X7067Y-24905D01*
X7085Y-24942D01*
X7104Y-24961D01*
X7142Y-24980D01*
X7235Y-24980D01*
X7273Y-24961D01*
X7291Y-24942D01*
X7310Y-24905D01*
X7310Y-24792D01*
X7291Y-24755D01*
X7273Y-24736D01*
X20817Y-21681D02*
X20948Y-21493D01*
X21042Y-21681D02*
X21042Y-21287D01*
X20892Y-21287D01*
X20854Y-21306D01*
X20835Y-21325D01*
X20817Y-21362D01*
X20817Y-21418D01*
X20835Y-21456D01*
X20854Y-21475D01*
X20892Y-21493D01*
X21042Y-21493D01*
X20685Y-21287D02*
X20442Y-21287D01*
X20573Y-21437D01*
X20517Y-21437D01*
X20479Y-21456D01*
X20460Y-21475D01*
X20442Y-21512D01*
X20442Y-21606D01*
X20460Y-21643D01*
X20479Y-21662D01*
X20517Y-21681D01*
X20629Y-21681D01*
X20667Y-21662D01*
X20685Y-21643D01*
X7810Y-23805D02*
X7623Y-23674D01*
X7810Y-23580D02*
X7417Y-23580D01*
X7417Y-23730D01*
X7435Y-23767D01*
X7454Y-23786D01*
X7492Y-23805D01*
X7548Y-23805D01*
X7585Y-23786D01*
X7604Y-23767D01*
X7623Y-23730D01*
X7623Y-23580D01*
X7417Y-24161D02*
X7417Y-23973D01*
X7604Y-23955D01*
X7585Y-23973D01*
X7567Y-24011D01*
X7567Y-24105D01*
X7585Y-24142D01*
X7604Y-24161D01*
X7642Y-24180D01*
X7735Y-24180D01*
X7773Y-24161D01*
X7791Y-24142D01*
X7810Y-24105D01*
X7810Y-24011D01*
X7791Y-23973D01*
X7773Y-23955D01*
X15898Y-44371D02*
X15898Y-44002D01*
X15810Y-44002D01*
X15758Y-44020D01*
X15723Y-44055D01*
X15705Y-44090D01*
X15688Y-44160D01*
X15688Y-44213D01*
X15705Y-44283D01*
X15723Y-44318D01*
X15758Y-44353D01*
X15810Y-44371D01*
X15898Y-44371D01*
X15547Y-44038D02*
X15530Y-44020D01*
X15495Y-44002D01*
X15407Y-44002D01*
X15372Y-44020D01*
X15354Y-44038D01*
X15337Y-44073D01*
X15337Y-44108D01*
X15354Y-44160D01*
X15565Y-44371D01*
X15337Y-44371D01*
X15197Y-44038D02*
X15179Y-44020D01*
X15144Y-44002D01*
X15056Y-44002D01*
X15021Y-44020D01*
X15004Y-44038D01*
X14986Y-44073D01*
X14986Y-44108D01*
X15004Y-44160D01*
X15214Y-44371D01*
X14986Y-44371D01*
X5248Y-43521D02*
X5248Y-43152D01*
X5160Y-43152D01*
X5108Y-43170D01*
X5073Y-43205D01*
X5055Y-43240D01*
X5038Y-43310D01*
X5038Y-43363D01*
X5055Y-43433D01*
X5073Y-43468D01*
X5108Y-43503D01*
X5160Y-43521D01*
X5248Y-43521D01*
X4897Y-43187D02*
X4880Y-43170D01*
X4845Y-43152D01*
X4757Y-43152D01*
X4722Y-43170D01*
X4704Y-43187D01*
X4687Y-43223D01*
X4687Y-43258D01*
X4704Y-43310D01*
X4915Y-43521D01*
X4687Y-43521D01*
X4336Y-43521D02*
X4547Y-43521D01*
X4442Y-43521D02*
X4442Y-43152D01*
X4477Y-43205D01*
X4512Y-43240D01*
X4547Y-43258D01*
X29248Y-20271D02*
X29248Y-19902D01*
X29160Y-19902D01*
X29108Y-19920D01*
X29073Y-19955D01*
X29055Y-19990D01*
X29038Y-20060D01*
X29038Y-20113D01*
X29055Y-20183D01*
X29073Y-20218D01*
X29108Y-20253D01*
X29160Y-20271D01*
X29248Y-20271D01*
X28687Y-20271D02*
X28897Y-20271D01*
X28792Y-20271D02*
X28792Y-19902D01*
X28827Y-19955D01*
X28862Y-19990D01*
X28897Y-20008D01*
X28477Y-20060D02*
X28512Y-20043D01*
X28529Y-20025D01*
X28547Y-19990D01*
X28547Y-19973D01*
X28529Y-19937D01*
X28512Y-19920D01*
X28477Y-19902D01*
X28407Y-19902D01*
X28372Y-19920D01*
X28354Y-19937D01*
X28337Y-19973D01*
X28337Y-19990D01*
X28354Y-20025D01*
X28372Y-20043D01*
X28407Y-20060D01*
X28477Y-20060D01*
X28512Y-20078D01*
X28529Y-20095D01*
X28547Y-20130D01*
X28547Y-20200D01*
X28529Y-20235D01*
X28512Y-20253D01*
X28477Y-20271D01*
X28407Y-20271D01*
X28372Y-20253D01*
X28354Y-20235D01*
X28337Y-20200D01*
X28337Y-20130D01*
X28354Y-20095D01*
X28372Y-20078D01*
X28407Y-20060D01*
X29248Y-12771D02*
X29248Y-12402D01*
X29160Y-12402D01*
X29108Y-12420D01*
X29073Y-12455D01*
X29055Y-12490D01*
X29038Y-12560D01*
X29038Y-12613D01*
X29055Y-12683D01*
X29073Y-12718D01*
X29108Y-12753D01*
X29160Y-12771D01*
X29248Y-12771D01*
X28687Y-12771D02*
X28897Y-12771D01*
X28792Y-12771D02*
X28792Y-12402D01*
X28827Y-12455D01*
X28862Y-12490D01*
X28897Y-12508D01*
X28564Y-12402D02*
X28319Y-12402D01*
X28477Y-12771D01*
X28348Y-7020D02*
X28348Y-6651D01*
X28260Y-6651D01*
X28208Y-6669D01*
X28173Y-6704D01*
X28155Y-6739D01*
X28138Y-6809D01*
X28138Y-6862D01*
X28155Y-6932D01*
X28173Y-6967D01*
X28208Y-7002D01*
X28260Y-7020D01*
X28348Y-7020D01*
X27787Y-7020D02*
X27997Y-7020D01*
X27892Y-7020D02*
X27892Y-6651D01*
X27927Y-6704D01*
X27962Y-6739D01*
X27997Y-6757D01*
X27472Y-6651D02*
X27542Y-6651D01*
X27577Y-6669D01*
X27594Y-6687D01*
X27629Y-6739D01*
X27647Y-6809D01*
X27647Y-6949D01*
X27629Y-6985D01*
X27612Y-7002D01*
X27577Y-7020D01*
X27507Y-7020D01*
X27472Y-7002D01*
X27454Y-6985D01*
X27437Y-6949D01*
X27437Y-6862D01*
X27454Y-6827D01*
X27472Y-6809D01*
X27507Y-6792D01*
X27577Y-6792D01*
X27612Y-6809D01*
X27629Y-6827D01*
X27647Y-6862D01*
X20748Y-27969D02*
X20748Y-27601D01*
X20660Y-27601D01*
X20608Y-27619D01*
X20573Y-27654D01*
X20555Y-27689D01*
X20538Y-27759D01*
X20538Y-27812D01*
X20555Y-27882D01*
X20573Y-27917D01*
X20608Y-27952D01*
X20660Y-27969D01*
X20748Y-27969D01*
X20187Y-27969D02*
X20397Y-27969D01*
X20292Y-27969D02*
X20292Y-27601D01*
X20327Y-27654D01*
X20362Y-27689D01*
X20397Y-27706D01*
X19872Y-27724D02*
X19872Y-27969D01*
X19959Y-27584D02*
X20047Y-27847D01*
X19819Y-27847D01*
X20848Y-17019D02*
X20848Y-16651D01*
X20760Y-16651D01*
X20708Y-16669D01*
X20673Y-16704D01*
X20655Y-16739D01*
X20638Y-16809D01*
X20638Y-16862D01*
X20655Y-16932D01*
X20673Y-16967D01*
X20708Y-17002D01*
X20760Y-17019D01*
X20848Y-17019D01*
X20287Y-17019D02*
X20497Y-17019D01*
X20392Y-17019D02*
X20392Y-16651D01*
X20427Y-16704D01*
X20462Y-16739D01*
X20497Y-16756D01*
X20164Y-16651D02*
X19937Y-16651D01*
X20059Y-16791D01*
X20007Y-16791D01*
X19972Y-16809D01*
X19954Y-16827D01*
X19937Y-16862D01*
X19937Y-16949D01*
X19954Y-16984D01*
X19972Y-17002D01*
X20007Y-17019D01*
X20112Y-17019D01*
X20147Y-17002D01*
X20164Y-16984D01*
X20848Y-14520D02*
X20848Y-14151D01*
X20760Y-14151D01*
X20708Y-14169D01*
X20673Y-14204D01*
X20655Y-14239D01*
X20638Y-14309D01*
X20638Y-14362D01*
X20655Y-14432D01*
X20673Y-14467D01*
X20708Y-14502D01*
X20760Y-14520D01*
X20848Y-14520D01*
X20287Y-14520D02*
X20497Y-14520D01*
X20392Y-14520D02*
X20392Y-14151D01*
X20427Y-14204D01*
X20462Y-14239D01*
X20497Y-14257D01*
X20147Y-14187D02*
X20129Y-14169D01*
X20094Y-14151D01*
X20007Y-14151D01*
X19972Y-14169D01*
X19954Y-14187D01*
X19937Y-14222D01*
X19937Y-14257D01*
X19954Y-14309D01*
X20164Y-14520D01*
X19937Y-14520D01*
X20848Y-7020D02*
X20848Y-6651D01*
X20760Y-6651D01*
X20708Y-6669D01*
X20673Y-6704D01*
X20655Y-6739D01*
X20638Y-6809D01*
X20638Y-6862D01*
X20655Y-6932D01*
X20673Y-6967D01*
X20708Y-7002D01*
X20760Y-7020D01*
X20848Y-7020D01*
X20287Y-7020D02*
X20497Y-7020D01*
X20392Y-7020D02*
X20392Y-6651D01*
X20427Y-6704D01*
X20462Y-6739D01*
X20497Y-6757D01*
X19937Y-7020D02*
X20147Y-7020D01*
X20042Y-7020D02*
X20042Y-6651D01*
X20077Y-6704D01*
X20112Y-6739D01*
X20147Y-6757D01*
G54D18*
X25809Y-972D02*
X25809Y-722D01*
X25869Y-722D01*
X25905Y-734D01*
X25928Y-757D01*
X25940Y-781D01*
X25952Y-829D01*
X25952Y-865D01*
X25940Y-912D01*
X25928Y-936D01*
X25905Y-960D01*
X25869Y-972D01*
X25809Y-972D01*
X26143Y-841D02*
X26059Y-841D01*
X26059Y-972D02*
X26059Y-722D01*
X26178Y-722D01*
X26250Y-722D02*
X26405Y-722D01*
X26321Y-817D01*
X26357Y-817D01*
X26381Y-829D01*
X26393Y-841D01*
X26405Y-865D01*
X26405Y-924D01*
X26393Y-948D01*
X26381Y-960D01*
X26357Y-972D01*
X26286Y-972D01*
X26262Y-960D01*
X26250Y-948D01*
X3291Y-972D02*
X3291Y-722D01*
X3351Y-722D01*
X3387Y-734D01*
X3410Y-757D01*
X3422Y-781D01*
X3434Y-829D01*
X3434Y-865D01*
X3422Y-912D01*
X3410Y-936D01*
X3387Y-960D01*
X3351Y-972D01*
X3291Y-972D01*
X3684Y-948D02*
X3672Y-960D01*
X3637Y-972D01*
X3613Y-972D01*
X3577Y-960D01*
X3553Y-936D01*
X3541Y-912D01*
X3529Y-865D01*
X3529Y-829D01*
X3541Y-781D01*
X3553Y-757D01*
X3577Y-734D01*
X3613Y-722D01*
X3637Y-722D01*
X3672Y-734D01*
X3684Y-746D01*
X3922Y-972D02*
X3779Y-972D01*
X3851Y-972D02*
X3851Y-722D01*
X3827Y-757D01*
X3803Y-781D01*
X3779Y-793D01*
G54D17*
X13173Y-29519D02*
X13173Y-29151D01*
X13085Y-29151D01*
X13032Y-29169D01*
X12997Y-29204D01*
X12980Y-29239D01*
X12962Y-29309D01*
X12962Y-29362D01*
X12980Y-29432D01*
X12997Y-29467D01*
X13032Y-29502D01*
X13085Y-29519D01*
X13173Y-29519D01*
X12787Y-29519D02*
X12717Y-29519D01*
X12682Y-29502D01*
X12664Y-29484D01*
X12629Y-29432D01*
X12612Y-29362D01*
X12612Y-29221D01*
X12629Y-29186D01*
X12647Y-29169D01*
X12682Y-29151D01*
X12752Y-29151D01*
X12787Y-29169D01*
X12804Y-29186D01*
X12822Y-29221D01*
X12822Y-29309D01*
X12804Y-29344D01*
X12787Y-29362D01*
X12752Y-29379D01*
X12682Y-29379D01*
X12647Y-29362D01*
X12629Y-29344D01*
X12612Y-29309D01*
X29248Y-35271D02*
X29248Y-34902D01*
X29160Y-34902D01*
X29108Y-34920D01*
X29073Y-34955D01*
X29055Y-34990D01*
X29038Y-35060D01*
X29038Y-35113D01*
X29055Y-35183D01*
X29073Y-35218D01*
X29108Y-35253D01*
X29160Y-35271D01*
X29248Y-35271D01*
X28897Y-34937D02*
X28880Y-34920D01*
X28845Y-34902D01*
X28757Y-34902D01*
X28722Y-34920D01*
X28705Y-34937D01*
X28687Y-34973D01*
X28687Y-35008D01*
X28705Y-35060D01*
X28915Y-35271D01*
X28687Y-35271D01*
X28459Y-34902D02*
X28424Y-34902D01*
X28389Y-34920D01*
X28372Y-34937D01*
X28354Y-34973D01*
X28337Y-35043D01*
X28337Y-35130D01*
X28354Y-35200D01*
X28372Y-35235D01*
X28389Y-35253D01*
X28424Y-35271D01*
X28459Y-35271D01*
X28494Y-35253D01*
X28512Y-35235D01*
X28529Y-35200D01*
X28547Y-35130D01*
X28547Y-35043D01*
X28529Y-34973D01*
X28512Y-34937D01*
X28494Y-34920D01*
X28459Y-34902D01*
X29248Y-27771D02*
X29248Y-27402D01*
X29160Y-27402D01*
X29108Y-27420D01*
X29073Y-27455D01*
X29055Y-27490D01*
X29038Y-27560D01*
X29038Y-27613D01*
X29055Y-27683D01*
X29073Y-27718D01*
X29108Y-27753D01*
X29160Y-27771D01*
X29248Y-27771D01*
X28687Y-27771D02*
X28897Y-27771D01*
X28792Y-27771D02*
X28792Y-27402D01*
X28827Y-27455D01*
X28862Y-27490D01*
X28897Y-27508D01*
X28512Y-27771D02*
X28442Y-27771D01*
X28407Y-27753D01*
X28389Y-27735D01*
X28354Y-27683D01*
X28337Y-27613D01*
X28337Y-27473D01*
X28354Y-27437D01*
X28372Y-27420D01*
X28407Y-27402D01*
X28477Y-27402D01*
X28512Y-27420D01*
X28529Y-27437D01*
X28547Y-27473D01*
X28547Y-27560D01*
X28529Y-27595D01*
X28512Y-27613D01*
X28477Y-27630D01*
X28407Y-27630D01*
X28372Y-27613D01*
X28354Y-27595D01*
X28337Y-27560D01*
X20848Y-37019D02*
X20848Y-36651D01*
X20760Y-36651D01*
X20708Y-36669D01*
X20673Y-36704D01*
X20655Y-36739D01*
X20638Y-36809D01*
X20638Y-36862D01*
X20655Y-36932D01*
X20673Y-36967D01*
X20708Y-37002D01*
X20760Y-37019D01*
X20848Y-37019D01*
X20287Y-37019D02*
X20497Y-37019D01*
X20392Y-37019D02*
X20392Y-36651D01*
X20427Y-36704D01*
X20462Y-36739D01*
X20497Y-36756D01*
X19954Y-36651D02*
X20129Y-36651D01*
X20147Y-36827D01*
X20129Y-36809D01*
X20094Y-36791D01*
X20007Y-36791D01*
X19972Y-36809D01*
X19954Y-36827D01*
X19937Y-36862D01*
X19937Y-36949D01*
X19954Y-36984D01*
X19972Y-37002D01*
X20007Y-37019D01*
X20094Y-37019D01*
X20129Y-37002D01*
X20147Y-36984D01*
X14098Y-37271D02*
X14098Y-36902D01*
X14010Y-36902D01*
X13958Y-36920D01*
X13923Y-36955D01*
X13905Y-36990D01*
X13888Y-37060D01*
X13888Y-37113D01*
X13905Y-37183D01*
X13923Y-37218D01*
X13958Y-37253D01*
X14010Y-37271D01*
X14098Y-37271D01*
X13537Y-37271D02*
X13747Y-37271D01*
X13642Y-37271D02*
X13642Y-36902D01*
X13677Y-36955D01*
X13712Y-36990D01*
X13747Y-37008D01*
X13309Y-36902D02*
X13274Y-36902D01*
X13239Y-36920D01*
X13221Y-36937D01*
X13204Y-36973D01*
X13186Y-37043D01*
X13186Y-37130D01*
X13204Y-37200D01*
X13221Y-37235D01*
X13239Y-37253D01*
X13274Y-37271D01*
X13309Y-37271D01*
X13344Y-37253D01*
X13362Y-37235D01*
X13379Y-37200D01*
X13397Y-37130D01*
X13397Y-37043D01*
X13379Y-36973D01*
X13362Y-36937D01*
X13344Y-36920D01*
X13309Y-36902D01*
X4923Y-37021D02*
X4923Y-36652D01*
X4835Y-36652D01*
X4782Y-36670D01*
X4747Y-36705D01*
X4730Y-36740D01*
X4712Y-36810D01*
X4712Y-36863D01*
X4730Y-36933D01*
X4747Y-36968D01*
X4782Y-37003D01*
X4835Y-37021D01*
X4923Y-37021D01*
X4379Y-36652D02*
X4554Y-36652D01*
X4572Y-36828D01*
X4554Y-36810D01*
X4519Y-36793D01*
X4432Y-36793D01*
X4397Y-36810D01*
X4379Y-36828D01*
X4362Y-36863D01*
X4362Y-36950D01*
X4379Y-36985D01*
X4397Y-37003D01*
X4432Y-37021D01*
X4519Y-37021D01*
X4554Y-37003D01*
X4572Y-36985D01*
X5673Y-22019D02*
X5673Y-21651D01*
X5585Y-21651D01*
X5532Y-21669D01*
X5497Y-21704D01*
X5480Y-21739D01*
X5462Y-21809D01*
X5462Y-21862D01*
X5480Y-21932D01*
X5497Y-21967D01*
X5532Y-22002D01*
X5585Y-22019D01*
X5673Y-22019D01*
X5340Y-21651D02*
X5112Y-21651D01*
X5234Y-21791D01*
X5182Y-21791D01*
X5147Y-21809D01*
X5129Y-21827D01*
X5112Y-21862D01*
X5112Y-21949D01*
X5129Y-21984D01*
X5147Y-22002D01*
X5182Y-22019D01*
X5287Y-22019D01*
X5322Y-22002D01*
X5340Y-21984D01*
X5673Y-7020D02*
X5673Y-6651D01*
X5585Y-6651D01*
X5532Y-6669D01*
X5497Y-6704D01*
X5480Y-6739D01*
X5462Y-6809D01*
X5462Y-6862D01*
X5480Y-6932D01*
X5497Y-6967D01*
X5532Y-7002D01*
X5585Y-7020D01*
X5673Y-7020D01*
X5112Y-7020D02*
X5322Y-7020D01*
X5217Y-7020D02*
X5217Y-6651D01*
X5252Y-6704D01*
X5287Y-6739D01*
X5322Y-6757D01*
X13173Y-17019D02*
X13173Y-16651D01*
X13085Y-16651D01*
X13032Y-16669D01*
X12997Y-16704D01*
X12980Y-16739D01*
X12962Y-16809D01*
X12962Y-16862D01*
X12980Y-16932D01*
X12997Y-16967D01*
X13032Y-17002D01*
X13085Y-17019D01*
X13173Y-17019D01*
X12752Y-16809D02*
X12787Y-16791D01*
X12804Y-16774D01*
X12822Y-16739D01*
X12822Y-16721D01*
X12804Y-16686D01*
X12787Y-16669D01*
X12752Y-16651D01*
X12682Y-16651D01*
X12647Y-16669D01*
X12629Y-16686D01*
X12612Y-16721D01*
X12612Y-16739D01*
X12629Y-16774D01*
X12647Y-16791D01*
X12682Y-16809D01*
X12752Y-16809D01*
X12787Y-16827D01*
X12804Y-16844D01*
X12822Y-16879D01*
X12822Y-16949D01*
X12804Y-16984D01*
X12787Y-17002D01*
X12752Y-17019D01*
X12682Y-17019D01*
X12647Y-17002D01*
X12629Y-16984D01*
X12612Y-16949D01*
X12612Y-16879D01*
X12629Y-16844D01*
X12647Y-16827D01*
X12682Y-16809D01*
X13173Y-14520D02*
X13173Y-14151D01*
X13085Y-14151D01*
X13032Y-14169D01*
X12997Y-14204D01*
X12980Y-14239D01*
X12962Y-14309D01*
X12962Y-14362D01*
X12980Y-14432D01*
X12997Y-14467D01*
X13032Y-14502D01*
X13085Y-14520D01*
X13173Y-14520D01*
X12840Y-14151D02*
X12594Y-14151D01*
X12752Y-14520D01*
X5673Y-29519D02*
X5673Y-29151D01*
X5585Y-29151D01*
X5532Y-29169D01*
X5497Y-29204D01*
X5480Y-29239D01*
X5462Y-29309D01*
X5462Y-29362D01*
X5480Y-29432D01*
X5497Y-29467D01*
X5532Y-29502D01*
X5585Y-29519D01*
X5673Y-29519D01*
X5147Y-29274D02*
X5147Y-29519D01*
X5234Y-29134D02*
X5322Y-29397D01*
X5094Y-29397D01*
X5673Y-14520D02*
X5673Y-14151D01*
X5585Y-14151D01*
X5532Y-14169D01*
X5497Y-14204D01*
X5480Y-14239D01*
X5462Y-14309D01*
X5462Y-14362D01*
X5480Y-14432D01*
X5497Y-14467D01*
X5532Y-14502D01*
X5585Y-14520D01*
X5673Y-14520D01*
X5322Y-14187D02*
X5304Y-14169D01*
X5269Y-14151D01*
X5182Y-14151D01*
X5147Y-14169D01*
X5129Y-14187D01*
X5112Y-14222D01*
X5112Y-14257D01*
X5129Y-14309D01*
X5340Y-14520D01*
X5112Y-14520D01*
X13173Y-7020D02*
X13173Y-6651D01*
X13085Y-6651D01*
X13032Y-6669D01*
X12997Y-6704D01*
X12980Y-6739D01*
X12962Y-6809D01*
X12962Y-6862D01*
X12980Y-6932D01*
X12997Y-6967D01*
X13032Y-7002D01*
X13085Y-7020D01*
X13173Y-7020D01*
X12647Y-6651D02*
X12717Y-6651D01*
X12752Y-6669D01*
X12769Y-6687D01*
X12804Y-6739D01*
X12822Y-6809D01*
X12822Y-6949D01*
X12804Y-6985D01*
X12787Y-7002D01*
X12752Y-7020D01*
X12682Y-7020D01*
X12647Y-7002D01*
X12629Y-6985D01*
X12612Y-6949D01*
X12612Y-6862D01*
X12629Y-6827D01*
X12647Y-6809D01*
X12682Y-6792D01*
X12752Y-6792D01*
X12787Y-6809D01*
X12804Y-6827D01*
X12822Y-6862D01*
G54D18*
X10809Y-972D02*
X10809Y-722D01*
X10869Y-722D01*
X10904Y-734D01*
X10928Y-757D01*
X10940Y-781D01*
X10952Y-829D01*
X10952Y-865D01*
X10940Y-912D01*
X10928Y-936D01*
X10904Y-960D01*
X10869Y-972D01*
X10809Y-972D01*
X11143Y-841D02*
X11059Y-841D01*
X11059Y-972D02*
X11059Y-722D01*
X11178Y-722D01*
X11404Y-972D02*
X11262Y-972D01*
X11333Y-972D02*
X11333Y-722D01*
X11309Y-757D01*
X11285Y-781D01*
X11262Y-793D01*
X18309Y-972D02*
X18309Y-722D01*
X18369Y-722D01*
X18405Y-734D01*
X18428Y-757D01*
X18440Y-781D01*
X18452Y-829D01*
X18452Y-865D01*
X18440Y-912D01*
X18428Y-936D01*
X18405Y-960D01*
X18369Y-972D01*
X18309Y-972D01*
X18643Y-841D02*
X18559Y-841D01*
X18559Y-972D02*
X18559Y-722D01*
X18678Y-722D01*
X18762Y-746D02*
X18774Y-734D01*
X18798Y-722D01*
X18857Y-722D01*
X18881Y-734D01*
X18893Y-746D01*
X18905Y-769D01*
X18905Y-793D01*
X18893Y-829D01*
X18750Y-972D01*
X18905Y-972D01*
G54D17*
X20848Y-44521D02*
X20848Y-44152D01*
X20760Y-44152D01*
X20708Y-44170D01*
X20673Y-44205D01*
X20655Y-44240D01*
X20638Y-44310D01*
X20638Y-44363D01*
X20655Y-44433D01*
X20673Y-44468D01*
X20708Y-44503D01*
X20760Y-44521D01*
X20848Y-44521D01*
X20497Y-44187D02*
X20480Y-44170D01*
X20445Y-44152D01*
X20357Y-44152D01*
X20322Y-44170D01*
X20305Y-44187D01*
X20287Y-44223D01*
X20287Y-44258D01*
X20305Y-44310D01*
X20515Y-44521D01*
X20287Y-44521D01*
X20164Y-44152D02*
X19937Y-44152D01*
X20059Y-44293D01*
X20007Y-44293D01*
X19972Y-44310D01*
X19954Y-44328D01*
X19937Y-44363D01*
X19937Y-44450D01*
X19954Y-44485D01*
X19972Y-44503D01*
X20007Y-44521D01*
X20112Y-44521D01*
X20147Y-44503D01*
X20164Y-44485D01*
X28348Y-44521D02*
X28348Y-44152D01*
X28260Y-44152D01*
X28208Y-44170D01*
X28173Y-44205D01*
X28155Y-44240D01*
X28138Y-44310D01*
X28138Y-44363D01*
X28155Y-44433D01*
X28173Y-44468D01*
X28208Y-44503D01*
X28260Y-44521D01*
X28348Y-44521D01*
X27997Y-44187D02*
X27980Y-44170D01*
X27945Y-44152D01*
X27857Y-44152D01*
X27822Y-44170D01*
X27805Y-44187D01*
X27787Y-44223D01*
X27787Y-44258D01*
X27805Y-44310D01*
X28015Y-44521D01*
X27787Y-44521D01*
X27472Y-44275D02*
X27472Y-44521D01*
X27559Y-44135D02*
X27647Y-44398D01*
X27419Y-44398D01*
G54D19*
X14994Y-37573D02*
X14640Y-37573D01*
X14640Y-37708D01*
X14657Y-37741D01*
X14674Y-37758D01*
X14707Y-37775D01*
X14758Y-37775D01*
X14792Y-37758D01*
X14808Y-37741D01*
X14825Y-37708D01*
X14825Y-37573D01*
X14640Y-37893D02*
X14640Y-38112D01*
X14775Y-37994D01*
X14775Y-38045D01*
X14792Y-38079D01*
X14808Y-38096D01*
X14842Y-38112D01*
X14927Y-38112D01*
X14960Y-38096D01*
X14977Y-38079D01*
X14994Y-38045D01*
X14994Y-37944D01*
X14977Y-37910D01*
X14960Y-37893D01*
X14640Y-38332D02*
X14640Y-38366D01*
X14657Y-38399D01*
X14674Y-38416D01*
X14707Y-38433D01*
X14775Y-38450D01*
X14859Y-38450D01*
X14927Y-38433D01*
X14960Y-38416D01*
X14977Y-38399D01*
X14994Y-38366D01*
X14994Y-38332D01*
X14977Y-38298D01*
X14960Y-38281D01*
X14927Y-38264D01*
X14859Y-38247D01*
X14775Y-38247D01*
X14707Y-38264D01*
X14674Y-38281D01*
X14657Y-38298D01*
X14640Y-38332D01*
X14640Y-38669D02*
X14640Y-38703D01*
X14657Y-38737D01*
X14674Y-38754D01*
X14707Y-38771D01*
X14775Y-38787D01*
X14859Y-38787D01*
X14927Y-38771D01*
X14960Y-38754D01*
X14977Y-38737D01*
X14994Y-38703D01*
X14994Y-38669D01*
X14977Y-38636D01*
X14960Y-38619D01*
X14927Y-38602D01*
X14859Y-38585D01*
X14775Y-38585D01*
X14707Y-38602D01*
X14674Y-38619D01*
X14657Y-38636D01*
X14640Y-38669D01*
X14994Y-39108D02*
X14640Y-39108D01*
X14640Y-39193D01*
X14657Y-39243D01*
X14690Y-39277D01*
X14724Y-39294D01*
X14792Y-39311D01*
X14842Y-39311D01*
X14910Y-39294D01*
X14943Y-39277D01*
X14977Y-39243D01*
X14994Y-39193D01*
X14994Y-39108D01*
X14994Y-39665D02*
X14825Y-39547D01*
X14994Y-39462D02*
X14640Y-39462D01*
X14640Y-39597D01*
X14657Y-39631D01*
X14674Y-39648D01*
X14707Y-39665D01*
X14758Y-39665D01*
X14792Y-39648D01*
X14808Y-39631D01*
X14825Y-39597D01*
X14825Y-39462D01*
X14994Y-39986D02*
X14994Y-39817D01*
X14640Y-39817D01*
X16144Y-37572D02*
X15790Y-37572D01*
X15790Y-37707D01*
X15807Y-37740D01*
X15824Y-37757D01*
X15857Y-37774D01*
X15908Y-37774D01*
X15942Y-37757D01*
X15959Y-37740D01*
X15976Y-37707D01*
X15976Y-37572D01*
X15790Y-37892D02*
X15790Y-38112D01*
X15925Y-37993D01*
X15925Y-38044D01*
X15942Y-38078D01*
X15959Y-38095D01*
X15992Y-38112D01*
X16077Y-38112D01*
X16111Y-38095D01*
X16127Y-38078D01*
X16144Y-38044D01*
X16144Y-37943D01*
X16127Y-37909D01*
X16111Y-37892D01*
X15790Y-38331D02*
X15790Y-38365D01*
X15807Y-38398D01*
X15824Y-38415D01*
X15857Y-38432D01*
X15925Y-38449D01*
X16009Y-38449D01*
X16077Y-38432D01*
X16111Y-38415D01*
X16127Y-38398D01*
X16144Y-38365D01*
X16144Y-38331D01*
X16127Y-38297D01*
X16111Y-38280D01*
X16077Y-38263D01*
X16009Y-38246D01*
X15925Y-38246D01*
X15857Y-38263D01*
X15824Y-38280D01*
X15807Y-38297D01*
X15790Y-38331D01*
X16144Y-38786D02*
X16144Y-38584D01*
X16144Y-38685D02*
X15790Y-38685D01*
X15841Y-38651D01*
X15874Y-38618D01*
X15891Y-38584D01*
X16144Y-39107D02*
X15790Y-39107D01*
X15790Y-39192D01*
X15807Y-39242D01*
X15841Y-39276D01*
X15874Y-39293D01*
X15942Y-39310D01*
X15992Y-39310D01*
X16060Y-39293D01*
X16094Y-39276D01*
X16127Y-39242D01*
X16144Y-39192D01*
X16144Y-39107D01*
X16144Y-39664D02*
X15976Y-39546D01*
X16144Y-39462D02*
X15790Y-39462D01*
X15790Y-39596D01*
X15807Y-39630D01*
X15824Y-39647D01*
X15857Y-39664D01*
X15908Y-39664D01*
X15942Y-39647D01*
X15959Y-39630D01*
X15976Y-39596D01*
X15976Y-39462D01*
X16144Y-39985D02*
X16144Y-39816D01*
X15790Y-39816D01*
X17344Y-37572D02*
X16990Y-37572D01*
X16990Y-37707D01*
X17007Y-37740D01*
X17024Y-37757D01*
X17057Y-37774D01*
X17108Y-37774D01*
X17142Y-37757D01*
X17159Y-37740D01*
X17176Y-37707D01*
X17176Y-37572D01*
X16990Y-37892D02*
X16990Y-38112D01*
X17125Y-37993D01*
X17125Y-38044D01*
X17142Y-38078D01*
X17159Y-38095D01*
X17192Y-38112D01*
X17277Y-38112D01*
X17311Y-38095D01*
X17327Y-38078D01*
X17344Y-38044D01*
X17344Y-37943D01*
X17327Y-37909D01*
X17311Y-37892D01*
X16990Y-38331D02*
X16990Y-38365D01*
X17007Y-38398D01*
X17024Y-38415D01*
X17057Y-38432D01*
X17125Y-38449D01*
X17209Y-38449D01*
X17277Y-38432D01*
X17311Y-38415D01*
X17327Y-38398D01*
X17344Y-38365D01*
X17344Y-38331D01*
X17327Y-38297D01*
X17311Y-38280D01*
X17277Y-38263D01*
X17209Y-38246D01*
X17125Y-38246D01*
X17057Y-38263D01*
X17024Y-38280D01*
X17007Y-38297D01*
X16990Y-38331D01*
X17024Y-38584D02*
X17007Y-38601D01*
X16990Y-38635D01*
X16990Y-38719D01*
X17007Y-38753D01*
X17024Y-38770D01*
X17057Y-38786D01*
X17091Y-38786D01*
X17142Y-38770D01*
X17344Y-38567D01*
X17344Y-38786D01*
X17344Y-39107D02*
X16990Y-39107D01*
X16990Y-39192D01*
X17007Y-39242D01*
X17041Y-39276D01*
X17074Y-39293D01*
X17142Y-39310D01*
X17192Y-39310D01*
X17260Y-39293D01*
X17294Y-39276D01*
X17327Y-39242D01*
X17344Y-39192D01*
X17344Y-39107D01*
X17344Y-39664D02*
X17176Y-39546D01*
X17344Y-39462D02*
X16990Y-39462D01*
X16990Y-39596D01*
X17007Y-39630D01*
X17024Y-39647D01*
X17057Y-39664D01*
X17108Y-39664D01*
X17142Y-39647D01*
X17159Y-39630D01*
X17176Y-39596D01*
X17176Y-39462D01*
X17344Y-39985D02*
X17344Y-39816D01*
X16990Y-39816D01*
X18544Y-37572D02*
X18190Y-37572D01*
X18190Y-37707D01*
X18207Y-37740D01*
X18224Y-37757D01*
X18257Y-37774D01*
X18308Y-37774D01*
X18342Y-37757D01*
X18359Y-37740D01*
X18376Y-37707D01*
X18376Y-37572D01*
X18190Y-37892D02*
X18190Y-38112D01*
X18325Y-37993D01*
X18325Y-38044D01*
X18342Y-38078D01*
X18359Y-38095D01*
X18392Y-38112D01*
X18477Y-38112D01*
X18511Y-38095D01*
X18527Y-38078D01*
X18544Y-38044D01*
X18544Y-37943D01*
X18527Y-37909D01*
X18511Y-37892D01*
X18190Y-38331D02*
X18190Y-38365D01*
X18207Y-38398D01*
X18224Y-38415D01*
X18257Y-38432D01*
X18325Y-38449D01*
X18409Y-38449D01*
X18477Y-38432D01*
X18511Y-38415D01*
X18527Y-38398D01*
X18544Y-38365D01*
X18544Y-38331D01*
X18527Y-38297D01*
X18511Y-38280D01*
X18477Y-38263D01*
X18409Y-38246D01*
X18325Y-38246D01*
X18257Y-38263D01*
X18224Y-38280D01*
X18207Y-38297D01*
X18190Y-38331D01*
X18190Y-38567D02*
X18190Y-38786D01*
X18325Y-38668D01*
X18325Y-38719D01*
X18342Y-38753D01*
X18359Y-38770D01*
X18392Y-38786D01*
X18477Y-38786D01*
X18511Y-38770D01*
X18527Y-38753D01*
X18544Y-38719D01*
X18544Y-38618D01*
X18527Y-38584D01*
X18511Y-38567D01*
X18544Y-39107D02*
X18190Y-39107D01*
X18190Y-39192D01*
X18207Y-39242D01*
X18241Y-39276D01*
X18274Y-39293D01*
X18342Y-39310D01*
X18392Y-39310D01*
X18460Y-39293D01*
X18494Y-39276D01*
X18527Y-39242D01*
X18544Y-39192D01*
X18544Y-39107D01*
X18544Y-39664D02*
X18376Y-39546D01*
X18544Y-39462D02*
X18190Y-39462D01*
X18190Y-39596D01*
X18207Y-39630D01*
X18224Y-39647D01*
X18257Y-39664D01*
X18308Y-39664D01*
X18342Y-39647D01*
X18359Y-39630D01*
X18376Y-39596D01*
X18376Y-39462D01*
X18544Y-39985D02*
X18544Y-39816D01*
X18190Y-39816D01*
X19744Y-37572D02*
X19390Y-37572D01*
X19390Y-37707D01*
X19407Y-37740D01*
X19424Y-37757D01*
X19457Y-37774D01*
X19508Y-37774D01*
X19542Y-37757D01*
X19559Y-37740D01*
X19576Y-37707D01*
X19576Y-37572D01*
X19390Y-37892D02*
X19390Y-38112D01*
X19525Y-37993D01*
X19525Y-38044D01*
X19542Y-38078D01*
X19559Y-38095D01*
X19592Y-38112D01*
X19677Y-38112D01*
X19711Y-38095D01*
X19727Y-38078D01*
X19744Y-38044D01*
X19744Y-37943D01*
X19727Y-37909D01*
X19711Y-37892D01*
X19390Y-38331D02*
X19390Y-38365D01*
X19407Y-38398D01*
X19424Y-38415D01*
X19457Y-38432D01*
X19525Y-38449D01*
X19609Y-38449D01*
X19677Y-38432D01*
X19711Y-38415D01*
X19727Y-38398D01*
X19744Y-38365D01*
X19744Y-38331D01*
X19727Y-38297D01*
X19711Y-38280D01*
X19677Y-38263D01*
X19609Y-38246D01*
X19525Y-38246D01*
X19457Y-38263D01*
X19424Y-38280D01*
X19407Y-38297D01*
X19390Y-38331D01*
X19508Y-38753D02*
X19744Y-38753D01*
X19373Y-38668D02*
X19626Y-38584D01*
X19626Y-38803D01*
X19744Y-39107D02*
X19390Y-39107D01*
X19390Y-39192D01*
X19407Y-39242D01*
X19441Y-39276D01*
X19474Y-39293D01*
X19542Y-39310D01*
X19592Y-39310D01*
X19660Y-39293D01*
X19694Y-39276D01*
X19727Y-39242D01*
X19744Y-39192D01*
X19744Y-39107D01*
X19744Y-39664D02*
X19576Y-39546D01*
X19744Y-39462D02*
X19390Y-39462D01*
X19390Y-39596D01*
X19407Y-39630D01*
X19424Y-39647D01*
X19457Y-39664D01*
X19508Y-39664D01*
X19542Y-39647D01*
X19559Y-39630D01*
X19576Y-39596D01*
X19576Y-39462D01*
X19744Y-39985D02*
X19744Y-39816D01*
X19390Y-39816D01*
X21644Y-37572D02*
X21290Y-37572D01*
X21290Y-37707D01*
X21307Y-37740D01*
X21324Y-37757D01*
X21357Y-37774D01*
X21408Y-37774D01*
X21442Y-37757D01*
X21459Y-37740D01*
X21476Y-37707D01*
X21476Y-37572D01*
X21290Y-37892D02*
X21290Y-38112D01*
X21425Y-37993D01*
X21425Y-38044D01*
X21442Y-38078D01*
X21459Y-38095D01*
X21492Y-38112D01*
X21577Y-38112D01*
X21611Y-38095D01*
X21627Y-38078D01*
X21644Y-38044D01*
X21644Y-37943D01*
X21627Y-37909D01*
X21611Y-37892D01*
X21290Y-38331D02*
X21290Y-38365D01*
X21307Y-38398D01*
X21324Y-38415D01*
X21357Y-38432D01*
X21425Y-38449D01*
X21509Y-38449D01*
X21577Y-38432D01*
X21611Y-38415D01*
X21627Y-38398D01*
X21644Y-38365D01*
X21644Y-38331D01*
X21627Y-38297D01*
X21611Y-38280D01*
X21577Y-38263D01*
X21509Y-38246D01*
X21425Y-38246D01*
X21357Y-38263D01*
X21324Y-38280D01*
X21307Y-38297D01*
X21290Y-38331D01*
X21290Y-38770D02*
X21290Y-38601D01*
X21459Y-38584D01*
X21442Y-38601D01*
X21425Y-38635D01*
X21425Y-38719D01*
X21442Y-38753D01*
X21459Y-38770D01*
X21492Y-38786D01*
X21577Y-38786D01*
X21611Y-38770D01*
X21627Y-38753D01*
X21644Y-38719D01*
X21644Y-38635D01*
X21627Y-38601D01*
X21611Y-38584D01*
X21644Y-39107D02*
X21290Y-39107D01*
X21290Y-39192D01*
X21307Y-39242D01*
X21341Y-39276D01*
X21374Y-39293D01*
X21442Y-39310D01*
X21492Y-39310D01*
X21560Y-39293D01*
X21594Y-39276D01*
X21627Y-39242D01*
X21644Y-39192D01*
X21644Y-39107D01*
X21644Y-39664D02*
X21476Y-39546D01*
X21644Y-39462D02*
X21290Y-39462D01*
X21290Y-39596D01*
X21307Y-39630D01*
X21324Y-39647D01*
X21357Y-39664D01*
X21408Y-39664D01*
X21442Y-39647D01*
X21459Y-39630D01*
X21476Y-39596D01*
X21476Y-39462D01*
X21644Y-39985D02*
X21644Y-39816D01*
X21290Y-39816D01*
X22744Y-37572D02*
X22390Y-37572D01*
X22390Y-37707D01*
X22407Y-37740D01*
X22424Y-37757D01*
X22457Y-37774D01*
X22508Y-37774D01*
X22542Y-37757D01*
X22559Y-37740D01*
X22576Y-37707D01*
X22576Y-37572D01*
X22390Y-37892D02*
X22390Y-38112D01*
X22525Y-37993D01*
X22525Y-38044D01*
X22542Y-38078D01*
X22559Y-38095D01*
X22592Y-38112D01*
X22677Y-38112D01*
X22711Y-38095D01*
X22727Y-38078D01*
X22744Y-38044D01*
X22744Y-37943D01*
X22727Y-37909D01*
X22711Y-37892D01*
X22390Y-38331D02*
X22390Y-38365D01*
X22407Y-38398D01*
X22424Y-38415D01*
X22457Y-38432D01*
X22525Y-38449D01*
X22609Y-38449D01*
X22677Y-38432D01*
X22711Y-38415D01*
X22727Y-38398D01*
X22744Y-38365D01*
X22744Y-38331D01*
X22727Y-38297D01*
X22711Y-38280D01*
X22677Y-38263D01*
X22609Y-38246D01*
X22525Y-38246D01*
X22457Y-38263D01*
X22424Y-38280D01*
X22407Y-38297D01*
X22390Y-38331D01*
X22390Y-38753D02*
X22390Y-38685D01*
X22407Y-38651D01*
X22424Y-38635D01*
X22474Y-38601D01*
X22542Y-38584D01*
X22677Y-38584D01*
X22711Y-38601D01*
X22727Y-38618D01*
X22744Y-38651D01*
X22744Y-38719D01*
X22727Y-38753D01*
X22711Y-38770D01*
X22677Y-38786D01*
X22592Y-38786D01*
X22559Y-38770D01*
X22542Y-38753D01*
X22525Y-38719D01*
X22525Y-38651D01*
X22542Y-38618D01*
X22559Y-38601D01*
X22592Y-38584D01*
X22744Y-39107D02*
X22390Y-39107D01*
X22390Y-39192D01*
X22407Y-39242D01*
X22441Y-39276D01*
X22474Y-39293D01*
X22542Y-39310D01*
X22592Y-39310D01*
X22660Y-39293D01*
X22694Y-39276D01*
X22727Y-39242D01*
X22744Y-39192D01*
X22744Y-39107D01*
X22744Y-39664D02*
X22576Y-39546D01*
X22744Y-39462D02*
X22390Y-39462D01*
X22390Y-39596D01*
X22407Y-39630D01*
X22424Y-39647D01*
X22457Y-39664D01*
X22508Y-39664D01*
X22542Y-39647D01*
X22559Y-39630D01*
X22576Y-39596D01*
X22576Y-39462D01*
X22744Y-39985D02*
X22744Y-39816D01*
X22390Y-39816D01*
X23944Y-37572D02*
X23590Y-37572D01*
X23590Y-37707D01*
X23607Y-37740D01*
X23624Y-37757D01*
X23657Y-37774D01*
X23708Y-37774D01*
X23742Y-37757D01*
X23759Y-37740D01*
X23776Y-37707D01*
X23776Y-37572D01*
X23590Y-37892D02*
X23590Y-38112D01*
X23725Y-37993D01*
X23725Y-38044D01*
X23742Y-38078D01*
X23759Y-38095D01*
X23792Y-38112D01*
X23877Y-38112D01*
X23911Y-38095D01*
X23927Y-38078D01*
X23944Y-38044D01*
X23944Y-37943D01*
X23927Y-37909D01*
X23911Y-37892D01*
X23590Y-38331D02*
X23590Y-38365D01*
X23607Y-38398D01*
X23624Y-38415D01*
X23657Y-38432D01*
X23725Y-38449D01*
X23809Y-38449D01*
X23877Y-38432D01*
X23911Y-38415D01*
X23927Y-38398D01*
X23944Y-38365D01*
X23944Y-38331D01*
X23927Y-38297D01*
X23911Y-38280D01*
X23877Y-38263D01*
X23809Y-38246D01*
X23725Y-38246D01*
X23657Y-38263D01*
X23624Y-38280D01*
X23607Y-38297D01*
X23590Y-38331D01*
X23590Y-38567D02*
X23590Y-38803D01*
X23944Y-38651D01*
X23944Y-39107D02*
X23590Y-39107D01*
X23590Y-39192D01*
X23607Y-39242D01*
X23641Y-39276D01*
X23674Y-39293D01*
X23742Y-39310D01*
X23792Y-39310D01*
X23860Y-39293D01*
X23894Y-39276D01*
X23927Y-39242D01*
X23944Y-39192D01*
X23944Y-39107D01*
X23944Y-39664D02*
X23776Y-39546D01*
X23944Y-39462D02*
X23590Y-39462D01*
X23590Y-39596D01*
X23607Y-39630D01*
X23624Y-39647D01*
X23657Y-39664D01*
X23708Y-39664D01*
X23742Y-39647D01*
X23759Y-39630D01*
X23776Y-39596D01*
X23776Y-39462D01*
X23944Y-39985D02*
X23944Y-39816D01*
X23590Y-39816D01*
X28444Y-37572D02*
X28090Y-37572D01*
X28090Y-37707D01*
X28107Y-37740D01*
X28124Y-37757D01*
X28157Y-37774D01*
X28208Y-37774D01*
X28242Y-37757D01*
X28259Y-37740D01*
X28276Y-37707D01*
X28276Y-37572D01*
X28090Y-37892D02*
X28090Y-38112D01*
X28225Y-37993D01*
X28225Y-38044D01*
X28242Y-38078D01*
X28259Y-38095D01*
X28292Y-38112D01*
X28377Y-38112D01*
X28411Y-38095D01*
X28427Y-38078D01*
X28444Y-38044D01*
X28444Y-37943D01*
X28427Y-37909D01*
X28411Y-37892D01*
X28090Y-38331D02*
X28090Y-38365D01*
X28107Y-38398D01*
X28124Y-38415D01*
X28157Y-38432D01*
X28225Y-38449D01*
X28309Y-38449D01*
X28377Y-38432D01*
X28411Y-38415D01*
X28427Y-38398D01*
X28444Y-38365D01*
X28444Y-38331D01*
X28427Y-38297D01*
X28411Y-38280D01*
X28377Y-38263D01*
X28309Y-38246D01*
X28225Y-38246D01*
X28157Y-38263D01*
X28124Y-38280D01*
X28107Y-38297D01*
X28090Y-38331D01*
X28444Y-38618D02*
X28444Y-38685D01*
X28427Y-38719D01*
X28411Y-38736D01*
X28360Y-38770D01*
X28292Y-38786D01*
X28157Y-38786D01*
X28124Y-38770D01*
X28107Y-38753D01*
X28090Y-38719D01*
X28090Y-38651D01*
X28107Y-38618D01*
X28124Y-38601D01*
X28157Y-38584D01*
X28242Y-38584D01*
X28276Y-38601D01*
X28292Y-38618D01*
X28309Y-38651D01*
X28309Y-38719D01*
X28292Y-38753D01*
X28276Y-38770D01*
X28242Y-38786D01*
X28444Y-39107D02*
X28090Y-39107D01*
X28090Y-39192D01*
X28107Y-39242D01*
X28141Y-39276D01*
X28174Y-39293D01*
X28242Y-39310D01*
X28292Y-39310D01*
X28360Y-39293D01*
X28394Y-39276D01*
X28427Y-39242D01*
X28444Y-39192D01*
X28444Y-39107D01*
X28444Y-39664D02*
X28276Y-39546D01*
X28444Y-39462D02*
X28090Y-39462D01*
X28090Y-39596D01*
X28107Y-39630D01*
X28124Y-39647D01*
X28157Y-39664D01*
X28208Y-39664D01*
X28242Y-39647D01*
X28259Y-39630D01*
X28276Y-39596D01*
X28276Y-39462D01*
X28444Y-39985D02*
X28444Y-39816D01*
X28090Y-39816D01*
X13644Y-37572D02*
X13290Y-37572D01*
X13290Y-37707D01*
X13307Y-37740D01*
X13324Y-37757D01*
X13357Y-37774D01*
X13408Y-37774D01*
X13442Y-37757D01*
X13459Y-37740D01*
X13476Y-37707D01*
X13476Y-37572D01*
X13290Y-37892D02*
X13290Y-38112D01*
X13425Y-37993D01*
X13425Y-38044D01*
X13442Y-38078D01*
X13459Y-38095D01*
X13492Y-38112D01*
X13577Y-38112D01*
X13611Y-38095D01*
X13627Y-38078D01*
X13644Y-38044D01*
X13644Y-37943D01*
X13627Y-37909D01*
X13611Y-37892D01*
X13644Y-38449D02*
X13644Y-38246D01*
X13644Y-38348D02*
X13290Y-38348D01*
X13341Y-38314D01*
X13374Y-38280D01*
X13391Y-38246D01*
X13290Y-38668D02*
X13290Y-38702D01*
X13307Y-38736D01*
X13324Y-38753D01*
X13357Y-38770D01*
X13425Y-38786D01*
X13509Y-38786D01*
X13577Y-38770D01*
X13611Y-38753D01*
X13627Y-38736D01*
X13644Y-38702D01*
X13644Y-38668D01*
X13627Y-38635D01*
X13611Y-38618D01*
X13577Y-38601D01*
X13509Y-38584D01*
X13425Y-38584D01*
X13357Y-38601D01*
X13324Y-38618D01*
X13307Y-38635D01*
X13290Y-38668D01*
X13644Y-39107D02*
X13290Y-39107D01*
X13290Y-39192D01*
X13307Y-39242D01*
X13341Y-39276D01*
X13374Y-39293D01*
X13442Y-39310D01*
X13492Y-39310D01*
X13560Y-39293D01*
X13594Y-39276D01*
X13627Y-39242D01*
X13644Y-39192D01*
X13644Y-39107D01*
X13644Y-39664D02*
X13476Y-39546D01*
X13644Y-39462D02*
X13290Y-39462D01*
X13290Y-39596D01*
X13307Y-39630D01*
X13324Y-39647D01*
X13357Y-39664D01*
X13408Y-39664D01*
X13442Y-39647D01*
X13459Y-39630D01*
X13476Y-39596D01*
X13476Y-39462D01*
X13644Y-39985D02*
X13644Y-39816D01*
X13290Y-39816D01*
X10844Y-37572D02*
X10490Y-37572D01*
X10490Y-37707D01*
X10507Y-37740D01*
X10524Y-37757D01*
X10557Y-37774D01*
X10608Y-37774D01*
X10642Y-37757D01*
X10659Y-37740D01*
X10676Y-37707D01*
X10676Y-37572D01*
X10490Y-37892D02*
X10490Y-38112D01*
X10625Y-37993D01*
X10625Y-38044D01*
X10642Y-38078D01*
X10659Y-38095D01*
X10692Y-38112D01*
X10777Y-38112D01*
X10811Y-38095D01*
X10827Y-38078D01*
X10844Y-38044D01*
X10844Y-37943D01*
X10827Y-37909D01*
X10811Y-37892D01*
X10844Y-38449D02*
X10844Y-38246D01*
X10844Y-38348D02*
X10490Y-38348D01*
X10541Y-38314D01*
X10574Y-38280D01*
X10591Y-38246D01*
X10844Y-38786D02*
X10844Y-38584D01*
X10844Y-38685D02*
X10490Y-38685D01*
X10541Y-38651D01*
X10574Y-38618D01*
X10591Y-38584D01*
X10844Y-39107D02*
X10490Y-39107D01*
X10490Y-39192D01*
X10507Y-39242D01*
X10541Y-39276D01*
X10574Y-39293D01*
X10642Y-39310D01*
X10692Y-39310D01*
X10760Y-39293D01*
X10794Y-39276D01*
X10827Y-39242D01*
X10844Y-39192D01*
X10844Y-39107D01*
X10844Y-39664D02*
X10676Y-39546D01*
X10844Y-39462D02*
X10490Y-39462D01*
X10490Y-39596D01*
X10507Y-39630D01*
X10524Y-39647D01*
X10557Y-39664D01*
X10608Y-39664D01*
X10642Y-39647D01*
X10659Y-39630D01*
X10676Y-39596D01*
X10676Y-39462D01*
X10844Y-39985D02*
X10844Y-39816D01*
X10490Y-39816D01*
X9644Y-37572D02*
X9290Y-37572D01*
X9290Y-37707D01*
X9307Y-37740D01*
X9324Y-37757D01*
X9357Y-37774D01*
X9408Y-37774D01*
X9442Y-37757D01*
X9459Y-37740D01*
X9476Y-37707D01*
X9476Y-37572D01*
X9290Y-37892D02*
X9290Y-38112D01*
X9425Y-37993D01*
X9425Y-38044D01*
X9442Y-38078D01*
X9459Y-38095D01*
X9492Y-38112D01*
X9577Y-38112D01*
X9611Y-38095D01*
X9627Y-38078D01*
X9644Y-38044D01*
X9644Y-37943D01*
X9627Y-37909D01*
X9611Y-37892D01*
X9644Y-38449D02*
X9644Y-38246D01*
X9644Y-38348D02*
X9290Y-38348D01*
X9341Y-38314D01*
X9374Y-38280D01*
X9391Y-38246D01*
X9324Y-38584D02*
X9307Y-38601D01*
X9290Y-38635D01*
X9290Y-38719D01*
X9307Y-38753D01*
X9324Y-38770D01*
X9357Y-38786D01*
X9391Y-38786D01*
X9442Y-38770D01*
X9644Y-38567D01*
X9644Y-38786D01*
X9644Y-39107D02*
X9290Y-39107D01*
X9290Y-39192D01*
X9307Y-39242D01*
X9341Y-39276D01*
X9374Y-39293D01*
X9442Y-39310D01*
X9492Y-39310D01*
X9560Y-39293D01*
X9594Y-39276D01*
X9627Y-39242D01*
X9644Y-39192D01*
X9644Y-39107D01*
X9644Y-39664D02*
X9476Y-39546D01*
X9644Y-39462D02*
X9290Y-39462D01*
X9290Y-39596D01*
X9307Y-39630D01*
X9324Y-39647D01*
X9357Y-39664D01*
X9408Y-39664D01*
X9442Y-39647D01*
X9459Y-39630D01*
X9476Y-39596D01*
X9476Y-39462D01*
X9644Y-39985D02*
X9644Y-39816D01*
X9290Y-39816D01*
X8444Y-37572D02*
X8090Y-37572D01*
X8090Y-37707D01*
X8107Y-37740D01*
X8124Y-37757D01*
X8157Y-37774D01*
X8208Y-37774D01*
X8242Y-37757D01*
X8259Y-37740D01*
X8276Y-37707D01*
X8276Y-37572D01*
X8090Y-37892D02*
X8090Y-38112D01*
X8225Y-37993D01*
X8225Y-38044D01*
X8242Y-38078D01*
X8259Y-38095D01*
X8292Y-38112D01*
X8377Y-38112D01*
X8411Y-38095D01*
X8427Y-38078D01*
X8444Y-38044D01*
X8444Y-37943D01*
X8427Y-37909D01*
X8411Y-37892D01*
X8444Y-38449D02*
X8444Y-38246D01*
X8444Y-38348D02*
X8090Y-38348D01*
X8141Y-38314D01*
X8174Y-38280D01*
X8191Y-38246D01*
X8090Y-38567D02*
X8090Y-38786D01*
X8225Y-38668D01*
X8225Y-38719D01*
X8242Y-38753D01*
X8259Y-38770D01*
X8292Y-38786D01*
X8377Y-38786D01*
X8411Y-38770D01*
X8427Y-38753D01*
X8444Y-38719D01*
X8444Y-38618D01*
X8427Y-38584D01*
X8411Y-38567D01*
X8444Y-39107D02*
X8090Y-39107D01*
X8090Y-39192D01*
X8107Y-39242D01*
X8141Y-39276D01*
X8174Y-39293D01*
X8242Y-39310D01*
X8292Y-39310D01*
X8360Y-39293D01*
X8394Y-39276D01*
X8427Y-39242D01*
X8444Y-39192D01*
X8444Y-39107D01*
X8444Y-39664D02*
X8276Y-39546D01*
X8444Y-39462D02*
X8090Y-39462D01*
X8090Y-39596D01*
X8107Y-39630D01*
X8124Y-39647D01*
X8157Y-39664D01*
X8208Y-39664D01*
X8242Y-39647D01*
X8259Y-39630D01*
X8276Y-39596D01*
X8276Y-39462D01*
X8444Y-39985D02*
X8444Y-39816D01*
X8090Y-39816D01*
X7144Y-37572D02*
X6790Y-37572D01*
X6790Y-37707D01*
X6807Y-37740D01*
X6824Y-37757D01*
X6857Y-37774D01*
X6908Y-37774D01*
X6942Y-37757D01*
X6959Y-37740D01*
X6976Y-37707D01*
X6976Y-37572D01*
X6790Y-37892D02*
X6790Y-38112D01*
X6925Y-37993D01*
X6925Y-38044D01*
X6942Y-38078D01*
X6959Y-38095D01*
X6992Y-38112D01*
X7077Y-38112D01*
X7111Y-38095D01*
X7127Y-38078D01*
X7144Y-38044D01*
X7144Y-37943D01*
X7127Y-37909D01*
X7111Y-37892D01*
X7144Y-38449D02*
X7144Y-38246D01*
X7144Y-38348D02*
X6790Y-38348D01*
X6841Y-38314D01*
X6874Y-38280D01*
X6891Y-38246D01*
X6908Y-38753D02*
X7144Y-38753D01*
X6773Y-38668D02*
X7026Y-38584D01*
X7026Y-38803D01*
X7144Y-39107D02*
X6790Y-39107D01*
X6790Y-39192D01*
X6807Y-39242D01*
X6841Y-39276D01*
X6874Y-39293D01*
X6942Y-39310D01*
X6992Y-39310D01*
X7060Y-39293D01*
X7094Y-39276D01*
X7127Y-39242D01*
X7144Y-39192D01*
X7144Y-39107D01*
X7144Y-39664D02*
X6976Y-39546D01*
X7144Y-39462D02*
X6790Y-39462D01*
X6790Y-39596D01*
X6807Y-39630D01*
X6824Y-39647D01*
X6857Y-39664D01*
X6908Y-39664D01*
X6942Y-39647D01*
X6959Y-39630D01*
X6976Y-39596D01*
X6976Y-39462D01*
X7144Y-39985D02*
X7144Y-39816D01*
X6790Y-39816D01*
X5944Y-37572D02*
X5590Y-37572D01*
X5590Y-37707D01*
X5607Y-37740D01*
X5624Y-37757D01*
X5657Y-37774D01*
X5708Y-37774D01*
X5742Y-37757D01*
X5759Y-37740D01*
X5776Y-37707D01*
X5776Y-37572D01*
X5590Y-37892D02*
X5590Y-38112D01*
X5725Y-37993D01*
X5725Y-38044D01*
X5742Y-38078D01*
X5759Y-38095D01*
X5792Y-38112D01*
X5877Y-38112D01*
X5911Y-38095D01*
X5927Y-38078D01*
X5944Y-38044D01*
X5944Y-37943D01*
X5927Y-37909D01*
X5911Y-37892D01*
X5944Y-38449D02*
X5944Y-38246D01*
X5944Y-38348D02*
X5590Y-38348D01*
X5641Y-38314D01*
X5674Y-38280D01*
X5691Y-38246D01*
X5590Y-38770D02*
X5590Y-38601D01*
X5759Y-38584D01*
X5742Y-38601D01*
X5725Y-38635D01*
X5725Y-38719D01*
X5742Y-38753D01*
X5759Y-38770D01*
X5792Y-38786D01*
X5877Y-38786D01*
X5911Y-38770D01*
X5927Y-38753D01*
X5944Y-38719D01*
X5944Y-38635D01*
X5927Y-38601D01*
X5911Y-38584D01*
X5944Y-39107D02*
X5590Y-39107D01*
X5590Y-39192D01*
X5607Y-39242D01*
X5641Y-39276D01*
X5674Y-39293D01*
X5742Y-39310D01*
X5792Y-39310D01*
X5860Y-39293D01*
X5894Y-39276D01*
X5927Y-39242D01*
X5944Y-39192D01*
X5944Y-39107D01*
X5944Y-39664D02*
X5776Y-39546D01*
X5944Y-39462D02*
X5590Y-39462D01*
X5590Y-39596D01*
X5607Y-39630D01*
X5624Y-39647D01*
X5657Y-39664D01*
X5708Y-39664D01*
X5742Y-39647D01*
X5759Y-39630D01*
X5776Y-39596D01*
X5776Y-39462D01*
X5944Y-39985D02*
X5944Y-39816D01*
X5590Y-39816D01*
X1244Y-37572D02*
X890Y-37572D01*
X890Y-37707D01*
X907Y-37740D01*
X924Y-37757D01*
X957Y-37774D01*
X1008Y-37774D01*
X1042Y-37757D01*
X1059Y-37740D01*
X1076Y-37707D01*
X1076Y-37572D01*
X890Y-37892D02*
X890Y-38112D01*
X1025Y-37993D01*
X1025Y-38044D01*
X1042Y-38078D01*
X1059Y-38095D01*
X1092Y-38112D01*
X1177Y-38112D01*
X1211Y-38095D01*
X1227Y-38078D01*
X1244Y-38044D01*
X1244Y-37943D01*
X1227Y-37909D01*
X1211Y-37892D01*
X1244Y-38449D02*
X1244Y-38246D01*
X1244Y-38348D02*
X890Y-38348D01*
X941Y-38314D01*
X974Y-38280D01*
X991Y-38246D01*
X890Y-38567D02*
X890Y-38803D01*
X1244Y-38651D01*
X1244Y-39107D02*
X890Y-39107D01*
X890Y-39192D01*
X907Y-39242D01*
X941Y-39276D01*
X974Y-39293D01*
X1042Y-39310D01*
X1092Y-39310D01*
X1160Y-39293D01*
X1194Y-39276D01*
X1227Y-39242D01*
X1244Y-39192D01*
X1244Y-39107D01*
X1244Y-39664D02*
X1076Y-39546D01*
X1244Y-39462D02*
X890Y-39462D01*
X890Y-39596D01*
X907Y-39630D01*
X924Y-39647D01*
X957Y-39664D01*
X1008Y-39664D01*
X1042Y-39647D01*
X1059Y-39630D01*
X1076Y-39596D01*
X1076Y-39462D01*
X1244Y-39985D02*
X1244Y-39816D01*
X890Y-39816D01*
X4044Y-37572D02*
X3690Y-37572D01*
X3690Y-37707D01*
X3707Y-37740D01*
X3724Y-37757D01*
X3757Y-37774D01*
X3808Y-37774D01*
X3842Y-37757D01*
X3859Y-37740D01*
X3876Y-37707D01*
X3876Y-37572D01*
X3690Y-37892D02*
X3690Y-38112D01*
X3825Y-37993D01*
X3825Y-38044D01*
X3842Y-38078D01*
X3859Y-38095D01*
X3892Y-38112D01*
X3977Y-38112D01*
X4011Y-38095D01*
X4027Y-38078D01*
X4044Y-38044D01*
X4044Y-37943D01*
X4027Y-37909D01*
X4011Y-37892D01*
X4044Y-38449D02*
X4044Y-38246D01*
X4044Y-38348D02*
X3690Y-38348D01*
X3741Y-38314D01*
X3774Y-38280D01*
X3791Y-38246D01*
X3690Y-38753D02*
X3690Y-38685D01*
X3707Y-38651D01*
X3724Y-38635D01*
X3774Y-38601D01*
X3842Y-38584D01*
X3977Y-38584D01*
X4011Y-38601D01*
X4027Y-38618D01*
X4044Y-38651D01*
X4044Y-38719D01*
X4027Y-38753D01*
X4011Y-38770D01*
X3977Y-38786D01*
X3892Y-38786D01*
X3859Y-38770D01*
X3842Y-38753D01*
X3825Y-38719D01*
X3825Y-38651D01*
X3842Y-38618D01*
X3859Y-38601D01*
X3892Y-38584D01*
X4044Y-39107D02*
X3690Y-39107D01*
X3690Y-39192D01*
X3707Y-39242D01*
X3741Y-39276D01*
X3774Y-39293D01*
X3842Y-39310D01*
X3892Y-39310D01*
X3960Y-39293D01*
X3994Y-39276D01*
X4027Y-39242D01*
X4044Y-39192D01*
X4044Y-39107D01*
X4044Y-39664D02*
X3876Y-39546D01*
X4044Y-39462D02*
X3690Y-39462D01*
X3690Y-39596D01*
X3707Y-39630D01*
X3724Y-39647D01*
X3757Y-39664D01*
X3808Y-39664D01*
X3842Y-39647D01*
X3859Y-39630D01*
X3876Y-39596D01*
X3876Y-39462D01*
X4044Y-39985D02*
X4044Y-39816D01*
X3690Y-39816D01*
%LPC*%
G54D20*
X574Y-22244D03*
G54D21*
X15639Y-4623D03*
X14064Y-1119D03*
X15638Y-1119D03*
X14064Y-4623D03*
G54D22*
X9104Y-775D03*
X5226Y-775D03*
G54D23*
X5226Y-2449D03*
X9104Y-2449D03*
G54D24*
X7165Y-2449D03*
X6850Y-2449D03*
X6535Y-2449D03*
X7480Y-2449D03*
X7795Y-2449D03*
G54D25*
X6299Y-1523D03*
X8031Y-1523D03*
G54D26*
X22286Y-21689D03*
X22286Y-22555D03*
X22916Y-21689D03*
X22916Y-22555D03*
G54D27*
X15984Y-24103D02*
X16400Y-24519D01*
X15761Y-24326D02*
X16177Y-24742D01*
X15539Y-24549D02*
X15954Y-24965D01*
X15316Y-24772D02*
X15732Y-25187D01*
X15093Y-24994D02*
X15509Y-25410D01*
X14870Y-25217D02*
X15286Y-25633D01*
X16207Y-23881D02*
X16622Y-24297D01*
X16429Y-23658D02*
X16845Y-24074D01*
X16652Y-23435D02*
X17068Y-23851D01*
X16875Y-23213D02*
X17291Y-23628D01*
X17098Y-22990D02*
X17513Y-23406D01*
X12802Y-20921D02*
X13218Y-21337D01*
X12579Y-21144D02*
X12995Y-21560D01*
X12357Y-21367D02*
X12772Y-21783D01*
X12134Y-21590D02*
X12550Y-22005D01*
X11911Y-21812D02*
X12327Y-22228D01*
X11688Y-22035D02*
X12104Y-22451D01*
X13025Y-20699D02*
X13441Y-21115D01*
X13247Y-20476D02*
X13663Y-20892D01*
X13470Y-20253D02*
X13886Y-20669D01*
X13693Y-20031D02*
X14109Y-20446D01*
X13916Y-19808D02*
X14331Y-20224D01*
X12802Y-24519D02*
X13218Y-24103D01*
X15984Y-21337D02*
X16400Y-20921D01*
X12579Y-24297D02*
X12995Y-23881D01*
X15761Y-21115D02*
X16177Y-20699D01*
X15539Y-20892D02*
X15954Y-20476D01*
X12357Y-24074D02*
X12772Y-23658D01*
X12134Y-23851D02*
X12550Y-23435D01*
X15316Y-20669D02*
X15732Y-20253D01*
X15093Y-20446D02*
X15509Y-20031D01*
X11911Y-23628D02*
X12327Y-23213D01*
X11688Y-23406D02*
X12104Y-22990D01*
X14870Y-20224D02*
X15286Y-19808D01*
X16207Y-21560D02*
X16622Y-21144D01*
X13025Y-24742D02*
X13441Y-24326D01*
X13247Y-24965D02*
X13663Y-24549D01*
X16429Y-21783D02*
X16845Y-21367D01*
X16652Y-22005D02*
X17068Y-21590D01*
X13470Y-25187D02*
X13886Y-24772D01*
X13693Y-25410D02*
X14109Y-24994D01*
X16875Y-22228D02*
X17291Y-21812D01*
X17098Y-22451D02*
X17513Y-22035D01*
X13916Y-25633D02*
X14331Y-25217D01*
G54D28*
X6476Y-4621D03*
X7226Y-4621D03*
G54D29*
X23801Y-21647D03*
X23801Y-20897D03*
X23801Y-22647D03*
X23801Y-23397D03*
X8901Y-23145D03*
X8901Y-23895D03*
G54D28*
X11771Y-20434D03*
X11021Y-20434D03*
X22226Y-23472D03*
X22976Y-23472D03*
X20726Y-21722D03*
X21476Y-21722D03*
G54D29*
X7351Y-6746D03*
X7351Y-5996D03*
X8351Y-6746D03*
X8351Y-5996D03*
X7901Y-24695D03*
X7901Y-23945D03*
G54D28*
X20726Y-20772D03*
X21476Y-20772D03*
G54D29*
X7901Y-23095D03*
X7901Y-22345D03*
G54D28*
X14226Y-44122D03*
X13476Y-44122D03*
X4226Y-44122D03*
X4976Y-44122D03*
X28226Y-20872D03*
X28976Y-20872D03*
X28226Y-13372D03*
X28976Y-13372D03*
X28476Y-6121D03*
X27726Y-6121D03*
X20876Y-28620D03*
X20126Y-28620D03*
X20976Y-16120D03*
X20226Y-16120D03*
X20976Y-13621D03*
X20226Y-13621D03*
X20976Y-6121D03*
X20226Y-6121D03*
G54D30*
X7225Y-16746D03*
X7225Y-18746D03*
X7225Y-20746D03*
X7225Y-17746D03*
X7225Y-19746D03*
X7225Y-15746D03*
G54D31*
X1101Y-7121D03*
X4101Y-7121D03*
G54D32*
X2601Y-43122D03*
X5101Y-42122D03*
G54D33*
X3601Y-41122D03*
G54D34*
X5601Y-41122D03*
X1601Y-41122D03*
G54D32*
X17601Y-28120D03*
X20101Y-27120D03*
G54D33*
X18601Y-26120D03*
G54D34*
X20601Y-26120D03*
X16601Y-26120D03*
G54D32*
X17601Y-13121D03*
X20101Y-12121D03*
G54D33*
X18601Y-11121D03*
G54D34*
X20601Y-11121D03*
X16601Y-11121D03*
G54D32*
X25101Y-5622D03*
X27601Y-4622D03*
G54D33*
X26101Y-3622D03*
G54D34*
X28101Y-3622D03*
X24101Y-3622D03*
G54D32*
X17601Y-5622D03*
X20101Y-4622D03*
G54D33*
X18601Y-3622D03*
G54D34*
X20601Y-3622D03*
X16601Y-3622D03*
G54D32*
X17601Y-20620D03*
X20101Y-19620D03*
G54D33*
X18601Y-18620D03*
G54D34*
X20601Y-18620D03*
X16601Y-18620D03*
G54D32*
X10101Y-43122D03*
X12601Y-42122D03*
G54D33*
X11101Y-41122D03*
G54D34*
X13101Y-41122D03*
X9101Y-41122D03*
G54D35*
X26601Y-1621D03*
G54D36*
X25601Y-1621D03*
G54D35*
X4101Y-1621D03*
G54D36*
X3101Y-1621D03*
G54D37*
X351Y-36872D03*
X29351Y-371D03*
X29351Y-36872D03*
X351Y-322D03*
G54D28*
X13476Y-28620D03*
X12726Y-28620D03*
X28226Y-35872D03*
X28976Y-35872D03*
X28226Y-28372D03*
X28976Y-28372D03*
X20976Y-36120D03*
X20226Y-36120D03*
X14226Y-36372D03*
X13476Y-36372D03*
X5226Y-36122D03*
X4476Y-36122D03*
X5976Y-21120D03*
X5226Y-21120D03*
X5976Y-6121D03*
X5226Y-6121D03*
X13476Y-16120D03*
X12726Y-16120D03*
X13476Y-13621D03*
X12726Y-13621D03*
X5976Y-28620D03*
X5226Y-28620D03*
X5976Y-13621D03*
X5226Y-13621D03*
X13476Y-6121D03*
X12726Y-6121D03*
G54D32*
X2601Y-5621D03*
X5101Y-4621D03*
G54D33*
X3601Y-3621D03*
G54D34*
X5601Y-3621D03*
X1601Y-3621D03*
G54D32*
X2601Y-28120D03*
X5101Y-27120D03*
G54D33*
X3601Y-26120D03*
G54D34*
X5601Y-26120D03*
X1601Y-26120D03*
G54D32*
X10101Y-28120D03*
X12601Y-27120D03*
G54D33*
X11101Y-26120D03*
G54D34*
X13101Y-26120D03*
X9101Y-26120D03*
G54D32*
X10101Y-35620D03*
X12601Y-34620D03*
G54D33*
X11101Y-33620D03*
G54D34*
X13101Y-33620D03*
X9101Y-33620D03*
G54D32*
X17601Y-35620D03*
X20101Y-34620D03*
G54D33*
X18601Y-33620D03*
G54D34*
X20601Y-33620D03*
X16601Y-33620D03*
G54D32*
X2601Y-35620D03*
X5101Y-34620D03*
G54D33*
X3601Y-33620D03*
G54D34*
X5601Y-33620D03*
X1601Y-33620D03*
G54D32*
X10101Y-20620D03*
X12601Y-19620D03*
G54D33*
X11101Y-18620D03*
G54D34*
X13101Y-18620D03*
X9101Y-18620D03*
G54D32*
X2601Y-20620D03*
X5101Y-19620D03*
G54D33*
X3601Y-18620D03*
G54D34*
X5601Y-18620D03*
X1601Y-18620D03*
G54D32*
X10101Y-13121D03*
X12601Y-12121D03*
G54D33*
X11101Y-11121D03*
G54D34*
X13101Y-11121D03*
X9101Y-11121D03*
G54D32*
X25101Y-35622D03*
X27601Y-34622D03*
G54D33*
X26101Y-33622D03*
G54D34*
X28101Y-33622D03*
X24101Y-33622D03*
G54D32*
X25101Y-28122D03*
X27601Y-27122D03*
G54D33*
X26101Y-26122D03*
G54D34*
X28101Y-26122D03*
X24101Y-26122D03*
G54D32*
X2601Y-13121D03*
X5101Y-12121D03*
G54D33*
X3601Y-11121D03*
G54D34*
X5601Y-11121D03*
X1601Y-11121D03*
G54D32*
X10101Y-5621D03*
X12601Y-4621D03*
G54D33*
X11101Y-3621D03*
G54D34*
X13101Y-3621D03*
X9101Y-3621D03*
G54D31*
X24101Y-7121D03*
X27101Y-7121D03*
X14601Y-7121D03*
X11601Y-7121D03*
X22101Y-7121D03*
X19101Y-7121D03*
G54D35*
X11601Y-1621D03*
G54D36*
X10601Y-1621D03*
G54D35*
X19101Y-1621D03*
G54D36*
X18101Y-1621D03*
G54D28*
X20976Y-43622D03*
X20226Y-43622D03*
X28476Y-43622D03*
X27726Y-43622D03*
G54D37*
X29351Y-44372D03*
X351Y-44372D03*
G54D32*
X6351Y-35622D03*
X8851Y-34622D03*
G54D33*
X7351Y-33622D03*
G54D34*
X9351Y-33622D03*
X5351Y-33622D03*
G54D38*
X12051Y-36372D03*
X2651Y-36372D03*
G54D33*
X12051Y-30372D03*
X2651Y-30372D03*
G54D32*
X28101Y-30872D03*
X27101Y-28372D03*
G54D33*
X26101Y-29872D03*
G54D34*
X26101Y-27872D03*
X26101Y-31872D03*
G54D38*
X28851Y-25172D03*
X28851Y-34572D03*
G54D33*
X22851Y-25172D03*
X22851Y-34572D03*
G54D32*
X28101Y-15872D03*
X27101Y-13372D03*
G54D33*
X26101Y-14872D03*
G54D34*
X26101Y-12872D03*
X26101Y-16872D03*
G54D38*
X28851Y-10172D03*
X28851Y-19572D03*
G54D33*
X22851Y-10172D03*
X22851Y-19572D03*
G54D32*
X17601Y-43122D03*
X20101Y-42122D03*
G54D33*
X18601Y-41122D03*
G54D34*
X20601Y-41122D03*
X16601Y-41122D03*
G54D32*
X25101Y-43122D03*
X27601Y-42122D03*
G54D33*
X26101Y-41122D03*
G54D34*
X28101Y-41122D03*
X24101Y-41122D03*
G54D32*
X25101Y-13122D03*
X27601Y-12122D03*
G54D33*
X26101Y-11122D03*
G54D34*
X28101Y-11122D03*
X24101Y-11122D03*
G54D32*
X25101Y-20622D03*
X27601Y-19622D03*
G54D33*
X26101Y-18622D03*
G54D34*
X28101Y-18622D03*
X24101Y-18622D03*
G54D32*
X6351Y-43122D03*
X8851Y-42122D03*
G54D33*
X7351Y-41122D03*
G54D34*
X9351Y-41122D03*
X5351Y-41122D03*
G54D38*
X12051Y-43872D03*
X2651Y-43872D03*
G54D33*
X12051Y-37872D03*
X2651Y-37872D03*
G54D32*
X28101Y-23372D03*
X27101Y-20872D03*
G54D33*
X26101Y-22372D03*
G54D34*
X26101Y-20372D03*
X26101Y-24372D03*
G54D38*
X28851Y-17672D03*
X28851Y-27072D03*
G54D33*
X22851Y-17672D03*
X22851Y-27072D03*
G54D32*
X28101Y-38372D03*
X27101Y-35872D03*
G54D33*
X26101Y-37372D03*
G54D34*
X26101Y-35372D03*
X26101Y-39372D03*
G54D38*
X28851Y-32672D03*
X28851Y-42072D03*
G54D33*
X22851Y-32672D03*
X22851Y-42072D03*
G54D37*
X14851Y-37322D03*
X16001Y-37321D03*
X17201Y-37321D03*
X18401Y-37321D03*
X19601Y-37321D03*
X21501Y-37321D03*
X22601Y-37321D03*
X23801Y-37321D03*
X28301Y-37321D03*
X13501Y-37321D03*
X10701Y-37321D03*
X9501Y-37321D03*
X8301Y-37321D03*
X7001Y-37321D03*
X5801Y-37321D03*
X1101Y-37321D03*
X3901Y-37321D03*
M02*
