G04 (created by PCBNEW (2013-02-13 BZR 3947)-testing) date 9/17/2013 2:51:22 PM*
%MOIN*%
G04 Gerber Fmt 3.4, Leading zero omitted, Abs format*
%FSLAX34Y34*%
G01*
G70*
G90*
G04 APERTURE LIST*
%ADD10C,0*%
%ADD11O,0.3937X0.1969*%
%ADD12R,0.0393701X0.122047*%
%ADD13R,0.0807X0.1575*%
%ADD14R,0.0807X0.1378*%
%ADD15O,0.0197008X0.0984252*%
%ADD16C,0.0354331*%
%ADD17R,0.0453X0.0551*%
%ADD18C,0.016*%
%ADD19R,0.035X0.055*%
%ADD20R,0.055X0.035*%
%ADD21C,0.0708661*%
%ADD22C,0.0629921*%
%ADD23C,0.09*%
%ADD24C,0.157*%
%ADD25C,0.067*%
%ADD26O,0.075X0.085*%
%ADD27R,0.075X0.085*%
%ADD28C,0.0393701*%
%ADD29C,0.12*%
%ADD30C,0.0159921*%
%ADD31C,0.02*%
%ADD32C,0.01*%
G04 APERTURE END LIST*
G54D10*
G54D11*
X574Y-22244D03*
G54D12*
X15639Y-4623D03*
X14064Y-1119D03*
X15638Y-1119D03*
X14064Y-4623D03*
G54D13*
X9104Y-775D03*
X5226Y-775D03*
G54D14*
X5226Y-2449D03*
X9104Y-2449D03*
G54D15*
X7165Y-2449D03*
X6850Y-2449D03*
X6535Y-2449D03*
X7480Y-2449D03*
X7795Y-2449D03*
G54D16*
X6299Y-1523D03*
X8031Y-1523D03*
G54D17*
X24586Y-21887D03*
X24586Y-22753D03*
X25216Y-21887D03*
X25216Y-22753D03*
G54D18*
X15984Y-24103D02*
X16400Y-24519D01*
X15761Y-24326D02*
X16177Y-24742D01*
X15539Y-24549D02*
X15954Y-24965D01*
X15316Y-24772D02*
X15732Y-25187D01*
X15093Y-24994D02*
X15509Y-25410D01*
X14870Y-25217D02*
X15286Y-25633D01*
X16207Y-23881D02*
X16622Y-24297D01*
X16429Y-23658D02*
X16845Y-24074D01*
X16652Y-23435D02*
X17068Y-23851D01*
X16875Y-23213D02*
X17291Y-23628D01*
X17098Y-22990D02*
X17513Y-23406D01*
X12802Y-20921D02*
X13218Y-21337D01*
X12579Y-21144D02*
X12995Y-21560D01*
X12357Y-21367D02*
X12772Y-21783D01*
X12134Y-21590D02*
X12550Y-22005D01*
X11911Y-21812D02*
X12327Y-22228D01*
X11688Y-22035D02*
X12104Y-22451D01*
X13025Y-20699D02*
X13441Y-21115D01*
X13247Y-20476D02*
X13663Y-20892D01*
X13470Y-20253D02*
X13886Y-20669D01*
X13693Y-20031D02*
X14109Y-20446D01*
X13916Y-19808D02*
X14331Y-20224D01*
X12802Y-24519D02*
X13218Y-24103D01*
X15984Y-21337D02*
X16400Y-20921D01*
X12579Y-24297D02*
X12995Y-23881D01*
X15761Y-21115D02*
X16177Y-20699D01*
X15539Y-20892D02*
X15954Y-20476D01*
X12357Y-24074D02*
X12772Y-23658D01*
X12134Y-23851D02*
X12550Y-23435D01*
X15316Y-20669D02*
X15732Y-20253D01*
X15093Y-20446D02*
X15509Y-20031D01*
X11911Y-23628D02*
X12327Y-23213D01*
X11688Y-23406D02*
X12104Y-22990D01*
X14870Y-20224D02*
X15286Y-19808D01*
X16207Y-21560D02*
X16622Y-21144D01*
X13025Y-24742D02*
X13441Y-24326D01*
X13247Y-24965D02*
X13663Y-24549D01*
X16429Y-21783D02*
X16845Y-21367D01*
X16652Y-22005D02*
X17068Y-21590D01*
X13470Y-25187D02*
X13886Y-24772D01*
X13693Y-25410D02*
X14109Y-24994D01*
X16875Y-22228D02*
X17291Y-21812D01*
X17098Y-22451D02*
X17513Y-22035D01*
X13916Y-25633D02*
X14331Y-25217D01*
G54D19*
X6476Y-4621D03*
X7226Y-4621D03*
X26026Y-21620D03*
X26776Y-21620D03*
X26026Y-23220D03*
X26776Y-23220D03*
G54D20*
X8901Y-23145D03*
X8901Y-23895D03*
G54D19*
X11771Y-20434D03*
X11021Y-20434D03*
X24526Y-23820D03*
X25276Y-23820D03*
X23026Y-21920D03*
X23776Y-21920D03*
G54D20*
X7351Y-6746D03*
X7351Y-5996D03*
X8351Y-6746D03*
X8351Y-5996D03*
X7901Y-24695D03*
X7901Y-23945D03*
G54D19*
X26026Y-19520D03*
X26776Y-19520D03*
G54D20*
X7901Y-23095D03*
X7901Y-22345D03*
G54D19*
X28476Y-43620D03*
X27726Y-43620D03*
X20976Y-43620D03*
X20226Y-43620D03*
X27976Y-26620D03*
X27226Y-26620D03*
X27976Y-11621D03*
X27226Y-11621D03*
X28476Y-6121D03*
X27726Y-6121D03*
X20876Y-28620D03*
X20126Y-28620D03*
X20976Y-16120D03*
X20226Y-16120D03*
X20976Y-13621D03*
X20226Y-13621D03*
X20976Y-6121D03*
X20226Y-6121D03*
G54D21*
X12601Y-37370D03*
X10601Y-37370D03*
X8601Y-37370D03*
X11601Y-37370D03*
X9601Y-37370D03*
X13601Y-37370D03*
G54D22*
X1101Y-7121D03*
X4101Y-7121D03*
G54D23*
X17601Y-43120D03*
X20101Y-42120D03*
G54D24*
X18601Y-41120D03*
G54D25*
X20601Y-41120D03*
X16601Y-41120D03*
G54D23*
X17601Y-28120D03*
X20101Y-27120D03*
G54D24*
X18601Y-26120D03*
G54D25*
X20601Y-26120D03*
X16601Y-26120D03*
G54D23*
X17601Y-13121D03*
X20101Y-12121D03*
G54D24*
X18601Y-11121D03*
G54D25*
X20601Y-11121D03*
X16601Y-11121D03*
G54D23*
X25101Y-5622D03*
X27601Y-4622D03*
G54D24*
X26101Y-3622D03*
G54D25*
X28101Y-3622D03*
X24101Y-3622D03*
G54D23*
X17601Y-5622D03*
X20101Y-4622D03*
G54D24*
X18601Y-3622D03*
G54D25*
X20601Y-3622D03*
X16601Y-3622D03*
G54D23*
X17601Y-20620D03*
X20101Y-19620D03*
G54D24*
X18601Y-18620D03*
G54D25*
X20601Y-18620D03*
X16601Y-18620D03*
G54D23*
X25101Y-43120D03*
X27601Y-42120D03*
G54D24*
X26101Y-41120D03*
G54D25*
X28101Y-41120D03*
X24101Y-41120D03*
G54D26*
X26601Y-1621D03*
G54D27*
X25601Y-1621D03*
G54D26*
X4101Y-1621D03*
G54D27*
X3101Y-1621D03*
G54D28*
X351Y-44370D03*
X29351Y-371D03*
X29351Y-44370D03*
X351Y-322D03*
G54D19*
X13476Y-28620D03*
X12726Y-28620D03*
X13476Y-43620D03*
X12726Y-43620D03*
X5976Y-43620D03*
X5226Y-43620D03*
X20976Y-36120D03*
X20226Y-36120D03*
X13476Y-36120D03*
X12726Y-36120D03*
X5976Y-36120D03*
X5226Y-36120D03*
X5976Y-21120D03*
X5226Y-21120D03*
X5976Y-6121D03*
X5226Y-6121D03*
X13476Y-16120D03*
X12726Y-16120D03*
X13476Y-13621D03*
X12726Y-13621D03*
X5976Y-28620D03*
X5226Y-28620D03*
X5976Y-13621D03*
X5226Y-13621D03*
X13476Y-6121D03*
X12726Y-6121D03*
G54D23*
X2601Y-5621D03*
X5101Y-4621D03*
G54D24*
X3601Y-3621D03*
G54D25*
X5601Y-3621D03*
X1601Y-3621D03*
G54D23*
X2601Y-28120D03*
X5101Y-27120D03*
G54D24*
X3601Y-26120D03*
G54D25*
X5601Y-26120D03*
X1601Y-26120D03*
G54D23*
X10101Y-28120D03*
X12601Y-27120D03*
G54D24*
X11101Y-26120D03*
G54D25*
X13101Y-26120D03*
X9101Y-26120D03*
G54D23*
X10101Y-35620D03*
X12601Y-34620D03*
G54D24*
X11101Y-33620D03*
G54D25*
X13101Y-33620D03*
X9101Y-33620D03*
G54D23*
X17601Y-35620D03*
X20101Y-34620D03*
G54D24*
X18601Y-33620D03*
G54D25*
X20601Y-33620D03*
X16601Y-33620D03*
G54D23*
X2601Y-35620D03*
X5101Y-34620D03*
G54D24*
X3601Y-33620D03*
G54D25*
X5601Y-33620D03*
X1601Y-33620D03*
G54D23*
X10101Y-20620D03*
X12601Y-19620D03*
G54D24*
X11101Y-18620D03*
G54D25*
X13101Y-18620D03*
X9101Y-18620D03*
G54D23*
X2601Y-20620D03*
X5101Y-19620D03*
G54D24*
X3601Y-18620D03*
G54D25*
X5601Y-18620D03*
X1601Y-18620D03*
G54D23*
X10101Y-13121D03*
X12601Y-12121D03*
G54D24*
X11101Y-11121D03*
G54D25*
X13101Y-11121D03*
X9101Y-11121D03*
G54D23*
X10101Y-43120D03*
X12601Y-42120D03*
G54D24*
X11101Y-41120D03*
G54D25*
X13101Y-41120D03*
X9101Y-41120D03*
G54D23*
X2601Y-43120D03*
X5101Y-42120D03*
G54D24*
X3601Y-41120D03*
G54D25*
X5601Y-41120D03*
X1601Y-41120D03*
G54D23*
X2601Y-13121D03*
X5101Y-12121D03*
G54D24*
X3601Y-11121D03*
G54D25*
X5601Y-11121D03*
X1601Y-11121D03*
G54D23*
X10101Y-5621D03*
X12601Y-4621D03*
G54D24*
X11101Y-3621D03*
G54D25*
X13101Y-3621D03*
X9101Y-3621D03*
G54D23*
X28101Y-15870D03*
X27101Y-13370D03*
G54D24*
X26101Y-14870D03*
G54D25*
X26101Y-12870D03*
X26101Y-16870D03*
G54D29*
X28851Y-10170D03*
X28851Y-19570D03*
G54D24*
X22851Y-10170D03*
X22851Y-19570D03*
G54D23*
X28101Y-30870D03*
X27101Y-28370D03*
G54D24*
X26101Y-29870D03*
G54D25*
X26101Y-27870D03*
X26101Y-31870D03*
G54D29*
X28851Y-25170D03*
X28851Y-34570D03*
G54D24*
X22851Y-25170D03*
X22851Y-34570D03*
G54D22*
X24101Y-7121D03*
X27101Y-7121D03*
X14601Y-7121D03*
X11601Y-7121D03*
X22101Y-7121D03*
X19101Y-7121D03*
G54D26*
X11601Y-1621D03*
G54D27*
X10601Y-1621D03*
G54D26*
X19101Y-1621D03*
G54D27*
X18101Y-1621D03*
G54D28*
X16006Y-22997D03*
X17869Y-23986D03*
X16809Y-24628D03*
X9247Y-32783D03*
X10996Y-23822D03*
X16105Y-27758D03*
X16105Y-25320D03*
X15524Y-24023D03*
X14229Y-15969D03*
X15436Y-27995D03*
X21465Y-25242D03*
X21465Y-16609D03*
X9630Y-24172D03*
X11878Y-17673D03*
X13588Y-19605D03*
X11421Y-19934D03*
X13012Y-27740D03*
X13740Y-21336D03*
X16823Y-20007D03*
X17775Y-19888D03*
X11686Y-24264D03*
X8574Y-21643D03*
X8044Y-13897D03*
X27178Y-18974D03*
X25005Y-21322D03*
X25005Y-17130D03*
X14237Y-18375D03*
X12502Y-20689D03*
X14479Y-25582D03*
X13764Y-21883D03*
X5081Y-6919D03*
X7687Y-26580D03*
X4664Y-6040D03*
X12702Y-7367D03*
X14600Y-23845D03*
X11889Y-21040D03*
X14213Y-24586D03*
X14968Y-20842D03*
G54D18*
X16860Y-23643D02*
X16482Y-23265D01*
X16214Y-22997D02*
X16006Y-22997D01*
X16482Y-23265D02*
X16214Y-22997D01*
X17134Y-24125D02*
X17015Y-24244D01*
X17730Y-24125D02*
X17134Y-24125D01*
X17869Y-23986D02*
X17730Y-24125D01*
X16637Y-23866D02*
X17015Y-24244D01*
X16809Y-24483D02*
X16809Y-24628D01*
X16415Y-24089D02*
X16809Y-24483D01*
X11243Y-23575D02*
X10996Y-23822D01*
X11518Y-23575D02*
X11243Y-23575D01*
X11519Y-23575D02*
X11518Y-23575D01*
X11896Y-23198D02*
X11519Y-23575D01*
X9876Y-33412D02*
X9247Y-32783D01*
X9876Y-33959D02*
X9876Y-33412D01*
X12601Y-36685D02*
X9876Y-33959D01*
X12601Y-37370D02*
X12601Y-36685D01*
X5976Y-36120D02*
X5976Y-35685D01*
X5976Y-28828D02*
X5976Y-29055D01*
X5976Y-28828D02*
X5976Y-28620D01*
X5976Y-21120D02*
X5641Y-21120D01*
X2996Y-20009D02*
X2331Y-20009D01*
X4542Y-21555D02*
X2996Y-20009D01*
X5467Y-21555D02*
X4542Y-21555D01*
X5641Y-21382D02*
X5467Y-21555D01*
X5641Y-21120D02*
X5641Y-21382D01*
X2633Y-29055D02*
X5976Y-29055D01*
X1972Y-28395D02*
X2633Y-29055D01*
X1972Y-27004D02*
X1972Y-28395D01*
X2283Y-26694D02*
X1972Y-27004D01*
X2283Y-25595D02*
X2283Y-26694D01*
X2703Y-25175D02*
X2283Y-25595D01*
X2703Y-21749D02*
X2703Y-25175D01*
X1984Y-21031D02*
X2703Y-21749D01*
X1984Y-20356D02*
X1984Y-21031D01*
X2331Y-20009D02*
X1984Y-20356D01*
X5976Y-13621D02*
X5641Y-13621D01*
X5976Y-6121D02*
X5641Y-6121D01*
X5641Y-6414D02*
X5641Y-6121D01*
X5499Y-6556D02*
X5641Y-6414D01*
X4634Y-6556D02*
X5499Y-6556D01*
X3087Y-5009D02*
X4634Y-6556D01*
X2347Y-5009D02*
X3087Y-5009D01*
X1975Y-5380D02*
X2347Y-5009D01*
X1975Y-6630D02*
X1975Y-5380D01*
X2355Y-7010D02*
X1975Y-6630D01*
X2355Y-12490D02*
X2355Y-7010D01*
X2927Y-12490D02*
X2355Y-12490D01*
X4493Y-14056D02*
X2927Y-12490D01*
X5499Y-14056D02*
X4493Y-14056D01*
X5641Y-13914D02*
X5499Y-14056D01*
X5641Y-13621D02*
X5641Y-13914D01*
X2331Y-13966D02*
X2331Y-20009D01*
X1984Y-13618D02*
X2331Y-13966D01*
X1984Y-12861D02*
X1984Y-13618D01*
X2355Y-12490D02*
X1984Y-12861D01*
X5976Y-43620D02*
X6311Y-43620D01*
X6099Y-35562D02*
X6099Y-35004D01*
X5976Y-35685D02*
X6099Y-35562D01*
X6311Y-38907D02*
X6311Y-43620D01*
X8976Y-36242D02*
X6311Y-38907D01*
X10368Y-36242D02*
X8976Y-36242D01*
X10716Y-35894D02*
X10368Y-36242D01*
X10716Y-35367D02*
X10716Y-35894D01*
X10353Y-35004D02*
X10716Y-35367D01*
X6099Y-35004D02*
X10353Y-35004D01*
X16105Y-25154D02*
X16105Y-25320D01*
X16124Y-25135D02*
X16105Y-25154D01*
X15746Y-24757D02*
X16124Y-25135D01*
X6099Y-35004D02*
X6099Y-29179D01*
X6099Y-29179D02*
X5976Y-29055D01*
X15985Y-27638D02*
X16105Y-27758D01*
X13773Y-27638D02*
X15985Y-27638D01*
X13071Y-28340D02*
X13773Y-27638D01*
X13071Y-28967D02*
X13071Y-28340D01*
X12859Y-29179D02*
X13071Y-28967D01*
X6099Y-29179D02*
X12859Y-29179D01*
X13598Y-29177D02*
X13476Y-29055D01*
X13598Y-35563D02*
X13598Y-29177D01*
X13476Y-35685D02*
X13598Y-35563D01*
X13476Y-28620D02*
X13476Y-29055D01*
X15524Y-24089D02*
X15524Y-24023D01*
X15969Y-24534D02*
X15524Y-24089D01*
X13476Y-15969D02*
X14229Y-15969D01*
X13476Y-13621D02*
X13476Y-15969D01*
X13476Y-15969D02*
X13476Y-16120D01*
X13605Y-13057D02*
X13476Y-13185D01*
X13605Y-6685D02*
X13605Y-13057D01*
X13476Y-6556D02*
X13605Y-6685D01*
X13476Y-6121D02*
X13476Y-6556D01*
X13476Y-13621D02*
X13476Y-13185D01*
X13476Y-36120D02*
X13476Y-36012D01*
X13476Y-36012D02*
X13476Y-35685D01*
X14119Y-43313D02*
X13811Y-43620D01*
X14119Y-36655D02*
X14119Y-43313D01*
X13476Y-36012D02*
X14119Y-36655D01*
X13476Y-43620D02*
X13811Y-43620D01*
X14811Y-28620D02*
X13476Y-28620D01*
X15436Y-27995D02*
X14811Y-28620D01*
X21099Y-43062D02*
X20976Y-43185D01*
X21099Y-36679D02*
X21099Y-43062D01*
X20976Y-36555D02*
X21099Y-36679D01*
X20976Y-43620D02*
X20976Y-43185D01*
X20976Y-36338D02*
X20976Y-36555D01*
X14124Y-25425D02*
X13746Y-25803D01*
X21115Y-6695D02*
X20976Y-6556D01*
X21115Y-13047D02*
X21115Y-6695D01*
X20976Y-13185D02*
X21115Y-13047D01*
X20976Y-13621D02*
X20976Y-13185D01*
X20976Y-6121D02*
X20976Y-6556D01*
X21311Y-16455D02*
X21465Y-16609D01*
X21311Y-16120D02*
X21311Y-16455D01*
X20876Y-28620D02*
X20876Y-28185D01*
X21102Y-27959D02*
X20876Y-28185D01*
X21102Y-25604D02*
X21102Y-27959D01*
X20389Y-25604D02*
X21102Y-25604D01*
X19919Y-26073D02*
X20389Y-25604D01*
X19919Y-26167D02*
X19919Y-26073D01*
X19008Y-27078D02*
X19919Y-26167D01*
X15463Y-27078D02*
X19008Y-27078D01*
X15342Y-26956D02*
X15463Y-27078D01*
X14977Y-26956D02*
X15342Y-26956D01*
X14476Y-26455D02*
X14977Y-26956D01*
X14418Y-26455D02*
X14476Y-26455D01*
X13836Y-25873D02*
X14418Y-26455D01*
X13816Y-25873D02*
X13836Y-25873D01*
X13746Y-25803D02*
X13816Y-25873D01*
X21102Y-25604D02*
X21465Y-25242D01*
X20976Y-36338D02*
X20976Y-36120D01*
X21100Y-29279D02*
X20876Y-29055D01*
X21100Y-35561D02*
X21100Y-29279D01*
X20976Y-35685D02*
X21100Y-35561D01*
X20976Y-36120D02*
X20976Y-35685D01*
X20876Y-28620D02*
X20876Y-29055D01*
X20976Y-16120D02*
X21204Y-16120D01*
X21204Y-16120D02*
X21311Y-16120D01*
X21204Y-14284D02*
X20976Y-14056D01*
X21204Y-16120D02*
X21204Y-14284D01*
X20976Y-13621D02*
X20976Y-14056D01*
X28476Y-6121D02*
X28141Y-6121D01*
X27976Y-6621D02*
X27976Y-11621D01*
X28141Y-6456D02*
X27976Y-6621D01*
X28141Y-6121D02*
X28141Y-6456D01*
X27976Y-26620D02*
X27809Y-26620D01*
X27809Y-26620D02*
X27641Y-26620D01*
X28597Y-43065D02*
X28476Y-43185D01*
X28597Y-40770D02*
X28597Y-43065D01*
X27481Y-39654D02*
X28597Y-40770D01*
X27481Y-30534D02*
X27481Y-39654D01*
X27809Y-30206D02*
X27481Y-30534D01*
X27809Y-26620D02*
X27809Y-30206D01*
X28476Y-43620D02*
X28476Y-43185D01*
X27486Y-15560D02*
X27486Y-18617D01*
X27976Y-15069D02*
X27486Y-15560D01*
X27976Y-11621D02*
X27976Y-15069D01*
X27641Y-18772D02*
X27641Y-26620D01*
X27486Y-18617D02*
X27641Y-18772D01*
X17083Y-22020D02*
X17461Y-21643D01*
X22450Y-18617D02*
X27486Y-18617D01*
X19484Y-21582D02*
X22450Y-18617D01*
X18969Y-21582D02*
X19484Y-21582D01*
X18909Y-21643D02*
X18969Y-21582D01*
X17461Y-21643D02*
X18909Y-21643D01*
X17461Y-21643D02*
X17461Y-21643D01*
X12119Y-23420D02*
X11741Y-23798D01*
X10590Y-24172D02*
X9630Y-24172D01*
X10611Y-24193D02*
X10590Y-24172D01*
X11246Y-24193D02*
X10611Y-24193D01*
X11641Y-23798D02*
X11246Y-24193D01*
X11741Y-23798D02*
X11641Y-23798D01*
X11741Y-23798D02*
X11741Y-23798D01*
G54D30*
X12838Y-20374D02*
X12838Y-20406D01*
X12788Y-20324D02*
X12838Y-20374D01*
G54D18*
X12855Y-20423D02*
X12855Y-20529D01*
X12838Y-20406D02*
X12855Y-20423D01*
X13233Y-20907D02*
X12855Y-20529D01*
X20796Y-5622D02*
X25101Y-5622D01*
X20561Y-5857D02*
X20796Y-5622D01*
X20561Y-6474D02*
X20561Y-5857D01*
X20453Y-6582D02*
X20561Y-6474D01*
X18562Y-6582D02*
X20453Y-6582D01*
X17601Y-5622D02*
X18562Y-6582D01*
X10101Y-5781D02*
X10101Y-5621D01*
X8597Y-7285D02*
X10101Y-5781D01*
X4943Y-7285D02*
X8597Y-7285D01*
X3278Y-5621D02*
X4943Y-7285D01*
X2601Y-5621D02*
X3278Y-5621D01*
X12065Y-17860D02*
X11878Y-17673D01*
X12065Y-18993D02*
X12065Y-17860D01*
X11991Y-19067D02*
X12065Y-18993D01*
X11991Y-19873D02*
X11991Y-19067D01*
X12367Y-20249D02*
X11991Y-19873D01*
X12528Y-20249D02*
X12367Y-20249D01*
X12603Y-20324D02*
X12528Y-20249D01*
X12788Y-20324D02*
X12603Y-20324D01*
X13455Y-20684D02*
X13078Y-20306D01*
X14154Y-16568D02*
X13599Y-16568D01*
X17601Y-13121D02*
X14154Y-16568D01*
X13213Y-20171D02*
X13078Y-20306D01*
X13213Y-19832D02*
X13213Y-20171D01*
X13230Y-19814D02*
X13213Y-19832D01*
X13230Y-19230D02*
X13230Y-19814D01*
X13599Y-18861D02*
X13230Y-19230D01*
X13599Y-16568D02*
X13599Y-18861D01*
X10431Y-13121D02*
X10101Y-13121D01*
X13141Y-15830D02*
X10431Y-13121D01*
X13141Y-16482D02*
X13141Y-15830D01*
X13227Y-16568D02*
X13141Y-16482D01*
X13599Y-16568D02*
X13227Y-16568D01*
X3781Y-14300D02*
X2601Y-13121D01*
X8921Y-14300D02*
X3781Y-14300D01*
X10101Y-13121D02*
X8921Y-14300D01*
X7801Y-20620D02*
X10101Y-20620D01*
X6625Y-21797D02*
X7801Y-20620D01*
X3777Y-21797D02*
X6625Y-21797D01*
X2601Y-20620D02*
X3777Y-21797D01*
X10787Y-19934D02*
X11421Y-19934D01*
X10101Y-20620D02*
X10787Y-19934D01*
X13588Y-19796D02*
X13588Y-19605D01*
X13453Y-19931D02*
X13588Y-19796D01*
X13453Y-20236D02*
X13453Y-19931D01*
X13678Y-20461D02*
X13453Y-20236D01*
X18140Y-20081D02*
X17601Y-20620D01*
X18140Y-19748D02*
X18140Y-20081D01*
X17693Y-19301D02*
X18140Y-19748D01*
X13891Y-19301D02*
X17693Y-19301D01*
X13588Y-19605D02*
X13891Y-19301D01*
X13901Y-20238D02*
X14279Y-20616D01*
X2938Y-28120D02*
X2601Y-28120D01*
X4565Y-26493D02*
X2938Y-28120D01*
X4565Y-26424D02*
X4565Y-26493D01*
X5370Y-25619D02*
X4565Y-26424D01*
X7599Y-25619D02*
X5370Y-25619D01*
X10101Y-28120D02*
X7599Y-25619D01*
X14132Y-20943D02*
X13740Y-21336D01*
X14132Y-20762D02*
X14132Y-20943D01*
X14279Y-20616D02*
X14132Y-20762D01*
X13353Y-27398D02*
X13012Y-27740D01*
X16879Y-27398D02*
X13353Y-27398D01*
X17601Y-28120D02*
X16879Y-27398D01*
X3536Y-36555D02*
X2601Y-35620D01*
X8120Y-36555D02*
X3536Y-36555D01*
X9055Y-35620D02*
X8120Y-36555D01*
X10101Y-35620D02*
X9055Y-35620D01*
X15978Y-20007D02*
X15524Y-20461D01*
X16823Y-20007D02*
X15978Y-20007D01*
X17447Y-19560D02*
X17775Y-19888D01*
X14579Y-19560D02*
X17447Y-19560D01*
X14124Y-20016D02*
X14579Y-19560D01*
X11720Y-24264D02*
X11686Y-24264D01*
X12342Y-23643D02*
X11720Y-24264D01*
X12119Y-22020D02*
X11741Y-21643D01*
X8207Y-22010D02*
X8574Y-21643D01*
X7901Y-22010D02*
X8207Y-22010D01*
X7901Y-22345D02*
X7901Y-22010D01*
X11741Y-21643D02*
X8574Y-21643D01*
X11741Y-21643D02*
X11741Y-21643D01*
X13500Y-5393D02*
X14064Y-5393D01*
X13061Y-5832D02*
X13500Y-5393D01*
X13061Y-7800D02*
X13061Y-5832D01*
X9783Y-11078D02*
X13061Y-7800D01*
X9783Y-12159D02*
X9783Y-11078D01*
X8044Y-13897D02*
X9783Y-12159D01*
X14064Y-4623D02*
X14064Y-5393D01*
G54D31*
X25216Y-23305D02*
X25216Y-22753D01*
X25276Y-23365D02*
X25216Y-23305D01*
X26776Y-23220D02*
X26421Y-23220D01*
X7226Y-4621D02*
X6871Y-4621D01*
X27087Y-19065D02*
X26776Y-19065D01*
X27178Y-18974D02*
X27087Y-19065D01*
X26776Y-19520D02*
X26776Y-19065D01*
X25276Y-23820D02*
X25276Y-23365D01*
X26776Y-21620D02*
X26421Y-21620D01*
X25216Y-22753D02*
X25623Y-22753D01*
X26421Y-22753D02*
X25623Y-22753D01*
X26421Y-23220D02*
X26421Y-22753D01*
X26421Y-22753D02*
X26421Y-21620D01*
X17083Y-23420D02*
X16691Y-23029D01*
X8901Y-23895D02*
X8446Y-23895D01*
X24586Y-21887D02*
X24179Y-21887D01*
X24586Y-21887D02*
X24586Y-21432D01*
X26776Y-19520D02*
X26776Y-20924D01*
X26776Y-20924D02*
X26776Y-21620D01*
X12564Y-21575D02*
X12956Y-21967D01*
X13624Y-24142D02*
X13624Y-22610D01*
X13625Y-24142D02*
X13624Y-24142D01*
X12981Y-21967D02*
X12956Y-21967D01*
X13624Y-22610D02*
X12981Y-21967D01*
X24146Y-21920D02*
X24179Y-21887D01*
X23776Y-21920D02*
X24146Y-21920D01*
X23776Y-21920D02*
X23421Y-21920D01*
X16837Y-22720D02*
X16628Y-22930D01*
X21182Y-22720D02*
X16837Y-22720D01*
X22437Y-21465D02*
X21182Y-22720D01*
X23277Y-21465D02*
X22437Y-21465D01*
X23421Y-21610D02*
X23277Y-21465D01*
X23421Y-21920D02*
X23421Y-21610D01*
X16628Y-22965D02*
X16691Y-23029D01*
X16628Y-22930D02*
X16628Y-22965D01*
X15301Y-25202D02*
X14909Y-24810D01*
X16315Y-22617D02*
X14981Y-22617D01*
X16628Y-22930D02*
X16315Y-22617D01*
X14981Y-24739D02*
X14909Y-24810D01*
X14981Y-22617D02*
X14981Y-24739D01*
X14560Y-22196D02*
X14981Y-22617D01*
X14589Y-22167D02*
X14560Y-22196D01*
X14589Y-20505D02*
X14589Y-22167D01*
X15078Y-20016D02*
X14589Y-20505D01*
X14146Y-22610D02*
X13624Y-22610D01*
X14560Y-22196D02*
X14146Y-22610D01*
X13429Y-24338D02*
X13625Y-24142D01*
X10659Y-21251D02*
X11021Y-20889D01*
X8274Y-21251D02*
X10659Y-21251D01*
X7429Y-22095D02*
X8274Y-21251D01*
X7429Y-23340D02*
X7429Y-22095D01*
X7679Y-23590D02*
X7429Y-23340D01*
X7901Y-23590D02*
X7679Y-23590D01*
X7901Y-23945D02*
X7901Y-23590D01*
X11021Y-20434D02*
X11021Y-20889D01*
X8406Y-23895D02*
X8356Y-23945D01*
X8446Y-23895D02*
X8406Y-23895D01*
X7901Y-23945D02*
X8356Y-23945D01*
X13429Y-24338D02*
X13233Y-24534D01*
X7590Y-24300D02*
X7901Y-24300D01*
X7446Y-24445D02*
X7590Y-24300D01*
X7446Y-24948D02*
X7446Y-24445D01*
X7548Y-25051D02*
X7446Y-24948D01*
X12716Y-25051D02*
X7548Y-25051D01*
X13233Y-24534D02*
X12716Y-25051D01*
X7901Y-23945D02*
X7901Y-24300D01*
X351Y-44370D02*
X13101Y-44370D01*
X13101Y-44370D02*
X29351Y-44370D01*
X13633Y-37403D02*
X13601Y-37370D01*
X13633Y-42440D02*
X13633Y-37403D01*
X13101Y-42973D02*
X13633Y-42440D01*
X13101Y-44370D02*
X13101Y-42973D01*
X4148Y-5550D02*
X6281Y-5550D01*
X2286Y-3688D02*
X4148Y-5550D01*
X2286Y-2257D02*
X2286Y-3688D01*
X351Y-322D02*
X2286Y-2257D01*
X6871Y-4961D02*
X6871Y-4621D01*
X6281Y-5550D02*
X6871Y-4961D01*
X15921Y-3832D02*
X15639Y-3832D01*
X16231Y-4142D02*
X15921Y-3832D01*
X16815Y-4142D02*
X16231Y-4142D01*
X17283Y-3674D02*
X16815Y-4142D01*
X17283Y-3567D02*
X17283Y-3674D01*
X18344Y-2506D02*
X17283Y-3567D01*
X27215Y-2506D02*
X18344Y-2506D01*
X29351Y-371D02*
X27215Y-2506D01*
X15639Y-4623D02*
X15639Y-3832D01*
X14894Y-3087D02*
X15639Y-3832D01*
X12904Y-3087D02*
X14894Y-3087D01*
X12571Y-3421D02*
X12904Y-3087D01*
X12571Y-3526D02*
X12571Y-3421D01*
X11508Y-4588D02*
X12571Y-3526D01*
X8822Y-4588D02*
X11508Y-4588D01*
X8822Y-6259D02*
X8822Y-4588D01*
X8730Y-6351D02*
X8822Y-6259D01*
X6983Y-6351D02*
X8730Y-6351D01*
X6281Y-5649D02*
X6983Y-6351D01*
X6281Y-5550D02*
X6281Y-5649D01*
X7795Y-3561D02*
X7795Y-2449D01*
X8822Y-4588D02*
X7795Y-3561D01*
X24586Y-21203D02*
X24586Y-21432D01*
X24865Y-20924D02*
X24586Y-21203D01*
X26776Y-20924D02*
X24865Y-20924D01*
G54D18*
X25216Y-21887D02*
X25409Y-21887D01*
X12787Y-21352D02*
X12409Y-20974D01*
X12502Y-20882D02*
X12502Y-20689D01*
X12409Y-20974D02*
X12502Y-20882D01*
X21291Y-17130D02*
X25005Y-17130D01*
X20561Y-16400D02*
X21291Y-17130D01*
X20561Y-15754D02*
X20561Y-16400D01*
X20492Y-15685D02*
X20561Y-15754D01*
X16927Y-15685D02*
X20492Y-15685D01*
X14237Y-18375D02*
X16927Y-15685D01*
X25303Y-21620D02*
X25005Y-21322D01*
X25409Y-21620D02*
X25303Y-21620D01*
X25409Y-21887D02*
X25409Y-21620D01*
X25409Y-21620D02*
X26026Y-21620D01*
X20964Y-22243D02*
X17306Y-22243D01*
X22517Y-20690D02*
X20964Y-22243D01*
X23301Y-20690D02*
X22517Y-20690D01*
X24471Y-19520D02*
X23301Y-20690D01*
X26026Y-19520D02*
X24471Y-19520D01*
X24586Y-22753D02*
X24586Y-23189D01*
X24871Y-23474D02*
X24586Y-23189D01*
X24871Y-24269D02*
X24871Y-23474D01*
X25507Y-24269D02*
X24871Y-24269D01*
X26026Y-23750D02*
X25507Y-24269D01*
X26026Y-23220D02*
X26026Y-23750D01*
X13764Y-21883D02*
X13010Y-21129D01*
X15532Y-26636D02*
X14479Y-25582D01*
X16799Y-26636D02*
X15532Y-26636D01*
X17283Y-26152D02*
X16799Y-26636D01*
X17283Y-26095D02*
X17283Y-26152D01*
X19153Y-24225D02*
X17283Y-26095D01*
X24208Y-24225D02*
X19153Y-24225D01*
X24252Y-24269D02*
X24208Y-24225D01*
X24871Y-24269D02*
X24252Y-24269D01*
X6850Y-3534D02*
X6850Y-2449D01*
X7561Y-4245D02*
X6850Y-3534D01*
X7561Y-5450D02*
X7561Y-4245D01*
X7351Y-5660D02*
X7561Y-5450D01*
X7351Y-5996D02*
X7351Y-5660D01*
X8351Y-4507D02*
X8351Y-5660D01*
X7165Y-3321D02*
X8351Y-4507D01*
X7165Y-2449D02*
X7165Y-3321D01*
X8351Y-5996D02*
X8351Y-5660D01*
X5101Y-28060D02*
X5226Y-28185D01*
X5101Y-27120D02*
X5101Y-28060D01*
X5226Y-28620D02*
X5226Y-28185D01*
X27226Y-28245D02*
X27226Y-26620D01*
X27101Y-28370D02*
X27226Y-28245D01*
X5226Y-19745D02*
X5226Y-21120D01*
X5101Y-19620D02*
X5226Y-19745D01*
X5226Y-34745D02*
X5226Y-36120D01*
X5101Y-34620D02*
X5226Y-34745D01*
X12601Y-35560D02*
X12726Y-35685D01*
X12601Y-34620D02*
X12601Y-35560D01*
X12726Y-36120D02*
X12726Y-35685D01*
X20226Y-34745D02*
X20226Y-36120D01*
X20101Y-34620D02*
X20226Y-34745D01*
X7351Y-6746D02*
X6916Y-6746D01*
X6743Y-6919D02*
X5081Y-6919D01*
X6916Y-6746D02*
X6743Y-6919D01*
X9856Y-28748D02*
X7687Y-26580D01*
X10336Y-28748D02*
X9856Y-28748D01*
X11266Y-27818D02*
X10336Y-28748D01*
X11266Y-27349D02*
X11266Y-27818D01*
X12241Y-26374D02*
X11266Y-27349D01*
X12241Y-26257D02*
X12241Y-26374D01*
X12873Y-25625D02*
X12241Y-26257D01*
X13032Y-25625D02*
X12873Y-25625D01*
X13678Y-24980D02*
X13032Y-25625D01*
X27726Y-4747D02*
X27726Y-6121D01*
X27601Y-4622D02*
X27726Y-4747D01*
X27226Y-13245D02*
X27226Y-11621D01*
X27101Y-13370D02*
X27226Y-13245D01*
X5226Y-6121D02*
X4891Y-6121D01*
X4811Y-6040D02*
X4664Y-6040D01*
X4891Y-6121D02*
X4811Y-6040D01*
X12726Y-42245D02*
X12726Y-43620D01*
X12601Y-42120D02*
X12726Y-42245D01*
X20101Y-43060D02*
X20226Y-43185D01*
X20101Y-42120D02*
X20101Y-43060D01*
X20226Y-43620D02*
X20226Y-43185D01*
X5226Y-42245D02*
X5226Y-43620D01*
X5101Y-42120D02*
X5226Y-42245D01*
X27726Y-42245D02*
X27726Y-43620D01*
X27601Y-42120D02*
X27726Y-42245D01*
X12601Y-5560D02*
X12726Y-5685D01*
X12601Y-4621D02*
X12601Y-5560D01*
X12726Y-6121D02*
X12726Y-5685D01*
X20226Y-4747D02*
X20226Y-6121D01*
X20101Y-4622D02*
X20226Y-4747D01*
X7901Y-24695D02*
X8336Y-24695D01*
X12626Y-24695D02*
X13010Y-24311D01*
X8336Y-24695D02*
X12626Y-24695D01*
X5226Y-12246D02*
X5226Y-13621D01*
X5101Y-12121D02*
X5226Y-12246D01*
X12726Y-12246D02*
X12726Y-13621D01*
X12601Y-12121D02*
X12726Y-12246D01*
X20101Y-13060D02*
X20226Y-13185D01*
X20101Y-12121D02*
X20101Y-13060D01*
X20226Y-13621D02*
X20226Y-13185D01*
X12726Y-16120D02*
X12726Y-16555D01*
X12601Y-16680D02*
X12726Y-16555D01*
X12601Y-19620D02*
X12601Y-16680D01*
X20101Y-16680D02*
X20226Y-16555D01*
X20101Y-19620D02*
X20101Y-16680D01*
X20226Y-16120D02*
X20226Y-16555D01*
X12601Y-28060D02*
X12726Y-28185D01*
X12601Y-27120D02*
X12601Y-28060D01*
X12726Y-28620D02*
X12726Y-28185D01*
X20101Y-28160D02*
X20126Y-28185D01*
X20101Y-27120D02*
X20101Y-28160D01*
X20126Y-28620D02*
X20126Y-28185D01*
X14367Y-23845D02*
X14600Y-23845D01*
X13455Y-24757D02*
X14367Y-23845D01*
X12702Y-7333D02*
X12702Y-7367D01*
X10356Y-4986D02*
X12702Y-7333D01*
X9870Y-4986D02*
X10356Y-4986D01*
X9082Y-5774D02*
X9870Y-4986D01*
X9082Y-6450D02*
X9082Y-5774D01*
X8786Y-6746D02*
X9082Y-6450D01*
X8351Y-6746D02*
X8786Y-6746D01*
G54D31*
X17101Y-2226D02*
X17496Y-2226D01*
X17496Y-2226D02*
X18101Y-1621D01*
X7901Y-23095D02*
X8356Y-23095D01*
X4578Y-3098D02*
X3101Y-1621D01*
X4578Y-4053D02*
X4578Y-3098D01*
X4471Y-4161D02*
X4578Y-4053D01*
X4471Y-4889D02*
X4471Y-4161D01*
X4852Y-5270D02*
X4471Y-4889D01*
X5649Y-5270D02*
X4852Y-5270D01*
X6298Y-4621D02*
X5649Y-5270D01*
X11771Y-20434D02*
X11771Y-20889D01*
X6476Y-4621D02*
X6387Y-4621D01*
X6387Y-4621D02*
X6298Y-4621D01*
X6387Y-3269D02*
X6535Y-3121D01*
X6387Y-4621D02*
X6387Y-3269D01*
X6535Y-2449D02*
X6535Y-3121D01*
X25601Y-1621D02*
X25046Y-1621D01*
X12342Y-21798D02*
X12734Y-22189D01*
X12787Y-24089D02*
X13179Y-23697D01*
X23026Y-21920D02*
X23026Y-22375D01*
X24526Y-23820D02*
X24171Y-23820D01*
X11206Y-2226D02*
X10601Y-1621D01*
X24441Y-2226D02*
X17101Y-2226D01*
X17101Y-2226D02*
X11206Y-2226D01*
X25046Y-1621D02*
X24441Y-2226D01*
X17306Y-23198D02*
X17697Y-23589D01*
X23026Y-23126D02*
X23026Y-22375D01*
X23476Y-23126D02*
X23026Y-23126D01*
X24171Y-23820D02*
X23476Y-23126D01*
X18953Y-23126D02*
X18248Y-23830D01*
X23026Y-23126D02*
X18953Y-23126D01*
X18008Y-23589D02*
X17697Y-23589D01*
X18248Y-23830D02*
X18008Y-23589D01*
X13901Y-25202D02*
X14293Y-24810D01*
X18248Y-24140D02*
X18248Y-23830D01*
X17234Y-25155D02*
X18248Y-24140D01*
X16825Y-25155D02*
X17234Y-25155D01*
X16281Y-25700D02*
X16825Y-25155D01*
X15587Y-25700D02*
X16281Y-25700D01*
X15470Y-25817D02*
X15587Y-25700D01*
X15078Y-25425D02*
X14686Y-25033D01*
X11771Y-20922D02*
X11889Y-21040D01*
X11771Y-20889D02*
X11771Y-20922D01*
X11889Y-21345D02*
X12342Y-21798D01*
X11889Y-21040D02*
X11889Y-21345D01*
X13179Y-23697D02*
X12203Y-22720D01*
X12203Y-22720D02*
X12734Y-22189D01*
X8406Y-23145D02*
X8901Y-23145D01*
X8356Y-23095D02*
X8406Y-23145D01*
X8971Y-22720D02*
X12203Y-22720D01*
X8901Y-22790D02*
X8971Y-22720D01*
X8901Y-23145D02*
X8901Y-22790D01*
X15078Y-25425D02*
X15470Y-25817D01*
X14293Y-24666D02*
X14213Y-24586D01*
X14293Y-24810D02*
X14293Y-24666D01*
X14293Y-24810D02*
X14293Y-24810D01*
X14686Y-25033D02*
X14686Y-25033D01*
X14633Y-25033D02*
X14686Y-25033D01*
X14410Y-24810D02*
X14633Y-25033D01*
X14293Y-24810D02*
X14410Y-24810D01*
X15301Y-20238D02*
X14909Y-20630D01*
X14968Y-20689D02*
X14968Y-20842D01*
X14909Y-20630D02*
X14968Y-20689D01*
G54D10*
G36*
X4719Y-5594D02*
X4576Y-5594D01*
X4411Y-5661D01*
X4309Y-5764D01*
X3320Y-4775D01*
X3213Y-4704D01*
X3087Y-4679D01*
X2347Y-4679D01*
X2221Y-4704D01*
X2186Y-4727D01*
X2186Y-3505D01*
X2097Y-3290D01*
X1933Y-3125D01*
X1718Y-3036D01*
X1485Y-3035D01*
X1270Y-3124D01*
X1105Y-3289D01*
X1016Y-3504D01*
X1016Y-3736D01*
X1105Y-3952D01*
X1269Y-4116D01*
X1484Y-4205D01*
X1717Y-4206D01*
X1932Y-4117D01*
X2097Y-3952D01*
X2186Y-3737D01*
X2186Y-3505D01*
X2186Y-4727D01*
X2114Y-4775D01*
X1742Y-5147D01*
X1671Y-5254D01*
X1645Y-5380D01*
X1645Y-6630D01*
X1671Y-6756D01*
X1742Y-6863D01*
X2025Y-7146D01*
X2025Y-10717D01*
X1933Y-10625D01*
X1718Y-10536D01*
X1666Y-10536D01*
X1666Y-7009D01*
X1580Y-6801D01*
X1421Y-6642D01*
X1214Y-6556D01*
X989Y-6556D01*
X781Y-6641D01*
X622Y-6800D01*
X536Y-7008D01*
X536Y-7232D01*
X622Y-7440D01*
X780Y-7599D01*
X988Y-7685D01*
X1213Y-7686D01*
X1420Y-7600D01*
X1580Y-7441D01*
X1666Y-7233D01*
X1666Y-7009D01*
X1666Y-10536D01*
X1485Y-10535D01*
X1270Y-10624D01*
X1105Y-10789D01*
X1016Y-11004D01*
X1016Y-11236D01*
X1105Y-11452D01*
X1269Y-11616D01*
X1484Y-11705D01*
X1717Y-11706D01*
X1932Y-11617D01*
X2025Y-11524D01*
X2025Y-12353D01*
X1750Y-12628D01*
X1679Y-12735D01*
X1654Y-12861D01*
X1654Y-13618D01*
X1679Y-13745D01*
X1750Y-13852D01*
X2001Y-14102D01*
X2001Y-18193D01*
X1933Y-18125D01*
X1718Y-18035D01*
X1485Y-18035D01*
X1270Y-18124D01*
X1105Y-18289D01*
X1016Y-18503D01*
X1016Y-18736D01*
X1105Y-18951D01*
X1269Y-19116D01*
X1484Y-19205D01*
X1717Y-19205D01*
X1932Y-19117D01*
X2001Y-19048D01*
X2001Y-19873D01*
X1751Y-20123D01*
X1679Y-20230D01*
X1654Y-20356D01*
X1654Y-21020D01*
X1601Y-21009D01*
X270Y-21009D01*
X270Y-766D01*
X294Y-774D01*
X471Y-761D01*
X577Y-717D01*
X591Y-633D01*
X351Y-392D01*
X345Y-398D01*
X275Y-327D01*
X280Y-322D01*
X275Y-316D01*
X345Y-245D01*
X351Y-251D01*
X356Y-245D01*
X427Y-316D01*
X422Y-322D01*
X662Y-562D01*
X747Y-547D01*
X803Y-379D01*
X793Y-240D01*
X4572Y-240D01*
X4572Y-1160D01*
X4543Y-1115D01*
X4340Y-980D01*
X4101Y-932D01*
X3862Y-980D01*
X3702Y-1087D01*
X3688Y-1054D01*
X3618Y-984D01*
X3526Y-946D01*
X3426Y-946D01*
X2676Y-946D01*
X2584Y-983D01*
X2514Y-1054D01*
X2476Y-1146D01*
X2476Y-1245D01*
X2476Y-2095D01*
X2514Y-2187D01*
X2584Y-2257D01*
X2676Y-2296D01*
X2775Y-2296D01*
X3281Y-2296D01*
X3571Y-2586D01*
X3396Y-2585D01*
X3015Y-2743D01*
X2724Y-3034D01*
X2566Y-3414D01*
X2566Y-3826D01*
X2723Y-4206D01*
X3014Y-4497D01*
X3394Y-4655D01*
X3806Y-4656D01*
X4121Y-4526D01*
X4121Y-4889D01*
X4147Y-5023D01*
X4223Y-5136D01*
X4605Y-5518D01*
X4605Y-5518D01*
X4718Y-5594D01*
X4719Y-5594D01*
X4719Y-5594D01*
G37*
G54D32*
X4719Y-5594D02*
X4576Y-5594D01*
X4411Y-5661D01*
X4309Y-5764D01*
X3320Y-4775D01*
X3213Y-4704D01*
X3087Y-4679D01*
X2347Y-4679D01*
X2221Y-4704D01*
X2186Y-4727D01*
X2186Y-3505D01*
X2097Y-3290D01*
X1933Y-3125D01*
X1718Y-3036D01*
X1485Y-3035D01*
X1270Y-3124D01*
X1105Y-3289D01*
X1016Y-3504D01*
X1016Y-3736D01*
X1105Y-3952D01*
X1269Y-4116D01*
X1484Y-4205D01*
X1717Y-4206D01*
X1932Y-4117D01*
X2097Y-3952D01*
X2186Y-3737D01*
X2186Y-3505D01*
X2186Y-4727D01*
X2114Y-4775D01*
X1742Y-5147D01*
X1671Y-5254D01*
X1645Y-5380D01*
X1645Y-6630D01*
X1671Y-6756D01*
X1742Y-6863D01*
X2025Y-7146D01*
X2025Y-10717D01*
X1933Y-10625D01*
X1718Y-10536D01*
X1666Y-10536D01*
X1666Y-7009D01*
X1580Y-6801D01*
X1421Y-6642D01*
X1214Y-6556D01*
X989Y-6556D01*
X781Y-6641D01*
X622Y-6800D01*
X536Y-7008D01*
X536Y-7232D01*
X622Y-7440D01*
X780Y-7599D01*
X988Y-7685D01*
X1213Y-7686D01*
X1420Y-7600D01*
X1580Y-7441D01*
X1666Y-7233D01*
X1666Y-7009D01*
X1666Y-10536D01*
X1485Y-10535D01*
X1270Y-10624D01*
X1105Y-10789D01*
X1016Y-11004D01*
X1016Y-11236D01*
X1105Y-11452D01*
X1269Y-11616D01*
X1484Y-11705D01*
X1717Y-11706D01*
X1932Y-11617D01*
X2025Y-11524D01*
X2025Y-12353D01*
X1750Y-12628D01*
X1679Y-12735D01*
X1654Y-12861D01*
X1654Y-13618D01*
X1679Y-13745D01*
X1750Y-13852D01*
X2001Y-14102D01*
X2001Y-18193D01*
X1933Y-18125D01*
X1718Y-18035D01*
X1485Y-18035D01*
X1270Y-18124D01*
X1105Y-18289D01*
X1016Y-18503D01*
X1016Y-18736D01*
X1105Y-18951D01*
X1269Y-19116D01*
X1484Y-19205D01*
X1717Y-19205D01*
X1932Y-19117D01*
X2001Y-19048D01*
X2001Y-19873D01*
X1751Y-20123D01*
X1679Y-20230D01*
X1654Y-20356D01*
X1654Y-21020D01*
X1601Y-21009D01*
X270Y-21009D01*
X270Y-766D01*
X294Y-774D01*
X471Y-761D01*
X577Y-717D01*
X591Y-633D01*
X351Y-392D01*
X345Y-398D01*
X275Y-327D01*
X280Y-322D01*
X275Y-316D01*
X345Y-245D01*
X351Y-251D01*
X356Y-245D01*
X427Y-316D01*
X422Y-322D01*
X662Y-562D01*
X747Y-547D01*
X803Y-379D01*
X793Y-240D01*
X4572Y-240D01*
X4572Y-1160D01*
X4543Y-1115D01*
X4340Y-980D01*
X4101Y-932D01*
X3862Y-980D01*
X3702Y-1087D01*
X3688Y-1054D01*
X3618Y-984D01*
X3526Y-946D01*
X3426Y-946D01*
X2676Y-946D01*
X2584Y-983D01*
X2514Y-1054D01*
X2476Y-1146D01*
X2476Y-1245D01*
X2476Y-2095D01*
X2514Y-2187D01*
X2584Y-2257D01*
X2676Y-2296D01*
X2775Y-2296D01*
X3281Y-2296D01*
X3571Y-2586D01*
X3396Y-2585D01*
X3015Y-2743D01*
X2724Y-3034D01*
X2566Y-3414D01*
X2566Y-3826D01*
X2723Y-4206D01*
X3014Y-4497D01*
X3394Y-4655D01*
X3806Y-4656D01*
X4121Y-4526D01*
X4121Y-4889D01*
X4147Y-5023D01*
X4223Y-5136D01*
X4605Y-5518D01*
X4605Y-5518D01*
X4718Y-5594D01*
X4719Y-5594D01*
G54D10*
G36*
X7231Y-5314D02*
X7118Y-5427D01*
X7046Y-5534D01*
X7039Y-5571D01*
X7026Y-5571D01*
X6934Y-5608D01*
X6864Y-5679D01*
X6826Y-5771D01*
X6826Y-5870D01*
X6826Y-6220D01*
X6864Y-6312D01*
X6922Y-6371D01*
X6868Y-6425D01*
X6789Y-6441D01*
X6682Y-6512D01*
X6682Y-6512D01*
X6682Y-6512D01*
X6606Y-6589D01*
X6311Y-6589D01*
X6363Y-6537D01*
X6401Y-6446D01*
X6401Y-6346D01*
X6401Y-5796D01*
X6363Y-5704D01*
X6293Y-5634D01*
X6201Y-5596D01*
X6101Y-5596D01*
X5773Y-5596D01*
X5783Y-5594D01*
X5783Y-5594D01*
X5896Y-5518D01*
X6268Y-5146D01*
X6350Y-5146D01*
X6700Y-5146D01*
X6792Y-5108D01*
X6851Y-5049D01*
X6909Y-5108D01*
X7001Y-5146D01*
X7113Y-5146D01*
X7176Y-5083D01*
X7176Y-4671D01*
X7168Y-4671D01*
X7168Y-4571D01*
X7176Y-4571D01*
X7176Y-4563D01*
X7231Y-4563D01*
X7231Y-5314D01*
X7231Y-5314D01*
G37*
G54D32*
X7231Y-5314D02*
X7118Y-5427D01*
X7046Y-5534D01*
X7039Y-5571D01*
X7026Y-5571D01*
X6934Y-5608D01*
X6864Y-5679D01*
X6826Y-5771D01*
X6826Y-5870D01*
X6826Y-6220D01*
X6864Y-6312D01*
X6922Y-6371D01*
X6868Y-6425D01*
X6789Y-6441D01*
X6682Y-6512D01*
X6682Y-6512D01*
X6682Y-6512D01*
X6606Y-6589D01*
X6311Y-6589D01*
X6363Y-6537D01*
X6401Y-6446D01*
X6401Y-6346D01*
X6401Y-5796D01*
X6363Y-5704D01*
X6293Y-5634D01*
X6201Y-5596D01*
X6101Y-5596D01*
X5773Y-5596D01*
X5783Y-5594D01*
X5783Y-5594D01*
X5896Y-5518D01*
X6268Y-5146D01*
X6350Y-5146D01*
X6700Y-5146D01*
X6792Y-5108D01*
X6851Y-5049D01*
X6909Y-5108D01*
X7001Y-5146D01*
X7113Y-5146D01*
X7176Y-5083D01*
X7176Y-4671D01*
X7168Y-4671D01*
X7168Y-4571D01*
X7176Y-4571D01*
X7176Y-4563D01*
X7231Y-4563D01*
X7231Y-5314D01*
G54D10*
G36*
X11530Y-21313D02*
X10259Y-21313D01*
X10497Y-21214D01*
X10694Y-21017D01*
X10730Y-20931D01*
X10796Y-20959D01*
X10908Y-20959D01*
X10971Y-20896D01*
X10971Y-20484D01*
X10963Y-20484D01*
X10963Y-20384D01*
X10971Y-20384D01*
X10971Y-20376D01*
X11071Y-20376D01*
X11071Y-20384D01*
X11079Y-20384D01*
X11079Y-20484D01*
X11071Y-20484D01*
X11071Y-20896D01*
X11133Y-20959D01*
X11245Y-20959D01*
X11337Y-20921D01*
X11396Y-20862D01*
X11421Y-20887D01*
X11421Y-20889D01*
X11421Y-20922D01*
X11442Y-21028D01*
X11442Y-21028D01*
X11442Y-21128D01*
X11510Y-21292D01*
X11530Y-21313D01*
X11530Y-21313D01*
G37*
G54D32*
X11530Y-21313D02*
X10259Y-21313D01*
X10497Y-21214D01*
X10694Y-21017D01*
X10730Y-20931D01*
X10796Y-20959D01*
X10908Y-20959D01*
X10971Y-20896D01*
X10971Y-20484D01*
X10963Y-20484D01*
X10963Y-20384D01*
X10971Y-20384D01*
X10971Y-20376D01*
X11071Y-20376D01*
X11071Y-20384D01*
X11079Y-20384D01*
X11079Y-20484D01*
X11071Y-20484D01*
X11071Y-20896D01*
X11133Y-20959D01*
X11245Y-20959D01*
X11337Y-20921D01*
X11396Y-20862D01*
X11421Y-20887D01*
X11421Y-20889D01*
X11421Y-20922D01*
X11442Y-21028D01*
X11442Y-21028D01*
X11442Y-21128D01*
X11510Y-21292D01*
X11530Y-21313D01*
G54D10*
G36*
X12997Y-25194D02*
X12896Y-25295D01*
X12873Y-25295D01*
X12873Y-25295D01*
X12848Y-25300D01*
X12747Y-25320D01*
X12640Y-25392D01*
X12640Y-25392D01*
X12640Y-25392D01*
X12130Y-25901D01*
X11979Y-25535D01*
X11688Y-25243D01*
X11308Y-25086D01*
X10896Y-25085D01*
X10515Y-25242D01*
X10224Y-25533D01*
X10066Y-25914D01*
X10066Y-26325D01*
X10223Y-26706D01*
X10514Y-26997D01*
X10894Y-27155D01*
X11006Y-27155D01*
X10961Y-27223D01*
X10936Y-27349D01*
X10936Y-27682D01*
X10753Y-27865D01*
X10695Y-27724D01*
X10498Y-27527D01*
X10241Y-27420D01*
X9962Y-27420D01*
X9895Y-27448D01*
X9153Y-26705D01*
X9217Y-26705D01*
X9432Y-26617D01*
X9597Y-26452D01*
X9686Y-26237D01*
X9686Y-26005D01*
X9597Y-25789D01*
X9433Y-25625D01*
X9218Y-25535D01*
X8985Y-25535D01*
X8770Y-25624D01*
X8605Y-25789D01*
X8516Y-26003D01*
X8516Y-26069D01*
X7832Y-25385D01*
X7725Y-25314D01*
X7599Y-25289D01*
X5370Y-25289D01*
X5244Y-25314D01*
X5137Y-25385D01*
X4627Y-25895D01*
X4479Y-25535D01*
X4188Y-25243D01*
X3808Y-25086D01*
X3396Y-25085D01*
X3020Y-25241D01*
X3033Y-25175D01*
X3033Y-21749D01*
X3007Y-21623D01*
X3007Y-21623D01*
X2936Y-21516D01*
X2740Y-21320D01*
X2807Y-21293D01*
X3544Y-22030D01*
X3544Y-22030D01*
X3651Y-22102D01*
X3651Y-22102D01*
X3752Y-22122D01*
X3777Y-22127D01*
X3777Y-22127D01*
X3777Y-22127D01*
X6625Y-22127D01*
X6751Y-22102D01*
X6751Y-22102D01*
X6858Y-22030D01*
X7938Y-20950D01*
X9480Y-20950D01*
X9507Y-21016D01*
X9704Y-21213D01*
X9943Y-21313D01*
X8876Y-21313D01*
X8828Y-21264D01*
X8664Y-21196D01*
X8486Y-21196D01*
X8322Y-21264D01*
X8196Y-21389D01*
X8128Y-21553D01*
X8128Y-21623D01*
X8070Y-21680D01*
X7901Y-21680D01*
X7775Y-21705D01*
X7668Y-21777D01*
X7596Y-21884D01*
X7589Y-21920D01*
X7576Y-21920D01*
X7484Y-21958D01*
X7414Y-22029D01*
X7376Y-22120D01*
X7376Y-22220D01*
X7376Y-22570D01*
X7414Y-22662D01*
X7472Y-22720D01*
X7414Y-22779D01*
X7376Y-22870D01*
X7376Y-22970D01*
X7376Y-23320D01*
X7414Y-23412D01*
X7484Y-23482D01*
X7576Y-23520D01*
X7626Y-23520D01*
X7576Y-23520D01*
X7484Y-23559D01*
X7414Y-23629D01*
X7376Y-23721D01*
X7376Y-23833D01*
X7438Y-23895D01*
X7851Y-23895D01*
X7851Y-23887D01*
X7951Y-23887D01*
X7951Y-23895D01*
X8363Y-23895D01*
X8426Y-23833D01*
X8438Y-23845D01*
X8851Y-23845D01*
X8851Y-23837D01*
X8951Y-23837D01*
X8951Y-23845D01*
X8959Y-23845D01*
X8959Y-23945D01*
X8951Y-23945D01*
X8951Y-24258D01*
X9013Y-24320D01*
X9126Y-24320D01*
X9207Y-24320D01*
X9226Y-24365D01*
X8374Y-24365D01*
X8329Y-24320D01*
X8388Y-24262D01*
X8411Y-24205D01*
X8414Y-24212D01*
X8484Y-24282D01*
X8576Y-24320D01*
X8675Y-24320D01*
X8788Y-24320D01*
X8851Y-24258D01*
X8851Y-23945D01*
X8438Y-23945D01*
X8376Y-24008D01*
X8363Y-23995D01*
X7951Y-23995D01*
X7951Y-24003D01*
X7851Y-24003D01*
X7851Y-23995D01*
X7438Y-23995D01*
X7376Y-24058D01*
X7376Y-24170D01*
X7414Y-24262D01*
X7472Y-24320D01*
X7414Y-24379D01*
X7376Y-24470D01*
X7376Y-24570D01*
X7376Y-24920D01*
X7414Y-25012D01*
X7484Y-25082D01*
X7576Y-25120D01*
X7675Y-25120D01*
X8225Y-25120D01*
X8317Y-25082D01*
X8374Y-25025D01*
X12626Y-25025D01*
X12752Y-25000D01*
X12752Y-25000D01*
X12859Y-24929D01*
X12932Y-24856D01*
X12923Y-24900D01*
X12866Y-24957D01*
X12865Y-25031D01*
X12925Y-25053D01*
X12934Y-25100D01*
X12997Y-25194D01*
X12997Y-25194D01*
G37*
G54D32*
X12997Y-25194D02*
X12896Y-25295D01*
X12873Y-25295D01*
X12873Y-25295D01*
X12848Y-25300D01*
X12747Y-25320D01*
X12640Y-25392D01*
X12640Y-25392D01*
X12640Y-25392D01*
X12130Y-25901D01*
X11979Y-25535D01*
X11688Y-25243D01*
X11308Y-25086D01*
X10896Y-25085D01*
X10515Y-25242D01*
X10224Y-25533D01*
X10066Y-25914D01*
X10066Y-26325D01*
X10223Y-26706D01*
X10514Y-26997D01*
X10894Y-27155D01*
X11006Y-27155D01*
X10961Y-27223D01*
X10936Y-27349D01*
X10936Y-27682D01*
X10753Y-27865D01*
X10695Y-27724D01*
X10498Y-27527D01*
X10241Y-27420D01*
X9962Y-27420D01*
X9895Y-27448D01*
X9153Y-26705D01*
X9217Y-26705D01*
X9432Y-26617D01*
X9597Y-26452D01*
X9686Y-26237D01*
X9686Y-26005D01*
X9597Y-25789D01*
X9433Y-25625D01*
X9218Y-25535D01*
X8985Y-25535D01*
X8770Y-25624D01*
X8605Y-25789D01*
X8516Y-26003D01*
X8516Y-26069D01*
X7832Y-25385D01*
X7725Y-25314D01*
X7599Y-25289D01*
X5370Y-25289D01*
X5244Y-25314D01*
X5137Y-25385D01*
X4627Y-25895D01*
X4479Y-25535D01*
X4188Y-25243D01*
X3808Y-25086D01*
X3396Y-25085D01*
X3020Y-25241D01*
X3033Y-25175D01*
X3033Y-21749D01*
X3007Y-21623D01*
X3007Y-21623D01*
X2936Y-21516D01*
X2740Y-21320D01*
X2807Y-21293D01*
X3544Y-22030D01*
X3544Y-22030D01*
X3651Y-22102D01*
X3651Y-22102D01*
X3752Y-22122D01*
X3777Y-22127D01*
X3777Y-22127D01*
X3777Y-22127D01*
X6625Y-22127D01*
X6751Y-22102D01*
X6751Y-22102D01*
X6858Y-22030D01*
X7938Y-20950D01*
X9480Y-20950D01*
X9507Y-21016D01*
X9704Y-21213D01*
X9943Y-21313D01*
X8876Y-21313D01*
X8828Y-21264D01*
X8664Y-21196D01*
X8486Y-21196D01*
X8322Y-21264D01*
X8196Y-21389D01*
X8128Y-21553D01*
X8128Y-21623D01*
X8070Y-21680D01*
X7901Y-21680D01*
X7775Y-21705D01*
X7668Y-21777D01*
X7596Y-21884D01*
X7589Y-21920D01*
X7576Y-21920D01*
X7484Y-21958D01*
X7414Y-22029D01*
X7376Y-22120D01*
X7376Y-22220D01*
X7376Y-22570D01*
X7414Y-22662D01*
X7472Y-22720D01*
X7414Y-22779D01*
X7376Y-22870D01*
X7376Y-22970D01*
X7376Y-23320D01*
X7414Y-23412D01*
X7484Y-23482D01*
X7576Y-23520D01*
X7626Y-23520D01*
X7576Y-23520D01*
X7484Y-23559D01*
X7414Y-23629D01*
X7376Y-23721D01*
X7376Y-23833D01*
X7438Y-23895D01*
X7851Y-23895D01*
X7851Y-23887D01*
X7951Y-23887D01*
X7951Y-23895D01*
X8363Y-23895D01*
X8426Y-23833D01*
X8438Y-23845D01*
X8851Y-23845D01*
X8851Y-23837D01*
X8951Y-23837D01*
X8951Y-23845D01*
X8959Y-23845D01*
X8959Y-23945D01*
X8951Y-23945D01*
X8951Y-24258D01*
X9013Y-24320D01*
X9126Y-24320D01*
X9207Y-24320D01*
X9226Y-24365D01*
X8374Y-24365D01*
X8329Y-24320D01*
X8388Y-24262D01*
X8411Y-24205D01*
X8414Y-24212D01*
X8484Y-24282D01*
X8576Y-24320D01*
X8675Y-24320D01*
X8788Y-24320D01*
X8851Y-24258D01*
X8851Y-23945D01*
X8438Y-23945D01*
X8376Y-24008D01*
X8363Y-23995D01*
X7951Y-23995D01*
X7951Y-24003D01*
X7851Y-24003D01*
X7851Y-23995D01*
X7438Y-23995D01*
X7376Y-24058D01*
X7376Y-24170D01*
X7414Y-24262D01*
X7472Y-24320D01*
X7414Y-24379D01*
X7376Y-24470D01*
X7376Y-24570D01*
X7376Y-24920D01*
X7414Y-25012D01*
X7484Y-25082D01*
X7576Y-25120D01*
X7675Y-25120D01*
X8225Y-25120D01*
X8317Y-25082D01*
X8374Y-25025D01*
X12626Y-25025D01*
X12752Y-25000D01*
X12752Y-25000D01*
X12859Y-24929D01*
X12932Y-24856D01*
X12923Y-24900D01*
X12866Y-24957D01*
X12865Y-25031D01*
X12925Y-25053D01*
X12934Y-25100D01*
X12997Y-25194D01*
G54D10*
G36*
X16897Y-22720D02*
X16856Y-22748D01*
X16784Y-22855D01*
X16775Y-22901D01*
X16715Y-22924D01*
X16716Y-22983D01*
X16677Y-22944D01*
X16652Y-22969D01*
X16447Y-22764D01*
X16340Y-22692D01*
X16331Y-22690D01*
X16259Y-22618D01*
X16095Y-22550D01*
X15917Y-22550D01*
X15753Y-22618D01*
X15627Y-22744D01*
X15559Y-22908D01*
X15559Y-23086D01*
X15627Y-23250D01*
X15752Y-23376D01*
X15916Y-23444D01*
X16094Y-23444D01*
X16165Y-23415D01*
X16179Y-23429D01*
X16116Y-23523D01*
X16109Y-23560D01*
X16072Y-23567D01*
X15965Y-23639D01*
X15893Y-23746D01*
X15891Y-23758D01*
X15777Y-23645D01*
X15613Y-23577D01*
X15435Y-23576D01*
X15271Y-23644D01*
X15145Y-23770D01*
X15077Y-23934D01*
X15077Y-24112D01*
X15145Y-24276D01*
X15248Y-24379D01*
X15225Y-24414D01*
X15218Y-24451D01*
X15181Y-24458D01*
X15074Y-24530D01*
X15002Y-24637D01*
X14993Y-24683D01*
X14933Y-24706D01*
X14934Y-24765D01*
X14895Y-24726D01*
X14875Y-24746D01*
X14820Y-24710D01*
X14801Y-24706D01*
X14659Y-24565D01*
X14660Y-24497D01*
X14592Y-24333D01*
X14551Y-24292D01*
X14689Y-24292D01*
X14853Y-24224D01*
X14979Y-24099D01*
X15047Y-23935D01*
X15047Y-23757D01*
X14979Y-23593D01*
X14854Y-23467D01*
X14689Y-23399D01*
X14512Y-23398D01*
X14347Y-23466D01*
X14281Y-23532D01*
X14240Y-23541D01*
X14133Y-23612D01*
X13663Y-24082D01*
X13639Y-24058D01*
X13600Y-24096D01*
X13601Y-24038D01*
X13541Y-24015D01*
X13531Y-23969D01*
X13471Y-23878D01*
X13502Y-23831D01*
X13529Y-23697D01*
X13502Y-23563D01*
X13427Y-23449D01*
X13426Y-23449D01*
X12698Y-22720D01*
X12981Y-22437D01*
X12981Y-22437D01*
X13057Y-22323D01*
X13057Y-22323D01*
X13063Y-22290D01*
X13084Y-22189D01*
X13084Y-22189D01*
X13057Y-22056D01*
X13057Y-22056D01*
X13021Y-22001D01*
X13041Y-21981D01*
X13002Y-21942D01*
X13061Y-21943D01*
X13083Y-21883D01*
X13130Y-21874D01*
X13224Y-21810D01*
X13317Y-21903D01*
X13317Y-21972D01*
X13385Y-22136D01*
X13510Y-22262D01*
X13674Y-22330D01*
X13852Y-22330D01*
X14016Y-22262D01*
X14142Y-22136D01*
X14210Y-21972D01*
X14210Y-21795D01*
X14143Y-21630D01*
X14110Y-21598D01*
X14118Y-21590D01*
X14186Y-21425D01*
X14186Y-21356D01*
X14366Y-21177D01*
X14437Y-21070D01*
X14437Y-21070D01*
X14462Y-20943D01*
X14462Y-20899D01*
X14512Y-20849D01*
X14521Y-20835D01*
X14521Y-20931D01*
X14589Y-21095D01*
X14715Y-21221D01*
X14879Y-21289D01*
X15057Y-21289D01*
X15221Y-21221D01*
X15304Y-21139D01*
X15404Y-21205D01*
X15440Y-21213D01*
X15448Y-21249D01*
X15519Y-21357D01*
X15626Y-21428D01*
X15663Y-21435D01*
X15670Y-21472D01*
X15742Y-21579D01*
X15849Y-21651D01*
X15886Y-21658D01*
X15893Y-21695D01*
X15965Y-21802D01*
X16072Y-21874D01*
X16109Y-21881D01*
X16116Y-21918D01*
X16187Y-22025D01*
X16295Y-22096D01*
X16331Y-22104D01*
X16339Y-22140D01*
X16410Y-22247D01*
X16517Y-22319D01*
X16554Y-22326D01*
X16561Y-22363D01*
X16633Y-22470D01*
X16740Y-22542D01*
X16777Y-22549D01*
X16784Y-22586D01*
X16856Y-22693D01*
X16897Y-22720D01*
X16897Y-22720D01*
G37*
G54D32*
X16897Y-22720D02*
X16856Y-22748D01*
X16784Y-22855D01*
X16775Y-22901D01*
X16715Y-22924D01*
X16716Y-22983D01*
X16677Y-22944D01*
X16652Y-22969D01*
X16447Y-22764D01*
X16340Y-22692D01*
X16331Y-22690D01*
X16259Y-22618D01*
X16095Y-22550D01*
X15917Y-22550D01*
X15753Y-22618D01*
X15627Y-22744D01*
X15559Y-22908D01*
X15559Y-23086D01*
X15627Y-23250D01*
X15752Y-23376D01*
X15916Y-23444D01*
X16094Y-23444D01*
X16165Y-23415D01*
X16179Y-23429D01*
X16116Y-23523D01*
X16109Y-23560D01*
X16072Y-23567D01*
X15965Y-23639D01*
X15893Y-23746D01*
X15891Y-23758D01*
X15777Y-23645D01*
X15613Y-23577D01*
X15435Y-23576D01*
X15271Y-23644D01*
X15145Y-23770D01*
X15077Y-23934D01*
X15077Y-24112D01*
X15145Y-24276D01*
X15248Y-24379D01*
X15225Y-24414D01*
X15218Y-24451D01*
X15181Y-24458D01*
X15074Y-24530D01*
X15002Y-24637D01*
X14993Y-24683D01*
X14933Y-24706D01*
X14934Y-24765D01*
X14895Y-24726D01*
X14875Y-24746D01*
X14820Y-24710D01*
X14801Y-24706D01*
X14659Y-24565D01*
X14660Y-24497D01*
X14592Y-24333D01*
X14551Y-24292D01*
X14689Y-24292D01*
X14853Y-24224D01*
X14979Y-24099D01*
X15047Y-23935D01*
X15047Y-23757D01*
X14979Y-23593D01*
X14854Y-23467D01*
X14689Y-23399D01*
X14512Y-23398D01*
X14347Y-23466D01*
X14281Y-23532D01*
X14240Y-23541D01*
X14133Y-23612D01*
X13663Y-24082D01*
X13639Y-24058D01*
X13600Y-24096D01*
X13601Y-24038D01*
X13541Y-24015D01*
X13531Y-23969D01*
X13471Y-23878D01*
X13502Y-23831D01*
X13529Y-23697D01*
X13502Y-23563D01*
X13427Y-23449D01*
X13426Y-23449D01*
X12698Y-22720D01*
X12981Y-22437D01*
X12981Y-22437D01*
X13057Y-22323D01*
X13057Y-22323D01*
X13063Y-22290D01*
X13084Y-22189D01*
X13084Y-22189D01*
X13057Y-22056D01*
X13057Y-22056D01*
X13021Y-22001D01*
X13041Y-21981D01*
X13002Y-21942D01*
X13061Y-21943D01*
X13083Y-21883D01*
X13130Y-21874D01*
X13224Y-21810D01*
X13317Y-21903D01*
X13317Y-21972D01*
X13385Y-22136D01*
X13510Y-22262D01*
X13674Y-22330D01*
X13852Y-22330D01*
X14016Y-22262D01*
X14142Y-22136D01*
X14210Y-21972D01*
X14210Y-21795D01*
X14143Y-21630D01*
X14110Y-21598D01*
X14118Y-21590D01*
X14186Y-21425D01*
X14186Y-21356D01*
X14366Y-21177D01*
X14437Y-21070D01*
X14437Y-21070D01*
X14462Y-20943D01*
X14462Y-20899D01*
X14512Y-20849D01*
X14521Y-20835D01*
X14521Y-20931D01*
X14589Y-21095D01*
X14715Y-21221D01*
X14879Y-21289D01*
X15057Y-21289D01*
X15221Y-21221D01*
X15304Y-21139D01*
X15404Y-21205D01*
X15440Y-21213D01*
X15448Y-21249D01*
X15519Y-21357D01*
X15626Y-21428D01*
X15663Y-21435D01*
X15670Y-21472D01*
X15742Y-21579D01*
X15849Y-21651D01*
X15886Y-21658D01*
X15893Y-21695D01*
X15965Y-21802D01*
X16072Y-21874D01*
X16109Y-21881D01*
X16116Y-21918D01*
X16187Y-22025D01*
X16295Y-22096D01*
X16331Y-22104D01*
X16339Y-22140D01*
X16410Y-22247D01*
X16517Y-22319D01*
X16554Y-22326D01*
X16561Y-22363D01*
X16633Y-22470D01*
X16740Y-22542D01*
X16777Y-22549D01*
X16784Y-22586D01*
X16856Y-22693D01*
X16897Y-22720D01*
G54D10*
G36*
X25601Y-23342D02*
X25593Y-23333D01*
X25501Y-23295D01*
X25389Y-23295D01*
X25326Y-23358D01*
X25326Y-23770D01*
X25334Y-23770D01*
X25334Y-23870D01*
X25326Y-23870D01*
X25326Y-23878D01*
X25226Y-23878D01*
X25226Y-23870D01*
X25218Y-23870D01*
X25218Y-23770D01*
X25226Y-23770D01*
X25226Y-23358D01*
X25164Y-23295D01*
X25141Y-23295D01*
X25119Y-23263D01*
X25166Y-23216D01*
X25166Y-22803D01*
X25158Y-22803D01*
X25158Y-22703D01*
X25166Y-22703D01*
X25166Y-22695D01*
X25266Y-22695D01*
X25266Y-22703D01*
X25274Y-22703D01*
X25274Y-22803D01*
X25266Y-22803D01*
X25266Y-23216D01*
X25329Y-23279D01*
X25393Y-23279D01*
X25493Y-23279D01*
X25584Y-23241D01*
X25601Y-23224D01*
X25601Y-23342D01*
X25601Y-23342D01*
G37*
G54D32*
X25601Y-23342D02*
X25593Y-23333D01*
X25501Y-23295D01*
X25389Y-23295D01*
X25326Y-23358D01*
X25326Y-23770D01*
X25334Y-23770D01*
X25334Y-23870D01*
X25326Y-23870D01*
X25326Y-23878D01*
X25226Y-23878D01*
X25226Y-23870D01*
X25218Y-23870D01*
X25218Y-23770D01*
X25226Y-23770D01*
X25226Y-23358D01*
X25164Y-23295D01*
X25141Y-23295D01*
X25119Y-23263D01*
X25166Y-23216D01*
X25166Y-22803D01*
X25158Y-22803D01*
X25158Y-22703D01*
X25166Y-22703D01*
X25166Y-22695D01*
X25266Y-22695D01*
X25266Y-22703D01*
X25274Y-22703D01*
X25274Y-22803D01*
X25266Y-22803D01*
X25266Y-23216D01*
X25329Y-23279D01*
X25393Y-23279D01*
X25493Y-23279D01*
X25584Y-23241D01*
X25601Y-23224D01*
X25601Y-23342D01*
G54D10*
G36*
X29431Y-9549D02*
X29333Y-9450D01*
X29021Y-9321D01*
X28683Y-9320D01*
X28370Y-9449D01*
X28306Y-9513D01*
X28306Y-6757D01*
X28374Y-6689D01*
X28374Y-6689D01*
X28374Y-6689D01*
X28403Y-6646D01*
X28403Y-6646D01*
X28701Y-6646D01*
X28793Y-6608D01*
X28863Y-6537D01*
X28901Y-6446D01*
X28901Y-6346D01*
X28901Y-5796D01*
X28863Y-5704D01*
X28793Y-5634D01*
X28701Y-5596D01*
X28602Y-5596D01*
X28252Y-5596D01*
X28160Y-5633D01*
X28101Y-5692D01*
X28056Y-5647D01*
X28056Y-5156D01*
X28194Y-5019D01*
X28301Y-4761D01*
X28301Y-4483D01*
X28195Y-4226D01*
X28176Y-4207D01*
X28217Y-4207D01*
X28432Y-4118D01*
X28597Y-3953D01*
X28686Y-3738D01*
X28686Y-3506D01*
X28597Y-3291D01*
X28433Y-3126D01*
X28218Y-3037D01*
X27985Y-3036D01*
X27770Y-3125D01*
X27605Y-3290D01*
X27516Y-3505D01*
X27516Y-3737D01*
X27592Y-3922D01*
X27462Y-3921D01*
X27226Y-4019D01*
X27226Y-1684D01*
X27226Y-1557D01*
X27178Y-1318D01*
X27043Y-1115D01*
X26840Y-980D01*
X26601Y-932D01*
X26362Y-980D01*
X26202Y-1087D01*
X26188Y-1054D01*
X26118Y-984D01*
X26026Y-946D01*
X25927Y-946D01*
X25177Y-946D01*
X25085Y-983D01*
X25014Y-1054D01*
X24976Y-1146D01*
X24976Y-1245D01*
X24976Y-1284D01*
X24912Y-1297D01*
X24798Y-1373D01*
X24296Y-1876D01*
X19688Y-1876D01*
X19726Y-1684D01*
X19726Y-1557D01*
X19678Y-1318D01*
X19543Y-1115D01*
X19340Y-980D01*
X19101Y-932D01*
X18862Y-980D01*
X18702Y-1087D01*
X18688Y-1054D01*
X18618Y-984D01*
X18526Y-946D01*
X18427Y-946D01*
X17677Y-946D01*
X17585Y-983D01*
X17514Y-1054D01*
X17476Y-1146D01*
X17476Y-1245D01*
X17476Y-1751D01*
X17351Y-1876D01*
X17101Y-1876D01*
X16041Y-1876D01*
X16046Y-1871D01*
X16084Y-1779D01*
X16085Y-1679D01*
X16085Y-459D01*
X16047Y-367D01*
X15976Y-297D01*
X15884Y-258D01*
X15785Y-258D01*
X15391Y-258D01*
X15299Y-296D01*
X15229Y-367D01*
X15191Y-458D01*
X15191Y-558D01*
X15191Y-1778D01*
X15229Y-1870D01*
X15234Y-1876D01*
X14467Y-1876D01*
X14472Y-1871D01*
X14510Y-1779D01*
X14511Y-1679D01*
X14511Y-459D01*
X14473Y-367D01*
X14402Y-297D01*
X14310Y-258D01*
X14211Y-258D01*
X13817Y-258D01*
X13725Y-296D01*
X13655Y-367D01*
X13617Y-458D01*
X13617Y-558D01*
X13617Y-1778D01*
X13655Y-1870D01*
X13660Y-1876D01*
X12188Y-1876D01*
X12226Y-1684D01*
X12226Y-1557D01*
X12178Y-1318D01*
X12043Y-1115D01*
X11840Y-980D01*
X11601Y-932D01*
X11362Y-980D01*
X11202Y-1087D01*
X11188Y-1054D01*
X11118Y-984D01*
X11026Y-946D01*
X10926Y-946D01*
X10176Y-946D01*
X10084Y-983D01*
X10014Y-1054D01*
X9976Y-1146D01*
X9976Y-1245D01*
X9976Y-2095D01*
X10014Y-2187D01*
X10084Y-2257D01*
X10176Y-2296D01*
X10275Y-2296D01*
X10781Y-2296D01*
X10959Y-2473D01*
X11072Y-2549D01*
X11206Y-2576D01*
X17101Y-2576D01*
X17496Y-2576D01*
X24441Y-2576D01*
X24575Y-2549D01*
X24575Y-2549D01*
X24688Y-2473D01*
X25002Y-2159D01*
X25014Y-2187D01*
X25084Y-2257D01*
X25176Y-2296D01*
X25276Y-2296D01*
X26026Y-2296D01*
X26118Y-2258D01*
X26188Y-2187D01*
X26202Y-2154D01*
X26362Y-2261D01*
X26601Y-2309D01*
X26840Y-2261D01*
X27043Y-2126D01*
X27178Y-1923D01*
X27226Y-1684D01*
X27226Y-4019D01*
X27205Y-4028D01*
X27136Y-4096D01*
X27136Y-3417D01*
X26979Y-3036D01*
X26688Y-2745D01*
X26308Y-2587D01*
X25896Y-2586D01*
X25516Y-2744D01*
X25224Y-3035D01*
X25066Y-3415D01*
X25066Y-3827D01*
X25223Y-4207D01*
X25514Y-4498D01*
X25894Y-4656D01*
X26306Y-4657D01*
X26687Y-4499D01*
X26978Y-4209D01*
X27136Y-3828D01*
X27136Y-3417D01*
X27136Y-4096D01*
X27008Y-4225D01*
X26901Y-4482D01*
X26901Y-4760D01*
X27007Y-5018D01*
X27204Y-5215D01*
X27396Y-5294D01*
X27396Y-5647D01*
X27339Y-5704D01*
X27301Y-5796D01*
X27301Y-5895D01*
X27301Y-6445D01*
X27339Y-6537D01*
X27409Y-6607D01*
X27501Y-6646D01*
X27601Y-6646D01*
X27646Y-6646D01*
X27646Y-6960D01*
X27580Y-6801D01*
X27422Y-6642D01*
X27214Y-6556D01*
X26989Y-6556D01*
X26781Y-6641D01*
X26622Y-6800D01*
X26536Y-7008D01*
X26536Y-7232D01*
X26622Y-7440D01*
X26781Y-7599D01*
X26988Y-7685D01*
X27213Y-7686D01*
X27421Y-7600D01*
X27580Y-7441D01*
X27646Y-7281D01*
X27646Y-11147D01*
X27601Y-11192D01*
X27543Y-11134D01*
X27451Y-11096D01*
X27352Y-11096D01*
X27002Y-11096D01*
X26910Y-11133D01*
X26839Y-11204D01*
X26801Y-11296D01*
X26801Y-11395D01*
X26801Y-11945D01*
X26839Y-12037D01*
X26896Y-12094D01*
X26896Y-12698D01*
X26705Y-12777D01*
X26686Y-12795D01*
X26686Y-12755D01*
X26597Y-12539D01*
X26433Y-12375D01*
X26218Y-12285D01*
X25985Y-12285D01*
X25770Y-12374D01*
X25605Y-12539D01*
X25516Y-12753D01*
X25516Y-12986D01*
X25605Y-13201D01*
X25769Y-13366D01*
X25984Y-13455D01*
X26217Y-13455D01*
X26401Y-13379D01*
X26401Y-13509D01*
X26507Y-13766D01*
X26704Y-13963D01*
X26961Y-14070D01*
X27240Y-14070D01*
X27497Y-13964D01*
X27646Y-13815D01*
X27646Y-14933D01*
X27252Y-15326D01*
X27181Y-15433D01*
X27156Y-15560D01*
X27156Y-18287D01*
X27136Y-18287D01*
X27136Y-14665D01*
X26979Y-14285D01*
X26688Y-13993D01*
X26308Y-13836D01*
X25896Y-13835D01*
X25516Y-13992D01*
X25224Y-14283D01*
X25066Y-14664D01*
X25066Y-15075D01*
X25223Y-15456D01*
X25514Y-15747D01*
X25894Y-15905D01*
X26306Y-15906D01*
X26687Y-15748D01*
X26978Y-15457D01*
X27136Y-15077D01*
X27136Y-14665D01*
X27136Y-18287D01*
X26686Y-18287D01*
X26686Y-16755D01*
X26597Y-16539D01*
X26433Y-16375D01*
X26218Y-16285D01*
X25985Y-16285D01*
X25770Y-16374D01*
X25605Y-16539D01*
X25516Y-16753D01*
X25516Y-16986D01*
X25605Y-17201D01*
X25769Y-17366D01*
X25984Y-17455D01*
X26217Y-17455D01*
X26432Y-17367D01*
X26597Y-17202D01*
X26686Y-16987D01*
X26686Y-16755D01*
X26686Y-18287D01*
X22450Y-18287D01*
X22449Y-18287D01*
X22424Y-18292D01*
X22323Y-18312D01*
X22216Y-18384D01*
X22216Y-18384D01*
X22216Y-18384D01*
X20773Y-19826D01*
X20801Y-19760D01*
X20801Y-19482D01*
X20695Y-19224D01*
X20676Y-19205D01*
X20717Y-19205D01*
X20932Y-19117D01*
X21097Y-18952D01*
X21186Y-18737D01*
X21186Y-18505D01*
X21097Y-18289D01*
X20933Y-18125D01*
X20718Y-18035D01*
X20485Y-18035D01*
X20431Y-18058D01*
X20431Y-16817D01*
X20459Y-16789D01*
X20459Y-16789D01*
X20459Y-16789D01*
X20469Y-16774D01*
X21057Y-17363D01*
X21165Y-17434D01*
X21165Y-17434D01*
X21291Y-17460D01*
X24703Y-17460D01*
X24752Y-17508D01*
X24916Y-17576D01*
X25094Y-17577D01*
X25258Y-17509D01*
X25384Y-17383D01*
X25452Y-17219D01*
X25452Y-17041D01*
X25384Y-16877D01*
X25259Y-16751D01*
X25095Y-16683D01*
X24917Y-16683D01*
X24752Y-16751D01*
X24703Y-16800D01*
X24666Y-16800D01*
X24666Y-7009D01*
X24580Y-6801D01*
X24422Y-6642D01*
X24214Y-6556D01*
X23989Y-6556D01*
X23781Y-6641D01*
X23622Y-6800D01*
X23536Y-7008D01*
X23536Y-7232D01*
X23622Y-7440D01*
X23781Y-7599D01*
X23988Y-7685D01*
X24213Y-7686D01*
X24421Y-7600D01*
X24580Y-7441D01*
X24666Y-7233D01*
X24666Y-7009D01*
X24666Y-16800D01*
X23886Y-16800D01*
X23886Y-9965D01*
X23729Y-9585D01*
X23438Y-9293D01*
X23058Y-9136D01*
X22666Y-9135D01*
X22666Y-7009D01*
X22580Y-6801D01*
X22422Y-6642D01*
X22214Y-6556D01*
X21989Y-6556D01*
X21781Y-6641D01*
X21622Y-6800D01*
X21536Y-7008D01*
X21536Y-7232D01*
X21622Y-7440D01*
X21781Y-7599D01*
X21988Y-7685D01*
X22213Y-7686D01*
X22421Y-7600D01*
X22580Y-7441D01*
X22666Y-7233D01*
X22666Y-7009D01*
X22666Y-9135D01*
X22646Y-9135D01*
X22266Y-9292D01*
X21974Y-9583D01*
X21816Y-9964D01*
X21816Y-10375D01*
X21973Y-10756D01*
X22264Y-11047D01*
X22644Y-11205D01*
X23056Y-11206D01*
X23437Y-11048D01*
X23728Y-10757D01*
X23886Y-10377D01*
X23886Y-9965D01*
X23886Y-16800D01*
X21869Y-16800D01*
X21911Y-16698D01*
X21911Y-16520D01*
X21844Y-16356D01*
X21718Y-16230D01*
X21641Y-16198D01*
X21641Y-16120D01*
X21616Y-15994D01*
X21545Y-15887D01*
X21534Y-15880D01*
X21534Y-14284D01*
X21509Y-14158D01*
X21509Y-14158D01*
X21438Y-14051D01*
X21438Y-14051D01*
X21381Y-13994D01*
X21401Y-13946D01*
X21401Y-13846D01*
X21401Y-13296D01*
X21377Y-13237D01*
X21420Y-13173D01*
X21420Y-13173D01*
X21445Y-13047D01*
X21445Y-6695D01*
X21420Y-6568D01*
X21420Y-6568D01*
X21377Y-6504D01*
X21401Y-6446D01*
X21401Y-6346D01*
X21401Y-5952D01*
X24480Y-5952D01*
X24507Y-6018D01*
X24704Y-6215D01*
X24961Y-6321D01*
X25240Y-6322D01*
X25497Y-6215D01*
X25694Y-6019D01*
X25801Y-5761D01*
X25801Y-5483D01*
X25695Y-5226D01*
X25498Y-5028D01*
X25241Y-4922D01*
X24962Y-4921D01*
X24705Y-5028D01*
X24686Y-5047D01*
X24686Y-3506D01*
X24597Y-3291D01*
X24433Y-3126D01*
X24218Y-3037D01*
X23985Y-3036D01*
X23770Y-3125D01*
X23605Y-3290D01*
X23516Y-3505D01*
X23516Y-3737D01*
X23605Y-3952D01*
X23769Y-4117D01*
X23984Y-4206D01*
X24217Y-4207D01*
X24432Y-4118D01*
X24597Y-3953D01*
X24686Y-3738D01*
X24686Y-3506D01*
X24686Y-5047D01*
X24508Y-5225D01*
X24480Y-5292D01*
X20796Y-5292D01*
X20670Y-5317D01*
X20563Y-5388D01*
X20556Y-5395D01*
X20556Y-5156D01*
X20694Y-5019D01*
X20801Y-4761D01*
X20801Y-4483D01*
X20695Y-4226D01*
X20676Y-4207D01*
X20717Y-4207D01*
X20932Y-4118D01*
X21097Y-3953D01*
X21186Y-3738D01*
X21186Y-3506D01*
X21097Y-3291D01*
X20933Y-3126D01*
X20718Y-3037D01*
X20485Y-3036D01*
X20270Y-3125D01*
X20105Y-3290D01*
X20016Y-3505D01*
X20016Y-3737D01*
X20092Y-3922D01*
X19962Y-3921D01*
X19705Y-4028D01*
X19636Y-4096D01*
X19636Y-3417D01*
X19479Y-3036D01*
X19188Y-2745D01*
X18808Y-2587D01*
X18396Y-2586D01*
X18016Y-2744D01*
X17724Y-3035D01*
X17566Y-3415D01*
X17566Y-3827D01*
X17723Y-4207D01*
X18014Y-4498D01*
X18394Y-4656D01*
X18806Y-4657D01*
X19187Y-4499D01*
X19478Y-4209D01*
X19636Y-3828D01*
X19636Y-3417D01*
X19636Y-4096D01*
X19508Y-4225D01*
X19401Y-4482D01*
X19401Y-4760D01*
X19507Y-5018D01*
X19704Y-5215D01*
X19896Y-5294D01*
X19896Y-5647D01*
X19839Y-5704D01*
X19801Y-5796D01*
X19801Y-5895D01*
X19801Y-6252D01*
X18698Y-6252D01*
X18274Y-5827D01*
X18301Y-5761D01*
X18301Y-5483D01*
X18195Y-5226D01*
X17998Y-5028D01*
X17741Y-4922D01*
X17462Y-4921D01*
X17205Y-5028D01*
X17186Y-5047D01*
X17186Y-3506D01*
X17097Y-3291D01*
X16933Y-3126D01*
X16718Y-3037D01*
X16485Y-3036D01*
X16270Y-3125D01*
X16105Y-3290D01*
X16016Y-3505D01*
X16016Y-3737D01*
X16105Y-3952D01*
X16269Y-4117D01*
X16484Y-4206D01*
X16717Y-4207D01*
X16932Y-4118D01*
X17097Y-3953D01*
X17186Y-3738D01*
X17186Y-3506D01*
X17186Y-5047D01*
X17008Y-5225D01*
X16901Y-5482D01*
X16901Y-5760D01*
X17007Y-6018D01*
X17204Y-6215D01*
X17461Y-6321D01*
X17740Y-6322D01*
X17807Y-6294D01*
X18328Y-6816D01*
X18435Y-6887D01*
X18435Y-6887D01*
X18562Y-6912D01*
X18576Y-6912D01*
X18536Y-7008D01*
X18536Y-7232D01*
X18622Y-7440D01*
X18781Y-7599D01*
X18988Y-7685D01*
X19213Y-7686D01*
X19421Y-7600D01*
X19580Y-7441D01*
X19666Y-7233D01*
X19666Y-7009D01*
X19626Y-6912D01*
X20453Y-6912D01*
X20579Y-6887D01*
X20579Y-6887D01*
X20687Y-6816D01*
X20731Y-6771D01*
X20743Y-6789D01*
X20785Y-6831D01*
X20785Y-10563D01*
X20718Y-10536D01*
X20485Y-10535D01*
X20270Y-10624D01*
X20105Y-10789D01*
X20016Y-11004D01*
X20016Y-11236D01*
X20092Y-11421D01*
X19962Y-11420D01*
X19705Y-11527D01*
X19636Y-11595D01*
X19636Y-10916D01*
X19479Y-10535D01*
X19188Y-10244D01*
X18808Y-10086D01*
X18396Y-10085D01*
X18016Y-10243D01*
X17724Y-10534D01*
X17566Y-10914D01*
X17566Y-11326D01*
X17723Y-11706D01*
X18014Y-11997D01*
X18394Y-12155D01*
X18806Y-12156D01*
X19187Y-11999D01*
X19478Y-11708D01*
X19636Y-11327D01*
X19636Y-10916D01*
X19636Y-11595D01*
X19508Y-11724D01*
X19401Y-11981D01*
X19401Y-12259D01*
X19507Y-12517D01*
X19704Y-12714D01*
X19771Y-12741D01*
X19771Y-13060D01*
X19796Y-13187D01*
X19827Y-13233D01*
X19801Y-13296D01*
X19801Y-13395D01*
X19801Y-13945D01*
X19839Y-14037D01*
X19909Y-14107D01*
X20001Y-14146D01*
X20101Y-14146D01*
X20451Y-14146D01*
X20543Y-14108D01*
X20601Y-14049D01*
X20656Y-14104D01*
X20671Y-14182D01*
X20743Y-14289D01*
X20874Y-14421D01*
X20874Y-15595D01*
X20844Y-15595D01*
X20795Y-15521D01*
X20795Y-15521D01*
X20726Y-15452D01*
X20619Y-15380D01*
X20492Y-15355D01*
X16927Y-15355D01*
X16801Y-15380D01*
X16694Y-15452D01*
X14217Y-17928D01*
X14148Y-17928D01*
X13984Y-17996D01*
X13929Y-18051D01*
X13929Y-16898D01*
X14154Y-16898D01*
X14280Y-16873D01*
X14280Y-16873D01*
X14387Y-16801D01*
X17395Y-13793D01*
X17461Y-13820D01*
X17740Y-13821D01*
X17997Y-13714D01*
X18194Y-13518D01*
X18301Y-13260D01*
X18301Y-12982D01*
X18195Y-12725D01*
X17998Y-12527D01*
X17741Y-12421D01*
X17462Y-12420D01*
X17205Y-12527D01*
X17186Y-12546D01*
X17186Y-11005D01*
X17097Y-10790D01*
X16933Y-10625D01*
X16718Y-10536D01*
X16485Y-10535D01*
X16270Y-10624D01*
X16105Y-10789D01*
X16086Y-10837D01*
X16086Y-5282D01*
X16086Y-3963D01*
X16048Y-3871D01*
X15977Y-3800D01*
X15885Y-3762D01*
X15786Y-3762D01*
X15751Y-3762D01*
X15689Y-3825D01*
X15689Y-4573D01*
X16023Y-4573D01*
X16086Y-4510D01*
X16086Y-3963D01*
X16086Y-5282D01*
X16086Y-4735D01*
X16023Y-4673D01*
X15689Y-4673D01*
X15689Y-5420D01*
X15751Y-5483D01*
X15786Y-5483D01*
X15885Y-5483D01*
X15977Y-5445D01*
X16048Y-5374D01*
X16086Y-5282D01*
X16086Y-10837D01*
X16016Y-11004D01*
X16016Y-11236D01*
X16105Y-11452D01*
X16269Y-11616D01*
X16484Y-11705D01*
X16717Y-11706D01*
X16932Y-11617D01*
X17097Y-11452D01*
X17186Y-11237D01*
X17186Y-11005D01*
X17186Y-12546D01*
X17008Y-12724D01*
X16901Y-12981D01*
X16901Y-13259D01*
X16929Y-13326D01*
X15589Y-14666D01*
X15589Y-5420D01*
X15589Y-4673D01*
X15589Y-4573D01*
X15589Y-3825D01*
X15526Y-3762D01*
X15491Y-3762D01*
X15392Y-3762D01*
X15300Y-3800D01*
X15230Y-3871D01*
X15192Y-3963D01*
X15192Y-4510D01*
X15254Y-4573D01*
X15589Y-4573D01*
X15589Y-4673D01*
X15254Y-4673D01*
X15192Y-4735D01*
X15192Y-5282D01*
X15230Y-5374D01*
X15300Y-5445D01*
X15392Y-5483D01*
X15491Y-5483D01*
X15526Y-5483D01*
X15589Y-5420D01*
X15589Y-14666D01*
X15166Y-15089D01*
X15166Y-7009D01*
X15080Y-6801D01*
X14921Y-6642D01*
X14714Y-6556D01*
X14489Y-6556D01*
X14281Y-6641D01*
X14122Y-6800D01*
X14036Y-7008D01*
X14036Y-7232D01*
X14122Y-7440D01*
X14280Y-7599D01*
X14488Y-7685D01*
X14713Y-7686D01*
X14920Y-7600D01*
X15080Y-7441D01*
X15166Y-7233D01*
X15166Y-7009D01*
X15166Y-15089D01*
X14573Y-15682D01*
X14482Y-15591D01*
X14318Y-15523D01*
X14140Y-15522D01*
X13976Y-15590D01*
X13927Y-15639D01*
X13806Y-15639D01*
X13806Y-14094D01*
X13863Y-14037D01*
X13901Y-13946D01*
X13901Y-13846D01*
X13901Y-13296D01*
X13875Y-13234D01*
X13910Y-13183D01*
X13910Y-13183D01*
X13935Y-13057D01*
X13935Y-13057D01*
X13935Y-6685D01*
X13935Y-6685D01*
X13910Y-6558D01*
X13910Y-6558D01*
X13875Y-6507D01*
X13901Y-6446D01*
X13901Y-6346D01*
X13901Y-5796D01*
X13871Y-5723D01*
X14064Y-5723D01*
X14190Y-5698D01*
X14297Y-5626D01*
X14369Y-5519D01*
X14382Y-5453D01*
X14402Y-5445D01*
X14472Y-5375D01*
X14510Y-5283D01*
X14511Y-5183D01*
X14511Y-3963D01*
X14473Y-3871D01*
X14402Y-3800D01*
X14310Y-3762D01*
X14211Y-3762D01*
X13817Y-3762D01*
X13725Y-3800D01*
X13655Y-3870D01*
X13617Y-3962D01*
X13617Y-4062D01*
X13617Y-5063D01*
X13500Y-5063D01*
X13374Y-5088D01*
X13267Y-5160D01*
X13267Y-5160D01*
X12965Y-5461D01*
X12965Y-5461D01*
X12959Y-5452D01*
X12959Y-5452D01*
X12931Y-5424D01*
X12931Y-5242D01*
X12997Y-5214D01*
X13194Y-5018D01*
X13301Y-4760D01*
X13301Y-4482D01*
X13195Y-4225D01*
X13176Y-4206D01*
X13217Y-4206D01*
X13432Y-4117D01*
X13597Y-3952D01*
X13686Y-3737D01*
X13686Y-3505D01*
X13597Y-3290D01*
X13433Y-3125D01*
X13218Y-3036D01*
X12985Y-3035D01*
X12770Y-3124D01*
X12605Y-3289D01*
X12516Y-3504D01*
X12516Y-3736D01*
X12592Y-3921D01*
X12462Y-3920D01*
X12205Y-4027D01*
X12136Y-4095D01*
X12136Y-3416D01*
X11979Y-3035D01*
X11688Y-2744D01*
X11308Y-2586D01*
X10896Y-2585D01*
X10515Y-2743D01*
X10224Y-3034D01*
X10066Y-3414D01*
X10066Y-3826D01*
X10223Y-4206D01*
X10514Y-4497D01*
X10894Y-4655D01*
X11306Y-4656D01*
X11686Y-4499D01*
X11978Y-4208D01*
X12136Y-3827D01*
X12136Y-3416D01*
X12136Y-4095D01*
X12008Y-4224D01*
X11901Y-4481D01*
X11901Y-4759D01*
X12007Y-5017D01*
X12204Y-5214D01*
X12271Y-5241D01*
X12271Y-5560D01*
X12296Y-5687D01*
X12327Y-5733D01*
X12301Y-5796D01*
X12301Y-5895D01*
X12301Y-6445D01*
X12314Y-6478D01*
X10589Y-4753D01*
X10482Y-4681D01*
X10356Y-4656D01*
X9870Y-4656D01*
X9744Y-4681D01*
X9637Y-4753D01*
X8849Y-5541D01*
X8789Y-5630D01*
X8768Y-5609D01*
X8681Y-5573D01*
X8681Y-4507D01*
X8656Y-4381D01*
X8656Y-4381D01*
X8584Y-4274D01*
X8143Y-3833D01*
X8143Y-2892D01*
X8143Y-2499D01*
X7844Y-2499D01*
X7844Y-3124D01*
X7897Y-3175D01*
X8006Y-3124D01*
X8098Y-3022D01*
X8143Y-2892D01*
X8143Y-3833D01*
X7510Y-3199D01*
X7613Y-3179D01*
X7649Y-3155D01*
X7692Y-3175D01*
X7746Y-3124D01*
X7746Y-3074D01*
X7802Y-2990D01*
X7828Y-2857D01*
X7828Y-2391D01*
X7844Y-2391D01*
X7844Y-2399D01*
X8143Y-2399D01*
X8143Y-2005D01*
X8123Y-1947D01*
X8273Y-1885D01*
X8393Y-1765D01*
X8454Y-1619D01*
X8471Y-1661D01*
X8450Y-1710D01*
X8450Y-1809D01*
X8450Y-3187D01*
X8488Y-3279D01*
X8559Y-3350D01*
X8577Y-3357D01*
X8516Y-3504D01*
X8516Y-3736D01*
X8605Y-3952D01*
X8769Y-4116D01*
X8984Y-4205D01*
X9217Y-4206D01*
X9432Y-4117D01*
X9597Y-3952D01*
X9686Y-3737D01*
X9686Y-3505D01*
X9626Y-3359D01*
X9649Y-3350D01*
X9719Y-3279D01*
X9757Y-3188D01*
X9757Y-3088D01*
X9757Y-1710D01*
X9737Y-1661D01*
X9757Y-1612D01*
X9757Y-1513D01*
X9757Y-240D01*
X28923Y-240D01*
X28899Y-313D01*
X28911Y-491D01*
X28955Y-596D01*
X29040Y-611D01*
X29280Y-371D01*
X29274Y-365D01*
X29345Y-294D01*
X29351Y-300D01*
X29356Y-294D01*
X29427Y-365D01*
X29421Y-371D01*
X29427Y-376D01*
X29356Y-447D01*
X29351Y-441D01*
X29110Y-682D01*
X29125Y-766D01*
X29294Y-823D01*
X29431Y-813D01*
X29431Y-9549D01*
X29431Y-9549D01*
G37*
G54D32*
X29431Y-9549D02*
X29333Y-9450D01*
X29021Y-9321D01*
X28683Y-9320D01*
X28370Y-9449D01*
X28306Y-9513D01*
X28306Y-6757D01*
X28374Y-6689D01*
X28374Y-6689D01*
X28374Y-6689D01*
X28403Y-6646D01*
X28403Y-6646D01*
X28701Y-6646D01*
X28793Y-6608D01*
X28863Y-6537D01*
X28901Y-6446D01*
X28901Y-6346D01*
X28901Y-5796D01*
X28863Y-5704D01*
X28793Y-5634D01*
X28701Y-5596D01*
X28602Y-5596D01*
X28252Y-5596D01*
X28160Y-5633D01*
X28101Y-5692D01*
X28056Y-5647D01*
X28056Y-5156D01*
X28194Y-5019D01*
X28301Y-4761D01*
X28301Y-4483D01*
X28195Y-4226D01*
X28176Y-4207D01*
X28217Y-4207D01*
X28432Y-4118D01*
X28597Y-3953D01*
X28686Y-3738D01*
X28686Y-3506D01*
X28597Y-3291D01*
X28433Y-3126D01*
X28218Y-3037D01*
X27985Y-3036D01*
X27770Y-3125D01*
X27605Y-3290D01*
X27516Y-3505D01*
X27516Y-3737D01*
X27592Y-3922D01*
X27462Y-3921D01*
X27226Y-4019D01*
X27226Y-1684D01*
X27226Y-1557D01*
X27178Y-1318D01*
X27043Y-1115D01*
X26840Y-980D01*
X26601Y-932D01*
X26362Y-980D01*
X26202Y-1087D01*
X26188Y-1054D01*
X26118Y-984D01*
X26026Y-946D01*
X25927Y-946D01*
X25177Y-946D01*
X25085Y-983D01*
X25014Y-1054D01*
X24976Y-1146D01*
X24976Y-1245D01*
X24976Y-1284D01*
X24912Y-1297D01*
X24798Y-1373D01*
X24296Y-1876D01*
X19688Y-1876D01*
X19726Y-1684D01*
X19726Y-1557D01*
X19678Y-1318D01*
X19543Y-1115D01*
X19340Y-980D01*
X19101Y-932D01*
X18862Y-980D01*
X18702Y-1087D01*
X18688Y-1054D01*
X18618Y-984D01*
X18526Y-946D01*
X18427Y-946D01*
X17677Y-946D01*
X17585Y-983D01*
X17514Y-1054D01*
X17476Y-1146D01*
X17476Y-1245D01*
X17476Y-1751D01*
X17351Y-1876D01*
X17101Y-1876D01*
X16041Y-1876D01*
X16046Y-1871D01*
X16084Y-1779D01*
X16085Y-1679D01*
X16085Y-459D01*
X16047Y-367D01*
X15976Y-297D01*
X15884Y-258D01*
X15785Y-258D01*
X15391Y-258D01*
X15299Y-296D01*
X15229Y-367D01*
X15191Y-458D01*
X15191Y-558D01*
X15191Y-1778D01*
X15229Y-1870D01*
X15234Y-1876D01*
X14467Y-1876D01*
X14472Y-1871D01*
X14510Y-1779D01*
X14511Y-1679D01*
X14511Y-459D01*
X14473Y-367D01*
X14402Y-297D01*
X14310Y-258D01*
X14211Y-258D01*
X13817Y-258D01*
X13725Y-296D01*
X13655Y-367D01*
X13617Y-458D01*
X13617Y-558D01*
X13617Y-1778D01*
X13655Y-1870D01*
X13660Y-1876D01*
X12188Y-1876D01*
X12226Y-1684D01*
X12226Y-1557D01*
X12178Y-1318D01*
X12043Y-1115D01*
X11840Y-980D01*
X11601Y-932D01*
X11362Y-980D01*
X11202Y-1087D01*
X11188Y-1054D01*
X11118Y-984D01*
X11026Y-946D01*
X10926Y-946D01*
X10176Y-946D01*
X10084Y-983D01*
X10014Y-1054D01*
X9976Y-1146D01*
X9976Y-1245D01*
X9976Y-2095D01*
X10014Y-2187D01*
X10084Y-2257D01*
X10176Y-2296D01*
X10275Y-2296D01*
X10781Y-2296D01*
X10959Y-2473D01*
X11072Y-2549D01*
X11206Y-2576D01*
X17101Y-2576D01*
X17496Y-2576D01*
X24441Y-2576D01*
X24575Y-2549D01*
X24575Y-2549D01*
X24688Y-2473D01*
X25002Y-2159D01*
X25014Y-2187D01*
X25084Y-2257D01*
X25176Y-2296D01*
X25276Y-2296D01*
X26026Y-2296D01*
X26118Y-2258D01*
X26188Y-2187D01*
X26202Y-2154D01*
X26362Y-2261D01*
X26601Y-2309D01*
X26840Y-2261D01*
X27043Y-2126D01*
X27178Y-1923D01*
X27226Y-1684D01*
X27226Y-4019D01*
X27205Y-4028D01*
X27136Y-4096D01*
X27136Y-3417D01*
X26979Y-3036D01*
X26688Y-2745D01*
X26308Y-2587D01*
X25896Y-2586D01*
X25516Y-2744D01*
X25224Y-3035D01*
X25066Y-3415D01*
X25066Y-3827D01*
X25223Y-4207D01*
X25514Y-4498D01*
X25894Y-4656D01*
X26306Y-4657D01*
X26687Y-4499D01*
X26978Y-4209D01*
X27136Y-3828D01*
X27136Y-3417D01*
X27136Y-4096D01*
X27008Y-4225D01*
X26901Y-4482D01*
X26901Y-4760D01*
X27007Y-5018D01*
X27204Y-5215D01*
X27396Y-5294D01*
X27396Y-5647D01*
X27339Y-5704D01*
X27301Y-5796D01*
X27301Y-5895D01*
X27301Y-6445D01*
X27339Y-6537D01*
X27409Y-6607D01*
X27501Y-6646D01*
X27601Y-6646D01*
X27646Y-6646D01*
X27646Y-6960D01*
X27580Y-6801D01*
X27422Y-6642D01*
X27214Y-6556D01*
X26989Y-6556D01*
X26781Y-6641D01*
X26622Y-6800D01*
X26536Y-7008D01*
X26536Y-7232D01*
X26622Y-7440D01*
X26781Y-7599D01*
X26988Y-7685D01*
X27213Y-7686D01*
X27421Y-7600D01*
X27580Y-7441D01*
X27646Y-7281D01*
X27646Y-11147D01*
X27601Y-11192D01*
X27543Y-11134D01*
X27451Y-11096D01*
X27352Y-11096D01*
X27002Y-11096D01*
X26910Y-11133D01*
X26839Y-11204D01*
X26801Y-11296D01*
X26801Y-11395D01*
X26801Y-11945D01*
X26839Y-12037D01*
X26896Y-12094D01*
X26896Y-12698D01*
X26705Y-12777D01*
X26686Y-12795D01*
X26686Y-12755D01*
X26597Y-12539D01*
X26433Y-12375D01*
X26218Y-12285D01*
X25985Y-12285D01*
X25770Y-12374D01*
X25605Y-12539D01*
X25516Y-12753D01*
X25516Y-12986D01*
X25605Y-13201D01*
X25769Y-13366D01*
X25984Y-13455D01*
X26217Y-13455D01*
X26401Y-13379D01*
X26401Y-13509D01*
X26507Y-13766D01*
X26704Y-13963D01*
X26961Y-14070D01*
X27240Y-14070D01*
X27497Y-13964D01*
X27646Y-13815D01*
X27646Y-14933D01*
X27252Y-15326D01*
X27181Y-15433D01*
X27156Y-15560D01*
X27156Y-18287D01*
X27136Y-18287D01*
X27136Y-14665D01*
X26979Y-14285D01*
X26688Y-13993D01*
X26308Y-13836D01*
X25896Y-13835D01*
X25516Y-13992D01*
X25224Y-14283D01*
X25066Y-14664D01*
X25066Y-15075D01*
X25223Y-15456D01*
X25514Y-15747D01*
X25894Y-15905D01*
X26306Y-15906D01*
X26687Y-15748D01*
X26978Y-15457D01*
X27136Y-15077D01*
X27136Y-14665D01*
X27136Y-18287D01*
X26686Y-18287D01*
X26686Y-16755D01*
X26597Y-16539D01*
X26433Y-16375D01*
X26218Y-16285D01*
X25985Y-16285D01*
X25770Y-16374D01*
X25605Y-16539D01*
X25516Y-16753D01*
X25516Y-16986D01*
X25605Y-17201D01*
X25769Y-17366D01*
X25984Y-17455D01*
X26217Y-17455D01*
X26432Y-17367D01*
X26597Y-17202D01*
X26686Y-16987D01*
X26686Y-16755D01*
X26686Y-18287D01*
X22450Y-18287D01*
X22449Y-18287D01*
X22424Y-18292D01*
X22323Y-18312D01*
X22216Y-18384D01*
X22216Y-18384D01*
X22216Y-18384D01*
X20773Y-19826D01*
X20801Y-19760D01*
X20801Y-19482D01*
X20695Y-19224D01*
X20676Y-19205D01*
X20717Y-19205D01*
X20932Y-19117D01*
X21097Y-18952D01*
X21186Y-18737D01*
X21186Y-18505D01*
X21097Y-18289D01*
X20933Y-18125D01*
X20718Y-18035D01*
X20485Y-18035D01*
X20431Y-18058D01*
X20431Y-16817D01*
X20459Y-16789D01*
X20459Y-16789D01*
X20459Y-16789D01*
X20469Y-16774D01*
X21057Y-17363D01*
X21165Y-17434D01*
X21165Y-17434D01*
X21291Y-17460D01*
X24703Y-17460D01*
X24752Y-17508D01*
X24916Y-17576D01*
X25094Y-17577D01*
X25258Y-17509D01*
X25384Y-17383D01*
X25452Y-17219D01*
X25452Y-17041D01*
X25384Y-16877D01*
X25259Y-16751D01*
X25095Y-16683D01*
X24917Y-16683D01*
X24752Y-16751D01*
X24703Y-16800D01*
X24666Y-16800D01*
X24666Y-7009D01*
X24580Y-6801D01*
X24422Y-6642D01*
X24214Y-6556D01*
X23989Y-6556D01*
X23781Y-6641D01*
X23622Y-6800D01*
X23536Y-7008D01*
X23536Y-7232D01*
X23622Y-7440D01*
X23781Y-7599D01*
X23988Y-7685D01*
X24213Y-7686D01*
X24421Y-7600D01*
X24580Y-7441D01*
X24666Y-7233D01*
X24666Y-7009D01*
X24666Y-16800D01*
X23886Y-16800D01*
X23886Y-9965D01*
X23729Y-9585D01*
X23438Y-9293D01*
X23058Y-9136D01*
X22666Y-9135D01*
X22666Y-7009D01*
X22580Y-6801D01*
X22422Y-6642D01*
X22214Y-6556D01*
X21989Y-6556D01*
X21781Y-6641D01*
X21622Y-6800D01*
X21536Y-7008D01*
X21536Y-7232D01*
X21622Y-7440D01*
X21781Y-7599D01*
X21988Y-7685D01*
X22213Y-7686D01*
X22421Y-7600D01*
X22580Y-7441D01*
X22666Y-7233D01*
X22666Y-7009D01*
X22666Y-9135D01*
X22646Y-9135D01*
X22266Y-9292D01*
X21974Y-9583D01*
X21816Y-9964D01*
X21816Y-10375D01*
X21973Y-10756D01*
X22264Y-11047D01*
X22644Y-11205D01*
X23056Y-11206D01*
X23437Y-11048D01*
X23728Y-10757D01*
X23886Y-10377D01*
X23886Y-9965D01*
X23886Y-16800D01*
X21869Y-16800D01*
X21911Y-16698D01*
X21911Y-16520D01*
X21844Y-16356D01*
X21718Y-16230D01*
X21641Y-16198D01*
X21641Y-16120D01*
X21616Y-15994D01*
X21545Y-15887D01*
X21534Y-15880D01*
X21534Y-14284D01*
X21509Y-14158D01*
X21509Y-14158D01*
X21438Y-14051D01*
X21438Y-14051D01*
X21381Y-13994D01*
X21401Y-13946D01*
X21401Y-13846D01*
X21401Y-13296D01*
X21377Y-13237D01*
X21420Y-13173D01*
X21420Y-13173D01*
X21445Y-13047D01*
X21445Y-6695D01*
X21420Y-6568D01*
X21420Y-6568D01*
X21377Y-6504D01*
X21401Y-6446D01*
X21401Y-6346D01*
X21401Y-5952D01*
X24480Y-5952D01*
X24507Y-6018D01*
X24704Y-6215D01*
X24961Y-6321D01*
X25240Y-6322D01*
X25497Y-6215D01*
X25694Y-6019D01*
X25801Y-5761D01*
X25801Y-5483D01*
X25695Y-5226D01*
X25498Y-5028D01*
X25241Y-4922D01*
X24962Y-4921D01*
X24705Y-5028D01*
X24686Y-5047D01*
X24686Y-3506D01*
X24597Y-3291D01*
X24433Y-3126D01*
X24218Y-3037D01*
X23985Y-3036D01*
X23770Y-3125D01*
X23605Y-3290D01*
X23516Y-3505D01*
X23516Y-3737D01*
X23605Y-3952D01*
X23769Y-4117D01*
X23984Y-4206D01*
X24217Y-4207D01*
X24432Y-4118D01*
X24597Y-3953D01*
X24686Y-3738D01*
X24686Y-3506D01*
X24686Y-5047D01*
X24508Y-5225D01*
X24480Y-5292D01*
X20796Y-5292D01*
X20670Y-5317D01*
X20563Y-5388D01*
X20556Y-5395D01*
X20556Y-5156D01*
X20694Y-5019D01*
X20801Y-4761D01*
X20801Y-4483D01*
X20695Y-4226D01*
X20676Y-4207D01*
X20717Y-4207D01*
X20932Y-4118D01*
X21097Y-3953D01*
X21186Y-3738D01*
X21186Y-3506D01*
X21097Y-3291D01*
X20933Y-3126D01*
X20718Y-3037D01*
X20485Y-3036D01*
X20270Y-3125D01*
X20105Y-3290D01*
X20016Y-3505D01*
X20016Y-3737D01*
X20092Y-3922D01*
X19962Y-3921D01*
X19705Y-4028D01*
X19636Y-4096D01*
X19636Y-3417D01*
X19479Y-3036D01*
X19188Y-2745D01*
X18808Y-2587D01*
X18396Y-2586D01*
X18016Y-2744D01*
X17724Y-3035D01*
X17566Y-3415D01*
X17566Y-3827D01*
X17723Y-4207D01*
X18014Y-4498D01*
X18394Y-4656D01*
X18806Y-4657D01*
X19187Y-4499D01*
X19478Y-4209D01*
X19636Y-3828D01*
X19636Y-3417D01*
X19636Y-4096D01*
X19508Y-4225D01*
X19401Y-4482D01*
X19401Y-4760D01*
X19507Y-5018D01*
X19704Y-5215D01*
X19896Y-5294D01*
X19896Y-5647D01*
X19839Y-5704D01*
X19801Y-5796D01*
X19801Y-5895D01*
X19801Y-6252D01*
X18698Y-6252D01*
X18274Y-5827D01*
X18301Y-5761D01*
X18301Y-5483D01*
X18195Y-5226D01*
X17998Y-5028D01*
X17741Y-4922D01*
X17462Y-4921D01*
X17205Y-5028D01*
X17186Y-5047D01*
X17186Y-3506D01*
X17097Y-3291D01*
X16933Y-3126D01*
X16718Y-3037D01*
X16485Y-3036D01*
X16270Y-3125D01*
X16105Y-3290D01*
X16016Y-3505D01*
X16016Y-3737D01*
X16105Y-3952D01*
X16269Y-4117D01*
X16484Y-4206D01*
X16717Y-4207D01*
X16932Y-4118D01*
X17097Y-3953D01*
X17186Y-3738D01*
X17186Y-3506D01*
X17186Y-5047D01*
X17008Y-5225D01*
X16901Y-5482D01*
X16901Y-5760D01*
X17007Y-6018D01*
X17204Y-6215D01*
X17461Y-6321D01*
X17740Y-6322D01*
X17807Y-6294D01*
X18328Y-6816D01*
X18435Y-6887D01*
X18435Y-6887D01*
X18562Y-6912D01*
X18576Y-6912D01*
X18536Y-7008D01*
X18536Y-7232D01*
X18622Y-7440D01*
X18781Y-7599D01*
X18988Y-7685D01*
X19213Y-7686D01*
X19421Y-7600D01*
X19580Y-7441D01*
X19666Y-7233D01*
X19666Y-7009D01*
X19626Y-6912D01*
X20453Y-6912D01*
X20579Y-6887D01*
X20579Y-6887D01*
X20687Y-6816D01*
X20731Y-6771D01*
X20743Y-6789D01*
X20785Y-6831D01*
X20785Y-10563D01*
X20718Y-10536D01*
X20485Y-10535D01*
X20270Y-10624D01*
X20105Y-10789D01*
X20016Y-11004D01*
X20016Y-11236D01*
X20092Y-11421D01*
X19962Y-11420D01*
X19705Y-11527D01*
X19636Y-11595D01*
X19636Y-10916D01*
X19479Y-10535D01*
X19188Y-10244D01*
X18808Y-10086D01*
X18396Y-10085D01*
X18016Y-10243D01*
X17724Y-10534D01*
X17566Y-10914D01*
X17566Y-11326D01*
X17723Y-11706D01*
X18014Y-11997D01*
X18394Y-12155D01*
X18806Y-12156D01*
X19187Y-11999D01*
X19478Y-11708D01*
X19636Y-11327D01*
X19636Y-10916D01*
X19636Y-11595D01*
X19508Y-11724D01*
X19401Y-11981D01*
X19401Y-12259D01*
X19507Y-12517D01*
X19704Y-12714D01*
X19771Y-12741D01*
X19771Y-13060D01*
X19796Y-13187D01*
X19827Y-13233D01*
X19801Y-13296D01*
X19801Y-13395D01*
X19801Y-13945D01*
X19839Y-14037D01*
X19909Y-14107D01*
X20001Y-14146D01*
X20101Y-14146D01*
X20451Y-14146D01*
X20543Y-14108D01*
X20601Y-14049D01*
X20656Y-14104D01*
X20671Y-14182D01*
X20743Y-14289D01*
X20874Y-14421D01*
X20874Y-15595D01*
X20844Y-15595D01*
X20795Y-15521D01*
X20795Y-15521D01*
X20726Y-15452D01*
X20619Y-15380D01*
X20492Y-15355D01*
X16927Y-15355D01*
X16801Y-15380D01*
X16694Y-15452D01*
X14217Y-17928D01*
X14148Y-17928D01*
X13984Y-17996D01*
X13929Y-18051D01*
X13929Y-16898D01*
X14154Y-16898D01*
X14280Y-16873D01*
X14280Y-16873D01*
X14387Y-16801D01*
X17395Y-13793D01*
X17461Y-13820D01*
X17740Y-13821D01*
X17997Y-13714D01*
X18194Y-13518D01*
X18301Y-13260D01*
X18301Y-12982D01*
X18195Y-12725D01*
X17998Y-12527D01*
X17741Y-12421D01*
X17462Y-12420D01*
X17205Y-12527D01*
X17186Y-12546D01*
X17186Y-11005D01*
X17097Y-10790D01*
X16933Y-10625D01*
X16718Y-10536D01*
X16485Y-10535D01*
X16270Y-10624D01*
X16105Y-10789D01*
X16086Y-10837D01*
X16086Y-5282D01*
X16086Y-3963D01*
X16048Y-3871D01*
X15977Y-3800D01*
X15885Y-3762D01*
X15786Y-3762D01*
X15751Y-3762D01*
X15689Y-3825D01*
X15689Y-4573D01*
X16023Y-4573D01*
X16086Y-4510D01*
X16086Y-3963D01*
X16086Y-5282D01*
X16086Y-4735D01*
X16023Y-4673D01*
X15689Y-4673D01*
X15689Y-5420D01*
X15751Y-5483D01*
X15786Y-5483D01*
X15885Y-5483D01*
X15977Y-5445D01*
X16048Y-5374D01*
X16086Y-5282D01*
X16086Y-10837D01*
X16016Y-11004D01*
X16016Y-11236D01*
X16105Y-11452D01*
X16269Y-11616D01*
X16484Y-11705D01*
X16717Y-11706D01*
X16932Y-11617D01*
X17097Y-11452D01*
X17186Y-11237D01*
X17186Y-11005D01*
X17186Y-12546D01*
X17008Y-12724D01*
X16901Y-12981D01*
X16901Y-13259D01*
X16929Y-13326D01*
X15589Y-14666D01*
X15589Y-5420D01*
X15589Y-4673D01*
X15589Y-4573D01*
X15589Y-3825D01*
X15526Y-3762D01*
X15491Y-3762D01*
X15392Y-3762D01*
X15300Y-3800D01*
X15230Y-3871D01*
X15192Y-3963D01*
X15192Y-4510D01*
X15254Y-4573D01*
X15589Y-4573D01*
X15589Y-4673D01*
X15254Y-4673D01*
X15192Y-4735D01*
X15192Y-5282D01*
X15230Y-5374D01*
X15300Y-5445D01*
X15392Y-5483D01*
X15491Y-5483D01*
X15526Y-5483D01*
X15589Y-5420D01*
X15589Y-14666D01*
X15166Y-15089D01*
X15166Y-7009D01*
X15080Y-6801D01*
X14921Y-6642D01*
X14714Y-6556D01*
X14489Y-6556D01*
X14281Y-6641D01*
X14122Y-6800D01*
X14036Y-7008D01*
X14036Y-7232D01*
X14122Y-7440D01*
X14280Y-7599D01*
X14488Y-7685D01*
X14713Y-7686D01*
X14920Y-7600D01*
X15080Y-7441D01*
X15166Y-7233D01*
X15166Y-7009D01*
X15166Y-15089D01*
X14573Y-15682D01*
X14482Y-15591D01*
X14318Y-15523D01*
X14140Y-15522D01*
X13976Y-15590D01*
X13927Y-15639D01*
X13806Y-15639D01*
X13806Y-14094D01*
X13863Y-14037D01*
X13901Y-13946D01*
X13901Y-13846D01*
X13901Y-13296D01*
X13875Y-13234D01*
X13910Y-13183D01*
X13910Y-13183D01*
X13935Y-13057D01*
X13935Y-13057D01*
X13935Y-6685D01*
X13935Y-6685D01*
X13910Y-6558D01*
X13910Y-6558D01*
X13875Y-6507D01*
X13901Y-6446D01*
X13901Y-6346D01*
X13901Y-5796D01*
X13871Y-5723D01*
X14064Y-5723D01*
X14190Y-5698D01*
X14297Y-5626D01*
X14369Y-5519D01*
X14382Y-5453D01*
X14402Y-5445D01*
X14472Y-5375D01*
X14510Y-5283D01*
X14511Y-5183D01*
X14511Y-3963D01*
X14473Y-3871D01*
X14402Y-3800D01*
X14310Y-3762D01*
X14211Y-3762D01*
X13817Y-3762D01*
X13725Y-3800D01*
X13655Y-3870D01*
X13617Y-3962D01*
X13617Y-4062D01*
X13617Y-5063D01*
X13500Y-5063D01*
X13374Y-5088D01*
X13267Y-5160D01*
X13267Y-5160D01*
X12965Y-5461D01*
X12965Y-5461D01*
X12959Y-5452D01*
X12959Y-5452D01*
X12931Y-5424D01*
X12931Y-5242D01*
X12997Y-5214D01*
X13194Y-5018D01*
X13301Y-4760D01*
X13301Y-4482D01*
X13195Y-4225D01*
X13176Y-4206D01*
X13217Y-4206D01*
X13432Y-4117D01*
X13597Y-3952D01*
X13686Y-3737D01*
X13686Y-3505D01*
X13597Y-3290D01*
X13433Y-3125D01*
X13218Y-3036D01*
X12985Y-3035D01*
X12770Y-3124D01*
X12605Y-3289D01*
X12516Y-3504D01*
X12516Y-3736D01*
X12592Y-3921D01*
X12462Y-3920D01*
X12205Y-4027D01*
X12136Y-4095D01*
X12136Y-3416D01*
X11979Y-3035D01*
X11688Y-2744D01*
X11308Y-2586D01*
X10896Y-2585D01*
X10515Y-2743D01*
X10224Y-3034D01*
X10066Y-3414D01*
X10066Y-3826D01*
X10223Y-4206D01*
X10514Y-4497D01*
X10894Y-4655D01*
X11306Y-4656D01*
X11686Y-4499D01*
X11978Y-4208D01*
X12136Y-3827D01*
X12136Y-3416D01*
X12136Y-4095D01*
X12008Y-4224D01*
X11901Y-4481D01*
X11901Y-4759D01*
X12007Y-5017D01*
X12204Y-5214D01*
X12271Y-5241D01*
X12271Y-5560D01*
X12296Y-5687D01*
X12327Y-5733D01*
X12301Y-5796D01*
X12301Y-5895D01*
X12301Y-6445D01*
X12314Y-6478D01*
X10589Y-4753D01*
X10482Y-4681D01*
X10356Y-4656D01*
X9870Y-4656D01*
X9744Y-4681D01*
X9637Y-4753D01*
X8849Y-5541D01*
X8789Y-5630D01*
X8768Y-5609D01*
X8681Y-5573D01*
X8681Y-4507D01*
X8656Y-4381D01*
X8656Y-4381D01*
X8584Y-4274D01*
X8143Y-3833D01*
X8143Y-2892D01*
X8143Y-2499D01*
X7844Y-2499D01*
X7844Y-3124D01*
X7897Y-3175D01*
X8006Y-3124D01*
X8098Y-3022D01*
X8143Y-2892D01*
X8143Y-3833D01*
X7510Y-3199D01*
X7613Y-3179D01*
X7649Y-3155D01*
X7692Y-3175D01*
X7746Y-3124D01*
X7746Y-3074D01*
X7802Y-2990D01*
X7828Y-2857D01*
X7828Y-2391D01*
X7844Y-2391D01*
X7844Y-2399D01*
X8143Y-2399D01*
X8143Y-2005D01*
X8123Y-1947D01*
X8273Y-1885D01*
X8393Y-1765D01*
X8454Y-1619D01*
X8471Y-1661D01*
X8450Y-1710D01*
X8450Y-1809D01*
X8450Y-3187D01*
X8488Y-3279D01*
X8559Y-3350D01*
X8577Y-3357D01*
X8516Y-3504D01*
X8516Y-3736D01*
X8605Y-3952D01*
X8769Y-4116D01*
X8984Y-4205D01*
X9217Y-4206D01*
X9432Y-4117D01*
X9597Y-3952D01*
X9686Y-3737D01*
X9686Y-3505D01*
X9626Y-3359D01*
X9649Y-3350D01*
X9719Y-3279D01*
X9757Y-3188D01*
X9757Y-3088D01*
X9757Y-1710D01*
X9737Y-1661D01*
X9757Y-1612D01*
X9757Y-1513D01*
X9757Y-240D01*
X28923Y-240D01*
X28899Y-313D01*
X28911Y-491D01*
X28955Y-596D01*
X29040Y-611D01*
X29280Y-371D01*
X29274Y-365D01*
X29345Y-294D01*
X29351Y-300D01*
X29356Y-294D01*
X29427Y-365D01*
X29421Y-371D01*
X29427Y-376D01*
X29356Y-447D01*
X29351Y-441D01*
X29110Y-682D01*
X29125Y-766D01*
X29294Y-823D01*
X29431Y-813D01*
X29431Y-9549D01*
G54D10*
G36*
X29431Y-43926D02*
X29408Y-43918D01*
X29230Y-43931D01*
X29125Y-43975D01*
X29110Y-44059D01*
X29351Y-44300D01*
X29356Y-44294D01*
X29427Y-44365D01*
X29421Y-44370D01*
X29427Y-44376D01*
X29356Y-44447D01*
X29351Y-44441D01*
X29345Y-44447D01*
X29274Y-44376D01*
X29280Y-44370D01*
X29040Y-44130D01*
X28955Y-44145D01*
X28899Y-44313D01*
X28908Y-44451D01*
X25801Y-44451D01*
X25801Y-42982D01*
X25695Y-42724D01*
X25498Y-42527D01*
X25241Y-42420D01*
X24962Y-42420D01*
X24705Y-42527D01*
X24686Y-42545D01*
X24686Y-41005D01*
X24597Y-40789D01*
X24433Y-40625D01*
X24218Y-40535D01*
X23985Y-40535D01*
X23886Y-40576D01*
X23886Y-34365D01*
X23729Y-33985D01*
X23438Y-33693D01*
X23058Y-33536D01*
X22646Y-33535D01*
X22266Y-33692D01*
X21974Y-33983D01*
X21816Y-34364D01*
X21816Y-34775D01*
X21973Y-35156D01*
X22264Y-35447D01*
X22644Y-35605D01*
X23056Y-35606D01*
X23437Y-35448D01*
X23728Y-35157D01*
X23886Y-34777D01*
X23886Y-34365D01*
X23886Y-40576D01*
X23770Y-40624D01*
X23605Y-40789D01*
X23516Y-41003D01*
X23516Y-41236D01*
X23605Y-41451D01*
X23769Y-41616D01*
X23984Y-41705D01*
X24217Y-41705D01*
X24432Y-41617D01*
X24597Y-41452D01*
X24686Y-41237D01*
X24686Y-41005D01*
X24686Y-42545D01*
X24508Y-42723D01*
X24401Y-42981D01*
X24401Y-43259D01*
X24507Y-43516D01*
X24704Y-43713D01*
X24961Y-43820D01*
X25240Y-43820D01*
X25497Y-43714D01*
X25694Y-43517D01*
X25801Y-43260D01*
X25801Y-42982D01*
X25801Y-44451D01*
X18301Y-44451D01*
X18301Y-42982D01*
X18195Y-42724D01*
X17998Y-42527D01*
X17741Y-42420D01*
X17462Y-42420D01*
X17205Y-42527D01*
X17186Y-42545D01*
X17186Y-41005D01*
X17097Y-40789D01*
X16933Y-40625D01*
X16718Y-40535D01*
X16485Y-40535D01*
X16270Y-40624D01*
X16105Y-40789D01*
X16016Y-41003D01*
X16016Y-41236D01*
X16105Y-41451D01*
X16269Y-41616D01*
X16484Y-41705D01*
X16717Y-41705D01*
X16932Y-41617D01*
X17097Y-41452D01*
X17186Y-41237D01*
X17186Y-41005D01*
X17186Y-42545D01*
X17008Y-42723D01*
X16901Y-42981D01*
X16901Y-43259D01*
X17007Y-43516D01*
X17204Y-43713D01*
X17461Y-43820D01*
X17740Y-43820D01*
X17997Y-43714D01*
X18194Y-43517D01*
X18301Y-43260D01*
X18301Y-42982D01*
X18301Y-44451D01*
X10801Y-44451D01*
X10801Y-42982D01*
X10695Y-42724D01*
X10498Y-42527D01*
X10241Y-42420D01*
X9962Y-42420D01*
X9705Y-42527D01*
X9686Y-42545D01*
X9686Y-41005D01*
X9597Y-40789D01*
X9433Y-40625D01*
X9218Y-40535D01*
X8985Y-40535D01*
X8770Y-40624D01*
X8605Y-40789D01*
X8516Y-41003D01*
X8516Y-41236D01*
X8605Y-41451D01*
X8769Y-41616D01*
X8984Y-41705D01*
X9217Y-41705D01*
X9432Y-41617D01*
X9597Y-41452D01*
X9686Y-41237D01*
X9686Y-41005D01*
X9686Y-42545D01*
X9508Y-42723D01*
X9401Y-42981D01*
X9401Y-43259D01*
X9507Y-43516D01*
X9704Y-43713D01*
X9961Y-43820D01*
X10240Y-43820D01*
X10497Y-43714D01*
X10694Y-43517D01*
X10801Y-43260D01*
X10801Y-42982D01*
X10801Y-44451D01*
X3301Y-44451D01*
X3301Y-42982D01*
X3195Y-42724D01*
X2998Y-42527D01*
X2741Y-42420D01*
X2462Y-42420D01*
X2205Y-42527D01*
X2186Y-42545D01*
X2186Y-41005D01*
X2097Y-40789D01*
X1933Y-40625D01*
X1718Y-40535D01*
X1485Y-40535D01*
X1270Y-40624D01*
X1105Y-40789D01*
X1016Y-41003D01*
X1016Y-41236D01*
X1105Y-41451D01*
X1269Y-41616D01*
X1484Y-41705D01*
X1717Y-41705D01*
X1932Y-41617D01*
X2097Y-41452D01*
X2186Y-41237D01*
X2186Y-41005D01*
X2186Y-42545D01*
X2008Y-42723D01*
X1901Y-42981D01*
X1901Y-43259D01*
X2007Y-43516D01*
X2204Y-43713D01*
X2461Y-43820D01*
X2740Y-43820D01*
X2997Y-43714D01*
X3194Y-43517D01*
X3301Y-43260D01*
X3301Y-42982D01*
X3301Y-44451D01*
X795Y-44451D01*
X803Y-44427D01*
X790Y-44250D01*
X747Y-44145D01*
X662Y-44130D01*
X422Y-44370D01*
X427Y-44376D01*
X356Y-44447D01*
X351Y-44441D01*
X345Y-44447D01*
X275Y-44376D01*
X280Y-44370D01*
X275Y-44365D01*
X345Y-44294D01*
X351Y-44300D01*
X591Y-44059D01*
X577Y-43975D01*
X408Y-43918D01*
X270Y-43928D01*
X270Y-23478D01*
X1601Y-23478D01*
X2074Y-23385D01*
X2373Y-23185D01*
X2373Y-25039D01*
X2049Y-25362D01*
X1978Y-25469D01*
X1953Y-25595D01*
X1953Y-25645D01*
X1933Y-25625D01*
X1718Y-25535D01*
X1485Y-25535D01*
X1270Y-25624D01*
X1105Y-25789D01*
X1016Y-26003D01*
X1016Y-26236D01*
X1105Y-26451D01*
X1269Y-26616D01*
X1484Y-26705D01*
X1717Y-26705D01*
X1866Y-26644D01*
X1739Y-26771D01*
X1667Y-26878D01*
X1642Y-27004D01*
X1642Y-28395D01*
X1667Y-28521D01*
X1739Y-28628D01*
X2399Y-29289D01*
X2506Y-29360D01*
X2506Y-29360D01*
X2633Y-29385D01*
X5769Y-29385D01*
X5769Y-33057D01*
X5718Y-33035D01*
X5485Y-33035D01*
X5270Y-33124D01*
X5105Y-33289D01*
X5016Y-33503D01*
X5016Y-33736D01*
X5092Y-33920D01*
X4962Y-33920D01*
X4705Y-34027D01*
X4636Y-34095D01*
X4636Y-33415D01*
X4479Y-33035D01*
X4188Y-32743D01*
X3808Y-32586D01*
X3396Y-32585D01*
X3015Y-32742D01*
X2724Y-33033D01*
X2566Y-33414D01*
X2566Y-33825D01*
X2723Y-34206D01*
X3014Y-34497D01*
X3394Y-34655D01*
X3806Y-34656D01*
X4186Y-34498D01*
X4478Y-34207D01*
X4636Y-33827D01*
X4636Y-33415D01*
X4636Y-34095D01*
X4508Y-34223D01*
X4401Y-34481D01*
X4401Y-34759D01*
X4507Y-35016D01*
X4704Y-35213D01*
X4896Y-35293D01*
X4896Y-35647D01*
X4839Y-35704D01*
X4801Y-35795D01*
X4801Y-35895D01*
X4801Y-36225D01*
X3673Y-36225D01*
X3273Y-35826D01*
X3301Y-35760D01*
X3301Y-35482D01*
X3195Y-35224D01*
X2998Y-35027D01*
X2741Y-34920D01*
X2462Y-34920D01*
X2205Y-35027D01*
X2186Y-35045D01*
X2186Y-33505D01*
X2097Y-33289D01*
X1933Y-33125D01*
X1718Y-33035D01*
X1485Y-33035D01*
X1270Y-33124D01*
X1105Y-33289D01*
X1016Y-33503D01*
X1016Y-33736D01*
X1105Y-33951D01*
X1269Y-34116D01*
X1484Y-34205D01*
X1717Y-34205D01*
X1932Y-34117D01*
X2097Y-33952D01*
X2186Y-33737D01*
X2186Y-33505D01*
X2186Y-35045D01*
X2008Y-35223D01*
X1901Y-35481D01*
X1901Y-35759D01*
X2007Y-36016D01*
X2204Y-36213D01*
X2461Y-36320D01*
X2740Y-36320D01*
X2807Y-36293D01*
X3303Y-36789D01*
X3410Y-36860D01*
X3410Y-36860D01*
X3536Y-36885D01*
X7866Y-36885D01*
X6078Y-38674D01*
X6006Y-38781D01*
X5981Y-38907D01*
X5981Y-40673D01*
X5933Y-40625D01*
X5718Y-40535D01*
X5485Y-40535D01*
X5270Y-40624D01*
X5105Y-40789D01*
X5016Y-41003D01*
X5016Y-41236D01*
X5092Y-41420D01*
X4962Y-41420D01*
X4705Y-41527D01*
X4636Y-41595D01*
X4636Y-40915D01*
X4479Y-40535D01*
X4188Y-40243D01*
X3808Y-40086D01*
X3396Y-40085D01*
X3015Y-40242D01*
X2724Y-40533D01*
X2566Y-40914D01*
X2566Y-41325D01*
X2723Y-41706D01*
X3014Y-41997D01*
X3394Y-42155D01*
X3806Y-42156D01*
X4186Y-41998D01*
X4478Y-41707D01*
X4636Y-41327D01*
X4636Y-40915D01*
X4636Y-41595D01*
X4508Y-41723D01*
X4401Y-41981D01*
X4401Y-42259D01*
X4507Y-42516D01*
X4704Y-42713D01*
X4896Y-42793D01*
X4896Y-43147D01*
X4839Y-43204D01*
X4801Y-43295D01*
X4801Y-43395D01*
X4801Y-43945D01*
X4839Y-44037D01*
X4909Y-44107D01*
X5001Y-44145D01*
X5100Y-44145D01*
X5450Y-44145D01*
X5542Y-44107D01*
X5601Y-44049D01*
X5659Y-44107D01*
X5751Y-44145D01*
X5850Y-44145D01*
X6200Y-44145D01*
X6292Y-44107D01*
X6363Y-44037D01*
X6401Y-43945D01*
X6401Y-43932D01*
X6437Y-43925D01*
X6544Y-43854D01*
X6616Y-43747D01*
X6641Y-43620D01*
X6641Y-39044D01*
X8055Y-37631D01*
X8088Y-37712D01*
X8258Y-37882D01*
X8480Y-37975D01*
X8721Y-37975D01*
X8943Y-37883D01*
X9101Y-37725D01*
X9258Y-37882D01*
X9480Y-37975D01*
X9721Y-37975D01*
X9943Y-37883D01*
X10101Y-37725D01*
X10258Y-37882D01*
X10480Y-37975D01*
X10721Y-37975D01*
X10943Y-37883D01*
X11101Y-37725D01*
X11258Y-37882D01*
X11480Y-37975D01*
X11721Y-37975D01*
X11943Y-37883D01*
X12101Y-37725D01*
X12258Y-37882D01*
X12480Y-37975D01*
X12721Y-37975D01*
X12943Y-37883D01*
X13113Y-37713D01*
X13117Y-37705D01*
X13176Y-37725D01*
X13530Y-37370D01*
X13176Y-37016D01*
X13117Y-37036D01*
X13114Y-37028D01*
X12944Y-36858D01*
X12931Y-36853D01*
X12931Y-36685D01*
X12923Y-36645D01*
X12950Y-36645D01*
X13042Y-36607D01*
X13101Y-36549D01*
X13159Y-36607D01*
X13251Y-36645D01*
X13350Y-36645D01*
X13643Y-36645D01*
X13789Y-36791D01*
X13789Y-36796D01*
X13696Y-36762D01*
X13456Y-36772D01*
X13281Y-36844D01*
X13247Y-36945D01*
X13601Y-37300D01*
X13607Y-37294D01*
X13677Y-37365D01*
X13672Y-37370D01*
X13677Y-37376D01*
X13607Y-37447D01*
X13601Y-37441D01*
X13247Y-37796D01*
X13281Y-37897D01*
X13506Y-37979D01*
X13747Y-37969D01*
X13789Y-37952D01*
X13789Y-43132D01*
X13701Y-43095D01*
X13601Y-43095D01*
X13251Y-43095D01*
X13159Y-43133D01*
X13101Y-43192D01*
X13056Y-43147D01*
X13056Y-42655D01*
X13194Y-42517D01*
X13301Y-42260D01*
X13301Y-41982D01*
X13195Y-41724D01*
X13176Y-41705D01*
X13217Y-41705D01*
X13432Y-41617D01*
X13597Y-41452D01*
X13686Y-41237D01*
X13686Y-41005D01*
X13597Y-40789D01*
X13433Y-40625D01*
X13218Y-40535D01*
X12985Y-40535D01*
X12770Y-40624D01*
X12605Y-40789D01*
X12516Y-41003D01*
X12516Y-41236D01*
X12592Y-41420D01*
X12462Y-41420D01*
X12205Y-41527D01*
X12136Y-41595D01*
X12136Y-40915D01*
X11979Y-40535D01*
X11688Y-40243D01*
X11308Y-40086D01*
X10896Y-40085D01*
X10515Y-40242D01*
X10224Y-40533D01*
X10066Y-40914D01*
X10066Y-41325D01*
X10223Y-41706D01*
X10514Y-41997D01*
X10894Y-42155D01*
X11306Y-42156D01*
X11686Y-41998D01*
X11978Y-41707D01*
X12136Y-41327D01*
X12136Y-40915D01*
X12136Y-41595D01*
X12008Y-41723D01*
X11901Y-41981D01*
X11901Y-42259D01*
X12007Y-42516D01*
X12204Y-42713D01*
X12396Y-42793D01*
X12396Y-43147D01*
X12339Y-43204D01*
X12301Y-43295D01*
X12301Y-43395D01*
X12301Y-43945D01*
X12339Y-44037D01*
X12409Y-44107D01*
X12501Y-44145D01*
X12600Y-44145D01*
X12950Y-44145D01*
X13042Y-44107D01*
X13101Y-44049D01*
X13159Y-44107D01*
X13251Y-44145D01*
X13350Y-44145D01*
X13700Y-44145D01*
X13792Y-44107D01*
X13863Y-44037D01*
X13901Y-43945D01*
X13901Y-43932D01*
X13937Y-43925D01*
X13937Y-43925D01*
X14044Y-43854D01*
X14352Y-43546D01*
X14424Y-43439D01*
X14424Y-43439D01*
X14449Y-43313D01*
X14449Y-36655D01*
X14449Y-36654D01*
X14449Y-36654D01*
X14444Y-36629D01*
X14424Y-36528D01*
X14424Y-36528D01*
X14352Y-36421D01*
X14352Y-36421D01*
X13901Y-35970D01*
X13901Y-35796D01*
X13874Y-35732D01*
X13903Y-35690D01*
X13903Y-35690D01*
X13928Y-35563D01*
X13928Y-29177D01*
X13903Y-29051D01*
X13903Y-29051D01*
X13874Y-29009D01*
X13899Y-28950D01*
X14811Y-28950D01*
X14937Y-28925D01*
X14937Y-28925D01*
X15044Y-28854D01*
X15455Y-28442D01*
X15524Y-28442D01*
X15688Y-28374D01*
X15814Y-28249D01*
X15859Y-28140D01*
X16015Y-28205D01*
X16193Y-28205D01*
X16357Y-28137D01*
X16483Y-28011D01*
X16551Y-27847D01*
X16552Y-27728D01*
X16742Y-27728D01*
X16929Y-27915D01*
X16901Y-27981D01*
X16901Y-28259D01*
X17007Y-28516D01*
X17204Y-28713D01*
X17461Y-28820D01*
X17740Y-28820D01*
X17997Y-28714D01*
X18194Y-28517D01*
X18301Y-28260D01*
X18301Y-27982D01*
X18195Y-27724D01*
X17998Y-27527D01*
X17741Y-27420D01*
X17462Y-27420D01*
X17395Y-27448D01*
X17355Y-27408D01*
X19008Y-27408D01*
X19135Y-27383D01*
X19135Y-27383D01*
X19242Y-27311D01*
X19401Y-27152D01*
X19401Y-27259D01*
X19507Y-27516D01*
X19704Y-27713D01*
X19771Y-27741D01*
X19771Y-28160D01*
X19773Y-28170D01*
X19739Y-28204D01*
X19701Y-28295D01*
X19701Y-28395D01*
X19701Y-28945D01*
X19739Y-29037D01*
X19809Y-29107D01*
X19901Y-29145D01*
X20001Y-29145D01*
X20351Y-29145D01*
X20443Y-29107D01*
X20501Y-29049D01*
X20556Y-29104D01*
X20571Y-29182D01*
X20643Y-29289D01*
X20770Y-29416D01*
X20770Y-33057D01*
X20718Y-33035D01*
X20485Y-33035D01*
X20270Y-33124D01*
X20105Y-33289D01*
X20016Y-33503D01*
X20016Y-33736D01*
X20092Y-33920D01*
X19962Y-33920D01*
X19705Y-34027D01*
X19636Y-34095D01*
X19636Y-33415D01*
X19479Y-33035D01*
X19188Y-32743D01*
X18808Y-32586D01*
X18396Y-32585D01*
X18016Y-32742D01*
X17724Y-33033D01*
X17566Y-33414D01*
X17566Y-33825D01*
X17723Y-34206D01*
X18014Y-34497D01*
X18394Y-34655D01*
X18806Y-34656D01*
X19187Y-34498D01*
X19478Y-34207D01*
X19636Y-33827D01*
X19636Y-33415D01*
X19636Y-34095D01*
X19508Y-34223D01*
X19401Y-34481D01*
X19401Y-34759D01*
X19507Y-35016D01*
X19704Y-35213D01*
X19896Y-35293D01*
X19896Y-35647D01*
X19839Y-35704D01*
X19801Y-35795D01*
X19801Y-35895D01*
X19801Y-36445D01*
X19839Y-36537D01*
X19909Y-36607D01*
X20001Y-36645D01*
X20101Y-36645D01*
X20451Y-36645D01*
X20543Y-36607D01*
X20601Y-36549D01*
X20656Y-36604D01*
X20671Y-36682D01*
X20743Y-36789D01*
X20769Y-36815D01*
X20769Y-40557D01*
X20718Y-40535D01*
X20485Y-40535D01*
X20270Y-40624D01*
X20105Y-40789D01*
X20016Y-41003D01*
X20016Y-41236D01*
X20092Y-41420D01*
X19962Y-41420D01*
X19705Y-41527D01*
X19636Y-41595D01*
X19636Y-40915D01*
X19479Y-40535D01*
X19188Y-40243D01*
X18808Y-40086D01*
X18396Y-40085D01*
X18301Y-40124D01*
X18301Y-35482D01*
X18195Y-35224D01*
X17998Y-35027D01*
X17741Y-34920D01*
X17462Y-34920D01*
X17205Y-35027D01*
X17186Y-35045D01*
X17186Y-33505D01*
X17097Y-33289D01*
X16933Y-33125D01*
X16718Y-33035D01*
X16485Y-33035D01*
X16270Y-33124D01*
X16105Y-33289D01*
X16016Y-33503D01*
X16016Y-33736D01*
X16105Y-33951D01*
X16269Y-34116D01*
X16484Y-34205D01*
X16717Y-34205D01*
X16932Y-34117D01*
X17097Y-33952D01*
X17186Y-33737D01*
X17186Y-33505D01*
X17186Y-35045D01*
X17008Y-35223D01*
X16901Y-35481D01*
X16901Y-35759D01*
X17007Y-36016D01*
X17204Y-36213D01*
X17461Y-36320D01*
X17740Y-36320D01*
X17997Y-36214D01*
X18194Y-36017D01*
X18301Y-35760D01*
X18301Y-35482D01*
X18301Y-40124D01*
X18016Y-40242D01*
X17724Y-40533D01*
X17566Y-40914D01*
X17566Y-41325D01*
X17723Y-41706D01*
X18014Y-41997D01*
X18394Y-42155D01*
X18806Y-42156D01*
X19187Y-41998D01*
X19478Y-41707D01*
X19636Y-41327D01*
X19636Y-40915D01*
X19636Y-41595D01*
X19508Y-41723D01*
X19401Y-41981D01*
X19401Y-42259D01*
X19507Y-42516D01*
X19704Y-42713D01*
X19771Y-42741D01*
X19771Y-43060D01*
X19796Y-43187D01*
X19827Y-43233D01*
X19801Y-43295D01*
X19801Y-43395D01*
X19801Y-43945D01*
X19839Y-44037D01*
X19909Y-44107D01*
X20001Y-44145D01*
X20101Y-44145D01*
X20451Y-44145D01*
X20543Y-44107D01*
X20601Y-44049D01*
X20659Y-44107D01*
X20751Y-44145D01*
X20851Y-44145D01*
X21201Y-44145D01*
X21293Y-44107D01*
X21363Y-44037D01*
X21401Y-43945D01*
X21401Y-43846D01*
X21401Y-43296D01*
X21375Y-43232D01*
X21375Y-43232D01*
X21404Y-43188D01*
X21404Y-43188D01*
X21429Y-43062D01*
X21429Y-36679D01*
X21404Y-36552D01*
X21404Y-36552D01*
X21375Y-36508D01*
X21401Y-36445D01*
X21401Y-36346D01*
X21401Y-35796D01*
X21375Y-35732D01*
X21405Y-35688D01*
X21405Y-35688D01*
X21425Y-35587D01*
X21430Y-35561D01*
X21430Y-35561D01*
X21430Y-35561D01*
X21430Y-29279D01*
X21430Y-29279D01*
X21405Y-29153D01*
X21405Y-29153D01*
X21333Y-29046D01*
X21333Y-29046D01*
X21281Y-28994D01*
X21301Y-28945D01*
X21301Y-28846D01*
X21301Y-28296D01*
X21281Y-28247D01*
X21336Y-28192D01*
X21336Y-28192D01*
X21336Y-28192D01*
X21407Y-28085D01*
X21407Y-28085D01*
X21427Y-27984D01*
X21432Y-27959D01*
X21432Y-27959D01*
X21432Y-27959D01*
X21432Y-25740D01*
X21484Y-25688D01*
X21553Y-25688D01*
X21717Y-25621D01*
X21843Y-25495D01*
X21854Y-25468D01*
X21973Y-25756D01*
X22264Y-26047D01*
X22644Y-26205D01*
X23056Y-26206D01*
X23437Y-26048D01*
X23728Y-25757D01*
X23886Y-25377D01*
X23886Y-24965D01*
X23729Y-24585D01*
X23699Y-24555D01*
X24098Y-24555D01*
X24125Y-24574D01*
X24125Y-24574D01*
X24226Y-24594D01*
X24252Y-24599D01*
X24252Y-24599D01*
X24252Y-24599D01*
X24871Y-24599D01*
X25507Y-24599D01*
X25634Y-24574D01*
X25634Y-24574D01*
X25741Y-24502D01*
X26259Y-23983D01*
X26331Y-23876D01*
X26331Y-23876D01*
X26356Y-23750D01*
X26356Y-23694D01*
X26401Y-23649D01*
X26460Y-23707D01*
X26552Y-23745D01*
X26664Y-23745D01*
X26726Y-23683D01*
X26726Y-23270D01*
X26718Y-23270D01*
X26718Y-23170D01*
X26726Y-23170D01*
X26726Y-22758D01*
X26664Y-22695D01*
X26552Y-22695D01*
X26460Y-22733D01*
X26401Y-22792D01*
X26343Y-22734D01*
X26251Y-22695D01*
X26152Y-22695D01*
X25802Y-22695D01*
X25710Y-22733D01*
X25693Y-22750D01*
X25693Y-22703D01*
X25630Y-22703D01*
X25693Y-22641D01*
X25693Y-22428D01*
X25655Y-22336D01*
X25639Y-22320D01*
X25654Y-22305D01*
X25693Y-22213D01*
X25693Y-22113D01*
X25693Y-22090D01*
X25709Y-22107D01*
X25801Y-22145D01*
X25901Y-22145D01*
X26251Y-22145D01*
X26343Y-22107D01*
X26401Y-22049D01*
X26460Y-22107D01*
X26552Y-22145D01*
X26664Y-22145D01*
X26726Y-22083D01*
X26726Y-21670D01*
X26718Y-21670D01*
X26718Y-21570D01*
X26726Y-21570D01*
X26726Y-21158D01*
X26664Y-21095D01*
X26552Y-21095D01*
X26460Y-21133D01*
X26401Y-21192D01*
X26343Y-21134D01*
X26251Y-21095D01*
X26152Y-21095D01*
X25802Y-21095D01*
X25710Y-21133D01*
X25639Y-21204D01*
X25603Y-21290D01*
X25452Y-21290D01*
X25452Y-21234D01*
X25384Y-21070D01*
X25259Y-20944D01*
X25095Y-20876D01*
X24917Y-20876D01*
X24752Y-20943D01*
X24627Y-21069D01*
X24559Y-21233D01*
X24558Y-21362D01*
X24536Y-21362D01*
X24536Y-21424D01*
X24474Y-21362D01*
X24409Y-21362D01*
X24310Y-21362D01*
X24218Y-21400D01*
X24148Y-21470D01*
X24142Y-21483D01*
X24093Y-21433D01*
X24001Y-21395D01*
X23889Y-21395D01*
X23826Y-21458D01*
X23826Y-21870D01*
X24139Y-21870D01*
X24172Y-21837D01*
X24172Y-21837D01*
X24536Y-21837D01*
X24536Y-21829D01*
X24636Y-21829D01*
X24636Y-21837D01*
X24644Y-21837D01*
X24644Y-21937D01*
X24636Y-21937D01*
X24636Y-21945D01*
X24536Y-21945D01*
X24536Y-21937D01*
X24172Y-21937D01*
X24139Y-21971D01*
X24139Y-21970D01*
X23826Y-21970D01*
X23826Y-22383D01*
X23889Y-22445D01*
X24001Y-22445D01*
X24093Y-22407D01*
X24136Y-22364D01*
X24110Y-22428D01*
X24110Y-22527D01*
X24110Y-23078D01*
X24148Y-23170D01*
X24218Y-23241D01*
X24271Y-23263D01*
X24279Y-23305D01*
X24210Y-23333D01*
X24194Y-23349D01*
X23724Y-22878D01*
X23610Y-22803D01*
X23476Y-22776D01*
X23376Y-22776D01*
X23376Y-22375D01*
X23376Y-22374D01*
X23401Y-22349D01*
X23460Y-22407D01*
X23552Y-22445D01*
X23664Y-22445D01*
X23726Y-22383D01*
X23726Y-21970D01*
X23718Y-21970D01*
X23718Y-21870D01*
X23726Y-21870D01*
X23726Y-21458D01*
X23664Y-21395D01*
X23552Y-21395D01*
X23460Y-21433D01*
X23401Y-21492D01*
X23343Y-21434D01*
X23251Y-21395D01*
X23152Y-21395D01*
X22802Y-21395D01*
X22710Y-21433D01*
X22639Y-21504D01*
X22601Y-21595D01*
X22601Y-21695D01*
X22601Y-22245D01*
X22639Y-22337D01*
X22676Y-22374D01*
X22676Y-22375D01*
X22676Y-22776D01*
X18953Y-22776D01*
X18819Y-22803D01*
X18705Y-22878D01*
X18247Y-23336D01*
X18142Y-23266D01*
X18008Y-23239D01*
X17842Y-23239D01*
X17553Y-22950D01*
X17468Y-22893D01*
X17322Y-22748D01*
X17281Y-22720D01*
X17322Y-22693D01*
X17442Y-22573D01*
X20964Y-22573D01*
X21090Y-22548D01*
X21090Y-22548D01*
X21197Y-22476D01*
X22654Y-21020D01*
X23301Y-21020D01*
X23427Y-20995D01*
X23427Y-20995D01*
X23534Y-20923D01*
X24607Y-19850D01*
X25603Y-19850D01*
X25639Y-19937D01*
X25709Y-20007D01*
X25801Y-20045D01*
X25901Y-20045D01*
X26251Y-20045D01*
X26343Y-20007D01*
X26401Y-19949D01*
X26460Y-20007D01*
X26552Y-20045D01*
X26664Y-20045D01*
X26726Y-19983D01*
X26726Y-19570D01*
X26718Y-19570D01*
X26718Y-19470D01*
X26726Y-19470D01*
X26726Y-19058D01*
X26664Y-18995D01*
X26552Y-18995D01*
X26460Y-19033D01*
X26401Y-19092D01*
X26343Y-19034D01*
X26251Y-18995D01*
X26152Y-18995D01*
X25802Y-18995D01*
X25710Y-19033D01*
X25639Y-19104D01*
X25603Y-19190D01*
X24471Y-19190D01*
X24344Y-19215D01*
X24237Y-19287D01*
X24237Y-19287D01*
X24237Y-19287D01*
X23886Y-19638D01*
X23886Y-19365D01*
X23729Y-18985D01*
X23691Y-18947D01*
X27311Y-18947D01*
X27311Y-26095D01*
X27201Y-26095D01*
X27201Y-23446D01*
X27201Y-22995D01*
X27201Y-21846D01*
X27201Y-21395D01*
X27201Y-19746D01*
X27201Y-19295D01*
X27201Y-19195D01*
X27163Y-19104D01*
X27093Y-19033D01*
X27001Y-18995D01*
X26889Y-18995D01*
X26826Y-19058D01*
X26826Y-19470D01*
X27139Y-19470D01*
X27201Y-19408D01*
X27201Y-19295D01*
X27201Y-19746D01*
X27201Y-19633D01*
X27139Y-19570D01*
X26826Y-19570D01*
X26826Y-19983D01*
X26889Y-20045D01*
X27001Y-20045D01*
X27093Y-20007D01*
X27163Y-19937D01*
X27201Y-19845D01*
X27201Y-19746D01*
X27201Y-21395D01*
X27201Y-21295D01*
X27163Y-21204D01*
X27093Y-21133D01*
X27001Y-21095D01*
X26889Y-21095D01*
X26826Y-21158D01*
X26826Y-21570D01*
X27139Y-21570D01*
X27201Y-21508D01*
X27201Y-21395D01*
X27201Y-21846D01*
X27201Y-21733D01*
X27139Y-21670D01*
X26826Y-21670D01*
X26826Y-22083D01*
X26889Y-22145D01*
X27001Y-22145D01*
X27093Y-22107D01*
X27163Y-22037D01*
X27201Y-21945D01*
X27201Y-21846D01*
X27201Y-22995D01*
X27201Y-22895D01*
X27163Y-22804D01*
X27093Y-22733D01*
X27001Y-22695D01*
X26889Y-22695D01*
X26826Y-22758D01*
X26826Y-23170D01*
X27139Y-23170D01*
X27201Y-23108D01*
X27201Y-22995D01*
X27201Y-23446D01*
X27201Y-23333D01*
X27139Y-23270D01*
X26826Y-23270D01*
X26826Y-23683D01*
X26889Y-23745D01*
X27001Y-23745D01*
X27093Y-23707D01*
X27163Y-23637D01*
X27201Y-23545D01*
X27201Y-23446D01*
X27201Y-26095D01*
X27002Y-26095D01*
X26910Y-26133D01*
X26839Y-26204D01*
X26801Y-26295D01*
X26801Y-26395D01*
X26801Y-26945D01*
X26839Y-27037D01*
X26896Y-27094D01*
X26896Y-27698D01*
X26705Y-27777D01*
X26686Y-27795D01*
X26686Y-27755D01*
X26597Y-27539D01*
X26433Y-27375D01*
X26218Y-27285D01*
X25985Y-27285D01*
X25770Y-27374D01*
X25605Y-27539D01*
X25516Y-27753D01*
X25516Y-27986D01*
X25605Y-28201D01*
X25769Y-28366D01*
X25984Y-28455D01*
X26217Y-28455D01*
X26401Y-28379D01*
X26401Y-28509D01*
X26507Y-28766D01*
X26704Y-28963D01*
X26961Y-29070D01*
X27240Y-29070D01*
X27479Y-28972D01*
X27479Y-30069D01*
X27247Y-30300D01*
X27176Y-30407D01*
X27151Y-30534D01*
X27151Y-39654D01*
X27176Y-39781D01*
X27247Y-39888D01*
X27921Y-40562D01*
X27770Y-40624D01*
X27605Y-40789D01*
X27516Y-41003D01*
X27516Y-41236D01*
X27592Y-41420D01*
X27462Y-41420D01*
X27205Y-41527D01*
X27136Y-41595D01*
X27136Y-40915D01*
X27136Y-29665D01*
X26979Y-29285D01*
X26688Y-28993D01*
X26308Y-28836D01*
X25896Y-28835D01*
X25516Y-28992D01*
X25224Y-29283D01*
X25066Y-29664D01*
X25066Y-30075D01*
X25223Y-30456D01*
X25514Y-30747D01*
X25894Y-30905D01*
X26306Y-30906D01*
X26687Y-30748D01*
X26978Y-30457D01*
X27136Y-30077D01*
X27136Y-29665D01*
X27136Y-40915D01*
X26979Y-40535D01*
X26688Y-40243D01*
X26686Y-40243D01*
X26686Y-31755D01*
X26597Y-31539D01*
X26433Y-31375D01*
X26218Y-31285D01*
X25985Y-31285D01*
X25770Y-31374D01*
X25605Y-31539D01*
X25516Y-31753D01*
X25516Y-31986D01*
X25605Y-32201D01*
X25769Y-32366D01*
X25984Y-32455D01*
X26217Y-32455D01*
X26432Y-32367D01*
X26597Y-32202D01*
X26686Y-31987D01*
X26686Y-31755D01*
X26686Y-40243D01*
X26308Y-40086D01*
X25896Y-40085D01*
X25516Y-40242D01*
X25224Y-40533D01*
X25066Y-40914D01*
X25066Y-41325D01*
X25223Y-41706D01*
X25514Y-41997D01*
X25894Y-42155D01*
X26306Y-42156D01*
X26687Y-41998D01*
X26978Y-41707D01*
X27136Y-41327D01*
X27136Y-40915D01*
X27136Y-41595D01*
X27008Y-41723D01*
X26901Y-41981D01*
X26901Y-42259D01*
X27007Y-42516D01*
X27204Y-42713D01*
X27396Y-42793D01*
X27396Y-43147D01*
X27339Y-43204D01*
X27301Y-43295D01*
X27301Y-43395D01*
X27301Y-43945D01*
X27339Y-44037D01*
X27409Y-44107D01*
X27501Y-44145D01*
X27601Y-44145D01*
X27951Y-44145D01*
X28043Y-44107D01*
X28101Y-44049D01*
X28159Y-44107D01*
X28251Y-44145D01*
X28351Y-44145D01*
X28701Y-44145D01*
X28793Y-44107D01*
X28863Y-44037D01*
X28901Y-43945D01*
X28901Y-43846D01*
X28901Y-43296D01*
X28875Y-43231D01*
X28875Y-43231D01*
X28902Y-43191D01*
X28902Y-43191D01*
X28927Y-43065D01*
X28927Y-40770D01*
X28927Y-40770D01*
X28927Y-40770D01*
X28922Y-40745D01*
X28902Y-40644D01*
X28902Y-40644D01*
X28830Y-40537D01*
X28830Y-40537D01*
X27811Y-39518D01*
X27811Y-31508D01*
X27961Y-31570D01*
X28240Y-31570D01*
X28497Y-31464D01*
X28694Y-31267D01*
X28801Y-31010D01*
X28801Y-30732D01*
X28695Y-30474D01*
X28498Y-30277D01*
X28241Y-30170D01*
X28139Y-30170D01*
X28139Y-27145D01*
X28201Y-27145D01*
X28293Y-27107D01*
X28363Y-27037D01*
X28401Y-26945D01*
X28401Y-26846D01*
X28401Y-26296D01*
X28363Y-26204D01*
X28293Y-26134D01*
X28201Y-26095D01*
X28102Y-26095D01*
X27971Y-26095D01*
X27971Y-18772D01*
X27946Y-18646D01*
X27946Y-18646D01*
X27874Y-18539D01*
X27816Y-18480D01*
X27816Y-16510D01*
X27961Y-16570D01*
X28240Y-16570D01*
X28497Y-16464D01*
X28694Y-16267D01*
X28801Y-16010D01*
X28801Y-15732D01*
X28695Y-15474D01*
X28498Y-15277D01*
X28282Y-15188D01*
X28306Y-15069D01*
X28306Y-15069D01*
X28306Y-12094D01*
X28363Y-12037D01*
X28401Y-11946D01*
X28401Y-11846D01*
X28401Y-11296D01*
X28363Y-11204D01*
X28306Y-11147D01*
X28306Y-10828D01*
X28369Y-10891D01*
X28681Y-11020D01*
X29019Y-11021D01*
X29332Y-10891D01*
X29431Y-10792D01*
X29431Y-18949D01*
X29333Y-18850D01*
X29021Y-18721D01*
X28683Y-18720D01*
X28370Y-18849D01*
X28131Y-19088D01*
X28001Y-19401D01*
X28001Y-19739D01*
X28130Y-20051D01*
X28369Y-20291D01*
X28681Y-20420D01*
X29019Y-20421D01*
X29332Y-20291D01*
X29431Y-20192D01*
X29431Y-24549D01*
X29333Y-24450D01*
X29021Y-24321D01*
X28683Y-24320D01*
X28370Y-24449D01*
X28131Y-24688D01*
X28001Y-25001D01*
X28001Y-25339D01*
X28130Y-25651D01*
X28369Y-25891D01*
X28681Y-26020D01*
X29019Y-26021D01*
X29332Y-25891D01*
X29431Y-25792D01*
X29431Y-33949D01*
X29333Y-33850D01*
X29021Y-33721D01*
X28683Y-33720D01*
X28370Y-33849D01*
X28131Y-34088D01*
X28001Y-34401D01*
X28001Y-34739D01*
X28130Y-35051D01*
X28369Y-35291D01*
X28681Y-35420D01*
X29019Y-35421D01*
X29332Y-35291D01*
X29431Y-35192D01*
X29431Y-43926D01*
X29431Y-43926D01*
G37*
G54D32*
X29431Y-43926D02*
X29408Y-43918D01*
X29230Y-43931D01*
X29125Y-43975D01*
X29110Y-44059D01*
X29351Y-44300D01*
X29356Y-44294D01*
X29427Y-44365D01*
X29421Y-44370D01*
X29427Y-44376D01*
X29356Y-44447D01*
X29351Y-44441D01*
X29345Y-44447D01*
X29274Y-44376D01*
X29280Y-44370D01*
X29040Y-44130D01*
X28955Y-44145D01*
X28899Y-44313D01*
X28908Y-44451D01*
X25801Y-44451D01*
X25801Y-42982D01*
X25695Y-42724D01*
X25498Y-42527D01*
X25241Y-42420D01*
X24962Y-42420D01*
X24705Y-42527D01*
X24686Y-42545D01*
X24686Y-41005D01*
X24597Y-40789D01*
X24433Y-40625D01*
X24218Y-40535D01*
X23985Y-40535D01*
X23886Y-40576D01*
X23886Y-34365D01*
X23729Y-33985D01*
X23438Y-33693D01*
X23058Y-33536D01*
X22646Y-33535D01*
X22266Y-33692D01*
X21974Y-33983D01*
X21816Y-34364D01*
X21816Y-34775D01*
X21973Y-35156D01*
X22264Y-35447D01*
X22644Y-35605D01*
X23056Y-35606D01*
X23437Y-35448D01*
X23728Y-35157D01*
X23886Y-34777D01*
X23886Y-34365D01*
X23886Y-40576D01*
X23770Y-40624D01*
X23605Y-40789D01*
X23516Y-41003D01*
X23516Y-41236D01*
X23605Y-41451D01*
X23769Y-41616D01*
X23984Y-41705D01*
X24217Y-41705D01*
X24432Y-41617D01*
X24597Y-41452D01*
X24686Y-41237D01*
X24686Y-41005D01*
X24686Y-42545D01*
X24508Y-42723D01*
X24401Y-42981D01*
X24401Y-43259D01*
X24507Y-43516D01*
X24704Y-43713D01*
X24961Y-43820D01*
X25240Y-43820D01*
X25497Y-43714D01*
X25694Y-43517D01*
X25801Y-43260D01*
X25801Y-42982D01*
X25801Y-44451D01*
X18301Y-44451D01*
X18301Y-42982D01*
X18195Y-42724D01*
X17998Y-42527D01*
X17741Y-42420D01*
X17462Y-42420D01*
X17205Y-42527D01*
X17186Y-42545D01*
X17186Y-41005D01*
X17097Y-40789D01*
X16933Y-40625D01*
X16718Y-40535D01*
X16485Y-40535D01*
X16270Y-40624D01*
X16105Y-40789D01*
X16016Y-41003D01*
X16016Y-41236D01*
X16105Y-41451D01*
X16269Y-41616D01*
X16484Y-41705D01*
X16717Y-41705D01*
X16932Y-41617D01*
X17097Y-41452D01*
X17186Y-41237D01*
X17186Y-41005D01*
X17186Y-42545D01*
X17008Y-42723D01*
X16901Y-42981D01*
X16901Y-43259D01*
X17007Y-43516D01*
X17204Y-43713D01*
X17461Y-43820D01*
X17740Y-43820D01*
X17997Y-43714D01*
X18194Y-43517D01*
X18301Y-43260D01*
X18301Y-42982D01*
X18301Y-44451D01*
X10801Y-44451D01*
X10801Y-42982D01*
X10695Y-42724D01*
X10498Y-42527D01*
X10241Y-42420D01*
X9962Y-42420D01*
X9705Y-42527D01*
X9686Y-42545D01*
X9686Y-41005D01*
X9597Y-40789D01*
X9433Y-40625D01*
X9218Y-40535D01*
X8985Y-40535D01*
X8770Y-40624D01*
X8605Y-40789D01*
X8516Y-41003D01*
X8516Y-41236D01*
X8605Y-41451D01*
X8769Y-41616D01*
X8984Y-41705D01*
X9217Y-41705D01*
X9432Y-41617D01*
X9597Y-41452D01*
X9686Y-41237D01*
X9686Y-41005D01*
X9686Y-42545D01*
X9508Y-42723D01*
X9401Y-42981D01*
X9401Y-43259D01*
X9507Y-43516D01*
X9704Y-43713D01*
X9961Y-43820D01*
X10240Y-43820D01*
X10497Y-43714D01*
X10694Y-43517D01*
X10801Y-43260D01*
X10801Y-42982D01*
X10801Y-44451D01*
X3301Y-44451D01*
X3301Y-42982D01*
X3195Y-42724D01*
X2998Y-42527D01*
X2741Y-42420D01*
X2462Y-42420D01*
X2205Y-42527D01*
X2186Y-42545D01*
X2186Y-41005D01*
X2097Y-40789D01*
X1933Y-40625D01*
X1718Y-40535D01*
X1485Y-40535D01*
X1270Y-40624D01*
X1105Y-40789D01*
X1016Y-41003D01*
X1016Y-41236D01*
X1105Y-41451D01*
X1269Y-41616D01*
X1484Y-41705D01*
X1717Y-41705D01*
X1932Y-41617D01*
X2097Y-41452D01*
X2186Y-41237D01*
X2186Y-41005D01*
X2186Y-42545D01*
X2008Y-42723D01*
X1901Y-42981D01*
X1901Y-43259D01*
X2007Y-43516D01*
X2204Y-43713D01*
X2461Y-43820D01*
X2740Y-43820D01*
X2997Y-43714D01*
X3194Y-43517D01*
X3301Y-43260D01*
X3301Y-42982D01*
X3301Y-44451D01*
X795Y-44451D01*
X803Y-44427D01*
X790Y-44250D01*
X747Y-44145D01*
X662Y-44130D01*
X422Y-44370D01*
X427Y-44376D01*
X356Y-44447D01*
X351Y-44441D01*
X345Y-44447D01*
X275Y-44376D01*
X280Y-44370D01*
X275Y-44365D01*
X345Y-44294D01*
X351Y-44300D01*
X591Y-44059D01*
X577Y-43975D01*
X408Y-43918D01*
X270Y-43928D01*
X270Y-23478D01*
X1601Y-23478D01*
X2074Y-23385D01*
X2373Y-23185D01*
X2373Y-25039D01*
X2049Y-25362D01*
X1978Y-25469D01*
X1953Y-25595D01*
X1953Y-25645D01*
X1933Y-25625D01*
X1718Y-25535D01*
X1485Y-25535D01*
X1270Y-25624D01*
X1105Y-25789D01*
X1016Y-26003D01*
X1016Y-26236D01*
X1105Y-26451D01*
X1269Y-26616D01*
X1484Y-26705D01*
X1717Y-26705D01*
X1866Y-26644D01*
X1739Y-26771D01*
X1667Y-26878D01*
X1642Y-27004D01*
X1642Y-28395D01*
X1667Y-28521D01*
X1739Y-28628D01*
X2399Y-29289D01*
X2506Y-29360D01*
X2506Y-29360D01*
X2633Y-29385D01*
X5769Y-29385D01*
X5769Y-33057D01*
X5718Y-33035D01*
X5485Y-33035D01*
X5270Y-33124D01*
X5105Y-33289D01*
X5016Y-33503D01*
X5016Y-33736D01*
X5092Y-33920D01*
X4962Y-33920D01*
X4705Y-34027D01*
X4636Y-34095D01*
X4636Y-33415D01*
X4479Y-33035D01*
X4188Y-32743D01*
X3808Y-32586D01*
X3396Y-32585D01*
X3015Y-32742D01*
X2724Y-33033D01*
X2566Y-33414D01*
X2566Y-33825D01*
X2723Y-34206D01*
X3014Y-34497D01*
X3394Y-34655D01*
X3806Y-34656D01*
X4186Y-34498D01*
X4478Y-34207D01*
X4636Y-33827D01*
X4636Y-33415D01*
X4636Y-34095D01*
X4508Y-34223D01*
X4401Y-34481D01*
X4401Y-34759D01*
X4507Y-35016D01*
X4704Y-35213D01*
X4896Y-35293D01*
X4896Y-35647D01*
X4839Y-35704D01*
X4801Y-35795D01*
X4801Y-35895D01*
X4801Y-36225D01*
X3673Y-36225D01*
X3273Y-35826D01*
X3301Y-35760D01*
X3301Y-35482D01*
X3195Y-35224D01*
X2998Y-35027D01*
X2741Y-34920D01*
X2462Y-34920D01*
X2205Y-35027D01*
X2186Y-35045D01*
X2186Y-33505D01*
X2097Y-33289D01*
X1933Y-33125D01*
X1718Y-33035D01*
X1485Y-33035D01*
X1270Y-33124D01*
X1105Y-33289D01*
X1016Y-33503D01*
X1016Y-33736D01*
X1105Y-33951D01*
X1269Y-34116D01*
X1484Y-34205D01*
X1717Y-34205D01*
X1932Y-34117D01*
X2097Y-33952D01*
X2186Y-33737D01*
X2186Y-33505D01*
X2186Y-35045D01*
X2008Y-35223D01*
X1901Y-35481D01*
X1901Y-35759D01*
X2007Y-36016D01*
X2204Y-36213D01*
X2461Y-36320D01*
X2740Y-36320D01*
X2807Y-36293D01*
X3303Y-36789D01*
X3410Y-36860D01*
X3410Y-36860D01*
X3536Y-36885D01*
X7866Y-36885D01*
X6078Y-38674D01*
X6006Y-38781D01*
X5981Y-38907D01*
X5981Y-40673D01*
X5933Y-40625D01*
X5718Y-40535D01*
X5485Y-40535D01*
X5270Y-40624D01*
X5105Y-40789D01*
X5016Y-41003D01*
X5016Y-41236D01*
X5092Y-41420D01*
X4962Y-41420D01*
X4705Y-41527D01*
X4636Y-41595D01*
X4636Y-40915D01*
X4479Y-40535D01*
X4188Y-40243D01*
X3808Y-40086D01*
X3396Y-40085D01*
X3015Y-40242D01*
X2724Y-40533D01*
X2566Y-40914D01*
X2566Y-41325D01*
X2723Y-41706D01*
X3014Y-41997D01*
X3394Y-42155D01*
X3806Y-42156D01*
X4186Y-41998D01*
X4478Y-41707D01*
X4636Y-41327D01*
X4636Y-40915D01*
X4636Y-41595D01*
X4508Y-41723D01*
X4401Y-41981D01*
X4401Y-42259D01*
X4507Y-42516D01*
X4704Y-42713D01*
X4896Y-42793D01*
X4896Y-43147D01*
X4839Y-43204D01*
X4801Y-43295D01*
X4801Y-43395D01*
X4801Y-43945D01*
X4839Y-44037D01*
X4909Y-44107D01*
X5001Y-44145D01*
X5100Y-44145D01*
X5450Y-44145D01*
X5542Y-44107D01*
X5601Y-44049D01*
X5659Y-44107D01*
X5751Y-44145D01*
X5850Y-44145D01*
X6200Y-44145D01*
X6292Y-44107D01*
X6363Y-44037D01*
X6401Y-43945D01*
X6401Y-43932D01*
X6437Y-43925D01*
X6544Y-43854D01*
X6616Y-43747D01*
X6641Y-43620D01*
X6641Y-39044D01*
X8055Y-37631D01*
X8088Y-37712D01*
X8258Y-37882D01*
X8480Y-37975D01*
X8721Y-37975D01*
X8943Y-37883D01*
X9101Y-37725D01*
X9258Y-37882D01*
X9480Y-37975D01*
X9721Y-37975D01*
X9943Y-37883D01*
X10101Y-37725D01*
X10258Y-37882D01*
X10480Y-37975D01*
X10721Y-37975D01*
X10943Y-37883D01*
X11101Y-37725D01*
X11258Y-37882D01*
X11480Y-37975D01*
X11721Y-37975D01*
X11943Y-37883D01*
X12101Y-37725D01*
X12258Y-37882D01*
X12480Y-37975D01*
X12721Y-37975D01*
X12943Y-37883D01*
X13113Y-37713D01*
X13117Y-37705D01*
X13176Y-37725D01*
X13530Y-37370D01*
X13176Y-37016D01*
X13117Y-37036D01*
X13114Y-37028D01*
X12944Y-36858D01*
X12931Y-36853D01*
X12931Y-36685D01*
X12923Y-36645D01*
X12950Y-36645D01*
X13042Y-36607D01*
X13101Y-36549D01*
X13159Y-36607D01*
X13251Y-36645D01*
X13350Y-36645D01*
X13643Y-36645D01*
X13789Y-36791D01*
X13789Y-36796D01*
X13696Y-36762D01*
X13456Y-36772D01*
X13281Y-36844D01*
X13247Y-36945D01*
X13601Y-37300D01*
X13607Y-37294D01*
X13677Y-37365D01*
X13672Y-37370D01*
X13677Y-37376D01*
X13607Y-37447D01*
X13601Y-37441D01*
X13247Y-37796D01*
X13281Y-37897D01*
X13506Y-37979D01*
X13747Y-37969D01*
X13789Y-37952D01*
X13789Y-43132D01*
X13701Y-43095D01*
X13601Y-43095D01*
X13251Y-43095D01*
X13159Y-43133D01*
X13101Y-43192D01*
X13056Y-43147D01*
X13056Y-42655D01*
X13194Y-42517D01*
X13301Y-42260D01*
X13301Y-41982D01*
X13195Y-41724D01*
X13176Y-41705D01*
X13217Y-41705D01*
X13432Y-41617D01*
X13597Y-41452D01*
X13686Y-41237D01*
X13686Y-41005D01*
X13597Y-40789D01*
X13433Y-40625D01*
X13218Y-40535D01*
X12985Y-40535D01*
X12770Y-40624D01*
X12605Y-40789D01*
X12516Y-41003D01*
X12516Y-41236D01*
X12592Y-41420D01*
X12462Y-41420D01*
X12205Y-41527D01*
X12136Y-41595D01*
X12136Y-40915D01*
X11979Y-40535D01*
X11688Y-40243D01*
X11308Y-40086D01*
X10896Y-40085D01*
X10515Y-40242D01*
X10224Y-40533D01*
X10066Y-40914D01*
X10066Y-41325D01*
X10223Y-41706D01*
X10514Y-41997D01*
X10894Y-42155D01*
X11306Y-42156D01*
X11686Y-41998D01*
X11978Y-41707D01*
X12136Y-41327D01*
X12136Y-40915D01*
X12136Y-41595D01*
X12008Y-41723D01*
X11901Y-41981D01*
X11901Y-42259D01*
X12007Y-42516D01*
X12204Y-42713D01*
X12396Y-42793D01*
X12396Y-43147D01*
X12339Y-43204D01*
X12301Y-43295D01*
X12301Y-43395D01*
X12301Y-43945D01*
X12339Y-44037D01*
X12409Y-44107D01*
X12501Y-44145D01*
X12600Y-44145D01*
X12950Y-44145D01*
X13042Y-44107D01*
X13101Y-44049D01*
X13159Y-44107D01*
X13251Y-44145D01*
X13350Y-44145D01*
X13700Y-44145D01*
X13792Y-44107D01*
X13863Y-44037D01*
X13901Y-43945D01*
X13901Y-43932D01*
X13937Y-43925D01*
X13937Y-43925D01*
X14044Y-43854D01*
X14352Y-43546D01*
X14424Y-43439D01*
X14424Y-43439D01*
X14449Y-43313D01*
X14449Y-36655D01*
X14449Y-36654D01*
X14449Y-36654D01*
X14444Y-36629D01*
X14424Y-36528D01*
X14424Y-36528D01*
X14352Y-36421D01*
X14352Y-36421D01*
X13901Y-35970D01*
X13901Y-35796D01*
X13874Y-35732D01*
X13903Y-35690D01*
X13903Y-35690D01*
X13928Y-35563D01*
X13928Y-29177D01*
X13903Y-29051D01*
X13903Y-29051D01*
X13874Y-29009D01*
X13899Y-28950D01*
X14811Y-28950D01*
X14937Y-28925D01*
X14937Y-28925D01*
X15044Y-28854D01*
X15455Y-28442D01*
X15524Y-28442D01*
X15688Y-28374D01*
X15814Y-28249D01*
X15859Y-28140D01*
X16015Y-28205D01*
X16193Y-28205D01*
X16357Y-28137D01*
X16483Y-28011D01*
X16551Y-27847D01*
X16552Y-27728D01*
X16742Y-27728D01*
X16929Y-27915D01*
X16901Y-27981D01*
X16901Y-28259D01*
X17007Y-28516D01*
X17204Y-28713D01*
X17461Y-28820D01*
X17740Y-28820D01*
X17997Y-28714D01*
X18194Y-28517D01*
X18301Y-28260D01*
X18301Y-27982D01*
X18195Y-27724D01*
X17998Y-27527D01*
X17741Y-27420D01*
X17462Y-27420D01*
X17395Y-27448D01*
X17355Y-27408D01*
X19008Y-27408D01*
X19135Y-27383D01*
X19135Y-27383D01*
X19242Y-27311D01*
X19401Y-27152D01*
X19401Y-27259D01*
X19507Y-27516D01*
X19704Y-27713D01*
X19771Y-27741D01*
X19771Y-28160D01*
X19773Y-28170D01*
X19739Y-28204D01*
X19701Y-28295D01*
X19701Y-28395D01*
X19701Y-28945D01*
X19739Y-29037D01*
X19809Y-29107D01*
X19901Y-29145D01*
X20001Y-29145D01*
X20351Y-29145D01*
X20443Y-29107D01*
X20501Y-29049D01*
X20556Y-29104D01*
X20571Y-29182D01*
X20643Y-29289D01*
X20770Y-29416D01*
X20770Y-33057D01*
X20718Y-33035D01*
X20485Y-33035D01*
X20270Y-33124D01*
X20105Y-33289D01*
X20016Y-33503D01*
X20016Y-33736D01*
X20092Y-33920D01*
X19962Y-33920D01*
X19705Y-34027D01*
X19636Y-34095D01*
X19636Y-33415D01*
X19479Y-33035D01*
X19188Y-32743D01*
X18808Y-32586D01*
X18396Y-32585D01*
X18016Y-32742D01*
X17724Y-33033D01*
X17566Y-33414D01*
X17566Y-33825D01*
X17723Y-34206D01*
X18014Y-34497D01*
X18394Y-34655D01*
X18806Y-34656D01*
X19187Y-34498D01*
X19478Y-34207D01*
X19636Y-33827D01*
X19636Y-33415D01*
X19636Y-34095D01*
X19508Y-34223D01*
X19401Y-34481D01*
X19401Y-34759D01*
X19507Y-35016D01*
X19704Y-35213D01*
X19896Y-35293D01*
X19896Y-35647D01*
X19839Y-35704D01*
X19801Y-35795D01*
X19801Y-35895D01*
X19801Y-36445D01*
X19839Y-36537D01*
X19909Y-36607D01*
X20001Y-36645D01*
X20101Y-36645D01*
X20451Y-36645D01*
X20543Y-36607D01*
X20601Y-36549D01*
X20656Y-36604D01*
X20671Y-36682D01*
X20743Y-36789D01*
X20769Y-36815D01*
X20769Y-40557D01*
X20718Y-40535D01*
X20485Y-40535D01*
X20270Y-40624D01*
X20105Y-40789D01*
X20016Y-41003D01*
X20016Y-41236D01*
X20092Y-41420D01*
X19962Y-41420D01*
X19705Y-41527D01*
X19636Y-41595D01*
X19636Y-40915D01*
X19479Y-40535D01*
X19188Y-40243D01*
X18808Y-40086D01*
X18396Y-40085D01*
X18301Y-40124D01*
X18301Y-35482D01*
X18195Y-35224D01*
X17998Y-35027D01*
X17741Y-34920D01*
X17462Y-34920D01*
X17205Y-35027D01*
X17186Y-35045D01*
X17186Y-33505D01*
X17097Y-33289D01*
X16933Y-33125D01*
X16718Y-33035D01*
X16485Y-33035D01*
X16270Y-33124D01*
X16105Y-33289D01*
X16016Y-33503D01*
X16016Y-33736D01*
X16105Y-33951D01*
X16269Y-34116D01*
X16484Y-34205D01*
X16717Y-34205D01*
X16932Y-34117D01*
X17097Y-33952D01*
X17186Y-33737D01*
X17186Y-33505D01*
X17186Y-35045D01*
X17008Y-35223D01*
X16901Y-35481D01*
X16901Y-35759D01*
X17007Y-36016D01*
X17204Y-36213D01*
X17461Y-36320D01*
X17740Y-36320D01*
X17997Y-36214D01*
X18194Y-36017D01*
X18301Y-35760D01*
X18301Y-35482D01*
X18301Y-40124D01*
X18016Y-40242D01*
X17724Y-40533D01*
X17566Y-40914D01*
X17566Y-41325D01*
X17723Y-41706D01*
X18014Y-41997D01*
X18394Y-42155D01*
X18806Y-42156D01*
X19187Y-41998D01*
X19478Y-41707D01*
X19636Y-41327D01*
X19636Y-40915D01*
X19636Y-41595D01*
X19508Y-41723D01*
X19401Y-41981D01*
X19401Y-42259D01*
X19507Y-42516D01*
X19704Y-42713D01*
X19771Y-42741D01*
X19771Y-43060D01*
X19796Y-43187D01*
X19827Y-43233D01*
X19801Y-43295D01*
X19801Y-43395D01*
X19801Y-43945D01*
X19839Y-44037D01*
X19909Y-44107D01*
X20001Y-44145D01*
X20101Y-44145D01*
X20451Y-44145D01*
X20543Y-44107D01*
X20601Y-44049D01*
X20659Y-44107D01*
X20751Y-44145D01*
X20851Y-44145D01*
X21201Y-44145D01*
X21293Y-44107D01*
X21363Y-44037D01*
X21401Y-43945D01*
X21401Y-43846D01*
X21401Y-43296D01*
X21375Y-43232D01*
X21375Y-43232D01*
X21404Y-43188D01*
X21404Y-43188D01*
X21429Y-43062D01*
X21429Y-36679D01*
X21404Y-36552D01*
X21404Y-36552D01*
X21375Y-36508D01*
X21401Y-36445D01*
X21401Y-36346D01*
X21401Y-35796D01*
X21375Y-35732D01*
X21405Y-35688D01*
X21405Y-35688D01*
X21425Y-35587D01*
X21430Y-35561D01*
X21430Y-35561D01*
X21430Y-35561D01*
X21430Y-29279D01*
X21430Y-29279D01*
X21405Y-29153D01*
X21405Y-29153D01*
X21333Y-29046D01*
X21333Y-29046D01*
X21281Y-28994D01*
X21301Y-28945D01*
X21301Y-28846D01*
X21301Y-28296D01*
X21281Y-28247D01*
X21336Y-28192D01*
X21336Y-28192D01*
X21336Y-28192D01*
X21407Y-28085D01*
X21407Y-28085D01*
X21427Y-27984D01*
X21432Y-27959D01*
X21432Y-27959D01*
X21432Y-27959D01*
X21432Y-25740D01*
X21484Y-25688D01*
X21553Y-25688D01*
X21717Y-25621D01*
X21843Y-25495D01*
X21854Y-25468D01*
X21973Y-25756D01*
X22264Y-26047D01*
X22644Y-26205D01*
X23056Y-26206D01*
X23437Y-26048D01*
X23728Y-25757D01*
X23886Y-25377D01*
X23886Y-24965D01*
X23729Y-24585D01*
X23699Y-24555D01*
X24098Y-24555D01*
X24125Y-24574D01*
X24125Y-24574D01*
X24226Y-24594D01*
X24252Y-24599D01*
X24252Y-24599D01*
X24252Y-24599D01*
X24871Y-24599D01*
X25507Y-24599D01*
X25634Y-24574D01*
X25634Y-24574D01*
X25741Y-24502D01*
X26259Y-23983D01*
X26331Y-23876D01*
X26331Y-23876D01*
X26356Y-23750D01*
X26356Y-23694D01*
X26401Y-23649D01*
X26460Y-23707D01*
X26552Y-23745D01*
X26664Y-23745D01*
X26726Y-23683D01*
X26726Y-23270D01*
X26718Y-23270D01*
X26718Y-23170D01*
X26726Y-23170D01*
X26726Y-22758D01*
X26664Y-22695D01*
X26552Y-22695D01*
X26460Y-22733D01*
X26401Y-22792D01*
X26343Y-22734D01*
X26251Y-22695D01*
X26152Y-22695D01*
X25802Y-22695D01*
X25710Y-22733D01*
X25693Y-22750D01*
X25693Y-22703D01*
X25630Y-22703D01*
X25693Y-22641D01*
X25693Y-22428D01*
X25655Y-22336D01*
X25639Y-22320D01*
X25654Y-22305D01*
X25693Y-22213D01*
X25693Y-22113D01*
X25693Y-22090D01*
X25709Y-22107D01*
X25801Y-22145D01*
X25901Y-22145D01*
X26251Y-22145D01*
X26343Y-22107D01*
X26401Y-22049D01*
X26460Y-22107D01*
X26552Y-22145D01*
X26664Y-22145D01*
X26726Y-22083D01*
X26726Y-21670D01*
X26718Y-21670D01*
X26718Y-21570D01*
X26726Y-21570D01*
X26726Y-21158D01*
X26664Y-21095D01*
X26552Y-21095D01*
X26460Y-21133D01*
X26401Y-21192D01*
X26343Y-21134D01*
X26251Y-21095D01*
X26152Y-21095D01*
X25802Y-21095D01*
X25710Y-21133D01*
X25639Y-21204D01*
X25603Y-21290D01*
X25452Y-21290D01*
X25452Y-21234D01*
X25384Y-21070D01*
X25259Y-20944D01*
X25095Y-20876D01*
X24917Y-20876D01*
X24752Y-20943D01*
X24627Y-21069D01*
X24559Y-21233D01*
X24558Y-21362D01*
X24536Y-21362D01*
X24536Y-21424D01*
X24474Y-21362D01*
X24409Y-21362D01*
X24310Y-21362D01*
X24218Y-21400D01*
X24148Y-21470D01*
X24142Y-21483D01*
X24093Y-21433D01*
X24001Y-21395D01*
X23889Y-21395D01*
X23826Y-21458D01*
X23826Y-21870D01*
X24139Y-21870D01*
X24172Y-21837D01*
X24172Y-21837D01*
X24536Y-21837D01*
X24536Y-21829D01*
X24636Y-21829D01*
X24636Y-21837D01*
X24644Y-21837D01*
X24644Y-21937D01*
X24636Y-21937D01*
X24636Y-21945D01*
X24536Y-21945D01*
X24536Y-21937D01*
X24172Y-21937D01*
X24139Y-21971D01*
X24139Y-21970D01*
X23826Y-21970D01*
X23826Y-22383D01*
X23889Y-22445D01*
X24001Y-22445D01*
X24093Y-22407D01*
X24136Y-22364D01*
X24110Y-22428D01*
X24110Y-22527D01*
X24110Y-23078D01*
X24148Y-23170D01*
X24218Y-23241D01*
X24271Y-23263D01*
X24279Y-23305D01*
X24210Y-23333D01*
X24194Y-23349D01*
X23724Y-22878D01*
X23610Y-22803D01*
X23476Y-22776D01*
X23376Y-22776D01*
X23376Y-22375D01*
X23376Y-22374D01*
X23401Y-22349D01*
X23460Y-22407D01*
X23552Y-22445D01*
X23664Y-22445D01*
X23726Y-22383D01*
X23726Y-21970D01*
X23718Y-21970D01*
X23718Y-21870D01*
X23726Y-21870D01*
X23726Y-21458D01*
X23664Y-21395D01*
X23552Y-21395D01*
X23460Y-21433D01*
X23401Y-21492D01*
X23343Y-21434D01*
X23251Y-21395D01*
X23152Y-21395D01*
X22802Y-21395D01*
X22710Y-21433D01*
X22639Y-21504D01*
X22601Y-21595D01*
X22601Y-21695D01*
X22601Y-22245D01*
X22639Y-22337D01*
X22676Y-22374D01*
X22676Y-22375D01*
X22676Y-22776D01*
X18953Y-22776D01*
X18819Y-22803D01*
X18705Y-22878D01*
X18247Y-23336D01*
X18142Y-23266D01*
X18008Y-23239D01*
X17842Y-23239D01*
X17553Y-22950D01*
X17468Y-22893D01*
X17322Y-22748D01*
X17281Y-22720D01*
X17322Y-22693D01*
X17442Y-22573D01*
X20964Y-22573D01*
X21090Y-22548D01*
X21090Y-22548D01*
X21197Y-22476D01*
X22654Y-21020D01*
X23301Y-21020D01*
X23427Y-20995D01*
X23427Y-20995D01*
X23534Y-20923D01*
X24607Y-19850D01*
X25603Y-19850D01*
X25639Y-19937D01*
X25709Y-20007D01*
X25801Y-20045D01*
X25901Y-20045D01*
X26251Y-20045D01*
X26343Y-20007D01*
X26401Y-19949D01*
X26460Y-20007D01*
X26552Y-20045D01*
X26664Y-20045D01*
X26726Y-19983D01*
X26726Y-19570D01*
X26718Y-19570D01*
X26718Y-19470D01*
X26726Y-19470D01*
X26726Y-19058D01*
X26664Y-18995D01*
X26552Y-18995D01*
X26460Y-19033D01*
X26401Y-19092D01*
X26343Y-19034D01*
X26251Y-18995D01*
X26152Y-18995D01*
X25802Y-18995D01*
X25710Y-19033D01*
X25639Y-19104D01*
X25603Y-19190D01*
X24471Y-19190D01*
X24344Y-19215D01*
X24237Y-19287D01*
X24237Y-19287D01*
X24237Y-19287D01*
X23886Y-19638D01*
X23886Y-19365D01*
X23729Y-18985D01*
X23691Y-18947D01*
X27311Y-18947D01*
X27311Y-26095D01*
X27201Y-26095D01*
X27201Y-23446D01*
X27201Y-22995D01*
X27201Y-21846D01*
X27201Y-21395D01*
X27201Y-19746D01*
X27201Y-19295D01*
X27201Y-19195D01*
X27163Y-19104D01*
X27093Y-19033D01*
X27001Y-18995D01*
X26889Y-18995D01*
X26826Y-19058D01*
X26826Y-19470D01*
X27139Y-19470D01*
X27201Y-19408D01*
X27201Y-19295D01*
X27201Y-19746D01*
X27201Y-19633D01*
X27139Y-19570D01*
X26826Y-19570D01*
X26826Y-19983D01*
X26889Y-20045D01*
X27001Y-20045D01*
X27093Y-20007D01*
X27163Y-19937D01*
X27201Y-19845D01*
X27201Y-19746D01*
X27201Y-21395D01*
X27201Y-21295D01*
X27163Y-21204D01*
X27093Y-21133D01*
X27001Y-21095D01*
X26889Y-21095D01*
X26826Y-21158D01*
X26826Y-21570D01*
X27139Y-21570D01*
X27201Y-21508D01*
X27201Y-21395D01*
X27201Y-21846D01*
X27201Y-21733D01*
X27139Y-21670D01*
X26826Y-21670D01*
X26826Y-22083D01*
X26889Y-22145D01*
X27001Y-22145D01*
X27093Y-22107D01*
X27163Y-22037D01*
X27201Y-21945D01*
X27201Y-21846D01*
X27201Y-22995D01*
X27201Y-22895D01*
X27163Y-22804D01*
X27093Y-22733D01*
X27001Y-22695D01*
X26889Y-22695D01*
X26826Y-22758D01*
X26826Y-23170D01*
X27139Y-23170D01*
X27201Y-23108D01*
X27201Y-22995D01*
X27201Y-23446D01*
X27201Y-23333D01*
X27139Y-23270D01*
X26826Y-23270D01*
X26826Y-23683D01*
X26889Y-23745D01*
X27001Y-23745D01*
X27093Y-23707D01*
X27163Y-23637D01*
X27201Y-23545D01*
X27201Y-23446D01*
X27201Y-26095D01*
X27002Y-26095D01*
X26910Y-26133D01*
X26839Y-26204D01*
X26801Y-26295D01*
X26801Y-26395D01*
X26801Y-26945D01*
X26839Y-27037D01*
X26896Y-27094D01*
X26896Y-27698D01*
X26705Y-27777D01*
X26686Y-27795D01*
X26686Y-27755D01*
X26597Y-27539D01*
X26433Y-27375D01*
X26218Y-27285D01*
X25985Y-27285D01*
X25770Y-27374D01*
X25605Y-27539D01*
X25516Y-27753D01*
X25516Y-27986D01*
X25605Y-28201D01*
X25769Y-28366D01*
X25984Y-28455D01*
X26217Y-28455D01*
X26401Y-28379D01*
X26401Y-28509D01*
X26507Y-28766D01*
X26704Y-28963D01*
X26961Y-29070D01*
X27240Y-29070D01*
X27479Y-28972D01*
X27479Y-30069D01*
X27247Y-30300D01*
X27176Y-30407D01*
X27151Y-30534D01*
X27151Y-39654D01*
X27176Y-39781D01*
X27247Y-39888D01*
X27921Y-40562D01*
X27770Y-40624D01*
X27605Y-40789D01*
X27516Y-41003D01*
X27516Y-41236D01*
X27592Y-41420D01*
X27462Y-41420D01*
X27205Y-41527D01*
X27136Y-41595D01*
X27136Y-40915D01*
X27136Y-29665D01*
X26979Y-29285D01*
X26688Y-28993D01*
X26308Y-28836D01*
X25896Y-28835D01*
X25516Y-28992D01*
X25224Y-29283D01*
X25066Y-29664D01*
X25066Y-30075D01*
X25223Y-30456D01*
X25514Y-30747D01*
X25894Y-30905D01*
X26306Y-30906D01*
X26687Y-30748D01*
X26978Y-30457D01*
X27136Y-30077D01*
X27136Y-29665D01*
X27136Y-40915D01*
X26979Y-40535D01*
X26688Y-40243D01*
X26686Y-40243D01*
X26686Y-31755D01*
X26597Y-31539D01*
X26433Y-31375D01*
X26218Y-31285D01*
X25985Y-31285D01*
X25770Y-31374D01*
X25605Y-31539D01*
X25516Y-31753D01*
X25516Y-31986D01*
X25605Y-32201D01*
X25769Y-32366D01*
X25984Y-32455D01*
X26217Y-32455D01*
X26432Y-32367D01*
X26597Y-32202D01*
X26686Y-31987D01*
X26686Y-31755D01*
X26686Y-40243D01*
X26308Y-40086D01*
X25896Y-40085D01*
X25516Y-40242D01*
X25224Y-40533D01*
X25066Y-40914D01*
X25066Y-41325D01*
X25223Y-41706D01*
X25514Y-41997D01*
X25894Y-42155D01*
X26306Y-42156D01*
X26687Y-41998D01*
X26978Y-41707D01*
X27136Y-41327D01*
X27136Y-40915D01*
X27136Y-41595D01*
X27008Y-41723D01*
X26901Y-41981D01*
X26901Y-42259D01*
X27007Y-42516D01*
X27204Y-42713D01*
X27396Y-42793D01*
X27396Y-43147D01*
X27339Y-43204D01*
X27301Y-43295D01*
X27301Y-43395D01*
X27301Y-43945D01*
X27339Y-44037D01*
X27409Y-44107D01*
X27501Y-44145D01*
X27601Y-44145D01*
X27951Y-44145D01*
X28043Y-44107D01*
X28101Y-44049D01*
X28159Y-44107D01*
X28251Y-44145D01*
X28351Y-44145D01*
X28701Y-44145D01*
X28793Y-44107D01*
X28863Y-44037D01*
X28901Y-43945D01*
X28901Y-43846D01*
X28901Y-43296D01*
X28875Y-43231D01*
X28875Y-43231D01*
X28902Y-43191D01*
X28902Y-43191D01*
X28927Y-43065D01*
X28927Y-40770D01*
X28927Y-40770D01*
X28927Y-40770D01*
X28922Y-40745D01*
X28902Y-40644D01*
X28902Y-40644D01*
X28830Y-40537D01*
X28830Y-40537D01*
X27811Y-39518D01*
X27811Y-31508D01*
X27961Y-31570D01*
X28240Y-31570D01*
X28497Y-31464D01*
X28694Y-31267D01*
X28801Y-31010D01*
X28801Y-30732D01*
X28695Y-30474D01*
X28498Y-30277D01*
X28241Y-30170D01*
X28139Y-30170D01*
X28139Y-27145D01*
X28201Y-27145D01*
X28293Y-27107D01*
X28363Y-27037D01*
X28401Y-26945D01*
X28401Y-26846D01*
X28401Y-26296D01*
X28363Y-26204D01*
X28293Y-26134D01*
X28201Y-26095D01*
X28102Y-26095D01*
X27971Y-26095D01*
X27971Y-18772D01*
X27946Y-18646D01*
X27946Y-18646D01*
X27874Y-18539D01*
X27816Y-18480D01*
X27816Y-16510D01*
X27961Y-16570D01*
X28240Y-16570D01*
X28497Y-16464D01*
X28694Y-16267D01*
X28801Y-16010D01*
X28801Y-15732D01*
X28695Y-15474D01*
X28498Y-15277D01*
X28282Y-15188D01*
X28306Y-15069D01*
X28306Y-15069D01*
X28306Y-12094D01*
X28363Y-12037D01*
X28401Y-11946D01*
X28401Y-11846D01*
X28401Y-11296D01*
X28363Y-11204D01*
X28306Y-11147D01*
X28306Y-10828D01*
X28369Y-10891D01*
X28681Y-11020D01*
X29019Y-11021D01*
X29332Y-10891D01*
X29431Y-10792D01*
X29431Y-18949D01*
X29333Y-18850D01*
X29021Y-18721D01*
X28683Y-18720D01*
X28370Y-18849D01*
X28131Y-19088D01*
X28001Y-19401D01*
X28001Y-19739D01*
X28130Y-20051D01*
X28369Y-20291D01*
X28681Y-20420D01*
X29019Y-20421D01*
X29332Y-20291D01*
X29431Y-20192D01*
X29431Y-24549D01*
X29333Y-24450D01*
X29021Y-24321D01*
X28683Y-24320D01*
X28370Y-24449D01*
X28131Y-24688D01*
X28001Y-25001D01*
X28001Y-25339D01*
X28130Y-25651D01*
X28369Y-25891D01*
X28681Y-26020D01*
X29019Y-26021D01*
X29332Y-25891D01*
X29431Y-25792D01*
X29431Y-33949D01*
X29333Y-33850D01*
X29021Y-33721D01*
X28683Y-33720D01*
X28370Y-33849D01*
X28131Y-34088D01*
X28001Y-34401D01*
X28001Y-34739D01*
X28130Y-35051D01*
X28369Y-35291D01*
X28681Y-35420D01*
X29019Y-35421D01*
X29332Y-35291D01*
X29431Y-35192D01*
X29431Y-43926D01*
M02*
