G04 (created by PCBNEW (2013-02-13 BZR 3947)-testing) date 10/20/2013 2:02:49 PM*
%MOIN*%
G04 Gerber Fmt 3.4, Leading zero omitted, Abs format*
%FSLAX34Y34*%
G01*
G70*
G90*
G04 APERTURE LIST*
%ADD10C,0*%
%ADD11R,0.0393701X0.122047*%
%ADD12R,0.0453X0.0551*%
%ADD13C,0.016*%
%ADD14R,0.035X0.055*%
%ADD15R,0.055X0.035*%
%ADD16C,0.0708661*%
%ADD17C,0.0629921*%
%ADD18C,0.09*%
%ADD19C,0.157*%
%ADD20C,0.067*%
%ADD21O,0.075X0.085*%
%ADD22R,0.075X0.085*%
%ADD23C,0.12*%
%ADD24C,0.0393701*%
%ADD25O,0.06X0.042*%
%ADD26C,0.275591*%
%ADD27C,0.0984252*%
%ADD28R,0.0807X0.1575*%
%ADD29R,0.0807X0.1378*%
%ADD30O,0.0197008X0.0984252*%
%ADD31C,0.0354331*%
%ADD32C,0.02*%
%ADD33C,0.01*%
G04 APERTURE END LIST*
G54D10*
G54D11*
X15639Y-4623D03*
X14064Y-1119D03*
X15638Y-1119D03*
X14064Y-4623D03*
G54D12*
X22286Y-21689D03*
X22286Y-22555D03*
X22916Y-21689D03*
X22916Y-22555D03*
G54D13*
X15984Y-24103D02*
X16400Y-24519D01*
X15761Y-24326D02*
X16177Y-24742D01*
X15539Y-24549D02*
X15954Y-24965D01*
X15316Y-24772D02*
X15732Y-25187D01*
X15093Y-24994D02*
X15509Y-25410D01*
X14870Y-25217D02*
X15286Y-25633D01*
X16207Y-23881D02*
X16622Y-24297D01*
X16429Y-23658D02*
X16845Y-24074D01*
X16652Y-23435D02*
X17068Y-23851D01*
X16875Y-23213D02*
X17291Y-23628D01*
X17098Y-22990D02*
X17513Y-23406D01*
X12802Y-20921D02*
X13218Y-21337D01*
X12579Y-21144D02*
X12995Y-21560D01*
X12357Y-21367D02*
X12772Y-21783D01*
X12134Y-21590D02*
X12550Y-22005D01*
X11911Y-21812D02*
X12327Y-22228D01*
X11688Y-22035D02*
X12104Y-22451D01*
X13025Y-20699D02*
X13441Y-21115D01*
X13247Y-20476D02*
X13663Y-20892D01*
X13470Y-20253D02*
X13886Y-20669D01*
X13693Y-20031D02*
X14109Y-20446D01*
X13916Y-19808D02*
X14331Y-20224D01*
X12802Y-24519D02*
X13218Y-24103D01*
X15984Y-21337D02*
X16400Y-20921D01*
X12579Y-24297D02*
X12995Y-23881D01*
X15761Y-21115D02*
X16177Y-20699D01*
X15539Y-20892D02*
X15954Y-20476D01*
X12357Y-24074D02*
X12772Y-23658D01*
X12134Y-23851D02*
X12550Y-23435D01*
X15316Y-20669D02*
X15732Y-20253D01*
X15093Y-20446D02*
X15509Y-20031D01*
X11911Y-23628D02*
X12327Y-23213D01*
X11688Y-23406D02*
X12104Y-22990D01*
X14870Y-20224D02*
X15286Y-19808D01*
X16207Y-21560D02*
X16622Y-21144D01*
X13025Y-24742D02*
X13441Y-24326D01*
X13247Y-24965D02*
X13663Y-24549D01*
X16429Y-21783D02*
X16845Y-21367D01*
X16652Y-22005D02*
X17068Y-21590D01*
X13470Y-25187D02*
X13886Y-24772D01*
X13693Y-25410D02*
X14109Y-24994D01*
X16875Y-22228D02*
X17291Y-21812D01*
X17098Y-22451D02*
X17513Y-22035D01*
X13916Y-25633D02*
X14331Y-25217D01*
G54D14*
X6526Y-3771D03*
X7276Y-3771D03*
G54D15*
X23801Y-21647D03*
X23801Y-20897D03*
X23801Y-22647D03*
X23801Y-23397D03*
X8901Y-23145D03*
X8901Y-23895D03*
G54D14*
X11771Y-20434D03*
X11021Y-20434D03*
X22226Y-23472D03*
X22976Y-23472D03*
X20726Y-21722D03*
X21476Y-21722D03*
X7626Y-4921D03*
X6876Y-4921D03*
G54D15*
X8751Y-5446D03*
X8751Y-4696D03*
X7901Y-24695D03*
X7901Y-23945D03*
G54D14*
X20726Y-20772D03*
X21476Y-20772D03*
G54D15*
X7901Y-23095D03*
X7901Y-22345D03*
G54D14*
X14226Y-43270D03*
X13476Y-43270D03*
X5126Y-43220D03*
X4376Y-43220D03*
X28226Y-20872D03*
X28976Y-20872D03*
X28226Y-13372D03*
X28976Y-13372D03*
X28376Y-5821D03*
X27626Y-5821D03*
X20876Y-28620D03*
X20126Y-28620D03*
X20976Y-16120D03*
X20226Y-16120D03*
X20976Y-13621D03*
X20226Y-13621D03*
X20876Y-5821D03*
X20126Y-5821D03*
G54D16*
X7225Y-16746D03*
X7225Y-18746D03*
X7225Y-20746D03*
X7225Y-17746D03*
X7225Y-19746D03*
X7225Y-15746D03*
G54D17*
X4101Y-7021D03*
X1101Y-7021D03*
G54D18*
X4601Y-39120D03*
X2101Y-40120D03*
G54D19*
X3601Y-41120D03*
G54D20*
X1601Y-41120D03*
X5601Y-41120D03*
G54D18*
X17601Y-28120D03*
X20101Y-27120D03*
G54D19*
X18601Y-26120D03*
G54D20*
X20601Y-26120D03*
X16601Y-26120D03*
G54D18*
X17601Y-13121D03*
X20101Y-12121D03*
G54D19*
X18601Y-11121D03*
G54D20*
X20601Y-11121D03*
X16601Y-11121D03*
G54D18*
X25101Y-5622D03*
X27601Y-4622D03*
G54D19*
X26101Y-3622D03*
G54D20*
X28101Y-3622D03*
X24101Y-3622D03*
G54D18*
X17601Y-5622D03*
X20101Y-4622D03*
G54D19*
X18601Y-3622D03*
G54D20*
X20601Y-3622D03*
X16601Y-3622D03*
G54D18*
X17601Y-20620D03*
X20101Y-19620D03*
G54D19*
X18601Y-18620D03*
G54D20*
X20601Y-18620D03*
X16601Y-18620D03*
G54D18*
X10101Y-43122D03*
X12601Y-42122D03*
G54D19*
X11101Y-41122D03*
G54D20*
X13101Y-41122D03*
X9101Y-41122D03*
G54D21*
X26601Y-1621D03*
G54D22*
X25601Y-1621D03*
G54D21*
X4101Y-1621D03*
G54D22*
X3101Y-1621D03*
G54D14*
X13476Y-28620D03*
X12726Y-28620D03*
X28226Y-35872D03*
X28976Y-35872D03*
X28226Y-28372D03*
X28976Y-28372D03*
X20976Y-36120D03*
X20226Y-36120D03*
X14226Y-36372D03*
X13476Y-36372D03*
X4376Y-35720D03*
X5126Y-35720D03*
X5976Y-21120D03*
X5226Y-21120D03*
X5876Y-5821D03*
X5126Y-5821D03*
X13476Y-16120D03*
X12726Y-16120D03*
X13476Y-13621D03*
X12726Y-13621D03*
X5976Y-28620D03*
X5226Y-28620D03*
X5976Y-13621D03*
X5226Y-13621D03*
X13376Y-5821D03*
X12626Y-5821D03*
G54D18*
X2601Y-5621D03*
X5101Y-4621D03*
G54D19*
X3601Y-3621D03*
G54D20*
X5601Y-3621D03*
X1601Y-3621D03*
G54D18*
X2601Y-28120D03*
X5101Y-27120D03*
G54D19*
X3601Y-26120D03*
G54D20*
X5601Y-26120D03*
X1601Y-26120D03*
G54D18*
X10101Y-28120D03*
X12601Y-27120D03*
G54D19*
X11101Y-26120D03*
G54D20*
X13101Y-26120D03*
X9101Y-26120D03*
G54D18*
X10101Y-35620D03*
X12601Y-34620D03*
G54D19*
X11101Y-33620D03*
G54D20*
X13101Y-33620D03*
X9101Y-33620D03*
G54D18*
X17601Y-35620D03*
X20101Y-34620D03*
G54D19*
X18601Y-33620D03*
G54D20*
X20601Y-33620D03*
X16601Y-33620D03*
G54D18*
X4601Y-31620D03*
X2101Y-32620D03*
G54D19*
X3601Y-33620D03*
G54D20*
X1601Y-33620D03*
X5601Y-33620D03*
G54D18*
X10101Y-20620D03*
X12601Y-19620D03*
G54D19*
X11101Y-18620D03*
G54D20*
X13101Y-18620D03*
X9101Y-18620D03*
G54D18*
X2601Y-20620D03*
X5101Y-19620D03*
G54D19*
X3601Y-18620D03*
G54D20*
X5601Y-18620D03*
X1601Y-18620D03*
G54D18*
X10101Y-13121D03*
X12601Y-12121D03*
G54D19*
X11101Y-11121D03*
G54D20*
X13101Y-11121D03*
X9101Y-11121D03*
G54D18*
X25101Y-35622D03*
X27601Y-34622D03*
G54D19*
X26101Y-33622D03*
G54D20*
X28101Y-33622D03*
X24101Y-33622D03*
G54D18*
X25101Y-28122D03*
X27601Y-27122D03*
G54D19*
X26101Y-26122D03*
G54D20*
X28101Y-26122D03*
X24101Y-26122D03*
G54D18*
X2601Y-13121D03*
X5101Y-12121D03*
G54D19*
X3601Y-11121D03*
G54D20*
X5601Y-11121D03*
X1601Y-11121D03*
G54D18*
X10101Y-5621D03*
X12601Y-4621D03*
G54D19*
X11101Y-3621D03*
G54D20*
X13101Y-3621D03*
X9101Y-3621D03*
G54D17*
X22751Y-1621D03*
X22751Y-4621D03*
X14601Y-7021D03*
X11601Y-7021D03*
X16101Y-6971D03*
X19101Y-6971D03*
G54D21*
X11601Y-1621D03*
G54D22*
X10601Y-1621D03*
G54D21*
X19101Y-1621D03*
G54D22*
X18101Y-1621D03*
G54D14*
X20976Y-43622D03*
X20226Y-43622D03*
X28476Y-43622D03*
X27726Y-43622D03*
G54D18*
X6351Y-35622D03*
X8851Y-34622D03*
G54D19*
X7351Y-33622D03*
G54D20*
X9351Y-33622D03*
X5351Y-33622D03*
G54D23*
X12051Y-36372D03*
X2651Y-36372D03*
G54D19*
X12051Y-30372D03*
X2651Y-30372D03*
G54D18*
X28101Y-30872D03*
X27101Y-28372D03*
G54D19*
X26101Y-29872D03*
G54D20*
X26101Y-27872D03*
X26101Y-31872D03*
G54D23*
X28851Y-25172D03*
X28851Y-34572D03*
G54D19*
X22851Y-25172D03*
X22851Y-34572D03*
G54D18*
X28101Y-15872D03*
X27101Y-13372D03*
G54D19*
X26101Y-14872D03*
G54D20*
X26101Y-12872D03*
X26101Y-16872D03*
G54D23*
X28851Y-10172D03*
X28851Y-19572D03*
G54D19*
X22851Y-10172D03*
X22851Y-19572D03*
G54D18*
X17601Y-43122D03*
X20101Y-42122D03*
G54D19*
X18601Y-41122D03*
G54D20*
X20601Y-41122D03*
X16601Y-41122D03*
G54D18*
X25101Y-43122D03*
X27601Y-42122D03*
G54D19*
X26101Y-41122D03*
G54D20*
X28101Y-41122D03*
X24101Y-41122D03*
G54D18*
X25101Y-13122D03*
X27601Y-12122D03*
G54D19*
X26101Y-11122D03*
G54D20*
X28101Y-11122D03*
X24101Y-11122D03*
G54D18*
X25101Y-20622D03*
X27601Y-19622D03*
G54D19*
X26101Y-18622D03*
G54D20*
X28101Y-18622D03*
X24101Y-18622D03*
G54D18*
X6351Y-43122D03*
X8851Y-42122D03*
G54D19*
X7351Y-41122D03*
G54D20*
X9351Y-41122D03*
X5351Y-41122D03*
G54D23*
X12051Y-43872D03*
X2651Y-43872D03*
G54D19*
X12051Y-37872D03*
X2651Y-37872D03*
G54D18*
X28101Y-23372D03*
X27101Y-20872D03*
G54D19*
X26101Y-22372D03*
G54D20*
X26101Y-20372D03*
X26101Y-24372D03*
G54D23*
X28851Y-17672D03*
X28851Y-27072D03*
G54D19*
X22851Y-17672D03*
X22851Y-27072D03*
G54D18*
X28101Y-38372D03*
X27101Y-35872D03*
G54D19*
X26101Y-37372D03*
G54D20*
X26101Y-35372D03*
X26101Y-39372D03*
G54D23*
X28851Y-32672D03*
X28851Y-42072D03*
G54D19*
X22851Y-32672D03*
X22851Y-42072D03*
G54D24*
X352Y-36620D03*
X29351Y-371D03*
X29352Y-36670D03*
X351Y-322D03*
X29351Y-44372D03*
X351Y-44372D03*
G54D25*
X502Y-8121D03*
X502Y-8621D03*
X502Y-9121D03*
X502Y-9621D03*
X502Y-10121D03*
X502Y-10621D03*
X502Y-11621D03*
X502Y-12121D03*
X502Y-12621D03*
X502Y-13121D03*
G54D24*
X29702Y-37320D03*
X28202Y-37320D03*
X24702Y-37320D03*
X23202Y-37320D03*
X21702Y-37320D03*
X20202Y-37320D03*
G54D25*
X502Y-15120D03*
X502Y-14620D03*
X502Y-14120D03*
G54D24*
X18702Y-37320D03*
X17202Y-37320D03*
X15702Y-37320D03*
X14202Y-37320D03*
X10202Y-37320D03*
X8702Y-37320D03*
X7202Y-37320D03*
X5702Y-37320D03*
X4202Y-37320D03*
X1202Y-37320D03*
X2Y-37320D03*
G54D26*
X7351Y-29870D03*
G54D27*
X7851Y-29870D03*
X6851Y-29870D03*
X7351Y-29870D03*
G54D26*
X22351Y-29870D03*
G54D27*
X22851Y-29870D03*
X21851Y-29870D03*
X22351Y-29870D03*
G54D26*
X7351Y-7371D03*
G54D27*
X7851Y-7371D03*
X6851Y-7371D03*
X7351Y-7371D03*
G54D26*
X14851Y-39970D03*
G54D27*
X15351Y-39970D03*
X14351Y-39970D03*
X14851Y-39970D03*
G54D26*
X22351Y-7371D03*
G54D27*
X22851Y-7371D03*
X21851Y-7371D03*
X22351Y-7371D03*
G54D28*
X9104Y-775D03*
X5226Y-775D03*
G54D29*
X5226Y-2449D03*
X9104Y-2449D03*
G54D30*
X7165Y-2449D03*
X6850Y-2449D03*
X6535Y-2449D03*
X7480Y-2449D03*
X7795Y-2449D03*
G54D31*
X6299Y-1523D03*
X8031Y-1523D03*
G54D24*
X18312Y-20989D03*
X17905Y-22272D03*
X16666Y-17185D03*
X15573Y-21453D03*
X15708Y-21986D03*
X8839Y-17879D03*
X6463Y-24307D03*
X14318Y-23761D03*
X2706Y-11765D03*
X15624Y-23945D03*
X14768Y-26736D03*
X11361Y-13792D03*
X20697Y-14183D03*
X23919Y-14741D03*
X17055Y-19283D03*
X6229Y-15585D03*
X9942Y-21970D03*
X14017Y-21629D03*
X4645Y-9621D03*
X15045Y-23729D03*
X14409Y-12841D03*
X4371Y-12795D03*
X2458Y-15025D03*
X13775Y-18024D03*
X8693Y-20214D03*
X9363Y-19724D03*
X14792Y-19779D03*
X17618Y-16277D03*
X13117Y-22143D03*
X7429Y-3218D03*
X11374Y-21040D03*
X8831Y-24679D03*
X12446Y-24679D03*
X22759Y-21124D03*
X13923Y-22421D03*
X21593Y-22910D03*
X14602Y-22910D03*
X2079Y-16253D03*
X6033Y-2182D03*
X10708Y-19790D03*
G54D13*
X18312Y-19741D02*
X18312Y-20989D01*
X17412Y-18841D02*
X18312Y-19741D01*
X17412Y-18439D02*
X17412Y-18841D01*
X16309Y-17336D02*
X17412Y-18439D01*
X16309Y-16704D02*
X16309Y-17336D01*
X14766Y-15161D02*
X16309Y-16704D01*
X14766Y-7186D02*
X14766Y-15161D01*
X14601Y-7021D02*
X14766Y-7186D01*
X17027Y-22720D02*
X16482Y-23265D01*
X17456Y-22720D02*
X17027Y-22720D01*
X17905Y-22272D02*
X17456Y-22720D01*
X16860Y-23643D02*
X16482Y-23265D01*
X15573Y-21453D02*
X15573Y-21453D01*
X15681Y-21453D02*
X15573Y-21453D01*
X16074Y-21845D02*
X15681Y-21453D01*
X16074Y-23302D02*
X16074Y-21845D01*
X16637Y-23866D02*
X16074Y-23302D01*
X16101Y-16157D02*
X16101Y-6971D01*
X16666Y-16722D02*
X16101Y-16157D01*
X16666Y-17185D02*
X16666Y-16722D01*
X15708Y-23382D02*
X16415Y-24089D01*
X15708Y-21986D02*
X15708Y-23382D01*
X11812Y-23198D02*
X11896Y-23198D01*
X10227Y-21612D02*
X11812Y-23198D01*
X9887Y-21612D02*
X10227Y-21612D01*
X9061Y-20786D02*
X9887Y-21612D01*
X9061Y-19926D02*
X9061Y-20786D01*
X8592Y-19458D02*
X9061Y-19926D01*
X8592Y-18125D02*
X8592Y-19458D01*
X8839Y-17879D02*
X8592Y-18125D01*
X5126Y-35720D02*
X5126Y-36155D01*
X5126Y-43220D02*
X5126Y-42785D01*
X4849Y-42508D02*
X5126Y-42785D01*
X4849Y-40274D02*
X4849Y-42508D01*
X5212Y-39911D02*
X4849Y-40274D01*
X5212Y-36242D02*
X5212Y-39911D01*
X5126Y-36155D02*
X5212Y-36242D01*
X5126Y-35720D02*
X5126Y-35285D01*
X4849Y-35008D02*
X5126Y-35285D01*
X4849Y-32774D02*
X4849Y-35008D01*
X5732Y-31891D02*
X4849Y-32774D01*
X5732Y-29300D02*
X5732Y-31891D01*
X5976Y-29055D02*
X5732Y-29300D01*
X5976Y-28620D02*
X5976Y-29055D01*
X5976Y-21120D02*
X5976Y-21555D01*
X5976Y-28620D02*
X5976Y-28185D01*
X15746Y-24757D02*
X15369Y-24379D01*
X6109Y-24307D02*
X6463Y-24307D01*
X6109Y-28052D02*
X6109Y-24307D01*
X5976Y-28185D02*
X6109Y-28052D01*
X6109Y-21689D02*
X5976Y-21555D01*
X6109Y-24307D02*
X6109Y-21689D01*
X5876Y-5821D02*
X5876Y-6256D01*
X4631Y-7500D02*
X5876Y-6256D01*
X3530Y-7500D02*
X4631Y-7500D01*
X2558Y-6529D02*
X3530Y-7500D01*
X910Y-6529D02*
X2558Y-6529D01*
X622Y-6817D02*
X910Y-6529D01*
X622Y-7521D02*
X622Y-6817D01*
X2641Y-9541D02*
X622Y-7521D01*
X2641Y-11701D02*
X2641Y-9541D01*
X2706Y-11765D02*
X2641Y-11701D01*
X5976Y-13621D02*
X5641Y-13621D01*
X5976Y-21120D02*
X5976Y-20685D01*
X5641Y-13327D02*
X5641Y-13621D01*
X5497Y-13184D02*
X5641Y-13327D01*
X4890Y-13184D02*
X5497Y-13184D01*
X6115Y-20546D02*
X5976Y-20685D01*
X6115Y-17359D02*
X6115Y-20546D01*
X4890Y-16133D02*
X6115Y-17359D01*
X4890Y-13184D02*
X4890Y-16133D01*
X14936Y-24379D02*
X14318Y-23761D01*
X15369Y-24379D02*
X14936Y-24379D01*
X15369Y-24379D02*
X15369Y-24379D01*
X3360Y-12419D02*
X2706Y-11765D01*
X4500Y-12419D02*
X3360Y-12419D01*
X4890Y-12809D02*
X4500Y-12419D01*
X4890Y-13184D02*
X4890Y-12809D01*
X13476Y-28620D02*
X13811Y-28620D01*
X14226Y-42770D02*
X14226Y-43270D01*
X16407Y-40590D02*
X14226Y-42770D01*
X16407Y-38552D02*
X16407Y-40590D01*
X14561Y-36707D02*
X16407Y-38552D01*
X14561Y-36372D02*
X14561Y-36707D01*
X14226Y-36372D02*
X14561Y-36372D01*
X13476Y-16120D02*
X13811Y-16120D01*
X13610Y-13051D02*
X13476Y-13185D01*
X13610Y-6490D02*
X13610Y-13051D01*
X13376Y-6256D02*
X13610Y-6490D01*
X13376Y-5821D02*
X13376Y-6256D01*
X13476Y-13621D02*
X13476Y-13185D01*
X13476Y-13621D02*
X13141Y-13621D01*
X14226Y-29035D02*
X14226Y-36372D01*
X13811Y-28620D02*
X14226Y-29035D01*
X13476Y-28028D02*
X13476Y-28620D01*
X14768Y-26736D02*
X13476Y-28028D01*
X14200Y-16509D02*
X13811Y-16120D01*
X14200Y-19722D02*
X14200Y-16509D01*
X14601Y-20123D02*
X14200Y-19722D01*
X14601Y-21206D02*
X14601Y-20123D01*
X15319Y-21924D02*
X14601Y-21206D01*
X15319Y-23498D02*
X15319Y-21924D01*
X15624Y-23803D02*
X15319Y-23498D01*
X15624Y-23945D02*
X15624Y-23803D01*
X15624Y-24124D02*
X15624Y-23945D01*
X15591Y-24156D02*
X15624Y-24124D01*
X15969Y-24534D02*
X15591Y-24156D01*
X11950Y-14056D02*
X12999Y-14056D01*
X11687Y-13792D02*
X11950Y-14056D01*
X11361Y-13792D02*
X11687Y-13792D01*
X13476Y-14533D02*
X12999Y-14056D01*
X13476Y-16120D02*
X13476Y-14533D01*
X13141Y-13914D02*
X13141Y-13621D01*
X12999Y-14056D02*
X13141Y-13914D01*
X20801Y-6330D02*
X20876Y-6256D01*
X20801Y-8219D02*
X20801Y-6330D01*
X21115Y-8533D02*
X20801Y-8219D01*
X21115Y-13047D02*
X21115Y-8533D01*
X20976Y-13185D02*
X21115Y-13047D01*
X20976Y-13621D02*
X20976Y-13185D01*
X20876Y-5821D02*
X20876Y-6256D01*
X21120Y-43042D02*
X20976Y-43186D01*
X21120Y-36700D02*
X21120Y-43042D01*
X20976Y-36555D02*
X21120Y-36700D01*
X20976Y-43622D02*
X20976Y-43186D01*
X20876Y-28620D02*
X21211Y-28620D01*
X20976Y-36338D02*
X20976Y-36555D01*
X20976Y-36338D02*
X20976Y-36120D01*
X20976Y-36120D02*
X20976Y-35685D01*
X20876Y-28620D02*
X20876Y-29055D01*
X14124Y-25514D02*
X14124Y-25425D01*
X17743Y-29133D02*
X14124Y-25514D01*
X20798Y-29133D02*
X17743Y-29133D01*
X20798Y-32661D02*
X20798Y-29133D01*
X21115Y-32977D02*
X20798Y-32661D01*
X21115Y-35546D02*
X21115Y-32977D01*
X20976Y-35685D02*
X21115Y-35546D01*
X20798Y-29133D02*
X20876Y-29055D01*
X20824Y-14056D02*
X20697Y-14183D01*
X20976Y-14056D02*
X20824Y-14056D01*
X20976Y-13621D02*
X20976Y-14056D01*
X21211Y-25463D02*
X21211Y-28620D01*
X22525Y-24149D02*
X21211Y-25463D01*
X24090Y-24149D02*
X22525Y-24149D01*
X24516Y-23722D02*
X24090Y-24149D01*
X24516Y-21232D02*
X24516Y-23722D01*
X24396Y-21112D02*
X24516Y-21232D01*
X24396Y-19767D02*
X24396Y-21112D01*
X23246Y-18617D02*
X24396Y-19767D01*
X22448Y-18617D02*
X23246Y-18617D01*
X20976Y-17145D02*
X22448Y-18617D01*
X20976Y-16120D02*
X20976Y-17145D01*
X20697Y-15407D02*
X20697Y-14183D01*
X20976Y-15685D02*
X20697Y-15407D01*
X20976Y-16120D02*
X20976Y-15685D01*
X28376Y-5821D02*
X28041Y-5821D01*
X28976Y-35872D02*
X28670Y-35872D01*
X28476Y-43622D02*
X28141Y-43622D01*
X28670Y-36244D02*
X28670Y-35872D01*
X27065Y-37849D02*
X28670Y-36244D01*
X27065Y-41495D02*
X27065Y-37849D01*
X26990Y-41570D02*
X27065Y-41495D01*
X26990Y-43583D02*
X26990Y-41570D01*
X27463Y-44057D02*
X26990Y-43583D01*
X27999Y-44057D02*
X27463Y-44057D01*
X28141Y-43915D02*
X27999Y-44057D01*
X28141Y-43622D02*
X28141Y-43915D01*
X28641Y-28707D02*
X28641Y-28372D01*
X27132Y-30216D02*
X28641Y-28707D01*
X27132Y-33985D02*
X27132Y-30216D01*
X26988Y-34128D02*
X27132Y-33985D01*
X26988Y-34892D02*
X26988Y-34128D01*
X27358Y-35261D02*
X26988Y-34892D01*
X28314Y-35261D02*
X27358Y-35261D01*
X28670Y-35618D02*
X28314Y-35261D01*
X28670Y-35872D02*
X28670Y-35618D01*
X28976Y-28372D02*
X28809Y-28372D01*
X28809Y-28372D02*
X28641Y-28372D01*
X23919Y-12307D02*
X23919Y-14741D01*
X24783Y-11443D02*
X23919Y-12307D01*
X24783Y-9414D02*
X24783Y-11443D01*
X28041Y-6156D02*
X24783Y-9414D01*
X28041Y-5821D02*
X28041Y-6156D01*
X28809Y-28271D02*
X28809Y-28372D01*
X28299Y-27761D02*
X28809Y-28271D01*
X27358Y-27761D02*
X28299Y-27761D01*
X26988Y-27392D02*
X27358Y-27761D01*
X26988Y-26628D02*
X26988Y-27392D01*
X27132Y-26485D02*
X26988Y-26628D01*
X27132Y-25228D02*
X27132Y-26485D01*
X28976Y-23384D02*
X27132Y-25228D01*
X28976Y-20872D02*
X28976Y-23384D01*
X28976Y-15884D02*
X28976Y-13372D01*
X27776Y-17084D02*
X28976Y-15884D01*
X27073Y-17084D02*
X27776Y-17084D01*
X28641Y-20578D02*
X28641Y-20872D01*
X28429Y-20366D02*
X28641Y-20578D01*
X27458Y-20366D02*
X28429Y-20366D01*
X26974Y-19882D02*
X27458Y-20366D01*
X26974Y-19241D02*
X26974Y-19882D01*
X27073Y-19143D02*
X26974Y-19241D01*
X27073Y-17084D02*
X27073Y-19143D01*
X26129Y-16140D02*
X27073Y-17084D01*
X25318Y-16140D02*
X26129Y-16140D01*
X23919Y-14741D02*
X25318Y-16140D01*
X28976Y-20872D02*
X28641Y-20872D01*
X17319Y-21501D02*
X17461Y-21643D01*
X17319Y-21310D02*
X17319Y-21501D01*
X16987Y-20977D02*
X17319Y-21310D01*
X16987Y-19351D02*
X16987Y-20977D01*
X17055Y-19283D02*
X16987Y-19351D01*
X17083Y-22020D02*
X17461Y-21643D01*
X6654Y-19175D02*
X7225Y-19746D01*
X6654Y-16009D02*
X6654Y-19175D01*
X6229Y-15585D02*
X6654Y-16009D01*
X6798Y-15016D02*
X6229Y-15585D01*
X6798Y-11247D02*
X6798Y-15016D01*
X2572Y-7021D02*
X6798Y-11247D01*
X1101Y-7021D02*
X2572Y-7021D01*
X9942Y-21999D02*
X9942Y-21970D01*
X11596Y-23653D02*
X9942Y-21999D01*
X11886Y-23653D02*
X11596Y-23653D01*
X12119Y-23420D02*
X11886Y-23653D01*
X24862Y-5382D02*
X25101Y-5622D01*
X20628Y-5382D02*
X24862Y-5382D01*
X20461Y-5549D02*
X20628Y-5382D01*
X20461Y-6166D02*
X20461Y-5549D01*
X20342Y-6285D02*
X20461Y-6166D01*
X18265Y-6285D02*
X20342Y-6285D01*
X17601Y-5622D02*
X18265Y-6285D01*
X12697Y-20371D02*
X13233Y-20907D01*
X12481Y-20371D02*
X12697Y-20371D01*
X11991Y-19881D02*
X12481Y-20371D01*
X11991Y-19067D02*
X11991Y-19881D01*
X12065Y-18993D02*
X11991Y-19067D01*
X12065Y-17101D02*
X12065Y-18993D01*
X9488Y-14525D02*
X12065Y-17101D01*
X9488Y-12856D02*
X9488Y-14525D01*
X10101Y-12244D02*
X9488Y-12856D01*
X10101Y-5621D02*
X10101Y-12244D01*
X28101Y-15535D02*
X28101Y-15872D01*
X26474Y-13908D02*
X28101Y-15535D01*
X25887Y-13908D02*
X26474Y-13908D01*
X25101Y-13122D02*
X25887Y-13908D01*
X13455Y-20684D02*
X13078Y-20306D01*
X502Y-8621D02*
X962Y-8621D01*
X2336Y-12856D02*
X2601Y-13121D01*
X2336Y-9995D02*
X2336Y-12856D01*
X962Y-8621D02*
X2336Y-9995D01*
X13218Y-20166D02*
X13078Y-20306D01*
X13218Y-19972D02*
X13218Y-20166D01*
X13603Y-19587D02*
X13218Y-19972D01*
X13603Y-18358D02*
X13603Y-19587D01*
X13418Y-18172D02*
X13603Y-18358D01*
X13418Y-17950D02*
X13418Y-18172D01*
X13351Y-17883D02*
X13418Y-17950D01*
X13351Y-17546D02*
X13351Y-17883D01*
X13341Y-17535D02*
X13351Y-17546D01*
X13341Y-17533D02*
X13341Y-17535D01*
X13061Y-17254D02*
X13341Y-17533D01*
X13061Y-15777D02*
X13061Y-17254D01*
X11433Y-14149D02*
X13061Y-15777D01*
X11213Y-14149D02*
X11433Y-14149D01*
X10184Y-13121D02*
X11213Y-14149D01*
X10101Y-13121D02*
X10184Y-13121D01*
X28101Y-23035D02*
X28101Y-23372D01*
X26474Y-21408D02*
X28101Y-23035D01*
X25887Y-21408D02*
X26474Y-21408D01*
X25101Y-20622D02*
X25887Y-21408D01*
X13678Y-20461D02*
X14056Y-20839D01*
X14017Y-20877D02*
X14017Y-21629D01*
X14056Y-20839D02*
X14017Y-20877D01*
X502Y-9121D02*
X962Y-9121D01*
X2096Y-10255D02*
X962Y-9121D01*
X2096Y-12573D02*
X2096Y-10255D01*
X1983Y-12687D02*
X2096Y-12573D01*
X1983Y-13800D02*
X1983Y-12687D01*
X2815Y-14632D02*
X1983Y-13800D01*
X2815Y-16369D02*
X2815Y-14632D01*
X2601Y-16583D02*
X2815Y-16369D01*
X2601Y-20620D02*
X2601Y-16583D01*
X4832Y-9621D02*
X4645Y-9621D01*
X6558Y-11347D02*
X4832Y-9621D01*
X6558Y-14145D02*
X6558Y-11347D01*
X5872Y-14831D02*
X6558Y-14145D01*
X5872Y-15942D02*
X5872Y-14831D01*
X6413Y-16483D02*
X5872Y-15942D01*
X6413Y-22313D02*
X6413Y-16483D01*
X7620Y-23520D02*
X6413Y-22313D01*
X9205Y-23520D02*
X7620Y-23520D01*
X9596Y-23911D02*
X9205Y-23520D01*
X9596Y-27616D02*
X9596Y-23911D01*
X10101Y-28120D02*
X9596Y-27616D01*
X14361Y-20698D02*
X13901Y-20238D01*
X14361Y-21468D02*
X14361Y-20698D01*
X15045Y-22152D02*
X14361Y-21468D01*
X15045Y-23729D02*
X15045Y-22152D01*
X15953Y-20032D02*
X15524Y-20461D01*
X15953Y-17027D02*
X15953Y-20032D01*
X14409Y-15484D02*
X15953Y-17027D01*
X14409Y-12841D02*
X14409Y-15484D01*
X4489Y-31509D02*
X4601Y-31620D01*
X4489Y-26569D02*
X4489Y-31509D01*
X4565Y-26493D02*
X4489Y-26569D01*
X4565Y-21574D02*
X4565Y-26493D01*
X4476Y-21485D02*
X4565Y-21574D01*
X4476Y-19082D02*
X4476Y-21485D01*
X4565Y-18993D02*
X4476Y-19082D01*
X4565Y-12989D02*
X4565Y-18993D01*
X4371Y-12795D02*
X4565Y-12989D01*
X502Y-10621D02*
X502Y-10991D01*
X13843Y-19736D02*
X14124Y-20016D01*
X13843Y-18093D02*
X13843Y-19736D01*
X13775Y-18024D02*
X13843Y-18093D01*
X4711Y-39010D02*
X4601Y-39120D01*
X4711Y-35351D02*
X4711Y-39010D01*
X4608Y-35249D02*
X4711Y-35351D01*
X4608Y-32775D02*
X4608Y-35249D01*
X3597Y-31763D02*
X4608Y-32775D01*
X3597Y-27510D02*
X3597Y-31763D01*
X2656Y-26569D02*
X3597Y-27510D01*
X2656Y-26290D02*
X2656Y-26569D01*
X1090Y-24724D02*
X2656Y-26290D01*
X1090Y-17755D02*
X1090Y-24724D01*
X2440Y-16405D02*
X1090Y-17755D01*
X2440Y-15025D02*
X2440Y-16405D01*
X1226Y-13811D02*
X2440Y-15025D01*
X1226Y-11715D02*
X1226Y-13811D01*
X502Y-10991D02*
X1226Y-11715D01*
X2440Y-15025D02*
X2458Y-15025D01*
X12342Y-23643D02*
X11964Y-24021D01*
X11843Y-23900D02*
X11964Y-24021D01*
X11504Y-23900D02*
X11843Y-23900D01*
X9930Y-22326D02*
X11504Y-23900D01*
X9794Y-22326D02*
X9930Y-22326D01*
X9585Y-22117D02*
X9794Y-22326D01*
X9585Y-21981D02*
X9585Y-22117D01*
X9531Y-21928D02*
X9585Y-21981D01*
X9531Y-21866D02*
X9531Y-21928D01*
X9498Y-21833D02*
X9531Y-21866D01*
X9498Y-21833D02*
X9498Y-21833D01*
X8887Y-21222D02*
X9498Y-21833D01*
X8887Y-20959D02*
X8887Y-21222D01*
X8887Y-20959D02*
X8887Y-20959D01*
X8887Y-20952D02*
X8887Y-20959D01*
X8821Y-20885D02*
X8887Y-20952D01*
X8821Y-20546D02*
X8821Y-20885D01*
X8770Y-20495D02*
X8821Y-20546D01*
X8770Y-20292D02*
X8770Y-20495D01*
X8693Y-20214D02*
X8770Y-20292D01*
X7225Y-21334D02*
X7901Y-22010D01*
X7225Y-20746D02*
X7225Y-21334D01*
X7901Y-22345D02*
X7901Y-22010D01*
X12119Y-22020D02*
X11741Y-21643D01*
X14064Y-4623D02*
X14064Y-5393D01*
X11741Y-21643D02*
X11741Y-21643D01*
X10597Y-21643D02*
X11741Y-21643D01*
X10242Y-21287D02*
X10597Y-21643D01*
X9902Y-21287D02*
X10242Y-21287D01*
X9363Y-20749D02*
X9902Y-21287D01*
X9363Y-19724D02*
X9363Y-20749D01*
X13744Y-5393D02*
X14064Y-5393D01*
X13707Y-5355D02*
X13744Y-5393D01*
X13142Y-5355D02*
X13707Y-5355D01*
X12961Y-5536D02*
X13142Y-5355D01*
X12961Y-6361D02*
X12961Y-5536D01*
X11805Y-7517D02*
X12961Y-6361D01*
X11426Y-7517D02*
X11805Y-7517D01*
X10864Y-6956D02*
X11426Y-7517D01*
X10864Y-5513D02*
X10864Y-6956D01*
X10360Y-5009D02*
X10864Y-5513D01*
X9846Y-5009D02*
X10360Y-5009D01*
X9475Y-5381D02*
X9846Y-5009D01*
X9475Y-5910D02*
X9475Y-5381D01*
X9597Y-6032D02*
X9475Y-5910D01*
X9597Y-12408D02*
X9597Y-6032D01*
X9237Y-12768D02*
X9597Y-12408D01*
X9237Y-15626D02*
X9237Y-12768D01*
X9601Y-15990D02*
X9237Y-15626D01*
X9601Y-19486D02*
X9601Y-15990D01*
X9363Y-19724D02*
X9601Y-19486D01*
G54D32*
X21864Y-21689D02*
X21831Y-21722D01*
X22083Y-21689D02*
X21864Y-21689D01*
X21476Y-21722D02*
X21831Y-21722D01*
X23801Y-23397D02*
X23346Y-23397D01*
X22286Y-21689D02*
X22184Y-21689D01*
X22184Y-21689D02*
X22083Y-21689D01*
X23193Y-23244D02*
X23346Y-23397D01*
X22976Y-23244D02*
X23193Y-23244D01*
X22976Y-23070D02*
X22916Y-23010D01*
X22976Y-23244D02*
X22976Y-23070D01*
X22916Y-22555D02*
X22916Y-23010D01*
X22976Y-23472D02*
X22976Y-23244D01*
X15639Y-4623D02*
X15639Y-5413D01*
X14841Y-19779D02*
X14792Y-19779D01*
X15078Y-20016D02*
X14841Y-19779D01*
X12564Y-21575D02*
X12956Y-21967D01*
X15639Y-4623D02*
X15639Y-3832D01*
X22916Y-22555D02*
X23323Y-22555D01*
X23801Y-20897D02*
X23801Y-21252D01*
X23801Y-20897D02*
X23346Y-20897D01*
X23323Y-22414D02*
X23323Y-22555D01*
X23586Y-22151D02*
X23323Y-22414D01*
X24030Y-22151D02*
X23586Y-22151D01*
X24256Y-21924D02*
X24030Y-22151D01*
X24256Y-21396D02*
X24256Y-21924D01*
X24112Y-21252D02*
X24256Y-21396D01*
X23801Y-21252D02*
X24112Y-21252D01*
X8396Y-23945D02*
X8446Y-23895D01*
X7901Y-23945D02*
X8396Y-23945D01*
X8901Y-23895D02*
X8446Y-23895D01*
X7276Y-3771D02*
X7631Y-3771D01*
X7795Y-2449D02*
X7795Y-3121D01*
X8901Y-23895D02*
X8901Y-24250D01*
X11175Y-42964D02*
X10040Y-41829D01*
X12256Y-42964D02*
X11175Y-42964D01*
X13663Y-44372D02*
X12256Y-42964D01*
X29351Y-44372D02*
X13663Y-44372D01*
X402Y-36670D02*
X352Y-36620D01*
X402Y-43091D02*
X402Y-36670D01*
X3182Y-43091D02*
X402Y-43091D01*
X4101Y-44010D02*
X3182Y-43091D01*
X7858Y-44010D02*
X4101Y-44010D01*
X10040Y-41829D02*
X7858Y-44010D01*
X402Y-44321D02*
X351Y-44372D01*
X402Y-43091D02*
X402Y-44321D01*
X8940Y-24250D02*
X8901Y-24250D01*
X9211Y-24522D02*
X8940Y-24250D01*
X9211Y-24872D02*
X9211Y-24522D01*
X8569Y-25514D02*
X9211Y-24872D01*
X8569Y-28412D02*
X8569Y-25514D01*
X8912Y-28755D02*
X8569Y-28412D01*
X8912Y-31871D02*
X8912Y-28755D01*
X8352Y-32431D02*
X8912Y-31871D01*
X8352Y-34230D02*
X8352Y-32431D01*
X8214Y-34368D02*
X8352Y-34230D01*
X8214Y-37799D02*
X8214Y-34368D01*
X10040Y-39625D02*
X8214Y-37799D01*
X10040Y-41829D02*
X10040Y-39625D01*
X15639Y-2889D02*
X15639Y-3832D01*
X18157Y-371D02*
X15639Y-2889D01*
X29351Y-371D02*
X18157Y-371D01*
X17128Y-6903D02*
X15639Y-5413D01*
X17128Y-12664D02*
X17128Y-6903D01*
X16968Y-12825D02*
X17128Y-12664D01*
X16968Y-15626D02*
X16968Y-12825D01*
X17618Y-16277D02*
X16968Y-15626D01*
X22581Y-20728D02*
X22184Y-21125D01*
X23177Y-20728D02*
X22581Y-20728D01*
X23346Y-20897D02*
X23177Y-20728D01*
X22184Y-21125D02*
X22184Y-21689D01*
X21831Y-20772D02*
X22184Y-21125D01*
X21476Y-20772D02*
X21831Y-20772D01*
X21476Y-20772D02*
X21121Y-20772D01*
X17668Y-16277D02*
X17618Y-16277D01*
X19585Y-18193D02*
X17668Y-16277D01*
X19585Y-19046D02*
X19585Y-18193D01*
X19455Y-19176D02*
X19585Y-19046D01*
X19455Y-19883D02*
X19455Y-19176D01*
X19883Y-20312D02*
X19455Y-19883D01*
X20972Y-20312D02*
X19883Y-20312D01*
X21121Y-20461D02*
X20972Y-20312D01*
X21121Y-20772D02*
X21121Y-20461D01*
X12956Y-21982D02*
X13117Y-22143D01*
X12956Y-21967D02*
X12956Y-21982D01*
X12956Y-21967D02*
X12956Y-21967D01*
X13233Y-24534D02*
X13625Y-24142D01*
X8156Y-4295D02*
X7631Y-3771D01*
X8156Y-4806D02*
X8156Y-4295D01*
X8400Y-5051D02*
X8156Y-4806D01*
X9109Y-5051D02*
X8400Y-5051D01*
X9766Y-4394D02*
X9109Y-5051D01*
X9766Y-1400D02*
X9766Y-4394D01*
X10430Y-735D02*
X9766Y-1400D01*
X12135Y-735D02*
X10430Y-735D01*
X14290Y-2889D02*
X12135Y-735D01*
X15639Y-2889D02*
X14290Y-2889D01*
X13117Y-22864D02*
X13117Y-22143D01*
X13398Y-23145D02*
X13117Y-22864D01*
X13398Y-23519D02*
X13398Y-23145D01*
X13459Y-23581D02*
X13398Y-23519D01*
X13459Y-23977D02*
X13459Y-23581D01*
X13625Y-24142D02*
X13459Y-23977D01*
X14241Y-24142D02*
X15301Y-25202D01*
X13625Y-24142D02*
X14241Y-24142D01*
X13625Y-24142D02*
X13625Y-24142D01*
X15555Y-25456D02*
X15301Y-25202D01*
X15831Y-25456D02*
X15555Y-25456D01*
X17398Y-23888D02*
X15831Y-25456D01*
X17399Y-23888D02*
X17398Y-23888D01*
X17475Y-23812D02*
X17399Y-23888D01*
X17083Y-23420D02*
X17475Y-23812D01*
X7631Y-3218D02*
X7429Y-3218D01*
X7728Y-3121D02*
X7631Y-3218D01*
X7795Y-3121D02*
X7728Y-3121D01*
X7631Y-3218D02*
X7631Y-3771D01*
X11224Y-20889D02*
X11021Y-20889D01*
X11374Y-21040D02*
X11224Y-20889D01*
X11021Y-20434D02*
X11021Y-20889D01*
G54D13*
X12623Y-24679D02*
X12632Y-24689D01*
X12446Y-24679D02*
X12623Y-24679D01*
X13010Y-24311D02*
X12632Y-24689D01*
X8815Y-24695D02*
X8831Y-24679D01*
X7901Y-24695D02*
X8815Y-24695D01*
X13174Y-25039D02*
X13455Y-24757D01*
X12141Y-25039D02*
X13174Y-25039D01*
X8332Y-21230D02*
X12141Y-25039D01*
X8332Y-11169D02*
X8332Y-21230D01*
X9139Y-10362D02*
X8332Y-11169D01*
X9139Y-6169D02*
X9139Y-10362D01*
X8751Y-5781D02*
X9139Y-6169D01*
X8751Y-5446D02*
X8751Y-5781D01*
X7626Y-4921D02*
X7626Y-5356D01*
X13678Y-24980D02*
X13300Y-25357D01*
X13300Y-25357D02*
X13300Y-25357D01*
X12120Y-25357D02*
X13300Y-25357D01*
X8092Y-21329D02*
X12120Y-25357D01*
X8092Y-11070D02*
X8092Y-21329D01*
X8899Y-10263D02*
X8092Y-11070D01*
X8899Y-6629D02*
X8899Y-10263D01*
X7626Y-5356D02*
X8899Y-6629D01*
X11601Y-4457D02*
X11601Y-7021D01*
X12136Y-3922D02*
X11601Y-4457D01*
X12136Y-1621D02*
X12136Y-3922D01*
X11601Y-1621D02*
X12136Y-1621D01*
X23345Y-21647D02*
X23303Y-21689D01*
X23801Y-21647D02*
X23345Y-21647D01*
X22916Y-21689D02*
X23109Y-21689D01*
X23109Y-21689D02*
X23303Y-21689D01*
X13232Y-21730D02*
X13165Y-21730D01*
X13923Y-22421D02*
X13232Y-21730D01*
X22759Y-21338D02*
X22759Y-21124D01*
X23109Y-21689D02*
X22759Y-21338D01*
X12787Y-21352D02*
X13165Y-21730D01*
X23801Y-22647D02*
X23801Y-22982D01*
X22434Y-22990D02*
X22286Y-22990D01*
X22571Y-23128D02*
X22434Y-22990D01*
X22571Y-23760D02*
X22571Y-23128D01*
X22718Y-23907D02*
X22571Y-23760D01*
X23978Y-23907D02*
X22718Y-23907D01*
X24236Y-23649D02*
X23978Y-23907D01*
X24236Y-23124D02*
X24236Y-23649D01*
X24094Y-22982D02*
X24236Y-23124D01*
X23801Y-22982D02*
X24094Y-22982D01*
X22286Y-22555D02*
X22286Y-22772D01*
X22286Y-22772D02*
X22286Y-22990D01*
X21732Y-22772D02*
X21593Y-22910D01*
X22286Y-22772D02*
X21732Y-22772D01*
X13010Y-21129D02*
X13388Y-21507D01*
X14602Y-22755D02*
X14602Y-22910D01*
X14600Y-22753D02*
X14602Y-22755D01*
X14600Y-22569D02*
X14600Y-22753D01*
X14018Y-21986D02*
X14600Y-22569D01*
X13870Y-21986D02*
X14018Y-21986D01*
X13390Y-21507D02*
X13870Y-21986D01*
X13388Y-21507D02*
X13390Y-21507D01*
X6876Y-3127D02*
X6876Y-4921D01*
X6850Y-3101D02*
X6876Y-3127D01*
X6850Y-2449D02*
X6850Y-3101D01*
X8416Y-4025D02*
X8751Y-4360D01*
X8416Y-1431D02*
X8416Y-4025D01*
X8168Y-1183D02*
X8416Y-1431D01*
X7778Y-1183D02*
X8168Y-1183D01*
X7165Y-1796D02*
X7778Y-1183D01*
X7165Y-2449D02*
X7165Y-1796D01*
X8751Y-4696D02*
X8751Y-4360D01*
X17683Y-21865D02*
X17683Y-21865D01*
X19297Y-21865D02*
X17683Y-21865D01*
X20391Y-20772D02*
X19297Y-21865D01*
X20726Y-20772D02*
X20391Y-20772D01*
X17306Y-22243D02*
X17683Y-21865D01*
X20226Y-42247D02*
X20226Y-43622D01*
X20101Y-42122D02*
X20226Y-42247D01*
X27726Y-42247D02*
X27726Y-43622D01*
X27601Y-42122D02*
X27726Y-42247D01*
X13315Y-42835D02*
X13476Y-42835D01*
X12601Y-42122D02*
X13315Y-42835D01*
X13476Y-43270D02*
X13476Y-42835D01*
X20226Y-34745D02*
X20226Y-36120D01*
X20101Y-34620D02*
X20226Y-34745D01*
X13476Y-35495D02*
X13476Y-36372D01*
X12601Y-34620D02*
X13476Y-35495D01*
X5226Y-27245D02*
X5226Y-28620D01*
X5101Y-27120D02*
X5226Y-27245D01*
X28226Y-20872D02*
X27891Y-20872D01*
X27101Y-20872D02*
X27891Y-20872D01*
X2101Y-41280D02*
X4041Y-43220D01*
X2101Y-40120D02*
X2101Y-41280D01*
X4376Y-43220D02*
X4041Y-43220D01*
X4711Y-43514D02*
X4711Y-43220D01*
X4934Y-43736D02*
X4711Y-43514D01*
X7236Y-43736D02*
X4934Y-43736D01*
X8851Y-42122D02*
X7236Y-43736D01*
X4376Y-43220D02*
X4711Y-43220D01*
X28226Y-35872D02*
X27891Y-35872D01*
X27101Y-35872D02*
X27891Y-35872D01*
X27101Y-28372D02*
X28226Y-28372D01*
X2101Y-33780D02*
X4041Y-35720D01*
X2101Y-32620D02*
X2101Y-33780D01*
X4376Y-35720D02*
X4041Y-35720D01*
X28226Y-13372D02*
X27891Y-13372D01*
X27601Y-13122D02*
X27601Y-12122D01*
X27351Y-13122D02*
X27601Y-13122D01*
X27101Y-13372D02*
X27351Y-13122D01*
X27641Y-13122D02*
X27891Y-13372D01*
X27601Y-13122D02*
X27641Y-13122D01*
X20226Y-12246D02*
X20226Y-13621D01*
X20101Y-12121D02*
X20226Y-12246D01*
X12601Y-13060D02*
X12726Y-13185D01*
X12601Y-12121D02*
X12601Y-13060D01*
X12726Y-13621D02*
X12726Y-13185D01*
X5661Y-14056D02*
X5226Y-13621D01*
X6222Y-14056D02*
X5661Y-14056D01*
X6311Y-13967D02*
X6222Y-14056D01*
X6311Y-13279D02*
X6311Y-13967D01*
X5152Y-12121D02*
X6311Y-13279D01*
X5101Y-12121D02*
X5152Y-12121D01*
X5226Y-19745D02*
X5226Y-21120D01*
X5101Y-19620D02*
X5226Y-19745D01*
X27626Y-4647D02*
X27626Y-5821D01*
X27601Y-4622D02*
X27626Y-4647D01*
X20101Y-5360D02*
X20126Y-5385D01*
X20101Y-4622D02*
X20101Y-5360D01*
X20126Y-5821D02*
X20126Y-5385D01*
X12626Y-4646D02*
X12626Y-5821D01*
X12601Y-4621D02*
X12626Y-4646D01*
X4101Y-4457D02*
X4101Y-7021D01*
X4636Y-3922D02*
X4101Y-4457D01*
X4636Y-1621D02*
X4636Y-3922D01*
X4101Y-1621D02*
X4636Y-1621D01*
X20126Y-27145D02*
X20126Y-28620D01*
X20101Y-27120D02*
X20126Y-27145D01*
X5101Y-5360D02*
X5126Y-5385D01*
X5101Y-4621D02*
X5101Y-5360D01*
X5126Y-5821D02*
X5126Y-5385D01*
X12601Y-28060D02*
X12726Y-28185D01*
X12601Y-27120D02*
X12601Y-28060D01*
X12726Y-28620D02*
X12726Y-28185D01*
X20101Y-16680D02*
X20226Y-16555D01*
X20101Y-19620D02*
X20101Y-16680D01*
X20226Y-16120D02*
X20226Y-16555D01*
X12601Y-16680D02*
X12726Y-16555D01*
X12601Y-19620D02*
X12601Y-16680D01*
X12726Y-16120D02*
X12726Y-16555D01*
X23814Y-4621D02*
X22751Y-4621D01*
X24783Y-3652D02*
X23814Y-4621D01*
X24783Y-3566D02*
X24783Y-3652D01*
X26143Y-2206D02*
X24783Y-3566D01*
X26601Y-2206D02*
X26143Y-2206D01*
X26601Y-1621D02*
X26601Y-2206D01*
G54D32*
X13901Y-25202D02*
X14293Y-24810D01*
X11771Y-20434D02*
X11771Y-20889D01*
X24436Y-1010D02*
X25046Y-1621D01*
X18711Y-1010D02*
X24436Y-1010D01*
X18101Y-1621D02*
X18711Y-1010D01*
X25601Y-1621D02*
X25046Y-1621D01*
X22226Y-23472D02*
X21871Y-23472D01*
X14882Y-25229D02*
X14686Y-25033D01*
X502Y-14620D02*
X982Y-14620D01*
X6526Y-2449D02*
X6526Y-3315D01*
X6535Y-2449D02*
X6526Y-2449D01*
X6300Y-2449D02*
X6033Y-2182D01*
X6526Y-2449D02*
X6300Y-2449D01*
X6526Y-3556D02*
X6526Y-3315D01*
X13628Y-25713D02*
X13509Y-25594D01*
X13628Y-27241D02*
X13628Y-25713D01*
X13081Y-27787D02*
X13628Y-27241D01*
X13081Y-28992D02*
X13081Y-27787D01*
X12983Y-29090D02*
X13081Y-28992D01*
X12486Y-29090D02*
X12983Y-29090D01*
X10066Y-26670D02*
X12486Y-29090D01*
X10066Y-23855D02*
X10066Y-26670D01*
X9356Y-23145D02*
X10066Y-23855D01*
X8901Y-23145D02*
X9356Y-23145D01*
X13901Y-25202D02*
X13509Y-25594D01*
X6526Y-3771D02*
X6526Y-3556D01*
X6526Y-3771D02*
X6526Y-4226D01*
X7768Y-17203D02*
X7225Y-17746D01*
X7768Y-10703D02*
X7768Y-17203D01*
X5772Y-8706D02*
X7768Y-10703D01*
X5772Y-6728D02*
X5772Y-8706D01*
X6503Y-5997D02*
X5772Y-6728D01*
X6503Y-4249D02*
X6503Y-5997D01*
X6526Y-4226D02*
X6503Y-4249D01*
X7901Y-23095D02*
X8370Y-23095D01*
X8396Y-23095D02*
X8446Y-23145D01*
X8370Y-23095D02*
X8396Y-23095D01*
X8901Y-23145D02*
X8446Y-23145D01*
X14686Y-25033D02*
X14686Y-25033D01*
X14592Y-25033D02*
X14686Y-25033D01*
X14459Y-24900D02*
X14592Y-25033D01*
X14459Y-24900D02*
X14459Y-24900D01*
X14369Y-24810D02*
X14459Y-24900D01*
X14293Y-24810D02*
X14369Y-24810D01*
X14293Y-24810D02*
X14293Y-24810D01*
X15301Y-20238D02*
X15693Y-19847D01*
X12734Y-23114D02*
X12734Y-22189D01*
X13047Y-23427D02*
X12734Y-23114D01*
X13047Y-23565D02*
X13047Y-23427D01*
X13179Y-23697D02*
X13047Y-23565D01*
X12787Y-24089D02*
X13179Y-23697D01*
X12342Y-21798D02*
X12734Y-22189D01*
X15575Y-19729D02*
X15693Y-19847D01*
X15575Y-17017D02*
X15575Y-19729D01*
X14087Y-15529D02*
X15575Y-17017D01*
X14087Y-13052D02*
X14087Y-15529D01*
X14032Y-12997D02*
X14087Y-13052D01*
X14032Y-12684D02*
X14032Y-12997D01*
X14087Y-12629D02*
X14032Y-12684D01*
X14087Y-6285D02*
X14087Y-12629D01*
X14457Y-5915D02*
X14087Y-6285D01*
X14457Y-3546D02*
X14457Y-5915D01*
X11926Y-1015D02*
X14457Y-3546D01*
X11206Y-1015D02*
X11926Y-1015D01*
X10601Y-1621D02*
X11206Y-1015D01*
X14882Y-25229D02*
X15078Y-25425D01*
X20726Y-21722D02*
X20726Y-22882D01*
X21316Y-23472D02*
X21871Y-23472D01*
X20726Y-22882D02*
X21316Y-23472D01*
X15078Y-25425D02*
X15470Y-25817D01*
X17306Y-23198D02*
X17697Y-23589D01*
X17768Y-23929D02*
X17768Y-23589D01*
X15958Y-25740D02*
X17768Y-23929D01*
X15547Y-25740D02*
X15958Y-25740D01*
X15470Y-25817D02*
X15547Y-25740D01*
X18476Y-22882D02*
X17768Y-23589D01*
X20726Y-22882D02*
X18476Y-22882D01*
X17768Y-23589D02*
X17697Y-23589D01*
X982Y-15156D02*
X2079Y-16253D01*
X982Y-14620D02*
X982Y-15156D01*
X11950Y-21130D02*
X11950Y-21406D01*
X11937Y-21117D02*
X11950Y-21130D01*
X11937Y-21055D02*
X11937Y-21117D01*
X11771Y-20889D02*
X11937Y-21055D01*
X12342Y-21798D02*
X11950Y-21406D01*
X11416Y-20123D02*
X11416Y-20434D01*
X11083Y-19790D02*
X11416Y-20123D01*
X10708Y-19790D02*
X11083Y-19790D01*
X11771Y-20434D02*
X11416Y-20434D01*
X8370Y-21975D02*
X8370Y-23095D01*
X7832Y-21437D02*
X8370Y-21975D01*
X7832Y-18354D02*
X7832Y-21437D01*
X7225Y-17746D02*
X7832Y-18354D01*
G54D10*
G36*
X4622Y-1324D02*
X4507Y-1152D01*
X4321Y-1027D01*
X4101Y-983D01*
X3881Y-1027D01*
X3694Y-1152D01*
X3676Y-1179D01*
X3676Y-1156D01*
X3646Y-1082D01*
X3589Y-1026D01*
X3516Y-996D01*
X3436Y-996D01*
X2686Y-996D01*
X2613Y-1026D01*
X2556Y-1082D01*
X2526Y-1156D01*
X2526Y-1235D01*
X2526Y-2085D01*
X2556Y-2159D01*
X2612Y-2215D01*
X2686Y-2246D01*
X2765Y-2246D01*
X3515Y-2246D01*
X3589Y-2215D01*
X3645Y-2159D01*
X3676Y-2086D01*
X3676Y-2062D01*
X3694Y-2089D01*
X3881Y-2214D01*
X4101Y-2258D01*
X4321Y-2214D01*
X4356Y-2191D01*
X4356Y-2983D01*
X4160Y-2786D01*
X3798Y-2636D01*
X3406Y-2635D01*
X3044Y-2785D01*
X2766Y-3062D01*
X2616Y-3424D01*
X2616Y-3816D01*
X2765Y-4178D01*
X3042Y-4455D01*
X3404Y-4605D01*
X3796Y-4606D01*
X3821Y-4595D01*
X3821Y-6579D01*
X3810Y-6584D01*
X3665Y-6728D01*
X3586Y-6918D01*
X3586Y-7123D01*
X3612Y-7187D01*
X2756Y-6331D01*
X2666Y-6271D01*
X2730Y-6271D01*
X2969Y-6172D01*
X3152Y-5989D01*
X3251Y-5750D01*
X3251Y-5492D01*
X3152Y-5253D01*
X2970Y-5070D01*
X2731Y-4971D01*
X2472Y-4970D01*
X2233Y-5069D01*
X2136Y-5166D01*
X2136Y-3515D01*
X2055Y-3318D01*
X1904Y-3167D01*
X1708Y-3086D01*
X1495Y-3085D01*
X1298Y-3167D01*
X1148Y-3317D01*
X1066Y-3514D01*
X1066Y-3727D01*
X1147Y-3923D01*
X1297Y-4074D01*
X1494Y-4155D01*
X1707Y-4156D01*
X1904Y-4074D01*
X2054Y-3924D01*
X2136Y-3727D01*
X2136Y-3515D01*
X2136Y-5166D01*
X2050Y-5252D01*
X1951Y-5491D01*
X1951Y-5749D01*
X2050Y-5988D01*
X2232Y-6171D01*
X2419Y-6249D01*
X910Y-6249D01*
X803Y-6270D01*
X773Y-6290D01*
X712Y-6331D01*
X424Y-6619D01*
X363Y-6710D01*
X342Y-6817D01*
X342Y-7521D01*
X363Y-7628D01*
X418Y-7711D01*
X402Y-7711D01*
X245Y-7742D01*
X220Y-7758D01*
X220Y-749D01*
X294Y-774D01*
X471Y-761D01*
X577Y-717D01*
X591Y-633D01*
X351Y-392D01*
X345Y-398D01*
X275Y-327D01*
X280Y-322D01*
X275Y-316D01*
X345Y-245D01*
X351Y-251D01*
X356Y-245D01*
X427Y-316D01*
X422Y-322D01*
X662Y-562D01*
X747Y-547D01*
X803Y-379D01*
X790Y-201D01*
X786Y-190D01*
X4622Y-190D01*
X4622Y-1324D01*
X4622Y-1324D01*
G37*
G54D33*
X4622Y-1324D02*
X4507Y-1152D01*
X4321Y-1027D01*
X4101Y-983D01*
X3881Y-1027D01*
X3694Y-1152D01*
X3676Y-1179D01*
X3676Y-1156D01*
X3646Y-1082D01*
X3589Y-1026D01*
X3516Y-996D01*
X3436Y-996D01*
X2686Y-996D01*
X2613Y-1026D01*
X2556Y-1082D01*
X2526Y-1156D01*
X2526Y-1235D01*
X2526Y-2085D01*
X2556Y-2159D01*
X2612Y-2215D01*
X2686Y-2246D01*
X2765Y-2246D01*
X3515Y-2246D01*
X3589Y-2215D01*
X3645Y-2159D01*
X3676Y-2086D01*
X3676Y-2062D01*
X3694Y-2089D01*
X3881Y-2214D01*
X4101Y-2258D01*
X4321Y-2214D01*
X4356Y-2191D01*
X4356Y-2983D01*
X4160Y-2786D01*
X3798Y-2636D01*
X3406Y-2635D01*
X3044Y-2785D01*
X2766Y-3062D01*
X2616Y-3424D01*
X2616Y-3816D01*
X2765Y-4178D01*
X3042Y-4455D01*
X3404Y-4605D01*
X3796Y-4606D01*
X3821Y-4595D01*
X3821Y-6579D01*
X3810Y-6584D01*
X3665Y-6728D01*
X3586Y-6918D01*
X3586Y-7123D01*
X3612Y-7187D01*
X2756Y-6331D01*
X2666Y-6271D01*
X2730Y-6271D01*
X2969Y-6172D01*
X3152Y-5989D01*
X3251Y-5750D01*
X3251Y-5492D01*
X3152Y-5253D01*
X2970Y-5070D01*
X2731Y-4971D01*
X2472Y-4970D01*
X2233Y-5069D01*
X2136Y-5166D01*
X2136Y-3515D01*
X2055Y-3318D01*
X1904Y-3167D01*
X1708Y-3086D01*
X1495Y-3085D01*
X1298Y-3167D01*
X1148Y-3317D01*
X1066Y-3514D01*
X1066Y-3727D01*
X1147Y-3923D01*
X1297Y-4074D01*
X1494Y-4155D01*
X1707Y-4156D01*
X1904Y-4074D01*
X2054Y-3924D01*
X2136Y-3727D01*
X2136Y-3515D01*
X2136Y-5166D01*
X2050Y-5252D01*
X1951Y-5491D01*
X1951Y-5749D01*
X2050Y-5988D01*
X2232Y-6171D01*
X2419Y-6249D01*
X910Y-6249D01*
X803Y-6270D01*
X773Y-6290D01*
X712Y-6331D01*
X424Y-6619D01*
X363Y-6710D01*
X342Y-6817D01*
X342Y-7521D01*
X363Y-7628D01*
X418Y-7711D01*
X402Y-7711D01*
X245Y-7742D01*
X220Y-7758D01*
X220Y-749D01*
X294Y-774D01*
X471Y-761D01*
X577Y-717D01*
X591Y-633D01*
X351Y-392D01*
X345Y-398D01*
X275Y-327D01*
X280Y-322D01*
X275Y-316D01*
X345Y-245D01*
X351Y-251D01*
X356Y-245D01*
X427Y-316D01*
X422Y-322D01*
X662Y-562D01*
X747Y-547D01*
X803Y-379D01*
X790Y-201D01*
X786Y-190D01*
X4622Y-190D01*
X4622Y-1324D01*
G54D10*
G36*
X7301Y-15752D02*
X7230Y-15823D01*
X7225Y-15817D01*
X7219Y-15823D01*
X7148Y-15752D01*
X7154Y-15746D01*
X7148Y-15741D01*
X7219Y-15670D01*
X7225Y-15676D01*
X7230Y-15670D01*
X7301Y-15741D01*
X7295Y-15746D01*
X7301Y-15752D01*
X7301Y-15752D01*
G37*
G54D33*
X7301Y-15752D02*
X7230Y-15823D01*
X7225Y-15817D01*
X7219Y-15823D01*
X7148Y-15752D01*
X7154Y-15746D01*
X7148Y-15741D01*
X7219Y-15670D01*
X7225Y-15676D01*
X7230Y-15670D01*
X7301Y-15741D01*
X7295Y-15746D01*
X7301Y-15752D01*
G54D10*
G36*
X8436Y-5071D02*
X8363Y-5101D01*
X8306Y-5157D01*
X8276Y-5231D01*
X8276Y-5310D01*
X8276Y-5610D01*
X7972Y-5306D01*
X8001Y-5236D01*
X8001Y-5156D01*
X8001Y-4606D01*
X7971Y-4532D01*
X7914Y-4476D01*
X7841Y-4446D01*
X7761Y-4446D01*
X7701Y-4446D01*
X7701Y-3996D01*
X7701Y-3545D01*
X7701Y-3446D01*
X7663Y-3354D01*
X7592Y-3283D01*
X7500Y-3246D01*
X7388Y-3246D01*
X7326Y-3308D01*
X7326Y-3721D01*
X7638Y-3721D01*
X7701Y-3658D01*
X7701Y-3545D01*
X7701Y-3996D01*
X7701Y-3883D01*
X7638Y-3821D01*
X7326Y-3821D01*
X7326Y-4233D01*
X7388Y-4296D01*
X7500Y-4296D01*
X7592Y-4258D01*
X7663Y-4187D01*
X7701Y-4096D01*
X7701Y-3996D01*
X7701Y-4446D01*
X7411Y-4446D01*
X7338Y-4476D01*
X7281Y-4532D01*
X7251Y-4606D01*
X7251Y-4606D01*
X7221Y-4532D01*
X7164Y-4476D01*
X7156Y-4473D01*
X7156Y-4296D01*
X7163Y-4296D01*
X7226Y-4233D01*
X7226Y-3821D01*
X7218Y-3821D01*
X7218Y-3721D01*
X7226Y-3721D01*
X7226Y-3308D01*
X7163Y-3246D01*
X7156Y-3246D01*
X7156Y-3153D01*
X7165Y-3154D01*
X7279Y-3132D01*
X7322Y-3103D01*
X7366Y-3132D01*
X7480Y-3154D01*
X7594Y-3132D01*
X7596Y-3130D01*
X7692Y-3175D01*
X7746Y-3124D01*
X7746Y-2985D01*
X7756Y-2970D01*
X7778Y-2856D01*
X7778Y-2391D01*
X7844Y-2391D01*
X7844Y-2399D01*
X7853Y-2399D01*
X7853Y-2499D01*
X7844Y-2499D01*
X7844Y-3124D01*
X7897Y-3175D01*
X8006Y-3124D01*
X8098Y-3022D01*
X8136Y-2914D01*
X8136Y-4025D01*
X8157Y-4132D01*
X8218Y-4223D01*
X8354Y-4360D01*
X8306Y-4407D01*
X8276Y-4481D01*
X8276Y-4560D01*
X8276Y-4910D01*
X8306Y-4984D01*
X8362Y-5040D01*
X8436Y-5071D01*
X8436Y-5071D01*
X8436Y-5071D01*
G37*
G54D33*
X8436Y-5071D02*
X8363Y-5101D01*
X8306Y-5157D01*
X8276Y-5231D01*
X8276Y-5310D01*
X8276Y-5610D01*
X7972Y-5306D01*
X8001Y-5236D01*
X8001Y-5156D01*
X8001Y-4606D01*
X7971Y-4532D01*
X7914Y-4476D01*
X7841Y-4446D01*
X7761Y-4446D01*
X7701Y-4446D01*
X7701Y-3996D01*
X7701Y-3545D01*
X7701Y-3446D01*
X7663Y-3354D01*
X7592Y-3283D01*
X7500Y-3246D01*
X7388Y-3246D01*
X7326Y-3308D01*
X7326Y-3721D01*
X7638Y-3721D01*
X7701Y-3658D01*
X7701Y-3545D01*
X7701Y-3996D01*
X7701Y-3883D01*
X7638Y-3821D01*
X7326Y-3821D01*
X7326Y-4233D01*
X7388Y-4296D01*
X7500Y-4296D01*
X7592Y-4258D01*
X7663Y-4187D01*
X7701Y-4096D01*
X7701Y-3996D01*
X7701Y-4446D01*
X7411Y-4446D01*
X7338Y-4476D01*
X7281Y-4532D01*
X7251Y-4606D01*
X7251Y-4606D01*
X7221Y-4532D01*
X7164Y-4476D01*
X7156Y-4473D01*
X7156Y-4296D01*
X7163Y-4296D01*
X7226Y-4233D01*
X7226Y-3821D01*
X7218Y-3821D01*
X7218Y-3721D01*
X7226Y-3721D01*
X7226Y-3308D01*
X7163Y-3246D01*
X7156Y-3246D01*
X7156Y-3153D01*
X7165Y-3154D01*
X7279Y-3132D01*
X7322Y-3103D01*
X7366Y-3132D01*
X7480Y-3154D01*
X7594Y-3132D01*
X7596Y-3130D01*
X7692Y-3175D01*
X7746Y-3124D01*
X7746Y-2985D01*
X7756Y-2970D01*
X7778Y-2856D01*
X7778Y-2391D01*
X7844Y-2391D01*
X7844Y-2399D01*
X7853Y-2399D01*
X7853Y-2499D01*
X7844Y-2499D01*
X7844Y-3124D01*
X7897Y-3175D01*
X8006Y-3124D01*
X8098Y-3022D01*
X8136Y-2914D01*
X8136Y-4025D01*
X8157Y-4132D01*
X8218Y-4223D01*
X8354Y-4360D01*
X8306Y-4407D01*
X8276Y-4481D01*
X8276Y-4560D01*
X8276Y-4910D01*
X8306Y-4984D01*
X8362Y-5040D01*
X8436Y-5071D01*
X8436Y-5071D01*
G54D10*
G36*
X11650Y-21363D02*
X10713Y-21363D01*
X10495Y-21145D01*
X10652Y-20989D01*
X10687Y-20903D01*
X10705Y-20921D01*
X10796Y-20959D01*
X10908Y-20959D01*
X10971Y-20896D01*
X10971Y-20484D01*
X10963Y-20484D01*
X10963Y-20384D01*
X10971Y-20384D01*
X10971Y-20376D01*
X11071Y-20376D01*
X11071Y-20384D01*
X11079Y-20384D01*
X11079Y-20484D01*
X11071Y-20484D01*
X11071Y-20896D01*
X11133Y-20959D01*
X11245Y-20959D01*
X11337Y-20921D01*
X11408Y-20851D01*
X11423Y-20814D01*
X11426Y-20822D01*
X11471Y-20867D01*
X11471Y-20889D01*
X11494Y-21004D01*
X11559Y-21101D01*
X11650Y-21192D01*
X11650Y-21363D01*
X11650Y-21363D01*
G37*
G54D33*
X11650Y-21363D02*
X10713Y-21363D01*
X10495Y-21145D01*
X10652Y-20989D01*
X10687Y-20903D01*
X10705Y-20921D01*
X10796Y-20959D01*
X10908Y-20959D01*
X10971Y-20896D01*
X10971Y-20484D01*
X10963Y-20484D01*
X10963Y-20384D01*
X10971Y-20384D01*
X10971Y-20376D01*
X11071Y-20376D01*
X11071Y-20384D01*
X11079Y-20384D01*
X11079Y-20484D01*
X11071Y-20484D01*
X11071Y-20896D01*
X11133Y-20959D01*
X11245Y-20959D01*
X11337Y-20921D01*
X11408Y-20851D01*
X11423Y-20814D01*
X11426Y-20822D01*
X11471Y-20867D01*
X11471Y-20889D01*
X11494Y-21004D01*
X11559Y-21101D01*
X11650Y-21192D01*
X11650Y-21363D01*
G54D10*
G36*
X15275Y-19481D02*
X15206Y-19484D01*
X15088Y-19539D01*
X14880Y-19747D01*
X15085Y-19952D01*
X15091Y-19946D01*
X15130Y-19985D01*
X15089Y-20026D01*
X15056Y-20075D01*
X15009Y-20028D01*
X15015Y-20023D01*
X14809Y-19818D01*
X14750Y-19877D01*
X14480Y-19606D01*
X14480Y-16509D01*
X14480Y-16509D01*
X14459Y-16402D01*
X14459Y-16402D01*
X14439Y-16372D01*
X14398Y-16311D01*
X14398Y-16311D01*
X14009Y-15922D01*
X13918Y-15862D01*
X13851Y-15848D01*
X13851Y-15806D01*
X13821Y-15732D01*
X13764Y-15676D01*
X13756Y-15672D01*
X13756Y-14533D01*
X13735Y-14426D01*
X13735Y-14426D01*
X13714Y-14395D01*
X13674Y-14335D01*
X13674Y-14335D01*
X13435Y-14096D01*
X13690Y-14096D01*
X13764Y-14065D01*
X13787Y-14042D01*
X13787Y-15529D01*
X13810Y-15644D01*
X13875Y-15742D01*
X15275Y-17142D01*
X15275Y-19481D01*
X15275Y-19481D01*
G37*
G54D33*
X15275Y-19481D02*
X15206Y-19484D01*
X15088Y-19539D01*
X14880Y-19747D01*
X15085Y-19952D01*
X15091Y-19946D01*
X15130Y-19985D01*
X15089Y-20026D01*
X15056Y-20075D01*
X15009Y-20028D01*
X15015Y-20023D01*
X14809Y-19818D01*
X14750Y-19877D01*
X14480Y-19606D01*
X14480Y-16509D01*
X14480Y-16509D01*
X14459Y-16402D01*
X14459Y-16402D01*
X14439Y-16372D01*
X14398Y-16311D01*
X14398Y-16311D01*
X14009Y-15922D01*
X13918Y-15862D01*
X13851Y-15848D01*
X13851Y-15806D01*
X13821Y-15732D01*
X13764Y-15676D01*
X13756Y-15672D01*
X13756Y-14533D01*
X13735Y-14426D01*
X13735Y-14426D01*
X13714Y-14395D01*
X13674Y-14335D01*
X13674Y-14335D01*
X13435Y-14096D01*
X13690Y-14096D01*
X13764Y-14065D01*
X13787Y-14042D01*
X13787Y-15529D01*
X13810Y-15644D01*
X13875Y-15742D01*
X15275Y-17142D01*
X15275Y-19481D01*
G54D10*
G36*
X15367Y-25218D02*
X15331Y-25254D01*
X15290Y-25213D01*
X15290Y-25213D01*
X15290Y-25213D01*
X15094Y-25017D01*
X15094Y-25017D01*
X14898Y-24821D01*
X14801Y-24756D01*
X14724Y-24741D01*
X14671Y-24688D01*
X14671Y-24688D01*
X14581Y-24598D01*
X14484Y-24533D01*
X14369Y-24510D01*
X14293Y-24510D01*
X14293Y-24510D01*
X14178Y-24533D01*
X14103Y-24583D01*
X14092Y-24566D01*
X14001Y-24505D01*
X13942Y-24493D01*
X13930Y-24434D01*
X13869Y-24343D01*
X13778Y-24282D01*
X13770Y-24281D01*
X13771Y-24276D01*
X13729Y-24166D01*
X13656Y-24167D01*
X13495Y-24329D01*
X13473Y-24343D01*
X13257Y-24559D01*
X13257Y-24559D01*
X13216Y-24600D01*
X13167Y-24550D01*
X13208Y-24509D01*
X13424Y-24294D01*
X13438Y-24272D01*
X13599Y-24111D01*
X13601Y-24038D01*
X13491Y-23996D01*
X13486Y-23996D01*
X13484Y-23988D01*
X13424Y-23898D01*
X13406Y-23886D01*
X13456Y-23812D01*
X13479Y-23697D01*
X13456Y-23582D01*
X13391Y-23485D01*
X13391Y-23485D01*
X13347Y-23441D01*
X13347Y-23427D01*
X13347Y-23427D01*
X13325Y-23313D01*
X13260Y-23215D01*
X13260Y-23215D01*
X13034Y-22989D01*
X13034Y-22189D01*
X13034Y-22189D01*
X13011Y-22075D01*
X12946Y-21977D01*
X12946Y-21977D01*
X12554Y-21586D01*
X12554Y-21585D01*
X12513Y-21545D01*
X12548Y-21509D01*
X12805Y-21766D01*
X12805Y-21766D01*
X12967Y-21928D01*
X13058Y-21989D01*
X13104Y-21998D01*
X13526Y-22420D01*
X13526Y-22500D01*
X13587Y-22646D01*
X13698Y-22757D01*
X13844Y-22818D01*
X14002Y-22818D01*
X14148Y-22758D01*
X14259Y-22646D01*
X14266Y-22630D01*
X14294Y-22658D01*
X14266Y-22685D01*
X14206Y-22831D01*
X14206Y-22989D01*
X14266Y-23135D01*
X14377Y-23247D01*
X14523Y-23307D01*
X14681Y-23307D01*
X14765Y-23273D01*
X14765Y-23448D01*
X14709Y-23504D01*
X14675Y-23585D01*
X14655Y-23536D01*
X14543Y-23425D01*
X14397Y-23364D01*
X14239Y-23364D01*
X14094Y-23424D01*
X13982Y-23536D01*
X13921Y-23682D01*
X13921Y-23839D01*
X13981Y-23985D01*
X14093Y-24097D01*
X14239Y-24158D01*
X14319Y-24158D01*
X14738Y-24577D01*
X14738Y-24577D01*
X14799Y-24618D01*
X14829Y-24638D01*
X14829Y-24638D01*
X14936Y-24659D01*
X14936Y-24659D01*
X15049Y-24659D01*
X15048Y-24665D01*
X15043Y-24664D01*
X14933Y-24706D01*
X14934Y-24779D01*
X15096Y-24940D01*
X15110Y-24962D01*
X15367Y-25218D01*
X15367Y-25218D01*
G37*
G54D33*
X15367Y-25218D02*
X15331Y-25254D01*
X15290Y-25213D01*
X15290Y-25213D01*
X15290Y-25213D01*
X15094Y-25017D01*
X15094Y-25017D01*
X14898Y-24821D01*
X14801Y-24756D01*
X14724Y-24741D01*
X14671Y-24688D01*
X14671Y-24688D01*
X14581Y-24598D01*
X14484Y-24533D01*
X14369Y-24510D01*
X14293Y-24510D01*
X14293Y-24510D01*
X14178Y-24533D01*
X14103Y-24583D01*
X14092Y-24566D01*
X14001Y-24505D01*
X13942Y-24493D01*
X13930Y-24434D01*
X13869Y-24343D01*
X13778Y-24282D01*
X13770Y-24281D01*
X13771Y-24276D01*
X13729Y-24166D01*
X13656Y-24167D01*
X13495Y-24329D01*
X13473Y-24343D01*
X13257Y-24559D01*
X13257Y-24559D01*
X13216Y-24600D01*
X13167Y-24550D01*
X13208Y-24509D01*
X13424Y-24294D01*
X13438Y-24272D01*
X13599Y-24111D01*
X13601Y-24038D01*
X13491Y-23996D01*
X13486Y-23996D01*
X13484Y-23988D01*
X13424Y-23898D01*
X13406Y-23886D01*
X13456Y-23812D01*
X13479Y-23697D01*
X13456Y-23582D01*
X13391Y-23485D01*
X13391Y-23485D01*
X13347Y-23441D01*
X13347Y-23427D01*
X13347Y-23427D01*
X13325Y-23313D01*
X13260Y-23215D01*
X13260Y-23215D01*
X13034Y-22989D01*
X13034Y-22189D01*
X13034Y-22189D01*
X13011Y-22075D01*
X12946Y-21977D01*
X12946Y-21977D01*
X12554Y-21586D01*
X12554Y-21585D01*
X12513Y-21545D01*
X12548Y-21509D01*
X12805Y-21766D01*
X12805Y-21766D01*
X12967Y-21928D01*
X13058Y-21989D01*
X13104Y-21998D01*
X13526Y-22420D01*
X13526Y-22500D01*
X13587Y-22646D01*
X13698Y-22757D01*
X13844Y-22818D01*
X14002Y-22818D01*
X14148Y-22758D01*
X14259Y-22646D01*
X14266Y-22630D01*
X14294Y-22658D01*
X14266Y-22685D01*
X14206Y-22831D01*
X14206Y-22989D01*
X14266Y-23135D01*
X14377Y-23247D01*
X14523Y-23307D01*
X14681Y-23307D01*
X14765Y-23273D01*
X14765Y-23448D01*
X14709Y-23504D01*
X14675Y-23585D01*
X14655Y-23536D01*
X14543Y-23425D01*
X14397Y-23364D01*
X14239Y-23364D01*
X14094Y-23424D01*
X13982Y-23536D01*
X13921Y-23682D01*
X13921Y-23839D01*
X13981Y-23985D01*
X14093Y-24097D01*
X14239Y-24158D01*
X14319Y-24158D01*
X14738Y-24577D01*
X14738Y-24577D01*
X14799Y-24618D01*
X14829Y-24638D01*
X14829Y-24638D01*
X14936Y-24659D01*
X14936Y-24659D01*
X15049Y-24659D01*
X15048Y-24665D01*
X15043Y-24664D01*
X14933Y-24706D01*
X14934Y-24779D01*
X15096Y-24940D01*
X15110Y-24962D01*
X15367Y-25218D01*
G54D10*
G36*
X17134Y-23451D02*
X17099Y-23486D01*
X17058Y-23445D01*
X17058Y-23445D01*
X17017Y-23404D01*
X17061Y-23361D01*
X17093Y-23410D01*
X17134Y-23451D01*
X17134Y-23451D01*
G37*
G54D33*
X17134Y-23451D02*
X17099Y-23486D01*
X17058Y-23445D01*
X17058Y-23445D01*
X17017Y-23404D01*
X17061Y-23361D01*
X17093Y-23410D01*
X17134Y-23451D01*
G54D10*
G36*
X22974Y-22605D02*
X22966Y-22605D01*
X22966Y-22612D01*
X22866Y-22612D01*
X22866Y-22605D01*
X22858Y-22605D01*
X22858Y-22505D01*
X22866Y-22505D01*
X22866Y-22497D01*
X22966Y-22497D01*
X22966Y-22505D01*
X22974Y-22505D01*
X22974Y-22605D01*
X22974Y-22605D01*
G37*
G54D33*
X22974Y-22605D02*
X22966Y-22605D01*
X22966Y-22612D01*
X22866Y-22612D01*
X22866Y-22605D01*
X22858Y-22605D01*
X22858Y-22505D01*
X22866Y-22505D01*
X22866Y-22497D01*
X22966Y-22497D01*
X22966Y-22505D01*
X22974Y-22505D01*
X22974Y-22605D01*
G54D10*
G36*
X23034Y-23522D02*
X23026Y-23522D01*
X23026Y-23529D01*
X22926Y-23529D01*
X22926Y-23522D01*
X22918Y-23522D01*
X22918Y-23422D01*
X22926Y-23422D01*
X22926Y-23414D01*
X23026Y-23414D01*
X23026Y-23422D01*
X23034Y-23422D01*
X23034Y-23522D01*
X23034Y-23522D01*
G37*
G54D33*
X23034Y-23522D02*
X23026Y-23522D01*
X23026Y-23529D01*
X22926Y-23529D01*
X22926Y-23522D01*
X22918Y-23522D01*
X22918Y-23422D01*
X22926Y-23422D01*
X22926Y-23414D01*
X23026Y-23414D01*
X23026Y-23422D01*
X23034Y-23422D01*
X23034Y-23522D01*
G54D10*
G36*
X23859Y-23447D02*
X23851Y-23447D01*
X23851Y-23454D01*
X23751Y-23454D01*
X23751Y-23447D01*
X23743Y-23447D01*
X23743Y-23347D01*
X23751Y-23347D01*
X23751Y-23339D01*
X23851Y-23339D01*
X23851Y-23347D01*
X23859Y-23347D01*
X23859Y-23447D01*
X23859Y-23447D01*
G37*
G54D33*
X23859Y-23447D02*
X23851Y-23447D01*
X23851Y-23454D01*
X23751Y-23454D01*
X23751Y-23447D01*
X23743Y-23447D01*
X23743Y-23347D01*
X23751Y-23347D01*
X23751Y-23339D01*
X23851Y-23339D01*
X23851Y-23347D01*
X23859Y-23347D01*
X23859Y-23447D01*
G54D10*
G36*
X24236Y-22349D02*
X24190Y-22302D01*
X24116Y-22272D01*
X24036Y-22272D01*
X23486Y-22272D01*
X23413Y-22302D01*
X23393Y-22322D01*
X23393Y-22230D01*
X23355Y-22138D01*
X23303Y-22086D01*
X23312Y-22077D01*
X23343Y-22004D01*
X23343Y-21961D01*
X23376Y-21954D01*
X23413Y-21991D01*
X23486Y-22022D01*
X23566Y-22022D01*
X24116Y-22022D01*
X24189Y-21991D01*
X24236Y-21944D01*
X24236Y-22349D01*
X24236Y-22349D01*
G37*
G54D33*
X24236Y-22349D02*
X24190Y-22302D01*
X24116Y-22272D01*
X24036Y-22272D01*
X23486Y-22272D01*
X23413Y-22302D01*
X23393Y-22322D01*
X23393Y-22230D01*
X23355Y-22138D01*
X23303Y-22086D01*
X23312Y-22077D01*
X23343Y-22004D01*
X23343Y-21961D01*
X23376Y-21954D01*
X23413Y-21991D01*
X23486Y-22022D01*
X23566Y-22022D01*
X24116Y-22022D01*
X24189Y-21991D01*
X24236Y-21944D01*
X24236Y-22349D01*
G54D10*
G36*
X29481Y-9671D02*
X29305Y-9494D01*
X29011Y-9372D01*
X28693Y-9371D01*
X28399Y-9493D01*
X28173Y-9718D01*
X28051Y-10012D01*
X28051Y-10330D01*
X28157Y-10587D01*
X27995Y-10586D01*
X27798Y-10668D01*
X27648Y-10818D01*
X27566Y-11015D01*
X27566Y-11227D01*
X27647Y-11424D01*
X27695Y-11472D01*
X27472Y-11471D01*
X27233Y-11570D01*
X27086Y-11717D01*
X27086Y-10926D01*
X26937Y-10564D01*
X26660Y-10287D01*
X26298Y-10137D01*
X25906Y-10136D01*
X25544Y-10286D01*
X25267Y-10563D01*
X25116Y-10925D01*
X25116Y-11317D01*
X25266Y-11679D01*
X25542Y-11956D01*
X25904Y-12106D01*
X26296Y-12107D01*
X26658Y-11957D01*
X26936Y-11680D01*
X27086Y-11318D01*
X27086Y-10926D01*
X27086Y-11717D01*
X27050Y-11753D01*
X26951Y-11992D01*
X26951Y-12250D01*
X27050Y-12489D01*
X27232Y-12672D01*
X27321Y-12709D01*
X27321Y-12759D01*
X27231Y-12722D01*
X26972Y-12721D01*
X26733Y-12820D01*
X26636Y-12917D01*
X26636Y-12766D01*
X26555Y-12569D01*
X26405Y-12418D01*
X26208Y-12337D01*
X25995Y-12336D01*
X25798Y-12418D01*
X25648Y-12568D01*
X25595Y-12696D01*
X25470Y-12571D01*
X25231Y-12472D01*
X24972Y-12471D01*
X24733Y-12570D01*
X24550Y-12753D01*
X24451Y-12992D01*
X24451Y-13250D01*
X24550Y-13489D01*
X24732Y-13672D01*
X24971Y-13771D01*
X25230Y-13772D01*
X25319Y-13735D01*
X25597Y-14014D01*
X25544Y-14036D01*
X25267Y-14313D01*
X25116Y-14675D01*
X25116Y-15067D01*
X25266Y-15429D01*
X25542Y-15706D01*
X25904Y-15856D01*
X26296Y-15857D01*
X26658Y-15707D01*
X26936Y-15430D01*
X27086Y-15068D01*
X27086Y-14916D01*
X27612Y-15442D01*
X27550Y-15503D01*
X27451Y-15742D01*
X27451Y-16000D01*
X27550Y-16239D01*
X27732Y-16422D01*
X27951Y-16513D01*
X27660Y-16804D01*
X27189Y-16804D01*
X26327Y-15942D01*
X26236Y-15881D01*
X26129Y-15860D01*
X25434Y-15860D01*
X24316Y-14742D01*
X24316Y-14662D01*
X24256Y-14516D01*
X24199Y-14460D01*
X24199Y-12423D01*
X24981Y-11641D01*
X24981Y-11641D01*
X25021Y-11580D01*
X25042Y-11550D01*
X25042Y-11550D01*
X25063Y-11443D01*
X25063Y-11443D01*
X25063Y-9530D01*
X28239Y-6354D01*
X28239Y-6354D01*
X28278Y-6296D01*
X28591Y-6296D01*
X28664Y-6265D01*
X28721Y-6209D01*
X28751Y-6136D01*
X28751Y-6056D01*
X28751Y-5506D01*
X28721Y-5432D01*
X28665Y-5376D01*
X28591Y-5346D01*
X28511Y-5346D01*
X28161Y-5346D01*
X28088Y-5376D01*
X28032Y-5432D01*
X28001Y-5506D01*
X28001Y-5506D01*
X27971Y-5432D01*
X27915Y-5376D01*
X27906Y-5373D01*
X27906Y-5199D01*
X27969Y-5173D01*
X28152Y-4990D01*
X28251Y-4751D01*
X28251Y-4493D01*
X28152Y-4254D01*
X28055Y-4157D01*
X28207Y-4157D01*
X28404Y-4075D01*
X28554Y-3925D01*
X28636Y-3728D01*
X28636Y-3516D01*
X28555Y-3319D01*
X28405Y-3168D01*
X28208Y-3087D01*
X27995Y-3086D01*
X27798Y-3168D01*
X27648Y-3318D01*
X27566Y-3515D01*
X27566Y-3727D01*
X27647Y-3924D01*
X27695Y-3972D01*
X27472Y-3971D01*
X27233Y-4070D01*
X27050Y-4253D01*
X26951Y-4492D01*
X26951Y-4750D01*
X27050Y-4989D01*
X27232Y-5172D01*
X27346Y-5219D01*
X27346Y-5373D01*
X27338Y-5376D01*
X27282Y-5432D01*
X27251Y-5506D01*
X27251Y-5585D01*
X27251Y-6135D01*
X27281Y-6209D01*
X27338Y-6265D01*
X27411Y-6296D01*
X27491Y-6296D01*
X27505Y-6296D01*
X24585Y-9216D01*
X24524Y-9307D01*
X24503Y-9414D01*
X24503Y-10767D01*
X24405Y-10668D01*
X24208Y-10587D01*
X23995Y-10586D01*
X23836Y-10652D01*
X23836Y-9976D01*
X23687Y-9614D01*
X23410Y-9337D01*
X23048Y-9187D01*
X22656Y-9186D01*
X22294Y-9336D01*
X22017Y-9613D01*
X21866Y-9975D01*
X21866Y-10367D01*
X22016Y-10729D01*
X22292Y-11006D01*
X22654Y-11156D01*
X23046Y-11157D01*
X23408Y-11007D01*
X23686Y-10730D01*
X23836Y-10368D01*
X23836Y-9976D01*
X23836Y-10652D01*
X23798Y-10668D01*
X23648Y-10818D01*
X23566Y-11015D01*
X23566Y-11227D01*
X23647Y-11424D01*
X23798Y-11575D01*
X23994Y-11656D01*
X24173Y-11657D01*
X23721Y-12109D01*
X23660Y-12200D01*
X23639Y-12307D01*
X23639Y-14460D01*
X23583Y-14516D01*
X23522Y-14662D01*
X23522Y-14820D01*
X23582Y-14966D01*
X23694Y-15077D01*
X23840Y-15138D01*
X23920Y-15138D01*
X25120Y-16338D01*
X25211Y-16399D01*
X25211Y-16399D01*
X25228Y-16402D01*
X25318Y-16420D01*
X25796Y-16420D01*
X25648Y-16568D01*
X25566Y-16765D01*
X25566Y-16977D01*
X25647Y-17174D01*
X25798Y-17325D01*
X25994Y-17406D01*
X26207Y-17407D01*
X26404Y-17325D01*
X26554Y-17175D01*
X26617Y-17024D01*
X26793Y-17200D01*
X26793Y-17920D01*
X26660Y-17787D01*
X26298Y-17637D01*
X25906Y-17636D01*
X25544Y-17786D01*
X25267Y-18063D01*
X25116Y-18425D01*
X25116Y-18817D01*
X25266Y-19179D01*
X25542Y-19456D01*
X25904Y-19606D01*
X26296Y-19607D01*
X26658Y-19457D01*
X26694Y-19421D01*
X26694Y-19882D01*
X26715Y-19989D01*
X26776Y-20080D01*
X26934Y-20237D01*
X26733Y-20320D01*
X26636Y-20417D01*
X26636Y-20266D01*
X26555Y-20069D01*
X26405Y-19918D01*
X26208Y-19837D01*
X25995Y-19836D01*
X25798Y-19918D01*
X25648Y-20068D01*
X25595Y-20196D01*
X25470Y-20071D01*
X25231Y-19972D01*
X24972Y-19971D01*
X24733Y-20070D01*
X24676Y-20127D01*
X24676Y-19767D01*
X24655Y-19660D01*
X24655Y-19660D01*
X24635Y-19630D01*
X24594Y-19569D01*
X24594Y-19569D01*
X24182Y-19157D01*
X24207Y-19157D01*
X24404Y-19075D01*
X24554Y-18925D01*
X24636Y-18728D01*
X24636Y-18516D01*
X24555Y-18319D01*
X24405Y-18168D01*
X24208Y-18087D01*
X23995Y-18086D01*
X23798Y-18168D01*
X23648Y-18318D01*
X23566Y-18515D01*
X23566Y-18541D01*
X23470Y-18445D01*
X23686Y-18230D01*
X23836Y-17868D01*
X23836Y-17476D01*
X23687Y-17114D01*
X23410Y-16837D01*
X23048Y-16687D01*
X22656Y-16686D01*
X22294Y-16836D01*
X22017Y-17113D01*
X21866Y-17475D01*
X21866Y-17639D01*
X21256Y-17029D01*
X21256Y-16568D01*
X21264Y-16565D01*
X21321Y-16509D01*
X21351Y-16435D01*
X21351Y-16356D01*
X21351Y-15806D01*
X21321Y-15732D01*
X21265Y-15676D01*
X21253Y-15671D01*
X21235Y-15578D01*
X21235Y-15578D01*
X21215Y-15548D01*
X21174Y-15487D01*
X21174Y-15487D01*
X20977Y-15291D01*
X20977Y-14464D01*
X21034Y-14408D01*
X21071Y-14317D01*
X21083Y-14314D01*
X21174Y-14254D01*
X21235Y-14163D01*
X21253Y-14070D01*
X21264Y-14065D01*
X21321Y-14009D01*
X21351Y-13936D01*
X21351Y-13856D01*
X21351Y-13306D01*
X21321Y-13233D01*
X21321Y-13233D01*
X21353Y-13184D01*
X21374Y-13154D01*
X21374Y-13154D01*
X21395Y-13047D01*
X21395Y-13047D01*
X21395Y-8647D01*
X21456Y-8708D01*
X22035Y-8948D01*
X22663Y-8949D01*
X23243Y-8709D01*
X23688Y-8266D01*
X23928Y-7686D01*
X23929Y-7058D01*
X23689Y-6478D01*
X23246Y-6034D01*
X22666Y-5793D01*
X22038Y-5792D01*
X21458Y-6032D01*
X21137Y-6353D01*
X21138Y-6345D01*
X21153Y-6270D01*
X21164Y-6265D01*
X21221Y-6209D01*
X21251Y-6136D01*
X21251Y-6056D01*
X21251Y-5662D01*
X24451Y-5662D01*
X24451Y-5750D01*
X24550Y-5989D01*
X24732Y-6172D01*
X24971Y-6271D01*
X25230Y-6272D01*
X25469Y-6173D01*
X25652Y-5990D01*
X25751Y-5751D01*
X25751Y-5493D01*
X25652Y-5254D01*
X25470Y-5071D01*
X25231Y-4972D01*
X24972Y-4971D01*
X24733Y-5070D01*
X24701Y-5102D01*
X22933Y-5102D01*
X23042Y-5057D01*
X23187Y-4913D01*
X23192Y-4901D01*
X23814Y-4901D01*
X23921Y-4879D01*
X23921Y-4879D01*
X24012Y-4819D01*
X24981Y-3850D01*
X24981Y-3850D01*
X25021Y-3789D01*
X25042Y-3759D01*
X25042Y-3759D01*
X25055Y-3689D01*
X25116Y-3629D01*
X25116Y-3817D01*
X25266Y-4179D01*
X25542Y-4456D01*
X25904Y-4606D01*
X26296Y-4607D01*
X26658Y-4457D01*
X26936Y-4180D01*
X27086Y-3818D01*
X27086Y-3426D01*
X26937Y-3064D01*
X26660Y-2787D01*
X26298Y-2637D01*
X26108Y-2637D01*
X26259Y-2486D01*
X26601Y-2486D01*
X26708Y-2464D01*
X26799Y-2404D01*
X26860Y-2313D01*
X26881Y-2206D01*
X26881Y-2174D01*
X27008Y-2089D01*
X27132Y-1903D01*
X27176Y-1683D01*
X27176Y-1558D01*
X27132Y-1338D01*
X27008Y-1152D01*
X26821Y-1027D01*
X26601Y-983D01*
X26381Y-1027D01*
X26194Y-1152D01*
X26176Y-1179D01*
X26176Y-1156D01*
X26146Y-1082D01*
X26090Y-1026D01*
X26016Y-996D01*
X25936Y-996D01*
X25186Y-996D01*
X25113Y-1026D01*
X25057Y-1082D01*
X25026Y-1156D01*
X25026Y-1176D01*
X24648Y-798D01*
X24550Y-733D01*
X24436Y-710D01*
X18711Y-710D01*
X18597Y-733D01*
X18499Y-798D01*
X18302Y-996D01*
X17686Y-996D01*
X17613Y-1026D01*
X17557Y-1082D01*
X17526Y-1156D01*
X17526Y-1235D01*
X17526Y-2085D01*
X17556Y-2159D01*
X17613Y-2215D01*
X17686Y-2246D01*
X17766Y-2246D01*
X18516Y-2246D01*
X18589Y-2215D01*
X18646Y-2159D01*
X18676Y-2086D01*
X18676Y-2062D01*
X18694Y-2089D01*
X18881Y-2214D01*
X19101Y-2258D01*
X19321Y-2214D01*
X19508Y-2089D01*
X19632Y-1903D01*
X19676Y-1683D01*
X19676Y-1558D01*
X19632Y-1338D01*
X19614Y-1310D01*
X22333Y-1310D01*
X22314Y-1328D01*
X22236Y-1518D01*
X22236Y-1723D01*
X22314Y-1912D01*
X22459Y-2057D01*
X22648Y-2135D01*
X22853Y-2136D01*
X23042Y-2057D01*
X23187Y-1913D01*
X23266Y-1723D01*
X23266Y-1519D01*
X23187Y-1329D01*
X23169Y-1310D01*
X24311Y-1310D01*
X24834Y-1833D01*
X24834Y-1833D01*
X24931Y-1898D01*
X25026Y-1917D01*
X25026Y-2085D01*
X25056Y-2159D01*
X25113Y-2215D01*
X25186Y-2246D01*
X25266Y-2246D01*
X25707Y-2246D01*
X24585Y-3368D01*
X24579Y-3377D01*
X24555Y-3319D01*
X24405Y-3168D01*
X24208Y-3087D01*
X23995Y-3086D01*
X23798Y-3168D01*
X23648Y-3318D01*
X23566Y-3515D01*
X23566Y-3727D01*
X23647Y-3924D01*
X23798Y-4075D01*
X23915Y-4124D01*
X23698Y-4341D01*
X23192Y-4341D01*
X23187Y-4329D01*
X23043Y-4184D01*
X22854Y-4106D01*
X22649Y-4106D01*
X22459Y-4184D01*
X22314Y-4328D01*
X22236Y-4518D01*
X22236Y-4723D01*
X22314Y-4912D01*
X22459Y-5057D01*
X22568Y-5102D01*
X20628Y-5102D01*
X20520Y-5124D01*
X20513Y-5129D01*
X20652Y-4990D01*
X20751Y-4751D01*
X20751Y-4493D01*
X20652Y-4254D01*
X20555Y-4157D01*
X20707Y-4157D01*
X20904Y-4075D01*
X21054Y-3925D01*
X21136Y-3728D01*
X21136Y-3516D01*
X21055Y-3319D01*
X20905Y-3168D01*
X20708Y-3087D01*
X20495Y-3086D01*
X20298Y-3168D01*
X20148Y-3318D01*
X20066Y-3515D01*
X20066Y-3727D01*
X20147Y-3924D01*
X20195Y-3972D01*
X19972Y-3971D01*
X19733Y-4070D01*
X19586Y-4217D01*
X19586Y-3426D01*
X19437Y-3064D01*
X19160Y-2787D01*
X18798Y-2637D01*
X18406Y-2636D01*
X18044Y-2786D01*
X17767Y-3063D01*
X17616Y-3425D01*
X17616Y-3817D01*
X17766Y-4179D01*
X18042Y-4456D01*
X18404Y-4606D01*
X18796Y-4607D01*
X19158Y-4457D01*
X19436Y-4180D01*
X19586Y-3818D01*
X19586Y-3426D01*
X19586Y-4217D01*
X19550Y-4253D01*
X19451Y-4492D01*
X19451Y-4750D01*
X19550Y-4989D01*
X19732Y-5172D01*
X19821Y-5209D01*
X19821Y-5360D01*
X19826Y-5387D01*
X19782Y-5432D01*
X19751Y-5506D01*
X19751Y-5585D01*
X19751Y-6005D01*
X18381Y-6005D01*
X18215Y-5839D01*
X18251Y-5751D01*
X18251Y-5493D01*
X18152Y-5254D01*
X17970Y-5071D01*
X17731Y-4972D01*
X17472Y-4971D01*
X17233Y-5070D01*
X17136Y-5167D01*
X17136Y-3516D01*
X17055Y-3319D01*
X16905Y-3168D01*
X16708Y-3087D01*
X16495Y-3086D01*
X16298Y-3168D01*
X16148Y-3318D01*
X16066Y-3515D01*
X16066Y-3727D01*
X16147Y-3924D01*
X16298Y-4075D01*
X16494Y-4156D01*
X16707Y-4157D01*
X16904Y-4075D01*
X17054Y-3925D01*
X17136Y-3728D01*
X17136Y-3516D01*
X17136Y-5167D01*
X17050Y-5253D01*
X16951Y-5492D01*
X16951Y-5750D01*
X17050Y-5989D01*
X17232Y-6172D01*
X17471Y-6271D01*
X17730Y-6272D01*
X17819Y-6235D01*
X18067Y-6483D01*
X18157Y-6544D01*
X18157Y-6544D01*
X18175Y-6547D01*
X18265Y-6565D01*
X18778Y-6565D01*
X18665Y-6678D01*
X18586Y-6868D01*
X18586Y-7073D01*
X18664Y-7262D01*
X18809Y-7407D01*
X18998Y-7485D01*
X19203Y-7486D01*
X19392Y-7407D01*
X19537Y-7263D01*
X19616Y-7073D01*
X19616Y-6869D01*
X19538Y-6679D01*
X19424Y-6565D01*
X20342Y-6565D01*
X20449Y-6544D01*
X20449Y-6544D01*
X20521Y-6495D01*
X20521Y-8219D01*
X20543Y-8327D01*
X20603Y-8417D01*
X20835Y-8649D01*
X20835Y-10638D01*
X20708Y-10586D01*
X20495Y-10585D01*
X20298Y-10667D01*
X20148Y-10817D01*
X20066Y-11014D01*
X20066Y-11227D01*
X20147Y-11423D01*
X20195Y-11471D01*
X19972Y-11470D01*
X19733Y-11569D01*
X19586Y-11716D01*
X19586Y-10925D01*
X19437Y-10563D01*
X19160Y-10286D01*
X18798Y-10136D01*
X18406Y-10135D01*
X18044Y-10285D01*
X17767Y-10562D01*
X17616Y-10924D01*
X17616Y-11316D01*
X17766Y-11678D01*
X18042Y-11955D01*
X18404Y-12105D01*
X18796Y-12106D01*
X19158Y-11956D01*
X19436Y-11679D01*
X19586Y-11317D01*
X19586Y-10925D01*
X19586Y-11716D01*
X19550Y-11752D01*
X19451Y-11991D01*
X19451Y-12249D01*
X19550Y-12488D01*
X19732Y-12671D01*
X19946Y-12760D01*
X19946Y-13173D01*
X19938Y-13176D01*
X19882Y-13232D01*
X19851Y-13306D01*
X19851Y-13385D01*
X19851Y-13935D01*
X19881Y-14009D01*
X19938Y-14065D01*
X20011Y-14096D01*
X20091Y-14096D01*
X20304Y-14096D01*
X20301Y-14103D01*
X20300Y-14261D01*
X20361Y-14407D01*
X20417Y-14464D01*
X20417Y-15407D01*
X20439Y-15514D01*
X20499Y-15605D01*
X20630Y-15735D01*
X20601Y-15805D01*
X20601Y-15806D01*
X20571Y-15732D01*
X20515Y-15676D01*
X20441Y-15645D01*
X20361Y-15645D01*
X20011Y-15645D01*
X19938Y-15676D01*
X19882Y-15732D01*
X19851Y-15805D01*
X19851Y-15885D01*
X19851Y-16435D01*
X19881Y-16509D01*
X19884Y-16511D01*
X19842Y-16573D01*
X19821Y-16680D01*
X19821Y-19033D01*
X19733Y-19069D01*
X19550Y-19252D01*
X19451Y-19491D01*
X19451Y-19749D01*
X19550Y-19988D01*
X19732Y-20171D01*
X19971Y-20270D01*
X20230Y-20270D01*
X20469Y-20172D01*
X20652Y-19989D01*
X20751Y-19750D01*
X20751Y-19492D01*
X20652Y-19253D01*
X20555Y-19155D01*
X20707Y-19155D01*
X20904Y-19074D01*
X21054Y-18924D01*
X21136Y-18727D01*
X21136Y-18514D01*
X21055Y-18318D01*
X20905Y-18167D01*
X20708Y-18085D01*
X20495Y-18085D01*
X20381Y-18132D01*
X20381Y-16796D01*
X20424Y-16753D01*
X20424Y-16753D01*
X20465Y-16693D01*
X20485Y-16663D01*
X20485Y-16663D01*
X20503Y-16570D01*
X20514Y-16565D01*
X20571Y-16509D01*
X20601Y-16435D01*
X20601Y-16435D01*
X20631Y-16509D01*
X20688Y-16565D01*
X20696Y-16568D01*
X20696Y-17145D01*
X20717Y-17252D01*
X20778Y-17343D01*
X22232Y-18797D01*
X22017Y-19013D01*
X21866Y-19375D01*
X21866Y-19767D01*
X22016Y-20129D01*
X22292Y-20406D01*
X22654Y-20556D01*
X23046Y-20557D01*
X23408Y-20407D01*
X23686Y-20130D01*
X23836Y-19768D01*
X23836Y-19603D01*
X24116Y-19883D01*
X24116Y-20472D01*
X24027Y-20472D01*
X23914Y-20472D01*
X23851Y-20534D01*
X23851Y-20847D01*
X23859Y-20847D01*
X23859Y-20947D01*
X23851Y-20947D01*
X23851Y-20954D01*
X23751Y-20954D01*
X23751Y-20947D01*
X23751Y-20847D01*
X23751Y-20534D01*
X23689Y-20472D01*
X23576Y-20472D01*
X23476Y-20472D01*
X23384Y-20510D01*
X23314Y-20580D01*
X23276Y-20672D01*
X23276Y-20784D01*
X23339Y-20847D01*
X23751Y-20847D01*
X23751Y-20947D01*
X23339Y-20947D01*
X23276Y-21009D01*
X23276Y-21121D01*
X23314Y-21213D01*
X23384Y-21283D01*
X23421Y-21299D01*
X23413Y-21302D01*
X23357Y-21358D01*
X23353Y-21367D01*
X23345Y-21367D01*
X23340Y-21367D01*
X23340Y-21367D01*
X23312Y-21300D01*
X23256Y-21244D01*
X23183Y-21213D01*
X23152Y-21213D01*
X23156Y-21203D01*
X23156Y-21045D01*
X23096Y-20899D01*
X22984Y-20787D01*
X22838Y-20727D01*
X22680Y-20727D01*
X22535Y-20787D01*
X22423Y-20899D01*
X22362Y-21044D01*
X22362Y-21200D01*
X22336Y-21226D01*
X22336Y-21639D01*
X22344Y-21639D01*
X22344Y-21739D01*
X22336Y-21739D01*
X22336Y-21746D01*
X22236Y-21746D01*
X22236Y-21739D01*
X22236Y-21639D01*
X22236Y-21226D01*
X22174Y-21163D01*
X22109Y-21163D01*
X22010Y-21163D01*
X21918Y-21201D01*
X21848Y-21272D01*
X21842Y-21284D01*
X21805Y-21247D01*
X21863Y-21188D01*
X21901Y-21096D01*
X21901Y-20997D01*
X21901Y-20546D01*
X21901Y-20447D01*
X21863Y-20355D01*
X21793Y-20284D01*
X21701Y-20247D01*
X21589Y-20247D01*
X21526Y-20309D01*
X21526Y-20722D01*
X21839Y-20722D01*
X21901Y-20659D01*
X21901Y-20546D01*
X21901Y-20997D01*
X21901Y-20884D01*
X21839Y-20822D01*
X21526Y-20822D01*
X21526Y-21234D01*
X21539Y-21247D01*
X21526Y-21259D01*
X21526Y-21672D01*
X21839Y-21672D01*
X21872Y-21638D01*
X21872Y-21639D01*
X22236Y-21639D01*
X22236Y-21739D01*
X21872Y-21739D01*
X21839Y-21772D01*
X21839Y-21772D01*
X21526Y-21772D01*
X21526Y-22184D01*
X21589Y-22247D01*
X21701Y-22247D01*
X21793Y-22209D01*
X21863Y-22138D01*
X21868Y-22126D01*
X21899Y-22157D01*
X21890Y-22166D01*
X21860Y-22239D01*
X21860Y-22319D01*
X21860Y-22492D01*
X21732Y-22492D01*
X21625Y-22514D01*
X21515Y-22513D01*
X21369Y-22574D01*
X21257Y-22685D01*
X21197Y-22831D01*
X21197Y-22928D01*
X21026Y-22757D01*
X21026Y-22154D01*
X21071Y-22110D01*
X21074Y-22102D01*
X21089Y-22138D01*
X21160Y-22209D01*
X21252Y-22247D01*
X21364Y-22247D01*
X21426Y-22184D01*
X21426Y-21772D01*
X21418Y-21772D01*
X21418Y-21672D01*
X21426Y-21672D01*
X21426Y-21259D01*
X21414Y-21247D01*
X21426Y-21234D01*
X21426Y-20822D01*
X21418Y-20822D01*
X21418Y-20722D01*
X21426Y-20722D01*
X21426Y-20309D01*
X21364Y-20247D01*
X21252Y-20247D01*
X21160Y-20284D01*
X21089Y-20355D01*
X21074Y-20391D01*
X21071Y-20383D01*
X21015Y-20327D01*
X20941Y-20297D01*
X20861Y-20297D01*
X20511Y-20297D01*
X20438Y-20327D01*
X20382Y-20383D01*
X20351Y-20457D01*
X20351Y-20499D01*
X20284Y-20513D01*
X20254Y-20533D01*
X20193Y-20574D01*
X19181Y-21585D01*
X17729Y-21585D01*
X17719Y-21535D01*
X17659Y-21445D01*
X17658Y-21445D01*
X17599Y-21385D01*
X17599Y-21310D01*
X17591Y-21270D01*
X17730Y-21270D01*
X17960Y-21175D01*
X17976Y-21213D01*
X18087Y-21325D01*
X18233Y-21385D01*
X18391Y-21386D01*
X18537Y-21325D01*
X18649Y-21214D01*
X18709Y-21068D01*
X18709Y-20910D01*
X18649Y-20764D01*
X18592Y-20707D01*
X18592Y-19741D01*
X18571Y-19634D01*
X18571Y-19634D01*
X18552Y-19605D01*
X18796Y-19606D01*
X19158Y-19456D01*
X19436Y-19179D01*
X19586Y-18817D01*
X19586Y-18425D01*
X19437Y-18063D01*
X19160Y-17786D01*
X18798Y-17636D01*
X18406Y-17635D01*
X18251Y-17699D01*
X18251Y-12992D01*
X18152Y-12753D01*
X17970Y-12570D01*
X17731Y-12471D01*
X17472Y-12470D01*
X17233Y-12569D01*
X17050Y-12752D01*
X16951Y-12991D01*
X16951Y-13249D01*
X17050Y-13488D01*
X17232Y-13671D01*
X17471Y-13770D01*
X17730Y-13771D01*
X17969Y-13672D01*
X18152Y-13489D01*
X18251Y-13250D01*
X18251Y-12992D01*
X18251Y-17699D01*
X18044Y-17785D01*
X17767Y-18062D01*
X17661Y-18317D01*
X17661Y-18317D01*
X17651Y-18302D01*
X17610Y-18241D01*
X17610Y-18241D01*
X16890Y-17522D01*
X16891Y-17521D01*
X17002Y-17410D01*
X17063Y-17264D01*
X17063Y-17106D01*
X17003Y-16960D01*
X16946Y-16904D01*
X16946Y-16722D01*
X16925Y-16615D01*
X16925Y-16615D01*
X16905Y-16584D01*
X16864Y-16524D01*
X16864Y-16524D01*
X16381Y-16041D01*
X16381Y-11609D01*
X16494Y-11655D01*
X16707Y-11656D01*
X16904Y-11574D01*
X17054Y-11424D01*
X17136Y-11227D01*
X17136Y-11015D01*
X17055Y-10818D01*
X16905Y-10667D01*
X16708Y-10586D01*
X16495Y-10585D01*
X16381Y-10633D01*
X16381Y-7412D01*
X16392Y-7407D01*
X16537Y-7263D01*
X16616Y-7073D01*
X16616Y-6869D01*
X16538Y-6679D01*
X16393Y-6534D01*
X16204Y-6456D01*
X16086Y-6456D01*
X16086Y-5282D01*
X16086Y-3963D01*
X16048Y-3871D01*
X16035Y-3858D01*
X16035Y-1689D01*
X16035Y-469D01*
X16004Y-395D01*
X15948Y-339D01*
X15874Y-308D01*
X15795Y-308D01*
X15401Y-308D01*
X15328Y-339D01*
X15271Y-395D01*
X15241Y-468D01*
X15241Y-548D01*
X15241Y-1768D01*
X15271Y-1842D01*
X15327Y-1898D01*
X15401Y-1929D01*
X15480Y-1929D01*
X15874Y-1929D01*
X15948Y-1898D01*
X16004Y-1842D01*
X16035Y-1769D01*
X16035Y-1689D01*
X16035Y-3858D01*
X15977Y-3800D01*
X15885Y-3762D01*
X15786Y-3762D01*
X15751Y-3762D01*
X15689Y-3825D01*
X15689Y-4573D01*
X16023Y-4573D01*
X16086Y-4510D01*
X16086Y-3963D01*
X16086Y-5282D01*
X16086Y-4735D01*
X16023Y-4673D01*
X15689Y-4673D01*
X15689Y-5420D01*
X15751Y-5483D01*
X15786Y-5483D01*
X15885Y-5483D01*
X15977Y-5445D01*
X16048Y-5374D01*
X16086Y-5282D01*
X16086Y-6456D01*
X15999Y-6456D01*
X15810Y-6534D01*
X15665Y-6678D01*
X15589Y-6862D01*
X15589Y-5420D01*
X15589Y-4673D01*
X15589Y-4573D01*
X15589Y-3825D01*
X15526Y-3762D01*
X15491Y-3762D01*
X15392Y-3762D01*
X15300Y-3800D01*
X15230Y-3871D01*
X15192Y-3963D01*
X15192Y-4510D01*
X15254Y-4573D01*
X15589Y-4573D01*
X15589Y-4673D01*
X15254Y-4673D01*
X15192Y-4735D01*
X15192Y-5282D01*
X15230Y-5374D01*
X15300Y-5445D01*
X15392Y-5483D01*
X15491Y-5483D01*
X15526Y-5483D01*
X15589Y-5420D01*
X15589Y-6862D01*
X15586Y-6868D01*
X15586Y-7073D01*
X15664Y-7262D01*
X15809Y-7407D01*
X15821Y-7412D01*
X15821Y-15820D01*
X15046Y-15045D01*
X15046Y-7291D01*
X15116Y-7123D01*
X15116Y-6919D01*
X15038Y-6729D01*
X14893Y-6584D01*
X14704Y-6506D01*
X14499Y-6506D01*
X14387Y-6552D01*
X14387Y-6409D01*
X14669Y-6127D01*
X14669Y-6127D01*
X14734Y-6029D01*
X14757Y-5915D01*
X14757Y-5915D01*
X14757Y-3546D01*
X14757Y-3546D01*
X14734Y-3431D01*
X14669Y-3334D01*
X14669Y-3334D01*
X14461Y-3125D01*
X14461Y-1689D01*
X14461Y-469D01*
X14430Y-395D01*
X14374Y-339D01*
X14300Y-308D01*
X14221Y-308D01*
X13827Y-308D01*
X13754Y-339D01*
X13697Y-395D01*
X13667Y-468D01*
X13667Y-548D01*
X13667Y-1768D01*
X13697Y-1842D01*
X13753Y-1898D01*
X13827Y-1929D01*
X13906Y-1929D01*
X14300Y-1929D01*
X14374Y-1898D01*
X14430Y-1842D01*
X14460Y-1769D01*
X14461Y-1689D01*
X14461Y-3125D01*
X12138Y-803D01*
X12041Y-738D01*
X11926Y-715D01*
X11206Y-715D01*
X11092Y-738D01*
X10994Y-803D01*
X10802Y-996D01*
X10186Y-996D01*
X10113Y-1026D01*
X10056Y-1082D01*
X10026Y-1156D01*
X10026Y-1235D01*
X10026Y-2085D01*
X10056Y-2159D01*
X10112Y-2215D01*
X10186Y-2246D01*
X10265Y-2246D01*
X11015Y-2246D01*
X11089Y-2215D01*
X11145Y-2159D01*
X11176Y-2086D01*
X11176Y-2062D01*
X11194Y-2089D01*
X11381Y-2214D01*
X11601Y-2258D01*
X11821Y-2214D01*
X11856Y-2191D01*
X11856Y-2983D01*
X11660Y-2786D01*
X11298Y-2636D01*
X10906Y-2635D01*
X10544Y-2785D01*
X10266Y-3062D01*
X10116Y-3424D01*
X10116Y-3816D01*
X10265Y-4178D01*
X10542Y-4455D01*
X10904Y-4605D01*
X11296Y-4606D01*
X11321Y-4595D01*
X11321Y-6579D01*
X11310Y-6584D01*
X11165Y-6728D01*
X11144Y-6778D01*
X11144Y-5513D01*
X11123Y-5406D01*
X11123Y-5406D01*
X11103Y-5376D01*
X11062Y-5315D01*
X11062Y-5315D01*
X10558Y-4811D01*
X10467Y-4751D01*
X10360Y-4729D01*
X9846Y-4729D01*
X9739Y-4751D01*
X9709Y-4771D01*
X9648Y-4811D01*
X9277Y-5183D01*
X9226Y-5259D01*
X9226Y-5231D01*
X9196Y-5157D01*
X9139Y-5101D01*
X9066Y-5071D01*
X9065Y-5071D01*
X9139Y-5040D01*
X9195Y-4984D01*
X9226Y-4911D01*
X9226Y-4831D01*
X9226Y-4481D01*
X9196Y-4407D01*
X9139Y-4351D01*
X9066Y-4321D01*
X9023Y-4321D01*
X9010Y-4253D01*
X9010Y-4253D01*
X8989Y-4223D01*
X8949Y-4162D01*
X8949Y-4162D01*
X8905Y-4118D01*
X8994Y-4155D01*
X9207Y-4156D01*
X9404Y-4074D01*
X9554Y-3924D01*
X9636Y-3727D01*
X9636Y-3515D01*
X9561Y-3332D01*
X9620Y-3307D01*
X9677Y-3251D01*
X9707Y-3178D01*
X9707Y-3098D01*
X9707Y-1720D01*
X9683Y-1661D01*
X9707Y-1602D01*
X9707Y-1523D01*
X9707Y-190D01*
X28940Y-190D01*
X28899Y-313D01*
X28911Y-491D01*
X28955Y-596D01*
X29040Y-611D01*
X29280Y-371D01*
X29274Y-365D01*
X29345Y-294D01*
X29351Y-300D01*
X29356Y-294D01*
X29427Y-365D01*
X29421Y-371D01*
X29427Y-376D01*
X29356Y-447D01*
X29351Y-441D01*
X29110Y-682D01*
X29125Y-766D01*
X29294Y-823D01*
X29471Y-810D01*
X29481Y-806D01*
X29481Y-9671D01*
X29481Y-9671D01*
G37*
G54D33*
X29481Y-9671D02*
X29305Y-9494D01*
X29011Y-9372D01*
X28693Y-9371D01*
X28399Y-9493D01*
X28173Y-9718D01*
X28051Y-10012D01*
X28051Y-10330D01*
X28157Y-10587D01*
X27995Y-10586D01*
X27798Y-10668D01*
X27648Y-10818D01*
X27566Y-11015D01*
X27566Y-11227D01*
X27647Y-11424D01*
X27695Y-11472D01*
X27472Y-11471D01*
X27233Y-11570D01*
X27086Y-11717D01*
X27086Y-10926D01*
X26937Y-10564D01*
X26660Y-10287D01*
X26298Y-10137D01*
X25906Y-10136D01*
X25544Y-10286D01*
X25267Y-10563D01*
X25116Y-10925D01*
X25116Y-11317D01*
X25266Y-11679D01*
X25542Y-11956D01*
X25904Y-12106D01*
X26296Y-12107D01*
X26658Y-11957D01*
X26936Y-11680D01*
X27086Y-11318D01*
X27086Y-10926D01*
X27086Y-11717D01*
X27050Y-11753D01*
X26951Y-11992D01*
X26951Y-12250D01*
X27050Y-12489D01*
X27232Y-12672D01*
X27321Y-12709D01*
X27321Y-12759D01*
X27231Y-12722D01*
X26972Y-12721D01*
X26733Y-12820D01*
X26636Y-12917D01*
X26636Y-12766D01*
X26555Y-12569D01*
X26405Y-12418D01*
X26208Y-12337D01*
X25995Y-12336D01*
X25798Y-12418D01*
X25648Y-12568D01*
X25595Y-12696D01*
X25470Y-12571D01*
X25231Y-12472D01*
X24972Y-12471D01*
X24733Y-12570D01*
X24550Y-12753D01*
X24451Y-12992D01*
X24451Y-13250D01*
X24550Y-13489D01*
X24732Y-13672D01*
X24971Y-13771D01*
X25230Y-13772D01*
X25319Y-13735D01*
X25597Y-14014D01*
X25544Y-14036D01*
X25267Y-14313D01*
X25116Y-14675D01*
X25116Y-15067D01*
X25266Y-15429D01*
X25542Y-15706D01*
X25904Y-15856D01*
X26296Y-15857D01*
X26658Y-15707D01*
X26936Y-15430D01*
X27086Y-15068D01*
X27086Y-14916D01*
X27612Y-15442D01*
X27550Y-15503D01*
X27451Y-15742D01*
X27451Y-16000D01*
X27550Y-16239D01*
X27732Y-16422D01*
X27951Y-16513D01*
X27660Y-16804D01*
X27189Y-16804D01*
X26327Y-15942D01*
X26236Y-15881D01*
X26129Y-15860D01*
X25434Y-15860D01*
X24316Y-14742D01*
X24316Y-14662D01*
X24256Y-14516D01*
X24199Y-14460D01*
X24199Y-12423D01*
X24981Y-11641D01*
X24981Y-11641D01*
X25021Y-11580D01*
X25042Y-11550D01*
X25042Y-11550D01*
X25063Y-11443D01*
X25063Y-11443D01*
X25063Y-9530D01*
X28239Y-6354D01*
X28239Y-6354D01*
X28278Y-6296D01*
X28591Y-6296D01*
X28664Y-6265D01*
X28721Y-6209D01*
X28751Y-6136D01*
X28751Y-6056D01*
X28751Y-5506D01*
X28721Y-5432D01*
X28665Y-5376D01*
X28591Y-5346D01*
X28511Y-5346D01*
X28161Y-5346D01*
X28088Y-5376D01*
X28032Y-5432D01*
X28001Y-5506D01*
X28001Y-5506D01*
X27971Y-5432D01*
X27915Y-5376D01*
X27906Y-5373D01*
X27906Y-5199D01*
X27969Y-5173D01*
X28152Y-4990D01*
X28251Y-4751D01*
X28251Y-4493D01*
X28152Y-4254D01*
X28055Y-4157D01*
X28207Y-4157D01*
X28404Y-4075D01*
X28554Y-3925D01*
X28636Y-3728D01*
X28636Y-3516D01*
X28555Y-3319D01*
X28405Y-3168D01*
X28208Y-3087D01*
X27995Y-3086D01*
X27798Y-3168D01*
X27648Y-3318D01*
X27566Y-3515D01*
X27566Y-3727D01*
X27647Y-3924D01*
X27695Y-3972D01*
X27472Y-3971D01*
X27233Y-4070D01*
X27050Y-4253D01*
X26951Y-4492D01*
X26951Y-4750D01*
X27050Y-4989D01*
X27232Y-5172D01*
X27346Y-5219D01*
X27346Y-5373D01*
X27338Y-5376D01*
X27282Y-5432D01*
X27251Y-5506D01*
X27251Y-5585D01*
X27251Y-6135D01*
X27281Y-6209D01*
X27338Y-6265D01*
X27411Y-6296D01*
X27491Y-6296D01*
X27505Y-6296D01*
X24585Y-9216D01*
X24524Y-9307D01*
X24503Y-9414D01*
X24503Y-10767D01*
X24405Y-10668D01*
X24208Y-10587D01*
X23995Y-10586D01*
X23836Y-10652D01*
X23836Y-9976D01*
X23687Y-9614D01*
X23410Y-9337D01*
X23048Y-9187D01*
X22656Y-9186D01*
X22294Y-9336D01*
X22017Y-9613D01*
X21866Y-9975D01*
X21866Y-10367D01*
X22016Y-10729D01*
X22292Y-11006D01*
X22654Y-11156D01*
X23046Y-11157D01*
X23408Y-11007D01*
X23686Y-10730D01*
X23836Y-10368D01*
X23836Y-9976D01*
X23836Y-10652D01*
X23798Y-10668D01*
X23648Y-10818D01*
X23566Y-11015D01*
X23566Y-11227D01*
X23647Y-11424D01*
X23798Y-11575D01*
X23994Y-11656D01*
X24173Y-11657D01*
X23721Y-12109D01*
X23660Y-12200D01*
X23639Y-12307D01*
X23639Y-14460D01*
X23583Y-14516D01*
X23522Y-14662D01*
X23522Y-14820D01*
X23582Y-14966D01*
X23694Y-15077D01*
X23840Y-15138D01*
X23920Y-15138D01*
X25120Y-16338D01*
X25211Y-16399D01*
X25211Y-16399D01*
X25228Y-16402D01*
X25318Y-16420D01*
X25796Y-16420D01*
X25648Y-16568D01*
X25566Y-16765D01*
X25566Y-16977D01*
X25647Y-17174D01*
X25798Y-17325D01*
X25994Y-17406D01*
X26207Y-17407D01*
X26404Y-17325D01*
X26554Y-17175D01*
X26617Y-17024D01*
X26793Y-17200D01*
X26793Y-17920D01*
X26660Y-17787D01*
X26298Y-17637D01*
X25906Y-17636D01*
X25544Y-17786D01*
X25267Y-18063D01*
X25116Y-18425D01*
X25116Y-18817D01*
X25266Y-19179D01*
X25542Y-19456D01*
X25904Y-19606D01*
X26296Y-19607D01*
X26658Y-19457D01*
X26694Y-19421D01*
X26694Y-19882D01*
X26715Y-19989D01*
X26776Y-20080D01*
X26934Y-20237D01*
X26733Y-20320D01*
X26636Y-20417D01*
X26636Y-20266D01*
X26555Y-20069D01*
X26405Y-19918D01*
X26208Y-19837D01*
X25995Y-19836D01*
X25798Y-19918D01*
X25648Y-20068D01*
X25595Y-20196D01*
X25470Y-20071D01*
X25231Y-19972D01*
X24972Y-19971D01*
X24733Y-20070D01*
X24676Y-20127D01*
X24676Y-19767D01*
X24655Y-19660D01*
X24655Y-19660D01*
X24635Y-19630D01*
X24594Y-19569D01*
X24594Y-19569D01*
X24182Y-19157D01*
X24207Y-19157D01*
X24404Y-19075D01*
X24554Y-18925D01*
X24636Y-18728D01*
X24636Y-18516D01*
X24555Y-18319D01*
X24405Y-18168D01*
X24208Y-18087D01*
X23995Y-18086D01*
X23798Y-18168D01*
X23648Y-18318D01*
X23566Y-18515D01*
X23566Y-18541D01*
X23470Y-18445D01*
X23686Y-18230D01*
X23836Y-17868D01*
X23836Y-17476D01*
X23687Y-17114D01*
X23410Y-16837D01*
X23048Y-16687D01*
X22656Y-16686D01*
X22294Y-16836D01*
X22017Y-17113D01*
X21866Y-17475D01*
X21866Y-17639D01*
X21256Y-17029D01*
X21256Y-16568D01*
X21264Y-16565D01*
X21321Y-16509D01*
X21351Y-16435D01*
X21351Y-16356D01*
X21351Y-15806D01*
X21321Y-15732D01*
X21265Y-15676D01*
X21253Y-15671D01*
X21235Y-15578D01*
X21235Y-15578D01*
X21215Y-15548D01*
X21174Y-15487D01*
X21174Y-15487D01*
X20977Y-15291D01*
X20977Y-14464D01*
X21034Y-14408D01*
X21071Y-14317D01*
X21083Y-14314D01*
X21174Y-14254D01*
X21235Y-14163D01*
X21253Y-14070D01*
X21264Y-14065D01*
X21321Y-14009D01*
X21351Y-13936D01*
X21351Y-13856D01*
X21351Y-13306D01*
X21321Y-13233D01*
X21321Y-13233D01*
X21353Y-13184D01*
X21374Y-13154D01*
X21374Y-13154D01*
X21395Y-13047D01*
X21395Y-13047D01*
X21395Y-8647D01*
X21456Y-8708D01*
X22035Y-8948D01*
X22663Y-8949D01*
X23243Y-8709D01*
X23688Y-8266D01*
X23928Y-7686D01*
X23929Y-7058D01*
X23689Y-6478D01*
X23246Y-6034D01*
X22666Y-5793D01*
X22038Y-5792D01*
X21458Y-6032D01*
X21137Y-6353D01*
X21138Y-6345D01*
X21153Y-6270D01*
X21164Y-6265D01*
X21221Y-6209D01*
X21251Y-6136D01*
X21251Y-6056D01*
X21251Y-5662D01*
X24451Y-5662D01*
X24451Y-5750D01*
X24550Y-5989D01*
X24732Y-6172D01*
X24971Y-6271D01*
X25230Y-6272D01*
X25469Y-6173D01*
X25652Y-5990D01*
X25751Y-5751D01*
X25751Y-5493D01*
X25652Y-5254D01*
X25470Y-5071D01*
X25231Y-4972D01*
X24972Y-4971D01*
X24733Y-5070D01*
X24701Y-5102D01*
X22933Y-5102D01*
X23042Y-5057D01*
X23187Y-4913D01*
X23192Y-4901D01*
X23814Y-4901D01*
X23921Y-4879D01*
X23921Y-4879D01*
X24012Y-4819D01*
X24981Y-3850D01*
X24981Y-3850D01*
X25021Y-3789D01*
X25042Y-3759D01*
X25042Y-3759D01*
X25055Y-3689D01*
X25116Y-3629D01*
X25116Y-3817D01*
X25266Y-4179D01*
X25542Y-4456D01*
X25904Y-4606D01*
X26296Y-4607D01*
X26658Y-4457D01*
X26936Y-4180D01*
X27086Y-3818D01*
X27086Y-3426D01*
X26937Y-3064D01*
X26660Y-2787D01*
X26298Y-2637D01*
X26108Y-2637D01*
X26259Y-2486D01*
X26601Y-2486D01*
X26708Y-2464D01*
X26799Y-2404D01*
X26860Y-2313D01*
X26881Y-2206D01*
X26881Y-2174D01*
X27008Y-2089D01*
X27132Y-1903D01*
X27176Y-1683D01*
X27176Y-1558D01*
X27132Y-1338D01*
X27008Y-1152D01*
X26821Y-1027D01*
X26601Y-983D01*
X26381Y-1027D01*
X26194Y-1152D01*
X26176Y-1179D01*
X26176Y-1156D01*
X26146Y-1082D01*
X26090Y-1026D01*
X26016Y-996D01*
X25936Y-996D01*
X25186Y-996D01*
X25113Y-1026D01*
X25057Y-1082D01*
X25026Y-1156D01*
X25026Y-1176D01*
X24648Y-798D01*
X24550Y-733D01*
X24436Y-710D01*
X18711Y-710D01*
X18597Y-733D01*
X18499Y-798D01*
X18302Y-996D01*
X17686Y-996D01*
X17613Y-1026D01*
X17557Y-1082D01*
X17526Y-1156D01*
X17526Y-1235D01*
X17526Y-2085D01*
X17556Y-2159D01*
X17613Y-2215D01*
X17686Y-2246D01*
X17766Y-2246D01*
X18516Y-2246D01*
X18589Y-2215D01*
X18646Y-2159D01*
X18676Y-2086D01*
X18676Y-2062D01*
X18694Y-2089D01*
X18881Y-2214D01*
X19101Y-2258D01*
X19321Y-2214D01*
X19508Y-2089D01*
X19632Y-1903D01*
X19676Y-1683D01*
X19676Y-1558D01*
X19632Y-1338D01*
X19614Y-1310D01*
X22333Y-1310D01*
X22314Y-1328D01*
X22236Y-1518D01*
X22236Y-1723D01*
X22314Y-1912D01*
X22459Y-2057D01*
X22648Y-2135D01*
X22853Y-2136D01*
X23042Y-2057D01*
X23187Y-1913D01*
X23266Y-1723D01*
X23266Y-1519D01*
X23187Y-1329D01*
X23169Y-1310D01*
X24311Y-1310D01*
X24834Y-1833D01*
X24834Y-1833D01*
X24931Y-1898D01*
X25026Y-1917D01*
X25026Y-2085D01*
X25056Y-2159D01*
X25113Y-2215D01*
X25186Y-2246D01*
X25266Y-2246D01*
X25707Y-2246D01*
X24585Y-3368D01*
X24579Y-3377D01*
X24555Y-3319D01*
X24405Y-3168D01*
X24208Y-3087D01*
X23995Y-3086D01*
X23798Y-3168D01*
X23648Y-3318D01*
X23566Y-3515D01*
X23566Y-3727D01*
X23647Y-3924D01*
X23798Y-4075D01*
X23915Y-4124D01*
X23698Y-4341D01*
X23192Y-4341D01*
X23187Y-4329D01*
X23043Y-4184D01*
X22854Y-4106D01*
X22649Y-4106D01*
X22459Y-4184D01*
X22314Y-4328D01*
X22236Y-4518D01*
X22236Y-4723D01*
X22314Y-4912D01*
X22459Y-5057D01*
X22568Y-5102D01*
X20628Y-5102D01*
X20520Y-5124D01*
X20513Y-5129D01*
X20652Y-4990D01*
X20751Y-4751D01*
X20751Y-4493D01*
X20652Y-4254D01*
X20555Y-4157D01*
X20707Y-4157D01*
X20904Y-4075D01*
X21054Y-3925D01*
X21136Y-3728D01*
X21136Y-3516D01*
X21055Y-3319D01*
X20905Y-3168D01*
X20708Y-3087D01*
X20495Y-3086D01*
X20298Y-3168D01*
X20148Y-3318D01*
X20066Y-3515D01*
X20066Y-3727D01*
X20147Y-3924D01*
X20195Y-3972D01*
X19972Y-3971D01*
X19733Y-4070D01*
X19586Y-4217D01*
X19586Y-3426D01*
X19437Y-3064D01*
X19160Y-2787D01*
X18798Y-2637D01*
X18406Y-2636D01*
X18044Y-2786D01*
X17767Y-3063D01*
X17616Y-3425D01*
X17616Y-3817D01*
X17766Y-4179D01*
X18042Y-4456D01*
X18404Y-4606D01*
X18796Y-4607D01*
X19158Y-4457D01*
X19436Y-4180D01*
X19586Y-3818D01*
X19586Y-3426D01*
X19586Y-4217D01*
X19550Y-4253D01*
X19451Y-4492D01*
X19451Y-4750D01*
X19550Y-4989D01*
X19732Y-5172D01*
X19821Y-5209D01*
X19821Y-5360D01*
X19826Y-5387D01*
X19782Y-5432D01*
X19751Y-5506D01*
X19751Y-5585D01*
X19751Y-6005D01*
X18381Y-6005D01*
X18215Y-5839D01*
X18251Y-5751D01*
X18251Y-5493D01*
X18152Y-5254D01*
X17970Y-5071D01*
X17731Y-4972D01*
X17472Y-4971D01*
X17233Y-5070D01*
X17136Y-5167D01*
X17136Y-3516D01*
X17055Y-3319D01*
X16905Y-3168D01*
X16708Y-3087D01*
X16495Y-3086D01*
X16298Y-3168D01*
X16148Y-3318D01*
X16066Y-3515D01*
X16066Y-3727D01*
X16147Y-3924D01*
X16298Y-4075D01*
X16494Y-4156D01*
X16707Y-4157D01*
X16904Y-4075D01*
X17054Y-3925D01*
X17136Y-3728D01*
X17136Y-3516D01*
X17136Y-5167D01*
X17050Y-5253D01*
X16951Y-5492D01*
X16951Y-5750D01*
X17050Y-5989D01*
X17232Y-6172D01*
X17471Y-6271D01*
X17730Y-6272D01*
X17819Y-6235D01*
X18067Y-6483D01*
X18157Y-6544D01*
X18157Y-6544D01*
X18175Y-6547D01*
X18265Y-6565D01*
X18778Y-6565D01*
X18665Y-6678D01*
X18586Y-6868D01*
X18586Y-7073D01*
X18664Y-7262D01*
X18809Y-7407D01*
X18998Y-7485D01*
X19203Y-7486D01*
X19392Y-7407D01*
X19537Y-7263D01*
X19616Y-7073D01*
X19616Y-6869D01*
X19538Y-6679D01*
X19424Y-6565D01*
X20342Y-6565D01*
X20449Y-6544D01*
X20449Y-6544D01*
X20521Y-6495D01*
X20521Y-8219D01*
X20543Y-8327D01*
X20603Y-8417D01*
X20835Y-8649D01*
X20835Y-10638D01*
X20708Y-10586D01*
X20495Y-10585D01*
X20298Y-10667D01*
X20148Y-10817D01*
X20066Y-11014D01*
X20066Y-11227D01*
X20147Y-11423D01*
X20195Y-11471D01*
X19972Y-11470D01*
X19733Y-11569D01*
X19586Y-11716D01*
X19586Y-10925D01*
X19437Y-10563D01*
X19160Y-10286D01*
X18798Y-10136D01*
X18406Y-10135D01*
X18044Y-10285D01*
X17767Y-10562D01*
X17616Y-10924D01*
X17616Y-11316D01*
X17766Y-11678D01*
X18042Y-11955D01*
X18404Y-12105D01*
X18796Y-12106D01*
X19158Y-11956D01*
X19436Y-11679D01*
X19586Y-11317D01*
X19586Y-10925D01*
X19586Y-11716D01*
X19550Y-11752D01*
X19451Y-11991D01*
X19451Y-12249D01*
X19550Y-12488D01*
X19732Y-12671D01*
X19946Y-12760D01*
X19946Y-13173D01*
X19938Y-13176D01*
X19882Y-13232D01*
X19851Y-13306D01*
X19851Y-13385D01*
X19851Y-13935D01*
X19881Y-14009D01*
X19938Y-14065D01*
X20011Y-14096D01*
X20091Y-14096D01*
X20304Y-14096D01*
X20301Y-14103D01*
X20300Y-14261D01*
X20361Y-14407D01*
X20417Y-14464D01*
X20417Y-15407D01*
X20439Y-15514D01*
X20499Y-15605D01*
X20630Y-15735D01*
X20601Y-15805D01*
X20601Y-15806D01*
X20571Y-15732D01*
X20515Y-15676D01*
X20441Y-15645D01*
X20361Y-15645D01*
X20011Y-15645D01*
X19938Y-15676D01*
X19882Y-15732D01*
X19851Y-15805D01*
X19851Y-15885D01*
X19851Y-16435D01*
X19881Y-16509D01*
X19884Y-16511D01*
X19842Y-16573D01*
X19821Y-16680D01*
X19821Y-19033D01*
X19733Y-19069D01*
X19550Y-19252D01*
X19451Y-19491D01*
X19451Y-19749D01*
X19550Y-19988D01*
X19732Y-20171D01*
X19971Y-20270D01*
X20230Y-20270D01*
X20469Y-20172D01*
X20652Y-19989D01*
X20751Y-19750D01*
X20751Y-19492D01*
X20652Y-19253D01*
X20555Y-19155D01*
X20707Y-19155D01*
X20904Y-19074D01*
X21054Y-18924D01*
X21136Y-18727D01*
X21136Y-18514D01*
X21055Y-18318D01*
X20905Y-18167D01*
X20708Y-18085D01*
X20495Y-18085D01*
X20381Y-18132D01*
X20381Y-16796D01*
X20424Y-16753D01*
X20424Y-16753D01*
X20465Y-16693D01*
X20485Y-16663D01*
X20485Y-16663D01*
X20503Y-16570D01*
X20514Y-16565D01*
X20571Y-16509D01*
X20601Y-16435D01*
X20601Y-16435D01*
X20631Y-16509D01*
X20688Y-16565D01*
X20696Y-16568D01*
X20696Y-17145D01*
X20717Y-17252D01*
X20778Y-17343D01*
X22232Y-18797D01*
X22017Y-19013D01*
X21866Y-19375D01*
X21866Y-19767D01*
X22016Y-20129D01*
X22292Y-20406D01*
X22654Y-20556D01*
X23046Y-20557D01*
X23408Y-20407D01*
X23686Y-20130D01*
X23836Y-19768D01*
X23836Y-19603D01*
X24116Y-19883D01*
X24116Y-20472D01*
X24027Y-20472D01*
X23914Y-20472D01*
X23851Y-20534D01*
X23851Y-20847D01*
X23859Y-20847D01*
X23859Y-20947D01*
X23851Y-20947D01*
X23851Y-20954D01*
X23751Y-20954D01*
X23751Y-20947D01*
X23751Y-20847D01*
X23751Y-20534D01*
X23689Y-20472D01*
X23576Y-20472D01*
X23476Y-20472D01*
X23384Y-20510D01*
X23314Y-20580D01*
X23276Y-20672D01*
X23276Y-20784D01*
X23339Y-20847D01*
X23751Y-20847D01*
X23751Y-20947D01*
X23339Y-20947D01*
X23276Y-21009D01*
X23276Y-21121D01*
X23314Y-21213D01*
X23384Y-21283D01*
X23421Y-21299D01*
X23413Y-21302D01*
X23357Y-21358D01*
X23353Y-21367D01*
X23345Y-21367D01*
X23340Y-21367D01*
X23340Y-21367D01*
X23312Y-21300D01*
X23256Y-21244D01*
X23183Y-21213D01*
X23152Y-21213D01*
X23156Y-21203D01*
X23156Y-21045D01*
X23096Y-20899D01*
X22984Y-20787D01*
X22838Y-20727D01*
X22680Y-20727D01*
X22535Y-20787D01*
X22423Y-20899D01*
X22362Y-21044D01*
X22362Y-21200D01*
X22336Y-21226D01*
X22336Y-21639D01*
X22344Y-21639D01*
X22344Y-21739D01*
X22336Y-21739D01*
X22336Y-21746D01*
X22236Y-21746D01*
X22236Y-21739D01*
X22236Y-21639D01*
X22236Y-21226D01*
X22174Y-21163D01*
X22109Y-21163D01*
X22010Y-21163D01*
X21918Y-21201D01*
X21848Y-21272D01*
X21842Y-21284D01*
X21805Y-21247D01*
X21863Y-21188D01*
X21901Y-21096D01*
X21901Y-20997D01*
X21901Y-20546D01*
X21901Y-20447D01*
X21863Y-20355D01*
X21793Y-20284D01*
X21701Y-20247D01*
X21589Y-20247D01*
X21526Y-20309D01*
X21526Y-20722D01*
X21839Y-20722D01*
X21901Y-20659D01*
X21901Y-20546D01*
X21901Y-20997D01*
X21901Y-20884D01*
X21839Y-20822D01*
X21526Y-20822D01*
X21526Y-21234D01*
X21539Y-21247D01*
X21526Y-21259D01*
X21526Y-21672D01*
X21839Y-21672D01*
X21872Y-21638D01*
X21872Y-21639D01*
X22236Y-21639D01*
X22236Y-21739D01*
X21872Y-21739D01*
X21839Y-21772D01*
X21839Y-21772D01*
X21526Y-21772D01*
X21526Y-22184D01*
X21589Y-22247D01*
X21701Y-22247D01*
X21793Y-22209D01*
X21863Y-22138D01*
X21868Y-22126D01*
X21899Y-22157D01*
X21890Y-22166D01*
X21860Y-22239D01*
X21860Y-22319D01*
X21860Y-22492D01*
X21732Y-22492D01*
X21625Y-22514D01*
X21515Y-22513D01*
X21369Y-22574D01*
X21257Y-22685D01*
X21197Y-22831D01*
X21197Y-22928D01*
X21026Y-22757D01*
X21026Y-22154D01*
X21071Y-22110D01*
X21074Y-22102D01*
X21089Y-22138D01*
X21160Y-22209D01*
X21252Y-22247D01*
X21364Y-22247D01*
X21426Y-22184D01*
X21426Y-21772D01*
X21418Y-21772D01*
X21418Y-21672D01*
X21426Y-21672D01*
X21426Y-21259D01*
X21414Y-21247D01*
X21426Y-21234D01*
X21426Y-20822D01*
X21418Y-20822D01*
X21418Y-20722D01*
X21426Y-20722D01*
X21426Y-20309D01*
X21364Y-20247D01*
X21252Y-20247D01*
X21160Y-20284D01*
X21089Y-20355D01*
X21074Y-20391D01*
X21071Y-20383D01*
X21015Y-20327D01*
X20941Y-20297D01*
X20861Y-20297D01*
X20511Y-20297D01*
X20438Y-20327D01*
X20382Y-20383D01*
X20351Y-20457D01*
X20351Y-20499D01*
X20284Y-20513D01*
X20254Y-20533D01*
X20193Y-20574D01*
X19181Y-21585D01*
X17729Y-21585D01*
X17719Y-21535D01*
X17659Y-21445D01*
X17658Y-21445D01*
X17599Y-21385D01*
X17599Y-21310D01*
X17591Y-21270D01*
X17730Y-21270D01*
X17960Y-21175D01*
X17976Y-21213D01*
X18087Y-21325D01*
X18233Y-21385D01*
X18391Y-21386D01*
X18537Y-21325D01*
X18649Y-21214D01*
X18709Y-21068D01*
X18709Y-20910D01*
X18649Y-20764D01*
X18592Y-20707D01*
X18592Y-19741D01*
X18571Y-19634D01*
X18571Y-19634D01*
X18552Y-19605D01*
X18796Y-19606D01*
X19158Y-19456D01*
X19436Y-19179D01*
X19586Y-18817D01*
X19586Y-18425D01*
X19437Y-18063D01*
X19160Y-17786D01*
X18798Y-17636D01*
X18406Y-17635D01*
X18251Y-17699D01*
X18251Y-12992D01*
X18152Y-12753D01*
X17970Y-12570D01*
X17731Y-12471D01*
X17472Y-12470D01*
X17233Y-12569D01*
X17050Y-12752D01*
X16951Y-12991D01*
X16951Y-13249D01*
X17050Y-13488D01*
X17232Y-13671D01*
X17471Y-13770D01*
X17730Y-13771D01*
X17969Y-13672D01*
X18152Y-13489D01*
X18251Y-13250D01*
X18251Y-12992D01*
X18251Y-17699D01*
X18044Y-17785D01*
X17767Y-18062D01*
X17661Y-18317D01*
X17661Y-18317D01*
X17651Y-18302D01*
X17610Y-18241D01*
X17610Y-18241D01*
X16890Y-17522D01*
X16891Y-17521D01*
X17002Y-17410D01*
X17063Y-17264D01*
X17063Y-17106D01*
X17003Y-16960D01*
X16946Y-16904D01*
X16946Y-16722D01*
X16925Y-16615D01*
X16925Y-16615D01*
X16905Y-16584D01*
X16864Y-16524D01*
X16864Y-16524D01*
X16381Y-16041D01*
X16381Y-11609D01*
X16494Y-11655D01*
X16707Y-11656D01*
X16904Y-11574D01*
X17054Y-11424D01*
X17136Y-11227D01*
X17136Y-11015D01*
X17055Y-10818D01*
X16905Y-10667D01*
X16708Y-10586D01*
X16495Y-10585D01*
X16381Y-10633D01*
X16381Y-7412D01*
X16392Y-7407D01*
X16537Y-7263D01*
X16616Y-7073D01*
X16616Y-6869D01*
X16538Y-6679D01*
X16393Y-6534D01*
X16204Y-6456D01*
X16086Y-6456D01*
X16086Y-5282D01*
X16086Y-3963D01*
X16048Y-3871D01*
X16035Y-3858D01*
X16035Y-1689D01*
X16035Y-469D01*
X16004Y-395D01*
X15948Y-339D01*
X15874Y-308D01*
X15795Y-308D01*
X15401Y-308D01*
X15328Y-339D01*
X15271Y-395D01*
X15241Y-468D01*
X15241Y-548D01*
X15241Y-1768D01*
X15271Y-1842D01*
X15327Y-1898D01*
X15401Y-1929D01*
X15480Y-1929D01*
X15874Y-1929D01*
X15948Y-1898D01*
X16004Y-1842D01*
X16035Y-1769D01*
X16035Y-1689D01*
X16035Y-3858D01*
X15977Y-3800D01*
X15885Y-3762D01*
X15786Y-3762D01*
X15751Y-3762D01*
X15689Y-3825D01*
X15689Y-4573D01*
X16023Y-4573D01*
X16086Y-4510D01*
X16086Y-3963D01*
X16086Y-5282D01*
X16086Y-4735D01*
X16023Y-4673D01*
X15689Y-4673D01*
X15689Y-5420D01*
X15751Y-5483D01*
X15786Y-5483D01*
X15885Y-5483D01*
X15977Y-5445D01*
X16048Y-5374D01*
X16086Y-5282D01*
X16086Y-6456D01*
X15999Y-6456D01*
X15810Y-6534D01*
X15665Y-6678D01*
X15589Y-6862D01*
X15589Y-5420D01*
X15589Y-4673D01*
X15589Y-4573D01*
X15589Y-3825D01*
X15526Y-3762D01*
X15491Y-3762D01*
X15392Y-3762D01*
X15300Y-3800D01*
X15230Y-3871D01*
X15192Y-3963D01*
X15192Y-4510D01*
X15254Y-4573D01*
X15589Y-4573D01*
X15589Y-4673D01*
X15254Y-4673D01*
X15192Y-4735D01*
X15192Y-5282D01*
X15230Y-5374D01*
X15300Y-5445D01*
X15392Y-5483D01*
X15491Y-5483D01*
X15526Y-5483D01*
X15589Y-5420D01*
X15589Y-6862D01*
X15586Y-6868D01*
X15586Y-7073D01*
X15664Y-7262D01*
X15809Y-7407D01*
X15821Y-7412D01*
X15821Y-15820D01*
X15046Y-15045D01*
X15046Y-7291D01*
X15116Y-7123D01*
X15116Y-6919D01*
X15038Y-6729D01*
X14893Y-6584D01*
X14704Y-6506D01*
X14499Y-6506D01*
X14387Y-6552D01*
X14387Y-6409D01*
X14669Y-6127D01*
X14669Y-6127D01*
X14734Y-6029D01*
X14757Y-5915D01*
X14757Y-5915D01*
X14757Y-3546D01*
X14757Y-3546D01*
X14734Y-3431D01*
X14669Y-3334D01*
X14669Y-3334D01*
X14461Y-3125D01*
X14461Y-1689D01*
X14461Y-469D01*
X14430Y-395D01*
X14374Y-339D01*
X14300Y-308D01*
X14221Y-308D01*
X13827Y-308D01*
X13754Y-339D01*
X13697Y-395D01*
X13667Y-468D01*
X13667Y-548D01*
X13667Y-1768D01*
X13697Y-1842D01*
X13753Y-1898D01*
X13827Y-1929D01*
X13906Y-1929D01*
X14300Y-1929D01*
X14374Y-1898D01*
X14430Y-1842D01*
X14460Y-1769D01*
X14461Y-1689D01*
X14461Y-3125D01*
X12138Y-803D01*
X12041Y-738D01*
X11926Y-715D01*
X11206Y-715D01*
X11092Y-738D01*
X10994Y-803D01*
X10802Y-996D01*
X10186Y-996D01*
X10113Y-1026D01*
X10056Y-1082D01*
X10026Y-1156D01*
X10026Y-1235D01*
X10026Y-2085D01*
X10056Y-2159D01*
X10112Y-2215D01*
X10186Y-2246D01*
X10265Y-2246D01*
X11015Y-2246D01*
X11089Y-2215D01*
X11145Y-2159D01*
X11176Y-2086D01*
X11176Y-2062D01*
X11194Y-2089D01*
X11381Y-2214D01*
X11601Y-2258D01*
X11821Y-2214D01*
X11856Y-2191D01*
X11856Y-2983D01*
X11660Y-2786D01*
X11298Y-2636D01*
X10906Y-2635D01*
X10544Y-2785D01*
X10266Y-3062D01*
X10116Y-3424D01*
X10116Y-3816D01*
X10265Y-4178D01*
X10542Y-4455D01*
X10904Y-4605D01*
X11296Y-4606D01*
X11321Y-4595D01*
X11321Y-6579D01*
X11310Y-6584D01*
X11165Y-6728D01*
X11144Y-6778D01*
X11144Y-5513D01*
X11123Y-5406D01*
X11123Y-5406D01*
X11103Y-5376D01*
X11062Y-5315D01*
X11062Y-5315D01*
X10558Y-4811D01*
X10467Y-4751D01*
X10360Y-4729D01*
X9846Y-4729D01*
X9739Y-4751D01*
X9709Y-4771D01*
X9648Y-4811D01*
X9277Y-5183D01*
X9226Y-5259D01*
X9226Y-5231D01*
X9196Y-5157D01*
X9139Y-5101D01*
X9066Y-5071D01*
X9065Y-5071D01*
X9139Y-5040D01*
X9195Y-4984D01*
X9226Y-4911D01*
X9226Y-4831D01*
X9226Y-4481D01*
X9196Y-4407D01*
X9139Y-4351D01*
X9066Y-4321D01*
X9023Y-4321D01*
X9010Y-4253D01*
X9010Y-4253D01*
X8989Y-4223D01*
X8949Y-4162D01*
X8949Y-4162D01*
X8905Y-4118D01*
X8994Y-4155D01*
X9207Y-4156D01*
X9404Y-4074D01*
X9554Y-3924D01*
X9636Y-3727D01*
X9636Y-3515D01*
X9561Y-3332D01*
X9620Y-3307D01*
X9677Y-3251D01*
X9707Y-3178D01*
X9707Y-3098D01*
X9707Y-1720D01*
X9683Y-1661D01*
X9707Y-1602D01*
X9707Y-1523D01*
X9707Y-190D01*
X28940Y-190D01*
X28899Y-313D01*
X28911Y-491D01*
X28955Y-596D01*
X29040Y-611D01*
X29280Y-371D01*
X29274Y-365D01*
X29345Y-294D01*
X29351Y-300D01*
X29356Y-294D01*
X29427Y-365D01*
X29421Y-371D01*
X29427Y-376D01*
X29356Y-447D01*
X29351Y-441D01*
X29110Y-682D01*
X29125Y-766D01*
X29294Y-823D01*
X29471Y-810D01*
X29481Y-806D01*
X29481Y-9671D01*
G54D10*
G36*
X29481Y-41571D02*
X29305Y-41394D01*
X29011Y-41272D01*
X28751Y-41271D01*
X28751Y-38243D01*
X28652Y-38004D01*
X28470Y-37821D01*
X28231Y-37722D01*
X27972Y-37721D01*
X27733Y-37820D01*
X27550Y-38003D01*
X27451Y-38242D01*
X27451Y-38500D01*
X27550Y-38739D01*
X27732Y-38922D01*
X27971Y-39021D01*
X28230Y-39022D01*
X28469Y-38923D01*
X28652Y-38740D01*
X28751Y-38501D01*
X28751Y-38243D01*
X28751Y-41271D01*
X28693Y-41271D01*
X28603Y-41309D01*
X28636Y-41228D01*
X28636Y-41016D01*
X28555Y-40819D01*
X28405Y-40668D01*
X28208Y-40587D01*
X27995Y-40586D01*
X27798Y-40668D01*
X27648Y-40818D01*
X27566Y-41015D01*
X27566Y-41227D01*
X27647Y-41424D01*
X27695Y-41472D01*
X27472Y-41471D01*
X27338Y-41527D01*
X27345Y-41495D01*
X27345Y-41495D01*
X27345Y-37965D01*
X27836Y-37474D01*
X27865Y-37545D01*
X27977Y-37657D01*
X28123Y-37717D01*
X28280Y-37717D01*
X28426Y-37657D01*
X28538Y-37545D01*
X28599Y-37400D01*
X28599Y-37242D01*
X28538Y-37096D01*
X28427Y-36984D01*
X28355Y-36954D01*
X28868Y-36442D01*
X28868Y-36442D01*
X28908Y-36381D01*
X28928Y-36351D01*
X28928Y-36351D01*
X28929Y-36347D01*
X29114Y-36347D01*
X29112Y-36359D01*
X29352Y-36600D01*
X29357Y-36594D01*
X29428Y-36665D01*
X29423Y-36670D01*
X29428Y-36676D01*
X29357Y-36747D01*
X29352Y-36741D01*
X29281Y-36812D01*
X29281Y-36670D01*
X29041Y-36430D01*
X28956Y-36445D01*
X28900Y-36613D01*
X28912Y-36791D01*
X28956Y-36896D01*
X29041Y-36911D01*
X29281Y-36670D01*
X29281Y-36812D01*
X29112Y-36981D01*
X29126Y-37066D01*
X29295Y-37122D01*
X29356Y-37118D01*
X29305Y-37241D01*
X29305Y-37399D01*
X29365Y-37545D01*
X29477Y-37657D01*
X29481Y-37659D01*
X29481Y-41571D01*
X29481Y-41571D01*
G37*
G54D33*
X29481Y-41571D02*
X29305Y-41394D01*
X29011Y-41272D01*
X28751Y-41271D01*
X28751Y-38243D01*
X28652Y-38004D01*
X28470Y-37821D01*
X28231Y-37722D01*
X27972Y-37721D01*
X27733Y-37820D01*
X27550Y-38003D01*
X27451Y-38242D01*
X27451Y-38500D01*
X27550Y-38739D01*
X27732Y-38922D01*
X27971Y-39021D01*
X28230Y-39022D01*
X28469Y-38923D01*
X28652Y-38740D01*
X28751Y-38501D01*
X28751Y-38243D01*
X28751Y-41271D01*
X28693Y-41271D01*
X28603Y-41309D01*
X28636Y-41228D01*
X28636Y-41016D01*
X28555Y-40819D01*
X28405Y-40668D01*
X28208Y-40587D01*
X27995Y-40586D01*
X27798Y-40668D01*
X27648Y-40818D01*
X27566Y-41015D01*
X27566Y-41227D01*
X27647Y-41424D01*
X27695Y-41472D01*
X27472Y-41471D01*
X27338Y-41527D01*
X27345Y-41495D01*
X27345Y-41495D01*
X27345Y-37965D01*
X27836Y-37474D01*
X27865Y-37545D01*
X27977Y-37657D01*
X28123Y-37717D01*
X28280Y-37717D01*
X28426Y-37657D01*
X28538Y-37545D01*
X28599Y-37400D01*
X28599Y-37242D01*
X28538Y-37096D01*
X28427Y-36984D01*
X28355Y-36954D01*
X28868Y-36442D01*
X28868Y-36442D01*
X28908Y-36381D01*
X28928Y-36351D01*
X28928Y-36351D01*
X28929Y-36347D01*
X29114Y-36347D01*
X29112Y-36359D01*
X29352Y-36600D01*
X29357Y-36594D01*
X29428Y-36665D01*
X29423Y-36670D01*
X29428Y-36676D01*
X29357Y-36747D01*
X29352Y-36741D01*
X29281Y-36812D01*
X29281Y-36670D01*
X29041Y-36430D01*
X28956Y-36445D01*
X28900Y-36613D01*
X28912Y-36791D01*
X28956Y-36896D01*
X29041Y-36911D01*
X29281Y-36670D01*
X29281Y-36812D01*
X29112Y-36981D01*
X29126Y-37066D01*
X29295Y-37122D01*
X29356Y-37118D01*
X29305Y-37241D01*
X29305Y-37399D01*
X29365Y-37545D01*
X29477Y-37657D01*
X29481Y-37659D01*
X29481Y-41571D01*
G54D10*
G36*
X29481Y-43944D02*
X29408Y-43920D01*
X29230Y-43932D01*
X29125Y-43976D01*
X29110Y-44060D01*
X29351Y-44301D01*
X29356Y-44295D01*
X29427Y-44366D01*
X29421Y-44372D01*
X29427Y-44377D01*
X29356Y-44448D01*
X29351Y-44442D01*
X29345Y-44448D01*
X29274Y-44377D01*
X29280Y-44372D01*
X29040Y-44131D01*
X28955Y-44146D01*
X28899Y-44314D01*
X28911Y-44492D01*
X28915Y-44501D01*
X25751Y-44501D01*
X25751Y-42993D01*
X25652Y-42754D01*
X25470Y-42571D01*
X25231Y-42472D01*
X25099Y-42472D01*
X25099Y-37242D01*
X25038Y-37096D01*
X24927Y-36984D01*
X24781Y-36924D01*
X24623Y-36923D01*
X24477Y-36984D01*
X24366Y-37095D01*
X24305Y-37241D01*
X24305Y-37399D01*
X24365Y-37545D01*
X24477Y-37657D01*
X24623Y-37717D01*
X24780Y-37717D01*
X24926Y-37657D01*
X25038Y-37545D01*
X25099Y-37400D01*
X25099Y-37242D01*
X25099Y-42472D01*
X24972Y-42471D01*
X24733Y-42570D01*
X24636Y-42667D01*
X24636Y-41016D01*
X24555Y-40819D01*
X24405Y-40668D01*
X24208Y-40587D01*
X23995Y-40586D01*
X23836Y-40652D01*
X23836Y-34376D01*
X23687Y-34014D01*
X23410Y-33737D01*
X23132Y-33621D01*
X23408Y-33507D01*
X23686Y-33230D01*
X23836Y-32868D01*
X23836Y-32476D01*
X23687Y-32114D01*
X23410Y-31837D01*
X23048Y-31687D01*
X22656Y-31686D01*
X22294Y-31836D01*
X22017Y-32113D01*
X21866Y-32475D01*
X21866Y-32867D01*
X22016Y-33229D01*
X22292Y-33506D01*
X22571Y-33622D01*
X22294Y-33736D01*
X22017Y-34013D01*
X21866Y-34375D01*
X21866Y-34767D01*
X22016Y-35129D01*
X22292Y-35406D01*
X22654Y-35556D01*
X23046Y-35557D01*
X23408Y-35407D01*
X23686Y-35130D01*
X23836Y-34768D01*
X23836Y-34376D01*
X23836Y-40652D01*
X23798Y-40668D01*
X23648Y-40818D01*
X23599Y-40936D01*
X23599Y-37242D01*
X23538Y-37096D01*
X23427Y-36984D01*
X23281Y-36924D01*
X23123Y-36923D01*
X22977Y-36984D01*
X22866Y-37095D01*
X22805Y-37241D01*
X22805Y-37399D01*
X22865Y-37545D01*
X22977Y-37657D01*
X23123Y-37717D01*
X23280Y-37717D01*
X23426Y-37657D01*
X23538Y-37545D01*
X23599Y-37400D01*
X23599Y-37242D01*
X23599Y-40936D01*
X23566Y-41015D01*
X23566Y-41227D01*
X23647Y-41424D01*
X23798Y-41575D01*
X23994Y-41656D01*
X24207Y-41657D01*
X24404Y-41575D01*
X24554Y-41425D01*
X24636Y-41228D01*
X24636Y-41016D01*
X24636Y-42667D01*
X24550Y-42753D01*
X24451Y-42992D01*
X24451Y-43250D01*
X24550Y-43489D01*
X24732Y-43672D01*
X24971Y-43771D01*
X25230Y-43772D01*
X25469Y-43673D01*
X25652Y-43490D01*
X25751Y-43251D01*
X25751Y-42993D01*
X25751Y-44501D01*
X23836Y-44501D01*
X23836Y-41876D01*
X23687Y-41514D01*
X23410Y-41237D01*
X23048Y-41087D01*
X22656Y-41086D01*
X22294Y-41236D01*
X22017Y-41513D01*
X21866Y-41875D01*
X21866Y-42267D01*
X22016Y-42629D01*
X22292Y-42906D01*
X22654Y-43056D01*
X23046Y-43057D01*
X23408Y-42907D01*
X23686Y-42630D01*
X23836Y-42268D01*
X23836Y-41876D01*
X23836Y-44501D01*
X18251Y-44501D01*
X18251Y-42993D01*
X18152Y-42754D01*
X17970Y-42571D01*
X17731Y-42472D01*
X17599Y-42472D01*
X17599Y-37242D01*
X17538Y-37096D01*
X17427Y-36984D01*
X17281Y-36924D01*
X17123Y-36923D01*
X16977Y-36984D01*
X16866Y-37095D01*
X16805Y-37241D01*
X16805Y-37399D01*
X16865Y-37545D01*
X16977Y-37657D01*
X17123Y-37717D01*
X17280Y-37717D01*
X17426Y-37657D01*
X17538Y-37545D01*
X17599Y-37400D01*
X17599Y-37242D01*
X17599Y-42472D01*
X17472Y-42471D01*
X17233Y-42570D01*
X17050Y-42753D01*
X16951Y-42992D01*
X16951Y-43250D01*
X17050Y-43489D01*
X17232Y-43672D01*
X17471Y-43771D01*
X17730Y-43772D01*
X17969Y-43673D01*
X18152Y-43490D01*
X18251Y-43251D01*
X18251Y-42993D01*
X18251Y-44501D01*
X12553Y-44501D01*
X12729Y-44325D01*
X12851Y-44031D01*
X12851Y-43713D01*
X12729Y-43419D01*
X12505Y-43194D01*
X12211Y-43072D01*
X11892Y-43071D01*
X11598Y-43193D01*
X11373Y-43418D01*
X11251Y-43712D01*
X11251Y-44030D01*
X11372Y-44324D01*
X11549Y-44501D01*
X10751Y-44501D01*
X10751Y-42993D01*
X10652Y-42754D01*
X10470Y-42571D01*
X10231Y-42472D01*
X9972Y-42471D01*
X9733Y-42570D01*
X9550Y-42753D01*
X9451Y-42992D01*
X9451Y-43250D01*
X9550Y-43489D01*
X9732Y-43672D01*
X9971Y-43771D01*
X10230Y-43772D01*
X10469Y-43673D01*
X10652Y-43490D01*
X10751Y-43251D01*
X10751Y-42993D01*
X10751Y-44501D01*
X3153Y-44501D01*
X3329Y-44325D01*
X3451Y-44031D01*
X3451Y-43713D01*
X3329Y-43419D01*
X3105Y-43194D01*
X2811Y-43072D01*
X2492Y-43071D01*
X2198Y-43193D01*
X1973Y-43418D01*
X1851Y-43712D01*
X1851Y-44030D01*
X1972Y-44324D01*
X2149Y-44501D01*
X804Y-44501D01*
X804Y-36677D01*
X791Y-36500D01*
X748Y-36395D01*
X663Y-36380D01*
X423Y-36620D01*
X663Y-36861D01*
X748Y-36846D01*
X804Y-36677D01*
X804Y-44501D01*
X779Y-44501D01*
X803Y-44429D01*
X790Y-44251D01*
X747Y-44146D01*
X662Y-44131D01*
X422Y-44372D01*
X427Y-44377D01*
X356Y-44448D01*
X351Y-44442D01*
X345Y-44448D01*
X275Y-44377D01*
X280Y-44372D01*
X275Y-44366D01*
X345Y-44295D01*
X351Y-44301D01*
X591Y-44060D01*
X577Y-43976D01*
X408Y-43920D01*
X231Y-43932D01*
X220Y-43936D01*
X220Y-37659D01*
X226Y-37657D01*
X338Y-37545D01*
X399Y-37400D01*
X399Y-37242D01*
X338Y-37096D01*
X314Y-37071D01*
X472Y-37060D01*
X578Y-37016D01*
X592Y-36931D01*
X352Y-36691D01*
X346Y-36697D01*
X276Y-36626D01*
X281Y-36620D01*
X276Y-36615D01*
X346Y-36544D01*
X352Y-36550D01*
X592Y-36309D01*
X578Y-36225D01*
X409Y-36168D01*
X232Y-36181D01*
X220Y-36186D01*
X220Y-15540D01*
X379Y-15583D01*
X452Y-15520D01*
X452Y-15170D01*
X444Y-15170D01*
X444Y-15070D01*
X452Y-15070D01*
X452Y-15062D01*
X552Y-15062D01*
X552Y-15070D01*
X560Y-15070D01*
X560Y-15170D01*
X552Y-15170D01*
X552Y-15520D01*
X625Y-15583D01*
X799Y-15535D01*
X877Y-15475D01*
X1682Y-16280D01*
X1682Y-16332D01*
X1742Y-16478D01*
X1854Y-16589D01*
X1858Y-16591D01*
X892Y-17557D01*
X831Y-17648D01*
X810Y-17755D01*
X810Y-24724D01*
X831Y-24831D01*
X892Y-24922D01*
X1555Y-25585D01*
X1495Y-25585D01*
X1298Y-25667D01*
X1148Y-25817D01*
X1066Y-26013D01*
X1066Y-26226D01*
X1147Y-26423D01*
X1297Y-26574D01*
X1494Y-26655D01*
X1707Y-26655D01*
X1904Y-26574D01*
X2054Y-26424D01*
X2136Y-26227D01*
X2136Y-26166D01*
X2376Y-26406D01*
X2376Y-26569D01*
X2397Y-26676D01*
X2458Y-26767D01*
X3317Y-27626D01*
X3317Y-29644D01*
X3251Y-29578D01*
X3251Y-27992D01*
X3152Y-27753D01*
X2970Y-27570D01*
X2731Y-27470D01*
X2472Y-27470D01*
X2233Y-27569D01*
X2050Y-27752D01*
X1951Y-27991D01*
X1951Y-28249D01*
X2050Y-28488D01*
X2232Y-28671D01*
X2471Y-28770D01*
X2730Y-28770D01*
X2969Y-28672D01*
X3152Y-28489D01*
X3251Y-28250D01*
X3251Y-27992D01*
X3251Y-29578D01*
X3210Y-29537D01*
X2848Y-29387D01*
X2456Y-29386D01*
X2094Y-29536D01*
X1816Y-29813D01*
X1666Y-30175D01*
X1666Y-30567D01*
X1815Y-30929D01*
X2092Y-31206D01*
X2454Y-31356D01*
X2846Y-31357D01*
X3208Y-31207D01*
X3317Y-31099D01*
X3317Y-31763D01*
X3338Y-31870D01*
X3399Y-31961D01*
X4328Y-32891D01*
X4328Y-32955D01*
X4160Y-32786D01*
X3798Y-32636D01*
X3406Y-32635D01*
X3044Y-32785D01*
X2766Y-33062D01*
X2616Y-33424D01*
X2616Y-33815D01*
X2675Y-33958D01*
X2381Y-33665D01*
X2381Y-33208D01*
X2469Y-33172D01*
X2652Y-32989D01*
X2751Y-32750D01*
X2751Y-32492D01*
X2652Y-32253D01*
X2470Y-32070D01*
X2231Y-31970D01*
X1972Y-31970D01*
X1733Y-32069D01*
X1550Y-32252D01*
X1451Y-32491D01*
X1451Y-32749D01*
X1550Y-32988D01*
X1647Y-33085D01*
X1495Y-33085D01*
X1298Y-33167D01*
X1148Y-33317D01*
X1066Y-33513D01*
X1066Y-33726D01*
X1147Y-33923D01*
X1297Y-34074D01*
X1494Y-34155D01*
X1707Y-34155D01*
X1904Y-34074D01*
X1951Y-34027D01*
X3843Y-35918D01*
X3843Y-35918D01*
X3903Y-35959D01*
X3934Y-35979D01*
X3934Y-35979D01*
X4001Y-35992D01*
X4001Y-36035D01*
X4031Y-36109D01*
X4087Y-36165D01*
X4161Y-36195D01*
X4240Y-36195D01*
X4431Y-36195D01*
X4431Y-36988D01*
X4427Y-36984D01*
X4281Y-36924D01*
X4123Y-36923D01*
X3977Y-36984D01*
X3866Y-37095D01*
X3805Y-37241D01*
X3805Y-37399D01*
X3865Y-37545D01*
X3977Y-37657D01*
X4123Y-37717D01*
X4280Y-37717D01*
X4426Y-37657D01*
X4431Y-37652D01*
X4431Y-38487D01*
X4233Y-38569D01*
X4050Y-38752D01*
X3951Y-38991D01*
X3951Y-39249D01*
X4050Y-39488D01*
X4232Y-39671D01*
X4471Y-39770D01*
X4730Y-39770D01*
X4932Y-39687D01*
X4932Y-39795D01*
X4651Y-40076D01*
X4590Y-40167D01*
X4569Y-40274D01*
X4569Y-40883D01*
X4436Y-40563D01*
X4160Y-40286D01*
X3798Y-40136D01*
X3636Y-40135D01*
X3636Y-37676D01*
X3486Y-37314D01*
X3210Y-37037D01*
X3144Y-37010D01*
X3329Y-36825D01*
X3451Y-36531D01*
X3451Y-36213D01*
X3329Y-35919D01*
X3105Y-35694D01*
X2811Y-35572D01*
X2492Y-35571D01*
X2198Y-35693D01*
X1973Y-35918D01*
X1851Y-36212D01*
X1851Y-36530D01*
X1972Y-36824D01*
X2157Y-37010D01*
X2094Y-37036D01*
X1816Y-37313D01*
X1666Y-37675D01*
X1666Y-38067D01*
X1815Y-38429D01*
X2092Y-38706D01*
X2454Y-38856D01*
X2846Y-38857D01*
X3208Y-38707D01*
X3485Y-38430D01*
X3636Y-38068D01*
X3636Y-37676D01*
X3636Y-40135D01*
X3406Y-40135D01*
X3044Y-40285D01*
X2766Y-40562D01*
X2616Y-40924D01*
X2616Y-41315D01*
X2675Y-41458D01*
X2381Y-41165D01*
X2381Y-40708D01*
X2469Y-40672D01*
X2652Y-40489D01*
X2751Y-40250D01*
X2751Y-39992D01*
X2652Y-39753D01*
X2470Y-39570D01*
X2231Y-39470D01*
X1972Y-39470D01*
X1733Y-39569D01*
X1599Y-39703D01*
X1599Y-37242D01*
X1538Y-37096D01*
X1427Y-36984D01*
X1281Y-36924D01*
X1123Y-36923D01*
X977Y-36984D01*
X866Y-37095D01*
X805Y-37241D01*
X805Y-37399D01*
X865Y-37545D01*
X977Y-37657D01*
X1123Y-37717D01*
X1280Y-37717D01*
X1426Y-37657D01*
X1538Y-37545D01*
X1599Y-37400D01*
X1599Y-37242D01*
X1599Y-39703D01*
X1550Y-39752D01*
X1451Y-39991D01*
X1451Y-40249D01*
X1550Y-40488D01*
X1647Y-40585D01*
X1495Y-40585D01*
X1298Y-40667D01*
X1148Y-40817D01*
X1066Y-41013D01*
X1066Y-41226D01*
X1147Y-41423D01*
X1297Y-41574D01*
X1494Y-41655D01*
X1707Y-41655D01*
X1904Y-41574D01*
X1951Y-41527D01*
X3843Y-43418D01*
X3843Y-43418D01*
X3903Y-43459D01*
X3934Y-43479D01*
X3934Y-43479D01*
X4001Y-43492D01*
X4001Y-43535D01*
X4031Y-43609D01*
X4087Y-43665D01*
X4161Y-43695D01*
X4240Y-43695D01*
X4502Y-43695D01*
X4513Y-43712D01*
X4736Y-43934D01*
X4736Y-43934D01*
X4796Y-43975D01*
X4827Y-43995D01*
X4827Y-43995D01*
X4934Y-44016D01*
X7236Y-44016D01*
X7343Y-43995D01*
X7343Y-43995D01*
X7434Y-43934D01*
X8633Y-42735D01*
X8721Y-42771D01*
X8980Y-42772D01*
X9219Y-42673D01*
X9402Y-42490D01*
X9501Y-42251D01*
X9501Y-41993D01*
X9402Y-41754D01*
X9305Y-41657D01*
X9457Y-41657D01*
X9654Y-41575D01*
X9804Y-41425D01*
X9886Y-41228D01*
X9886Y-41016D01*
X9805Y-40819D01*
X9654Y-40668D01*
X9458Y-40587D01*
X9245Y-40586D01*
X9226Y-40594D01*
X9208Y-40587D01*
X9099Y-40587D01*
X9099Y-37242D01*
X9038Y-37096D01*
X8927Y-36984D01*
X8781Y-36924D01*
X8623Y-36923D01*
X8477Y-36984D01*
X8366Y-37095D01*
X8305Y-37241D01*
X8305Y-37399D01*
X8365Y-37545D01*
X8477Y-37657D01*
X8623Y-37717D01*
X8780Y-37717D01*
X8926Y-37657D01*
X9038Y-37545D01*
X9099Y-37400D01*
X9099Y-37242D01*
X9099Y-40587D01*
X8995Y-40586D01*
X8798Y-40668D01*
X8648Y-40818D01*
X8566Y-41015D01*
X8566Y-41227D01*
X8647Y-41424D01*
X8702Y-41480D01*
X8483Y-41570D01*
X8336Y-41717D01*
X8336Y-40926D01*
X8186Y-40564D01*
X7910Y-40287D01*
X7599Y-40158D01*
X7599Y-37242D01*
X7538Y-37096D01*
X7427Y-36984D01*
X7281Y-36924D01*
X7123Y-36923D01*
X7001Y-36974D01*
X7001Y-35493D01*
X6902Y-35254D01*
X6720Y-35071D01*
X6481Y-34972D01*
X6222Y-34971D01*
X5983Y-35070D01*
X5800Y-35253D01*
X5701Y-35492D01*
X5701Y-35750D01*
X5800Y-35989D01*
X5982Y-36172D01*
X6221Y-36271D01*
X6480Y-36272D01*
X6719Y-36173D01*
X6902Y-35990D01*
X7001Y-35751D01*
X7001Y-35493D01*
X7001Y-36974D01*
X6977Y-36984D01*
X6866Y-37095D01*
X6805Y-37241D01*
X6805Y-37399D01*
X6865Y-37545D01*
X6977Y-37657D01*
X7123Y-37717D01*
X7280Y-37717D01*
X7426Y-37657D01*
X7538Y-37545D01*
X7599Y-37400D01*
X7599Y-37242D01*
X7599Y-40158D01*
X7548Y-40137D01*
X7156Y-40136D01*
X6794Y-40286D01*
X6516Y-40563D01*
X6366Y-40925D01*
X6366Y-41317D01*
X6515Y-41679D01*
X6792Y-41956D01*
X7154Y-42106D01*
X7546Y-42107D01*
X7908Y-41957D01*
X8185Y-41680D01*
X8336Y-41318D01*
X8336Y-40926D01*
X8336Y-41717D01*
X8300Y-41753D01*
X8201Y-41992D01*
X8201Y-42250D01*
X8237Y-42339D01*
X7120Y-43456D01*
X6916Y-43456D01*
X7001Y-43251D01*
X7001Y-42993D01*
X6902Y-42754D01*
X6720Y-42571D01*
X6481Y-42472D01*
X6222Y-42471D01*
X5983Y-42570D01*
X5800Y-42753D01*
X5701Y-42992D01*
X5701Y-43250D01*
X5786Y-43456D01*
X5501Y-43456D01*
X5501Y-43456D01*
X5501Y-42906D01*
X5471Y-42832D01*
X5414Y-42776D01*
X5403Y-42771D01*
X5385Y-42678D01*
X5385Y-42678D01*
X5364Y-42648D01*
X5324Y-42587D01*
X5324Y-42587D01*
X5129Y-42392D01*
X5129Y-41609D01*
X5244Y-41656D01*
X5457Y-41657D01*
X5477Y-41648D01*
X5494Y-41655D01*
X5707Y-41655D01*
X5904Y-41574D01*
X6054Y-41424D01*
X6136Y-41227D01*
X6136Y-41014D01*
X6055Y-40818D01*
X5904Y-40667D01*
X5708Y-40585D01*
X5495Y-40585D01*
X5475Y-40594D01*
X5458Y-40587D01*
X5245Y-40586D01*
X5129Y-40635D01*
X5129Y-40390D01*
X5410Y-40109D01*
X5471Y-40018D01*
X5471Y-40018D01*
X5474Y-40000D01*
X5492Y-39911D01*
X5492Y-39911D01*
X5492Y-37663D01*
X5623Y-37717D01*
X5780Y-37717D01*
X5926Y-37657D01*
X6038Y-37545D01*
X6099Y-37400D01*
X6099Y-37242D01*
X6038Y-37096D01*
X5927Y-36984D01*
X5781Y-36924D01*
X5623Y-36923D01*
X5492Y-36978D01*
X5492Y-36242D01*
X5471Y-36134D01*
X5471Y-36134D01*
X5460Y-36119D01*
X5470Y-36109D01*
X5501Y-36035D01*
X5501Y-35956D01*
X5501Y-35406D01*
X5471Y-35332D01*
X5414Y-35276D01*
X5403Y-35271D01*
X5385Y-35178D01*
X5385Y-35178D01*
X5364Y-35148D01*
X5324Y-35087D01*
X5324Y-35087D01*
X5129Y-34892D01*
X5129Y-34109D01*
X5244Y-34156D01*
X5457Y-34157D01*
X5477Y-34148D01*
X5494Y-34155D01*
X5707Y-34155D01*
X5904Y-34074D01*
X6054Y-33924D01*
X6136Y-33727D01*
X6136Y-33514D01*
X6055Y-33318D01*
X5904Y-33167D01*
X5708Y-33085D01*
X5495Y-33085D01*
X5475Y-33094D01*
X5458Y-33087D01*
X5245Y-33086D01*
X5129Y-33135D01*
X5129Y-32890D01*
X5930Y-32089D01*
X5930Y-32089D01*
X5970Y-32028D01*
X5990Y-31998D01*
X5990Y-31998D01*
X6012Y-31891D01*
X6012Y-31891D01*
X6012Y-30761D01*
X6012Y-30763D01*
X6456Y-31207D01*
X7036Y-31448D01*
X7663Y-31449D01*
X8244Y-31209D01*
X8688Y-30765D01*
X8929Y-30186D01*
X8929Y-29558D01*
X8689Y-28978D01*
X8246Y-28533D01*
X7666Y-28293D01*
X7038Y-28292D01*
X6458Y-28532D01*
X6351Y-28639D01*
X6351Y-28306D01*
X6321Y-28232D01*
X6320Y-28231D01*
X6368Y-28159D01*
X6368Y-28159D01*
X6371Y-28141D01*
X6389Y-28052D01*
X6389Y-28052D01*
X6389Y-24703D01*
X6542Y-24704D01*
X6688Y-24643D01*
X6800Y-24532D01*
X6860Y-24386D01*
X6860Y-24228D01*
X6800Y-24082D01*
X6688Y-23970D01*
X6543Y-23910D01*
X6389Y-23910D01*
X6389Y-22685D01*
X7390Y-23686D01*
X7376Y-23721D01*
X7376Y-23833D01*
X7438Y-23895D01*
X7851Y-23895D01*
X7851Y-23887D01*
X7951Y-23887D01*
X7951Y-23895D01*
X8363Y-23895D01*
X8426Y-23833D01*
X8438Y-23845D01*
X8851Y-23845D01*
X8851Y-23837D01*
X8951Y-23837D01*
X8951Y-23845D01*
X8959Y-23845D01*
X8959Y-23945D01*
X8951Y-23945D01*
X8951Y-23953D01*
X8851Y-23953D01*
X8851Y-23945D01*
X8438Y-23945D01*
X8376Y-24008D01*
X8363Y-23995D01*
X7951Y-23995D01*
X7951Y-24003D01*
X7851Y-24003D01*
X7851Y-23995D01*
X7438Y-23995D01*
X7376Y-24058D01*
X7376Y-24170D01*
X7414Y-24262D01*
X7484Y-24332D01*
X7521Y-24347D01*
X7513Y-24351D01*
X7456Y-24407D01*
X7426Y-24480D01*
X7426Y-24560D01*
X7426Y-24910D01*
X7456Y-24984D01*
X7512Y-25040D01*
X7586Y-25070D01*
X7665Y-25070D01*
X8215Y-25070D01*
X8289Y-25040D01*
X8345Y-24984D01*
X8349Y-24975D01*
X8566Y-24975D01*
X8606Y-25016D01*
X8752Y-25076D01*
X8910Y-25076D01*
X9056Y-25016D01*
X9167Y-24904D01*
X9228Y-24759D01*
X9228Y-24601D01*
X9168Y-24455D01*
X9056Y-24343D01*
X8951Y-24299D01*
X8951Y-24258D01*
X9013Y-24320D01*
X9126Y-24320D01*
X9226Y-24320D01*
X9316Y-24283D01*
X9316Y-25630D01*
X9228Y-25594D01*
X9208Y-25585D01*
X8995Y-25585D01*
X8798Y-25667D01*
X8648Y-25817D01*
X8566Y-26013D01*
X8566Y-26226D01*
X8647Y-26423D01*
X8797Y-26574D01*
X8994Y-26655D01*
X9207Y-26655D01*
X9316Y-26610D01*
X9316Y-27616D01*
X9337Y-27723D01*
X9398Y-27814D01*
X9487Y-27903D01*
X9451Y-27991D01*
X9451Y-28249D01*
X9550Y-28488D01*
X9732Y-28671D01*
X9971Y-28770D01*
X10230Y-28770D01*
X10469Y-28672D01*
X10652Y-28489D01*
X10751Y-28250D01*
X10751Y-27992D01*
X10652Y-27753D01*
X10470Y-27570D01*
X10231Y-27470D01*
X9972Y-27470D01*
X9883Y-27507D01*
X9876Y-27500D01*
X9876Y-26905D01*
X12273Y-29302D01*
X12273Y-29302D01*
X12371Y-29367D01*
X12486Y-29390D01*
X12983Y-29390D01*
X12983Y-29390D01*
X13098Y-29367D01*
X13098Y-29367D01*
X13195Y-29302D01*
X13293Y-29204D01*
X13293Y-29204D01*
X13358Y-29107D01*
X13360Y-29095D01*
X13690Y-29095D01*
X13764Y-29065D01*
X13812Y-29017D01*
X13946Y-29151D01*
X13946Y-35924D01*
X13938Y-35927D01*
X13881Y-35983D01*
X13851Y-36057D01*
X13851Y-36057D01*
X13821Y-35983D01*
X13764Y-35927D01*
X13756Y-35924D01*
X13756Y-35495D01*
X13735Y-35388D01*
X13735Y-35388D01*
X13714Y-35358D01*
X13674Y-35297D01*
X13674Y-35297D01*
X13214Y-34838D01*
X13251Y-34750D01*
X13251Y-34492D01*
X13152Y-34253D01*
X13055Y-34155D01*
X13207Y-34155D01*
X13404Y-34074D01*
X13554Y-33924D01*
X13636Y-33727D01*
X13636Y-33514D01*
X13555Y-33318D01*
X13404Y-33167D01*
X13208Y-33085D01*
X13036Y-33085D01*
X13036Y-30176D01*
X12886Y-29814D01*
X12610Y-29537D01*
X12248Y-29387D01*
X11856Y-29386D01*
X11494Y-29536D01*
X11216Y-29813D01*
X11066Y-30175D01*
X11066Y-30567D01*
X11215Y-30929D01*
X11492Y-31206D01*
X11854Y-31356D01*
X12246Y-31357D01*
X12608Y-31207D01*
X12885Y-30930D01*
X13036Y-30568D01*
X13036Y-30176D01*
X13036Y-33085D01*
X12995Y-33085D01*
X12798Y-33167D01*
X12648Y-33317D01*
X12566Y-33513D01*
X12566Y-33726D01*
X12647Y-33923D01*
X12694Y-33970D01*
X12472Y-33970D01*
X12233Y-34069D01*
X12086Y-34216D01*
X12086Y-33425D01*
X11936Y-33063D01*
X11660Y-32786D01*
X11298Y-32636D01*
X10906Y-32635D01*
X10544Y-32785D01*
X10266Y-33062D01*
X10116Y-33424D01*
X10116Y-33815D01*
X10265Y-34178D01*
X10542Y-34455D01*
X10904Y-34605D01*
X11296Y-34606D01*
X11658Y-34456D01*
X11935Y-34179D01*
X12086Y-33817D01*
X12086Y-33425D01*
X12086Y-34216D01*
X12050Y-34252D01*
X11951Y-34491D01*
X11951Y-34749D01*
X12050Y-34988D01*
X12232Y-35171D01*
X12471Y-35270D01*
X12730Y-35270D01*
X12818Y-35234D01*
X13196Y-35611D01*
X13196Y-35924D01*
X13188Y-35927D01*
X13131Y-35983D01*
X13101Y-36057D01*
X13101Y-36136D01*
X13101Y-36686D01*
X13131Y-36760D01*
X13187Y-36816D01*
X13261Y-36847D01*
X13340Y-36847D01*
X13690Y-36847D01*
X13764Y-36816D01*
X13820Y-36760D01*
X13851Y-36687D01*
X13851Y-36686D01*
X13881Y-36760D01*
X13937Y-36816D01*
X14011Y-36847D01*
X14090Y-36847D01*
X14324Y-36847D01*
X14363Y-36905D01*
X16127Y-38668D01*
X16127Y-39015D01*
X15746Y-38633D01*
X15166Y-38393D01*
X14599Y-38392D01*
X14599Y-37242D01*
X14538Y-37096D01*
X14427Y-36984D01*
X14281Y-36924D01*
X14123Y-36923D01*
X13977Y-36984D01*
X13866Y-37095D01*
X13805Y-37241D01*
X13805Y-37399D01*
X13865Y-37545D01*
X13977Y-37657D01*
X14123Y-37717D01*
X14280Y-37717D01*
X14426Y-37657D01*
X14538Y-37545D01*
X14599Y-37400D01*
X14599Y-37242D01*
X14599Y-38392D01*
X14538Y-38392D01*
X13958Y-38632D01*
X13514Y-39075D01*
X13273Y-39655D01*
X13272Y-40283D01*
X13451Y-40715D01*
X13404Y-40668D01*
X13208Y-40587D01*
X13036Y-40586D01*
X13036Y-37676D01*
X12886Y-37314D01*
X12610Y-37037D01*
X12544Y-37010D01*
X12729Y-36825D01*
X12851Y-36531D01*
X12851Y-36213D01*
X12729Y-35919D01*
X12505Y-35694D01*
X12211Y-35572D01*
X11892Y-35571D01*
X11598Y-35693D01*
X11373Y-35918D01*
X11251Y-36212D01*
X11251Y-36530D01*
X11372Y-36824D01*
X11557Y-37010D01*
X11494Y-37036D01*
X11216Y-37313D01*
X11066Y-37675D01*
X11066Y-38067D01*
X11215Y-38429D01*
X11492Y-38706D01*
X11854Y-38856D01*
X12246Y-38857D01*
X12608Y-38707D01*
X12885Y-38430D01*
X13036Y-38068D01*
X13036Y-37676D01*
X13036Y-40586D01*
X12995Y-40586D01*
X12798Y-40668D01*
X12648Y-40818D01*
X12566Y-41015D01*
X12566Y-41227D01*
X12647Y-41424D01*
X12694Y-41472D01*
X12472Y-41471D01*
X12233Y-41570D01*
X12086Y-41717D01*
X12086Y-40926D01*
X11936Y-40564D01*
X11660Y-40287D01*
X11298Y-40137D01*
X10906Y-40136D01*
X10751Y-40200D01*
X10751Y-35492D01*
X10652Y-35253D01*
X10470Y-35070D01*
X10231Y-34970D01*
X9972Y-34970D01*
X9886Y-35006D01*
X9886Y-33516D01*
X9805Y-33319D01*
X9654Y-33168D01*
X9458Y-33087D01*
X9245Y-33086D01*
X9228Y-33094D01*
X9208Y-33085D01*
X8995Y-33085D01*
X8798Y-33167D01*
X8648Y-33317D01*
X8566Y-33513D01*
X8566Y-33726D01*
X8647Y-33923D01*
X8703Y-33979D01*
X8483Y-34070D01*
X8336Y-34217D01*
X8336Y-33426D01*
X8186Y-33064D01*
X7910Y-32787D01*
X7548Y-32637D01*
X7156Y-32636D01*
X6794Y-32786D01*
X6516Y-33063D01*
X6366Y-33425D01*
X6366Y-33817D01*
X6515Y-34179D01*
X6792Y-34456D01*
X7154Y-34606D01*
X7546Y-34607D01*
X7908Y-34457D01*
X8185Y-34180D01*
X8336Y-33818D01*
X8336Y-33426D01*
X8336Y-34217D01*
X8300Y-34253D01*
X8201Y-34492D01*
X8201Y-34750D01*
X8300Y-34989D01*
X8482Y-35172D01*
X8721Y-35271D01*
X8980Y-35272D01*
X9219Y-35173D01*
X9402Y-34990D01*
X9501Y-34751D01*
X9501Y-34493D01*
X9402Y-34254D01*
X9305Y-34157D01*
X9457Y-34157D01*
X9654Y-34075D01*
X9804Y-33925D01*
X9886Y-33728D01*
X9886Y-33516D01*
X9886Y-35006D01*
X9733Y-35069D01*
X9550Y-35252D01*
X9451Y-35491D01*
X9451Y-35749D01*
X9550Y-35988D01*
X9732Y-36171D01*
X9971Y-36270D01*
X10230Y-36270D01*
X10469Y-36172D01*
X10652Y-35989D01*
X10751Y-35750D01*
X10751Y-35492D01*
X10751Y-40200D01*
X10599Y-40263D01*
X10599Y-37242D01*
X10538Y-37096D01*
X10427Y-36984D01*
X10281Y-36924D01*
X10123Y-36923D01*
X9977Y-36984D01*
X9866Y-37095D01*
X9805Y-37241D01*
X9805Y-37399D01*
X9865Y-37545D01*
X9977Y-37657D01*
X10123Y-37717D01*
X10280Y-37717D01*
X10426Y-37657D01*
X10538Y-37545D01*
X10599Y-37400D01*
X10599Y-37242D01*
X10599Y-40263D01*
X10544Y-40286D01*
X10266Y-40563D01*
X10116Y-40925D01*
X10116Y-41317D01*
X10265Y-41679D01*
X10542Y-41956D01*
X10904Y-42106D01*
X11296Y-42107D01*
X11658Y-41957D01*
X11935Y-41680D01*
X12086Y-41318D01*
X12086Y-40926D01*
X12086Y-41717D01*
X12050Y-41753D01*
X11951Y-41992D01*
X11951Y-42250D01*
X12050Y-42489D01*
X12232Y-42672D01*
X12471Y-42771D01*
X12730Y-42772D01*
X12818Y-42735D01*
X13101Y-43018D01*
X13101Y-43035D01*
X13101Y-43585D01*
X13131Y-43659D01*
X13187Y-43715D01*
X13261Y-43745D01*
X13340Y-43745D01*
X13690Y-43745D01*
X13764Y-43715D01*
X13820Y-43659D01*
X13851Y-43585D01*
X13851Y-43585D01*
X13881Y-43659D01*
X13937Y-43715D01*
X14011Y-43745D01*
X14090Y-43745D01*
X14440Y-43745D01*
X14514Y-43715D01*
X14570Y-43659D01*
X14601Y-43585D01*
X14601Y-43506D01*
X14601Y-42956D01*
X14571Y-42882D01*
X14540Y-42852D01*
X16095Y-41297D01*
X16147Y-41424D01*
X16298Y-41575D01*
X16494Y-41656D01*
X16707Y-41657D01*
X16904Y-41575D01*
X17054Y-41425D01*
X17136Y-41228D01*
X17136Y-41016D01*
X17055Y-40819D01*
X16905Y-40668D01*
X16708Y-40587D01*
X16687Y-40587D01*
X16687Y-38552D01*
X16687Y-38552D01*
X16665Y-38445D01*
X16665Y-38445D01*
X16645Y-38415D01*
X16605Y-38354D01*
X16605Y-38354D01*
X15913Y-37663D01*
X15926Y-37657D01*
X16038Y-37545D01*
X16099Y-37400D01*
X16099Y-37242D01*
X16038Y-37096D01*
X15927Y-36984D01*
X15781Y-36924D01*
X15623Y-36923D01*
X15477Y-36984D01*
X15366Y-37095D01*
X15360Y-37109D01*
X14841Y-36591D01*
X14841Y-36372D01*
X14820Y-36264D01*
X14759Y-36174D01*
X14668Y-36113D01*
X14601Y-36099D01*
X14601Y-36057D01*
X14571Y-35983D01*
X14514Y-35927D01*
X14506Y-35924D01*
X14506Y-29035D01*
X14488Y-28946D01*
X14485Y-28928D01*
X14485Y-28928D01*
X14424Y-28837D01*
X14424Y-28837D01*
X14009Y-28422D01*
X13918Y-28362D01*
X13851Y-28348D01*
X13851Y-28306D01*
X13821Y-28232D01*
X13764Y-28176D01*
X13756Y-28172D01*
X13756Y-28144D01*
X14767Y-27133D01*
X14847Y-27133D01*
X14992Y-27073D01*
X15104Y-26961D01*
X15125Y-26911D01*
X17545Y-29331D01*
X17545Y-29331D01*
X17606Y-29372D01*
X17636Y-29392D01*
X17636Y-29392D01*
X17743Y-29413D01*
X17743Y-29413D01*
X20518Y-29413D01*
X20518Y-32661D01*
X20540Y-32768D01*
X20600Y-32859D01*
X20835Y-33093D01*
X20835Y-33138D01*
X20708Y-33085D01*
X20495Y-33085D01*
X20298Y-33167D01*
X20148Y-33317D01*
X20066Y-33513D01*
X20066Y-33726D01*
X20147Y-33923D01*
X20195Y-33970D01*
X19972Y-33970D01*
X19733Y-34069D01*
X19586Y-34216D01*
X19586Y-33425D01*
X19437Y-33063D01*
X19160Y-32786D01*
X18798Y-32636D01*
X18406Y-32635D01*
X18044Y-32785D01*
X17767Y-33062D01*
X17616Y-33424D01*
X17616Y-33815D01*
X17766Y-34178D01*
X18042Y-34455D01*
X18404Y-34605D01*
X18796Y-34606D01*
X19158Y-34456D01*
X19436Y-34179D01*
X19586Y-33817D01*
X19586Y-33425D01*
X19586Y-34216D01*
X19550Y-34252D01*
X19451Y-34491D01*
X19451Y-34749D01*
X19550Y-34988D01*
X19732Y-35171D01*
X19946Y-35260D01*
X19946Y-35672D01*
X19938Y-35676D01*
X19882Y-35732D01*
X19851Y-35805D01*
X19851Y-35885D01*
X19851Y-36435D01*
X19881Y-36509D01*
X19938Y-36565D01*
X20011Y-36595D01*
X20091Y-36595D01*
X20441Y-36595D01*
X20514Y-36565D01*
X20571Y-36509D01*
X20601Y-36435D01*
X20601Y-36435D01*
X20631Y-36509D01*
X20688Y-36565D01*
X20699Y-36569D01*
X20717Y-36663D01*
X20778Y-36753D01*
X20840Y-36816D01*
X20840Y-40642D01*
X20708Y-40587D01*
X20599Y-40587D01*
X20599Y-37242D01*
X20538Y-37096D01*
X20427Y-36984D01*
X20281Y-36924D01*
X20123Y-36923D01*
X19977Y-36984D01*
X19866Y-37095D01*
X19805Y-37241D01*
X19805Y-37399D01*
X19865Y-37545D01*
X19977Y-37657D01*
X20123Y-37717D01*
X20280Y-37717D01*
X20426Y-37657D01*
X20538Y-37545D01*
X20599Y-37400D01*
X20599Y-37242D01*
X20599Y-40587D01*
X20495Y-40586D01*
X20298Y-40668D01*
X20148Y-40818D01*
X20066Y-41015D01*
X20066Y-41227D01*
X20147Y-41424D01*
X20195Y-41472D01*
X19972Y-41471D01*
X19733Y-41570D01*
X19586Y-41717D01*
X19586Y-40926D01*
X19437Y-40564D01*
X19160Y-40287D01*
X19099Y-40262D01*
X19099Y-37242D01*
X19038Y-37096D01*
X18927Y-36984D01*
X18781Y-36924D01*
X18623Y-36923D01*
X18477Y-36984D01*
X18366Y-37095D01*
X18305Y-37241D01*
X18305Y-37399D01*
X18365Y-37545D01*
X18477Y-37657D01*
X18623Y-37717D01*
X18780Y-37717D01*
X18926Y-37657D01*
X19038Y-37545D01*
X19099Y-37400D01*
X19099Y-37242D01*
X19099Y-40262D01*
X18798Y-40137D01*
X18406Y-40136D01*
X18251Y-40200D01*
X18251Y-35492D01*
X18152Y-35253D01*
X17970Y-35070D01*
X17731Y-34970D01*
X17472Y-34970D01*
X17233Y-35069D01*
X17136Y-35166D01*
X17136Y-33514D01*
X17055Y-33318D01*
X16905Y-33167D01*
X16708Y-33085D01*
X16495Y-33085D01*
X16298Y-33167D01*
X16148Y-33317D01*
X16066Y-33513D01*
X16066Y-33726D01*
X16147Y-33923D01*
X16298Y-34074D01*
X16494Y-34155D01*
X16707Y-34155D01*
X16904Y-34074D01*
X17054Y-33924D01*
X17136Y-33727D01*
X17136Y-33514D01*
X17136Y-35166D01*
X17050Y-35252D01*
X16951Y-35491D01*
X16951Y-35749D01*
X17050Y-35988D01*
X17232Y-36171D01*
X17471Y-36270D01*
X17730Y-36270D01*
X17969Y-36172D01*
X18152Y-35989D01*
X18251Y-35750D01*
X18251Y-35492D01*
X18251Y-40200D01*
X18044Y-40286D01*
X17767Y-40563D01*
X17616Y-40925D01*
X17616Y-41317D01*
X17766Y-41679D01*
X18042Y-41956D01*
X18404Y-42106D01*
X18796Y-42107D01*
X19158Y-41957D01*
X19436Y-41680D01*
X19586Y-41318D01*
X19586Y-40926D01*
X19586Y-41717D01*
X19550Y-41753D01*
X19451Y-41992D01*
X19451Y-42250D01*
X19550Y-42489D01*
X19732Y-42672D01*
X19946Y-42761D01*
X19946Y-43174D01*
X19938Y-43177D01*
X19882Y-43233D01*
X19851Y-43307D01*
X19851Y-43386D01*
X19851Y-43936D01*
X19881Y-44010D01*
X19938Y-44066D01*
X20011Y-44097D01*
X20091Y-44097D01*
X20441Y-44097D01*
X20514Y-44066D01*
X20571Y-44010D01*
X20601Y-43937D01*
X20601Y-43936D01*
X20631Y-44010D01*
X20688Y-44066D01*
X20761Y-44097D01*
X20841Y-44097D01*
X21191Y-44097D01*
X21264Y-44066D01*
X21321Y-44010D01*
X21351Y-43937D01*
X21351Y-43857D01*
X21351Y-43307D01*
X21322Y-43235D01*
X21322Y-43235D01*
X21359Y-43180D01*
X21379Y-43150D01*
X21379Y-43150D01*
X21400Y-43042D01*
X21400Y-43042D01*
X21400Y-37580D01*
X21477Y-37657D01*
X21623Y-37717D01*
X21780Y-37717D01*
X21926Y-37657D01*
X22038Y-37545D01*
X22099Y-37400D01*
X22099Y-37242D01*
X22038Y-37096D01*
X21927Y-36984D01*
X21781Y-36924D01*
X21623Y-36923D01*
X21477Y-36984D01*
X21400Y-37061D01*
X21400Y-36700D01*
X21400Y-36700D01*
X21379Y-36592D01*
X21379Y-36592D01*
X21359Y-36562D01*
X21321Y-36507D01*
X21321Y-36507D01*
X21351Y-36435D01*
X21351Y-36356D01*
X21351Y-35806D01*
X21321Y-35732D01*
X21321Y-35732D01*
X21374Y-35654D01*
X21374Y-35654D01*
X21377Y-35636D01*
X21395Y-35546D01*
X21395Y-35546D01*
X21395Y-32977D01*
X21377Y-32888D01*
X21374Y-32870D01*
X21374Y-32870D01*
X21313Y-32780D01*
X21078Y-32545D01*
X21078Y-30829D01*
X21456Y-31207D01*
X22035Y-31448D01*
X22663Y-31449D01*
X23243Y-31209D01*
X23688Y-30765D01*
X23928Y-30186D01*
X23929Y-29558D01*
X23689Y-28978D01*
X23246Y-28533D01*
X22666Y-28293D01*
X22038Y-28292D01*
X21491Y-28518D01*
X21491Y-25579D01*
X21866Y-25205D01*
X21866Y-25367D01*
X22016Y-25729D01*
X22292Y-26006D01*
X22571Y-26122D01*
X22294Y-26236D01*
X22017Y-26513D01*
X21866Y-26875D01*
X21866Y-27267D01*
X22016Y-27629D01*
X22292Y-27906D01*
X22654Y-28056D01*
X23046Y-28057D01*
X23408Y-27907D01*
X23686Y-27630D01*
X23836Y-27268D01*
X23836Y-26876D01*
X23687Y-26514D01*
X23410Y-26237D01*
X23132Y-26121D01*
X23408Y-26007D01*
X23686Y-25730D01*
X23836Y-25368D01*
X23836Y-24976D01*
X23687Y-24614D01*
X23502Y-24429D01*
X24090Y-24429D01*
X24197Y-24408D01*
X24197Y-24408D01*
X24288Y-24347D01*
X24714Y-23920D01*
X24714Y-23920D01*
X24755Y-23860D01*
X24775Y-23830D01*
X24775Y-23830D01*
X24796Y-23722D01*
X24796Y-23722D01*
X24796Y-21232D01*
X24789Y-21196D01*
X24971Y-21271D01*
X25230Y-21272D01*
X25319Y-21235D01*
X25597Y-21514D01*
X25544Y-21536D01*
X25267Y-21813D01*
X25116Y-22175D01*
X25116Y-22567D01*
X25266Y-22929D01*
X25542Y-23206D01*
X25904Y-23356D01*
X26296Y-23357D01*
X26658Y-23207D01*
X26936Y-22930D01*
X27086Y-22568D01*
X27086Y-22416D01*
X27612Y-22942D01*
X27550Y-23003D01*
X27451Y-23242D01*
X27451Y-23500D01*
X27550Y-23739D01*
X27732Y-23922D01*
X27951Y-24013D01*
X26934Y-25030D01*
X26873Y-25121D01*
X26852Y-25228D01*
X26852Y-25480D01*
X26660Y-25287D01*
X26636Y-25277D01*
X26636Y-24266D01*
X26555Y-24069D01*
X26405Y-23918D01*
X26208Y-23837D01*
X25995Y-23836D01*
X25798Y-23918D01*
X25648Y-24068D01*
X25566Y-24265D01*
X25566Y-24477D01*
X25647Y-24674D01*
X25798Y-24825D01*
X25994Y-24906D01*
X26207Y-24907D01*
X26404Y-24825D01*
X26554Y-24675D01*
X26636Y-24478D01*
X26636Y-24266D01*
X26636Y-25277D01*
X26298Y-25137D01*
X25906Y-25136D01*
X25544Y-25286D01*
X25267Y-25563D01*
X25116Y-25925D01*
X25116Y-26317D01*
X25266Y-26679D01*
X25542Y-26956D01*
X25904Y-27106D01*
X26296Y-27107D01*
X26658Y-26957D01*
X26708Y-26907D01*
X26708Y-27392D01*
X26730Y-27499D01*
X26790Y-27590D01*
X26937Y-27736D01*
X26733Y-27820D01*
X26636Y-27917D01*
X26636Y-27766D01*
X26555Y-27569D01*
X26405Y-27418D01*
X26208Y-27337D01*
X25995Y-27336D01*
X25798Y-27418D01*
X25648Y-27568D01*
X25595Y-27696D01*
X25470Y-27571D01*
X25231Y-27472D01*
X24972Y-27471D01*
X24733Y-27570D01*
X24636Y-27667D01*
X24636Y-26016D01*
X24555Y-25819D01*
X24405Y-25668D01*
X24208Y-25587D01*
X23995Y-25586D01*
X23798Y-25668D01*
X23648Y-25818D01*
X23566Y-26015D01*
X23566Y-26227D01*
X23647Y-26424D01*
X23798Y-26575D01*
X23994Y-26656D01*
X24207Y-26657D01*
X24404Y-26575D01*
X24554Y-26425D01*
X24636Y-26228D01*
X24636Y-26016D01*
X24636Y-27667D01*
X24550Y-27753D01*
X24451Y-27992D01*
X24451Y-28250D01*
X24550Y-28489D01*
X24732Y-28672D01*
X24971Y-28771D01*
X25230Y-28772D01*
X25469Y-28673D01*
X25652Y-28490D01*
X25743Y-28270D01*
X25798Y-28325D01*
X25994Y-28406D01*
X26207Y-28407D01*
X26404Y-28325D01*
X26451Y-28278D01*
X26451Y-28500D01*
X26550Y-28739D01*
X26732Y-28922D01*
X26971Y-29021D01*
X27230Y-29022D01*
X27469Y-28923D01*
X27652Y-28740D01*
X27689Y-28652D01*
X27851Y-28652D01*
X27851Y-28686D01*
X27881Y-28760D01*
X27938Y-28816D01*
X28011Y-28847D01*
X28091Y-28847D01*
X28105Y-28847D01*
X27086Y-29866D01*
X27086Y-29676D01*
X26937Y-29314D01*
X26660Y-29037D01*
X26298Y-28887D01*
X25906Y-28886D01*
X25544Y-29036D01*
X25267Y-29313D01*
X25116Y-29675D01*
X25116Y-30067D01*
X25266Y-30429D01*
X25542Y-30706D01*
X25904Y-30856D01*
X26296Y-30857D01*
X26658Y-30707D01*
X26852Y-30514D01*
X26852Y-32980D01*
X26660Y-32787D01*
X26636Y-32777D01*
X26636Y-31766D01*
X26555Y-31569D01*
X26405Y-31418D01*
X26208Y-31337D01*
X25995Y-31336D01*
X25798Y-31418D01*
X25648Y-31568D01*
X25566Y-31765D01*
X25566Y-31977D01*
X25647Y-32174D01*
X25798Y-32325D01*
X25994Y-32406D01*
X26207Y-32407D01*
X26404Y-32325D01*
X26554Y-32175D01*
X26636Y-31978D01*
X26636Y-31766D01*
X26636Y-32777D01*
X26298Y-32637D01*
X25906Y-32636D01*
X25544Y-32786D01*
X25267Y-33063D01*
X25116Y-33425D01*
X25116Y-33817D01*
X25266Y-34179D01*
X25542Y-34456D01*
X25904Y-34606D01*
X26296Y-34607D01*
X26658Y-34457D01*
X26708Y-34407D01*
X26708Y-34892D01*
X26730Y-34999D01*
X26790Y-35090D01*
X26937Y-35236D01*
X26733Y-35320D01*
X26636Y-35417D01*
X26636Y-35266D01*
X26555Y-35069D01*
X26405Y-34918D01*
X26208Y-34837D01*
X25995Y-34836D01*
X25798Y-34918D01*
X25648Y-35068D01*
X25595Y-35196D01*
X25470Y-35071D01*
X25231Y-34972D01*
X24972Y-34971D01*
X24733Y-35070D01*
X24636Y-35167D01*
X24636Y-33516D01*
X24555Y-33319D01*
X24405Y-33168D01*
X24208Y-33087D01*
X23995Y-33086D01*
X23798Y-33168D01*
X23648Y-33318D01*
X23566Y-33515D01*
X23566Y-33727D01*
X23647Y-33924D01*
X23798Y-34075D01*
X23994Y-34156D01*
X24207Y-34157D01*
X24404Y-34075D01*
X24554Y-33925D01*
X24636Y-33728D01*
X24636Y-33516D01*
X24636Y-35167D01*
X24550Y-35253D01*
X24451Y-35492D01*
X24451Y-35750D01*
X24550Y-35989D01*
X24732Y-36172D01*
X24971Y-36271D01*
X25230Y-36272D01*
X25469Y-36173D01*
X25652Y-35990D01*
X25743Y-35770D01*
X25798Y-35825D01*
X25994Y-35906D01*
X26207Y-35907D01*
X26404Y-35825D01*
X26451Y-35778D01*
X26451Y-36000D01*
X26550Y-36239D01*
X26732Y-36422D01*
X26971Y-36521D01*
X27230Y-36522D01*
X27469Y-36423D01*
X27652Y-36240D01*
X27689Y-36152D01*
X27851Y-36152D01*
X27851Y-36186D01*
X27881Y-36260D01*
X27938Y-36316D01*
X28011Y-36347D01*
X28091Y-36347D01*
X28171Y-36347D01*
X27086Y-37431D01*
X27086Y-37176D01*
X26937Y-36814D01*
X26660Y-36537D01*
X26298Y-36387D01*
X25906Y-36386D01*
X25544Y-36536D01*
X25267Y-36813D01*
X25116Y-37175D01*
X25116Y-37567D01*
X25266Y-37929D01*
X25542Y-38206D01*
X25904Y-38356D01*
X26296Y-38357D01*
X26658Y-38207D01*
X26785Y-38081D01*
X26785Y-40412D01*
X26660Y-40287D01*
X26636Y-40277D01*
X26636Y-39266D01*
X26555Y-39069D01*
X26405Y-38918D01*
X26208Y-38837D01*
X25995Y-38836D01*
X25798Y-38918D01*
X25648Y-39068D01*
X25566Y-39265D01*
X25566Y-39477D01*
X25647Y-39674D01*
X25798Y-39825D01*
X25994Y-39906D01*
X26207Y-39907D01*
X26404Y-39825D01*
X26554Y-39675D01*
X26636Y-39478D01*
X26636Y-39266D01*
X26636Y-40277D01*
X26298Y-40137D01*
X25906Y-40136D01*
X25544Y-40286D01*
X25267Y-40563D01*
X25116Y-40925D01*
X25116Y-41317D01*
X25266Y-41679D01*
X25542Y-41956D01*
X25904Y-42106D01*
X26296Y-42107D01*
X26658Y-41957D01*
X26710Y-41906D01*
X26710Y-43583D01*
X26731Y-43690D01*
X26792Y-43781D01*
X27265Y-44255D01*
X27265Y-44255D01*
X27326Y-44295D01*
X27356Y-44315D01*
X27356Y-44315D01*
X27463Y-44337D01*
X27999Y-44337D01*
X28106Y-44315D01*
X28106Y-44315D01*
X28197Y-44255D01*
X28339Y-44113D01*
X28339Y-44113D01*
X28350Y-44097D01*
X28691Y-44097D01*
X28764Y-44066D01*
X28821Y-44010D01*
X28851Y-43937D01*
X28851Y-43857D01*
X28851Y-43307D01*
X28821Y-43233D01*
X28765Y-43177D01*
X28691Y-43147D01*
X28611Y-43147D01*
X28261Y-43147D01*
X28188Y-43177D01*
X28132Y-43233D01*
X28101Y-43307D01*
X28101Y-43307D01*
X28071Y-43233D01*
X28015Y-43177D01*
X28006Y-43174D01*
X28006Y-42636D01*
X28152Y-42490D01*
X28155Y-42482D01*
X28172Y-42524D01*
X28397Y-42749D01*
X28691Y-42871D01*
X29010Y-42872D01*
X29304Y-42750D01*
X29481Y-42573D01*
X29481Y-43944D01*
X29481Y-43944D01*
G37*
G54D33*
X29481Y-43944D02*
X29408Y-43920D01*
X29230Y-43932D01*
X29125Y-43976D01*
X29110Y-44060D01*
X29351Y-44301D01*
X29356Y-44295D01*
X29427Y-44366D01*
X29421Y-44372D01*
X29427Y-44377D01*
X29356Y-44448D01*
X29351Y-44442D01*
X29345Y-44448D01*
X29274Y-44377D01*
X29280Y-44372D01*
X29040Y-44131D01*
X28955Y-44146D01*
X28899Y-44314D01*
X28911Y-44492D01*
X28915Y-44501D01*
X25751Y-44501D01*
X25751Y-42993D01*
X25652Y-42754D01*
X25470Y-42571D01*
X25231Y-42472D01*
X25099Y-42472D01*
X25099Y-37242D01*
X25038Y-37096D01*
X24927Y-36984D01*
X24781Y-36924D01*
X24623Y-36923D01*
X24477Y-36984D01*
X24366Y-37095D01*
X24305Y-37241D01*
X24305Y-37399D01*
X24365Y-37545D01*
X24477Y-37657D01*
X24623Y-37717D01*
X24780Y-37717D01*
X24926Y-37657D01*
X25038Y-37545D01*
X25099Y-37400D01*
X25099Y-37242D01*
X25099Y-42472D01*
X24972Y-42471D01*
X24733Y-42570D01*
X24636Y-42667D01*
X24636Y-41016D01*
X24555Y-40819D01*
X24405Y-40668D01*
X24208Y-40587D01*
X23995Y-40586D01*
X23836Y-40652D01*
X23836Y-34376D01*
X23687Y-34014D01*
X23410Y-33737D01*
X23132Y-33621D01*
X23408Y-33507D01*
X23686Y-33230D01*
X23836Y-32868D01*
X23836Y-32476D01*
X23687Y-32114D01*
X23410Y-31837D01*
X23048Y-31687D01*
X22656Y-31686D01*
X22294Y-31836D01*
X22017Y-32113D01*
X21866Y-32475D01*
X21866Y-32867D01*
X22016Y-33229D01*
X22292Y-33506D01*
X22571Y-33622D01*
X22294Y-33736D01*
X22017Y-34013D01*
X21866Y-34375D01*
X21866Y-34767D01*
X22016Y-35129D01*
X22292Y-35406D01*
X22654Y-35556D01*
X23046Y-35557D01*
X23408Y-35407D01*
X23686Y-35130D01*
X23836Y-34768D01*
X23836Y-34376D01*
X23836Y-40652D01*
X23798Y-40668D01*
X23648Y-40818D01*
X23599Y-40936D01*
X23599Y-37242D01*
X23538Y-37096D01*
X23427Y-36984D01*
X23281Y-36924D01*
X23123Y-36923D01*
X22977Y-36984D01*
X22866Y-37095D01*
X22805Y-37241D01*
X22805Y-37399D01*
X22865Y-37545D01*
X22977Y-37657D01*
X23123Y-37717D01*
X23280Y-37717D01*
X23426Y-37657D01*
X23538Y-37545D01*
X23599Y-37400D01*
X23599Y-37242D01*
X23599Y-40936D01*
X23566Y-41015D01*
X23566Y-41227D01*
X23647Y-41424D01*
X23798Y-41575D01*
X23994Y-41656D01*
X24207Y-41657D01*
X24404Y-41575D01*
X24554Y-41425D01*
X24636Y-41228D01*
X24636Y-41016D01*
X24636Y-42667D01*
X24550Y-42753D01*
X24451Y-42992D01*
X24451Y-43250D01*
X24550Y-43489D01*
X24732Y-43672D01*
X24971Y-43771D01*
X25230Y-43772D01*
X25469Y-43673D01*
X25652Y-43490D01*
X25751Y-43251D01*
X25751Y-42993D01*
X25751Y-44501D01*
X23836Y-44501D01*
X23836Y-41876D01*
X23687Y-41514D01*
X23410Y-41237D01*
X23048Y-41087D01*
X22656Y-41086D01*
X22294Y-41236D01*
X22017Y-41513D01*
X21866Y-41875D01*
X21866Y-42267D01*
X22016Y-42629D01*
X22292Y-42906D01*
X22654Y-43056D01*
X23046Y-43057D01*
X23408Y-42907D01*
X23686Y-42630D01*
X23836Y-42268D01*
X23836Y-41876D01*
X23836Y-44501D01*
X18251Y-44501D01*
X18251Y-42993D01*
X18152Y-42754D01*
X17970Y-42571D01*
X17731Y-42472D01*
X17599Y-42472D01*
X17599Y-37242D01*
X17538Y-37096D01*
X17427Y-36984D01*
X17281Y-36924D01*
X17123Y-36923D01*
X16977Y-36984D01*
X16866Y-37095D01*
X16805Y-37241D01*
X16805Y-37399D01*
X16865Y-37545D01*
X16977Y-37657D01*
X17123Y-37717D01*
X17280Y-37717D01*
X17426Y-37657D01*
X17538Y-37545D01*
X17599Y-37400D01*
X17599Y-37242D01*
X17599Y-42472D01*
X17472Y-42471D01*
X17233Y-42570D01*
X17050Y-42753D01*
X16951Y-42992D01*
X16951Y-43250D01*
X17050Y-43489D01*
X17232Y-43672D01*
X17471Y-43771D01*
X17730Y-43772D01*
X17969Y-43673D01*
X18152Y-43490D01*
X18251Y-43251D01*
X18251Y-42993D01*
X18251Y-44501D01*
X12553Y-44501D01*
X12729Y-44325D01*
X12851Y-44031D01*
X12851Y-43713D01*
X12729Y-43419D01*
X12505Y-43194D01*
X12211Y-43072D01*
X11892Y-43071D01*
X11598Y-43193D01*
X11373Y-43418D01*
X11251Y-43712D01*
X11251Y-44030D01*
X11372Y-44324D01*
X11549Y-44501D01*
X10751Y-44501D01*
X10751Y-42993D01*
X10652Y-42754D01*
X10470Y-42571D01*
X10231Y-42472D01*
X9972Y-42471D01*
X9733Y-42570D01*
X9550Y-42753D01*
X9451Y-42992D01*
X9451Y-43250D01*
X9550Y-43489D01*
X9732Y-43672D01*
X9971Y-43771D01*
X10230Y-43772D01*
X10469Y-43673D01*
X10652Y-43490D01*
X10751Y-43251D01*
X10751Y-42993D01*
X10751Y-44501D01*
X3153Y-44501D01*
X3329Y-44325D01*
X3451Y-44031D01*
X3451Y-43713D01*
X3329Y-43419D01*
X3105Y-43194D01*
X2811Y-43072D01*
X2492Y-43071D01*
X2198Y-43193D01*
X1973Y-43418D01*
X1851Y-43712D01*
X1851Y-44030D01*
X1972Y-44324D01*
X2149Y-44501D01*
X804Y-44501D01*
X804Y-36677D01*
X791Y-36500D01*
X748Y-36395D01*
X663Y-36380D01*
X423Y-36620D01*
X663Y-36861D01*
X748Y-36846D01*
X804Y-36677D01*
X804Y-44501D01*
X779Y-44501D01*
X803Y-44429D01*
X790Y-44251D01*
X747Y-44146D01*
X662Y-44131D01*
X422Y-44372D01*
X427Y-44377D01*
X356Y-44448D01*
X351Y-44442D01*
X345Y-44448D01*
X275Y-44377D01*
X280Y-44372D01*
X275Y-44366D01*
X345Y-44295D01*
X351Y-44301D01*
X591Y-44060D01*
X577Y-43976D01*
X408Y-43920D01*
X231Y-43932D01*
X220Y-43936D01*
X220Y-37659D01*
X226Y-37657D01*
X338Y-37545D01*
X399Y-37400D01*
X399Y-37242D01*
X338Y-37096D01*
X314Y-37071D01*
X472Y-37060D01*
X578Y-37016D01*
X592Y-36931D01*
X352Y-36691D01*
X346Y-36697D01*
X276Y-36626D01*
X281Y-36620D01*
X276Y-36615D01*
X346Y-36544D01*
X352Y-36550D01*
X592Y-36309D01*
X578Y-36225D01*
X409Y-36168D01*
X232Y-36181D01*
X220Y-36186D01*
X220Y-15540D01*
X379Y-15583D01*
X452Y-15520D01*
X452Y-15170D01*
X444Y-15170D01*
X444Y-15070D01*
X452Y-15070D01*
X452Y-15062D01*
X552Y-15062D01*
X552Y-15070D01*
X560Y-15070D01*
X560Y-15170D01*
X552Y-15170D01*
X552Y-15520D01*
X625Y-15583D01*
X799Y-15535D01*
X877Y-15475D01*
X1682Y-16280D01*
X1682Y-16332D01*
X1742Y-16478D01*
X1854Y-16589D01*
X1858Y-16591D01*
X892Y-17557D01*
X831Y-17648D01*
X810Y-17755D01*
X810Y-24724D01*
X831Y-24831D01*
X892Y-24922D01*
X1555Y-25585D01*
X1495Y-25585D01*
X1298Y-25667D01*
X1148Y-25817D01*
X1066Y-26013D01*
X1066Y-26226D01*
X1147Y-26423D01*
X1297Y-26574D01*
X1494Y-26655D01*
X1707Y-26655D01*
X1904Y-26574D01*
X2054Y-26424D01*
X2136Y-26227D01*
X2136Y-26166D01*
X2376Y-26406D01*
X2376Y-26569D01*
X2397Y-26676D01*
X2458Y-26767D01*
X3317Y-27626D01*
X3317Y-29644D01*
X3251Y-29578D01*
X3251Y-27992D01*
X3152Y-27753D01*
X2970Y-27570D01*
X2731Y-27470D01*
X2472Y-27470D01*
X2233Y-27569D01*
X2050Y-27752D01*
X1951Y-27991D01*
X1951Y-28249D01*
X2050Y-28488D01*
X2232Y-28671D01*
X2471Y-28770D01*
X2730Y-28770D01*
X2969Y-28672D01*
X3152Y-28489D01*
X3251Y-28250D01*
X3251Y-27992D01*
X3251Y-29578D01*
X3210Y-29537D01*
X2848Y-29387D01*
X2456Y-29386D01*
X2094Y-29536D01*
X1816Y-29813D01*
X1666Y-30175D01*
X1666Y-30567D01*
X1815Y-30929D01*
X2092Y-31206D01*
X2454Y-31356D01*
X2846Y-31357D01*
X3208Y-31207D01*
X3317Y-31099D01*
X3317Y-31763D01*
X3338Y-31870D01*
X3399Y-31961D01*
X4328Y-32891D01*
X4328Y-32955D01*
X4160Y-32786D01*
X3798Y-32636D01*
X3406Y-32635D01*
X3044Y-32785D01*
X2766Y-33062D01*
X2616Y-33424D01*
X2616Y-33815D01*
X2675Y-33958D01*
X2381Y-33665D01*
X2381Y-33208D01*
X2469Y-33172D01*
X2652Y-32989D01*
X2751Y-32750D01*
X2751Y-32492D01*
X2652Y-32253D01*
X2470Y-32070D01*
X2231Y-31970D01*
X1972Y-31970D01*
X1733Y-32069D01*
X1550Y-32252D01*
X1451Y-32491D01*
X1451Y-32749D01*
X1550Y-32988D01*
X1647Y-33085D01*
X1495Y-33085D01*
X1298Y-33167D01*
X1148Y-33317D01*
X1066Y-33513D01*
X1066Y-33726D01*
X1147Y-33923D01*
X1297Y-34074D01*
X1494Y-34155D01*
X1707Y-34155D01*
X1904Y-34074D01*
X1951Y-34027D01*
X3843Y-35918D01*
X3843Y-35918D01*
X3903Y-35959D01*
X3934Y-35979D01*
X3934Y-35979D01*
X4001Y-35992D01*
X4001Y-36035D01*
X4031Y-36109D01*
X4087Y-36165D01*
X4161Y-36195D01*
X4240Y-36195D01*
X4431Y-36195D01*
X4431Y-36988D01*
X4427Y-36984D01*
X4281Y-36924D01*
X4123Y-36923D01*
X3977Y-36984D01*
X3866Y-37095D01*
X3805Y-37241D01*
X3805Y-37399D01*
X3865Y-37545D01*
X3977Y-37657D01*
X4123Y-37717D01*
X4280Y-37717D01*
X4426Y-37657D01*
X4431Y-37652D01*
X4431Y-38487D01*
X4233Y-38569D01*
X4050Y-38752D01*
X3951Y-38991D01*
X3951Y-39249D01*
X4050Y-39488D01*
X4232Y-39671D01*
X4471Y-39770D01*
X4730Y-39770D01*
X4932Y-39687D01*
X4932Y-39795D01*
X4651Y-40076D01*
X4590Y-40167D01*
X4569Y-40274D01*
X4569Y-40883D01*
X4436Y-40563D01*
X4160Y-40286D01*
X3798Y-40136D01*
X3636Y-40135D01*
X3636Y-37676D01*
X3486Y-37314D01*
X3210Y-37037D01*
X3144Y-37010D01*
X3329Y-36825D01*
X3451Y-36531D01*
X3451Y-36213D01*
X3329Y-35919D01*
X3105Y-35694D01*
X2811Y-35572D01*
X2492Y-35571D01*
X2198Y-35693D01*
X1973Y-35918D01*
X1851Y-36212D01*
X1851Y-36530D01*
X1972Y-36824D01*
X2157Y-37010D01*
X2094Y-37036D01*
X1816Y-37313D01*
X1666Y-37675D01*
X1666Y-38067D01*
X1815Y-38429D01*
X2092Y-38706D01*
X2454Y-38856D01*
X2846Y-38857D01*
X3208Y-38707D01*
X3485Y-38430D01*
X3636Y-38068D01*
X3636Y-37676D01*
X3636Y-40135D01*
X3406Y-40135D01*
X3044Y-40285D01*
X2766Y-40562D01*
X2616Y-40924D01*
X2616Y-41315D01*
X2675Y-41458D01*
X2381Y-41165D01*
X2381Y-40708D01*
X2469Y-40672D01*
X2652Y-40489D01*
X2751Y-40250D01*
X2751Y-39992D01*
X2652Y-39753D01*
X2470Y-39570D01*
X2231Y-39470D01*
X1972Y-39470D01*
X1733Y-39569D01*
X1599Y-39703D01*
X1599Y-37242D01*
X1538Y-37096D01*
X1427Y-36984D01*
X1281Y-36924D01*
X1123Y-36923D01*
X977Y-36984D01*
X866Y-37095D01*
X805Y-37241D01*
X805Y-37399D01*
X865Y-37545D01*
X977Y-37657D01*
X1123Y-37717D01*
X1280Y-37717D01*
X1426Y-37657D01*
X1538Y-37545D01*
X1599Y-37400D01*
X1599Y-37242D01*
X1599Y-39703D01*
X1550Y-39752D01*
X1451Y-39991D01*
X1451Y-40249D01*
X1550Y-40488D01*
X1647Y-40585D01*
X1495Y-40585D01*
X1298Y-40667D01*
X1148Y-40817D01*
X1066Y-41013D01*
X1066Y-41226D01*
X1147Y-41423D01*
X1297Y-41574D01*
X1494Y-41655D01*
X1707Y-41655D01*
X1904Y-41574D01*
X1951Y-41527D01*
X3843Y-43418D01*
X3843Y-43418D01*
X3903Y-43459D01*
X3934Y-43479D01*
X3934Y-43479D01*
X4001Y-43492D01*
X4001Y-43535D01*
X4031Y-43609D01*
X4087Y-43665D01*
X4161Y-43695D01*
X4240Y-43695D01*
X4502Y-43695D01*
X4513Y-43712D01*
X4736Y-43934D01*
X4736Y-43934D01*
X4796Y-43975D01*
X4827Y-43995D01*
X4827Y-43995D01*
X4934Y-44016D01*
X7236Y-44016D01*
X7343Y-43995D01*
X7343Y-43995D01*
X7434Y-43934D01*
X8633Y-42735D01*
X8721Y-42771D01*
X8980Y-42772D01*
X9219Y-42673D01*
X9402Y-42490D01*
X9501Y-42251D01*
X9501Y-41993D01*
X9402Y-41754D01*
X9305Y-41657D01*
X9457Y-41657D01*
X9654Y-41575D01*
X9804Y-41425D01*
X9886Y-41228D01*
X9886Y-41016D01*
X9805Y-40819D01*
X9654Y-40668D01*
X9458Y-40587D01*
X9245Y-40586D01*
X9226Y-40594D01*
X9208Y-40587D01*
X9099Y-40587D01*
X9099Y-37242D01*
X9038Y-37096D01*
X8927Y-36984D01*
X8781Y-36924D01*
X8623Y-36923D01*
X8477Y-36984D01*
X8366Y-37095D01*
X8305Y-37241D01*
X8305Y-37399D01*
X8365Y-37545D01*
X8477Y-37657D01*
X8623Y-37717D01*
X8780Y-37717D01*
X8926Y-37657D01*
X9038Y-37545D01*
X9099Y-37400D01*
X9099Y-37242D01*
X9099Y-40587D01*
X8995Y-40586D01*
X8798Y-40668D01*
X8648Y-40818D01*
X8566Y-41015D01*
X8566Y-41227D01*
X8647Y-41424D01*
X8702Y-41480D01*
X8483Y-41570D01*
X8336Y-41717D01*
X8336Y-40926D01*
X8186Y-40564D01*
X7910Y-40287D01*
X7599Y-40158D01*
X7599Y-37242D01*
X7538Y-37096D01*
X7427Y-36984D01*
X7281Y-36924D01*
X7123Y-36923D01*
X7001Y-36974D01*
X7001Y-35493D01*
X6902Y-35254D01*
X6720Y-35071D01*
X6481Y-34972D01*
X6222Y-34971D01*
X5983Y-35070D01*
X5800Y-35253D01*
X5701Y-35492D01*
X5701Y-35750D01*
X5800Y-35989D01*
X5982Y-36172D01*
X6221Y-36271D01*
X6480Y-36272D01*
X6719Y-36173D01*
X6902Y-35990D01*
X7001Y-35751D01*
X7001Y-35493D01*
X7001Y-36974D01*
X6977Y-36984D01*
X6866Y-37095D01*
X6805Y-37241D01*
X6805Y-37399D01*
X6865Y-37545D01*
X6977Y-37657D01*
X7123Y-37717D01*
X7280Y-37717D01*
X7426Y-37657D01*
X7538Y-37545D01*
X7599Y-37400D01*
X7599Y-37242D01*
X7599Y-40158D01*
X7548Y-40137D01*
X7156Y-40136D01*
X6794Y-40286D01*
X6516Y-40563D01*
X6366Y-40925D01*
X6366Y-41317D01*
X6515Y-41679D01*
X6792Y-41956D01*
X7154Y-42106D01*
X7546Y-42107D01*
X7908Y-41957D01*
X8185Y-41680D01*
X8336Y-41318D01*
X8336Y-40926D01*
X8336Y-41717D01*
X8300Y-41753D01*
X8201Y-41992D01*
X8201Y-42250D01*
X8237Y-42339D01*
X7120Y-43456D01*
X6916Y-43456D01*
X7001Y-43251D01*
X7001Y-42993D01*
X6902Y-42754D01*
X6720Y-42571D01*
X6481Y-42472D01*
X6222Y-42471D01*
X5983Y-42570D01*
X5800Y-42753D01*
X5701Y-42992D01*
X5701Y-43250D01*
X5786Y-43456D01*
X5501Y-43456D01*
X5501Y-43456D01*
X5501Y-42906D01*
X5471Y-42832D01*
X5414Y-42776D01*
X5403Y-42771D01*
X5385Y-42678D01*
X5385Y-42678D01*
X5364Y-42648D01*
X5324Y-42587D01*
X5324Y-42587D01*
X5129Y-42392D01*
X5129Y-41609D01*
X5244Y-41656D01*
X5457Y-41657D01*
X5477Y-41648D01*
X5494Y-41655D01*
X5707Y-41655D01*
X5904Y-41574D01*
X6054Y-41424D01*
X6136Y-41227D01*
X6136Y-41014D01*
X6055Y-40818D01*
X5904Y-40667D01*
X5708Y-40585D01*
X5495Y-40585D01*
X5475Y-40594D01*
X5458Y-40587D01*
X5245Y-40586D01*
X5129Y-40635D01*
X5129Y-40390D01*
X5410Y-40109D01*
X5471Y-40018D01*
X5471Y-40018D01*
X5474Y-40000D01*
X5492Y-39911D01*
X5492Y-39911D01*
X5492Y-37663D01*
X5623Y-37717D01*
X5780Y-37717D01*
X5926Y-37657D01*
X6038Y-37545D01*
X6099Y-37400D01*
X6099Y-37242D01*
X6038Y-37096D01*
X5927Y-36984D01*
X5781Y-36924D01*
X5623Y-36923D01*
X5492Y-36978D01*
X5492Y-36242D01*
X5471Y-36134D01*
X5471Y-36134D01*
X5460Y-36119D01*
X5470Y-36109D01*
X5501Y-36035D01*
X5501Y-35956D01*
X5501Y-35406D01*
X5471Y-35332D01*
X5414Y-35276D01*
X5403Y-35271D01*
X5385Y-35178D01*
X5385Y-35178D01*
X5364Y-35148D01*
X5324Y-35087D01*
X5324Y-35087D01*
X5129Y-34892D01*
X5129Y-34109D01*
X5244Y-34156D01*
X5457Y-34157D01*
X5477Y-34148D01*
X5494Y-34155D01*
X5707Y-34155D01*
X5904Y-34074D01*
X6054Y-33924D01*
X6136Y-33727D01*
X6136Y-33514D01*
X6055Y-33318D01*
X5904Y-33167D01*
X5708Y-33085D01*
X5495Y-33085D01*
X5475Y-33094D01*
X5458Y-33087D01*
X5245Y-33086D01*
X5129Y-33135D01*
X5129Y-32890D01*
X5930Y-32089D01*
X5930Y-32089D01*
X5970Y-32028D01*
X5990Y-31998D01*
X5990Y-31998D01*
X6012Y-31891D01*
X6012Y-31891D01*
X6012Y-30761D01*
X6012Y-30763D01*
X6456Y-31207D01*
X7036Y-31448D01*
X7663Y-31449D01*
X8244Y-31209D01*
X8688Y-30765D01*
X8929Y-30186D01*
X8929Y-29558D01*
X8689Y-28978D01*
X8246Y-28533D01*
X7666Y-28293D01*
X7038Y-28292D01*
X6458Y-28532D01*
X6351Y-28639D01*
X6351Y-28306D01*
X6321Y-28232D01*
X6320Y-28231D01*
X6368Y-28159D01*
X6368Y-28159D01*
X6371Y-28141D01*
X6389Y-28052D01*
X6389Y-28052D01*
X6389Y-24703D01*
X6542Y-24704D01*
X6688Y-24643D01*
X6800Y-24532D01*
X6860Y-24386D01*
X6860Y-24228D01*
X6800Y-24082D01*
X6688Y-23970D01*
X6543Y-23910D01*
X6389Y-23910D01*
X6389Y-22685D01*
X7390Y-23686D01*
X7376Y-23721D01*
X7376Y-23833D01*
X7438Y-23895D01*
X7851Y-23895D01*
X7851Y-23887D01*
X7951Y-23887D01*
X7951Y-23895D01*
X8363Y-23895D01*
X8426Y-23833D01*
X8438Y-23845D01*
X8851Y-23845D01*
X8851Y-23837D01*
X8951Y-23837D01*
X8951Y-23845D01*
X8959Y-23845D01*
X8959Y-23945D01*
X8951Y-23945D01*
X8951Y-23953D01*
X8851Y-23953D01*
X8851Y-23945D01*
X8438Y-23945D01*
X8376Y-24008D01*
X8363Y-23995D01*
X7951Y-23995D01*
X7951Y-24003D01*
X7851Y-24003D01*
X7851Y-23995D01*
X7438Y-23995D01*
X7376Y-24058D01*
X7376Y-24170D01*
X7414Y-24262D01*
X7484Y-24332D01*
X7521Y-24347D01*
X7513Y-24351D01*
X7456Y-24407D01*
X7426Y-24480D01*
X7426Y-24560D01*
X7426Y-24910D01*
X7456Y-24984D01*
X7512Y-25040D01*
X7586Y-25070D01*
X7665Y-25070D01*
X8215Y-25070D01*
X8289Y-25040D01*
X8345Y-24984D01*
X8349Y-24975D01*
X8566Y-24975D01*
X8606Y-25016D01*
X8752Y-25076D01*
X8910Y-25076D01*
X9056Y-25016D01*
X9167Y-24904D01*
X9228Y-24759D01*
X9228Y-24601D01*
X9168Y-24455D01*
X9056Y-24343D01*
X8951Y-24299D01*
X8951Y-24258D01*
X9013Y-24320D01*
X9126Y-24320D01*
X9226Y-24320D01*
X9316Y-24283D01*
X9316Y-25630D01*
X9228Y-25594D01*
X9208Y-25585D01*
X8995Y-25585D01*
X8798Y-25667D01*
X8648Y-25817D01*
X8566Y-26013D01*
X8566Y-26226D01*
X8647Y-26423D01*
X8797Y-26574D01*
X8994Y-26655D01*
X9207Y-26655D01*
X9316Y-26610D01*
X9316Y-27616D01*
X9337Y-27723D01*
X9398Y-27814D01*
X9487Y-27903D01*
X9451Y-27991D01*
X9451Y-28249D01*
X9550Y-28488D01*
X9732Y-28671D01*
X9971Y-28770D01*
X10230Y-28770D01*
X10469Y-28672D01*
X10652Y-28489D01*
X10751Y-28250D01*
X10751Y-27992D01*
X10652Y-27753D01*
X10470Y-27570D01*
X10231Y-27470D01*
X9972Y-27470D01*
X9883Y-27507D01*
X9876Y-27500D01*
X9876Y-26905D01*
X12273Y-29302D01*
X12273Y-29302D01*
X12371Y-29367D01*
X12486Y-29390D01*
X12983Y-29390D01*
X12983Y-29390D01*
X13098Y-29367D01*
X13098Y-29367D01*
X13195Y-29302D01*
X13293Y-29204D01*
X13293Y-29204D01*
X13358Y-29107D01*
X13360Y-29095D01*
X13690Y-29095D01*
X13764Y-29065D01*
X13812Y-29017D01*
X13946Y-29151D01*
X13946Y-35924D01*
X13938Y-35927D01*
X13881Y-35983D01*
X13851Y-36057D01*
X13851Y-36057D01*
X13821Y-35983D01*
X13764Y-35927D01*
X13756Y-35924D01*
X13756Y-35495D01*
X13735Y-35388D01*
X13735Y-35388D01*
X13714Y-35358D01*
X13674Y-35297D01*
X13674Y-35297D01*
X13214Y-34838D01*
X13251Y-34750D01*
X13251Y-34492D01*
X13152Y-34253D01*
X13055Y-34155D01*
X13207Y-34155D01*
X13404Y-34074D01*
X13554Y-33924D01*
X13636Y-33727D01*
X13636Y-33514D01*
X13555Y-33318D01*
X13404Y-33167D01*
X13208Y-33085D01*
X13036Y-33085D01*
X13036Y-30176D01*
X12886Y-29814D01*
X12610Y-29537D01*
X12248Y-29387D01*
X11856Y-29386D01*
X11494Y-29536D01*
X11216Y-29813D01*
X11066Y-30175D01*
X11066Y-30567D01*
X11215Y-30929D01*
X11492Y-31206D01*
X11854Y-31356D01*
X12246Y-31357D01*
X12608Y-31207D01*
X12885Y-30930D01*
X13036Y-30568D01*
X13036Y-30176D01*
X13036Y-33085D01*
X12995Y-33085D01*
X12798Y-33167D01*
X12648Y-33317D01*
X12566Y-33513D01*
X12566Y-33726D01*
X12647Y-33923D01*
X12694Y-33970D01*
X12472Y-33970D01*
X12233Y-34069D01*
X12086Y-34216D01*
X12086Y-33425D01*
X11936Y-33063D01*
X11660Y-32786D01*
X11298Y-32636D01*
X10906Y-32635D01*
X10544Y-32785D01*
X10266Y-33062D01*
X10116Y-33424D01*
X10116Y-33815D01*
X10265Y-34178D01*
X10542Y-34455D01*
X10904Y-34605D01*
X11296Y-34606D01*
X11658Y-34456D01*
X11935Y-34179D01*
X12086Y-33817D01*
X12086Y-33425D01*
X12086Y-34216D01*
X12050Y-34252D01*
X11951Y-34491D01*
X11951Y-34749D01*
X12050Y-34988D01*
X12232Y-35171D01*
X12471Y-35270D01*
X12730Y-35270D01*
X12818Y-35234D01*
X13196Y-35611D01*
X13196Y-35924D01*
X13188Y-35927D01*
X13131Y-35983D01*
X13101Y-36057D01*
X13101Y-36136D01*
X13101Y-36686D01*
X13131Y-36760D01*
X13187Y-36816D01*
X13261Y-36847D01*
X13340Y-36847D01*
X13690Y-36847D01*
X13764Y-36816D01*
X13820Y-36760D01*
X13851Y-36687D01*
X13851Y-36686D01*
X13881Y-36760D01*
X13937Y-36816D01*
X14011Y-36847D01*
X14090Y-36847D01*
X14324Y-36847D01*
X14363Y-36905D01*
X16127Y-38668D01*
X16127Y-39015D01*
X15746Y-38633D01*
X15166Y-38393D01*
X14599Y-38392D01*
X14599Y-37242D01*
X14538Y-37096D01*
X14427Y-36984D01*
X14281Y-36924D01*
X14123Y-36923D01*
X13977Y-36984D01*
X13866Y-37095D01*
X13805Y-37241D01*
X13805Y-37399D01*
X13865Y-37545D01*
X13977Y-37657D01*
X14123Y-37717D01*
X14280Y-37717D01*
X14426Y-37657D01*
X14538Y-37545D01*
X14599Y-37400D01*
X14599Y-37242D01*
X14599Y-38392D01*
X14538Y-38392D01*
X13958Y-38632D01*
X13514Y-39075D01*
X13273Y-39655D01*
X13272Y-40283D01*
X13451Y-40715D01*
X13404Y-40668D01*
X13208Y-40587D01*
X13036Y-40586D01*
X13036Y-37676D01*
X12886Y-37314D01*
X12610Y-37037D01*
X12544Y-37010D01*
X12729Y-36825D01*
X12851Y-36531D01*
X12851Y-36213D01*
X12729Y-35919D01*
X12505Y-35694D01*
X12211Y-35572D01*
X11892Y-35571D01*
X11598Y-35693D01*
X11373Y-35918D01*
X11251Y-36212D01*
X11251Y-36530D01*
X11372Y-36824D01*
X11557Y-37010D01*
X11494Y-37036D01*
X11216Y-37313D01*
X11066Y-37675D01*
X11066Y-38067D01*
X11215Y-38429D01*
X11492Y-38706D01*
X11854Y-38856D01*
X12246Y-38857D01*
X12608Y-38707D01*
X12885Y-38430D01*
X13036Y-38068D01*
X13036Y-37676D01*
X13036Y-40586D01*
X12995Y-40586D01*
X12798Y-40668D01*
X12648Y-40818D01*
X12566Y-41015D01*
X12566Y-41227D01*
X12647Y-41424D01*
X12694Y-41472D01*
X12472Y-41471D01*
X12233Y-41570D01*
X12086Y-41717D01*
X12086Y-40926D01*
X11936Y-40564D01*
X11660Y-40287D01*
X11298Y-40137D01*
X10906Y-40136D01*
X10751Y-40200D01*
X10751Y-35492D01*
X10652Y-35253D01*
X10470Y-35070D01*
X10231Y-34970D01*
X9972Y-34970D01*
X9886Y-35006D01*
X9886Y-33516D01*
X9805Y-33319D01*
X9654Y-33168D01*
X9458Y-33087D01*
X9245Y-33086D01*
X9228Y-33094D01*
X9208Y-33085D01*
X8995Y-33085D01*
X8798Y-33167D01*
X8648Y-33317D01*
X8566Y-33513D01*
X8566Y-33726D01*
X8647Y-33923D01*
X8703Y-33979D01*
X8483Y-34070D01*
X8336Y-34217D01*
X8336Y-33426D01*
X8186Y-33064D01*
X7910Y-32787D01*
X7548Y-32637D01*
X7156Y-32636D01*
X6794Y-32786D01*
X6516Y-33063D01*
X6366Y-33425D01*
X6366Y-33817D01*
X6515Y-34179D01*
X6792Y-34456D01*
X7154Y-34606D01*
X7546Y-34607D01*
X7908Y-34457D01*
X8185Y-34180D01*
X8336Y-33818D01*
X8336Y-33426D01*
X8336Y-34217D01*
X8300Y-34253D01*
X8201Y-34492D01*
X8201Y-34750D01*
X8300Y-34989D01*
X8482Y-35172D01*
X8721Y-35271D01*
X8980Y-35272D01*
X9219Y-35173D01*
X9402Y-34990D01*
X9501Y-34751D01*
X9501Y-34493D01*
X9402Y-34254D01*
X9305Y-34157D01*
X9457Y-34157D01*
X9654Y-34075D01*
X9804Y-33925D01*
X9886Y-33728D01*
X9886Y-33516D01*
X9886Y-35006D01*
X9733Y-35069D01*
X9550Y-35252D01*
X9451Y-35491D01*
X9451Y-35749D01*
X9550Y-35988D01*
X9732Y-36171D01*
X9971Y-36270D01*
X10230Y-36270D01*
X10469Y-36172D01*
X10652Y-35989D01*
X10751Y-35750D01*
X10751Y-35492D01*
X10751Y-40200D01*
X10599Y-40263D01*
X10599Y-37242D01*
X10538Y-37096D01*
X10427Y-36984D01*
X10281Y-36924D01*
X10123Y-36923D01*
X9977Y-36984D01*
X9866Y-37095D01*
X9805Y-37241D01*
X9805Y-37399D01*
X9865Y-37545D01*
X9977Y-37657D01*
X10123Y-37717D01*
X10280Y-37717D01*
X10426Y-37657D01*
X10538Y-37545D01*
X10599Y-37400D01*
X10599Y-37242D01*
X10599Y-40263D01*
X10544Y-40286D01*
X10266Y-40563D01*
X10116Y-40925D01*
X10116Y-41317D01*
X10265Y-41679D01*
X10542Y-41956D01*
X10904Y-42106D01*
X11296Y-42107D01*
X11658Y-41957D01*
X11935Y-41680D01*
X12086Y-41318D01*
X12086Y-40926D01*
X12086Y-41717D01*
X12050Y-41753D01*
X11951Y-41992D01*
X11951Y-42250D01*
X12050Y-42489D01*
X12232Y-42672D01*
X12471Y-42771D01*
X12730Y-42772D01*
X12818Y-42735D01*
X13101Y-43018D01*
X13101Y-43035D01*
X13101Y-43585D01*
X13131Y-43659D01*
X13187Y-43715D01*
X13261Y-43745D01*
X13340Y-43745D01*
X13690Y-43745D01*
X13764Y-43715D01*
X13820Y-43659D01*
X13851Y-43585D01*
X13851Y-43585D01*
X13881Y-43659D01*
X13937Y-43715D01*
X14011Y-43745D01*
X14090Y-43745D01*
X14440Y-43745D01*
X14514Y-43715D01*
X14570Y-43659D01*
X14601Y-43585D01*
X14601Y-43506D01*
X14601Y-42956D01*
X14571Y-42882D01*
X14540Y-42852D01*
X16095Y-41297D01*
X16147Y-41424D01*
X16298Y-41575D01*
X16494Y-41656D01*
X16707Y-41657D01*
X16904Y-41575D01*
X17054Y-41425D01*
X17136Y-41228D01*
X17136Y-41016D01*
X17055Y-40819D01*
X16905Y-40668D01*
X16708Y-40587D01*
X16687Y-40587D01*
X16687Y-38552D01*
X16687Y-38552D01*
X16665Y-38445D01*
X16665Y-38445D01*
X16645Y-38415D01*
X16605Y-38354D01*
X16605Y-38354D01*
X15913Y-37663D01*
X15926Y-37657D01*
X16038Y-37545D01*
X16099Y-37400D01*
X16099Y-37242D01*
X16038Y-37096D01*
X15927Y-36984D01*
X15781Y-36924D01*
X15623Y-36923D01*
X15477Y-36984D01*
X15366Y-37095D01*
X15360Y-37109D01*
X14841Y-36591D01*
X14841Y-36372D01*
X14820Y-36264D01*
X14759Y-36174D01*
X14668Y-36113D01*
X14601Y-36099D01*
X14601Y-36057D01*
X14571Y-35983D01*
X14514Y-35927D01*
X14506Y-35924D01*
X14506Y-29035D01*
X14488Y-28946D01*
X14485Y-28928D01*
X14485Y-28928D01*
X14424Y-28837D01*
X14424Y-28837D01*
X14009Y-28422D01*
X13918Y-28362D01*
X13851Y-28348D01*
X13851Y-28306D01*
X13821Y-28232D01*
X13764Y-28176D01*
X13756Y-28172D01*
X13756Y-28144D01*
X14767Y-27133D01*
X14847Y-27133D01*
X14992Y-27073D01*
X15104Y-26961D01*
X15125Y-26911D01*
X17545Y-29331D01*
X17545Y-29331D01*
X17606Y-29372D01*
X17636Y-29392D01*
X17636Y-29392D01*
X17743Y-29413D01*
X17743Y-29413D01*
X20518Y-29413D01*
X20518Y-32661D01*
X20540Y-32768D01*
X20600Y-32859D01*
X20835Y-33093D01*
X20835Y-33138D01*
X20708Y-33085D01*
X20495Y-33085D01*
X20298Y-33167D01*
X20148Y-33317D01*
X20066Y-33513D01*
X20066Y-33726D01*
X20147Y-33923D01*
X20195Y-33970D01*
X19972Y-33970D01*
X19733Y-34069D01*
X19586Y-34216D01*
X19586Y-33425D01*
X19437Y-33063D01*
X19160Y-32786D01*
X18798Y-32636D01*
X18406Y-32635D01*
X18044Y-32785D01*
X17767Y-33062D01*
X17616Y-33424D01*
X17616Y-33815D01*
X17766Y-34178D01*
X18042Y-34455D01*
X18404Y-34605D01*
X18796Y-34606D01*
X19158Y-34456D01*
X19436Y-34179D01*
X19586Y-33817D01*
X19586Y-33425D01*
X19586Y-34216D01*
X19550Y-34252D01*
X19451Y-34491D01*
X19451Y-34749D01*
X19550Y-34988D01*
X19732Y-35171D01*
X19946Y-35260D01*
X19946Y-35672D01*
X19938Y-35676D01*
X19882Y-35732D01*
X19851Y-35805D01*
X19851Y-35885D01*
X19851Y-36435D01*
X19881Y-36509D01*
X19938Y-36565D01*
X20011Y-36595D01*
X20091Y-36595D01*
X20441Y-36595D01*
X20514Y-36565D01*
X20571Y-36509D01*
X20601Y-36435D01*
X20601Y-36435D01*
X20631Y-36509D01*
X20688Y-36565D01*
X20699Y-36569D01*
X20717Y-36663D01*
X20778Y-36753D01*
X20840Y-36816D01*
X20840Y-40642D01*
X20708Y-40587D01*
X20599Y-40587D01*
X20599Y-37242D01*
X20538Y-37096D01*
X20427Y-36984D01*
X20281Y-36924D01*
X20123Y-36923D01*
X19977Y-36984D01*
X19866Y-37095D01*
X19805Y-37241D01*
X19805Y-37399D01*
X19865Y-37545D01*
X19977Y-37657D01*
X20123Y-37717D01*
X20280Y-37717D01*
X20426Y-37657D01*
X20538Y-37545D01*
X20599Y-37400D01*
X20599Y-37242D01*
X20599Y-40587D01*
X20495Y-40586D01*
X20298Y-40668D01*
X20148Y-40818D01*
X20066Y-41015D01*
X20066Y-41227D01*
X20147Y-41424D01*
X20195Y-41472D01*
X19972Y-41471D01*
X19733Y-41570D01*
X19586Y-41717D01*
X19586Y-40926D01*
X19437Y-40564D01*
X19160Y-40287D01*
X19099Y-40262D01*
X19099Y-37242D01*
X19038Y-37096D01*
X18927Y-36984D01*
X18781Y-36924D01*
X18623Y-36923D01*
X18477Y-36984D01*
X18366Y-37095D01*
X18305Y-37241D01*
X18305Y-37399D01*
X18365Y-37545D01*
X18477Y-37657D01*
X18623Y-37717D01*
X18780Y-37717D01*
X18926Y-37657D01*
X19038Y-37545D01*
X19099Y-37400D01*
X19099Y-37242D01*
X19099Y-40262D01*
X18798Y-40137D01*
X18406Y-40136D01*
X18251Y-40200D01*
X18251Y-35492D01*
X18152Y-35253D01*
X17970Y-35070D01*
X17731Y-34970D01*
X17472Y-34970D01*
X17233Y-35069D01*
X17136Y-35166D01*
X17136Y-33514D01*
X17055Y-33318D01*
X16905Y-33167D01*
X16708Y-33085D01*
X16495Y-33085D01*
X16298Y-33167D01*
X16148Y-33317D01*
X16066Y-33513D01*
X16066Y-33726D01*
X16147Y-33923D01*
X16298Y-34074D01*
X16494Y-34155D01*
X16707Y-34155D01*
X16904Y-34074D01*
X17054Y-33924D01*
X17136Y-33727D01*
X17136Y-33514D01*
X17136Y-35166D01*
X17050Y-35252D01*
X16951Y-35491D01*
X16951Y-35749D01*
X17050Y-35988D01*
X17232Y-36171D01*
X17471Y-36270D01*
X17730Y-36270D01*
X17969Y-36172D01*
X18152Y-35989D01*
X18251Y-35750D01*
X18251Y-35492D01*
X18251Y-40200D01*
X18044Y-40286D01*
X17767Y-40563D01*
X17616Y-40925D01*
X17616Y-41317D01*
X17766Y-41679D01*
X18042Y-41956D01*
X18404Y-42106D01*
X18796Y-42107D01*
X19158Y-41957D01*
X19436Y-41680D01*
X19586Y-41318D01*
X19586Y-40926D01*
X19586Y-41717D01*
X19550Y-41753D01*
X19451Y-41992D01*
X19451Y-42250D01*
X19550Y-42489D01*
X19732Y-42672D01*
X19946Y-42761D01*
X19946Y-43174D01*
X19938Y-43177D01*
X19882Y-43233D01*
X19851Y-43307D01*
X19851Y-43386D01*
X19851Y-43936D01*
X19881Y-44010D01*
X19938Y-44066D01*
X20011Y-44097D01*
X20091Y-44097D01*
X20441Y-44097D01*
X20514Y-44066D01*
X20571Y-44010D01*
X20601Y-43937D01*
X20601Y-43936D01*
X20631Y-44010D01*
X20688Y-44066D01*
X20761Y-44097D01*
X20841Y-44097D01*
X21191Y-44097D01*
X21264Y-44066D01*
X21321Y-44010D01*
X21351Y-43937D01*
X21351Y-43857D01*
X21351Y-43307D01*
X21322Y-43235D01*
X21322Y-43235D01*
X21359Y-43180D01*
X21379Y-43150D01*
X21379Y-43150D01*
X21400Y-43042D01*
X21400Y-43042D01*
X21400Y-37580D01*
X21477Y-37657D01*
X21623Y-37717D01*
X21780Y-37717D01*
X21926Y-37657D01*
X22038Y-37545D01*
X22099Y-37400D01*
X22099Y-37242D01*
X22038Y-37096D01*
X21927Y-36984D01*
X21781Y-36924D01*
X21623Y-36923D01*
X21477Y-36984D01*
X21400Y-37061D01*
X21400Y-36700D01*
X21400Y-36700D01*
X21379Y-36592D01*
X21379Y-36592D01*
X21359Y-36562D01*
X21321Y-36507D01*
X21321Y-36507D01*
X21351Y-36435D01*
X21351Y-36356D01*
X21351Y-35806D01*
X21321Y-35732D01*
X21321Y-35732D01*
X21374Y-35654D01*
X21374Y-35654D01*
X21377Y-35636D01*
X21395Y-35546D01*
X21395Y-35546D01*
X21395Y-32977D01*
X21377Y-32888D01*
X21374Y-32870D01*
X21374Y-32870D01*
X21313Y-32780D01*
X21078Y-32545D01*
X21078Y-30829D01*
X21456Y-31207D01*
X22035Y-31448D01*
X22663Y-31449D01*
X23243Y-31209D01*
X23688Y-30765D01*
X23928Y-30186D01*
X23929Y-29558D01*
X23689Y-28978D01*
X23246Y-28533D01*
X22666Y-28293D01*
X22038Y-28292D01*
X21491Y-28518D01*
X21491Y-25579D01*
X21866Y-25205D01*
X21866Y-25367D01*
X22016Y-25729D01*
X22292Y-26006D01*
X22571Y-26122D01*
X22294Y-26236D01*
X22017Y-26513D01*
X21866Y-26875D01*
X21866Y-27267D01*
X22016Y-27629D01*
X22292Y-27906D01*
X22654Y-28056D01*
X23046Y-28057D01*
X23408Y-27907D01*
X23686Y-27630D01*
X23836Y-27268D01*
X23836Y-26876D01*
X23687Y-26514D01*
X23410Y-26237D01*
X23132Y-26121D01*
X23408Y-26007D01*
X23686Y-25730D01*
X23836Y-25368D01*
X23836Y-24976D01*
X23687Y-24614D01*
X23502Y-24429D01*
X24090Y-24429D01*
X24197Y-24408D01*
X24197Y-24408D01*
X24288Y-24347D01*
X24714Y-23920D01*
X24714Y-23920D01*
X24755Y-23860D01*
X24775Y-23830D01*
X24775Y-23830D01*
X24796Y-23722D01*
X24796Y-23722D01*
X24796Y-21232D01*
X24789Y-21196D01*
X24971Y-21271D01*
X25230Y-21272D01*
X25319Y-21235D01*
X25597Y-21514D01*
X25544Y-21536D01*
X25267Y-21813D01*
X25116Y-22175D01*
X25116Y-22567D01*
X25266Y-22929D01*
X25542Y-23206D01*
X25904Y-23356D01*
X26296Y-23357D01*
X26658Y-23207D01*
X26936Y-22930D01*
X27086Y-22568D01*
X27086Y-22416D01*
X27612Y-22942D01*
X27550Y-23003D01*
X27451Y-23242D01*
X27451Y-23500D01*
X27550Y-23739D01*
X27732Y-23922D01*
X27951Y-24013D01*
X26934Y-25030D01*
X26873Y-25121D01*
X26852Y-25228D01*
X26852Y-25480D01*
X26660Y-25287D01*
X26636Y-25277D01*
X26636Y-24266D01*
X26555Y-24069D01*
X26405Y-23918D01*
X26208Y-23837D01*
X25995Y-23836D01*
X25798Y-23918D01*
X25648Y-24068D01*
X25566Y-24265D01*
X25566Y-24477D01*
X25647Y-24674D01*
X25798Y-24825D01*
X25994Y-24906D01*
X26207Y-24907D01*
X26404Y-24825D01*
X26554Y-24675D01*
X26636Y-24478D01*
X26636Y-24266D01*
X26636Y-25277D01*
X26298Y-25137D01*
X25906Y-25136D01*
X25544Y-25286D01*
X25267Y-25563D01*
X25116Y-25925D01*
X25116Y-26317D01*
X25266Y-26679D01*
X25542Y-26956D01*
X25904Y-27106D01*
X26296Y-27107D01*
X26658Y-26957D01*
X26708Y-26907D01*
X26708Y-27392D01*
X26730Y-27499D01*
X26790Y-27590D01*
X26937Y-27736D01*
X26733Y-27820D01*
X26636Y-27917D01*
X26636Y-27766D01*
X26555Y-27569D01*
X26405Y-27418D01*
X26208Y-27337D01*
X25995Y-27336D01*
X25798Y-27418D01*
X25648Y-27568D01*
X25595Y-27696D01*
X25470Y-27571D01*
X25231Y-27472D01*
X24972Y-27471D01*
X24733Y-27570D01*
X24636Y-27667D01*
X24636Y-26016D01*
X24555Y-25819D01*
X24405Y-25668D01*
X24208Y-25587D01*
X23995Y-25586D01*
X23798Y-25668D01*
X23648Y-25818D01*
X23566Y-26015D01*
X23566Y-26227D01*
X23647Y-26424D01*
X23798Y-26575D01*
X23994Y-26656D01*
X24207Y-26657D01*
X24404Y-26575D01*
X24554Y-26425D01*
X24636Y-26228D01*
X24636Y-26016D01*
X24636Y-27667D01*
X24550Y-27753D01*
X24451Y-27992D01*
X24451Y-28250D01*
X24550Y-28489D01*
X24732Y-28672D01*
X24971Y-28771D01*
X25230Y-28772D01*
X25469Y-28673D01*
X25652Y-28490D01*
X25743Y-28270D01*
X25798Y-28325D01*
X25994Y-28406D01*
X26207Y-28407D01*
X26404Y-28325D01*
X26451Y-28278D01*
X26451Y-28500D01*
X26550Y-28739D01*
X26732Y-28922D01*
X26971Y-29021D01*
X27230Y-29022D01*
X27469Y-28923D01*
X27652Y-28740D01*
X27689Y-28652D01*
X27851Y-28652D01*
X27851Y-28686D01*
X27881Y-28760D01*
X27938Y-28816D01*
X28011Y-28847D01*
X28091Y-28847D01*
X28105Y-28847D01*
X27086Y-29866D01*
X27086Y-29676D01*
X26937Y-29314D01*
X26660Y-29037D01*
X26298Y-28887D01*
X25906Y-28886D01*
X25544Y-29036D01*
X25267Y-29313D01*
X25116Y-29675D01*
X25116Y-30067D01*
X25266Y-30429D01*
X25542Y-30706D01*
X25904Y-30856D01*
X26296Y-30857D01*
X26658Y-30707D01*
X26852Y-30514D01*
X26852Y-32980D01*
X26660Y-32787D01*
X26636Y-32777D01*
X26636Y-31766D01*
X26555Y-31569D01*
X26405Y-31418D01*
X26208Y-31337D01*
X25995Y-31336D01*
X25798Y-31418D01*
X25648Y-31568D01*
X25566Y-31765D01*
X25566Y-31977D01*
X25647Y-32174D01*
X25798Y-32325D01*
X25994Y-32406D01*
X26207Y-32407D01*
X26404Y-32325D01*
X26554Y-32175D01*
X26636Y-31978D01*
X26636Y-31766D01*
X26636Y-32777D01*
X26298Y-32637D01*
X25906Y-32636D01*
X25544Y-32786D01*
X25267Y-33063D01*
X25116Y-33425D01*
X25116Y-33817D01*
X25266Y-34179D01*
X25542Y-34456D01*
X25904Y-34606D01*
X26296Y-34607D01*
X26658Y-34457D01*
X26708Y-34407D01*
X26708Y-34892D01*
X26730Y-34999D01*
X26790Y-35090D01*
X26937Y-35236D01*
X26733Y-35320D01*
X26636Y-35417D01*
X26636Y-35266D01*
X26555Y-35069D01*
X26405Y-34918D01*
X26208Y-34837D01*
X25995Y-34836D01*
X25798Y-34918D01*
X25648Y-35068D01*
X25595Y-35196D01*
X25470Y-35071D01*
X25231Y-34972D01*
X24972Y-34971D01*
X24733Y-35070D01*
X24636Y-35167D01*
X24636Y-33516D01*
X24555Y-33319D01*
X24405Y-33168D01*
X24208Y-33087D01*
X23995Y-33086D01*
X23798Y-33168D01*
X23648Y-33318D01*
X23566Y-33515D01*
X23566Y-33727D01*
X23647Y-33924D01*
X23798Y-34075D01*
X23994Y-34156D01*
X24207Y-34157D01*
X24404Y-34075D01*
X24554Y-33925D01*
X24636Y-33728D01*
X24636Y-33516D01*
X24636Y-35167D01*
X24550Y-35253D01*
X24451Y-35492D01*
X24451Y-35750D01*
X24550Y-35989D01*
X24732Y-36172D01*
X24971Y-36271D01*
X25230Y-36272D01*
X25469Y-36173D01*
X25652Y-35990D01*
X25743Y-35770D01*
X25798Y-35825D01*
X25994Y-35906D01*
X26207Y-35907D01*
X26404Y-35825D01*
X26451Y-35778D01*
X26451Y-36000D01*
X26550Y-36239D01*
X26732Y-36422D01*
X26971Y-36521D01*
X27230Y-36522D01*
X27469Y-36423D01*
X27652Y-36240D01*
X27689Y-36152D01*
X27851Y-36152D01*
X27851Y-36186D01*
X27881Y-36260D01*
X27938Y-36316D01*
X28011Y-36347D01*
X28091Y-36347D01*
X28171Y-36347D01*
X27086Y-37431D01*
X27086Y-37176D01*
X26937Y-36814D01*
X26660Y-36537D01*
X26298Y-36387D01*
X25906Y-36386D01*
X25544Y-36536D01*
X25267Y-36813D01*
X25116Y-37175D01*
X25116Y-37567D01*
X25266Y-37929D01*
X25542Y-38206D01*
X25904Y-38356D01*
X26296Y-38357D01*
X26658Y-38207D01*
X26785Y-38081D01*
X26785Y-40412D01*
X26660Y-40287D01*
X26636Y-40277D01*
X26636Y-39266D01*
X26555Y-39069D01*
X26405Y-38918D01*
X26208Y-38837D01*
X25995Y-38836D01*
X25798Y-38918D01*
X25648Y-39068D01*
X25566Y-39265D01*
X25566Y-39477D01*
X25647Y-39674D01*
X25798Y-39825D01*
X25994Y-39906D01*
X26207Y-39907D01*
X26404Y-39825D01*
X26554Y-39675D01*
X26636Y-39478D01*
X26636Y-39266D01*
X26636Y-40277D01*
X26298Y-40137D01*
X25906Y-40136D01*
X25544Y-40286D01*
X25267Y-40563D01*
X25116Y-40925D01*
X25116Y-41317D01*
X25266Y-41679D01*
X25542Y-41956D01*
X25904Y-42106D01*
X26296Y-42107D01*
X26658Y-41957D01*
X26710Y-41906D01*
X26710Y-43583D01*
X26731Y-43690D01*
X26792Y-43781D01*
X27265Y-44255D01*
X27265Y-44255D01*
X27326Y-44295D01*
X27356Y-44315D01*
X27356Y-44315D01*
X27463Y-44337D01*
X27999Y-44337D01*
X28106Y-44315D01*
X28106Y-44315D01*
X28197Y-44255D01*
X28339Y-44113D01*
X28339Y-44113D01*
X28350Y-44097D01*
X28691Y-44097D01*
X28764Y-44066D01*
X28821Y-44010D01*
X28851Y-43937D01*
X28851Y-43857D01*
X28851Y-43307D01*
X28821Y-43233D01*
X28765Y-43177D01*
X28691Y-43147D01*
X28611Y-43147D01*
X28261Y-43147D01*
X28188Y-43177D01*
X28132Y-43233D01*
X28101Y-43307D01*
X28101Y-43307D01*
X28071Y-43233D01*
X28015Y-43177D01*
X28006Y-43174D01*
X28006Y-42636D01*
X28152Y-42490D01*
X28155Y-42482D01*
X28172Y-42524D01*
X28397Y-42749D01*
X28691Y-42871D01*
X29010Y-42872D01*
X29304Y-42750D01*
X29481Y-42573D01*
X29481Y-43944D01*
M02*
