G04 (created by PCBNEW (2013-02-13 BZR 3947)-testing) date 2/12/2014 7:13:13 AM*
%MOIN*%
G04 Gerber Fmt 3.4, Leading zero omitted, Abs format*
%FSLAX34Y34*%
G01*
G70*
G90*
G04 APERTURE LIST*
%ADD10C,0*%
%ADD11C,0.00390157*%
%ADD12C,0.00393701*%
%ADD13C,0.005*%
%ADD14C,0.00787402*%
%ADD15C,0.0079*%
%ADD16C,0.015*%
%ADD17C,0.011811*%
%ADD18C,0.012*%
%ADD19C,0.008*%
%ADD20C,0.0026*%
%ADD21C,4.72441e-006*%
%ADD22C,0.00625197*%
%ADD23C,0.098*%
%ADD24C,0.165*%
%ADD25C,0.075*%
%ADD26R,0.0473701X0.130047*%
%ADD27R,0.0533X0.0631*%
%ADD28C,0.024*%
%ADD29R,0.043X0.063*%
%ADD30R,0.063X0.043*%
%ADD31C,0.0788661*%
%ADD32C,0.0709921*%
%ADD33O,0.083X0.093*%
%ADD34R,0.083X0.093*%
%ADD35C,0.128*%
%ADD36C,0.0473701*%
%ADD37O,0.068X0.05*%
%ADD38R,0.067X0.0237*%
%ADD39R,0.0887X0.1655*%
%ADD40R,0.0887X0.1458*%
%ADD41O,0.0277008X0.12611*%
%ADD42C,0.0434331*%
%ADD43C,0.2049*%
%ADD44R,0.0473701X0.0473701*%
G04 APERTURE END LIST*
G54D10*
G54D11*
X1Y-37022D02*
X1Y-272D01*
X29701Y-272D02*
X29701Y-37022D01*
X301Y-37322D02*
X29401Y-37322D01*
X1Y-37022D02*
G75*
G03X301Y-37322I299J0D01*
G74*
G01*
X29401Y-37322D02*
G75*
G03X29701Y-37022I0J300D01*
G74*
G01*
G54D12*
X7873Y-27638D02*
X7938Y-27544D01*
X7985Y-27638D02*
X7985Y-27441D01*
X7910Y-27441D01*
X7891Y-27451D01*
X7882Y-27460D01*
X7873Y-27479D01*
X7873Y-27507D01*
X7882Y-27526D01*
X7891Y-27535D01*
X7910Y-27544D01*
X7985Y-27544D01*
X7704Y-27441D02*
X7741Y-27441D01*
X7760Y-27451D01*
X7770Y-27460D01*
X7788Y-27488D01*
X7798Y-27526D01*
X7798Y-27601D01*
X7788Y-27619D01*
X7779Y-27629D01*
X7760Y-27638D01*
X7723Y-27638D01*
X7704Y-27629D01*
X7695Y-27619D01*
X7685Y-27601D01*
X7685Y-27554D01*
X7695Y-27535D01*
X7704Y-27526D01*
X7723Y-27516D01*
X7760Y-27516D01*
X7779Y-27526D01*
X7788Y-27535D01*
X7798Y-27554D01*
X7292Y-27638D02*
X7301Y-27638D01*
X7320Y-27629D01*
X7348Y-27601D01*
X7395Y-27544D01*
X7413Y-27516D01*
X7423Y-27488D01*
X7423Y-27470D01*
X7413Y-27451D01*
X7395Y-27441D01*
X7385Y-27441D01*
X7367Y-27451D01*
X7357Y-27470D01*
X7357Y-27479D01*
X7367Y-27498D01*
X7376Y-27507D01*
X7432Y-27544D01*
X7441Y-27554D01*
X7451Y-27573D01*
X7451Y-27601D01*
X7441Y-27619D01*
X7432Y-27629D01*
X7413Y-27638D01*
X7385Y-27638D01*
X7367Y-27629D01*
X7357Y-27619D01*
X7329Y-27582D01*
X7320Y-27554D01*
X7320Y-27535D01*
X6945Y-27638D02*
X7010Y-27544D01*
X7057Y-27638D02*
X7057Y-27441D01*
X6982Y-27441D01*
X6963Y-27451D01*
X6954Y-27460D01*
X6945Y-27479D01*
X6945Y-27507D01*
X6954Y-27526D01*
X6963Y-27535D01*
X6982Y-27544D01*
X7057Y-27544D01*
X6879Y-27441D02*
X6748Y-27441D01*
X6832Y-27638D01*
X8262Y-27953D02*
X8280Y-27944D01*
X8290Y-27934D01*
X8299Y-27916D01*
X8299Y-27859D01*
X8290Y-27841D01*
X8280Y-27831D01*
X8262Y-27822D01*
X8234Y-27822D01*
X8215Y-27831D01*
X8205Y-27841D01*
X8196Y-27859D01*
X8196Y-27916D01*
X8205Y-27934D01*
X8215Y-27944D01*
X8234Y-27953D01*
X8262Y-27953D01*
X8112Y-27822D02*
X8112Y-27953D01*
X8112Y-27841D02*
X8102Y-27831D01*
X8084Y-27822D01*
X8055Y-27822D01*
X8037Y-27831D01*
X8027Y-27850D01*
X8027Y-27953D01*
X7905Y-27953D02*
X7924Y-27944D01*
X7934Y-27925D01*
X7934Y-27756D01*
X7849Y-27822D02*
X7802Y-27953D01*
X7756Y-27822D02*
X7802Y-27953D01*
X7821Y-28000D01*
X7831Y-28009D01*
X7849Y-28019D01*
X7446Y-27822D02*
X7446Y-27953D01*
X7531Y-27822D02*
X7531Y-27925D01*
X7521Y-27944D01*
X7502Y-27953D01*
X7474Y-27953D01*
X7456Y-27944D01*
X7446Y-27934D01*
X7362Y-27944D02*
X7343Y-27953D01*
X7306Y-27953D01*
X7287Y-27944D01*
X7277Y-27925D01*
X7277Y-27916D01*
X7287Y-27897D01*
X7306Y-27888D01*
X7334Y-27888D01*
X7352Y-27878D01*
X7362Y-27859D01*
X7362Y-27850D01*
X7352Y-27831D01*
X7334Y-27822D01*
X7306Y-27822D01*
X7287Y-27831D01*
X7118Y-27944D02*
X7137Y-27953D01*
X7174Y-27953D01*
X7193Y-27944D01*
X7202Y-27925D01*
X7202Y-27850D01*
X7193Y-27831D01*
X7174Y-27822D01*
X7137Y-27822D01*
X7118Y-27831D01*
X7109Y-27850D01*
X7109Y-27869D01*
X7202Y-27888D01*
X6940Y-27953D02*
X6940Y-27756D01*
X6940Y-27944D02*
X6959Y-27953D01*
X6996Y-27953D01*
X7015Y-27944D01*
X7024Y-27934D01*
X7034Y-27916D01*
X7034Y-27859D01*
X7024Y-27841D01*
X7015Y-27831D01*
X6996Y-27822D01*
X6959Y-27822D01*
X6940Y-27831D01*
X6696Y-27953D02*
X6696Y-27756D01*
X6696Y-27831D02*
X6678Y-27822D01*
X6640Y-27822D01*
X6621Y-27831D01*
X6612Y-27841D01*
X6603Y-27859D01*
X6603Y-27916D01*
X6612Y-27934D01*
X6621Y-27944D01*
X6640Y-27953D01*
X6678Y-27953D01*
X6696Y-27944D01*
X6537Y-27822D02*
X6490Y-27953D01*
X6443Y-27822D02*
X6490Y-27953D01*
X6509Y-28000D01*
X6518Y-28009D01*
X6537Y-28019D01*
X8107Y-28268D02*
X8107Y-28071D01*
X8041Y-28212D01*
X7976Y-28071D01*
X7976Y-28268D01*
X7770Y-28249D02*
X7779Y-28259D01*
X7807Y-28268D01*
X7826Y-28268D01*
X7854Y-28259D01*
X7873Y-28240D01*
X7882Y-28221D01*
X7891Y-28184D01*
X7891Y-28156D01*
X7882Y-28118D01*
X7873Y-28099D01*
X7854Y-28081D01*
X7826Y-28071D01*
X7807Y-28071D01*
X7779Y-28081D01*
X7770Y-28090D01*
X7685Y-28268D02*
X7685Y-28071D01*
X7610Y-28071D01*
X7591Y-28081D01*
X7582Y-28090D01*
X7573Y-28109D01*
X7573Y-28137D01*
X7582Y-28156D01*
X7591Y-28165D01*
X7610Y-28174D01*
X7685Y-28174D01*
X7498Y-28090D02*
X7488Y-28081D01*
X7470Y-28071D01*
X7423Y-28071D01*
X7404Y-28081D01*
X7395Y-28090D01*
X7385Y-28109D01*
X7385Y-28128D01*
X7395Y-28156D01*
X7507Y-28268D01*
X7385Y-28268D01*
X7320Y-28071D02*
X7198Y-28071D01*
X7263Y-28146D01*
X7235Y-28146D01*
X7217Y-28156D01*
X7207Y-28165D01*
X7198Y-28184D01*
X7198Y-28231D01*
X7207Y-28249D01*
X7217Y-28259D01*
X7235Y-28268D01*
X7292Y-28268D01*
X7310Y-28259D01*
X7320Y-28249D01*
X7076Y-28071D02*
X7057Y-28071D01*
X7038Y-28081D01*
X7029Y-28090D01*
X7020Y-28109D01*
X7010Y-28146D01*
X7010Y-28193D01*
X7020Y-28231D01*
X7029Y-28249D01*
X7038Y-28259D01*
X7057Y-28268D01*
X7076Y-28268D01*
X7095Y-28259D01*
X7104Y-28249D01*
X7113Y-28231D01*
X7123Y-28193D01*
X7123Y-28146D01*
X7113Y-28109D01*
X7104Y-28090D01*
X7095Y-28081D01*
X7076Y-28071D01*
X6823Y-28268D02*
X6935Y-28268D01*
X6879Y-28268D02*
X6879Y-28071D01*
X6898Y-28099D01*
X6917Y-28118D01*
X6935Y-28128D01*
X6710Y-28156D02*
X6729Y-28146D01*
X6738Y-28137D01*
X6748Y-28118D01*
X6748Y-28109D01*
X6738Y-28090D01*
X6729Y-28081D01*
X6710Y-28071D01*
X6673Y-28071D01*
X6654Y-28081D01*
X6645Y-28090D01*
X6635Y-28109D01*
X6635Y-28118D01*
X6645Y-28137D01*
X6654Y-28146D01*
X6673Y-28156D01*
X6710Y-28156D01*
X6729Y-28165D01*
X6738Y-28174D01*
X6748Y-28193D01*
X6748Y-28231D01*
X6738Y-28249D01*
X6729Y-28259D01*
X6710Y-28268D01*
X6673Y-28268D01*
X6654Y-28259D01*
X6645Y-28249D01*
X6635Y-28231D01*
X6635Y-28193D01*
X6645Y-28174D01*
X6654Y-28165D01*
X6673Y-28156D01*
X1Y-36971D02*
G75*
G03X251Y-37322I299J-50D01*
G74*
G01*
X29401Y-37322D02*
G75*
G03X29701Y-37022I0J300D01*
G74*
G01*
G54D11*
X301Y27D02*
G75*
G03X1Y-272I0J-300D01*
G74*
G01*
X29401Y27D02*
X301Y27D01*
X29701Y-272D02*
G75*
G03X29401Y27I-300J0D01*
G74*
G01*
G54D12*
X2266Y-21807D02*
X2108Y-21807D01*
X2266Y-21897D01*
X2108Y-21897D01*
X2258Y-22032D02*
X2266Y-22017D01*
X2266Y-21987D01*
X2258Y-21972D01*
X2243Y-21964D01*
X2183Y-21964D01*
X2168Y-21972D01*
X2161Y-21987D01*
X2161Y-22017D01*
X2168Y-22032D01*
X2183Y-22039D01*
X2198Y-22039D01*
X2213Y-21964D01*
X2161Y-22092D02*
X2266Y-22129D01*
X2161Y-22167D01*
X2258Y-22287D02*
X2266Y-22272D01*
X2266Y-22242D01*
X2258Y-22227D01*
X2243Y-22219D01*
X2183Y-22219D01*
X2168Y-22227D01*
X2161Y-22242D01*
X2161Y-22272D01*
X2168Y-22287D01*
X2183Y-22294D01*
X2198Y-22294D01*
X2213Y-22219D01*
X2266Y-22362D02*
X2161Y-22362D01*
X2191Y-22362D02*
X2176Y-22369D01*
X2168Y-22377D01*
X2161Y-22392D01*
X2161Y-22407D01*
X2266Y-22579D02*
X2161Y-22579D01*
X2108Y-22579D02*
X2116Y-22572D01*
X2123Y-22579D01*
X2116Y-22587D01*
X2108Y-22579D01*
X2123Y-22579D01*
X2161Y-22654D02*
X2266Y-22654D01*
X2176Y-22654D02*
X2168Y-22662D01*
X2161Y-22677D01*
X2161Y-22699D01*
X2168Y-22714D01*
X2183Y-22722D01*
X2266Y-22722D01*
X2258Y-22789D02*
X2266Y-22804D01*
X2266Y-22834D01*
X2258Y-22849D01*
X2243Y-22857D01*
X2236Y-22857D01*
X2221Y-22849D01*
X2213Y-22834D01*
X2213Y-22812D01*
X2206Y-22797D01*
X2191Y-22789D01*
X2183Y-22789D01*
X2168Y-22797D01*
X2161Y-22812D01*
X2161Y-22834D01*
X2168Y-22849D01*
X2161Y-22902D02*
X2161Y-22962D01*
X2108Y-22924D02*
X2243Y-22924D01*
X2258Y-22932D01*
X2266Y-22947D01*
X2266Y-22962D01*
X2266Y-23082D02*
X2183Y-23082D01*
X2168Y-23074D01*
X2161Y-23059D01*
X2161Y-23029D01*
X2168Y-23014D01*
X2258Y-23082D02*
X2266Y-23067D01*
X2266Y-23029D01*
X2258Y-23014D01*
X2243Y-23007D01*
X2228Y-23007D01*
X2213Y-23014D01*
X2206Y-23029D01*
X2206Y-23067D01*
X2198Y-23082D01*
X2266Y-23179D02*
X2258Y-23164D01*
X2243Y-23157D01*
X2108Y-23157D01*
X2266Y-23262D02*
X2258Y-23247D01*
X2243Y-23239D01*
X2108Y-23239D01*
X2161Y-23419D02*
X2161Y-23479D01*
X2108Y-23442D02*
X2243Y-23442D01*
X2258Y-23449D01*
X2266Y-23464D01*
X2266Y-23479D01*
X2266Y-23532D02*
X2108Y-23532D01*
X2266Y-23599D02*
X2183Y-23599D01*
X2168Y-23592D01*
X2161Y-23577D01*
X2161Y-23554D01*
X2168Y-23539D01*
X2176Y-23532D01*
X2258Y-23734D02*
X2266Y-23719D01*
X2266Y-23689D01*
X2258Y-23674D01*
X2243Y-23667D01*
X2183Y-23667D01*
X2168Y-23674D01*
X2161Y-23689D01*
X2161Y-23719D01*
X2168Y-23734D01*
X2183Y-23742D01*
X2198Y-23742D01*
X2213Y-23667D01*
X2258Y-23922D02*
X2266Y-23937D01*
X2266Y-23967D01*
X2258Y-23982D01*
X2243Y-23989D01*
X2236Y-23989D01*
X2221Y-23982D01*
X2213Y-23967D01*
X2213Y-23944D01*
X2206Y-23929D01*
X2191Y-23922D01*
X2183Y-23922D01*
X2168Y-23929D01*
X2161Y-23944D01*
X2161Y-23967D01*
X2168Y-23982D01*
X2258Y-24117D02*
X2266Y-24102D01*
X2266Y-24072D01*
X2258Y-24057D01*
X2243Y-24049D01*
X2183Y-24049D01*
X2168Y-24057D01*
X2161Y-24072D01*
X2161Y-24102D01*
X2168Y-24117D01*
X2183Y-24124D01*
X2198Y-24124D01*
X2213Y-24049D01*
X2266Y-24192D02*
X2161Y-24192D01*
X2191Y-24192D02*
X2176Y-24199D01*
X2168Y-24207D01*
X2161Y-24222D01*
X2161Y-24237D01*
X2266Y-24289D02*
X2161Y-24289D01*
X2108Y-24289D02*
X2116Y-24282D01*
X2123Y-24289D01*
X2116Y-24297D01*
X2108Y-24289D01*
X2123Y-24289D01*
X2266Y-24432D02*
X2183Y-24432D01*
X2168Y-24424D01*
X2161Y-24409D01*
X2161Y-24379D01*
X2168Y-24364D01*
X2258Y-24432D02*
X2266Y-24417D01*
X2266Y-24379D01*
X2258Y-24364D01*
X2243Y-24357D01*
X2228Y-24357D01*
X2213Y-24364D01*
X2206Y-24379D01*
X2206Y-24417D01*
X2198Y-24432D01*
X2266Y-24529D02*
X2258Y-24514D01*
X2243Y-24507D01*
X2108Y-24507D01*
X2518Y-22017D02*
X2525Y-22002D01*
X2525Y-21972D01*
X2518Y-21957D01*
X2503Y-21949D01*
X2443Y-21949D01*
X2428Y-21957D01*
X2420Y-21972D01*
X2420Y-22002D01*
X2428Y-22017D01*
X2443Y-22024D01*
X2458Y-22024D01*
X2473Y-21949D01*
X2525Y-22077D02*
X2420Y-22159D01*
X2420Y-22077D02*
X2525Y-22159D01*
X2420Y-22219D02*
X2578Y-22219D01*
X2428Y-22219D02*
X2420Y-22234D01*
X2420Y-22264D01*
X2428Y-22279D01*
X2435Y-22287D01*
X2450Y-22294D01*
X2495Y-22294D01*
X2510Y-22287D01*
X2518Y-22279D01*
X2525Y-22264D01*
X2525Y-22234D01*
X2518Y-22219D01*
X2525Y-22429D02*
X2443Y-22429D01*
X2428Y-22422D01*
X2420Y-22407D01*
X2420Y-22377D01*
X2428Y-22362D01*
X2518Y-22429D02*
X2525Y-22414D01*
X2525Y-22377D01*
X2518Y-22362D01*
X2503Y-22354D01*
X2488Y-22354D01*
X2473Y-22362D01*
X2465Y-22377D01*
X2465Y-22414D01*
X2458Y-22429D01*
X2420Y-22504D02*
X2525Y-22504D01*
X2435Y-22504D02*
X2428Y-22512D01*
X2420Y-22527D01*
X2420Y-22549D01*
X2428Y-22564D01*
X2443Y-22572D01*
X2525Y-22572D01*
X2525Y-22714D02*
X2368Y-22714D01*
X2518Y-22714D02*
X2525Y-22699D01*
X2525Y-22669D01*
X2518Y-22654D01*
X2510Y-22647D01*
X2495Y-22639D01*
X2450Y-22639D01*
X2435Y-22647D01*
X2428Y-22654D01*
X2420Y-22669D01*
X2420Y-22699D01*
X2428Y-22714D01*
X2518Y-22849D02*
X2525Y-22834D01*
X2525Y-22804D01*
X2518Y-22789D01*
X2503Y-22782D01*
X2443Y-22782D01*
X2428Y-22789D01*
X2420Y-22804D01*
X2420Y-22834D01*
X2428Y-22849D01*
X2443Y-22857D01*
X2458Y-22857D01*
X2473Y-22782D01*
X2525Y-22924D02*
X2420Y-22924D01*
X2450Y-22924D02*
X2435Y-22932D01*
X2428Y-22939D01*
X2420Y-22954D01*
X2420Y-22969D01*
X2525Y-23209D02*
X2443Y-23209D01*
X2428Y-23202D01*
X2420Y-23187D01*
X2420Y-23157D01*
X2428Y-23142D01*
X2518Y-23209D02*
X2525Y-23194D01*
X2525Y-23157D01*
X2518Y-23142D01*
X2503Y-23134D01*
X2488Y-23134D01*
X2473Y-23142D01*
X2465Y-23157D01*
X2465Y-23194D01*
X2458Y-23209D01*
X2420Y-23284D02*
X2525Y-23284D01*
X2435Y-23284D02*
X2428Y-23292D01*
X2420Y-23307D01*
X2420Y-23329D01*
X2428Y-23344D01*
X2443Y-23352D01*
X2525Y-23352D01*
X2525Y-23494D02*
X2368Y-23494D01*
X2518Y-23494D02*
X2525Y-23479D01*
X2525Y-23449D01*
X2518Y-23434D01*
X2510Y-23427D01*
X2495Y-23419D01*
X2450Y-23419D01*
X2435Y-23427D01*
X2428Y-23434D01*
X2420Y-23449D01*
X2420Y-23479D01*
X2428Y-23494D01*
X2480Y-23682D02*
X2480Y-23757D01*
X2525Y-23667D02*
X2368Y-23719D01*
X2525Y-23772D01*
X2368Y-23802D02*
X2368Y-23892D01*
X2525Y-23847D02*
X2368Y-23847D01*
X2525Y-23944D02*
X2368Y-23944D01*
X2480Y-23997D01*
X2368Y-24049D01*
X2525Y-24049D01*
X2443Y-24124D02*
X2443Y-24177D01*
X2525Y-24199D02*
X2525Y-24124D01*
X2368Y-24124D01*
X2368Y-24199D01*
X2375Y-24349D02*
X2368Y-24334D01*
X2368Y-24312D01*
X2375Y-24289D01*
X2390Y-24274D01*
X2405Y-24267D01*
X2435Y-24259D01*
X2458Y-24259D01*
X2488Y-24267D01*
X2503Y-24274D01*
X2518Y-24289D01*
X2525Y-24312D01*
X2525Y-24327D01*
X2518Y-24349D01*
X2510Y-24357D01*
X2458Y-24357D01*
X2458Y-24327D01*
X2480Y-24417D02*
X2480Y-24492D01*
X2525Y-24402D02*
X2368Y-24454D01*
X2525Y-24507D01*
X2785Y-21863D02*
X2703Y-21863D01*
X2688Y-21856D01*
X2680Y-21841D01*
X2680Y-21811D01*
X2688Y-21796D01*
X2778Y-21863D02*
X2785Y-21848D01*
X2785Y-21811D01*
X2778Y-21796D01*
X2763Y-21788D01*
X2748Y-21788D01*
X2733Y-21796D01*
X2725Y-21811D01*
X2725Y-21848D01*
X2718Y-21863D01*
X2680Y-21916D02*
X2680Y-21976D01*
X2628Y-21938D02*
X2763Y-21938D01*
X2778Y-21946D01*
X2785Y-21961D01*
X2785Y-21976D01*
X2680Y-22126D02*
X2680Y-22186D01*
X2628Y-22148D02*
X2763Y-22148D01*
X2778Y-22156D01*
X2785Y-22171D01*
X2785Y-22186D01*
X2785Y-22238D02*
X2628Y-22238D01*
X2785Y-22306D02*
X2703Y-22306D01*
X2688Y-22298D01*
X2680Y-22283D01*
X2680Y-22261D01*
X2688Y-22246D01*
X2695Y-22238D01*
X2778Y-22441D02*
X2785Y-22426D01*
X2785Y-22396D01*
X2778Y-22381D01*
X2763Y-22373D01*
X2703Y-22373D01*
X2688Y-22381D01*
X2680Y-22396D01*
X2680Y-22426D01*
X2688Y-22441D01*
X2703Y-22448D01*
X2718Y-22448D01*
X2733Y-22373D01*
X2778Y-22628D02*
X2785Y-22643D01*
X2785Y-22673D01*
X2778Y-22688D01*
X2763Y-22696D01*
X2755Y-22696D01*
X2740Y-22688D01*
X2733Y-22673D01*
X2733Y-22651D01*
X2725Y-22636D01*
X2710Y-22628D01*
X2703Y-22628D01*
X2688Y-22636D01*
X2680Y-22651D01*
X2680Y-22673D01*
X2688Y-22688D01*
X2785Y-22831D02*
X2703Y-22831D01*
X2688Y-22823D01*
X2680Y-22808D01*
X2680Y-22778D01*
X2688Y-22763D01*
X2778Y-22831D02*
X2785Y-22816D01*
X2785Y-22778D01*
X2778Y-22763D01*
X2763Y-22756D01*
X2748Y-22756D01*
X2733Y-22763D01*
X2725Y-22778D01*
X2725Y-22816D01*
X2718Y-22831D01*
X2785Y-22906D02*
X2680Y-22906D01*
X2695Y-22906D02*
X2688Y-22913D01*
X2680Y-22928D01*
X2680Y-22951D01*
X2688Y-22966D01*
X2703Y-22973D01*
X2785Y-22973D01*
X2703Y-22973D02*
X2688Y-22981D01*
X2680Y-22996D01*
X2680Y-23018D01*
X2688Y-23033D01*
X2703Y-23041D01*
X2785Y-23041D01*
X2778Y-23176D02*
X2785Y-23161D01*
X2785Y-23131D01*
X2778Y-23116D01*
X2763Y-23108D01*
X2703Y-23108D01*
X2688Y-23116D01*
X2680Y-23131D01*
X2680Y-23161D01*
X2688Y-23176D01*
X2703Y-23183D01*
X2718Y-23183D01*
X2733Y-23108D01*
X2680Y-23348D02*
X2680Y-23408D01*
X2628Y-23371D02*
X2763Y-23371D01*
X2778Y-23378D01*
X2785Y-23393D01*
X2785Y-23408D01*
X2785Y-23461D02*
X2680Y-23461D01*
X2628Y-23461D02*
X2635Y-23453D01*
X2643Y-23461D01*
X2635Y-23468D01*
X2628Y-23461D01*
X2643Y-23461D01*
X2785Y-23536D02*
X2680Y-23536D01*
X2695Y-23536D02*
X2688Y-23543D01*
X2680Y-23558D01*
X2680Y-23581D01*
X2688Y-23596D01*
X2703Y-23603D01*
X2785Y-23603D01*
X2703Y-23603D02*
X2688Y-23611D01*
X2680Y-23626D01*
X2680Y-23648D01*
X2688Y-23663D01*
X2703Y-23670D01*
X2785Y-23670D01*
X2778Y-23805D02*
X2785Y-23790D01*
X2785Y-23760D01*
X2778Y-23745D01*
X2763Y-23738D01*
X2703Y-23738D01*
X2688Y-23745D01*
X2680Y-23760D01*
X2680Y-23790D01*
X2688Y-23805D01*
X2703Y-23813D01*
X2718Y-23813D01*
X2733Y-23738D01*
X2770Y-23880D02*
X2778Y-23888D01*
X2785Y-23880D01*
X2778Y-23873D01*
X2770Y-23880D01*
X2785Y-23880D01*
X2770Y-23955D02*
X2778Y-23963D01*
X2785Y-23955D01*
X2778Y-23948D01*
X2770Y-23955D01*
X2785Y-23955D01*
X2770Y-24030D02*
X2778Y-24038D01*
X2785Y-24030D01*
X2778Y-24023D01*
X2770Y-24030D01*
X2785Y-24030D01*
X2785Y-24225D02*
X2628Y-24225D01*
X2688Y-24225D02*
X2680Y-24240D01*
X2680Y-24270D01*
X2688Y-24285D01*
X2695Y-24293D01*
X2710Y-24300D01*
X2755Y-24300D01*
X2770Y-24293D01*
X2778Y-24285D01*
X2785Y-24270D01*
X2785Y-24240D01*
X2778Y-24225D01*
X2680Y-24435D02*
X2785Y-24435D01*
X2680Y-24368D02*
X2763Y-24368D01*
X2778Y-24375D01*
X2785Y-24390D01*
X2785Y-24413D01*
X2778Y-24428D01*
X2770Y-24435D01*
X2680Y-24488D02*
X2680Y-24548D01*
X2628Y-24510D02*
X2763Y-24510D01*
X2778Y-24518D01*
X2785Y-24533D01*
X2785Y-24548D01*
X2940Y-21874D02*
X3045Y-21912D01*
X2940Y-21949D02*
X3045Y-21912D01*
X3083Y-21897D01*
X3090Y-21889D01*
X3098Y-21874D01*
X3045Y-22032D02*
X3038Y-22017D01*
X3030Y-22009D01*
X3015Y-22002D01*
X2970Y-22002D01*
X2955Y-22009D01*
X2948Y-22017D01*
X2940Y-22032D01*
X2940Y-22054D01*
X2948Y-22069D01*
X2955Y-22077D01*
X2970Y-22084D01*
X3015Y-22084D01*
X3030Y-22077D01*
X3038Y-22069D01*
X3045Y-22054D01*
X3045Y-22032D01*
X2940Y-22219D02*
X3045Y-22219D01*
X2940Y-22152D02*
X3023Y-22152D01*
X3038Y-22159D01*
X3045Y-22174D01*
X3045Y-22197D01*
X3038Y-22212D01*
X3030Y-22219D01*
X3045Y-22414D02*
X2888Y-22414D01*
X2985Y-22429D02*
X3045Y-22474D01*
X2940Y-22474D02*
X3000Y-22414D01*
X2940Y-22542D02*
X3045Y-22542D01*
X2955Y-22542D02*
X2948Y-22549D01*
X2940Y-22564D01*
X2940Y-22587D01*
X2948Y-22602D01*
X2963Y-22609D01*
X3045Y-22609D01*
X3038Y-22744D02*
X3045Y-22729D01*
X3045Y-22699D01*
X3038Y-22684D01*
X3023Y-22677D01*
X2963Y-22677D01*
X2948Y-22684D01*
X2940Y-22699D01*
X2940Y-22729D01*
X2948Y-22744D01*
X2963Y-22752D01*
X2978Y-22752D01*
X2993Y-22677D01*
X2940Y-22804D02*
X3045Y-22834D01*
X2970Y-22864D01*
X3045Y-22894D01*
X2940Y-22924D01*
X2940Y-23082D02*
X2940Y-23142D01*
X2888Y-23104D02*
X3023Y-23104D01*
X3038Y-23112D01*
X3045Y-23127D01*
X3045Y-23142D01*
X3045Y-23194D02*
X2888Y-23194D01*
X3045Y-23262D02*
X2963Y-23262D01*
X2948Y-23254D01*
X2940Y-23239D01*
X2940Y-23217D01*
X2948Y-23202D01*
X2955Y-23194D01*
X3045Y-23404D02*
X2963Y-23404D01*
X2948Y-23397D01*
X2940Y-23382D01*
X2940Y-23352D01*
X2948Y-23337D01*
X3038Y-23404D02*
X3045Y-23389D01*
X3045Y-23352D01*
X3038Y-23337D01*
X3023Y-23329D01*
X3008Y-23329D01*
X2993Y-23337D01*
X2985Y-23352D01*
X2985Y-23389D01*
X2978Y-23404D01*
X2940Y-23457D02*
X2940Y-23517D01*
X2888Y-23479D02*
X3023Y-23479D01*
X3038Y-23487D01*
X3045Y-23502D01*
X3045Y-23517D01*
X3045Y-23757D02*
X2963Y-23757D01*
X2948Y-23749D01*
X2940Y-23734D01*
X2940Y-23704D01*
X2948Y-23689D01*
X3038Y-23757D02*
X3045Y-23742D01*
X3045Y-23704D01*
X3038Y-23689D01*
X3023Y-23682D01*
X3008Y-23682D01*
X2993Y-23689D01*
X2985Y-23704D01*
X2985Y-23742D01*
X2978Y-23757D01*
X3045Y-23854D02*
X3038Y-23839D01*
X3023Y-23832D01*
X2888Y-23832D01*
X3045Y-23914D02*
X2940Y-23914D01*
X2970Y-23914D02*
X2955Y-23922D01*
X2948Y-23929D01*
X2940Y-23944D01*
X2940Y-23959D01*
X3038Y-24072D02*
X3045Y-24057D01*
X3045Y-24027D01*
X3038Y-24012D01*
X3023Y-24004D01*
X2963Y-24004D01*
X2948Y-24012D01*
X2940Y-24027D01*
X2940Y-24057D01*
X2948Y-24072D01*
X2963Y-24079D01*
X2978Y-24079D01*
X2993Y-24004D01*
X3045Y-24214D02*
X2963Y-24214D01*
X2948Y-24207D01*
X2940Y-24192D01*
X2940Y-24162D01*
X2948Y-24147D01*
X3038Y-24214D02*
X3045Y-24199D01*
X3045Y-24162D01*
X3038Y-24147D01*
X3023Y-24139D01*
X3008Y-24139D01*
X2993Y-24147D01*
X2985Y-24162D01*
X2985Y-24199D01*
X2978Y-24214D01*
X3045Y-24357D02*
X2888Y-24357D01*
X3038Y-24357D02*
X3045Y-24342D01*
X3045Y-24312D01*
X3038Y-24297D01*
X3030Y-24289D01*
X3015Y-24282D01*
X2970Y-24282D01*
X2955Y-24289D01*
X2948Y-24297D01*
X2940Y-24312D01*
X2940Y-24342D01*
X2948Y-24357D01*
X2940Y-24417D02*
X3045Y-24454D01*
X2940Y-24492D02*
X3045Y-24454D01*
X3083Y-24439D01*
X3090Y-24432D01*
X3098Y-24417D01*
X3030Y-24552D02*
X3038Y-24559D01*
X3045Y-24552D01*
X3038Y-24544D01*
X3030Y-24552D01*
X3045Y-24552D01*
X16008Y-21727D02*
X15868Y-21588D01*
X15928Y-21807D01*
X15789Y-21668D01*
X15802Y-21920D02*
X15822Y-21913D01*
X15849Y-21887D01*
X15855Y-21867D01*
X15849Y-21847D01*
X15796Y-21794D01*
X15776Y-21787D01*
X15756Y-21794D01*
X15729Y-21820D01*
X15723Y-21840D01*
X15729Y-21860D01*
X15743Y-21873D01*
X15822Y-21820D01*
X15663Y-21887D02*
X15723Y-22012D01*
X15597Y-21953D01*
X15577Y-22145D02*
X15597Y-22138D01*
X15623Y-22112D01*
X15630Y-22092D01*
X15623Y-22072D01*
X15570Y-22019D01*
X15550Y-22012D01*
X15530Y-22019D01*
X15504Y-22046D01*
X15497Y-22066D01*
X15504Y-22085D01*
X15517Y-22099D01*
X15597Y-22046D01*
X15517Y-22218D02*
X15424Y-22125D01*
X15451Y-22152D02*
X15431Y-22145D01*
X15418Y-22145D01*
X15398Y-22152D01*
X15385Y-22165D01*
X15325Y-22410D02*
X15232Y-22317D01*
X15186Y-22271D02*
X15199Y-22271D01*
X15199Y-22284D01*
X15186Y-22284D01*
X15186Y-22271D01*
X15199Y-22284D01*
X15166Y-22384D02*
X15259Y-22476D01*
X15179Y-22397D02*
X15166Y-22397D01*
X15146Y-22404D01*
X15126Y-22423D01*
X15119Y-22443D01*
X15126Y-22463D01*
X15199Y-22536D01*
X15133Y-22589D02*
X15126Y-22609D01*
X15100Y-22636D01*
X15080Y-22642D01*
X15060Y-22636D01*
X15053Y-22629D01*
X15047Y-22609D01*
X15053Y-22589D01*
X15073Y-22569D01*
X15080Y-22549D01*
X15073Y-22529D01*
X15066Y-22523D01*
X15047Y-22516D01*
X15027Y-22523D01*
X15007Y-22543D01*
X15000Y-22563D01*
X14947Y-22602D02*
X14894Y-22655D01*
X14881Y-22576D02*
X15000Y-22695D01*
X15007Y-22715D01*
X15000Y-22735D01*
X14987Y-22748D01*
X14881Y-22854D02*
X14808Y-22781D01*
X14801Y-22761D01*
X14808Y-22742D01*
X14834Y-22715D01*
X14854Y-22708D01*
X14874Y-22848D02*
X14894Y-22841D01*
X14927Y-22808D01*
X14934Y-22788D01*
X14927Y-22768D01*
X14914Y-22755D01*
X14894Y-22748D01*
X14874Y-22755D01*
X14841Y-22788D01*
X14821Y-22795D01*
X14795Y-22940D02*
X14801Y-22921D01*
X14795Y-22901D01*
X14675Y-22781D01*
X14722Y-23013D02*
X14728Y-22993D01*
X14722Y-22974D01*
X14602Y-22854D01*
X14490Y-23060D02*
X14437Y-23113D01*
X14423Y-23033D02*
X14543Y-23153D01*
X14549Y-23172D01*
X14543Y-23192D01*
X14530Y-23206D01*
X14483Y-23252D02*
X14344Y-23113D01*
X14423Y-23312D02*
X14351Y-23239D01*
X14344Y-23219D01*
X14351Y-23199D01*
X14370Y-23179D01*
X14390Y-23172D01*
X14404Y-23172D01*
X14298Y-23424D02*
X14317Y-23418D01*
X14344Y-23391D01*
X14351Y-23371D01*
X14344Y-23351D01*
X14291Y-23298D01*
X14271Y-23292D01*
X14251Y-23298D01*
X14225Y-23325D01*
X14218Y-23345D01*
X14225Y-23365D01*
X14238Y-23378D01*
X14317Y-23325D01*
X14132Y-23590D02*
X14125Y-23610D01*
X14099Y-23636D01*
X14079Y-23643D01*
X14059Y-23636D01*
X14052Y-23630D01*
X14046Y-23610D01*
X14052Y-23590D01*
X14072Y-23570D01*
X14079Y-23550D01*
X14072Y-23530D01*
X14066Y-23524D01*
X14046Y-23517D01*
X14026Y-23524D01*
X14006Y-23544D01*
X13999Y-23563D01*
X13960Y-23762D02*
X13979Y-23756D01*
X14006Y-23729D01*
X14013Y-23709D01*
X14006Y-23689D01*
X13953Y-23636D01*
X13933Y-23630D01*
X13913Y-23636D01*
X13887Y-23663D01*
X13880Y-23683D01*
X13887Y-23703D01*
X13900Y-23716D01*
X13979Y-23663D01*
X13900Y-23835D02*
X13807Y-23742D01*
X13834Y-23769D02*
X13814Y-23762D01*
X13800Y-23762D01*
X13781Y-23769D01*
X13767Y-23782D01*
X13814Y-23921D02*
X13721Y-23829D01*
X13674Y-23782D02*
X13688Y-23782D01*
X13688Y-23795D01*
X13674Y-23795D01*
X13674Y-23782D01*
X13688Y-23795D01*
X13688Y-24047D02*
X13615Y-23974D01*
X13608Y-23955D01*
X13615Y-23935D01*
X13641Y-23908D01*
X13661Y-23902D01*
X13681Y-24041D02*
X13701Y-24034D01*
X13734Y-24001D01*
X13741Y-23981D01*
X13734Y-23961D01*
X13721Y-23948D01*
X13701Y-23941D01*
X13681Y-23948D01*
X13648Y-23981D01*
X13628Y-23988D01*
X13602Y-24134D02*
X13608Y-24114D01*
X13602Y-24094D01*
X13482Y-23974D01*
X16038Y-22129D02*
X16058Y-22123D01*
X16085Y-22096D01*
X16091Y-22076D01*
X16085Y-22056D01*
X16032Y-22003D01*
X16012Y-21997D01*
X15992Y-22003D01*
X15965Y-22030D01*
X15959Y-22050D01*
X15965Y-22069D01*
X15978Y-22083D01*
X16058Y-22030D01*
X15992Y-22189D02*
X15826Y-22169D01*
X15899Y-22096D02*
X15919Y-22262D01*
X15773Y-22222D02*
X15912Y-22361D01*
X15780Y-22229D02*
X15760Y-22235D01*
X15733Y-22262D01*
X15727Y-22282D01*
X15727Y-22295D01*
X15733Y-22315D01*
X15773Y-22354D01*
X15793Y-22361D01*
X15806Y-22361D01*
X15826Y-22354D01*
X15853Y-22328D01*
X15859Y-22308D01*
X15680Y-22500D02*
X15607Y-22427D01*
X15601Y-22408D01*
X15607Y-22388D01*
X15634Y-22361D01*
X15654Y-22354D01*
X15674Y-22494D02*
X15693Y-22487D01*
X15727Y-22454D01*
X15733Y-22434D01*
X15727Y-22414D01*
X15713Y-22401D01*
X15693Y-22394D01*
X15674Y-22401D01*
X15640Y-22434D01*
X15621Y-22441D01*
X15521Y-22474D02*
X15614Y-22567D01*
X15534Y-22487D02*
X15521Y-22487D01*
X15501Y-22494D01*
X15481Y-22514D01*
X15475Y-22533D01*
X15481Y-22553D01*
X15554Y-22626D01*
X15428Y-22752D02*
X15289Y-22613D01*
X15422Y-22746D02*
X15442Y-22739D01*
X15468Y-22712D01*
X15475Y-22693D01*
X15475Y-22679D01*
X15468Y-22659D01*
X15428Y-22620D01*
X15408Y-22613D01*
X15395Y-22613D01*
X15375Y-22620D01*
X15349Y-22646D01*
X15342Y-22666D01*
X15302Y-22865D02*
X15322Y-22858D01*
X15349Y-22832D01*
X15355Y-22812D01*
X15349Y-22792D01*
X15296Y-22739D01*
X15276Y-22732D01*
X15256Y-22739D01*
X15229Y-22765D01*
X15223Y-22785D01*
X15229Y-22805D01*
X15243Y-22818D01*
X15322Y-22765D01*
X15243Y-22938D02*
X15150Y-22845D01*
X15176Y-22872D02*
X15157Y-22865D01*
X15143Y-22865D01*
X15123Y-22872D01*
X15110Y-22885D01*
X14991Y-23190D02*
X14918Y-23117D01*
X14911Y-23097D01*
X14918Y-23077D01*
X14944Y-23050D01*
X14964Y-23044D01*
X14984Y-23183D02*
X15004Y-23176D01*
X15037Y-23143D01*
X15044Y-23123D01*
X15037Y-23103D01*
X15024Y-23090D01*
X15004Y-23084D01*
X14984Y-23090D01*
X14951Y-23123D01*
X14931Y-23130D01*
X14832Y-23163D02*
X14925Y-23256D01*
X14845Y-23176D02*
X14832Y-23176D01*
X14812Y-23183D01*
X14792Y-23203D01*
X14785Y-23223D01*
X14792Y-23243D01*
X14865Y-23316D01*
X14739Y-23442D02*
X14600Y-23302D01*
X14732Y-23435D02*
X14752Y-23428D01*
X14779Y-23402D01*
X14785Y-23382D01*
X14785Y-23369D01*
X14779Y-23349D01*
X14739Y-23309D01*
X14719Y-23302D01*
X14706Y-23302D01*
X14686Y-23309D01*
X14659Y-23335D01*
X14653Y-23355D01*
X14534Y-23567D02*
X14467Y-23634D01*
X14587Y-23594D02*
X14401Y-23501D01*
X14494Y-23687D01*
X14328Y-23574D02*
X14249Y-23654D01*
X14427Y-23753D02*
X14288Y-23614D01*
X14341Y-23839D02*
X14202Y-23700D01*
X14255Y-23846D01*
X14109Y-23793D01*
X14249Y-23932D01*
X14109Y-23925D02*
X14063Y-23972D01*
X14116Y-24065D02*
X14182Y-23998D01*
X14043Y-23859D01*
X13977Y-23925D01*
X13851Y-24065D02*
X13857Y-24045D01*
X13877Y-24025D01*
X13904Y-24012D01*
X13930Y-24012D01*
X13950Y-24018D01*
X13983Y-24038D01*
X14003Y-24058D01*
X14023Y-24091D01*
X14030Y-24111D01*
X14030Y-24138D01*
X14017Y-24164D01*
X14003Y-24177D01*
X13977Y-24191D01*
X13963Y-24191D01*
X13917Y-24144D01*
X13944Y-24118D01*
X13884Y-24217D02*
X13818Y-24283D01*
X13937Y-24244D02*
X13751Y-24151D01*
X13844Y-24336D01*
X16403Y-22223D02*
X16330Y-22150D01*
X16324Y-22130D01*
X16330Y-22110D01*
X16357Y-22083D01*
X16377Y-22077D01*
X16397Y-22216D02*
X16417Y-22209D01*
X16450Y-22176D01*
X16456Y-22156D01*
X16450Y-22136D01*
X16437Y-22123D01*
X16417Y-22117D01*
X16397Y-22123D01*
X16364Y-22156D01*
X16344Y-22163D01*
X16264Y-22176D02*
X16211Y-22229D01*
X16198Y-22150D02*
X16317Y-22269D01*
X16324Y-22289D01*
X16317Y-22309D01*
X16304Y-22322D01*
X16079Y-22362D02*
X16026Y-22415D01*
X16012Y-22335D02*
X16132Y-22455D01*
X16138Y-22474D01*
X16132Y-22494D01*
X16118Y-22508D01*
X16072Y-22554D02*
X15933Y-22415D01*
X16012Y-22614D02*
X15939Y-22541D01*
X15933Y-22521D01*
X15939Y-22501D01*
X15959Y-22481D01*
X15979Y-22474D01*
X15992Y-22474D01*
X15886Y-22726D02*
X15906Y-22720D01*
X15933Y-22693D01*
X15939Y-22673D01*
X15933Y-22653D01*
X15880Y-22600D01*
X15860Y-22594D01*
X15840Y-22600D01*
X15813Y-22627D01*
X15807Y-22647D01*
X15813Y-22667D01*
X15827Y-22680D01*
X15906Y-22627D01*
X15721Y-22892D02*
X15714Y-22912D01*
X15688Y-22938D01*
X15668Y-22945D01*
X15648Y-22938D01*
X15641Y-22932D01*
X15634Y-22912D01*
X15641Y-22892D01*
X15661Y-22872D01*
X15668Y-22852D01*
X15661Y-22832D01*
X15654Y-22826D01*
X15634Y-22819D01*
X15615Y-22826D01*
X15595Y-22846D01*
X15588Y-22866D01*
X15548Y-23078D02*
X15475Y-23005D01*
X15469Y-22985D01*
X15475Y-22965D01*
X15502Y-22938D01*
X15522Y-22932D01*
X15542Y-23071D02*
X15562Y-23064D01*
X15595Y-23031D01*
X15601Y-23011D01*
X15595Y-22991D01*
X15581Y-22978D01*
X15562Y-22972D01*
X15542Y-22978D01*
X15509Y-23011D01*
X15489Y-23018D01*
X15482Y-23144D02*
X15389Y-23051D01*
X15402Y-23064D02*
X15389Y-23064D01*
X15369Y-23071D01*
X15349Y-23091D01*
X15343Y-23111D01*
X15349Y-23131D01*
X15422Y-23204D01*
X15349Y-23131D02*
X15330Y-23124D01*
X15310Y-23131D01*
X15290Y-23151D01*
X15283Y-23170D01*
X15290Y-23190D01*
X15363Y-23263D01*
X15237Y-23376D02*
X15257Y-23369D01*
X15283Y-23343D01*
X15290Y-23323D01*
X15283Y-23303D01*
X15230Y-23250D01*
X15210Y-23243D01*
X15190Y-23250D01*
X15164Y-23276D01*
X15157Y-23296D01*
X15164Y-23316D01*
X15177Y-23330D01*
X15257Y-23276D01*
X14998Y-23442D02*
X14945Y-23495D01*
X14932Y-23416D02*
X15051Y-23535D01*
X15058Y-23555D01*
X15051Y-23575D01*
X15038Y-23588D01*
X14992Y-23634D02*
X14899Y-23542D01*
X14852Y-23495D02*
X14866Y-23495D01*
X14866Y-23508D01*
X14852Y-23508D01*
X14852Y-23495D01*
X14866Y-23508D01*
X14925Y-23701D02*
X14832Y-23608D01*
X14846Y-23621D02*
X14832Y-23621D01*
X14813Y-23628D01*
X14793Y-23648D01*
X14786Y-23668D01*
X14793Y-23687D01*
X14866Y-23760D01*
X14793Y-23687D02*
X14773Y-23681D01*
X14753Y-23687D01*
X14733Y-23707D01*
X14726Y-23727D01*
X14733Y-23747D01*
X14806Y-23820D01*
X14680Y-23933D02*
X14700Y-23926D01*
X14726Y-23900D01*
X14733Y-23880D01*
X14726Y-23860D01*
X14673Y-23807D01*
X14653Y-23800D01*
X14634Y-23807D01*
X14607Y-23833D01*
X14600Y-23853D01*
X14607Y-23873D01*
X14620Y-23886D01*
X14700Y-23833D01*
X14607Y-23992D02*
X14607Y-24006D01*
X14620Y-24006D01*
X14620Y-23992D01*
X14607Y-23992D01*
X14620Y-24006D01*
X14541Y-24059D02*
X14541Y-24072D01*
X14554Y-24072D01*
X14554Y-24059D01*
X14541Y-24059D01*
X14554Y-24072D01*
X14475Y-24125D02*
X14475Y-24138D01*
X14488Y-24138D01*
X14488Y-24125D01*
X14475Y-24125D01*
X14488Y-24138D01*
X14315Y-24311D02*
X14176Y-24171D01*
X14229Y-24224D02*
X14209Y-24231D01*
X14183Y-24257D01*
X14176Y-24277D01*
X14176Y-24291D01*
X14183Y-24311D01*
X14223Y-24350D01*
X14243Y-24357D01*
X14256Y-24357D01*
X14276Y-24350D01*
X14302Y-24324D01*
X14309Y-24304D01*
X14037Y-24403D02*
X14130Y-24496D01*
X14097Y-24344D02*
X14170Y-24417D01*
X14176Y-24436D01*
X14170Y-24456D01*
X14150Y-24476D01*
X14130Y-24483D01*
X14117Y-24483D01*
X13991Y-24450D02*
X13938Y-24503D01*
X13924Y-24423D02*
X14044Y-24542D01*
X14050Y-24562D01*
X14044Y-24582D01*
X14030Y-24596D01*
X16523Y-22362D02*
X16583Y-22488D01*
X16457Y-22429D02*
X16583Y-22488D01*
X16629Y-22508D01*
X16643Y-22508D01*
X16663Y-22502D01*
X16477Y-22594D02*
X16484Y-22575D01*
X16484Y-22561D01*
X16477Y-22541D01*
X16437Y-22502D01*
X16417Y-22495D01*
X16404Y-22495D01*
X16384Y-22502D01*
X16364Y-22522D01*
X16358Y-22541D01*
X16358Y-22555D01*
X16364Y-22575D01*
X16404Y-22614D01*
X16424Y-22621D01*
X16437Y-22621D01*
X16457Y-22614D01*
X16477Y-22594D01*
X16218Y-22667D02*
X16311Y-22760D01*
X16278Y-22608D02*
X16351Y-22681D01*
X16358Y-22700D01*
X16351Y-22720D01*
X16331Y-22740D01*
X16311Y-22747D01*
X16298Y-22747D01*
X16139Y-22932D02*
X16000Y-22793D01*
X16073Y-22893D02*
X16086Y-22986D01*
X15993Y-22893D02*
X16099Y-22893D01*
X15933Y-22952D02*
X16026Y-23045D01*
X15947Y-22966D02*
X15933Y-22966D01*
X15914Y-22972D01*
X15894Y-22992D01*
X15887Y-23012D01*
X15894Y-23032D01*
X15967Y-23105D01*
X15841Y-23218D02*
X15861Y-23211D01*
X15887Y-23184D01*
X15894Y-23164D01*
X15887Y-23145D01*
X15834Y-23092D01*
X15814Y-23085D01*
X15794Y-23092D01*
X15768Y-23118D01*
X15761Y-23138D01*
X15768Y-23158D01*
X15781Y-23171D01*
X15861Y-23118D01*
X15701Y-23184D02*
X15768Y-23304D01*
X15675Y-23264D01*
X15715Y-23357D01*
X15595Y-23290D01*
X15456Y-23430D02*
X15403Y-23483D01*
X15390Y-23403D02*
X15509Y-23522D01*
X15516Y-23542D01*
X15509Y-23562D01*
X15496Y-23575D01*
X15450Y-23622D02*
X15310Y-23483D01*
X15390Y-23681D02*
X15317Y-23609D01*
X15310Y-23589D01*
X15317Y-23569D01*
X15337Y-23549D01*
X15357Y-23542D01*
X15370Y-23542D01*
X15264Y-23807D02*
X15191Y-23735D01*
X15184Y-23715D01*
X15191Y-23695D01*
X15218Y-23668D01*
X15237Y-23662D01*
X15257Y-23801D02*
X15277Y-23794D01*
X15310Y-23761D01*
X15317Y-23741D01*
X15310Y-23721D01*
X15297Y-23708D01*
X15277Y-23701D01*
X15257Y-23708D01*
X15224Y-23741D01*
X15204Y-23748D01*
X15125Y-23761D02*
X15072Y-23814D01*
X15058Y-23735D02*
X15178Y-23854D01*
X15184Y-23874D01*
X15178Y-23894D01*
X15165Y-23907D01*
X14952Y-24119D02*
X14880Y-24046D01*
X14873Y-24026D01*
X14880Y-24006D01*
X14906Y-23980D01*
X14926Y-23973D01*
X14946Y-24112D02*
X14966Y-24106D01*
X14999Y-24073D01*
X15005Y-24053D01*
X14999Y-24033D01*
X14986Y-24020D01*
X14966Y-24013D01*
X14946Y-24020D01*
X14913Y-24053D01*
X14893Y-24059D01*
X14866Y-24205D02*
X14873Y-24185D01*
X14866Y-24165D01*
X14747Y-24046D01*
X14813Y-24258D02*
X14720Y-24165D01*
X14747Y-24192D02*
X14727Y-24185D01*
X14714Y-24185D01*
X14694Y-24192D01*
X14681Y-24205D01*
X14667Y-24391D02*
X14687Y-24384D01*
X14714Y-24358D01*
X14720Y-24338D01*
X14714Y-24318D01*
X14661Y-24265D01*
X14641Y-24258D01*
X14621Y-24265D01*
X14594Y-24291D01*
X14588Y-24311D01*
X14594Y-24331D01*
X14608Y-24344D01*
X14687Y-24291D01*
X14548Y-24523D02*
X14475Y-24450D01*
X14469Y-24430D01*
X14475Y-24411D01*
X14502Y-24384D01*
X14522Y-24377D01*
X14541Y-24517D02*
X14561Y-24510D01*
X14594Y-24477D01*
X14601Y-24457D01*
X14594Y-24437D01*
X14581Y-24424D01*
X14561Y-24417D01*
X14541Y-24424D01*
X14508Y-24457D01*
X14488Y-24464D01*
X14422Y-24649D02*
X14283Y-24510D01*
X14416Y-24643D02*
X14435Y-24636D01*
X14462Y-24609D01*
X14469Y-24590D01*
X14469Y-24576D01*
X14462Y-24556D01*
X14422Y-24517D01*
X14402Y-24510D01*
X14389Y-24510D01*
X14369Y-24517D01*
X14343Y-24543D01*
X14336Y-24563D01*
X14276Y-24609D02*
X14336Y-24735D01*
X14210Y-24676D02*
X14336Y-24735D01*
X14382Y-24755D01*
X14396Y-24755D01*
X14416Y-24749D01*
X14237Y-24808D02*
X14237Y-24822D01*
X14250Y-24822D01*
X14250Y-24808D01*
X14237Y-24808D01*
X14250Y-24822D01*
G54D13*
X5484Y-16220D02*
X5484Y-15970D01*
X5401Y-16148D01*
X5318Y-15970D01*
X5318Y-16220D01*
X5056Y-16196D02*
X5068Y-16208D01*
X5103Y-16220D01*
X5127Y-16220D01*
X5163Y-16208D01*
X5187Y-16184D01*
X5199Y-16160D01*
X5211Y-16113D01*
X5211Y-16077D01*
X5199Y-16029D01*
X5187Y-16005D01*
X5163Y-15982D01*
X5127Y-15970D01*
X5103Y-15970D01*
X5068Y-15982D01*
X5056Y-15994D01*
X4949Y-16220D02*
X4949Y-15970D01*
X4853Y-15970D01*
X4830Y-15982D01*
X4818Y-15994D01*
X4806Y-16017D01*
X4806Y-16053D01*
X4818Y-16077D01*
X4830Y-16089D01*
X4853Y-16101D01*
X4949Y-16101D01*
X4711Y-15994D02*
X4699Y-15982D01*
X4675Y-15970D01*
X4615Y-15970D01*
X4592Y-15982D01*
X4580Y-15994D01*
X4568Y-16017D01*
X4568Y-16041D01*
X4580Y-16077D01*
X4723Y-16220D01*
X4568Y-16220D01*
X4484Y-15970D02*
X4330Y-15970D01*
X4413Y-16065D01*
X4377Y-16065D01*
X4353Y-16077D01*
X4342Y-16089D01*
X4330Y-16113D01*
X4330Y-16172D01*
X4342Y-16196D01*
X4353Y-16208D01*
X4377Y-16220D01*
X4449Y-16220D01*
X4473Y-16208D01*
X4484Y-16196D01*
X4175Y-15970D02*
X4151Y-15970D01*
X4127Y-15982D01*
X4115Y-15994D01*
X4103Y-16017D01*
X4092Y-16065D01*
X4092Y-16125D01*
X4103Y-16172D01*
X4115Y-16196D01*
X4127Y-16208D01*
X4151Y-16220D01*
X4175Y-16220D01*
X4199Y-16208D01*
X4211Y-16196D01*
X4223Y-16172D01*
X4234Y-16125D01*
X4234Y-16065D01*
X4223Y-16017D01*
X4211Y-15994D01*
X4199Y-15982D01*
X4175Y-15970D01*
X3853Y-16220D02*
X3996Y-16220D01*
X3925Y-16220D02*
X3925Y-15970D01*
X3949Y-16005D01*
X3973Y-16029D01*
X3996Y-16041D01*
X3711Y-16077D02*
X3734Y-16065D01*
X3746Y-16053D01*
X3758Y-16029D01*
X3758Y-16017D01*
X3746Y-15994D01*
X3734Y-15982D01*
X3711Y-15970D01*
X3663Y-15970D01*
X3639Y-15982D01*
X3627Y-15994D01*
X3615Y-16017D01*
X3615Y-16029D01*
X3627Y-16053D01*
X3639Y-16065D01*
X3663Y-16077D01*
X3711Y-16077D01*
X3734Y-16089D01*
X3746Y-16101D01*
X3758Y-16125D01*
X3758Y-16172D01*
X3746Y-16196D01*
X3734Y-16208D01*
X3711Y-16220D01*
X3663Y-16220D01*
X3639Y-16208D01*
X3627Y-16196D01*
X3615Y-16172D01*
X3615Y-16125D01*
X3627Y-16101D01*
X3639Y-16089D01*
X3663Y-16077D01*
X5484Y-15720D02*
X5484Y-15470D01*
X5401Y-15648D01*
X5318Y-15470D01*
X5318Y-15720D01*
X5056Y-15696D02*
X5068Y-15708D01*
X5103Y-15720D01*
X5127Y-15720D01*
X5163Y-15708D01*
X5187Y-15684D01*
X5199Y-15660D01*
X5211Y-15613D01*
X5211Y-15577D01*
X5199Y-15529D01*
X5187Y-15505D01*
X5163Y-15482D01*
X5127Y-15470D01*
X5103Y-15470D01*
X5068Y-15482D01*
X5056Y-15494D01*
X4949Y-15720D02*
X4949Y-15470D01*
X4853Y-15470D01*
X4830Y-15482D01*
X4818Y-15494D01*
X4806Y-15517D01*
X4806Y-15553D01*
X4818Y-15577D01*
X4830Y-15589D01*
X4853Y-15601D01*
X4949Y-15601D01*
X4711Y-15494D02*
X4699Y-15482D01*
X4675Y-15470D01*
X4615Y-15470D01*
X4592Y-15482D01*
X4580Y-15494D01*
X4568Y-15517D01*
X4568Y-15541D01*
X4580Y-15577D01*
X4723Y-15720D01*
X4568Y-15720D01*
X4484Y-15470D02*
X4330Y-15470D01*
X4413Y-15565D01*
X4377Y-15565D01*
X4353Y-15577D01*
X4342Y-15589D01*
X4330Y-15613D01*
X4330Y-15672D01*
X4342Y-15696D01*
X4353Y-15708D01*
X4377Y-15720D01*
X4449Y-15720D01*
X4473Y-15708D01*
X4484Y-15696D01*
X4175Y-15470D02*
X4151Y-15470D01*
X4127Y-15482D01*
X4115Y-15494D01*
X4103Y-15517D01*
X4092Y-15565D01*
X4092Y-15625D01*
X4103Y-15672D01*
X4115Y-15696D01*
X4127Y-15708D01*
X4151Y-15720D01*
X4175Y-15720D01*
X4199Y-15708D01*
X4211Y-15696D01*
X4223Y-15672D01*
X4234Y-15625D01*
X4234Y-15565D01*
X4223Y-15517D01*
X4211Y-15494D01*
X4199Y-15482D01*
X4175Y-15470D01*
X3853Y-15720D02*
X3996Y-15720D01*
X3925Y-15720D02*
X3925Y-15470D01*
X3949Y-15505D01*
X3973Y-15529D01*
X3996Y-15541D01*
X3711Y-15577D02*
X3734Y-15565D01*
X3746Y-15553D01*
X3758Y-15529D01*
X3758Y-15517D01*
X3746Y-15494D01*
X3734Y-15482D01*
X3711Y-15470D01*
X3663Y-15470D01*
X3639Y-15482D01*
X3627Y-15494D01*
X3615Y-15517D01*
X3615Y-15529D01*
X3627Y-15553D01*
X3639Y-15565D01*
X3663Y-15577D01*
X3711Y-15577D01*
X3734Y-15589D01*
X3746Y-15601D01*
X3758Y-15625D01*
X3758Y-15672D01*
X3746Y-15696D01*
X3734Y-15708D01*
X3711Y-15720D01*
X3663Y-15720D01*
X3639Y-15708D01*
X3627Y-15696D01*
X3615Y-15672D01*
X3615Y-15625D01*
X3627Y-15601D01*
X3639Y-15589D01*
X3663Y-15577D01*
X26527Y-9763D02*
X26515Y-9740D01*
X26503Y-9728D01*
X26479Y-9716D01*
X26408Y-9716D01*
X26384Y-9728D01*
X26372Y-9740D01*
X26360Y-9763D01*
X26360Y-9799D01*
X26372Y-9823D01*
X26384Y-9835D01*
X26408Y-9847D01*
X26479Y-9847D01*
X26503Y-9835D01*
X26515Y-9823D01*
X26527Y-9799D01*
X26527Y-9763D01*
X26527Y-9954D02*
X26360Y-9954D01*
X26408Y-9954D02*
X26384Y-9966D01*
X26372Y-9978D01*
X26360Y-10001D01*
X26360Y-10025D01*
X26927Y-9436D02*
X26677Y-9436D01*
X26677Y-9495D01*
X26689Y-9531D01*
X26713Y-9555D01*
X26737Y-9567D01*
X26784Y-9579D01*
X26820Y-9579D01*
X26868Y-9567D01*
X26891Y-9555D01*
X26915Y-9531D01*
X26927Y-9495D01*
X26927Y-9436D01*
X26927Y-9817D02*
X26927Y-9674D01*
X26927Y-9745D02*
X26677Y-9745D01*
X26713Y-9722D01*
X26737Y-9698D01*
X26748Y-9674D01*
X26677Y-9900D02*
X26677Y-10067D01*
X26927Y-9960D01*
X26927Y-10293D02*
X26927Y-10150D01*
X26927Y-10222D02*
X26677Y-10222D01*
X26713Y-10198D01*
X26737Y-10174D01*
X26748Y-10150D01*
X26527Y-17313D02*
X26515Y-17290D01*
X26503Y-17278D01*
X26479Y-17266D01*
X26408Y-17266D01*
X26384Y-17278D01*
X26372Y-17290D01*
X26360Y-17313D01*
X26360Y-17349D01*
X26372Y-17373D01*
X26384Y-17385D01*
X26408Y-17397D01*
X26479Y-17397D01*
X26503Y-17385D01*
X26515Y-17373D01*
X26527Y-17349D01*
X26527Y-17313D01*
X26527Y-17504D02*
X26360Y-17504D01*
X26408Y-17504D02*
X26384Y-17516D01*
X26372Y-17528D01*
X26360Y-17551D01*
X26360Y-17575D01*
X26927Y-16986D02*
X26677Y-16986D01*
X26677Y-17045D01*
X26689Y-17081D01*
X26713Y-17105D01*
X26737Y-17117D01*
X26784Y-17129D01*
X26820Y-17129D01*
X26868Y-17117D01*
X26891Y-17105D01*
X26915Y-17081D01*
X26927Y-17045D01*
X26927Y-16986D01*
X26927Y-17367D02*
X26927Y-17224D01*
X26927Y-17295D02*
X26677Y-17295D01*
X26713Y-17272D01*
X26737Y-17248D01*
X26748Y-17224D01*
X26784Y-17510D02*
X26772Y-17486D01*
X26760Y-17474D01*
X26737Y-17462D01*
X26725Y-17462D01*
X26701Y-17474D01*
X26689Y-17486D01*
X26677Y-17510D01*
X26677Y-17557D01*
X26689Y-17581D01*
X26701Y-17593D01*
X26725Y-17605D01*
X26737Y-17605D01*
X26760Y-17593D01*
X26772Y-17581D01*
X26784Y-17557D01*
X26784Y-17510D01*
X26796Y-17486D01*
X26808Y-17474D01*
X26832Y-17462D01*
X26879Y-17462D01*
X26903Y-17474D01*
X26915Y-17486D01*
X26927Y-17510D01*
X26927Y-17557D01*
X26915Y-17581D01*
X26903Y-17593D01*
X26879Y-17605D01*
X26832Y-17605D01*
X26808Y-17593D01*
X26796Y-17581D01*
X26784Y-17557D01*
X26927Y-17843D02*
X26927Y-17700D01*
X26927Y-17772D02*
X26677Y-17772D01*
X26713Y-17748D01*
X26737Y-17724D01*
X26748Y-17700D01*
X26477Y-24813D02*
X26465Y-24790D01*
X26453Y-24778D01*
X26429Y-24766D01*
X26358Y-24766D01*
X26334Y-24778D01*
X26322Y-24790D01*
X26310Y-24813D01*
X26310Y-24849D01*
X26322Y-24873D01*
X26334Y-24885D01*
X26358Y-24897D01*
X26429Y-24897D01*
X26453Y-24885D01*
X26465Y-24873D01*
X26477Y-24849D01*
X26477Y-24813D01*
X26477Y-25004D02*
X26310Y-25004D01*
X26358Y-25004D02*
X26334Y-25016D01*
X26322Y-25028D01*
X26310Y-25051D01*
X26310Y-25075D01*
X26877Y-24486D02*
X26627Y-24486D01*
X26627Y-24545D01*
X26639Y-24581D01*
X26663Y-24605D01*
X26687Y-24617D01*
X26734Y-24629D01*
X26770Y-24629D01*
X26818Y-24617D01*
X26841Y-24605D01*
X26865Y-24581D01*
X26877Y-24545D01*
X26877Y-24486D01*
X26877Y-24867D02*
X26877Y-24724D01*
X26877Y-24795D02*
X26627Y-24795D01*
X26663Y-24772D01*
X26687Y-24748D01*
X26698Y-24724D01*
X26877Y-24986D02*
X26877Y-25034D01*
X26865Y-25057D01*
X26853Y-25069D01*
X26818Y-25093D01*
X26770Y-25105D01*
X26675Y-25105D01*
X26651Y-25093D01*
X26639Y-25081D01*
X26627Y-25057D01*
X26627Y-25010D01*
X26639Y-24986D01*
X26651Y-24974D01*
X26675Y-24962D01*
X26734Y-24962D01*
X26758Y-24974D01*
X26770Y-24986D01*
X26782Y-25010D01*
X26782Y-25057D01*
X26770Y-25081D01*
X26758Y-25093D01*
X26734Y-25105D01*
X26877Y-25343D02*
X26877Y-25200D01*
X26877Y-25272D02*
X26627Y-25272D01*
X26663Y-25248D01*
X26687Y-25224D01*
X26698Y-25200D01*
X26527Y-32363D02*
X26515Y-32340D01*
X26503Y-32328D01*
X26479Y-32316D01*
X26408Y-32316D01*
X26384Y-32328D01*
X26372Y-32340D01*
X26360Y-32363D01*
X26360Y-32399D01*
X26372Y-32423D01*
X26384Y-32435D01*
X26408Y-32447D01*
X26479Y-32447D01*
X26503Y-32435D01*
X26515Y-32423D01*
X26527Y-32399D01*
X26527Y-32363D01*
X26527Y-32554D02*
X26360Y-32554D01*
X26408Y-32554D02*
X26384Y-32566D01*
X26372Y-32578D01*
X26360Y-32601D01*
X26360Y-32625D01*
X26927Y-32036D02*
X26677Y-32036D01*
X26677Y-32095D01*
X26689Y-32131D01*
X26713Y-32155D01*
X26737Y-32167D01*
X26784Y-32179D01*
X26820Y-32179D01*
X26868Y-32167D01*
X26891Y-32155D01*
X26915Y-32131D01*
X26927Y-32095D01*
X26927Y-32036D01*
X26701Y-32274D02*
X26689Y-32286D01*
X26677Y-32310D01*
X26677Y-32369D01*
X26689Y-32393D01*
X26701Y-32405D01*
X26725Y-32417D01*
X26748Y-32417D01*
X26784Y-32405D01*
X26927Y-32262D01*
X26927Y-32417D01*
X26677Y-32572D02*
X26677Y-32595D01*
X26689Y-32619D01*
X26701Y-32631D01*
X26725Y-32643D01*
X26772Y-32655D01*
X26832Y-32655D01*
X26879Y-32643D01*
X26903Y-32631D01*
X26915Y-32619D01*
X26927Y-32595D01*
X26927Y-32572D01*
X26915Y-32548D01*
X26903Y-32536D01*
X26879Y-32524D01*
X26832Y-32512D01*
X26772Y-32512D01*
X26725Y-32524D01*
X26701Y-32536D01*
X26689Y-32548D01*
X26677Y-32572D01*
X26927Y-32893D02*
X26927Y-32750D01*
X26927Y-32822D02*
X26677Y-32822D01*
X26713Y-32798D01*
X26737Y-32774D01*
X26748Y-32750D01*
X4184Y-35410D02*
X4208Y-35398D01*
X4220Y-35386D01*
X4232Y-35362D01*
X4232Y-35291D01*
X4220Y-35267D01*
X4208Y-35255D01*
X4184Y-35243D01*
X4148Y-35243D01*
X4125Y-35255D01*
X4113Y-35267D01*
X4101Y-35291D01*
X4101Y-35362D01*
X4113Y-35386D01*
X4125Y-35398D01*
X4148Y-35410D01*
X4184Y-35410D01*
X3994Y-35410D02*
X3994Y-35243D01*
X3994Y-35291D02*
X3982Y-35267D01*
X3970Y-35255D01*
X3946Y-35243D01*
X3922Y-35243D01*
X3839Y-35410D02*
X3839Y-35160D01*
X3779Y-35160D01*
X3744Y-35172D01*
X3720Y-35195D01*
X3708Y-35219D01*
X3696Y-35267D01*
X3696Y-35303D01*
X3708Y-35350D01*
X3720Y-35374D01*
X3744Y-35398D01*
X3779Y-35410D01*
X3839Y-35410D01*
X3470Y-35160D02*
X3589Y-35160D01*
X3601Y-35279D01*
X3589Y-35267D01*
X3565Y-35255D01*
X3506Y-35255D01*
X3482Y-35267D01*
X3470Y-35279D01*
X3458Y-35303D01*
X3458Y-35362D01*
X3470Y-35386D01*
X3482Y-35398D01*
X3506Y-35410D01*
X3565Y-35410D01*
X3589Y-35398D01*
X3601Y-35386D01*
X3220Y-35410D02*
X3363Y-35410D01*
X3291Y-35410D02*
X3291Y-35160D01*
X3315Y-35195D01*
X3339Y-35219D01*
X3363Y-35231D01*
G54D12*
X3201Y-13121D02*
X2001Y-13121D01*
X3051Y-12571D02*
X3201Y-12571D01*
X2001Y-12571D02*
X2051Y-12571D01*
G54D13*
X3331Y-14210D02*
X3295Y-14222D01*
X3235Y-14222D01*
X3212Y-14210D01*
X3200Y-14198D01*
X3188Y-14174D01*
X3188Y-14150D01*
X3200Y-14127D01*
X3212Y-14115D01*
X3235Y-14103D01*
X3283Y-14091D01*
X3307Y-14079D01*
X3319Y-14067D01*
X3331Y-14043D01*
X3331Y-14019D01*
X3319Y-13996D01*
X3307Y-13984D01*
X3283Y-13972D01*
X3223Y-13972D01*
X3188Y-13984D01*
X2950Y-14222D02*
X3093Y-14222D01*
X3021Y-14222D02*
X3021Y-13972D01*
X3045Y-14007D01*
X3069Y-14031D01*
X3093Y-14043D01*
X2723Y-14222D02*
X2843Y-14222D01*
X2843Y-13972D01*
X2640Y-14091D02*
X2557Y-14091D01*
X2521Y-14222D02*
X2640Y-14222D01*
X2640Y-13972D01*
X2521Y-13972D01*
X2414Y-14222D02*
X2414Y-13972D01*
X2354Y-13972D01*
X2319Y-13984D01*
X2295Y-14007D01*
X2283Y-14031D01*
X2271Y-14079D01*
X2271Y-14115D01*
X2283Y-14162D01*
X2295Y-14186D01*
X2319Y-14210D01*
X2354Y-14222D01*
X2414Y-14222D01*
G54D12*
X3051Y-12571D02*
X2051Y-12571D01*
X5801Y-11621D02*
X2001Y-11621D01*
G54D14*
X18941Y-2583D02*
X18896Y-2598D01*
X18821Y-2598D01*
X18791Y-2583D01*
X18776Y-2568D01*
X18761Y-2538D01*
X18761Y-2508D01*
X18776Y-2478D01*
X18791Y-2463D01*
X18821Y-2448D01*
X18881Y-2433D01*
X18911Y-2418D01*
X18926Y-2403D01*
X18941Y-2373D01*
X18941Y-2343D01*
X18926Y-2313D01*
X18911Y-2298D01*
X18881Y-2283D01*
X18806Y-2283D01*
X18761Y-2298D01*
X18461Y-2598D02*
X18641Y-2598D01*
X18551Y-2598D02*
X18551Y-2283D01*
X18581Y-2328D01*
X18611Y-2358D01*
X18641Y-2373D01*
X18161Y-2598D02*
X18341Y-2598D01*
X18251Y-2598D02*
X18251Y-2283D01*
X18281Y-2328D01*
X18311Y-2358D01*
X18341Y-2373D01*
X3841Y-2583D02*
X3796Y-2598D01*
X3721Y-2598D01*
X3691Y-2583D01*
X3676Y-2568D01*
X3661Y-2538D01*
X3661Y-2508D01*
X3676Y-2478D01*
X3691Y-2463D01*
X3721Y-2448D01*
X3781Y-2433D01*
X3811Y-2418D01*
X3826Y-2403D01*
X3841Y-2373D01*
X3841Y-2343D01*
X3826Y-2313D01*
X3811Y-2298D01*
X3781Y-2283D01*
X3706Y-2283D01*
X3661Y-2298D01*
X3361Y-2598D02*
X3541Y-2598D01*
X3451Y-2598D02*
X3451Y-2283D01*
X3481Y-2328D01*
X3511Y-2358D01*
X3541Y-2373D01*
X11341Y-2583D02*
X11296Y-2598D01*
X11221Y-2598D01*
X11191Y-2583D01*
X11176Y-2568D01*
X11161Y-2538D01*
X11161Y-2508D01*
X11176Y-2478D01*
X11191Y-2463D01*
X11221Y-2448D01*
X11281Y-2433D01*
X11311Y-2418D01*
X11326Y-2403D01*
X11341Y-2373D01*
X11341Y-2343D01*
X11326Y-2313D01*
X11311Y-2298D01*
X11281Y-2283D01*
X11206Y-2283D01*
X11161Y-2298D01*
X10891Y-2283D02*
X10951Y-2283D01*
X10981Y-2298D01*
X10996Y-2313D01*
X11026Y-2358D01*
X11041Y-2418D01*
X11041Y-2538D01*
X11026Y-2568D01*
X11011Y-2583D01*
X10981Y-2598D01*
X10921Y-2598D01*
X10891Y-2583D01*
X10876Y-2568D01*
X10861Y-2538D01*
X10861Y-2463D01*
X10876Y-2433D01*
X10891Y-2418D01*
X10921Y-2403D01*
X10981Y-2403D01*
X11011Y-2418D01*
X11026Y-2433D01*
X11041Y-2463D01*
X26491Y-2583D02*
X26446Y-2598D01*
X26371Y-2598D01*
X26341Y-2583D01*
X26326Y-2568D01*
X26311Y-2538D01*
X26311Y-2508D01*
X26326Y-2478D01*
X26341Y-2463D01*
X26371Y-2448D01*
X26431Y-2433D01*
X26461Y-2418D01*
X26476Y-2403D01*
X26491Y-2373D01*
X26491Y-2343D01*
X26476Y-2313D01*
X26461Y-2298D01*
X26431Y-2283D01*
X26356Y-2283D01*
X26311Y-2298D01*
X26011Y-2598D02*
X26191Y-2598D01*
X26101Y-2598D02*
X26101Y-2283D01*
X26131Y-2328D01*
X26161Y-2358D01*
X26191Y-2373D01*
X25741Y-2283D02*
X25801Y-2283D01*
X25831Y-2298D01*
X25846Y-2313D01*
X25876Y-2358D01*
X25891Y-2418D01*
X25891Y-2538D01*
X25876Y-2568D01*
X25861Y-2583D01*
X25831Y-2598D01*
X25771Y-2598D01*
X25741Y-2583D01*
X25726Y-2568D01*
X25711Y-2538D01*
X25711Y-2463D01*
X25726Y-2433D01*
X25741Y-2418D01*
X25771Y-2403D01*
X25831Y-2403D01*
X25861Y-2418D01*
X25876Y-2433D01*
X25891Y-2463D01*
G54D13*
X21921Y-2113D02*
X21921Y-2030D01*
X22052Y-2030D02*
X21802Y-2030D01*
X21802Y-2149D01*
X21802Y-2292D02*
X21802Y-2340D01*
X21814Y-2363D01*
X21838Y-2387D01*
X21885Y-2399D01*
X21969Y-2399D01*
X22016Y-2387D01*
X22040Y-2363D01*
X22052Y-2340D01*
X22052Y-2292D01*
X22040Y-2268D01*
X22016Y-2244D01*
X21969Y-2232D01*
X21885Y-2232D01*
X21838Y-2244D01*
X21814Y-2268D01*
X21802Y-2292D01*
X22052Y-2649D02*
X21933Y-2566D01*
X22052Y-2506D02*
X21802Y-2506D01*
X21802Y-2602D01*
X21814Y-2625D01*
X21826Y-2637D01*
X21850Y-2649D01*
X21885Y-2649D01*
X21909Y-2637D01*
X21921Y-2625D01*
X21933Y-2602D01*
X21933Y-2506D01*
X22040Y-2935D02*
X22052Y-2971D01*
X22052Y-3030D01*
X22040Y-3054D01*
X22028Y-3066D01*
X22004Y-3078D01*
X21981Y-3078D01*
X21957Y-3066D01*
X21945Y-3054D01*
X21933Y-3030D01*
X21921Y-2982D01*
X21909Y-2959D01*
X21897Y-2947D01*
X21873Y-2935D01*
X21850Y-2935D01*
X21826Y-2947D01*
X21814Y-2959D01*
X21802Y-2982D01*
X21802Y-3042D01*
X21814Y-3078D01*
X22052Y-3316D02*
X22052Y-3173D01*
X22052Y-3244D02*
X21802Y-3244D01*
X21838Y-3221D01*
X21862Y-3197D01*
X21873Y-3173D01*
X21802Y-3530D02*
X21802Y-3482D01*
X21814Y-3459D01*
X21826Y-3447D01*
X21862Y-3423D01*
X21909Y-3411D01*
X22004Y-3411D01*
X22028Y-3423D01*
X22040Y-3435D01*
X22052Y-3459D01*
X22052Y-3506D01*
X22040Y-3530D01*
X22028Y-3542D01*
X22004Y-3554D01*
X21945Y-3554D01*
X21921Y-3542D01*
X21909Y-3530D01*
X21897Y-3506D01*
X21897Y-3459D01*
X21909Y-3435D01*
X21921Y-3423D01*
X21945Y-3411D01*
X22052Y-3971D02*
X22052Y-3852D01*
X21802Y-3852D01*
X21921Y-4054D02*
X21921Y-4137D01*
X22052Y-4173D02*
X22052Y-4054D01*
X21802Y-4054D01*
X21802Y-4173D01*
X22052Y-4280D02*
X21802Y-4280D01*
X21802Y-4340D01*
X21814Y-4375D01*
X21838Y-4399D01*
X21862Y-4411D01*
X21909Y-4423D01*
X21945Y-4423D01*
X21993Y-4411D01*
X22016Y-4399D01*
X22040Y-4375D01*
X22052Y-4340D01*
X22052Y-4280D01*
X18658Y-7691D02*
X18741Y-7691D01*
X18741Y-7822D02*
X18741Y-7572D01*
X18622Y-7572D01*
X18479Y-7572D02*
X18432Y-7572D01*
X18408Y-7584D01*
X18384Y-7607D01*
X18372Y-7655D01*
X18372Y-7738D01*
X18384Y-7786D01*
X18408Y-7810D01*
X18432Y-7822D01*
X18479Y-7822D01*
X18503Y-7810D01*
X18527Y-7786D01*
X18539Y-7738D01*
X18539Y-7655D01*
X18527Y-7607D01*
X18503Y-7584D01*
X18479Y-7572D01*
X18122Y-7822D02*
X18206Y-7703D01*
X18265Y-7822D02*
X18265Y-7572D01*
X18170Y-7572D01*
X18146Y-7584D01*
X18134Y-7596D01*
X18122Y-7619D01*
X18122Y-7655D01*
X18134Y-7679D01*
X18146Y-7691D01*
X18170Y-7703D01*
X18265Y-7703D01*
X17837Y-7810D02*
X17801Y-7822D01*
X17741Y-7822D01*
X17718Y-7810D01*
X17706Y-7798D01*
X17694Y-7774D01*
X17694Y-7750D01*
X17706Y-7727D01*
X17718Y-7715D01*
X17741Y-7703D01*
X17789Y-7691D01*
X17813Y-7679D01*
X17825Y-7667D01*
X17837Y-7643D01*
X17837Y-7619D01*
X17825Y-7596D01*
X17813Y-7584D01*
X17789Y-7572D01*
X17729Y-7572D01*
X17694Y-7584D01*
X17456Y-7822D02*
X17598Y-7822D01*
X17527Y-7822D02*
X17527Y-7572D01*
X17551Y-7607D01*
X17575Y-7631D01*
X17598Y-7643D01*
X17218Y-7822D02*
X17360Y-7822D01*
X17289Y-7822D02*
X17289Y-7572D01*
X17313Y-7607D01*
X17337Y-7631D01*
X17360Y-7643D01*
X16801Y-7822D02*
X16920Y-7822D01*
X16920Y-7572D01*
X16718Y-7691D02*
X16634Y-7691D01*
X16598Y-7822D02*
X16718Y-7822D01*
X16718Y-7572D01*
X16598Y-7572D01*
X16491Y-7822D02*
X16491Y-7572D01*
X16432Y-7572D01*
X16396Y-7584D01*
X16372Y-7607D01*
X16360Y-7631D01*
X16348Y-7679D01*
X16348Y-7715D01*
X16360Y-7762D01*
X16372Y-7786D01*
X16396Y-7810D01*
X16432Y-7822D01*
X16491Y-7822D01*
X14089Y-7741D02*
X14172Y-7741D01*
X14172Y-7872D02*
X14172Y-7622D01*
X14053Y-7622D01*
X13910Y-7622D02*
X13863Y-7622D01*
X13839Y-7634D01*
X13815Y-7657D01*
X13803Y-7705D01*
X13803Y-7788D01*
X13815Y-7836D01*
X13839Y-7860D01*
X13863Y-7872D01*
X13910Y-7872D01*
X13934Y-7860D01*
X13958Y-7836D01*
X13970Y-7788D01*
X13970Y-7705D01*
X13958Y-7657D01*
X13934Y-7634D01*
X13910Y-7622D01*
X13553Y-7872D02*
X13637Y-7753D01*
X13696Y-7872D02*
X13696Y-7622D01*
X13601Y-7622D01*
X13577Y-7634D01*
X13565Y-7646D01*
X13553Y-7669D01*
X13553Y-7705D01*
X13565Y-7729D01*
X13577Y-7741D01*
X13601Y-7753D01*
X13696Y-7753D01*
X13268Y-7860D02*
X13232Y-7872D01*
X13172Y-7872D01*
X13148Y-7860D01*
X13137Y-7848D01*
X13125Y-7824D01*
X13125Y-7800D01*
X13137Y-7777D01*
X13148Y-7765D01*
X13172Y-7753D01*
X13220Y-7741D01*
X13244Y-7729D01*
X13256Y-7717D01*
X13268Y-7693D01*
X13268Y-7669D01*
X13256Y-7646D01*
X13244Y-7634D01*
X13220Y-7622D01*
X13160Y-7622D01*
X13125Y-7634D01*
X12910Y-7622D02*
X12958Y-7622D01*
X12982Y-7634D01*
X12994Y-7646D01*
X13018Y-7681D01*
X13029Y-7729D01*
X13029Y-7824D01*
X13018Y-7848D01*
X13006Y-7860D01*
X12982Y-7872D01*
X12934Y-7872D01*
X12910Y-7860D01*
X12898Y-7848D01*
X12887Y-7824D01*
X12887Y-7765D01*
X12898Y-7741D01*
X12910Y-7729D01*
X12934Y-7717D01*
X12982Y-7717D01*
X13006Y-7729D01*
X13018Y-7741D01*
X13029Y-7765D01*
X12470Y-7872D02*
X12589Y-7872D01*
X12589Y-7622D01*
X12387Y-7741D02*
X12303Y-7741D01*
X12268Y-7872D02*
X12387Y-7872D01*
X12387Y-7622D01*
X12268Y-7622D01*
X12160Y-7872D02*
X12160Y-7622D01*
X12101Y-7622D01*
X12065Y-7634D01*
X12041Y-7657D01*
X12029Y-7681D01*
X12018Y-7729D01*
X12018Y-7765D01*
X12029Y-7812D01*
X12041Y-7836D01*
X12065Y-7860D01*
X12101Y-7872D01*
X12160Y-7872D01*
X3539Y-7641D02*
X3622Y-7641D01*
X3622Y-7772D02*
X3622Y-7522D01*
X3503Y-7522D01*
X3360Y-7522D02*
X3313Y-7522D01*
X3289Y-7534D01*
X3265Y-7557D01*
X3253Y-7605D01*
X3253Y-7688D01*
X3265Y-7736D01*
X3289Y-7760D01*
X3313Y-7772D01*
X3360Y-7772D01*
X3384Y-7760D01*
X3408Y-7736D01*
X3420Y-7688D01*
X3420Y-7605D01*
X3408Y-7557D01*
X3384Y-7534D01*
X3360Y-7522D01*
X3003Y-7772D02*
X3087Y-7653D01*
X3146Y-7772D02*
X3146Y-7522D01*
X3051Y-7522D01*
X3027Y-7534D01*
X3015Y-7546D01*
X3003Y-7569D01*
X3003Y-7605D01*
X3015Y-7629D01*
X3027Y-7641D01*
X3051Y-7653D01*
X3146Y-7653D01*
X2718Y-7760D02*
X2682Y-7772D01*
X2622Y-7772D01*
X2598Y-7760D01*
X2587Y-7748D01*
X2575Y-7724D01*
X2575Y-7700D01*
X2587Y-7677D01*
X2598Y-7665D01*
X2622Y-7653D01*
X2670Y-7641D01*
X2694Y-7629D01*
X2706Y-7617D01*
X2718Y-7593D01*
X2718Y-7569D01*
X2706Y-7546D01*
X2694Y-7534D01*
X2670Y-7522D01*
X2610Y-7522D01*
X2575Y-7534D01*
X2337Y-7772D02*
X2479Y-7772D01*
X2408Y-7772D02*
X2408Y-7522D01*
X2432Y-7557D01*
X2456Y-7581D01*
X2479Y-7593D01*
X1920Y-7772D02*
X2039Y-7772D01*
X2039Y-7522D01*
X1837Y-7641D02*
X1753Y-7641D01*
X1718Y-7772D02*
X1837Y-7772D01*
X1837Y-7522D01*
X1718Y-7522D01*
X1610Y-7772D02*
X1610Y-7522D01*
X1551Y-7522D01*
X1515Y-7534D01*
X1491Y-7557D01*
X1479Y-7581D01*
X1468Y-7629D01*
X1468Y-7665D01*
X1479Y-7712D01*
X1491Y-7736D01*
X1515Y-7760D01*
X1551Y-7772D01*
X1610Y-7772D01*
G54D15*
X15442Y-2871D02*
G75*
G03X15442Y-2871I-591J0D01*
G74*
G01*
X15776Y-4091D02*
X15776Y-4288D01*
X15776Y-4288D02*
X15501Y-4288D01*
X15501Y-4288D02*
X15501Y-4091D01*
X13926Y-4288D02*
X13926Y-4091D01*
X14201Y-4288D02*
X13926Y-4288D01*
X14201Y-4091D02*
X14201Y-4288D01*
X14201Y-1651D02*
X14201Y-1454D01*
X14201Y-1454D02*
X13926Y-1454D01*
X13926Y-1454D02*
X13926Y-1651D01*
X15776Y-1651D02*
X15776Y-1454D01*
X15776Y-1454D02*
X15501Y-1454D01*
X15501Y-1454D02*
X15501Y-1651D01*
G54D16*
X13631Y-3973D02*
X13631Y-1769D01*
X16071Y-3973D02*
X16071Y-1769D01*
X16032Y-4091D02*
X16032Y-1651D01*
X16032Y-1651D02*
X13670Y-1651D01*
X13670Y-1651D02*
X13670Y-4091D01*
X13670Y-4091D02*
X16032Y-4091D01*
G54D17*
X21951Y-22922D02*
X23251Y-22922D01*
X23251Y-22922D02*
X23251Y-21322D01*
X23251Y-21322D02*
X21951Y-21322D01*
X21951Y-21322D02*
X21951Y-22922D01*
G54D18*
X17387Y-22720D02*
X14601Y-19934D01*
X14601Y-19934D02*
X11815Y-22720D01*
X14467Y-25372D02*
X11815Y-22720D01*
X14735Y-25372D02*
X17387Y-22720D01*
X14467Y-25372D02*
X14735Y-25372D01*
G54D19*
X14851Y-24842D02*
G75*
G03X14851Y-24842I-250J0D01*
G74*
G01*
G54D17*
X7133Y-4409D02*
X7576Y-4409D01*
X7576Y-4409D02*
X7576Y-3609D01*
X7576Y-3609D02*
X7133Y-3609D01*
X6708Y-4409D02*
X6276Y-4409D01*
X6276Y-4409D02*
X6276Y-3609D01*
X6276Y-3609D02*
X6708Y-3609D01*
X24201Y-21064D02*
X24201Y-20622D01*
X24201Y-20622D02*
X23401Y-20622D01*
X23401Y-20622D02*
X23401Y-21064D01*
X24201Y-21490D02*
X24201Y-21922D01*
X24201Y-21922D02*
X23401Y-21922D01*
X23401Y-21922D02*
X23401Y-21490D01*
X23401Y-23229D02*
X23401Y-23672D01*
X23401Y-23672D02*
X24201Y-23672D01*
X24201Y-23672D02*
X24201Y-23229D01*
X23401Y-22803D02*
X23401Y-22372D01*
X23401Y-22372D02*
X24201Y-22372D01*
X24201Y-22372D02*
X24201Y-22803D01*
X8501Y-23728D02*
X8501Y-24170D01*
X8501Y-24170D02*
X9301Y-24170D01*
X9301Y-24170D02*
X9301Y-23728D01*
X8501Y-23302D02*
X8501Y-22870D01*
X8501Y-22870D02*
X9301Y-22870D01*
X9301Y-22870D02*
X9301Y-23302D01*
X11188Y-20034D02*
X10746Y-20034D01*
X10746Y-20034D02*
X10746Y-20834D01*
X10746Y-20834D02*
X11188Y-20834D01*
X11614Y-20034D02*
X12046Y-20034D01*
X12046Y-20034D02*
X12046Y-20834D01*
X12046Y-20834D02*
X11614Y-20834D01*
X22809Y-23872D02*
X23251Y-23872D01*
X23251Y-23872D02*
X23251Y-23072D01*
X23251Y-23072D02*
X22809Y-23072D01*
X22383Y-23872D02*
X21951Y-23872D01*
X21951Y-23872D02*
X21951Y-23072D01*
X21951Y-23072D02*
X22383Y-23072D01*
X21309Y-22122D02*
X21751Y-22122D01*
X21751Y-22122D02*
X21751Y-21322D01*
X21751Y-21322D02*
X21309Y-21322D01*
X20883Y-22122D02*
X20451Y-22122D01*
X20451Y-22122D02*
X20451Y-21322D01*
X20451Y-21322D02*
X20883Y-21322D01*
X7218Y-4809D02*
X6776Y-4809D01*
X6776Y-4809D02*
X6776Y-5609D01*
X6776Y-5609D02*
X7218Y-5609D01*
X7644Y-4809D02*
X8076Y-4809D01*
X8076Y-4809D02*
X8076Y-5609D01*
X8076Y-5609D02*
X7644Y-5609D01*
X9151Y-4863D02*
X9151Y-4421D01*
X9151Y-4421D02*
X8351Y-4421D01*
X8351Y-4421D02*
X8351Y-4863D01*
X9151Y-5289D02*
X9151Y-5721D01*
X9151Y-5721D02*
X8351Y-5721D01*
X8351Y-5721D02*
X8351Y-5289D01*
X8301Y-24113D02*
X8301Y-23670D01*
X8301Y-23670D02*
X7501Y-23670D01*
X7501Y-23670D02*
X7501Y-24113D01*
X8301Y-24538D02*
X8301Y-24970D01*
X8301Y-24970D02*
X7501Y-24970D01*
X7501Y-24970D02*
X7501Y-24538D01*
X21309Y-21172D02*
X21751Y-21172D01*
X21751Y-21172D02*
X21751Y-20372D01*
X21751Y-20372D02*
X21309Y-20372D01*
X20883Y-21172D02*
X20451Y-21172D01*
X20451Y-21172D02*
X20451Y-20372D01*
X20451Y-20372D02*
X20883Y-20372D01*
X8301Y-22513D02*
X8301Y-22070D01*
X8301Y-22070D02*
X7501Y-22070D01*
X7501Y-22070D02*
X7501Y-22513D01*
X8301Y-22938D02*
X8301Y-23370D01*
X8301Y-23370D02*
X7501Y-23370D01*
X7501Y-23370D02*
X7501Y-22938D01*
X4101Y-7021D02*
X3901Y-7021D01*
X1101Y-7021D02*
X1301Y-7021D01*
X1301Y-7021D02*
X1301Y-6621D01*
X1301Y-6621D02*
X3901Y-6621D01*
X3901Y-6621D02*
X3901Y-7421D01*
X3901Y-7421D02*
X1301Y-7421D01*
X1301Y-7421D02*
X1301Y-7021D01*
X22751Y-1621D02*
X22751Y-1821D01*
X22751Y-4621D02*
X22751Y-4421D01*
X22751Y-4421D02*
X22351Y-4421D01*
X22351Y-4421D02*
X22351Y-1821D01*
X22351Y-1821D02*
X23151Y-1821D01*
X23151Y-1821D02*
X23151Y-4421D01*
X23151Y-4421D02*
X22751Y-4421D01*
X14601Y-7021D02*
X14401Y-7021D01*
X11601Y-7021D02*
X11801Y-7021D01*
X11801Y-7021D02*
X11801Y-6621D01*
X11801Y-6621D02*
X14401Y-6621D01*
X14401Y-6621D02*
X14401Y-7421D01*
X14401Y-7421D02*
X11801Y-7421D01*
X11801Y-7421D02*
X11801Y-7021D01*
X16101Y-6971D02*
X16301Y-6971D01*
X19101Y-6971D02*
X18901Y-6971D01*
X18901Y-6971D02*
X18901Y-7371D01*
X18901Y-7371D02*
X16301Y-7371D01*
X16301Y-7371D02*
X16301Y-6571D01*
X16301Y-6571D02*
X18901Y-6571D01*
X18901Y-6571D02*
X18901Y-6971D01*
X7143Y-25459D02*
X6701Y-25459D01*
X6701Y-25459D02*
X6701Y-26259D01*
X6701Y-26259D02*
X7143Y-26259D01*
X7569Y-25459D02*
X8001Y-25459D01*
X8001Y-25459D02*
X8001Y-26259D01*
X8001Y-26259D02*
X7569Y-26259D01*
X7143Y-26484D02*
X6701Y-26484D01*
X6701Y-26484D02*
X6701Y-27284D01*
X6701Y-27284D02*
X7143Y-27284D01*
X7569Y-26484D02*
X8001Y-26484D01*
X8001Y-26484D02*
X8001Y-27284D01*
X8001Y-27284D02*
X7569Y-27284D01*
G54D20*
X3926Y-21682D02*
X3926Y-21822D01*
X3926Y-21822D02*
X3416Y-21822D01*
X3416Y-21682D02*
X3416Y-21822D01*
X3926Y-21682D02*
X3416Y-21682D01*
X3926Y-21938D02*
X3926Y-22078D01*
X3926Y-22078D02*
X3416Y-22078D01*
X3416Y-21938D02*
X3416Y-22078D01*
X3926Y-21938D02*
X3416Y-21938D01*
X3926Y-22194D02*
X3926Y-22334D01*
X3926Y-22334D02*
X3416Y-22334D01*
X3416Y-22194D02*
X3416Y-22334D01*
X3926Y-22194D02*
X3416Y-22194D01*
X3926Y-22450D02*
X3926Y-22590D01*
X3926Y-22590D02*
X3416Y-22590D01*
X3416Y-22450D02*
X3416Y-22590D01*
X3926Y-22450D02*
X3416Y-22450D01*
X3926Y-22706D02*
X3926Y-22846D01*
X3926Y-22846D02*
X3416Y-22846D01*
X3416Y-22706D02*
X3416Y-22846D01*
X3926Y-22706D02*
X3416Y-22706D01*
X3926Y-22962D02*
X3926Y-23102D01*
X3926Y-23102D02*
X3416Y-23102D01*
X3416Y-22962D02*
X3416Y-23102D01*
X3926Y-22962D02*
X3416Y-22962D01*
X3926Y-23216D02*
X3926Y-23356D01*
X3926Y-23356D02*
X3416Y-23356D01*
X3416Y-23216D02*
X3416Y-23356D01*
X3926Y-23216D02*
X3416Y-23216D01*
X3926Y-23472D02*
X3926Y-23612D01*
X3926Y-23612D02*
X3416Y-23612D01*
X3416Y-23472D02*
X3416Y-23612D01*
X3926Y-23472D02*
X3416Y-23472D01*
X3926Y-23728D02*
X3926Y-23868D01*
X3926Y-23868D02*
X3416Y-23868D01*
X3416Y-23728D02*
X3416Y-23868D01*
X3926Y-23728D02*
X3416Y-23728D01*
X3926Y-23984D02*
X3926Y-24124D01*
X3926Y-24124D02*
X3416Y-24124D01*
X3416Y-23984D02*
X3416Y-24124D01*
X3926Y-23984D02*
X3416Y-23984D01*
X3926Y-24240D02*
X3926Y-24380D01*
X3926Y-24380D02*
X3416Y-24380D01*
X3416Y-24240D02*
X3416Y-24380D01*
X3926Y-24240D02*
X3416Y-24240D01*
X3926Y-24496D02*
X3926Y-24636D01*
X3926Y-24636D02*
X3416Y-24636D01*
X3416Y-24496D02*
X3416Y-24636D01*
X3926Y-24496D02*
X3416Y-24496D01*
X1336Y-24496D02*
X1336Y-24636D01*
X1336Y-24636D02*
X826Y-24636D01*
X826Y-24496D02*
X826Y-24636D01*
X1336Y-24496D02*
X826Y-24496D01*
X1336Y-24240D02*
X1336Y-24380D01*
X1336Y-24380D02*
X826Y-24380D01*
X826Y-24240D02*
X826Y-24380D01*
X1336Y-24240D02*
X826Y-24240D01*
X1336Y-23984D02*
X1336Y-24124D01*
X1336Y-24124D02*
X826Y-24124D01*
X826Y-23984D02*
X826Y-24124D01*
X1336Y-23984D02*
X826Y-23984D01*
X1336Y-23728D02*
X1336Y-23868D01*
X1336Y-23868D02*
X826Y-23868D01*
X826Y-23728D02*
X826Y-23868D01*
X1336Y-23728D02*
X826Y-23728D01*
X1336Y-23472D02*
X1336Y-23612D01*
X1336Y-23612D02*
X826Y-23612D01*
X826Y-23472D02*
X826Y-23612D01*
X1336Y-23472D02*
X826Y-23472D01*
X1336Y-23216D02*
X1336Y-23356D01*
X1336Y-23356D02*
X826Y-23356D01*
X826Y-23216D02*
X826Y-23356D01*
X1336Y-23216D02*
X826Y-23216D01*
X1336Y-22962D02*
X1336Y-23102D01*
X1336Y-23102D02*
X826Y-23102D01*
X826Y-22962D02*
X826Y-23102D01*
X1336Y-22962D02*
X826Y-22962D01*
X1336Y-22706D02*
X1336Y-22846D01*
X1336Y-22846D02*
X826Y-22846D01*
X826Y-22706D02*
X826Y-22846D01*
X1336Y-22706D02*
X826Y-22706D01*
X1336Y-22450D02*
X1336Y-22590D01*
X1336Y-22590D02*
X826Y-22590D01*
X826Y-22450D02*
X826Y-22590D01*
X1336Y-22450D02*
X826Y-22450D01*
X1336Y-22194D02*
X1336Y-22334D01*
X1336Y-22334D02*
X826Y-22334D01*
X826Y-22194D02*
X826Y-22334D01*
X1336Y-22194D02*
X826Y-22194D01*
X1336Y-21938D02*
X1336Y-22078D01*
X1336Y-22078D02*
X826Y-22078D01*
X826Y-21938D02*
X826Y-22078D01*
X1336Y-21938D02*
X826Y-21938D01*
X1336Y-21682D02*
X1336Y-21822D01*
X1336Y-21822D02*
X826Y-21822D01*
X826Y-21682D02*
X826Y-21822D01*
X1336Y-21682D02*
X826Y-21682D01*
G54D19*
X3399Y-21408D02*
X3399Y-24910D01*
X3399Y-24910D02*
X1353Y-24910D01*
X1353Y-24910D02*
X1353Y-21408D01*
X1353Y-21408D02*
X3399Y-21408D01*
G54D21*
X3138Y-21762D02*
G75*
G03X3138Y-21762I-123J0D01*
G74*
G01*
G54D14*
X8665Y-2488D02*
X8665Y11D01*
X8665Y11D02*
X5665Y11D01*
X5665Y11D02*
X5665Y-2488D01*
X8015Y-2488D02*
X8665Y-2488D01*
G54D15*
X5665Y-2488D02*
X6365Y-2488D01*
G54D12*
X27016Y-17725D02*
X27685Y-17725D01*
X27685Y-17726D02*
X27685Y-17687D01*
X27685Y-17686D02*
X27016Y-17686D01*
X27587Y-16801D02*
X27685Y-16801D01*
X27685Y-16801D02*
X27685Y-17942D01*
X27685Y-17942D02*
X27607Y-17942D01*
X27016Y-17942D02*
X27016Y-16801D01*
X27016Y-16801D02*
X27114Y-16801D01*
X27114Y-17942D02*
X27016Y-17942D01*
X27134Y-17509D02*
X27567Y-17509D01*
X27134Y-17234D02*
X27567Y-17234D01*
X27567Y-17234D02*
X27351Y-17490D01*
X27351Y-17490D02*
X27134Y-17234D01*
X27016Y-10225D02*
X27685Y-10225D01*
X27685Y-10226D02*
X27685Y-10187D01*
X27685Y-10186D02*
X27016Y-10186D01*
X27587Y-9301D02*
X27685Y-9301D01*
X27685Y-9301D02*
X27685Y-10442D01*
X27685Y-10442D02*
X27607Y-10442D01*
X27016Y-10442D02*
X27016Y-9301D01*
X27016Y-9301D02*
X27114Y-9301D01*
X27114Y-10442D02*
X27016Y-10442D01*
X27134Y-10009D02*
X27567Y-10009D01*
X27134Y-9734D02*
X27567Y-9734D01*
X27567Y-9734D02*
X27351Y-9990D01*
X27351Y-9990D02*
X27134Y-9734D01*
X27247Y-5536D02*
X27247Y-6205D01*
X27247Y-6205D02*
X27286Y-6205D01*
X27287Y-6205D02*
X27287Y-5536D01*
X28172Y-6107D02*
X28172Y-6205D01*
X28172Y-6205D02*
X27030Y-6205D01*
X27030Y-6205D02*
X27030Y-6126D01*
X27030Y-5536D02*
X28172Y-5536D01*
X28172Y-5536D02*
X28172Y-5634D01*
X27030Y-5634D02*
X27030Y-5536D01*
X27463Y-5654D02*
X27463Y-6087D01*
X27739Y-5654D02*
X27739Y-6087D01*
X27739Y-6087D02*
X27483Y-5871D01*
X27483Y-5871D02*
X27739Y-5654D01*
X19747Y-28036D02*
X19747Y-28705D01*
X19747Y-28705D02*
X19786Y-28705D01*
X19787Y-28705D02*
X19787Y-28036D01*
X20672Y-28607D02*
X20672Y-28705D01*
X20672Y-28705D02*
X19530Y-28705D01*
X19530Y-28705D02*
X19530Y-28626D01*
X19530Y-28036D02*
X20672Y-28036D01*
X20672Y-28036D02*
X20672Y-28134D01*
X19530Y-28134D02*
X19530Y-28036D01*
X19963Y-28154D02*
X19963Y-28587D01*
X20239Y-28154D02*
X20239Y-28587D01*
X20239Y-28587D02*
X19983Y-28370D01*
X19983Y-28370D02*
X20239Y-28154D01*
X19747Y-16036D02*
X19747Y-16705D01*
X19747Y-16705D02*
X19786Y-16705D01*
X19787Y-16705D02*
X19787Y-16036D01*
X20672Y-16607D02*
X20672Y-16705D01*
X20672Y-16705D02*
X19530Y-16705D01*
X19530Y-16705D02*
X19530Y-16626D01*
X19530Y-16036D02*
X20672Y-16036D01*
X20672Y-16036D02*
X20672Y-16134D01*
X19530Y-16134D02*
X19530Y-16036D01*
X19963Y-16154D02*
X19963Y-16587D01*
X20239Y-16154D02*
X20239Y-16587D01*
X20239Y-16587D02*
X19983Y-16370D01*
X19983Y-16370D02*
X20239Y-16154D01*
X19747Y-13036D02*
X19747Y-13705D01*
X19747Y-13705D02*
X19786Y-13705D01*
X19787Y-13705D02*
X19787Y-13036D01*
X20672Y-13607D02*
X20672Y-13705D01*
X20672Y-13705D02*
X19530Y-13705D01*
X19530Y-13705D02*
X19530Y-13626D01*
X19530Y-13036D02*
X20672Y-13036D01*
X20672Y-13036D02*
X20672Y-13134D01*
X19530Y-13134D02*
X19530Y-13036D01*
X19963Y-13154D02*
X19963Y-13587D01*
X20239Y-13154D02*
X20239Y-13587D01*
X20239Y-13587D02*
X19983Y-13371D01*
X19983Y-13371D02*
X20239Y-13154D01*
X19747Y-5536D02*
X19747Y-6205D01*
X19747Y-6205D02*
X19786Y-6205D01*
X19787Y-6205D02*
X19787Y-5536D01*
X20672Y-6107D02*
X20672Y-6205D01*
X20672Y-6205D02*
X19530Y-6205D01*
X19530Y-6205D02*
X19530Y-6126D01*
X19530Y-5536D02*
X20672Y-5536D01*
X20672Y-5536D02*
X20672Y-5634D01*
X19530Y-5634D02*
X19530Y-5536D01*
X19963Y-5654D02*
X19963Y-6087D01*
X20239Y-5654D02*
X20239Y-6087D01*
X20239Y-6087D02*
X19983Y-5871D01*
X19983Y-5871D02*
X20239Y-5654D01*
X12247Y-28036D02*
X12247Y-28705D01*
X12247Y-28705D02*
X12286Y-28705D01*
X12287Y-28705D02*
X12287Y-28036D01*
X13172Y-28607D02*
X13172Y-28705D01*
X13172Y-28705D02*
X12030Y-28705D01*
X12030Y-28705D02*
X12030Y-28626D01*
X12030Y-28036D02*
X13172Y-28036D01*
X13172Y-28036D02*
X13172Y-28134D01*
X12030Y-28134D02*
X12030Y-28036D01*
X12463Y-28154D02*
X12463Y-28587D01*
X12739Y-28154D02*
X12739Y-28587D01*
X12739Y-28587D02*
X12483Y-28370D01*
X12483Y-28370D02*
X12739Y-28154D01*
X27016Y-32725D02*
X27685Y-32725D01*
X27685Y-32726D02*
X27685Y-32687D01*
X27685Y-32686D02*
X27016Y-32686D01*
X27587Y-31801D02*
X27685Y-31801D01*
X27685Y-31801D02*
X27685Y-32942D01*
X27685Y-32942D02*
X27607Y-32942D01*
X27016Y-32942D02*
X27016Y-31801D01*
X27016Y-31801D02*
X27114Y-31801D01*
X27114Y-32942D02*
X27016Y-32942D01*
X27134Y-32509D02*
X27567Y-32509D01*
X27134Y-32234D02*
X27567Y-32234D01*
X27567Y-32234D02*
X27351Y-32490D01*
X27351Y-32490D02*
X27134Y-32234D01*
X27016Y-25225D02*
X27685Y-25225D01*
X27685Y-25226D02*
X27685Y-25187D01*
X27685Y-25186D02*
X27016Y-25186D01*
X27587Y-24301D02*
X27685Y-24301D01*
X27685Y-24301D02*
X27685Y-25442D01*
X27685Y-25442D02*
X27607Y-25442D01*
X27016Y-25442D02*
X27016Y-24301D01*
X27016Y-24301D02*
X27114Y-24301D01*
X27114Y-25442D02*
X27016Y-25442D01*
X27134Y-25009D02*
X27567Y-25009D01*
X27134Y-24734D02*
X27567Y-24734D01*
X27567Y-24734D02*
X27351Y-24990D01*
X27351Y-24990D02*
X27134Y-24734D01*
X19747Y-35536D02*
X19747Y-36205D01*
X19747Y-36205D02*
X19786Y-36205D01*
X19787Y-36205D02*
X19787Y-35536D01*
X20672Y-36107D02*
X20672Y-36205D01*
X20672Y-36205D02*
X19530Y-36205D01*
X19530Y-36205D02*
X19530Y-36126D01*
X19530Y-35536D02*
X20672Y-35536D01*
X20672Y-35536D02*
X20672Y-35634D01*
X19530Y-35634D02*
X19530Y-35536D01*
X19963Y-35654D02*
X19963Y-36087D01*
X20239Y-35654D02*
X20239Y-36087D01*
X20239Y-36087D02*
X19983Y-35870D01*
X19983Y-35870D02*
X20239Y-35654D01*
X13747Y-35536D02*
X13747Y-36205D01*
X13747Y-36205D02*
X13786Y-36205D01*
X13787Y-36205D02*
X13787Y-35536D01*
X14672Y-36107D02*
X14672Y-36205D01*
X14672Y-36205D02*
X13530Y-36205D01*
X13530Y-36205D02*
X13530Y-36126D01*
X13530Y-35536D02*
X14672Y-35536D01*
X14672Y-35536D02*
X14672Y-35634D01*
X13530Y-35634D02*
X13530Y-35536D01*
X13963Y-35654D02*
X13963Y-36087D01*
X14239Y-35654D02*
X14239Y-36087D01*
X14239Y-36087D02*
X13983Y-35870D01*
X13983Y-35870D02*
X14239Y-35654D01*
X4955Y-36203D02*
X4955Y-35534D01*
X4955Y-35534D02*
X4916Y-35534D01*
X4915Y-35534D02*
X4915Y-36203D01*
X4030Y-35632D02*
X4030Y-35534D01*
X4030Y-35534D02*
X5172Y-35534D01*
X5172Y-35534D02*
X5172Y-35613D01*
X5172Y-36203D02*
X4030Y-36203D01*
X4030Y-36203D02*
X4030Y-36105D01*
X5172Y-36105D02*
X5172Y-36203D01*
X4739Y-36085D02*
X4739Y-35652D01*
X4463Y-36085D02*
X4463Y-35652D01*
X4463Y-35652D02*
X4719Y-35869D01*
X4719Y-35869D02*
X4463Y-36085D01*
X4747Y-20536D02*
X4747Y-21205D01*
X4747Y-21205D02*
X4786Y-21205D01*
X4787Y-21205D02*
X4787Y-20536D01*
X5672Y-21107D02*
X5672Y-21205D01*
X5672Y-21205D02*
X4530Y-21205D01*
X4530Y-21205D02*
X4530Y-21126D01*
X4530Y-20536D02*
X5672Y-20536D01*
X5672Y-20536D02*
X5672Y-20634D01*
X4530Y-20634D02*
X4530Y-20536D01*
X4963Y-20654D02*
X4963Y-21087D01*
X5239Y-20654D02*
X5239Y-21087D01*
X5239Y-21087D02*
X4983Y-20870D01*
X4983Y-20870D02*
X5239Y-20654D01*
X4747Y-5536D02*
X4747Y-6205D01*
X4747Y-6205D02*
X4786Y-6205D01*
X4787Y-6205D02*
X4787Y-5536D01*
X5672Y-6107D02*
X5672Y-6205D01*
X5672Y-6205D02*
X4530Y-6205D01*
X4530Y-6205D02*
X4530Y-6126D01*
X4530Y-5536D02*
X5672Y-5536D01*
X5672Y-5536D02*
X5672Y-5634D01*
X4530Y-5634D02*
X4530Y-5536D01*
X4963Y-5654D02*
X4963Y-6087D01*
X5239Y-5654D02*
X5239Y-6087D01*
X5239Y-6087D02*
X4983Y-5871D01*
X4983Y-5871D02*
X5239Y-5654D01*
X12247Y-16036D02*
X12247Y-16705D01*
X12247Y-16705D02*
X12286Y-16705D01*
X12287Y-16705D02*
X12287Y-16036D01*
X13172Y-16607D02*
X13172Y-16705D01*
X13172Y-16705D02*
X12030Y-16705D01*
X12030Y-16705D02*
X12030Y-16626D01*
X12030Y-16036D02*
X13172Y-16036D01*
X13172Y-16036D02*
X13172Y-16134D01*
X12030Y-16134D02*
X12030Y-16036D01*
X12463Y-16154D02*
X12463Y-16587D01*
X12739Y-16154D02*
X12739Y-16587D01*
X12739Y-16587D02*
X12483Y-16370D01*
X12483Y-16370D02*
X12739Y-16154D01*
X12247Y-13036D02*
X12247Y-13705D01*
X12247Y-13705D02*
X12286Y-13705D01*
X12287Y-13705D02*
X12287Y-13036D01*
X13172Y-13607D02*
X13172Y-13705D01*
X13172Y-13705D02*
X12030Y-13705D01*
X12030Y-13705D02*
X12030Y-13626D01*
X12030Y-13036D02*
X13172Y-13036D01*
X13172Y-13036D02*
X13172Y-13134D01*
X12030Y-13134D02*
X12030Y-13036D01*
X12463Y-13154D02*
X12463Y-13587D01*
X12739Y-13154D02*
X12739Y-13587D01*
X12739Y-13587D02*
X12483Y-13371D01*
X12483Y-13371D02*
X12739Y-13154D01*
X4747Y-28036D02*
X4747Y-28705D01*
X4747Y-28705D02*
X4786Y-28705D01*
X4787Y-28705D02*
X4787Y-28036D01*
X5672Y-28607D02*
X5672Y-28705D01*
X5672Y-28705D02*
X4530Y-28705D01*
X4530Y-28705D02*
X4530Y-28626D01*
X4530Y-28036D02*
X5672Y-28036D01*
X5672Y-28036D02*
X5672Y-28134D01*
X4530Y-28134D02*
X4530Y-28036D01*
X4963Y-28154D02*
X4963Y-28587D01*
X5239Y-28154D02*
X5239Y-28587D01*
X5239Y-28587D02*
X4983Y-28370D01*
X4983Y-28370D02*
X5239Y-28154D01*
X4747Y-13036D02*
X4747Y-13705D01*
X4747Y-13705D02*
X4786Y-13705D01*
X4787Y-13705D02*
X4787Y-13036D01*
X5672Y-13607D02*
X5672Y-13705D01*
X5672Y-13705D02*
X4530Y-13705D01*
X4530Y-13705D02*
X4530Y-13626D01*
X4530Y-13036D02*
X5672Y-13036D01*
X5672Y-13036D02*
X5672Y-13134D01*
X4530Y-13134D02*
X4530Y-13036D01*
X4963Y-13154D02*
X4963Y-13587D01*
X5239Y-13154D02*
X5239Y-13587D01*
X5239Y-13587D02*
X4983Y-13371D01*
X4983Y-13371D02*
X5239Y-13154D01*
X12247Y-5536D02*
X12247Y-6205D01*
X12247Y-6205D02*
X12286Y-6205D01*
X12287Y-6205D02*
X12287Y-5536D01*
X13172Y-6107D02*
X13172Y-6205D01*
X13172Y-6205D02*
X12030Y-6205D01*
X12030Y-6205D02*
X12030Y-6126D01*
X12030Y-5536D02*
X13172Y-5536D01*
X13172Y-5536D02*
X13172Y-5634D01*
X12030Y-5634D02*
X12030Y-5536D01*
X12463Y-5654D02*
X12463Y-6087D01*
X12739Y-5654D02*
X12739Y-6087D01*
X12739Y-6087D02*
X12483Y-5871D01*
X12483Y-5871D02*
X12739Y-5654D01*
G54D22*
X22920Y-20786D02*
X22657Y-21180D01*
X22657Y-20786D02*
X22920Y-21180D01*
X22301Y-21180D02*
X22526Y-21180D01*
X22413Y-21180D02*
X22413Y-20786D01*
X22451Y-20842D01*
X22488Y-20880D01*
X22526Y-20899D01*
G54D19*
X15234Y-21086D02*
X15115Y-21206D01*
X15329Y-21134D02*
X14995Y-20967D01*
X15162Y-21301D01*
X14864Y-21098D02*
X14721Y-21242D01*
X15043Y-21420D02*
X14792Y-21170D01*
X14888Y-21576D02*
X14637Y-21325D01*
X14733Y-21588D01*
X14470Y-21492D01*
X14721Y-21743D01*
X14470Y-21731D02*
X14387Y-21814D01*
X14482Y-21981D02*
X14601Y-21862D01*
X14351Y-21611D01*
X14232Y-21731D01*
X14005Y-21981D02*
X14017Y-21945D01*
X14053Y-21910D01*
X14100Y-21886D01*
X14148Y-21886D01*
X14184Y-21898D01*
X14244Y-21934D01*
X14279Y-21969D01*
X14315Y-22029D01*
X14327Y-22065D01*
X14327Y-22112D01*
X14303Y-22160D01*
X14279Y-22184D01*
X14232Y-22208D01*
X14208Y-22208D01*
X14124Y-22124D01*
X14172Y-22077D01*
X14065Y-22256D02*
X13945Y-22375D01*
X14160Y-22303D02*
X13826Y-22136D01*
X13993Y-22470D01*
X13683Y-22280D02*
X13528Y-22435D01*
X13707Y-22447D01*
X13671Y-22482D01*
X13659Y-22518D01*
X13659Y-22542D01*
X13671Y-22578D01*
X13731Y-22637D01*
X13766Y-22649D01*
X13790Y-22649D01*
X13826Y-22637D01*
X13898Y-22566D01*
X13909Y-22530D01*
X13909Y-22506D01*
X13456Y-22554D02*
X13432Y-22554D01*
X13396Y-22566D01*
X13337Y-22626D01*
X13325Y-22661D01*
X13325Y-22685D01*
X13337Y-22721D01*
X13361Y-22745D01*
X13408Y-22769D01*
X13695Y-22769D01*
X13540Y-22924D01*
X13182Y-22781D02*
X13385Y-22983D01*
X13396Y-23019D01*
X13396Y-23043D01*
X13385Y-23079D01*
X13337Y-23127D01*
X13301Y-23139D01*
X13277Y-23139D01*
X13241Y-23127D01*
X13039Y-22924D01*
X12895Y-23234D02*
X13062Y-23401D01*
X12860Y-23079D02*
X13098Y-23198D01*
X12943Y-23353D01*
G54D22*
X8062Y-4122D02*
X8080Y-4140D01*
X8132Y-4158D01*
X8167Y-4158D01*
X8220Y-4140D01*
X8255Y-4105D01*
X8273Y-4070D01*
X8290Y-4000D01*
X8290Y-3947D01*
X8273Y-3877D01*
X8255Y-3842D01*
X8220Y-3807D01*
X8167Y-3789D01*
X8132Y-3789D01*
X8080Y-3807D01*
X8062Y-3824D01*
X7852Y-3947D02*
X7887Y-3930D01*
X7904Y-3912D01*
X7922Y-3877D01*
X7922Y-3860D01*
X7904Y-3824D01*
X7887Y-3807D01*
X7852Y-3789D01*
X7782Y-3789D01*
X7747Y-3807D01*
X7729Y-3824D01*
X7712Y-3860D01*
X7712Y-3877D01*
X7729Y-3912D01*
X7747Y-3930D01*
X7782Y-3947D01*
X7852Y-3947D01*
X7887Y-3965D01*
X7904Y-3982D01*
X7922Y-4017D01*
X7922Y-4087D01*
X7904Y-4122D01*
X7887Y-4140D01*
X7852Y-4158D01*
X7782Y-4158D01*
X7747Y-4140D01*
X7729Y-4122D01*
X7712Y-4087D01*
X7712Y-4017D01*
X7729Y-3982D01*
X7747Y-3965D01*
X7782Y-3947D01*
X24673Y-21205D02*
X24691Y-21186D01*
X24710Y-21130D01*
X24710Y-21092D01*
X24691Y-21036D01*
X24654Y-20999D01*
X24616Y-20980D01*
X24542Y-20961D01*
X24485Y-20961D01*
X24410Y-20980D01*
X24373Y-20999D01*
X24335Y-21036D01*
X24317Y-21092D01*
X24317Y-21130D01*
X24335Y-21186D01*
X24354Y-21205D01*
X24710Y-21580D02*
X24710Y-21355D01*
X24710Y-21467D02*
X24317Y-21467D01*
X24373Y-21430D01*
X24410Y-21392D01*
X24429Y-21355D01*
X24673Y-22955D02*
X24691Y-22936D01*
X24710Y-22880D01*
X24710Y-22842D01*
X24691Y-22786D01*
X24654Y-22749D01*
X24616Y-22730D01*
X24542Y-22711D01*
X24485Y-22711D01*
X24410Y-22730D01*
X24373Y-22749D01*
X24335Y-22786D01*
X24317Y-22842D01*
X24317Y-22880D01*
X24335Y-22936D01*
X24354Y-22955D01*
X24354Y-23105D02*
X24335Y-23124D01*
X24317Y-23161D01*
X24317Y-23255D01*
X24335Y-23292D01*
X24354Y-23311D01*
X24392Y-23330D01*
X24429Y-23330D01*
X24485Y-23311D01*
X24710Y-23086D01*
X24710Y-23330D01*
X9773Y-23455D02*
X9791Y-23436D01*
X9810Y-23380D01*
X9810Y-23342D01*
X9791Y-23286D01*
X9754Y-23249D01*
X9716Y-23230D01*
X9642Y-23211D01*
X9585Y-23211D01*
X9510Y-23230D01*
X9473Y-23249D01*
X9435Y-23286D01*
X9417Y-23342D01*
X9417Y-23380D01*
X9435Y-23436D01*
X9454Y-23455D01*
X9548Y-23792D02*
X9810Y-23792D01*
X9398Y-23699D02*
X9679Y-23605D01*
X9679Y-23849D01*
X11466Y-21317D02*
X11485Y-21336D01*
X11541Y-21355D01*
X11579Y-21355D01*
X11635Y-21336D01*
X11673Y-21299D01*
X11691Y-21261D01*
X11710Y-21186D01*
X11710Y-21130D01*
X11691Y-21055D01*
X11673Y-21017D01*
X11635Y-20980D01*
X11579Y-20961D01*
X11541Y-20961D01*
X11485Y-20980D01*
X11466Y-20999D01*
X11110Y-20961D02*
X11298Y-20961D01*
X11317Y-21149D01*
X11298Y-21130D01*
X11260Y-21111D01*
X11167Y-21111D01*
X11129Y-21130D01*
X11110Y-21149D01*
X11092Y-21186D01*
X11092Y-21280D01*
X11110Y-21317D01*
X11129Y-21336D01*
X11167Y-21355D01*
X11260Y-21355D01*
X11298Y-21336D01*
X11317Y-21317D01*
X21591Y-23592D02*
X21610Y-23611D01*
X21666Y-23630D01*
X21704Y-23630D01*
X21760Y-23611D01*
X21798Y-23574D01*
X21816Y-23536D01*
X21835Y-23461D01*
X21835Y-23405D01*
X21816Y-23330D01*
X21798Y-23292D01*
X21760Y-23255D01*
X21704Y-23236D01*
X21666Y-23236D01*
X21610Y-23255D01*
X21591Y-23274D01*
X21254Y-23236D02*
X21329Y-23236D01*
X21367Y-23255D01*
X21385Y-23274D01*
X21423Y-23330D01*
X21442Y-23405D01*
X21442Y-23555D01*
X21423Y-23592D01*
X21404Y-23611D01*
X21367Y-23630D01*
X21292Y-23630D01*
X21254Y-23611D01*
X21235Y-23592D01*
X21217Y-23555D01*
X21217Y-23461D01*
X21235Y-23424D01*
X21254Y-23405D01*
X21292Y-23386D01*
X21367Y-23386D01*
X21404Y-23405D01*
X21423Y-23424D01*
X21442Y-23461D01*
X21166Y-22592D02*
X21185Y-22611D01*
X21241Y-22630D01*
X21279Y-22630D01*
X21335Y-22611D01*
X21373Y-22574D01*
X21391Y-22536D01*
X21410Y-22461D01*
X21410Y-22405D01*
X21391Y-22330D01*
X21373Y-22292D01*
X21335Y-22255D01*
X21279Y-22236D01*
X21241Y-22236D01*
X21185Y-22255D01*
X21166Y-22274D01*
X21035Y-22236D02*
X20773Y-22236D01*
X20942Y-22630D01*
X7487Y-6108D02*
X7610Y-5932D01*
X7698Y-6108D02*
X7698Y-5739D01*
X7557Y-5739D01*
X7522Y-5757D01*
X7505Y-5774D01*
X7487Y-5810D01*
X7487Y-5862D01*
X7505Y-5897D01*
X7522Y-5915D01*
X7557Y-5932D01*
X7698Y-5932D01*
X7137Y-6108D02*
X7347Y-6108D01*
X7242Y-6108D02*
X7242Y-5739D01*
X7277Y-5792D01*
X7312Y-5827D01*
X7347Y-5845D01*
X8812Y-6220D02*
X8935Y-6044D01*
X9023Y-6220D02*
X9023Y-5851D01*
X8882Y-5851D01*
X8847Y-5869D01*
X8830Y-5887D01*
X8812Y-5922D01*
X8812Y-5974D01*
X8830Y-6009D01*
X8847Y-6027D01*
X8882Y-6044D01*
X9023Y-6044D01*
X8672Y-5887D02*
X8654Y-5869D01*
X8619Y-5851D01*
X8532Y-5851D01*
X8497Y-5869D01*
X8479Y-5887D01*
X8462Y-5922D01*
X8462Y-5957D01*
X8479Y-6009D01*
X8690Y-6220D01*
X8462Y-6220D01*
X7323Y-24255D02*
X7341Y-24236D01*
X7360Y-24180D01*
X7360Y-24142D01*
X7341Y-24086D01*
X7304Y-24049D01*
X7266Y-24030D01*
X7192Y-24011D01*
X7135Y-24011D01*
X7060Y-24030D01*
X7023Y-24049D01*
X6985Y-24086D01*
X6967Y-24142D01*
X6967Y-24180D01*
X6985Y-24236D01*
X7004Y-24255D01*
X6967Y-24386D02*
X6967Y-24630D01*
X7117Y-24499D01*
X7117Y-24555D01*
X7135Y-24592D01*
X7154Y-24611D01*
X7192Y-24630D01*
X7285Y-24630D01*
X7323Y-24611D01*
X7341Y-24592D01*
X7360Y-24555D01*
X7360Y-24442D01*
X7341Y-24405D01*
X7323Y-24386D01*
X21166Y-20255D02*
X21298Y-20067D01*
X21391Y-20255D02*
X21391Y-19861D01*
X21241Y-19861D01*
X21204Y-19880D01*
X21185Y-19899D01*
X21166Y-19936D01*
X21166Y-19992D01*
X21185Y-20030D01*
X21204Y-20049D01*
X21241Y-20067D01*
X21391Y-20067D01*
X21035Y-19861D02*
X20792Y-19861D01*
X20923Y-20011D01*
X20867Y-20011D01*
X20829Y-20030D01*
X20810Y-20049D01*
X20792Y-20086D01*
X20792Y-20180D01*
X20810Y-20217D01*
X20829Y-20236D01*
X20867Y-20255D01*
X20979Y-20255D01*
X21017Y-20236D01*
X21035Y-20217D01*
X7360Y-22655D02*
X7173Y-22524D01*
X7360Y-22430D02*
X6967Y-22430D01*
X6967Y-22580D01*
X6985Y-22617D01*
X7004Y-22636D01*
X7042Y-22655D01*
X7098Y-22655D01*
X7135Y-22636D01*
X7154Y-22617D01*
X7173Y-22580D01*
X7173Y-22430D01*
X6967Y-23011D02*
X6967Y-22824D01*
X7154Y-22805D01*
X7135Y-22824D01*
X7117Y-22861D01*
X7117Y-22955D01*
X7135Y-22992D01*
X7154Y-23011D01*
X7192Y-23030D01*
X7285Y-23030D01*
X7323Y-23011D01*
X7341Y-22992D01*
X7360Y-22955D01*
X7360Y-22861D01*
X7341Y-22824D01*
X7323Y-22805D01*
G54D13*
X1536Y-8222D02*
X1536Y-7972D01*
X1441Y-7972D01*
X1417Y-7984D01*
X1405Y-7996D01*
X1394Y-8019D01*
X1394Y-8055D01*
X1405Y-8079D01*
X1417Y-8091D01*
X1441Y-8103D01*
X1536Y-8103D01*
X1310Y-7972D02*
X1144Y-7972D01*
X1251Y-8222D01*
X3017Y-8222D02*
X3101Y-8103D01*
X3160Y-8222D02*
X3160Y-7972D01*
X3065Y-7972D01*
X3041Y-7984D01*
X3029Y-7996D01*
X3017Y-8019D01*
X3017Y-8055D01*
X3029Y-8079D01*
X3041Y-8091D01*
X3065Y-8103D01*
X3160Y-8103D01*
X2863Y-7972D02*
X2815Y-7972D01*
X2791Y-7984D01*
X2767Y-8007D01*
X2755Y-8055D01*
X2755Y-8138D01*
X2767Y-8186D01*
X2791Y-8210D01*
X2815Y-8222D01*
X2863Y-8222D01*
X2886Y-8210D01*
X2910Y-8186D01*
X2922Y-8138D01*
X2922Y-8055D01*
X2910Y-8007D01*
X2886Y-7984D01*
X2863Y-7972D01*
X2672Y-7972D02*
X2613Y-8222D01*
X2565Y-8043D01*
X2517Y-8222D01*
X2458Y-7972D01*
X2232Y-8222D02*
X2374Y-8222D01*
X2303Y-8222D02*
X2303Y-7972D01*
X2327Y-8007D01*
X2351Y-8031D01*
X2374Y-8043D01*
X1536Y-8722D02*
X1536Y-8472D01*
X1441Y-8472D01*
X1417Y-8484D01*
X1405Y-8496D01*
X1394Y-8519D01*
X1394Y-8555D01*
X1405Y-8579D01*
X1417Y-8591D01*
X1441Y-8603D01*
X1536Y-8603D01*
X1251Y-8579D02*
X1274Y-8567D01*
X1286Y-8555D01*
X1298Y-8531D01*
X1298Y-8519D01*
X1286Y-8496D01*
X1274Y-8484D01*
X1251Y-8472D01*
X1203Y-8472D01*
X1179Y-8484D01*
X1167Y-8496D01*
X1155Y-8519D01*
X1155Y-8531D01*
X1167Y-8555D01*
X1179Y-8567D01*
X1203Y-8579D01*
X1251Y-8579D01*
X1274Y-8591D01*
X1286Y-8603D01*
X1298Y-8627D01*
X1298Y-8674D01*
X1286Y-8698D01*
X1274Y-8710D01*
X1251Y-8722D01*
X1203Y-8722D01*
X1179Y-8710D01*
X1167Y-8698D01*
X1155Y-8674D01*
X1155Y-8627D01*
X1167Y-8603D01*
X1179Y-8591D01*
X1203Y-8579D01*
X3017Y-8722D02*
X3101Y-8603D01*
X3160Y-8722D02*
X3160Y-8472D01*
X3065Y-8472D01*
X3041Y-8484D01*
X3029Y-8496D01*
X3017Y-8519D01*
X3017Y-8555D01*
X3029Y-8579D01*
X3041Y-8591D01*
X3065Y-8603D01*
X3160Y-8603D01*
X2863Y-8472D02*
X2815Y-8472D01*
X2791Y-8484D01*
X2767Y-8507D01*
X2755Y-8555D01*
X2755Y-8638D01*
X2767Y-8686D01*
X2791Y-8710D01*
X2815Y-8722D01*
X2863Y-8722D01*
X2886Y-8710D01*
X2910Y-8686D01*
X2922Y-8638D01*
X2922Y-8555D01*
X2910Y-8507D01*
X2886Y-8484D01*
X2863Y-8472D01*
X2672Y-8472D02*
X2613Y-8722D01*
X2565Y-8543D01*
X2517Y-8722D01*
X2458Y-8472D01*
X2374Y-8496D02*
X2363Y-8484D01*
X2339Y-8472D01*
X2279Y-8472D01*
X2255Y-8484D01*
X2244Y-8496D01*
X2232Y-8519D01*
X2232Y-8543D01*
X2244Y-8579D01*
X2386Y-8722D01*
X2232Y-8722D01*
X1536Y-9222D02*
X1536Y-8972D01*
X1441Y-8972D01*
X1417Y-8984D01*
X1405Y-8996D01*
X1394Y-9019D01*
X1394Y-9055D01*
X1405Y-9079D01*
X1417Y-9091D01*
X1441Y-9103D01*
X1536Y-9103D01*
X1274Y-9222D02*
X1227Y-9222D01*
X1203Y-9210D01*
X1191Y-9198D01*
X1167Y-9162D01*
X1155Y-9115D01*
X1155Y-9019D01*
X1167Y-8996D01*
X1179Y-8984D01*
X1203Y-8972D01*
X1251Y-8972D01*
X1274Y-8984D01*
X1286Y-8996D01*
X1298Y-9019D01*
X1298Y-9079D01*
X1286Y-9103D01*
X1274Y-9115D01*
X1251Y-9127D01*
X1203Y-9127D01*
X1179Y-9115D01*
X1167Y-9103D01*
X1155Y-9079D01*
X3017Y-9222D02*
X3101Y-9103D01*
X3160Y-9222D02*
X3160Y-8972D01*
X3065Y-8972D01*
X3041Y-8984D01*
X3029Y-8996D01*
X3017Y-9019D01*
X3017Y-9055D01*
X3029Y-9079D01*
X3041Y-9091D01*
X3065Y-9103D01*
X3160Y-9103D01*
X2863Y-8972D02*
X2815Y-8972D01*
X2791Y-8984D01*
X2767Y-9007D01*
X2755Y-9055D01*
X2755Y-9138D01*
X2767Y-9186D01*
X2791Y-9210D01*
X2815Y-9222D01*
X2863Y-9222D01*
X2886Y-9210D01*
X2910Y-9186D01*
X2922Y-9138D01*
X2922Y-9055D01*
X2910Y-9007D01*
X2886Y-8984D01*
X2863Y-8972D01*
X2672Y-8972D02*
X2613Y-9222D01*
X2565Y-9043D01*
X2517Y-9222D01*
X2458Y-8972D01*
X2386Y-8972D02*
X2232Y-8972D01*
X2315Y-9067D01*
X2279Y-9067D01*
X2255Y-9079D01*
X2244Y-9091D01*
X2232Y-9115D01*
X2232Y-9174D01*
X2244Y-9198D01*
X2255Y-9210D01*
X2279Y-9222D01*
X2351Y-9222D01*
X2374Y-9210D01*
X2386Y-9198D01*
X1655Y-9722D02*
X1655Y-9472D01*
X1560Y-9472D01*
X1536Y-9484D01*
X1524Y-9496D01*
X1513Y-9519D01*
X1513Y-9555D01*
X1524Y-9579D01*
X1536Y-9591D01*
X1560Y-9603D01*
X1655Y-9603D01*
X1274Y-9722D02*
X1417Y-9722D01*
X1346Y-9722D02*
X1346Y-9472D01*
X1370Y-9507D01*
X1394Y-9531D01*
X1417Y-9543D01*
X1120Y-9472D02*
X1096Y-9472D01*
X1072Y-9484D01*
X1060Y-9496D01*
X1048Y-9519D01*
X1036Y-9567D01*
X1036Y-9627D01*
X1048Y-9674D01*
X1060Y-9698D01*
X1072Y-9710D01*
X1096Y-9722D01*
X1120Y-9722D01*
X1144Y-9710D01*
X1155Y-9698D01*
X1167Y-9674D01*
X1179Y-9627D01*
X1179Y-9567D01*
X1167Y-9519D01*
X1155Y-9496D01*
X1144Y-9484D01*
X1120Y-9472D01*
X3017Y-9722D02*
X3101Y-9603D01*
X3160Y-9722D02*
X3160Y-9472D01*
X3065Y-9472D01*
X3041Y-9484D01*
X3029Y-9496D01*
X3017Y-9519D01*
X3017Y-9555D01*
X3029Y-9579D01*
X3041Y-9591D01*
X3065Y-9603D01*
X3160Y-9603D01*
X2863Y-9472D02*
X2815Y-9472D01*
X2791Y-9484D01*
X2767Y-9507D01*
X2755Y-9555D01*
X2755Y-9638D01*
X2767Y-9686D01*
X2791Y-9710D01*
X2815Y-9722D01*
X2863Y-9722D01*
X2886Y-9710D01*
X2910Y-9686D01*
X2922Y-9638D01*
X2922Y-9555D01*
X2910Y-9507D01*
X2886Y-9484D01*
X2863Y-9472D01*
X2672Y-9472D02*
X2613Y-9722D01*
X2565Y-9543D01*
X2517Y-9722D01*
X2458Y-9472D01*
X2255Y-9555D02*
X2255Y-9722D01*
X2315Y-9460D02*
X2374Y-9638D01*
X2220Y-9638D01*
X1655Y-10222D02*
X1655Y-9972D01*
X1560Y-9972D01*
X1536Y-9984D01*
X1524Y-9996D01*
X1513Y-10019D01*
X1513Y-10055D01*
X1524Y-10079D01*
X1536Y-10091D01*
X1560Y-10103D01*
X1655Y-10103D01*
X1274Y-10222D02*
X1417Y-10222D01*
X1346Y-10222D02*
X1346Y-9972D01*
X1370Y-10007D01*
X1394Y-10031D01*
X1417Y-10043D01*
X1036Y-10222D02*
X1179Y-10222D01*
X1108Y-10222D02*
X1108Y-9972D01*
X1132Y-10007D01*
X1155Y-10031D01*
X1179Y-10043D01*
X3017Y-10222D02*
X3101Y-10103D01*
X3160Y-10222D02*
X3160Y-9972D01*
X3065Y-9972D01*
X3041Y-9984D01*
X3029Y-9996D01*
X3017Y-10019D01*
X3017Y-10055D01*
X3029Y-10079D01*
X3041Y-10091D01*
X3065Y-10103D01*
X3160Y-10103D01*
X2863Y-9972D02*
X2815Y-9972D01*
X2791Y-9984D01*
X2767Y-10007D01*
X2755Y-10055D01*
X2755Y-10138D01*
X2767Y-10186D01*
X2791Y-10210D01*
X2815Y-10222D01*
X2863Y-10222D01*
X2886Y-10210D01*
X2910Y-10186D01*
X2922Y-10138D01*
X2922Y-10055D01*
X2910Y-10007D01*
X2886Y-9984D01*
X2863Y-9972D01*
X2672Y-9972D02*
X2613Y-10222D01*
X2565Y-10043D01*
X2517Y-10222D01*
X2458Y-9972D01*
X2244Y-9972D02*
X2363Y-9972D01*
X2374Y-10091D01*
X2363Y-10079D01*
X2339Y-10067D01*
X2279Y-10067D01*
X2255Y-10079D01*
X2244Y-10091D01*
X2232Y-10115D01*
X2232Y-10174D01*
X2244Y-10198D01*
X2255Y-10210D01*
X2279Y-10222D01*
X2339Y-10222D01*
X2363Y-10210D01*
X2374Y-10198D01*
X1655Y-11722D02*
X1655Y-11472D01*
X1560Y-11472D01*
X1536Y-11484D01*
X1524Y-11496D01*
X1513Y-11519D01*
X1513Y-11555D01*
X1524Y-11579D01*
X1536Y-11591D01*
X1560Y-11603D01*
X1655Y-11603D01*
X1274Y-11722D02*
X1417Y-11722D01*
X1346Y-11722D02*
X1346Y-11472D01*
X1370Y-11507D01*
X1394Y-11531D01*
X1417Y-11543D01*
X1191Y-11472D02*
X1036Y-11472D01*
X1120Y-11567D01*
X1084Y-11567D01*
X1060Y-11579D01*
X1048Y-11591D01*
X1036Y-11615D01*
X1036Y-11674D01*
X1048Y-11698D01*
X1060Y-11710D01*
X1084Y-11722D01*
X1155Y-11722D01*
X1179Y-11710D01*
X1191Y-11698D01*
X6825Y-11698D02*
X6837Y-11710D01*
X6872Y-11722D01*
X6896Y-11722D01*
X6932Y-11710D01*
X6956Y-11686D01*
X6968Y-11662D01*
X6979Y-11615D01*
X6979Y-11579D01*
X6968Y-11531D01*
X6956Y-11507D01*
X6932Y-11484D01*
X6896Y-11472D01*
X6872Y-11472D01*
X6837Y-11484D01*
X6825Y-11496D01*
X6670Y-11472D02*
X6622Y-11472D01*
X6598Y-11484D01*
X6575Y-11507D01*
X6563Y-11555D01*
X6563Y-11638D01*
X6575Y-11686D01*
X6598Y-11710D01*
X6622Y-11722D01*
X6670Y-11722D01*
X6694Y-11710D01*
X6718Y-11686D01*
X6729Y-11638D01*
X6729Y-11555D01*
X6718Y-11507D01*
X6694Y-11484D01*
X6670Y-11472D01*
X6337Y-11722D02*
X6456Y-11722D01*
X6456Y-11472D01*
X6122Y-11722D02*
X6265Y-11722D01*
X6194Y-11722D02*
X6194Y-11472D01*
X6218Y-11507D01*
X6241Y-11531D01*
X6265Y-11543D01*
X1655Y-12222D02*
X1655Y-11972D01*
X1560Y-11972D01*
X1536Y-11984D01*
X1524Y-11996D01*
X1513Y-12019D01*
X1513Y-12055D01*
X1524Y-12079D01*
X1536Y-12091D01*
X1560Y-12103D01*
X1655Y-12103D01*
X1274Y-12222D02*
X1417Y-12222D01*
X1346Y-12222D02*
X1346Y-11972D01*
X1370Y-12007D01*
X1394Y-12031D01*
X1417Y-12043D01*
X1060Y-12055D02*
X1060Y-12222D01*
X1120Y-11960D02*
X1179Y-12138D01*
X1024Y-12138D01*
X2976Y-12198D02*
X2988Y-12210D01*
X3023Y-12222D01*
X3047Y-12222D01*
X3083Y-12210D01*
X3107Y-12186D01*
X3119Y-12162D01*
X3130Y-12115D01*
X3130Y-12079D01*
X3119Y-12031D01*
X3107Y-12007D01*
X3083Y-11984D01*
X3047Y-11972D01*
X3023Y-11972D01*
X2988Y-11984D01*
X2976Y-11996D01*
X2821Y-11972D02*
X2773Y-11972D01*
X2749Y-11984D01*
X2726Y-12007D01*
X2714Y-12055D01*
X2714Y-12138D01*
X2726Y-12186D01*
X2749Y-12210D01*
X2773Y-12222D01*
X2821Y-12222D01*
X2845Y-12210D01*
X2869Y-12186D01*
X2880Y-12138D01*
X2880Y-12055D01*
X2869Y-12007D01*
X2845Y-11984D01*
X2821Y-11972D01*
X2488Y-12222D02*
X2607Y-12222D01*
X2607Y-11972D01*
X2416Y-11996D02*
X2404Y-11984D01*
X2380Y-11972D01*
X2321Y-11972D01*
X2297Y-11984D01*
X2285Y-11996D01*
X2273Y-12019D01*
X2273Y-12043D01*
X2285Y-12079D01*
X2428Y-12222D01*
X2273Y-12222D01*
X1655Y-12722D02*
X1655Y-12472D01*
X1560Y-12472D01*
X1536Y-12484D01*
X1524Y-12496D01*
X1513Y-12519D01*
X1513Y-12555D01*
X1524Y-12579D01*
X1536Y-12591D01*
X1560Y-12603D01*
X1655Y-12603D01*
X1274Y-12722D02*
X1417Y-12722D01*
X1346Y-12722D02*
X1346Y-12472D01*
X1370Y-12507D01*
X1394Y-12531D01*
X1417Y-12543D01*
X1048Y-12472D02*
X1167Y-12472D01*
X1179Y-12591D01*
X1167Y-12579D01*
X1144Y-12567D01*
X1084Y-12567D01*
X1060Y-12579D01*
X1048Y-12591D01*
X1036Y-12615D01*
X1036Y-12674D01*
X1048Y-12698D01*
X1060Y-12710D01*
X1084Y-12722D01*
X1144Y-12722D01*
X1167Y-12710D01*
X1179Y-12698D01*
X4225Y-12698D02*
X4237Y-12710D01*
X4272Y-12722D01*
X4296Y-12722D01*
X4332Y-12710D01*
X4356Y-12686D01*
X4368Y-12662D01*
X4379Y-12615D01*
X4379Y-12579D01*
X4368Y-12531D01*
X4356Y-12507D01*
X4332Y-12484D01*
X4296Y-12472D01*
X4272Y-12472D01*
X4237Y-12484D01*
X4225Y-12496D01*
X4070Y-12472D02*
X4022Y-12472D01*
X3998Y-12484D01*
X3975Y-12507D01*
X3963Y-12555D01*
X3963Y-12638D01*
X3975Y-12686D01*
X3998Y-12710D01*
X4022Y-12722D01*
X4070Y-12722D01*
X4094Y-12710D01*
X4118Y-12686D01*
X4129Y-12638D01*
X4129Y-12555D01*
X4118Y-12507D01*
X4094Y-12484D01*
X4070Y-12472D01*
X3737Y-12722D02*
X3856Y-12722D01*
X3856Y-12472D01*
X3677Y-12472D02*
X3522Y-12472D01*
X3606Y-12567D01*
X3570Y-12567D01*
X3546Y-12579D01*
X3534Y-12591D01*
X3522Y-12615D01*
X3522Y-12674D01*
X3534Y-12698D01*
X3546Y-12710D01*
X3570Y-12722D01*
X3641Y-12722D01*
X3665Y-12710D01*
X3677Y-12698D01*
X1655Y-13222D02*
X1655Y-12972D01*
X1560Y-12972D01*
X1536Y-12984D01*
X1524Y-12996D01*
X1513Y-13019D01*
X1513Y-13055D01*
X1524Y-13079D01*
X1536Y-13091D01*
X1560Y-13103D01*
X1655Y-13103D01*
X1274Y-13222D02*
X1417Y-13222D01*
X1346Y-13222D02*
X1346Y-12972D01*
X1370Y-13007D01*
X1394Y-13031D01*
X1417Y-13043D01*
X1060Y-12972D02*
X1108Y-12972D01*
X1132Y-12984D01*
X1144Y-12996D01*
X1167Y-13031D01*
X1179Y-13079D01*
X1179Y-13174D01*
X1167Y-13198D01*
X1155Y-13210D01*
X1132Y-13222D01*
X1084Y-13222D01*
X1060Y-13210D01*
X1048Y-13198D01*
X1036Y-13174D01*
X1036Y-13115D01*
X1048Y-13091D01*
X1060Y-13079D01*
X1084Y-13067D01*
X1132Y-13067D01*
X1155Y-13079D01*
X1167Y-13091D01*
X1179Y-13115D01*
X4225Y-13198D02*
X4237Y-13210D01*
X4272Y-13222D01*
X4296Y-13222D01*
X4332Y-13210D01*
X4356Y-13186D01*
X4368Y-13162D01*
X4379Y-13115D01*
X4379Y-13079D01*
X4368Y-13031D01*
X4356Y-13007D01*
X4332Y-12984D01*
X4296Y-12972D01*
X4272Y-12972D01*
X4237Y-12984D01*
X4225Y-12996D01*
X4070Y-12972D02*
X4022Y-12972D01*
X3998Y-12984D01*
X3975Y-13007D01*
X3963Y-13055D01*
X3963Y-13138D01*
X3975Y-13186D01*
X3998Y-13210D01*
X4022Y-13222D01*
X4070Y-13222D01*
X4094Y-13210D01*
X4118Y-13186D01*
X4129Y-13138D01*
X4129Y-13055D01*
X4118Y-13007D01*
X4094Y-12984D01*
X4070Y-12972D01*
X3737Y-13222D02*
X3856Y-13222D01*
X3856Y-12972D01*
X3546Y-13055D02*
X3546Y-13222D01*
X3606Y-12960D02*
X3665Y-13138D01*
X3510Y-13138D01*
X1655Y-15222D02*
X1655Y-14972D01*
X1560Y-14972D01*
X1536Y-14983D01*
X1524Y-14995D01*
X1513Y-15019D01*
X1513Y-15055D01*
X1524Y-15079D01*
X1536Y-15091D01*
X1560Y-15103D01*
X1655Y-15103D01*
X1274Y-15222D02*
X1417Y-15222D01*
X1346Y-15222D02*
X1346Y-14972D01*
X1370Y-15007D01*
X1394Y-15031D01*
X1417Y-15043D01*
X1155Y-15222D02*
X1108Y-15222D01*
X1084Y-15210D01*
X1072Y-15198D01*
X1048Y-15162D01*
X1036Y-15114D01*
X1036Y-15019D01*
X1048Y-14995D01*
X1060Y-14983D01*
X1084Y-14972D01*
X1132Y-14972D01*
X1155Y-14983D01*
X1167Y-14995D01*
X1179Y-15019D01*
X1179Y-15079D01*
X1167Y-15103D01*
X1155Y-15114D01*
X1132Y-15126D01*
X1084Y-15126D01*
X1060Y-15114D01*
X1048Y-15103D01*
X1036Y-15079D01*
X2892Y-14983D02*
X2916Y-14972D01*
X2952Y-14972D01*
X2988Y-14983D01*
X3011Y-15007D01*
X3023Y-15031D01*
X3035Y-15079D01*
X3035Y-15114D01*
X3023Y-15162D01*
X3011Y-15186D01*
X2988Y-15210D01*
X2952Y-15222D01*
X2928Y-15222D01*
X2892Y-15210D01*
X2880Y-15198D01*
X2880Y-15114D01*
X2928Y-15114D01*
X2773Y-15222D02*
X2773Y-14972D01*
X2630Y-15222D01*
X2630Y-14972D01*
X2511Y-15222D02*
X2511Y-14972D01*
X2452Y-14972D01*
X2416Y-14983D01*
X2392Y-15007D01*
X2380Y-15031D01*
X2369Y-15079D01*
X2369Y-15114D01*
X2380Y-15162D01*
X2392Y-15186D01*
X2416Y-15210D01*
X2452Y-15222D01*
X2511Y-15222D01*
X1655Y-14722D02*
X1655Y-14472D01*
X1560Y-14472D01*
X1536Y-14483D01*
X1524Y-14495D01*
X1513Y-14519D01*
X1513Y-14555D01*
X1524Y-14579D01*
X1536Y-14591D01*
X1560Y-14603D01*
X1655Y-14603D01*
X1274Y-14722D02*
X1417Y-14722D01*
X1346Y-14722D02*
X1346Y-14472D01*
X1370Y-14507D01*
X1394Y-14531D01*
X1417Y-14543D01*
X1132Y-14579D02*
X1155Y-14567D01*
X1167Y-14555D01*
X1179Y-14531D01*
X1179Y-14519D01*
X1167Y-14495D01*
X1155Y-14483D01*
X1132Y-14472D01*
X1084Y-14472D01*
X1060Y-14483D01*
X1048Y-14495D01*
X1036Y-14519D01*
X1036Y-14531D01*
X1048Y-14555D01*
X1060Y-14567D01*
X1084Y-14579D01*
X1132Y-14579D01*
X1155Y-14591D01*
X1167Y-14603D01*
X1179Y-14626D01*
X1179Y-14674D01*
X1167Y-14698D01*
X1155Y-14710D01*
X1132Y-14722D01*
X1084Y-14722D01*
X1060Y-14710D01*
X1048Y-14698D01*
X1036Y-14674D01*
X1036Y-14626D01*
X1048Y-14603D01*
X1060Y-14591D01*
X1084Y-14579D01*
X2999Y-14472D02*
X2916Y-14722D01*
X2833Y-14472D01*
X2642Y-14710D02*
X2666Y-14722D01*
X2714Y-14722D01*
X2738Y-14710D01*
X2749Y-14698D01*
X2761Y-14674D01*
X2761Y-14603D01*
X2749Y-14579D01*
X2738Y-14567D01*
X2714Y-14555D01*
X2666Y-14555D01*
X2642Y-14567D01*
X2428Y-14710D02*
X2452Y-14722D01*
X2499Y-14722D01*
X2523Y-14710D01*
X2535Y-14698D01*
X2547Y-14674D01*
X2547Y-14603D01*
X2535Y-14579D01*
X2523Y-14567D01*
X2499Y-14555D01*
X2452Y-14555D01*
X2428Y-14567D01*
X1655Y-14222D02*
X1655Y-13972D01*
X1560Y-13972D01*
X1536Y-13983D01*
X1524Y-13995D01*
X1513Y-14019D01*
X1513Y-14055D01*
X1524Y-14079D01*
X1536Y-14091D01*
X1560Y-14103D01*
X1655Y-14103D01*
X1274Y-14222D02*
X1417Y-14222D01*
X1346Y-14222D02*
X1346Y-13972D01*
X1370Y-14007D01*
X1394Y-14031D01*
X1417Y-14043D01*
X1191Y-13972D02*
X1024Y-13972D01*
X1132Y-14222D01*
G54D22*
X8525Y-25797D02*
X8350Y-25675D01*
X8525Y-25587D02*
X8157Y-25587D01*
X8157Y-25727D01*
X8174Y-25762D01*
X8192Y-25780D01*
X8227Y-25797D01*
X8279Y-25797D01*
X8315Y-25780D01*
X8332Y-25762D01*
X8350Y-25727D01*
X8350Y-25587D01*
X8157Y-25920D02*
X8157Y-26165D01*
X8525Y-26008D01*
X8525Y-26797D02*
X8350Y-26675D01*
X8525Y-26587D02*
X8157Y-26587D01*
X8157Y-26727D01*
X8174Y-26762D01*
X8192Y-26780D01*
X8227Y-26797D01*
X8279Y-26797D01*
X8315Y-26780D01*
X8332Y-26762D01*
X8350Y-26727D01*
X8350Y-26587D01*
X8157Y-27113D02*
X8157Y-27043D01*
X8174Y-27008D01*
X8192Y-26990D01*
X8244Y-26955D01*
X8315Y-26937D01*
X8455Y-26937D01*
X8490Y-26955D01*
X8507Y-26972D01*
X8525Y-27008D01*
X8525Y-27078D01*
X8507Y-27113D01*
X8490Y-27130D01*
X8455Y-27148D01*
X8367Y-27148D01*
X8332Y-27130D01*
X8315Y-27113D01*
X8297Y-27078D01*
X8297Y-27008D01*
X8315Y-26972D01*
X8332Y-26955D01*
X8367Y-26937D01*
G54D14*
X1961Y-21708D02*
X1568Y-21708D01*
X1849Y-21839D01*
X1568Y-21971D01*
X1961Y-21971D01*
X1924Y-22383D02*
X1942Y-22364D01*
X1961Y-22308D01*
X1961Y-22271D01*
X1942Y-22214D01*
X1905Y-22177D01*
X1867Y-22158D01*
X1793Y-22139D01*
X1736Y-22139D01*
X1661Y-22158D01*
X1624Y-22177D01*
X1586Y-22214D01*
X1568Y-22271D01*
X1568Y-22308D01*
X1586Y-22364D01*
X1605Y-22383D01*
X1961Y-22552D02*
X1568Y-22552D01*
X1568Y-22702D01*
X1586Y-22739D01*
X1605Y-22758D01*
X1643Y-22777D01*
X1699Y-22777D01*
X1736Y-22758D01*
X1755Y-22739D01*
X1774Y-22702D01*
X1774Y-22552D01*
X1605Y-22927D02*
X1586Y-22946D01*
X1568Y-22983D01*
X1568Y-23077D01*
X1586Y-23114D01*
X1605Y-23133D01*
X1643Y-23152D01*
X1680Y-23152D01*
X1736Y-23133D01*
X1961Y-22908D01*
X1961Y-23152D01*
X1568Y-23283D02*
X1568Y-23527D01*
X1718Y-23396D01*
X1718Y-23452D01*
X1736Y-23489D01*
X1755Y-23508D01*
X1793Y-23527D01*
X1886Y-23527D01*
X1924Y-23508D01*
X1942Y-23489D01*
X1961Y-23452D01*
X1961Y-23339D01*
X1942Y-23302D01*
X1924Y-23283D01*
X1568Y-23770D02*
X1568Y-23808D01*
X1586Y-23845D01*
X1605Y-23864D01*
X1643Y-23883D01*
X1718Y-23902D01*
X1811Y-23902D01*
X1886Y-23883D01*
X1924Y-23864D01*
X1942Y-23845D01*
X1961Y-23808D01*
X1961Y-23770D01*
X1942Y-23733D01*
X1924Y-23714D01*
X1886Y-23695D01*
X1811Y-23677D01*
X1718Y-23677D01*
X1643Y-23695D01*
X1605Y-23714D01*
X1586Y-23733D01*
X1568Y-23770D01*
X1961Y-24277D02*
X1961Y-24052D01*
X1961Y-24164D02*
X1568Y-24164D01*
X1624Y-24127D01*
X1661Y-24089D01*
X1680Y-24052D01*
X1736Y-24502D02*
X1718Y-24464D01*
X1699Y-24445D01*
X1661Y-24427D01*
X1643Y-24427D01*
X1605Y-24445D01*
X1586Y-24464D01*
X1568Y-24502D01*
X1568Y-24577D01*
X1586Y-24614D01*
X1605Y-24633D01*
X1643Y-24652D01*
X1661Y-24652D01*
X1699Y-24633D01*
X1718Y-24614D01*
X1736Y-24577D01*
X1736Y-24502D01*
X1755Y-24464D01*
X1774Y-24445D01*
X1811Y-24427D01*
X1886Y-24427D01*
X1924Y-24445D01*
X1942Y-24464D01*
X1961Y-24502D01*
X1961Y-24577D01*
X1942Y-24614D01*
X1924Y-24633D01*
X1886Y-24652D01*
X1811Y-24652D01*
X1774Y-24633D01*
X1755Y-24614D01*
X1736Y-24577D01*
G54D13*
X1655Y-15722D02*
X1655Y-15472D01*
X1560Y-15472D01*
X1536Y-15483D01*
X1524Y-15495D01*
X1513Y-15519D01*
X1513Y-15555D01*
X1524Y-15579D01*
X1536Y-15591D01*
X1560Y-15603D01*
X1655Y-15603D01*
X1417Y-15495D02*
X1405Y-15483D01*
X1382Y-15472D01*
X1322Y-15472D01*
X1298Y-15483D01*
X1286Y-15495D01*
X1274Y-15519D01*
X1274Y-15543D01*
X1286Y-15579D01*
X1429Y-15722D01*
X1274Y-15722D01*
X1120Y-15472D02*
X1096Y-15472D01*
X1072Y-15483D01*
X1060Y-15495D01*
X1048Y-15519D01*
X1036Y-15567D01*
X1036Y-15626D01*
X1048Y-15674D01*
X1060Y-15698D01*
X1072Y-15710D01*
X1096Y-15722D01*
X1120Y-15722D01*
X1144Y-15710D01*
X1155Y-15698D01*
X1167Y-15674D01*
X1179Y-15626D01*
X1179Y-15567D01*
X1167Y-15519D01*
X1155Y-15495D01*
X1144Y-15483D01*
X1120Y-15472D01*
X3142Y-15710D02*
X3107Y-15722D01*
X3047Y-15722D01*
X3023Y-15710D01*
X3011Y-15698D01*
X2999Y-15674D01*
X2999Y-15650D01*
X3011Y-15626D01*
X3023Y-15614D01*
X3047Y-15603D01*
X3095Y-15591D01*
X3119Y-15579D01*
X3130Y-15567D01*
X3142Y-15543D01*
X3142Y-15519D01*
X3130Y-15495D01*
X3119Y-15483D01*
X3095Y-15472D01*
X3035Y-15472D01*
X2999Y-15483D01*
X2749Y-15698D02*
X2761Y-15710D01*
X2797Y-15722D01*
X2821Y-15722D01*
X2857Y-15710D01*
X2880Y-15686D01*
X2892Y-15662D01*
X2904Y-15614D01*
X2904Y-15579D01*
X2892Y-15531D01*
X2880Y-15507D01*
X2857Y-15483D01*
X2821Y-15472D01*
X2797Y-15472D01*
X2761Y-15483D01*
X2749Y-15495D01*
X2523Y-15722D02*
X2642Y-15722D01*
X2642Y-15472D01*
X2440Y-15722D02*
X2440Y-15472D01*
X2357Y-15650D01*
X2273Y-15472D01*
X2273Y-15722D01*
X1655Y-16222D02*
X1655Y-15972D01*
X1560Y-15972D01*
X1536Y-15983D01*
X1524Y-15995D01*
X1513Y-16019D01*
X1513Y-16055D01*
X1524Y-16079D01*
X1536Y-16091D01*
X1560Y-16103D01*
X1655Y-16103D01*
X1417Y-15995D02*
X1405Y-15983D01*
X1382Y-15972D01*
X1322Y-15972D01*
X1298Y-15983D01*
X1286Y-15995D01*
X1274Y-16019D01*
X1274Y-16043D01*
X1286Y-16079D01*
X1429Y-16222D01*
X1274Y-16222D01*
X1036Y-16222D02*
X1179Y-16222D01*
X1108Y-16222D02*
X1108Y-15972D01*
X1132Y-16007D01*
X1155Y-16031D01*
X1179Y-16043D01*
X3148Y-16210D02*
X3113Y-16222D01*
X3053Y-16222D01*
X3029Y-16210D01*
X3017Y-16198D01*
X3005Y-16174D01*
X3005Y-16150D01*
X3017Y-16126D01*
X3029Y-16114D01*
X3053Y-16103D01*
X3101Y-16091D01*
X3124Y-16079D01*
X3136Y-16067D01*
X3148Y-16043D01*
X3148Y-16019D01*
X3136Y-15995D01*
X3124Y-15983D01*
X3101Y-15972D01*
X3041Y-15972D01*
X3005Y-15983D01*
X2898Y-16222D02*
X2898Y-15972D01*
X2839Y-15972D01*
X2803Y-15983D01*
X2779Y-16007D01*
X2767Y-16031D01*
X2755Y-16079D01*
X2755Y-16114D01*
X2767Y-16162D01*
X2779Y-16186D01*
X2803Y-16210D01*
X2839Y-16222D01*
X2898Y-16222D01*
X2660Y-16150D02*
X2541Y-16150D01*
X2684Y-16222D02*
X2601Y-15972D01*
X2517Y-16222D01*
X2434Y-16222D02*
X2434Y-15972D01*
X2351Y-16150D01*
X2267Y-15972D01*
X2267Y-16222D01*
G54D12*
X27997Y-17085D02*
X27761Y-17085D01*
X27761Y-17141D01*
X27773Y-17175D01*
X27795Y-17197D01*
X27817Y-17208D01*
X27862Y-17220D01*
X27896Y-17220D01*
X27941Y-17208D01*
X27964Y-17197D01*
X27986Y-17175D01*
X27997Y-17141D01*
X27997Y-17085D01*
X27997Y-17445D02*
X27997Y-17310D01*
X27997Y-17377D02*
X27761Y-17377D01*
X27795Y-17355D01*
X27817Y-17332D01*
X27829Y-17310D01*
X27862Y-17580D02*
X27851Y-17557D01*
X27840Y-17546D01*
X27817Y-17535D01*
X27806Y-17535D01*
X27784Y-17546D01*
X27773Y-17557D01*
X27761Y-17580D01*
X27761Y-17625D01*
X27773Y-17647D01*
X27784Y-17658D01*
X27806Y-17670D01*
X27817Y-17670D01*
X27840Y-17658D01*
X27851Y-17647D01*
X27862Y-17625D01*
X27862Y-17580D01*
X27874Y-17557D01*
X27885Y-17546D01*
X27907Y-17535D01*
X27952Y-17535D01*
X27975Y-17546D01*
X27986Y-17557D01*
X27997Y-17580D01*
X27997Y-17625D01*
X27986Y-17647D01*
X27975Y-17658D01*
X27952Y-17670D01*
X27907Y-17670D01*
X27885Y-17658D01*
X27874Y-17647D01*
X27862Y-17625D01*
X27997Y-9585D02*
X27761Y-9585D01*
X27761Y-9641D01*
X27773Y-9675D01*
X27795Y-9697D01*
X27817Y-9708D01*
X27862Y-9720D01*
X27896Y-9720D01*
X27941Y-9708D01*
X27964Y-9697D01*
X27986Y-9675D01*
X27997Y-9641D01*
X27997Y-9585D01*
X27997Y-9945D02*
X27997Y-9810D01*
X27997Y-9877D02*
X27761Y-9877D01*
X27795Y-9855D01*
X27817Y-9832D01*
X27829Y-9810D01*
X27761Y-10023D02*
X27761Y-10181D01*
X27997Y-10080D01*
X27888Y-6517D02*
X27888Y-6281D01*
X27832Y-6281D01*
X27798Y-6292D01*
X27775Y-6315D01*
X27764Y-6337D01*
X27753Y-6382D01*
X27753Y-6416D01*
X27764Y-6461D01*
X27775Y-6484D01*
X27798Y-6506D01*
X27832Y-6517D01*
X27888Y-6517D01*
X27528Y-6517D02*
X27663Y-6517D01*
X27595Y-6517D02*
X27595Y-6281D01*
X27618Y-6315D01*
X27640Y-6337D01*
X27663Y-6349D01*
X27325Y-6281D02*
X27370Y-6281D01*
X27393Y-6292D01*
X27404Y-6304D01*
X27427Y-6337D01*
X27438Y-6382D01*
X27438Y-6472D01*
X27427Y-6495D01*
X27415Y-6506D01*
X27393Y-6517D01*
X27348Y-6517D01*
X27325Y-6506D01*
X27314Y-6495D01*
X27303Y-6472D01*
X27303Y-6416D01*
X27314Y-6394D01*
X27325Y-6382D01*
X27348Y-6371D01*
X27393Y-6371D01*
X27415Y-6382D01*
X27427Y-6394D01*
X27438Y-6416D01*
X20388Y-29017D02*
X20388Y-28781D01*
X20332Y-28781D01*
X20298Y-28792D01*
X20275Y-28815D01*
X20264Y-28837D01*
X20253Y-28882D01*
X20253Y-28916D01*
X20264Y-28961D01*
X20275Y-28983D01*
X20298Y-29006D01*
X20332Y-29017D01*
X20388Y-29017D01*
X20028Y-29017D02*
X20163Y-29017D01*
X20095Y-29017D02*
X20095Y-28781D01*
X20118Y-28815D01*
X20140Y-28837D01*
X20163Y-28848D01*
X19825Y-28860D02*
X19825Y-29017D01*
X19882Y-28770D02*
X19938Y-28938D01*
X19792Y-28938D01*
X20388Y-17017D02*
X20388Y-16781D01*
X20332Y-16781D01*
X20298Y-16792D01*
X20275Y-16815D01*
X20264Y-16837D01*
X20253Y-16882D01*
X20253Y-16916D01*
X20264Y-16961D01*
X20275Y-16983D01*
X20298Y-17006D01*
X20332Y-17017D01*
X20388Y-17017D01*
X20028Y-17017D02*
X20163Y-17017D01*
X20095Y-17017D02*
X20095Y-16781D01*
X20118Y-16815D01*
X20140Y-16837D01*
X20163Y-16848D01*
X19949Y-16781D02*
X19803Y-16781D01*
X19882Y-16871D01*
X19848Y-16871D01*
X19825Y-16882D01*
X19814Y-16893D01*
X19803Y-16916D01*
X19803Y-16972D01*
X19814Y-16995D01*
X19825Y-17006D01*
X19848Y-17017D01*
X19915Y-17017D01*
X19938Y-17006D01*
X19949Y-16995D01*
X20388Y-14017D02*
X20388Y-13781D01*
X20332Y-13781D01*
X20298Y-13792D01*
X20275Y-13815D01*
X20264Y-13837D01*
X20253Y-13882D01*
X20253Y-13916D01*
X20264Y-13961D01*
X20275Y-13984D01*
X20298Y-14006D01*
X20332Y-14017D01*
X20388Y-14017D01*
X20028Y-14017D02*
X20163Y-14017D01*
X20095Y-14017D02*
X20095Y-13781D01*
X20118Y-13815D01*
X20140Y-13837D01*
X20163Y-13849D01*
X19938Y-13804D02*
X19927Y-13792D01*
X19904Y-13781D01*
X19848Y-13781D01*
X19825Y-13792D01*
X19814Y-13804D01*
X19803Y-13826D01*
X19803Y-13849D01*
X19814Y-13882D01*
X19949Y-14017D01*
X19803Y-14017D01*
X20388Y-6517D02*
X20388Y-6281D01*
X20332Y-6281D01*
X20298Y-6292D01*
X20275Y-6315D01*
X20264Y-6337D01*
X20253Y-6382D01*
X20253Y-6416D01*
X20264Y-6461D01*
X20275Y-6484D01*
X20298Y-6506D01*
X20332Y-6517D01*
X20388Y-6517D01*
X20028Y-6517D02*
X20163Y-6517D01*
X20095Y-6517D02*
X20095Y-6281D01*
X20118Y-6315D01*
X20140Y-6337D01*
X20163Y-6349D01*
X19803Y-6517D02*
X19938Y-6517D01*
X19870Y-6517D02*
X19870Y-6281D01*
X19893Y-6315D01*
X19915Y-6337D01*
X19938Y-6349D01*
X12775Y-29017D02*
X12775Y-28781D01*
X12719Y-28781D01*
X12685Y-28792D01*
X12663Y-28815D01*
X12651Y-28837D01*
X12640Y-28882D01*
X12640Y-28916D01*
X12651Y-28961D01*
X12663Y-28983D01*
X12685Y-29006D01*
X12719Y-29017D01*
X12775Y-29017D01*
X12528Y-29017D02*
X12483Y-29017D01*
X12460Y-29006D01*
X12449Y-28995D01*
X12427Y-28961D01*
X12415Y-28916D01*
X12415Y-28826D01*
X12427Y-28803D01*
X12438Y-28792D01*
X12460Y-28781D01*
X12505Y-28781D01*
X12528Y-28792D01*
X12539Y-28803D01*
X12550Y-28826D01*
X12550Y-28882D01*
X12539Y-28905D01*
X12528Y-28916D01*
X12505Y-28927D01*
X12460Y-28927D01*
X12438Y-28916D01*
X12427Y-28905D01*
X12415Y-28882D01*
X27997Y-32085D02*
X27761Y-32085D01*
X27761Y-32141D01*
X27773Y-32175D01*
X27795Y-32197D01*
X27817Y-32208D01*
X27862Y-32220D01*
X27896Y-32220D01*
X27941Y-32208D01*
X27964Y-32197D01*
X27986Y-32175D01*
X27997Y-32141D01*
X27997Y-32085D01*
X27784Y-32310D02*
X27773Y-32321D01*
X27761Y-32343D01*
X27761Y-32400D01*
X27773Y-32422D01*
X27784Y-32433D01*
X27806Y-32445D01*
X27829Y-32445D01*
X27862Y-32433D01*
X27997Y-32298D01*
X27997Y-32445D01*
X27761Y-32591D02*
X27761Y-32613D01*
X27773Y-32636D01*
X27784Y-32647D01*
X27806Y-32658D01*
X27851Y-32670D01*
X27907Y-32670D01*
X27952Y-32658D01*
X27975Y-32647D01*
X27986Y-32636D01*
X27997Y-32613D01*
X27997Y-32591D01*
X27986Y-32568D01*
X27975Y-32557D01*
X27952Y-32546D01*
X27907Y-32535D01*
X27851Y-32535D01*
X27806Y-32546D01*
X27784Y-32557D01*
X27773Y-32568D01*
X27761Y-32591D01*
X27997Y-24585D02*
X27761Y-24585D01*
X27761Y-24641D01*
X27773Y-24675D01*
X27795Y-24697D01*
X27817Y-24708D01*
X27862Y-24720D01*
X27896Y-24720D01*
X27941Y-24708D01*
X27964Y-24697D01*
X27986Y-24675D01*
X27997Y-24641D01*
X27997Y-24585D01*
X27997Y-24945D02*
X27997Y-24810D01*
X27997Y-24877D02*
X27761Y-24877D01*
X27795Y-24855D01*
X27817Y-24832D01*
X27829Y-24810D01*
X27997Y-25057D02*
X27997Y-25102D01*
X27986Y-25125D01*
X27975Y-25136D01*
X27941Y-25158D01*
X27896Y-25170D01*
X27806Y-25170D01*
X27784Y-25158D01*
X27773Y-25147D01*
X27761Y-25125D01*
X27761Y-25080D01*
X27773Y-25057D01*
X27784Y-25046D01*
X27806Y-25035D01*
X27862Y-25035D01*
X27885Y-25046D01*
X27896Y-25057D01*
X27907Y-25080D01*
X27907Y-25125D01*
X27896Y-25147D01*
X27885Y-25158D01*
X27862Y-25170D01*
X20388Y-36517D02*
X20388Y-36281D01*
X20332Y-36281D01*
X20298Y-36292D01*
X20275Y-36315D01*
X20264Y-36337D01*
X20253Y-36382D01*
X20253Y-36416D01*
X20264Y-36461D01*
X20275Y-36483D01*
X20298Y-36506D01*
X20332Y-36517D01*
X20388Y-36517D01*
X20028Y-36517D02*
X20163Y-36517D01*
X20095Y-36517D02*
X20095Y-36281D01*
X20118Y-36315D01*
X20140Y-36337D01*
X20163Y-36348D01*
X19814Y-36281D02*
X19927Y-36281D01*
X19938Y-36393D01*
X19927Y-36382D01*
X19904Y-36371D01*
X19848Y-36371D01*
X19825Y-36382D01*
X19814Y-36393D01*
X19803Y-36416D01*
X19803Y-36472D01*
X19814Y-36495D01*
X19825Y-36506D01*
X19848Y-36517D01*
X19904Y-36517D01*
X19927Y-36506D01*
X19938Y-36495D01*
X14388Y-36517D02*
X14388Y-36281D01*
X14331Y-36281D01*
X14298Y-36292D01*
X14275Y-36315D01*
X14264Y-36337D01*
X14253Y-36382D01*
X14253Y-36416D01*
X14264Y-36461D01*
X14275Y-36483D01*
X14298Y-36506D01*
X14331Y-36517D01*
X14388Y-36517D01*
X14028Y-36517D02*
X14163Y-36517D01*
X14095Y-36517D02*
X14095Y-36281D01*
X14118Y-36315D01*
X14140Y-36337D01*
X14163Y-36348D01*
X13882Y-36281D02*
X13859Y-36281D01*
X13837Y-36292D01*
X13825Y-36303D01*
X13814Y-36326D01*
X13803Y-36371D01*
X13803Y-36427D01*
X13814Y-36472D01*
X13825Y-36495D01*
X13837Y-36506D01*
X13859Y-36517D01*
X13882Y-36517D01*
X13904Y-36506D01*
X13915Y-36495D01*
X13927Y-36472D01*
X13938Y-36427D01*
X13938Y-36371D01*
X13927Y-36326D01*
X13915Y-36303D01*
X13904Y-36292D01*
X13882Y-36281D01*
X4775Y-35413D02*
X4775Y-35177D01*
X4719Y-35177D01*
X4685Y-35188D01*
X4663Y-35211D01*
X4651Y-35233D01*
X4640Y-35278D01*
X4640Y-35312D01*
X4651Y-35357D01*
X4663Y-35379D01*
X4685Y-35402D01*
X4719Y-35413D01*
X4775Y-35413D01*
X4427Y-35177D02*
X4539Y-35177D01*
X4550Y-35289D01*
X4539Y-35278D01*
X4517Y-35267D01*
X4460Y-35267D01*
X4438Y-35278D01*
X4427Y-35289D01*
X4415Y-35312D01*
X4415Y-35368D01*
X4427Y-35390D01*
X4438Y-35402D01*
X4460Y-35413D01*
X4517Y-35413D01*
X4539Y-35402D01*
X4550Y-35390D01*
X5275Y-21517D02*
X5275Y-21281D01*
X5219Y-21281D01*
X5185Y-21292D01*
X5163Y-21315D01*
X5151Y-21337D01*
X5140Y-21382D01*
X5140Y-21416D01*
X5151Y-21461D01*
X5163Y-21483D01*
X5185Y-21506D01*
X5219Y-21517D01*
X5275Y-21517D01*
X5062Y-21281D02*
X4915Y-21281D01*
X4994Y-21371D01*
X4960Y-21371D01*
X4938Y-21382D01*
X4927Y-21393D01*
X4915Y-21416D01*
X4915Y-21472D01*
X4927Y-21495D01*
X4938Y-21506D01*
X4960Y-21517D01*
X5028Y-21517D01*
X5050Y-21506D01*
X5062Y-21495D01*
X5275Y-6517D02*
X5275Y-6281D01*
X5219Y-6281D01*
X5185Y-6292D01*
X5163Y-6315D01*
X5151Y-6337D01*
X5140Y-6382D01*
X5140Y-6416D01*
X5151Y-6461D01*
X5163Y-6484D01*
X5185Y-6506D01*
X5219Y-6517D01*
X5275Y-6517D01*
X4915Y-6517D02*
X5050Y-6517D01*
X4983Y-6517D02*
X4983Y-6281D01*
X5005Y-6315D01*
X5028Y-6337D01*
X5050Y-6349D01*
X12775Y-17017D02*
X12775Y-16781D01*
X12719Y-16781D01*
X12685Y-16792D01*
X12663Y-16815D01*
X12651Y-16837D01*
X12640Y-16882D01*
X12640Y-16916D01*
X12651Y-16961D01*
X12663Y-16983D01*
X12685Y-17006D01*
X12719Y-17017D01*
X12775Y-17017D01*
X12505Y-16882D02*
X12528Y-16871D01*
X12539Y-16860D01*
X12550Y-16837D01*
X12550Y-16826D01*
X12539Y-16803D01*
X12528Y-16792D01*
X12505Y-16781D01*
X12460Y-16781D01*
X12438Y-16792D01*
X12427Y-16803D01*
X12415Y-16826D01*
X12415Y-16837D01*
X12427Y-16860D01*
X12438Y-16871D01*
X12460Y-16882D01*
X12505Y-16882D01*
X12528Y-16893D01*
X12539Y-16905D01*
X12550Y-16927D01*
X12550Y-16972D01*
X12539Y-16995D01*
X12528Y-17006D01*
X12505Y-17017D01*
X12460Y-17017D01*
X12438Y-17006D01*
X12427Y-16995D01*
X12415Y-16972D01*
X12415Y-16927D01*
X12427Y-16905D01*
X12438Y-16893D01*
X12460Y-16882D01*
X12775Y-14017D02*
X12775Y-13781D01*
X12719Y-13781D01*
X12685Y-13792D01*
X12663Y-13815D01*
X12651Y-13837D01*
X12640Y-13882D01*
X12640Y-13916D01*
X12651Y-13961D01*
X12663Y-13984D01*
X12685Y-14006D01*
X12719Y-14017D01*
X12775Y-14017D01*
X12562Y-13781D02*
X12404Y-13781D01*
X12505Y-14017D01*
X5275Y-29017D02*
X5275Y-28781D01*
X5219Y-28781D01*
X5185Y-28792D01*
X5163Y-28815D01*
X5151Y-28837D01*
X5140Y-28882D01*
X5140Y-28916D01*
X5151Y-28961D01*
X5163Y-28983D01*
X5185Y-29006D01*
X5219Y-29017D01*
X5275Y-29017D01*
X4938Y-28860D02*
X4938Y-29017D01*
X4994Y-28770D02*
X5050Y-28938D01*
X4904Y-28938D01*
X5275Y-14017D02*
X5275Y-13781D01*
X5219Y-13781D01*
X5185Y-13792D01*
X5163Y-13815D01*
X5151Y-13837D01*
X5140Y-13882D01*
X5140Y-13916D01*
X5151Y-13961D01*
X5163Y-13984D01*
X5185Y-14006D01*
X5219Y-14017D01*
X5275Y-14017D01*
X5050Y-13804D02*
X5039Y-13792D01*
X5017Y-13781D01*
X4960Y-13781D01*
X4938Y-13792D01*
X4927Y-13804D01*
X4915Y-13826D01*
X4915Y-13849D01*
X4927Y-13882D01*
X5062Y-14017D01*
X4915Y-14017D01*
X12775Y-6517D02*
X12775Y-6281D01*
X12719Y-6281D01*
X12685Y-6292D01*
X12663Y-6315D01*
X12651Y-6337D01*
X12640Y-6382D01*
X12640Y-6416D01*
X12651Y-6461D01*
X12663Y-6484D01*
X12685Y-6506D01*
X12719Y-6517D01*
X12775Y-6517D01*
X12438Y-6281D02*
X12483Y-6281D01*
X12505Y-6292D01*
X12517Y-6304D01*
X12539Y-6337D01*
X12550Y-6382D01*
X12550Y-6472D01*
X12539Y-6495D01*
X12528Y-6506D01*
X12505Y-6517D01*
X12460Y-6517D01*
X12438Y-6506D01*
X12427Y-6495D01*
X12415Y-6472D01*
X12415Y-6416D01*
X12427Y-6394D01*
X12438Y-6382D01*
X12460Y-6371D01*
X12505Y-6371D01*
X12528Y-6382D01*
X12539Y-6394D01*
X12550Y-6416D01*
%LPC*%
G54D23*
X25101Y-35622D03*
X27601Y-34622D03*
G54D24*
X26101Y-33622D03*
G54D25*
X28101Y-33622D03*
X24101Y-33622D03*
G54D26*
X15639Y-4623D03*
X14064Y-1119D03*
X15638Y-1119D03*
X14064Y-4623D03*
G54D27*
X22286Y-21689D03*
X22286Y-22555D03*
X22916Y-21689D03*
X22916Y-22555D03*
G54D28*
X15984Y-24103D02*
X16400Y-24519D01*
X15761Y-24326D02*
X16177Y-24742D01*
X15539Y-24549D02*
X15954Y-24965D01*
X15316Y-24772D02*
X15732Y-25187D01*
X15093Y-24994D02*
X15509Y-25410D01*
X14870Y-25217D02*
X15286Y-25633D01*
X16207Y-23881D02*
X16622Y-24297D01*
X16429Y-23658D02*
X16845Y-24074D01*
X16652Y-23435D02*
X17068Y-23851D01*
X16875Y-23213D02*
X17291Y-23628D01*
X17098Y-22990D02*
X17513Y-23406D01*
X12802Y-20921D02*
X13218Y-21337D01*
X12579Y-21144D02*
X12995Y-21560D01*
X12357Y-21367D02*
X12772Y-21783D01*
X12134Y-21590D02*
X12550Y-22005D01*
X11911Y-21812D02*
X12327Y-22228D01*
X11688Y-22035D02*
X12104Y-22451D01*
X13025Y-20699D02*
X13441Y-21115D01*
X13247Y-20476D02*
X13663Y-20892D01*
X13470Y-20253D02*
X13886Y-20669D01*
X13693Y-20031D02*
X14109Y-20446D01*
X13916Y-19808D02*
X14331Y-20224D01*
X12802Y-24519D02*
X13218Y-24103D01*
X15984Y-21337D02*
X16400Y-20921D01*
X12579Y-24297D02*
X12995Y-23881D01*
X15761Y-21115D02*
X16177Y-20699D01*
X15539Y-20892D02*
X15954Y-20476D01*
X12357Y-24074D02*
X12772Y-23658D01*
X12134Y-23851D02*
X12550Y-23435D01*
X15316Y-20669D02*
X15732Y-20253D01*
X15093Y-20446D02*
X15509Y-20031D01*
X11911Y-23628D02*
X12327Y-23213D01*
X11688Y-23406D02*
X12104Y-22990D01*
X14870Y-20224D02*
X15286Y-19808D01*
X16207Y-21560D02*
X16622Y-21144D01*
X13025Y-24742D02*
X13441Y-24326D01*
X13247Y-24965D02*
X13663Y-24549D01*
X16429Y-21783D02*
X16845Y-21367D01*
X16652Y-22005D02*
X17068Y-21590D01*
X13470Y-25187D02*
X13886Y-24772D01*
X13693Y-25410D02*
X14109Y-24994D01*
X16875Y-22228D02*
X17291Y-21812D01*
X17098Y-22451D02*
X17513Y-22035D01*
X13916Y-25633D02*
X14331Y-25217D01*
G54D29*
X6551Y-4009D03*
X7301Y-4009D03*
G54D30*
X23801Y-21647D03*
X23801Y-20897D03*
X23801Y-22647D03*
X23801Y-23397D03*
X8901Y-23145D03*
X8901Y-23895D03*
G54D29*
X11771Y-20434D03*
X11021Y-20434D03*
X22226Y-23472D03*
X22976Y-23472D03*
X20726Y-21722D03*
X21476Y-21722D03*
X7801Y-5209D03*
X7051Y-5209D03*
G54D30*
X8751Y-5446D03*
X8751Y-4696D03*
X7901Y-24695D03*
X7901Y-23945D03*
G54D29*
X20726Y-20772D03*
X21476Y-20772D03*
G54D30*
X7901Y-23095D03*
X7901Y-22345D03*
G54D31*
X7225Y-16746D03*
X7225Y-18746D03*
X7225Y-20746D03*
X7225Y-17746D03*
X7225Y-19746D03*
X7225Y-15746D03*
G54D32*
X4101Y-7021D03*
X1101Y-7021D03*
G54D23*
X17601Y-28120D03*
X20101Y-27120D03*
G54D24*
X18601Y-26120D03*
G54D25*
X20601Y-26120D03*
X16601Y-26120D03*
G54D23*
X17601Y-13121D03*
X20101Y-12121D03*
G54D24*
X18601Y-11121D03*
G54D25*
X20601Y-11121D03*
X16601Y-11121D03*
G54D23*
X25101Y-5622D03*
X27601Y-4622D03*
G54D24*
X26101Y-3622D03*
G54D25*
X28101Y-3622D03*
X24101Y-3622D03*
G54D23*
X17601Y-5622D03*
X20101Y-4622D03*
G54D24*
X18601Y-3622D03*
G54D25*
X20601Y-3622D03*
X16601Y-3622D03*
G54D23*
X17601Y-20620D03*
X20101Y-19620D03*
G54D24*
X18601Y-18620D03*
G54D25*
X20601Y-18620D03*
X16601Y-18620D03*
G54D33*
X26601Y-1621D03*
G54D34*
X25601Y-1621D03*
G54D33*
X4101Y-1621D03*
G54D34*
X3101Y-1621D03*
G54D23*
X2601Y-5621D03*
X5101Y-4621D03*
G54D24*
X3601Y-3621D03*
G54D25*
X5601Y-3621D03*
X1601Y-3621D03*
G54D23*
X2601Y-28120D03*
X5101Y-27120D03*
G54D24*
X3601Y-26120D03*
G54D25*
X5601Y-26120D03*
X1601Y-26120D03*
G54D23*
X10101Y-28120D03*
X12601Y-27120D03*
G54D24*
X11101Y-26120D03*
G54D25*
X13101Y-26120D03*
X9101Y-26120D03*
G54D23*
X10101Y-35620D03*
X12601Y-34620D03*
G54D24*
X11101Y-33620D03*
G54D25*
X13101Y-33620D03*
X9101Y-33620D03*
G54D23*
X17601Y-35620D03*
X20101Y-34620D03*
G54D24*
X18601Y-33620D03*
G54D25*
X20601Y-33620D03*
X16601Y-33620D03*
G54D23*
X4601Y-31620D03*
X2101Y-32620D03*
G54D24*
X3601Y-33620D03*
G54D25*
X1601Y-33620D03*
X5601Y-33620D03*
G54D23*
X10101Y-20620D03*
X12601Y-19620D03*
G54D24*
X11101Y-18620D03*
G54D25*
X13101Y-18620D03*
X9101Y-18620D03*
G54D23*
X2601Y-20620D03*
X5101Y-19620D03*
G54D24*
X3601Y-18620D03*
G54D25*
X5601Y-18620D03*
X1601Y-18620D03*
G54D23*
X10101Y-13121D03*
X12601Y-12121D03*
G54D24*
X11101Y-11121D03*
G54D25*
X13101Y-11121D03*
X9101Y-11121D03*
G54D23*
X25101Y-28122D03*
X27601Y-27122D03*
G54D24*
X26101Y-26122D03*
G54D25*
X28101Y-26122D03*
X24101Y-26122D03*
G54D23*
X2601Y-13121D03*
X5101Y-12121D03*
G54D24*
X3601Y-11121D03*
G54D25*
X5601Y-11121D03*
X1601Y-11121D03*
G54D23*
X10101Y-5621D03*
X12601Y-4621D03*
G54D24*
X11101Y-3621D03*
G54D25*
X13101Y-3621D03*
X9101Y-3621D03*
G54D32*
X22751Y-1621D03*
X22751Y-4621D03*
X14601Y-7021D03*
X11601Y-7021D03*
X16101Y-6971D03*
X19101Y-6971D03*
G54D33*
X11601Y-1621D03*
G54D34*
X10601Y-1621D03*
G54D33*
X19101Y-1621D03*
G54D34*
X18101Y-1621D03*
G54D23*
X6351Y-35622D03*
X8851Y-34622D03*
G54D24*
X7351Y-33622D03*
G54D25*
X9351Y-33622D03*
X5351Y-33622D03*
G54D35*
X12051Y-36372D03*
X2651Y-36372D03*
G54D24*
X12051Y-30372D03*
X2651Y-30372D03*
G54D23*
X28101Y-30872D03*
X27101Y-28372D03*
G54D24*
X26101Y-29872D03*
G54D25*
X26101Y-27872D03*
X26101Y-31872D03*
G54D35*
X28851Y-25172D03*
X28851Y-34572D03*
G54D24*
X22851Y-25172D03*
X22851Y-34572D03*
G54D23*
X28101Y-15872D03*
X27101Y-13372D03*
G54D24*
X26101Y-14872D03*
G54D25*
X26101Y-12872D03*
X26101Y-16872D03*
G54D35*
X28851Y-10172D03*
X28851Y-19572D03*
G54D24*
X22851Y-10172D03*
X22851Y-19572D03*
G54D23*
X25101Y-13122D03*
X27601Y-12122D03*
G54D24*
X26101Y-11122D03*
G54D25*
X28101Y-11122D03*
X24101Y-11122D03*
G54D23*
X25101Y-20622D03*
X27601Y-19622D03*
G54D24*
X26101Y-18622D03*
G54D25*
X28101Y-18622D03*
X24101Y-18622D03*
G54D23*
X28101Y-23372D03*
X27101Y-20872D03*
G54D24*
X26101Y-22372D03*
G54D25*
X26101Y-20372D03*
X26101Y-24372D03*
G54D35*
X28851Y-17672D03*
X28851Y-27072D03*
G54D24*
X22851Y-17672D03*
X22851Y-27072D03*
G54D36*
X352Y-36620D03*
X29351Y-371D03*
X29352Y-36670D03*
X351Y-322D03*
G54D37*
X502Y-8121D03*
X502Y-8621D03*
X502Y-9121D03*
X502Y-9621D03*
X502Y-10121D03*
X502Y-11621D03*
X502Y-12121D03*
X502Y-12621D03*
X502Y-13121D03*
X502Y-15120D03*
X502Y-14620D03*
X502Y-14120D03*
G54D29*
X7726Y-25859D03*
X6976Y-25859D03*
X7726Y-26884D03*
X6976Y-26884D03*
G54D38*
X3803Y-21752D03*
X3803Y-22008D03*
X3803Y-22264D03*
X3803Y-22520D03*
X3803Y-22776D03*
X3803Y-23032D03*
X3803Y-23286D03*
X3803Y-23542D03*
X3803Y-23798D03*
X3803Y-24054D03*
X3803Y-24310D03*
X3803Y-24566D03*
X949Y-24566D03*
X949Y-24310D03*
X949Y-24054D03*
X949Y-23798D03*
X949Y-23542D03*
X949Y-23286D03*
X949Y-23032D03*
X949Y-22776D03*
X949Y-22520D03*
X949Y-22264D03*
X949Y-22008D03*
X949Y-21752D03*
G54D37*
X502Y-15620D03*
X502Y-16120D03*
G54D39*
X9104Y-775D03*
X5226Y-775D03*
G54D40*
X5226Y-2449D03*
X9104Y-2449D03*
G54D41*
X7165Y-2549D03*
X6850Y-2549D03*
X6535Y-2549D03*
X7480Y-2549D03*
X7795Y-2549D03*
G54D42*
X6299Y-1523D03*
X8031Y-1523D03*
G54D43*
X7351Y-29870D03*
X22351Y-29870D03*
X7351Y-7371D03*
X22351Y-7371D03*
G54D44*
X27351Y-16702D03*
X27351Y-18041D03*
X27351Y-9202D03*
X27351Y-10541D03*
X28270Y-5871D03*
X26932Y-5871D03*
X20770Y-28370D03*
X19432Y-28370D03*
X20770Y-16370D03*
X19432Y-16370D03*
X20770Y-13371D03*
X19432Y-13371D03*
X20770Y-5871D03*
X19432Y-5871D03*
X13270Y-28370D03*
X11932Y-28370D03*
X27351Y-31702D03*
X27351Y-33041D03*
X27351Y-24202D03*
X27351Y-25541D03*
X20770Y-35870D03*
X19432Y-35870D03*
X14770Y-35870D03*
X13432Y-35870D03*
X3932Y-35869D03*
X5270Y-35869D03*
X5770Y-20870D03*
X4432Y-20870D03*
X5770Y-5871D03*
X4432Y-5871D03*
X13270Y-16370D03*
X11932Y-16370D03*
X13270Y-13371D03*
X11932Y-13371D03*
X5770Y-28370D03*
X4432Y-28370D03*
X5770Y-13371D03*
X4432Y-13371D03*
X13270Y-5871D03*
X11932Y-5871D03*
M02*
