G04 (created by PCBNEW (2013-02-13 BZR 3947)-testing) date 9/18/2013 2:16:11 PM*
%MOIN*%
G04 Gerber Fmt 3.4, Leading zero omitted, Abs format*
%FSLAX34Y34*%
G01*
G70*
G90*
G04 APERTURE LIST*
%ADD10C,0*%
%ADD11O,0.3937X0.1969*%
%ADD12R,0.0393701X0.122047*%
%ADD13R,0.0807X0.1575*%
%ADD14R,0.0807X0.1378*%
%ADD15O,0.0197008X0.0984252*%
%ADD16C,0.0354331*%
%ADD17R,0.0453X0.0551*%
%ADD18C,0.016*%
%ADD19R,0.035X0.055*%
%ADD20R,0.055X0.035*%
%ADD21C,0.0708661*%
%ADD22C,0.0629921*%
%ADD23C,0.09*%
%ADD24C,0.157*%
%ADD25C,0.067*%
%ADD26O,0.075X0.085*%
%ADD27R,0.075X0.085*%
%ADD28C,0.0393701*%
%ADD29C,0.12*%
%ADD30C,0.00787402*%
%ADD31C,0.02*%
%ADD32C,0.01*%
G04 APERTURE END LIST*
G54D10*
G54D11*
X574Y-22244D03*
G54D12*
X15639Y-4623D03*
X14064Y-1119D03*
X15638Y-1119D03*
X14064Y-4623D03*
G54D13*
X9104Y-775D03*
X5226Y-775D03*
G54D14*
X5226Y-2449D03*
X9104Y-2449D03*
G54D15*
X7165Y-2449D03*
X6850Y-2449D03*
X6535Y-2449D03*
X7480Y-2449D03*
X7795Y-2449D03*
G54D16*
X6299Y-1523D03*
X8031Y-1523D03*
G54D17*
X22286Y-21689D03*
X22286Y-22555D03*
X22916Y-21689D03*
X22916Y-22555D03*
G54D18*
X15984Y-24103D02*
X16400Y-24519D01*
X15761Y-24326D02*
X16177Y-24742D01*
X15539Y-24549D02*
X15954Y-24965D01*
X15316Y-24772D02*
X15732Y-25187D01*
X15093Y-24994D02*
X15509Y-25410D01*
X14870Y-25217D02*
X15286Y-25633D01*
X16207Y-23881D02*
X16622Y-24297D01*
X16429Y-23658D02*
X16845Y-24074D01*
X16652Y-23435D02*
X17068Y-23851D01*
X16875Y-23213D02*
X17291Y-23628D01*
X17098Y-22990D02*
X17513Y-23406D01*
X12802Y-20921D02*
X13218Y-21337D01*
X12579Y-21144D02*
X12995Y-21560D01*
X12357Y-21367D02*
X12772Y-21783D01*
X12134Y-21590D02*
X12550Y-22005D01*
X11911Y-21812D02*
X12327Y-22228D01*
X11688Y-22035D02*
X12104Y-22451D01*
X13025Y-20699D02*
X13441Y-21115D01*
X13247Y-20476D02*
X13663Y-20892D01*
X13470Y-20253D02*
X13886Y-20669D01*
X13693Y-20031D02*
X14109Y-20446D01*
X13916Y-19808D02*
X14331Y-20224D01*
X12802Y-24519D02*
X13218Y-24103D01*
X15984Y-21337D02*
X16400Y-20921D01*
X12579Y-24297D02*
X12995Y-23881D01*
X15761Y-21115D02*
X16177Y-20699D01*
X15539Y-20892D02*
X15954Y-20476D01*
X12357Y-24074D02*
X12772Y-23658D01*
X12134Y-23851D02*
X12550Y-23435D01*
X15316Y-20669D02*
X15732Y-20253D01*
X15093Y-20446D02*
X15509Y-20031D01*
X11911Y-23628D02*
X12327Y-23213D01*
X11688Y-23406D02*
X12104Y-22990D01*
X14870Y-20224D02*
X15286Y-19808D01*
X16207Y-21560D02*
X16622Y-21144D01*
X13025Y-24742D02*
X13441Y-24326D01*
X13247Y-24965D02*
X13663Y-24549D01*
X16429Y-21783D02*
X16845Y-21367D01*
X16652Y-22005D02*
X17068Y-21590D01*
X13470Y-25187D02*
X13886Y-24772D01*
X13693Y-25410D02*
X14109Y-24994D01*
X16875Y-22228D02*
X17291Y-21812D01*
X17098Y-22451D02*
X17513Y-22035D01*
X13916Y-25633D02*
X14331Y-25217D01*
G54D19*
X6476Y-4621D03*
X7226Y-4621D03*
G54D20*
X23801Y-21647D03*
X23801Y-20897D03*
X23801Y-22647D03*
X23801Y-23397D03*
X8901Y-23145D03*
X8901Y-23895D03*
G54D19*
X11771Y-20434D03*
X11021Y-20434D03*
X22226Y-23472D03*
X22976Y-23472D03*
X20726Y-21722D03*
X21476Y-21722D03*
G54D20*
X7351Y-6746D03*
X7351Y-5996D03*
X8351Y-6746D03*
X8351Y-5996D03*
X7901Y-24695D03*
X7901Y-23945D03*
G54D19*
X20726Y-20772D03*
X21476Y-20772D03*
G54D20*
X7901Y-23095D03*
X7901Y-22345D03*
G54D19*
X14226Y-44122D03*
X13476Y-44122D03*
X4226Y-44122D03*
X4976Y-44122D03*
X28226Y-20872D03*
X28976Y-20872D03*
X28226Y-13372D03*
X28976Y-13372D03*
X28476Y-6121D03*
X27726Y-6121D03*
X20876Y-28620D03*
X20126Y-28620D03*
X20976Y-16120D03*
X20226Y-16120D03*
X20976Y-13621D03*
X20226Y-13621D03*
X20976Y-6121D03*
X20226Y-6121D03*
G54D21*
X7225Y-16746D03*
X7225Y-18746D03*
X7225Y-20746D03*
X7225Y-17746D03*
X7225Y-19746D03*
X7225Y-15746D03*
G54D22*
X1101Y-7121D03*
X4101Y-7121D03*
G54D23*
X2601Y-43122D03*
X5101Y-42122D03*
G54D24*
X3601Y-41122D03*
G54D25*
X5601Y-41122D03*
X1601Y-41122D03*
G54D23*
X17601Y-28120D03*
X20101Y-27120D03*
G54D24*
X18601Y-26120D03*
G54D25*
X20601Y-26120D03*
X16601Y-26120D03*
G54D23*
X17601Y-13121D03*
X20101Y-12121D03*
G54D24*
X18601Y-11121D03*
G54D25*
X20601Y-11121D03*
X16601Y-11121D03*
G54D23*
X25101Y-5622D03*
X27601Y-4622D03*
G54D24*
X26101Y-3622D03*
G54D25*
X28101Y-3622D03*
X24101Y-3622D03*
G54D23*
X17601Y-5622D03*
X20101Y-4622D03*
G54D24*
X18601Y-3622D03*
G54D25*
X20601Y-3622D03*
X16601Y-3622D03*
G54D23*
X17601Y-20620D03*
X20101Y-19620D03*
G54D24*
X18601Y-18620D03*
G54D25*
X20601Y-18620D03*
X16601Y-18620D03*
G54D23*
X10101Y-43122D03*
X12601Y-42122D03*
G54D24*
X11101Y-41122D03*
G54D25*
X13101Y-41122D03*
X9101Y-41122D03*
G54D26*
X26601Y-1621D03*
G54D27*
X25601Y-1621D03*
G54D26*
X4101Y-1621D03*
G54D27*
X3101Y-1621D03*
G54D28*
X351Y-36872D03*
X29351Y-371D03*
X29351Y-36872D03*
X351Y-322D03*
G54D19*
X13476Y-28620D03*
X12726Y-28620D03*
X28226Y-35872D03*
X28976Y-35872D03*
X28226Y-28372D03*
X28976Y-28372D03*
X20976Y-36120D03*
X20226Y-36120D03*
X14226Y-36372D03*
X13476Y-36372D03*
X5226Y-36122D03*
X4476Y-36122D03*
X5976Y-21120D03*
X5226Y-21120D03*
X5976Y-6121D03*
X5226Y-6121D03*
X13476Y-16120D03*
X12726Y-16120D03*
X13476Y-13621D03*
X12726Y-13621D03*
X5976Y-28620D03*
X5226Y-28620D03*
X5976Y-13621D03*
X5226Y-13621D03*
X13476Y-6121D03*
X12726Y-6121D03*
G54D23*
X2601Y-5621D03*
X5101Y-4621D03*
G54D24*
X3601Y-3621D03*
G54D25*
X5601Y-3621D03*
X1601Y-3621D03*
G54D23*
X2601Y-28120D03*
X5101Y-27120D03*
G54D24*
X3601Y-26120D03*
G54D25*
X5601Y-26120D03*
X1601Y-26120D03*
G54D23*
X10101Y-28120D03*
X12601Y-27120D03*
G54D24*
X11101Y-26120D03*
G54D25*
X13101Y-26120D03*
X9101Y-26120D03*
G54D23*
X10101Y-35620D03*
X12601Y-34620D03*
G54D24*
X11101Y-33620D03*
G54D25*
X13101Y-33620D03*
X9101Y-33620D03*
G54D23*
X17601Y-35620D03*
X20101Y-34620D03*
G54D24*
X18601Y-33620D03*
G54D25*
X20601Y-33620D03*
X16601Y-33620D03*
G54D23*
X2601Y-35620D03*
X5101Y-34620D03*
G54D24*
X3601Y-33620D03*
G54D25*
X5601Y-33620D03*
X1601Y-33620D03*
G54D23*
X10101Y-20620D03*
X12601Y-19620D03*
G54D24*
X11101Y-18620D03*
G54D25*
X13101Y-18620D03*
X9101Y-18620D03*
G54D23*
X2601Y-20620D03*
X5101Y-19620D03*
G54D24*
X3601Y-18620D03*
G54D25*
X5601Y-18620D03*
X1601Y-18620D03*
G54D23*
X10101Y-13121D03*
X12601Y-12121D03*
G54D24*
X11101Y-11121D03*
G54D25*
X13101Y-11121D03*
X9101Y-11121D03*
G54D23*
X25101Y-35622D03*
X27601Y-34622D03*
G54D24*
X26101Y-33622D03*
G54D25*
X28101Y-33622D03*
X24101Y-33622D03*
G54D23*
X25101Y-28122D03*
X27601Y-27122D03*
G54D24*
X26101Y-26122D03*
G54D25*
X28101Y-26122D03*
X24101Y-26122D03*
G54D23*
X2601Y-13121D03*
X5101Y-12121D03*
G54D24*
X3601Y-11121D03*
G54D25*
X5601Y-11121D03*
X1601Y-11121D03*
G54D23*
X10101Y-5621D03*
X12601Y-4621D03*
G54D24*
X11101Y-3621D03*
G54D25*
X13101Y-3621D03*
X9101Y-3621D03*
G54D22*
X24101Y-7121D03*
X27101Y-7121D03*
X14601Y-7121D03*
X11601Y-7121D03*
X22101Y-7121D03*
X19101Y-7121D03*
G54D26*
X11601Y-1621D03*
G54D27*
X10601Y-1621D03*
G54D26*
X19101Y-1621D03*
G54D27*
X18101Y-1621D03*
G54D19*
X20976Y-43622D03*
X20226Y-43622D03*
X28476Y-43622D03*
X27726Y-43622D03*
G54D28*
X29351Y-44372D03*
X351Y-44372D03*
G54D23*
X6351Y-35622D03*
X8851Y-34622D03*
G54D24*
X7351Y-33622D03*
G54D25*
X9351Y-33622D03*
X5351Y-33622D03*
G54D29*
X12051Y-36372D03*
X2651Y-36372D03*
G54D24*
X12051Y-30372D03*
X2651Y-30372D03*
G54D23*
X28101Y-30872D03*
X27101Y-28372D03*
G54D24*
X26101Y-29872D03*
G54D25*
X26101Y-27872D03*
X26101Y-31872D03*
G54D29*
X28851Y-25172D03*
X28851Y-34572D03*
G54D24*
X22851Y-25172D03*
X22851Y-34572D03*
G54D23*
X28101Y-15872D03*
X27101Y-13372D03*
G54D24*
X26101Y-14872D03*
G54D25*
X26101Y-12872D03*
X26101Y-16872D03*
G54D29*
X28851Y-10172D03*
X28851Y-19572D03*
G54D24*
X22851Y-10172D03*
X22851Y-19572D03*
G54D23*
X17601Y-43122D03*
X20101Y-42122D03*
G54D24*
X18601Y-41122D03*
G54D25*
X20601Y-41122D03*
X16601Y-41122D03*
G54D23*
X25101Y-43122D03*
X27601Y-42122D03*
G54D24*
X26101Y-41122D03*
G54D25*
X28101Y-41122D03*
X24101Y-41122D03*
G54D23*
X25101Y-13122D03*
X27601Y-12122D03*
G54D24*
X26101Y-11122D03*
G54D25*
X28101Y-11122D03*
X24101Y-11122D03*
G54D23*
X25101Y-20622D03*
X27601Y-19622D03*
G54D24*
X26101Y-18622D03*
G54D25*
X28101Y-18622D03*
X24101Y-18622D03*
G54D23*
X6351Y-43122D03*
X8851Y-42122D03*
G54D24*
X7351Y-41122D03*
G54D25*
X9351Y-41122D03*
X5351Y-41122D03*
G54D29*
X12051Y-43872D03*
X2651Y-43872D03*
G54D24*
X12051Y-37872D03*
X2651Y-37872D03*
G54D23*
X28101Y-23372D03*
X27101Y-20872D03*
G54D24*
X26101Y-22372D03*
G54D25*
X26101Y-20372D03*
X26101Y-24372D03*
G54D29*
X28851Y-17672D03*
X28851Y-27072D03*
G54D24*
X22851Y-17672D03*
X22851Y-27072D03*
G54D23*
X28101Y-38372D03*
X27101Y-35872D03*
G54D24*
X26101Y-37372D03*
G54D25*
X26101Y-35372D03*
X26101Y-39372D03*
G54D29*
X28851Y-32672D03*
X28851Y-42072D03*
G54D24*
X22851Y-32672D03*
X22851Y-42072D03*
G54D28*
X14851Y-37322D03*
X16001Y-37321D03*
X17201Y-37321D03*
X18401Y-37321D03*
X19601Y-37321D03*
X21501Y-37321D03*
X22601Y-37321D03*
X23801Y-37321D03*
X28301Y-37321D03*
X13501Y-37321D03*
X10701Y-37321D03*
X9501Y-37321D03*
X8301Y-37321D03*
X7001Y-37321D03*
X5801Y-37321D03*
X1101Y-37321D03*
X3901Y-37321D03*
X15840Y-23067D03*
X16091Y-23489D03*
X17670Y-24156D03*
X7984Y-19982D03*
X5912Y-29534D03*
X14438Y-25973D03*
X5017Y-32182D03*
X15650Y-23873D03*
X14447Y-17725D03*
X15772Y-26597D03*
X21047Y-23649D03*
X21436Y-16171D03*
X12531Y-20354D03*
X13492Y-19610D03*
X14117Y-20945D03*
X14896Y-21527D03*
X14570Y-20587D03*
X11545Y-21439D03*
X13582Y-5291D03*
X24468Y-36672D03*
X13597Y-22159D03*
X14577Y-19933D03*
X16385Y-22415D03*
X23619Y-22122D03*
X14996Y-22089D03*
X24353Y-22729D03*
X12988Y-13069D03*
X13041Y-25263D03*
X6778Y-22670D03*
X11845Y-25311D03*
X4664Y-6361D03*
X17355Y-22737D03*
X16616Y-20441D03*
G54D30*
X16284Y-23067D02*
X16860Y-23643D01*
X15840Y-23067D02*
X16284Y-23067D01*
X16637Y-23866D02*
X16289Y-23518D01*
X16261Y-23489D02*
X16091Y-23489D01*
X16289Y-23518D02*
X16261Y-23489D01*
X16415Y-24089D02*
X16763Y-24437D01*
X17285Y-24156D02*
X17670Y-24156D01*
X17004Y-24437D02*
X17285Y-24156D01*
X16763Y-24437D02*
X17004Y-24437D01*
X16763Y-24437D02*
X16763Y-24437D01*
X11896Y-23198D02*
X11548Y-23546D01*
X7984Y-19982D02*
X11548Y-23546D01*
X6066Y-6604D02*
X5976Y-6514D01*
X6066Y-13137D02*
X6066Y-6604D01*
X5976Y-13227D02*
X6066Y-13137D01*
X5976Y-6121D02*
X5976Y-6514D01*
X5976Y-21120D02*
X5976Y-21514D01*
X5976Y-13424D02*
X5976Y-13227D01*
X4505Y-36544D02*
X4476Y-36515D01*
X4505Y-43449D02*
X4505Y-36544D01*
X4226Y-43728D02*
X4505Y-43449D01*
X4226Y-44122D02*
X4226Y-43728D01*
X4476Y-36122D02*
X4476Y-36515D01*
X5976Y-21120D02*
X5976Y-20727D01*
X5976Y-13424D02*
X5976Y-13621D01*
X6054Y-20649D02*
X5976Y-20727D01*
X6054Y-14092D02*
X6054Y-20649D01*
X5976Y-14014D02*
X6054Y-14092D01*
X5976Y-13621D02*
X5976Y-14014D01*
X5976Y-28424D02*
X5976Y-28227D01*
X6073Y-28130D02*
X5976Y-28227D01*
X6073Y-21611D02*
X6073Y-28130D01*
X5976Y-21514D02*
X6073Y-21611D01*
X5976Y-28424D02*
X5976Y-28620D01*
X5912Y-29078D02*
X5912Y-29534D01*
X5976Y-29014D02*
X5912Y-29078D01*
X5976Y-28620D02*
X5976Y-29014D01*
X16094Y-25111D02*
X16094Y-25105D01*
X15232Y-25973D02*
X16094Y-25111D01*
X14438Y-25973D02*
X15232Y-25973D01*
X15746Y-24757D02*
X16094Y-25105D01*
X4533Y-35672D02*
X4476Y-35728D01*
X4533Y-32666D02*
X4533Y-35672D01*
X5017Y-32182D02*
X4533Y-32666D01*
X4476Y-36122D02*
X4476Y-35728D01*
X13563Y-13140D02*
X13476Y-13227D01*
X13563Y-6601D02*
X13563Y-13140D01*
X13476Y-6514D02*
X13563Y-6601D01*
X13476Y-6121D02*
X13476Y-6514D01*
X13476Y-13621D02*
X13476Y-13227D01*
X15650Y-24157D02*
X15650Y-23873D01*
X15621Y-24186D02*
X15650Y-24157D01*
X15969Y-24534D02*
X15621Y-24186D01*
X13476Y-13621D02*
X13476Y-16120D01*
X13476Y-16754D02*
X14447Y-17725D01*
X13476Y-16120D02*
X13476Y-16754D01*
X15714Y-26676D02*
X13769Y-28620D01*
X15772Y-26676D02*
X15714Y-26676D01*
X13476Y-28620D02*
X13769Y-28620D01*
X15772Y-26676D02*
X15772Y-26597D01*
X16634Y-27538D02*
X15772Y-26676D01*
X17834Y-27538D02*
X16634Y-27538D01*
X18180Y-27884D02*
X17834Y-27538D01*
X18180Y-28559D02*
X18180Y-27884D01*
X17696Y-29043D02*
X18180Y-28559D01*
X17696Y-34074D02*
X17696Y-29043D01*
X18171Y-34549D02*
X17696Y-34074D01*
X18171Y-35866D02*
X18171Y-34549D01*
X17665Y-36372D02*
X18171Y-35866D01*
X14226Y-36372D02*
X17665Y-36372D01*
X14226Y-36372D02*
X14226Y-44122D01*
X21067Y-13136D02*
X20976Y-13227D01*
X21067Y-6605D02*
X21067Y-13136D01*
X20976Y-6514D02*
X21067Y-6605D01*
X20976Y-6121D02*
X20976Y-6514D01*
X20976Y-13424D02*
X20976Y-13227D01*
X20976Y-13424D02*
X20976Y-13621D01*
X20976Y-16120D02*
X21123Y-16120D01*
X20976Y-13621D02*
X20976Y-14014D01*
X20876Y-28620D02*
X20876Y-28227D01*
X21123Y-14160D02*
X20976Y-14014D01*
X21123Y-16120D02*
X21123Y-14160D01*
X14124Y-25425D02*
X13776Y-25773D01*
X21123Y-16120D02*
X21269Y-16120D01*
X20353Y-26545D02*
X20133Y-26545D01*
X20876Y-27068D02*
X20353Y-26545D01*
X20876Y-28227D02*
X20876Y-27068D01*
X21320Y-16171D02*
X21436Y-16171D01*
X21269Y-16120D02*
X21320Y-16171D01*
X20133Y-24563D02*
X21047Y-23649D01*
X20133Y-26545D02*
X20133Y-24563D01*
X19873Y-26545D02*
X20133Y-26545D01*
X19394Y-27024D02*
X19873Y-26545D01*
X16644Y-27024D02*
X19394Y-27024D01*
X15902Y-26282D02*
X16644Y-27024D01*
X14594Y-26282D02*
X15902Y-26282D01*
X14555Y-26321D02*
X14594Y-26282D01*
X14323Y-26321D02*
X14555Y-26321D01*
X13776Y-25773D02*
X14323Y-26321D01*
X21055Y-29192D02*
X20876Y-29014D01*
X21055Y-35649D02*
X21055Y-29192D01*
X20976Y-35727D02*
X21055Y-35649D01*
X20976Y-36120D02*
X20976Y-35727D01*
X20876Y-28620D02*
X20876Y-29014D01*
X21064Y-36602D02*
X20976Y-36514D01*
X21064Y-43140D02*
X21064Y-36602D01*
X20976Y-43228D02*
X21064Y-43140D01*
X20976Y-43622D02*
X20976Y-43228D01*
X20976Y-36120D02*
X20976Y-36514D01*
X28476Y-6121D02*
X28769Y-6121D01*
X29579Y-13062D02*
X29269Y-13372D01*
X29579Y-6930D02*
X29579Y-13062D01*
X28769Y-6121D02*
X29579Y-6930D01*
X28476Y-43622D02*
X28769Y-43622D01*
X28976Y-13372D02*
X29123Y-13372D01*
X29123Y-13372D02*
X29269Y-13372D01*
X28976Y-28372D02*
X29269Y-28372D01*
X28976Y-38443D02*
X28976Y-35872D01*
X29579Y-39046D02*
X28976Y-38443D01*
X29579Y-42812D02*
X29579Y-39046D01*
X28769Y-43622D02*
X29579Y-42812D01*
X28976Y-35872D02*
X29269Y-35872D01*
X29579Y-28681D02*
X29269Y-28372D01*
X29579Y-35562D02*
X29579Y-28681D01*
X29269Y-35872D02*
X29579Y-35562D01*
X28683Y-20688D02*
X28683Y-20872D01*
X28360Y-20366D02*
X28683Y-20688D01*
X27523Y-20366D02*
X28360Y-20366D01*
X26961Y-19804D02*
X27523Y-20366D01*
X27013Y-19752D02*
X26961Y-19804D01*
X27013Y-18316D02*
X27013Y-19752D01*
X29123Y-16206D02*
X27013Y-18316D01*
X29123Y-13372D02*
X29123Y-16206D01*
X18735Y-20368D02*
X17083Y-22020D01*
X21937Y-20368D02*
X18735Y-20368D01*
X22061Y-20492D02*
X21937Y-20368D01*
X23391Y-20492D02*
X22061Y-20492D01*
X24079Y-19804D02*
X23391Y-20492D01*
X26961Y-19804D02*
X24079Y-19804D01*
X28976Y-20872D02*
X28829Y-20872D01*
X28829Y-20872D02*
X28683Y-20872D01*
X29579Y-28062D02*
X29269Y-28372D01*
X29579Y-21621D02*
X29579Y-28062D01*
X28829Y-20872D02*
X29579Y-21621D01*
X11247Y-23769D02*
X11771Y-23769D01*
X7225Y-19746D02*
X11247Y-23769D01*
X12119Y-23420D02*
X11771Y-23769D01*
X21905Y-5622D02*
X25101Y-5622D01*
X20313Y-4030D02*
X21905Y-5622D01*
X19528Y-4030D02*
X20313Y-4030D01*
X17936Y-5622D02*
X19528Y-4030D01*
X17601Y-5622D02*
X17936Y-5622D01*
X13352Y-5622D02*
X17601Y-5622D01*
X13169Y-5805D02*
X13352Y-5622D01*
X13169Y-6296D02*
X13169Y-5805D01*
X12949Y-6516D02*
X13169Y-6296D01*
X10996Y-6516D02*
X12949Y-6516D01*
X10101Y-5621D02*
X10996Y-6516D01*
X12680Y-20354D02*
X12531Y-20354D01*
X13233Y-20907D02*
X12680Y-20354D01*
X28101Y-15558D02*
X28101Y-15872D01*
X25664Y-13122D02*
X28101Y-15558D01*
X25101Y-13122D02*
X25664Y-13122D01*
X13455Y-20684D02*
X13107Y-20336D01*
X17817Y-13336D02*
X17817Y-14811D01*
X17601Y-13121D02*
X17817Y-13336D01*
X21705Y-16517D02*
X25101Y-13122D01*
X20753Y-16517D02*
X21705Y-16517D01*
X20683Y-16447D02*
X20753Y-16517D01*
X20683Y-15937D02*
X20683Y-16447D01*
X19557Y-14811D02*
X20683Y-15937D01*
X17817Y-14811D02*
X19557Y-14811D01*
X13172Y-20271D02*
X13107Y-20336D01*
X13172Y-19455D02*
X13172Y-20271D01*
X13177Y-19450D02*
X13172Y-19455D01*
X13177Y-19359D02*
X13177Y-19450D01*
X13182Y-19354D02*
X13177Y-19359D01*
X13182Y-19334D02*
X13182Y-19354D01*
X13367Y-19149D02*
X13182Y-19334D01*
X13478Y-19149D02*
X13367Y-19149D01*
X17817Y-14811D02*
X13478Y-19149D01*
X25664Y-20622D02*
X25101Y-20622D01*
X28101Y-23058D02*
X25664Y-20622D01*
X28101Y-23372D02*
X28101Y-23058D01*
X13678Y-20461D02*
X13330Y-20113D01*
X13499Y-19602D02*
X13492Y-19610D01*
X16583Y-19602D02*
X13499Y-19602D01*
X17601Y-20620D02*
X16583Y-19602D01*
X13492Y-19951D02*
X13330Y-20113D01*
X13492Y-19610D02*
X13492Y-19951D01*
X25644Y-28122D02*
X25101Y-28122D01*
X28101Y-30578D02*
X25644Y-28122D01*
X28101Y-30872D02*
X28101Y-30578D01*
X10995Y-29015D02*
X10101Y-28120D01*
X16707Y-29015D02*
X10995Y-29015D01*
X17601Y-28120D02*
X16707Y-29015D01*
X13901Y-20238D02*
X14249Y-20587D01*
X14117Y-20718D02*
X14249Y-20587D01*
X14117Y-20945D02*
X14117Y-20718D01*
X25644Y-35622D02*
X25101Y-35622D01*
X28101Y-38078D02*
X25644Y-35622D01*
X28101Y-38372D02*
X28101Y-38078D01*
X10100Y-35622D02*
X10101Y-35620D01*
X6351Y-35622D02*
X10100Y-35622D01*
X15524Y-20461D02*
X15176Y-20809D01*
X10797Y-35620D02*
X10101Y-35620D01*
X12373Y-34045D02*
X10797Y-35620D01*
X12884Y-34045D02*
X12373Y-34045D01*
X14460Y-35620D02*
X12884Y-34045D01*
X17601Y-35620D02*
X14460Y-35620D01*
X15176Y-21248D02*
X14896Y-21527D01*
X15176Y-20809D02*
X15176Y-21248D01*
X15176Y-20809D02*
X15176Y-20809D01*
X10101Y-43122D02*
X6351Y-43122D01*
X14472Y-20488D02*
X14472Y-20364D01*
X14570Y-20587D02*
X14472Y-20488D01*
X14124Y-20016D02*
X14472Y-20364D01*
X12342Y-23643D02*
X12690Y-23295D01*
X8299Y-19821D02*
X7225Y-18746D01*
X8299Y-20022D02*
X8299Y-19821D01*
X10840Y-22563D02*
X8299Y-20022D01*
X11142Y-22563D02*
X10840Y-22563D01*
X11300Y-22720D02*
X11142Y-22563D01*
X12115Y-22720D02*
X11300Y-22720D01*
X12632Y-23237D02*
X12115Y-22720D01*
X12632Y-23237D02*
X12632Y-23237D01*
X12690Y-23295D02*
X12632Y-23237D01*
X7225Y-21376D02*
X7901Y-22052D01*
X7225Y-20746D02*
X7225Y-21376D01*
X7901Y-22345D02*
X7901Y-22052D01*
X11771Y-21665D02*
X11771Y-21672D01*
X11545Y-21439D02*
X11771Y-21665D01*
X12119Y-22020D02*
X11771Y-21672D01*
X14064Y-4623D02*
X14064Y-5351D01*
X13642Y-5351D02*
X13582Y-5291D01*
X14064Y-5351D02*
X13642Y-5351D01*
G54D31*
X8901Y-23895D02*
X8447Y-23895D01*
X8397Y-23945D02*
X7901Y-23945D01*
X8447Y-23895D02*
X8397Y-23945D01*
X22916Y-22555D02*
X22916Y-23009D01*
X22624Y-20897D02*
X22286Y-21234D01*
X23801Y-20897D02*
X22624Y-20897D01*
X22286Y-21689D02*
X22286Y-21234D01*
X9615Y-18567D02*
X11021Y-19973D01*
X9615Y-18136D02*
X9615Y-18567D01*
X7225Y-15746D02*
X9615Y-18136D01*
X11021Y-19973D02*
X11021Y-20434D01*
X7901Y-23945D02*
X7901Y-23592D01*
X22286Y-21689D02*
X21881Y-21689D01*
X21656Y-21902D02*
X21667Y-21902D01*
X21476Y-21722D02*
X21656Y-21902D01*
X21667Y-21902D02*
X21881Y-21689D01*
X21830Y-20778D02*
X22286Y-21234D01*
X21830Y-20772D02*
X21830Y-20778D01*
X21476Y-20772D02*
X21830Y-20772D01*
X21667Y-22722D02*
X21667Y-21902D01*
X21954Y-23009D02*
X21667Y-22722D01*
X22916Y-23009D02*
X21954Y-23009D01*
X22925Y-23018D02*
X22976Y-23018D01*
X22916Y-23009D02*
X22925Y-23018D01*
X6687Y-16284D02*
X7225Y-15746D01*
X6687Y-22049D02*
X6687Y-16284D01*
X7153Y-22515D02*
X6687Y-22049D01*
X7153Y-23065D02*
X7153Y-22515D01*
X7680Y-23592D02*
X7153Y-23065D01*
X7901Y-23592D02*
X7680Y-23592D01*
X22976Y-23245D02*
X22976Y-23018D01*
X23196Y-23245D02*
X23347Y-23397D01*
X22976Y-23245D02*
X23196Y-23245D01*
X23801Y-23397D02*
X23347Y-23397D01*
X15301Y-25202D02*
X14910Y-24811D01*
X7901Y-23945D02*
X7901Y-24299D01*
X13233Y-24534D02*
X12842Y-24925D01*
X7591Y-24299D02*
X7901Y-24299D01*
X7433Y-24457D02*
X7591Y-24299D01*
X7433Y-25075D02*
X7433Y-24457D01*
X7433Y-28576D02*
X7433Y-25075D01*
X4206Y-31802D02*
X7433Y-28576D01*
X4026Y-31802D02*
X4206Y-31802D01*
X2145Y-33684D02*
X4026Y-31802D01*
X2145Y-35078D02*
X2145Y-33684D01*
X351Y-36872D02*
X2145Y-35078D01*
X12842Y-24925D02*
X12842Y-24925D01*
X11495Y-24925D02*
X12842Y-24925D01*
X11345Y-25075D02*
X11495Y-24925D01*
X7433Y-25075D02*
X11345Y-25075D01*
X14910Y-22855D02*
X14910Y-24811D01*
X13149Y-22159D02*
X13597Y-22159D01*
X12564Y-21575D02*
X13149Y-22159D01*
X14293Y-22855D02*
X14910Y-22855D01*
X13597Y-22159D02*
X14293Y-22855D01*
X24633Y-24583D02*
X23801Y-23750D01*
X24633Y-26321D02*
X24633Y-24583D01*
X24453Y-26501D02*
X24633Y-26321D01*
X24453Y-28432D02*
X24453Y-26501D01*
X24619Y-28598D02*
X24453Y-28432D01*
X24619Y-33835D02*
X24619Y-28598D01*
X24468Y-33986D02*
X24619Y-33835D01*
X24468Y-37113D02*
X24468Y-36672D01*
X24468Y-36672D02*
X24468Y-33986D01*
X24783Y-37427D02*
X24468Y-37113D01*
X24783Y-41405D02*
X24783Y-37427D01*
X27749Y-44372D02*
X24783Y-41405D01*
X29351Y-44372D02*
X27749Y-44372D01*
X23801Y-23397D02*
X23801Y-23750D01*
X22976Y-23358D02*
X22976Y-23245D01*
X14996Y-19933D02*
X14577Y-19933D01*
X15078Y-20016D02*
X14996Y-19933D01*
X7805Y-15166D02*
X7805Y-6392D01*
X7225Y-15746D02*
X7805Y-15166D01*
X7226Y-4621D02*
X7226Y-5074D01*
X4145Y-5535D02*
X6897Y-5535D01*
X2454Y-3844D02*
X4145Y-5535D01*
X2454Y-2425D02*
X2454Y-3844D01*
X351Y-322D02*
X2454Y-2425D01*
X6897Y-6251D02*
X6897Y-5535D01*
X7038Y-6392D02*
X6897Y-6251D01*
X7805Y-6392D02*
X7038Y-6392D01*
X7805Y-6392D02*
X7805Y-6392D01*
X6897Y-5403D02*
X7226Y-5074D01*
X6897Y-5535D02*
X6897Y-5403D01*
X12016Y-19973D02*
X11021Y-19973D01*
X12131Y-20088D02*
X12016Y-19973D01*
X12131Y-21099D02*
X12131Y-20088D01*
X12564Y-21533D02*
X12131Y-21099D01*
X12564Y-21575D02*
X12564Y-21533D01*
X15074Y-22691D02*
X14910Y-22855D01*
X15996Y-22691D02*
X15074Y-22691D01*
X16102Y-22798D02*
X15996Y-22691D01*
X16460Y-22798D02*
X16102Y-22798D01*
X17083Y-23420D02*
X16460Y-22798D01*
X22976Y-23358D02*
X22976Y-23472D01*
X18018Y-23267D02*
X17474Y-23811D01*
X21235Y-23267D02*
X18018Y-23267D01*
X21897Y-23929D02*
X21235Y-23267D01*
X22474Y-23929D02*
X21897Y-23929D01*
X22622Y-23781D02*
X22474Y-23929D01*
X22622Y-23472D02*
X22622Y-23781D01*
X22976Y-23472D02*
X22622Y-23472D01*
X17083Y-23420D02*
X17474Y-23811D01*
X15639Y-4623D02*
X15639Y-3833D01*
X14904Y-3099D02*
X15639Y-3833D01*
X12884Y-3099D02*
X14904Y-3099D01*
X12534Y-3449D02*
X12884Y-3099D01*
X12534Y-3559D02*
X12534Y-3449D01*
X11407Y-4686D02*
X12534Y-3559D01*
X8810Y-4686D02*
X11407Y-4686D01*
X8810Y-6241D02*
X8810Y-4686D01*
X8659Y-6392D02*
X8810Y-6241D01*
X7805Y-6392D02*
X8659Y-6392D01*
X7805Y-6392D02*
X7805Y-6392D01*
X7795Y-3670D02*
X7795Y-2449D01*
X8810Y-4686D02*
X7795Y-3670D01*
X16969Y-2503D02*
X15639Y-3833D01*
X27218Y-2503D02*
X16969Y-2503D01*
X29351Y-371D02*
X27218Y-2503D01*
G54D30*
X23303Y-21647D02*
X23261Y-21689D01*
X23801Y-21647D02*
X23303Y-21647D01*
X22916Y-21689D02*
X23261Y-21689D01*
X23801Y-21647D02*
X23801Y-21940D01*
X12787Y-21352D02*
X13135Y-21700D01*
X23801Y-21940D02*
X23619Y-22122D01*
X14876Y-22415D02*
X16385Y-22415D01*
X14161Y-21700D02*
X14876Y-22415D01*
X14161Y-21700D02*
X14161Y-21700D01*
X13135Y-21700D02*
X14161Y-21700D01*
X7165Y-3552D02*
X7165Y-2449D01*
X8351Y-4738D02*
X7165Y-3552D01*
X8351Y-5996D02*
X8351Y-4738D01*
X23212Y-22161D02*
X22286Y-22161D01*
X23408Y-22357D02*
X23212Y-22161D01*
X23408Y-22647D02*
X23408Y-22357D01*
X23801Y-22647D02*
X23408Y-22647D01*
X22286Y-22555D02*
X22286Y-22161D01*
X24277Y-22729D02*
X24353Y-22729D01*
X24194Y-22647D02*
X24277Y-22729D01*
X23801Y-22647D02*
X24194Y-22647D01*
X13010Y-21129D02*
X13358Y-21477D01*
X14384Y-21477D02*
X14996Y-22089D01*
X13358Y-21477D02*
X14384Y-21477D01*
X7901Y-24695D02*
X8294Y-24695D01*
X12626Y-24695D02*
X8294Y-24695D01*
X13010Y-24311D02*
X12626Y-24695D01*
X6850Y-3505D02*
X6850Y-2449D01*
X7519Y-4174D02*
X6850Y-3505D01*
X7519Y-5534D02*
X7519Y-4174D01*
X7351Y-5702D02*
X7519Y-5534D01*
X7351Y-5996D02*
X7351Y-5702D01*
X20226Y-42247D02*
X20226Y-43622D01*
X20101Y-42122D02*
X20226Y-42247D01*
X27726Y-42247D02*
X27726Y-43622D01*
X27601Y-42122D02*
X27726Y-42247D01*
X13476Y-42997D02*
X13476Y-44122D01*
X12601Y-42122D02*
X13476Y-42997D01*
X20226Y-34745D02*
X20226Y-36120D01*
X20101Y-34620D02*
X20226Y-34745D01*
X13476Y-35495D02*
X13476Y-36372D01*
X12601Y-34620D02*
X13476Y-35495D01*
X5226Y-27245D02*
X5226Y-28620D01*
X5101Y-27120D02*
X5226Y-27245D01*
X13183Y-12874D02*
X12988Y-13069D01*
X13183Y-11899D02*
X13183Y-12874D01*
X8351Y-7067D02*
X13183Y-11899D01*
X8351Y-6746D02*
X8351Y-7067D01*
X13041Y-25263D02*
X13041Y-25263D01*
X13041Y-25171D02*
X13041Y-25263D01*
X13455Y-24757D02*
X13041Y-25171D01*
X27101Y-20872D02*
X28226Y-20872D01*
X8851Y-42122D02*
X5101Y-42122D01*
X5101Y-43603D02*
X4976Y-43728D01*
X5101Y-42122D02*
X5101Y-43603D01*
X4976Y-44122D02*
X4976Y-43728D01*
X27601Y-35872D02*
X27601Y-34622D01*
X27101Y-35872D02*
X27601Y-35872D01*
X27601Y-35872D02*
X28226Y-35872D01*
X27601Y-28372D02*
X27601Y-27122D01*
X27101Y-28372D02*
X27601Y-28372D01*
X27601Y-28372D02*
X28226Y-28372D01*
X5226Y-34622D02*
X5226Y-36122D01*
X8851Y-34622D02*
X5226Y-34622D01*
X5102Y-34622D02*
X5101Y-34620D01*
X5226Y-34622D02*
X5102Y-34622D01*
X27601Y-12122D02*
X27601Y-13372D01*
X27101Y-13372D02*
X27601Y-13372D01*
X27601Y-13372D02*
X28226Y-13372D01*
X20226Y-12246D02*
X20226Y-13621D01*
X20101Y-12121D02*
X20226Y-12246D01*
X12601Y-13496D02*
X12726Y-13621D01*
X12601Y-12121D02*
X12601Y-13496D01*
X5226Y-12246D02*
X5226Y-13621D01*
X5101Y-12121D02*
X5226Y-12246D01*
X5226Y-19745D02*
X5226Y-21120D01*
X5101Y-19620D02*
X5226Y-19745D01*
X6456Y-22348D02*
X6778Y-22670D01*
X6456Y-7934D02*
X6456Y-22348D01*
X7351Y-7039D02*
X6456Y-7934D01*
X7351Y-6746D02*
X7351Y-7039D01*
X13678Y-25073D02*
X13678Y-24980D01*
X13147Y-25604D02*
X13678Y-25073D01*
X12138Y-25604D02*
X13147Y-25604D01*
X11845Y-25311D02*
X12138Y-25604D01*
X27726Y-4747D02*
X27726Y-6121D01*
X27601Y-4622D02*
X27726Y-4747D01*
X20226Y-4747D02*
X20226Y-6121D01*
X20101Y-4622D02*
X20226Y-4747D01*
X12601Y-5602D02*
X12726Y-5727D01*
X12601Y-4621D02*
X12601Y-5602D01*
X12726Y-6121D02*
X12726Y-5727D01*
X20101Y-28202D02*
X20126Y-28227D01*
X20101Y-27120D02*
X20101Y-28202D01*
X20126Y-28620D02*
X20126Y-28227D01*
X4692Y-6361D02*
X4933Y-6121D01*
X4664Y-6361D02*
X4692Y-6361D01*
X5226Y-6121D02*
X4933Y-6121D01*
X12601Y-28102D02*
X12726Y-28227D01*
X12601Y-27120D02*
X12601Y-28102D01*
X12726Y-28620D02*
X12726Y-28227D01*
X20101Y-16639D02*
X20226Y-16514D01*
X20101Y-19620D02*
X20101Y-16639D01*
X20226Y-16120D02*
X20226Y-16514D01*
X12601Y-16639D02*
X12726Y-16514D01*
X12601Y-19620D02*
X12601Y-16639D01*
X12726Y-16120D02*
X12726Y-16514D01*
X18777Y-20772D02*
X20726Y-20772D01*
X17306Y-22243D02*
X18777Y-20772D01*
G54D31*
X18101Y-1621D02*
X17547Y-1621D01*
X10601Y-1621D02*
X10601Y-2224D01*
X16943Y-2224D02*
X10601Y-2224D01*
X17547Y-1621D02*
X16943Y-2224D01*
X6476Y-4621D02*
X6299Y-4621D01*
X11771Y-20434D02*
X11771Y-20888D01*
X4579Y-3099D02*
X3101Y-1621D01*
X4579Y-4053D02*
X4579Y-3099D01*
X4472Y-4160D02*
X4579Y-4053D01*
X4472Y-4882D02*
X4472Y-4160D01*
X4840Y-5250D02*
X4472Y-4882D01*
X5670Y-5250D02*
X4840Y-5250D01*
X6299Y-4621D02*
X5670Y-5250D01*
X6535Y-1952D02*
X6535Y-2449D01*
X7324Y-1162D02*
X6535Y-1952D01*
X8183Y-1162D02*
X7324Y-1162D01*
X8396Y-1375D02*
X8183Y-1162D01*
X8396Y-3660D02*
X8396Y-1375D01*
X8884Y-4148D02*
X8396Y-3660D01*
X9328Y-4148D02*
X8884Y-4148D01*
X9686Y-3790D02*
X9328Y-4148D01*
X9686Y-3139D02*
X9686Y-3790D01*
X10601Y-2224D02*
X9686Y-3139D01*
X6535Y-4108D02*
X6476Y-4167D01*
X6535Y-2449D02*
X6535Y-4108D01*
X6476Y-4621D02*
X6476Y-4167D01*
X8901Y-23145D02*
X8901Y-23299D01*
X8901Y-23299D02*
X8901Y-23499D01*
X8558Y-23299D02*
X8355Y-23095D01*
X8901Y-23299D02*
X8558Y-23299D01*
X7901Y-23095D02*
X8355Y-23095D01*
X16285Y-20441D02*
X16616Y-20441D01*
X15692Y-19847D02*
X16285Y-20441D01*
X15301Y-20238D02*
X15692Y-19847D01*
X17349Y-22731D02*
X17355Y-22737D01*
X16990Y-22731D02*
X17349Y-22731D01*
X16915Y-22807D02*
X16990Y-22731D01*
X20726Y-21722D02*
X20372Y-21722D01*
X22226Y-23472D02*
X21872Y-23472D01*
X20247Y-21847D02*
X21872Y-23472D01*
X19357Y-22737D02*
X20247Y-21847D01*
X17355Y-22737D02*
X19357Y-22737D01*
X20247Y-21847D02*
X20372Y-21722D01*
X17306Y-23198D02*
X16915Y-22807D01*
X12342Y-21798D02*
X11951Y-21407D01*
X12537Y-24339D02*
X12787Y-24089D01*
X10094Y-24339D02*
X12537Y-24339D01*
X9255Y-23499D02*
X10094Y-24339D01*
X8901Y-23499D02*
X9255Y-23499D01*
X12787Y-24089D02*
X13178Y-23698D01*
X12342Y-21798D02*
X12733Y-22189D01*
X14515Y-25034D02*
X14687Y-25034D01*
X14292Y-24811D02*
X14515Y-25034D01*
X15078Y-25425D02*
X14687Y-25034D01*
X14149Y-24955D02*
X14275Y-24828D01*
X13901Y-25202D02*
X14149Y-24955D01*
X14275Y-24828D02*
X14292Y-24811D01*
X12733Y-22189D02*
X12733Y-22189D01*
X12733Y-22268D02*
X12733Y-22189D01*
X13178Y-22713D02*
X12733Y-22268D01*
X13178Y-23698D02*
X13178Y-22713D01*
X14275Y-24795D02*
X13178Y-23698D01*
X14275Y-24828D02*
X14275Y-24795D01*
X8944Y-19465D02*
X7225Y-17746D01*
X8944Y-20357D02*
X8944Y-19465D01*
X9847Y-21261D02*
X8944Y-20357D01*
X11124Y-21261D02*
X9847Y-21261D01*
X11322Y-21063D02*
X11124Y-21261D01*
X11771Y-21063D02*
X11322Y-21063D01*
X11771Y-21134D02*
X11771Y-21063D01*
X11951Y-21313D02*
X11771Y-21134D01*
X11951Y-21407D02*
X11951Y-21313D01*
X11771Y-21063D02*
X11771Y-20888D01*
G54D10*
G36*
X7230Y-5414D02*
X7146Y-5498D01*
X7098Y-5571D01*
X7026Y-5571D01*
X6934Y-5608D01*
X6864Y-5679D01*
X6826Y-5771D01*
X6826Y-5870D01*
X6826Y-6220D01*
X6864Y-6312D01*
X6922Y-6371D01*
X6864Y-6429D01*
X6826Y-6521D01*
X6826Y-6620D01*
X6826Y-6970D01*
X6864Y-7062D01*
X6891Y-7089D01*
X6356Y-7625D01*
X6356Y-6604D01*
X6346Y-6554D01*
X6363Y-6537D01*
X6401Y-6446D01*
X6401Y-6346D01*
X6401Y-5796D01*
X6363Y-5704D01*
X6293Y-5634D01*
X6201Y-5596D01*
X6101Y-5596D01*
X5751Y-5596D01*
X5659Y-5633D01*
X5601Y-5692D01*
X5543Y-5634D01*
X5461Y-5600D01*
X5670Y-5600D01*
X5804Y-5573D01*
X5804Y-5573D01*
X5917Y-5497D01*
X6269Y-5146D01*
X6350Y-5146D01*
X6700Y-5146D01*
X6792Y-5108D01*
X6851Y-5049D01*
X6909Y-5108D01*
X7001Y-5146D01*
X7113Y-5146D01*
X7176Y-5083D01*
X7176Y-4671D01*
X7168Y-4671D01*
X7168Y-4571D01*
X7176Y-4571D01*
X7176Y-4563D01*
X7230Y-4563D01*
X7230Y-5414D01*
X7230Y-5414D01*
G37*
G54D32*
X7230Y-5414D02*
X7146Y-5498D01*
X7098Y-5571D01*
X7026Y-5571D01*
X6934Y-5608D01*
X6864Y-5679D01*
X6826Y-5771D01*
X6826Y-5870D01*
X6826Y-6220D01*
X6864Y-6312D01*
X6922Y-6371D01*
X6864Y-6429D01*
X6826Y-6521D01*
X6826Y-6620D01*
X6826Y-6970D01*
X6864Y-7062D01*
X6891Y-7089D01*
X6356Y-7625D01*
X6356Y-6604D01*
X6346Y-6554D01*
X6363Y-6537D01*
X6401Y-6446D01*
X6401Y-6346D01*
X6401Y-5796D01*
X6363Y-5704D01*
X6293Y-5634D01*
X6201Y-5596D01*
X6101Y-5596D01*
X5751Y-5596D01*
X5659Y-5633D01*
X5601Y-5692D01*
X5543Y-5634D01*
X5461Y-5600D01*
X5670Y-5600D01*
X5804Y-5573D01*
X5804Y-5573D01*
X5917Y-5497D01*
X6269Y-5146D01*
X6350Y-5146D01*
X6700Y-5146D01*
X6792Y-5108D01*
X6851Y-5049D01*
X6909Y-5108D01*
X7001Y-5146D01*
X7113Y-5146D01*
X7176Y-5083D01*
X7176Y-4671D01*
X7168Y-4671D01*
X7168Y-4571D01*
X7176Y-4571D01*
X7176Y-4563D01*
X7230Y-4563D01*
X7230Y-5414D01*
G54D10*
G36*
X7922Y-6371D02*
X7864Y-6429D01*
X7851Y-6460D01*
X7838Y-6429D01*
X7779Y-6371D01*
X7838Y-6312D01*
X7851Y-6281D01*
X7864Y-6312D01*
X7922Y-6371D01*
X7922Y-6371D01*
G37*
G54D32*
X7922Y-6371D02*
X7864Y-6429D01*
X7851Y-6460D01*
X7838Y-6429D01*
X7779Y-6371D01*
X7838Y-6312D01*
X7851Y-6281D01*
X7864Y-6312D01*
X7922Y-6371D01*
G54D10*
G36*
X13187Y-15622D02*
X13159Y-15633D01*
X13101Y-15692D01*
X13043Y-15634D01*
X12951Y-15595D01*
X12851Y-15595D01*
X12501Y-15595D01*
X12409Y-15633D01*
X12339Y-15704D01*
X12301Y-15795D01*
X12301Y-15895D01*
X12301Y-16445D01*
X12335Y-16526D01*
X12334Y-16528D01*
X12312Y-16639D01*
X12312Y-18983D01*
X12205Y-19027D01*
X12136Y-19095D01*
X12136Y-18415D01*
X11979Y-18035D01*
X11688Y-17743D01*
X11308Y-17586D01*
X10896Y-17585D01*
X10801Y-17624D01*
X10801Y-12982D01*
X10695Y-12725D01*
X10498Y-12527D01*
X10241Y-12421D01*
X9962Y-12420D01*
X9705Y-12527D01*
X9686Y-12546D01*
X9686Y-11005D01*
X9597Y-10790D01*
X9433Y-10625D01*
X9218Y-10536D01*
X8985Y-10535D01*
X8770Y-10624D01*
X8605Y-10789D01*
X8516Y-11004D01*
X8516Y-11236D01*
X8605Y-11452D01*
X8769Y-11616D01*
X8984Y-11705D01*
X9217Y-11706D01*
X9432Y-11617D01*
X9597Y-11452D01*
X9686Y-11237D01*
X9686Y-11005D01*
X9686Y-12546D01*
X9508Y-12724D01*
X9401Y-12981D01*
X9401Y-13259D01*
X9507Y-13517D01*
X9704Y-13714D01*
X9961Y-13820D01*
X10240Y-13821D01*
X10497Y-13714D01*
X10694Y-13518D01*
X10801Y-13260D01*
X10801Y-12982D01*
X10801Y-17624D01*
X10515Y-17742D01*
X10224Y-18033D01*
X10066Y-18414D01*
X10066Y-18825D01*
X10223Y-19206D01*
X10514Y-19497D01*
X10894Y-19655D01*
X11306Y-19656D01*
X11686Y-19498D01*
X11978Y-19207D01*
X12136Y-18827D01*
X12136Y-18415D01*
X12136Y-19095D01*
X12008Y-19223D01*
X11901Y-19481D01*
X11901Y-19759D01*
X11963Y-19909D01*
X11896Y-19909D01*
X11546Y-19909D01*
X11455Y-19947D01*
X11396Y-20005D01*
X11337Y-19947D01*
X11245Y-19909D01*
X11133Y-19909D01*
X11071Y-19971D01*
X11071Y-20384D01*
X11079Y-20384D01*
X11079Y-20484D01*
X11071Y-20484D01*
X11071Y-20492D01*
X10971Y-20492D01*
X10971Y-20484D01*
X10963Y-20484D01*
X10963Y-20384D01*
X10971Y-20384D01*
X10971Y-19971D01*
X10908Y-19909D01*
X10796Y-19909D01*
X10705Y-19947D01*
X10634Y-20017D01*
X10596Y-20109D01*
X10596Y-20126D01*
X10498Y-20027D01*
X10241Y-19920D01*
X9962Y-19920D01*
X9705Y-20027D01*
X9508Y-20223D01*
X9448Y-20367D01*
X9294Y-20212D01*
X9294Y-19465D01*
X9294Y-19465D01*
X9294Y-19465D01*
X9267Y-19331D01*
X9191Y-19218D01*
X9191Y-19218D01*
X9179Y-19205D01*
X9217Y-19205D01*
X9432Y-19117D01*
X9597Y-18952D01*
X9686Y-18737D01*
X9686Y-18505D01*
X9597Y-18289D01*
X9433Y-18125D01*
X9218Y-18035D01*
X8985Y-18035D01*
X8770Y-18124D01*
X8605Y-18289D01*
X8516Y-18503D01*
X8516Y-18543D01*
X7834Y-17860D01*
X7834Y-15841D01*
X7823Y-15601D01*
X7751Y-15426D01*
X7650Y-15392D01*
X7579Y-15463D01*
X7579Y-15321D01*
X7545Y-15220D01*
X7319Y-15138D01*
X7079Y-15148D01*
X6904Y-15220D01*
X6870Y-15321D01*
X7225Y-15676D01*
X7579Y-15321D01*
X7579Y-15463D01*
X7295Y-15746D01*
X7650Y-16101D01*
X7751Y-16067D01*
X7834Y-15841D01*
X7834Y-17860D01*
X7829Y-17856D01*
X7829Y-17627D01*
X7737Y-17404D01*
X7579Y-17246D01*
X7737Y-17089D01*
X7829Y-16867D01*
X7829Y-16627D01*
X7737Y-16404D01*
X7567Y-16234D01*
X7559Y-16231D01*
X7579Y-16172D01*
X7225Y-15817D01*
X6870Y-16172D01*
X6890Y-16231D01*
X6883Y-16234D01*
X6745Y-16371D01*
X6745Y-16083D01*
X6799Y-16101D01*
X7154Y-15746D01*
X6799Y-15392D01*
X6745Y-15410D01*
X6745Y-8054D01*
X7555Y-7243D01*
X7555Y-7243D01*
X7597Y-7181D01*
X7604Y-7171D01*
X7604Y-7171D01*
X7675Y-7171D01*
X7767Y-7133D01*
X7838Y-7062D01*
X7851Y-7031D01*
X7864Y-7062D01*
X7934Y-7132D01*
X8026Y-7171D01*
X8082Y-7171D01*
X8084Y-7178D01*
X8146Y-7271D01*
X10960Y-10085D01*
X10896Y-10085D01*
X10515Y-10243D01*
X10224Y-10534D01*
X10066Y-10914D01*
X10066Y-11326D01*
X10223Y-11706D01*
X10514Y-11997D01*
X10894Y-12155D01*
X11306Y-12156D01*
X11686Y-11999D01*
X11978Y-11708D01*
X12136Y-11327D01*
X12136Y-11261D01*
X12344Y-11469D01*
X12205Y-11527D01*
X12008Y-11724D01*
X11901Y-11981D01*
X11901Y-12259D01*
X12007Y-12517D01*
X12204Y-12714D01*
X12312Y-12758D01*
X12312Y-13270D01*
X12301Y-13296D01*
X12301Y-13395D01*
X12301Y-13945D01*
X12339Y-14037D01*
X12409Y-14107D01*
X12501Y-14146D01*
X12600Y-14146D01*
X12950Y-14146D01*
X13042Y-14108D01*
X13101Y-14049D01*
X13159Y-14107D01*
X13187Y-14119D01*
X13187Y-15622D01*
X13187Y-15622D01*
G37*
G54D32*
X13187Y-15622D02*
X13159Y-15633D01*
X13101Y-15692D01*
X13043Y-15634D01*
X12951Y-15595D01*
X12851Y-15595D01*
X12501Y-15595D01*
X12409Y-15633D01*
X12339Y-15704D01*
X12301Y-15795D01*
X12301Y-15895D01*
X12301Y-16445D01*
X12335Y-16526D01*
X12334Y-16528D01*
X12312Y-16639D01*
X12312Y-18983D01*
X12205Y-19027D01*
X12136Y-19095D01*
X12136Y-18415D01*
X11979Y-18035D01*
X11688Y-17743D01*
X11308Y-17586D01*
X10896Y-17585D01*
X10801Y-17624D01*
X10801Y-12982D01*
X10695Y-12725D01*
X10498Y-12527D01*
X10241Y-12421D01*
X9962Y-12420D01*
X9705Y-12527D01*
X9686Y-12546D01*
X9686Y-11005D01*
X9597Y-10790D01*
X9433Y-10625D01*
X9218Y-10536D01*
X8985Y-10535D01*
X8770Y-10624D01*
X8605Y-10789D01*
X8516Y-11004D01*
X8516Y-11236D01*
X8605Y-11452D01*
X8769Y-11616D01*
X8984Y-11705D01*
X9217Y-11706D01*
X9432Y-11617D01*
X9597Y-11452D01*
X9686Y-11237D01*
X9686Y-11005D01*
X9686Y-12546D01*
X9508Y-12724D01*
X9401Y-12981D01*
X9401Y-13259D01*
X9507Y-13517D01*
X9704Y-13714D01*
X9961Y-13820D01*
X10240Y-13821D01*
X10497Y-13714D01*
X10694Y-13518D01*
X10801Y-13260D01*
X10801Y-12982D01*
X10801Y-17624D01*
X10515Y-17742D01*
X10224Y-18033D01*
X10066Y-18414D01*
X10066Y-18825D01*
X10223Y-19206D01*
X10514Y-19497D01*
X10894Y-19655D01*
X11306Y-19656D01*
X11686Y-19498D01*
X11978Y-19207D01*
X12136Y-18827D01*
X12136Y-18415D01*
X12136Y-19095D01*
X12008Y-19223D01*
X11901Y-19481D01*
X11901Y-19759D01*
X11963Y-19909D01*
X11896Y-19909D01*
X11546Y-19909D01*
X11455Y-19947D01*
X11396Y-20005D01*
X11337Y-19947D01*
X11245Y-19909D01*
X11133Y-19909D01*
X11071Y-19971D01*
X11071Y-20384D01*
X11079Y-20384D01*
X11079Y-20484D01*
X11071Y-20484D01*
X11071Y-20492D01*
X10971Y-20492D01*
X10971Y-20484D01*
X10963Y-20484D01*
X10963Y-20384D01*
X10971Y-20384D01*
X10971Y-19971D01*
X10908Y-19909D01*
X10796Y-19909D01*
X10705Y-19947D01*
X10634Y-20017D01*
X10596Y-20109D01*
X10596Y-20126D01*
X10498Y-20027D01*
X10241Y-19920D01*
X9962Y-19920D01*
X9705Y-20027D01*
X9508Y-20223D01*
X9448Y-20367D01*
X9294Y-20212D01*
X9294Y-19465D01*
X9294Y-19465D01*
X9294Y-19465D01*
X9267Y-19331D01*
X9191Y-19218D01*
X9191Y-19218D01*
X9179Y-19205D01*
X9217Y-19205D01*
X9432Y-19117D01*
X9597Y-18952D01*
X9686Y-18737D01*
X9686Y-18505D01*
X9597Y-18289D01*
X9433Y-18125D01*
X9218Y-18035D01*
X8985Y-18035D01*
X8770Y-18124D01*
X8605Y-18289D01*
X8516Y-18503D01*
X8516Y-18543D01*
X7834Y-17860D01*
X7834Y-15841D01*
X7823Y-15601D01*
X7751Y-15426D01*
X7650Y-15392D01*
X7579Y-15463D01*
X7579Y-15321D01*
X7545Y-15220D01*
X7319Y-15138D01*
X7079Y-15148D01*
X6904Y-15220D01*
X6870Y-15321D01*
X7225Y-15676D01*
X7579Y-15321D01*
X7579Y-15463D01*
X7295Y-15746D01*
X7650Y-16101D01*
X7751Y-16067D01*
X7834Y-15841D01*
X7834Y-17860D01*
X7829Y-17856D01*
X7829Y-17627D01*
X7737Y-17404D01*
X7579Y-17246D01*
X7737Y-17089D01*
X7829Y-16867D01*
X7829Y-16627D01*
X7737Y-16404D01*
X7567Y-16234D01*
X7559Y-16231D01*
X7579Y-16172D01*
X7225Y-15817D01*
X6870Y-16172D01*
X6890Y-16231D01*
X6883Y-16234D01*
X6745Y-16371D01*
X6745Y-16083D01*
X6799Y-16101D01*
X7154Y-15746D01*
X6799Y-15392D01*
X6745Y-15410D01*
X6745Y-8054D01*
X7555Y-7243D01*
X7555Y-7243D01*
X7597Y-7181D01*
X7604Y-7171D01*
X7604Y-7171D01*
X7675Y-7171D01*
X7767Y-7133D01*
X7838Y-7062D01*
X7851Y-7031D01*
X7864Y-7062D01*
X7934Y-7132D01*
X8026Y-7171D01*
X8082Y-7171D01*
X8084Y-7178D01*
X8146Y-7271D01*
X10960Y-10085D01*
X10896Y-10085D01*
X10515Y-10243D01*
X10224Y-10534D01*
X10066Y-10914D01*
X10066Y-11326D01*
X10223Y-11706D01*
X10514Y-11997D01*
X10894Y-12155D01*
X11306Y-12156D01*
X11686Y-11999D01*
X11978Y-11708D01*
X12136Y-11327D01*
X12136Y-11261D01*
X12344Y-11469D01*
X12205Y-11527D01*
X12008Y-11724D01*
X11901Y-11981D01*
X11901Y-12259D01*
X12007Y-12517D01*
X12204Y-12714D01*
X12312Y-12758D01*
X12312Y-13270D01*
X12301Y-13296D01*
X12301Y-13395D01*
X12301Y-13945D01*
X12339Y-14037D01*
X12409Y-14107D01*
X12501Y-14146D01*
X12600Y-14146D01*
X12950Y-14146D01*
X13042Y-14108D01*
X13101Y-14049D01*
X13159Y-14107D01*
X13187Y-14119D01*
X13187Y-15622D01*
G54D10*
G36*
X14735Y-19892D02*
X14602Y-20026D01*
X14597Y-20035D01*
X14573Y-19999D01*
X14466Y-19892D01*
X14735Y-19892D01*
X14735Y-19892D01*
G37*
G54D32*
X14735Y-19892D02*
X14602Y-20026D01*
X14597Y-20035D01*
X14573Y-19999D01*
X14466Y-19892D01*
X14735Y-19892D01*
G54D10*
G36*
X15570Y-22705D02*
X15461Y-22813D01*
X15393Y-22978D01*
X15393Y-23155D01*
X15461Y-23320D01*
X15568Y-23427D01*
X15561Y-23427D01*
X15397Y-23494D01*
X15271Y-23620D01*
X15203Y-23784D01*
X15203Y-23962D01*
X15271Y-24126D01*
X15332Y-24188D01*
X15349Y-24272D01*
X15297Y-24307D01*
X15225Y-24414D01*
X15218Y-24451D01*
X15181Y-24458D01*
X15074Y-24530D01*
X15002Y-24637D01*
X14993Y-24683D01*
X14933Y-24706D01*
X14934Y-24765D01*
X14895Y-24726D01*
X14874Y-24746D01*
X14821Y-24711D01*
X14687Y-24684D01*
X14660Y-24684D01*
X14539Y-24564D01*
X14529Y-24557D01*
X14523Y-24547D01*
X14523Y-24547D01*
X13528Y-23553D01*
X13528Y-22713D01*
X13501Y-22579D01*
X13501Y-22579D01*
X13426Y-22466D01*
X13066Y-22107D01*
X13056Y-22055D01*
X13020Y-22001D01*
X13041Y-21981D01*
X13029Y-21968D01*
X13135Y-21990D01*
X14041Y-21990D01*
X14672Y-22620D01*
X14672Y-22620D01*
X14734Y-22662D01*
X14765Y-22683D01*
X14765Y-22683D01*
X14876Y-22705D01*
X14876Y-22705D01*
X15570Y-22705D01*
X15570Y-22705D01*
G37*
G54D32*
X15570Y-22705D02*
X15461Y-22813D01*
X15393Y-22978D01*
X15393Y-23155D01*
X15461Y-23320D01*
X15568Y-23427D01*
X15561Y-23427D01*
X15397Y-23494D01*
X15271Y-23620D01*
X15203Y-23784D01*
X15203Y-23962D01*
X15271Y-24126D01*
X15332Y-24188D01*
X15349Y-24272D01*
X15297Y-24307D01*
X15225Y-24414D01*
X15218Y-24451D01*
X15181Y-24458D01*
X15074Y-24530D01*
X15002Y-24637D01*
X14993Y-24683D01*
X14933Y-24706D01*
X14934Y-24765D01*
X14895Y-24726D01*
X14874Y-24746D01*
X14821Y-24711D01*
X14687Y-24684D01*
X14660Y-24684D01*
X14539Y-24564D01*
X14529Y-24557D01*
X14523Y-24547D01*
X14523Y-24547D01*
X13528Y-23553D01*
X13528Y-22713D01*
X13501Y-22579D01*
X13501Y-22579D01*
X13426Y-22466D01*
X13066Y-22107D01*
X13056Y-22055D01*
X13020Y-22001D01*
X13041Y-21981D01*
X13029Y-21968D01*
X13135Y-21990D01*
X14041Y-21990D01*
X14672Y-22620D01*
X14672Y-22620D01*
X14734Y-22662D01*
X14765Y-22683D01*
X14765Y-22683D01*
X14876Y-22705D01*
X14876Y-22705D01*
X15570Y-22705D01*
G54D10*
G36*
X17881Y-34979D02*
X17741Y-34920D01*
X17462Y-34920D01*
X17205Y-35027D01*
X17186Y-35045D01*
X17186Y-33505D01*
X17097Y-33289D01*
X16933Y-33125D01*
X16718Y-33035D01*
X16485Y-33035D01*
X16270Y-33124D01*
X16105Y-33289D01*
X16016Y-33503D01*
X16016Y-33736D01*
X16105Y-33951D01*
X16269Y-34116D01*
X16484Y-34205D01*
X16717Y-34205D01*
X16932Y-34117D01*
X17097Y-33952D01*
X17186Y-33737D01*
X17186Y-33505D01*
X17186Y-35045D01*
X17008Y-35223D01*
X16963Y-35331D01*
X14580Y-35331D01*
X13385Y-34136D01*
X13432Y-34117D01*
X13597Y-33952D01*
X13686Y-33737D01*
X13686Y-33505D01*
X13597Y-33289D01*
X13433Y-33125D01*
X13218Y-33035D01*
X13086Y-33035D01*
X13086Y-30167D01*
X12929Y-29786D01*
X12638Y-29495D01*
X12258Y-29337D01*
X11846Y-29336D01*
X11465Y-29494D01*
X11174Y-29785D01*
X11016Y-30165D01*
X11016Y-30577D01*
X11173Y-30957D01*
X11464Y-31248D01*
X11844Y-31406D01*
X12256Y-31407D01*
X12636Y-31249D01*
X12928Y-30959D01*
X13086Y-30578D01*
X13086Y-30167D01*
X13086Y-33035D01*
X12985Y-33035D01*
X12770Y-33124D01*
X12605Y-33289D01*
X12516Y-33503D01*
X12516Y-33736D01*
X12524Y-33755D01*
X12373Y-33755D01*
X12262Y-33777D01*
X12168Y-33840D01*
X12103Y-33905D01*
X12136Y-33827D01*
X12136Y-33415D01*
X11979Y-33035D01*
X11688Y-32743D01*
X11308Y-32586D01*
X10896Y-32585D01*
X10515Y-32742D01*
X10224Y-33033D01*
X10066Y-33414D01*
X10066Y-33825D01*
X10223Y-34206D01*
X10514Y-34497D01*
X10894Y-34655D01*
X11306Y-34656D01*
X11386Y-34623D01*
X10721Y-35288D01*
X10695Y-35224D01*
X10498Y-35027D01*
X10241Y-34920D01*
X9962Y-34920D01*
X9705Y-35027D01*
X9508Y-35223D01*
X9463Y-35332D01*
X6989Y-35332D01*
X6945Y-35226D01*
X6748Y-35028D01*
X6491Y-34922D01*
X6212Y-34921D01*
X5955Y-35028D01*
X5758Y-35225D01*
X5651Y-35482D01*
X5651Y-35760D01*
X5757Y-36018D01*
X5954Y-36215D01*
X6211Y-36321D01*
X6490Y-36322D01*
X6747Y-36215D01*
X6944Y-36019D01*
X6989Y-35911D01*
X9464Y-35911D01*
X9507Y-36016D01*
X9704Y-36213D01*
X9961Y-36320D01*
X10240Y-36320D01*
X10497Y-36214D01*
X10694Y-36017D01*
X10739Y-35910D01*
X10797Y-35910D01*
X10797Y-35910D01*
X10908Y-35888D01*
X11002Y-35825D01*
X11950Y-34877D01*
X12007Y-35016D01*
X12204Y-35213D01*
X12461Y-35320D01*
X12740Y-35320D01*
X12847Y-35276D01*
X13187Y-35615D01*
X13187Y-35873D01*
X13159Y-35884D01*
X13089Y-35955D01*
X13051Y-36047D01*
X13051Y-36146D01*
X13051Y-36696D01*
X13089Y-36788D01*
X13159Y-36858D01*
X13251Y-36897D01*
X13350Y-36897D01*
X13357Y-36897D01*
X13248Y-36942D01*
X13122Y-37067D01*
X13054Y-37231D01*
X13054Y-37409D01*
X13122Y-37573D01*
X13247Y-37699D01*
X13412Y-37767D01*
X13589Y-37767D01*
X13754Y-37700D01*
X13879Y-37574D01*
X13937Y-37437D01*
X13937Y-43623D01*
X13909Y-43634D01*
X13851Y-43693D01*
X13793Y-43635D01*
X13765Y-43623D01*
X13765Y-42997D01*
X13743Y-42886D01*
X13743Y-42886D01*
X13722Y-42855D01*
X13680Y-42792D01*
X13680Y-42792D01*
X13257Y-42368D01*
X13301Y-42261D01*
X13301Y-41983D01*
X13195Y-41726D01*
X13176Y-41707D01*
X13217Y-41707D01*
X13432Y-41618D01*
X13597Y-41453D01*
X13686Y-41238D01*
X13686Y-41006D01*
X13597Y-40791D01*
X13433Y-40626D01*
X13218Y-40537D01*
X13086Y-40537D01*
X13086Y-37667D01*
X12929Y-37286D01*
X12638Y-36995D01*
X12632Y-36992D01*
X12771Y-36854D01*
X12901Y-36541D01*
X12901Y-36203D01*
X12772Y-35891D01*
X12533Y-35651D01*
X12221Y-35522D01*
X11883Y-35521D01*
X11570Y-35651D01*
X11331Y-35889D01*
X11201Y-36202D01*
X11201Y-36540D01*
X11330Y-36852D01*
X11469Y-36992D01*
X11465Y-36994D01*
X11174Y-37285D01*
X11148Y-37348D01*
X11148Y-37232D01*
X11080Y-37068D01*
X10954Y-36942D01*
X10790Y-36874D01*
X10612Y-36874D01*
X10448Y-36942D01*
X10322Y-37067D01*
X10254Y-37231D01*
X10254Y-37409D01*
X10322Y-37573D01*
X10447Y-37699D01*
X10612Y-37767D01*
X10789Y-37767D01*
X10954Y-37700D01*
X11036Y-37618D01*
X11016Y-37665D01*
X11016Y-38077D01*
X11173Y-38457D01*
X11464Y-38748D01*
X11844Y-38906D01*
X12256Y-38907D01*
X12636Y-38749D01*
X12928Y-38459D01*
X13086Y-38078D01*
X13086Y-37667D01*
X13086Y-40537D01*
X12985Y-40536D01*
X12770Y-40625D01*
X12605Y-40790D01*
X12516Y-41005D01*
X12516Y-41237D01*
X12592Y-41422D01*
X12462Y-41421D01*
X12205Y-41528D01*
X12136Y-41596D01*
X12136Y-40917D01*
X11979Y-40536D01*
X11688Y-40245D01*
X11308Y-40087D01*
X10896Y-40086D01*
X10515Y-40244D01*
X10224Y-40535D01*
X10066Y-40915D01*
X10066Y-41327D01*
X10223Y-41707D01*
X10514Y-41998D01*
X10894Y-42156D01*
X11306Y-42157D01*
X11686Y-41999D01*
X11978Y-41709D01*
X12136Y-41328D01*
X12136Y-40917D01*
X12136Y-41596D01*
X12008Y-41725D01*
X11901Y-41982D01*
X11901Y-42260D01*
X12007Y-42518D01*
X12204Y-42715D01*
X12461Y-42821D01*
X12740Y-42822D01*
X12847Y-42777D01*
X13187Y-43116D01*
X13187Y-43623D01*
X13159Y-43634D01*
X13089Y-43705D01*
X13051Y-43797D01*
X13051Y-43896D01*
X13051Y-44446D01*
X13053Y-44451D01*
X12673Y-44451D01*
X12771Y-44354D01*
X12901Y-44041D01*
X12901Y-43703D01*
X12772Y-43391D01*
X12533Y-43151D01*
X12221Y-43022D01*
X11883Y-43021D01*
X11570Y-43151D01*
X11331Y-43389D01*
X11201Y-43702D01*
X11201Y-44040D01*
X11330Y-44352D01*
X11428Y-44451D01*
X10801Y-44451D01*
X10801Y-42983D01*
X10695Y-42726D01*
X10498Y-42528D01*
X10241Y-42422D01*
X9962Y-42421D01*
X9948Y-42427D01*
X9948Y-37232D01*
X9880Y-37068D01*
X9754Y-36942D01*
X9590Y-36874D01*
X9412Y-36874D01*
X9248Y-36942D01*
X9122Y-37067D01*
X9054Y-37231D01*
X9054Y-37409D01*
X9122Y-37573D01*
X9247Y-37699D01*
X9412Y-37767D01*
X9589Y-37767D01*
X9754Y-37700D01*
X9879Y-37574D01*
X9948Y-37410D01*
X9948Y-37232D01*
X9948Y-42427D01*
X9705Y-42528D01*
X9508Y-42725D01*
X9463Y-42832D01*
X6989Y-42832D01*
X6945Y-42726D01*
X6748Y-42528D01*
X6491Y-42422D01*
X6212Y-42421D01*
X5955Y-42528D01*
X5758Y-42725D01*
X5651Y-42982D01*
X5651Y-43260D01*
X5757Y-43518D01*
X5954Y-43715D01*
X6211Y-43821D01*
X6490Y-43822D01*
X6747Y-43715D01*
X6944Y-43519D01*
X6989Y-43411D01*
X9463Y-43411D01*
X9507Y-43518D01*
X9704Y-43715D01*
X9961Y-43821D01*
X10240Y-43822D01*
X10497Y-43715D01*
X10694Y-43519D01*
X10801Y-43261D01*
X10801Y-42983D01*
X10801Y-44451D01*
X5399Y-44451D01*
X5401Y-44446D01*
X5401Y-44347D01*
X5401Y-43797D01*
X5367Y-43716D01*
X5368Y-43714D01*
X5368Y-43714D01*
X5390Y-43603D01*
X5390Y-43603D01*
X5390Y-42759D01*
X5497Y-42715D01*
X5694Y-42519D01*
X5739Y-42411D01*
X8213Y-42411D01*
X8257Y-42518D01*
X8454Y-42715D01*
X8711Y-42821D01*
X8990Y-42822D01*
X9247Y-42715D01*
X9444Y-42519D01*
X9551Y-42261D01*
X9551Y-41983D01*
X9445Y-41726D01*
X9426Y-41707D01*
X9467Y-41707D01*
X9682Y-41618D01*
X9847Y-41453D01*
X9936Y-41238D01*
X9936Y-41006D01*
X9847Y-40791D01*
X9683Y-40626D01*
X9468Y-40537D01*
X9235Y-40536D01*
X9226Y-40540D01*
X9218Y-40537D01*
X8985Y-40536D01*
X8770Y-40625D01*
X8748Y-40647D01*
X8748Y-37232D01*
X8680Y-37068D01*
X8554Y-36942D01*
X8390Y-36874D01*
X8212Y-36874D01*
X8048Y-36942D01*
X7922Y-37067D01*
X7854Y-37231D01*
X7854Y-37409D01*
X7922Y-37573D01*
X8047Y-37699D01*
X8212Y-37767D01*
X8389Y-37767D01*
X8554Y-37700D01*
X8679Y-37574D01*
X8748Y-37410D01*
X8748Y-37232D01*
X8748Y-40647D01*
X8605Y-40790D01*
X8516Y-41005D01*
X8516Y-41237D01*
X8605Y-41452D01*
X8614Y-41462D01*
X8455Y-41528D01*
X8258Y-41725D01*
X8213Y-41832D01*
X8104Y-41832D01*
X8228Y-41709D01*
X8386Y-41328D01*
X8386Y-40917D01*
X8229Y-40536D01*
X7938Y-40245D01*
X7558Y-40087D01*
X7448Y-40087D01*
X7448Y-37232D01*
X7380Y-37068D01*
X7254Y-36942D01*
X7090Y-36874D01*
X6912Y-36874D01*
X6748Y-36942D01*
X6622Y-37067D01*
X6554Y-37231D01*
X6554Y-37409D01*
X6622Y-37573D01*
X6747Y-37699D01*
X6912Y-37767D01*
X7089Y-37767D01*
X7254Y-37700D01*
X7379Y-37574D01*
X7448Y-37410D01*
X7448Y-37232D01*
X7448Y-40087D01*
X7146Y-40086D01*
X6765Y-40244D01*
X6474Y-40535D01*
X6316Y-40915D01*
X6316Y-41327D01*
X6473Y-41707D01*
X6598Y-41832D01*
X6248Y-41832D01*
X6248Y-37232D01*
X6180Y-37068D01*
X6054Y-36942D01*
X5890Y-36874D01*
X5712Y-36874D01*
X5548Y-36942D01*
X5422Y-37067D01*
X5354Y-37231D01*
X5354Y-37409D01*
X5422Y-37573D01*
X5547Y-37699D01*
X5712Y-37767D01*
X5889Y-37767D01*
X6054Y-37700D01*
X6179Y-37574D01*
X6248Y-37410D01*
X6248Y-37232D01*
X6248Y-41832D01*
X5739Y-41832D01*
X5695Y-41726D01*
X5676Y-41707D01*
X5717Y-41707D01*
X5932Y-41618D01*
X6097Y-41453D01*
X6186Y-41238D01*
X6186Y-41006D01*
X6097Y-40791D01*
X5933Y-40626D01*
X5718Y-40537D01*
X5485Y-40536D01*
X5476Y-40540D01*
X5468Y-40537D01*
X5235Y-40536D01*
X5020Y-40625D01*
X4855Y-40790D01*
X4795Y-40935D01*
X4795Y-36606D01*
X4851Y-36550D01*
X4909Y-36608D01*
X5001Y-36647D01*
X5100Y-36647D01*
X5450Y-36647D01*
X5542Y-36609D01*
X5613Y-36538D01*
X5651Y-36446D01*
X5651Y-36347D01*
X5651Y-35797D01*
X5613Y-35705D01*
X5543Y-35635D01*
X5515Y-35623D01*
X5515Y-35196D01*
X5694Y-35017D01*
X5738Y-34911D01*
X8213Y-34911D01*
X8257Y-35018D01*
X8454Y-35215D01*
X8711Y-35321D01*
X8990Y-35322D01*
X9247Y-35215D01*
X9444Y-35019D01*
X9551Y-34761D01*
X9551Y-34483D01*
X9445Y-34226D01*
X9426Y-34207D01*
X9467Y-34207D01*
X9682Y-34118D01*
X9847Y-33953D01*
X9936Y-33738D01*
X9936Y-33506D01*
X9847Y-33291D01*
X9683Y-33126D01*
X9468Y-33037D01*
X9235Y-33036D01*
X9228Y-33040D01*
X9218Y-33035D01*
X8985Y-33035D01*
X8770Y-33124D01*
X8605Y-33289D01*
X8516Y-33503D01*
X8516Y-33736D01*
X8605Y-33951D01*
X8615Y-33962D01*
X8455Y-34028D01*
X8258Y-34225D01*
X8213Y-34332D01*
X8104Y-34332D01*
X8228Y-34209D01*
X8386Y-33828D01*
X8386Y-33417D01*
X8229Y-33036D01*
X7938Y-32745D01*
X7558Y-32587D01*
X7146Y-32586D01*
X6765Y-32744D01*
X6474Y-33035D01*
X6316Y-33415D01*
X6316Y-33827D01*
X6473Y-34207D01*
X6598Y-34332D01*
X5739Y-34332D01*
X5695Y-34224D01*
X5676Y-34205D01*
X5717Y-34205D01*
X5932Y-34117D01*
X6097Y-33952D01*
X6186Y-33737D01*
X6186Y-33505D01*
X6097Y-33289D01*
X5933Y-33125D01*
X5718Y-33035D01*
X5485Y-33035D01*
X5475Y-33040D01*
X5468Y-33037D01*
X5235Y-33036D01*
X5020Y-33125D01*
X4855Y-33290D01*
X4822Y-33370D01*
X4822Y-32786D01*
X4979Y-32628D01*
X5105Y-32629D01*
X5269Y-32561D01*
X5395Y-32435D01*
X5463Y-32271D01*
X5464Y-32093D01*
X5396Y-31929D01*
X5270Y-31803D01*
X5106Y-31735D01*
X4928Y-31735D01*
X4764Y-31803D01*
X4638Y-31928D01*
X4570Y-32092D01*
X4570Y-32219D01*
X4328Y-32461D01*
X4265Y-32555D01*
X4243Y-32666D01*
X4243Y-32799D01*
X4188Y-32743D01*
X3808Y-32586D01*
X3686Y-32585D01*
X3686Y-30167D01*
X3529Y-29786D01*
X3301Y-29558D01*
X3301Y-27982D01*
X3195Y-27724D01*
X2998Y-27527D01*
X2741Y-27420D01*
X2462Y-27420D01*
X2205Y-27527D01*
X2186Y-27545D01*
X2186Y-26005D01*
X2097Y-25789D01*
X1933Y-25625D01*
X1718Y-25535D01*
X1485Y-25535D01*
X1270Y-25624D01*
X1105Y-25789D01*
X1016Y-26003D01*
X1016Y-26236D01*
X1105Y-26451D01*
X1269Y-26616D01*
X1484Y-26705D01*
X1717Y-26705D01*
X1932Y-26617D01*
X2097Y-26452D01*
X2186Y-26237D01*
X2186Y-26005D01*
X2186Y-27545D01*
X2008Y-27723D01*
X1901Y-27981D01*
X1901Y-28259D01*
X2007Y-28516D01*
X2204Y-28713D01*
X2461Y-28820D01*
X2740Y-28820D01*
X2997Y-28714D01*
X3194Y-28517D01*
X3301Y-28260D01*
X3301Y-27982D01*
X3301Y-29558D01*
X3238Y-29495D01*
X2858Y-29337D01*
X2446Y-29336D01*
X2065Y-29494D01*
X1774Y-29785D01*
X1616Y-30165D01*
X1616Y-30577D01*
X1773Y-30957D01*
X2064Y-31248D01*
X2444Y-31406D01*
X2856Y-31407D01*
X3236Y-31249D01*
X3528Y-30959D01*
X3686Y-30578D01*
X3686Y-30167D01*
X3686Y-32585D01*
X3396Y-32585D01*
X3015Y-32742D01*
X2724Y-33033D01*
X2566Y-33414D01*
X2566Y-33825D01*
X2723Y-34206D01*
X3014Y-34497D01*
X3394Y-34655D01*
X3806Y-34656D01*
X4186Y-34498D01*
X4243Y-34442D01*
X4243Y-35566D01*
X4212Y-35613D01*
X4159Y-35634D01*
X4089Y-35705D01*
X4051Y-35797D01*
X4051Y-35896D01*
X4051Y-36446D01*
X4089Y-36538D01*
X4159Y-36608D01*
X4212Y-36630D01*
X4216Y-36637D01*
X4216Y-37004D01*
X4154Y-36942D01*
X3990Y-36874D01*
X3812Y-36874D01*
X3648Y-36942D01*
X3522Y-37067D01*
X3460Y-37217D01*
X3238Y-36995D01*
X3232Y-36992D01*
X3371Y-36854D01*
X3501Y-36541D01*
X3501Y-36203D01*
X3372Y-35891D01*
X3283Y-35802D01*
X3301Y-35760D01*
X3301Y-35482D01*
X3195Y-35224D01*
X2998Y-35027D01*
X2741Y-34920D01*
X2462Y-34920D01*
X2205Y-35027D01*
X2186Y-35045D01*
X2186Y-33505D01*
X2097Y-33289D01*
X1933Y-33125D01*
X1718Y-33035D01*
X1485Y-33035D01*
X1270Y-33124D01*
X1105Y-33289D01*
X1016Y-33503D01*
X1016Y-33736D01*
X1105Y-33951D01*
X1269Y-34116D01*
X1484Y-34205D01*
X1717Y-34205D01*
X1932Y-34117D01*
X2097Y-33952D01*
X2186Y-33737D01*
X2186Y-33505D01*
X2186Y-35045D01*
X2008Y-35223D01*
X1901Y-35481D01*
X1901Y-35759D01*
X1948Y-35873D01*
X1931Y-35889D01*
X1801Y-36202D01*
X1801Y-36540D01*
X1930Y-36852D01*
X2069Y-36992D01*
X2065Y-36994D01*
X1774Y-37285D01*
X1616Y-37665D01*
X1616Y-38077D01*
X1773Y-38457D01*
X2064Y-38748D01*
X2444Y-38906D01*
X2856Y-38907D01*
X3236Y-38749D01*
X3528Y-38459D01*
X3686Y-38078D01*
X3686Y-37715D01*
X3812Y-37767D01*
X3989Y-37767D01*
X4154Y-37700D01*
X4216Y-37637D01*
X4216Y-40273D01*
X4188Y-40245D01*
X3808Y-40087D01*
X3396Y-40086D01*
X3015Y-40244D01*
X2724Y-40535D01*
X2566Y-40915D01*
X2566Y-41327D01*
X2723Y-41707D01*
X3014Y-41998D01*
X3394Y-42156D01*
X3806Y-42157D01*
X4186Y-41999D01*
X4216Y-41970D01*
X4216Y-43329D01*
X4021Y-43524D01*
X3962Y-43613D01*
X3909Y-43634D01*
X3839Y-43705D01*
X3801Y-43797D01*
X3801Y-43896D01*
X3801Y-44446D01*
X3803Y-44451D01*
X3273Y-44451D01*
X3371Y-44354D01*
X3501Y-44041D01*
X3501Y-43703D01*
X3372Y-43391D01*
X3284Y-43302D01*
X3301Y-43261D01*
X3301Y-42983D01*
X3195Y-42726D01*
X2998Y-42528D01*
X2741Y-42422D01*
X2462Y-42421D01*
X2205Y-42528D01*
X2186Y-42547D01*
X2186Y-41006D01*
X2097Y-40791D01*
X1933Y-40626D01*
X1718Y-40537D01*
X1548Y-40537D01*
X1485Y-40536D01*
X1270Y-40625D01*
X1105Y-40790D01*
X1016Y-41005D01*
X1016Y-41237D01*
X1105Y-41452D01*
X1269Y-41617D01*
X1484Y-41706D01*
X1717Y-41707D01*
X1932Y-41618D01*
X2097Y-41453D01*
X2186Y-41238D01*
X2186Y-41006D01*
X2186Y-42547D01*
X2008Y-42725D01*
X1901Y-42982D01*
X1901Y-43260D01*
X1947Y-43373D01*
X1931Y-43389D01*
X1801Y-43702D01*
X1801Y-44040D01*
X1930Y-44352D01*
X2028Y-44451D01*
X795Y-44451D01*
X803Y-44429D01*
X790Y-44251D01*
X747Y-44146D01*
X662Y-44131D01*
X422Y-44372D01*
X427Y-44377D01*
X356Y-44448D01*
X351Y-44442D01*
X345Y-44448D01*
X275Y-44377D01*
X280Y-44372D01*
X275Y-44366D01*
X345Y-44295D01*
X351Y-44301D01*
X591Y-44060D01*
X577Y-43976D01*
X408Y-43920D01*
X270Y-43929D01*
X270Y-37316D01*
X294Y-37324D01*
X471Y-37311D01*
X577Y-37267D01*
X591Y-37183D01*
X637Y-37228D01*
X668Y-37197D01*
X654Y-37231D01*
X654Y-37409D01*
X722Y-37573D01*
X847Y-37699D01*
X1012Y-37767D01*
X1189Y-37767D01*
X1354Y-37700D01*
X1479Y-37574D01*
X1548Y-37410D01*
X1548Y-37232D01*
X1480Y-37068D01*
X1354Y-36942D01*
X1190Y-36874D01*
X1012Y-36874D01*
X848Y-36942D01*
X774Y-37016D01*
X803Y-36929D01*
X790Y-36751D01*
X747Y-36646D01*
X662Y-36631D01*
X422Y-36872D01*
X427Y-36877D01*
X356Y-36948D01*
X351Y-36942D01*
X345Y-36948D01*
X275Y-36877D01*
X280Y-36872D01*
X275Y-36866D01*
X345Y-36795D01*
X351Y-36801D01*
X591Y-36560D01*
X577Y-36476D01*
X408Y-36420D01*
X270Y-36429D01*
X270Y-23478D01*
X1601Y-23478D01*
X2074Y-23385D01*
X2474Y-23117D01*
X2742Y-22716D01*
X2836Y-22244D01*
X2742Y-21772D01*
X2474Y-21371D01*
X2295Y-21251D01*
X2461Y-21320D01*
X2740Y-21320D01*
X2997Y-21214D01*
X3194Y-21017D01*
X3301Y-20760D01*
X3301Y-20482D01*
X3195Y-20224D01*
X2998Y-20027D01*
X2741Y-19920D01*
X2462Y-19920D01*
X2205Y-20027D01*
X2186Y-20045D01*
X2186Y-18505D01*
X2097Y-18289D01*
X1933Y-18125D01*
X1718Y-18035D01*
X1485Y-18035D01*
X1270Y-18124D01*
X1105Y-18289D01*
X1016Y-18503D01*
X1016Y-18736D01*
X1105Y-18951D01*
X1269Y-19116D01*
X1484Y-19205D01*
X1717Y-19205D01*
X1932Y-19117D01*
X2097Y-18952D01*
X2186Y-18737D01*
X2186Y-18505D01*
X2186Y-20045D01*
X2008Y-20223D01*
X1901Y-20481D01*
X1901Y-20759D01*
X2007Y-21016D01*
X2135Y-21144D01*
X2074Y-21103D01*
X1601Y-21009D01*
X270Y-21009D01*
X270Y-766D01*
X294Y-774D01*
X471Y-761D01*
X577Y-717D01*
X591Y-633D01*
X351Y-392D01*
X345Y-398D01*
X275Y-327D01*
X280Y-322D01*
X275Y-316D01*
X345Y-245D01*
X351Y-251D01*
X356Y-245D01*
X427Y-316D01*
X422Y-322D01*
X662Y-562D01*
X747Y-547D01*
X803Y-379D01*
X793Y-240D01*
X4572Y-240D01*
X4572Y-1160D01*
X4543Y-1115D01*
X4340Y-980D01*
X4101Y-932D01*
X3862Y-980D01*
X3702Y-1087D01*
X3688Y-1054D01*
X3618Y-984D01*
X3526Y-946D01*
X3426Y-946D01*
X2676Y-946D01*
X2584Y-983D01*
X2514Y-1054D01*
X2476Y-1146D01*
X2476Y-1245D01*
X2476Y-2095D01*
X2514Y-2187D01*
X2584Y-2257D01*
X2676Y-2296D01*
X2775Y-2296D01*
X3281Y-2296D01*
X3571Y-2586D01*
X3396Y-2585D01*
X3015Y-2743D01*
X2724Y-3034D01*
X2566Y-3414D01*
X2566Y-3826D01*
X2723Y-4206D01*
X3014Y-4497D01*
X3394Y-4655D01*
X3806Y-4656D01*
X4122Y-4525D01*
X4122Y-4882D01*
X4149Y-5015D01*
X4224Y-5129D01*
X4593Y-5497D01*
X4706Y-5573D01*
X4706Y-5573D01*
X4840Y-5600D01*
X4991Y-5600D01*
X4909Y-5633D01*
X4839Y-5704D01*
X4801Y-5796D01*
X4801Y-5867D01*
X4731Y-5914D01*
X4731Y-5914D01*
X4576Y-5914D01*
X4411Y-5982D01*
X4286Y-6107D01*
X4217Y-6272D01*
X4217Y-6449D01*
X4271Y-6579D01*
X4214Y-6556D01*
X3989Y-6556D01*
X3781Y-6641D01*
X3622Y-6800D01*
X3536Y-7008D01*
X3536Y-7232D01*
X3622Y-7440D01*
X3780Y-7599D01*
X3988Y-7685D01*
X4213Y-7686D01*
X4420Y-7600D01*
X4580Y-7441D01*
X4666Y-7233D01*
X4666Y-7009D01*
X4583Y-6808D01*
X4753Y-6808D01*
X4917Y-6740D01*
X5012Y-6646D01*
X5100Y-6646D01*
X5450Y-6646D01*
X5542Y-6608D01*
X5601Y-6549D01*
X5659Y-6607D01*
X5712Y-6629D01*
X5771Y-6718D01*
X5777Y-6724D01*
X5777Y-10560D01*
X5718Y-10536D01*
X5485Y-10535D01*
X5270Y-10624D01*
X5105Y-10789D01*
X5016Y-11004D01*
X5016Y-11236D01*
X5092Y-11421D01*
X4962Y-11420D01*
X4705Y-11527D01*
X4636Y-11595D01*
X4636Y-10916D01*
X4479Y-10535D01*
X4188Y-10244D01*
X3808Y-10086D01*
X3396Y-10085D01*
X3301Y-10125D01*
X3301Y-5482D01*
X3195Y-5225D01*
X2998Y-5027D01*
X2741Y-4921D01*
X2462Y-4920D01*
X2205Y-5027D01*
X2186Y-5046D01*
X2186Y-3505D01*
X2097Y-3290D01*
X1933Y-3125D01*
X1718Y-3036D01*
X1485Y-3035D01*
X1270Y-3124D01*
X1105Y-3289D01*
X1016Y-3504D01*
X1016Y-3736D01*
X1105Y-3952D01*
X1269Y-4116D01*
X1484Y-4205D01*
X1717Y-4206D01*
X1932Y-4117D01*
X2097Y-3952D01*
X2186Y-3737D01*
X2186Y-3505D01*
X2186Y-5046D01*
X2008Y-5224D01*
X1901Y-5481D01*
X1901Y-5759D01*
X2007Y-6017D01*
X2204Y-6214D01*
X2461Y-6320D01*
X2740Y-6321D01*
X2997Y-6214D01*
X3194Y-6018D01*
X3301Y-5760D01*
X3301Y-5482D01*
X3301Y-10125D01*
X3015Y-10243D01*
X2724Y-10534D01*
X2566Y-10914D01*
X2566Y-11326D01*
X2723Y-11706D01*
X3014Y-11997D01*
X3394Y-12155D01*
X3806Y-12156D01*
X4186Y-11999D01*
X4478Y-11708D01*
X4636Y-11327D01*
X4636Y-10916D01*
X4636Y-11595D01*
X4508Y-11724D01*
X4401Y-11981D01*
X4401Y-12259D01*
X4507Y-12517D01*
X4704Y-12714D01*
X4937Y-12810D01*
X4937Y-13122D01*
X4909Y-13133D01*
X4839Y-13204D01*
X4801Y-13296D01*
X4801Y-13395D01*
X4801Y-13945D01*
X4839Y-14037D01*
X4909Y-14107D01*
X5001Y-14146D01*
X5100Y-14146D01*
X5450Y-14146D01*
X5542Y-14108D01*
X5601Y-14049D01*
X5659Y-14107D01*
X5712Y-14129D01*
X5765Y-14209D01*
X5765Y-18055D01*
X5718Y-18035D01*
X5485Y-18035D01*
X5270Y-18124D01*
X5105Y-18289D01*
X5016Y-18503D01*
X5016Y-18736D01*
X5092Y-18920D01*
X4962Y-18920D01*
X4705Y-19027D01*
X4636Y-19095D01*
X4636Y-18415D01*
X4479Y-18035D01*
X4188Y-17743D01*
X3808Y-17586D01*
X3396Y-17585D01*
X3301Y-17624D01*
X3301Y-12982D01*
X3195Y-12725D01*
X2998Y-12527D01*
X2741Y-12421D01*
X2462Y-12420D01*
X2205Y-12527D01*
X2186Y-12546D01*
X2186Y-11005D01*
X2097Y-10790D01*
X1933Y-10625D01*
X1718Y-10536D01*
X1666Y-10536D01*
X1666Y-7009D01*
X1580Y-6801D01*
X1421Y-6642D01*
X1214Y-6556D01*
X989Y-6556D01*
X781Y-6641D01*
X622Y-6800D01*
X536Y-7008D01*
X536Y-7232D01*
X622Y-7440D01*
X780Y-7599D01*
X988Y-7685D01*
X1213Y-7686D01*
X1420Y-7600D01*
X1580Y-7441D01*
X1666Y-7233D01*
X1666Y-7009D01*
X1666Y-10536D01*
X1485Y-10535D01*
X1270Y-10624D01*
X1105Y-10789D01*
X1016Y-11004D01*
X1016Y-11236D01*
X1105Y-11452D01*
X1269Y-11616D01*
X1484Y-11705D01*
X1717Y-11706D01*
X1932Y-11617D01*
X2097Y-11452D01*
X2186Y-11237D01*
X2186Y-11005D01*
X2186Y-12546D01*
X2008Y-12724D01*
X1901Y-12981D01*
X1901Y-13259D01*
X2007Y-13517D01*
X2204Y-13714D01*
X2461Y-13820D01*
X2740Y-13821D01*
X2997Y-13714D01*
X3194Y-13518D01*
X3301Y-13260D01*
X3301Y-12982D01*
X3301Y-17624D01*
X3015Y-17742D01*
X2724Y-18033D01*
X2566Y-18414D01*
X2566Y-18825D01*
X2723Y-19206D01*
X3014Y-19497D01*
X3394Y-19655D01*
X3806Y-19656D01*
X4186Y-19498D01*
X4478Y-19207D01*
X4636Y-18827D01*
X4636Y-18415D01*
X4636Y-19095D01*
X4508Y-19223D01*
X4401Y-19481D01*
X4401Y-19759D01*
X4507Y-20016D01*
X4704Y-20213D01*
X4937Y-20310D01*
X4937Y-20622D01*
X4909Y-20633D01*
X4839Y-20704D01*
X4801Y-20795D01*
X4801Y-20895D01*
X4801Y-21445D01*
X4839Y-21537D01*
X4909Y-21607D01*
X5001Y-21645D01*
X5100Y-21645D01*
X5450Y-21645D01*
X5542Y-21607D01*
X5601Y-21549D01*
X5659Y-21607D01*
X5712Y-21629D01*
X5771Y-21718D01*
X5784Y-21730D01*
X5784Y-25563D01*
X5718Y-25535D01*
X5485Y-25535D01*
X5270Y-25624D01*
X5105Y-25789D01*
X5016Y-26003D01*
X5016Y-26236D01*
X5092Y-26420D01*
X4962Y-26420D01*
X4705Y-26527D01*
X4636Y-26595D01*
X4636Y-25915D01*
X4479Y-25535D01*
X4188Y-25243D01*
X3808Y-25086D01*
X3396Y-25085D01*
X3015Y-25242D01*
X2724Y-25533D01*
X2566Y-25914D01*
X2566Y-26325D01*
X2723Y-26706D01*
X3014Y-26997D01*
X3394Y-27155D01*
X3806Y-27156D01*
X4186Y-26998D01*
X4478Y-26707D01*
X4636Y-26327D01*
X4636Y-25915D01*
X4636Y-26595D01*
X4508Y-26723D01*
X4401Y-26981D01*
X4401Y-27259D01*
X4507Y-27516D01*
X4704Y-27713D01*
X4937Y-27810D01*
X4937Y-28122D01*
X4909Y-28133D01*
X4839Y-28204D01*
X4801Y-28295D01*
X4801Y-28395D01*
X4801Y-28945D01*
X4839Y-29037D01*
X4909Y-29107D01*
X5001Y-29145D01*
X5100Y-29145D01*
X5450Y-29145D01*
X5542Y-29107D01*
X5601Y-29049D01*
X5624Y-29072D01*
X5622Y-29078D01*
X5622Y-29191D01*
X5533Y-29280D01*
X5465Y-29444D01*
X5465Y-29622D01*
X5533Y-29786D01*
X5658Y-29912D01*
X5822Y-29980D01*
X6000Y-29980D01*
X6165Y-29913D01*
X6290Y-29787D01*
X6359Y-29623D01*
X6359Y-29445D01*
X6291Y-29281D01*
X6201Y-29191D01*
X6201Y-29187D01*
X6201Y-29187D01*
X6240Y-29129D01*
X6240Y-29129D01*
X6292Y-29107D01*
X6363Y-29037D01*
X6401Y-28945D01*
X6401Y-28846D01*
X6401Y-28296D01*
X6363Y-28204D01*
X6350Y-28191D01*
X6362Y-28130D01*
X6362Y-28130D01*
X6362Y-22835D01*
X6399Y-22923D01*
X6524Y-23049D01*
X6688Y-23117D01*
X6866Y-23117D01*
X7031Y-23049D01*
X7156Y-22924D01*
X7225Y-22760D01*
X7225Y-22582D01*
X7157Y-22418D01*
X7031Y-22292D01*
X6867Y-22224D01*
X6745Y-22223D01*
X6745Y-21121D01*
X6882Y-21258D01*
X6935Y-21281D01*
X6935Y-21376D01*
X6957Y-21487D01*
X7020Y-21581D01*
X7441Y-22002D01*
X7414Y-22029D01*
X7376Y-22120D01*
X7376Y-22220D01*
X7376Y-22570D01*
X7414Y-22662D01*
X7472Y-22720D01*
X7414Y-22779D01*
X7376Y-22870D01*
X7376Y-22970D01*
X7376Y-23320D01*
X7414Y-23412D01*
X7484Y-23482D01*
X7576Y-23520D01*
X7626Y-23520D01*
X7576Y-23520D01*
X7484Y-23559D01*
X7414Y-23629D01*
X7376Y-23721D01*
X7376Y-23833D01*
X7438Y-23895D01*
X7851Y-23895D01*
X7851Y-23887D01*
X7951Y-23887D01*
X7951Y-23895D01*
X8363Y-23895D01*
X8426Y-23833D01*
X8438Y-23845D01*
X8851Y-23845D01*
X8851Y-23839D01*
X8901Y-23849D01*
X8959Y-23849D01*
X8959Y-23945D01*
X8951Y-23945D01*
X8951Y-24258D01*
X9013Y-24320D01*
X9126Y-24320D01*
X9226Y-24320D01*
X9318Y-24282D01*
X9388Y-24212D01*
X9413Y-24152D01*
X9667Y-24406D01*
X8399Y-24406D01*
X8388Y-24379D01*
X8329Y-24320D01*
X8388Y-24262D01*
X8411Y-24205D01*
X8414Y-24212D01*
X8484Y-24282D01*
X8576Y-24320D01*
X8675Y-24320D01*
X8788Y-24320D01*
X8851Y-24258D01*
X8851Y-23945D01*
X8438Y-23945D01*
X8376Y-24008D01*
X8363Y-23995D01*
X7951Y-23995D01*
X7951Y-24003D01*
X7851Y-24003D01*
X7851Y-23995D01*
X7438Y-23995D01*
X7376Y-24058D01*
X7376Y-24170D01*
X7414Y-24262D01*
X7472Y-24320D01*
X7414Y-24379D01*
X7376Y-24470D01*
X7376Y-24570D01*
X7376Y-24920D01*
X7414Y-25012D01*
X7484Y-25082D01*
X7576Y-25120D01*
X7675Y-25120D01*
X8225Y-25120D01*
X8317Y-25082D01*
X8388Y-25012D01*
X8399Y-24985D01*
X11539Y-24985D01*
X11466Y-25058D01*
X11433Y-25138D01*
X11308Y-25086D01*
X10896Y-25085D01*
X10515Y-25242D01*
X10224Y-25533D01*
X10066Y-25914D01*
X10066Y-26325D01*
X10223Y-26706D01*
X10514Y-26997D01*
X10894Y-27155D01*
X11306Y-27156D01*
X11686Y-26998D01*
X11978Y-26707D01*
X12136Y-26327D01*
X12136Y-25915D01*
X12126Y-25891D01*
X12138Y-25893D01*
X12138Y-25893D01*
X12562Y-25893D01*
X12516Y-26003D01*
X12516Y-26236D01*
X12592Y-26420D01*
X12462Y-26420D01*
X12205Y-26527D01*
X12008Y-26723D01*
X11901Y-26981D01*
X11901Y-27259D01*
X12007Y-27516D01*
X12204Y-27713D01*
X12312Y-27758D01*
X12312Y-28102D01*
X12334Y-28213D01*
X12335Y-28214D01*
X12301Y-28295D01*
X12301Y-28395D01*
X12301Y-28725D01*
X11115Y-28725D01*
X10757Y-28367D01*
X10801Y-28260D01*
X10801Y-27982D01*
X10695Y-27724D01*
X10498Y-27527D01*
X10241Y-27420D01*
X9962Y-27420D01*
X9705Y-27527D01*
X9686Y-27545D01*
X9686Y-26005D01*
X9597Y-25789D01*
X9433Y-25625D01*
X9218Y-25535D01*
X8985Y-25535D01*
X8770Y-25624D01*
X8605Y-25789D01*
X8516Y-26003D01*
X8516Y-26236D01*
X8605Y-26451D01*
X8769Y-26616D01*
X8984Y-26705D01*
X9217Y-26705D01*
X9432Y-26617D01*
X9597Y-26452D01*
X9686Y-26237D01*
X9686Y-26005D01*
X9686Y-27545D01*
X9508Y-27723D01*
X9401Y-27981D01*
X9401Y-28259D01*
X9507Y-28516D01*
X9704Y-28713D01*
X9961Y-28820D01*
X10240Y-28820D01*
X10347Y-28776D01*
X10790Y-29219D01*
X10790Y-29219D01*
X10884Y-29282D01*
X10995Y-29304D01*
X16707Y-29304D01*
X16707Y-29304D01*
X16818Y-29282D01*
X16911Y-29219D01*
X17355Y-28776D01*
X17461Y-28820D01*
X17509Y-28820D01*
X17491Y-28838D01*
X17429Y-28932D01*
X17407Y-29043D01*
X17407Y-34074D01*
X17429Y-34185D01*
X17491Y-34279D01*
X17881Y-34669D01*
X17881Y-34979D01*
X17881Y-34979D01*
G37*
G54D32*
X17881Y-34979D02*
X17741Y-34920D01*
X17462Y-34920D01*
X17205Y-35027D01*
X17186Y-35045D01*
X17186Y-33505D01*
X17097Y-33289D01*
X16933Y-33125D01*
X16718Y-33035D01*
X16485Y-33035D01*
X16270Y-33124D01*
X16105Y-33289D01*
X16016Y-33503D01*
X16016Y-33736D01*
X16105Y-33951D01*
X16269Y-34116D01*
X16484Y-34205D01*
X16717Y-34205D01*
X16932Y-34117D01*
X17097Y-33952D01*
X17186Y-33737D01*
X17186Y-33505D01*
X17186Y-35045D01*
X17008Y-35223D01*
X16963Y-35331D01*
X14580Y-35331D01*
X13385Y-34136D01*
X13432Y-34117D01*
X13597Y-33952D01*
X13686Y-33737D01*
X13686Y-33505D01*
X13597Y-33289D01*
X13433Y-33125D01*
X13218Y-33035D01*
X13086Y-33035D01*
X13086Y-30167D01*
X12929Y-29786D01*
X12638Y-29495D01*
X12258Y-29337D01*
X11846Y-29336D01*
X11465Y-29494D01*
X11174Y-29785D01*
X11016Y-30165D01*
X11016Y-30577D01*
X11173Y-30957D01*
X11464Y-31248D01*
X11844Y-31406D01*
X12256Y-31407D01*
X12636Y-31249D01*
X12928Y-30959D01*
X13086Y-30578D01*
X13086Y-30167D01*
X13086Y-33035D01*
X12985Y-33035D01*
X12770Y-33124D01*
X12605Y-33289D01*
X12516Y-33503D01*
X12516Y-33736D01*
X12524Y-33755D01*
X12373Y-33755D01*
X12262Y-33777D01*
X12168Y-33840D01*
X12103Y-33905D01*
X12136Y-33827D01*
X12136Y-33415D01*
X11979Y-33035D01*
X11688Y-32743D01*
X11308Y-32586D01*
X10896Y-32585D01*
X10515Y-32742D01*
X10224Y-33033D01*
X10066Y-33414D01*
X10066Y-33825D01*
X10223Y-34206D01*
X10514Y-34497D01*
X10894Y-34655D01*
X11306Y-34656D01*
X11386Y-34623D01*
X10721Y-35288D01*
X10695Y-35224D01*
X10498Y-35027D01*
X10241Y-34920D01*
X9962Y-34920D01*
X9705Y-35027D01*
X9508Y-35223D01*
X9463Y-35332D01*
X6989Y-35332D01*
X6945Y-35226D01*
X6748Y-35028D01*
X6491Y-34922D01*
X6212Y-34921D01*
X5955Y-35028D01*
X5758Y-35225D01*
X5651Y-35482D01*
X5651Y-35760D01*
X5757Y-36018D01*
X5954Y-36215D01*
X6211Y-36321D01*
X6490Y-36322D01*
X6747Y-36215D01*
X6944Y-36019D01*
X6989Y-35911D01*
X9464Y-35911D01*
X9507Y-36016D01*
X9704Y-36213D01*
X9961Y-36320D01*
X10240Y-36320D01*
X10497Y-36214D01*
X10694Y-36017D01*
X10739Y-35910D01*
X10797Y-35910D01*
X10797Y-35910D01*
X10908Y-35888D01*
X11002Y-35825D01*
X11950Y-34877D01*
X12007Y-35016D01*
X12204Y-35213D01*
X12461Y-35320D01*
X12740Y-35320D01*
X12847Y-35276D01*
X13187Y-35615D01*
X13187Y-35873D01*
X13159Y-35884D01*
X13089Y-35955D01*
X13051Y-36047D01*
X13051Y-36146D01*
X13051Y-36696D01*
X13089Y-36788D01*
X13159Y-36858D01*
X13251Y-36897D01*
X13350Y-36897D01*
X13357Y-36897D01*
X13248Y-36942D01*
X13122Y-37067D01*
X13054Y-37231D01*
X13054Y-37409D01*
X13122Y-37573D01*
X13247Y-37699D01*
X13412Y-37767D01*
X13589Y-37767D01*
X13754Y-37700D01*
X13879Y-37574D01*
X13937Y-37437D01*
X13937Y-43623D01*
X13909Y-43634D01*
X13851Y-43693D01*
X13793Y-43635D01*
X13765Y-43623D01*
X13765Y-42997D01*
X13743Y-42886D01*
X13743Y-42886D01*
X13722Y-42855D01*
X13680Y-42792D01*
X13680Y-42792D01*
X13257Y-42368D01*
X13301Y-42261D01*
X13301Y-41983D01*
X13195Y-41726D01*
X13176Y-41707D01*
X13217Y-41707D01*
X13432Y-41618D01*
X13597Y-41453D01*
X13686Y-41238D01*
X13686Y-41006D01*
X13597Y-40791D01*
X13433Y-40626D01*
X13218Y-40537D01*
X13086Y-40537D01*
X13086Y-37667D01*
X12929Y-37286D01*
X12638Y-36995D01*
X12632Y-36992D01*
X12771Y-36854D01*
X12901Y-36541D01*
X12901Y-36203D01*
X12772Y-35891D01*
X12533Y-35651D01*
X12221Y-35522D01*
X11883Y-35521D01*
X11570Y-35651D01*
X11331Y-35889D01*
X11201Y-36202D01*
X11201Y-36540D01*
X11330Y-36852D01*
X11469Y-36992D01*
X11465Y-36994D01*
X11174Y-37285D01*
X11148Y-37348D01*
X11148Y-37232D01*
X11080Y-37068D01*
X10954Y-36942D01*
X10790Y-36874D01*
X10612Y-36874D01*
X10448Y-36942D01*
X10322Y-37067D01*
X10254Y-37231D01*
X10254Y-37409D01*
X10322Y-37573D01*
X10447Y-37699D01*
X10612Y-37767D01*
X10789Y-37767D01*
X10954Y-37700D01*
X11036Y-37618D01*
X11016Y-37665D01*
X11016Y-38077D01*
X11173Y-38457D01*
X11464Y-38748D01*
X11844Y-38906D01*
X12256Y-38907D01*
X12636Y-38749D01*
X12928Y-38459D01*
X13086Y-38078D01*
X13086Y-37667D01*
X13086Y-40537D01*
X12985Y-40536D01*
X12770Y-40625D01*
X12605Y-40790D01*
X12516Y-41005D01*
X12516Y-41237D01*
X12592Y-41422D01*
X12462Y-41421D01*
X12205Y-41528D01*
X12136Y-41596D01*
X12136Y-40917D01*
X11979Y-40536D01*
X11688Y-40245D01*
X11308Y-40087D01*
X10896Y-40086D01*
X10515Y-40244D01*
X10224Y-40535D01*
X10066Y-40915D01*
X10066Y-41327D01*
X10223Y-41707D01*
X10514Y-41998D01*
X10894Y-42156D01*
X11306Y-42157D01*
X11686Y-41999D01*
X11978Y-41709D01*
X12136Y-41328D01*
X12136Y-40917D01*
X12136Y-41596D01*
X12008Y-41725D01*
X11901Y-41982D01*
X11901Y-42260D01*
X12007Y-42518D01*
X12204Y-42715D01*
X12461Y-42821D01*
X12740Y-42822D01*
X12847Y-42777D01*
X13187Y-43116D01*
X13187Y-43623D01*
X13159Y-43634D01*
X13089Y-43705D01*
X13051Y-43797D01*
X13051Y-43896D01*
X13051Y-44446D01*
X13053Y-44451D01*
X12673Y-44451D01*
X12771Y-44354D01*
X12901Y-44041D01*
X12901Y-43703D01*
X12772Y-43391D01*
X12533Y-43151D01*
X12221Y-43022D01*
X11883Y-43021D01*
X11570Y-43151D01*
X11331Y-43389D01*
X11201Y-43702D01*
X11201Y-44040D01*
X11330Y-44352D01*
X11428Y-44451D01*
X10801Y-44451D01*
X10801Y-42983D01*
X10695Y-42726D01*
X10498Y-42528D01*
X10241Y-42422D01*
X9962Y-42421D01*
X9948Y-42427D01*
X9948Y-37232D01*
X9880Y-37068D01*
X9754Y-36942D01*
X9590Y-36874D01*
X9412Y-36874D01*
X9248Y-36942D01*
X9122Y-37067D01*
X9054Y-37231D01*
X9054Y-37409D01*
X9122Y-37573D01*
X9247Y-37699D01*
X9412Y-37767D01*
X9589Y-37767D01*
X9754Y-37700D01*
X9879Y-37574D01*
X9948Y-37410D01*
X9948Y-37232D01*
X9948Y-42427D01*
X9705Y-42528D01*
X9508Y-42725D01*
X9463Y-42832D01*
X6989Y-42832D01*
X6945Y-42726D01*
X6748Y-42528D01*
X6491Y-42422D01*
X6212Y-42421D01*
X5955Y-42528D01*
X5758Y-42725D01*
X5651Y-42982D01*
X5651Y-43260D01*
X5757Y-43518D01*
X5954Y-43715D01*
X6211Y-43821D01*
X6490Y-43822D01*
X6747Y-43715D01*
X6944Y-43519D01*
X6989Y-43411D01*
X9463Y-43411D01*
X9507Y-43518D01*
X9704Y-43715D01*
X9961Y-43821D01*
X10240Y-43822D01*
X10497Y-43715D01*
X10694Y-43519D01*
X10801Y-43261D01*
X10801Y-42983D01*
X10801Y-44451D01*
X5399Y-44451D01*
X5401Y-44446D01*
X5401Y-44347D01*
X5401Y-43797D01*
X5367Y-43716D01*
X5368Y-43714D01*
X5368Y-43714D01*
X5390Y-43603D01*
X5390Y-43603D01*
X5390Y-42759D01*
X5497Y-42715D01*
X5694Y-42519D01*
X5739Y-42411D01*
X8213Y-42411D01*
X8257Y-42518D01*
X8454Y-42715D01*
X8711Y-42821D01*
X8990Y-42822D01*
X9247Y-42715D01*
X9444Y-42519D01*
X9551Y-42261D01*
X9551Y-41983D01*
X9445Y-41726D01*
X9426Y-41707D01*
X9467Y-41707D01*
X9682Y-41618D01*
X9847Y-41453D01*
X9936Y-41238D01*
X9936Y-41006D01*
X9847Y-40791D01*
X9683Y-40626D01*
X9468Y-40537D01*
X9235Y-40536D01*
X9226Y-40540D01*
X9218Y-40537D01*
X8985Y-40536D01*
X8770Y-40625D01*
X8748Y-40647D01*
X8748Y-37232D01*
X8680Y-37068D01*
X8554Y-36942D01*
X8390Y-36874D01*
X8212Y-36874D01*
X8048Y-36942D01*
X7922Y-37067D01*
X7854Y-37231D01*
X7854Y-37409D01*
X7922Y-37573D01*
X8047Y-37699D01*
X8212Y-37767D01*
X8389Y-37767D01*
X8554Y-37700D01*
X8679Y-37574D01*
X8748Y-37410D01*
X8748Y-37232D01*
X8748Y-40647D01*
X8605Y-40790D01*
X8516Y-41005D01*
X8516Y-41237D01*
X8605Y-41452D01*
X8614Y-41462D01*
X8455Y-41528D01*
X8258Y-41725D01*
X8213Y-41832D01*
X8104Y-41832D01*
X8228Y-41709D01*
X8386Y-41328D01*
X8386Y-40917D01*
X8229Y-40536D01*
X7938Y-40245D01*
X7558Y-40087D01*
X7448Y-40087D01*
X7448Y-37232D01*
X7380Y-37068D01*
X7254Y-36942D01*
X7090Y-36874D01*
X6912Y-36874D01*
X6748Y-36942D01*
X6622Y-37067D01*
X6554Y-37231D01*
X6554Y-37409D01*
X6622Y-37573D01*
X6747Y-37699D01*
X6912Y-37767D01*
X7089Y-37767D01*
X7254Y-37700D01*
X7379Y-37574D01*
X7448Y-37410D01*
X7448Y-37232D01*
X7448Y-40087D01*
X7146Y-40086D01*
X6765Y-40244D01*
X6474Y-40535D01*
X6316Y-40915D01*
X6316Y-41327D01*
X6473Y-41707D01*
X6598Y-41832D01*
X6248Y-41832D01*
X6248Y-37232D01*
X6180Y-37068D01*
X6054Y-36942D01*
X5890Y-36874D01*
X5712Y-36874D01*
X5548Y-36942D01*
X5422Y-37067D01*
X5354Y-37231D01*
X5354Y-37409D01*
X5422Y-37573D01*
X5547Y-37699D01*
X5712Y-37767D01*
X5889Y-37767D01*
X6054Y-37700D01*
X6179Y-37574D01*
X6248Y-37410D01*
X6248Y-37232D01*
X6248Y-41832D01*
X5739Y-41832D01*
X5695Y-41726D01*
X5676Y-41707D01*
X5717Y-41707D01*
X5932Y-41618D01*
X6097Y-41453D01*
X6186Y-41238D01*
X6186Y-41006D01*
X6097Y-40791D01*
X5933Y-40626D01*
X5718Y-40537D01*
X5485Y-40536D01*
X5476Y-40540D01*
X5468Y-40537D01*
X5235Y-40536D01*
X5020Y-40625D01*
X4855Y-40790D01*
X4795Y-40935D01*
X4795Y-36606D01*
X4851Y-36550D01*
X4909Y-36608D01*
X5001Y-36647D01*
X5100Y-36647D01*
X5450Y-36647D01*
X5542Y-36609D01*
X5613Y-36538D01*
X5651Y-36446D01*
X5651Y-36347D01*
X5651Y-35797D01*
X5613Y-35705D01*
X5543Y-35635D01*
X5515Y-35623D01*
X5515Y-35196D01*
X5694Y-35017D01*
X5738Y-34911D01*
X8213Y-34911D01*
X8257Y-35018D01*
X8454Y-35215D01*
X8711Y-35321D01*
X8990Y-35322D01*
X9247Y-35215D01*
X9444Y-35019D01*
X9551Y-34761D01*
X9551Y-34483D01*
X9445Y-34226D01*
X9426Y-34207D01*
X9467Y-34207D01*
X9682Y-34118D01*
X9847Y-33953D01*
X9936Y-33738D01*
X9936Y-33506D01*
X9847Y-33291D01*
X9683Y-33126D01*
X9468Y-33037D01*
X9235Y-33036D01*
X9228Y-33040D01*
X9218Y-33035D01*
X8985Y-33035D01*
X8770Y-33124D01*
X8605Y-33289D01*
X8516Y-33503D01*
X8516Y-33736D01*
X8605Y-33951D01*
X8615Y-33962D01*
X8455Y-34028D01*
X8258Y-34225D01*
X8213Y-34332D01*
X8104Y-34332D01*
X8228Y-34209D01*
X8386Y-33828D01*
X8386Y-33417D01*
X8229Y-33036D01*
X7938Y-32745D01*
X7558Y-32587D01*
X7146Y-32586D01*
X6765Y-32744D01*
X6474Y-33035D01*
X6316Y-33415D01*
X6316Y-33827D01*
X6473Y-34207D01*
X6598Y-34332D01*
X5739Y-34332D01*
X5695Y-34224D01*
X5676Y-34205D01*
X5717Y-34205D01*
X5932Y-34117D01*
X6097Y-33952D01*
X6186Y-33737D01*
X6186Y-33505D01*
X6097Y-33289D01*
X5933Y-33125D01*
X5718Y-33035D01*
X5485Y-33035D01*
X5475Y-33040D01*
X5468Y-33037D01*
X5235Y-33036D01*
X5020Y-33125D01*
X4855Y-33290D01*
X4822Y-33370D01*
X4822Y-32786D01*
X4979Y-32628D01*
X5105Y-32629D01*
X5269Y-32561D01*
X5395Y-32435D01*
X5463Y-32271D01*
X5464Y-32093D01*
X5396Y-31929D01*
X5270Y-31803D01*
X5106Y-31735D01*
X4928Y-31735D01*
X4764Y-31803D01*
X4638Y-31928D01*
X4570Y-32092D01*
X4570Y-32219D01*
X4328Y-32461D01*
X4265Y-32555D01*
X4243Y-32666D01*
X4243Y-32799D01*
X4188Y-32743D01*
X3808Y-32586D01*
X3686Y-32585D01*
X3686Y-30167D01*
X3529Y-29786D01*
X3301Y-29558D01*
X3301Y-27982D01*
X3195Y-27724D01*
X2998Y-27527D01*
X2741Y-27420D01*
X2462Y-27420D01*
X2205Y-27527D01*
X2186Y-27545D01*
X2186Y-26005D01*
X2097Y-25789D01*
X1933Y-25625D01*
X1718Y-25535D01*
X1485Y-25535D01*
X1270Y-25624D01*
X1105Y-25789D01*
X1016Y-26003D01*
X1016Y-26236D01*
X1105Y-26451D01*
X1269Y-26616D01*
X1484Y-26705D01*
X1717Y-26705D01*
X1932Y-26617D01*
X2097Y-26452D01*
X2186Y-26237D01*
X2186Y-26005D01*
X2186Y-27545D01*
X2008Y-27723D01*
X1901Y-27981D01*
X1901Y-28259D01*
X2007Y-28516D01*
X2204Y-28713D01*
X2461Y-28820D01*
X2740Y-28820D01*
X2997Y-28714D01*
X3194Y-28517D01*
X3301Y-28260D01*
X3301Y-27982D01*
X3301Y-29558D01*
X3238Y-29495D01*
X2858Y-29337D01*
X2446Y-29336D01*
X2065Y-29494D01*
X1774Y-29785D01*
X1616Y-30165D01*
X1616Y-30577D01*
X1773Y-30957D01*
X2064Y-31248D01*
X2444Y-31406D01*
X2856Y-31407D01*
X3236Y-31249D01*
X3528Y-30959D01*
X3686Y-30578D01*
X3686Y-30167D01*
X3686Y-32585D01*
X3396Y-32585D01*
X3015Y-32742D01*
X2724Y-33033D01*
X2566Y-33414D01*
X2566Y-33825D01*
X2723Y-34206D01*
X3014Y-34497D01*
X3394Y-34655D01*
X3806Y-34656D01*
X4186Y-34498D01*
X4243Y-34442D01*
X4243Y-35566D01*
X4212Y-35613D01*
X4159Y-35634D01*
X4089Y-35705D01*
X4051Y-35797D01*
X4051Y-35896D01*
X4051Y-36446D01*
X4089Y-36538D01*
X4159Y-36608D01*
X4212Y-36630D01*
X4216Y-36637D01*
X4216Y-37004D01*
X4154Y-36942D01*
X3990Y-36874D01*
X3812Y-36874D01*
X3648Y-36942D01*
X3522Y-37067D01*
X3460Y-37217D01*
X3238Y-36995D01*
X3232Y-36992D01*
X3371Y-36854D01*
X3501Y-36541D01*
X3501Y-36203D01*
X3372Y-35891D01*
X3283Y-35802D01*
X3301Y-35760D01*
X3301Y-35482D01*
X3195Y-35224D01*
X2998Y-35027D01*
X2741Y-34920D01*
X2462Y-34920D01*
X2205Y-35027D01*
X2186Y-35045D01*
X2186Y-33505D01*
X2097Y-33289D01*
X1933Y-33125D01*
X1718Y-33035D01*
X1485Y-33035D01*
X1270Y-33124D01*
X1105Y-33289D01*
X1016Y-33503D01*
X1016Y-33736D01*
X1105Y-33951D01*
X1269Y-34116D01*
X1484Y-34205D01*
X1717Y-34205D01*
X1932Y-34117D01*
X2097Y-33952D01*
X2186Y-33737D01*
X2186Y-33505D01*
X2186Y-35045D01*
X2008Y-35223D01*
X1901Y-35481D01*
X1901Y-35759D01*
X1948Y-35873D01*
X1931Y-35889D01*
X1801Y-36202D01*
X1801Y-36540D01*
X1930Y-36852D01*
X2069Y-36992D01*
X2065Y-36994D01*
X1774Y-37285D01*
X1616Y-37665D01*
X1616Y-38077D01*
X1773Y-38457D01*
X2064Y-38748D01*
X2444Y-38906D01*
X2856Y-38907D01*
X3236Y-38749D01*
X3528Y-38459D01*
X3686Y-38078D01*
X3686Y-37715D01*
X3812Y-37767D01*
X3989Y-37767D01*
X4154Y-37700D01*
X4216Y-37637D01*
X4216Y-40273D01*
X4188Y-40245D01*
X3808Y-40087D01*
X3396Y-40086D01*
X3015Y-40244D01*
X2724Y-40535D01*
X2566Y-40915D01*
X2566Y-41327D01*
X2723Y-41707D01*
X3014Y-41998D01*
X3394Y-42156D01*
X3806Y-42157D01*
X4186Y-41999D01*
X4216Y-41970D01*
X4216Y-43329D01*
X4021Y-43524D01*
X3962Y-43613D01*
X3909Y-43634D01*
X3839Y-43705D01*
X3801Y-43797D01*
X3801Y-43896D01*
X3801Y-44446D01*
X3803Y-44451D01*
X3273Y-44451D01*
X3371Y-44354D01*
X3501Y-44041D01*
X3501Y-43703D01*
X3372Y-43391D01*
X3284Y-43302D01*
X3301Y-43261D01*
X3301Y-42983D01*
X3195Y-42726D01*
X2998Y-42528D01*
X2741Y-42422D01*
X2462Y-42421D01*
X2205Y-42528D01*
X2186Y-42547D01*
X2186Y-41006D01*
X2097Y-40791D01*
X1933Y-40626D01*
X1718Y-40537D01*
X1548Y-40537D01*
X1485Y-40536D01*
X1270Y-40625D01*
X1105Y-40790D01*
X1016Y-41005D01*
X1016Y-41237D01*
X1105Y-41452D01*
X1269Y-41617D01*
X1484Y-41706D01*
X1717Y-41707D01*
X1932Y-41618D01*
X2097Y-41453D01*
X2186Y-41238D01*
X2186Y-41006D01*
X2186Y-42547D01*
X2008Y-42725D01*
X1901Y-42982D01*
X1901Y-43260D01*
X1947Y-43373D01*
X1931Y-43389D01*
X1801Y-43702D01*
X1801Y-44040D01*
X1930Y-44352D01*
X2028Y-44451D01*
X795Y-44451D01*
X803Y-44429D01*
X790Y-44251D01*
X747Y-44146D01*
X662Y-44131D01*
X422Y-44372D01*
X427Y-44377D01*
X356Y-44448D01*
X351Y-44442D01*
X345Y-44448D01*
X275Y-44377D01*
X280Y-44372D01*
X275Y-44366D01*
X345Y-44295D01*
X351Y-44301D01*
X591Y-44060D01*
X577Y-43976D01*
X408Y-43920D01*
X270Y-43929D01*
X270Y-37316D01*
X294Y-37324D01*
X471Y-37311D01*
X577Y-37267D01*
X591Y-37183D01*
X637Y-37228D01*
X668Y-37197D01*
X654Y-37231D01*
X654Y-37409D01*
X722Y-37573D01*
X847Y-37699D01*
X1012Y-37767D01*
X1189Y-37767D01*
X1354Y-37700D01*
X1479Y-37574D01*
X1548Y-37410D01*
X1548Y-37232D01*
X1480Y-37068D01*
X1354Y-36942D01*
X1190Y-36874D01*
X1012Y-36874D01*
X848Y-36942D01*
X774Y-37016D01*
X803Y-36929D01*
X790Y-36751D01*
X747Y-36646D01*
X662Y-36631D01*
X422Y-36872D01*
X427Y-36877D01*
X356Y-36948D01*
X351Y-36942D01*
X345Y-36948D01*
X275Y-36877D01*
X280Y-36872D01*
X275Y-36866D01*
X345Y-36795D01*
X351Y-36801D01*
X591Y-36560D01*
X577Y-36476D01*
X408Y-36420D01*
X270Y-36429D01*
X270Y-23478D01*
X1601Y-23478D01*
X2074Y-23385D01*
X2474Y-23117D01*
X2742Y-22716D01*
X2836Y-22244D01*
X2742Y-21772D01*
X2474Y-21371D01*
X2295Y-21251D01*
X2461Y-21320D01*
X2740Y-21320D01*
X2997Y-21214D01*
X3194Y-21017D01*
X3301Y-20760D01*
X3301Y-20482D01*
X3195Y-20224D01*
X2998Y-20027D01*
X2741Y-19920D01*
X2462Y-19920D01*
X2205Y-20027D01*
X2186Y-20045D01*
X2186Y-18505D01*
X2097Y-18289D01*
X1933Y-18125D01*
X1718Y-18035D01*
X1485Y-18035D01*
X1270Y-18124D01*
X1105Y-18289D01*
X1016Y-18503D01*
X1016Y-18736D01*
X1105Y-18951D01*
X1269Y-19116D01*
X1484Y-19205D01*
X1717Y-19205D01*
X1932Y-19117D01*
X2097Y-18952D01*
X2186Y-18737D01*
X2186Y-18505D01*
X2186Y-20045D01*
X2008Y-20223D01*
X1901Y-20481D01*
X1901Y-20759D01*
X2007Y-21016D01*
X2135Y-21144D01*
X2074Y-21103D01*
X1601Y-21009D01*
X270Y-21009D01*
X270Y-766D01*
X294Y-774D01*
X471Y-761D01*
X577Y-717D01*
X591Y-633D01*
X351Y-392D01*
X345Y-398D01*
X275Y-327D01*
X280Y-322D01*
X275Y-316D01*
X345Y-245D01*
X351Y-251D01*
X356Y-245D01*
X427Y-316D01*
X422Y-322D01*
X662Y-562D01*
X747Y-547D01*
X803Y-379D01*
X793Y-240D01*
X4572Y-240D01*
X4572Y-1160D01*
X4543Y-1115D01*
X4340Y-980D01*
X4101Y-932D01*
X3862Y-980D01*
X3702Y-1087D01*
X3688Y-1054D01*
X3618Y-984D01*
X3526Y-946D01*
X3426Y-946D01*
X2676Y-946D01*
X2584Y-983D01*
X2514Y-1054D01*
X2476Y-1146D01*
X2476Y-1245D01*
X2476Y-2095D01*
X2514Y-2187D01*
X2584Y-2257D01*
X2676Y-2296D01*
X2775Y-2296D01*
X3281Y-2296D01*
X3571Y-2586D01*
X3396Y-2585D01*
X3015Y-2743D01*
X2724Y-3034D01*
X2566Y-3414D01*
X2566Y-3826D01*
X2723Y-4206D01*
X3014Y-4497D01*
X3394Y-4655D01*
X3806Y-4656D01*
X4122Y-4525D01*
X4122Y-4882D01*
X4149Y-5015D01*
X4224Y-5129D01*
X4593Y-5497D01*
X4706Y-5573D01*
X4706Y-5573D01*
X4840Y-5600D01*
X4991Y-5600D01*
X4909Y-5633D01*
X4839Y-5704D01*
X4801Y-5796D01*
X4801Y-5867D01*
X4731Y-5914D01*
X4731Y-5914D01*
X4576Y-5914D01*
X4411Y-5982D01*
X4286Y-6107D01*
X4217Y-6272D01*
X4217Y-6449D01*
X4271Y-6579D01*
X4214Y-6556D01*
X3989Y-6556D01*
X3781Y-6641D01*
X3622Y-6800D01*
X3536Y-7008D01*
X3536Y-7232D01*
X3622Y-7440D01*
X3780Y-7599D01*
X3988Y-7685D01*
X4213Y-7686D01*
X4420Y-7600D01*
X4580Y-7441D01*
X4666Y-7233D01*
X4666Y-7009D01*
X4583Y-6808D01*
X4753Y-6808D01*
X4917Y-6740D01*
X5012Y-6646D01*
X5100Y-6646D01*
X5450Y-6646D01*
X5542Y-6608D01*
X5601Y-6549D01*
X5659Y-6607D01*
X5712Y-6629D01*
X5771Y-6718D01*
X5777Y-6724D01*
X5777Y-10560D01*
X5718Y-10536D01*
X5485Y-10535D01*
X5270Y-10624D01*
X5105Y-10789D01*
X5016Y-11004D01*
X5016Y-11236D01*
X5092Y-11421D01*
X4962Y-11420D01*
X4705Y-11527D01*
X4636Y-11595D01*
X4636Y-10916D01*
X4479Y-10535D01*
X4188Y-10244D01*
X3808Y-10086D01*
X3396Y-10085D01*
X3301Y-10125D01*
X3301Y-5482D01*
X3195Y-5225D01*
X2998Y-5027D01*
X2741Y-4921D01*
X2462Y-4920D01*
X2205Y-5027D01*
X2186Y-5046D01*
X2186Y-3505D01*
X2097Y-3290D01*
X1933Y-3125D01*
X1718Y-3036D01*
X1485Y-3035D01*
X1270Y-3124D01*
X1105Y-3289D01*
X1016Y-3504D01*
X1016Y-3736D01*
X1105Y-3952D01*
X1269Y-4116D01*
X1484Y-4205D01*
X1717Y-4206D01*
X1932Y-4117D01*
X2097Y-3952D01*
X2186Y-3737D01*
X2186Y-3505D01*
X2186Y-5046D01*
X2008Y-5224D01*
X1901Y-5481D01*
X1901Y-5759D01*
X2007Y-6017D01*
X2204Y-6214D01*
X2461Y-6320D01*
X2740Y-6321D01*
X2997Y-6214D01*
X3194Y-6018D01*
X3301Y-5760D01*
X3301Y-5482D01*
X3301Y-10125D01*
X3015Y-10243D01*
X2724Y-10534D01*
X2566Y-10914D01*
X2566Y-11326D01*
X2723Y-11706D01*
X3014Y-11997D01*
X3394Y-12155D01*
X3806Y-12156D01*
X4186Y-11999D01*
X4478Y-11708D01*
X4636Y-11327D01*
X4636Y-10916D01*
X4636Y-11595D01*
X4508Y-11724D01*
X4401Y-11981D01*
X4401Y-12259D01*
X4507Y-12517D01*
X4704Y-12714D01*
X4937Y-12810D01*
X4937Y-13122D01*
X4909Y-13133D01*
X4839Y-13204D01*
X4801Y-13296D01*
X4801Y-13395D01*
X4801Y-13945D01*
X4839Y-14037D01*
X4909Y-14107D01*
X5001Y-14146D01*
X5100Y-14146D01*
X5450Y-14146D01*
X5542Y-14108D01*
X5601Y-14049D01*
X5659Y-14107D01*
X5712Y-14129D01*
X5765Y-14209D01*
X5765Y-18055D01*
X5718Y-18035D01*
X5485Y-18035D01*
X5270Y-18124D01*
X5105Y-18289D01*
X5016Y-18503D01*
X5016Y-18736D01*
X5092Y-18920D01*
X4962Y-18920D01*
X4705Y-19027D01*
X4636Y-19095D01*
X4636Y-18415D01*
X4479Y-18035D01*
X4188Y-17743D01*
X3808Y-17586D01*
X3396Y-17585D01*
X3301Y-17624D01*
X3301Y-12982D01*
X3195Y-12725D01*
X2998Y-12527D01*
X2741Y-12421D01*
X2462Y-12420D01*
X2205Y-12527D01*
X2186Y-12546D01*
X2186Y-11005D01*
X2097Y-10790D01*
X1933Y-10625D01*
X1718Y-10536D01*
X1666Y-10536D01*
X1666Y-7009D01*
X1580Y-6801D01*
X1421Y-6642D01*
X1214Y-6556D01*
X989Y-6556D01*
X781Y-6641D01*
X622Y-6800D01*
X536Y-7008D01*
X536Y-7232D01*
X622Y-7440D01*
X780Y-7599D01*
X988Y-7685D01*
X1213Y-7686D01*
X1420Y-7600D01*
X1580Y-7441D01*
X1666Y-7233D01*
X1666Y-7009D01*
X1666Y-10536D01*
X1485Y-10535D01*
X1270Y-10624D01*
X1105Y-10789D01*
X1016Y-11004D01*
X1016Y-11236D01*
X1105Y-11452D01*
X1269Y-11616D01*
X1484Y-11705D01*
X1717Y-11706D01*
X1932Y-11617D01*
X2097Y-11452D01*
X2186Y-11237D01*
X2186Y-11005D01*
X2186Y-12546D01*
X2008Y-12724D01*
X1901Y-12981D01*
X1901Y-13259D01*
X2007Y-13517D01*
X2204Y-13714D01*
X2461Y-13820D01*
X2740Y-13821D01*
X2997Y-13714D01*
X3194Y-13518D01*
X3301Y-13260D01*
X3301Y-12982D01*
X3301Y-17624D01*
X3015Y-17742D01*
X2724Y-18033D01*
X2566Y-18414D01*
X2566Y-18825D01*
X2723Y-19206D01*
X3014Y-19497D01*
X3394Y-19655D01*
X3806Y-19656D01*
X4186Y-19498D01*
X4478Y-19207D01*
X4636Y-18827D01*
X4636Y-18415D01*
X4636Y-19095D01*
X4508Y-19223D01*
X4401Y-19481D01*
X4401Y-19759D01*
X4507Y-20016D01*
X4704Y-20213D01*
X4937Y-20310D01*
X4937Y-20622D01*
X4909Y-20633D01*
X4839Y-20704D01*
X4801Y-20795D01*
X4801Y-20895D01*
X4801Y-21445D01*
X4839Y-21537D01*
X4909Y-21607D01*
X5001Y-21645D01*
X5100Y-21645D01*
X5450Y-21645D01*
X5542Y-21607D01*
X5601Y-21549D01*
X5659Y-21607D01*
X5712Y-21629D01*
X5771Y-21718D01*
X5784Y-21730D01*
X5784Y-25563D01*
X5718Y-25535D01*
X5485Y-25535D01*
X5270Y-25624D01*
X5105Y-25789D01*
X5016Y-26003D01*
X5016Y-26236D01*
X5092Y-26420D01*
X4962Y-26420D01*
X4705Y-26527D01*
X4636Y-26595D01*
X4636Y-25915D01*
X4479Y-25535D01*
X4188Y-25243D01*
X3808Y-25086D01*
X3396Y-25085D01*
X3015Y-25242D01*
X2724Y-25533D01*
X2566Y-25914D01*
X2566Y-26325D01*
X2723Y-26706D01*
X3014Y-26997D01*
X3394Y-27155D01*
X3806Y-27156D01*
X4186Y-26998D01*
X4478Y-26707D01*
X4636Y-26327D01*
X4636Y-25915D01*
X4636Y-26595D01*
X4508Y-26723D01*
X4401Y-26981D01*
X4401Y-27259D01*
X4507Y-27516D01*
X4704Y-27713D01*
X4937Y-27810D01*
X4937Y-28122D01*
X4909Y-28133D01*
X4839Y-28204D01*
X4801Y-28295D01*
X4801Y-28395D01*
X4801Y-28945D01*
X4839Y-29037D01*
X4909Y-29107D01*
X5001Y-29145D01*
X5100Y-29145D01*
X5450Y-29145D01*
X5542Y-29107D01*
X5601Y-29049D01*
X5624Y-29072D01*
X5622Y-29078D01*
X5622Y-29191D01*
X5533Y-29280D01*
X5465Y-29444D01*
X5465Y-29622D01*
X5533Y-29786D01*
X5658Y-29912D01*
X5822Y-29980D01*
X6000Y-29980D01*
X6165Y-29913D01*
X6290Y-29787D01*
X6359Y-29623D01*
X6359Y-29445D01*
X6291Y-29281D01*
X6201Y-29191D01*
X6201Y-29187D01*
X6201Y-29187D01*
X6240Y-29129D01*
X6240Y-29129D01*
X6292Y-29107D01*
X6363Y-29037D01*
X6401Y-28945D01*
X6401Y-28846D01*
X6401Y-28296D01*
X6363Y-28204D01*
X6350Y-28191D01*
X6362Y-28130D01*
X6362Y-28130D01*
X6362Y-22835D01*
X6399Y-22923D01*
X6524Y-23049D01*
X6688Y-23117D01*
X6866Y-23117D01*
X7031Y-23049D01*
X7156Y-22924D01*
X7225Y-22760D01*
X7225Y-22582D01*
X7157Y-22418D01*
X7031Y-22292D01*
X6867Y-22224D01*
X6745Y-22223D01*
X6745Y-21121D01*
X6882Y-21258D01*
X6935Y-21281D01*
X6935Y-21376D01*
X6957Y-21487D01*
X7020Y-21581D01*
X7441Y-22002D01*
X7414Y-22029D01*
X7376Y-22120D01*
X7376Y-22220D01*
X7376Y-22570D01*
X7414Y-22662D01*
X7472Y-22720D01*
X7414Y-22779D01*
X7376Y-22870D01*
X7376Y-22970D01*
X7376Y-23320D01*
X7414Y-23412D01*
X7484Y-23482D01*
X7576Y-23520D01*
X7626Y-23520D01*
X7576Y-23520D01*
X7484Y-23559D01*
X7414Y-23629D01*
X7376Y-23721D01*
X7376Y-23833D01*
X7438Y-23895D01*
X7851Y-23895D01*
X7851Y-23887D01*
X7951Y-23887D01*
X7951Y-23895D01*
X8363Y-23895D01*
X8426Y-23833D01*
X8438Y-23845D01*
X8851Y-23845D01*
X8851Y-23839D01*
X8901Y-23849D01*
X8959Y-23849D01*
X8959Y-23945D01*
X8951Y-23945D01*
X8951Y-24258D01*
X9013Y-24320D01*
X9126Y-24320D01*
X9226Y-24320D01*
X9318Y-24282D01*
X9388Y-24212D01*
X9413Y-24152D01*
X9667Y-24406D01*
X8399Y-24406D01*
X8388Y-24379D01*
X8329Y-24320D01*
X8388Y-24262D01*
X8411Y-24205D01*
X8414Y-24212D01*
X8484Y-24282D01*
X8576Y-24320D01*
X8675Y-24320D01*
X8788Y-24320D01*
X8851Y-24258D01*
X8851Y-23945D01*
X8438Y-23945D01*
X8376Y-24008D01*
X8363Y-23995D01*
X7951Y-23995D01*
X7951Y-24003D01*
X7851Y-24003D01*
X7851Y-23995D01*
X7438Y-23995D01*
X7376Y-24058D01*
X7376Y-24170D01*
X7414Y-24262D01*
X7472Y-24320D01*
X7414Y-24379D01*
X7376Y-24470D01*
X7376Y-24570D01*
X7376Y-24920D01*
X7414Y-25012D01*
X7484Y-25082D01*
X7576Y-25120D01*
X7675Y-25120D01*
X8225Y-25120D01*
X8317Y-25082D01*
X8388Y-25012D01*
X8399Y-24985D01*
X11539Y-24985D01*
X11466Y-25058D01*
X11433Y-25138D01*
X11308Y-25086D01*
X10896Y-25085D01*
X10515Y-25242D01*
X10224Y-25533D01*
X10066Y-25914D01*
X10066Y-26325D01*
X10223Y-26706D01*
X10514Y-26997D01*
X10894Y-27155D01*
X11306Y-27156D01*
X11686Y-26998D01*
X11978Y-26707D01*
X12136Y-26327D01*
X12136Y-25915D01*
X12126Y-25891D01*
X12138Y-25893D01*
X12138Y-25893D01*
X12562Y-25893D01*
X12516Y-26003D01*
X12516Y-26236D01*
X12592Y-26420D01*
X12462Y-26420D01*
X12205Y-26527D01*
X12008Y-26723D01*
X11901Y-26981D01*
X11901Y-27259D01*
X12007Y-27516D01*
X12204Y-27713D01*
X12312Y-27758D01*
X12312Y-28102D01*
X12334Y-28213D01*
X12335Y-28214D01*
X12301Y-28295D01*
X12301Y-28395D01*
X12301Y-28725D01*
X11115Y-28725D01*
X10757Y-28367D01*
X10801Y-28260D01*
X10801Y-27982D01*
X10695Y-27724D01*
X10498Y-27527D01*
X10241Y-27420D01*
X9962Y-27420D01*
X9705Y-27527D01*
X9686Y-27545D01*
X9686Y-26005D01*
X9597Y-25789D01*
X9433Y-25625D01*
X9218Y-25535D01*
X8985Y-25535D01*
X8770Y-25624D01*
X8605Y-25789D01*
X8516Y-26003D01*
X8516Y-26236D01*
X8605Y-26451D01*
X8769Y-26616D01*
X8984Y-26705D01*
X9217Y-26705D01*
X9432Y-26617D01*
X9597Y-26452D01*
X9686Y-26237D01*
X9686Y-26005D01*
X9686Y-27545D01*
X9508Y-27723D01*
X9401Y-27981D01*
X9401Y-28259D01*
X9507Y-28516D01*
X9704Y-28713D01*
X9961Y-28820D01*
X10240Y-28820D01*
X10347Y-28776D01*
X10790Y-29219D01*
X10790Y-29219D01*
X10884Y-29282D01*
X10995Y-29304D01*
X16707Y-29304D01*
X16707Y-29304D01*
X16818Y-29282D01*
X16911Y-29219D01*
X17355Y-28776D01*
X17461Y-28820D01*
X17509Y-28820D01*
X17491Y-28838D01*
X17429Y-28932D01*
X17407Y-29043D01*
X17407Y-34074D01*
X17429Y-34185D01*
X17491Y-34279D01*
X17881Y-34669D01*
X17881Y-34979D01*
G54D10*
G36*
X21108Y-23203D02*
X20959Y-23202D01*
X20795Y-23270D01*
X20669Y-23396D01*
X20601Y-23560D01*
X20601Y-23687D01*
X19929Y-24359D01*
X19866Y-24453D01*
X19844Y-24563D01*
X19844Y-26261D01*
X19762Y-26277D01*
X19669Y-26340D01*
X19604Y-26405D01*
X19636Y-26327D01*
X19636Y-25915D01*
X19479Y-25535D01*
X19188Y-25243D01*
X18808Y-25086D01*
X18396Y-25085D01*
X18016Y-25242D01*
X17724Y-25533D01*
X17566Y-25914D01*
X17566Y-26325D01*
X17723Y-26706D01*
X17752Y-26734D01*
X16764Y-26734D01*
X16730Y-26700D01*
X16932Y-26617D01*
X17097Y-26452D01*
X17186Y-26237D01*
X17186Y-26005D01*
X17097Y-25789D01*
X16933Y-25625D01*
X16718Y-25535D01*
X16485Y-25535D01*
X16270Y-25624D01*
X16105Y-25789D01*
X16016Y-26003D01*
X16016Y-26017D01*
X16013Y-26015D01*
X15902Y-25993D01*
X15622Y-25993D01*
X16299Y-25315D01*
X16299Y-25315D01*
X16341Y-25253D01*
X16362Y-25221D01*
X16362Y-25221D01*
X16384Y-25111D01*
X16384Y-25111D01*
X16384Y-25105D01*
X16367Y-25019D01*
X16419Y-24984D01*
X16491Y-24877D01*
X16498Y-24840D01*
X16535Y-24833D01*
X16642Y-24761D01*
X16677Y-24709D01*
X16763Y-24726D01*
X17004Y-24726D01*
X17004Y-24726D01*
X17114Y-24704D01*
X17208Y-24641D01*
X17366Y-24483D01*
X17417Y-24534D01*
X17581Y-24602D01*
X17759Y-24602D01*
X17923Y-24535D01*
X18049Y-24409D01*
X18117Y-24245D01*
X18117Y-24067D01*
X18049Y-23903D01*
X17924Y-23777D01*
X17760Y-23709D01*
X17664Y-23709D01*
X17755Y-23648D01*
X17827Y-23540D01*
X17852Y-23414D01*
X17827Y-23288D01*
X17755Y-23181D01*
X17662Y-23087D01*
X19357Y-23087D01*
X19491Y-23061D01*
X19491Y-23061D01*
X19604Y-22985D01*
X20247Y-22342D01*
X21108Y-23203D01*
X21108Y-23203D01*
G37*
G54D32*
X21108Y-23203D02*
X20959Y-23202D01*
X20795Y-23270D01*
X20669Y-23396D01*
X20601Y-23560D01*
X20601Y-23687D01*
X19929Y-24359D01*
X19866Y-24453D01*
X19844Y-24563D01*
X19844Y-26261D01*
X19762Y-26277D01*
X19669Y-26340D01*
X19604Y-26405D01*
X19636Y-26327D01*
X19636Y-25915D01*
X19479Y-25535D01*
X19188Y-25243D01*
X18808Y-25086D01*
X18396Y-25085D01*
X18016Y-25242D01*
X17724Y-25533D01*
X17566Y-25914D01*
X17566Y-26325D01*
X17723Y-26706D01*
X17752Y-26734D01*
X16764Y-26734D01*
X16730Y-26700D01*
X16932Y-26617D01*
X17097Y-26452D01*
X17186Y-26237D01*
X17186Y-26005D01*
X17097Y-25789D01*
X16933Y-25625D01*
X16718Y-25535D01*
X16485Y-25535D01*
X16270Y-25624D01*
X16105Y-25789D01*
X16016Y-26003D01*
X16016Y-26017D01*
X16013Y-26015D01*
X15902Y-25993D01*
X15622Y-25993D01*
X16299Y-25315D01*
X16299Y-25315D01*
X16341Y-25253D01*
X16362Y-25221D01*
X16362Y-25221D01*
X16384Y-25111D01*
X16384Y-25111D01*
X16384Y-25105D01*
X16367Y-25019D01*
X16419Y-24984D01*
X16491Y-24877D01*
X16498Y-24840D01*
X16535Y-24833D01*
X16642Y-24761D01*
X16677Y-24709D01*
X16763Y-24726D01*
X17004Y-24726D01*
X17004Y-24726D01*
X17114Y-24704D01*
X17208Y-24641D01*
X17366Y-24483D01*
X17417Y-24534D01*
X17581Y-24602D01*
X17759Y-24602D01*
X17923Y-24535D01*
X18049Y-24409D01*
X18117Y-24245D01*
X18117Y-24067D01*
X18049Y-23903D01*
X17924Y-23777D01*
X17760Y-23709D01*
X17664Y-23709D01*
X17755Y-23648D01*
X17827Y-23540D01*
X17852Y-23414D01*
X17827Y-23288D01*
X17755Y-23181D01*
X17662Y-23087D01*
X19357Y-23087D01*
X19491Y-23061D01*
X19491Y-23061D01*
X19604Y-22985D01*
X20247Y-22342D01*
X21108Y-23203D01*
G54D10*
G36*
X22974Y-22605D02*
X22966Y-22605D01*
X22966Y-22612D01*
X22866Y-22612D01*
X22866Y-22605D01*
X22858Y-22605D01*
X22858Y-22505D01*
X22866Y-22505D01*
X22866Y-22497D01*
X22966Y-22497D01*
X22966Y-22505D01*
X22974Y-22505D01*
X22974Y-22605D01*
X22974Y-22605D01*
G37*
G54D32*
X22974Y-22605D02*
X22966Y-22605D01*
X22966Y-22612D01*
X22866Y-22612D01*
X22866Y-22605D01*
X22858Y-22605D01*
X22858Y-22505D01*
X22866Y-22505D01*
X22866Y-22497D01*
X22966Y-22497D01*
X22966Y-22505D01*
X22974Y-22505D01*
X22974Y-22605D01*
G54D10*
G36*
X29427Y-36877D02*
X29356Y-36948D01*
X29351Y-36942D01*
X29345Y-36948D01*
X29274Y-36877D01*
X29280Y-36872D01*
X29274Y-36866D01*
X29345Y-36795D01*
X29351Y-36801D01*
X29356Y-36795D01*
X29427Y-36866D01*
X29421Y-36872D01*
X29427Y-36877D01*
X29427Y-36877D01*
G37*
G54D32*
X29427Y-36877D02*
X29356Y-36948D01*
X29351Y-36942D01*
X29345Y-36948D01*
X29274Y-36877D01*
X29280Y-36872D01*
X29274Y-36866D01*
X29345Y-36795D01*
X29351Y-36801D01*
X29356Y-36795D01*
X29427Y-36866D01*
X29421Y-36872D01*
X29427Y-36877D01*
G54D10*
G36*
X29431Y-6373D02*
X28974Y-5916D01*
X28901Y-5867D01*
X28901Y-5796D01*
X28863Y-5704D01*
X28793Y-5634D01*
X28701Y-5596D01*
X28602Y-5596D01*
X28252Y-5596D01*
X28160Y-5633D01*
X28101Y-5692D01*
X28043Y-5634D01*
X28015Y-5622D01*
X28015Y-5197D01*
X28194Y-5019D01*
X28301Y-4761D01*
X28301Y-4483D01*
X28195Y-4226D01*
X28176Y-4207D01*
X28217Y-4207D01*
X28432Y-4118D01*
X28597Y-3953D01*
X28686Y-3738D01*
X28686Y-3506D01*
X28597Y-3291D01*
X28433Y-3126D01*
X28218Y-3037D01*
X27985Y-3036D01*
X27770Y-3125D01*
X27605Y-3290D01*
X27516Y-3505D01*
X27516Y-3737D01*
X27592Y-3922D01*
X27462Y-3921D01*
X27226Y-4019D01*
X27226Y-1684D01*
X27226Y-1557D01*
X27178Y-1318D01*
X27043Y-1115D01*
X26840Y-980D01*
X26601Y-932D01*
X26362Y-980D01*
X26202Y-1087D01*
X26188Y-1054D01*
X26118Y-984D01*
X26026Y-946D01*
X25927Y-946D01*
X25177Y-946D01*
X25085Y-983D01*
X25014Y-1054D01*
X24976Y-1146D01*
X24976Y-1245D01*
X24976Y-2095D01*
X25014Y-2187D01*
X25084Y-2257D01*
X25176Y-2296D01*
X25276Y-2296D01*
X26026Y-2296D01*
X26118Y-2258D01*
X26188Y-2187D01*
X26202Y-2154D01*
X26362Y-2261D01*
X26601Y-2309D01*
X26840Y-2261D01*
X27043Y-2126D01*
X27178Y-1923D01*
X27226Y-1684D01*
X27226Y-4019D01*
X27205Y-4028D01*
X27136Y-4096D01*
X27136Y-3417D01*
X26979Y-3036D01*
X26688Y-2745D01*
X26308Y-2587D01*
X25896Y-2586D01*
X25516Y-2744D01*
X25224Y-3035D01*
X25066Y-3415D01*
X25066Y-3827D01*
X25223Y-4207D01*
X25514Y-4498D01*
X25894Y-4656D01*
X26306Y-4657D01*
X26687Y-4499D01*
X26978Y-4209D01*
X27136Y-3828D01*
X27136Y-3417D01*
X27136Y-4096D01*
X27008Y-4225D01*
X26901Y-4482D01*
X26901Y-4760D01*
X27007Y-5018D01*
X27204Y-5215D01*
X27437Y-5311D01*
X27437Y-5622D01*
X27410Y-5633D01*
X27339Y-5704D01*
X27301Y-5796D01*
X27301Y-5895D01*
X27301Y-6445D01*
X27339Y-6537D01*
X27409Y-6607D01*
X27501Y-6646D01*
X27601Y-6646D01*
X27951Y-6646D01*
X28043Y-6608D01*
X28101Y-6549D01*
X28159Y-6607D01*
X28251Y-6646D01*
X28351Y-6646D01*
X28701Y-6646D01*
X28793Y-6608D01*
X28820Y-6580D01*
X29290Y-7050D01*
X29290Y-9433D01*
X29021Y-9322D01*
X28683Y-9321D01*
X28370Y-9451D01*
X28131Y-9689D01*
X28001Y-10002D01*
X28001Y-10340D01*
X28082Y-10537D01*
X27985Y-10536D01*
X27770Y-10625D01*
X27666Y-10729D01*
X27666Y-7009D01*
X27580Y-6801D01*
X27422Y-6642D01*
X27214Y-6556D01*
X26989Y-6556D01*
X26781Y-6641D01*
X26622Y-6800D01*
X26536Y-7008D01*
X26536Y-7232D01*
X26622Y-7440D01*
X26781Y-7599D01*
X26988Y-7685D01*
X27213Y-7686D01*
X27421Y-7600D01*
X27580Y-7441D01*
X27666Y-7233D01*
X27666Y-7009D01*
X27666Y-10729D01*
X27605Y-10790D01*
X27516Y-11005D01*
X27516Y-11237D01*
X27592Y-11422D01*
X27462Y-11421D01*
X27205Y-11528D01*
X27136Y-11596D01*
X27136Y-10917D01*
X26979Y-10536D01*
X26688Y-10245D01*
X26308Y-10087D01*
X25896Y-10086D01*
X25516Y-10244D01*
X25224Y-10535D01*
X25066Y-10915D01*
X25066Y-11327D01*
X25223Y-11707D01*
X25514Y-11998D01*
X25894Y-12156D01*
X26306Y-12157D01*
X26687Y-11999D01*
X26978Y-11709D01*
X27136Y-11328D01*
X27136Y-10917D01*
X27136Y-11596D01*
X27008Y-11725D01*
X26901Y-11982D01*
X26901Y-12260D01*
X27007Y-12518D01*
X27161Y-12672D01*
X26962Y-12671D01*
X26705Y-12778D01*
X26686Y-12797D01*
X26686Y-12756D01*
X26597Y-12541D01*
X26433Y-12376D01*
X26218Y-12287D01*
X25985Y-12286D01*
X25770Y-12375D01*
X25605Y-12540D01*
X25577Y-12608D01*
X25498Y-12528D01*
X25241Y-12422D01*
X24962Y-12421D01*
X24705Y-12528D01*
X24686Y-12547D01*
X24686Y-11006D01*
X24666Y-10957D01*
X24666Y-7009D01*
X24580Y-6801D01*
X24422Y-6642D01*
X24214Y-6556D01*
X23989Y-6556D01*
X23781Y-6641D01*
X23622Y-6800D01*
X23536Y-7008D01*
X23536Y-7232D01*
X23622Y-7440D01*
X23781Y-7599D01*
X23988Y-7685D01*
X24213Y-7686D01*
X24421Y-7600D01*
X24580Y-7441D01*
X24666Y-7233D01*
X24666Y-7009D01*
X24666Y-10957D01*
X24597Y-10791D01*
X24433Y-10626D01*
X24218Y-10537D01*
X23985Y-10536D01*
X23786Y-10619D01*
X23886Y-10378D01*
X23886Y-9967D01*
X23729Y-9586D01*
X23438Y-9295D01*
X23058Y-9137D01*
X22666Y-9136D01*
X22666Y-7009D01*
X22580Y-6801D01*
X22422Y-6642D01*
X22214Y-6556D01*
X21989Y-6556D01*
X21781Y-6641D01*
X21622Y-6800D01*
X21536Y-7008D01*
X21536Y-7232D01*
X21622Y-7440D01*
X21781Y-7599D01*
X21988Y-7685D01*
X22213Y-7686D01*
X22421Y-7600D01*
X22580Y-7441D01*
X22666Y-7233D01*
X22666Y-7009D01*
X22666Y-9136D01*
X22646Y-9136D01*
X22266Y-9294D01*
X21974Y-9585D01*
X21816Y-9965D01*
X21816Y-10377D01*
X21973Y-10757D01*
X22264Y-11048D01*
X22644Y-11206D01*
X23056Y-11207D01*
X23437Y-11049D01*
X23541Y-10946D01*
X23516Y-11005D01*
X23516Y-11237D01*
X23605Y-11452D01*
X23769Y-11617D01*
X23984Y-11706D01*
X24217Y-11707D01*
X24432Y-11618D01*
X24597Y-11453D01*
X24686Y-11238D01*
X24686Y-11006D01*
X24686Y-12547D01*
X24508Y-12725D01*
X24401Y-12982D01*
X24401Y-13260D01*
X24445Y-13368D01*
X21838Y-15975D01*
X21815Y-15918D01*
X21689Y-15792D01*
X21525Y-15724D01*
X21412Y-15724D01*
X21412Y-14160D01*
X21390Y-14050D01*
X21370Y-14020D01*
X21401Y-13946D01*
X21401Y-13846D01*
X21401Y-13296D01*
X21363Y-13204D01*
X21347Y-13188D01*
X21357Y-13136D01*
X21357Y-13136D01*
X21357Y-6605D01*
X21357Y-6605D01*
X21347Y-6554D01*
X21363Y-6537D01*
X21401Y-6446D01*
X21401Y-6346D01*
X21401Y-5796D01*
X21363Y-5704D01*
X21293Y-5634D01*
X21201Y-5596D01*
X21102Y-5596D01*
X20752Y-5596D01*
X20660Y-5633D01*
X20601Y-5692D01*
X20543Y-5634D01*
X20515Y-5622D01*
X20515Y-5197D01*
X20694Y-5019D01*
X20752Y-4878D01*
X21700Y-5826D01*
X21700Y-5826D01*
X21794Y-5889D01*
X21905Y-5911D01*
X24463Y-5911D01*
X24507Y-6018D01*
X24704Y-6215D01*
X24961Y-6321D01*
X25240Y-6322D01*
X25497Y-6215D01*
X25694Y-6019D01*
X25801Y-5761D01*
X25801Y-5483D01*
X25695Y-5226D01*
X25498Y-5028D01*
X25241Y-4922D01*
X24962Y-4921D01*
X24705Y-5028D01*
X24686Y-5047D01*
X24686Y-3506D01*
X24597Y-3291D01*
X24433Y-3126D01*
X24218Y-3037D01*
X23985Y-3036D01*
X23770Y-3125D01*
X23605Y-3290D01*
X23516Y-3505D01*
X23516Y-3737D01*
X23605Y-3952D01*
X23769Y-4117D01*
X23984Y-4206D01*
X24217Y-4207D01*
X24432Y-4118D01*
X24597Y-3953D01*
X24686Y-3738D01*
X24686Y-3506D01*
X24686Y-5047D01*
X24508Y-5225D01*
X24463Y-5332D01*
X22025Y-5332D01*
X20846Y-4153D01*
X20932Y-4118D01*
X21097Y-3953D01*
X21186Y-3738D01*
X21186Y-3506D01*
X21097Y-3291D01*
X20933Y-3126D01*
X20718Y-3037D01*
X20485Y-3036D01*
X20270Y-3125D01*
X20105Y-3290D01*
X20016Y-3505D01*
X20016Y-3737D01*
X20017Y-3741D01*
X19636Y-3741D01*
X19636Y-3417D01*
X19479Y-3036D01*
X19188Y-2745D01*
X18808Y-2587D01*
X18396Y-2586D01*
X18016Y-2744D01*
X17724Y-3035D01*
X17566Y-3415D01*
X17566Y-3827D01*
X17723Y-4207D01*
X18014Y-4498D01*
X18394Y-4656D01*
X18492Y-4656D01*
X18059Y-5089D01*
X17998Y-5028D01*
X17741Y-4922D01*
X17462Y-4921D01*
X17205Y-5028D01*
X17186Y-5047D01*
X17186Y-3506D01*
X17097Y-3291D01*
X16933Y-3126D01*
X16718Y-3037D01*
X16485Y-3036D01*
X16270Y-3125D01*
X16105Y-3290D01*
X16016Y-3505D01*
X16016Y-3737D01*
X16105Y-3952D01*
X16269Y-4117D01*
X16484Y-4206D01*
X16717Y-4207D01*
X16932Y-4118D01*
X17097Y-3953D01*
X17186Y-3738D01*
X17186Y-3506D01*
X17186Y-5047D01*
X17008Y-5225D01*
X16963Y-5332D01*
X16065Y-5332D01*
X16086Y-5282D01*
X16086Y-3963D01*
X16048Y-3871D01*
X15977Y-3800D01*
X15885Y-3762D01*
X15786Y-3762D01*
X15751Y-3762D01*
X15689Y-3825D01*
X15689Y-4573D01*
X16023Y-4573D01*
X16086Y-4510D01*
X16086Y-3963D01*
X16086Y-5282D01*
X16086Y-4735D01*
X16023Y-4673D01*
X15689Y-4673D01*
X15689Y-4680D01*
X15589Y-4680D01*
X15589Y-4673D01*
X15589Y-4573D01*
X15589Y-3825D01*
X15526Y-3762D01*
X15491Y-3762D01*
X15392Y-3762D01*
X15300Y-3800D01*
X15230Y-3871D01*
X15192Y-3963D01*
X15192Y-4510D01*
X15254Y-4573D01*
X15589Y-4573D01*
X15589Y-4673D01*
X15254Y-4673D01*
X15192Y-4735D01*
X15192Y-5282D01*
X15212Y-5332D01*
X14490Y-5332D01*
X14510Y-5283D01*
X14511Y-5183D01*
X14511Y-3963D01*
X14473Y-3871D01*
X14402Y-3800D01*
X14310Y-3762D01*
X14211Y-3762D01*
X13817Y-3762D01*
X13725Y-3800D01*
X13655Y-3870D01*
X13617Y-3962D01*
X13617Y-4062D01*
X13617Y-4844D01*
X13493Y-4844D01*
X13329Y-4912D01*
X13203Y-5038D01*
X13135Y-5202D01*
X13135Y-5380D01*
X13150Y-5416D01*
X13148Y-5417D01*
X12975Y-5590D01*
X12972Y-5585D01*
X12930Y-5523D01*
X12930Y-5523D01*
X12890Y-5482D01*
X12890Y-5258D01*
X12997Y-5214D01*
X13194Y-5018D01*
X13301Y-4760D01*
X13301Y-4482D01*
X13195Y-4225D01*
X13176Y-4206D01*
X13217Y-4206D01*
X13432Y-4117D01*
X13597Y-3952D01*
X13686Y-3737D01*
X13686Y-3505D01*
X13597Y-3290D01*
X13433Y-3125D01*
X13218Y-3036D01*
X12985Y-3035D01*
X12770Y-3124D01*
X12605Y-3289D01*
X12516Y-3504D01*
X12516Y-3736D01*
X12592Y-3921D01*
X12462Y-3920D01*
X12205Y-4027D01*
X12008Y-4224D01*
X11901Y-4481D01*
X11901Y-4759D01*
X12007Y-5017D01*
X12204Y-5214D01*
X12312Y-5258D01*
X12312Y-5602D01*
X12334Y-5713D01*
X12335Y-5715D01*
X12301Y-5796D01*
X12301Y-5895D01*
X12301Y-6227D01*
X11116Y-6227D01*
X10757Y-5867D01*
X10801Y-5760D01*
X10801Y-5482D01*
X10695Y-5225D01*
X10498Y-5027D01*
X10241Y-4921D01*
X9962Y-4920D01*
X9705Y-5027D01*
X9508Y-5224D01*
X9401Y-5481D01*
X9401Y-5759D01*
X9507Y-6017D01*
X9704Y-6214D01*
X9961Y-6320D01*
X10240Y-6321D01*
X10347Y-6276D01*
X10792Y-6721D01*
X10792Y-6721D01*
X10886Y-6783D01*
X10996Y-6805D01*
X11120Y-6805D01*
X11036Y-7008D01*
X11036Y-7232D01*
X11122Y-7440D01*
X11280Y-7599D01*
X11488Y-7685D01*
X11713Y-7686D01*
X11920Y-7600D01*
X12080Y-7441D01*
X12166Y-7233D01*
X12166Y-7009D01*
X12082Y-6805D01*
X12949Y-6805D01*
X12949Y-6805D01*
X13060Y-6783D01*
X13154Y-6721D01*
X13225Y-6649D01*
X13271Y-6718D01*
X13274Y-6721D01*
X13274Y-10559D01*
X13218Y-10536D01*
X12985Y-10535D01*
X12770Y-10624D01*
X12605Y-10789D01*
X12569Y-10876D01*
X8797Y-7103D01*
X8838Y-7062D01*
X8876Y-6971D01*
X8876Y-6871D01*
X8876Y-6521D01*
X8838Y-6429D01*
X8779Y-6371D01*
X8838Y-6312D01*
X8876Y-6221D01*
X8876Y-6121D01*
X8876Y-5771D01*
X8838Y-5679D01*
X8768Y-5609D01*
X8676Y-5571D01*
X8640Y-5571D01*
X8640Y-4738D01*
X8618Y-4627D01*
X8555Y-4533D01*
X8555Y-4533D01*
X7454Y-3432D01*
X7454Y-3200D01*
X7480Y-3205D01*
X7613Y-3179D01*
X7649Y-3155D01*
X7692Y-3175D01*
X7746Y-3124D01*
X7746Y-3074D01*
X7802Y-2990D01*
X7828Y-2857D01*
X7828Y-2391D01*
X7844Y-2391D01*
X7844Y-2399D01*
X7853Y-2399D01*
X7853Y-2499D01*
X7844Y-2499D01*
X7844Y-3124D01*
X7897Y-3175D01*
X8006Y-3124D01*
X8046Y-3079D01*
X8046Y-3660D01*
X8073Y-3794D01*
X8149Y-3907D01*
X8637Y-4396D01*
X8750Y-4471D01*
X8884Y-4498D01*
X9328Y-4498D01*
X9462Y-4471D01*
X9462Y-4471D01*
X9576Y-4396D01*
X9934Y-4037D01*
X9934Y-4037D01*
X9934Y-4037D01*
X10010Y-3924D01*
X10036Y-3790D01*
X10036Y-3284D01*
X10179Y-3141D01*
X10066Y-3414D01*
X10066Y-3826D01*
X10223Y-4206D01*
X10514Y-4497D01*
X10894Y-4655D01*
X11306Y-4656D01*
X11686Y-4499D01*
X11978Y-4208D01*
X12136Y-3827D01*
X12136Y-3416D01*
X11979Y-3035D01*
X11688Y-2744D01*
X11308Y-2586D01*
X10896Y-2585D01*
X10622Y-2699D01*
X10746Y-2574D01*
X16943Y-2574D01*
X17077Y-2548D01*
X17077Y-2548D01*
X17191Y-2472D01*
X17503Y-2160D01*
X17514Y-2187D01*
X17584Y-2257D01*
X17676Y-2296D01*
X17776Y-2296D01*
X18526Y-2296D01*
X18618Y-2258D01*
X18688Y-2187D01*
X18702Y-2154D01*
X18862Y-2261D01*
X19101Y-2309D01*
X19340Y-2261D01*
X19543Y-2126D01*
X19678Y-1923D01*
X19726Y-1684D01*
X19726Y-1557D01*
X19678Y-1318D01*
X19543Y-1115D01*
X19340Y-980D01*
X19101Y-932D01*
X18862Y-980D01*
X18702Y-1087D01*
X18688Y-1054D01*
X18618Y-984D01*
X18526Y-946D01*
X18427Y-946D01*
X17677Y-946D01*
X17585Y-983D01*
X17514Y-1054D01*
X17476Y-1146D01*
X17476Y-1245D01*
X17476Y-1285D01*
X17413Y-1297D01*
X17300Y-1373D01*
X17300Y-1373D01*
X16798Y-1874D01*
X16043Y-1874D01*
X16046Y-1871D01*
X16084Y-1779D01*
X16085Y-1679D01*
X16085Y-459D01*
X16047Y-367D01*
X15976Y-297D01*
X15884Y-258D01*
X15785Y-258D01*
X15391Y-258D01*
X15299Y-296D01*
X15229Y-367D01*
X15191Y-458D01*
X15191Y-558D01*
X15191Y-1778D01*
X15229Y-1870D01*
X15233Y-1874D01*
X14469Y-1874D01*
X14472Y-1871D01*
X14510Y-1779D01*
X14511Y-1679D01*
X14511Y-459D01*
X14473Y-367D01*
X14402Y-297D01*
X14310Y-258D01*
X14211Y-258D01*
X13817Y-258D01*
X13725Y-296D01*
X13655Y-367D01*
X13617Y-458D01*
X13617Y-558D01*
X13617Y-1778D01*
X13655Y-1870D01*
X13659Y-1874D01*
X12188Y-1874D01*
X12226Y-1684D01*
X12226Y-1557D01*
X12178Y-1318D01*
X12043Y-1115D01*
X11840Y-980D01*
X11601Y-932D01*
X11362Y-980D01*
X11202Y-1087D01*
X11188Y-1054D01*
X11118Y-984D01*
X11026Y-946D01*
X10926Y-946D01*
X10176Y-946D01*
X10084Y-983D01*
X10014Y-1054D01*
X9976Y-1146D01*
X9976Y-1245D01*
X9976Y-2095D01*
X10014Y-2187D01*
X10079Y-2252D01*
X9757Y-2573D01*
X9757Y-1710D01*
X9737Y-1661D01*
X9757Y-1612D01*
X9757Y-1513D01*
X9757Y-240D01*
X28923Y-240D01*
X28899Y-313D01*
X28911Y-491D01*
X28955Y-596D01*
X29040Y-611D01*
X29280Y-371D01*
X29274Y-365D01*
X29345Y-294D01*
X29351Y-300D01*
X29356Y-294D01*
X29427Y-365D01*
X29421Y-371D01*
X29427Y-376D01*
X29356Y-447D01*
X29351Y-441D01*
X29110Y-682D01*
X29125Y-766D01*
X29294Y-823D01*
X29431Y-813D01*
X29431Y-6373D01*
X29431Y-6373D01*
G37*
G54D32*
X29431Y-6373D02*
X28974Y-5916D01*
X28901Y-5867D01*
X28901Y-5796D01*
X28863Y-5704D01*
X28793Y-5634D01*
X28701Y-5596D01*
X28602Y-5596D01*
X28252Y-5596D01*
X28160Y-5633D01*
X28101Y-5692D01*
X28043Y-5634D01*
X28015Y-5622D01*
X28015Y-5197D01*
X28194Y-5019D01*
X28301Y-4761D01*
X28301Y-4483D01*
X28195Y-4226D01*
X28176Y-4207D01*
X28217Y-4207D01*
X28432Y-4118D01*
X28597Y-3953D01*
X28686Y-3738D01*
X28686Y-3506D01*
X28597Y-3291D01*
X28433Y-3126D01*
X28218Y-3037D01*
X27985Y-3036D01*
X27770Y-3125D01*
X27605Y-3290D01*
X27516Y-3505D01*
X27516Y-3737D01*
X27592Y-3922D01*
X27462Y-3921D01*
X27226Y-4019D01*
X27226Y-1684D01*
X27226Y-1557D01*
X27178Y-1318D01*
X27043Y-1115D01*
X26840Y-980D01*
X26601Y-932D01*
X26362Y-980D01*
X26202Y-1087D01*
X26188Y-1054D01*
X26118Y-984D01*
X26026Y-946D01*
X25927Y-946D01*
X25177Y-946D01*
X25085Y-983D01*
X25014Y-1054D01*
X24976Y-1146D01*
X24976Y-1245D01*
X24976Y-2095D01*
X25014Y-2187D01*
X25084Y-2257D01*
X25176Y-2296D01*
X25276Y-2296D01*
X26026Y-2296D01*
X26118Y-2258D01*
X26188Y-2187D01*
X26202Y-2154D01*
X26362Y-2261D01*
X26601Y-2309D01*
X26840Y-2261D01*
X27043Y-2126D01*
X27178Y-1923D01*
X27226Y-1684D01*
X27226Y-4019D01*
X27205Y-4028D01*
X27136Y-4096D01*
X27136Y-3417D01*
X26979Y-3036D01*
X26688Y-2745D01*
X26308Y-2587D01*
X25896Y-2586D01*
X25516Y-2744D01*
X25224Y-3035D01*
X25066Y-3415D01*
X25066Y-3827D01*
X25223Y-4207D01*
X25514Y-4498D01*
X25894Y-4656D01*
X26306Y-4657D01*
X26687Y-4499D01*
X26978Y-4209D01*
X27136Y-3828D01*
X27136Y-3417D01*
X27136Y-4096D01*
X27008Y-4225D01*
X26901Y-4482D01*
X26901Y-4760D01*
X27007Y-5018D01*
X27204Y-5215D01*
X27437Y-5311D01*
X27437Y-5622D01*
X27410Y-5633D01*
X27339Y-5704D01*
X27301Y-5796D01*
X27301Y-5895D01*
X27301Y-6445D01*
X27339Y-6537D01*
X27409Y-6607D01*
X27501Y-6646D01*
X27601Y-6646D01*
X27951Y-6646D01*
X28043Y-6608D01*
X28101Y-6549D01*
X28159Y-6607D01*
X28251Y-6646D01*
X28351Y-6646D01*
X28701Y-6646D01*
X28793Y-6608D01*
X28820Y-6580D01*
X29290Y-7050D01*
X29290Y-9433D01*
X29021Y-9322D01*
X28683Y-9321D01*
X28370Y-9451D01*
X28131Y-9689D01*
X28001Y-10002D01*
X28001Y-10340D01*
X28082Y-10537D01*
X27985Y-10536D01*
X27770Y-10625D01*
X27666Y-10729D01*
X27666Y-7009D01*
X27580Y-6801D01*
X27422Y-6642D01*
X27214Y-6556D01*
X26989Y-6556D01*
X26781Y-6641D01*
X26622Y-6800D01*
X26536Y-7008D01*
X26536Y-7232D01*
X26622Y-7440D01*
X26781Y-7599D01*
X26988Y-7685D01*
X27213Y-7686D01*
X27421Y-7600D01*
X27580Y-7441D01*
X27666Y-7233D01*
X27666Y-7009D01*
X27666Y-10729D01*
X27605Y-10790D01*
X27516Y-11005D01*
X27516Y-11237D01*
X27592Y-11422D01*
X27462Y-11421D01*
X27205Y-11528D01*
X27136Y-11596D01*
X27136Y-10917D01*
X26979Y-10536D01*
X26688Y-10245D01*
X26308Y-10087D01*
X25896Y-10086D01*
X25516Y-10244D01*
X25224Y-10535D01*
X25066Y-10915D01*
X25066Y-11327D01*
X25223Y-11707D01*
X25514Y-11998D01*
X25894Y-12156D01*
X26306Y-12157D01*
X26687Y-11999D01*
X26978Y-11709D01*
X27136Y-11328D01*
X27136Y-10917D01*
X27136Y-11596D01*
X27008Y-11725D01*
X26901Y-11982D01*
X26901Y-12260D01*
X27007Y-12518D01*
X27161Y-12672D01*
X26962Y-12671D01*
X26705Y-12778D01*
X26686Y-12797D01*
X26686Y-12756D01*
X26597Y-12541D01*
X26433Y-12376D01*
X26218Y-12287D01*
X25985Y-12286D01*
X25770Y-12375D01*
X25605Y-12540D01*
X25577Y-12608D01*
X25498Y-12528D01*
X25241Y-12422D01*
X24962Y-12421D01*
X24705Y-12528D01*
X24686Y-12547D01*
X24686Y-11006D01*
X24666Y-10957D01*
X24666Y-7009D01*
X24580Y-6801D01*
X24422Y-6642D01*
X24214Y-6556D01*
X23989Y-6556D01*
X23781Y-6641D01*
X23622Y-6800D01*
X23536Y-7008D01*
X23536Y-7232D01*
X23622Y-7440D01*
X23781Y-7599D01*
X23988Y-7685D01*
X24213Y-7686D01*
X24421Y-7600D01*
X24580Y-7441D01*
X24666Y-7233D01*
X24666Y-7009D01*
X24666Y-10957D01*
X24597Y-10791D01*
X24433Y-10626D01*
X24218Y-10537D01*
X23985Y-10536D01*
X23786Y-10619D01*
X23886Y-10378D01*
X23886Y-9967D01*
X23729Y-9586D01*
X23438Y-9295D01*
X23058Y-9137D01*
X22666Y-9136D01*
X22666Y-7009D01*
X22580Y-6801D01*
X22422Y-6642D01*
X22214Y-6556D01*
X21989Y-6556D01*
X21781Y-6641D01*
X21622Y-6800D01*
X21536Y-7008D01*
X21536Y-7232D01*
X21622Y-7440D01*
X21781Y-7599D01*
X21988Y-7685D01*
X22213Y-7686D01*
X22421Y-7600D01*
X22580Y-7441D01*
X22666Y-7233D01*
X22666Y-7009D01*
X22666Y-9136D01*
X22646Y-9136D01*
X22266Y-9294D01*
X21974Y-9585D01*
X21816Y-9965D01*
X21816Y-10377D01*
X21973Y-10757D01*
X22264Y-11048D01*
X22644Y-11206D01*
X23056Y-11207D01*
X23437Y-11049D01*
X23541Y-10946D01*
X23516Y-11005D01*
X23516Y-11237D01*
X23605Y-11452D01*
X23769Y-11617D01*
X23984Y-11706D01*
X24217Y-11707D01*
X24432Y-11618D01*
X24597Y-11453D01*
X24686Y-11238D01*
X24686Y-11006D01*
X24686Y-12547D01*
X24508Y-12725D01*
X24401Y-12982D01*
X24401Y-13260D01*
X24445Y-13368D01*
X21838Y-15975D01*
X21815Y-15918D01*
X21689Y-15792D01*
X21525Y-15724D01*
X21412Y-15724D01*
X21412Y-14160D01*
X21390Y-14050D01*
X21370Y-14020D01*
X21401Y-13946D01*
X21401Y-13846D01*
X21401Y-13296D01*
X21363Y-13204D01*
X21347Y-13188D01*
X21357Y-13136D01*
X21357Y-13136D01*
X21357Y-6605D01*
X21357Y-6605D01*
X21347Y-6554D01*
X21363Y-6537D01*
X21401Y-6446D01*
X21401Y-6346D01*
X21401Y-5796D01*
X21363Y-5704D01*
X21293Y-5634D01*
X21201Y-5596D01*
X21102Y-5596D01*
X20752Y-5596D01*
X20660Y-5633D01*
X20601Y-5692D01*
X20543Y-5634D01*
X20515Y-5622D01*
X20515Y-5197D01*
X20694Y-5019D01*
X20752Y-4878D01*
X21700Y-5826D01*
X21700Y-5826D01*
X21794Y-5889D01*
X21905Y-5911D01*
X24463Y-5911D01*
X24507Y-6018D01*
X24704Y-6215D01*
X24961Y-6321D01*
X25240Y-6322D01*
X25497Y-6215D01*
X25694Y-6019D01*
X25801Y-5761D01*
X25801Y-5483D01*
X25695Y-5226D01*
X25498Y-5028D01*
X25241Y-4922D01*
X24962Y-4921D01*
X24705Y-5028D01*
X24686Y-5047D01*
X24686Y-3506D01*
X24597Y-3291D01*
X24433Y-3126D01*
X24218Y-3037D01*
X23985Y-3036D01*
X23770Y-3125D01*
X23605Y-3290D01*
X23516Y-3505D01*
X23516Y-3737D01*
X23605Y-3952D01*
X23769Y-4117D01*
X23984Y-4206D01*
X24217Y-4207D01*
X24432Y-4118D01*
X24597Y-3953D01*
X24686Y-3738D01*
X24686Y-3506D01*
X24686Y-5047D01*
X24508Y-5225D01*
X24463Y-5332D01*
X22025Y-5332D01*
X20846Y-4153D01*
X20932Y-4118D01*
X21097Y-3953D01*
X21186Y-3738D01*
X21186Y-3506D01*
X21097Y-3291D01*
X20933Y-3126D01*
X20718Y-3037D01*
X20485Y-3036D01*
X20270Y-3125D01*
X20105Y-3290D01*
X20016Y-3505D01*
X20016Y-3737D01*
X20017Y-3741D01*
X19636Y-3741D01*
X19636Y-3417D01*
X19479Y-3036D01*
X19188Y-2745D01*
X18808Y-2587D01*
X18396Y-2586D01*
X18016Y-2744D01*
X17724Y-3035D01*
X17566Y-3415D01*
X17566Y-3827D01*
X17723Y-4207D01*
X18014Y-4498D01*
X18394Y-4656D01*
X18492Y-4656D01*
X18059Y-5089D01*
X17998Y-5028D01*
X17741Y-4922D01*
X17462Y-4921D01*
X17205Y-5028D01*
X17186Y-5047D01*
X17186Y-3506D01*
X17097Y-3291D01*
X16933Y-3126D01*
X16718Y-3037D01*
X16485Y-3036D01*
X16270Y-3125D01*
X16105Y-3290D01*
X16016Y-3505D01*
X16016Y-3737D01*
X16105Y-3952D01*
X16269Y-4117D01*
X16484Y-4206D01*
X16717Y-4207D01*
X16932Y-4118D01*
X17097Y-3953D01*
X17186Y-3738D01*
X17186Y-3506D01*
X17186Y-5047D01*
X17008Y-5225D01*
X16963Y-5332D01*
X16065Y-5332D01*
X16086Y-5282D01*
X16086Y-3963D01*
X16048Y-3871D01*
X15977Y-3800D01*
X15885Y-3762D01*
X15786Y-3762D01*
X15751Y-3762D01*
X15689Y-3825D01*
X15689Y-4573D01*
X16023Y-4573D01*
X16086Y-4510D01*
X16086Y-3963D01*
X16086Y-5282D01*
X16086Y-4735D01*
X16023Y-4673D01*
X15689Y-4673D01*
X15689Y-4680D01*
X15589Y-4680D01*
X15589Y-4673D01*
X15589Y-4573D01*
X15589Y-3825D01*
X15526Y-3762D01*
X15491Y-3762D01*
X15392Y-3762D01*
X15300Y-3800D01*
X15230Y-3871D01*
X15192Y-3963D01*
X15192Y-4510D01*
X15254Y-4573D01*
X15589Y-4573D01*
X15589Y-4673D01*
X15254Y-4673D01*
X15192Y-4735D01*
X15192Y-5282D01*
X15212Y-5332D01*
X14490Y-5332D01*
X14510Y-5283D01*
X14511Y-5183D01*
X14511Y-3963D01*
X14473Y-3871D01*
X14402Y-3800D01*
X14310Y-3762D01*
X14211Y-3762D01*
X13817Y-3762D01*
X13725Y-3800D01*
X13655Y-3870D01*
X13617Y-3962D01*
X13617Y-4062D01*
X13617Y-4844D01*
X13493Y-4844D01*
X13329Y-4912D01*
X13203Y-5038D01*
X13135Y-5202D01*
X13135Y-5380D01*
X13150Y-5416D01*
X13148Y-5417D01*
X12975Y-5590D01*
X12972Y-5585D01*
X12930Y-5523D01*
X12930Y-5523D01*
X12890Y-5482D01*
X12890Y-5258D01*
X12997Y-5214D01*
X13194Y-5018D01*
X13301Y-4760D01*
X13301Y-4482D01*
X13195Y-4225D01*
X13176Y-4206D01*
X13217Y-4206D01*
X13432Y-4117D01*
X13597Y-3952D01*
X13686Y-3737D01*
X13686Y-3505D01*
X13597Y-3290D01*
X13433Y-3125D01*
X13218Y-3036D01*
X12985Y-3035D01*
X12770Y-3124D01*
X12605Y-3289D01*
X12516Y-3504D01*
X12516Y-3736D01*
X12592Y-3921D01*
X12462Y-3920D01*
X12205Y-4027D01*
X12008Y-4224D01*
X11901Y-4481D01*
X11901Y-4759D01*
X12007Y-5017D01*
X12204Y-5214D01*
X12312Y-5258D01*
X12312Y-5602D01*
X12334Y-5713D01*
X12335Y-5715D01*
X12301Y-5796D01*
X12301Y-5895D01*
X12301Y-6227D01*
X11116Y-6227D01*
X10757Y-5867D01*
X10801Y-5760D01*
X10801Y-5482D01*
X10695Y-5225D01*
X10498Y-5027D01*
X10241Y-4921D01*
X9962Y-4920D01*
X9705Y-5027D01*
X9508Y-5224D01*
X9401Y-5481D01*
X9401Y-5759D01*
X9507Y-6017D01*
X9704Y-6214D01*
X9961Y-6320D01*
X10240Y-6321D01*
X10347Y-6276D01*
X10792Y-6721D01*
X10792Y-6721D01*
X10886Y-6783D01*
X10996Y-6805D01*
X11120Y-6805D01*
X11036Y-7008D01*
X11036Y-7232D01*
X11122Y-7440D01*
X11280Y-7599D01*
X11488Y-7685D01*
X11713Y-7686D01*
X11920Y-7600D01*
X12080Y-7441D01*
X12166Y-7233D01*
X12166Y-7009D01*
X12082Y-6805D01*
X12949Y-6805D01*
X12949Y-6805D01*
X13060Y-6783D01*
X13154Y-6721D01*
X13225Y-6649D01*
X13271Y-6718D01*
X13274Y-6721D01*
X13274Y-10559D01*
X13218Y-10536D01*
X12985Y-10535D01*
X12770Y-10624D01*
X12605Y-10789D01*
X12569Y-10876D01*
X8797Y-7103D01*
X8838Y-7062D01*
X8876Y-6971D01*
X8876Y-6871D01*
X8876Y-6521D01*
X8838Y-6429D01*
X8779Y-6371D01*
X8838Y-6312D01*
X8876Y-6221D01*
X8876Y-6121D01*
X8876Y-5771D01*
X8838Y-5679D01*
X8768Y-5609D01*
X8676Y-5571D01*
X8640Y-5571D01*
X8640Y-4738D01*
X8618Y-4627D01*
X8555Y-4533D01*
X8555Y-4533D01*
X7454Y-3432D01*
X7454Y-3200D01*
X7480Y-3205D01*
X7613Y-3179D01*
X7649Y-3155D01*
X7692Y-3175D01*
X7746Y-3124D01*
X7746Y-3074D01*
X7802Y-2990D01*
X7828Y-2857D01*
X7828Y-2391D01*
X7844Y-2391D01*
X7844Y-2399D01*
X7853Y-2399D01*
X7853Y-2499D01*
X7844Y-2499D01*
X7844Y-3124D01*
X7897Y-3175D01*
X8006Y-3124D01*
X8046Y-3079D01*
X8046Y-3660D01*
X8073Y-3794D01*
X8149Y-3907D01*
X8637Y-4396D01*
X8750Y-4471D01*
X8884Y-4498D01*
X9328Y-4498D01*
X9462Y-4471D01*
X9462Y-4471D01*
X9576Y-4396D01*
X9934Y-4037D01*
X9934Y-4037D01*
X9934Y-4037D01*
X10010Y-3924D01*
X10036Y-3790D01*
X10036Y-3284D01*
X10179Y-3141D01*
X10066Y-3414D01*
X10066Y-3826D01*
X10223Y-4206D01*
X10514Y-4497D01*
X10894Y-4655D01*
X11306Y-4656D01*
X11686Y-4499D01*
X11978Y-4208D01*
X12136Y-3827D01*
X12136Y-3416D01*
X11979Y-3035D01*
X11688Y-2744D01*
X11308Y-2586D01*
X10896Y-2585D01*
X10622Y-2699D01*
X10746Y-2574D01*
X16943Y-2574D01*
X17077Y-2548D01*
X17077Y-2548D01*
X17191Y-2472D01*
X17503Y-2160D01*
X17514Y-2187D01*
X17584Y-2257D01*
X17676Y-2296D01*
X17776Y-2296D01*
X18526Y-2296D01*
X18618Y-2258D01*
X18688Y-2187D01*
X18702Y-2154D01*
X18862Y-2261D01*
X19101Y-2309D01*
X19340Y-2261D01*
X19543Y-2126D01*
X19678Y-1923D01*
X19726Y-1684D01*
X19726Y-1557D01*
X19678Y-1318D01*
X19543Y-1115D01*
X19340Y-980D01*
X19101Y-932D01*
X18862Y-980D01*
X18702Y-1087D01*
X18688Y-1054D01*
X18618Y-984D01*
X18526Y-946D01*
X18427Y-946D01*
X17677Y-946D01*
X17585Y-983D01*
X17514Y-1054D01*
X17476Y-1146D01*
X17476Y-1245D01*
X17476Y-1285D01*
X17413Y-1297D01*
X17300Y-1373D01*
X17300Y-1373D01*
X16798Y-1874D01*
X16043Y-1874D01*
X16046Y-1871D01*
X16084Y-1779D01*
X16085Y-1679D01*
X16085Y-459D01*
X16047Y-367D01*
X15976Y-297D01*
X15884Y-258D01*
X15785Y-258D01*
X15391Y-258D01*
X15299Y-296D01*
X15229Y-367D01*
X15191Y-458D01*
X15191Y-558D01*
X15191Y-1778D01*
X15229Y-1870D01*
X15233Y-1874D01*
X14469Y-1874D01*
X14472Y-1871D01*
X14510Y-1779D01*
X14511Y-1679D01*
X14511Y-459D01*
X14473Y-367D01*
X14402Y-297D01*
X14310Y-258D01*
X14211Y-258D01*
X13817Y-258D01*
X13725Y-296D01*
X13655Y-367D01*
X13617Y-458D01*
X13617Y-558D01*
X13617Y-1778D01*
X13655Y-1870D01*
X13659Y-1874D01*
X12188Y-1874D01*
X12226Y-1684D01*
X12226Y-1557D01*
X12178Y-1318D01*
X12043Y-1115D01*
X11840Y-980D01*
X11601Y-932D01*
X11362Y-980D01*
X11202Y-1087D01*
X11188Y-1054D01*
X11118Y-984D01*
X11026Y-946D01*
X10926Y-946D01*
X10176Y-946D01*
X10084Y-983D01*
X10014Y-1054D01*
X9976Y-1146D01*
X9976Y-1245D01*
X9976Y-2095D01*
X10014Y-2187D01*
X10079Y-2252D01*
X9757Y-2573D01*
X9757Y-1710D01*
X9737Y-1661D01*
X9757Y-1612D01*
X9757Y-1513D01*
X9757Y-240D01*
X28923Y-240D01*
X28899Y-313D01*
X28911Y-491D01*
X28955Y-596D01*
X29040Y-611D01*
X29280Y-371D01*
X29274Y-365D01*
X29345Y-294D01*
X29351Y-300D01*
X29356Y-294D01*
X29427Y-365D01*
X29421Y-371D01*
X29427Y-376D01*
X29356Y-447D01*
X29351Y-441D01*
X29110Y-682D01*
X29125Y-766D01*
X29294Y-823D01*
X29431Y-813D01*
X29431Y-6373D01*
G54D10*
G36*
X29431Y-43927D02*
X29408Y-43920D01*
X29230Y-43932D01*
X29125Y-43976D01*
X29110Y-44060D01*
X29351Y-44301D01*
X29356Y-44295D01*
X29427Y-44366D01*
X29421Y-44372D01*
X29427Y-44377D01*
X29356Y-44448D01*
X29351Y-44442D01*
X29345Y-44448D01*
X29274Y-44377D01*
X29280Y-44372D01*
X29040Y-44131D01*
X28955Y-44146D01*
X28899Y-44314D01*
X28908Y-44451D01*
X25801Y-44451D01*
X25801Y-42983D01*
X25695Y-42726D01*
X25498Y-42528D01*
X25241Y-42422D01*
X24962Y-42421D01*
X24705Y-42528D01*
X24686Y-42547D01*
X24686Y-41006D01*
X24597Y-40791D01*
X24433Y-40626D01*
X24248Y-40549D01*
X24248Y-37232D01*
X24180Y-37068D01*
X24054Y-36942D01*
X23890Y-36874D01*
X23712Y-36874D01*
X23548Y-36942D01*
X23422Y-37067D01*
X23354Y-37231D01*
X23354Y-37409D01*
X23422Y-37573D01*
X23547Y-37699D01*
X23712Y-37767D01*
X23889Y-37767D01*
X24054Y-37700D01*
X24179Y-37574D01*
X24248Y-37410D01*
X24248Y-37232D01*
X24248Y-40549D01*
X24218Y-40537D01*
X23985Y-40536D01*
X23770Y-40625D01*
X23605Y-40790D01*
X23516Y-41005D01*
X23516Y-41237D01*
X23541Y-41297D01*
X23438Y-41195D01*
X23058Y-41037D01*
X23048Y-41037D01*
X23048Y-37232D01*
X22980Y-37068D01*
X22854Y-36942D01*
X22690Y-36874D01*
X22512Y-36874D01*
X22348Y-36942D01*
X22222Y-37067D01*
X22154Y-37231D01*
X22154Y-37409D01*
X22222Y-37573D01*
X22347Y-37699D01*
X22512Y-37767D01*
X22689Y-37767D01*
X22854Y-37700D01*
X22979Y-37574D01*
X23048Y-37410D01*
X23048Y-37232D01*
X23048Y-41037D01*
X22646Y-41036D01*
X22266Y-41194D01*
X21974Y-41485D01*
X21816Y-41865D01*
X21816Y-42277D01*
X21973Y-42657D01*
X22264Y-42948D01*
X22644Y-43106D01*
X23056Y-43107D01*
X23437Y-42949D01*
X23728Y-42659D01*
X23886Y-42278D01*
X23886Y-41867D01*
X23786Y-41624D01*
X23984Y-41706D01*
X24217Y-41707D01*
X24432Y-41618D01*
X24597Y-41453D01*
X24686Y-41238D01*
X24686Y-41006D01*
X24686Y-42547D01*
X24508Y-42725D01*
X24401Y-42982D01*
X24401Y-43260D01*
X24507Y-43518D01*
X24704Y-43715D01*
X24961Y-43821D01*
X25240Y-43822D01*
X25497Y-43715D01*
X25694Y-43519D01*
X25801Y-43261D01*
X25801Y-42983D01*
X25801Y-44451D01*
X18301Y-44451D01*
X18301Y-42983D01*
X18195Y-42726D01*
X17998Y-42528D01*
X17741Y-42422D01*
X17462Y-42421D01*
X17205Y-42528D01*
X17186Y-42547D01*
X17186Y-41006D01*
X17097Y-40791D01*
X16933Y-40626D01*
X16718Y-40537D01*
X16485Y-40536D01*
X16448Y-40552D01*
X16448Y-37232D01*
X16380Y-37068D01*
X16254Y-36942D01*
X16090Y-36874D01*
X15912Y-36874D01*
X15748Y-36942D01*
X15622Y-37067D01*
X15554Y-37231D01*
X15554Y-37409D01*
X15622Y-37573D01*
X15747Y-37699D01*
X15912Y-37767D01*
X16089Y-37767D01*
X16254Y-37700D01*
X16379Y-37574D01*
X16448Y-37410D01*
X16448Y-37232D01*
X16448Y-40552D01*
X16270Y-40625D01*
X16105Y-40790D01*
X16016Y-41005D01*
X16016Y-41237D01*
X16105Y-41452D01*
X16269Y-41617D01*
X16484Y-41706D01*
X16717Y-41707D01*
X16932Y-41618D01*
X17097Y-41453D01*
X17186Y-41238D01*
X17186Y-41006D01*
X17186Y-42547D01*
X17008Y-42725D01*
X16901Y-42982D01*
X16901Y-43260D01*
X17007Y-43518D01*
X17204Y-43715D01*
X17461Y-43821D01*
X17740Y-43822D01*
X17997Y-43715D01*
X18194Y-43519D01*
X18301Y-43261D01*
X18301Y-42983D01*
X18301Y-44451D01*
X14649Y-44451D01*
X14651Y-44446D01*
X14651Y-44347D01*
X14651Y-43797D01*
X14613Y-43705D01*
X14543Y-43635D01*
X14515Y-43623D01*
X14515Y-37618D01*
X14597Y-37700D01*
X14761Y-37768D01*
X14939Y-37768D01*
X15103Y-37701D01*
X15229Y-37575D01*
X15297Y-37411D01*
X15298Y-37233D01*
X15230Y-37069D01*
X15104Y-36943D01*
X14940Y-36875D01*
X14762Y-36875D01*
X14598Y-36943D01*
X14515Y-37025D01*
X14515Y-36870D01*
X14542Y-36859D01*
X14613Y-36788D01*
X14651Y-36696D01*
X14651Y-36661D01*
X17665Y-36661D01*
X17665Y-36661D01*
X17776Y-36639D01*
X17870Y-36576D01*
X18375Y-36071D01*
X18375Y-36071D01*
X18417Y-36008D01*
X18438Y-35977D01*
X18438Y-35977D01*
X18460Y-35866D01*
X18460Y-35866D01*
X18460Y-34655D01*
X18806Y-34656D01*
X19187Y-34498D01*
X19478Y-34207D01*
X19636Y-33827D01*
X19636Y-33415D01*
X19479Y-33035D01*
X19188Y-32743D01*
X18808Y-32586D01*
X18396Y-32585D01*
X18016Y-32742D01*
X17985Y-32773D01*
X17985Y-29163D01*
X18384Y-28763D01*
X18384Y-28763D01*
X18447Y-28670D01*
X18447Y-28670D01*
X18451Y-28651D01*
X18469Y-28559D01*
X18469Y-28559D01*
X18469Y-27884D01*
X18447Y-27773D01*
X18384Y-27679D01*
X18384Y-27679D01*
X18038Y-27333D01*
X18008Y-27313D01*
X19394Y-27313D01*
X19394Y-27313D01*
X19421Y-27308D01*
X19507Y-27516D01*
X19704Y-27713D01*
X19812Y-27758D01*
X19812Y-28132D01*
X19810Y-28133D01*
X19739Y-28204D01*
X19701Y-28295D01*
X19701Y-28395D01*
X19701Y-28945D01*
X19739Y-29037D01*
X19809Y-29107D01*
X19901Y-29145D01*
X20001Y-29145D01*
X20351Y-29145D01*
X20443Y-29107D01*
X20501Y-29049D01*
X20559Y-29107D01*
X20612Y-29129D01*
X20671Y-29218D01*
X20765Y-29312D01*
X20765Y-33055D01*
X20718Y-33035D01*
X20485Y-33035D01*
X20270Y-33124D01*
X20105Y-33289D01*
X20016Y-33503D01*
X20016Y-33736D01*
X20092Y-33920D01*
X19962Y-33920D01*
X19705Y-34027D01*
X19508Y-34223D01*
X19401Y-34481D01*
X19401Y-34759D01*
X19507Y-35016D01*
X19704Y-35213D01*
X19937Y-35310D01*
X19937Y-35622D01*
X19910Y-35633D01*
X19839Y-35704D01*
X19801Y-35795D01*
X19801Y-35895D01*
X19801Y-36445D01*
X19839Y-36537D01*
X19909Y-36607D01*
X20001Y-36645D01*
X20101Y-36645D01*
X20451Y-36645D01*
X20543Y-36607D01*
X20601Y-36549D01*
X20659Y-36607D01*
X20712Y-36629D01*
X20771Y-36718D01*
X20775Y-36721D01*
X20775Y-40560D01*
X20718Y-40537D01*
X20485Y-40536D01*
X20270Y-40625D01*
X20105Y-40790D01*
X20048Y-40929D01*
X20048Y-37232D01*
X19980Y-37068D01*
X19854Y-36942D01*
X19690Y-36874D01*
X19512Y-36874D01*
X19348Y-36942D01*
X19222Y-37067D01*
X19154Y-37231D01*
X19154Y-37409D01*
X19222Y-37573D01*
X19347Y-37699D01*
X19512Y-37767D01*
X19689Y-37767D01*
X19854Y-37700D01*
X19979Y-37574D01*
X20048Y-37410D01*
X20048Y-37232D01*
X20048Y-40929D01*
X20016Y-41005D01*
X20016Y-41237D01*
X20092Y-41422D01*
X19962Y-41421D01*
X19705Y-41528D01*
X19636Y-41596D01*
X19636Y-40917D01*
X19479Y-40536D01*
X19188Y-40245D01*
X18848Y-40103D01*
X18848Y-37232D01*
X18780Y-37068D01*
X18654Y-36942D01*
X18490Y-36874D01*
X18312Y-36874D01*
X18148Y-36942D01*
X18022Y-37067D01*
X17954Y-37231D01*
X17954Y-37409D01*
X18022Y-37573D01*
X18147Y-37699D01*
X18312Y-37767D01*
X18489Y-37767D01*
X18654Y-37700D01*
X18779Y-37574D01*
X18848Y-37410D01*
X18848Y-37232D01*
X18848Y-40103D01*
X18808Y-40087D01*
X18396Y-40086D01*
X18016Y-40244D01*
X17724Y-40535D01*
X17648Y-40718D01*
X17648Y-37232D01*
X17580Y-37068D01*
X17454Y-36942D01*
X17290Y-36874D01*
X17112Y-36874D01*
X16948Y-36942D01*
X16822Y-37067D01*
X16754Y-37231D01*
X16754Y-37409D01*
X16822Y-37573D01*
X16947Y-37699D01*
X17112Y-37767D01*
X17289Y-37767D01*
X17454Y-37700D01*
X17579Y-37574D01*
X17648Y-37410D01*
X17648Y-37232D01*
X17648Y-40718D01*
X17566Y-40915D01*
X17566Y-41327D01*
X17723Y-41707D01*
X18014Y-41998D01*
X18394Y-42156D01*
X18806Y-42157D01*
X19187Y-41999D01*
X19478Y-41709D01*
X19636Y-41328D01*
X19636Y-40917D01*
X19636Y-41596D01*
X19508Y-41725D01*
X19401Y-41982D01*
X19401Y-42260D01*
X19507Y-42518D01*
X19704Y-42715D01*
X19937Y-42811D01*
X19937Y-43123D01*
X19910Y-43134D01*
X19839Y-43205D01*
X19801Y-43297D01*
X19801Y-43396D01*
X19801Y-43946D01*
X19839Y-44038D01*
X19909Y-44108D01*
X20001Y-44147D01*
X20101Y-44147D01*
X20451Y-44147D01*
X20543Y-44109D01*
X20601Y-44050D01*
X20659Y-44108D01*
X20751Y-44147D01*
X20851Y-44147D01*
X21201Y-44147D01*
X21293Y-44109D01*
X21363Y-44038D01*
X21401Y-43946D01*
X21401Y-43847D01*
X21401Y-43297D01*
X21363Y-43205D01*
X21344Y-43186D01*
X21353Y-43140D01*
X21353Y-43140D01*
X21353Y-37743D01*
X21412Y-37767D01*
X21589Y-37767D01*
X21754Y-37700D01*
X21879Y-37574D01*
X21948Y-37410D01*
X21948Y-37232D01*
X21880Y-37068D01*
X21754Y-36942D01*
X21590Y-36874D01*
X21412Y-36874D01*
X21353Y-36898D01*
X21353Y-36602D01*
X21344Y-36556D01*
X21363Y-36537D01*
X21401Y-36445D01*
X21401Y-36346D01*
X21401Y-35796D01*
X21363Y-35704D01*
X21338Y-35679D01*
X21344Y-35649D01*
X21344Y-35649D01*
X21344Y-29192D01*
X21326Y-29100D01*
X21322Y-29081D01*
X21322Y-29081D01*
X21274Y-29010D01*
X21301Y-28945D01*
X21301Y-28846D01*
X21301Y-28296D01*
X21263Y-28204D01*
X21193Y-28134D01*
X21165Y-28122D01*
X21165Y-27068D01*
X21147Y-26975D01*
X21143Y-26957D01*
X21143Y-26957D01*
X21081Y-26863D01*
X21081Y-26863D01*
X20863Y-26645D01*
X20932Y-26617D01*
X21097Y-26452D01*
X21186Y-26237D01*
X21186Y-26005D01*
X21097Y-25789D01*
X20933Y-25625D01*
X20718Y-25535D01*
X20485Y-25535D01*
X20423Y-25561D01*
X20423Y-24683D01*
X21010Y-24096D01*
X21136Y-24096D01*
X21300Y-24028D01*
X21426Y-23903D01*
X21494Y-23739D01*
X21494Y-23589D01*
X21625Y-23719D01*
X21738Y-23795D01*
X21806Y-23808D01*
X21839Y-23888D01*
X21909Y-23958D01*
X22001Y-23997D01*
X22101Y-23997D01*
X22451Y-23997D01*
X22543Y-23959D01*
X22601Y-23900D01*
X22660Y-23959D01*
X22752Y-23997D01*
X22864Y-23997D01*
X22926Y-23934D01*
X22926Y-23522D01*
X22918Y-23522D01*
X22918Y-23422D01*
X22926Y-23422D01*
X22926Y-23414D01*
X23026Y-23414D01*
X23026Y-23422D01*
X23034Y-23422D01*
X23034Y-23522D01*
X23026Y-23522D01*
X23026Y-23934D01*
X23089Y-23997D01*
X23201Y-23997D01*
X23293Y-23959D01*
X23363Y-23888D01*
X23401Y-23796D01*
X23401Y-23790D01*
X23476Y-23822D01*
X23576Y-23822D01*
X23689Y-23822D01*
X23751Y-23759D01*
X23751Y-23447D01*
X23743Y-23447D01*
X23743Y-23347D01*
X23751Y-23347D01*
X23751Y-23339D01*
X23851Y-23339D01*
X23851Y-23347D01*
X24264Y-23347D01*
X24326Y-23284D01*
X24326Y-23176D01*
X24441Y-23176D01*
X24605Y-23108D01*
X24731Y-22983D01*
X24799Y-22819D01*
X24799Y-22641D01*
X24732Y-22477D01*
X24606Y-22351D01*
X24442Y-22283D01*
X24264Y-22282D01*
X24247Y-22289D01*
X24218Y-22260D01*
X24126Y-22222D01*
X24061Y-22222D01*
X24065Y-22211D01*
X24066Y-22072D01*
X24126Y-22072D01*
X24218Y-22034D01*
X24288Y-21963D01*
X24326Y-21871D01*
X24326Y-21772D01*
X24326Y-21422D01*
X24288Y-21330D01*
X24230Y-21272D01*
X24288Y-21213D01*
X24326Y-21121D01*
X24326Y-21009D01*
X24264Y-20947D01*
X23851Y-20947D01*
X23851Y-20954D01*
X23751Y-20954D01*
X23751Y-20947D01*
X23339Y-20947D01*
X23276Y-21009D01*
X23276Y-21121D01*
X23314Y-21213D01*
X23373Y-21272D01*
X23360Y-21284D01*
X23355Y-21272D01*
X23284Y-21201D01*
X23193Y-21163D01*
X23093Y-21163D01*
X22640Y-21163D01*
X22601Y-21179D01*
X22563Y-21163D01*
X22463Y-21163D01*
X22399Y-21163D01*
X22336Y-21226D01*
X22336Y-21639D01*
X22344Y-21639D01*
X22344Y-21739D01*
X22336Y-21739D01*
X22336Y-21746D01*
X22236Y-21746D01*
X22236Y-21739D01*
X22236Y-21639D01*
X22236Y-21226D01*
X22174Y-21163D01*
X22109Y-21163D01*
X22010Y-21163D01*
X21918Y-21201D01*
X21848Y-21272D01*
X21842Y-21284D01*
X21805Y-21247D01*
X21863Y-21188D01*
X21901Y-21096D01*
X21901Y-20997D01*
X21901Y-20884D01*
X21839Y-20822D01*
X21526Y-20822D01*
X21526Y-21234D01*
X21539Y-21247D01*
X21526Y-21259D01*
X21526Y-21672D01*
X21839Y-21672D01*
X21872Y-21638D01*
X21872Y-21639D01*
X22236Y-21639D01*
X22236Y-21739D01*
X21872Y-21739D01*
X21839Y-21772D01*
X21839Y-21772D01*
X21526Y-21772D01*
X21526Y-22184D01*
X21589Y-22247D01*
X21701Y-22247D01*
X21793Y-22209D01*
X21836Y-22165D01*
X21810Y-22229D01*
X21810Y-22329D01*
X21810Y-22880D01*
X21834Y-22938D01*
X21073Y-22178D01*
X21101Y-22150D01*
X21160Y-22209D01*
X21252Y-22247D01*
X21364Y-22247D01*
X21426Y-22184D01*
X21426Y-21772D01*
X21418Y-21772D01*
X21418Y-21672D01*
X21426Y-21672D01*
X21426Y-21259D01*
X21414Y-21247D01*
X21426Y-21234D01*
X21426Y-20822D01*
X21418Y-20822D01*
X21418Y-20722D01*
X21426Y-20722D01*
X21426Y-20714D01*
X21526Y-20714D01*
X21526Y-20722D01*
X21839Y-20722D01*
X21861Y-20699D01*
X21919Y-20738D01*
X21950Y-20759D01*
X21950Y-20759D01*
X22061Y-20781D01*
X23276Y-20781D01*
X23276Y-20784D01*
X23339Y-20847D01*
X23751Y-20847D01*
X23751Y-20839D01*
X23851Y-20839D01*
X23851Y-20847D01*
X24264Y-20847D01*
X24326Y-20784D01*
X24326Y-20672D01*
X24288Y-20580D01*
X24218Y-20510D01*
X24126Y-20472D01*
X24027Y-20472D01*
X23914Y-20472D01*
X23851Y-20534D01*
X23851Y-20472D01*
X23820Y-20472D01*
X24199Y-20093D01*
X24640Y-20093D01*
X24508Y-20225D01*
X24401Y-20482D01*
X24401Y-20760D01*
X24507Y-21018D01*
X24704Y-21215D01*
X24961Y-21321D01*
X25240Y-21322D01*
X25497Y-21215D01*
X25673Y-21040D01*
X25970Y-21336D01*
X25896Y-21336D01*
X25516Y-21494D01*
X25224Y-21785D01*
X25066Y-22165D01*
X25066Y-22577D01*
X25223Y-22957D01*
X25514Y-23248D01*
X25894Y-23406D01*
X26306Y-23407D01*
X26687Y-23249D01*
X26978Y-22959D01*
X27136Y-22578D01*
X27136Y-22503D01*
X27558Y-22925D01*
X27508Y-22975D01*
X27401Y-23232D01*
X27401Y-23510D01*
X27507Y-23768D01*
X27704Y-23965D01*
X27961Y-24071D01*
X28240Y-24072D01*
X28497Y-23965D01*
X28694Y-23769D01*
X28801Y-23511D01*
X28801Y-23233D01*
X28695Y-22976D01*
X28498Y-22778D01*
X28241Y-22672D01*
X28123Y-22672D01*
X27023Y-21571D01*
X27240Y-21572D01*
X27497Y-21465D01*
X27694Y-21269D01*
X27739Y-21161D01*
X27801Y-21161D01*
X27801Y-21196D01*
X27839Y-21288D01*
X27909Y-21358D01*
X28001Y-21397D01*
X28101Y-21397D01*
X28451Y-21397D01*
X28543Y-21359D01*
X28601Y-21300D01*
X28659Y-21358D01*
X28751Y-21397D01*
X28851Y-21397D01*
X28945Y-21397D01*
X29290Y-21741D01*
X29290Y-24433D01*
X29021Y-24322D01*
X28683Y-24321D01*
X28370Y-24451D01*
X28131Y-24689D01*
X28001Y-25002D01*
X28001Y-25340D01*
X28082Y-25537D01*
X27985Y-25536D01*
X27770Y-25625D01*
X27605Y-25790D01*
X27516Y-26005D01*
X27516Y-26237D01*
X27592Y-26422D01*
X27462Y-26421D01*
X27205Y-26528D01*
X27136Y-26596D01*
X27136Y-25917D01*
X26979Y-25536D01*
X26688Y-25245D01*
X26686Y-25244D01*
X26686Y-24256D01*
X26597Y-24041D01*
X26433Y-23876D01*
X26218Y-23787D01*
X25985Y-23786D01*
X25770Y-23875D01*
X25605Y-24040D01*
X25516Y-24255D01*
X25516Y-24487D01*
X25605Y-24702D01*
X25769Y-24867D01*
X25984Y-24956D01*
X26217Y-24957D01*
X26432Y-24868D01*
X26597Y-24703D01*
X26686Y-24488D01*
X26686Y-24256D01*
X26686Y-25244D01*
X26308Y-25087D01*
X25896Y-25086D01*
X25516Y-25244D01*
X25224Y-25535D01*
X25066Y-25915D01*
X25066Y-26327D01*
X25223Y-26707D01*
X25514Y-26998D01*
X25894Y-27156D01*
X26306Y-27157D01*
X26687Y-26999D01*
X26978Y-26709D01*
X27136Y-26328D01*
X27136Y-25917D01*
X27136Y-26596D01*
X27008Y-26725D01*
X26901Y-26982D01*
X26901Y-27260D01*
X27007Y-27518D01*
X27161Y-27672D01*
X26962Y-27671D01*
X26705Y-27778D01*
X26686Y-27797D01*
X26686Y-27756D01*
X26597Y-27541D01*
X26433Y-27376D01*
X26218Y-27287D01*
X25985Y-27286D01*
X25770Y-27375D01*
X25605Y-27540D01*
X25577Y-27608D01*
X25498Y-27528D01*
X25241Y-27422D01*
X24962Y-27421D01*
X24705Y-27528D01*
X24686Y-27547D01*
X24686Y-26006D01*
X24597Y-25791D01*
X24433Y-25626D01*
X24326Y-25582D01*
X24326Y-23621D01*
X24326Y-23509D01*
X24264Y-23447D01*
X23851Y-23447D01*
X23851Y-23759D01*
X23914Y-23822D01*
X24027Y-23822D01*
X24126Y-23822D01*
X24218Y-23783D01*
X24288Y-23713D01*
X24326Y-23621D01*
X24326Y-25582D01*
X24218Y-25537D01*
X23985Y-25536D01*
X23786Y-25619D01*
X23886Y-25378D01*
X23886Y-24967D01*
X23751Y-24639D01*
X23729Y-24586D01*
X23438Y-24295D01*
X23058Y-24137D01*
X22646Y-24136D01*
X22266Y-24294D01*
X21974Y-24585D01*
X21816Y-24965D01*
X21816Y-25377D01*
X21973Y-25757D01*
X22264Y-26048D01*
X22440Y-26122D01*
X22266Y-26194D01*
X21974Y-26485D01*
X21816Y-26865D01*
X21816Y-27277D01*
X21973Y-27657D01*
X22264Y-27948D01*
X22644Y-28106D01*
X23056Y-28107D01*
X23437Y-27949D01*
X23728Y-27659D01*
X23886Y-27278D01*
X23886Y-26867D01*
X23786Y-26624D01*
X23984Y-26706D01*
X24217Y-26707D01*
X24432Y-26618D01*
X24597Y-26453D01*
X24686Y-26238D01*
X24686Y-26006D01*
X24686Y-27547D01*
X24508Y-27725D01*
X24401Y-27982D01*
X24401Y-28260D01*
X24507Y-28518D01*
X24704Y-28715D01*
X24961Y-28821D01*
X25240Y-28822D01*
X25497Y-28715D01*
X25663Y-28550D01*
X25950Y-28836D01*
X25896Y-28836D01*
X25516Y-28994D01*
X25224Y-29285D01*
X25066Y-29665D01*
X25066Y-30077D01*
X25223Y-30457D01*
X25514Y-30748D01*
X25894Y-30906D01*
X26306Y-30907D01*
X26687Y-30749D01*
X26978Y-30459D01*
X27136Y-30078D01*
X27136Y-30023D01*
X27548Y-30435D01*
X27508Y-30475D01*
X27401Y-30732D01*
X27401Y-31010D01*
X27507Y-31268D01*
X27704Y-31465D01*
X27961Y-31571D01*
X28240Y-31572D01*
X28497Y-31465D01*
X28694Y-31269D01*
X28801Y-31011D01*
X28801Y-30733D01*
X28695Y-30476D01*
X28498Y-30278D01*
X28241Y-30172D01*
X28103Y-30172D01*
X27003Y-29071D01*
X27240Y-29072D01*
X27497Y-28965D01*
X27694Y-28769D01*
X27739Y-28661D01*
X27801Y-28661D01*
X27801Y-28696D01*
X27839Y-28788D01*
X27909Y-28858D01*
X28001Y-28897D01*
X28101Y-28897D01*
X28451Y-28897D01*
X28543Y-28859D01*
X28601Y-28800D01*
X28659Y-28858D01*
X28751Y-28897D01*
X28851Y-28897D01*
X29201Y-28897D01*
X29290Y-28860D01*
X29290Y-31933D01*
X29021Y-31822D01*
X28683Y-31821D01*
X28370Y-31951D01*
X28131Y-32189D01*
X28001Y-32502D01*
X28001Y-32840D01*
X28082Y-33037D01*
X27985Y-33036D01*
X27770Y-33125D01*
X27605Y-33290D01*
X27516Y-33505D01*
X27516Y-33737D01*
X27592Y-33922D01*
X27462Y-33921D01*
X27205Y-34028D01*
X27136Y-34096D01*
X27136Y-33417D01*
X26979Y-33036D01*
X26688Y-32745D01*
X26686Y-32744D01*
X26686Y-31756D01*
X26597Y-31541D01*
X26433Y-31376D01*
X26218Y-31287D01*
X25985Y-31286D01*
X25770Y-31375D01*
X25605Y-31540D01*
X25516Y-31755D01*
X25516Y-31987D01*
X25605Y-32202D01*
X25769Y-32367D01*
X25984Y-32456D01*
X26217Y-32457D01*
X26432Y-32368D01*
X26597Y-32203D01*
X26686Y-31988D01*
X26686Y-31756D01*
X26686Y-32744D01*
X26308Y-32587D01*
X25896Y-32586D01*
X25516Y-32744D01*
X25224Y-33035D01*
X25066Y-33415D01*
X25066Y-33827D01*
X25223Y-34207D01*
X25514Y-34498D01*
X25894Y-34656D01*
X26306Y-34657D01*
X26687Y-34499D01*
X26978Y-34209D01*
X27136Y-33828D01*
X27136Y-33417D01*
X27136Y-34096D01*
X27008Y-34225D01*
X26901Y-34482D01*
X26901Y-34760D01*
X27007Y-35018D01*
X27161Y-35172D01*
X26962Y-35171D01*
X26705Y-35278D01*
X26686Y-35297D01*
X26686Y-35256D01*
X26597Y-35041D01*
X26433Y-34876D01*
X26218Y-34787D01*
X25985Y-34786D01*
X25770Y-34875D01*
X25605Y-35040D01*
X25577Y-35108D01*
X25498Y-35028D01*
X25241Y-34922D01*
X24962Y-34921D01*
X24705Y-35028D01*
X24686Y-35047D01*
X24686Y-33506D01*
X24597Y-33291D01*
X24433Y-33126D01*
X24218Y-33037D01*
X23985Y-33036D01*
X23786Y-33119D01*
X23886Y-32878D01*
X23886Y-32467D01*
X23729Y-32086D01*
X23438Y-31795D01*
X23058Y-31637D01*
X22646Y-31636D01*
X22266Y-31794D01*
X21974Y-32085D01*
X21816Y-32465D01*
X21816Y-32877D01*
X21973Y-33257D01*
X22264Y-33548D01*
X22440Y-33622D01*
X22266Y-33694D01*
X21974Y-33985D01*
X21816Y-34365D01*
X21816Y-34777D01*
X21973Y-35157D01*
X22264Y-35448D01*
X22644Y-35606D01*
X23056Y-35607D01*
X23437Y-35449D01*
X23728Y-35159D01*
X23886Y-34778D01*
X23886Y-34367D01*
X23786Y-34124D01*
X23984Y-34206D01*
X24217Y-34207D01*
X24432Y-34118D01*
X24597Y-33953D01*
X24686Y-33738D01*
X24686Y-33506D01*
X24686Y-35047D01*
X24508Y-35225D01*
X24401Y-35482D01*
X24401Y-35760D01*
X24507Y-36018D01*
X24704Y-36215D01*
X24961Y-36321D01*
X25240Y-36322D01*
X25497Y-36215D01*
X25663Y-36050D01*
X25950Y-36336D01*
X25896Y-36336D01*
X25516Y-36494D01*
X25224Y-36785D01*
X25066Y-37165D01*
X25066Y-37577D01*
X25223Y-37957D01*
X25514Y-38248D01*
X25894Y-38406D01*
X26306Y-38407D01*
X26687Y-38249D01*
X26978Y-37959D01*
X27136Y-37578D01*
X27136Y-37523D01*
X27548Y-37935D01*
X27508Y-37975D01*
X27401Y-38232D01*
X27401Y-38510D01*
X27507Y-38768D01*
X27704Y-38965D01*
X27961Y-39071D01*
X28240Y-39072D01*
X28497Y-38965D01*
X28694Y-38769D01*
X28755Y-38623D01*
X28771Y-38647D01*
X29290Y-39166D01*
X29290Y-41333D01*
X29021Y-41222D01*
X28686Y-41221D01*
X28686Y-41006D01*
X28597Y-40791D01*
X28433Y-40626D01*
X28218Y-40537D01*
X27985Y-40536D01*
X27770Y-40625D01*
X27605Y-40790D01*
X27516Y-41005D01*
X27516Y-41237D01*
X27592Y-41422D01*
X27462Y-41421D01*
X27205Y-41528D01*
X27136Y-41596D01*
X27136Y-40917D01*
X26979Y-40536D01*
X26688Y-40245D01*
X26686Y-40244D01*
X26686Y-39256D01*
X26597Y-39041D01*
X26433Y-38876D01*
X26218Y-38787D01*
X25985Y-38786D01*
X25770Y-38875D01*
X25605Y-39040D01*
X25516Y-39255D01*
X25516Y-39487D01*
X25605Y-39702D01*
X25769Y-39867D01*
X25984Y-39956D01*
X26217Y-39957D01*
X26432Y-39868D01*
X26597Y-39703D01*
X26686Y-39488D01*
X26686Y-39256D01*
X26686Y-40244D01*
X26308Y-40087D01*
X25896Y-40086D01*
X25516Y-40244D01*
X25224Y-40535D01*
X25066Y-40915D01*
X25066Y-41327D01*
X25223Y-41707D01*
X25514Y-41998D01*
X25894Y-42156D01*
X26306Y-42157D01*
X26687Y-41999D01*
X26978Y-41709D01*
X27136Y-41328D01*
X27136Y-40917D01*
X27136Y-41596D01*
X27008Y-41725D01*
X26901Y-41982D01*
X26901Y-42260D01*
X27007Y-42518D01*
X27204Y-42715D01*
X27437Y-42811D01*
X27437Y-43123D01*
X27410Y-43134D01*
X27339Y-43205D01*
X27301Y-43297D01*
X27301Y-43396D01*
X27301Y-43946D01*
X27339Y-44038D01*
X27409Y-44108D01*
X27501Y-44147D01*
X27601Y-44147D01*
X27951Y-44147D01*
X28043Y-44109D01*
X28101Y-44050D01*
X28159Y-44108D01*
X28251Y-44147D01*
X28351Y-44147D01*
X28701Y-44147D01*
X28793Y-44109D01*
X28863Y-44038D01*
X28901Y-43946D01*
X28901Y-43875D01*
X28974Y-43826D01*
X29431Y-43369D01*
X29431Y-43927D01*
X29431Y-43927D01*
G37*
G54D32*
X29431Y-43927D02*
X29408Y-43920D01*
X29230Y-43932D01*
X29125Y-43976D01*
X29110Y-44060D01*
X29351Y-44301D01*
X29356Y-44295D01*
X29427Y-44366D01*
X29421Y-44372D01*
X29427Y-44377D01*
X29356Y-44448D01*
X29351Y-44442D01*
X29345Y-44448D01*
X29274Y-44377D01*
X29280Y-44372D01*
X29040Y-44131D01*
X28955Y-44146D01*
X28899Y-44314D01*
X28908Y-44451D01*
X25801Y-44451D01*
X25801Y-42983D01*
X25695Y-42726D01*
X25498Y-42528D01*
X25241Y-42422D01*
X24962Y-42421D01*
X24705Y-42528D01*
X24686Y-42547D01*
X24686Y-41006D01*
X24597Y-40791D01*
X24433Y-40626D01*
X24248Y-40549D01*
X24248Y-37232D01*
X24180Y-37068D01*
X24054Y-36942D01*
X23890Y-36874D01*
X23712Y-36874D01*
X23548Y-36942D01*
X23422Y-37067D01*
X23354Y-37231D01*
X23354Y-37409D01*
X23422Y-37573D01*
X23547Y-37699D01*
X23712Y-37767D01*
X23889Y-37767D01*
X24054Y-37700D01*
X24179Y-37574D01*
X24248Y-37410D01*
X24248Y-37232D01*
X24248Y-40549D01*
X24218Y-40537D01*
X23985Y-40536D01*
X23770Y-40625D01*
X23605Y-40790D01*
X23516Y-41005D01*
X23516Y-41237D01*
X23541Y-41297D01*
X23438Y-41195D01*
X23058Y-41037D01*
X23048Y-41037D01*
X23048Y-37232D01*
X22980Y-37068D01*
X22854Y-36942D01*
X22690Y-36874D01*
X22512Y-36874D01*
X22348Y-36942D01*
X22222Y-37067D01*
X22154Y-37231D01*
X22154Y-37409D01*
X22222Y-37573D01*
X22347Y-37699D01*
X22512Y-37767D01*
X22689Y-37767D01*
X22854Y-37700D01*
X22979Y-37574D01*
X23048Y-37410D01*
X23048Y-37232D01*
X23048Y-41037D01*
X22646Y-41036D01*
X22266Y-41194D01*
X21974Y-41485D01*
X21816Y-41865D01*
X21816Y-42277D01*
X21973Y-42657D01*
X22264Y-42948D01*
X22644Y-43106D01*
X23056Y-43107D01*
X23437Y-42949D01*
X23728Y-42659D01*
X23886Y-42278D01*
X23886Y-41867D01*
X23786Y-41624D01*
X23984Y-41706D01*
X24217Y-41707D01*
X24432Y-41618D01*
X24597Y-41453D01*
X24686Y-41238D01*
X24686Y-41006D01*
X24686Y-42547D01*
X24508Y-42725D01*
X24401Y-42982D01*
X24401Y-43260D01*
X24507Y-43518D01*
X24704Y-43715D01*
X24961Y-43821D01*
X25240Y-43822D01*
X25497Y-43715D01*
X25694Y-43519D01*
X25801Y-43261D01*
X25801Y-42983D01*
X25801Y-44451D01*
X18301Y-44451D01*
X18301Y-42983D01*
X18195Y-42726D01*
X17998Y-42528D01*
X17741Y-42422D01*
X17462Y-42421D01*
X17205Y-42528D01*
X17186Y-42547D01*
X17186Y-41006D01*
X17097Y-40791D01*
X16933Y-40626D01*
X16718Y-40537D01*
X16485Y-40536D01*
X16448Y-40552D01*
X16448Y-37232D01*
X16380Y-37068D01*
X16254Y-36942D01*
X16090Y-36874D01*
X15912Y-36874D01*
X15748Y-36942D01*
X15622Y-37067D01*
X15554Y-37231D01*
X15554Y-37409D01*
X15622Y-37573D01*
X15747Y-37699D01*
X15912Y-37767D01*
X16089Y-37767D01*
X16254Y-37700D01*
X16379Y-37574D01*
X16448Y-37410D01*
X16448Y-37232D01*
X16448Y-40552D01*
X16270Y-40625D01*
X16105Y-40790D01*
X16016Y-41005D01*
X16016Y-41237D01*
X16105Y-41452D01*
X16269Y-41617D01*
X16484Y-41706D01*
X16717Y-41707D01*
X16932Y-41618D01*
X17097Y-41453D01*
X17186Y-41238D01*
X17186Y-41006D01*
X17186Y-42547D01*
X17008Y-42725D01*
X16901Y-42982D01*
X16901Y-43260D01*
X17007Y-43518D01*
X17204Y-43715D01*
X17461Y-43821D01*
X17740Y-43822D01*
X17997Y-43715D01*
X18194Y-43519D01*
X18301Y-43261D01*
X18301Y-42983D01*
X18301Y-44451D01*
X14649Y-44451D01*
X14651Y-44446D01*
X14651Y-44347D01*
X14651Y-43797D01*
X14613Y-43705D01*
X14543Y-43635D01*
X14515Y-43623D01*
X14515Y-37618D01*
X14597Y-37700D01*
X14761Y-37768D01*
X14939Y-37768D01*
X15103Y-37701D01*
X15229Y-37575D01*
X15297Y-37411D01*
X15298Y-37233D01*
X15230Y-37069D01*
X15104Y-36943D01*
X14940Y-36875D01*
X14762Y-36875D01*
X14598Y-36943D01*
X14515Y-37025D01*
X14515Y-36870D01*
X14542Y-36859D01*
X14613Y-36788D01*
X14651Y-36696D01*
X14651Y-36661D01*
X17665Y-36661D01*
X17665Y-36661D01*
X17776Y-36639D01*
X17870Y-36576D01*
X18375Y-36071D01*
X18375Y-36071D01*
X18417Y-36008D01*
X18438Y-35977D01*
X18438Y-35977D01*
X18460Y-35866D01*
X18460Y-35866D01*
X18460Y-34655D01*
X18806Y-34656D01*
X19187Y-34498D01*
X19478Y-34207D01*
X19636Y-33827D01*
X19636Y-33415D01*
X19479Y-33035D01*
X19188Y-32743D01*
X18808Y-32586D01*
X18396Y-32585D01*
X18016Y-32742D01*
X17985Y-32773D01*
X17985Y-29163D01*
X18384Y-28763D01*
X18384Y-28763D01*
X18447Y-28670D01*
X18447Y-28670D01*
X18451Y-28651D01*
X18469Y-28559D01*
X18469Y-28559D01*
X18469Y-27884D01*
X18447Y-27773D01*
X18384Y-27679D01*
X18384Y-27679D01*
X18038Y-27333D01*
X18008Y-27313D01*
X19394Y-27313D01*
X19394Y-27313D01*
X19421Y-27308D01*
X19507Y-27516D01*
X19704Y-27713D01*
X19812Y-27758D01*
X19812Y-28132D01*
X19810Y-28133D01*
X19739Y-28204D01*
X19701Y-28295D01*
X19701Y-28395D01*
X19701Y-28945D01*
X19739Y-29037D01*
X19809Y-29107D01*
X19901Y-29145D01*
X20001Y-29145D01*
X20351Y-29145D01*
X20443Y-29107D01*
X20501Y-29049D01*
X20559Y-29107D01*
X20612Y-29129D01*
X20671Y-29218D01*
X20765Y-29312D01*
X20765Y-33055D01*
X20718Y-33035D01*
X20485Y-33035D01*
X20270Y-33124D01*
X20105Y-33289D01*
X20016Y-33503D01*
X20016Y-33736D01*
X20092Y-33920D01*
X19962Y-33920D01*
X19705Y-34027D01*
X19508Y-34223D01*
X19401Y-34481D01*
X19401Y-34759D01*
X19507Y-35016D01*
X19704Y-35213D01*
X19937Y-35310D01*
X19937Y-35622D01*
X19910Y-35633D01*
X19839Y-35704D01*
X19801Y-35795D01*
X19801Y-35895D01*
X19801Y-36445D01*
X19839Y-36537D01*
X19909Y-36607D01*
X20001Y-36645D01*
X20101Y-36645D01*
X20451Y-36645D01*
X20543Y-36607D01*
X20601Y-36549D01*
X20659Y-36607D01*
X20712Y-36629D01*
X20771Y-36718D01*
X20775Y-36721D01*
X20775Y-40560D01*
X20718Y-40537D01*
X20485Y-40536D01*
X20270Y-40625D01*
X20105Y-40790D01*
X20048Y-40929D01*
X20048Y-37232D01*
X19980Y-37068D01*
X19854Y-36942D01*
X19690Y-36874D01*
X19512Y-36874D01*
X19348Y-36942D01*
X19222Y-37067D01*
X19154Y-37231D01*
X19154Y-37409D01*
X19222Y-37573D01*
X19347Y-37699D01*
X19512Y-37767D01*
X19689Y-37767D01*
X19854Y-37700D01*
X19979Y-37574D01*
X20048Y-37410D01*
X20048Y-37232D01*
X20048Y-40929D01*
X20016Y-41005D01*
X20016Y-41237D01*
X20092Y-41422D01*
X19962Y-41421D01*
X19705Y-41528D01*
X19636Y-41596D01*
X19636Y-40917D01*
X19479Y-40536D01*
X19188Y-40245D01*
X18848Y-40103D01*
X18848Y-37232D01*
X18780Y-37068D01*
X18654Y-36942D01*
X18490Y-36874D01*
X18312Y-36874D01*
X18148Y-36942D01*
X18022Y-37067D01*
X17954Y-37231D01*
X17954Y-37409D01*
X18022Y-37573D01*
X18147Y-37699D01*
X18312Y-37767D01*
X18489Y-37767D01*
X18654Y-37700D01*
X18779Y-37574D01*
X18848Y-37410D01*
X18848Y-37232D01*
X18848Y-40103D01*
X18808Y-40087D01*
X18396Y-40086D01*
X18016Y-40244D01*
X17724Y-40535D01*
X17648Y-40718D01*
X17648Y-37232D01*
X17580Y-37068D01*
X17454Y-36942D01*
X17290Y-36874D01*
X17112Y-36874D01*
X16948Y-36942D01*
X16822Y-37067D01*
X16754Y-37231D01*
X16754Y-37409D01*
X16822Y-37573D01*
X16947Y-37699D01*
X17112Y-37767D01*
X17289Y-37767D01*
X17454Y-37700D01*
X17579Y-37574D01*
X17648Y-37410D01*
X17648Y-37232D01*
X17648Y-40718D01*
X17566Y-40915D01*
X17566Y-41327D01*
X17723Y-41707D01*
X18014Y-41998D01*
X18394Y-42156D01*
X18806Y-42157D01*
X19187Y-41999D01*
X19478Y-41709D01*
X19636Y-41328D01*
X19636Y-40917D01*
X19636Y-41596D01*
X19508Y-41725D01*
X19401Y-41982D01*
X19401Y-42260D01*
X19507Y-42518D01*
X19704Y-42715D01*
X19937Y-42811D01*
X19937Y-43123D01*
X19910Y-43134D01*
X19839Y-43205D01*
X19801Y-43297D01*
X19801Y-43396D01*
X19801Y-43946D01*
X19839Y-44038D01*
X19909Y-44108D01*
X20001Y-44147D01*
X20101Y-44147D01*
X20451Y-44147D01*
X20543Y-44109D01*
X20601Y-44050D01*
X20659Y-44108D01*
X20751Y-44147D01*
X20851Y-44147D01*
X21201Y-44147D01*
X21293Y-44109D01*
X21363Y-44038D01*
X21401Y-43946D01*
X21401Y-43847D01*
X21401Y-43297D01*
X21363Y-43205D01*
X21344Y-43186D01*
X21353Y-43140D01*
X21353Y-43140D01*
X21353Y-37743D01*
X21412Y-37767D01*
X21589Y-37767D01*
X21754Y-37700D01*
X21879Y-37574D01*
X21948Y-37410D01*
X21948Y-37232D01*
X21880Y-37068D01*
X21754Y-36942D01*
X21590Y-36874D01*
X21412Y-36874D01*
X21353Y-36898D01*
X21353Y-36602D01*
X21344Y-36556D01*
X21363Y-36537D01*
X21401Y-36445D01*
X21401Y-36346D01*
X21401Y-35796D01*
X21363Y-35704D01*
X21338Y-35679D01*
X21344Y-35649D01*
X21344Y-35649D01*
X21344Y-29192D01*
X21326Y-29100D01*
X21322Y-29081D01*
X21322Y-29081D01*
X21274Y-29010D01*
X21301Y-28945D01*
X21301Y-28846D01*
X21301Y-28296D01*
X21263Y-28204D01*
X21193Y-28134D01*
X21165Y-28122D01*
X21165Y-27068D01*
X21147Y-26975D01*
X21143Y-26957D01*
X21143Y-26957D01*
X21081Y-26863D01*
X21081Y-26863D01*
X20863Y-26645D01*
X20932Y-26617D01*
X21097Y-26452D01*
X21186Y-26237D01*
X21186Y-26005D01*
X21097Y-25789D01*
X20933Y-25625D01*
X20718Y-25535D01*
X20485Y-25535D01*
X20423Y-25561D01*
X20423Y-24683D01*
X21010Y-24096D01*
X21136Y-24096D01*
X21300Y-24028D01*
X21426Y-23903D01*
X21494Y-23739D01*
X21494Y-23589D01*
X21625Y-23719D01*
X21738Y-23795D01*
X21806Y-23808D01*
X21839Y-23888D01*
X21909Y-23958D01*
X22001Y-23997D01*
X22101Y-23997D01*
X22451Y-23997D01*
X22543Y-23959D01*
X22601Y-23900D01*
X22660Y-23959D01*
X22752Y-23997D01*
X22864Y-23997D01*
X22926Y-23934D01*
X22926Y-23522D01*
X22918Y-23522D01*
X22918Y-23422D01*
X22926Y-23422D01*
X22926Y-23414D01*
X23026Y-23414D01*
X23026Y-23422D01*
X23034Y-23422D01*
X23034Y-23522D01*
X23026Y-23522D01*
X23026Y-23934D01*
X23089Y-23997D01*
X23201Y-23997D01*
X23293Y-23959D01*
X23363Y-23888D01*
X23401Y-23796D01*
X23401Y-23790D01*
X23476Y-23822D01*
X23576Y-23822D01*
X23689Y-23822D01*
X23751Y-23759D01*
X23751Y-23447D01*
X23743Y-23447D01*
X23743Y-23347D01*
X23751Y-23347D01*
X23751Y-23339D01*
X23851Y-23339D01*
X23851Y-23347D01*
X24264Y-23347D01*
X24326Y-23284D01*
X24326Y-23176D01*
X24441Y-23176D01*
X24605Y-23108D01*
X24731Y-22983D01*
X24799Y-22819D01*
X24799Y-22641D01*
X24732Y-22477D01*
X24606Y-22351D01*
X24442Y-22283D01*
X24264Y-22282D01*
X24247Y-22289D01*
X24218Y-22260D01*
X24126Y-22222D01*
X24061Y-22222D01*
X24065Y-22211D01*
X24066Y-22072D01*
X24126Y-22072D01*
X24218Y-22034D01*
X24288Y-21963D01*
X24326Y-21871D01*
X24326Y-21772D01*
X24326Y-21422D01*
X24288Y-21330D01*
X24230Y-21272D01*
X24288Y-21213D01*
X24326Y-21121D01*
X24326Y-21009D01*
X24264Y-20947D01*
X23851Y-20947D01*
X23851Y-20954D01*
X23751Y-20954D01*
X23751Y-20947D01*
X23339Y-20947D01*
X23276Y-21009D01*
X23276Y-21121D01*
X23314Y-21213D01*
X23373Y-21272D01*
X23360Y-21284D01*
X23355Y-21272D01*
X23284Y-21201D01*
X23193Y-21163D01*
X23093Y-21163D01*
X22640Y-21163D01*
X22601Y-21179D01*
X22563Y-21163D01*
X22463Y-21163D01*
X22399Y-21163D01*
X22336Y-21226D01*
X22336Y-21639D01*
X22344Y-21639D01*
X22344Y-21739D01*
X22336Y-21739D01*
X22336Y-21746D01*
X22236Y-21746D01*
X22236Y-21739D01*
X22236Y-21639D01*
X22236Y-21226D01*
X22174Y-21163D01*
X22109Y-21163D01*
X22010Y-21163D01*
X21918Y-21201D01*
X21848Y-21272D01*
X21842Y-21284D01*
X21805Y-21247D01*
X21863Y-21188D01*
X21901Y-21096D01*
X21901Y-20997D01*
X21901Y-20884D01*
X21839Y-20822D01*
X21526Y-20822D01*
X21526Y-21234D01*
X21539Y-21247D01*
X21526Y-21259D01*
X21526Y-21672D01*
X21839Y-21672D01*
X21872Y-21638D01*
X21872Y-21639D01*
X22236Y-21639D01*
X22236Y-21739D01*
X21872Y-21739D01*
X21839Y-21772D01*
X21839Y-21772D01*
X21526Y-21772D01*
X21526Y-22184D01*
X21589Y-22247D01*
X21701Y-22247D01*
X21793Y-22209D01*
X21836Y-22165D01*
X21810Y-22229D01*
X21810Y-22329D01*
X21810Y-22880D01*
X21834Y-22938D01*
X21073Y-22178D01*
X21101Y-22150D01*
X21160Y-22209D01*
X21252Y-22247D01*
X21364Y-22247D01*
X21426Y-22184D01*
X21426Y-21772D01*
X21418Y-21772D01*
X21418Y-21672D01*
X21426Y-21672D01*
X21426Y-21259D01*
X21414Y-21247D01*
X21426Y-21234D01*
X21426Y-20822D01*
X21418Y-20822D01*
X21418Y-20722D01*
X21426Y-20722D01*
X21426Y-20714D01*
X21526Y-20714D01*
X21526Y-20722D01*
X21839Y-20722D01*
X21861Y-20699D01*
X21919Y-20738D01*
X21950Y-20759D01*
X21950Y-20759D01*
X22061Y-20781D01*
X23276Y-20781D01*
X23276Y-20784D01*
X23339Y-20847D01*
X23751Y-20847D01*
X23751Y-20839D01*
X23851Y-20839D01*
X23851Y-20847D01*
X24264Y-20847D01*
X24326Y-20784D01*
X24326Y-20672D01*
X24288Y-20580D01*
X24218Y-20510D01*
X24126Y-20472D01*
X24027Y-20472D01*
X23914Y-20472D01*
X23851Y-20534D01*
X23851Y-20472D01*
X23820Y-20472D01*
X24199Y-20093D01*
X24640Y-20093D01*
X24508Y-20225D01*
X24401Y-20482D01*
X24401Y-20760D01*
X24507Y-21018D01*
X24704Y-21215D01*
X24961Y-21321D01*
X25240Y-21322D01*
X25497Y-21215D01*
X25673Y-21040D01*
X25970Y-21336D01*
X25896Y-21336D01*
X25516Y-21494D01*
X25224Y-21785D01*
X25066Y-22165D01*
X25066Y-22577D01*
X25223Y-22957D01*
X25514Y-23248D01*
X25894Y-23406D01*
X26306Y-23407D01*
X26687Y-23249D01*
X26978Y-22959D01*
X27136Y-22578D01*
X27136Y-22503D01*
X27558Y-22925D01*
X27508Y-22975D01*
X27401Y-23232D01*
X27401Y-23510D01*
X27507Y-23768D01*
X27704Y-23965D01*
X27961Y-24071D01*
X28240Y-24072D01*
X28497Y-23965D01*
X28694Y-23769D01*
X28801Y-23511D01*
X28801Y-23233D01*
X28695Y-22976D01*
X28498Y-22778D01*
X28241Y-22672D01*
X28123Y-22672D01*
X27023Y-21571D01*
X27240Y-21572D01*
X27497Y-21465D01*
X27694Y-21269D01*
X27739Y-21161D01*
X27801Y-21161D01*
X27801Y-21196D01*
X27839Y-21288D01*
X27909Y-21358D01*
X28001Y-21397D01*
X28101Y-21397D01*
X28451Y-21397D01*
X28543Y-21359D01*
X28601Y-21300D01*
X28659Y-21358D01*
X28751Y-21397D01*
X28851Y-21397D01*
X28945Y-21397D01*
X29290Y-21741D01*
X29290Y-24433D01*
X29021Y-24322D01*
X28683Y-24321D01*
X28370Y-24451D01*
X28131Y-24689D01*
X28001Y-25002D01*
X28001Y-25340D01*
X28082Y-25537D01*
X27985Y-25536D01*
X27770Y-25625D01*
X27605Y-25790D01*
X27516Y-26005D01*
X27516Y-26237D01*
X27592Y-26422D01*
X27462Y-26421D01*
X27205Y-26528D01*
X27136Y-26596D01*
X27136Y-25917D01*
X26979Y-25536D01*
X26688Y-25245D01*
X26686Y-25244D01*
X26686Y-24256D01*
X26597Y-24041D01*
X26433Y-23876D01*
X26218Y-23787D01*
X25985Y-23786D01*
X25770Y-23875D01*
X25605Y-24040D01*
X25516Y-24255D01*
X25516Y-24487D01*
X25605Y-24702D01*
X25769Y-24867D01*
X25984Y-24956D01*
X26217Y-24957D01*
X26432Y-24868D01*
X26597Y-24703D01*
X26686Y-24488D01*
X26686Y-24256D01*
X26686Y-25244D01*
X26308Y-25087D01*
X25896Y-25086D01*
X25516Y-25244D01*
X25224Y-25535D01*
X25066Y-25915D01*
X25066Y-26327D01*
X25223Y-26707D01*
X25514Y-26998D01*
X25894Y-27156D01*
X26306Y-27157D01*
X26687Y-26999D01*
X26978Y-26709D01*
X27136Y-26328D01*
X27136Y-25917D01*
X27136Y-26596D01*
X27008Y-26725D01*
X26901Y-26982D01*
X26901Y-27260D01*
X27007Y-27518D01*
X27161Y-27672D01*
X26962Y-27671D01*
X26705Y-27778D01*
X26686Y-27797D01*
X26686Y-27756D01*
X26597Y-27541D01*
X26433Y-27376D01*
X26218Y-27287D01*
X25985Y-27286D01*
X25770Y-27375D01*
X25605Y-27540D01*
X25577Y-27608D01*
X25498Y-27528D01*
X25241Y-27422D01*
X24962Y-27421D01*
X24705Y-27528D01*
X24686Y-27547D01*
X24686Y-26006D01*
X24597Y-25791D01*
X24433Y-25626D01*
X24326Y-25582D01*
X24326Y-23621D01*
X24326Y-23509D01*
X24264Y-23447D01*
X23851Y-23447D01*
X23851Y-23759D01*
X23914Y-23822D01*
X24027Y-23822D01*
X24126Y-23822D01*
X24218Y-23783D01*
X24288Y-23713D01*
X24326Y-23621D01*
X24326Y-25582D01*
X24218Y-25537D01*
X23985Y-25536D01*
X23786Y-25619D01*
X23886Y-25378D01*
X23886Y-24967D01*
X23751Y-24639D01*
X23729Y-24586D01*
X23438Y-24295D01*
X23058Y-24137D01*
X22646Y-24136D01*
X22266Y-24294D01*
X21974Y-24585D01*
X21816Y-24965D01*
X21816Y-25377D01*
X21973Y-25757D01*
X22264Y-26048D01*
X22440Y-26122D01*
X22266Y-26194D01*
X21974Y-26485D01*
X21816Y-26865D01*
X21816Y-27277D01*
X21973Y-27657D01*
X22264Y-27948D01*
X22644Y-28106D01*
X23056Y-28107D01*
X23437Y-27949D01*
X23728Y-27659D01*
X23886Y-27278D01*
X23886Y-26867D01*
X23786Y-26624D01*
X23984Y-26706D01*
X24217Y-26707D01*
X24432Y-26618D01*
X24597Y-26453D01*
X24686Y-26238D01*
X24686Y-26006D01*
X24686Y-27547D01*
X24508Y-27725D01*
X24401Y-27982D01*
X24401Y-28260D01*
X24507Y-28518D01*
X24704Y-28715D01*
X24961Y-28821D01*
X25240Y-28822D01*
X25497Y-28715D01*
X25663Y-28550D01*
X25950Y-28836D01*
X25896Y-28836D01*
X25516Y-28994D01*
X25224Y-29285D01*
X25066Y-29665D01*
X25066Y-30077D01*
X25223Y-30457D01*
X25514Y-30748D01*
X25894Y-30906D01*
X26306Y-30907D01*
X26687Y-30749D01*
X26978Y-30459D01*
X27136Y-30078D01*
X27136Y-30023D01*
X27548Y-30435D01*
X27508Y-30475D01*
X27401Y-30732D01*
X27401Y-31010D01*
X27507Y-31268D01*
X27704Y-31465D01*
X27961Y-31571D01*
X28240Y-31572D01*
X28497Y-31465D01*
X28694Y-31269D01*
X28801Y-31011D01*
X28801Y-30733D01*
X28695Y-30476D01*
X28498Y-30278D01*
X28241Y-30172D01*
X28103Y-30172D01*
X27003Y-29071D01*
X27240Y-29072D01*
X27497Y-28965D01*
X27694Y-28769D01*
X27739Y-28661D01*
X27801Y-28661D01*
X27801Y-28696D01*
X27839Y-28788D01*
X27909Y-28858D01*
X28001Y-28897D01*
X28101Y-28897D01*
X28451Y-28897D01*
X28543Y-28859D01*
X28601Y-28800D01*
X28659Y-28858D01*
X28751Y-28897D01*
X28851Y-28897D01*
X29201Y-28897D01*
X29290Y-28860D01*
X29290Y-31933D01*
X29021Y-31822D01*
X28683Y-31821D01*
X28370Y-31951D01*
X28131Y-32189D01*
X28001Y-32502D01*
X28001Y-32840D01*
X28082Y-33037D01*
X27985Y-33036D01*
X27770Y-33125D01*
X27605Y-33290D01*
X27516Y-33505D01*
X27516Y-33737D01*
X27592Y-33922D01*
X27462Y-33921D01*
X27205Y-34028D01*
X27136Y-34096D01*
X27136Y-33417D01*
X26979Y-33036D01*
X26688Y-32745D01*
X26686Y-32744D01*
X26686Y-31756D01*
X26597Y-31541D01*
X26433Y-31376D01*
X26218Y-31287D01*
X25985Y-31286D01*
X25770Y-31375D01*
X25605Y-31540D01*
X25516Y-31755D01*
X25516Y-31987D01*
X25605Y-32202D01*
X25769Y-32367D01*
X25984Y-32456D01*
X26217Y-32457D01*
X26432Y-32368D01*
X26597Y-32203D01*
X26686Y-31988D01*
X26686Y-31756D01*
X26686Y-32744D01*
X26308Y-32587D01*
X25896Y-32586D01*
X25516Y-32744D01*
X25224Y-33035D01*
X25066Y-33415D01*
X25066Y-33827D01*
X25223Y-34207D01*
X25514Y-34498D01*
X25894Y-34656D01*
X26306Y-34657D01*
X26687Y-34499D01*
X26978Y-34209D01*
X27136Y-33828D01*
X27136Y-33417D01*
X27136Y-34096D01*
X27008Y-34225D01*
X26901Y-34482D01*
X26901Y-34760D01*
X27007Y-35018D01*
X27161Y-35172D01*
X26962Y-35171D01*
X26705Y-35278D01*
X26686Y-35297D01*
X26686Y-35256D01*
X26597Y-35041D01*
X26433Y-34876D01*
X26218Y-34787D01*
X25985Y-34786D01*
X25770Y-34875D01*
X25605Y-35040D01*
X25577Y-35108D01*
X25498Y-35028D01*
X25241Y-34922D01*
X24962Y-34921D01*
X24705Y-35028D01*
X24686Y-35047D01*
X24686Y-33506D01*
X24597Y-33291D01*
X24433Y-33126D01*
X24218Y-33037D01*
X23985Y-33036D01*
X23786Y-33119D01*
X23886Y-32878D01*
X23886Y-32467D01*
X23729Y-32086D01*
X23438Y-31795D01*
X23058Y-31637D01*
X22646Y-31636D01*
X22266Y-31794D01*
X21974Y-32085D01*
X21816Y-32465D01*
X21816Y-32877D01*
X21973Y-33257D01*
X22264Y-33548D01*
X22440Y-33622D01*
X22266Y-33694D01*
X21974Y-33985D01*
X21816Y-34365D01*
X21816Y-34777D01*
X21973Y-35157D01*
X22264Y-35448D01*
X22644Y-35606D01*
X23056Y-35607D01*
X23437Y-35449D01*
X23728Y-35159D01*
X23886Y-34778D01*
X23886Y-34367D01*
X23786Y-34124D01*
X23984Y-34206D01*
X24217Y-34207D01*
X24432Y-34118D01*
X24597Y-33953D01*
X24686Y-33738D01*
X24686Y-33506D01*
X24686Y-35047D01*
X24508Y-35225D01*
X24401Y-35482D01*
X24401Y-35760D01*
X24507Y-36018D01*
X24704Y-36215D01*
X24961Y-36321D01*
X25240Y-36322D01*
X25497Y-36215D01*
X25663Y-36050D01*
X25950Y-36336D01*
X25896Y-36336D01*
X25516Y-36494D01*
X25224Y-36785D01*
X25066Y-37165D01*
X25066Y-37577D01*
X25223Y-37957D01*
X25514Y-38248D01*
X25894Y-38406D01*
X26306Y-38407D01*
X26687Y-38249D01*
X26978Y-37959D01*
X27136Y-37578D01*
X27136Y-37523D01*
X27548Y-37935D01*
X27508Y-37975D01*
X27401Y-38232D01*
X27401Y-38510D01*
X27507Y-38768D01*
X27704Y-38965D01*
X27961Y-39071D01*
X28240Y-39072D01*
X28497Y-38965D01*
X28694Y-38769D01*
X28755Y-38623D01*
X28771Y-38647D01*
X29290Y-39166D01*
X29290Y-41333D01*
X29021Y-41222D01*
X28686Y-41221D01*
X28686Y-41006D01*
X28597Y-40791D01*
X28433Y-40626D01*
X28218Y-40537D01*
X27985Y-40536D01*
X27770Y-40625D01*
X27605Y-40790D01*
X27516Y-41005D01*
X27516Y-41237D01*
X27592Y-41422D01*
X27462Y-41421D01*
X27205Y-41528D01*
X27136Y-41596D01*
X27136Y-40917D01*
X26979Y-40536D01*
X26688Y-40245D01*
X26686Y-40244D01*
X26686Y-39256D01*
X26597Y-39041D01*
X26433Y-38876D01*
X26218Y-38787D01*
X25985Y-38786D01*
X25770Y-38875D01*
X25605Y-39040D01*
X25516Y-39255D01*
X25516Y-39487D01*
X25605Y-39702D01*
X25769Y-39867D01*
X25984Y-39956D01*
X26217Y-39957D01*
X26432Y-39868D01*
X26597Y-39703D01*
X26686Y-39488D01*
X26686Y-39256D01*
X26686Y-40244D01*
X26308Y-40087D01*
X25896Y-40086D01*
X25516Y-40244D01*
X25224Y-40535D01*
X25066Y-40915D01*
X25066Y-41327D01*
X25223Y-41707D01*
X25514Y-41998D01*
X25894Y-42156D01*
X26306Y-42157D01*
X26687Y-41999D01*
X26978Y-41709D01*
X27136Y-41328D01*
X27136Y-40917D01*
X27136Y-41596D01*
X27008Y-41725D01*
X26901Y-41982D01*
X26901Y-42260D01*
X27007Y-42518D01*
X27204Y-42715D01*
X27437Y-42811D01*
X27437Y-43123D01*
X27410Y-43134D01*
X27339Y-43205D01*
X27301Y-43297D01*
X27301Y-43396D01*
X27301Y-43946D01*
X27339Y-44038D01*
X27409Y-44108D01*
X27501Y-44147D01*
X27601Y-44147D01*
X27951Y-44147D01*
X28043Y-44109D01*
X28101Y-44050D01*
X28159Y-44108D01*
X28251Y-44147D01*
X28351Y-44147D01*
X28701Y-44147D01*
X28793Y-44109D01*
X28863Y-44038D01*
X28901Y-43946D01*
X28901Y-43875D01*
X28974Y-43826D01*
X29431Y-43369D01*
X29431Y-43927D01*
M02*
