G04 (created by PCBNEW (2013-02-13 BZR 3947)-testing) date 9/24/2013 1:08:38 PM*
%MOIN*%
G04 Gerber Fmt 3.4, Leading zero omitted, Abs format*
%FSLAX34Y34*%
G01*
G70*
G90*
G04 APERTURE LIST*
%ADD10C,0*%
%ADD11C,0.2756*%
%ADD12O,0.3937X0.1969*%
%ADD13R,0.0393701X0.122047*%
%ADD14R,0.0807X0.1575*%
%ADD15R,0.0807X0.1378*%
%ADD16O,0.0197008X0.0984252*%
%ADD17C,0.0354331*%
%ADD18R,0.0453X0.0551*%
%ADD19C,0.016*%
%ADD20R,0.035X0.055*%
%ADD21R,0.055X0.035*%
%ADD22C,0.0708661*%
%ADD23C,0.0629921*%
%ADD24C,0.09*%
%ADD25C,0.157*%
%ADD26C,0.067*%
%ADD27O,0.075X0.085*%
%ADD28R,0.075X0.085*%
%ADD29C,0.0393701*%
%ADD30C,0.12*%
%ADD31C,0.00787402*%
%ADD32C,0.02*%
%ADD33C,0.0159921*%
%ADD34C,0.01*%
G04 APERTURE END LIST*
G54D10*
G54D11*
X14851Y-32120D03*
G54D12*
X574Y-22244D03*
G54D13*
X14063Y-1869D03*
X15638Y-5373D03*
X14064Y-5373D03*
X15638Y-1869D03*
G54D14*
X9104Y-775D03*
X5226Y-775D03*
G54D15*
X5226Y-2449D03*
X9104Y-2449D03*
G54D16*
X7165Y-2449D03*
X6850Y-2449D03*
X6535Y-2449D03*
X7480Y-2449D03*
X7795Y-2449D03*
G54D17*
X6299Y-1523D03*
X8031Y-1523D03*
G54D18*
X22286Y-21689D03*
X22286Y-22555D03*
X22916Y-21689D03*
X22916Y-22555D03*
G54D19*
X15984Y-24103D02*
X16400Y-24519D01*
X15761Y-24326D02*
X16177Y-24742D01*
X15539Y-24549D02*
X15954Y-24965D01*
X15316Y-24772D02*
X15732Y-25187D01*
X15093Y-24994D02*
X15509Y-25410D01*
X14870Y-25217D02*
X15286Y-25633D01*
X16207Y-23881D02*
X16622Y-24297D01*
X16429Y-23658D02*
X16845Y-24074D01*
X16652Y-23435D02*
X17068Y-23851D01*
X16875Y-23213D02*
X17291Y-23628D01*
X17098Y-22990D02*
X17513Y-23406D01*
X12802Y-20921D02*
X13218Y-21337D01*
X12579Y-21144D02*
X12995Y-21560D01*
X12357Y-21367D02*
X12772Y-21783D01*
X12134Y-21590D02*
X12550Y-22005D01*
X11911Y-21812D02*
X12327Y-22228D01*
X11688Y-22035D02*
X12104Y-22451D01*
X13025Y-20699D02*
X13441Y-21115D01*
X13247Y-20476D02*
X13663Y-20892D01*
X13470Y-20253D02*
X13886Y-20669D01*
X13693Y-20031D02*
X14109Y-20446D01*
X13916Y-19808D02*
X14331Y-20224D01*
X12802Y-24519D02*
X13218Y-24103D01*
X15984Y-21337D02*
X16400Y-20921D01*
X12579Y-24297D02*
X12995Y-23881D01*
X15761Y-21115D02*
X16177Y-20699D01*
X15539Y-20892D02*
X15954Y-20476D01*
X12357Y-24074D02*
X12772Y-23658D01*
X12134Y-23851D02*
X12550Y-23435D01*
X15316Y-20669D02*
X15732Y-20253D01*
X15093Y-20446D02*
X15509Y-20031D01*
X11911Y-23628D02*
X12327Y-23213D01*
X11688Y-23406D02*
X12104Y-22990D01*
X14870Y-20224D02*
X15286Y-19808D01*
X16207Y-21560D02*
X16622Y-21144D01*
X13025Y-24742D02*
X13441Y-24326D01*
X13247Y-24965D02*
X13663Y-24549D01*
X16429Y-21783D02*
X16845Y-21367D01*
X16652Y-22005D02*
X17068Y-21590D01*
X13470Y-25187D02*
X13886Y-24772D01*
X13693Y-25410D02*
X14109Y-24994D01*
X16875Y-22228D02*
X17291Y-21812D01*
X17098Y-22451D02*
X17513Y-22035D01*
X13916Y-25633D02*
X14331Y-25217D01*
G54D20*
X6476Y-4621D03*
X7226Y-4621D03*
G54D21*
X23801Y-21647D03*
X23801Y-20897D03*
X23801Y-22647D03*
X23801Y-23397D03*
X8901Y-23145D03*
X8901Y-23895D03*
G54D20*
X11771Y-20434D03*
X11021Y-20434D03*
X22226Y-23472D03*
X22976Y-23472D03*
X20726Y-21722D03*
X21476Y-21722D03*
G54D21*
X7351Y-6746D03*
X7351Y-5996D03*
X8351Y-6746D03*
X8351Y-5996D03*
X7901Y-24695D03*
X7901Y-23945D03*
G54D20*
X20726Y-20772D03*
X21476Y-20772D03*
G54D21*
X7901Y-23095D03*
X7901Y-22345D03*
G54D20*
X14226Y-43620D03*
X13476Y-43620D03*
X6226Y-39120D03*
X6976Y-39120D03*
X28226Y-20872D03*
X28976Y-20872D03*
X28226Y-13372D03*
X28976Y-13372D03*
X28476Y-6121D03*
X27726Y-6121D03*
X20876Y-28620D03*
X20126Y-28620D03*
X20976Y-16120D03*
X20226Y-16120D03*
X20976Y-13621D03*
X20226Y-13621D03*
X20976Y-6121D03*
X20226Y-6121D03*
G54D22*
X7225Y-16746D03*
X7225Y-18746D03*
X7225Y-20746D03*
X7225Y-17746D03*
X7225Y-19746D03*
X7225Y-15746D03*
G54D23*
X1101Y-7121D03*
X4101Y-7121D03*
G54D24*
X4601Y-39120D03*
X2101Y-40120D03*
G54D25*
X3601Y-41120D03*
G54D26*
X1601Y-41120D03*
X5601Y-41120D03*
G54D24*
X17601Y-28120D03*
X20101Y-27120D03*
G54D25*
X18601Y-26120D03*
G54D26*
X20601Y-26120D03*
X16601Y-26120D03*
G54D24*
X17601Y-13121D03*
X20101Y-12121D03*
G54D25*
X18601Y-11121D03*
G54D26*
X20601Y-11121D03*
X16601Y-11121D03*
G54D24*
X25101Y-5622D03*
X27601Y-4622D03*
G54D25*
X26101Y-3622D03*
G54D26*
X28101Y-3622D03*
X24101Y-3622D03*
G54D24*
X17601Y-5622D03*
X20101Y-4622D03*
G54D25*
X18601Y-3622D03*
G54D26*
X20601Y-3622D03*
X16601Y-3622D03*
G54D24*
X17601Y-20620D03*
X20101Y-19620D03*
G54D25*
X18601Y-18620D03*
G54D26*
X20601Y-18620D03*
X16601Y-18620D03*
G54D24*
X10101Y-43122D03*
X12601Y-42122D03*
G54D25*
X11101Y-41122D03*
G54D26*
X13101Y-41122D03*
X9101Y-41122D03*
G54D27*
X26601Y-1621D03*
G54D28*
X25601Y-1621D03*
G54D27*
X4101Y-1621D03*
G54D28*
X3101Y-1621D03*
G54D29*
X351Y-36370D03*
X29351Y-371D03*
X29351Y-36620D03*
X351Y-322D03*
G54D20*
X13476Y-28620D03*
X12726Y-28620D03*
X28176Y-35870D03*
X28926Y-35870D03*
X28226Y-28372D03*
X28976Y-28372D03*
X20976Y-36120D03*
X20226Y-36120D03*
X14226Y-36372D03*
X13476Y-36372D03*
G54D21*
X4751Y-35395D03*
X4751Y-36145D03*
G54D20*
X5976Y-21120D03*
X5226Y-21120D03*
X5976Y-6121D03*
X5226Y-6121D03*
X13476Y-16120D03*
X12726Y-16120D03*
X13476Y-13621D03*
X12726Y-13621D03*
X5976Y-28620D03*
X5226Y-28620D03*
X5976Y-13621D03*
X5226Y-13621D03*
X13326Y-6121D03*
X12576Y-6121D03*
G54D24*
X2601Y-5621D03*
X5101Y-4621D03*
G54D25*
X3601Y-3621D03*
G54D26*
X5601Y-3621D03*
X1601Y-3621D03*
G54D24*
X2601Y-28120D03*
X5101Y-27120D03*
G54D25*
X3601Y-26120D03*
G54D26*
X5601Y-26120D03*
X1601Y-26120D03*
G54D24*
X10101Y-28120D03*
X12601Y-27120D03*
G54D25*
X11101Y-26120D03*
G54D26*
X13101Y-26120D03*
X9101Y-26120D03*
G54D24*
X10101Y-35620D03*
X12601Y-34620D03*
G54D25*
X11101Y-33620D03*
G54D26*
X13101Y-33620D03*
X9101Y-33620D03*
G54D24*
X17601Y-35620D03*
X20101Y-34620D03*
G54D25*
X18601Y-33620D03*
G54D26*
X20601Y-33620D03*
X16601Y-33620D03*
G54D24*
X4601Y-31620D03*
X2101Y-32620D03*
G54D25*
X3601Y-33620D03*
G54D26*
X1601Y-33620D03*
X5601Y-33620D03*
G54D24*
X10101Y-20620D03*
X12601Y-19620D03*
G54D25*
X11101Y-18620D03*
G54D26*
X13101Y-18620D03*
X9101Y-18620D03*
G54D24*
X2601Y-20620D03*
X5101Y-19620D03*
G54D25*
X3601Y-18620D03*
G54D26*
X5601Y-18620D03*
X1601Y-18620D03*
G54D24*
X10101Y-13121D03*
X12601Y-12121D03*
G54D25*
X11101Y-11121D03*
G54D26*
X13101Y-11121D03*
X9101Y-11121D03*
G54D24*
X25101Y-35622D03*
X27601Y-34622D03*
G54D25*
X26101Y-33622D03*
G54D26*
X28101Y-33622D03*
X24101Y-33622D03*
G54D24*
X25101Y-28122D03*
X27601Y-27122D03*
G54D25*
X26101Y-26122D03*
G54D26*
X28101Y-26122D03*
X24101Y-26122D03*
G54D24*
X2601Y-13121D03*
X5101Y-12121D03*
G54D25*
X3601Y-11121D03*
G54D26*
X5601Y-11121D03*
X1601Y-11121D03*
G54D24*
X10101Y-5621D03*
X12601Y-4621D03*
G54D25*
X11101Y-3621D03*
G54D26*
X13101Y-3621D03*
X9101Y-3621D03*
G54D23*
X24101Y-7121D03*
X27101Y-7121D03*
X14601Y-7121D03*
X11601Y-7121D03*
X22101Y-7121D03*
X19101Y-7121D03*
G54D27*
X11601Y-1621D03*
G54D28*
X10601Y-1621D03*
G54D27*
X19101Y-1621D03*
G54D28*
X18101Y-1621D03*
G54D20*
X20976Y-43622D03*
X20226Y-43622D03*
X28476Y-43622D03*
X27726Y-43622D03*
G54D29*
X29351Y-44372D03*
X351Y-44372D03*
G54D24*
X6351Y-35622D03*
X8851Y-34622D03*
G54D25*
X7351Y-33622D03*
G54D26*
X9351Y-33622D03*
X5351Y-33622D03*
G54D30*
X12051Y-36372D03*
X2651Y-36372D03*
G54D25*
X12051Y-30372D03*
X2651Y-30372D03*
G54D24*
X28101Y-30872D03*
X27101Y-28372D03*
G54D25*
X26101Y-29872D03*
G54D26*
X26101Y-27872D03*
X26101Y-31872D03*
G54D30*
X28851Y-25172D03*
X28851Y-34572D03*
G54D25*
X22851Y-25172D03*
X22851Y-34572D03*
G54D24*
X28101Y-15872D03*
X27101Y-13372D03*
G54D25*
X26101Y-14872D03*
G54D26*
X26101Y-12872D03*
X26101Y-16872D03*
G54D30*
X28851Y-10172D03*
X28851Y-19572D03*
G54D25*
X22851Y-10172D03*
X22851Y-19572D03*
G54D24*
X17601Y-43122D03*
X20101Y-42122D03*
G54D25*
X18601Y-41122D03*
G54D26*
X20601Y-41122D03*
X16601Y-41122D03*
G54D24*
X25101Y-43122D03*
X27601Y-42122D03*
G54D25*
X26101Y-41122D03*
G54D26*
X28101Y-41122D03*
X24101Y-41122D03*
G54D24*
X25101Y-13122D03*
X27601Y-12122D03*
G54D25*
X26101Y-11122D03*
G54D26*
X28101Y-11122D03*
X24101Y-11122D03*
G54D24*
X25101Y-20622D03*
X27601Y-19622D03*
G54D25*
X26101Y-18622D03*
G54D26*
X28101Y-18622D03*
X24101Y-18622D03*
G54D24*
X6351Y-43122D03*
X8851Y-42122D03*
G54D25*
X7351Y-41122D03*
G54D26*
X9351Y-41122D03*
X5351Y-41122D03*
G54D30*
X12051Y-43872D03*
X2651Y-43872D03*
G54D25*
X12051Y-37872D03*
X2651Y-37872D03*
G54D24*
X28101Y-23372D03*
X27101Y-20872D03*
G54D25*
X26101Y-22372D03*
G54D26*
X26101Y-20372D03*
X26101Y-24372D03*
G54D30*
X28851Y-17672D03*
X28851Y-27072D03*
G54D25*
X22851Y-17672D03*
X22851Y-27072D03*
G54D24*
X28101Y-38372D03*
X27101Y-35872D03*
G54D25*
X26101Y-37372D03*
G54D26*
X26101Y-35372D03*
X26101Y-39372D03*
G54D30*
X28851Y-32672D03*
X28851Y-42072D03*
G54D25*
X22851Y-32672D03*
X22851Y-42072D03*
G54D29*
X14851Y-37322D03*
X16001Y-37320D03*
X17201Y-37320D03*
X18401Y-37320D03*
X19601Y-37320D03*
X21501Y-37320D03*
X22601Y-37320D03*
X23801Y-37320D03*
X28301Y-37320D03*
X13501Y-37320D03*
X10701Y-37320D03*
X9501Y-37320D03*
X8301Y-37320D03*
X7001Y-37320D03*
X5801Y-37320D03*
X1251Y-37320D03*
X3901Y-37320D03*
G54D11*
X14851Y-9621D03*
G54D29*
X201Y-37320D03*
X29501Y-37320D03*
X17304Y-24129D03*
X16171Y-23406D03*
X15845Y-23748D03*
X10106Y-19513D03*
X11241Y-23527D03*
X4367Y-19546D03*
X5828Y-26999D03*
X10828Y-28044D03*
X15297Y-16120D03*
X15297Y-23768D03*
X16097Y-35770D03*
X21724Y-36312D03*
X21724Y-28714D03*
X21656Y-6194D03*
X20791Y-14174D03*
X20803Y-16675D03*
X21724Y-17175D03*
X28851Y-41167D03*
X29382Y-35815D03*
X15919Y-22556D03*
X15919Y-18137D03*
X10468Y-24608D03*
X12873Y-20347D03*
X10101Y-15889D03*
X3862Y-17082D03*
X18804Y-23045D03*
X14471Y-19857D03*
X12698Y-23071D03*
X6476Y-22440D03*
X6652Y-18301D03*
X14555Y-2230D03*
X901Y-15121D03*
X3051Y-15121D03*
X18901Y-8421D03*
X10301Y-7821D03*
X16551Y-7821D03*
X7701Y-10371D03*
X17501Y-9821D03*
X22101Y-14121D03*
X22101Y-11371D03*
X20551Y-10121D03*
X9251Y-14821D03*
X21101Y-38671D03*
X27651Y-36921D03*
X9351Y-39221D03*
X14351Y-39171D03*
X29251Y-39421D03*
X10862Y-20985D03*
X10862Y-21934D03*
X9763Y-23034D03*
X11716Y-25186D03*
X13767Y-22677D03*
X13570Y-21768D03*
X8187Y-2843D03*
X7710Y-4590D03*
X6732Y-14333D03*
X21957Y-21107D03*
X23919Y-24748D03*
X21957Y-24463D03*
X23720Y-22106D03*
X22460Y-21131D03*
X23759Y-15091D03*
X11853Y-14860D03*
X12225Y-20735D03*
X8086Y-5153D03*
X8086Y-3655D03*
X23247Y-21065D03*
X23756Y-20178D03*
X21074Y-19799D03*
X21104Y-22504D03*
X11466Y-16535D03*
X13418Y-17607D03*
X6965Y-5509D03*
X6965Y-1676D03*
X26785Y-43888D03*
X13330Y-44173D03*
X14176Y-36935D03*
X14086Y-12960D03*
X14003Y-24209D03*
X19312Y-13367D03*
X12012Y-13658D03*
X13441Y-23672D03*
X19262Y-28664D03*
X4367Y-6126D03*
X18031Y-21806D03*
X17557Y-22509D03*
X9377Y-21673D03*
X11087Y-24750D03*
X11678Y-21463D03*
X5921Y-16879D03*
X24375Y-24203D03*
X14713Y-26977D03*
G54D31*
X17304Y-24087D02*
X16860Y-23643D01*
X17304Y-24129D02*
X17304Y-24087D01*
X16637Y-23866D02*
X16289Y-23518D01*
X16177Y-23406D02*
X16171Y-23406D01*
X16289Y-23518D02*
X16177Y-23406D01*
X16059Y-23748D02*
X15845Y-23748D01*
X16067Y-23741D02*
X16059Y-23748D01*
X16415Y-24089D02*
X16067Y-23741D01*
X11529Y-23527D02*
X11548Y-23546D01*
X11241Y-23527D02*
X11529Y-23527D01*
X11896Y-23198D02*
X11548Y-23546D01*
X9948Y-19356D02*
X10106Y-19513D01*
X9948Y-18822D02*
X9948Y-19356D01*
X7873Y-16746D02*
X9948Y-18822D01*
X7225Y-16746D02*
X7873Y-16746D01*
X5976Y-6121D02*
X5683Y-6121D01*
X5976Y-28620D02*
X5683Y-28620D01*
X5683Y-6304D02*
X5683Y-6121D01*
X5473Y-6514D02*
X5683Y-6304D01*
X4306Y-6514D02*
X5473Y-6514D01*
X2827Y-5035D02*
X4306Y-6514D01*
X2382Y-5035D02*
X2827Y-5035D01*
X2015Y-5402D02*
X2382Y-5035D01*
X2015Y-8176D02*
X2015Y-5402D01*
X4776Y-10937D02*
X2015Y-8176D01*
X4776Y-11453D02*
X4776Y-10937D01*
X5260Y-11453D02*
X4776Y-11453D01*
X5976Y-12169D02*
X5260Y-11453D01*
X5976Y-13621D02*
X5976Y-12169D01*
X5976Y-27147D02*
X5828Y-26999D01*
X5976Y-28620D02*
X5976Y-27147D01*
X4960Y-18628D02*
X4960Y-18953D01*
X2030Y-15698D02*
X4960Y-18628D01*
X2030Y-12861D02*
X2030Y-15698D01*
X2578Y-12313D02*
X2030Y-12861D01*
X3917Y-12313D02*
X2578Y-12313D01*
X4776Y-11453D02*
X3917Y-12313D01*
X5285Y-18953D02*
X4960Y-18953D01*
X5976Y-19644D02*
X5285Y-18953D01*
X5976Y-21120D02*
X5976Y-19644D01*
X4960Y-18953D02*
X4367Y-19546D01*
X3475Y-36145D02*
X4214Y-36145D01*
X1143Y-33814D02*
X3475Y-36145D01*
X1143Y-32752D02*
X1143Y-33814D01*
X2235Y-31661D02*
X1143Y-32752D01*
X2826Y-31661D02*
X2235Y-31661D01*
X5683Y-28804D02*
X2826Y-31661D01*
X5683Y-28620D02*
X5683Y-28804D01*
X4214Y-36145D02*
X4751Y-36145D01*
X5933Y-38827D02*
X5933Y-39120D01*
X4214Y-37109D02*
X5933Y-38827D01*
X4214Y-36145D02*
X4214Y-37109D01*
X6226Y-39120D02*
X5933Y-39120D01*
X12344Y-26529D02*
X10828Y-28044D01*
X12813Y-26529D02*
X12344Y-26529D01*
X12875Y-26590D02*
X12813Y-26529D01*
X14432Y-26590D02*
X12875Y-26590D01*
X14518Y-26504D02*
X14432Y-26590D01*
X14709Y-26504D02*
X14518Y-26504D01*
X15934Y-25279D02*
X14709Y-26504D01*
X15934Y-24944D02*
X15934Y-25279D01*
X15746Y-24757D02*
X15934Y-24944D01*
X13476Y-16120D02*
X13769Y-16120D01*
X16123Y-6121D02*
X13326Y-6121D01*
X17514Y-4730D02*
X16123Y-6121D01*
X18827Y-4730D02*
X17514Y-4730D01*
X19506Y-4052D02*
X18827Y-4730D01*
X20335Y-4052D02*
X19506Y-4052D01*
X21014Y-4730D02*
X20335Y-4052D01*
X25020Y-4730D02*
X21014Y-4730D01*
X25677Y-5387D02*
X25020Y-4730D01*
X25677Y-5859D02*
X25677Y-5387D01*
X24864Y-6671D02*
X25677Y-5859D01*
X23922Y-6671D02*
X24864Y-6671D01*
X20989Y-9604D02*
X23922Y-6671D01*
X18838Y-9604D02*
X20989Y-9604D01*
X14822Y-13621D02*
X18838Y-9604D01*
X13476Y-13621D02*
X14822Y-13621D01*
X15621Y-24092D02*
X15621Y-24186D01*
X15297Y-23768D02*
X15621Y-24092D01*
X15297Y-16120D02*
X13769Y-16120D01*
X14226Y-43620D02*
X13933Y-43620D01*
X13476Y-28620D02*
X13476Y-28227D01*
X15969Y-24534D02*
X15621Y-24186D01*
X15969Y-24534D02*
X16317Y-24882D01*
X13933Y-43443D02*
X13933Y-43620D01*
X13631Y-43141D02*
X13933Y-43443D01*
X11201Y-43141D02*
X13631Y-43141D01*
X10642Y-43700D02*
X11201Y-43141D01*
X6119Y-43700D02*
X10642Y-43700D01*
X5779Y-43361D02*
X6119Y-43700D01*
X5779Y-42865D02*
X5779Y-43361D01*
X6109Y-42535D02*
X5779Y-42865D01*
X6815Y-42535D02*
X6109Y-42535D01*
X6970Y-42690D02*
X6815Y-42535D01*
X9100Y-42690D02*
X6970Y-42690D01*
X9850Y-41939D02*
X9100Y-42690D01*
X9850Y-41095D02*
X9850Y-41939D01*
X11256Y-39689D02*
X9850Y-41095D01*
X11869Y-39689D02*
X11256Y-39689D01*
X14491Y-37067D02*
X11869Y-39689D01*
X14491Y-36637D02*
X14491Y-37067D01*
X14226Y-36372D02*
X14491Y-36637D01*
X15495Y-36372D02*
X14226Y-36372D01*
X16097Y-35770D02*
X15495Y-36372D01*
X16006Y-15412D02*
X15297Y-16120D01*
X25364Y-15412D02*
X16006Y-15412D01*
X26406Y-16454D02*
X25364Y-15412D01*
X28352Y-16454D02*
X26406Y-16454D01*
X28675Y-16132D02*
X28352Y-16454D01*
X28675Y-15630D02*
X28675Y-16132D01*
X28131Y-15086D02*
X28675Y-15630D01*
X28008Y-15086D02*
X28131Y-15086D01*
X26529Y-13607D02*
X28008Y-15086D01*
X26529Y-13084D02*
X26529Y-13607D01*
X26578Y-13036D02*
X26529Y-13084D01*
X26578Y-12706D02*
X26578Y-13036D01*
X25896Y-12025D02*
X26578Y-12706D01*
X23410Y-12025D02*
X25896Y-12025D01*
X20989Y-9604D02*
X23410Y-12025D01*
X14398Y-27305D02*
X13476Y-28227D01*
X14398Y-26846D02*
X14398Y-27305D01*
X14583Y-26662D02*
X14398Y-26846D01*
X14778Y-26662D02*
X14583Y-26662D01*
X16154Y-25286D02*
X14778Y-26662D01*
X16154Y-25045D02*
X16154Y-25286D01*
X16317Y-24882D02*
X16154Y-25045D01*
X20976Y-43622D02*
X21269Y-43622D01*
X21163Y-37542D02*
X21163Y-36312D01*
X25677Y-42057D02*
X21163Y-37542D01*
X25677Y-43353D02*
X25677Y-42057D01*
X25337Y-43693D02*
X25677Y-43353D01*
X21340Y-43693D02*
X25337Y-43693D01*
X21269Y-43622D02*
X21340Y-43693D01*
X20976Y-36125D02*
X21163Y-36312D01*
X20976Y-36120D02*
X20976Y-36125D01*
X21163Y-36312D02*
X21724Y-36312D01*
X20951Y-14014D02*
X20791Y-14174D01*
X20976Y-14014D02*
X20951Y-14014D01*
X20976Y-13621D02*
X20976Y-14014D01*
X21582Y-6121D02*
X21656Y-6194D01*
X20976Y-6121D02*
X21582Y-6121D01*
X20964Y-16514D02*
X20803Y-16675D01*
X20976Y-16514D02*
X20964Y-16514D01*
X20976Y-16120D02*
X20976Y-16514D01*
X20876Y-28620D02*
X21023Y-28620D01*
X14124Y-25425D02*
X13776Y-25773D01*
X21116Y-28714D02*
X21724Y-28714D01*
X21023Y-28620D02*
X21116Y-28714D01*
X13646Y-25643D02*
X13776Y-25773D01*
X12864Y-25643D02*
X13646Y-25643D01*
X11051Y-27457D02*
X12864Y-25643D01*
X9933Y-27457D02*
X11051Y-27457D01*
X9512Y-27877D02*
X9933Y-27457D01*
X9512Y-28336D02*
X9512Y-27877D01*
X10361Y-29184D02*
X9512Y-28336D01*
X20459Y-29184D02*
X10361Y-29184D01*
X21023Y-28620D02*
X20459Y-29184D01*
X21224Y-16675D02*
X21724Y-17175D01*
X20803Y-16675D02*
X21224Y-16675D01*
X28968Y-41167D02*
X28851Y-41167D01*
X29579Y-41778D02*
X28968Y-41167D01*
X29579Y-42812D02*
X29579Y-41778D01*
X28769Y-43622D02*
X29579Y-42812D01*
X29275Y-35815D02*
X29382Y-35815D01*
X29219Y-35870D02*
X29275Y-35815D01*
X28926Y-35870D02*
X29219Y-35870D01*
X28476Y-43622D02*
X28769Y-43622D01*
X28976Y-28372D02*
X29269Y-28372D01*
X29579Y-35618D02*
X29382Y-35815D01*
X29579Y-28681D02*
X29579Y-35618D01*
X29269Y-28372D02*
X29579Y-28681D01*
X28476Y-6121D02*
X28769Y-6121D01*
X28976Y-13372D02*
X29269Y-13372D01*
X29579Y-13062D02*
X29269Y-13372D01*
X29579Y-6930D02*
X29579Y-13062D01*
X28769Y-6121D02*
X29579Y-6930D01*
X28976Y-20872D02*
X29269Y-20872D01*
X29579Y-28062D02*
X29269Y-28372D01*
X29579Y-21181D02*
X29579Y-28062D01*
X29269Y-20872D02*
X29579Y-21181D01*
X29269Y-13372D02*
X29269Y-16945D01*
X29579Y-17255D02*
X29269Y-16945D01*
X29579Y-20562D02*
X29579Y-17255D01*
X29269Y-20872D02*
X29579Y-20562D01*
X18487Y-15570D02*
X15919Y-18137D01*
X24050Y-15570D02*
X18487Y-15570D01*
X25825Y-17344D02*
X24050Y-15570D01*
X28145Y-17344D02*
X25825Y-17344D01*
X28544Y-16945D02*
X28145Y-17344D01*
X29269Y-16945D02*
X28544Y-16945D01*
X16547Y-22556D02*
X15919Y-22556D01*
X17083Y-22020D02*
X16547Y-22556D01*
X10783Y-24608D02*
X10468Y-24608D01*
X11622Y-23769D02*
X10783Y-24608D01*
X11771Y-23769D02*
X11622Y-23769D01*
X12119Y-23420D02*
X11771Y-23769D01*
X16709Y-6514D02*
X17601Y-5622D01*
X10994Y-6514D02*
X16709Y-6514D01*
X10101Y-5621D02*
X10994Y-6514D01*
X18493Y-6514D02*
X17601Y-5622D01*
X24209Y-6514D02*
X18493Y-6514D01*
X25101Y-5622D02*
X24209Y-6514D01*
X9433Y-6289D02*
X10101Y-5621D01*
X6850Y-6289D02*
X9433Y-6289D01*
X6468Y-6671D02*
X6850Y-6289D01*
X3652Y-6671D02*
X6468Y-6671D01*
X2601Y-5621D02*
X3652Y-6671D01*
X12873Y-20547D02*
X12873Y-20347D01*
X13233Y-20907D02*
X12873Y-20547D01*
X25644Y-13122D02*
X25101Y-13122D01*
X28101Y-15578D02*
X25644Y-13122D01*
X28101Y-15872D02*
X28101Y-15578D01*
X9205Y-14017D02*
X10101Y-13121D01*
X3497Y-14017D02*
X9205Y-14017D01*
X2601Y-13121D02*
X3497Y-14017D01*
X16708Y-14014D02*
X17601Y-13121D01*
X10994Y-14014D02*
X16708Y-14014D01*
X10101Y-13121D02*
X10994Y-14014D01*
X17670Y-13052D02*
X17601Y-13121D01*
X25032Y-13052D02*
X17670Y-13052D01*
X25101Y-13122D02*
X25032Y-13052D01*
X13188Y-20417D02*
X13455Y-20684D01*
X13188Y-20194D02*
X13188Y-20417D01*
X13167Y-20173D02*
X13188Y-20194D01*
X13167Y-19872D02*
X13167Y-20173D01*
X13572Y-19467D02*
X13167Y-19872D01*
X13572Y-18429D02*
X13572Y-19467D01*
X12945Y-17803D02*
X13572Y-18429D01*
X12945Y-17411D02*
X12945Y-17803D01*
X13019Y-17337D02*
X12945Y-17411D01*
X13019Y-15773D02*
X13019Y-17337D01*
X12973Y-15727D02*
X13019Y-15773D01*
X10263Y-15727D02*
X12973Y-15727D01*
X10101Y-15889D02*
X10263Y-15727D01*
X25644Y-20622D02*
X25101Y-20622D01*
X28101Y-23078D02*
X25644Y-20622D01*
X28101Y-23372D02*
X28101Y-23078D01*
X13678Y-20461D02*
X13330Y-20113D01*
X3501Y-21520D02*
X2601Y-20620D01*
X8839Y-21520D02*
X3501Y-21520D01*
X9739Y-20620D02*
X8839Y-21520D01*
X10101Y-20620D02*
X9739Y-20620D01*
X13996Y-19447D02*
X13330Y-20113D01*
X25070Y-20591D02*
X25101Y-20622D01*
X23484Y-20591D02*
X25070Y-20591D01*
X23425Y-20650D02*
X23484Y-20591D01*
X22413Y-20650D02*
X23425Y-20650D01*
X21979Y-20217D02*
X22413Y-20650D01*
X18005Y-20217D02*
X21979Y-20217D01*
X17601Y-20620D02*
X18005Y-20217D01*
X13996Y-18631D02*
X13996Y-19447D01*
X13103Y-17737D02*
X13996Y-18631D01*
X13103Y-17476D02*
X13103Y-17737D01*
X13183Y-17397D02*
X13103Y-17476D01*
X13183Y-15714D02*
X13183Y-17397D01*
X13038Y-15570D02*
X13183Y-15714D01*
X8105Y-15570D02*
X13038Y-15570D01*
X7428Y-16246D02*
X8105Y-15570D01*
X4697Y-16246D02*
X7428Y-16246D01*
X3862Y-17082D02*
X4697Y-16246D01*
X16427Y-19447D02*
X13996Y-19447D01*
X17601Y-20620D02*
X16427Y-19447D01*
X16695Y-29027D02*
X17601Y-28120D01*
X11007Y-29027D02*
X16695Y-29027D01*
X10101Y-28120D02*
X11007Y-29027D01*
X28101Y-30578D02*
X26126Y-28604D01*
X28101Y-30872D02*
X28101Y-30578D01*
X26035Y-28695D02*
X26126Y-28604D01*
X24476Y-28695D02*
X26035Y-28695D01*
X23902Y-28120D02*
X24476Y-28695D01*
X17601Y-28120D02*
X23902Y-28120D01*
X25804Y-27418D02*
X25101Y-28122D01*
X26289Y-27418D02*
X25804Y-27418D01*
X26554Y-27684D02*
X26289Y-27418D01*
X26554Y-28059D02*
X26554Y-27684D01*
X26126Y-28487D02*
X26554Y-28059D01*
X26126Y-28604D02*
X26126Y-28487D01*
X13901Y-20238D02*
X14249Y-20587D01*
X14657Y-20179D02*
X14249Y-20587D01*
X14657Y-20118D02*
X14657Y-20179D01*
X15170Y-19604D02*
X14657Y-20118D01*
X15363Y-19604D02*
X15170Y-19604D01*
X18804Y-23045D02*
X15363Y-19604D01*
X10100Y-35622D02*
X10101Y-35620D01*
X6351Y-35622D02*
X10100Y-35622D01*
X14164Y-21821D02*
X15524Y-20461D01*
X14164Y-22014D02*
X14164Y-21821D01*
X13816Y-22362D02*
X14164Y-22014D01*
X13623Y-22362D02*
X13816Y-22362D01*
X13264Y-22720D02*
X13623Y-22362D01*
X11602Y-22720D02*
X13264Y-22720D01*
X8586Y-25736D02*
X11602Y-22720D01*
X8586Y-27635D02*
X8586Y-25736D01*
X4601Y-31620D02*
X8586Y-27635D01*
X28101Y-38078D02*
X26126Y-36104D01*
X28101Y-38372D02*
X28101Y-38078D01*
X17705Y-35725D02*
X20522Y-35725D01*
X17601Y-35620D02*
X17705Y-35725D01*
X10266Y-35455D02*
X10101Y-35620D01*
X16227Y-35455D02*
X10266Y-35455D01*
X17304Y-36532D02*
X16227Y-35455D01*
X20444Y-36532D02*
X17304Y-36532D01*
X20522Y-36453D02*
X20444Y-36532D01*
X20522Y-35725D02*
X20522Y-36453D01*
X25817Y-36104D02*
X26126Y-36104D01*
X25452Y-36469D02*
X25817Y-36104D01*
X24750Y-36469D02*
X25452Y-36469D01*
X24006Y-35725D02*
X24750Y-36469D01*
X20522Y-35725D02*
X24006Y-35725D01*
X25391Y-35331D02*
X25101Y-35622D01*
X25497Y-35437D02*
X25391Y-35331D01*
X25648Y-35437D02*
X25497Y-35437D01*
X25648Y-35184D02*
X25648Y-35437D01*
X25913Y-34918D02*
X25648Y-35184D01*
X26289Y-34918D02*
X25913Y-34918D01*
X26554Y-35184D02*
X26289Y-34918D01*
X26554Y-35559D02*
X26554Y-35184D01*
X26425Y-35688D02*
X26554Y-35559D01*
X26532Y-35795D02*
X26425Y-35688D01*
X26532Y-35976D02*
X26532Y-35795D01*
X26404Y-36104D02*
X26532Y-35976D01*
X26126Y-36104D02*
X26404Y-36104D01*
X6351Y-43122D02*
X10101Y-43122D01*
X25101Y-43122D02*
X20527Y-43122D01*
X20527Y-43122D02*
X17601Y-43122D01*
X10239Y-42984D02*
X10101Y-43122D01*
X15904Y-42984D02*
X10239Y-42984D01*
X16936Y-44015D02*
X15904Y-42984D01*
X20454Y-44015D02*
X16936Y-44015D01*
X20527Y-43941D02*
X20454Y-44015D01*
X20527Y-43122D02*
X20527Y-43941D01*
X14282Y-19857D02*
X14471Y-19857D01*
X14124Y-20016D02*
X14282Y-19857D01*
X12698Y-23286D02*
X12342Y-23643D01*
X12698Y-23071D02*
X12698Y-23286D01*
X7413Y-22440D02*
X7508Y-22345D01*
X6476Y-22440D02*
X7413Y-22440D01*
X7704Y-22345D02*
X7508Y-22345D01*
X7704Y-22345D02*
X7901Y-22345D01*
X7901Y-22345D02*
X8294Y-22345D01*
X11876Y-21778D02*
X12119Y-22020D01*
X11548Y-21778D02*
X11876Y-21778D01*
X11125Y-21355D02*
X11548Y-21778D01*
X9227Y-21355D02*
X11125Y-21355D01*
X8294Y-22288D02*
X9227Y-21355D01*
X8294Y-22345D02*
X8294Y-22288D01*
X6652Y-20174D02*
X6652Y-18301D01*
X7225Y-20746D02*
X6652Y-20174D01*
X14917Y-1869D02*
X14555Y-2230D01*
X15638Y-1869D02*
X14917Y-1869D01*
G54D32*
X7225Y-15746D02*
X7177Y-15746D01*
X6551Y-15121D02*
X3051Y-15121D01*
X7177Y-15746D02*
X6551Y-15121D01*
X16551Y-7821D02*
X16551Y-8871D01*
X10301Y-7821D02*
X16551Y-7821D01*
X16551Y-8871D02*
X17501Y-9821D01*
X18901Y-8421D02*
X17501Y-9821D01*
X20901Y-10171D02*
X22101Y-11371D01*
X20601Y-10171D02*
X20901Y-10171D01*
X20551Y-10121D02*
X20601Y-10171D01*
X6732Y-14333D02*
X7225Y-14826D01*
X7225Y-14826D02*
X9246Y-14826D01*
X9246Y-14826D02*
X9251Y-14821D01*
X21101Y-38671D02*
X14851Y-38671D01*
X29351Y-36620D02*
X27951Y-36620D01*
X27951Y-36620D02*
X27651Y-36921D01*
X14851Y-38671D02*
X14351Y-39171D01*
X29351Y-36620D02*
X29351Y-36621D01*
X28739Y-38909D02*
X29251Y-39421D01*
X28739Y-37233D02*
X28739Y-38909D01*
X29351Y-36621D02*
X28739Y-37233D01*
X14772Y-371D02*
X14063Y-1080D01*
X29351Y-371D02*
X14772Y-371D01*
X14063Y-1869D02*
X14063Y-1080D01*
X28523Y-44372D02*
X29351Y-44372D01*
X28122Y-43971D02*
X28523Y-44372D01*
X28122Y-43311D02*
X28122Y-43971D01*
X27770Y-42959D02*
X28122Y-43311D01*
X27531Y-42959D02*
X27770Y-42959D01*
X26949Y-42378D02*
X27531Y-42959D01*
X26949Y-41684D02*
X26949Y-42378D01*
X27419Y-41214D02*
X26949Y-41684D01*
X27419Y-40212D02*
X27419Y-41214D01*
X28739Y-38893D02*
X27419Y-40212D01*
X28739Y-37232D02*
X28739Y-38893D01*
X29351Y-36620D02*
X28739Y-37232D01*
X6872Y-4930D02*
X6872Y-4621D01*
X6273Y-5529D02*
X6872Y-4930D01*
X3727Y-5529D02*
X6273Y-5529D01*
X2286Y-4087D02*
X3727Y-5529D01*
X2286Y-2257D02*
X2286Y-4087D01*
X351Y-322D02*
X2286Y-2257D01*
X10960Y-20888D02*
X10862Y-20985D01*
X11021Y-20888D02*
X10960Y-20888D01*
X7048Y-23945D02*
X7901Y-23945D01*
X4919Y-26074D02*
X7048Y-23945D01*
X4919Y-26213D02*
X4919Y-26074D01*
X4422Y-26710D02*
X4919Y-26213D01*
X4422Y-27217D02*
X4422Y-26710D01*
X351Y-31289D02*
X4422Y-27217D01*
X351Y-36370D02*
X351Y-31289D01*
X8397Y-23945D02*
X8447Y-23895D01*
X7901Y-23945D02*
X8397Y-23945D01*
X22286Y-21689D02*
X21881Y-21689D01*
X21476Y-21689D02*
X21881Y-21689D01*
X21476Y-21689D02*
X21476Y-21722D01*
X23330Y-23414D02*
X23347Y-23397D01*
X23330Y-23472D02*
X23330Y-23414D01*
X22976Y-23472D02*
X23330Y-23472D01*
X11021Y-20434D02*
X11021Y-20622D01*
X11021Y-20622D02*
X11021Y-20888D01*
X8674Y-23895D02*
X8447Y-23895D01*
X8674Y-23895D02*
X8901Y-23895D01*
X8901Y-23895D02*
X8901Y-23542D01*
X23574Y-23397D02*
X23347Y-23397D01*
X23801Y-20897D02*
X23801Y-21250D01*
X23574Y-23397D02*
X23688Y-23397D01*
X7049Y-4621D02*
X6872Y-4621D01*
X7049Y-4621D02*
X7226Y-4621D01*
X12564Y-21575D02*
X12955Y-21966D01*
X9255Y-23542D02*
X9763Y-23034D01*
X8901Y-23542D02*
X9255Y-23542D01*
X9763Y-23034D02*
X10862Y-21934D01*
X12580Y-25186D02*
X13233Y-24534D01*
X11716Y-25186D02*
X12580Y-25186D01*
G54D33*
X14921Y-24823D02*
X15301Y-25202D01*
X14921Y-24769D02*
X14921Y-24823D01*
G54D32*
X13250Y-21671D02*
X12955Y-21966D01*
X13474Y-21671D02*
X13250Y-21671D01*
X13570Y-21768D02*
X13474Y-21671D01*
X15078Y-20067D02*
X15078Y-20016D01*
X13474Y-21671D02*
X15078Y-20067D01*
X22967Y-23009D02*
X22976Y-23018D01*
X22916Y-23009D02*
X22967Y-23009D01*
X22976Y-23472D02*
X22976Y-23018D01*
X22916Y-22555D02*
X22916Y-23009D01*
X7795Y-2449D02*
X7795Y-3120D01*
X7910Y-3120D02*
X8187Y-2843D01*
X7795Y-3120D02*
X7910Y-3120D01*
X7680Y-4621D02*
X7710Y-4590D01*
X7226Y-4621D02*
X7680Y-4621D01*
X27439Y-2282D02*
X29351Y-371D01*
X18202Y-2282D02*
X27439Y-2282D01*
X17377Y-3107D02*
X18202Y-2282D01*
X12888Y-3107D02*
X17377Y-3107D01*
X12587Y-3407D02*
X12888Y-3107D01*
X12587Y-3508D02*
X12587Y-3407D01*
X11505Y-4590D02*
X12587Y-3508D01*
X7710Y-4590D02*
X11505Y-4590D01*
X7225Y-14826D02*
X7225Y-15746D01*
X23744Y-23397D02*
X23688Y-23397D01*
X24111Y-21250D02*
X23801Y-21250D01*
X24269Y-21409D02*
X24111Y-21250D01*
X24269Y-22882D02*
X24269Y-21409D01*
X23754Y-23397D02*
X24269Y-22882D01*
X23744Y-23397D02*
X23754Y-23397D01*
X23744Y-23397D02*
X23801Y-23397D01*
X24363Y-24748D02*
X23919Y-24748D01*
X24756Y-24354D02*
X24363Y-24748D01*
X24756Y-23898D02*
X24756Y-24354D01*
X24255Y-23397D02*
X24756Y-23898D01*
X23801Y-23397D02*
X24255Y-23397D01*
X12142Y-21184D02*
X12173Y-21184D01*
X11969Y-21011D02*
X12142Y-21184D01*
X11645Y-21011D02*
X11969Y-21011D01*
X11257Y-20622D02*
X11645Y-21011D01*
X11257Y-20622D02*
X11257Y-20622D01*
X11021Y-20622D02*
X11257Y-20622D01*
X12564Y-21575D02*
X12173Y-21184D01*
X17083Y-23420D02*
X16692Y-23029D01*
X21476Y-21107D02*
X21957Y-21107D01*
X21476Y-20772D02*
X21476Y-21107D01*
X21476Y-21107D02*
X21476Y-21689D01*
X16990Y-22731D02*
X16835Y-22886D01*
X17205Y-22731D02*
X16990Y-22731D01*
X17393Y-22919D02*
X17205Y-22731D01*
X17542Y-22919D02*
X17393Y-22919D01*
X19086Y-24463D02*
X17542Y-22919D01*
X21957Y-24463D02*
X19086Y-24463D01*
X16835Y-22886D02*
X16692Y-23029D01*
X15315Y-23217D02*
X14811Y-23721D01*
X15829Y-23217D02*
X15315Y-23217D01*
X16159Y-22886D02*
X15829Y-23217D01*
X16835Y-22886D02*
X16159Y-22886D01*
X14921Y-23831D02*
X14811Y-23721D01*
X14921Y-24769D02*
X14921Y-23831D01*
X14811Y-23721D02*
X13767Y-22677D01*
G54D31*
X22916Y-21689D02*
X22916Y-22082D01*
X23720Y-22021D02*
X23720Y-22106D01*
X23801Y-21940D02*
X23720Y-22021D01*
X23801Y-21647D02*
X23801Y-21940D01*
X22865Y-22134D02*
X22916Y-22082D01*
X21264Y-22134D02*
X22865Y-22134D01*
X21183Y-22053D02*
X21264Y-22134D01*
X21183Y-20448D02*
X21183Y-22053D01*
X21252Y-20378D02*
X21183Y-20448D01*
X21708Y-20378D02*
X21252Y-20378D01*
X22460Y-21131D02*
X21708Y-20378D01*
X12787Y-21352D02*
X12439Y-21004D01*
X12439Y-20950D02*
X12225Y-20735D01*
X12439Y-21004D02*
X12439Y-20950D01*
X23528Y-14860D02*
X11853Y-14860D01*
X23759Y-15091D02*
X23528Y-14860D01*
X7761Y-3655D02*
X7165Y-3059D01*
X8086Y-3655D02*
X7761Y-3655D01*
X8351Y-5418D02*
X8086Y-5153D01*
X8351Y-5996D02*
X8351Y-5418D01*
X7165Y-2449D02*
X7165Y-3059D01*
X21785Y-19799D02*
X21074Y-19799D01*
X22478Y-20493D02*
X21785Y-19799D01*
X23360Y-20493D02*
X22478Y-20493D01*
X23675Y-20178D02*
X23360Y-20493D01*
X23756Y-20178D02*
X23675Y-20178D01*
X23261Y-21079D02*
X23247Y-21065D01*
X23261Y-22106D02*
X23261Y-21079D01*
X23801Y-22647D02*
X23261Y-22106D01*
X21155Y-22555D02*
X21104Y-22504D01*
X22286Y-22555D02*
X21155Y-22555D01*
X21074Y-18356D02*
X21074Y-19799D01*
X20487Y-17770D02*
X21074Y-18356D01*
X20487Y-16514D02*
X20487Y-17770D01*
X20519Y-16482D02*
X20487Y-16514D01*
X20519Y-15796D02*
X20519Y-16482D01*
X20450Y-15727D02*
X20519Y-15796D01*
X19993Y-15727D02*
X20450Y-15727D01*
X18329Y-17391D02*
X19993Y-15727D01*
X18329Y-17563D02*
X18329Y-17391D01*
X16804Y-19088D02*
X18329Y-17563D01*
X14899Y-19088D02*
X16804Y-19088D01*
X13418Y-17607D02*
X14899Y-19088D01*
X12005Y-17074D02*
X11466Y-16535D01*
X12005Y-19845D02*
X12005Y-17074D01*
X12192Y-20031D02*
X12005Y-19845D01*
X12192Y-20257D02*
X12192Y-20031D01*
X12662Y-20727D02*
X12192Y-20257D01*
X12662Y-20781D02*
X12662Y-20727D01*
X13010Y-21129D02*
X12662Y-20781D01*
X7901Y-27365D02*
X7901Y-24695D01*
X4012Y-31254D02*
X7901Y-27365D01*
X4012Y-31836D02*
X4012Y-31254D01*
X4364Y-32189D02*
X4012Y-31836D01*
X4850Y-32189D02*
X4364Y-32189D01*
X9554Y-27485D02*
X4850Y-32189D01*
X9554Y-26382D02*
X9554Y-27485D01*
X10871Y-25065D02*
X9554Y-26382D01*
X11393Y-25065D02*
X10871Y-25065D01*
X11393Y-25065D02*
X11393Y-25065D01*
X11586Y-24871D02*
X11393Y-25065D01*
X12450Y-24871D02*
X11586Y-24871D01*
X13010Y-24311D02*
X12450Y-24871D01*
X6850Y-1791D02*
X6965Y-1676D01*
X6850Y-2449D02*
X6850Y-1791D01*
X7351Y-5996D02*
X7351Y-5702D01*
X7158Y-5702D02*
X6965Y-5509D01*
X7351Y-5702D02*
X7158Y-5702D01*
X19862Y-43693D02*
X19933Y-43622D01*
X17359Y-43693D02*
X19862Y-43693D01*
X17015Y-43349D02*
X17359Y-43693D01*
X17015Y-42881D02*
X17015Y-43349D01*
X17775Y-42122D02*
X17015Y-42881D01*
X20101Y-42122D02*
X17775Y-42122D01*
X20226Y-43622D02*
X19933Y-43622D01*
X27167Y-43888D02*
X27433Y-43622D01*
X26785Y-43888D02*
X27167Y-43888D01*
X27726Y-43622D02*
X27433Y-43622D01*
X13476Y-44027D02*
X13330Y-44173D01*
X13476Y-43620D02*
X13476Y-44027D01*
X19860Y-36193D02*
X19933Y-36120D01*
X17360Y-36193D02*
X19860Y-36193D01*
X17024Y-35857D02*
X17360Y-36193D01*
X17024Y-35380D02*
X17024Y-35857D01*
X17784Y-34620D02*
X17024Y-35380D01*
X20101Y-34620D02*
X17784Y-34620D01*
X20226Y-36120D02*
X19933Y-36120D01*
X14142Y-36935D02*
X14176Y-36935D01*
X13769Y-36562D02*
X14142Y-36935D01*
X13769Y-36372D02*
X13769Y-36562D01*
X13476Y-36372D02*
X13769Y-36372D01*
X5226Y-27245D02*
X5226Y-28620D01*
X5101Y-27120D02*
X5226Y-27245D01*
X13455Y-24757D02*
X14003Y-24209D01*
X8351Y-6746D02*
X8351Y-7039D01*
X14086Y-12774D02*
X14086Y-12960D01*
X8351Y-7039D02*
X14086Y-12774D01*
X27101Y-20872D02*
X28226Y-20872D01*
X8499Y-40350D02*
X7269Y-39120D01*
X8499Y-41769D02*
X8499Y-40350D01*
X8851Y-42122D02*
X8499Y-41769D01*
X6976Y-39120D02*
X7269Y-39120D01*
X6683Y-39304D02*
X6683Y-39120D01*
X5866Y-40120D02*
X6683Y-39304D01*
X2101Y-40120D02*
X5866Y-40120D01*
X6976Y-39120D02*
X6683Y-39120D01*
X28176Y-35870D02*
X28176Y-36264D01*
X27493Y-36264D02*
X28176Y-36264D01*
X27101Y-35872D02*
X27493Y-36264D01*
X27101Y-28372D02*
X28226Y-28372D01*
X5231Y-34622D02*
X4751Y-35102D01*
X8851Y-34622D02*
X5231Y-34622D01*
X4751Y-35395D02*
X4751Y-35102D01*
X3783Y-35102D02*
X4751Y-35102D01*
X2101Y-33420D02*
X3783Y-35102D01*
X2101Y-32620D02*
X2101Y-33420D01*
X27101Y-13372D02*
X28226Y-13372D01*
X19679Y-13367D02*
X19933Y-13621D01*
X19312Y-13367D02*
X19679Y-13367D01*
X20226Y-13621D02*
X19933Y-13621D01*
X12726Y-12246D02*
X12726Y-13621D01*
X12601Y-12121D02*
X12726Y-12246D01*
X5226Y-12246D02*
X5226Y-13621D01*
X5101Y-12121D02*
X5226Y-12246D01*
X5226Y-19745D02*
X5226Y-21120D01*
X5101Y-19620D02*
X5226Y-19745D01*
X14026Y-24632D02*
X14026Y-24631D01*
X14067Y-24632D02*
X14026Y-24632D01*
X14338Y-24361D02*
X14067Y-24632D01*
X14338Y-24081D02*
X14338Y-24361D01*
X13928Y-23672D02*
X14338Y-24081D01*
X13441Y-23672D02*
X13928Y-23672D01*
X10188Y-11834D02*
X12012Y-13658D01*
X10188Y-9876D02*
X10188Y-11834D01*
X7351Y-7039D02*
X10188Y-9876D01*
X7351Y-6746D02*
X7351Y-7039D01*
X13678Y-24980D02*
X14026Y-24631D01*
X27726Y-4747D02*
X27726Y-6121D01*
X27601Y-4622D02*
X27726Y-4747D01*
X20226Y-4747D02*
X20226Y-6121D01*
X20101Y-4622D02*
X20226Y-4747D01*
X12576Y-4646D02*
X12576Y-6121D01*
X12601Y-4621D02*
X12576Y-4646D01*
X19789Y-28664D02*
X19833Y-28620D01*
X19262Y-28664D02*
X19789Y-28664D01*
X20126Y-28620D02*
X19833Y-28620D01*
X4927Y-6126D02*
X4933Y-6121D01*
X4367Y-6126D02*
X4927Y-6126D01*
X5226Y-6121D02*
X4933Y-6121D01*
X12726Y-27245D02*
X12726Y-28620D01*
X12601Y-27120D02*
X12726Y-27245D01*
X20226Y-16120D02*
X20226Y-16514D01*
X20101Y-16639D02*
X20101Y-19620D01*
X20226Y-16514D02*
X20101Y-16639D01*
X12601Y-16639D02*
X12726Y-16514D01*
X12601Y-19620D02*
X12601Y-16639D01*
X12726Y-16120D02*
X12726Y-16514D01*
X19065Y-20772D02*
X18031Y-21806D01*
X20726Y-20772D02*
X19065Y-20772D01*
X17557Y-22494D02*
X17557Y-22509D01*
X17306Y-22243D02*
X17557Y-22494D01*
G54D32*
X25601Y-1621D02*
X25047Y-1621D01*
X10601Y-1621D02*
X10047Y-1621D01*
X5493Y-5250D02*
X6122Y-4621D01*
X3843Y-5250D02*
X5493Y-5250D01*
X2632Y-4039D02*
X3843Y-5250D01*
X2632Y-2694D02*
X2632Y-4039D01*
X3101Y-2224D02*
X2632Y-2694D01*
X3101Y-1621D02*
X3101Y-2224D01*
X6476Y-4621D02*
X6122Y-4621D01*
X18710Y-1011D02*
X18101Y-1621D01*
X24438Y-1011D02*
X18710Y-1011D01*
X25047Y-1621D02*
X24438Y-1011D01*
X11804Y-2657D02*
X10047Y-2657D01*
X11827Y-2680D02*
X11804Y-2657D01*
X16488Y-2680D02*
X11827Y-2680D01*
X17547Y-1621D02*
X16488Y-2680D01*
X10047Y-1621D02*
X10047Y-2657D01*
X18101Y-1621D02*
X17547Y-1621D01*
X9377Y-22315D02*
X9377Y-21673D01*
X8901Y-22792D02*
X9377Y-22315D01*
X8862Y-23095D02*
X8901Y-23056D01*
X7901Y-23095D02*
X8862Y-23095D01*
X8901Y-23145D02*
X8901Y-23056D01*
X8901Y-23056D02*
X8901Y-22792D01*
X20726Y-21722D02*
X20726Y-22175D01*
X22123Y-23472D02*
X21872Y-23472D01*
X22123Y-23472D02*
X22160Y-23472D01*
X22226Y-23472D02*
X22160Y-23472D01*
X6535Y-3750D02*
X6535Y-2449D01*
X6940Y-4156D02*
X6535Y-3750D01*
X9299Y-4156D02*
X6940Y-4156D01*
X10047Y-3408D02*
X9299Y-4156D01*
X10047Y-2657D02*
X10047Y-3408D01*
X6940Y-4156D02*
X6476Y-4621D01*
X14515Y-25034D02*
X14687Y-25034D01*
X14292Y-24811D02*
X14515Y-25034D01*
X13901Y-25202D02*
X14292Y-24811D01*
X15078Y-25425D02*
X14687Y-25034D01*
X11895Y-21463D02*
X11951Y-21407D01*
X11678Y-21463D02*
X11895Y-21463D01*
X12342Y-21798D02*
X11951Y-21407D01*
X11183Y-24653D02*
X11087Y-24750D01*
X12223Y-24653D02*
X11183Y-24653D01*
X12787Y-24089D02*
X12223Y-24653D01*
X9419Y-19940D02*
X7225Y-17746D01*
X11277Y-19940D02*
X9419Y-19940D01*
X11771Y-20434D02*
X11277Y-19940D01*
X13946Y-21594D02*
X15301Y-20238D01*
X13946Y-21924D02*
X13946Y-21594D01*
X13726Y-22144D02*
X13946Y-21924D01*
X13295Y-22144D02*
X13726Y-22144D01*
X13184Y-22254D02*
X13295Y-22144D01*
X12798Y-22254D02*
X13184Y-22254D01*
X12342Y-21798D02*
X12798Y-22254D01*
X6357Y-16879D02*
X7225Y-17746D01*
X5921Y-16879D02*
X6357Y-16879D01*
X22503Y-24203D02*
X24375Y-24203D01*
X22226Y-23925D02*
X22503Y-24203D01*
X22226Y-23472D02*
X22226Y-23925D01*
X21541Y-23472D02*
X21872Y-23472D01*
X20726Y-22657D02*
X21541Y-23472D01*
X20726Y-22175D02*
X20726Y-22657D01*
X14570Y-24533D02*
X14292Y-24811D01*
X14570Y-23987D02*
X14570Y-24533D01*
X13878Y-23295D02*
X14570Y-23987D01*
X13259Y-23295D02*
X13878Y-23295D01*
X13048Y-23507D02*
X13259Y-23295D01*
X13048Y-23828D02*
X13048Y-23507D01*
X12787Y-24089D02*
X13048Y-23828D01*
X17704Y-23596D02*
X17306Y-23198D01*
X17704Y-24275D02*
X17704Y-23596D01*
X15002Y-26977D02*
X17704Y-24275D01*
X14713Y-26977D02*
X15002Y-26977D01*
G54D10*
G36*
X4937Y-20622D02*
X4909Y-20633D01*
X4839Y-20704D01*
X4801Y-20795D01*
X4801Y-20895D01*
X4801Y-21231D01*
X3621Y-21231D01*
X3257Y-20867D01*
X3301Y-20760D01*
X3301Y-20482D01*
X3195Y-20224D01*
X2998Y-20027D01*
X2741Y-19920D01*
X2462Y-19920D01*
X2205Y-20027D01*
X2186Y-20045D01*
X2186Y-18505D01*
X2097Y-18289D01*
X1933Y-18125D01*
X1718Y-18035D01*
X1485Y-18035D01*
X1270Y-18124D01*
X1105Y-18289D01*
X1016Y-18503D01*
X1016Y-18736D01*
X1105Y-18951D01*
X1269Y-19116D01*
X1484Y-19205D01*
X1717Y-19205D01*
X1932Y-19117D01*
X2097Y-18952D01*
X2186Y-18737D01*
X2186Y-18505D01*
X2186Y-20045D01*
X2008Y-20223D01*
X1901Y-20481D01*
X1901Y-20759D01*
X2007Y-21016D01*
X2135Y-21144D01*
X2074Y-21103D01*
X1601Y-21009D01*
X270Y-21009D01*
X270Y-766D01*
X294Y-774D01*
X471Y-761D01*
X577Y-717D01*
X591Y-633D01*
X351Y-392D01*
X345Y-398D01*
X275Y-327D01*
X280Y-322D01*
X275Y-316D01*
X345Y-245D01*
X351Y-251D01*
X356Y-245D01*
X427Y-316D01*
X422Y-322D01*
X662Y-562D01*
X747Y-547D01*
X803Y-379D01*
X793Y-240D01*
X4572Y-240D01*
X4572Y-1160D01*
X4543Y-1115D01*
X4340Y-980D01*
X4101Y-932D01*
X3862Y-980D01*
X3702Y-1087D01*
X3688Y-1054D01*
X3618Y-984D01*
X3526Y-946D01*
X3426Y-946D01*
X2676Y-946D01*
X2584Y-983D01*
X2514Y-1054D01*
X2476Y-1146D01*
X2476Y-1245D01*
X2476Y-2095D01*
X2514Y-2187D01*
X2579Y-2252D01*
X2384Y-2446D01*
X2308Y-2560D01*
X2282Y-2694D01*
X2282Y-4039D01*
X2308Y-4173D01*
X2384Y-4286D01*
X2847Y-4749D01*
X2827Y-4746D01*
X2382Y-4746D01*
X2271Y-4768D01*
X2186Y-4825D01*
X2186Y-3505D01*
X2097Y-3290D01*
X1933Y-3125D01*
X1718Y-3036D01*
X1485Y-3035D01*
X1270Y-3124D01*
X1105Y-3289D01*
X1016Y-3504D01*
X1016Y-3736D01*
X1105Y-3952D01*
X1269Y-4116D01*
X1484Y-4205D01*
X1717Y-4206D01*
X1932Y-4117D01*
X2097Y-3952D01*
X2186Y-3737D01*
X2186Y-3505D01*
X2186Y-4825D01*
X2177Y-4830D01*
X1811Y-5197D01*
X1748Y-5291D01*
X1726Y-5402D01*
X1726Y-8176D01*
X1748Y-8287D01*
X1811Y-8381D01*
X3516Y-10085D01*
X3396Y-10085D01*
X3015Y-10243D01*
X2724Y-10534D01*
X2566Y-10914D01*
X2566Y-11326D01*
X2723Y-11706D01*
X3014Y-11997D01*
X3076Y-12023D01*
X2578Y-12023D01*
X2468Y-12045D01*
X2437Y-12066D01*
X2374Y-12108D01*
X2186Y-12296D01*
X2186Y-11005D01*
X2097Y-10790D01*
X1933Y-10625D01*
X1718Y-10536D01*
X1666Y-10536D01*
X1666Y-7009D01*
X1580Y-6801D01*
X1421Y-6642D01*
X1214Y-6556D01*
X989Y-6556D01*
X781Y-6641D01*
X622Y-6800D01*
X536Y-7008D01*
X536Y-7232D01*
X622Y-7440D01*
X780Y-7599D01*
X988Y-7685D01*
X1213Y-7686D01*
X1420Y-7600D01*
X1580Y-7441D01*
X1666Y-7233D01*
X1666Y-7009D01*
X1666Y-10536D01*
X1485Y-10535D01*
X1270Y-10624D01*
X1105Y-10789D01*
X1016Y-11004D01*
X1016Y-11236D01*
X1105Y-11452D01*
X1269Y-11616D01*
X1484Y-11705D01*
X1717Y-11706D01*
X1932Y-11617D01*
X2097Y-11452D01*
X2186Y-11237D01*
X2186Y-11005D01*
X2186Y-12296D01*
X1826Y-12656D01*
X1763Y-12750D01*
X1741Y-12861D01*
X1741Y-15698D01*
X1763Y-15809D01*
X1826Y-15903D01*
X3508Y-17585D01*
X3396Y-17585D01*
X3015Y-17742D01*
X2724Y-18033D01*
X2566Y-18414D01*
X2566Y-18825D01*
X2723Y-19206D01*
X3014Y-19497D01*
X3394Y-19655D01*
X3806Y-19656D01*
X3921Y-19608D01*
X3920Y-19634D01*
X3988Y-19799D01*
X4114Y-19925D01*
X4278Y-19993D01*
X4456Y-19993D01*
X4491Y-19978D01*
X4507Y-20016D01*
X4704Y-20213D01*
X4937Y-20310D01*
X4937Y-20622D01*
X4937Y-20622D01*
G37*
G54D34*
X4937Y-20622D02*
X4909Y-20633D01*
X4839Y-20704D01*
X4801Y-20795D01*
X4801Y-20895D01*
X4801Y-21231D01*
X3621Y-21231D01*
X3257Y-20867D01*
X3301Y-20760D01*
X3301Y-20482D01*
X3195Y-20224D01*
X2998Y-20027D01*
X2741Y-19920D01*
X2462Y-19920D01*
X2205Y-20027D01*
X2186Y-20045D01*
X2186Y-18505D01*
X2097Y-18289D01*
X1933Y-18125D01*
X1718Y-18035D01*
X1485Y-18035D01*
X1270Y-18124D01*
X1105Y-18289D01*
X1016Y-18503D01*
X1016Y-18736D01*
X1105Y-18951D01*
X1269Y-19116D01*
X1484Y-19205D01*
X1717Y-19205D01*
X1932Y-19117D01*
X2097Y-18952D01*
X2186Y-18737D01*
X2186Y-18505D01*
X2186Y-20045D01*
X2008Y-20223D01*
X1901Y-20481D01*
X1901Y-20759D01*
X2007Y-21016D01*
X2135Y-21144D01*
X2074Y-21103D01*
X1601Y-21009D01*
X270Y-21009D01*
X270Y-766D01*
X294Y-774D01*
X471Y-761D01*
X577Y-717D01*
X591Y-633D01*
X351Y-392D01*
X345Y-398D01*
X275Y-327D01*
X280Y-322D01*
X275Y-316D01*
X345Y-245D01*
X351Y-251D01*
X356Y-245D01*
X427Y-316D01*
X422Y-322D01*
X662Y-562D01*
X747Y-547D01*
X803Y-379D01*
X793Y-240D01*
X4572Y-240D01*
X4572Y-1160D01*
X4543Y-1115D01*
X4340Y-980D01*
X4101Y-932D01*
X3862Y-980D01*
X3702Y-1087D01*
X3688Y-1054D01*
X3618Y-984D01*
X3526Y-946D01*
X3426Y-946D01*
X2676Y-946D01*
X2584Y-983D01*
X2514Y-1054D01*
X2476Y-1146D01*
X2476Y-1245D01*
X2476Y-2095D01*
X2514Y-2187D01*
X2579Y-2252D01*
X2384Y-2446D01*
X2308Y-2560D01*
X2282Y-2694D01*
X2282Y-4039D01*
X2308Y-4173D01*
X2384Y-4286D01*
X2847Y-4749D01*
X2827Y-4746D01*
X2382Y-4746D01*
X2271Y-4768D01*
X2186Y-4825D01*
X2186Y-3505D01*
X2097Y-3290D01*
X1933Y-3125D01*
X1718Y-3036D01*
X1485Y-3035D01*
X1270Y-3124D01*
X1105Y-3289D01*
X1016Y-3504D01*
X1016Y-3736D01*
X1105Y-3952D01*
X1269Y-4116D01*
X1484Y-4205D01*
X1717Y-4206D01*
X1932Y-4117D01*
X2097Y-3952D01*
X2186Y-3737D01*
X2186Y-3505D01*
X2186Y-4825D01*
X2177Y-4830D01*
X1811Y-5197D01*
X1748Y-5291D01*
X1726Y-5402D01*
X1726Y-8176D01*
X1748Y-8287D01*
X1811Y-8381D01*
X3516Y-10085D01*
X3396Y-10085D01*
X3015Y-10243D01*
X2724Y-10534D01*
X2566Y-10914D01*
X2566Y-11326D01*
X2723Y-11706D01*
X3014Y-11997D01*
X3076Y-12023D01*
X2578Y-12023D01*
X2468Y-12045D01*
X2437Y-12066D01*
X2374Y-12108D01*
X2186Y-12296D01*
X2186Y-11005D01*
X2097Y-10790D01*
X1933Y-10625D01*
X1718Y-10536D01*
X1666Y-10536D01*
X1666Y-7009D01*
X1580Y-6801D01*
X1421Y-6642D01*
X1214Y-6556D01*
X989Y-6556D01*
X781Y-6641D01*
X622Y-6800D01*
X536Y-7008D01*
X536Y-7232D01*
X622Y-7440D01*
X780Y-7599D01*
X988Y-7685D01*
X1213Y-7686D01*
X1420Y-7600D01*
X1580Y-7441D01*
X1666Y-7233D01*
X1666Y-7009D01*
X1666Y-10536D01*
X1485Y-10535D01*
X1270Y-10624D01*
X1105Y-10789D01*
X1016Y-11004D01*
X1016Y-11236D01*
X1105Y-11452D01*
X1269Y-11616D01*
X1484Y-11705D01*
X1717Y-11706D01*
X1932Y-11617D01*
X2097Y-11452D01*
X2186Y-11237D01*
X2186Y-11005D01*
X2186Y-12296D01*
X1826Y-12656D01*
X1763Y-12750D01*
X1741Y-12861D01*
X1741Y-15698D01*
X1763Y-15809D01*
X1826Y-15903D01*
X3508Y-17585D01*
X3396Y-17585D01*
X3015Y-17742D01*
X2724Y-18033D01*
X2566Y-18414D01*
X2566Y-18825D01*
X2723Y-19206D01*
X3014Y-19497D01*
X3394Y-19655D01*
X3806Y-19656D01*
X3921Y-19608D01*
X3920Y-19634D01*
X3988Y-19799D01*
X4114Y-19925D01*
X4278Y-19993D01*
X4456Y-19993D01*
X4491Y-19978D01*
X4507Y-20016D01*
X4704Y-20213D01*
X4937Y-20310D01*
X4937Y-20622D01*
G54D10*
G36*
X6826Y-6004D02*
X6740Y-6022D01*
X6646Y-6084D01*
X6401Y-6329D01*
X6401Y-5796D01*
X6363Y-5704D01*
X6293Y-5634D01*
X6201Y-5596D01*
X6101Y-5596D01*
X5751Y-5596D01*
X5659Y-5633D01*
X5601Y-5692D01*
X5543Y-5634D01*
X5461Y-5600D01*
X5493Y-5600D01*
X5627Y-5573D01*
X5627Y-5573D01*
X5740Y-5497D01*
X6145Y-5093D01*
X6159Y-5107D01*
X6251Y-5146D01*
X6350Y-5146D01*
X6696Y-5146D01*
X6586Y-5256D01*
X6518Y-5420D01*
X6518Y-5598D01*
X6586Y-5762D01*
X6711Y-5888D01*
X6826Y-5935D01*
X6826Y-6004D01*
X6826Y-6004D01*
G37*
G54D34*
X6826Y-6004D02*
X6740Y-6022D01*
X6646Y-6084D01*
X6401Y-6329D01*
X6401Y-5796D01*
X6363Y-5704D01*
X6293Y-5634D01*
X6201Y-5596D01*
X6101Y-5596D01*
X5751Y-5596D01*
X5659Y-5633D01*
X5601Y-5692D01*
X5543Y-5634D01*
X5461Y-5600D01*
X5493Y-5600D01*
X5627Y-5573D01*
X5627Y-5573D01*
X5740Y-5497D01*
X6145Y-5093D01*
X6159Y-5107D01*
X6251Y-5146D01*
X6350Y-5146D01*
X6696Y-5146D01*
X6586Y-5256D01*
X6518Y-5420D01*
X6518Y-5598D01*
X6586Y-5762D01*
X6711Y-5888D01*
X6826Y-5935D01*
X6826Y-6004D01*
G54D10*
G36*
X8577Y-3357D02*
X8516Y-3504D01*
X8516Y-3525D01*
X8465Y-3402D01*
X8340Y-3277D01*
X8175Y-3209D01*
X8143Y-3208D01*
X8143Y-2892D01*
X8143Y-2499D01*
X7844Y-2499D01*
X7844Y-3124D01*
X7897Y-3175D01*
X8006Y-3124D01*
X8098Y-3022D01*
X8143Y-2892D01*
X8143Y-3208D01*
X7998Y-3208D01*
X7833Y-3276D01*
X7812Y-3297D01*
X7689Y-3174D01*
X7692Y-3175D01*
X7746Y-3124D01*
X7746Y-3074D01*
X7802Y-2990D01*
X7828Y-2857D01*
X7828Y-2391D01*
X7844Y-2391D01*
X7844Y-2399D01*
X8143Y-2399D01*
X8143Y-2005D01*
X8123Y-1947D01*
X8273Y-1885D01*
X8393Y-1765D01*
X8454Y-1619D01*
X8471Y-1661D01*
X8450Y-1710D01*
X8450Y-1809D01*
X8450Y-3187D01*
X8488Y-3279D01*
X8559Y-3350D01*
X8577Y-3357D01*
X8577Y-3357D01*
G37*
G54D34*
X8577Y-3357D02*
X8516Y-3504D01*
X8516Y-3525D01*
X8465Y-3402D01*
X8340Y-3277D01*
X8175Y-3209D01*
X8143Y-3208D01*
X8143Y-2892D01*
X8143Y-2499D01*
X7844Y-2499D01*
X7844Y-3124D01*
X7897Y-3175D01*
X8006Y-3124D01*
X8098Y-3022D01*
X8143Y-2892D01*
X8143Y-3208D01*
X7998Y-3208D01*
X7833Y-3276D01*
X7812Y-3297D01*
X7689Y-3174D01*
X7692Y-3175D01*
X7746Y-3124D01*
X7746Y-3074D01*
X7802Y-2990D01*
X7828Y-2857D01*
X7828Y-2391D01*
X7844Y-2391D01*
X7844Y-2399D01*
X8143Y-2399D01*
X8143Y-2005D01*
X8123Y-1947D01*
X8273Y-1885D01*
X8393Y-1765D01*
X8454Y-1619D01*
X8471Y-1661D01*
X8450Y-1710D01*
X8450Y-1809D01*
X8450Y-3187D01*
X8488Y-3279D01*
X8559Y-3350D01*
X8577Y-3357D01*
G54D10*
G36*
X10454Y-12509D02*
X10241Y-12421D01*
X9962Y-12420D01*
X9705Y-12527D01*
X9686Y-12546D01*
X9686Y-11005D01*
X9597Y-10790D01*
X9433Y-10625D01*
X9218Y-10536D01*
X8985Y-10535D01*
X8770Y-10624D01*
X8605Y-10789D01*
X8516Y-11004D01*
X8516Y-11236D01*
X8605Y-11452D01*
X8769Y-11616D01*
X8984Y-11705D01*
X9217Y-11706D01*
X9432Y-11617D01*
X9597Y-11452D01*
X9686Y-11237D01*
X9686Y-11005D01*
X9686Y-12546D01*
X9508Y-12724D01*
X9401Y-12981D01*
X9401Y-13259D01*
X9445Y-13367D01*
X9085Y-13727D01*
X6401Y-13727D01*
X6401Y-13296D01*
X6363Y-13204D01*
X6293Y-13134D01*
X6265Y-13122D01*
X6265Y-12169D01*
X6243Y-12058D01*
X6180Y-11964D01*
X6180Y-11964D01*
X5862Y-11646D01*
X5932Y-11617D01*
X6097Y-11452D01*
X6186Y-11237D01*
X6186Y-11005D01*
X6097Y-10790D01*
X5933Y-10625D01*
X5718Y-10536D01*
X5485Y-10535D01*
X5270Y-10624D01*
X5105Y-10789D01*
X5058Y-10902D01*
X5047Y-10844D01*
X5043Y-10826D01*
X5043Y-10826D01*
X4981Y-10732D01*
X4981Y-10732D01*
X2305Y-8056D01*
X2305Y-6256D01*
X2461Y-6320D01*
X2740Y-6321D01*
X2847Y-6276D01*
X3447Y-6876D01*
X3447Y-6876D01*
X3510Y-6918D01*
X3541Y-6939D01*
X3541Y-6939D01*
X3563Y-6943D01*
X3536Y-7008D01*
X3536Y-7232D01*
X3622Y-7440D01*
X3780Y-7599D01*
X3988Y-7685D01*
X4213Y-7686D01*
X4420Y-7600D01*
X4580Y-7441D01*
X4666Y-7233D01*
X4666Y-7009D01*
X4646Y-6961D01*
X6468Y-6961D01*
X6468Y-6961D01*
X6579Y-6939D01*
X6672Y-6876D01*
X6826Y-6723D01*
X6826Y-6970D01*
X6864Y-7062D01*
X6934Y-7132D01*
X7026Y-7171D01*
X7098Y-7171D01*
X7146Y-7243D01*
X9899Y-9996D01*
X9899Y-11834D01*
X9921Y-11945D01*
X9984Y-12039D01*
X10454Y-12509D01*
X10454Y-12509D01*
G37*
G54D34*
X10454Y-12509D02*
X10241Y-12421D01*
X9962Y-12420D01*
X9705Y-12527D01*
X9686Y-12546D01*
X9686Y-11005D01*
X9597Y-10790D01*
X9433Y-10625D01*
X9218Y-10536D01*
X8985Y-10535D01*
X8770Y-10624D01*
X8605Y-10789D01*
X8516Y-11004D01*
X8516Y-11236D01*
X8605Y-11452D01*
X8769Y-11616D01*
X8984Y-11705D01*
X9217Y-11706D01*
X9432Y-11617D01*
X9597Y-11452D01*
X9686Y-11237D01*
X9686Y-11005D01*
X9686Y-12546D01*
X9508Y-12724D01*
X9401Y-12981D01*
X9401Y-13259D01*
X9445Y-13367D01*
X9085Y-13727D01*
X6401Y-13727D01*
X6401Y-13296D01*
X6363Y-13204D01*
X6293Y-13134D01*
X6265Y-13122D01*
X6265Y-12169D01*
X6243Y-12058D01*
X6180Y-11964D01*
X6180Y-11964D01*
X5862Y-11646D01*
X5932Y-11617D01*
X6097Y-11452D01*
X6186Y-11237D01*
X6186Y-11005D01*
X6097Y-10790D01*
X5933Y-10625D01*
X5718Y-10536D01*
X5485Y-10535D01*
X5270Y-10624D01*
X5105Y-10789D01*
X5058Y-10902D01*
X5047Y-10844D01*
X5043Y-10826D01*
X5043Y-10826D01*
X4981Y-10732D01*
X4981Y-10732D01*
X2305Y-8056D01*
X2305Y-6256D01*
X2461Y-6320D01*
X2740Y-6321D01*
X2847Y-6276D01*
X3447Y-6876D01*
X3447Y-6876D01*
X3510Y-6918D01*
X3541Y-6939D01*
X3541Y-6939D01*
X3563Y-6943D01*
X3536Y-7008D01*
X3536Y-7232D01*
X3622Y-7440D01*
X3780Y-7599D01*
X3988Y-7685D01*
X4213Y-7686D01*
X4420Y-7600D01*
X4580Y-7441D01*
X4666Y-7233D01*
X4666Y-7009D01*
X4646Y-6961D01*
X6468Y-6961D01*
X6468Y-6961D01*
X6579Y-6939D01*
X6672Y-6876D01*
X6826Y-6723D01*
X6826Y-6970D01*
X6864Y-7062D01*
X6934Y-7132D01*
X7026Y-7171D01*
X7098Y-7171D01*
X7146Y-7243D01*
X9899Y-9996D01*
X9899Y-11834D01*
X9921Y-11945D01*
X9984Y-12039D01*
X10454Y-12509D01*
G54D10*
G36*
X11617Y-22431D02*
X11602Y-22431D01*
X11491Y-22453D01*
X11398Y-22516D01*
X9426Y-24487D01*
X9426Y-24120D01*
X9426Y-24008D01*
X9363Y-23945D01*
X8951Y-23945D01*
X8951Y-24258D01*
X9013Y-24320D01*
X9126Y-24320D01*
X9226Y-24320D01*
X9318Y-24282D01*
X9388Y-24212D01*
X9426Y-24120D01*
X9426Y-24487D01*
X8382Y-25531D01*
X8319Y-25625D01*
X8297Y-25736D01*
X8297Y-27515D01*
X4847Y-30965D01*
X4751Y-30925D01*
X8105Y-27570D01*
X8105Y-27570D01*
X8168Y-27476D01*
X8190Y-27365D01*
X8190Y-27365D01*
X8190Y-25120D01*
X8225Y-25120D01*
X8317Y-25082D01*
X8388Y-25012D01*
X8426Y-24920D01*
X8426Y-24821D01*
X8426Y-24471D01*
X8388Y-24379D01*
X8329Y-24320D01*
X8388Y-24262D01*
X8411Y-24205D01*
X8414Y-24212D01*
X8484Y-24282D01*
X8576Y-24320D01*
X8675Y-24320D01*
X8788Y-24320D01*
X8851Y-24258D01*
X8851Y-23945D01*
X8438Y-23945D01*
X8376Y-24008D01*
X8363Y-23995D01*
X7951Y-23995D01*
X7951Y-24003D01*
X7851Y-24003D01*
X7851Y-23995D01*
X7438Y-23995D01*
X7376Y-24058D01*
X7376Y-24170D01*
X7414Y-24262D01*
X7472Y-24320D01*
X7414Y-24379D01*
X7376Y-24470D01*
X7376Y-24570D01*
X7376Y-24920D01*
X7414Y-25012D01*
X7484Y-25082D01*
X7576Y-25120D01*
X7612Y-25120D01*
X7612Y-27245D01*
X6401Y-28456D01*
X6401Y-28296D01*
X6363Y-28204D01*
X6293Y-28134D01*
X6265Y-28122D01*
X6265Y-27147D01*
X6260Y-27122D01*
X6275Y-27088D01*
X6275Y-26910D01*
X6207Y-26746D01*
X6081Y-26620D01*
X5973Y-26575D01*
X6097Y-26452D01*
X6186Y-26237D01*
X6186Y-26005D01*
X6097Y-25789D01*
X5933Y-25625D01*
X5718Y-25535D01*
X5485Y-25535D01*
X5270Y-25624D01*
X5105Y-25789D01*
X5016Y-26003D01*
X5016Y-26236D01*
X5092Y-26420D01*
X4962Y-26420D01*
X4705Y-26527D01*
X4636Y-26595D01*
X4636Y-25915D01*
X4479Y-25535D01*
X4188Y-25243D01*
X3808Y-25086D01*
X3396Y-25085D01*
X3015Y-25242D01*
X2724Y-25533D01*
X2566Y-25914D01*
X2566Y-26325D01*
X2723Y-26706D01*
X3014Y-26997D01*
X3394Y-27155D01*
X3806Y-27156D01*
X4186Y-26998D01*
X4478Y-26707D01*
X4636Y-26327D01*
X4636Y-25915D01*
X4636Y-26595D01*
X4508Y-26723D01*
X4401Y-26981D01*
X4401Y-27259D01*
X4507Y-27516D01*
X4704Y-27713D01*
X4937Y-27810D01*
X4937Y-28122D01*
X4909Y-28133D01*
X4839Y-28204D01*
X4801Y-28295D01*
X4801Y-28395D01*
X4801Y-28945D01*
X4839Y-29037D01*
X4909Y-29107D01*
X4952Y-29125D01*
X3686Y-30391D01*
X3686Y-30167D01*
X3529Y-29786D01*
X3301Y-29558D01*
X3301Y-27982D01*
X3195Y-27724D01*
X2998Y-27527D01*
X2741Y-27420D01*
X2462Y-27420D01*
X2205Y-27527D01*
X2186Y-27545D01*
X2186Y-26005D01*
X2097Y-25789D01*
X1933Y-25625D01*
X1718Y-25535D01*
X1485Y-25535D01*
X1270Y-25624D01*
X1105Y-25789D01*
X1016Y-26003D01*
X1016Y-26236D01*
X1105Y-26451D01*
X1269Y-26616D01*
X1484Y-26705D01*
X1717Y-26705D01*
X1932Y-26617D01*
X2097Y-26452D01*
X2186Y-26237D01*
X2186Y-26005D01*
X2186Y-27545D01*
X2008Y-27723D01*
X1901Y-27981D01*
X1901Y-28259D01*
X2007Y-28516D01*
X2204Y-28713D01*
X2461Y-28820D01*
X2740Y-28820D01*
X2997Y-28714D01*
X3194Y-28517D01*
X3301Y-28260D01*
X3301Y-27982D01*
X3301Y-29558D01*
X3238Y-29495D01*
X2858Y-29337D01*
X2446Y-29336D01*
X2065Y-29494D01*
X1774Y-29785D01*
X1616Y-30165D01*
X1616Y-30577D01*
X1773Y-30957D01*
X2064Y-31248D01*
X2359Y-31371D01*
X2235Y-31371D01*
X2124Y-31393D01*
X2031Y-31456D01*
X939Y-32548D01*
X876Y-32642D01*
X854Y-32752D01*
X854Y-33814D01*
X876Y-33925D01*
X939Y-34019D01*
X2454Y-35533D01*
X2170Y-35651D01*
X1931Y-35889D01*
X1801Y-36202D01*
X1801Y-36540D01*
X1930Y-36852D01*
X2069Y-36992D01*
X2065Y-36994D01*
X1774Y-37285D01*
X1698Y-37468D01*
X1698Y-37232D01*
X1630Y-37068D01*
X1504Y-36942D01*
X1340Y-36874D01*
X1162Y-36873D01*
X998Y-36941D01*
X872Y-37067D01*
X804Y-37231D01*
X804Y-37409D01*
X872Y-37573D01*
X997Y-37699D01*
X1162Y-37767D01*
X1339Y-37767D01*
X1504Y-37699D01*
X1629Y-37574D01*
X1698Y-37410D01*
X1698Y-37232D01*
X1698Y-37468D01*
X1616Y-37665D01*
X1616Y-38077D01*
X1773Y-38457D01*
X2064Y-38748D01*
X2444Y-38906D01*
X2856Y-38907D01*
X3236Y-38749D01*
X3528Y-38459D01*
X3686Y-38078D01*
X3686Y-37715D01*
X3812Y-37767D01*
X3989Y-37767D01*
X4154Y-37699D01*
X4275Y-37579D01*
X5643Y-38947D01*
X5643Y-39120D01*
X5665Y-39231D01*
X5728Y-39325D01*
X5801Y-39374D01*
X5801Y-39445D01*
X5839Y-39537D01*
X5909Y-39607D01*
X5952Y-39625D01*
X5746Y-39831D01*
X5301Y-39831D01*
X5301Y-38982D01*
X5195Y-38724D01*
X4998Y-38527D01*
X4741Y-38420D01*
X4462Y-38420D01*
X4205Y-38527D01*
X4008Y-38723D01*
X3901Y-38981D01*
X3901Y-39259D01*
X4007Y-39516D01*
X4204Y-39713D01*
X4461Y-39820D01*
X4740Y-39820D01*
X4997Y-39714D01*
X5194Y-39517D01*
X5301Y-39260D01*
X5301Y-38982D01*
X5301Y-39831D01*
X2739Y-39831D01*
X2695Y-39724D01*
X2498Y-39527D01*
X2241Y-39420D01*
X1962Y-39420D01*
X1705Y-39527D01*
X1508Y-39723D01*
X1401Y-39981D01*
X1401Y-40259D01*
X1507Y-40516D01*
X1526Y-40535D01*
X1485Y-40535D01*
X1270Y-40624D01*
X1105Y-40789D01*
X1016Y-41003D01*
X1016Y-41236D01*
X1105Y-41451D01*
X1269Y-41616D01*
X1484Y-41705D01*
X1717Y-41705D01*
X1932Y-41617D01*
X2097Y-41452D01*
X2186Y-41237D01*
X2186Y-41005D01*
X2110Y-40820D01*
X2240Y-40820D01*
X2497Y-40714D01*
X2694Y-40517D01*
X2739Y-40410D01*
X2848Y-40410D01*
X2724Y-40533D01*
X2566Y-40914D01*
X2566Y-41325D01*
X2723Y-41706D01*
X3014Y-41997D01*
X3394Y-42155D01*
X3806Y-42156D01*
X4186Y-41998D01*
X4478Y-41707D01*
X4636Y-41327D01*
X4636Y-40915D01*
X4479Y-40535D01*
X4354Y-40410D01*
X5866Y-40410D01*
X5866Y-40410D01*
X5977Y-40388D01*
X6071Y-40325D01*
X6750Y-39645D01*
X6751Y-39645D01*
X6850Y-39645D01*
X7200Y-39645D01*
X7292Y-39607D01*
X7320Y-39580D01*
X8209Y-40470D01*
X8209Y-40516D01*
X7938Y-40245D01*
X7558Y-40087D01*
X7146Y-40086D01*
X6765Y-40244D01*
X6474Y-40535D01*
X6316Y-40915D01*
X6316Y-41327D01*
X6473Y-41707D01*
X6764Y-41998D01*
X7144Y-42156D01*
X7556Y-42157D01*
X7936Y-41999D01*
X8209Y-41727D01*
X8209Y-41769D01*
X8219Y-41818D01*
X8219Y-41818D01*
X8151Y-41982D01*
X8151Y-42260D01*
X8209Y-42400D01*
X7090Y-42400D01*
X7020Y-42330D01*
X6926Y-42268D01*
X6815Y-42246D01*
X6186Y-42246D01*
X6186Y-41005D01*
X6097Y-40789D01*
X5933Y-40625D01*
X5718Y-40535D01*
X5485Y-40535D01*
X5475Y-40540D01*
X5468Y-40537D01*
X5235Y-40536D01*
X5020Y-40625D01*
X4855Y-40790D01*
X4766Y-41005D01*
X4766Y-41237D01*
X4855Y-41452D01*
X5019Y-41617D01*
X5234Y-41706D01*
X5467Y-41707D01*
X5477Y-41702D01*
X5484Y-41705D01*
X5717Y-41705D01*
X5932Y-41617D01*
X6097Y-41452D01*
X6186Y-41237D01*
X6186Y-41005D01*
X6186Y-42246D01*
X6109Y-42246D01*
X5998Y-42268D01*
X5904Y-42330D01*
X5575Y-42660D01*
X5512Y-42754D01*
X5490Y-42865D01*
X5490Y-43361D01*
X5512Y-43472D01*
X5575Y-43566D01*
X5914Y-43905D01*
X5914Y-43905D01*
X6008Y-43968D01*
X6008Y-43968D01*
X6026Y-43971D01*
X6119Y-43990D01*
X10642Y-43990D01*
X10642Y-43990D01*
X10752Y-43968D01*
X10846Y-43905D01*
X11309Y-43443D01*
X11201Y-43702D01*
X11201Y-44040D01*
X11330Y-44352D01*
X11428Y-44451D01*
X3273Y-44451D01*
X3371Y-44354D01*
X3501Y-44041D01*
X3501Y-43703D01*
X3372Y-43391D01*
X3133Y-43151D01*
X2821Y-43022D01*
X2483Y-43021D01*
X2170Y-43151D01*
X1931Y-43389D01*
X1801Y-43702D01*
X1801Y-44040D01*
X1930Y-44352D01*
X2028Y-44451D01*
X795Y-44451D01*
X803Y-44429D01*
X803Y-36427D01*
X790Y-36250D01*
X747Y-36145D01*
X662Y-36130D01*
X422Y-36370D01*
X662Y-36611D01*
X747Y-36596D01*
X803Y-36427D01*
X803Y-44429D01*
X790Y-44251D01*
X747Y-44146D01*
X662Y-44131D01*
X422Y-44372D01*
X427Y-44377D01*
X356Y-44448D01*
X351Y-44442D01*
X345Y-44448D01*
X275Y-44377D01*
X280Y-44372D01*
X275Y-44366D01*
X345Y-44295D01*
X351Y-44301D01*
X591Y-44060D01*
X577Y-43976D01*
X408Y-43920D01*
X270Y-43929D01*
X270Y-37767D01*
X289Y-37767D01*
X454Y-37699D01*
X579Y-37574D01*
X648Y-37410D01*
X648Y-37232D01*
X580Y-37068D01*
X454Y-36942D01*
X290Y-36874D01*
X270Y-36874D01*
X270Y-36815D01*
X294Y-36822D01*
X471Y-36810D01*
X577Y-36766D01*
X591Y-36681D01*
X351Y-36441D01*
X345Y-36447D01*
X275Y-36376D01*
X280Y-36370D01*
X275Y-36365D01*
X345Y-36294D01*
X351Y-36300D01*
X591Y-36059D01*
X577Y-35975D01*
X408Y-35918D01*
X270Y-35928D01*
X270Y-23478D01*
X1601Y-23478D01*
X2074Y-23385D01*
X2474Y-23117D01*
X2742Y-22716D01*
X2836Y-22244D01*
X2742Y-21772D01*
X2474Y-21371D01*
X2295Y-21251D01*
X2461Y-21320D01*
X2740Y-21320D01*
X2847Y-21276D01*
X3296Y-21725D01*
X3296Y-21725D01*
X3390Y-21788D01*
X3390Y-21788D01*
X3408Y-21791D01*
X3501Y-21810D01*
X8363Y-21810D01*
X8245Y-21928D01*
X8226Y-21920D01*
X8126Y-21920D01*
X7576Y-21920D01*
X7484Y-21958D01*
X7414Y-22029D01*
X7392Y-22081D01*
X7366Y-22099D01*
X7303Y-22141D01*
X7294Y-22150D01*
X6818Y-22150D01*
X6729Y-22061D01*
X6565Y-21993D01*
X6387Y-21993D01*
X6223Y-22061D01*
X6097Y-22186D01*
X6029Y-22350D01*
X6029Y-22528D01*
X6097Y-22692D01*
X6222Y-22818D01*
X6387Y-22886D01*
X6564Y-22887D01*
X6729Y-22819D01*
X6818Y-22729D01*
X7413Y-22729D01*
X7413Y-22729D01*
X7470Y-22718D01*
X7472Y-22720D01*
X7414Y-22779D01*
X7376Y-22870D01*
X7376Y-22970D01*
X7376Y-23320D01*
X7414Y-23412D01*
X7484Y-23482D01*
X7576Y-23520D01*
X7626Y-23520D01*
X7576Y-23520D01*
X7484Y-23559D01*
X7414Y-23629D01*
X7376Y-23721D01*
X7376Y-23833D01*
X7438Y-23895D01*
X7851Y-23895D01*
X7851Y-23887D01*
X7951Y-23887D01*
X7951Y-23895D01*
X8363Y-23895D01*
X8426Y-23833D01*
X8438Y-23845D01*
X8851Y-23845D01*
X8851Y-23837D01*
X8951Y-23837D01*
X8951Y-23845D01*
X9363Y-23845D01*
X9426Y-23783D01*
X9426Y-23671D01*
X9388Y-23579D01*
X9329Y-23520D01*
X9388Y-23462D01*
X9426Y-23370D01*
X9426Y-23271D01*
X9426Y-22921D01*
X9388Y-22829D01*
X9373Y-22814D01*
X9625Y-22563D01*
X9625Y-22563D01*
X9625Y-22563D01*
X9700Y-22449D01*
X9727Y-22315D01*
X9727Y-22315D01*
X9727Y-22315D01*
X9727Y-21955D01*
X9756Y-21927D01*
X9824Y-21763D01*
X9824Y-21645D01*
X11005Y-21645D01*
X11343Y-21982D01*
X11343Y-21982D01*
X11357Y-21991D01*
X11350Y-22027D01*
X11375Y-22153D01*
X11446Y-22260D01*
X11617Y-22431D01*
X11617Y-22431D01*
G37*
G54D34*
X11617Y-22431D02*
X11602Y-22431D01*
X11491Y-22453D01*
X11398Y-22516D01*
X9426Y-24487D01*
X9426Y-24120D01*
X9426Y-24008D01*
X9363Y-23945D01*
X8951Y-23945D01*
X8951Y-24258D01*
X9013Y-24320D01*
X9126Y-24320D01*
X9226Y-24320D01*
X9318Y-24282D01*
X9388Y-24212D01*
X9426Y-24120D01*
X9426Y-24487D01*
X8382Y-25531D01*
X8319Y-25625D01*
X8297Y-25736D01*
X8297Y-27515D01*
X4847Y-30965D01*
X4751Y-30925D01*
X8105Y-27570D01*
X8105Y-27570D01*
X8168Y-27476D01*
X8190Y-27365D01*
X8190Y-27365D01*
X8190Y-25120D01*
X8225Y-25120D01*
X8317Y-25082D01*
X8388Y-25012D01*
X8426Y-24920D01*
X8426Y-24821D01*
X8426Y-24471D01*
X8388Y-24379D01*
X8329Y-24320D01*
X8388Y-24262D01*
X8411Y-24205D01*
X8414Y-24212D01*
X8484Y-24282D01*
X8576Y-24320D01*
X8675Y-24320D01*
X8788Y-24320D01*
X8851Y-24258D01*
X8851Y-23945D01*
X8438Y-23945D01*
X8376Y-24008D01*
X8363Y-23995D01*
X7951Y-23995D01*
X7951Y-24003D01*
X7851Y-24003D01*
X7851Y-23995D01*
X7438Y-23995D01*
X7376Y-24058D01*
X7376Y-24170D01*
X7414Y-24262D01*
X7472Y-24320D01*
X7414Y-24379D01*
X7376Y-24470D01*
X7376Y-24570D01*
X7376Y-24920D01*
X7414Y-25012D01*
X7484Y-25082D01*
X7576Y-25120D01*
X7612Y-25120D01*
X7612Y-27245D01*
X6401Y-28456D01*
X6401Y-28296D01*
X6363Y-28204D01*
X6293Y-28134D01*
X6265Y-28122D01*
X6265Y-27147D01*
X6260Y-27122D01*
X6275Y-27088D01*
X6275Y-26910D01*
X6207Y-26746D01*
X6081Y-26620D01*
X5973Y-26575D01*
X6097Y-26452D01*
X6186Y-26237D01*
X6186Y-26005D01*
X6097Y-25789D01*
X5933Y-25625D01*
X5718Y-25535D01*
X5485Y-25535D01*
X5270Y-25624D01*
X5105Y-25789D01*
X5016Y-26003D01*
X5016Y-26236D01*
X5092Y-26420D01*
X4962Y-26420D01*
X4705Y-26527D01*
X4636Y-26595D01*
X4636Y-25915D01*
X4479Y-25535D01*
X4188Y-25243D01*
X3808Y-25086D01*
X3396Y-25085D01*
X3015Y-25242D01*
X2724Y-25533D01*
X2566Y-25914D01*
X2566Y-26325D01*
X2723Y-26706D01*
X3014Y-26997D01*
X3394Y-27155D01*
X3806Y-27156D01*
X4186Y-26998D01*
X4478Y-26707D01*
X4636Y-26327D01*
X4636Y-25915D01*
X4636Y-26595D01*
X4508Y-26723D01*
X4401Y-26981D01*
X4401Y-27259D01*
X4507Y-27516D01*
X4704Y-27713D01*
X4937Y-27810D01*
X4937Y-28122D01*
X4909Y-28133D01*
X4839Y-28204D01*
X4801Y-28295D01*
X4801Y-28395D01*
X4801Y-28945D01*
X4839Y-29037D01*
X4909Y-29107D01*
X4952Y-29125D01*
X3686Y-30391D01*
X3686Y-30167D01*
X3529Y-29786D01*
X3301Y-29558D01*
X3301Y-27982D01*
X3195Y-27724D01*
X2998Y-27527D01*
X2741Y-27420D01*
X2462Y-27420D01*
X2205Y-27527D01*
X2186Y-27545D01*
X2186Y-26005D01*
X2097Y-25789D01*
X1933Y-25625D01*
X1718Y-25535D01*
X1485Y-25535D01*
X1270Y-25624D01*
X1105Y-25789D01*
X1016Y-26003D01*
X1016Y-26236D01*
X1105Y-26451D01*
X1269Y-26616D01*
X1484Y-26705D01*
X1717Y-26705D01*
X1932Y-26617D01*
X2097Y-26452D01*
X2186Y-26237D01*
X2186Y-26005D01*
X2186Y-27545D01*
X2008Y-27723D01*
X1901Y-27981D01*
X1901Y-28259D01*
X2007Y-28516D01*
X2204Y-28713D01*
X2461Y-28820D01*
X2740Y-28820D01*
X2997Y-28714D01*
X3194Y-28517D01*
X3301Y-28260D01*
X3301Y-27982D01*
X3301Y-29558D01*
X3238Y-29495D01*
X2858Y-29337D01*
X2446Y-29336D01*
X2065Y-29494D01*
X1774Y-29785D01*
X1616Y-30165D01*
X1616Y-30577D01*
X1773Y-30957D01*
X2064Y-31248D01*
X2359Y-31371D01*
X2235Y-31371D01*
X2124Y-31393D01*
X2031Y-31456D01*
X939Y-32548D01*
X876Y-32642D01*
X854Y-32752D01*
X854Y-33814D01*
X876Y-33925D01*
X939Y-34019D01*
X2454Y-35533D01*
X2170Y-35651D01*
X1931Y-35889D01*
X1801Y-36202D01*
X1801Y-36540D01*
X1930Y-36852D01*
X2069Y-36992D01*
X2065Y-36994D01*
X1774Y-37285D01*
X1698Y-37468D01*
X1698Y-37232D01*
X1630Y-37068D01*
X1504Y-36942D01*
X1340Y-36874D01*
X1162Y-36873D01*
X998Y-36941D01*
X872Y-37067D01*
X804Y-37231D01*
X804Y-37409D01*
X872Y-37573D01*
X997Y-37699D01*
X1162Y-37767D01*
X1339Y-37767D01*
X1504Y-37699D01*
X1629Y-37574D01*
X1698Y-37410D01*
X1698Y-37232D01*
X1698Y-37468D01*
X1616Y-37665D01*
X1616Y-38077D01*
X1773Y-38457D01*
X2064Y-38748D01*
X2444Y-38906D01*
X2856Y-38907D01*
X3236Y-38749D01*
X3528Y-38459D01*
X3686Y-38078D01*
X3686Y-37715D01*
X3812Y-37767D01*
X3989Y-37767D01*
X4154Y-37699D01*
X4275Y-37579D01*
X5643Y-38947D01*
X5643Y-39120D01*
X5665Y-39231D01*
X5728Y-39325D01*
X5801Y-39374D01*
X5801Y-39445D01*
X5839Y-39537D01*
X5909Y-39607D01*
X5952Y-39625D01*
X5746Y-39831D01*
X5301Y-39831D01*
X5301Y-38982D01*
X5195Y-38724D01*
X4998Y-38527D01*
X4741Y-38420D01*
X4462Y-38420D01*
X4205Y-38527D01*
X4008Y-38723D01*
X3901Y-38981D01*
X3901Y-39259D01*
X4007Y-39516D01*
X4204Y-39713D01*
X4461Y-39820D01*
X4740Y-39820D01*
X4997Y-39714D01*
X5194Y-39517D01*
X5301Y-39260D01*
X5301Y-38982D01*
X5301Y-39831D01*
X2739Y-39831D01*
X2695Y-39724D01*
X2498Y-39527D01*
X2241Y-39420D01*
X1962Y-39420D01*
X1705Y-39527D01*
X1508Y-39723D01*
X1401Y-39981D01*
X1401Y-40259D01*
X1507Y-40516D01*
X1526Y-40535D01*
X1485Y-40535D01*
X1270Y-40624D01*
X1105Y-40789D01*
X1016Y-41003D01*
X1016Y-41236D01*
X1105Y-41451D01*
X1269Y-41616D01*
X1484Y-41705D01*
X1717Y-41705D01*
X1932Y-41617D01*
X2097Y-41452D01*
X2186Y-41237D01*
X2186Y-41005D01*
X2110Y-40820D01*
X2240Y-40820D01*
X2497Y-40714D01*
X2694Y-40517D01*
X2739Y-40410D01*
X2848Y-40410D01*
X2724Y-40533D01*
X2566Y-40914D01*
X2566Y-41325D01*
X2723Y-41706D01*
X3014Y-41997D01*
X3394Y-42155D01*
X3806Y-42156D01*
X4186Y-41998D01*
X4478Y-41707D01*
X4636Y-41327D01*
X4636Y-40915D01*
X4479Y-40535D01*
X4354Y-40410D01*
X5866Y-40410D01*
X5866Y-40410D01*
X5977Y-40388D01*
X6071Y-40325D01*
X6750Y-39645D01*
X6751Y-39645D01*
X6850Y-39645D01*
X7200Y-39645D01*
X7292Y-39607D01*
X7320Y-39580D01*
X8209Y-40470D01*
X8209Y-40516D01*
X7938Y-40245D01*
X7558Y-40087D01*
X7146Y-40086D01*
X6765Y-40244D01*
X6474Y-40535D01*
X6316Y-40915D01*
X6316Y-41327D01*
X6473Y-41707D01*
X6764Y-41998D01*
X7144Y-42156D01*
X7556Y-42157D01*
X7936Y-41999D01*
X8209Y-41727D01*
X8209Y-41769D01*
X8219Y-41818D01*
X8219Y-41818D01*
X8151Y-41982D01*
X8151Y-42260D01*
X8209Y-42400D01*
X7090Y-42400D01*
X7020Y-42330D01*
X6926Y-42268D01*
X6815Y-42246D01*
X6186Y-42246D01*
X6186Y-41005D01*
X6097Y-40789D01*
X5933Y-40625D01*
X5718Y-40535D01*
X5485Y-40535D01*
X5475Y-40540D01*
X5468Y-40537D01*
X5235Y-40536D01*
X5020Y-40625D01*
X4855Y-40790D01*
X4766Y-41005D01*
X4766Y-41237D01*
X4855Y-41452D01*
X5019Y-41617D01*
X5234Y-41706D01*
X5467Y-41707D01*
X5477Y-41702D01*
X5484Y-41705D01*
X5717Y-41705D01*
X5932Y-41617D01*
X6097Y-41452D01*
X6186Y-41237D01*
X6186Y-41005D01*
X6186Y-42246D01*
X6109Y-42246D01*
X5998Y-42268D01*
X5904Y-42330D01*
X5575Y-42660D01*
X5512Y-42754D01*
X5490Y-42865D01*
X5490Y-43361D01*
X5512Y-43472D01*
X5575Y-43566D01*
X5914Y-43905D01*
X5914Y-43905D01*
X6008Y-43968D01*
X6008Y-43968D01*
X6026Y-43971D01*
X6119Y-43990D01*
X10642Y-43990D01*
X10642Y-43990D01*
X10752Y-43968D01*
X10846Y-43905D01*
X11309Y-43443D01*
X11201Y-43702D01*
X11201Y-44040D01*
X11330Y-44352D01*
X11428Y-44451D01*
X3273Y-44451D01*
X3371Y-44354D01*
X3501Y-44041D01*
X3501Y-43703D01*
X3372Y-43391D01*
X3133Y-43151D01*
X2821Y-43022D01*
X2483Y-43021D01*
X2170Y-43151D01*
X1931Y-43389D01*
X1801Y-43702D01*
X1801Y-44040D01*
X1930Y-44352D01*
X2028Y-44451D01*
X795Y-44451D01*
X803Y-44429D01*
X803Y-36427D01*
X790Y-36250D01*
X747Y-36145D01*
X662Y-36130D01*
X422Y-36370D01*
X662Y-36611D01*
X747Y-36596D01*
X803Y-36427D01*
X803Y-44429D01*
X790Y-44251D01*
X747Y-44146D01*
X662Y-44131D01*
X422Y-44372D01*
X427Y-44377D01*
X356Y-44448D01*
X351Y-44442D01*
X345Y-44448D01*
X275Y-44377D01*
X280Y-44372D01*
X275Y-44366D01*
X345Y-44295D01*
X351Y-44301D01*
X591Y-44060D01*
X577Y-43976D01*
X408Y-43920D01*
X270Y-43929D01*
X270Y-37767D01*
X289Y-37767D01*
X454Y-37699D01*
X579Y-37574D01*
X648Y-37410D01*
X648Y-37232D01*
X580Y-37068D01*
X454Y-36942D01*
X290Y-36874D01*
X270Y-36874D01*
X270Y-36815D01*
X294Y-36822D01*
X471Y-36810D01*
X577Y-36766D01*
X591Y-36681D01*
X351Y-36441D01*
X345Y-36447D01*
X275Y-36376D01*
X280Y-36370D01*
X275Y-36365D01*
X345Y-36294D01*
X351Y-36300D01*
X591Y-36059D01*
X577Y-35975D01*
X408Y-35918D01*
X270Y-35928D01*
X270Y-23478D01*
X1601Y-23478D01*
X2074Y-23385D01*
X2474Y-23117D01*
X2742Y-22716D01*
X2836Y-22244D01*
X2742Y-21772D01*
X2474Y-21371D01*
X2295Y-21251D01*
X2461Y-21320D01*
X2740Y-21320D01*
X2847Y-21276D01*
X3296Y-21725D01*
X3296Y-21725D01*
X3390Y-21788D01*
X3390Y-21788D01*
X3408Y-21791D01*
X3501Y-21810D01*
X8363Y-21810D01*
X8245Y-21928D01*
X8226Y-21920D01*
X8126Y-21920D01*
X7576Y-21920D01*
X7484Y-21958D01*
X7414Y-22029D01*
X7392Y-22081D01*
X7366Y-22099D01*
X7303Y-22141D01*
X7294Y-22150D01*
X6818Y-22150D01*
X6729Y-22061D01*
X6565Y-21993D01*
X6387Y-21993D01*
X6223Y-22061D01*
X6097Y-22186D01*
X6029Y-22350D01*
X6029Y-22528D01*
X6097Y-22692D01*
X6222Y-22818D01*
X6387Y-22886D01*
X6564Y-22887D01*
X6729Y-22819D01*
X6818Y-22729D01*
X7413Y-22729D01*
X7413Y-22729D01*
X7470Y-22718D01*
X7472Y-22720D01*
X7414Y-22779D01*
X7376Y-22870D01*
X7376Y-22970D01*
X7376Y-23320D01*
X7414Y-23412D01*
X7484Y-23482D01*
X7576Y-23520D01*
X7626Y-23520D01*
X7576Y-23520D01*
X7484Y-23559D01*
X7414Y-23629D01*
X7376Y-23721D01*
X7376Y-23833D01*
X7438Y-23895D01*
X7851Y-23895D01*
X7851Y-23887D01*
X7951Y-23887D01*
X7951Y-23895D01*
X8363Y-23895D01*
X8426Y-23833D01*
X8438Y-23845D01*
X8851Y-23845D01*
X8851Y-23837D01*
X8951Y-23837D01*
X8951Y-23845D01*
X9363Y-23845D01*
X9426Y-23783D01*
X9426Y-23671D01*
X9388Y-23579D01*
X9329Y-23520D01*
X9388Y-23462D01*
X9426Y-23370D01*
X9426Y-23271D01*
X9426Y-22921D01*
X9388Y-22829D01*
X9373Y-22814D01*
X9625Y-22563D01*
X9625Y-22563D01*
X9625Y-22563D01*
X9700Y-22449D01*
X9727Y-22315D01*
X9727Y-22315D01*
X9727Y-22315D01*
X9727Y-21955D01*
X9756Y-21927D01*
X9824Y-21763D01*
X9824Y-21645D01*
X11005Y-21645D01*
X11343Y-21982D01*
X11343Y-21982D01*
X11357Y-21991D01*
X11350Y-22027D01*
X11375Y-22153D01*
X11446Y-22260D01*
X11617Y-22431D01*
G54D10*
G36*
X11920Y-21063D02*
X11893Y-21068D01*
X11893Y-21068D01*
X11768Y-21016D01*
X11590Y-21016D01*
X11426Y-21084D01*
X11344Y-21165D01*
X11330Y-21151D01*
X11236Y-21088D01*
X11125Y-21066D01*
X10646Y-21066D01*
X10694Y-21017D01*
X10730Y-20931D01*
X10796Y-20959D01*
X10908Y-20959D01*
X10971Y-20896D01*
X10971Y-20484D01*
X10963Y-20484D01*
X10963Y-20384D01*
X10971Y-20384D01*
X10971Y-20376D01*
X11071Y-20376D01*
X11071Y-20384D01*
X11079Y-20384D01*
X11079Y-20484D01*
X11071Y-20484D01*
X11071Y-20896D01*
X11133Y-20959D01*
X11245Y-20959D01*
X11337Y-20921D01*
X11396Y-20862D01*
X11454Y-20921D01*
X11546Y-20959D01*
X11645Y-20959D01*
X11834Y-20959D01*
X11846Y-20988D01*
X11920Y-21063D01*
X11920Y-21063D01*
G37*
G54D34*
X11920Y-21063D02*
X11893Y-21068D01*
X11893Y-21068D01*
X11768Y-21016D01*
X11590Y-21016D01*
X11426Y-21084D01*
X11344Y-21165D01*
X11330Y-21151D01*
X11236Y-21088D01*
X11125Y-21066D01*
X10646Y-21066D01*
X10694Y-21017D01*
X10730Y-20931D01*
X10796Y-20959D01*
X10908Y-20959D01*
X10971Y-20896D01*
X10971Y-20484D01*
X10963Y-20484D01*
X10963Y-20384D01*
X10971Y-20384D01*
X10971Y-20376D01*
X11071Y-20376D01*
X11071Y-20384D01*
X11079Y-20384D01*
X11079Y-20484D01*
X11071Y-20484D01*
X11071Y-20896D01*
X11133Y-20959D01*
X11245Y-20959D01*
X11337Y-20921D01*
X11396Y-20862D01*
X11454Y-20921D01*
X11546Y-20959D01*
X11645Y-20959D01*
X11834Y-20959D01*
X11846Y-20988D01*
X11920Y-21063D01*
G54D10*
G36*
X13178Y-25354D02*
X12864Y-25354D01*
X12753Y-25376D01*
X12659Y-25439D01*
X12136Y-25962D01*
X12136Y-25915D01*
X11979Y-25535D01*
X11688Y-25243D01*
X11642Y-25224D01*
X11706Y-25161D01*
X12450Y-25161D01*
X12450Y-25161D01*
X12561Y-25139D01*
X12655Y-25076D01*
X12892Y-24838D01*
X12920Y-24833D01*
X12963Y-24804D01*
X12934Y-24847D01*
X12923Y-24900D01*
X12866Y-24957D01*
X12865Y-25031D01*
X12925Y-25053D01*
X12934Y-25100D01*
X13005Y-25207D01*
X13113Y-25278D01*
X13149Y-25286D01*
X13157Y-25322D01*
X13178Y-25354D01*
X13178Y-25354D01*
G37*
G54D34*
X13178Y-25354D02*
X12864Y-25354D01*
X12753Y-25376D01*
X12659Y-25439D01*
X12136Y-25962D01*
X12136Y-25915D01*
X11979Y-25535D01*
X11688Y-25243D01*
X11642Y-25224D01*
X11706Y-25161D01*
X12450Y-25161D01*
X12450Y-25161D01*
X12561Y-25139D01*
X12655Y-25076D01*
X12892Y-24838D01*
X12920Y-24833D01*
X12963Y-24804D01*
X12934Y-24847D01*
X12923Y-24900D01*
X12866Y-24957D01*
X12865Y-25031D01*
X12925Y-25053D01*
X12934Y-25100D01*
X13005Y-25207D01*
X13113Y-25278D01*
X13149Y-25286D01*
X13157Y-25322D01*
X13178Y-25354D01*
G54D10*
G36*
X14182Y-20863D02*
X13698Y-21346D01*
X13622Y-21460D01*
X13596Y-21594D01*
X13596Y-21779D01*
X13581Y-21794D01*
X13295Y-21794D01*
X13230Y-21806D01*
X13237Y-21802D01*
X13309Y-21695D01*
X13316Y-21658D01*
X13353Y-21651D01*
X13460Y-21579D01*
X13531Y-21472D01*
X13539Y-21435D01*
X13575Y-21428D01*
X13683Y-21357D01*
X13754Y-21249D01*
X13761Y-21213D01*
X13798Y-21205D01*
X13905Y-21134D01*
X13977Y-21027D01*
X13984Y-20990D01*
X14021Y-20983D01*
X14128Y-20911D01*
X14163Y-20859D01*
X14182Y-20863D01*
X14182Y-20863D01*
G37*
G54D34*
X14182Y-20863D02*
X13698Y-21346D01*
X13622Y-21460D01*
X13596Y-21594D01*
X13596Y-21779D01*
X13581Y-21794D01*
X13295Y-21794D01*
X13230Y-21806D01*
X13237Y-21802D01*
X13309Y-21695D01*
X13316Y-21658D01*
X13353Y-21651D01*
X13460Y-21579D01*
X13531Y-21472D01*
X13539Y-21435D01*
X13575Y-21428D01*
X13683Y-21357D01*
X13754Y-21249D01*
X13761Y-21213D01*
X13798Y-21205D01*
X13905Y-21134D01*
X13977Y-21027D01*
X13984Y-20990D01*
X14021Y-20983D01*
X14128Y-20911D01*
X14163Y-20859D01*
X14182Y-20863D01*
G54D10*
G36*
X16432Y-22262D02*
X16427Y-22267D01*
X16262Y-22267D01*
X16173Y-22177D01*
X16009Y-22109D01*
X15831Y-22109D01*
X15667Y-22177D01*
X15541Y-22302D01*
X15473Y-22467D01*
X15473Y-22644D01*
X15540Y-22809D01*
X15666Y-22934D01*
X15830Y-23003D01*
X15976Y-23003D01*
X15919Y-23027D01*
X15793Y-23152D01*
X15726Y-23313D01*
X15592Y-23369D01*
X15561Y-23400D01*
X15551Y-23389D01*
X15386Y-23321D01*
X15209Y-23321D01*
X15044Y-23389D01*
X14919Y-23514D01*
X14850Y-23679D01*
X14850Y-23789D01*
X14817Y-23739D01*
X14126Y-23048D01*
X14012Y-22972D01*
X13878Y-22945D01*
X13438Y-22945D01*
X13469Y-22925D01*
X13743Y-22651D01*
X13816Y-22651D01*
X13816Y-22651D01*
X13927Y-22629D01*
X14021Y-22567D01*
X14369Y-22219D01*
X14369Y-22219D01*
X14431Y-22125D01*
X14453Y-22014D01*
X14453Y-22014D01*
X14453Y-21941D01*
X15282Y-21112D01*
X15297Y-21134D01*
X15404Y-21205D01*
X15440Y-21213D01*
X15448Y-21249D01*
X15519Y-21357D01*
X15626Y-21428D01*
X15663Y-21435D01*
X15670Y-21472D01*
X15742Y-21579D01*
X15849Y-21651D01*
X15886Y-21658D01*
X15893Y-21695D01*
X15965Y-21802D01*
X16072Y-21874D01*
X16109Y-21881D01*
X16116Y-21918D01*
X16187Y-22025D01*
X16295Y-22096D01*
X16331Y-22104D01*
X16339Y-22140D01*
X16410Y-22247D01*
X16432Y-22262D01*
X16432Y-22262D01*
G37*
G54D34*
X16432Y-22262D02*
X16427Y-22267D01*
X16262Y-22267D01*
X16173Y-22177D01*
X16009Y-22109D01*
X15831Y-22109D01*
X15667Y-22177D01*
X15541Y-22302D01*
X15473Y-22467D01*
X15473Y-22644D01*
X15540Y-22809D01*
X15666Y-22934D01*
X15830Y-23003D01*
X15976Y-23003D01*
X15919Y-23027D01*
X15793Y-23152D01*
X15726Y-23313D01*
X15592Y-23369D01*
X15561Y-23400D01*
X15551Y-23389D01*
X15386Y-23321D01*
X15209Y-23321D01*
X15044Y-23389D01*
X14919Y-23514D01*
X14850Y-23679D01*
X14850Y-23789D01*
X14817Y-23739D01*
X14126Y-23048D01*
X14012Y-22972D01*
X13878Y-22945D01*
X13438Y-22945D01*
X13469Y-22925D01*
X13743Y-22651D01*
X13816Y-22651D01*
X13816Y-22651D01*
X13927Y-22629D01*
X14021Y-22567D01*
X14369Y-22219D01*
X14369Y-22219D01*
X14431Y-22125D01*
X14453Y-22014D01*
X14453Y-22014D01*
X14453Y-21941D01*
X15282Y-21112D01*
X15297Y-21134D01*
X15404Y-21205D01*
X15440Y-21213D01*
X15448Y-21249D01*
X15519Y-21357D01*
X15626Y-21428D01*
X15663Y-21435D01*
X15670Y-21472D01*
X15742Y-21579D01*
X15849Y-21651D01*
X15886Y-21658D01*
X15893Y-21695D01*
X15965Y-21802D01*
X16072Y-21874D01*
X16109Y-21881D01*
X16116Y-21918D01*
X16187Y-22025D01*
X16295Y-22096D01*
X16331Y-22104D01*
X16339Y-22140D01*
X16410Y-22247D01*
X16432Y-22262D01*
G54D10*
G36*
X16897Y-22720D02*
X16856Y-22748D01*
X16784Y-22855D01*
X16775Y-22901D01*
X16715Y-22924D01*
X16716Y-22997D01*
X16774Y-23055D01*
X16784Y-23107D01*
X16813Y-23151D01*
X16770Y-23122D01*
X16717Y-23111D01*
X16660Y-23054D01*
X16586Y-23052D01*
X16564Y-23112D01*
X16519Y-23121D01*
X16425Y-23027D01*
X16261Y-22959D01*
X16115Y-22959D01*
X16172Y-22935D01*
X16262Y-22845D01*
X16547Y-22845D01*
X16547Y-22845D01*
X16658Y-22823D01*
X16752Y-22760D01*
X16841Y-22671D01*
X16856Y-22693D01*
X16897Y-22720D01*
X16897Y-22720D01*
G37*
G54D34*
X16897Y-22720D02*
X16856Y-22748D01*
X16784Y-22855D01*
X16775Y-22901D01*
X16715Y-22924D01*
X16716Y-22997D01*
X16774Y-23055D01*
X16784Y-23107D01*
X16813Y-23151D01*
X16770Y-23122D01*
X16717Y-23111D01*
X16660Y-23054D01*
X16586Y-23052D01*
X16564Y-23112D01*
X16519Y-23121D01*
X16425Y-23027D01*
X16261Y-22959D01*
X16115Y-22959D01*
X16172Y-22935D01*
X16262Y-22845D01*
X16547Y-22845D01*
X16547Y-22845D01*
X16658Y-22823D01*
X16752Y-22760D01*
X16841Y-22671D01*
X16856Y-22693D01*
X16897Y-22720D01*
G54D10*
G36*
X20582Y-14571D02*
X12196Y-14571D01*
X12107Y-14482D01*
X11943Y-14414D01*
X11765Y-14413D01*
X11600Y-14481D01*
X11475Y-14607D01*
X11407Y-14771D01*
X11406Y-14949D01*
X11474Y-15113D01*
X11600Y-15239D01*
X11699Y-15280D01*
X8105Y-15280D01*
X7994Y-15302D01*
X7963Y-15323D01*
X7900Y-15365D01*
X7777Y-15488D01*
X7751Y-15426D01*
X7650Y-15392D01*
X7579Y-15463D01*
X7579Y-15321D01*
X7545Y-15220D01*
X7319Y-15138D01*
X7079Y-15148D01*
X6904Y-15220D01*
X6870Y-15321D01*
X7225Y-15676D01*
X7579Y-15321D01*
X7579Y-15463D01*
X7295Y-15746D01*
X7301Y-15752D01*
X7230Y-15823D01*
X7225Y-15817D01*
X7219Y-15823D01*
X7148Y-15752D01*
X7154Y-15746D01*
X6799Y-15392D01*
X6698Y-15426D01*
X6616Y-15652D01*
X6626Y-15892D01*
X6653Y-15957D01*
X4697Y-15957D01*
X4587Y-15979D01*
X4493Y-16042D01*
X3899Y-16635D01*
X3773Y-16635D01*
X3609Y-16703D01*
X3527Y-16785D01*
X2320Y-15578D01*
X2320Y-13762D01*
X2461Y-13820D01*
X2740Y-13821D01*
X2847Y-13776D01*
X3292Y-14221D01*
X3292Y-14221D01*
X3355Y-14263D01*
X3386Y-14284D01*
X3386Y-14284D01*
X3497Y-14306D01*
X3497Y-14306D01*
X9205Y-14306D01*
X9205Y-14306D01*
X9315Y-14284D01*
X9409Y-14221D01*
X9854Y-13776D01*
X9961Y-13820D01*
X10240Y-13821D01*
X10347Y-13776D01*
X10790Y-14218D01*
X10790Y-14218D01*
X10883Y-14281D01*
X10994Y-14303D01*
X16708Y-14303D01*
X16708Y-14303D01*
X16819Y-14281D01*
X16912Y-14218D01*
X17355Y-13776D01*
X17461Y-13820D01*
X17740Y-13821D01*
X17997Y-13714D01*
X18194Y-13518D01*
X18267Y-13341D01*
X18866Y-13341D01*
X18865Y-13456D01*
X18933Y-13620D01*
X19059Y-13746D01*
X19223Y-13814D01*
X19401Y-13814D01*
X19565Y-13746D01*
X19607Y-13704D01*
X19728Y-13825D01*
X19728Y-13825D01*
X19801Y-13874D01*
X19801Y-13945D01*
X19839Y-14037D01*
X19909Y-14107D01*
X20001Y-14146D01*
X20101Y-14146D01*
X20344Y-14146D01*
X20344Y-14262D01*
X20412Y-14427D01*
X20538Y-14553D01*
X20582Y-14571D01*
X20582Y-14571D01*
G37*
G54D34*
X20582Y-14571D02*
X12196Y-14571D01*
X12107Y-14482D01*
X11943Y-14414D01*
X11765Y-14413D01*
X11600Y-14481D01*
X11475Y-14607D01*
X11407Y-14771D01*
X11406Y-14949D01*
X11474Y-15113D01*
X11600Y-15239D01*
X11699Y-15280D01*
X8105Y-15280D01*
X7994Y-15302D01*
X7963Y-15323D01*
X7900Y-15365D01*
X7777Y-15488D01*
X7751Y-15426D01*
X7650Y-15392D01*
X7579Y-15463D01*
X7579Y-15321D01*
X7545Y-15220D01*
X7319Y-15138D01*
X7079Y-15148D01*
X6904Y-15220D01*
X6870Y-15321D01*
X7225Y-15676D01*
X7579Y-15321D01*
X7579Y-15463D01*
X7295Y-15746D01*
X7301Y-15752D01*
X7230Y-15823D01*
X7225Y-15817D01*
X7219Y-15823D01*
X7148Y-15752D01*
X7154Y-15746D01*
X6799Y-15392D01*
X6698Y-15426D01*
X6616Y-15652D01*
X6626Y-15892D01*
X6653Y-15957D01*
X4697Y-15957D01*
X4587Y-15979D01*
X4493Y-16042D01*
X3899Y-16635D01*
X3773Y-16635D01*
X3609Y-16703D01*
X3527Y-16785D01*
X2320Y-15578D01*
X2320Y-13762D01*
X2461Y-13820D01*
X2740Y-13821D01*
X2847Y-13776D01*
X3292Y-14221D01*
X3292Y-14221D01*
X3355Y-14263D01*
X3386Y-14284D01*
X3386Y-14284D01*
X3497Y-14306D01*
X3497Y-14306D01*
X9205Y-14306D01*
X9205Y-14306D01*
X9315Y-14284D01*
X9409Y-14221D01*
X9854Y-13776D01*
X9961Y-13820D01*
X10240Y-13821D01*
X10347Y-13776D01*
X10790Y-14218D01*
X10790Y-14218D01*
X10883Y-14281D01*
X10994Y-14303D01*
X16708Y-14303D01*
X16708Y-14303D01*
X16819Y-14281D01*
X16912Y-14218D01*
X17355Y-13776D01*
X17461Y-13820D01*
X17740Y-13821D01*
X17997Y-13714D01*
X18194Y-13518D01*
X18267Y-13341D01*
X18866Y-13341D01*
X18865Y-13456D01*
X18933Y-13620D01*
X19059Y-13746D01*
X19223Y-13814D01*
X19401Y-13814D01*
X19565Y-13746D01*
X19607Y-13704D01*
X19728Y-13825D01*
X19728Y-13825D01*
X19801Y-13874D01*
X19801Y-13945D01*
X19839Y-14037D01*
X19909Y-14107D01*
X20001Y-14146D01*
X20101Y-14146D01*
X20344Y-14146D01*
X20344Y-14262D01*
X20412Y-14427D01*
X20538Y-14553D01*
X20582Y-14571D01*
G54D10*
G36*
X22013Y-21093D02*
X22013Y-21163D01*
X22010Y-21163D01*
X21918Y-21201D01*
X21848Y-21272D01*
X21842Y-21284D01*
X21805Y-21247D01*
X21863Y-21188D01*
X21901Y-21096D01*
X21901Y-20997D01*
X21901Y-20981D01*
X22013Y-21093D01*
X22013Y-21093D01*
G37*
G54D34*
X22013Y-21093D02*
X22013Y-21163D01*
X22010Y-21163D01*
X21918Y-21201D01*
X21848Y-21272D01*
X21842Y-21284D01*
X21805Y-21247D01*
X21863Y-21188D01*
X21901Y-21096D01*
X21901Y-20997D01*
X21901Y-20981D01*
X22013Y-21093D01*
G54D10*
G36*
X22344Y-21739D02*
X22336Y-21739D01*
X22336Y-21746D01*
X22236Y-21746D01*
X22236Y-21739D01*
X21872Y-21739D01*
X21839Y-21772D01*
X21839Y-21772D01*
X21526Y-21772D01*
X21526Y-21779D01*
X21472Y-21779D01*
X21472Y-20714D01*
X21526Y-20714D01*
X21526Y-20722D01*
X21534Y-20722D01*
X21534Y-20822D01*
X21526Y-20822D01*
X21526Y-21234D01*
X21539Y-21247D01*
X21526Y-21259D01*
X21526Y-21672D01*
X21839Y-21672D01*
X21872Y-21638D01*
X21872Y-21639D01*
X22236Y-21639D01*
X22236Y-21631D01*
X22336Y-21631D01*
X22336Y-21639D01*
X22344Y-21639D01*
X22344Y-21739D01*
X22344Y-21739D01*
G37*
G54D34*
X22344Y-21739D02*
X22336Y-21739D01*
X22336Y-21746D01*
X22236Y-21746D01*
X22236Y-21739D01*
X21872Y-21739D01*
X21839Y-21772D01*
X21839Y-21772D01*
X21526Y-21772D01*
X21526Y-21779D01*
X21472Y-21779D01*
X21472Y-20714D01*
X21526Y-20714D01*
X21526Y-20722D01*
X21534Y-20722D01*
X21534Y-20822D01*
X21526Y-20822D01*
X21526Y-21234D01*
X21539Y-21247D01*
X21526Y-21259D01*
X21526Y-21672D01*
X21839Y-21672D01*
X21872Y-21638D01*
X21872Y-21639D01*
X22236Y-21639D01*
X22236Y-21631D01*
X22336Y-21631D01*
X22336Y-21639D01*
X22344Y-21639D01*
X22344Y-21739D01*
G54D10*
G36*
X22440Y-26122D02*
X22266Y-26194D01*
X21974Y-26485D01*
X21816Y-26865D01*
X21816Y-27277D01*
X21973Y-27657D01*
X22147Y-27831D01*
X21186Y-27831D01*
X21186Y-26005D01*
X21097Y-25789D01*
X20933Y-25625D01*
X20718Y-25535D01*
X20485Y-25535D01*
X20270Y-25624D01*
X20105Y-25789D01*
X20016Y-26003D01*
X20016Y-26236D01*
X20092Y-26420D01*
X19962Y-26420D01*
X19705Y-26527D01*
X19636Y-26595D01*
X19636Y-25915D01*
X19479Y-25535D01*
X19188Y-25243D01*
X18808Y-25086D01*
X18396Y-25085D01*
X18016Y-25242D01*
X17724Y-25533D01*
X17566Y-25914D01*
X17566Y-26325D01*
X17723Y-26706D01*
X18014Y-26997D01*
X18394Y-27155D01*
X18806Y-27156D01*
X19187Y-26998D01*
X19478Y-26707D01*
X19636Y-26327D01*
X19636Y-25915D01*
X19636Y-26595D01*
X19508Y-26723D01*
X19401Y-26981D01*
X19401Y-27259D01*
X19507Y-27516D01*
X19704Y-27713D01*
X19961Y-27820D01*
X20240Y-27820D01*
X20497Y-27714D01*
X20694Y-27517D01*
X20801Y-27260D01*
X20801Y-26982D01*
X20695Y-26724D01*
X20676Y-26705D01*
X20717Y-26705D01*
X20932Y-26617D01*
X21097Y-26452D01*
X21186Y-26237D01*
X21186Y-26005D01*
X21186Y-27831D01*
X18239Y-27831D01*
X18195Y-27724D01*
X17998Y-27527D01*
X17741Y-27420D01*
X17462Y-27420D01*
X17205Y-27527D01*
X17008Y-27723D01*
X16901Y-27981D01*
X16901Y-28259D01*
X16945Y-28367D01*
X16575Y-28737D01*
X13901Y-28737D01*
X13901Y-28296D01*
X13876Y-28236D01*
X14603Y-27509D01*
X14603Y-27509D01*
X14660Y-27424D01*
X14802Y-27424D01*
X14966Y-27356D01*
X14995Y-27327D01*
X15002Y-27327D01*
X15136Y-27300D01*
X15136Y-27300D01*
X15249Y-27224D01*
X16081Y-26393D01*
X16105Y-26451D01*
X16269Y-26616D01*
X16484Y-26705D01*
X16717Y-26705D01*
X16932Y-26617D01*
X17097Y-26452D01*
X17186Y-26237D01*
X17186Y-26005D01*
X17097Y-25789D01*
X16933Y-25625D01*
X16874Y-25600D01*
X17951Y-24523D01*
X17951Y-24523D01*
X17951Y-24523D01*
X18027Y-24409D01*
X18054Y-24275D01*
X18054Y-24275D01*
X18054Y-24275D01*
X18054Y-23596D01*
X18027Y-23462D01*
X17951Y-23348D01*
X17558Y-22956D01*
X17645Y-22956D01*
X17810Y-22888D01*
X17936Y-22762D01*
X17987Y-22638D01*
X18357Y-23007D01*
X18357Y-23133D01*
X18425Y-23298D01*
X18550Y-23423D01*
X18714Y-23492D01*
X18892Y-23492D01*
X19056Y-23424D01*
X19182Y-23298D01*
X19250Y-23134D01*
X19251Y-22956D01*
X19183Y-22792D01*
X19057Y-22666D01*
X18893Y-22598D01*
X18766Y-22598D01*
X18318Y-22150D01*
X18409Y-22059D01*
X18477Y-21895D01*
X18478Y-21768D01*
X19185Y-21061D01*
X20301Y-21061D01*
X20301Y-21096D01*
X20339Y-21188D01*
X20398Y-21247D01*
X20339Y-21305D01*
X20301Y-21397D01*
X20301Y-21496D01*
X20301Y-22046D01*
X20339Y-22138D01*
X20376Y-22175D01*
X20376Y-22175D01*
X20376Y-22657D01*
X20403Y-22791D01*
X20479Y-22904D01*
X21293Y-23719D01*
X21407Y-23795D01*
X21541Y-23822D01*
X21812Y-23822D01*
X21839Y-23888D01*
X21876Y-23925D01*
X21876Y-23925D01*
X21903Y-24059D01*
X21979Y-24173D01*
X22182Y-24377D01*
X21974Y-24585D01*
X21816Y-24965D01*
X21816Y-25377D01*
X21973Y-25757D01*
X22264Y-26048D01*
X22440Y-26122D01*
X22440Y-26122D01*
G37*
G54D34*
X22440Y-26122D02*
X22266Y-26194D01*
X21974Y-26485D01*
X21816Y-26865D01*
X21816Y-27277D01*
X21973Y-27657D01*
X22147Y-27831D01*
X21186Y-27831D01*
X21186Y-26005D01*
X21097Y-25789D01*
X20933Y-25625D01*
X20718Y-25535D01*
X20485Y-25535D01*
X20270Y-25624D01*
X20105Y-25789D01*
X20016Y-26003D01*
X20016Y-26236D01*
X20092Y-26420D01*
X19962Y-26420D01*
X19705Y-26527D01*
X19636Y-26595D01*
X19636Y-25915D01*
X19479Y-25535D01*
X19188Y-25243D01*
X18808Y-25086D01*
X18396Y-25085D01*
X18016Y-25242D01*
X17724Y-25533D01*
X17566Y-25914D01*
X17566Y-26325D01*
X17723Y-26706D01*
X18014Y-26997D01*
X18394Y-27155D01*
X18806Y-27156D01*
X19187Y-26998D01*
X19478Y-26707D01*
X19636Y-26327D01*
X19636Y-25915D01*
X19636Y-26595D01*
X19508Y-26723D01*
X19401Y-26981D01*
X19401Y-27259D01*
X19507Y-27516D01*
X19704Y-27713D01*
X19961Y-27820D01*
X20240Y-27820D01*
X20497Y-27714D01*
X20694Y-27517D01*
X20801Y-27260D01*
X20801Y-26982D01*
X20695Y-26724D01*
X20676Y-26705D01*
X20717Y-26705D01*
X20932Y-26617D01*
X21097Y-26452D01*
X21186Y-26237D01*
X21186Y-26005D01*
X21186Y-27831D01*
X18239Y-27831D01*
X18195Y-27724D01*
X17998Y-27527D01*
X17741Y-27420D01*
X17462Y-27420D01*
X17205Y-27527D01*
X17008Y-27723D01*
X16901Y-27981D01*
X16901Y-28259D01*
X16945Y-28367D01*
X16575Y-28737D01*
X13901Y-28737D01*
X13901Y-28296D01*
X13876Y-28236D01*
X14603Y-27509D01*
X14603Y-27509D01*
X14660Y-27424D01*
X14802Y-27424D01*
X14966Y-27356D01*
X14995Y-27327D01*
X15002Y-27327D01*
X15136Y-27300D01*
X15136Y-27300D01*
X15249Y-27224D01*
X16081Y-26393D01*
X16105Y-26451D01*
X16269Y-26616D01*
X16484Y-26705D01*
X16717Y-26705D01*
X16932Y-26617D01*
X17097Y-26452D01*
X17186Y-26237D01*
X17186Y-26005D01*
X17097Y-25789D01*
X16933Y-25625D01*
X16874Y-25600D01*
X17951Y-24523D01*
X17951Y-24523D01*
X17951Y-24523D01*
X18027Y-24409D01*
X18054Y-24275D01*
X18054Y-24275D01*
X18054Y-24275D01*
X18054Y-23596D01*
X18027Y-23462D01*
X17951Y-23348D01*
X17558Y-22956D01*
X17645Y-22956D01*
X17810Y-22888D01*
X17936Y-22762D01*
X17987Y-22638D01*
X18357Y-23007D01*
X18357Y-23133D01*
X18425Y-23298D01*
X18550Y-23423D01*
X18714Y-23492D01*
X18892Y-23492D01*
X19056Y-23424D01*
X19182Y-23298D01*
X19250Y-23134D01*
X19251Y-22956D01*
X19183Y-22792D01*
X19057Y-22666D01*
X18893Y-22598D01*
X18766Y-22598D01*
X18318Y-22150D01*
X18409Y-22059D01*
X18477Y-21895D01*
X18478Y-21768D01*
X19185Y-21061D01*
X20301Y-21061D01*
X20301Y-21096D01*
X20339Y-21188D01*
X20398Y-21247D01*
X20339Y-21305D01*
X20301Y-21397D01*
X20301Y-21496D01*
X20301Y-22046D01*
X20339Y-22138D01*
X20376Y-22175D01*
X20376Y-22175D01*
X20376Y-22657D01*
X20403Y-22791D01*
X20479Y-22904D01*
X21293Y-23719D01*
X21407Y-23795D01*
X21541Y-23822D01*
X21812Y-23822D01*
X21839Y-23888D01*
X21876Y-23925D01*
X21876Y-23925D01*
X21903Y-24059D01*
X21979Y-24173D01*
X22182Y-24377D01*
X21974Y-24585D01*
X21816Y-24965D01*
X21816Y-25377D01*
X21973Y-25757D01*
X22264Y-26048D01*
X22440Y-26122D01*
G54D10*
G36*
X22974Y-22605D02*
X22966Y-22605D01*
X22966Y-22612D01*
X22866Y-22612D01*
X22866Y-22605D01*
X22858Y-22605D01*
X22858Y-22505D01*
X22866Y-22505D01*
X22866Y-22497D01*
X22966Y-22497D01*
X22966Y-22505D01*
X22974Y-22505D01*
X22974Y-22605D01*
X22974Y-22605D01*
G37*
G54D34*
X22974Y-22605D02*
X22966Y-22605D01*
X22966Y-22612D01*
X22866Y-22612D01*
X22866Y-22605D01*
X22858Y-22605D01*
X22858Y-22505D01*
X22866Y-22505D01*
X22866Y-22497D01*
X22966Y-22497D01*
X22966Y-22505D01*
X22974Y-22505D01*
X22974Y-22605D01*
G54D10*
G36*
X23034Y-23522D02*
X23026Y-23522D01*
X23026Y-23529D01*
X22926Y-23529D01*
X22926Y-23522D01*
X22918Y-23522D01*
X22918Y-23422D01*
X22926Y-23422D01*
X22926Y-23414D01*
X23026Y-23414D01*
X23026Y-23422D01*
X23034Y-23422D01*
X23034Y-23522D01*
X23034Y-23522D01*
G37*
G54D34*
X23034Y-23522D02*
X23026Y-23522D01*
X23026Y-23529D01*
X22926Y-23529D01*
X22926Y-23522D01*
X22918Y-23522D01*
X22918Y-23422D01*
X22926Y-23422D01*
X22926Y-23414D01*
X23026Y-23414D01*
X23026Y-23422D01*
X23034Y-23422D01*
X23034Y-23522D01*
G54D10*
G36*
X23381Y-6803D02*
X20869Y-9315D01*
X18838Y-9315D01*
X18746Y-9333D01*
X18727Y-9337D01*
X18633Y-9400D01*
X17140Y-10893D01*
X17097Y-10790D01*
X16933Y-10625D01*
X16718Y-10536D01*
X16485Y-10535D01*
X16479Y-10538D01*
X16479Y-9298D01*
X16232Y-8700D01*
X15774Y-8241D01*
X15176Y-7993D01*
X14528Y-7992D01*
X13930Y-8240D01*
X13471Y-8697D01*
X13223Y-9295D01*
X13222Y-9943D01*
X13470Y-10542D01*
X13927Y-11000D01*
X14525Y-11248D01*
X15173Y-11249D01*
X15772Y-11002D01*
X16230Y-10544D01*
X16478Y-9946D01*
X16479Y-9298D01*
X16479Y-10538D01*
X16270Y-10624D01*
X16105Y-10789D01*
X16016Y-11004D01*
X16016Y-11236D01*
X16105Y-11452D01*
X16269Y-11616D01*
X16373Y-11659D01*
X14702Y-13331D01*
X14347Y-13331D01*
X14465Y-13214D01*
X14533Y-13050D01*
X14533Y-12872D01*
X14465Y-12708D01*
X14339Y-12582D01*
X14277Y-12556D01*
X13366Y-11644D01*
X13432Y-11617D01*
X13597Y-11452D01*
X13686Y-11237D01*
X13686Y-11005D01*
X13597Y-10790D01*
X13433Y-10625D01*
X13218Y-10536D01*
X12985Y-10535D01*
X12770Y-10624D01*
X12605Y-10789D01*
X12577Y-10856D01*
X8811Y-7089D01*
X8838Y-7062D01*
X8876Y-6971D01*
X8876Y-6871D01*
X8876Y-6578D01*
X9433Y-6578D01*
X9433Y-6578D01*
X9543Y-6556D01*
X9637Y-6493D01*
X9854Y-6276D01*
X9961Y-6320D01*
X10240Y-6321D01*
X10347Y-6276D01*
X10790Y-6718D01*
X10790Y-6718D01*
X10883Y-6781D01*
X10994Y-6803D01*
X11121Y-6803D01*
X11036Y-7008D01*
X11036Y-7232D01*
X11122Y-7440D01*
X11280Y-7599D01*
X11488Y-7685D01*
X11713Y-7686D01*
X11920Y-7600D01*
X12080Y-7441D01*
X12166Y-7233D01*
X12166Y-7009D01*
X12081Y-6803D01*
X14121Y-6803D01*
X14036Y-7008D01*
X14036Y-7232D01*
X14122Y-7440D01*
X14280Y-7599D01*
X14488Y-7685D01*
X14713Y-7686D01*
X14920Y-7600D01*
X15080Y-7441D01*
X15166Y-7233D01*
X15166Y-7009D01*
X15081Y-6803D01*
X16709Y-6803D01*
X16709Y-6803D01*
X16820Y-6781D01*
X16913Y-6718D01*
X17355Y-6277D01*
X17461Y-6321D01*
X17740Y-6322D01*
X17847Y-6277D01*
X18289Y-6718D01*
X18289Y-6718D01*
X18351Y-6760D01*
X18383Y-6781D01*
X18383Y-6781D01*
X18493Y-6803D01*
X18621Y-6803D01*
X18536Y-7008D01*
X18536Y-7232D01*
X18622Y-7440D01*
X18781Y-7599D01*
X18988Y-7685D01*
X19213Y-7686D01*
X19421Y-7600D01*
X19580Y-7441D01*
X19666Y-7233D01*
X19666Y-7009D01*
X19581Y-6803D01*
X21621Y-6803D01*
X21536Y-7008D01*
X21536Y-7232D01*
X21622Y-7440D01*
X21781Y-7599D01*
X21988Y-7685D01*
X22213Y-7686D01*
X22421Y-7600D01*
X22580Y-7441D01*
X22666Y-7233D01*
X22666Y-7009D01*
X22581Y-6803D01*
X23381Y-6803D01*
X23381Y-6803D01*
G37*
G54D34*
X23381Y-6803D02*
X20869Y-9315D01*
X18838Y-9315D01*
X18746Y-9333D01*
X18727Y-9337D01*
X18633Y-9400D01*
X17140Y-10893D01*
X17097Y-10790D01*
X16933Y-10625D01*
X16718Y-10536D01*
X16485Y-10535D01*
X16479Y-10538D01*
X16479Y-9298D01*
X16232Y-8700D01*
X15774Y-8241D01*
X15176Y-7993D01*
X14528Y-7992D01*
X13930Y-8240D01*
X13471Y-8697D01*
X13223Y-9295D01*
X13222Y-9943D01*
X13470Y-10542D01*
X13927Y-11000D01*
X14525Y-11248D01*
X15173Y-11249D01*
X15772Y-11002D01*
X16230Y-10544D01*
X16478Y-9946D01*
X16479Y-9298D01*
X16479Y-10538D01*
X16270Y-10624D01*
X16105Y-10789D01*
X16016Y-11004D01*
X16016Y-11236D01*
X16105Y-11452D01*
X16269Y-11616D01*
X16373Y-11659D01*
X14702Y-13331D01*
X14347Y-13331D01*
X14465Y-13214D01*
X14533Y-13050D01*
X14533Y-12872D01*
X14465Y-12708D01*
X14339Y-12582D01*
X14277Y-12556D01*
X13366Y-11644D01*
X13432Y-11617D01*
X13597Y-11452D01*
X13686Y-11237D01*
X13686Y-11005D01*
X13597Y-10790D01*
X13433Y-10625D01*
X13218Y-10536D01*
X12985Y-10535D01*
X12770Y-10624D01*
X12605Y-10789D01*
X12577Y-10856D01*
X8811Y-7089D01*
X8838Y-7062D01*
X8876Y-6971D01*
X8876Y-6871D01*
X8876Y-6578D01*
X9433Y-6578D01*
X9433Y-6578D01*
X9543Y-6556D01*
X9637Y-6493D01*
X9854Y-6276D01*
X9961Y-6320D01*
X10240Y-6321D01*
X10347Y-6276D01*
X10790Y-6718D01*
X10790Y-6718D01*
X10883Y-6781D01*
X10994Y-6803D01*
X11121Y-6803D01*
X11036Y-7008D01*
X11036Y-7232D01*
X11122Y-7440D01*
X11280Y-7599D01*
X11488Y-7685D01*
X11713Y-7686D01*
X11920Y-7600D01*
X12080Y-7441D01*
X12166Y-7233D01*
X12166Y-7009D01*
X12081Y-6803D01*
X14121Y-6803D01*
X14036Y-7008D01*
X14036Y-7232D01*
X14122Y-7440D01*
X14280Y-7599D01*
X14488Y-7685D01*
X14713Y-7686D01*
X14920Y-7600D01*
X15080Y-7441D01*
X15166Y-7233D01*
X15166Y-7009D01*
X15081Y-6803D01*
X16709Y-6803D01*
X16709Y-6803D01*
X16820Y-6781D01*
X16913Y-6718D01*
X17355Y-6277D01*
X17461Y-6321D01*
X17740Y-6322D01*
X17847Y-6277D01*
X18289Y-6718D01*
X18289Y-6718D01*
X18351Y-6760D01*
X18383Y-6781D01*
X18383Y-6781D01*
X18493Y-6803D01*
X18621Y-6803D01*
X18536Y-7008D01*
X18536Y-7232D01*
X18622Y-7440D01*
X18781Y-7599D01*
X18988Y-7685D01*
X19213Y-7686D01*
X19421Y-7600D01*
X19580Y-7441D01*
X19666Y-7233D01*
X19666Y-7009D01*
X19581Y-6803D01*
X21621Y-6803D01*
X21536Y-7008D01*
X21536Y-7232D01*
X21622Y-7440D01*
X21781Y-7599D01*
X21988Y-7685D01*
X22213Y-7686D01*
X22421Y-7600D01*
X22580Y-7441D01*
X22666Y-7233D01*
X22666Y-7009D01*
X22581Y-6803D01*
X23381Y-6803D01*
G54D10*
G36*
X23817Y-40606D02*
X23770Y-40625D01*
X23605Y-40790D01*
X23516Y-41005D01*
X23516Y-41237D01*
X23541Y-41297D01*
X23438Y-41195D01*
X23058Y-41037D01*
X22646Y-41036D01*
X22266Y-41194D01*
X21974Y-41485D01*
X21816Y-41865D01*
X21816Y-42277D01*
X21973Y-42657D01*
X22148Y-42832D01*
X20527Y-42832D01*
X18239Y-42832D01*
X18195Y-42726D01*
X17998Y-42528D01*
X17842Y-42464D01*
X17895Y-42411D01*
X19463Y-42411D01*
X19507Y-42518D01*
X19704Y-42715D01*
X19961Y-42821D01*
X20240Y-42822D01*
X20497Y-42715D01*
X20694Y-42519D01*
X20801Y-42261D01*
X20801Y-41983D01*
X20695Y-41726D01*
X20676Y-41707D01*
X20717Y-41707D01*
X20932Y-41618D01*
X21097Y-41453D01*
X21186Y-41238D01*
X21186Y-41006D01*
X21097Y-40791D01*
X20933Y-40626D01*
X20718Y-40537D01*
X20485Y-40536D01*
X20270Y-40625D01*
X20105Y-40790D01*
X20048Y-40928D01*
X20048Y-37232D01*
X19980Y-37068D01*
X19855Y-36942D01*
X19690Y-36874D01*
X19513Y-36873D01*
X19348Y-36941D01*
X19222Y-37067D01*
X19154Y-37231D01*
X19154Y-37409D01*
X19222Y-37573D01*
X19348Y-37699D01*
X19512Y-37767D01*
X19690Y-37767D01*
X19854Y-37699D01*
X19980Y-37574D01*
X20048Y-37410D01*
X20048Y-37232D01*
X20048Y-40928D01*
X20016Y-41005D01*
X20016Y-41237D01*
X20092Y-41422D01*
X19962Y-41421D01*
X19705Y-41528D01*
X19508Y-41725D01*
X19463Y-41832D01*
X19354Y-41832D01*
X19478Y-41709D01*
X19636Y-41328D01*
X19636Y-40917D01*
X19479Y-40536D01*
X19188Y-40245D01*
X18848Y-40103D01*
X18848Y-37232D01*
X18780Y-37068D01*
X18655Y-36942D01*
X18490Y-36874D01*
X18313Y-36873D01*
X18148Y-36941D01*
X18022Y-37067D01*
X17954Y-37231D01*
X17954Y-37409D01*
X18022Y-37573D01*
X18148Y-37699D01*
X18312Y-37767D01*
X18490Y-37767D01*
X18654Y-37699D01*
X18780Y-37574D01*
X18848Y-37410D01*
X18848Y-37232D01*
X18848Y-40103D01*
X18808Y-40087D01*
X18396Y-40086D01*
X18016Y-40244D01*
X17724Y-40535D01*
X17648Y-40718D01*
X17648Y-37232D01*
X17580Y-37068D01*
X17455Y-36942D01*
X17290Y-36874D01*
X17113Y-36873D01*
X16948Y-36941D01*
X16822Y-37067D01*
X16754Y-37231D01*
X16754Y-37409D01*
X16822Y-37573D01*
X16948Y-37699D01*
X17112Y-37767D01*
X17290Y-37767D01*
X17454Y-37699D01*
X17580Y-37574D01*
X17648Y-37410D01*
X17648Y-37232D01*
X17648Y-40718D01*
X17566Y-40915D01*
X17566Y-41327D01*
X17723Y-41707D01*
X17848Y-41832D01*
X17775Y-41832D01*
X17664Y-41854D01*
X17570Y-41917D01*
X17186Y-42301D01*
X17186Y-41006D01*
X17097Y-40791D01*
X16933Y-40626D01*
X16718Y-40537D01*
X16485Y-40536D01*
X16448Y-40552D01*
X16448Y-37232D01*
X16380Y-37068D01*
X16255Y-36942D01*
X16090Y-36874D01*
X15913Y-36873D01*
X15748Y-36941D01*
X15622Y-37067D01*
X15554Y-37231D01*
X15554Y-37409D01*
X15622Y-37573D01*
X15748Y-37699D01*
X15912Y-37767D01*
X16090Y-37767D01*
X16254Y-37699D01*
X16380Y-37574D01*
X16448Y-37410D01*
X16448Y-37232D01*
X16448Y-40552D01*
X16270Y-40625D01*
X16105Y-40790D01*
X16016Y-41005D01*
X16016Y-41237D01*
X16105Y-41452D01*
X16269Y-41617D01*
X16484Y-41706D01*
X16717Y-41707D01*
X16932Y-41618D01*
X17097Y-41453D01*
X17186Y-41238D01*
X17186Y-41006D01*
X17186Y-42301D01*
X16811Y-42677D01*
X16748Y-42771D01*
X16726Y-42881D01*
X16726Y-43349D01*
X16738Y-43408D01*
X16109Y-42779D01*
X16015Y-42716D01*
X15904Y-42694D01*
X13018Y-42694D01*
X13194Y-42519D01*
X13301Y-42261D01*
X13301Y-41983D01*
X13195Y-41726D01*
X13176Y-41707D01*
X13217Y-41707D01*
X13432Y-41618D01*
X13597Y-41453D01*
X13686Y-41238D01*
X13686Y-41006D01*
X13597Y-40791D01*
X13433Y-40626D01*
X13218Y-40537D01*
X12985Y-40536D01*
X12770Y-40625D01*
X12605Y-40790D01*
X12516Y-41005D01*
X12516Y-41237D01*
X12592Y-41422D01*
X12462Y-41421D01*
X12205Y-41528D01*
X12008Y-41725D01*
X11901Y-41982D01*
X11901Y-42260D01*
X12007Y-42518D01*
X12184Y-42694D01*
X10663Y-42694D01*
X10498Y-42528D01*
X10241Y-42422D01*
X9962Y-42421D01*
X9705Y-42528D01*
X9508Y-42725D01*
X9463Y-42832D01*
X9367Y-42832D01*
X10055Y-42144D01*
X10055Y-42144D01*
X10097Y-42081D01*
X10117Y-42050D01*
X10117Y-42050D01*
X10139Y-41939D01*
X10140Y-41939D01*
X10140Y-41505D01*
X10223Y-41707D01*
X10514Y-41998D01*
X10894Y-42156D01*
X11306Y-42157D01*
X11686Y-41999D01*
X11978Y-41709D01*
X12136Y-41328D01*
X12136Y-40917D01*
X11979Y-40536D01*
X11688Y-40245D01*
X11308Y-40087D01*
X11268Y-40087D01*
X11376Y-39978D01*
X11869Y-39978D01*
X11869Y-39978D01*
X11980Y-39956D01*
X12074Y-39894D01*
X14449Y-37519D01*
X14472Y-37574D01*
X14597Y-37700D01*
X14761Y-37768D01*
X14939Y-37768D01*
X15103Y-37701D01*
X15229Y-37575D01*
X15297Y-37411D01*
X15298Y-37233D01*
X15230Y-37069D01*
X15104Y-36943D01*
X14940Y-36875D01*
X14780Y-36875D01*
X14780Y-36661D01*
X15495Y-36661D01*
X15495Y-36661D01*
X15606Y-36639D01*
X15700Y-36576D01*
X16059Y-36217D01*
X16185Y-36217D01*
X16350Y-36149D01*
X16431Y-36068D01*
X17099Y-36736D01*
X17099Y-36736D01*
X17162Y-36778D01*
X17193Y-36799D01*
X17193Y-36799D01*
X17304Y-36821D01*
X17304Y-36821D01*
X20444Y-36821D01*
X20444Y-36821D01*
X20555Y-36799D01*
X20648Y-36736D01*
X20727Y-36658D01*
X20727Y-36658D01*
X20739Y-36640D01*
X20751Y-36645D01*
X20851Y-36645D01*
X20874Y-36645D01*
X20874Y-37542D01*
X20896Y-37653D01*
X20958Y-37747D01*
X23817Y-40606D01*
X23817Y-40606D01*
G37*
G54D34*
X23817Y-40606D02*
X23770Y-40625D01*
X23605Y-40790D01*
X23516Y-41005D01*
X23516Y-41237D01*
X23541Y-41297D01*
X23438Y-41195D01*
X23058Y-41037D01*
X22646Y-41036D01*
X22266Y-41194D01*
X21974Y-41485D01*
X21816Y-41865D01*
X21816Y-42277D01*
X21973Y-42657D01*
X22148Y-42832D01*
X20527Y-42832D01*
X18239Y-42832D01*
X18195Y-42726D01*
X17998Y-42528D01*
X17842Y-42464D01*
X17895Y-42411D01*
X19463Y-42411D01*
X19507Y-42518D01*
X19704Y-42715D01*
X19961Y-42821D01*
X20240Y-42822D01*
X20497Y-42715D01*
X20694Y-42519D01*
X20801Y-42261D01*
X20801Y-41983D01*
X20695Y-41726D01*
X20676Y-41707D01*
X20717Y-41707D01*
X20932Y-41618D01*
X21097Y-41453D01*
X21186Y-41238D01*
X21186Y-41006D01*
X21097Y-40791D01*
X20933Y-40626D01*
X20718Y-40537D01*
X20485Y-40536D01*
X20270Y-40625D01*
X20105Y-40790D01*
X20048Y-40928D01*
X20048Y-37232D01*
X19980Y-37068D01*
X19855Y-36942D01*
X19690Y-36874D01*
X19513Y-36873D01*
X19348Y-36941D01*
X19222Y-37067D01*
X19154Y-37231D01*
X19154Y-37409D01*
X19222Y-37573D01*
X19348Y-37699D01*
X19512Y-37767D01*
X19690Y-37767D01*
X19854Y-37699D01*
X19980Y-37574D01*
X20048Y-37410D01*
X20048Y-37232D01*
X20048Y-40928D01*
X20016Y-41005D01*
X20016Y-41237D01*
X20092Y-41422D01*
X19962Y-41421D01*
X19705Y-41528D01*
X19508Y-41725D01*
X19463Y-41832D01*
X19354Y-41832D01*
X19478Y-41709D01*
X19636Y-41328D01*
X19636Y-40917D01*
X19479Y-40536D01*
X19188Y-40245D01*
X18848Y-40103D01*
X18848Y-37232D01*
X18780Y-37068D01*
X18655Y-36942D01*
X18490Y-36874D01*
X18313Y-36873D01*
X18148Y-36941D01*
X18022Y-37067D01*
X17954Y-37231D01*
X17954Y-37409D01*
X18022Y-37573D01*
X18148Y-37699D01*
X18312Y-37767D01*
X18490Y-37767D01*
X18654Y-37699D01*
X18780Y-37574D01*
X18848Y-37410D01*
X18848Y-37232D01*
X18848Y-40103D01*
X18808Y-40087D01*
X18396Y-40086D01*
X18016Y-40244D01*
X17724Y-40535D01*
X17648Y-40718D01*
X17648Y-37232D01*
X17580Y-37068D01*
X17455Y-36942D01*
X17290Y-36874D01*
X17113Y-36873D01*
X16948Y-36941D01*
X16822Y-37067D01*
X16754Y-37231D01*
X16754Y-37409D01*
X16822Y-37573D01*
X16948Y-37699D01*
X17112Y-37767D01*
X17290Y-37767D01*
X17454Y-37699D01*
X17580Y-37574D01*
X17648Y-37410D01*
X17648Y-37232D01*
X17648Y-40718D01*
X17566Y-40915D01*
X17566Y-41327D01*
X17723Y-41707D01*
X17848Y-41832D01*
X17775Y-41832D01*
X17664Y-41854D01*
X17570Y-41917D01*
X17186Y-42301D01*
X17186Y-41006D01*
X17097Y-40791D01*
X16933Y-40626D01*
X16718Y-40537D01*
X16485Y-40536D01*
X16448Y-40552D01*
X16448Y-37232D01*
X16380Y-37068D01*
X16255Y-36942D01*
X16090Y-36874D01*
X15913Y-36873D01*
X15748Y-36941D01*
X15622Y-37067D01*
X15554Y-37231D01*
X15554Y-37409D01*
X15622Y-37573D01*
X15748Y-37699D01*
X15912Y-37767D01*
X16090Y-37767D01*
X16254Y-37699D01*
X16380Y-37574D01*
X16448Y-37410D01*
X16448Y-37232D01*
X16448Y-40552D01*
X16270Y-40625D01*
X16105Y-40790D01*
X16016Y-41005D01*
X16016Y-41237D01*
X16105Y-41452D01*
X16269Y-41617D01*
X16484Y-41706D01*
X16717Y-41707D01*
X16932Y-41618D01*
X17097Y-41453D01*
X17186Y-41238D01*
X17186Y-41006D01*
X17186Y-42301D01*
X16811Y-42677D01*
X16748Y-42771D01*
X16726Y-42881D01*
X16726Y-43349D01*
X16738Y-43408D01*
X16109Y-42779D01*
X16015Y-42716D01*
X15904Y-42694D01*
X13018Y-42694D01*
X13194Y-42519D01*
X13301Y-42261D01*
X13301Y-41983D01*
X13195Y-41726D01*
X13176Y-41707D01*
X13217Y-41707D01*
X13432Y-41618D01*
X13597Y-41453D01*
X13686Y-41238D01*
X13686Y-41006D01*
X13597Y-40791D01*
X13433Y-40626D01*
X13218Y-40537D01*
X12985Y-40536D01*
X12770Y-40625D01*
X12605Y-40790D01*
X12516Y-41005D01*
X12516Y-41237D01*
X12592Y-41422D01*
X12462Y-41421D01*
X12205Y-41528D01*
X12008Y-41725D01*
X11901Y-41982D01*
X11901Y-42260D01*
X12007Y-42518D01*
X12184Y-42694D01*
X10663Y-42694D01*
X10498Y-42528D01*
X10241Y-42422D01*
X9962Y-42421D01*
X9705Y-42528D01*
X9508Y-42725D01*
X9463Y-42832D01*
X9367Y-42832D01*
X10055Y-42144D01*
X10055Y-42144D01*
X10097Y-42081D01*
X10117Y-42050D01*
X10117Y-42050D01*
X10139Y-41939D01*
X10140Y-41939D01*
X10140Y-41505D01*
X10223Y-41707D01*
X10514Y-41998D01*
X10894Y-42156D01*
X11306Y-42157D01*
X11686Y-41999D01*
X11978Y-41709D01*
X12136Y-41328D01*
X12136Y-40917D01*
X11979Y-40536D01*
X11688Y-40245D01*
X11308Y-40087D01*
X11268Y-40087D01*
X11376Y-39978D01*
X11869Y-39978D01*
X11869Y-39978D01*
X11980Y-39956D01*
X12074Y-39894D01*
X14449Y-37519D01*
X14472Y-37574D01*
X14597Y-37700D01*
X14761Y-37768D01*
X14939Y-37768D01*
X15103Y-37701D01*
X15229Y-37575D01*
X15297Y-37411D01*
X15298Y-37233D01*
X15230Y-37069D01*
X15104Y-36943D01*
X14940Y-36875D01*
X14780Y-36875D01*
X14780Y-36661D01*
X15495Y-36661D01*
X15495Y-36661D01*
X15606Y-36639D01*
X15700Y-36576D01*
X16059Y-36217D01*
X16185Y-36217D01*
X16350Y-36149D01*
X16431Y-36068D01*
X17099Y-36736D01*
X17099Y-36736D01*
X17162Y-36778D01*
X17193Y-36799D01*
X17193Y-36799D01*
X17304Y-36821D01*
X17304Y-36821D01*
X20444Y-36821D01*
X20444Y-36821D01*
X20555Y-36799D01*
X20648Y-36736D01*
X20727Y-36658D01*
X20727Y-36658D01*
X20739Y-36640D01*
X20751Y-36645D01*
X20851Y-36645D01*
X20874Y-36645D01*
X20874Y-37542D01*
X20896Y-37653D01*
X20958Y-37747D01*
X23817Y-40606D01*
G54D10*
G36*
X25818Y-12356D02*
X25770Y-12375D01*
X25605Y-12540D01*
X25577Y-12608D01*
X25498Y-12528D01*
X25241Y-12422D01*
X24962Y-12421D01*
X24705Y-12528D01*
X24508Y-12725D01*
X24492Y-12763D01*
X20380Y-12763D01*
X20497Y-12714D01*
X20694Y-12518D01*
X20801Y-12260D01*
X20801Y-11982D01*
X20695Y-11725D01*
X20676Y-11706D01*
X20717Y-11706D01*
X20932Y-11617D01*
X21097Y-11452D01*
X21186Y-11237D01*
X21186Y-11005D01*
X21097Y-10790D01*
X20933Y-10625D01*
X20718Y-10536D01*
X20485Y-10535D01*
X20270Y-10624D01*
X20105Y-10789D01*
X20016Y-11004D01*
X20016Y-11236D01*
X20092Y-11421D01*
X19962Y-11420D01*
X19705Y-11527D01*
X19508Y-11724D01*
X19401Y-11981D01*
X19401Y-12259D01*
X19507Y-12517D01*
X19704Y-12714D01*
X19822Y-12763D01*
X18211Y-12763D01*
X18195Y-12725D01*
X17998Y-12527D01*
X17741Y-12421D01*
X17462Y-12420D01*
X17205Y-12527D01*
X17008Y-12724D01*
X16901Y-12981D01*
X16901Y-13259D01*
X16945Y-13367D01*
X16588Y-13724D01*
X15127Y-13724D01*
X17566Y-11285D01*
X17566Y-11326D01*
X17723Y-11706D01*
X18014Y-11997D01*
X18394Y-12155D01*
X18806Y-12156D01*
X19187Y-11999D01*
X19478Y-11708D01*
X19636Y-11327D01*
X19636Y-10916D01*
X19479Y-10535D01*
X19188Y-10244D01*
X18808Y-10086D01*
X18766Y-10086D01*
X18958Y-9894D01*
X20869Y-9894D01*
X23205Y-12229D01*
X23205Y-12229D01*
X23299Y-12292D01*
X23299Y-12292D01*
X23317Y-12296D01*
X23410Y-12314D01*
X25776Y-12314D01*
X25818Y-12356D01*
X25818Y-12356D01*
G37*
G54D34*
X25818Y-12356D02*
X25770Y-12375D01*
X25605Y-12540D01*
X25577Y-12608D01*
X25498Y-12528D01*
X25241Y-12422D01*
X24962Y-12421D01*
X24705Y-12528D01*
X24508Y-12725D01*
X24492Y-12763D01*
X20380Y-12763D01*
X20497Y-12714D01*
X20694Y-12518D01*
X20801Y-12260D01*
X20801Y-11982D01*
X20695Y-11725D01*
X20676Y-11706D01*
X20717Y-11706D01*
X20932Y-11617D01*
X21097Y-11452D01*
X21186Y-11237D01*
X21186Y-11005D01*
X21097Y-10790D01*
X20933Y-10625D01*
X20718Y-10536D01*
X20485Y-10535D01*
X20270Y-10624D01*
X20105Y-10789D01*
X20016Y-11004D01*
X20016Y-11236D01*
X20092Y-11421D01*
X19962Y-11420D01*
X19705Y-11527D01*
X19508Y-11724D01*
X19401Y-11981D01*
X19401Y-12259D01*
X19507Y-12517D01*
X19704Y-12714D01*
X19822Y-12763D01*
X18211Y-12763D01*
X18195Y-12725D01*
X17998Y-12527D01*
X17741Y-12421D01*
X17462Y-12420D01*
X17205Y-12527D01*
X17008Y-12724D01*
X16901Y-12981D01*
X16901Y-13259D01*
X16945Y-13367D01*
X16588Y-13724D01*
X15127Y-13724D01*
X17566Y-11285D01*
X17566Y-11326D01*
X17723Y-11706D01*
X18014Y-11997D01*
X18394Y-12155D01*
X18806Y-12156D01*
X19187Y-11999D01*
X19478Y-11708D01*
X19636Y-11327D01*
X19636Y-10916D01*
X19479Y-10535D01*
X19188Y-10244D01*
X18808Y-10086D01*
X18766Y-10086D01*
X18958Y-9894D01*
X20869Y-9894D01*
X23205Y-12229D01*
X23205Y-12229D01*
X23299Y-12292D01*
X23299Y-12292D01*
X23317Y-12296D01*
X23410Y-12314D01*
X25776Y-12314D01*
X25818Y-12356D01*
G54D10*
G36*
X25950Y-13836D02*
X25896Y-13836D01*
X25516Y-13994D01*
X25224Y-14285D01*
X25066Y-14665D01*
X25066Y-15077D01*
X25085Y-15123D01*
X24206Y-15123D01*
X24206Y-15003D01*
X24138Y-14838D01*
X24013Y-14712D01*
X23848Y-14644D01*
X23716Y-14644D01*
X23639Y-14593D01*
X23528Y-14571D01*
X21001Y-14571D01*
X21044Y-14553D01*
X21170Y-14427D01*
X21238Y-14263D01*
X21238Y-14133D01*
X21240Y-14129D01*
X21293Y-14108D01*
X21363Y-14037D01*
X21401Y-13946D01*
X21401Y-13846D01*
X21401Y-13341D01*
X24434Y-13341D01*
X24507Y-13518D01*
X24704Y-13715D01*
X24961Y-13821D01*
X25240Y-13822D01*
X25497Y-13715D01*
X25663Y-13550D01*
X25950Y-13836D01*
X25950Y-13836D01*
G37*
G54D34*
X25950Y-13836D02*
X25896Y-13836D01*
X25516Y-13994D01*
X25224Y-14285D01*
X25066Y-14665D01*
X25066Y-15077D01*
X25085Y-15123D01*
X24206Y-15123D01*
X24206Y-15003D01*
X24138Y-14838D01*
X24013Y-14712D01*
X23848Y-14644D01*
X23716Y-14644D01*
X23639Y-14593D01*
X23528Y-14571D01*
X21001Y-14571D01*
X21044Y-14553D01*
X21170Y-14427D01*
X21238Y-14263D01*
X21238Y-14133D01*
X21240Y-14129D01*
X21293Y-14108D01*
X21363Y-14037D01*
X21401Y-13946D01*
X21401Y-13846D01*
X21401Y-13341D01*
X24434Y-13341D01*
X24507Y-13518D01*
X24704Y-13715D01*
X24961Y-13821D01*
X25240Y-13822D01*
X25497Y-13715D01*
X25663Y-13550D01*
X25950Y-13836D01*
G54D10*
G36*
X29290Y-24433D02*
X29021Y-24322D01*
X28683Y-24321D01*
X28370Y-24451D01*
X28131Y-24689D01*
X28001Y-25002D01*
X28001Y-25340D01*
X28082Y-25537D01*
X27985Y-25536D01*
X27770Y-25625D01*
X27605Y-25790D01*
X27516Y-26005D01*
X27516Y-26237D01*
X27592Y-26422D01*
X27462Y-26421D01*
X27205Y-26528D01*
X27008Y-26725D01*
X26901Y-26982D01*
X26901Y-27260D01*
X27007Y-27518D01*
X27161Y-27672D01*
X26962Y-27671D01*
X26844Y-27721D01*
X26844Y-27684D01*
X26822Y-27573D01*
X26759Y-27479D01*
X26759Y-27479D01*
X26493Y-27214D01*
X26400Y-27151D01*
X26346Y-27140D01*
X26687Y-26999D01*
X26978Y-26709D01*
X27136Y-26328D01*
X27136Y-25917D01*
X26979Y-25536D01*
X26688Y-25245D01*
X26686Y-25244D01*
X26686Y-24256D01*
X26597Y-24041D01*
X26433Y-23876D01*
X26218Y-23787D01*
X25985Y-23786D01*
X25770Y-23875D01*
X25605Y-24040D01*
X25516Y-24255D01*
X25516Y-24487D01*
X25605Y-24702D01*
X25769Y-24867D01*
X25984Y-24956D01*
X26217Y-24957D01*
X26432Y-24868D01*
X26597Y-24703D01*
X26686Y-24488D01*
X26686Y-24256D01*
X26686Y-25244D01*
X26308Y-25087D01*
X25896Y-25086D01*
X25516Y-25244D01*
X25224Y-25535D01*
X25066Y-25915D01*
X25066Y-26327D01*
X25223Y-26707D01*
X25514Y-26998D01*
X25828Y-27129D01*
X25804Y-27129D01*
X25694Y-27151D01*
X25600Y-27214D01*
X25347Y-27466D01*
X25241Y-27422D01*
X24962Y-27421D01*
X24705Y-27528D01*
X24508Y-27725D01*
X24401Y-27982D01*
X24401Y-28210D01*
X24107Y-27916D01*
X24013Y-27853D01*
X23902Y-27831D01*
X23555Y-27831D01*
X23728Y-27659D01*
X23886Y-27278D01*
X23886Y-26867D01*
X23786Y-26624D01*
X23984Y-26706D01*
X24217Y-26707D01*
X24432Y-26618D01*
X24597Y-26453D01*
X24686Y-26238D01*
X24686Y-26006D01*
X24597Y-25791D01*
X24433Y-25626D01*
X24218Y-25537D01*
X23985Y-25536D01*
X23786Y-25619D01*
X23886Y-25378D01*
X23886Y-24967D01*
X23729Y-24586D01*
X23696Y-24553D01*
X24093Y-24553D01*
X24122Y-24581D01*
X24286Y-24650D01*
X24464Y-24650D01*
X24628Y-24582D01*
X24754Y-24456D01*
X24822Y-24292D01*
X24822Y-24114D01*
X24754Y-23950D01*
X24629Y-23824D01*
X24464Y-23756D01*
X24326Y-23756D01*
X24326Y-23621D01*
X24326Y-23509D01*
X24264Y-23447D01*
X23851Y-23447D01*
X23851Y-23759D01*
X23914Y-23822D01*
X24027Y-23822D01*
X24126Y-23822D01*
X24218Y-23783D01*
X24288Y-23713D01*
X24326Y-23621D01*
X24326Y-23756D01*
X24287Y-23756D01*
X24122Y-23824D01*
X24093Y-23853D01*
X23378Y-23853D01*
X23401Y-23796D01*
X23401Y-23790D01*
X23476Y-23822D01*
X23576Y-23822D01*
X23689Y-23822D01*
X23751Y-23759D01*
X23751Y-23447D01*
X23743Y-23447D01*
X23743Y-23347D01*
X23751Y-23347D01*
X23751Y-23339D01*
X23851Y-23339D01*
X23851Y-23347D01*
X24264Y-23347D01*
X24326Y-23284D01*
X24326Y-23172D01*
X24288Y-23080D01*
X24230Y-23022D01*
X24288Y-22963D01*
X24326Y-22871D01*
X24326Y-22772D01*
X24326Y-22422D01*
X24288Y-22330D01*
X24218Y-22260D01*
X24152Y-22232D01*
X24167Y-22195D01*
X24167Y-22054D01*
X24218Y-22034D01*
X24288Y-21963D01*
X24326Y-21871D01*
X24326Y-21772D01*
X24326Y-21422D01*
X24288Y-21330D01*
X24230Y-21272D01*
X24288Y-21213D01*
X24326Y-21121D01*
X24326Y-21009D01*
X24264Y-20947D01*
X23851Y-20947D01*
X23851Y-20954D01*
X23751Y-20954D01*
X23751Y-20947D01*
X23743Y-20947D01*
X23743Y-20880D01*
X24451Y-20880D01*
X24507Y-21018D01*
X24704Y-21215D01*
X24961Y-21321D01*
X25240Y-21322D01*
X25497Y-21215D01*
X25663Y-21050D01*
X25950Y-21336D01*
X25896Y-21336D01*
X25516Y-21494D01*
X25224Y-21785D01*
X25066Y-22165D01*
X25066Y-22577D01*
X25223Y-22957D01*
X25514Y-23248D01*
X25894Y-23406D01*
X26306Y-23407D01*
X26687Y-23249D01*
X26978Y-22959D01*
X27136Y-22578D01*
X27136Y-22523D01*
X27548Y-22935D01*
X27508Y-22975D01*
X27401Y-23232D01*
X27401Y-23510D01*
X27507Y-23768D01*
X27704Y-23965D01*
X27961Y-24071D01*
X28240Y-24072D01*
X28497Y-23965D01*
X28694Y-23769D01*
X28801Y-23511D01*
X28801Y-23233D01*
X28695Y-22976D01*
X28498Y-22778D01*
X28241Y-22672D01*
X28103Y-22672D01*
X27003Y-21571D01*
X27240Y-21572D01*
X27497Y-21465D01*
X27694Y-21269D01*
X27739Y-21161D01*
X27801Y-21161D01*
X27801Y-21196D01*
X27839Y-21288D01*
X27909Y-21358D01*
X28001Y-21397D01*
X28101Y-21397D01*
X28451Y-21397D01*
X28543Y-21359D01*
X28601Y-21300D01*
X28659Y-21358D01*
X28751Y-21397D01*
X28851Y-21397D01*
X29201Y-21397D01*
X29290Y-21360D01*
X29290Y-24433D01*
X29290Y-24433D01*
G37*
G54D34*
X29290Y-24433D02*
X29021Y-24322D01*
X28683Y-24321D01*
X28370Y-24451D01*
X28131Y-24689D01*
X28001Y-25002D01*
X28001Y-25340D01*
X28082Y-25537D01*
X27985Y-25536D01*
X27770Y-25625D01*
X27605Y-25790D01*
X27516Y-26005D01*
X27516Y-26237D01*
X27592Y-26422D01*
X27462Y-26421D01*
X27205Y-26528D01*
X27008Y-26725D01*
X26901Y-26982D01*
X26901Y-27260D01*
X27007Y-27518D01*
X27161Y-27672D01*
X26962Y-27671D01*
X26844Y-27721D01*
X26844Y-27684D01*
X26822Y-27573D01*
X26759Y-27479D01*
X26759Y-27479D01*
X26493Y-27214D01*
X26400Y-27151D01*
X26346Y-27140D01*
X26687Y-26999D01*
X26978Y-26709D01*
X27136Y-26328D01*
X27136Y-25917D01*
X26979Y-25536D01*
X26688Y-25245D01*
X26686Y-25244D01*
X26686Y-24256D01*
X26597Y-24041D01*
X26433Y-23876D01*
X26218Y-23787D01*
X25985Y-23786D01*
X25770Y-23875D01*
X25605Y-24040D01*
X25516Y-24255D01*
X25516Y-24487D01*
X25605Y-24702D01*
X25769Y-24867D01*
X25984Y-24956D01*
X26217Y-24957D01*
X26432Y-24868D01*
X26597Y-24703D01*
X26686Y-24488D01*
X26686Y-24256D01*
X26686Y-25244D01*
X26308Y-25087D01*
X25896Y-25086D01*
X25516Y-25244D01*
X25224Y-25535D01*
X25066Y-25915D01*
X25066Y-26327D01*
X25223Y-26707D01*
X25514Y-26998D01*
X25828Y-27129D01*
X25804Y-27129D01*
X25694Y-27151D01*
X25600Y-27214D01*
X25347Y-27466D01*
X25241Y-27422D01*
X24962Y-27421D01*
X24705Y-27528D01*
X24508Y-27725D01*
X24401Y-27982D01*
X24401Y-28210D01*
X24107Y-27916D01*
X24013Y-27853D01*
X23902Y-27831D01*
X23555Y-27831D01*
X23728Y-27659D01*
X23886Y-27278D01*
X23886Y-26867D01*
X23786Y-26624D01*
X23984Y-26706D01*
X24217Y-26707D01*
X24432Y-26618D01*
X24597Y-26453D01*
X24686Y-26238D01*
X24686Y-26006D01*
X24597Y-25791D01*
X24433Y-25626D01*
X24218Y-25537D01*
X23985Y-25536D01*
X23786Y-25619D01*
X23886Y-25378D01*
X23886Y-24967D01*
X23729Y-24586D01*
X23696Y-24553D01*
X24093Y-24553D01*
X24122Y-24581D01*
X24286Y-24650D01*
X24464Y-24650D01*
X24628Y-24582D01*
X24754Y-24456D01*
X24822Y-24292D01*
X24822Y-24114D01*
X24754Y-23950D01*
X24629Y-23824D01*
X24464Y-23756D01*
X24326Y-23756D01*
X24326Y-23621D01*
X24326Y-23509D01*
X24264Y-23447D01*
X23851Y-23447D01*
X23851Y-23759D01*
X23914Y-23822D01*
X24027Y-23822D01*
X24126Y-23822D01*
X24218Y-23783D01*
X24288Y-23713D01*
X24326Y-23621D01*
X24326Y-23756D01*
X24287Y-23756D01*
X24122Y-23824D01*
X24093Y-23853D01*
X23378Y-23853D01*
X23401Y-23796D01*
X23401Y-23790D01*
X23476Y-23822D01*
X23576Y-23822D01*
X23689Y-23822D01*
X23751Y-23759D01*
X23751Y-23447D01*
X23743Y-23447D01*
X23743Y-23347D01*
X23751Y-23347D01*
X23751Y-23339D01*
X23851Y-23339D01*
X23851Y-23347D01*
X24264Y-23347D01*
X24326Y-23284D01*
X24326Y-23172D01*
X24288Y-23080D01*
X24230Y-23022D01*
X24288Y-22963D01*
X24326Y-22871D01*
X24326Y-22772D01*
X24326Y-22422D01*
X24288Y-22330D01*
X24218Y-22260D01*
X24152Y-22232D01*
X24167Y-22195D01*
X24167Y-22054D01*
X24218Y-22034D01*
X24288Y-21963D01*
X24326Y-21871D01*
X24326Y-21772D01*
X24326Y-21422D01*
X24288Y-21330D01*
X24230Y-21272D01*
X24288Y-21213D01*
X24326Y-21121D01*
X24326Y-21009D01*
X24264Y-20947D01*
X23851Y-20947D01*
X23851Y-20954D01*
X23751Y-20954D01*
X23751Y-20947D01*
X23743Y-20947D01*
X23743Y-20880D01*
X24451Y-20880D01*
X24507Y-21018D01*
X24704Y-21215D01*
X24961Y-21321D01*
X25240Y-21322D01*
X25497Y-21215D01*
X25663Y-21050D01*
X25950Y-21336D01*
X25896Y-21336D01*
X25516Y-21494D01*
X25224Y-21785D01*
X25066Y-22165D01*
X25066Y-22577D01*
X25223Y-22957D01*
X25514Y-23248D01*
X25894Y-23406D01*
X26306Y-23407D01*
X26687Y-23249D01*
X26978Y-22959D01*
X27136Y-22578D01*
X27136Y-22523D01*
X27548Y-22935D01*
X27508Y-22975D01*
X27401Y-23232D01*
X27401Y-23510D01*
X27507Y-23768D01*
X27704Y-23965D01*
X27961Y-24071D01*
X28240Y-24072D01*
X28497Y-23965D01*
X28694Y-23769D01*
X28801Y-23511D01*
X28801Y-23233D01*
X28695Y-22976D01*
X28498Y-22778D01*
X28241Y-22672D01*
X28103Y-22672D01*
X27003Y-21571D01*
X27240Y-21572D01*
X27497Y-21465D01*
X27694Y-21269D01*
X27739Y-21161D01*
X27801Y-21161D01*
X27801Y-21196D01*
X27839Y-21288D01*
X27909Y-21358D01*
X28001Y-21397D01*
X28101Y-21397D01*
X28451Y-21397D01*
X28543Y-21359D01*
X28601Y-21300D01*
X28659Y-21358D01*
X28751Y-21397D01*
X28851Y-21397D01*
X29201Y-21397D01*
X29290Y-21360D01*
X29290Y-24433D01*
G54D10*
G36*
X29290Y-31933D02*
X29021Y-31822D01*
X28683Y-31821D01*
X28370Y-31951D01*
X28131Y-32189D01*
X28001Y-32502D01*
X28001Y-32840D01*
X28082Y-33037D01*
X27985Y-33036D01*
X27770Y-33125D01*
X27605Y-33290D01*
X27516Y-33505D01*
X27516Y-33737D01*
X27592Y-33922D01*
X27462Y-33921D01*
X27205Y-34028D01*
X27008Y-34225D01*
X26901Y-34482D01*
X26901Y-34760D01*
X27007Y-35018D01*
X27161Y-35172D01*
X26962Y-35171D01*
X26844Y-35221D01*
X26844Y-35184D01*
X26822Y-35073D01*
X26759Y-34979D01*
X26759Y-34979D01*
X26493Y-34714D01*
X26400Y-34651D01*
X26346Y-34640D01*
X26687Y-34499D01*
X26978Y-34209D01*
X27136Y-33828D01*
X27136Y-33417D01*
X26979Y-33036D01*
X26688Y-32745D01*
X26686Y-32744D01*
X26686Y-31756D01*
X26597Y-31541D01*
X26433Y-31376D01*
X26218Y-31287D01*
X25985Y-31286D01*
X25770Y-31375D01*
X25605Y-31540D01*
X25516Y-31755D01*
X25516Y-31987D01*
X25605Y-32202D01*
X25769Y-32367D01*
X25984Y-32456D01*
X26217Y-32457D01*
X26432Y-32368D01*
X26597Y-32203D01*
X26686Y-31988D01*
X26686Y-31756D01*
X26686Y-32744D01*
X26308Y-32587D01*
X25896Y-32586D01*
X25516Y-32744D01*
X25224Y-33035D01*
X25066Y-33415D01*
X25066Y-33827D01*
X25223Y-34207D01*
X25514Y-34498D01*
X25856Y-34640D01*
X25803Y-34651D01*
X25771Y-34672D01*
X25709Y-34714D01*
X25443Y-34979D01*
X25429Y-35000D01*
X25241Y-34922D01*
X24962Y-34921D01*
X24705Y-35028D01*
X24508Y-35225D01*
X24401Y-35482D01*
X24401Y-35710D01*
X24211Y-35520D01*
X24117Y-35457D01*
X24006Y-35435D01*
X23451Y-35435D01*
X23728Y-35159D01*
X23886Y-34778D01*
X23886Y-34367D01*
X23786Y-34124D01*
X23984Y-34206D01*
X24217Y-34207D01*
X24432Y-34118D01*
X24597Y-33953D01*
X24686Y-33738D01*
X24686Y-33506D01*
X24597Y-33291D01*
X24433Y-33126D01*
X24218Y-33037D01*
X23985Y-33036D01*
X23786Y-33119D01*
X23886Y-32878D01*
X23886Y-32467D01*
X23729Y-32086D01*
X23438Y-31795D01*
X23058Y-31637D01*
X22646Y-31636D01*
X22266Y-31794D01*
X21974Y-32085D01*
X21816Y-32465D01*
X21816Y-32877D01*
X21973Y-33257D01*
X22264Y-33548D01*
X22440Y-33622D01*
X22266Y-33694D01*
X21974Y-33985D01*
X21816Y-34365D01*
X21816Y-34777D01*
X21973Y-35157D01*
X22251Y-35435D01*
X20522Y-35435D01*
X18282Y-35435D01*
X18195Y-35224D01*
X17998Y-35027D01*
X17848Y-34965D01*
X17903Y-34910D01*
X19463Y-34910D01*
X19507Y-35016D01*
X19704Y-35213D01*
X19961Y-35320D01*
X20240Y-35320D01*
X20497Y-35214D01*
X20694Y-35017D01*
X20801Y-34760D01*
X20801Y-34482D01*
X20695Y-34224D01*
X20676Y-34205D01*
X20717Y-34205D01*
X20932Y-34117D01*
X21097Y-33952D01*
X21186Y-33737D01*
X21186Y-33505D01*
X21097Y-33289D01*
X20933Y-33125D01*
X20718Y-33035D01*
X20485Y-33035D01*
X20270Y-33124D01*
X20105Y-33289D01*
X20016Y-33503D01*
X20016Y-33736D01*
X20092Y-33920D01*
X19962Y-33920D01*
X19705Y-34027D01*
X19508Y-34223D01*
X19463Y-34331D01*
X19354Y-34331D01*
X19478Y-34207D01*
X19636Y-33827D01*
X19636Y-33415D01*
X19479Y-33035D01*
X19188Y-32743D01*
X18808Y-32586D01*
X18396Y-32585D01*
X18016Y-32742D01*
X17724Y-33033D01*
X17566Y-33414D01*
X17566Y-33825D01*
X17723Y-34206D01*
X17848Y-34331D01*
X17784Y-34331D01*
X17673Y-34353D01*
X17579Y-34416D01*
X17186Y-34809D01*
X17186Y-33505D01*
X17097Y-33289D01*
X16933Y-33125D01*
X16718Y-33035D01*
X16485Y-33035D01*
X16479Y-33038D01*
X16479Y-31798D01*
X16232Y-31199D01*
X15774Y-30741D01*
X15176Y-30493D01*
X14528Y-30492D01*
X13930Y-30739D01*
X13471Y-31197D01*
X13223Y-31795D01*
X13222Y-32443D01*
X13470Y-33041D01*
X13927Y-33500D01*
X14525Y-33748D01*
X15173Y-33749D01*
X15772Y-33501D01*
X16230Y-33044D01*
X16478Y-32446D01*
X16479Y-31798D01*
X16479Y-33038D01*
X16270Y-33124D01*
X16105Y-33289D01*
X16016Y-33503D01*
X16016Y-33736D01*
X16105Y-33951D01*
X16269Y-34116D01*
X16484Y-34205D01*
X16717Y-34205D01*
X16932Y-34117D01*
X17097Y-33952D01*
X17186Y-33737D01*
X17186Y-33505D01*
X17186Y-34809D01*
X16819Y-35176D01*
X16756Y-35270D01*
X16734Y-35380D01*
X16734Y-35553D01*
X16432Y-35250D01*
X16338Y-35188D01*
X16227Y-35166D01*
X13045Y-35166D01*
X13194Y-35017D01*
X13301Y-34760D01*
X13301Y-34482D01*
X13195Y-34224D01*
X13176Y-34205D01*
X13217Y-34205D01*
X13432Y-34117D01*
X13597Y-33952D01*
X13686Y-33737D01*
X13686Y-33505D01*
X13597Y-33289D01*
X13433Y-33125D01*
X13218Y-33035D01*
X12985Y-33035D01*
X12770Y-33124D01*
X12605Y-33289D01*
X12516Y-33503D01*
X12516Y-33736D01*
X12592Y-33920D01*
X12462Y-33920D01*
X12205Y-34027D01*
X12136Y-34095D01*
X12136Y-33415D01*
X11979Y-33035D01*
X11688Y-32743D01*
X11308Y-32586D01*
X10896Y-32585D01*
X10515Y-32742D01*
X10224Y-33033D01*
X10066Y-33414D01*
X10066Y-33825D01*
X10223Y-34206D01*
X10514Y-34497D01*
X10894Y-34655D01*
X11306Y-34656D01*
X11686Y-34498D01*
X11978Y-34207D01*
X12136Y-33827D01*
X12136Y-33415D01*
X12136Y-34095D01*
X12008Y-34223D01*
X11901Y-34481D01*
X11901Y-34759D01*
X12007Y-35016D01*
X12156Y-35166D01*
X10636Y-35166D01*
X10498Y-35027D01*
X10241Y-34920D01*
X9962Y-34920D01*
X9705Y-35027D01*
X9508Y-35223D01*
X9463Y-35332D01*
X6989Y-35332D01*
X6945Y-35226D01*
X6748Y-35028D01*
X6491Y-34922D01*
X6212Y-34921D01*
X5955Y-35028D01*
X5758Y-35225D01*
X5651Y-35482D01*
X5651Y-35760D01*
X5757Y-36018D01*
X5954Y-36215D01*
X6211Y-36321D01*
X6490Y-36322D01*
X6747Y-36215D01*
X6944Y-36019D01*
X6989Y-35911D01*
X9464Y-35911D01*
X9507Y-36016D01*
X9704Y-36213D01*
X9961Y-36320D01*
X10240Y-36320D01*
X10497Y-36214D01*
X10694Y-36017D01*
X10801Y-35760D01*
X10801Y-35744D01*
X11476Y-35744D01*
X11331Y-35889D01*
X11201Y-36202D01*
X11201Y-36540D01*
X11330Y-36852D01*
X11469Y-36992D01*
X11465Y-36994D01*
X11174Y-37285D01*
X11148Y-37348D01*
X11148Y-37232D01*
X11080Y-37068D01*
X10954Y-36942D01*
X10790Y-36874D01*
X10612Y-36873D01*
X10448Y-36941D01*
X10322Y-37067D01*
X10254Y-37231D01*
X10254Y-37409D01*
X10322Y-37573D01*
X10447Y-37699D01*
X10612Y-37767D01*
X10789Y-37767D01*
X10954Y-37699D01*
X11036Y-37618D01*
X11016Y-37665D01*
X11016Y-38077D01*
X11173Y-38457D01*
X11464Y-38748D01*
X11844Y-38906D01*
X12242Y-38907D01*
X11749Y-39400D01*
X11256Y-39400D01*
X11145Y-39422D01*
X11114Y-39442D01*
X11051Y-39484D01*
X9948Y-40588D01*
X9948Y-37232D01*
X9880Y-37068D01*
X9754Y-36942D01*
X9590Y-36874D01*
X9412Y-36873D01*
X9248Y-36941D01*
X9122Y-37067D01*
X9054Y-37231D01*
X9054Y-37409D01*
X9122Y-37573D01*
X9247Y-37699D01*
X9412Y-37767D01*
X9589Y-37767D01*
X9754Y-37699D01*
X9879Y-37574D01*
X9948Y-37410D01*
X9948Y-37232D01*
X9948Y-40588D01*
X9796Y-40740D01*
X9683Y-40626D01*
X9468Y-40537D01*
X9235Y-40536D01*
X9226Y-40540D01*
X9218Y-40537D01*
X8985Y-40536D01*
X8788Y-40618D01*
X8788Y-40350D01*
X8770Y-40257D01*
X8766Y-40239D01*
X8766Y-40239D01*
X8748Y-40212D01*
X8748Y-37232D01*
X8680Y-37068D01*
X8554Y-36942D01*
X8390Y-36874D01*
X8212Y-36873D01*
X8048Y-36941D01*
X7922Y-37067D01*
X7854Y-37231D01*
X7854Y-37409D01*
X7922Y-37573D01*
X8047Y-37699D01*
X8212Y-37767D01*
X8389Y-37767D01*
X8554Y-37699D01*
X8679Y-37574D01*
X8748Y-37410D01*
X8748Y-37232D01*
X8748Y-40212D01*
X8703Y-40145D01*
X8703Y-40145D01*
X7474Y-38916D01*
X7448Y-38898D01*
X7448Y-37232D01*
X7380Y-37068D01*
X7254Y-36942D01*
X7090Y-36874D01*
X6912Y-36873D01*
X6748Y-36941D01*
X6622Y-37067D01*
X6554Y-37231D01*
X6554Y-37409D01*
X6622Y-37573D01*
X6747Y-37699D01*
X6912Y-37767D01*
X7089Y-37767D01*
X7254Y-37699D01*
X7379Y-37574D01*
X7448Y-37410D01*
X7448Y-37232D01*
X7448Y-38898D01*
X7401Y-38867D01*
X7401Y-38796D01*
X7363Y-38704D01*
X7293Y-38634D01*
X7201Y-38595D01*
X7101Y-38595D01*
X6751Y-38595D01*
X6659Y-38633D01*
X6601Y-38692D01*
X6543Y-38634D01*
X6451Y-38595D01*
X6351Y-38595D01*
X6248Y-38595D01*
X6248Y-37232D01*
X6180Y-37068D01*
X6054Y-36942D01*
X5890Y-36874D01*
X5712Y-36873D01*
X5548Y-36941D01*
X5422Y-37067D01*
X5354Y-37231D01*
X5354Y-37409D01*
X5422Y-37573D01*
X5547Y-37699D01*
X5712Y-37767D01*
X5889Y-37767D01*
X6054Y-37699D01*
X6179Y-37574D01*
X6248Y-37410D01*
X6248Y-37232D01*
X6248Y-38595D01*
X6110Y-38595D01*
X4504Y-36989D01*
X4504Y-36570D01*
X4525Y-36570D01*
X5075Y-36570D01*
X5167Y-36532D01*
X5238Y-36462D01*
X5276Y-36370D01*
X5276Y-36271D01*
X5276Y-35921D01*
X5238Y-35829D01*
X5179Y-35770D01*
X5238Y-35712D01*
X5276Y-35620D01*
X5276Y-35521D01*
X5276Y-35171D01*
X5238Y-35079D01*
X5211Y-35052D01*
X5351Y-34911D01*
X8213Y-34911D01*
X8257Y-35018D01*
X8454Y-35215D01*
X8711Y-35321D01*
X8990Y-35322D01*
X9247Y-35215D01*
X9444Y-35019D01*
X9551Y-34761D01*
X9551Y-34483D01*
X9445Y-34226D01*
X9426Y-34207D01*
X9467Y-34207D01*
X9682Y-34118D01*
X9847Y-33953D01*
X9936Y-33738D01*
X9936Y-33506D01*
X9847Y-33291D01*
X9683Y-33126D01*
X9468Y-33037D01*
X9235Y-33036D01*
X9228Y-33040D01*
X9218Y-33035D01*
X8985Y-33035D01*
X8770Y-33124D01*
X8605Y-33289D01*
X8516Y-33503D01*
X8516Y-33736D01*
X8605Y-33951D01*
X8615Y-33962D01*
X8455Y-34028D01*
X8258Y-34225D01*
X8213Y-34332D01*
X8104Y-34332D01*
X8228Y-34209D01*
X8386Y-33828D01*
X8386Y-33417D01*
X8229Y-33036D01*
X7938Y-32745D01*
X7558Y-32587D01*
X7146Y-32586D01*
X6765Y-32744D01*
X6474Y-33035D01*
X6316Y-33415D01*
X6316Y-33827D01*
X6473Y-34207D01*
X6598Y-34332D01*
X6186Y-34332D01*
X6186Y-33505D01*
X6097Y-33289D01*
X5933Y-33125D01*
X5718Y-33035D01*
X5485Y-33035D01*
X5475Y-33040D01*
X5468Y-33037D01*
X5235Y-33036D01*
X5020Y-33125D01*
X4855Y-33290D01*
X4766Y-33505D01*
X4766Y-33737D01*
X4855Y-33952D01*
X5019Y-34117D01*
X5234Y-34206D01*
X5467Y-34207D01*
X5477Y-34202D01*
X5484Y-34205D01*
X5717Y-34205D01*
X5932Y-34117D01*
X6097Y-33952D01*
X6186Y-33737D01*
X6186Y-33505D01*
X6186Y-34332D01*
X5231Y-34332D01*
X5139Y-34351D01*
X5121Y-34354D01*
X5027Y-34417D01*
X4631Y-34813D01*
X3903Y-34813D01*
X3746Y-34655D01*
X3806Y-34656D01*
X4186Y-34498D01*
X4478Y-34207D01*
X4636Y-33827D01*
X4636Y-33415D01*
X4479Y-33035D01*
X4188Y-32743D01*
X3808Y-32586D01*
X3396Y-32585D01*
X3015Y-32742D01*
X2724Y-33033D01*
X2566Y-33414D01*
X2566Y-33476D01*
X2390Y-33300D01*
X2390Y-33258D01*
X2497Y-33214D01*
X2694Y-33017D01*
X2801Y-32760D01*
X2801Y-32482D01*
X2695Y-32224D01*
X2498Y-32027D01*
X2342Y-31963D01*
X2355Y-31950D01*
X2826Y-31950D01*
X2826Y-31950D01*
X2936Y-31928D01*
X3030Y-31865D01*
X3743Y-31153D01*
X3723Y-31254D01*
X3723Y-31836D01*
X3745Y-31947D01*
X3807Y-32041D01*
X4160Y-32393D01*
X4160Y-32393D01*
X4223Y-32435D01*
X4254Y-32456D01*
X4254Y-32456D01*
X4364Y-32478D01*
X4364Y-32478D01*
X4850Y-32478D01*
X4850Y-32478D01*
X4961Y-32456D01*
X5055Y-32393D01*
X9223Y-28225D01*
X9223Y-28336D01*
X9245Y-28447D01*
X9308Y-28541D01*
X10156Y-29389D01*
X10156Y-29389D01*
X10250Y-29452D01*
X10250Y-29452D01*
X10268Y-29455D01*
X10361Y-29474D01*
X11514Y-29474D01*
X11465Y-29494D01*
X11174Y-29785D01*
X11016Y-30165D01*
X11016Y-30577D01*
X11173Y-30957D01*
X11464Y-31248D01*
X11844Y-31406D01*
X12256Y-31407D01*
X12636Y-31249D01*
X12928Y-30959D01*
X13086Y-30578D01*
X13086Y-30167D01*
X12929Y-29786D01*
X12638Y-29495D01*
X12587Y-29474D01*
X20459Y-29474D01*
X20459Y-29474D01*
X20569Y-29452D01*
X20663Y-29389D01*
X20907Y-29145D01*
X21101Y-29145D01*
X21193Y-29107D01*
X21263Y-29037D01*
X21277Y-29003D01*
X21381Y-29003D01*
X21470Y-29093D01*
X21634Y-29161D01*
X21812Y-29161D01*
X21976Y-29093D01*
X22102Y-28967D01*
X22170Y-28803D01*
X22171Y-28625D01*
X22103Y-28461D01*
X22051Y-28410D01*
X23782Y-28410D01*
X24272Y-28900D01*
X24272Y-28900D01*
X24335Y-28941D01*
X24366Y-28962D01*
X24366Y-28962D01*
X24476Y-28984D01*
X24476Y-28984D01*
X25538Y-28984D01*
X25516Y-28994D01*
X25224Y-29285D01*
X25066Y-29665D01*
X25066Y-30077D01*
X25223Y-30457D01*
X25514Y-30748D01*
X25894Y-30906D01*
X26306Y-30907D01*
X26687Y-30749D01*
X26978Y-30459D01*
X27136Y-30078D01*
X27136Y-30023D01*
X27548Y-30435D01*
X27508Y-30475D01*
X27401Y-30732D01*
X27401Y-31010D01*
X27507Y-31268D01*
X27704Y-31465D01*
X27961Y-31571D01*
X28240Y-31572D01*
X28497Y-31465D01*
X28694Y-31269D01*
X28801Y-31011D01*
X28801Y-30733D01*
X28695Y-30476D01*
X28498Y-30278D01*
X28241Y-30172D01*
X28103Y-30172D01*
X27003Y-29071D01*
X27240Y-29072D01*
X27497Y-28965D01*
X27694Y-28769D01*
X27739Y-28661D01*
X27801Y-28661D01*
X27801Y-28696D01*
X27839Y-28788D01*
X27909Y-28858D01*
X28001Y-28897D01*
X28101Y-28897D01*
X28451Y-28897D01*
X28543Y-28859D01*
X28601Y-28800D01*
X28659Y-28858D01*
X28751Y-28897D01*
X28851Y-28897D01*
X29201Y-28897D01*
X29290Y-28860D01*
X29290Y-31933D01*
X29290Y-31933D01*
G37*
G54D34*
X29290Y-31933D02*
X29021Y-31822D01*
X28683Y-31821D01*
X28370Y-31951D01*
X28131Y-32189D01*
X28001Y-32502D01*
X28001Y-32840D01*
X28082Y-33037D01*
X27985Y-33036D01*
X27770Y-33125D01*
X27605Y-33290D01*
X27516Y-33505D01*
X27516Y-33737D01*
X27592Y-33922D01*
X27462Y-33921D01*
X27205Y-34028D01*
X27008Y-34225D01*
X26901Y-34482D01*
X26901Y-34760D01*
X27007Y-35018D01*
X27161Y-35172D01*
X26962Y-35171D01*
X26844Y-35221D01*
X26844Y-35184D01*
X26822Y-35073D01*
X26759Y-34979D01*
X26759Y-34979D01*
X26493Y-34714D01*
X26400Y-34651D01*
X26346Y-34640D01*
X26687Y-34499D01*
X26978Y-34209D01*
X27136Y-33828D01*
X27136Y-33417D01*
X26979Y-33036D01*
X26688Y-32745D01*
X26686Y-32744D01*
X26686Y-31756D01*
X26597Y-31541D01*
X26433Y-31376D01*
X26218Y-31287D01*
X25985Y-31286D01*
X25770Y-31375D01*
X25605Y-31540D01*
X25516Y-31755D01*
X25516Y-31987D01*
X25605Y-32202D01*
X25769Y-32367D01*
X25984Y-32456D01*
X26217Y-32457D01*
X26432Y-32368D01*
X26597Y-32203D01*
X26686Y-31988D01*
X26686Y-31756D01*
X26686Y-32744D01*
X26308Y-32587D01*
X25896Y-32586D01*
X25516Y-32744D01*
X25224Y-33035D01*
X25066Y-33415D01*
X25066Y-33827D01*
X25223Y-34207D01*
X25514Y-34498D01*
X25856Y-34640D01*
X25803Y-34651D01*
X25771Y-34672D01*
X25709Y-34714D01*
X25443Y-34979D01*
X25429Y-35000D01*
X25241Y-34922D01*
X24962Y-34921D01*
X24705Y-35028D01*
X24508Y-35225D01*
X24401Y-35482D01*
X24401Y-35710D01*
X24211Y-35520D01*
X24117Y-35457D01*
X24006Y-35435D01*
X23451Y-35435D01*
X23728Y-35159D01*
X23886Y-34778D01*
X23886Y-34367D01*
X23786Y-34124D01*
X23984Y-34206D01*
X24217Y-34207D01*
X24432Y-34118D01*
X24597Y-33953D01*
X24686Y-33738D01*
X24686Y-33506D01*
X24597Y-33291D01*
X24433Y-33126D01*
X24218Y-33037D01*
X23985Y-33036D01*
X23786Y-33119D01*
X23886Y-32878D01*
X23886Y-32467D01*
X23729Y-32086D01*
X23438Y-31795D01*
X23058Y-31637D01*
X22646Y-31636D01*
X22266Y-31794D01*
X21974Y-32085D01*
X21816Y-32465D01*
X21816Y-32877D01*
X21973Y-33257D01*
X22264Y-33548D01*
X22440Y-33622D01*
X22266Y-33694D01*
X21974Y-33985D01*
X21816Y-34365D01*
X21816Y-34777D01*
X21973Y-35157D01*
X22251Y-35435D01*
X20522Y-35435D01*
X18282Y-35435D01*
X18195Y-35224D01*
X17998Y-35027D01*
X17848Y-34965D01*
X17903Y-34910D01*
X19463Y-34910D01*
X19507Y-35016D01*
X19704Y-35213D01*
X19961Y-35320D01*
X20240Y-35320D01*
X20497Y-35214D01*
X20694Y-35017D01*
X20801Y-34760D01*
X20801Y-34482D01*
X20695Y-34224D01*
X20676Y-34205D01*
X20717Y-34205D01*
X20932Y-34117D01*
X21097Y-33952D01*
X21186Y-33737D01*
X21186Y-33505D01*
X21097Y-33289D01*
X20933Y-33125D01*
X20718Y-33035D01*
X20485Y-33035D01*
X20270Y-33124D01*
X20105Y-33289D01*
X20016Y-33503D01*
X20016Y-33736D01*
X20092Y-33920D01*
X19962Y-33920D01*
X19705Y-34027D01*
X19508Y-34223D01*
X19463Y-34331D01*
X19354Y-34331D01*
X19478Y-34207D01*
X19636Y-33827D01*
X19636Y-33415D01*
X19479Y-33035D01*
X19188Y-32743D01*
X18808Y-32586D01*
X18396Y-32585D01*
X18016Y-32742D01*
X17724Y-33033D01*
X17566Y-33414D01*
X17566Y-33825D01*
X17723Y-34206D01*
X17848Y-34331D01*
X17784Y-34331D01*
X17673Y-34353D01*
X17579Y-34416D01*
X17186Y-34809D01*
X17186Y-33505D01*
X17097Y-33289D01*
X16933Y-33125D01*
X16718Y-33035D01*
X16485Y-33035D01*
X16479Y-33038D01*
X16479Y-31798D01*
X16232Y-31199D01*
X15774Y-30741D01*
X15176Y-30493D01*
X14528Y-30492D01*
X13930Y-30739D01*
X13471Y-31197D01*
X13223Y-31795D01*
X13222Y-32443D01*
X13470Y-33041D01*
X13927Y-33500D01*
X14525Y-33748D01*
X15173Y-33749D01*
X15772Y-33501D01*
X16230Y-33044D01*
X16478Y-32446D01*
X16479Y-31798D01*
X16479Y-33038D01*
X16270Y-33124D01*
X16105Y-33289D01*
X16016Y-33503D01*
X16016Y-33736D01*
X16105Y-33951D01*
X16269Y-34116D01*
X16484Y-34205D01*
X16717Y-34205D01*
X16932Y-34117D01*
X17097Y-33952D01*
X17186Y-33737D01*
X17186Y-33505D01*
X17186Y-34809D01*
X16819Y-35176D01*
X16756Y-35270D01*
X16734Y-35380D01*
X16734Y-35553D01*
X16432Y-35250D01*
X16338Y-35188D01*
X16227Y-35166D01*
X13045Y-35166D01*
X13194Y-35017D01*
X13301Y-34760D01*
X13301Y-34482D01*
X13195Y-34224D01*
X13176Y-34205D01*
X13217Y-34205D01*
X13432Y-34117D01*
X13597Y-33952D01*
X13686Y-33737D01*
X13686Y-33505D01*
X13597Y-33289D01*
X13433Y-33125D01*
X13218Y-33035D01*
X12985Y-33035D01*
X12770Y-33124D01*
X12605Y-33289D01*
X12516Y-33503D01*
X12516Y-33736D01*
X12592Y-33920D01*
X12462Y-33920D01*
X12205Y-34027D01*
X12136Y-34095D01*
X12136Y-33415D01*
X11979Y-33035D01*
X11688Y-32743D01*
X11308Y-32586D01*
X10896Y-32585D01*
X10515Y-32742D01*
X10224Y-33033D01*
X10066Y-33414D01*
X10066Y-33825D01*
X10223Y-34206D01*
X10514Y-34497D01*
X10894Y-34655D01*
X11306Y-34656D01*
X11686Y-34498D01*
X11978Y-34207D01*
X12136Y-33827D01*
X12136Y-33415D01*
X12136Y-34095D01*
X12008Y-34223D01*
X11901Y-34481D01*
X11901Y-34759D01*
X12007Y-35016D01*
X12156Y-35166D01*
X10636Y-35166D01*
X10498Y-35027D01*
X10241Y-34920D01*
X9962Y-34920D01*
X9705Y-35027D01*
X9508Y-35223D01*
X9463Y-35332D01*
X6989Y-35332D01*
X6945Y-35226D01*
X6748Y-35028D01*
X6491Y-34922D01*
X6212Y-34921D01*
X5955Y-35028D01*
X5758Y-35225D01*
X5651Y-35482D01*
X5651Y-35760D01*
X5757Y-36018D01*
X5954Y-36215D01*
X6211Y-36321D01*
X6490Y-36322D01*
X6747Y-36215D01*
X6944Y-36019D01*
X6989Y-35911D01*
X9464Y-35911D01*
X9507Y-36016D01*
X9704Y-36213D01*
X9961Y-36320D01*
X10240Y-36320D01*
X10497Y-36214D01*
X10694Y-36017D01*
X10801Y-35760D01*
X10801Y-35744D01*
X11476Y-35744D01*
X11331Y-35889D01*
X11201Y-36202D01*
X11201Y-36540D01*
X11330Y-36852D01*
X11469Y-36992D01*
X11465Y-36994D01*
X11174Y-37285D01*
X11148Y-37348D01*
X11148Y-37232D01*
X11080Y-37068D01*
X10954Y-36942D01*
X10790Y-36874D01*
X10612Y-36873D01*
X10448Y-36941D01*
X10322Y-37067D01*
X10254Y-37231D01*
X10254Y-37409D01*
X10322Y-37573D01*
X10447Y-37699D01*
X10612Y-37767D01*
X10789Y-37767D01*
X10954Y-37699D01*
X11036Y-37618D01*
X11016Y-37665D01*
X11016Y-38077D01*
X11173Y-38457D01*
X11464Y-38748D01*
X11844Y-38906D01*
X12242Y-38907D01*
X11749Y-39400D01*
X11256Y-39400D01*
X11145Y-39422D01*
X11114Y-39442D01*
X11051Y-39484D01*
X9948Y-40588D01*
X9948Y-37232D01*
X9880Y-37068D01*
X9754Y-36942D01*
X9590Y-36874D01*
X9412Y-36873D01*
X9248Y-36941D01*
X9122Y-37067D01*
X9054Y-37231D01*
X9054Y-37409D01*
X9122Y-37573D01*
X9247Y-37699D01*
X9412Y-37767D01*
X9589Y-37767D01*
X9754Y-37699D01*
X9879Y-37574D01*
X9948Y-37410D01*
X9948Y-37232D01*
X9948Y-40588D01*
X9796Y-40740D01*
X9683Y-40626D01*
X9468Y-40537D01*
X9235Y-40536D01*
X9226Y-40540D01*
X9218Y-40537D01*
X8985Y-40536D01*
X8788Y-40618D01*
X8788Y-40350D01*
X8770Y-40257D01*
X8766Y-40239D01*
X8766Y-40239D01*
X8748Y-40212D01*
X8748Y-37232D01*
X8680Y-37068D01*
X8554Y-36942D01*
X8390Y-36874D01*
X8212Y-36873D01*
X8048Y-36941D01*
X7922Y-37067D01*
X7854Y-37231D01*
X7854Y-37409D01*
X7922Y-37573D01*
X8047Y-37699D01*
X8212Y-37767D01*
X8389Y-37767D01*
X8554Y-37699D01*
X8679Y-37574D01*
X8748Y-37410D01*
X8748Y-37232D01*
X8748Y-40212D01*
X8703Y-40145D01*
X8703Y-40145D01*
X7474Y-38916D01*
X7448Y-38898D01*
X7448Y-37232D01*
X7380Y-37068D01*
X7254Y-36942D01*
X7090Y-36874D01*
X6912Y-36873D01*
X6748Y-36941D01*
X6622Y-37067D01*
X6554Y-37231D01*
X6554Y-37409D01*
X6622Y-37573D01*
X6747Y-37699D01*
X6912Y-37767D01*
X7089Y-37767D01*
X7254Y-37699D01*
X7379Y-37574D01*
X7448Y-37410D01*
X7448Y-37232D01*
X7448Y-38898D01*
X7401Y-38867D01*
X7401Y-38796D01*
X7363Y-38704D01*
X7293Y-38634D01*
X7201Y-38595D01*
X7101Y-38595D01*
X6751Y-38595D01*
X6659Y-38633D01*
X6601Y-38692D01*
X6543Y-38634D01*
X6451Y-38595D01*
X6351Y-38595D01*
X6248Y-38595D01*
X6248Y-37232D01*
X6180Y-37068D01*
X6054Y-36942D01*
X5890Y-36874D01*
X5712Y-36873D01*
X5548Y-36941D01*
X5422Y-37067D01*
X5354Y-37231D01*
X5354Y-37409D01*
X5422Y-37573D01*
X5547Y-37699D01*
X5712Y-37767D01*
X5889Y-37767D01*
X6054Y-37699D01*
X6179Y-37574D01*
X6248Y-37410D01*
X6248Y-37232D01*
X6248Y-38595D01*
X6110Y-38595D01*
X4504Y-36989D01*
X4504Y-36570D01*
X4525Y-36570D01*
X5075Y-36570D01*
X5167Y-36532D01*
X5238Y-36462D01*
X5276Y-36370D01*
X5276Y-36271D01*
X5276Y-35921D01*
X5238Y-35829D01*
X5179Y-35770D01*
X5238Y-35712D01*
X5276Y-35620D01*
X5276Y-35521D01*
X5276Y-35171D01*
X5238Y-35079D01*
X5211Y-35052D01*
X5351Y-34911D01*
X8213Y-34911D01*
X8257Y-35018D01*
X8454Y-35215D01*
X8711Y-35321D01*
X8990Y-35322D01*
X9247Y-35215D01*
X9444Y-35019D01*
X9551Y-34761D01*
X9551Y-34483D01*
X9445Y-34226D01*
X9426Y-34207D01*
X9467Y-34207D01*
X9682Y-34118D01*
X9847Y-33953D01*
X9936Y-33738D01*
X9936Y-33506D01*
X9847Y-33291D01*
X9683Y-33126D01*
X9468Y-33037D01*
X9235Y-33036D01*
X9228Y-33040D01*
X9218Y-33035D01*
X8985Y-33035D01*
X8770Y-33124D01*
X8605Y-33289D01*
X8516Y-33503D01*
X8516Y-33736D01*
X8605Y-33951D01*
X8615Y-33962D01*
X8455Y-34028D01*
X8258Y-34225D01*
X8213Y-34332D01*
X8104Y-34332D01*
X8228Y-34209D01*
X8386Y-33828D01*
X8386Y-33417D01*
X8229Y-33036D01*
X7938Y-32745D01*
X7558Y-32587D01*
X7146Y-32586D01*
X6765Y-32744D01*
X6474Y-33035D01*
X6316Y-33415D01*
X6316Y-33827D01*
X6473Y-34207D01*
X6598Y-34332D01*
X6186Y-34332D01*
X6186Y-33505D01*
X6097Y-33289D01*
X5933Y-33125D01*
X5718Y-33035D01*
X5485Y-33035D01*
X5475Y-33040D01*
X5468Y-33037D01*
X5235Y-33036D01*
X5020Y-33125D01*
X4855Y-33290D01*
X4766Y-33505D01*
X4766Y-33737D01*
X4855Y-33952D01*
X5019Y-34117D01*
X5234Y-34206D01*
X5467Y-34207D01*
X5477Y-34202D01*
X5484Y-34205D01*
X5717Y-34205D01*
X5932Y-34117D01*
X6097Y-33952D01*
X6186Y-33737D01*
X6186Y-33505D01*
X6186Y-34332D01*
X5231Y-34332D01*
X5139Y-34351D01*
X5121Y-34354D01*
X5027Y-34417D01*
X4631Y-34813D01*
X3903Y-34813D01*
X3746Y-34655D01*
X3806Y-34656D01*
X4186Y-34498D01*
X4478Y-34207D01*
X4636Y-33827D01*
X4636Y-33415D01*
X4479Y-33035D01*
X4188Y-32743D01*
X3808Y-32586D01*
X3396Y-32585D01*
X3015Y-32742D01*
X2724Y-33033D01*
X2566Y-33414D01*
X2566Y-33476D01*
X2390Y-33300D01*
X2390Y-33258D01*
X2497Y-33214D01*
X2694Y-33017D01*
X2801Y-32760D01*
X2801Y-32482D01*
X2695Y-32224D01*
X2498Y-32027D01*
X2342Y-31963D01*
X2355Y-31950D01*
X2826Y-31950D01*
X2826Y-31950D01*
X2936Y-31928D01*
X3030Y-31865D01*
X3743Y-31153D01*
X3723Y-31254D01*
X3723Y-31836D01*
X3745Y-31947D01*
X3807Y-32041D01*
X4160Y-32393D01*
X4160Y-32393D01*
X4223Y-32435D01*
X4254Y-32456D01*
X4254Y-32456D01*
X4364Y-32478D01*
X4364Y-32478D01*
X4850Y-32478D01*
X4850Y-32478D01*
X4961Y-32456D01*
X5055Y-32393D01*
X9223Y-28225D01*
X9223Y-28336D01*
X9245Y-28447D01*
X9308Y-28541D01*
X10156Y-29389D01*
X10156Y-29389D01*
X10250Y-29452D01*
X10250Y-29452D01*
X10268Y-29455D01*
X10361Y-29474D01*
X11514Y-29474D01*
X11465Y-29494D01*
X11174Y-29785D01*
X11016Y-30165D01*
X11016Y-30577D01*
X11173Y-30957D01*
X11464Y-31248D01*
X11844Y-31406D01*
X12256Y-31407D01*
X12636Y-31249D01*
X12928Y-30959D01*
X13086Y-30578D01*
X13086Y-30167D01*
X12929Y-29786D01*
X12638Y-29495D01*
X12587Y-29474D01*
X20459Y-29474D01*
X20459Y-29474D01*
X20569Y-29452D01*
X20663Y-29389D01*
X20907Y-29145D01*
X21101Y-29145D01*
X21193Y-29107D01*
X21263Y-29037D01*
X21277Y-29003D01*
X21381Y-29003D01*
X21470Y-29093D01*
X21634Y-29161D01*
X21812Y-29161D01*
X21976Y-29093D01*
X22102Y-28967D01*
X22170Y-28803D01*
X22171Y-28625D01*
X22103Y-28461D01*
X22051Y-28410D01*
X23782Y-28410D01*
X24272Y-28900D01*
X24272Y-28900D01*
X24335Y-28941D01*
X24366Y-28962D01*
X24366Y-28962D01*
X24476Y-28984D01*
X24476Y-28984D01*
X25538Y-28984D01*
X25516Y-28994D01*
X25224Y-29285D01*
X25066Y-29665D01*
X25066Y-30077D01*
X25223Y-30457D01*
X25514Y-30748D01*
X25894Y-30906D01*
X26306Y-30907D01*
X26687Y-30749D01*
X26978Y-30459D01*
X27136Y-30078D01*
X27136Y-30023D01*
X27548Y-30435D01*
X27508Y-30475D01*
X27401Y-30732D01*
X27401Y-31010D01*
X27507Y-31268D01*
X27704Y-31465D01*
X27961Y-31571D01*
X28240Y-31572D01*
X28497Y-31465D01*
X28694Y-31269D01*
X28801Y-31011D01*
X28801Y-30733D01*
X28695Y-30476D01*
X28498Y-30278D01*
X28241Y-30172D01*
X28103Y-30172D01*
X27003Y-29071D01*
X27240Y-29072D01*
X27497Y-28965D01*
X27694Y-28769D01*
X27739Y-28661D01*
X27801Y-28661D01*
X27801Y-28696D01*
X27839Y-28788D01*
X27909Y-28858D01*
X28001Y-28897D01*
X28101Y-28897D01*
X28451Y-28897D01*
X28543Y-28859D01*
X28601Y-28800D01*
X28659Y-28858D01*
X28751Y-28897D01*
X28851Y-28897D01*
X29201Y-28897D01*
X29290Y-28860D01*
X29290Y-31933D01*
G54D10*
G36*
X29431Y-6373D02*
X28974Y-5916D01*
X28901Y-5867D01*
X28901Y-5796D01*
X28863Y-5704D01*
X28793Y-5634D01*
X28701Y-5596D01*
X28602Y-5596D01*
X28252Y-5596D01*
X28160Y-5633D01*
X28101Y-5692D01*
X28043Y-5634D01*
X28015Y-5622D01*
X28015Y-5197D01*
X28194Y-5019D01*
X28301Y-4761D01*
X28301Y-4483D01*
X28195Y-4226D01*
X28176Y-4207D01*
X28217Y-4207D01*
X28432Y-4118D01*
X28597Y-3953D01*
X28686Y-3738D01*
X28686Y-3506D01*
X28597Y-3291D01*
X28433Y-3126D01*
X28218Y-3037D01*
X27985Y-3036D01*
X27770Y-3125D01*
X27605Y-3290D01*
X27516Y-3505D01*
X27516Y-3737D01*
X27592Y-3922D01*
X27462Y-3921D01*
X27205Y-4028D01*
X27136Y-4096D01*
X27136Y-3417D01*
X26979Y-3036D01*
X26688Y-2745D01*
X26308Y-2587D01*
X25896Y-2586D01*
X25516Y-2744D01*
X25224Y-3035D01*
X25066Y-3415D01*
X25066Y-3827D01*
X25223Y-4207D01*
X25514Y-4498D01*
X25894Y-4656D01*
X26306Y-4657D01*
X26687Y-4499D01*
X26978Y-4209D01*
X27136Y-3828D01*
X27136Y-3417D01*
X27136Y-4096D01*
X27008Y-4225D01*
X26901Y-4482D01*
X26901Y-4760D01*
X27007Y-5018D01*
X27204Y-5215D01*
X27437Y-5311D01*
X27437Y-5622D01*
X27410Y-5633D01*
X27339Y-5704D01*
X27301Y-5796D01*
X27301Y-5895D01*
X27301Y-6445D01*
X27339Y-6537D01*
X27409Y-6607D01*
X27501Y-6646D01*
X27601Y-6646D01*
X27951Y-6646D01*
X28043Y-6608D01*
X28101Y-6549D01*
X28159Y-6607D01*
X28251Y-6646D01*
X28351Y-6646D01*
X28701Y-6646D01*
X28793Y-6608D01*
X28820Y-6580D01*
X29290Y-7050D01*
X29290Y-9433D01*
X29021Y-9322D01*
X28683Y-9321D01*
X28370Y-9451D01*
X28131Y-9689D01*
X28001Y-10002D01*
X28001Y-10340D01*
X28082Y-10537D01*
X27985Y-10536D01*
X27770Y-10625D01*
X27666Y-10729D01*
X27666Y-7009D01*
X27580Y-6801D01*
X27422Y-6642D01*
X27214Y-6556D01*
X26989Y-6556D01*
X26781Y-6641D01*
X26622Y-6800D01*
X26536Y-7008D01*
X26536Y-7232D01*
X26622Y-7440D01*
X26781Y-7599D01*
X26988Y-7685D01*
X27213Y-7686D01*
X27421Y-7600D01*
X27580Y-7441D01*
X27666Y-7233D01*
X27666Y-7009D01*
X27666Y-10729D01*
X27605Y-10790D01*
X27516Y-11005D01*
X27516Y-11237D01*
X27592Y-11422D01*
X27462Y-11421D01*
X27205Y-11528D01*
X27008Y-11725D01*
X26901Y-11982D01*
X26901Y-12260D01*
X27007Y-12518D01*
X27161Y-12672D01*
X26962Y-12671D01*
X26867Y-12711D01*
X26867Y-12706D01*
X26845Y-12595D01*
X26782Y-12501D01*
X26782Y-12501D01*
X26399Y-12118D01*
X26687Y-11999D01*
X26978Y-11709D01*
X27136Y-11328D01*
X27136Y-10917D01*
X26979Y-10536D01*
X26688Y-10245D01*
X26308Y-10087D01*
X25896Y-10086D01*
X25516Y-10244D01*
X25224Y-10535D01*
X25066Y-10915D01*
X25066Y-11327D01*
X25223Y-11707D01*
X25252Y-11735D01*
X23530Y-11735D01*
X23001Y-11207D01*
X23056Y-11207D01*
X23437Y-11049D01*
X23541Y-10946D01*
X23516Y-11005D01*
X23516Y-11237D01*
X23605Y-11452D01*
X23769Y-11617D01*
X23984Y-11706D01*
X24217Y-11707D01*
X24432Y-11618D01*
X24597Y-11453D01*
X24686Y-11238D01*
X24686Y-11006D01*
X24597Y-10791D01*
X24433Y-10626D01*
X24218Y-10537D01*
X23985Y-10536D01*
X23786Y-10619D01*
X23886Y-10378D01*
X23886Y-9967D01*
X23729Y-9586D01*
X23438Y-9295D01*
X23058Y-9137D01*
X22646Y-9136D01*
X22266Y-9294D01*
X21974Y-9585D01*
X21816Y-9965D01*
X21816Y-10022D01*
X21398Y-9604D01*
X23604Y-7398D01*
X23622Y-7440D01*
X23781Y-7599D01*
X23988Y-7685D01*
X24213Y-7686D01*
X24421Y-7600D01*
X24580Y-7441D01*
X24666Y-7233D01*
X24666Y-7009D01*
X24646Y-6961D01*
X24864Y-6961D01*
X24864Y-6961D01*
X24975Y-6939D01*
X25069Y-6876D01*
X25881Y-6063D01*
X25881Y-6063D01*
X25944Y-5969D01*
X25944Y-5969D01*
X25948Y-5951D01*
X25966Y-5859D01*
X25966Y-5859D01*
X25966Y-5387D01*
X25944Y-5276D01*
X25881Y-5183D01*
X25881Y-5183D01*
X25225Y-4526D01*
X25131Y-4463D01*
X25020Y-4441D01*
X24686Y-4441D01*
X24686Y-3506D01*
X24597Y-3291D01*
X24433Y-3126D01*
X24218Y-3037D01*
X23985Y-3036D01*
X23770Y-3125D01*
X23605Y-3290D01*
X23516Y-3505D01*
X23516Y-3737D01*
X23605Y-3952D01*
X23769Y-4117D01*
X23984Y-4206D01*
X24217Y-4207D01*
X24432Y-4118D01*
X24597Y-3953D01*
X24686Y-3738D01*
X24686Y-3506D01*
X24686Y-4441D01*
X21133Y-4441D01*
X20846Y-4153D01*
X20932Y-4118D01*
X21097Y-3953D01*
X21186Y-3738D01*
X21186Y-3506D01*
X21097Y-3291D01*
X20933Y-3126D01*
X20718Y-3037D01*
X20485Y-3036D01*
X20270Y-3125D01*
X20105Y-3290D01*
X20016Y-3505D01*
X20016Y-3737D01*
X20026Y-3763D01*
X19636Y-3763D01*
X19636Y-3417D01*
X19479Y-3036D01*
X19188Y-2745D01*
X18808Y-2587D01*
X18396Y-2586D01*
X18016Y-2744D01*
X17724Y-3035D01*
X17566Y-3415D01*
X17566Y-3827D01*
X17723Y-4207D01*
X17957Y-4441D01*
X17514Y-4441D01*
X17403Y-4463D01*
X17309Y-4526D01*
X17186Y-4648D01*
X17186Y-3506D01*
X17097Y-3291D01*
X16933Y-3126D01*
X16718Y-3037D01*
X16485Y-3036D01*
X16270Y-3125D01*
X16105Y-3290D01*
X16016Y-3505D01*
X16016Y-3737D01*
X16105Y-3952D01*
X16269Y-4117D01*
X16484Y-4206D01*
X16717Y-4207D01*
X16932Y-4118D01*
X17097Y-3953D01*
X17186Y-3738D01*
X17186Y-3506D01*
X17186Y-4648D01*
X16085Y-5750D01*
X16085Y-4713D01*
X16047Y-4621D01*
X15976Y-4550D01*
X15884Y-4512D01*
X15785Y-4512D01*
X15391Y-4512D01*
X15299Y-4550D01*
X15229Y-4620D01*
X15191Y-4712D01*
X15191Y-4812D01*
X15191Y-5831D01*
X14511Y-5831D01*
X14511Y-4713D01*
X14473Y-4621D01*
X14402Y-4550D01*
X14310Y-4512D01*
X14211Y-4512D01*
X13817Y-4512D01*
X13725Y-4550D01*
X13655Y-4620D01*
X13617Y-4712D01*
X13617Y-4812D01*
X13617Y-5623D01*
X13551Y-5596D01*
X13451Y-5596D01*
X13101Y-5596D01*
X13009Y-5633D01*
X12951Y-5692D01*
X12893Y-5634D01*
X12865Y-5622D01*
X12865Y-5269D01*
X12997Y-5214D01*
X13194Y-5018D01*
X13301Y-4760D01*
X13301Y-4482D01*
X13195Y-4225D01*
X13176Y-4206D01*
X13217Y-4206D01*
X13432Y-4117D01*
X13597Y-3952D01*
X13686Y-3737D01*
X13686Y-3505D01*
X13597Y-3290D01*
X13433Y-3125D01*
X13218Y-3036D01*
X12985Y-3035D01*
X12770Y-3124D01*
X12605Y-3289D01*
X12516Y-3504D01*
X12516Y-3736D01*
X12592Y-3921D01*
X12462Y-3920D01*
X12205Y-4027D01*
X12008Y-4224D01*
X11901Y-4481D01*
X11901Y-4759D01*
X12007Y-5017D01*
X12204Y-5214D01*
X12287Y-5248D01*
X12287Y-5622D01*
X12259Y-5633D01*
X12189Y-5704D01*
X12151Y-5796D01*
X12151Y-5895D01*
X12151Y-6224D01*
X11114Y-6224D01*
X10757Y-5867D01*
X10801Y-5760D01*
X10801Y-5482D01*
X10695Y-5225D01*
X10498Y-5027D01*
X10241Y-4921D01*
X9962Y-4920D01*
X9705Y-5027D01*
X9508Y-5224D01*
X9401Y-5481D01*
X9401Y-5759D01*
X9445Y-5867D01*
X9313Y-6000D01*
X8876Y-6000D01*
X8876Y-5771D01*
X8838Y-5679D01*
X8768Y-5609D01*
X8676Y-5571D01*
X8640Y-5571D01*
X8640Y-5418D01*
X8618Y-5307D01*
X8555Y-5213D01*
X8555Y-5213D01*
X8533Y-5191D01*
X8533Y-5065D01*
X8465Y-4900D01*
X8340Y-4774D01*
X8175Y-4706D01*
X7998Y-4706D01*
X7833Y-4774D01*
X7708Y-4900D01*
X7651Y-5036D01*
X7639Y-5064D01*
X7639Y-5242D01*
X7707Y-5406D01*
X7833Y-5532D01*
X7976Y-5591D01*
X7934Y-5608D01*
X7864Y-5679D01*
X7851Y-5710D01*
X7838Y-5679D01*
X7768Y-5609D01*
X7676Y-5571D01*
X7604Y-5571D01*
X7555Y-5498D01*
X7462Y-5435D01*
X7412Y-5425D01*
X7412Y-5421D01*
X7344Y-5256D01*
X7233Y-5146D01*
X7276Y-5146D01*
X7276Y-5083D01*
X7338Y-5146D01*
X7450Y-5146D01*
X7542Y-5108D01*
X7613Y-5037D01*
X7651Y-4946D01*
X7651Y-4846D01*
X7651Y-4733D01*
X7588Y-4671D01*
X7276Y-4671D01*
X7276Y-4678D01*
X7176Y-4678D01*
X7176Y-4671D01*
X7168Y-4671D01*
X7168Y-4571D01*
X7176Y-4571D01*
X7176Y-4563D01*
X7276Y-4563D01*
X7276Y-4571D01*
X7588Y-4571D01*
X7651Y-4508D01*
X7651Y-4506D01*
X9299Y-4506D01*
X9433Y-4479D01*
X9433Y-4479D01*
X9547Y-4404D01*
X10083Y-3867D01*
X10223Y-4206D01*
X10514Y-4497D01*
X10894Y-4655D01*
X11306Y-4656D01*
X11686Y-4499D01*
X11978Y-4208D01*
X12136Y-3827D01*
X12136Y-3416D01*
X11979Y-3035D01*
X11974Y-3030D01*
X16488Y-3030D01*
X16622Y-3003D01*
X16622Y-3003D01*
X16735Y-2927D01*
X17503Y-2160D01*
X17514Y-2187D01*
X17584Y-2257D01*
X17676Y-2296D01*
X17776Y-2296D01*
X18526Y-2296D01*
X18618Y-2258D01*
X18688Y-2187D01*
X18702Y-2154D01*
X18862Y-2261D01*
X19101Y-2309D01*
X19340Y-2261D01*
X19543Y-2126D01*
X19678Y-1923D01*
X19726Y-1684D01*
X19726Y-1557D01*
X19687Y-1361D01*
X24293Y-1361D01*
X24800Y-1868D01*
X24913Y-1944D01*
X24913Y-1944D01*
X24976Y-1956D01*
X24976Y-2095D01*
X25014Y-2187D01*
X25084Y-2257D01*
X25176Y-2296D01*
X25276Y-2296D01*
X26026Y-2296D01*
X26118Y-2258D01*
X26188Y-2187D01*
X26202Y-2154D01*
X26362Y-2261D01*
X26601Y-2309D01*
X26840Y-2261D01*
X27043Y-2126D01*
X27178Y-1923D01*
X27226Y-1684D01*
X27226Y-1557D01*
X27178Y-1318D01*
X27043Y-1115D01*
X26840Y-980D01*
X26601Y-932D01*
X26362Y-980D01*
X26202Y-1087D01*
X26188Y-1054D01*
X26118Y-984D01*
X26026Y-946D01*
X25927Y-946D01*
X25177Y-946D01*
X25085Y-983D01*
X25014Y-1054D01*
X25003Y-1081D01*
X24685Y-764D01*
X24572Y-688D01*
X24438Y-661D01*
X18710Y-661D01*
X18576Y-688D01*
X18463Y-764D01*
X18281Y-946D01*
X17677Y-946D01*
X17585Y-983D01*
X17514Y-1054D01*
X17476Y-1146D01*
X17476Y-1245D01*
X17476Y-1285D01*
X17413Y-1297D01*
X17300Y-1373D01*
X16343Y-2330D01*
X16085Y-2330D01*
X16085Y-1209D01*
X16047Y-1117D01*
X15976Y-1047D01*
X15884Y-1008D01*
X15785Y-1008D01*
X15391Y-1008D01*
X15299Y-1046D01*
X15229Y-1117D01*
X15191Y-1208D01*
X15191Y-1308D01*
X15191Y-1579D01*
X14917Y-1579D01*
X14806Y-1601D01*
X14775Y-1622D01*
X14712Y-1664D01*
X14593Y-1783D01*
X14483Y-1783D01*
X14510Y-1756D01*
X14510Y-1209D01*
X14472Y-1117D01*
X14401Y-1047D01*
X14309Y-1008D01*
X14210Y-1008D01*
X14175Y-1008D01*
X14113Y-1071D01*
X14113Y-1819D01*
X14121Y-1819D01*
X14121Y-1919D01*
X14113Y-1919D01*
X14113Y-1926D01*
X14013Y-1926D01*
X14013Y-1919D01*
X14013Y-1819D01*
X14013Y-1071D01*
X13950Y-1008D01*
X13915Y-1008D01*
X13816Y-1008D01*
X13724Y-1047D01*
X13654Y-1117D01*
X13616Y-1209D01*
X13616Y-1756D01*
X13678Y-1819D01*
X14013Y-1819D01*
X14013Y-1919D01*
X13678Y-1919D01*
X13616Y-1981D01*
X13616Y-2330D01*
X11921Y-2330D01*
X11804Y-2307D01*
X11612Y-2307D01*
X11840Y-2261D01*
X12043Y-2126D01*
X12178Y-1923D01*
X12226Y-1684D01*
X12226Y-1557D01*
X12178Y-1318D01*
X12043Y-1115D01*
X11840Y-980D01*
X11601Y-932D01*
X11362Y-980D01*
X11202Y-1087D01*
X11188Y-1054D01*
X11118Y-984D01*
X11026Y-946D01*
X10926Y-946D01*
X10176Y-946D01*
X10084Y-983D01*
X10014Y-1054D01*
X9976Y-1146D01*
X9976Y-1245D01*
X9976Y-1285D01*
X9913Y-1297D01*
X9800Y-1373D01*
X9757Y-1436D01*
X9757Y-240D01*
X28923Y-240D01*
X28899Y-313D01*
X28911Y-491D01*
X28955Y-596D01*
X29040Y-611D01*
X29280Y-371D01*
X29274Y-365D01*
X29345Y-294D01*
X29351Y-300D01*
X29356Y-294D01*
X29427Y-365D01*
X29421Y-371D01*
X29427Y-376D01*
X29356Y-447D01*
X29351Y-441D01*
X29110Y-682D01*
X29125Y-766D01*
X29294Y-823D01*
X29431Y-813D01*
X29431Y-6373D01*
X29431Y-6373D01*
G37*
G54D34*
X29431Y-6373D02*
X28974Y-5916D01*
X28901Y-5867D01*
X28901Y-5796D01*
X28863Y-5704D01*
X28793Y-5634D01*
X28701Y-5596D01*
X28602Y-5596D01*
X28252Y-5596D01*
X28160Y-5633D01*
X28101Y-5692D01*
X28043Y-5634D01*
X28015Y-5622D01*
X28015Y-5197D01*
X28194Y-5019D01*
X28301Y-4761D01*
X28301Y-4483D01*
X28195Y-4226D01*
X28176Y-4207D01*
X28217Y-4207D01*
X28432Y-4118D01*
X28597Y-3953D01*
X28686Y-3738D01*
X28686Y-3506D01*
X28597Y-3291D01*
X28433Y-3126D01*
X28218Y-3037D01*
X27985Y-3036D01*
X27770Y-3125D01*
X27605Y-3290D01*
X27516Y-3505D01*
X27516Y-3737D01*
X27592Y-3922D01*
X27462Y-3921D01*
X27205Y-4028D01*
X27136Y-4096D01*
X27136Y-3417D01*
X26979Y-3036D01*
X26688Y-2745D01*
X26308Y-2587D01*
X25896Y-2586D01*
X25516Y-2744D01*
X25224Y-3035D01*
X25066Y-3415D01*
X25066Y-3827D01*
X25223Y-4207D01*
X25514Y-4498D01*
X25894Y-4656D01*
X26306Y-4657D01*
X26687Y-4499D01*
X26978Y-4209D01*
X27136Y-3828D01*
X27136Y-3417D01*
X27136Y-4096D01*
X27008Y-4225D01*
X26901Y-4482D01*
X26901Y-4760D01*
X27007Y-5018D01*
X27204Y-5215D01*
X27437Y-5311D01*
X27437Y-5622D01*
X27410Y-5633D01*
X27339Y-5704D01*
X27301Y-5796D01*
X27301Y-5895D01*
X27301Y-6445D01*
X27339Y-6537D01*
X27409Y-6607D01*
X27501Y-6646D01*
X27601Y-6646D01*
X27951Y-6646D01*
X28043Y-6608D01*
X28101Y-6549D01*
X28159Y-6607D01*
X28251Y-6646D01*
X28351Y-6646D01*
X28701Y-6646D01*
X28793Y-6608D01*
X28820Y-6580D01*
X29290Y-7050D01*
X29290Y-9433D01*
X29021Y-9322D01*
X28683Y-9321D01*
X28370Y-9451D01*
X28131Y-9689D01*
X28001Y-10002D01*
X28001Y-10340D01*
X28082Y-10537D01*
X27985Y-10536D01*
X27770Y-10625D01*
X27666Y-10729D01*
X27666Y-7009D01*
X27580Y-6801D01*
X27422Y-6642D01*
X27214Y-6556D01*
X26989Y-6556D01*
X26781Y-6641D01*
X26622Y-6800D01*
X26536Y-7008D01*
X26536Y-7232D01*
X26622Y-7440D01*
X26781Y-7599D01*
X26988Y-7685D01*
X27213Y-7686D01*
X27421Y-7600D01*
X27580Y-7441D01*
X27666Y-7233D01*
X27666Y-7009D01*
X27666Y-10729D01*
X27605Y-10790D01*
X27516Y-11005D01*
X27516Y-11237D01*
X27592Y-11422D01*
X27462Y-11421D01*
X27205Y-11528D01*
X27008Y-11725D01*
X26901Y-11982D01*
X26901Y-12260D01*
X27007Y-12518D01*
X27161Y-12672D01*
X26962Y-12671D01*
X26867Y-12711D01*
X26867Y-12706D01*
X26845Y-12595D01*
X26782Y-12501D01*
X26782Y-12501D01*
X26399Y-12118D01*
X26687Y-11999D01*
X26978Y-11709D01*
X27136Y-11328D01*
X27136Y-10917D01*
X26979Y-10536D01*
X26688Y-10245D01*
X26308Y-10087D01*
X25896Y-10086D01*
X25516Y-10244D01*
X25224Y-10535D01*
X25066Y-10915D01*
X25066Y-11327D01*
X25223Y-11707D01*
X25252Y-11735D01*
X23530Y-11735D01*
X23001Y-11207D01*
X23056Y-11207D01*
X23437Y-11049D01*
X23541Y-10946D01*
X23516Y-11005D01*
X23516Y-11237D01*
X23605Y-11452D01*
X23769Y-11617D01*
X23984Y-11706D01*
X24217Y-11707D01*
X24432Y-11618D01*
X24597Y-11453D01*
X24686Y-11238D01*
X24686Y-11006D01*
X24597Y-10791D01*
X24433Y-10626D01*
X24218Y-10537D01*
X23985Y-10536D01*
X23786Y-10619D01*
X23886Y-10378D01*
X23886Y-9967D01*
X23729Y-9586D01*
X23438Y-9295D01*
X23058Y-9137D01*
X22646Y-9136D01*
X22266Y-9294D01*
X21974Y-9585D01*
X21816Y-9965D01*
X21816Y-10022D01*
X21398Y-9604D01*
X23604Y-7398D01*
X23622Y-7440D01*
X23781Y-7599D01*
X23988Y-7685D01*
X24213Y-7686D01*
X24421Y-7600D01*
X24580Y-7441D01*
X24666Y-7233D01*
X24666Y-7009D01*
X24646Y-6961D01*
X24864Y-6961D01*
X24864Y-6961D01*
X24975Y-6939D01*
X25069Y-6876D01*
X25881Y-6063D01*
X25881Y-6063D01*
X25944Y-5969D01*
X25944Y-5969D01*
X25948Y-5951D01*
X25966Y-5859D01*
X25966Y-5859D01*
X25966Y-5387D01*
X25944Y-5276D01*
X25881Y-5183D01*
X25881Y-5183D01*
X25225Y-4526D01*
X25131Y-4463D01*
X25020Y-4441D01*
X24686Y-4441D01*
X24686Y-3506D01*
X24597Y-3291D01*
X24433Y-3126D01*
X24218Y-3037D01*
X23985Y-3036D01*
X23770Y-3125D01*
X23605Y-3290D01*
X23516Y-3505D01*
X23516Y-3737D01*
X23605Y-3952D01*
X23769Y-4117D01*
X23984Y-4206D01*
X24217Y-4207D01*
X24432Y-4118D01*
X24597Y-3953D01*
X24686Y-3738D01*
X24686Y-3506D01*
X24686Y-4441D01*
X21133Y-4441D01*
X20846Y-4153D01*
X20932Y-4118D01*
X21097Y-3953D01*
X21186Y-3738D01*
X21186Y-3506D01*
X21097Y-3291D01*
X20933Y-3126D01*
X20718Y-3037D01*
X20485Y-3036D01*
X20270Y-3125D01*
X20105Y-3290D01*
X20016Y-3505D01*
X20016Y-3737D01*
X20026Y-3763D01*
X19636Y-3763D01*
X19636Y-3417D01*
X19479Y-3036D01*
X19188Y-2745D01*
X18808Y-2587D01*
X18396Y-2586D01*
X18016Y-2744D01*
X17724Y-3035D01*
X17566Y-3415D01*
X17566Y-3827D01*
X17723Y-4207D01*
X17957Y-4441D01*
X17514Y-4441D01*
X17403Y-4463D01*
X17309Y-4526D01*
X17186Y-4648D01*
X17186Y-3506D01*
X17097Y-3291D01*
X16933Y-3126D01*
X16718Y-3037D01*
X16485Y-3036D01*
X16270Y-3125D01*
X16105Y-3290D01*
X16016Y-3505D01*
X16016Y-3737D01*
X16105Y-3952D01*
X16269Y-4117D01*
X16484Y-4206D01*
X16717Y-4207D01*
X16932Y-4118D01*
X17097Y-3953D01*
X17186Y-3738D01*
X17186Y-3506D01*
X17186Y-4648D01*
X16085Y-5750D01*
X16085Y-4713D01*
X16047Y-4621D01*
X15976Y-4550D01*
X15884Y-4512D01*
X15785Y-4512D01*
X15391Y-4512D01*
X15299Y-4550D01*
X15229Y-4620D01*
X15191Y-4712D01*
X15191Y-4812D01*
X15191Y-5831D01*
X14511Y-5831D01*
X14511Y-4713D01*
X14473Y-4621D01*
X14402Y-4550D01*
X14310Y-4512D01*
X14211Y-4512D01*
X13817Y-4512D01*
X13725Y-4550D01*
X13655Y-4620D01*
X13617Y-4712D01*
X13617Y-4812D01*
X13617Y-5623D01*
X13551Y-5596D01*
X13451Y-5596D01*
X13101Y-5596D01*
X13009Y-5633D01*
X12951Y-5692D01*
X12893Y-5634D01*
X12865Y-5622D01*
X12865Y-5269D01*
X12997Y-5214D01*
X13194Y-5018D01*
X13301Y-4760D01*
X13301Y-4482D01*
X13195Y-4225D01*
X13176Y-4206D01*
X13217Y-4206D01*
X13432Y-4117D01*
X13597Y-3952D01*
X13686Y-3737D01*
X13686Y-3505D01*
X13597Y-3290D01*
X13433Y-3125D01*
X13218Y-3036D01*
X12985Y-3035D01*
X12770Y-3124D01*
X12605Y-3289D01*
X12516Y-3504D01*
X12516Y-3736D01*
X12592Y-3921D01*
X12462Y-3920D01*
X12205Y-4027D01*
X12008Y-4224D01*
X11901Y-4481D01*
X11901Y-4759D01*
X12007Y-5017D01*
X12204Y-5214D01*
X12287Y-5248D01*
X12287Y-5622D01*
X12259Y-5633D01*
X12189Y-5704D01*
X12151Y-5796D01*
X12151Y-5895D01*
X12151Y-6224D01*
X11114Y-6224D01*
X10757Y-5867D01*
X10801Y-5760D01*
X10801Y-5482D01*
X10695Y-5225D01*
X10498Y-5027D01*
X10241Y-4921D01*
X9962Y-4920D01*
X9705Y-5027D01*
X9508Y-5224D01*
X9401Y-5481D01*
X9401Y-5759D01*
X9445Y-5867D01*
X9313Y-6000D01*
X8876Y-6000D01*
X8876Y-5771D01*
X8838Y-5679D01*
X8768Y-5609D01*
X8676Y-5571D01*
X8640Y-5571D01*
X8640Y-5418D01*
X8618Y-5307D01*
X8555Y-5213D01*
X8555Y-5213D01*
X8533Y-5191D01*
X8533Y-5065D01*
X8465Y-4900D01*
X8340Y-4774D01*
X8175Y-4706D01*
X7998Y-4706D01*
X7833Y-4774D01*
X7708Y-4900D01*
X7651Y-5036D01*
X7639Y-5064D01*
X7639Y-5242D01*
X7707Y-5406D01*
X7833Y-5532D01*
X7976Y-5591D01*
X7934Y-5608D01*
X7864Y-5679D01*
X7851Y-5710D01*
X7838Y-5679D01*
X7768Y-5609D01*
X7676Y-5571D01*
X7604Y-5571D01*
X7555Y-5498D01*
X7462Y-5435D01*
X7412Y-5425D01*
X7412Y-5421D01*
X7344Y-5256D01*
X7233Y-5146D01*
X7276Y-5146D01*
X7276Y-5083D01*
X7338Y-5146D01*
X7450Y-5146D01*
X7542Y-5108D01*
X7613Y-5037D01*
X7651Y-4946D01*
X7651Y-4846D01*
X7651Y-4733D01*
X7588Y-4671D01*
X7276Y-4671D01*
X7276Y-4678D01*
X7176Y-4678D01*
X7176Y-4671D01*
X7168Y-4671D01*
X7168Y-4571D01*
X7176Y-4571D01*
X7176Y-4563D01*
X7276Y-4563D01*
X7276Y-4571D01*
X7588Y-4571D01*
X7651Y-4508D01*
X7651Y-4506D01*
X9299Y-4506D01*
X9433Y-4479D01*
X9433Y-4479D01*
X9547Y-4404D01*
X10083Y-3867D01*
X10223Y-4206D01*
X10514Y-4497D01*
X10894Y-4655D01*
X11306Y-4656D01*
X11686Y-4499D01*
X11978Y-4208D01*
X12136Y-3827D01*
X12136Y-3416D01*
X11979Y-3035D01*
X11974Y-3030D01*
X16488Y-3030D01*
X16622Y-3003D01*
X16622Y-3003D01*
X16735Y-2927D01*
X17503Y-2160D01*
X17514Y-2187D01*
X17584Y-2257D01*
X17676Y-2296D01*
X17776Y-2296D01*
X18526Y-2296D01*
X18618Y-2258D01*
X18688Y-2187D01*
X18702Y-2154D01*
X18862Y-2261D01*
X19101Y-2309D01*
X19340Y-2261D01*
X19543Y-2126D01*
X19678Y-1923D01*
X19726Y-1684D01*
X19726Y-1557D01*
X19687Y-1361D01*
X24293Y-1361D01*
X24800Y-1868D01*
X24913Y-1944D01*
X24913Y-1944D01*
X24976Y-1956D01*
X24976Y-2095D01*
X25014Y-2187D01*
X25084Y-2257D01*
X25176Y-2296D01*
X25276Y-2296D01*
X26026Y-2296D01*
X26118Y-2258D01*
X26188Y-2187D01*
X26202Y-2154D01*
X26362Y-2261D01*
X26601Y-2309D01*
X26840Y-2261D01*
X27043Y-2126D01*
X27178Y-1923D01*
X27226Y-1684D01*
X27226Y-1557D01*
X27178Y-1318D01*
X27043Y-1115D01*
X26840Y-980D01*
X26601Y-932D01*
X26362Y-980D01*
X26202Y-1087D01*
X26188Y-1054D01*
X26118Y-984D01*
X26026Y-946D01*
X25927Y-946D01*
X25177Y-946D01*
X25085Y-983D01*
X25014Y-1054D01*
X25003Y-1081D01*
X24685Y-764D01*
X24572Y-688D01*
X24438Y-661D01*
X18710Y-661D01*
X18576Y-688D01*
X18463Y-764D01*
X18281Y-946D01*
X17677Y-946D01*
X17585Y-983D01*
X17514Y-1054D01*
X17476Y-1146D01*
X17476Y-1245D01*
X17476Y-1285D01*
X17413Y-1297D01*
X17300Y-1373D01*
X16343Y-2330D01*
X16085Y-2330D01*
X16085Y-1209D01*
X16047Y-1117D01*
X15976Y-1047D01*
X15884Y-1008D01*
X15785Y-1008D01*
X15391Y-1008D01*
X15299Y-1046D01*
X15229Y-1117D01*
X15191Y-1208D01*
X15191Y-1308D01*
X15191Y-1579D01*
X14917Y-1579D01*
X14806Y-1601D01*
X14775Y-1622D01*
X14712Y-1664D01*
X14593Y-1783D01*
X14483Y-1783D01*
X14510Y-1756D01*
X14510Y-1209D01*
X14472Y-1117D01*
X14401Y-1047D01*
X14309Y-1008D01*
X14210Y-1008D01*
X14175Y-1008D01*
X14113Y-1071D01*
X14113Y-1819D01*
X14121Y-1819D01*
X14121Y-1919D01*
X14113Y-1919D01*
X14113Y-1926D01*
X14013Y-1926D01*
X14013Y-1919D01*
X14013Y-1819D01*
X14013Y-1071D01*
X13950Y-1008D01*
X13915Y-1008D01*
X13816Y-1008D01*
X13724Y-1047D01*
X13654Y-1117D01*
X13616Y-1209D01*
X13616Y-1756D01*
X13678Y-1819D01*
X14013Y-1819D01*
X14013Y-1919D01*
X13678Y-1919D01*
X13616Y-1981D01*
X13616Y-2330D01*
X11921Y-2330D01*
X11804Y-2307D01*
X11612Y-2307D01*
X11840Y-2261D01*
X12043Y-2126D01*
X12178Y-1923D01*
X12226Y-1684D01*
X12226Y-1557D01*
X12178Y-1318D01*
X12043Y-1115D01*
X11840Y-980D01*
X11601Y-932D01*
X11362Y-980D01*
X11202Y-1087D01*
X11188Y-1054D01*
X11118Y-984D01*
X11026Y-946D01*
X10926Y-946D01*
X10176Y-946D01*
X10084Y-983D01*
X10014Y-1054D01*
X9976Y-1146D01*
X9976Y-1245D01*
X9976Y-1285D01*
X9913Y-1297D01*
X9800Y-1373D01*
X9757Y-1436D01*
X9757Y-240D01*
X28923Y-240D01*
X28899Y-313D01*
X28911Y-491D01*
X28955Y-596D01*
X29040Y-611D01*
X29280Y-371D01*
X29274Y-365D01*
X29345Y-294D01*
X29351Y-300D01*
X29356Y-294D01*
X29427Y-365D01*
X29421Y-371D01*
X29427Y-376D01*
X29356Y-447D01*
X29351Y-441D01*
X29110Y-682D01*
X29125Y-766D01*
X29294Y-823D01*
X29431Y-813D01*
X29431Y-6373D01*
G54D10*
G36*
X29431Y-43927D02*
X29408Y-43920D01*
X29230Y-43932D01*
X29125Y-43976D01*
X29110Y-44060D01*
X29351Y-44301D01*
X29356Y-44295D01*
X29427Y-44366D01*
X29421Y-44372D01*
X29427Y-44377D01*
X29356Y-44448D01*
X29351Y-44442D01*
X29345Y-44448D01*
X29274Y-44377D01*
X29280Y-44372D01*
X29040Y-44131D01*
X28955Y-44146D01*
X28899Y-44314D01*
X28908Y-44451D01*
X13684Y-44451D01*
X13709Y-44426D01*
X13777Y-44262D01*
X13777Y-44114D01*
X13792Y-44107D01*
X13851Y-44049D01*
X13909Y-44107D01*
X14001Y-44145D01*
X14100Y-44145D01*
X14450Y-44145D01*
X14542Y-44107D01*
X14613Y-44037D01*
X14651Y-43945D01*
X14651Y-43846D01*
X14651Y-43296D01*
X14641Y-43273D01*
X15784Y-43273D01*
X16731Y-44219D01*
X16731Y-44219D01*
X16825Y-44282D01*
X16936Y-44304D01*
X20454Y-44304D01*
X20454Y-44304D01*
X20564Y-44282D01*
X20658Y-44219D01*
X20732Y-44146D01*
X20732Y-44146D01*
X20736Y-44140D01*
X20736Y-44140D01*
X20751Y-44147D01*
X20851Y-44147D01*
X21201Y-44147D01*
X21293Y-44109D01*
X21363Y-44038D01*
X21386Y-43982D01*
X25337Y-43982D01*
X25337Y-43982D01*
X25448Y-43960D01*
X25542Y-43897D01*
X25882Y-43557D01*
X25882Y-43557D01*
X25944Y-43463D01*
X25944Y-43463D01*
X25948Y-43445D01*
X25967Y-43353D01*
X25967Y-43353D01*
X25967Y-42156D01*
X26306Y-42157D01*
X26687Y-41999D01*
X26978Y-41709D01*
X27136Y-41328D01*
X27136Y-40917D01*
X26979Y-40536D01*
X26688Y-40245D01*
X26686Y-40244D01*
X26686Y-39256D01*
X26597Y-39041D01*
X26433Y-38876D01*
X26218Y-38787D01*
X25985Y-38786D01*
X25770Y-38875D01*
X25605Y-39040D01*
X25516Y-39255D01*
X25516Y-39487D01*
X25605Y-39702D01*
X25769Y-39867D01*
X25984Y-39956D01*
X26217Y-39957D01*
X26432Y-39868D01*
X26597Y-39703D01*
X26686Y-39488D01*
X26686Y-39256D01*
X26686Y-40244D01*
X26308Y-40087D01*
X25896Y-40086D01*
X25516Y-40244D01*
X25224Y-40535D01*
X25066Y-40915D01*
X25066Y-41036D01*
X24248Y-40218D01*
X24248Y-37232D01*
X24180Y-37068D01*
X24055Y-36942D01*
X23890Y-36874D01*
X23713Y-36873D01*
X23548Y-36941D01*
X23422Y-37067D01*
X23354Y-37231D01*
X23354Y-37409D01*
X23422Y-37573D01*
X23548Y-37699D01*
X23712Y-37767D01*
X23890Y-37767D01*
X24054Y-37699D01*
X24180Y-37574D01*
X24248Y-37410D01*
X24248Y-37232D01*
X24248Y-40218D01*
X23048Y-39018D01*
X23048Y-37232D01*
X22980Y-37068D01*
X22855Y-36942D01*
X22690Y-36874D01*
X22513Y-36873D01*
X22348Y-36941D01*
X22222Y-37067D01*
X22154Y-37231D01*
X22154Y-37409D01*
X22222Y-37573D01*
X22348Y-37699D01*
X22512Y-37767D01*
X22690Y-37767D01*
X22854Y-37699D01*
X22980Y-37574D01*
X23048Y-37410D01*
X23048Y-37232D01*
X23048Y-39018D01*
X21736Y-37707D01*
X21754Y-37699D01*
X21880Y-37574D01*
X21948Y-37410D01*
X21948Y-37232D01*
X21880Y-37068D01*
X21755Y-36942D01*
X21590Y-36874D01*
X21452Y-36873D01*
X21452Y-36673D01*
X21470Y-36691D01*
X21634Y-36759D01*
X21812Y-36759D01*
X21976Y-36691D01*
X22102Y-36566D01*
X22170Y-36401D01*
X22171Y-36224D01*
X22103Y-36059D01*
X22057Y-36014D01*
X23886Y-36014D01*
X24546Y-36673D01*
X24546Y-36673D01*
X24608Y-36715D01*
X24639Y-36736D01*
X24639Y-36736D01*
X24750Y-36758D01*
X25251Y-36758D01*
X25224Y-36785D01*
X25066Y-37165D01*
X25066Y-37577D01*
X25223Y-37957D01*
X25514Y-38248D01*
X25894Y-38406D01*
X26306Y-38407D01*
X26687Y-38249D01*
X26978Y-37959D01*
X27136Y-37578D01*
X27136Y-37523D01*
X27548Y-37935D01*
X27508Y-37975D01*
X27401Y-38232D01*
X27401Y-38510D01*
X27507Y-38768D01*
X27704Y-38965D01*
X27961Y-39071D01*
X28240Y-39072D01*
X28497Y-38965D01*
X28694Y-38769D01*
X28801Y-38511D01*
X28801Y-38233D01*
X28695Y-37976D01*
X28498Y-37778D01*
X28430Y-37750D01*
X28554Y-37699D01*
X28680Y-37574D01*
X28748Y-37410D01*
X28748Y-37232D01*
X28680Y-37068D01*
X28555Y-36942D01*
X28390Y-36874D01*
X28213Y-36873D01*
X28048Y-36941D01*
X27922Y-37067D01*
X27854Y-37231D01*
X27854Y-37409D01*
X27864Y-37432D01*
X27003Y-36571D01*
X27240Y-36572D01*
X27366Y-36520D01*
X27382Y-36531D01*
X27382Y-36531D01*
X27493Y-36553D01*
X27493Y-36553D01*
X28176Y-36553D01*
X28286Y-36531D01*
X28380Y-36468D01*
X28440Y-36379D01*
X28492Y-36357D01*
X28551Y-36299D01*
X28609Y-36357D01*
X28701Y-36395D01*
X28800Y-36395D01*
X28955Y-36395D01*
X28899Y-36563D01*
X28911Y-36741D01*
X28955Y-36846D01*
X29040Y-36861D01*
X29280Y-36620D01*
X29274Y-36615D01*
X29345Y-36544D01*
X29351Y-36550D01*
X29356Y-36544D01*
X29427Y-36615D01*
X29421Y-36620D01*
X29427Y-36626D01*
X29356Y-36697D01*
X29351Y-36691D01*
X29110Y-36931D01*
X29125Y-37016D01*
X29161Y-37028D01*
X29122Y-37067D01*
X29054Y-37231D01*
X29054Y-37409D01*
X29122Y-37573D01*
X29248Y-37699D01*
X29412Y-37767D01*
X29431Y-37767D01*
X29431Y-41221D01*
X29298Y-41088D01*
X29298Y-41078D01*
X29230Y-40914D01*
X29105Y-40788D01*
X28940Y-40720D01*
X28763Y-40720D01*
X28598Y-40788D01*
X28596Y-40790D01*
X28433Y-40626D01*
X28218Y-40537D01*
X27985Y-40536D01*
X27770Y-40625D01*
X27605Y-40790D01*
X27516Y-41005D01*
X27516Y-41237D01*
X27592Y-41422D01*
X27462Y-41421D01*
X27205Y-41528D01*
X27008Y-41725D01*
X26901Y-41982D01*
X26901Y-42260D01*
X27007Y-42518D01*
X27204Y-42715D01*
X27461Y-42821D01*
X27740Y-42822D01*
X27997Y-42715D01*
X28145Y-42568D01*
X28369Y-42792D01*
X28681Y-42921D01*
X29019Y-42922D01*
X29088Y-42893D01*
X28820Y-43162D01*
X28793Y-43135D01*
X28701Y-43097D01*
X28602Y-43097D01*
X28252Y-43097D01*
X28160Y-43134D01*
X28101Y-43193D01*
X28043Y-43135D01*
X27951Y-43097D01*
X27852Y-43097D01*
X27502Y-43097D01*
X27410Y-43134D01*
X27339Y-43205D01*
X27301Y-43297D01*
X27301Y-43368D01*
X27291Y-43375D01*
X27228Y-43417D01*
X27087Y-43558D01*
X27038Y-43509D01*
X26874Y-43441D01*
X26696Y-43441D01*
X26532Y-43509D01*
X26406Y-43634D01*
X26338Y-43798D01*
X26338Y-43976D01*
X26406Y-44141D01*
X26531Y-44266D01*
X26696Y-44335D01*
X26873Y-44335D01*
X27038Y-44267D01*
X27127Y-44177D01*
X27167Y-44177D01*
X27167Y-44177D01*
X27277Y-44155D01*
X27371Y-44092D01*
X27382Y-44081D01*
X27409Y-44108D01*
X27501Y-44147D01*
X27601Y-44147D01*
X27951Y-44147D01*
X28043Y-44109D01*
X28101Y-44050D01*
X28159Y-44108D01*
X28251Y-44147D01*
X28351Y-44147D01*
X28701Y-44147D01*
X28793Y-44109D01*
X28863Y-44038D01*
X28901Y-43946D01*
X28901Y-43875D01*
X28974Y-43826D01*
X29431Y-43369D01*
X29431Y-43927D01*
X29431Y-43927D01*
G37*
G54D34*
X29431Y-43927D02*
X29408Y-43920D01*
X29230Y-43932D01*
X29125Y-43976D01*
X29110Y-44060D01*
X29351Y-44301D01*
X29356Y-44295D01*
X29427Y-44366D01*
X29421Y-44372D01*
X29427Y-44377D01*
X29356Y-44448D01*
X29351Y-44442D01*
X29345Y-44448D01*
X29274Y-44377D01*
X29280Y-44372D01*
X29040Y-44131D01*
X28955Y-44146D01*
X28899Y-44314D01*
X28908Y-44451D01*
X13684Y-44451D01*
X13709Y-44426D01*
X13777Y-44262D01*
X13777Y-44114D01*
X13792Y-44107D01*
X13851Y-44049D01*
X13909Y-44107D01*
X14001Y-44145D01*
X14100Y-44145D01*
X14450Y-44145D01*
X14542Y-44107D01*
X14613Y-44037D01*
X14651Y-43945D01*
X14651Y-43846D01*
X14651Y-43296D01*
X14641Y-43273D01*
X15784Y-43273D01*
X16731Y-44219D01*
X16731Y-44219D01*
X16825Y-44282D01*
X16936Y-44304D01*
X20454Y-44304D01*
X20454Y-44304D01*
X20564Y-44282D01*
X20658Y-44219D01*
X20732Y-44146D01*
X20732Y-44146D01*
X20736Y-44140D01*
X20736Y-44140D01*
X20751Y-44147D01*
X20851Y-44147D01*
X21201Y-44147D01*
X21293Y-44109D01*
X21363Y-44038D01*
X21386Y-43982D01*
X25337Y-43982D01*
X25337Y-43982D01*
X25448Y-43960D01*
X25542Y-43897D01*
X25882Y-43557D01*
X25882Y-43557D01*
X25944Y-43463D01*
X25944Y-43463D01*
X25948Y-43445D01*
X25967Y-43353D01*
X25967Y-43353D01*
X25967Y-42156D01*
X26306Y-42157D01*
X26687Y-41999D01*
X26978Y-41709D01*
X27136Y-41328D01*
X27136Y-40917D01*
X26979Y-40536D01*
X26688Y-40245D01*
X26686Y-40244D01*
X26686Y-39256D01*
X26597Y-39041D01*
X26433Y-38876D01*
X26218Y-38787D01*
X25985Y-38786D01*
X25770Y-38875D01*
X25605Y-39040D01*
X25516Y-39255D01*
X25516Y-39487D01*
X25605Y-39702D01*
X25769Y-39867D01*
X25984Y-39956D01*
X26217Y-39957D01*
X26432Y-39868D01*
X26597Y-39703D01*
X26686Y-39488D01*
X26686Y-39256D01*
X26686Y-40244D01*
X26308Y-40087D01*
X25896Y-40086D01*
X25516Y-40244D01*
X25224Y-40535D01*
X25066Y-40915D01*
X25066Y-41036D01*
X24248Y-40218D01*
X24248Y-37232D01*
X24180Y-37068D01*
X24055Y-36942D01*
X23890Y-36874D01*
X23713Y-36873D01*
X23548Y-36941D01*
X23422Y-37067D01*
X23354Y-37231D01*
X23354Y-37409D01*
X23422Y-37573D01*
X23548Y-37699D01*
X23712Y-37767D01*
X23890Y-37767D01*
X24054Y-37699D01*
X24180Y-37574D01*
X24248Y-37410D01*
X24248Y-37232D01*
X24248Y-40218D01*
X23048Y-39018D01*
X23048Y-37232D01*
X22980Y-37068D01*
X22855Y-36942D01*
X22690Y-36874D01*
X22513Y-36873D01*
X22348Y-36941D01*
X22222Y-37067D01*
X22154Y-37231D01*
X22154Y-37409D01*
X22222Y-37573D01*
X22348Y-37699D01*
X22512Y-37767D01*
X22690Y-37767D01*
X22854Y-37699D01*
X22980Y-37574D01*
X23048Y-37410D01*
X23048Y-37232D01*
X23048Y-39018D01*
X21736Y-37707D01*
X21754Y-37699D01*
X21880Y-37574D01*
X21948Y-37410D01*
X21948Y-37232D01*
X21880Y-37068D01*
X21755Y-36942D01*
X21590Y-36874D01*
X21452Y-36873D01*
X21452Y-36673D01*
X21470Y-36691D01*
X21634Y-36759D01*
X21812Y-36759D01*
X21976Y-36691D01*
X22102Y-36566D01*
X22170Y-36401D01*
X22171Y-36224D01*
X22103Y-36059D01*
X22057Y-36014D01*
X23886Y-36014D01*
X24546Y-36673D01*
X24546Y-36673D01*
X24608Y-36715D01*
X24639Y-36736D01*
X24639Y-36736D01*
X24750Y-36758D01*
X25251Y-36758D01*
X25224Y-36785D01*
X25066Y-37165D01*
X25066Y-37577D01*
X25223Y-37957D01*
X25514Y-38248D01*
X25894Y-38406D01*
X26306Y-38407D01*
X26687Y-38249D01*
X26978Y-37959D01*
X27136Y-37578D01*
X27136Y-37523D01*
X27548Y-37935D01*
X27508Y-37975D01*
X27401Y-38232D01*
X27401Y-38510D01*
X27507Y-38768D01*
X27704Y-38965D01*
X27961Y-39071D01*
X28240Y-39072D01*
X28497Y-38965D01*
X28694Y-38769D01*
X28801Y-38511D01*
X28801Y-38233D01*
X28695Y-37976D01*
X28498Y-37778D01*
X28430Y-37750D01*
X28554Y-37699D01*
X28680Y-37574D01*
X28748Y-37410D01*
X28748Y-37232D01*
X28680Y-37068D01*
X28555Y-36942D01*
X28390Y-36874D01*
X28213Y-36873D01*
X28048Y-36941D01*
X27922Y-37067D01*
X27854Y-37231D01*
X27854Y-37409D01*
X27864Y-37432D01*
X27003Y-36571D01*
X27240Y-36572D01*
X27366Y-36520D01*
X27382Y-36531D01*
X27382Y-36531D01*
X27493Y-36553D01*
X27493Y-36553D01*
X28176Y-36553D01*
X28286Y-36531D01*
X28380Y-36468D01*
X28440Y-36379D01*
X28492Y-36357D01*
X28551Y-36299D01*
X28609Y-36357D01*
X28701Y-36395D01*
X28800Y-36395D01*
X28955Y-36395D01*
X28899Y-36563D01*
X28911Y-36741D01*
X28955Y-36846D01*
X29040Y-36861D01*
X29280Y-36620D01*
X29274Y-36615D01*
X29345Y-36544D01*
X29351Y-36550D01*
X29356Y-36544D01*
X29427Y-36615D01*
X29421Y-36620D01*
X29427Y-36626D01*
X29356Y-36697D01*
X29351Y-36691D01*
X29110Y-36931D01*
X29125Y-37016D01*
X29161Y-37028D01*
X29122Y-37067D01*
X29054Y-37231D01*
X29054Y-37409D01*
X29122Y-37573D01*
X29248Y-37699D01*
X29412Y-37767D01*
X29431Y-37767D01*
X29431Y-41221D01*
X29298Y-41088D01*
X29298Y-41078D01*
X29230Y-40914D01*
X29105Y-40788D01*
X28940Y-40720D01*
X28763Y-40720D01*
X28598Y-40788D01*
X28596Y-40790D01*
X28433Y-40626D01*
X28218Y-40537D01*
X27985Y-40536D01*
X27770Y-40625D01*
X27605Y-40790D01*
X27516Y-41005D01*
X27516Y-41237D01*
X27592Y-41422D01*
X27462Y-41421D01*
X27205Y-41528D01*
X27008Y-41725D01*
X26901Y-41982D01*
X26901Y-42260D01*
X27007Y-42518D01*
X27204Y-42715D01*
X27461Y-42821D01*
X27740Y-42822D01*
X27997Y-42715D01*
X28145Y-42568D01*
X28369Y-42792D01*
X28681Y-42921D01*
X29019Y-42922D01*
X29088Y-42893D01*
X28820Y-43162D01*
X28793Y-43135D01*
X28701Y-43097D01*
X28602Y-43097D01*
X28252Y-43097D01*
X28160Y-43134D01*
X28101Y-43193D01*
X28043Y-43135D01*
X27951Y-43097D01*
X27852Y-43097D01*
X27502Y-43097D01*
X27410Y-43134D01*
X27339Y-43205D01*
X27301Y-43297D01*
X27301Y-43368D01*
X27291Y-43375D01*
X27228Y-43417D01*
X27087Y-43558D01*
X27038Y-43509D01*
X26874Y-43441D01*
X26696Y-43441D01*
X26532Y-43509D01*
X26406Y-43634D01*
X26338Y-43798D01*
X26338Y-43976D01*
X26406Y-44141D01*
X26531Y-44266D01*
X26696Y-44335D01*
X26873Y-44335D01*
X27038Y-44267D01*
X27127Y-44177D01*
X27167Y-44177D01*
X27167Y-44177D01*
X27277Y-44155D01*
X27371Y-44092D01*
X27382Y-44081D01*
X27409Y-44108D01*
X27501Y-44147D01*
X27601Y-44147D01*
X27951Y-44147D01*
X28043Y-44109D01*
X28101Y-44050D01*
X28159Y-44108D01*
X28251Y-44147D01*
X28351Y-44147D01*
X28701Y-44147D01*
X28793Y-44109D01*
X28863Y-44038D01*
X28901Y-43946D01*
X28901Y-43875D01*
X28974Y-43826D01*
X29431Y-43369D01*
X29431Y-43927D01*
M02*
