G04 (created by PCBNEW (2013-02-13 BZR 3947)-testing) date 10/17/2013 1:35:19 PM*
%MOIN*%
G04 Gerber Fmt 3.4, Leading zero omitted, Abs format*
%FSLAX34Y34*%
G01*
G70*
G90*
G04 APERTURE LIST*
%ADD10C,0*%
%ADD11C,0.00787402*%
%ADD12C,0.00393701*%
%ADD13C,0.015*%
%ADD14C,0.011811*%
%ADD15C,0.0001*%
%ADD16C,0.00590551*%
%ADD17C,0.008*%
%ADD18C,0.0788661*%
%ADD19C,0.0709921*%
%ADD20C,0.098*%
%ADD21C,0.165*%
%ADD22C,0.075*%
%ADD23O,0.083X0.093*%
%ADD24R,0.083X0.093*%
%ADD25C,0.128*%
%ADD26C,0.0473701*%
%ADD27C,0.0434331*%
%ADD28O,0.068X0.05*%
%ADD29O,0.401701X0.20485*%
%ADD30C,0.106425*%
G04 APERTURE END LIST*
G54D10*
G54D11*
X13768Y-22980D02*
X13768Y-22586D01*
X13918Y-22586D01*
X13955Y-22605D01*
X13974Y-22624D01*
X13993Y-22661D01*
X13993Y-22717D01*
X13974Y-22755D01*
X13955Y-22774D01*
X13918Y-22792D01*
X13768Y-22792D01*
X14162Y-22980D02*
X14162Y-22717D01*
X14162Y-22792D02*
X14180Y-22755D01*
X14199Y-22736D01*
X14237Y-22717D01*
X14274Y-22717D01*
X14462Y-22980D02*
X14424Y-22961D01*
X14405Y-22942D01*
X14387Y-22905D01*
X14387Y-22792D01*
X14405Y-22755D01*
X14424Y-22736D01*
X14462Y-22717D01*
X14518Y-22717D01*
X14555Y-22736D01*
X14574Y-22755D01*
X14593Y-22792D01*
X14593Y-22905D01*
X14574Y-22942D01*
X14555Y-22961D01*
X14518Y-22980D01*
X14462Y-22980D01*
X14930Y-22717D02*
X14930Y-23036D01*
X14912Y-23074D01*
X14893Y-23092D01*
X14855Y-23111D01*
X14799Y-23111D01*
X14762Y-23092D01*
X14930Y-22961D02*
X14893Y-22980D01*
X14818Y-22980D01*
X14780Y-22961D01*
X14762Y-22942D01*
X14743Y-22905D01*
X14743Y-22792D01*
X14762Y-22755D01*
X14780Y-22736D01*
X14818Y-22717D01*
X14893Y-22717D01*
X14930Y-22736D01*
X15118Y-22980D02*
X15118Y-22717D01*
X15118Y-22792D02*
X15136Y-22755D01*
X15155Y-22736D01*
X15193Y-22717D01*
X15230Y-22717D01*
X15530Y-22980D02*
X15530Y-22774D01*
X15511Y-22736D01*
X15474Y-22717D01*
X15399Y-22717D01*
X15361Y-22736D01*
X15530Y-22961D02*
X15493Y-22980D01*
X15399Y-22980D01*
X15361Y-22961D01*
X15343Y-22924D01*
X15343Y-22886D01*
X15361Y-22849D01*
X15399Y-22830D01*
X15493Y-22830D01*
X15530Y-22811D01*
X15718Y-22980D02*
X15718Y-22717D01*
X15718Y-22755D02*
X15736Y-22736D01*
X15774Y-22717D01*
X15830Y-22717D01*
X15868Y-22736D01*
X15886Y-22774D01*
X15886Y-22980D01*
X15886Y-22774D02*
X15905Y-22736D01*
X15943Y-22717D01*
X15999Y-22717D01*
X16036Y-22736D01*
X16055Y-22774D01*
X16055Y-22980D01*
X16243Y-22980D02*
X16243Y-22717D01*
X16243Y-22755D02*
X16261Y-22736D01*
X16299Y-22717D01*
X16355Y-22717D01*
X16393Y-22736D01*
X16411Y-22774D01*
X16411Y-22980D01*
X16411Y-22774D02*
X16430Y-22736D01*
X16468Y-22717D01*
X16524Y-22717D01*
X16561Y-22736D01*
X16580Y-22774D01*
X16580Y-22980D01*
X16936Y-22980D02*
X16936Y-22774D01*
X16918Y-22736D01*
X16880Y-22717D01*
X16805Y-22717D01*
X16768Y-22736D01*
X16936Y-22961D02*
X16899Y-22980D01*
X16805Y-22980D01*
X16768Y-22961D01*
X16749Y-22924D01*
X16749Y-22886D01*
X16768Y-22849D01*
X16805Y-22830D01*
X16899Y-22830D01*
X16936Y-22811D01*
X17124Y-22980D02*
X17124Y-22586D01*
X17124Y-22736D02*
X17161Y-22717D01*
X17236Y-22717D01*
X17274Y-22736D01*
X17292Y-22755D01*
X17311Y-22792D01*
X17311Y-22905D01*
X17292Y-22942D01*
X17274Y-22961D01*
X17236Y-22980D01*
X17161Y-22980D01*
X17124Y-22961D01*
X17536Y-22980D02*
X17499Y-22961D01*
X17480Y-22924D01*
X17480Y-22586D01*
X17836Y-22961D02*
X17799Y-22980D01*
X17724Y-22980D01*
X17686Y-22961D01*
X17667Y-22924D01*
X17667Y-22774D01*
X17686Y-22736D01*
X17724Y-22717D01*
X17799Y-22717D01*
X17836Y-22736D01*
X17855Y-22774D01*
X17855Y-22811D01*
X17667Y-22849D01*
X18324Y-22980D02*
X18324Y-22586D01*
X18549Y-22980D02*
X18380Y-22755D01*
X18549Y-22586D02*
X18324Y-22811D01*
X18867Y-22961D02*
X18830Y-22980D01*
X18755Y-22980D01*
X18717Y-22961D01*
X18699Y-22924D01*
X18699Y-22774D01*
X18717Y-22736D01*
X18755Y-22717D01*
X18830Y-22717D01*
X18867Y-22736D01*
X18886Y-22774D01*
X18886Y-22811D01*
X18699Y-22849D01*
X19017Y-22717D02*
X19111Y-22980D01*
X19205Y-22717D02*
X19111Y-22980D01*
X19073Y-23074D01*
X19055Y-23092D01*
X19017Y-23111D01*
X19355Y-22717D02*
X19355Y-23111D01*
X19355Y-22736D02*
X19392Y-22717D01*
X19467Y-22717D01*
X19505Y-22736D01*
X19523Y-22755D01*
X19542Y-22792D01*
X19542Y-22905D01*
X19523Y-22942D01*
X19505Y-22961D01*
X19467Y-22980D01*
X19392Y-22980D01*
X19355Y-22961D01*
X19880Y-22980D02*
X19880Y-22774D01*
X19861Y-22736D01*
X19823Y-22717D01*
X19748Y-22717D01*
X19711Y-22736D01*
X19880Y-22961D02*
X19842Y-22980D01*
X19748Y-22980D01*
X19711Y-22961D01*
X19692Y-22924D01*
X19692Y-22886D01*
X19711Y-22849D01*
X19748Y-22830D01*
X19842Y-22830D01*
X19880Y-22811D01*
X20236Y-22980D02*
X20236Y-22586D01*
X20236Y-22961D02*
X20198Y-22980D01*
X20123Y-22980D01*
X20086Y-22961D01*
X20067Y-22942D01*
X20048Y-22905D01*
X20048Y-22792D01*
X20067Y-22755D01*
X20086Y-22736D01*
X20123Y-22717D01*
X20198Y-22717D01*
X20236Y-22736D01*
G54D12*
X14199Y-23898D02*
X14094Y-23748D01*
X14019Y-23898D02*
X14019Y-23583D01*
X14139Y-23583D01*
X14169Y-23598D01*
X14184Y-23613D01*
X14199Y-23643D01*
X14199Y-23688D01*
X14184Y-23718D01*
X14169Y-23733D01*
X14139Y-23748D01*
X14019Y-23748D01*
X14454Y-23883D02*
X14424Y-23898D01*
X14364Y-23898D01*
X14334Y-23883D01*
X14319Y-23853D01*
X14319Y-23733D01*
X14334Y-23703D01*
X14364Y-23688D01*
X14424Y-23688D01*
X14454Y-23703D01*
X14469Y-23733D01*
X14469Y-23763D01*
X14319Y-23793D01*
X14574Y-23688D02*
X14649Y-23898D01*
X14724Y-23688D01*
X15144Y-23583D02*
X15174Y-23583D01*
X15204Y-23598D01*
X15219Y-23613D01*
X15234Y-23643D01*
X15249Y-23703D01*
X15249Y-23778D01*
X15234Y-23838D01*
X15219Y-23868D01*
X15204Y-23883D01*
X15174Y-23898D01*
X15144Y-23898D01*
X15114Y-23883D01*
X15099Y-23868D01*
X15084Y-23838D01*
X15069Y-23778D01*
X15069Y-23703D01*
X15084Y-23643D01*
X15099Y-23613D01*
X15114Y-23598D01*
X15144Y-23583D01*
X15384Y-23868D02*
X15399Y-23883D01*
X15384Y-23898D01*
X15369Y-23883D01*
X15384Y-23868D01*
X15384Y-23898D01*
X15579Y-23718D02*
X15549Y-23703D01*
X15534Y-23688D01*
X15519Y-23658D01*
X15519Y-23643D01*
X15534Y-23613D01*
X15549Y-23598D01*
X15579Y-23583D01*
X15639Y-23583D01*
X15669Y-23598D01*
X15684Y-23613D01*
X15699Y-23643D01*
X15699Y-23658D01*
X15684Y-23688D01*
X15669Y-23703D01*
X15639Y-23718D01*
X15579Y-23718D01*
X15549Y-23733D01*
X15534Y-23748D01*
X15519Y-23778D01*
X15519Y-23838D01*
X15534Y-23868D01*
X15549Y-23883D01*
X15579Y-23898D01*
X15639Y-23898D01*
X15669Y-23883D01*
X15684Y-23868D01*
X15699Y-23838D01*
X15699Y-23778D01*
X15684Y-23748D01*
X15669Y-23733D01*
X15639Y-23718D01*
X29701Y-37322D02*
X18301Y-37322D01*
X1Y-37322D02*
X29701Y-37322D01*
G54D13*
X6101Y-43622D02*
X5401Y-43622D01*
X1801Y-43622D02*
X1101Y-43622D01*
X1101Y-43622D02*
X1101Y-42922D01*
X1101Y-39322D02*
X1101Y-38622D01*
X1101Y-38622D02*
X1801Y-38622D01*
X5401Y-38622D02*
X6101Y-38622D01*
X6101Y-38622D02*
X6101Y-39322D01*
X6101Y-42922D02*
X6101Y-43622D01*
X21101Y-28620D02*
X20401Y-28620D01*
X16801Y-28620D02*
X16101Y-28620D01*
X16101Y-28620D02*
X16101Y-27920D01*
X16101Y-24320D02*
X16101Y-23620D01*
X16101Y-23620D02*
X16801Y-23620D01*
X20401Y-23620D02*
X21101Y-23620D01*
X21101Y-23620D02*
X21101Y-24320D01*
X21101Y-27920D02*
X21101Y-28620D01*
X21101Y-13621D02*
X20401Y-13621D01*
X16801Y-13621D02*
X16101Y-13621D01*
X16101Y-13621D02*
X16101Y-12921D01*
X16101Y-9321D02*
X16101Y-8621D01*
X16101Y-8621D02*
X16801Y-8621D01*
X20401Y-8621D02*
X21101Y-8621D01*
X21101Y-8621D02*
X21101Y-9321D01*
X21101Y-12921D02*
X21101Y-13621D01*
X28601Y-6122D02*
X27901Y-6122D01*
X24301Y-6122D02*
X23601Y-6122D01*
X23601Y-6122D02*
X23601Y-5422D01*
X23601Y-1822D02*
X23601Y-1122D01*
X23601Y-1122D02*
X24301Y-1122D01*
X27901Y-1122D02*
X28601Y-1122D01*
X28601Y-1122D02*
X28601Y-1822D01*
X28601Y-5422D02*
X28601Y-6122D01*
X21101Y-6122D02*
X20401Y-6122D01*
X16801Y-6122D02*
X16101Y-6122D01*
X16101Y-6122D02*
X16101Y-5422D01*
X16101Y-1822D02*
X16101Y-1122D01*
X16101Y-1122D02*
X16801Y-1122D01*
X20401Y-1122D02*
X21101Y-1122D01*
X21101Y-1122D02*
X21101Y-1822D01*
X21101Y-5422D02*
X21101Y-6122D01*
X21101Y-21120D02*
X20401Y-21120D01*
X16801Y-21120D02*
X16101Y-21120D01*
X16101Y-21120D02*
X16101Y-20420D01*
X16101Y-16820D02*
X16101Y-16120D01*
X16101Y-16120D02*
X16801Y-16120D01*
X20401Y-16120D02*
X21101Y-16120D01*
X21101Y-16120D02*
X21101Y-16820D01*
X21101Y-20420D02*
X21101Y-21120D01*
X13601Y-43622D02*
X12901Y-43622D01*
X9301Y-43622D02*
X8601Y-43622D01*
X8601Y-43622D02*
X8601Y-42922D01*
X8601Y-39322D02*
X8601Y-38622D01*
X8601Y-38622D02*
X9301Y-38622D01*
X12901Y-38622D02*
X13601Y-38622D01*
X13601Y-38622D02*
X13601Y-39322D01*
X13601Y-42922D02*
X13601Y-43622D01*
X6101Y-6121D02*
X5401Y-6121D01*
X1801Y-6121D02*
X1101Y-6121D01*
X1101Y-6121D02*
X1101Y-5421D01*
X1101Y-1821D02*
X1101Y-1121D01*
X1101Y-1121D02*
X1801Y-1121D01*
X5401Y-1121D02*
X6101Y-1121D01*
X6101Y-1121D02*
X6101Y-1821D01*
X6101Y-5421D02*
X6101Y-6121D01*
X6101Y-28620D02*
X5401Y-28620D01*
X1801Y-28620D02*
X1101Y-28620D01*
X1101Y-28620D02*
X1101Y-27920D01*
X1101Y-24320D02*
X1101Y-23620D01*
X1101Y-23620D02*
X1801Y-23620D01*
X5401Y-23620D02*
X6101Y-23620D01*
X6101Y-23620D02*
X6101Y-24320D01*
X6101Y-27920D02*
X6101Y-28620D01*
X13601Y-28620D02*
X12901Y-28620D01*
X9301Y-28620D02*
X8601Y-28620D01*
X8601Y-28620D02*
X8601Y-27920D01*
X8601Y-24320D02*
X8601Y-23620D01*
X8601Y-23620D02*
X9301Y-23620D01*
X12901Y-23620D02*
X13601Y-23620D01*
X13601Y-23620D02*
X13601Y-24320D01*
X13601Y-27920D02*
X13601Y-28620D01*
X13601Y-36120D02*
X12901Y-36120D01*
X9301Y-36120D02*
X8601Y-36120D01*
X8601Y-36120D02*
X8601Y-35420D01*
X8601Y-31820D02*
X8601Y-31120D01*
X8601Y-31120D02*
X9301Y-31120D01*
X12901Y-31120D02*
X13601Y-31120D01*
X13601Y-31120D02*
X13601Y-31820D01*
X13601Y-35420D02*
X13601Y-36120D01*
X21101Y-36120D02*
X20401Y-36120D01*
X16801Y-36120D02*
X16101Y-36120D01*
X16101Y-36120D02*
X16101Y-35420D01*
X16101Y-31820D02*
X16101Y-31120D01*
X16101Y-31120D02*
X16801Y-31120D01*
X20401Y-31120D02*
X21101Y-31120D01*
X21101Y-31120D02*
X21101Y-31820D01*
X21101Y-35420D02*
X21101Y-36120D01*
X6101Y-36120D02*
X5401Y-36120D01*
X1801Y-36120D02*
X1101Y-36120D01*
X1101Y-36120D02*
X1101Y-35420D01*
X1101Y-31820D02*
X1101Y-31120D01*
X1101Y-31120D02*
X1801Y-31120D01*
X5401Y-31120D02*
X6101Y-31120D01*
X6101Y-31120D02*
X6101Y-31820D01*
X6101Y-35420D02*
X6101Y-36120D01*
X13601Y-21120D02*
X12901Y-21120D01*
X9301Y-21120D02*
X8601Y-21120D01*
X8601Y-21120D02*
X8601Y-20420D01*
X8601Y-16820D02*
X8601Y-16120D01*
X8601Y-16120D02*
X9301Y-16120D01*
X12901Y-16120D02*
X13601Y-16120D01*
X13601Y-16120D02*
X13601Y-16820D01*
X13601Y-20420D02*
X13601Y-21120D01*
X6101Y-21120D02*
X5401Y-21120D01*
X1801Y-21120D02*
X1101Y-21120D01*
X1101Y-21120D02*
X1101Y-20420D01*
X1101Y-16820D02*
X1101Y-16120D01*
X1101Y-16120D02*
X1801Y-16120D01*
X5401Y-16120D02*
X6101Y-16120D01*
X6101Y-16120D02*
X6101Y-16820D01*
X6101Y-20420D02*
X6101Y-21120D01*
X13601Y-13621D02*
X12901Y-13621D01*
X9301Y-13621D02*
X8601Y-13621D01*
X8601Y-13621D02*
X8601Y-12921D01*
X8601Y-9321D02*
X8601Y-8621D01*
X8601Y-8621D02*
X9301Y-8621D01*
X12901Y-8621D02*
X13601Y-8621D01*
X13601Y-8621D02*
X13601Y-9321D01*
X13601Y-12921D02*
X13601Y-13621D01*
X28601Y-36122D02*
X27901Y-36122D01*
X24301Y-36122D02*
X23601Y-36122D01*
X23601Y-36122D02*
X23601Y-35422D01*
X23601Y-31822D02*
X23601Y-31122D01*
X23601Y-31122D02*
X24301Y-31122D01*
X27901Y-31122D02*
X28601Y-31122D01*
X28601Y-31122D02*
X28601Y-31822D01*
X28601Y-35422D02*
X28601Y-36122D01*
X28601Y-28622D02*
X27901Y-28622D01*
X24301Y-28622D02*
X23601Y-28622D01*
X23601Y-28622D02*
X23601Y-27922D01*
X23601Y-24322D02*
X23601Y-23622D01*
X23601Y-23622D02*
X24301Y-23622D01*
X27901Y-23622D02*
X28601Y-23622D01*
X28601Y-23622D02*
X28601Y-24322D01*
X28601Y-27922D02*
X28601Y-28622D01*
X6101Y-13621D02*
X5401Y-13621D01*
X1801Y-13621D02*
X1101Y-13621D01*
X1101Y-13621D02*
X1101Y-12921D01*
X1101Y-9321D02*
X1101Y-8621D01*
X1101Y-8621D02*
X1801Y-8621D01*
X5401Y-8621D02*
X6101Y-8621D01*
X6101Y-8621D02*
X6101Y-9321D01*
X6101Y-12921D02*
X6101Y-13621D01*
X13601Y-6121D02*
X12901Y-6121D01*
X9301Y-6121D02*
X8601Y-6121D01*
X8601Y-6121D02*
X8601Y-5421D01*
X8601Y-1821D02*
X8601Y-1121D01*
X8601Y-1121D02*
X9301Y-1121D01*
X12901Y-1121D02*
X13601Y-1121D01*
X13601Y-1121D02*
X13601Y-1821D01*
X13601Y-5421D02*
X13601Y-6121D01*
G54D14*
X24101Y-7121D02*
X24301Y-7121D01*
X27101Y-7121D02*
X26901Y-7121D01*
X26901Y-7121D02*
X26901Y-6721D01*
X26901Y-6721D02*
X24301Y-6721D01*
X24301Y-6721D02*
X24301Y-7521D01*
X24301Y-7521D02*
X26901Y-7521D01*
X26901Y-7521D02*
X26901Y-7121D01*
X14601Y-7121D02*
X14401Y-7121D01*
X11601Y-7121D02*
X11801Y-7121D01*
X11801Y-7121D02*
X11801Y-7521D01*
X11801Y-7521D02*
X14401Y-7521D01*
X14401Y-7521D02*
X14401Y-6721D01*
X14401Y-6721D02*
X11801Y-6721D01*
X11801Y-6721D02*
X11801Y-7121D01*
X22101Y-7121D02*
X21901Y-7121D01*
X19101Y-7121D02*
X19301Y-7121D01*
X19301Y-7121D02*
X19301Y-7521D01*
X19301Y-7521D02*
X21901Y-7521D01*
X21901Y-7521D02*
X21901Y-6721D01*
X21901Y-6721D02*
X19301Y-6721D01*
X19301Y-6721D02*
X19301Y-7121D01*
G54D13*
X21101Y-43622D02*
X20401Y-43622D01*
X16801Y-43622D02*
X16101Y-43622D01*
X16101Y-43622D02*
X16101Y-42922D01*
X16101Y-39322D02*
X16101Y-38622D01*
X16101Y-38622D02*
X16801Y-38622D01*
X20401Y-38622D02*
X21101Y-38622D01*
X21101Y-38622D02*
X21101Y-39322D01*
X21101Y-42922D02*
X21101Y-43622D01*
X28601Y-43622D02*
X27901Y-43622D01*
X24301Y-43622D02*
X23601Y-43622D01*
X23601Y-43622D02*
X23601Y-42922D01*
X23601Y-39322D02*
X23601Y-38622D01*
X23601Y-38622D02*
X24301Y-38622D01*
X27901Y-38622D02*
X28601Y-38622D01*
X28601Y-38622D02*
X28601Y-39322D01*
X28601Y-42922D02*
X28601Y-43622D01*
X28601Y-13622D02*
X27901Y-13622D01*
X24301Y-13622D02*
X23601Y-13622D01*
X23601Y-13622D02*
X23601Y-12922D01*
X23601Y-9322D02*
X23601Y-8622D01*
X23601Y-8622D02*
X24301Y-8622D01*
X27901Y-8622D02*
X28601Y-8622D01*
X28601Y-8622D02*
X28601Y-9322D01*
X28601Y-12922D02*
X28601Y-13622D01*
X28601Y-21122D02*
X27901Y-21122D01*
X24301Y-21122D02*
X23601Y-21122D01*
X23601Y-21122D02*
X23601Y-20422D01*
X23601Y-16822D02*
X23601Y-16122D01*
X23601Y-16122D02*
X24301Y-16122D01*
X27901Y-16122D02*
X28601Y-16122D01*
X28601Y-16122D02*
X28601Y-16822D01*
X28601Y-20422D02*
X28601Y-21122D01*
G54D15*
G36*
X4642Y-22879D02*
X4594Y-22976D01*
X4568Y-23004D01*
X4512Y-23035D01*
X4512Y-22860D01*
X4472Y-22806D01*
X4459Y-22794D01*
X4373Y-22746D01*
X4261Y-22723D01*
X4141Y-22722D01*
X4030Y-22743D01*
X3944Y-22782D01*
X3903Y-22838D01*
X3902Y-22853D01*
X3931Y-22920D01*
X4009Y-22969D01*
X4119Y-22997D01*
X4244Y-23000D01*
X4367Y-22975D01*
X4420Y-22953D01*
X4496Y-22905D01*
X4512Y-22860D01*
X4512Y-23035D01*
X4468Y-23061D01*
X4328Y-23095D01*
X4172Y-23104D01*
X4022Y-23088D01*
X3902Y-23045D01*
X3896Y-23041D01*
X3798Y-22956D01*
X3766Y-22863D01*
X3799Y-22762D01*
X3802Y-22758D01*
X3837Y-22681D01*
X3824Y-22614D01*
X3819Y-22606D01*
X3800Y-22529D01*
X3825Y-22462D01*
X3850Y-22386D01*
X3866Y-22275D01*
X3870Y-22207D01*
X3888Y-22060D01*
X3940Y-21966D01*
X4034Y-21918D01*
X4178Y-21912D01*
X4214Y-21915D01*
X4349Y-21919D01*
X4442Y-21901D01*
X4455Y-21894D01*
X4533Y-21875D01*
X4599Y-21906D01*
X4640Y-21968D01*
X4641Y-22044D01*
X4616Y-22089D01*
X4567Y-22119D01*
X4535Y-22104D01*
X4505Y-22098D01*
X4484Y-22143D01*
X4472Y-22206D01*
X4431Y-22330D01*
X4365Y-22427D01*
X4344Y-22443D01*
X4344Y-22219D01*
X4333Y-22136D01*
X4281Y-22069D01*
X4202Y-22032D01*
X4107Y-22039D01*
X4081Y-22049D01*
X4010Y-22116D01*
X3992Y-22206D01*
X4029Y-22297D01*
X4037Y-22307D01*
X4126Y-22362D01*
X4223Y-22358D01*
X4302Y-22303D01*
X4344Y-22219D01*
X4344Y-22443D01*
X4298Y-22481D01*
X4228Y-22500D01*
X4133Y-22495D01*
X4017Y-22493D01*
X3952Y-22521D01*
X3947Y-22525D01*
X3924Y-22565D01*
X3939Y-22592D01*
X4000Y-22607D01*
X4115Y-22615D01*
X4198Y-22617D01*
X4344Y-22623D01*
X4443Y-22641D01*
X4517Y-22674D01*
X4541Y-22690D01*
X4624Y-22781D01*
X4642Y-22879D01*
X4642Y-22879D01*
X4642Y-22879D01*
G37*
G36*
X10472Y-22680D02*
X10465Y-22742D01*
X10454Y-22766D01*
X10385Y-22839D01*
X10295Y-22852D01*
X10245Y-22834D01*
X10190Y-22820D01*
X10190Y-22484D01*
X10174Y-22431D01*
X10135Y-22418D01*
X10127Y-22421D01*
X10058Y-22442D01*
X9958Y-22467D01*
X9920Y-22475D01*
X9825Y-22501D01*
X9758Y-22533D01*
X9746Y-22546D01*
X9720Y-22622D01*
X9732Y-22689D01*
X9760Y-22715D01*
X9861Y-22734D01*
X9981Y-22728D01*
X10084Y-22700D01*
X10111Y-22685D01*
X10157Y-22630D01*
X10184Y-22557D01*
X10190Y-22484D01*
X10190Y-22820D01*
X10161Y-22814D01*
X10096Y-22834D01*
X9954Y-22871D01*
X9811Y-22862D01*
X9691Y-22809D01*
X9663Y-22785D01*
X9601Y-22685D01*
X9595Y-22580D01*
X9639Y-22484D01*
X9725Y-22410D01*
X9846Y-22373D01*
X9886Y-22371D01*
X9997Y-22361D01*
X10095Y-22340D01*
X10102Y-22337D01*
X10168Y-22287D01*
X10178Y-22220D01*
X10135Y-22151D01*
X10071Y-22108D01*
X9971Y-22082D01*
X9903Y-22109D01*
X9876Y-22183D01*
X9877Y-22214D01*
X9860Y-22290D01*
X9798Y-22328D01*
X9708Y-22318D01*
X9706Y-22318D01*
X9663Y-22270D01*
X9654Y-22192D01*
X9678Y-22107D01*
X9717Y-22055D01*
X9823Y-21999D01*
X9958Y-21980D01*
X10095Y-21999D01*
X10177Y-22035D01*
X10230Y-22071D01*
X10263Y-22108D01*
X10279Y-22163D01*
X10284Y-22253D01*
X10285Y-22367D01*
X10287Y-22500D01*
X10294Y-22610D01*
X10304Y-22679D01*
X10306Y-22686D01*
X10326Y-22722D01*
X10359Y-22710D01*
X10386Y-22686D01*
X10442Y-22657D01*
X10472Y-22680D01*
X10472Y-22680D01*
X10472Y-22680D01*
G37*
G36*
X5838Y-22359D02*
X5831Y-22371D01*
X5786Y-22385D01*
X5692Y-22398D01*
X5685Y-22398D01*
X5685Y-22264D01*
X5657Y-22197D01*
X5589Y-22130D01*
X5505Y-22082D01*
X5450Y-22071D01*
X5363Y-22090D01*
X5275Y-22140D01*
X5208Y-22202D01*
X5185Y-22256D01*
X5200Y-22282D01*
X5253Y-22297D01*
X5355Y-22303D01*
X5435Y-22304D01*
X5580Y-22299D01*
X5662Y-22285D01*
X5685Y-22264D01*
X5685Y-22398D01*
X5564Y-22408D01*
X5501Y-22411D01*
X5358Y-22417D01*
X5269Y-22425D01*
X5220Y-22440D01*
X5198Y-22464D01*
X5191Y-22492D01*
X5211Y-22567D01*
X5278Y-22637D01*
X5374Y-22687D01*
X5468Y-22704D01*
X5574Y-22683D01*
X5661Y-22637D01*
X5744Y-22584D01*
X5800Y-22573D01*
X5818Y-22601D01*
X5787Y-22700D01*
X5702Y-22776D01*
X5573Y-22824D01*
X5439Y-22837D01*
X5310Y-22822D01*
X5207Y-22767D01*
X5188Y-22751D01*
X5087Y-22626D01*
X5036Y-22474D01*
X5037Y-22311D01*
X5089Y-22156D01*
X5170Y-22046D01*
X5258Y-21972D01*
X5345Y-21942D01*
X5416Y-21937D01*
X5581Y-21959D01*
X5702Y-22027D01*
X5786Y-22147D01*
X5804Y-22188D01*
X5835Y-22292D01*
X5838Y-22359D01*
X5838Y-22359D01*
X5838Y-22359D01*
G37*
G36*
X6945Y-22258D02*
X6939Y-22354D01*
X6913Y-22380D01*
X6852Y-22396D01*
X6785Y-22400D01*
X6785Y-22241D01*
X6785Y-22239D01*
X6755Y-22165D01*
X6679Y-22105D01*
X6577Y-22073D01*
X6543Y-22071D01*
X6467Y-22089D01*
X6389Y-22135D01*
X6326Y-22194D01*
X6298Y-22249D01*
X6302Y-22271D01*
X6343Y-22287D01*
X6432Y-22299D01*
X6549Y-22304D01*
X6553Y-22304D01*
X6676Y-22302D01*
X6745Y-22294D01*
X6777Y-22275D01*
X6785Y-22241D01*
X6785Y-22400D01*
X6742Y-22403D01*
X6655Y-22404D01*
X6523Y-22406D01*
X6413Y-22413D01*
X6344Y-22422D01*
X6338Y-22424D01*
X6290Y-22468D01*
X6301Y-22537D01*
X6367Y-22622D01*
X6477Y-22689D01*
X6605Y-22701D01*
X6732Y-22657D01*
X6765Y-22634D01*
X6844Y-22588D01*
X6905Y-22583D01*
X6933Y-22613D01*
X6919Y-22670D01*
X6840Y-22753D01*
X6718Y-22809D01*
X6574Y-22835D01*
X6428Y-22823D01*
X6360Y-22803D01*
X6267Y-22733D01*
X6197Y-22616D01*
X6157Y-22470D01*
X6152Y-22394D01*
X6175Y-22207D01*
X6243Y-22068D01*
X6356Y-21979D01*
X6512Y-21939D01*
X6561Y-21937D01*
X6675Y-21945D01*
X6754Y-21977D01*
X6819Y-22033D01*
X6903Y-22143D01*
X6945Y-22258D01*
X6945Y-22258D01*
X6945Y-22258D01*
G37*
G36*
X8174Y-22784D02*
X8130Y-22816D01*
X8044Y-22834D01*
X7936Y-22840D01*
X7830Y-22832D01*
X7749Y-22810D01*
X7721Y-22790D01*
X7700Y-22741D01*
X7717Y-22722D01*
X7749Y-22667D01*
X7737Y-22584D01*
X7688Y-22499D01*
X7624Y-22421D01*
X7540Y-22499D01*
X7481Y-22577D01*
X7484Y-22639D01*
X7549Y-22679D01*
X7557Y-22682D01*
X7609Y-22720D01*
X7612Y-22760D01*
X7575Y-22800D01*
X7494Y-22826D01*
X7393Y-22837D01*
X7294Y-22832D01*
X7220Y-22810D01*
X7196Y-22784D01*
X7203Y-22722D01*
X7263Y-22663D01*
X7300Y-22633D01*
X7326Y-22600D01*
X7341Y-22551D01*
X7348Y-22473D01*
X7351Y-22352D01*
X7352Y-22204D01*
X7352Y-21810D01*
X7252Y-21775D01*
X7172Y-21734D01*
X7158Y-21689D01*
X7212Y-21641D01*
X7222Y-21635D01*
X7309Y-21614D01*
X7372Y-21633D01*
X7409Y-21654D01*
X7433Y-21685D01*
X7445Y-21740D01*
X7450Y-21834D01*
X7451Y-21981D01*
X7452Y-21981D01*
X7454Y-22119D01*
X7460Y-22231D01*
X7469Y-22301D01*
X7474Y-22316D01*
X7509Y-22308D01*
X7572Y-22264D01*
X7607Y-22232D01*
X7678Y-22150D01*
X7701Y-22084D01*
X7697Y-22048D01*
X7690Y-22007D01*
X7705Y-21983D01*
X7755Y-21973D01*
X7854Y-21971D01*
X7896Y-21971D01*
X8040Y-21979D01*
X8125Y-22003D01*
X8147Y-22042D01*
X8124Y-22078D01*
X8069Y-22107D01*
X7981Y-22131D01*
X7965Y-22134D01*
X7841Y-22182D01*
X7777Y-22240D01*
X7713Y-22327D01*
X7841Y-22499D01*
X7929Y-22603D01*
X8003Y-22661D01*
X8035Y-22671D01*
X8125Y-22689D01*
X8174Y-22735D01*
X8174Y-22784D01*
X8174Y-22784D01*
X8174Y-22784D01*
G37*
G36*
X9412Y-22787D02*
X9409Y-22791D01*
X9372Y-22798D01*
X9289Y-22806D01*
X9201Y-22811D01*
X9086Y-22813D01*
X9023Y-22803D01*
X8996Y-22778D01*
X8993Y-22766D01*
X9012Y-22715D01*
X9066Y-22691D01*
X9110Y-22676D01*
X9136Y-22648D01*
X9148Y-22592D01*
X9151Y-22492D01*
X9152Y-22427D01*
X9146Y-22289D01*
X9131Y-22188D01*
X9112Y-22144D01*
X9030Y-22106D01*
X8926Y-22117D01*
X8817Y-22176D01*
X8787Y-22202D01*
X8724Y-22267D01*
X8695Y-22328D01*
X8689Y-22413D01*
X8691Y-22477D01*
X8701Y-22582D01*
X8719Y-22637D01*
X8755Y-22660D01*
X8777Y-22664D01*
X8835Y-22697D01*
X8851Y-22753D01*
X8821Y-22805D01*
X8799Y-22817D01*
X8730Y-22831D01*
X8633Y-22836D01*
X8535Y-22834D01*
X8461Y-22824D01*
X8440Y-22815D01*
X8419Y-22759D01*
X8459Y-22706D01*
X8493Y-22687D01*
X8525Y-22669D01*
X8546Y-22641D01*
X8560Y-22591D01*
X8569Y-22507D01*
X8574Y-22376D01*
X8578Y-22245D01*
X8587Y-21835D01*
X8485Y-21778D01*
X8412Y-21719D01*
X8395Y-21667D01*
X8433Y-21634D01*
X8503Y-21630D01*
X8600Y-21643D01*
X8654Y-21671D01*
X8679Y-21728D01*
X8685Y-21831D01*
X8685Y-21869D01*
X8691Y-21995D01*
X8713Y-22059D01*
X8753Y-22067D01*
X8816Y-22023D01*
X8929Y-21961D01*
X9053Y-21963D01*
X9143Y-22003D01*
X9252Y-22070D01*
X9252Y-22356D01*
X9253Y-22497D01*
X9260Y-22584D01*
X9274Y-22632D01*
X9299Y-22655D01*
X9316Y-22660D01*
X9370Y-22693D01*
X9408Y-22744D01*
X9412Y-22787D01*
X9412Y-22787D01*
X9412Y-22787D01*
G37*
G36*
X11416Y-22213D02*
X11395Y-22288D01*
X11335Y-22329D01*
X11325Y-22331D01*
X11231Y-22319D01*
X11168Y-22263D01*
X11152Y-22201D01*
X11126Y-22133D01*
X11062Y-22101D01*
X10977Y-22103D01*
X10890Y-22141D01*
X10830Y-22197D01*
X10804Y-22266D01*
X10789Y-22370D01*
X10787Y-22480D01*
X10800Y-22567D01*
X10810Y-22591D01*
X10895Y-22664D01*
X11003Y-22687D01*
X11115Y-22661D01*
X11213Y-22585D01*
X11220Y-22577D01*
X11269Y-22522D01*
X11304Y-22516D01*
X11341Y-22545D01*
X11375Y-22608D01*
X11375Y-22649D01*
X11315Y-22723D01*
X11211Y-22782D01*
X11085Y-22819D01*
X10959Y-22827D01*
X10868Y-22807D01*
X10751Y-22723D01*
X10670Y-22601D01*
X10628Y-22457D01*
X10625Y-22306D01*
X10661Y-22165D01*
X10738Y-22047D01*
X10821Y-21986D01*
X10956Y-21946D01*
X11107Y-21946D01*
X11248Y-21983D01*
X11337Y-22040D01*
X11397Y-22124D01*
X11416Y-22213D01*
X11416Y-22213D01*
X11416Y-22213D01*
G37*
G36*
X12702Y-22754D02*
X12694Y-22791D01*
X12660Y-22813D01*
X12586Y-22825D01*
X12493Y-22830D01*
X12371Y-22832D01*
X12302Y-22822D01*
X12268Y-22797D01*
X12264Y-22788D01*
X12266Y-22721D01*
X12283Y-22689D01*
X12301Y-22620D01*
X12265Y-22536D01*
X12203Y-22471D01*
X12155Y-22447D01*
X12104Y-22470D01*
X12084Y-22488D01*
X12029Y-22563D01*
X12026Y-22632D01*
X12075Y-22677D01*
X12088Y-22681D01*
X12142Y-22719D01*
X12146Y-22760D01*
X12108Y-22799D01*
X12028Y-22825D01*
X11927Y-22837D01*
X11828Y-22833D01*
X11755Y-22813D01*
X11731Y-22788D01*
X11741Y-22728D01*
X11799Y-22667D01*
X11836Y-22636D01*
X11860Y-22603D01*
X11874Y-22555D01*
X11881Y-22479D01*
X11881Y-22363D01*
X11878Y-22194D01*
X11873Y-22024D01*
X11868Y-21910D01*
X11858Y-21838D01*
X11843Y-21799D01*
X11819Y-21780D01*
X11787Y-21771D01*
X11712Y-21736D01*
X11698Y-21690D01*
X11747Y-21641D01*
X11764Y-21633D01*
X11840Y-21612D01*
X11912Y-21636D01*
X11933Y-21650D01*
X11973Y-21679D01*
X11998Y-21715D01*
X12011Y-21772D01*
X12017Y-21865D01*
X12018Y-22009D01*
X12018Y-22023D01*
X12018Y-22341D01*
X12138Y-22249D01*
X12213Y-22184D01*
X12242Y-22129D01*
X12238Y-22063D01*
X12219Y-21967D01*
X12441Y-21977D01*
X12584Y-21993D01*
X12663Y-22021D01*
X12676Y-22057D01*
X12625Y-22097D01*
X12508Y-22137D01*
X12447Y-22151D01*
X12364Y-22193D01*
X12305Y-22253D01*
X12270Y-22316D01*
X12278Y-22359D01*
X12316Y-22402D01*
X12379Y-22480D01*
X12433Y-22567D01*
X12495Y-22645D01*
X12586Y-22676D01*
X12593Y-22677D01*
X12671Y-22695D01*
X12700Y-22736D01*
X12702Y-22754D01*
X12702Y-22754D01*
X12702Y-22754D01*
G37*
G54D16*
X8118Y-17008D02*
X7764Y-17008D01*
X7764Y-16873D01*
X7781Y-16839D01*
X7798Y-16822D01*
X7831Y-16805D01*
X7882Y-16805D01*
X7916Y-16822D01*
X7933Y-16839D01*
X7949Y-16873D01*
X7949Y-17008D01*
X8118Y-16468D02*
X8118Y-16670D01*
X8118Y-16569D02*
X7764Y-16569D01*
X7814Y-16603D01*
X7848Y-16637D01*
X7865Y-16670D01*
X5431Y-16900D02*
X5431Y-16545D01*
X5549Y-16799D01*
X5667Y-16545D01*
X5667Y-16900D01*
X5836Y-16900D02*
X5836Y-16545D01*
X5988Y-16883D02*
X6038Y-16900D01*
X6123Y-16900D01*
X6156Y-16883D01*
X6173Y-16866D01*
X6190Y-16832D01*
X6190Y-16799D01*
X6173Y-16765D01*
X6156Y-16748D01*
X6123Y-16731D01*
X6055Y-16714D01*
X6021Y-16697D01*
X6005Y-16680D01*
X5988Y-16647D01*
X5988Y-16613D01*
X6005Y-16579D01*
X6021Y-16562D01*
X6055Y-16545D01*
X6140Y-16545D01*
X6190Y-16562D01*
X6410Y-16545D02*
X6477Y-16545D01*
X6511Y-16562D01*
X6545Y-16596D01*
X6561Y-16664D01*
X6561Y-16782D01*
X6545Y-16849D01*
X6511Y-16883D01*
X6477Y-16900D01*
X6410Y-16900D01*
X6376Y-16883D01*
X6342Y-16849D01*
X6325Y-16782D01*
X6325Y-16664D01*
X6342Y-16596D01*
X6376Y-16562D01*
X6410Y-16545D01*
X8118Y-19008D02*
X7764Y-19008D01*
X7764Y-18873D01*
X7781Y-18839D01*
X7798Y-18822D01*
X7831Y-18805D01*
X7882Y-18805D01*
X7916Y-18822D01*
X7933Y-18839D01*
X7949Y-18873D01*
X7949Y-19008D01*
X7764Y-18687D02*
X7764Y-18468D01*
X7899Y-18586D01*
X7899Y-18535D01*
X7916Y-18502D01*
X7933Y-18485D01*
X7966Y-18468D01*
X8051Y-18468D01*
X8084Y-18485D01*
X8101Y-18502D01*
X8118Y-18535D01*
X8118Y-18637D01*
X8101Y-18670D01*
X8084Y-18687D01*
X5682Y-18883D02*
X5733Y-18900D01*
X5817Y-18900D01*
X5851Y-18883D01*
X5868Y-18866D01*
X5885Y-18832D01*
X5885Y-18799D01*
X5868Y-18765D01*
X5851Y-18748D01*
X5817Y-18731D01*
X5750Y-18714D01*
X5716Y-18697D01*
X5699Y-18680D01*
X5682Y-18647D01*
X5682Y-18613D01*
X5699Y-18579D01*
X5716Y-18562D01*
X5750Y-18545D01*
X5834Y-18545D01*
X5885Y-18562D01*
X6239Y-18866D02*
X6222Y-18883D01*
X6171Y-18900D01*
X6138Y-18900D01*
X6087Y-18883D01*
X6053Y-18849D01*
X6036Y-18815D01*
X6020Y-18748D01*
X6020Y-18697D01*
X6036Y-18630D01*
X6053Y-18596D01*
X6087Y-18562D01*
X6138Y-18545D01*
X6171Y-18545D01*
X6222Y-18562D01*
X6239Y-18579D01*
X6391Y-18900D02*
X6391Y-18545D01*
X6593Y-18900D02*
X6441Y-18697D01*
X6593Y-18545D02*
X6391Y-18748D01*
X8118Y-21008D02*
X7764Y-21008D01*
X7764Y-20873D01*
X7781Y-20839D01*
X7798Y-20822D01*
X7831Y-20805D01*
X7882Y-20805D01*
X7916Y-20822D01*
X7933Y-20839D01*
X7949Y-20873D01*
X7949Y-21008D01*
X7764Y-20485D02*
X7764Y-20654D01*
X7933Y-20670D01*
X7916Y-20654D01*
X7899Y-20620D01*
X7899Y-20535D01*
X7916Y-20502D01*
X7933Y-20485D01*
X7966Y-20468D01*
X8051Y-20468D01*
X8084Y-20485D01*
X8101Y-20502D01*
X8118Y-20535D01*
X8118Y-20620D01*
X8101Y-20654D01*
X8084Y-20670D01*
X5918Y-20900D02*
X5800Y-20731D01*
X5716Y-20900D02*
X5716Y-20545D01*
X5851Y-20545D01*
X5885Y-20562D01*
X5901Y-20579D01*
X5918Y-20613D01*
X5918Y-20664D01*
X5901Y-20697D01*
X5885Y-20714D01*
X5851Y-20731D01*
X5716Y-20731D01*
X6070Y-20714D02*
X6188Y-20714D01*
X6239Y-20900D02*
X6070Y-20900D01*
X6070Y-20545D01*
X6239Y-20545D01*
X6374Y-20883D02*
X6425Y-20900D01*
X6509Y-20900D01*
X6543Y-20883D01*
X6560Y-20866D01*
X6576Y-20832D01*
X6576Y-20799D01*
X6560Y-20765D01*
X6543Y-20748D01*
X6509Y-20731D01*
X6441Y-20714D01*
X6408Y-20697D01*
X6391Y-20680D01*
X6374Y-20647D01*
X6374Y-20613D01*
X6391Y-20579D01*
X6408Y-20562D01*
X6441Y-20545D01*
X6526Y-20545D01*
X6576Y-20562D01*
X8118Y-18008D02*
X7764Y-18008D01*
X7764Y-17873D01*
X7781Y-17839D01*
X7798Y-17822D01*
X7831Y-17805D01*
X7882Y-17805D01*
X7916Y-17822D01*
X7933Y-17839D01*
X7949Y-17873D01*
X7949Y-18008D01*
X7798Y-17670D02*
X7781Y-17654D01*
X7764Y-17620D01*
X7764Y-17535D01*
X7781Y-17502D01*
X7798Y-17485D01*
X7831Y-17468D01*
X7865Y-17468D01*
X7916Y-17485D01*
X8118Y-17687D01*
X8118Y-17468D01*
X5316Y-17545D02*
X5434Y-17900D01*
X5552Y-17545D01*
X5822Y-17883D02*
X5788Y-17900D01*
X5721Y-17900D01*
X5687Y-17883D01*
X5670Y-17866D01*
X5653Y-17832D01*
X5653Y-17731D01*
X5670Y-17697D01*
X5687Y-17680D01*
X5721Y-17664D01*
X5788Y-17664D01*
X5822Y-17680D01*
X6126Y-17883D02*
X6092Y-17900D01*
X6025Y-17900D01*
X5991Y-17883D01*
X5974Y-17866D01*
X5957Y-17832D01*
X5957Y-17731D01*
X5974Y-17697D01*
X5991Y-17680D01*
X6025Y-17664D01*
X6092Y-17664D01*
X6126Y-17680D01*
X8118Y-20008D02*
X7764Y-20008D01*
X7764Y-19873D01*
X7781Y-19839D01*
X7798Y-19822D01*
X7831Y-19805D01*
X7882Y-19805D01*
X7916Y-19822D01*
X7933Y-19839D01*
X7949Y-19873D01*
X7949Y-20008D01*
X7882Y-19502D02*
X8118Y-19502D01*
X7747Y-19586D02*
X8000Y-19670D01*
X8000Y-19451D01*
X5481Y-19900D02*
X5481Y-19545D01*
X5599Y-19799D01*
X5717Y-19545D01*
X5717Y-19900D01*
X5953Y-19545D02*
X6021Y-19545D01*
X6055Y-19562D01*
X6088Y-19596D01*
X6105Y-19664D01*
X6105Y-19782D01*
X6088Y-19849D01*
X6055Y-19883D01*
X6021Y-19900D01*
X5953Y-19900D01*
X5920Y-19883D01*
X5886Y-19849D01*
X5869Y-19782D01*
X5869Y-19664D01*
X5886Y-19596D01*
X5920Y-19562D01*
X5953Y-19545D01*
X6240Y-19883D02*
X6291Y-19900D01*
X6375Y-19900D01*
X6409Y-19883D01*
X6426Y-19866D01*
X6443Y-19832D01*
X6443Y-19799D01*
X6426Y-19765D01*
X6409Y-19748D01*
X6375Y-19731D01*
X6308Y-19714D01*
X6274Y-19697D01*
X6257Y-19680D01*
X6240Y-19647D01*
X6240Y-19613D01*
X6257Y-19579D01*
X6274Y-19562D01*
X6308Y-19545D01*
X6392Y-19545D01*
X6443Y-19562D01*
X6595Y-19900D02*
X6595Y-19545D01*
X8118Y-16008D02*
X7764Y-16008D01*
X7764Y-15873D01*
X7781Y-15839D01*
X7798Y-15822D01*
X7831Y-15805D01*
X7882Y-15805D01*
X7916Y-15822D01*
X7933Y-15839D01*
X7949Y-15873D01*
X7949Y-16008D01*
X7764Y-15502D02*
X7764Y-15569D01*
X7781Y-15603D01*
X7798Y-15620D01*
X7848Y-15654D01*
X7916Y-15670D01*
X8051Y-15670D01*
X8084Y-15654D01*
X8101Y-15637D01*
X8118Y-15603D01*
X8118Y-15535D01*
X8101Y-15502D01*
X8084Y-15485D01*
X8051Y-15468D01*
X7966Y-15468D01*
X7933Y-15485D01*
X7916Y-15502D01*
X7899Y-15535D01*
X7899Y-15603D01*
X7916Y-15637D01*
X7933Y-15654D01*
X7966Y-15670D01*
X5868Y-15562D02*
X5834Y-15545D01*
X5783Y-15545D01*
X5733Y-15562D01*
X5699Y-15596D01*
X5682Y-15630D01*
X5665Y-15697D01*
X5665Y-15748D01*
X5682Y-15815D01*
X5699Y-15849D01*
X5733Y-15883D01*
X5783Y-15900D01*
X5817Y-15900D01*
X5868Y-15883D01*
X5885Y-15866D01*
X5885Y-15748D01*
X5817Y-15748D01*
X6036Y-15900D02*
X6036Y-15545D01*
X6239Y-15900D01*
X6239Y-15545D01*
X6408Y-15900D02*
X6408Y-15545D01*
X6492Y-15545D01*
X6543Y-15562D01*
X6576Y-15596D01*
X6593Y-15630D01*
X6610Y-15697D01*
X6610Y-15748D01*
X6593Y-15815D01*
X6576Y-15849D01*
X6543Y-15883D01*
X6492Y-15900D01*
X6408Y-15900D01*
G54D17*
X2858Y-40050D02*
X2944Y-40074D01*
X3087Y-40074D01*
X3144Y-40050D01*
X3172Y-40026D01*
X3201Y-39979D01*
X3201Y-39931D01*
X3172Y-39883D01*
X3144Y-39860D01*
X3087Y-39836D01*
X2972Y-39812D01*
X2915Y-39788D01*
X2887Y-39764D01*
X2858Y-39717D01*
X2858Y-39669D01*
X2887Y-39622D01*
X2915Y-39598D01*
X2972Y-39574D01*
X3115Y-39574D01*
X3201Y-39598D01*
X3429Y-39622D02*
X3458Y-39598D01*
X3515Y-39574D01*
X3658Y-39574D01*
X3715Y-39598D01*
X3744Y-39622D01*
X3772Y-39669D01*
X3772Y-39717D01*
X3744Y-39788D01*
X3401Y-40074D01*
X3772Y-40074D01*
X4344Y-40074D02*
X4001Y-40074D01*
X4172Y-40074D02*
X4172Y-39574D01*
X4115Y-39645D01*
X4058Y-39693D01*
X4001Y-39717D01*
X17858Y-25049D02*
X17944Y-25073D01*
X18087Y-25073D01*
X18144Y-25049D01*
X18173Y-25025D01*
X18201Y-24978D01*
X18201Y-24930D01*
X18173Y-24882D01*
X18144Y-24858D01*
X18087Y-24835D01*
X17973Y-24811D01*
X17915Y-24787D01*
X17887Y-24763D01*
X17858Y-24716D01*
X17858Y-24668D01*
X17887Y-24620D01*
X17915Y-24597D01*
X17973Y-24573D01*
X18115Y-24573D01*
X18201Y-24597D01*
X18773Y-25073D02*
X18430Y-25073D01*
X18601Y-25073D02*
X18601Y-24573D01*
X18544Y-24644D01*
X18487Y-24692D01*
X18430Y-24716D01*
X19287Y-24739D02*
X19287Y-25073D01*
X19144Y-24549D02*
X19001Y-24906D01*
X19373Y-24906D01*
X17858Y-10049D02*
X17944Y-10073D01*
X18087Y-10073D01*
X18144Y-10049D01*
X18173Y-10025D01*
X18201Y-9978D01*
X18201Y-9930D01*
X18173Y-9882D01*
X18144Y-9859D01*
X18087Y-9835D01*
X17973Y-9811D01*
X17915Y-9787D01*
X17887Y-9763D01*
X17858Y-9716D01*
X17858Y-9668D01*
X17887Y-9621D01*
X17915Y-9597D01*
X17973Y-9573D01*
X18115Y-9573D01*
X18201Y-9597D01*
X18773Y-10073D02*
X18430Y-10073D01*
X18601Y-10073D02*
X18601Y-9573D01*
X18544Y-9644D01*
X18487Y-9692D01*
X18430Y-9716D01*
X19001Y-9621D02*
X19030Y-9597D01*
X19087Y-9573D01*
X19230Y-9573D01*
X19287Y-9597D01*
X19315Y-9621D01*
X19344Y-9668D01*
X19344Y-9716D01*
X19315Y-9787D01*
X18973Y-10073D01*
X19344Y-10073D01*
X25358Y-2550D02*
X25444Y-2574D01*
X25587Y-2574D01*
X25644Y-2550D01*
X25673Y-2526D01*
X25701Y-2479D01*
X25701Y-2431D01*
X25673Y-2383D01*
X25644Y-2360D01*
X25587Y-2336D01*
X25473Y-2312D01*
X25415Y-2288D01*
X25387Y-2264D01*
X25358Y-2217D01*
X25358Y-2169D01*
X25387Y-2122D01*
X25415Y-2098D01*
X25473Y-2074D01*
X25615Y-2074D01*
X25701Y-2098D01*
X26273Y-2574D02*
X25930Y-2574D01*
X26101Y-2574D02*
X26101Y-2074D01*
X26044Y-2145D01*
X25987Y-2193D01*
X25930Y-2217D01*
X26787Y-2074D02*
X26673Y-2074D01*
X26615Y-2098D01*
X26587Y-2122D01*
X26530Y-2193D01*
X26501Y-2288D01*
X26501Y-2479D01*
X26530Y-2526D01*
X26558Y-2550D01*
X26615Y-2574D01*
X26730Y-2574D01*
X26787Y-2550D01*
X26815Y-2526D01*
X26844Y-2479D01*
X26844Y-2360D01*
X26815Y-2312D01*
X26787Y-2288D01*
X26730Y-2264D01*
X26615Y-2264D01*
X26558Y-2288D01*
X26530Y-2312D01*
X26501Y-2360D01*
X17858Y-2550D02*
X17944Y-2574D01*
X18087Y-2574D01*
X18144Y-2550D01*
X18173Y-2526D01*
X18201Y-2479D01*
X18201Y-2431D01*
X18173Y-2383D01*
X18144Y-2360D01*
X18087Y-2336D01*
X17973Y-2312D01*
X17915Y-2288D01*
X17887Y-2264D01*
X17858Y-2217D01*
X17858Y-2169D01*
X17887Y-2122D01*
X17915Y-2098D01*
X17973Y-2074D01*
X18115Y-2074D01*
X18201Y-2098D01*
X18773Y-2574D02*
X18430Y-2574D01*
X18601Y-2574D02*
X18601Y-2074D01*
X18544Y-2145D01*
X18487Y-2193D01*
X18430Y-2217D01*
X19344Y-2574D02*
X19001Y-2574D01*
X19173Y-2574D02*
X19173Y-2074D01*
X19115Y-2145D01*
X19058Y-2193D01*
X19001Y-2217D01*
X17858Y-17549D02*
X17944Y-17573D01*
X18087Y-17573D01*
X18144Y-17549D01*
X18173Y-17525D01*
X18201Y-17478D01*
X18201Y-17430D01*
X18173Y-17382D01*
X18144Y-17358D01*
X18087Y-17335D01*
X17973Y-17311D01*
X17915Y-17287D01*
X17887Y-17263D01*
X17858Y-17216D01*
X17858Y-17168D01*
X17887Y-17120D01*
X17915Y-17097D01*
X17973Y-17073D01*
X18115Y-17073D01*
X18201Y-17097D01*
X18773Y-17573D02*
X18430Y-17573D01*
X18601Y-17573D02*
X18601Y-17073D01*
X18544Y-17144D01*
X18487Y-17192D01*
X18430Y-17216D01*
X18973Y-17073D02*
X19344Y-17073D01*
X19144Y-17263D01*
X19230Y-17263D01*
X19287Y-17287D01*
X19315Y-17311D01*
X19344Y-17358D01*
X19344Y-17478D01*
X19315Y-17525D01*
X19287Y-17549D01*
X19230Y-17573D01*
X19058Y-17573D01*
X19001Y-17549D01*
X18973Y-17525D01*
X10358Y-40050D02*
X10444Y-40074D01*
X10587Y-40074D01*
X10644Y-40050D01*
X10672Y-40026D01*
X10701Y-39979D01*
X10701Y-39931D01*
X10672Y-39883D01*
X10644Y-39860D01*
X10587Y-39836D01*
X10472Y-39812D01*
X10415Y-39788D01*
X10387Y-39764D01*
X10358Y-39717D01*
X10358Y-39669D01*
X10387Y-39622D01*
X10415Y-39598D01*
X10472Y-39574D01*
X10615Y-39574D01*
X10701Y-39598D01*
X10929Y-39622D02*
X10958Y-39598D01*
X11015Y-39574D01*
X11158Y-39574D01*
X11215Y-39598D01*
X11244Y-39622D01*
X11272Y-39669D01*
X11272Y-39717D01*
X11244Y-39788D01*
X10901Y-40074D01*
X11272Y-40074D01*
X11501Y-39622D02*
X11529Y-39598D01*
X11587Y-39574D01*
X11729Y-39574D01*
X11787Y-39598D01*
X11815Y-39622D01*
X11844Y-39669D01*
X11844Y-39717D01*
X11815Y-39788D01*
X11472Y-40074D01*
X11844Y-40074D01*
X3144Y-2549D02*
X3229Y-2573D01*
X3372Y-2573D01*
X3429Y-2549D01*
X3458Y-2525D01*
X3487Y-2478D01*
X3487Y-2430D01*
X3458Y-2382D01*
X3429Y-2359D01*
X3372Y-2335D01*
X3258Y-2311D01*
X3201Y-2287D01*
X3172Y-2263D01*
X3144Y-2216D01*
X3144Y-2168D01*
X3172Y-2121D01*
X3201Y-2097D01*
X3258Y-2073D01*
X3401Y-2073D01*
X3487Y-2097D01*
X4058Y-2573D02*
X3715Y-2573D01*
X3887Y-2573D02*
X3887Y-2073D01*
X3829Y-2144D01*
X3772Y-2192D01*
X3715Y-2216D01*
X3144Y-25049D02*
X3229Y-25073D01*
X3372Y-25073D01*
X3429Y-25049D01*
X3458Y-25025D01*
X3487Y-24978D01*
X3487Y-24930D01*
X3458Y-24882D01*
X3429Y-24858D01*
X3372Y-24835D01*
X3258Y-24811D01*
X3201Y-24787D01*
X3172Y-24763D01*
X3144Y-24716D01*
X3144Y-24668D01*
X3172Y-24620D01*
X3201Y-24597D01*
X3258Y-24573D01*
X3401Y-24573D01*
X3487Y-24597D01*
X4001Y-24739D02*
X4001Y-25073D01*
X3858Y-24549D02*
X3715Y-24906D01*
X4087Y-24906D01*
X10644Y-25049D02*
X10729Y-25073D01*
X10872Y-25073D01*
X10929Y-25049D01*
X10958Y-25025D01*
X10987Y-24978D01*
X10987Y-24930D01*
X10958Y-24882D01*
X10929Y-24858D01*
X10872Y-24835D01*
X10758Y-24811D01*
X10701Y-24787D01*
X10672Y-24763D01*
X10644Y-24716D01*
X10644Y-24668D01*
X10672Y-24620D01*
X10701Y-24597D01*
X10758Y-24573D01*
X10901Y-24573D01*
X10987Y-24597D01*
X11272Y-25073D02*
X11387Y-25073D01*
X11444Y-25049D01*
X11472Y-25025D01*
X11529Y-24954D01*
X11558Y-24858D01*
X11558Y-24668D01*
X11529Y-24620D01*
X11501Y-24597D01*
X11444Y-24573D01*
X11329Y-24573D01*
X11272Y-24597D01*
X11244Y-24620D01*
X11215Y-24668D01*
X11215Y-24787D01*
X11244Y-24835D01*
X11272Y-24858D01*
X11329Y-24882D01*
X11444Y-24882D01*
X11501Y-24858D01*
X11529Y-24835D01*
X11558Y-24787D01*
X10358Y-32549D02*
X10444Y-32573D01*
X10587Y-32573D01*
X10644Y-32549D01*
X10672Y-32525D01*
X10701Y-32478D01*
X10701Y-32430D01*
X10672Y-32382D01*
X10644Y-32358D01*
X10587Y-32335D01*
X10472Y-32311D01*
X10415Y-32287D01*
X10387Y-32263D01*
X10358Y-32216D01*
X10358Y-32168D01*
X10387Y-32120D01*
X10415Y-32097D01*
X10472Y-32073D01*
X10615Y-32073D01*
X10701Y-32097D01*
X11272Y-32573D02*
X10929Y-32573D01*
X11101Y-32573D02*
X11101Y-32073D01*
X11044Y-32144D01*
X10987Y-32192D01*
X10929Y-32216D01*
X11644Y-32073D02*
X11701Y-32073D01*
X11758Y-32097D01*
X11787Y-32120D01*
X11815Y-32168D01*
X11844Y-32263D01*
X11844Y-32382D01*
X11815Y-32478D01*
X11787Y-32525D01*
X11758Y-32549D01*
X11701Y-32573D01*
X11644Y-32573D01*
X11587Y-32549D01*
X11558Y-32525D01*
X11529Y-32478D01*
X11501Y-32382D01*
X11501Y-32263D01*
X11529Y-32168D01*
X11558Y-32120D01*
X11587Y-32097D01*
X11644Y-32073D01*
X17858Y-32549D02*
X17944Y-32573D01*
X18087Y-32573D01*
X18144Y-32549D01*
X18173Y-32525D01*
X18201Y-32478D01*
X18201Y-32430D01*
X18173Y-32382D01*
X18144Y-32358D01*
X18087Y-32335D01*
X17973Y-32311D01*
X17915Y-32287D01*
X17887Y-32263D01*
X17858Y-32216D01*
X17858Y-32168D01*
X17887Y-32120D01*
X17915Y-32097D01*
X17973Y-32073D01*
X18115Y-32073D01*
X18201Y-32097D01*
X18773Y-32573D02*
X18430Y-32573D01*
X18601Y-32573D02*
X18601Y-32073D01*
X18544Y-32144D01*
X18487Y-32192D01*
X18430Y-32216D01*
X19315Y-32073D02*
X19030Y-32073D01*
X19001Y-32311D01*
X19030Y-32287D01*
X19087Y-32263D01*
X19230Y-32263D01*
X19287Y-32287D01*
X19315Y-32311D01*
X19344Y-32358D01*
X19344Y-32478D01*
X19315Y-32525D01*
X19287Y-32549D01*
X19230Y-32573D01*
X19087Y-32573D01*
X19030Y-32549D01*
X19001Y-32525D01*
X3144Y-32549D02*
X3229Y-32573D01*
X3372Y-32573D01*
X3429Y-32549D01*
X3458Y-32525D01*
X3487Y-32478D01*
X3487Y-32430D01*
X3458Y-32382D01*
X3429Y-32358D01*
X3372Y-32335D01*
X3258Y-32311D01*
X3201Y-32287D01*
X3172Y-32263D01*
X3144Y-32216D01*
X3144Y-32168D01*
X3172Y-32120D01*
X3201Y-32097D01*
X3258Y-32073D01*
X3401Y-32073D01*
X3487Y-32097D01*
X4029Y-32073D02*
X3744Y-32073D01*
X3715Y-32311D01*
X3744Y-32287D01*
X3801Y-32263D01*
X3944Y-32263D01*
X4001Y-32287D01*
X4029Y-32311D01*
X4058Y-32358D01*
X4058Y-32478D01*
X4029Y-32525D01*
X4001Y-32549D01*
X3944Y-32573D01*
X3801Y-32573D01*
X3744Y-32549D01*
X3715Y-32525D01*
X10644Y-17549D02*
X10729Y-17573D01*
X10872Y-17573D01*
X10929Y-17549D01*
X10958Y-17525D01*
X10987Y-17478D01*
X10987Y-17430D01*
X10958Y-17382D01*
X10929Y-17358D01*
X10872Y-17335D01*
X10758Y-17311D01*
X10701Y-17287D01*
X10672Y-17263D01*
X10644Y-17216D01*
X10644Y-17168D01*
X10672Y-17120D01*
X10701Y-17097D01*
X10758Y-17073D01*
X10901Y-17073D01*
X10987Y-17097D01*
X11329Y-17287D02*
X11272Y-17263D01*
X11244Y-17239D01*
X11215Y-17192D01*
X11215Y-17168D01*
X11244Y-17120D01*
X11272Y-17097D01*
X11329Y-17073D01*
X11444Y-17073D01*
X11501Y-17097D01*
X11529Y-17120D01*
X11558Y-17168D01*
X11558Y-17192D01*
X11529Y-17239D01*
X11501Y-17263D01*
X11444Y-17287D01*
X11329Y-17287D01*
X11272Y-17311D01*
X11244Y-17335D01*
X11215Y-17382D01*
X11215Y-17478D01*
X11244Y-17525D01*
X11272Y-17549D01*
X11329Y-17573D01*
X11444Y-17573D01*
X11501Y-17549D01*
X11529Y-17525D01*
X11558Y-17478D01*
X11558Y-17382D01*
X11529Y-17335D01*
X11501Y-17311D01*
X11444Y-17287D01*
X3144Y-17549D02*
X3229Y-17573D01*
X3372Y-17573D01*
X3429Y-17549D01*
X3458Y-17525D01*
X3487Y-17478D01*
X3487Y-17430D01*
X3458Y-17382D01*
X3429Y-17358D01*
X3372Y-17335D01*
X3258Y-17311D01*
X3201Y-17287D01*
X3172Y-17263D01*
X3144Y-17216D01*
X3144Y-17168D01*
X3172Y-17120D01*
X3201Y-17097D01*
X3258Y-17073D01*
X3401Y-17073D01*
X3487Y-17097D01*
X3687Y-17073D02*
X4058Y-17073D01*
X3858Y-17263D01*
X3944Y-17263D01*
X4001Y-17287D01*
X4029Y-17311D01*
X4058Y-17358D01*
X4058Y-17478D01*
X4029Y-17525D01*
X4001Y-17549D01*
X3944Y-17573D01*
X3772Y-17573D01*
X3715Y-17549D01*
X3687Y-17525D01*
X10644Y-10049D02*
X10729Y-10073D01*
X10872Y-10073D01*
X10929Y-10049D01*
X10958Y-10025D01*
X10987Y-9978D01*
X10987Y-9930D01*
X10958Y-9882D01*
X10929Y-9859D01*
X10872Y-9835D01*
X10758Y-9811D01*
X10701Y-9787D01*
X10672Y-9763D01*
X10644Y-9716D01*
X10644Y-9668D01*
X10672Y-9621D01*
X10701Y-9597D01*
X10758Y-9573D01*
X10901Y-9573D01*
X10987Y-9597D01*
X11187Y-9573D02*
X11587Y-9573D01*
X11329Y-10073D01*
X25358Y-32550D02*
X25444Y-32574D01*
X25587Y-32574D01*
X25644Y-32550D01*
X25673Y-32526D01*
X25701Y-32479D01*
X25701Y-32431D01*
X25673Y-32383D01*
X25644Y-32360D01*
X25587Y-32336D01*
X25473Y-32312D01*
X25415Y-32288D01*
X25387Y-32264D01*
X25358Y-32217D01*
X25358Y-32169D01*
X25387Y-32122D01*
X25415Y-32098D01*
X25473Y-32074D01*
X25615Y-32074D01*
X25701Y-32098D01*
X25930Y-32122D02*
X25958Y-32098D01*
X26015Y-32074D01*
X26158Y-32074D01*
X26215Y-32098D01*
X26244Y-32122D01*
X26273Y-32169D01*
X26273Y-32217D01*
X26244Y-32288D01*
X25901Y-32574D01*
X26273Y-32574D01*
X26644Y-32074D02*
X26701Y-32074D01*
X26758Y-32098D01*
X26787Y-32122D01*
X26815Y-32169D01*
X26844Y-32264D01*
X26844Y-32383D01*
X26815Y-32479D01*
X26787Y-32526D01*
X26758Y-32550D01*
X26701Y-32574D01*
X26644Y-32574D01*
X26587Y-32550D01*
X26558Y-32526D01*
X26530Y-32479D01*
X26501Y-32383D01*
X26501Y-32264D01*
X26530Y-32169D01*
X26558Y-32122D01*
X26587Y-32098D01*
X26644Y-32074D01*
X25358Y-25050D02*
X25444Y-25074D01*
X25587Y-25074D01*
X25644Y-25050D01*
X25673Y-25026D01*
X25701Y-24979D01*
X25701Y-24931D01*
X25673Y-24883D01*
X25644Y-24860D01*
X25587Y-24836D01*
X25473Y-24812D01*
X25415Y-24788D01*
X25387Y-24764D01*
X25358Y-24717D01*
X25358Y-24669D01*
X25387Y-24622D01*
X25415Y-24598D01*
X25473Y-24574D01*
X25615Y-24574D01*
X25701Y-24598D01*
X26273Y-25074D02*
X25930Y-25074D01*
X26101Y-25074D02*
X26101Y-24574D01*
X26044Y-24645D01*
X25987Y-24693D01*
X25930Y-24717D01*
X26558Y-25074D02*
X26673Y-25074D01*
X26730Y-25050D01*
X26758Y-25026D01*
X26815Y-24955D01*
X26844Y-24860D01*
X26844Y-24669D01*
X26815Y-24622D01*
X26787Y-24598D01*
X26730Y-24574D01*
X26615Y-24574D01*
X26558Y-24598D01*
X26530Y-24622D01*
X26501Y-24669D01*
X26501Y-24788D01*
X26530Y-24836D01*
X26558Y-24860D01*
X26615Y-24883D01*
X26730Y-24883D01*
X26787Y-24860D01*
X26815Y-24836D01*
X26844Y-24788D01*
X3144Y-10049D02*
X3229Y-10073D01*
X3372Y-10073D01*
X3429Y-10049D01*
X3458Y-10025D01*
X3487Y-9978D01*
X3487Y-9930D01*
X3458Y-9882D01*
X3429Y-9859D01*
X3372Y-9835D01*
X3258Y-9811D01*
X3201Y-9787D01*
X3172Y-9763D01*
X3144Y-9716D01*
X3144Y-9668D01*
X3172Y-9621D01*
X3201Y-9597D01*
X3258Y-9573D01*
X3401Y-9573D01*
X3487Y-9597D01*
X3715Y-9621D02*
X3744Y-9597D01*
X3801Y-9573D01*
X3944Y-9573D01*
X4001Y-9597D01*
X4029Y-9621D01*
X4058Y-9668D01*
X4058Y-9716D01*
X4029Y-9787D01*
X3687Y-10073D01*
X4058Y-10073D01*
X10644Y-2549D02*
X10729Y-2573D01*
X10872Y-2573D01*
X10929Y-2549D01*
X10958Y-2525D01*
X10987Y-2478D01*
X10987Y-2430D01*
X10958Y-2382D01*
X10929Y-2359D01*
X10872Y-2335D01*
X10758Y-2311D01*
X10701Y-2287D01*
X10672Y-2263D01*
X10644Y-2216D01*
X10644Y-2168D01*
X10672Y-2121D01*
X10701Y-2097D01*
X10758Y-2073D01*
X10901Y-2073D01*
X10987Y-2097D01*
X11501Y-2073D02*
X11387Y-2073D01*
X11329Y-2097D01*
X11301Y-2121D01*
X11244Y-2192D01*
X11215Y-2287D01*
X11215Y-2478D01*
X11244Y-2525D01*
X11272Y-2549D01*
X11329Y-2573D01*
X11444Y-2573D01*
X11501Y-2549D01*
X11529Y-2525D01*
X11558Y-2478D01*
X11558Y-2359D01*
X11529Y-2311D01*
X11501Y-2287D01*
X11444Y-2263D01*
X11329Y-2263D01*
X11272Y-2287D01*
X11244Y-2311D01*
X11215Y-2359D01*
X6608Y-32550D02*
X6694Y-32574D01*
X6837Y-32574D01*
X6894Y-32550D01*
X6922Y-32526D01*
X6951Y-32479D01*
X6951Y-32431D01*
X6922Y-32383D01*
X6894Y-32360D01*
X6837Y-32336D01*
X6722Y-32312D01*
X6665Y-32288D01*
X6637Y-32264D01*
X6608Y-32217D01*
X6608Y-32169D01*
X6637Y-32122D01*
X6665Y-32098D01*
X6722Y-32074D01*
X6865Y-32074D01*
X6951Y-32098D01*
X7494Y-32074D02*
X7208Y-32074D01*
X7179Y-32312D01*
X7208Y-32288D01*
X7265Y-32264D01*
X7408Y-32264D01*
X7465Y-32288D01*
X7494Y-32312D01*
X7522Y-32360D01*
X7522Y-32479D01*
X7494Y-32526D01*
X7465Y-32550D01*
X7408Y-32574D01*
X7265Y-32574D01*
X7208Y-32550D01*
X7179Y-32526D01*
X8094Y-32574D02*
X7751Y-32574D01*
X7922Y-32574D02*
X7922Y-32074D01*
X7865Y-32145D01*
X7808Y-32193D01*
X7751Y-32217D01*
X25030Y-30900D02*
X25053Y-30814D01*
X25053Y-30672D01*
X25030Y-30614D01*
X25006Y-30586D01*
X24958Y-30557D01*
X24911Y-30557D01*
X24863Y-30586D01*
X24839Y-30614D01*
X24815Y-30672D01*
X24792Y-30786D01*
X24768Y-30843D01*
X24744Y-30872D01*
X24696Y-30900D01*
X24649Y-30900D01*
X24601Y-30872D01*
X24577Y-30843D01*
X24553Y-30786D01*
X24553Y-30643D01*
X24577Y-30557D01*
X25053Y-29986D02*
X25053Y-30329D01*
X25053Y-30157D02*
X24553Y-30157D01*
X24625Y-30214D01*
X24673Y-30272D01*
X24696Y-30329D01*
X25053Y-29700D02*
X25053Y-29586D01*
X25030Y-29529D01*
X25006Y-29500D01*
X24934Y-29443D01*
X24839Y-29414D01*
X24649Y-29414D01*
X24601Y-29443D01*
X24577Y-29472D01*
X24553Y-29529D01*
X24553Y-29643D01*
X24577Y-29700D01*
X24601Y-29729D01*
X24649Y-29757D01*
X24768Y-29757D01*
X24815Y-29729D01*
X24839Y-29700D01*
X24863Y-29643D01*
X24863Y-29529D01*
X24839Y-29472D01*
X24815Y-29443D01*
X24768Y-29414D01*
X25053Y-28843D02*
X25053Y-29186D01*
X25053Y-29014D02*
X24553Y-29014D01*
X24625Y-29072D01*
X24673Y-29129D01*
X24696Y-29186D01*
X25030Y-15900D02*
X25053Y-15814D01*
X25053Y-15672D01*
X25030Y-15614D01*
X25006Y-15586D01*
X24958Y-15557D01*
X24911Y-15557D01*
X24863Y-15586D01*
X24839Y-15614D01*
X24815Y-15672D01*
X24792Y-15786D01*
X24768Y-15843D01*
X24744Y-15872D01*
X24696Y-15900D01*
X24649Y-15900D01*
X24601Y-15872D01*
X24577Y-15843D01*
X24553Y-15786D01*
X24553Y-15643D01*
X24577Y-15557D01*
X25053Y-14986D02*
X25053Y-15329D01*
X25053Y-15157D02*
X24553Y-15157D01*
X24625Y-15214D01*
X24673Y-15272D01*
X24696Y-15329D01*
X24553Y-14786D02*
X24553Y-14386D01*
X25053Y-14643D01*
X25053Y-13843D02*
X25053Y-14186D01*
X25053Y-14014D02*
X24553Y-14014D01*
X24625Y-14072D01*
X24673Y-14129D01*
X24696Y-14186D01*
X17858Y-40050D02*
X17944Y-40074D01*
X18087Y-40074D01*
X18144Y-40050D01*
X18173Y-40026D01*
X18201Y-39979D01*
X18201Y-39931D01*
X18173Y-39883D01*
X18144Y-39860D01*
X18087Y-39836D01*
X17973Y-39812D01*
X17915Y-39788D01*
X17887Y-39764D01*
X17858Y-39717D01*
X17858Y-39669D01*
X17887Y-39622D01*
X17915Y-39598D01*
X17973Y-39574D01*
X18115Y-39574D01*
X18201Y-39598D01*
X18430Y-39622D02*
X18458Y-39598D01*
X18515Y-39574D01*
X18658Y-39574D01*
X18715Y-39598D01*
X18744Y-39622D01*
X18773Y-39669D01*
X18773Y-39717D01*
X18744Y-39788D01*
X18401Y-40074D01*
X18773Y-40074D01*
X18973Y-39574D02*
X19344Y-39574D01*
X19144Y-39764D01*
X19230Y-39764D01*
X19287Y-39788D01*
X19315Y-39812D01*
X19344Y-39860D01*
X19344Y-39979D01*
X19315Y-40026D01*
X19287Y-40050D01*
X19230Y-40074D01*
X19058Y-40074D01*
X19001Y-40050D01*
X18973Y-40026D01*
X25358Y-40050D02*
X25444Y-40074D01*
X25587Y-40074D01*
X25644Y-40050D01*
X25673Y-40026D01*
X25701Y-39979D01*
X25701Y-39931D01*
X25673Y-39883D01*
X25644Y-39860D01*
X25587Y-39836D01*
X25473Y-39812D01*
X25415Y-39788D01*
X25387Y-39764D01*
X25358Y-39717D01*
X25358Y-39669D01*
X25387Y-39622D01*
X25415Y-39598D01*
X25473Y-39574D01*
X25615Y-39574D01*
X25701Y-39598D01*
X25930Y-39622D02*
X25958Y-39598D01*
X26015Y-39574D01*
X26158Y-39574D01*
X26215Y-39598D01*
X26244Y-39622D01*
X26273Y-39669D01*
X26273Y-39717D01*
X26244Y-39788D01*
X25901Y-40074D01*
X26273Y-40074D01*
X26787Y-39741D02*
X26787Y-40074D01*
X26644Y-39550D02*
X26501Y-39907D01*
X26873Y-39907D01*
X25358Y-10050D02*
X25444Y-10074D01*
X25587Y-10074D01*
X25644Y-10050D01*
X25673Y-10026D01*
X25701Y-9979D01*
X25701Y-9931D01*
X25673Y-9883D01*
X25644Y-9860D01*
X25587Y-9836D01*
X25473Y-9812D01*
X25415Y-9788D01*
X25387Y-9764D01*
X25358Y-9717D01*
X25358Y-9669D01*
X25387Y-9622D01*
X25415Y-9598D01*
X25473Y-9574D01*
X25615Y-9574D01*
X25701Y-9598D01*
X26273Y-10074D02*
X25930Y-10074D01*
X26101Y-10074D02*
X26101Y-9574D01*
X26044Y-9645D01*
X25987Y-9693D01*
X25930Y-9717D01*
X26473Y-9574D02*
X26873Y-9574D01*
X26615Y-10074D01*
X25358Y-17550D02*
X25444Y-17574D01*
X25587Y-17574D01*
X25644Y-17550D01*
X25673Y-17526D01*
X25701Y-17479D01*
X25701Y-17431D01*
X25673Y-17383D01*
X25644Y-17360D01*
X25587Y-17336D01*
X25473Y-17312D01*
X25415Y-17288D01*
X25387Y-17264D01*
X25358Y-17217D01*
X25358Y-17169D01*
X25387Y-17122D01*
X25415Y-17098D01*
X25473Y-17074D01*
X25615Y-17074D01*
X25701Y-17098D01*
X26273Y-17574D02*
X25930Y-17574D01*
X26101Y-17574D02*
X26101Y-17074D01*
X26044Y-17145D01*
X25987Y-17193D01*
X25930Y-17217D01*
X26615Y-17288D02*
X26558Y-17264D01*
X26530Y-17241D01*
X26501Y-17193D01*
X26501Y-17169D01*
X26530Y-17122D01*
X26558Y-17098D01*
X26615Y-17074D01*
X26730Y-17074D01*
X26787Y-17098D01*
X26815Y-17122D01*
X26844Y-17169D01*
X26844Y-17193D01*
X26815Y-17241D01*
X26787Y-17264D01*
X26730Y-17288D01*
X26615Y-17288D01*
X26558Y-17312D01*
X26530Y-17336D01*
X26501Y-17383D01*
X26501Y-17479D01*
X26530Y-17526D01*
X26558Y-17550D01*
X26615Y-17574D01*
X26730Y-17574D01*
X26787Y-17550D01*
X26815Y-17526D01*
X26844Y-17479D01*
X26844Y-17383D01*
X26815Y-17336D01*
X26787Y-17312D01*
X26730Y-17288D01*
X6322Y-40050D02*
X6408Y-40074D01*
X6551Y-40074D01*
X6608Y-40050D01*
X6637Y-40026D01*
X6665Y-39979D01*
X6665Y-39931D01*
X6637Y-39883D01*
X6608Y-39860D01*
X6551Y-39836D01*
X6437Y-39812D01*
X6379Y-39788D01*
X6351Y-39764D01*
X6322Y-39717D01*
X6322Y-39669D01*
X6351Y-39622D01*
X6379Y-39598D01*
X6437Y-39574D01*
X6579Y-39574D01*
X6665Y-39598D01*
X6894Y-39622D02*
X6922Y-39598D01*
X6979Y-39574D01*
X7122Y-39574D01*
X7179Y-39598D01*
X7208Y-39622D01*
X7237Y-39669D01*
X7237Y-39717D01*
X7208Y-39788D01*
X6865Y-40074D01*
X7237Y-40074D01*
X7808Y-40074D02*
X7465Y-40074D01*
X7637Y-40074D02*
X7637Y-39574D01*
X7579Y-39645D01*
X7522Y-39693D01*
X7465Y-39717D01*
X8379Y-40074D02*
X8037Y-40074D01*
X8208Y-40074D02*
X8208Y-39574D01*
X8151Y-39645D01*
X8094Y-39693D01*
X8037Y-39717D01*
X25030Y-23400D02*
X25053Y-23314D01*
X25053Y-23172D01*
X25030Y-23114D01*
X25006Y-23086D01*
X24958Y-23057D01*
X24911Y-23057D01*
X24863Y-23086D01*
X24839Y-23114D01*
X24815Y-23172D01*
X24792Y-23286D01*
X24768Y-23343D01*
X24744Y-23372D01*
X24696Y-23400D01*
X24649Y-23400D01*
X24601Y-23372D01*
X24577Y-23343D01*
X24553Y-23286D01*
X24553Y-23143D01*
X24577Y-23057D01*
X25053Y-22486D02*
X25053Y-22829D01*
X25053Y-22657D02*
X24553Y-22657D01*
X24625Y-22714D01*
X24673Y-22772D01*
X24696Y-22829D01*
X24768Y-22143D02*
X24744Y-22200D01*
X24720Y-22229D01*
X24673Y-22257D01*
X24649Y-22257D01*
X24601Y-22229D01*
X24577Y-22200D01*
X24553Y-22143D01*
X24553Y-22029D01*
X24577Y-21972D01*
X24601Y-21943D01*
X24649Y-21914D01*
X24673Y-21914D01*
X24720Y-21943D01*
X24744Y-21972D01*
X24768Y-22029D01*
X24768Y-22143D01*
X24792Y-22200D01*
X24815Y-22229D01*
X24863Y-22257D01*
X24958Y-22257D01*
X25006Y-22229D01*
X25030Y-22200D01*
X25053Y-22143D01*
X25053Y-22029D01*
X25030Y-21972D01*
X25006Y-21943D01*
X24958Y-21914D01*
X24863Y-21914D01*
X24815Y-21943D01*
X24792Y-21972D01*
X24768Y-22029D01*
X25053Y-21343D02*
X25053Y-21686D01*
X25053Y-21514D02*
X24553Y-21514D01*
X24625Y-21572D01*
X24673Y-21629D01*
X24696Y-21686D01*
X25030Y-38400D02*
X25053Y-38314D01*
X25053Y-38172D01*
X25030Y-38114D01*
X25006Y-38086D01*
X24958Y-38057D01*
X24911Y-38057D01*
X24863Y-38086D01*
X24839Y-38114D01*
X24815Y-38172D01*
X24792Y-38286D01*
X24768Y-38343D01*
X24744Y-38372D01*
X24696Y-38400D01*
X24649Y-38400D01*
X24601Y-38372D01*
X24577Y-38343D01*
X24553Y-38286D01*
X24553Y-38143D01*
X24577Y-38057D01*
X24601Y-37829D02*
X24577Y-37800D01*
X24553Y-37743D01*
X24553Y-37600D01*
X24577Y-37543D01*
X24601Y-37514D01*
X24649Y-37486D01*
X24696Y-37486D01*
X24768Y-37514D01*
X25053Y-37857D01*
X25053Y-37486D01*
X24553Y-37114D02*
X24553Y-37057D01*
X24577Y-37000D01*
X24601Y-36972D01*
X24649Y-36943D01*
X24744Y-36914D01*
X24863Y-36914D01*
X24958Y-36943D01*
X25006Y-36972D01*
X25030Y-37000D01*
X25053Y-37057D01*
X25053Y-37114D01*
X25030Y-37172D01*
X25006Y-37200D01*
X24958Y-37229D01*
X24863Y-37257D01*
X24744Y-37257D01*
X24649Y-37229D01*
X24601Y-37200D01*
X24577Y-37172D01*
X24553Y-37114D01*
X25053Y-36343D02*
X25053Y-36686D01*
X25053Y-36514D02*
X24553Y-36514D01*
X24625Y-36572D01*
X24673Y-36629D01*
X24696Y-36686D01*
%LPC*%
G54D18*
X7225Y-16746D03*
X7225Y-18746D03*
X7225Y-20746D03*
X7225Y-17746D03*
X7225Y-19746D03*
X7225Y-15746D03*
G54D19*
X1101Y-7121D03*
X4101Y-7121D03*
G54D20*
X2601Y-43122D03*
X5101Y-42122D03*
G54D21*
X3601Y-41122D03*
G54D22*
X5601Y-41122D03*
X1601Y-41122D03*
G54D20*
X17601Y-28120D03*
X20101Y-27120D03*
G54D21*
X18601Y-26120D03*
G54D22*
X20601Y-26120D03*
X16601Y-26120D03*
G54D20*
X17601Y-13121D03*
X20101Y-12121D03*
G54D21*
X18601Y-11121D03*
G54D22*
X20601Y-11121D03*
X16601Y-11121D03*
G54D20*
X25101Y-5622D03*
X27601Y-4622D03*
G54D21*
X26101Y-3622D03*
G54D22*
X28101Y-3622D03*
X24101Y-3622D03*
G54D20*
X17601Y-5622D03*
X20101Y-4622D03*
G54D21*
X18601Y-3622D03*
G54D22*
X20601Y-3622D03*
X16601Y-3622D03*
G54D20*
X17601Y-20620D03*
X20101Y-19620D03*
G54D21*
X18601Y-18620D03*
G54D22*
X20601Y-18620D03*
X16601Y-18620D03*
G54D20*
X10101Y-43122D03*
X12601Y-42122D03*
G54D21*
X11101Y-41122D03*
G54D22*
X13101Y-41122D03*
X9101Y-41122D03*
G54D23*
X26601Y-1621D03*
G54D24*
X25601Y-1621D03*
G54D23*
X4101Y-1621D03*
G54D24*
X3101Y-1621D03*
G54D20*
X2601Y-5621D03*
X5101Y-4621D03*
G54D21*
X3601Y-3621D03*
G54D22*
X5601Y-3621D03*
X1601Y-3621D03*
G54D20*
X2601Y-28120D03*
X5101Y-27120D03*
G54D21*
X3601Y-26120D03*
G54D22*
X5601Y-26120D03*
X1601Y-26120D03*
G54D20*
X10101Y-28120D03*
X12601Y-27120D03*
G54D21*
X11101Y-26120D03*
G54D22*
X13101Y-26120D03*
X9101Y-26120D03*
G54D20*
X10101Y-35620D03*
X12601Y-34620D03*
G54D21*
X11101Y-33620D03*
G54D22*
X13101Y-33620D03*
X9101Y-33620D03*
G54D20*
X17601Y-35620D03*
X20101Y-34620D03*
G54D21*
X18601Y-33620D03*
G54D22*
X20601Y-33620D03*
X16601Y-33620D03*
G54D20*
X2601Y-35620D03*
X5101Y-34620D03*
G54D21*
X3601Y-33620D03*
G54D22*
X5601Y-33620D03*
X1601Y-33620D03*
G54D20*
X10101Y-20620D03*
X12601Y-19620D03*
G54D21*
X11101Y-18620D03*
G54D22*
X13101Y-18620D03*
X9101Y-18620D03*
G54D20*
X2601Y-20620D03*
X5101Y-19620D03*
G54D21*
X3601Y-18620D03*
G54D22*
X5601Y-18620D03*
X1601Y-18620D03*
G54D20*
X10101Y-13121D03*
X12601Y-12121D03*
G54D21*
X11101Y-11121D03*
G54D22*
X13101Y-11121D03*
X9101Y-11121D03*
G54D20*
X25101Y-35622D03*
X27601Y-34622D03*
G54D21*
X26101Y-33622D03*
G54D22*
X28101Y-33622D03*
X24101Y-33622D03*
G54D20*
X25101Y-28122D03*
X27601Y-27122D03*
G54D21*
X26101Y-26122D03*
G54D22*
X28101Y-26122D03*
X24101Y-26122D03*
G54D20*
X2601Y-13121D03*
X5101Y-12121D03*
G54D21*
X3601Y-11121D03*
G54D22*
X5601Y-11121D03*
X1601Y-11121D03*
G54D20*
X10101Y-5621D03*
X12601Y-4621D03*
G54D21*
X11101Y-3621D03*
G54D22*
X13101Y-3621D03*
X9101Y-3621D03*
G54D19*
X24101Y-7121D03*
X27101Y-7121D03*
X14601Y-7121D03*
X11601Y-7121D03*
X22101Y-7121D03*
X19101Y-7121D03*
G54D23*
X11601Y-1621D03*
G54D24*
X10601Y-1621D03*
G54D23*
X19101Y-1621D03*
G54D24*
X18101Y-1621D03*
G54D20*
X6351Y-35622D03*
X8851Y-34622D03*
G54D21*
X7351Y-33622D03*
G54D22*
X9351Y-33622D03*
X5351Y-33622D03*
G54D25*
X12051Y-36372D03*
X2651Y-36372D03*
G54D21*
X12051Y-30372D03*
X2651Y-30372D03*
G54D20*
X28101Y-30872D03*
X27101Y-28372D03*
G54D21*
X26101Y-29872D03*
G54D22*
X26101Y-27872D03*
X26101Y-31872D03*
G54D25*
X28851Y-25172D03*
X28851Y-34572D03*
G54D21*
X22851Y-25172D03*
X22851Y-34572D03*
G54D20*
X28101Y-15872D03*
X27101Y-13372D03*
G54D21*
X26101Y-14872D03*
G54D22*
X26101Y-12872D03*
X26101Y-16872D03*
G54D25*
X28851Y-10172D03*
X28851Y-19572D03*
G54D21*
X22851Y-10172D03*
X22851Y-19572D03*
G54D20*
X17601Y-43122D03*
X20101Y-42122D03*
G54D21*
X18601Y-41122D03*
G54D22*
X20601Y-41122D03*
X16601Y-41122D03*
G54D20*
X25101Y-43122D03*
X27601Y-42122D03*
G54D21*
X26101Y-41122D03*
G54D22*
X28101Y-41122D03*
X24101Y-41122D03*
G54D20*
X25101Y-13122D03*
X27601Y-12122D03*
G54D21*
X26101Y-11122D03*
G54D22*
X28101Y-11122D03*
X24101Y-11122D03*
G54D20*
X25101Y-20622D03*
X27601Y-19622D03*
G54D21*
X26101Y-18622D03*
G54D22*
X28101Y-18622D03*
X24101Y-18622D03*
G54D20*
X6351Y-43122D03*
X8851Y-42122D03*
G54D21*
X7351Y-41122D03*
G54D22*
X9351Y-41122D03*
X5351Y-41122D03*
G54D25*
X12051Y-43872D03*
X2651Y-43872D03*
G54D21*
X12051Y-37872D03*
X2651Y-37872D03*
G54D20*
X28101Y-23372D03*
X27101Y-20872D03*
G54D21*
X26101Y-22372D03*
G54D22*
X26101Y-20372D03*
X26101Y-24372D03*
G54D25*
X28851Y-17672D03*
X28851Y-27072D03*
G54D21*
X22851Y-17672D03*
X22851Y-27072D03*
G54D20*
X28101Y-38372D03*
X27101Y-35872D03*
G54D21*
X26101Y-37372D03*
G54D22*
X26101Y-35372D03*
X26101Y-39372D03*
G54D25*
X28851Y-32672D03*
X28851Y-42072D03*
G54D21*
X22851Y-32672D03*
X22851Y-42072D03*
G54D26*
X352Y-36620D03*
X29351Y-371D03*
X29352Y-36670D03*
X351Y-322D03*
X29351Y-44372D03*
X351Y-44372D03*
G54D27*
X6299Y-1523D03*
X8031Y-1523D03*
G54D28*
X502Y-8121D03*
X502Y-8621D03*
X502Y-9121D03*
X502Y-9621D03*
X502Y-10121D03*
X502Y-10621D03*
X502Y-11621D03*
X502Y-12121D03*
X502Y-12621D03*
X502Y-13121D03*
G54D26*
X29702Y-37320D03*
X28202Y-37320D03*
X24702Y-37320D03*
X23202Y-37320D03*
X21702Y-37320D03*
X20202Y-37320D03*
G54D28*
X502Y-15120D03*
X502Y-14620D03*
X502Y-14120D03*
G54D26*
X18702Y-37320D03*
X17202Y-37320D03*
X15702Y-37320D03*
X14202Y-37320D03*
X10202Y-37320D03*
X8702Y-37320D03*
X7202Y-37320D03*
X5702Y-37320D03*
X4202Y-37320D03*
X1202Y-37320D03*
X2Y-37320D03*
G54D29*
X574Y-22244D03*
G54D30*
X-325Y-22244D03*
X274Y-22244D03*
X874Y-22244D03*
X1474Y-22244D03*
M02*
