G04 (created by PCBNEW (2013-02-13 BZR 3947)-testing) date 9/17/2013 5:01:21 PM*
%MOIN*%
G04 Gerber Fmt 3.4, Leading zero omitted, Abs format*
%FSLAX34Y34*%
G01*
G70*
G90*
G04 APERTURE LIST*
%ADD10C,0*%
%ADD11O,0.3937X0.1969*%
%ADD12C,0.0354331*%
%ADD13C,0.0708661*%
%ADD14C,0.0629921*%
%ADD15C,0.09*%
%ADD16C,0.157*%
%ADD17C,0.067*%
%ADD18O,0.075X0.085*%
%ADD19R,0.075X0.085*%
%ADD20C,0.0393701*%
%ADD21C,0.12*%
%ADD22C,0.00787402*%
%ADD23C,0.02*%
%ADD24C,0.01*%
G04 APERTURE END LIST*
G54D10*
G54D11*
X574Y-22244D03*
G54D12*
X6299Y-1523D03*
X8031Y-1523D03*
G54D13*
X7225Y-16746D03*
X7225Y-18746D03*
X7225Y-20746D03*
X7225Y-17746D03*
X7225Y-19746D03*
X7225Y-15746D03*
G54D14*
X1101Y-7121D03*
X4101Y-7121D03*
G54D15*
X2601Y-43122D03*
X5101Y-42122D03*
G54D16*
X3601Y-41122D03*
G54D17*
X5601Y-41122D03*
X1601Y-41122D03*
G54D15*
X17601Y-28120D03*
X20101Y-27120D03*
G54D16*
X18601Y-26120D03*
G54D17*
X20601Y-26120D03*
X16601Y-26120D03*
G54D15*
X17601Y-13121D03*
X20101Y-12121D03*
G54D16*
X18601Y-11121D03*
G54D17*
X20601Y-11121D03*
X16601Y-11121D03*
G54D15*
X25101Y-5622D03*
X27601Y-4622D03*
G54D16*
X26101Y-3622D03*
G54D17*
X28101Y-3622D03*
X24101Y-3622D03*
G54D15*
X17601Y-5622D03*
X20101Y-4622D03*
G54D16*
X18601Y-3622D03*
G54D17*
X20601Y-3622D03*
X16601Y-3622D03*
G54D15*
X17601Y-20620D03*
X20101Y-19620D03*
G54D16*
X18601Y-18620D03*
G54D17*
X20601Y-18620D03*
X16601Y-18620D03*
G54D15*
X10101Y-43122D03*
X12601Y-42122D03*
G54D16*
X11101Y-41122D03*
G54D17*
X13101Y-41122D03*
X9101Y-41122D03*
G54D18*
X26601Y-1621D03*
G54D19*
X25601Y-1621D03*
G54D18*
X4101Y-1621D03*
G54D19*
X3101Y-1621D03*
G54D20*
X351Y-36872D03*
X29351Y-371D03*
X29351Y-36872D03*
X351Y-322D03*
G54D15*
X2601Y-5621D03*
X5101Y-4621D03*
G54D16*
X3601Y-3621D03*
G54D17*
X5601Y-3621D03*
X1601Y-3621D03*
G54D15*
X2601Y-28120D03*
X5101Y-27120D03*
G54D16*
X3601Y-26120D03*
G54D17*
X5601Y-26120D03*
X1601Y-26120D03*
G54D15*
X10101Y-28120D03*
X12601Y-27120D03*
G54D16*
X11101Y-26120D03*
G54D17*
X13101Y-26120D03*
X9101Y-26120D03*
G54D15*
X10101Y-35620D03*
X12601Y-34620D03*
G54D16*
X11101Y-33620D03*
G54D17*
X13101Y-33620D03*
X9101Y-33620D03*
G54D15*
X17601Y-35620D03*
X20101Y-34620D03*
G54D16*
X18601Y-33620D03*
G54D17*
X20601Y-33620D03*
X16601Y-33620D03*
G54D15*
X2601Y-35620D03*
X5101Y-34620D03*
G54D16*
X3601Y-33620D03*
G54D17*
X5601Y-33620D03*
X1601Y-33620D03*
G54D15*
X10101Y-20620D03*
X12601Y-19620D03*
G54D16*
X11101Y-18620D03*
G54D17*
X13101Y-18620D03*
X9101Y-18620D03*
G54D15*
X2601Y-20620D03*
X5101Y-19620D03*
G54D16*
X3601Y-18620D03*
G54D17*
X5601Y-18620D03*
X1601Y-18620D03*
G54D15*
X10101Y-13121D03*
X12601Y-12121D03*
G54D16*
X11101Y-11121D03*
G54D17*
X13101Y-11121D03*
X9101Y-11121D03*
G54D15*
X25101Y-35622D03*
X27601Y-34622D03*
G54D16*
X26101Y-33622D03*
G54D17*
X28101Y-33622D03*
X24101Y-33622D03*
G54D15*
X25101Y-28122D03*
X27601Y-27122D03*
G54D16*
X26101Y-26122D03*
G54D17*
X28101Y-26122D03*
X24101Y-26122D03*
G54D15*
X2601Y-13121D03*
X5101Y-12121D03*
G54D16*
X3601Y-11121D03*
G54D17*
X5601Y-11121D03*
X1601Y-11121D03*
G54D15*
X10101Y-5621D03*
X12601Y-4621D03*
G54D16*
X11101Y-3621D03*
G54D17*
X13101Y-3621D03*
X9101Y-3621D03*
G54D14*
X24101Y-7121D03*
X27101Y-7121D03*
X14601Y-7121D03*
X11601Y-7121D03*
X22101Y-7121D03*
X19101Y-7121D03*
G54D18*
X11601Y-1621D03*
G54D19*
X10601Y-1621D03*
G54D18*
X19101Y-1621D03*
G54D19*
X18101Y-1621D03*
G54D20*
X29351Y-44372D03*
X351Y-44372D03*
G54D15*
X6351Y-35622D03*
X8851Y-34622D03*
G54D16*
X7351Y-33622D03*
G54D17*
X9351Y-33622D03*
X5351Y-33622D03*
G54D21*
X12051Y-36372D03*
X2651Y-36372D03*
G54D16*
X12051Y-30372D03*
X2651Y-30372D03*
G54D15*
X28101Y-30872D03*
X27101Y-28372D03*
G54D16*
X26101Y-29872D03*
G54D17*
X26101Y-27872D03*
X26101Y-31872D03*
G54D21*
X28851Y-25172D03*
X28851Y-34572D03*
G54D16*
X22851Y-25172D03*
X22851Y-34572D03*
G54D15*
X28101Y-15872D03*
X27101Y-13372D03*
G54D16*
X26101Y-14872D03*
G54D17*
X26101Y-12872D03*
X26101Y-16872D03*
G54D21*
X28851Y-10172D03*
X28851Y-19572D03*
G54D16*
X22851Y-10172D03*
X22851Y-19572D03*
G54D15*
X17601Y-43122D03*
X20101Y-42122D03*
G54D16*
X18601Y-41122D03*
G54D17*
X20601Y-41122D03*
X16601Y-41122D03*
G54D15*
X25101Y-43122D03*
X27601Y-42122D03*
G54D16*
X26101Y-41122D03*
G54D17*
X28101Y-41122D03*
X24101Y-41122D03*
G54D15*
X25101Y-13122D03*
X27601Y-12122D03*
G54D16*
X26101Y-11122D03*
G54D17*
X28101Y-11122D03*
X24101Y-11122D03*
G54D15*
X25101Y-20622D03*
X27601Y-19622D03*
G54D16*
X26101Y-18622D03*
G54D17*
X28101Y-18622D03*
X24101Y-18622D03*
G54D15*
X6351Y-43122D03*
X8851Y-42122D03*
G54D16*
X7351Y-41122D03*
G54D17*
X9351Y-41122D03*
X5351Y-41122D03*
G54D21*
X12051Y-43872D03*
X2651Y-43872D03*
G54D16*
X12051Y-37872D03*
X2651Y-37872D03*
G54D15*
X28101Y-23372D03*
X27101Y-20872D03*
G54D16*
X26101Y-22372D03*
G54D17*
X26101Y-20372D03*
X26101Y-24372D03*
G54D21*
X28851Y-17672D03*
X28851Y-27072D03*
G54D16*
X22851Y-17672D03*
X22851Y-27072D03*
G54D15*
X28101Y-38372D03*
X27101Y-35872D03*
G54D16*
X26101Y-37372D03*
G54D17*
X26101Y-35372D03*
X26101Y-39372D03*
G54D21*
X28851Y-32672D03*
X28851Y-42072D03*
G54D16*
X22851Y-32672D03*
X22851Y-42072D03*
G54D20*
X14851Y-37322D03*
X15801Y-37322D03*
X16801Y-37322D03*
X15840Y-23067D03*
X16091Y-23489D03*
X17670Y-24156D03*
X7984Y-19982D03*
X5912Y-29534D03*
X14438Y-25973D03*
X5017Y-32182D03*
X15650Y-23873D03*
X14447Y-17725D03*
X15772Y-26597D03*
X21047Y-23649D03*
X21436Y-16171D03*
X12531Y-20354D03*
X13492Y-19610D03*
X14117Y-20945D03*
X14896Y-21527D03*
X14570Y-20587D03*
X11545Y-21439D03*
X13582Y-5291D03*
X24468Y-36672D03*
X13597Y-22159D03*
X14577Y-19933D03*
X16385Y-22415D03*
X23619Y-22122D03*
X14996Y-22089D03*
X24353Y-22729D03*
X12988Y-13069D03*
X13041Y-25263D03*
X6778Y-22670D03*
X11845Y-25311D03*
X4664Y-6361D03*
X17355Y-22737D03*
X16616Y-20441D03*
G54D22*
X15577Y-22804D02*
X15840Y-23067D01*
X15577Y-8096D02*
X15577Y-22804D01*
X14601Y-7121D02*
X15577Y-8096D01*
X16155Y-23425D02*
X16091Y-23489D01*
X16155Y-22936D02*
X16155Y-23425D01*
X15848Y-22629D02*
X16155Y-22936D01*
X15848Y-17983D02*
X15848Y-22629D01*
X21086Y-12745D02*
X15848Y-17983D01*
X21086Y-8135D02*
X21086Y-12745D01*
X22101Y-7121D02*
X21086Y-8135D01*
X17670Y-22171D02*
X17670Y-24156D01*
X17033Y-21533D02*
X17670Y-22171D01*
X17033Y-18860D02*
X17033Y-21533D01*
X21948Y-13945D02*
X17033Y-18860D01*
X21948Y-9274D02*
X21948Y-13945D01*
X24101Y-7121D02*
X21948Y-9274D01*
X7984Y-18820D02*
X7984Y-19982D01*
X7411Y-18246D02*
X7984Y-18820D01*
X7043Y-18246D02*
X7411Y-18246D01*
X6745Y-17948D02*
X7043Y-18246D01*
X6745Y-17226D02*
X6745Y-17948D01*
X7225Y-16746D02*
X6745Y-17226D01*
X14438Y-26094D02*
X14438Y-25973D01*
X10998Y-29534D02*
X14438Y-26094D01*
X5912Y-29534D02*
X10998Y-29534D01*
X5912Y-31287D02*
X5017Y-32182D01*
X5912Y-29534D02*
X5912Y-31287D01*
X15417Y-23641D02*
X15650Y-23873D01*
X15417Y-18695D02*
X15417Y-23641D01*
X14447Y-17725D02*
X15417Y-18695D01*
X15772Y-23996D02*
X15772Y-26597D01*
X15650Y-23873D02*
X15772Y-23996D01*
X21436Y-23261D02*
X21047Y-23649D01*
X21436Y-16171D02*
X21436Y-23261D01*
X6540Y-19061D02*
X7225Y-19746D01*
X6540Y-9559D02*
X6540Y-19061D01*
X4101Y-7121D02*
X6540Y-9559D01*
X9667Y-6055D02*
X10101Y-5621D01*
X9667Y-11633D02*
X9667Y-6055D01*
X9361Y-11938D02*
X9667Y-11633D01*
X9361Y-15231D02*
X9361Y-11938D01*
X12008Y-17879D02*
X9361Y-15231D01*
X12008Y-19831D02*
X12008Y-17879D01*
X12531Y-20354D02*
X12008Y-19831D01*
X2925Y-5621D02*
X2601Y-5621D01*
X7468Y-1077D02*
X2925Y-5621D01*
X11037Y-1077D02*
X7468Y-1077D01*
X11094Y-1134D02*
X11037Y-1077D01*
X11094Y-2345D02*
X11094Y-1134D01*
X10101Y-3339D02*
X11094Y-2345D01*
X10101Y-5621D02*
X10101Y-3339D01*
X10101Y-10843D02*
X14258Y-6686D01*
X10101Y-13121D02*
X10101Y-10843D01*
X17601Y-9504D02*
X17601Y-13121D01*
X14783Y-6686D02*
X17601Y-9504D01*
X14258Y-6686D02*
X14783Y-6686D01*
X14258Y-3485D02*
X14258Y-6686D01*
X11691Y-918D02*
X14258Y-3485D01*
X6246Y-918D02*
X11691Y-918D01*
X4660Y-2504D02*
X6246Y-918D01*
X3422Y-2504D02*
X4660Y-2504D01*
X2579Y-3347D02*
X3422Y-2504D01*
X2579Y-4267D02*
X2579Y-3347D01*
X2030Y-4815D02*
X2579Y-4267D01*
X2030Y-6252D02*
X2030Y-4815D01*
X2601Y-6823D02*
X2030Y-6252D01*
X2601Y-13121D02*
X2601Y-6823D01*
X17601Y-20660D02*
X17601Y-20620D01*
X20909Y-23967D02*
X17601Y-20660D01*
X21307Y-23967D02*
X20909Y-23967D01*
X24652Y-20622D02*
X21307Y-23967D01*
X25101Y-20622D02*
X24652Y-20622D01*
X10154Y-20673D02*
X10101Y-20620D01*
X12658Y-20673D02*
X10154Y-20673D01*
X13492Y-19839D02*
X12658Y-20673D01*
X13492Y-19610D02*
X13492Y-19839D01*
X2950Y-20271D02*
X2601Y-20620D01*
X7763Y-20271D02*
X2950Y-20271D01*
X8112Y-20620D02*
X7763Y-20271D01*
X10101Y-20620D02*
X8112Y-20620D01*
X17602Y-28122D02*
X17601Y-28120D01*
X25101Y-28122D02*
X17602Y-28122D01*
X2601Y-28120D02*
X10101Y-28120D01*
X14117Y-24636D02*
X14117Y-20945D01*
X13148Y-25605D02*
X14117Y-24636D01*
X12930Y-25605D02*
X13148Y-25605D01*
X10415Y-28120D02*
X12930Y-25605D01*
X10101Y-28120D02*
X10415Y-28120D01*
X17602Y-35622D02*
X17601Y-35620D01*
X25101Y-35622D02*
X17602Y-35622D01*
X2602Y-35622D02*
X2601Y-35620D01*
X6351Y-35622D02*
X2602Y-35622D01*
X14676Y-21747D02*
X14896Y-21527D01*
X14676Y-22216D02*
X14676Y-21747D01*
X15051Y-22590D02*
X14676Y-22216D01*
X15051Y-26647D02*
X15051Y-22590D01*
X17601Y-29197D02*
X15051Y-26647D01*
X17601Y-35620D02*
X17601Y-29197D01*
X6351Y-43122D02*
X2601Y-43122D01*
X25101Y-43122D02*
X17601Y-43122D01*
X12798Y-43122D02*
X15198Y-40722D01*
X10101Y-43122D02*
X12798Y-43122D01*
X15201Y-40722D02*
X15198Y-40722D01*
X17601Y-43122D02*
X15201Y-40722D01*
X14511Y-20646D02*
X14570Y-20587D01*
X14511Y-25521D02*
X14511Y-20646D01*
X14894Y-25904D02*
X14511Y-25521D01*
X14894Y-26912D02*
X14894Y-25904D01*
X15198Y-27216D02*
X14894Y-26912D01*
X15198Y-40722D02*
X15198Y-27216D01*
X7917Y-21439D02*
X11545Y-21439D01*
X7225Y-20746D02*
X7917Y-21439D01*
X13582Y-6637D02*
X13582Y-5291D01*
X9828Y-10390D02*
X13582Y-6637D01*
X9828Y-11805D02*
X9828Y-10390D01*
X9527Y-12107D02*
X9828Y-11805D01*
X9527Y-14026D02*
X9527Y-12107D01*
X13807Y-18307D02*
X9527Y-14026D01*
X13807Y-19749D02*
X13807Y-18307D01*
X12118Y-21439D02*
X13807Y-19749D01*
X11545Y-21439D02*
X12118Y-21439D01*
G54D23*
X24468Y-36672D02*
X24451Y-36672D01*
X351Y-44372D02*
X351Y-36872D01*
X29351Y-38476D02*
X29351Y-36872D01*
X27419Y-40407D02*
X29351Y-38476D01*
X27419Y-41214D02*
X27419Y-40407D01*
X26971Y-41663D02*
X27419Y-41214D01*
X26971Y-42400D02*
X26971Y-41663D01*
X28942Y-44372D02*
X26971Y-42400D01*
X29351Y-44372D02*
X28942Y-44372D01*
X13597Y-20913D02*
X14577Y-19933D01*
X13597Y-22159D02*
X13597Y-20913D01*
G54D22*
X21269Y-24472D02*
X23619Y-22122D01*
X17521Y-24472D02*
X21269Y-24472D01*
X16385Y-23335D02*
X17521Y-24472D01*
X16385Y-22415D02*
X16385Y-23335D01*
X27033Y-7052D02*
X27101Y-7121D01*
X27033Y-1937D02*
X27033Y-7052D01*
X27094Y-1875D02*
X27033Y-1937D01*
X27094Y-1621D02*
X27094Y-1875D01*
X26601Y-1621D02*
X27094Y-1621D01*
X23335Y-22729D02*
X24353Y-22729D01*
X19024Y-27040D02*
X23335Y-22729D01*
X15756Y-27040D02*
X19024Y-27040D01*
X15220Y-26503D02*
X15756Y-27040D01*
X15220Y-22314D02*
X15220Y-26503D01*
X14996Y-22089D02*
X15220Y-22314D01*
X19512Y-6710D02*
X19101Y-7121D01*
X19512Y-1957D02*
X19512Y-6710D01*
X19594Y-1875D02*
X19512Y-1957D01*
X19594Y-1621D02*
X19594Y-1875D01*
X19101Y-1621D02*
X19594Y-1621D01*
X12012Y-6710D02*
X11601Y-7121D01*
X12012Y-1957D02*
X12012Y-6710D01*
X12094Y-1875D02*
X12012Y-1957D01*
X12094Y-1621D02*
X12094Y-1875D01*
X11601Y-1621D02*
X12094Y-1621D01*
X13991Y-14071D02*
X12988Y-13069D01*
X13991Y-19952D02*
X13991Y-14071D01*
X13041Y-20901D02*
X13991Y-19952D01*
X13041Y-25263D02*
X13041Y-20901D01*
X27101Y-20122D02*
X27101Y-20872D01*
X27601Y-19622D02*
X27101Y-20122D01*
X9204Y-22670D02*
X11845Y-25311D01*
X6778Y-22670D02*
X9204Y-22670D01*
X1101Y-4845D02*
X1101Y-7121D01*
X2293Y-3653D02*
X1101Y-4845D01*
X2293Y-3409D02*
X2293Y-3653D01*
X3608Y-2095D02*
X2293Y-3409D01*
X3608Y-1621D02*
X3608Y-2095D01*
X4101Y-1621D02*
X3608Y-1621D01*
X4664Y-5057D02*
X4664Y-6361D01*
X5101Y-4621D02*
X4664Y-5057D01*
G54D23*
X16616Y-21998D02*
X17355Y-22737D01*
X16616Y-20441D02*
X16616Y-21998D01*
X25601Y-1621D02*
X25047Y-1621D01*
X20221Y-1006D02*
X22942Y-3726D01*
X18716Y-1006D02*
X20221Y-1006D01*
X18101Y-1621D02*
X18716Y-1006D01*
X25047Y-1621D02*
X22942Y-3726D01*
X16066Y-19891D02*
X16616Y-20441D01*
X16066Y-18112D02*
X16066Y-19891D01*
X21616Y-12562D02*
X16066Y-18112D01*
X21616Y-8466D02*
X21616Y-12562D01*
X22942Y-7141D02*
X21616Y-8466D01*
X22942Y-3726D02*
X22942Y-7141D01*
X8545Y-16426D02*
X7225Y-17746D01*
X8545Y-3122D02*
X8545Y-16426D01*
X10047Y-1621D02*
X8545Y-3122D01*
X10601Y-1621D02*
X10047Y-1621D01*
G54D10*
G36*
X9809Y-1367D02*
X9800Y-1373D01*
X8298Y-2875D01*
X8222Y-2988D01*
X8195Y-3122D01*
X8195Y-16281D01*
X7834Y-16643D01*
X7834Y-15841D01*
X7823Y-15601D01*
X7751Y-15426D01*
X7650Y-15392D01*
X7579Y-15463D01*
X7295Y-15746D01*
X7650Y-16101D01*
X7751Y-16067D01*
X7834Y-15841D01*
X7834Y-16643D01*
X7829Y-16647D01*
X7829Y-16627D01*
X7737Y-16404D01*
X7567Y-16234D01*
X7559Y-16231D01*
X7579Y-16172D01*
X7225Y-15817D01*
X7219Y-15823D01*
X7148Y-15752D01*
X7154Y-15746D01*
X7148Y-15741D01*
X7219Y-15670D01*
X7225Y-15676D01*
X7579Y-15321D01*
X7545Y-15220D01*
X7319Y-15138D01*
X7079Y-15148D01*
X6904Y-15220D01*
X6870Y-15321D01*
X6829Y-15280D01*
X6829Y-9559D01*
X6807Y-9449D01*
X6744Y-9355D01*
X6744Y-9355D01*
X4653Y-7264D01*
X4666Y-7233D01*
X4666Y-7009D01*
X4583Y-6808D01*
X4753Y-6808D01*
X4917Y-6740D01*
X5043Y-6614D01*
X5111Y-6450D01*
X5111Y-6272D01*
X5043Y-6108D01*
X4954Y-6018D01*
X4954Y-5317D01*
X4961Y-5320D01*
X5240Y-5321D01*
X5497Y-5214D01*
X5694Y-5018D01*
X5801Y-4760D01*
X5801Y-4482D01*
X5695Y-4225D01*
X5676Y-4206D01*
X5717Y-4206D01*
X5932Y-4117D01*
X6097Y-3952D01*
X6186Y-3737D01*
X6186Y-3505D01*
X6097Y-3290D01*
X5933Y-3125D01*
X5860Y-3095D01*
X7588Y-1367D01*
X7633Y-1367D01*
X7604Y-1438D01*
X7604Y-1608D01*
X7669Y-1765D01*
X7789Y-1885D01*
X7946Y-1950D01*
X8116Y-1950D01*
X8273Y-1885D01*
X8393Y-1765D01*
X8458Y-1608D01*
X8458Y-1439D01*
X8429Y-1367D01*
X9809Y-1367D01*
X9809Y-1367D01*
G37*
G54D24*
X9809Y-1367D02*
X9800Y-1373D01*
X8298Y-2875D01*
X8222Y-2988D01*
X8195Y-3122D01*
X8195Y-16281D01*
X7834Y-16643D01*
X7834Y-15841D01*
X7823Y-15601D01*
X7751Y-15426D01*
X7650Y-15392D01*
X7579Y-15463D01*
X7295Y-15746D01*
X7650Y-16101D01*
X7751Y-16067D01*
X7834Y-15841D01*
X7834Y-16643D01*
X7829Y-16647D01*
X7829Y-16627D01*
X7737Y-16404D01*
X7567Y-16234D01*
X7559Y-16231D01*
X7579Y-16172D01*
X7225Y-15817D01*
X7219Y-15823D01*
X7148Y-15752D01*
X7154Y-15746D01*
X7148Y-15741D01*
X7219Y-15670D01*
X7225Y-15676D01*
X7579Y-15321D01*
X7545Y-15220D01*
X7319Y-15138D01*
X7079Y-15148D01*
X6904Y-15220D01*
X6870Y-15321D01*
X6829Y-15280D01*
X6829Y-9559D01*
X6807Y-9449D01*
X6744Y-9355D01*
X6744Y-9355D01*
X4653Y-7264D01*
X4666Y-7233D01*
X4666Y-7009D01*
X4583Y-6808D01*
X4753Y-6808D01*
X4917Y-6740D01*
X5043Y-6614D01*
X5111Y-6450D01*
X5111Y-6272D01*
X5043Y-6108D01*
X4954Y-6018D01*
X4954Y-5317D01*
X4961Y-5320D01*
X5240Y-5321D01*
X5497Y-5214D01*
X5694Y-5018D01*
X5801Y-4760D01*
X5801Y-4482D01*
X5695Y-4225D01*
X5676Y-4206D01*
X5717Y-4206D01*
X5932Y-4117D01*
X6097Y-3952D01*
X6186Y-3737D01*
X6186Y-3505D01*
X6097Y-3290D01*
X5933Y-3125D01*
X5860Y-3095D01*
X7588Y-1367D01*
X7633Y-1367D01*
X7604Y-1438D01*
X7604Y-1608D01*
X7669Y-1765D01*
X7789Y-1885D01*
X7946Y-1950D01*
X8116Y-1950D01*
X8273Y-1885D01*
X8393Y-1765D01*
X8458Y-1608D01*
X8458Y-1439D01*
X8429Y-1367D01*
X9809Y-1367D01*
G54D10*
G36*
X14909Y-40602D02*
X13301Y-42210D01*
X13301Y-41983D01*
X13195Y-41726D01*
X13176Y-41707D01*
X13217Y-41707D01*
X13432Y-41618D01*
X13597Y-41453D01*
X13686Y-41238D01*
X13686Y-41006D01*
X13686Y-33505D01*
X13597Y-33289D01*
X13433Y-33125D01*
X13218Y-33035D01*
X13086Y-33035D01*
X13086Y-30167D01*
X12929Y-29786D01*
X12638Y-29495D01*
X12258Y-29337D01*
X11846Y-29336D01*
X11465Y-29494D01*
X11174Y-29785D01*
X11016Y-30165D01*
X11016Y-30577D01*
X11173Y-30957D01*
X11464Y-31248D01*
X11844Y-31406D01*
X12256Y-31407D01*
X12636Y-31249D01*
X12928Y-30959D01*
X13086Y-30578D01*
X13086Y-30167D01*
X13086Y-33035D01*
X12985Y-33035D01*
X12770Y-33124D01*
X12605Y-33289D01*
X12516Y-33503D01*
X12516Y-33736D01*
X12592Y-33920D01*
X12462Y-33920D01*
X12205Y-34027D01*
X12136Y-34095D01*
X12136Y-33415D01*
X11979Y-33035D01*
X11688Y-32743D01*
X11308Y-32586D01*
X10896Y-32585D01*
X10515Y-32742D01*
X10224Y-33033D01*
X10066Y-33414D01*
X10066Y-33825D01*
X10223Y-34206D01*
X10514Y-34497D01*
X10894Y-34655D01*
X11306Y-34656D01*
X11686Y-34498D01*
X11978Y-34207D01*
X12136Y-33827D01*
X12136Y-33415D01*
X12136Y-34095D01*
X12008Y-34223D01*
X11901Y-34481D01*
X11901Y-34759D01*
X12007Y-35016D01*
X12204Y-35213D01*
X12461Y-35320D01*
X12740Y-35320D01*
X12997Y-35214D01*
X13194Y-35017D01*
X13301Y-34760D01*
X13301Y-34482D01*
X13195Y-34224D01*
X13176Y-34205D01*
X13217Y-34205D01*
X13432Y-34117D01*
X13597Y-33952D01*
X13686Y-33737D01*
X13686Y-33505D01*
X13686Y-41006D01*
X13597Y-40791D01*
X13433Y-40626D01*
X13218Y-40537D01*
X13086Y-40537D01*
X13086Y-37667D01*
X12929Y-37286D01*
X12638Y-36995D01*
X12632Y-36992D01*
X12771Y-36854D01*
X12901Y-36541D01*
X12901Y-36203D01*
X12772Y-35891D01*
X12533Y-35651D01*
X12221Y-35522D01*
X11883Y-35521D01*
X11570Y-35651D01*
X11331Y-35889D01*
X11201Y-36202D01*
X11201Y-36540D01*
X11330Y-36852D01*
X11469Y-36992D01*
X11465Y-36994D01*
X11174Y-37285D01*
X11016Y-37665D01*
X11016Y-38077D01*
X11173Y-38457D01*
X11464Y-38748D01*
X11844Y-38906D01*
X12256Y-38907D01*
X12636Y-38749D01*
X12928Y-38459D01*
X13086Y-38078D01*
X13086Y-37667D01*
X13086Y-40537D01*
X12985Y-40536D01*
X12770Y-40625D01*
X12605Y-40790D01*
X12516Y-41005D01*
X12516Y-41237D01*
X12592Y-41422D01*
X12462Y-41421D01*
X12205Y-41528D01*
X12136Y-41596D01*
X12136Y-40917D01*
X11979Y-40536D01*
X11688Y-40245D01*
X11308Y-40087D01*
X10896Y-40086D01*
X10801Y-40126D01*
X10801Y-35482D01*
X10695Y-35224D01*
X10498Y-35027D01*
X10241Y-34920D01*
X9962Y-34920D01*
X9936Y-34931D01*
X9936Y-33506D01*
X9847Y-33291D01*
X9683Y-33126D01*
X9468Y-33037D01*
X9235Y-33036D01*
X9228Y-33040D01*
X9218Y-33035D01*
X8985Y-33035D01*
X8770Y-33124D01*
X8605Y-33289D01*
X8516Y-33503D01*
X8516Y-33736D01*
X8605Y-33951D01*
X8615Y-33962D01*
X8455Y-34028D01*
X8386Y-34096D01*
X8386Y-33417D01*
X8229Y-33036D01*
X7938Y-32745D01*
X7558Y-32587D01*
X7146Y-32586D01*
X6765Y-32744D01*
X6474Y-33035D01*
X6316Y-33415D01*
X6316Y-33827D01*
X6473Y-34207D01*
X6764Y-34498D01*
X7144Y-34656D01*
X7556Y-34657D01*
X7936Y-34499D01*
X8228Y-34209D01*
X8386Y-33828D01*
X8386Y-33417D01*
X8386Y-34096D01*
X8258Y-34225D01*
X8151Y-34482D01*
X8151Y-34760D01*
X8257Y-35018D01*
X8454Y-35215D01*
X8711Y-35321D01*
X8990Y-35322D01*
X9247Y-35215D01*
X9444Y-35019D01*
X9551Y-34761D01*
X9551Y-34483D01*
X9445Y-34226D01*
X9426Y-34207D01*
X9467Y-34207D01*
X9682Y-34118D01*
X9847Y-33953D01*
X9936Y-33738D01*
X9936Y-33506D01*
X9936Y-34931D01*
X9705Y-35027D01*
X9508Y-35223D01*
X9401Y-35481D01*
X9401Y-35759D01*
X9507Y-36016D01*
X9704Y-36213D01*
X9961Y-36320D01*
X10240Y-36320D01*
X10497Y-36214D01*
X10694Y-36017D01*
X10801Y-35760D01*
X10801Y-35482D01*
X10801Y-40126D01*
X10515Y-40244D01*
X10224Y-40535D01*
X10066Y-40915D01*
X10066Y-41327D01*
X10223Y-41707D01*
X10514Y-41998D01*
X10894Y-42156D01*
X11306Y-42157D01*
X11686Y-41999D01*
X11978Y-41709D01*
X12136Y-41328D01*
X12136Y-40917D01*
X12136Y-41596D01*
X12008Y-41725D01*
X11901Y-41982D01*
X11901Y-42260D01*
X12007Y-42518D01*
X12204Y-42715D01*
X12461Y-42821D01*
X12689Y-42822D01*
X12678Y-42832D01*
X10739Y-42832D01*
X10695Y-42726D01*
X10498Y-42528D01*
X10241Y-42422D01*
X9962Y-42421D01*
X9936Y-42432D01*
X9936Y-41006D01*
X9847Y-40791D01*
X9683Y-40626D01*
X9468Y-40537D01*
X9235Y-40536D01*
X9226Y-40540D01*
X9218Y-40537D01*
X8985Y-40536D01*
X8770Y-40625D01*
X8605Y-40790D01*
X8516Y-41005D01*
X8516Y-41237D01*
X8605Y-41452D01*
X8614Y-41462D01*
X8455Y-41528D01*
X8386Y-41596D01*
X8386Y-40917D01*
X8229Y-40536D01*
X7938Y-40245D01*
X7558Y-40087D01*
X7146Y-40086D01*
X7051Y-40126D01*
X7051Y-35483D01*
X6945Y-35226D01*
X6748Y-35028D01*
X6491Y-34922D01*
X6212Y-34921D01*
X6186Y-34932D01*
X6186Y-33505D01*
X6097Y-33289D01*
X5933Y-33125D01*
X5718Y-33035D01*
X5485Y-33035D01*
X5475Y-33040D01*
X5468Y-33037D01*
X5235Y-33036D01*
X5020Y-33125D01*
X4855Y-33290D01*
X4766Y-33505D01*
X4766Y-33737D01*
X4855Y-33952D01*
X4863Y-33961D01*
X4705Y-34027D01*
X4636Y-34095D01*
X4636Y-33415D01*
X4479Y-33035D01*
X4188Y-32743D01*
X3808Y-32586D01*
X3686Y-32585D01*
X3686Y-30167D01*
X3529Y-29786D01*
X3238Y-29495D01*
X2858Y-29337D01*
X2446Y-29336D01*
X2065Y-29494D01*
X1774Y-29785D01*
X1616Y-30165D01*
X1616Y-30577D01*
X1773Y-30957D01*
X2064Y-31248D01*
X2444Y-31406D01*
X2856Y-31407D01*
X3236Y-31249D01*
X3528Y-30959D01*
X3686Y-30578D01*
X3686Y-30167D01*
X3686Y-32585D01*
X3396Y-32585D01*
X3015Y-32742D01*
X2724Y-33033D01*
X2566Y-33414D01*
X2566Y-33825D01*
X2723Y-34206D01*
X3014Y-34497D01*
X3394Y-34655D01*
X3806Y-34656D01*
X4186Y-34498D01*
X4478Y-34207D01*
X4636Y-33827D01*
X4636Y-33415D01*
X4636Y-34095D01*
X4508Y-34223D01*
X4401Y-34481D01*
X4401Y-34759D01*
X4507Y-35016D01*
X4704Y-35213D01*
X4961Y-35320D01*
X5240Y-35320D01*
X5497Y-35214D01*
X5694Y-35017D01*
X5801Y-34760D01*
X5801Y-34482D01*
X5695Y-34224D01*
X5676Y-34205D01*
X5717Y-34205D01*
X5932Y-34117D01*
X6097Y-33952D01*
X6186Y-33737D01*
X6186Y-33505D01*
X6186Y-34932D01*
X5955Y-35028D01*
X5758Y-35225D01*
X5713Y-35332D01*
X3239Y-35332D01*
X3195Y-35224D01*
X2998Y-35027D01*
X2741Y-34920D01*
X2462Y-34920D01*
X2205Y-35027D01*
X2186Y-35045D01*
X2186Y-33505D01*
X2097Y-33289D01*
X1933Y-33125D01*
X1718Y-33035D01*
X1485Y-33035D01*
X1270Y-33124D01*
X1105Y-33289D01*
X1016Y-33503D01*
X1016Y-33736D01*
X1105Y-33951D01*
X1269Y-34116D01*
X1484Y-34205D01*
X1717Y-34205D01*
X1932Y-34117D01*
X2097Y-33952D01*
X2186Y-33737D01*
X2186Y-33505D01*
X2186Y-35045D01*
X2008Y-35223D01*
X1901Y-35481D01*
X1901Y-35759D01*
X1948Y-35873D01*
X1931Y-35889D01*
X1801Y-36202D01*
X1801Y-36540D01*
X1930Y-36852D01*
X2069Y-36992D01*
X2065Y-36994D01*
X1774Y-37285D01*
X1616Y-37665D01*
X1616Y-38077D01*
X1773Y-38457D01*
X2064Y-38748D01*
X2444Y-38906D01*
X2856Y-38907D01*
X3236Y-38749D01*
X3528Y-38459D01*
X3686Y-38078D01*
X3686Y-37667D01*
X3529Y-37286D01*
X3238Y-36995D01*
X3232Y-36992D01*
X3371Y-36854D01*
X3501Y-36541D01*
X3501Y-36203D01*
X3380Y-35911D01*
X5713Y-35911D01*
X5757Y-36018D01*
X5954Y-36215D01*
X6211Y-36321D01*
X6490Y-36322D01*
X6747Y-36215D01*
X6944Y-36019D01*
X7051Y-35761D01*
X7051Y-35483D01*
X7051Y-40126D01*
X6765Y-40244D01*
X6474Y-40535D01*
X6316Y-40915D01*
X6316Y-41327D01*
X6473Y-41707D01*
X6764Y-41998D01*
X7144Y-42156D01*
X7556Y-42157D01*
X7936Y-41999D01*
X8228Y-41709D01*
X8386Y-41328D01*
X8386Y-40917D01*
X8386Y-41596D01*
X8258Y-41725D01*
X8151Y-41982D01*
X8151Y-42260D01*
X8257Y-42518D01*
X8454Y-42715D01*
X8711Y-42821D01*
X8990Y-42822D01*
X9247Y-42715D01*
X9444Y-42519D01*
X9551Y-42261D01*
X9551Y-41983D01*
X9445Y-41726D01*
X9426Y-41707D01*
X9467Y-41707D01*
X9682Y-41618D01*
X9847Y-41453D01*
X9936Y-41238D01*
X9936Y-41006D01*
X9936Y-42432D01*
X9705Y-42528D01*
X9508Y-42725D01*
X9401Y-42982D01*
X9401Y-43260D01*
X9507Y-43518D01*
X9704Y-43715D01*
X9961Y-43821D01*
X10240Y-43822D01*
X10497Y-43715D01*
X10694Y-43519D01*
X10739Y-43411D01*
X11322Y-43411D01*
X11201Y-43702D01*
X11201Y-44040D01*
X11330Y-44352D01*
X11428Y-44451D01*
X3273Y-44451D01*
X3371Y-44354D01*
X3501Y-44041D01*
X3501Y-43703D01*
X3380Y-43411D01*
X5713Y-43411D01*
X5757Y-43518D01*
X5954Y-43715D01*
X6211Y-43821D01*
X6490Y-43822D01*
X6747Y-43715D01*
X6944Y-43519D01*
X7051Y-43261D01*
X7051Y-42983D01*
X6945Y-42726D01*
X6748Y-42528D01*
X6491Y-42422D01*
X6212Y-42421D01*
X6186Y-42432D01*
X6186Y-41006D01*
X6097Y-40791D01*
X5933Y-40626D01*
X5718Y-40537D01*
X5485Y-40536D01*
X5476Y-40540D01*
X5468Y-40537D01*
X5235Y-40536D01*
X5020Y-40625D01*
X4855Y-40790D01*
X4766Y-41005D01*
X4766Y-41237D01*
X4855Y-41452D01*
X4864Y-41462D01*
X4705Y-41528D01*
X4636Y-41596D01*
X4636Y-40917D01*
X4479Y-40536D01*
X4188Y-40245D01*
X3808Y-40087D01*
X3396Y-40086D01*
X3015Y-40244D01*
X2724Y-40535D01*
X2566Y-40915D01*
X2566Y-41327D01*
X2723Y-41707D01*
X3014Y-41998D01*
X3394Y-42156D01*
X3806Y-42157D01*
X4186Y-41999D01*
X4478Y-41709D01*
X4636Y-41328D01*
X4636Y-40917D01*
X4636Y-41596D01*
X4508Y-41725D01*
X4401Y-41982D01*
X4401Y-42260D01*
X4507Y-42518D01*
X4704Y-42715D01*
X4961Y-42821D01*
X5240Y-42822D01*
X5497Y-42715D01*
X5694Y-42519D01*
X5801Y-42261D01*
X5801Y-41983D01*
X5695Y-41726D01*
X5676Y-41707D01*
X5717Y-41707D01*
X5932Y-41618D01*
X6097Y-41453D01*
X6186Y-41238D01*
X6186Y-41006D01*
X6186Y-42432D01*
X5955Y-42528D01*
X5758Y-42725D01*
X5713Y-42832D01*
X3239Y-42832D01*
X3195Y-42726D01*
X2998Y-42528D01*
X2741Y-42422D01*
X2462Y-42421D01*
X2205Y-42528D01*
X2186Y-42547D01*
X2186Y-41006D01*
X2097Y-40791D01*
X1933Y-40626D01*
X1718Y-40537D01*
X1485Y-40536D01*
X1270Y-40625D01*
X1105Y-40790D01*
X1016Y-41005D01*
X1016Y-41237D01*
X1105Y-41452D01*
X1269Y-41617D01*
X1484Y-41706D01*
X1717Y-41707D01*
X1932Y-41618D01*
X2097Y-41453D01*
X2186Y-41238D01*
X2186Y-41006D01*
X2186Y-42547D01*
X2008Y-42725D01*
X1901Y-42982D01*
X1901Y-43260D01*
X1947Y-43373D01*
X1931Y-43389D01*
X1801Y-43702D01*
X1801Y-44040D01*
X1930Y-44352D01*
X2028Y-44451D01*
X795Y-44451D01*
X803Y-44429D01*
X803Y-36929D01*
X790Y-36751D01*
X747Y-36646D01*
X662Y-36631D01*
X422Y-36872D01*
X662Y-37112D01*
X747Y-37097D01*
X803Y-36929D01*
X803Y-44429D01*
X790Y-44251D01*
X747Y-44146D01*
X662Y-44131D01*
X422Y-44372D01*
X427Y-44377D01*
X356Y-44448D01*
X351Y-44442D01*
X345Y-44448D01*
X275Y-44377D01*
X280Y-44372D01*
X275Y-44366D01*
X345Y-44295D01*
X351Y-44301D01*
X591Y-44060D01*
X577Y-43976D01*
X408Y-43920D01*
X270Y-43929D01*
X270Y-37316D01*
X294Y-37324D01*
X471Y-37311D01*
X577Y-37267D01*
X591Y-37183D01*
X351Y-36942D01*
X345Y-36948D01*
X275Y-36877D01*
X280Y-36872D01*
X275Y-36866D01*
X345Y-36795D01*
X351Y-36801D01*
X591Y-36560D01*
X577Y-36476D01*
X408Y-36420D01*
X270Y-36429D01*
X270Y-23478D01*
X1601Y-23478D01*
X2074Y-23385D01*
X2474Y-23117D01*
X2742Y-22716D01*
X2836Y-22244D01*
X2742Y-21772D01*
X2474Y-21371D01*
X2295Y-21251D01*
X2461Y-21320D01*
X2740Y-21320D01*
X2997Y-21214D01*
X3194Y-21017D01*
X3301Y-20760D01*
X3301Y-20561D01*
X6647Y-20561D01*
X6620Y-20626D01*
X6620Y-20866D01*
X6712Y-21088D01*
X6882Y-21258D01*
X7104Y-21351D01*
X7344Y-21351D01*
X7398Y-21329D01*
X7712Y-21643D01*
X7712Y-21643D01*
X7775Y-21685D01*
X7806Y-21706D01*
X7806Y-21706D01*
X7917Y-21728D01*
X11202Y-21728D01*
X11291Y-21817D01*
X11455Y-21885D01*
X11633Y-21886D01*
X11797Y-21818D01*
X11887Y-21728D01*
X12118Y-21728D01*
X12118Y-21728D01*
X12229Y-21706D01*
X12323Y-21643D01*
X12752Y-21214D01*
X12752Y-24920D01*
X12663Y-25009D01*
X12594Y-25173D01*
X12594Y-25351D01*
X12647Y-25479D01*
X12136Y-25990D01*
X12136Y-25915D01*
X12051Y-25709D01*
X12098Y-25690D01*
X12224Y-25565D01*
X12292Y-25400D01*
X12292Y-25223D01*
X12224Y-25058D01*
X12099Y-24932D01*
X11934Y-24864D01*
X11807Y-24864D01*
X9409Y-22466D01*
X9315Y-22403D01*
X9204Y-22381D01*
X7120Y-22381D01*
X7031Y-22292D01*
X6867Y-22224D01*
X6689Y-22223D01*
X6525Y-22291D01*
X6399Y-22417D01*
X6331Y-22581D01*
X6331Y-22759D01*
X6399Y-22923D01*
X6524Y-23049D01*
X6688Y-23117D01*
X6866Y-23117D01*
X7031Y-23049D01*
X7120Y-22960D01*
X9084Y-22960D01*
X11210Y-25085D01*
X10896Y-25085D01*
X10515Y-25242D01*
X10224Y-25533D01*
X10066Y-25914D01*
X10066Y-26325D01*
X10223Y-26706D01*
X10514Y-26997D01*
X10894Y-27155D01*
X10971Y-27155D01*
X10548Y-27578D01*
X10498Y-27527D01*
X10241Y-27420D01*
X9962Y-27420D01*
X9705Y-27527D01*
X9686Y-27545D01*
X9686Y-26005D01*
X9597Y-25789D01*
X9433Y-25625D01*
X9218Y-25535D01*
X8985Y-25535D01*
X8770Y-25624D01*
X8605Y-25789D01*
X8516Y-26003D01*
X8516Y-26236D01*
X8605Y-26451D01*
X8769Y-26616D01*
X8984Y-26705D01*
X9217Y-26705D01*
X9432Y-26617D01*
X9597Y-26452D01*
X9686Y-26237D01*
X9686Y-26005D01*
X9686Y-27545D01*
X9508Y-27723D01*
X9463Y-27831D01*
X6186Y-27831D01*
X6186Y-26005D01*
X6097Y-25789D01*
X5933Y-25625D01*
X5718Y-25535D01*
X5485Y-25535D01*
X5270Y-25624D01*
X5105Y-25789D01*
X5016Y-26003D01*
X5016Y-26236D01*
X5092Y-26420D01*
X4962Y-26420D01*
X4705Y-26527D01*
X4636Y-26595D01*
X4636Y-25915D01*
X4479Y-25535D01*
X4188Y-25243D01*
X3808Y-25086D01*
X3396Y-25085D01*
X3015Y-25242D01*
X2724Y-25533D01*
X2566Y-25914D01*
X2566Y-26325D01*
X2723Y-26706D01*
X3014Y-26997D01*
X3394Y-27155D01*
X3806Y-27156D01*
X4186Y-26998D01*
X4478Y-26707D01*
X4636Y-26327D01*
X4636Y-25915D01*
X4636Y-26595D01*
X4508Y-26723D01*
X4401Y-26981D01*
X4401Y-27259D01*
X4507Y-27516D01*
X4704Y-27713D01*
X4961Y-27820D01*
X5240Y-27820D01*
X5497Y-27714D01*
X5694Y-27517D01*
X5801Y-27260D01*
X5801Y-26982D01*
X5695Y-26724D01*
X5676Y-26705D01*
X5717Y-26705D01*
X5932Y-26617D01*
X6097Y-26452D01*
X6186Y-26237D01*
X6186Y-26005D01*
X6186Y-27831D01*
X3239Y-27831D01*
X3195Y-27724D01*
X2998Y-27527D01*
X2741Y-27420D01*
X2462Y-27420D01*
X2205Y-27527D01*
X2186Y-27545D01*
X2186Y-26005D01*
X2097Y-25789D01*
X1933Y-25625D01*
X1718Y-25535D01*
X1485Y-25535D01*
X1270Y-25624D01*
X1105Y-25789D01*
X1016Y-26003D01*
X1016Y-26236D01*
X1105Y-26451D01*
X1269Y-26616D01*
X1484Y-26705D01*
X1717Y-26705D01*
X1932Y-26617D01*
X2097Y-26452D01*
X2186Y-26237D01*
X2186Y-26005D01*
X2186Y-27545D01*
X2008Y-27723D01*
X1901Y-27981D01*
X1901Y-28259D01*
X2007Y-28516D01*
X2204Y-28713D01*
X2461Y-28820D01*
X2740Y-28820D01*
X2997Y-28714D01*
X3194Y-28517D01*
X3239Y-28410D01*
X9463Y-28410D01*
X9507Y-28516D01*
X9704Y-28713D01*
X9961Y-28820D01*
X10240Y-28820D01*
X10497Y-28714D01*
X10694Y-28517D01*
X10801Y-28260D01*
X10801Y-28144D01*
X11901Y-27044D01*
X11901Y-27259D01*
X12007Y-27516D01*
X12204Y-27713D01*
X12349Y-27774D01*
X10879Y-29244D01*
X6254Y-29244D01*
X6165Y-29155D01*
X6001Y-29087D01*
X5823Y-29087D01*
X5659Y-29155D01*
X5533Y-29280D01*
X5465Y-29444D01*
X5465Y-29622D01*
X5533Y-29786D01*
X5622Y-29876D01*
X5622Y-31167D01*
X5054Y-31735D01*
X4928Y-31735D01*
X4764Y-31803D01*
X4638Y-31928D01*
X4570Y-32092D01*
X4570Y-32270D01*
X4638Y-32434D01*
X4763Y-32560D01*
X4927Y-32628D01*
X5105Y-32629D01*
X5269Y-32561D01*
X5395Y-32435D01*
X5463Y-32271D01*
X5464Y-32144D01*
X6116Y-31491D01*
X6116Y-31491D01*
X6179Y-31397D01*
X6201Y-31287D01*
X6201Y-31287D01*
X6201Y-29876D01*
X6254Y-29823D01*
X10998Y-29823D01*
X10998Y-29823D01*
X11109Y-29801D01*
X11203Y-29738D01*
X14521Y-26420D01*
X14526Y-26420D01*
X14604Y-26388D01*
X14604Y-26912D01*
X14626Y-27023D01*
X14689Y-27117D01*
X14909Y-27336D01*
X14909Y-36875D01*
X14762Y-36875D01*
X14598Y-36943D01*
X14472Y-37068D01*
X14404Y-37232D01*
X14404Y-37410D01*
X14472Y-37574D01*
X14597Y-37700D01*
X14761Y-37768D01*
X14909Y-37768D01*
X14909Y-40602D01*
X14909Y-40602D01*
G37*
G54D24*
X14909Y-40602D02*
X13301Y-42210D01*
X13301Y-41983D01*
X13195Y-41726D01*
X13176Y-41707D01*
X13217Y-41707D01*
X13432Y-41618D01*
X13597Y-41453D01*
X13686Y-41238D01*
X13686Y-41006D01*
X13686Y-33505D01*
X13597Y-33289D01*
X13433Y-33125D01*
X13218Y-33035D01*
X13086Y-33035D01*
X13086Y-30167D01*
X12929Y-29786D01*
X12638Y-29495D01*
X12258Y-29337D01*
X11846Y-29336D01*
X11465Y-29494D01*
X11174Y-29785D01*
X11016Y-30165D01*
X11016Y-30577D01*
X11173Y-30957D01*
X11464Y-31248D01*
X11844Y-31406D01*
X12256Y-31407D01*
X12636Y-31249D01*
X12928Y-30959D01*
X13086Y-30578D01*
X13086Y-30167D01*
X13086Y-33035D01*
X12985Y-33035D01*
X12770Y-33124D01*
X12605Y-33289D01*
X12516Y-33503D01*
X12516Y-33736D01*
X12592Y-33920D01*
X12462Y-33920D01*
X12205Y-34027D01*
X12136Y-34095D01*
X12136Y-33415D01*
X11979Y-33035D01*
X11688Y-32743D01*
X11308Y-32586D01*
X10896Y-32585D01*
X10515Y-32742D01*
X10224Y-33033D01*
X10066Y-33414D01*
X10066Y-33825D01*
X10223Y-34206D01*
X10514Y-34497D01*
X10894Y-34655D01*
X11306Y-34656D01*
X11686Y-34498D01*
X11978Y-34207D01*
X12136Y-33827D01*
X12136Y-33415D01*
X12136Y-34095D01*
X12008Y-34223D01*
X11901Y-34481D01*
X11901Y-34759D01*
X12007Y-35016D01*
X12204Y-35213D01*
X12461Y-35320D01*
X12740Y-35320D01*
X12997Y-35214D01*
X13194Y-35017D01*
X13301Y-34760D01*
X13301Y-34482D01*
X13195Y-34224D01*
X13176Y-34205D01*
X13217Y-34205D01*
X13432Y-34117D01*
X13597Y-33952D01*
X13686Y-33737D01*
X13686Y-33505D01*
X13686Y-41006D01*
X13597Y-40791D01*
X13433Y-40626D01*
X13218Y-40537D01*
X13086Y-40537D01*
X13086Y-37667D01*
X12929Y-37286D01*
X12638Y-36995D01*
X12632Y-36992D01*
X12771Y-36854D01*
X12901Y-36541D01*
X12901Y-36203D01*
X12772Y-35891D01*
X12533Y-35651D01*
X12221Y-35522D01*
X11883Y-35521D01*
X11570Y-35651D01*
X11331Y-35889D01*
X11201Y-36202D01*
X11201Y-36540D01*
X11330Y-36852D01*
X11469Y-36992D01*
X11465Y-36994D01*
X11174Y-37285D01*
X11016Y-37665D01*
X11016Y-38077D01*
X11173Y-38457D01*
X11464Y-38748D01*
X11844Y-38906D01*
X12256Y-38907D01*
X12636Y-38749D01*
X12928Y-38459D01*
X13086Y-38078D01*
X13086Y-37667D01*
X13086Y-40537D01*
X12985Y-40536D01*
X12770Y-40625D01*
X12605Y-40790D01*
X12516Y-41005D01*
X12516Y-41237D01*
X12592Y-41422D01*
X12462Y-41421D01*
X12205Y-41528D01*
X12136Y-41596D01*
X12136Y-40917D01*
X11979Y-40536D01*
X11688Y-40245D01*
X11308Y-40087D01*
X10896Y-40086D01*
X10801Y-40126D01*
X10801Y-35482D01*
X10695Y-35224D01*
X10498Y-35027D01*
X10241Y-34920D01*
X9962Y-34920D01*
X9936Y-34931D01*
X9936Y-33506D01*
X9847Y-33291D01*
X9683Y-33126D01*
X9468Y-33037D01*
X9235Y-33036D01*
X9228Y-33040D01*
X9218Y-33035D01*
X8985Y-33035D01*
X8770Y-33124D01*
X8605Y-33289D01*
X8516Y-33503D01*
X8516Y-33736D01*
X8605Y-33951D01*
X8615Y-33962D01*
X8455Y-34028D01*
X8386Y-34096D01*
X8386Y-33417D01*
X8229Y-33036D01*
X7938Y-32745D01*
X7558Y-32587D01*
X7146Y-32586D01*
X6765Y-32744D01*
X6474Y-33035D01*
X6316Y-33415D01*
X6316Y-33827D01*
X6473Y-34207D01*
X6764Y-34498D01*
X7144Y-34656D01*
X7556Y-34657D01*
X7936Y-34499D01*
X8228Y-34209D01*
X8386Y-33828D01*
X8386Y-33417D01*
X8386Y-34096D01*
X8258Y-34225D01*
X8151Y-34482D01*
X8151Y-34760D01*
X8257Y-35018D01*
X8454Y-35215D01*
X8711Y-35321D01*
X8990Y-35322D01*
X9247Y-35215D01*
X9444Y-35019D01*
X9551Y-34761D01*
X9551Y-34483D01*
X9445Y-34226D01*
X9426Y-34207D01*
X9467Y-34207D01*
X9682Y-34118D01*
X9847Y-33953D01*
X9936Y-33738D01*
X9936Y-33506D01*
X9936Y-34931D01*
X9705Y-35027D01*
X9508Y-35223D01*
X9401Y-35481D01*
X9401Y-35759D01*
X9507Y-36016D01*
X9704Y-36213D01*
X9961Y-36320D01*
X10240Y-36320D01*
X10497Y-36214D01*
X10694Y-36017D01*
X10801Y-35760D01*
X10801Y-35482D01*
X10801Y-40126D01*
X10515Y-40244D01*
X10224Y-40535D01*
X10066Y-40915D01*
X10066Y-41327D01*
X10223Y-41707D01*
X10514Y-41998D01*
X10894Y-42156D01*
X11306Y-42157D01*
X11686Y-41999D01*
X11978Y-41709D01*
X12136Y-41328D01*
X12136Y-40917D01*
X12136Y-41596D01*
X12008Y-41725D01*
X11901Y-41982D01*
X11901Y-42260D01*
X12007Y-42518D01*
X12204Y-42715D01*
X12461Y-42821D01*
X12689Y-42822D01*
X12678Y-42832D01*
X10739Y-42832D01*
X10695Y-42726D01*
X10498Y-42528D01*
X10241Y-42422D01*
X9962Y-42421D01*
X9936Y-42432D01*
X9936Y-41006D01*
X9847Y-40791D01*
X9683Y-40626D01*
X9468Y-40537D01*
X9235Y-40536D01*
X9226Y-40540D01*
X9218Y-40537D01*
X8985Y-40536D01*
X8770Y-40625D01*
X8605Y-40790D01*
X8516Y-41005D01*
X8516Y-41237D01*
X8605Y-41452D01*
X8614Y-41462D01*
X8455Y-41528D01*
X8386Y-41596D01*
X8386Y-40917D01*
X8229Y-40536D01*
X7938Y-40245D01*
X7558Y-40087D01*
X7146Y-40086D01*
X7051Y-40126D01*
X7051Y-35483D01*
X6945Y-35226D01*
X6748Y-35028D01*
X6491Y-34922D01*
X6212Y-34921D01*
X6186Y-34932D01*
X6186Y-33505D01*
X6097Y-33289D01*
X5933Y-33125D01*
X5718Y-33035D01*
X5485Y-33035D01*
X5475Y-33040D01*
X5468Y-33037D01*
X5235Y-33036D01*
X5020Y-33125D01*
X4855Y-33290D01*
X4766Y-33505D01*
X4766Y-33737D01*
X4855Y-33952D01*
X4863Y-33961D01*
X4705Y-34027D01*
X4636Y-34095D01*
X4636Y-33415D01*
X4479Y-33035D01*
X4188Y-32743D01*
X3808Y-32586D01*
X3686Y-32585D01*
X3686Y-30167D01*
X3529Y-29786D01*
X3238Y-29495D01*
X2858Y-29337D01*
X2446Y-29336D01*
X2065Y-29494D01*
X1774Y-29785D01*
X1616Y-30165D01*
X1616Y-30577D01*
X1773Y-30957D01*
X2064Y-31248D01*
X2444Y-31406D01*
X2856Y-31407D01*
X3236Y-31249D01*
X3528Y-30959D01*
X3686Y-30578D01*
X3686Y-30167D01*
X3686Y-32585D01*
X3396Y-32585D01*
X3015Y-32742D01*
X2724Y-33033D01*
X2566Y-33414D01*
X2566Y-33825D01*
X2723Y-34206D01*
X3014Y-34497D01*
X3394Y-34655D01*
X3806Y-34656D01*
X4186Y-34498D01*
X4478Y-34207D01*
X4636Y-33827D01*
X4636Y-33415D01*
X4636Y-34095D01*
X4508Y-34223D01*
X4401Y-34481D01*
X4401Y-34759D01*
X4507Y-35016D01*
X4704Y-35213D01*
X4961Y-35320D01*
X5240Y-35320D01*
X5497Y-35214D01*
X5694Y-35017D01*
X5801Y-34760D01*
X5801Y-34482D01*
X5695Y-34224D01*
X5676Y-34205D01*
X5717Y-34205D01*
X5932Y-34117D01*
X6097Y-33952D01*
X6186Y-33737D01*
X6186Y-33505D01*
X6186Y-34932D01*
X5955Y-35028D01*
X5758Y-35225D01*
X5713Y-35332D01*
X3239Y-35332D01*
X3195Y-35224D01*
X2998Y-35027D01*
X2741Y-34920D01*
X2462Y-34920D01*
X2205Y-35027D01*
X2186Y-35045D01*
X2186Y-33505D01*
X2097Y-33289D01*
X1933Y-33125D01*
X1718Y-33035D01*
X1485Y-33035D01*
X1270Y-33124D01*
X1105Y-33289D01*
X1016Y-33503D01*
X1016Y-33736D01*
X1105Y-33951D01*
X1269Y-34116D01*
X1484Y-34205D01*
X1717Y-34205D01*
X1932Y-34117D01*
X2097Y-33952D01*
X2186Y-33737D01*
X2186Y-33505D01*
X2186Y-35045D01*
X2008Y-35223D01*
X1901Y-35481D01*
X1901Y-35759D01*
X1948Y-35873D01*
X1931Y-35889D01*
X1801Y-36202D01*
X1801Y-36540D01*
X1930Y-36852D01*
X2069Y-36992D01*
X2065Y-36994D01*
X1774Y-37285D01*
X1616Y-37665D01*
X1616Y-38077D01*
X1773Y-38457D01*
X2064Y-38748D01*
X2444Y-38906D01*
X2856Y-38907D01*
X3236Y-38749D01*
X3528Y-38459D01*
X3686Y-38078D01*
X3686Y-37667D01*
X3529Y-37286D01*
X3238Y-36995D01*
X3232Y-36992D01*
X3371Y-36854D01*
X3501Y-36541D01*
X3501Y-36203D01*
X3380Y-35911D01*
X5713Y-35911D01*
X5757Y-36018D01*
X5954Y-36215D01*
X6211Y-36321D01*
X6490Y-36322D01*
X6747Y-36215D01*
X6944Y-36019D01*
X7051Y-35761D01*
X7051Y-35483D01*
X7051Y-40126D01*
X6765Y-40244D01*
X6474Y-40535D01*
X6316Y-40915D01*
X6316Y-41327D01*
X6473Y-41707D01*
X6764Y-41998D01*
X7144Y-42156D01*
X7556Y-42157D01*
X7936Y-41999D01*
X8228Y-41709D01*
X8386Y-41328D01*
X8386Y-40917D01*
X8386Y-41596D01*
X8258Y-41725D01*
X8151Y-41982D01*
X8151Y-42260D01*
X8257Y-42518D01*
X8454Y-42715D01*
X8711Y-42821D01*
X8990Y-42822D01*
X9247Y-42715D01*
X9444Y-42519D01*
X9551Y-42261D01*
X9551Y-41983D01*
X9445Y-41726D01*
X9426Y-41707D01*
X9467Y-41707D01*
X9682Y-41618D01*
X9847Y-41453D01*
X9936Y-41238D01*
X9936Y-41006D01*
X9936Y-42432D01*
X9705Y-42528D01*
X9508Y-42725D01*
X9401Y-42982D01*
X9401Y-43260D01*
X9507Y-43518D01*
X9704Y-43715D01*
X9961Y-43821D01*
X10240Y-43822D01*
X10497Y-43715D01*
X10694Y-43519D01*
X10739Y-43411D01*
X11322Y-43411D01*
X11201Y-43702D01*
X11201Y-44040D01*
X11330Y-44352D01*
X11428Y-44451D01*
X3273Y-44451D01*
X3371Y-44354D01*
X3501Y-44041D01*
X3501Y-43703D01*
X3380Y-43411D01*
X5713Y-43411D01*
X5757Y-43518D01*
X5954Y-43715D01*
X6211Y-43821D01*
X6490Y-43822D01*
X6747Y-43715D01*
X6944Y-43519D01*
X7051Y-43261D01*
X7051Y-42983D01*
X6945Y-42726D01*
X6748Y-42528D01*
X6491Y-42422D01*
X6212Y-42421D01*
X6186Y-42432D01*
X6186Y-41006D01*
X6097Y-40791D01*
X5933Y-40626D01*
X5718Y-40537D01*
X5485Y-40536D01*
X5476Y-40540D01*
X5468Y-40537D01*
X5235Y-40536D01*
X5020Y-40625D01*
X4855Y-40790D01*
X4766Y-41005D01*
X4766Y-41237D01*
X4855Y-41452D01*
X4864Y-41462D01*
X4705Y-41528D01*
X4636Y-41596D01*
X4636Y-40917D01*
X4479Y-40536D01*
X4188Y-40245D01*
X3808Y-40087D01*
X3396Y-40086D01*
X3015Y-40244D01*
X2724Y-40535D01*
X2566Y-40915D01*
X2566Y-41327D01*
X2723Y-41707D01*
X3014Y-41998D01*
X3394Y-42156D01*
X3806Y-42157D01*
X4186Y-41999D01*
X4478Y-41709D01*
X4636Y-41328D01*
X4636Y-40917D01*
X4636Y-41596D01*
X4508Y-41725D01*
X4401Y-41982D01*
X4401Y-42260D01*
X4507Y-42518D01*
X4704Y-42715D01*
X4961Y-42821D01*
X5240Y-42822D01*
X5497Y-42715D01*
X5694Y-42519D01*
X5801Y-42261D01*
X5801Y-41983D01*
X5695Y-41726D01*
X5676Y-41707D01*
X5717Y-41707D01*
X5932Y-41618D01*
X6097Y-41453D01*
X6186Y-41238D01*
X6186Y-41006D01*
X6186Y-42432D01*
X5955Y-42528D01*
X5758Y-42725D01*
X5713Y-42832D01*
X3239Y-42832D01*
X3195Y-42726D01*
X2998Y-42528D01*
X2741Y-42422D01*
X2462Y-42421D01*
X2205Y-42528D01*
X2186Y-42547D01*
X2186Y-41006D01*
X2097Y-40791D01*
X1933Y-40626D01*
X1718Y-40537D01*
X1485Y-40536D01*
X1270Y-40625D01*
X1105Y-40790D01*
X1016Y-41005D01*
X1016Y-41237D01*
X1105Y-41452D01*
X1269Y-41617D01*
X1484Y-41706D01*
X1717Y-41707D01*
X1932Y-41618D01*
X2097Y-41453D01*
X2186Y-41238D01*
X2186Y-41006D01*
X2186Y-42547D01*
X2008Y-42725D01*
X1901Y-42982D01*
X1901Y-43260D01*
X1947Y-43373D01*
X1931Y-43389D01*
X1801Y-43702D01*
X1801Y-44040D01*
X1930Y-44352D01*
X2028Y-44451D01*
X795Y-44451D01*
X803Y-44429D01*
X803Y-36929D01*
X790Y-36751D01*
X747Y-36646D01*
X662Y-36631D01*
X422Y-36872D01*
X662Y-37112D01*
X747Y-37097D01*
X803Y-36929D01*
X803Y-44429D01*
X790Y-44251D01*
X747Y-44146D01*
X662Y-44131D01*
X422Y-44372D01*
X427Y-44377D01*
X356Y-44448D01*
X351Y-44442D01*
X345Y-44448D01*
X275Y-44377D01*
X280Y-44372D01*
X275Y-44366D01*
X345Y-44295D01*
X351Y-44301D01*
X591Y-44060D01*
X577Y-43976D01*
X408Y-43920D01*
X270Y-43929D01*
X270Y-37316D01*
X294Y-37324D01*
X471Y-37311D01*
X577Y-37267D01*
X591Y-37183D01*
X351Y-36942D01*
X345Y-36948D01*
X275Y-36877D01*
X280Y-36872D01*
X275Y-36866D01*
X345Y-36795D01*
X351Y-36801D01*
X591Y-36560D01*
X577Y-36476D01*
X408Y-36420D01*
X270Y-36429D01*
X270Y-23478D01*
X1601Y-23478D01*
X2074Y-23385D01*
X2474Y-23117D01*
X2742Y-22716D01*
X2836Y-22244D01*
X2742Y-21772D01*
X2474Y-21371D01*
X2295Y-21251D01*
X2461Y-21320D01*
X2740Y-21320D01*
X2997Y-21214D01*
X3194Y-21017D01*
X3301Y-20760D01*
X3301Y-20561D01*
X6647Y-20561D01*
X6620Y-20626D01*
X6620Y-20866D01*
X6712Y-21088D01*
X6882Y-21258D01*
X7104Y-21351D01*
X7344Y-21351D01*
X7398Y-21329D01*
X7712Y-21643D01*
X7712Y-21643D01*
X7775Y-21685D01*
X7806Y-21706D01*
X7806Y-21706D01*
X7917Y-21728D01*
X11202Y-21728D01*
X11291Y-21817D01*
X11455Y-21885D01*
X11633Y-21886D01*
X11797Y-21818D01*
X11887Y-21728D01*
X12118Y-21728D01*
X12118Y-21728D01*
X12229Y-21706D01*
X12323Y-21643D01*
X12752Y-21214D01*
X12752Y-24920D01*
X12663Y-25009D01*
X12594Y-25173D01*
X12594Y-25351D01*
X12647Y-25479D01*
X12136Y-25990D01*
X12136Y-25915D01*
X12051Y-25709D01*
X12098Y-25690D01*
X12224Y-25565D01*
X12292Y-25400D01*
X12292Y-25223D01*
X12224Y-25058D01*
X12099Y-24932D01*
X11934Y-24864D01*
X11807Y-24864D01*
X9409Y-22466D01*
X9315Y-22403D01*
X9204Y-22381D01*
X7120Y-22381D01*
X7031Y-22292D01*
X6867Y-22224D01*
X6689Y-22223D01*
X6525Y-22291D01*
X6399Y-22417D01*
X6331Y-22581D01*
X6331Y-22759D01*
X6399Y-22923D01*
X6524Y-23049D01*
X6688Y-23117D01*
X6866Y-23117D01*
X7031Y-23049D01*
X7120Y-22960D01*
X9084Y-22960D01*
X11210Y-25085D01*
X10896Y-25085D01*
X10515Y-25242D01*
X10224Y-25533D01*
X10066Y-25914D01*
X10066Y-26325D01*
X10223Y-26706D01*
X10514Y-26997D01*
X10894Y-27155D01*
X10971Y-27155D01*
X10548Y-27578D01*
X10498Y-27527D01*
X10241Y-27420D01*
X9962Y-27420D01*
X9705Y-27527D01*
X9686Y-27545D01*
X9686Y-26005D01*
X9597Y-25789D01*
X9433Y-25625D01*
X9218Y-25535D01*
X8985Y-25535D01*
X8770Y-25624D01*
X8605Y-25789D01*
X8516Y-26003D01*
X8516Y-26236D01*
X8605Y-26451D01*
X8769Y-26616D01*
X8984Y-26705D01*
X9217Y-26705D01*
X9432Y-26617D01*
X9597Y-26452D01*
X9686Y-26237D01*
X9686Y-26005D01*
X9686Y-27545D01*
X9508Y-27723D01*
X9463Y-27831D01*
X6186Y-27831D01*
X6186Y-26005D01*
X6097Y-25789D01*
X5933Y-25625D01*
X5718Y-25535D01*
X5485Y-25535D01*
X5270Y-25624D01*
X5105Y-25789D01*
X5016Y-26003D01*
X5016Y-26236D01*
X5092Y-26420D01*
X4962Y-26420D01*
X4705Y-26527D01*
X4636Y-26595D01*
X4636Y-25915D01*
X4479Y-25535D01*
X4188Y-25243D01*
X3808Y-25086D01*
X3396Y-25085D01*
X3015Y-25242D01*
X2724Y-25533D01*
X2566Y-25914D01*
X2566Y-26325D01*
X2723Y-26706D01*
X3014Y-26997D01*
X3394Y-27155D01*
X3806Y-27156D01*
X4186Y-26998D01*
X4478Y-26707D01*
X4636Y-26327D01*
X4636Y-25915D01*
X4636Y-26595D01*
X4508Y-26723D01*
X4401Y-26981D01*
X4401Y-27259D01*
X4507Y-27516D01*
X4704Y-27713D01*
X4961Y-27820D01*
X5240Y-27820D01*
X5497Y-27714D01*
X5694Y-27517D01*
X5801Y-27260D01*
X5801Y-26982D01*
X5695Y-26724D01*
X5676Y-26705D01*
X5717Y-26705D01*
X5932Y-26617D01*
X6097Y-26452D01*
X6186Y-26237D01*
X6186Y-26005D01*
X6186Y-27831D01*
X3239Y-27831D01*
X3195Y-27724D01*
X2998Y-27527D01*
X2741Y-27420D01*
X2462Y-27420D01*
X2205Y-27527D01*
X2186Y-27545D01*
X2186Y-26005D01*
X2097Y-25789D01*
X1933Y-25625D01*
X1718Y-25535D01*
X1485Y-25535D01*
X1270Y-25624D01*
X1105Y-25789D01*
X1016Y-26003D01*
X1016Y-26236D01*
X1105Y-26451D01*
X1269Y-26616D01*
X1484Y-26705D01*
X1717Y-26705D01*
X1932Y-26617D01*
X2097Y-26452D01*
X2186Y-26237D01*
X2186Y-26005D01*
X2186Y-27545D01*
X2008Y-27723D01*
X1901Y-27981D01*
X1901Y-28259D01*
X2007Y-28516D01*
X2204Y-28713D01*
X2461Y-28820D01*
X2740Y-28820D01*
X2997Y-28714D01*
X3194Y-28517D01*
X3239Y-28410D01*
X9463Y-28410D01*
X9507Y-28516D01*
X9704Y-28713D01*
X9961Y-28820D01*
X10240Y-28820D01*
X10497Y-28714D01*
X10694Y-28517D01*
X10801Y-28260D01*
X10801Y-28144D01*
X11901Y-27044D01*
X11901Y-27259D01*
X12007Y-27516D01*
X12204Y-27713D01*
X12349Y-27774D01*
X10879Y-29244D01*
X6254Y-29244D01*
X6165Y-29155D01*
X6001Y-29087D01*
X5823Y-29087D01*
X5659Y-29155D01*
X5533Y-29280D01*
X5465Y-29444D01*
X5465Y-29622D01*
X5533Y-29786D01*
X5622Y-29876D01*
X5622Y-31167D01*
X5054Y-31735D01*
X4928Y-31735D01*
X4764Y-31803D01*
X4638Y-31928D01*
X4570Y-32092D01*
X4570Y-32270D01*
X4638Y-32434D01*
X4763Y-32560D01*
X4927Y-32628D01*
X5105Y-32629D01*
X5269Y-32561D01*
X5395Y-32435D01*
X5463Y-32271D01*
X5464Y-32144D01*
X6116Y-31491D01*
X6116Y-31491D01*
X6179Y-31397D01*
X6201Y-31287D01*
X6201Y-31287D01*
X6201Y-29876D01*
X6254Y-29823D01*
X10998Y-29823D01*
X10998Y-29823D01*
X11109Y-29801D01*
X11203Y-29738D01*
X14521Y-26420D01*
X14526Y-26420D01*
X14604Y-26388D01*
X14604Y-26912D01*
X14626Y-27023D01*
X14689Y-27117D01*
X14909Y-27336D01*
X14909Y-36875D01*
X14762Y-36875D01*
X14598Y-36943D01*
X14472Y-37068D01*
X14404Y-37232D01*
X14404Y-37410D01*
X14472Y-37574D01*
X14597Y-37700D01*
X14761Y-37768D01*
X14909Y-37768D01*
X14909Y-40602D01*
G54D10*
G36*
X15127Y-21139D02*
X14986Y-21080D01*
X14808Y-21080D01*
X14800Y-21084D01*
X14800Y-20975D01*
X14823Y-20966D01*
X14948Y-20840D01*
X15017Y-20676D01*
X15017Y-20498D01*
X14949Y-20334D01*
X14823Y-20208D01*
X14659Y-20140D01*
X14481Y-20140D01*
X14317Y-20207D01*
X14191Y-20333D01*
X14123Y-20497D01*
X14123Y-20498D01*
X14029Y-20498D01*
X13864Y-20566D01*
X13739Y-20691D01*
X13670Y-20856D01*
X13670Y-21033D01*
X13738Y-21198D01*
X13828Y-21287D01*
X13828Y-24516D01*
X13377Y-24967D01*
X13331Y-24920D01*
X13331Y-21021D01*
X14195Y-20157D01*
X14195Y-20157D01*
X14258Y-20063D01*
X14258Y-20063D01*
X14262Y-20044D01*
X14280Y-19952D01*
X14280Y-19952D01*
X14280Y-18139D01*
X14358Y-18172D01*
X14485Y-18172D01*
X15127Y-18814D01*
X15127Y-21139D01*
X15127Y-21139D01*
G37*
G54D24*
X15127Y-21139D02*
X14986Y-21080D01*
X14808Y-21080D01*
X14800Y-21084D01*
X14800Y-20975D01*
X14823Y-20966D01*
X14948Y-20840D01*
X15017Y-20676D01*
X15017Y-20498D01*
X14949Y-20334D01*
X14823Y-20208D01*
X14659Y-20140D01*
X14481Y-20140D01*
X14317Y-20207D01*
X14191Y-20333D01*
X14123Y-20497D01*
X14123Y-20498D01*
X14029Y-20498D01*
X13864Y-20566D01*
X13739Y-20691D01*
X13670Y-20856D01*
X13670Y-21033D01*
X13738Y-21198D01*
X13828Y-21287D01*
X13828Y-24516D01*
X13377Y-24967D01*
X13331Y-24920D01*
X13331Y-21021D01*
X14195Y-20157D01*
X14195Y-20157D01*
X14258Y-20063D01*
X14258Y-20063D01*
X14262Y-20044D01*
X14280Y-19952D01*
X14280Y-19952D01*
X14280Y-18139D01*
X14358Y-18172D01*
X14485Y-18172D01*
X15127Y-18814D01*
X15127Y-21139D01*
G54D10*
G36*
X29431Y-17050D02*
X29333Y-16951D01*
X29021Y-16822D01*
X28801Y-16822D01*
X28801Y-15733D01*
X28695Y-15476D01*
X28498Y-15278D01*
X28241Y-15172D01*
X27962Y-15171D01*
X27705Y-15278D01*
X27508Y-15475D01*
X27401Y-15732D01*
X27401Y-16010D01*
X27507Y-16268D01*
X27704Y-16465D01*
X27961Y-16571D01*
X28240Y-16572D01*
X28497Y-16465D01*
X28694Y-16269D01*
X28801Y-16011D01*
X28801Y-15733D01*
X28801Y-16822D01*
X28683Y-16821D01*
X28370Y-16951D01*
X28131Y-17189D01*
X28001Y-17502D01*
X28001Y-17840D01*
X28082Y-18037D01*
X27985Y-18036D01*
X27770Y-18125D01*
X27605Y-18290D01*
X27516Y-18505D01*
X27516Y-18737D01*
X27592Y-18922D01*
X27462Y-18921D01*
X27205Y-19028D01*
X27136Y-19096D01*
X27136Y-18417D01*
X27136Y-14667D01*
X26979Y-14286D01*
X26688Y-13995D01*
X26308Y-13837D01*
X25896Y-13836D01*
X25516Y-13994D01*
X25224Y-14285D01*
X25066Y-14665D01*
X25066Y-15077D01*
X25223Y-15457D01*
X25514Y-15748D01*
X25894Y-15906D01*
X26306Y-15907D01*
X26687Y-15749D01*
X26978Y-15459D01*
X27136Y-15078D01*
X27136Y-14667D01*
X27136Y-18417D01*
X26979Y-18036D01*
X26688Y-17745D01*
X26686Y-17744D01*
X26686Y-16756D01*
X26597Y-16541D01*
X26433Y-16376D01*
X26218Y-16287D01*
X25985Y-16286D01*
X25770Y-16375D01*
X25605Y-16540D01*
X25516Y-16755D01*
X25516Y-16987D01*
X25605Y-17202D01*
X25769Y-17367D01*
X25984Y-17456D01*
X26217Y-17457D01*
X26432Y-17368D01*
X26597Y-17203D01*
X26686Y-16988D01*
X26686Y-16756D01*
X26686Y-17744D01*
X26308Y-17587D01*
X25896Y-17586D01*
X25516Y-17744D01*
X25224Y-18035D01*
X25066Y-18415D01*
X25066Y-18827D01*
X25223Y-19207D01*
X25514Y-19498D01*
X25894Y-19656D01*
X26306Y-19657D01*
X26687Y-19499D01*
X26978Y-19209D01*
X27136Y-18828D01*
X27136Y-18417D01*
X27136Y-19096D01*
X27008Y-19225D01*
X26901Y-19482D01*
X26901Y-19760D01*
X26945Y-19868D01*
X26896Y-19917D01*
X26834Y-20011D01*
X26812Y-20122D01*
X26812Y-20234D01*
X26705Y-20278D01*
X26686Y-20297D01*
X26686Y-20256D01*
X26597Y-20041D01*
X26433Y-19876D01*
X26218Y-19787D01*
X25985Y-19786D01*
X25770Y-19875D01*
X25605Y-20040D01*
X25577Y-20108D01*
X25498Y-20028D01*
X25241Y-19922D01*
X24962Y-19921D01*
X24705Y-20028D01*
X24686Y-20047D01*
X24686Y-18506D01*
X24597Y-18291D01*
X24433Y-18126D01*
X24218Y-18037D01*
X23985Y-18036D01*
X23786Y-18119D01*
X23886Y-17878D01*
X23886Y-17467D01*
X23729Y-17086D01*
X23438Y-16795D01*
X23058Y-16637D01*
X22646Y-16636D01*
X22266Y-16794D01*
X21974Y-17085D01*
X21816Y-17465D01*
X21816Y-17877D01*
X21973Y-18257D01*
X22264Y-18548D01*
X22440Y-18622D01*
X22266Y-18694D01*
X21974Y-18985D01*
X21816Y-19365D01*
X21816Y-19777D01*
X21973Y-20157D01*
X22264Y-20448D01*
X22644Y-20606D01*
X23056Y-20607D01*
X23437Y-20449D01*
X23728Y-20159D01*
X23886Y-19778D01*
X23886Y-19367D01*
X23786Y-19124D01*
X23984Y-19206D01*
X24217Y-19207D01*
X24432Y-19118D01*
X24597Y-18953D01*
X24686Y-18738D01*
X24686Y-18506D01*
X24686Y-20047D01*
X24508Y-20225D01*
X24414Y-20450D01*
X21725Y-23139D01*
X21725Y-16514D01*
X21814Y-16425D01*
X21882Y-16260D01*
X21883Y-16083D01*
X21815Y-15918D01*
X21689Y-15792D01*
X21525Y-15724D01*
X21347Y-15724D01*
X21183Y-15792D01*
X21057Y-15918D01*
X20989Y-16082D01*
X20989Y-16260D01*
X21057Y-16424D01*
X21146Y-16514D01*
X21146Y-18408D01*
X21097Y-18289D01*
X20933Y-18125D01*
X20718Y-18035D01*
X20485Y-18035D01*
X20270Y-18124D01*
X20105Y-18289D01*
X20016Y-18503D01*
X20016Y-18736D01*
X20092Y-18920D01*
X19962Y-18920D01*
X19705Y-19027D01*
X19508Y-19223D01*
X19401Y-19481D01*
X19401Y-19759D01*
X19507Y-20016D01*
X19704Y-20213D01*
X19961Y-20320D01*
X20240Y-20320D01*
X20497Y-20214D01*
X20694Y-20017D01*
X20801Y-19760D01*
X20801Y-19482D01*
X20695Y-19224D01*
X20676Y-19205D01*
X20717Y-19205D01*
X20932Y-19117D01*
X21097Y-18952D01*
X21146Y-18833D01*
X21146Y-23141D01*
X21085Y-23203D01*
X20959Y-23202D01*
X20795Y-23270D01*
X20708Y-23357D01*
X18245Y-20895D01*
X18301Y-20760D01*
X18301Y-20482D01*
X18195Y-20224D01*
X17998Y-20027D01*
X17741Y-19920D01*
X17462Y-19920D01*
X17322Y-19978D01*
X17322Y-18980D01*
X17566Y-18736D01*
X17566Y-18825D01*
X17723Y-19206D01*
X18014Y-19497D01*
X18394Y-19655D01*
X18806Y-19656D01*
X19187Y-19498D01*
X19478Y-19207D01*
X19636Y-18827D01*
X19636Y-18415D01*
X19479Y-18035D01*
X19188Y-17743D01*
X18808Y-17586D01*
X18717Y-17585D01*
X22152Y-14150D01*
X22152Y-14150D01*
X22215Y-14056D01*
X22215Y-14056D01*
X22219Y-14037D01*
X22237Y-13945D01*
X22237Y-13945D01*
X22237Y-11022D01*
X22264Y-11048D01*
X22644Y-11206D01*
X23056Y-11207D01*
X23437Y-11049D01*
X23541Y-10946D01*
X23516Y-11005D01*
X23516Y-11237D01*
X23605Y-11452D01*
X23769Y-11617D01*
X23984Y-11706D01*
X24217Y-11707D01*
X24432Y-11618D01*
X24597Y-11453D01*
X24686Y-11238D01*
X24686Y-11006D01*
X24597Y-10791D01*
X24433Y-10626D01*
X24218Y-10537D01*
X23985Y-10536D01*
X23786Y-10619D01*
X23886Y-10378D01*
X23886Y-9967D01*
X23729Y-9586D01*
X23438Y-9295D01*
X23058Y-9137D01*
X22646Y-9136D01*
X22388Y-9243D01*
X23958Y-7673D01*
X23988Y-7685D01*
X24213Y-7686D01*
X24421Y-7600D01*
X24580Y-7441D01*
X24666Y-7233D01*
X24666Y-7009D01*
X24580Y-6801D01*
X24422Y-6642D01*
X24214Y-6556D01*
X23989Y-6556D01*
X23781Y-6641D01*
X23622Y-6800D01*
X23536Y-7008D01*
X23536Y-7232D01*
X23549Y-7264D01*
X21966Y-8847D01*
X21966Y-8611D01*
X23189Y-7388D01*
X23265Y-7275D01*
X23265Y-7275D01*
X23292Y-7141D01*
X23292Y-3871D01*
X23516Y-3647D01*
X23516Y-3737D01*
X23605Y-3952D01*
X23769Y-4117D01*
X23984Y-4206D01*
X24217Y-4207D01*
X24432Y-4118D01*
X24597Y-3953D01*
X24686Y-3738D01*
X24686Y-3506D01*
X24597Y-3291D01*
X24433Y-3126D01*
X24218Y-3037D01*
X24126Y-3037D01*
X25003Y-2160D01*
X25014Y-2187D01*
X25084Y-2257D01*
X25176Y-2296D01*
X25276Y-2296D01*
X26026Y-2296D01*
X26118Y-2258D01*
X26188Y-2187D01*
X26202Y-2154D01*
X26362Y-2261D01*
X26601Y-2309D01*
X26743Y-2281D01*
X26743Y-2800D01*
X26688Y-2745D01*
X26308Y-2587D01*
X25896Y-2586D01*
X25516Y-2744D01*
X25224Y-3035D01*
X25066Y-3415D01*
X25066Y-3827D01*
X25223Y-4207D01*
X25514Y-4498D01*
X25894Y-4656D01*
X26306Y-4657D01*
X26687Y-4499D01*
X26743Y-4443D01*
X26743Y-6680D01*
X26622Y-6800D01*
X26536Y-7008D01*
X26536Y-7232D01*
X26622Y-7440D01*
X26781Y-7599D01*
X26988Y-7685D01*
X27213Y-7686D01*
X27421Y-7600D01*
X27580Y-7441D01*
X27666Y-7233D01*
X27666Y-7009D01*
X27580Y-6801D01*
X27422Y-6642D01*
X27322Y-6601D01*
X27322Y-5264D01*
X27461Y-5321D01*
X27740Y-5322D01*
X27997Y-5215D01*
X28194Y-5019D01*
X28301Y-4761D01*
X28301Y-4483D01*
X28195Y-4226D01*
X28176Y-4207D01*
X28217Y-4207D01*
X28432Y-4118D01*
X28597Y-3953D01*
X28686Y-3738D01*
X28686Y-3506D01*
X28597Y-3291D01*
X28433Y-3126D01*
X28218Y-3037D01*
X27985Y-3036D01*
X27770Y-3125D01*
X27605Y-3290D01*
X27516Y-3505D01*
X27516Y-3737D01*
X27592Y-3922D01*
X27462Y-3921D01*
X27322Y-3979D01*
X27322Y-2045D01*
X27341Y-2017D01*
X27362Y-1986D01*
X27362Y-1986D01*
X27384Y-1875D01*
X27384Y-1875D01*
X27384Y-1621D01*
X27362Y-1510D01*
X27299Y-1416D01*
X27205Y-1353D01*
X27185Y-1349D01*
X27178Y-1318D01*
X27043Y-1115D01*
X26840Y-980D01*
X26601Y-932D01*
X26362Y-980D01*
X26202Y-1087D01*
X26188Y-1054D01*
X26118Y-984D01*
X26026Y-946D01*
X25927Y-946D01*
X25177Y-946D01*
X25085Y-983D01*
X25014Y-1054D01*
X24976Y-1146D01*
X24976Y-1245D01*
X24976Y-1285D01*
X24913Y-1297D01*
X24800Y-1373D01*
X22942Y-3231D01*
X20469Y-758D01*
X20355Y-682D01*
X20221Y-656D01*
X18716Y-656D01*
X18582Y-682D01*
X18468Y-758D01*
X18281Y-946D01*
X17677Y-946D01*
X17585Y-983D01*
X17514Y-1054D01*
X17476Y-1146D01*
X17476Y-1245D01*
X17476Y-2095D01*
X17514Y-2187D01*
X17584Y-2257D01*
X17676Y-2296D01*
X17776Y-2296D01*
X18526Y-2296D01*
X18618Y-2258D01*
X18688Y-2187D01*
X18702Y-2154D01*
X18862Y-2261D01*
X19101Y-2309D01*
X19223Y-2285D01*
X19223Y-2779D01*
X19188Y-2745D01*
X18808Y-2587D01*
X18396Y-2586D01*
X18016Y-2744D01*
X17724Y-3035D01*
X17566Y-3415D01*
X17566Y-3827D01*
X17723Y-4207D01*
X18014Y-4498D01*
X18394Y-4656D01*
X18806Y-4657D01*
X19187Y-4499D01*
X19223Y-4463D01*
X19223Y-6559D01*
X19214Y-6556D01*
X18989Y-6556D01*
X18781Y-6641D01*
X18622Y-6800D01*
X18536Y-7008D01*
X18536Y-7232D01*
X18622Y-7440D01*
X18781Y-7599D01*
X18988Y-7685D01*
X19213Y-7686D01*
X19421Y-7600D01*
X19580Y-7441D01*
X19666Y-7233D01*
X19666Y-7009D01*
X19653Y-6978D01*
X19717Y-6914D01*
X19717Y-6914D01*
X19779Y-6820D01*
X19779Y-6820D01*
X19783Y-6802D01*
X19801Y-6710D01*
X19801Y-6710D01*
X19801Y-5255D01*
X19961Y-5321D01*
X20240Y-5322D01*
X20497Y-5215D01*
X20694Y-5019D01*
X20801Y-4761D01*
X20801Y-4483D01*
X20695Y-4226D01*
X20676Y-4207D01*
X20717Y-4207D01*
X20932Y-4118D01*
X21097Y-3953D01*
X21186Y-3738D01*
X21186Y-3506D01*
X21097Y-3291D01*
X20933Y-3126D01*
X20718Y-3037D01*
X20485Y-3036D01*
X20270Y-3125D01*
X20105Y-3290D01*
X20016Y-3505D01*
X20016Y-3737D01*
X20092Y-3922D01*
X19962Y-3921D01*
X19801Y-3988D01*
X19801Y-2076D01*
X19801Y-2076D01*
X19862Y-1986D01*
X19884Y-1875D01*
X19884Y-1875D01*
X19884Y-1621D01*
X19862Y-1510D01*
X19799Y-1416D01*
X19709Y-1356D01*
X20076Y-1356D01*
X22592Y-3871D01*
X22592Y-6828D01*
X22580Y-6801D01*
X22422Y-6642D01*
X22214Y-6556D01*
X21989Y-6556D01*
X21781Y-6641D01*
X21622Y-6800D01*
X21536Y-7008D01*
X21536Y-7232D01*
X21549Y-7264D01*
X20882Y-7931D01*
X20819Y-8024D01*
X20797Y-8135D01*
X20797Y-10569D01*
X20718Y-10536D01*
X20485Y-10535D01*
X20270Y-10624D01*
X20105Y-10789D01*
X20016Y-11004D01*
X20016Y-11236D01*
X20092Y-11421D01*
X19962Y-11420D01*
X19705Y-11527D01*
X19508Y-11724D01*
X19401Y-11981D01*
X19401Y-12259D01*
X19507Y-12517D01*
X19704Y-12714D01*
X19961Y-12820D01*
X20240Y-12821D01*
X20497Y-12714D01*
X20694Y-12518D01*
X20797Y-12270D01*
X20797Y-12625D01*
X15866Y-17556D01*
X15866Y-8178D01*
X17312Y-9624D01*
X17312Y-12483D01*
X17205Y-12527D01*
X17186Y-12546D01*
X17186Y-11005D01*
X17097Y-10790D01*
X16933Y-10625D01*
X16718Y-10536D01*
X16485Y-10535D01*
X16270Y-10624D01*
X16105Y-10789D01*
X16016Y-11004D01*
X16016Y-11236D01*
X16105Y-11452D01*
X16269Y-11616D01*
X16484Y-11705D01*
X16717Y-11706D01*
X16932Y-11617D01*
X17097Y-11452D01*
X17186Y-11237D01*
X17186Y-11005D01*
X17186Y-12546D01*
X17008Y-12724D01*
X16901Y-12981D01*
X16901Y-13259D01*
X17007Y-13517D01*
X17204Y-13714D01*
X17461Y-13820D01*
X17740Y-13821D01*
X17997Y-13714D01*
X18194Y-13518D01*
X18301Y-13260D01*
X18301Y-12982D01*
X18195Y-12725D01*
X17998Y-12527D01*
X17890Y-12483D01*
X17890Y-11874D01*
X18014Y-11997D01*
X18394Y-12155D01*
X18806Y-12156D01*
X19187Y-11999D01*
X19478Y-11708D01*
X19636Y-11327D01*
X19636Y-10916D01*
X19479Y-10535D01*
X19188Y-10244D01*
X18808Y-10086D01*
X18396Y-10085D01*
X18301Y-10125D01*
X18301Y-5483D01*
X18195Y-5226D01*
X17998Y-5028D01*
X17741Y-4922D01*
X17462Y-4921D01*
X17205Y-5028D01*
X17186Y-5047D01*
X17186Y-3506D01*
X17097Y-3291D01*
X16933Y-3126D01*
X16718Y-3037D01*
X16485Y-3036D01*
X16270Y-3125D01*
X16105Y-3290D01*
X16016Y-3505D01*
X16016Y-3737D01*
X16105Y-3952D01*
X16269Y-4117D01*
X16484Y-4206D01*
X16717Y-4207D01*
X16932Y-4118D01*
X17097Y-3953D01*
X17186Y-3738D01*
X17186Y-3506D01*
X17186Y-5047D01*
X17008Y-5225D01*
X16901Y-5482D01*
X16901Y-5760D01*
X17007Y-6018D01*
X17204Y-6215D01*
X17461Y-6321D01*
X17740Y-6322D01*
X17997Y-6215D01*
X18194Y-6019D01*
X18301Y-5761D01*
X18301Y-5483D01*
X18301Y-10125D01*
X18016Y-10243D01*
X17890Y-10368D01*
X17890Y-9504D01*
X17890Y-9504D01*
X17868Y-9394D01*
X17868Y-9394D01*
X17848Y-9362D01*
X17806Y-9300D01*
X17806Y-9300D01*
X14987Y-6481D01*
X14893Y-6418D01*
X14783Y-6396D01*
X14547Y-6396D01*
X14547Y-3485D01*
X14525Y-3374D01*
X14462Y-3280D01*
X14462Y-3280D01*
X11896Y-714D01*
X11802Y-651D01*
X11691Y-629D01*
X6246Y-629D01*
X6153Y-647D01*
X6135Y-651D01*
X6041Y-714D01*
X4540Y-2215D01*
X4410Y-2215D01*
X4543Y-2126D01*
X4678Y-1923D01*
X4726Y-1684D01*
X4726Y-1557D01*
X4678Y-1318D01*
X4543Y-1115D01*
X4340Y-980D01*
X4101Y-932D01*
X3862Y-980D01*
X3702Y-1087D01*
X3688Y-1054D01*
X3618Y-984D01*
X3526Y-946D01*
X3426Y-946D01*
X2676Y-946D01*
X2584Y-983D01*
X2514Y-1054D01*
X2476Y-1146D01*
X2476Y-1245D01*
X2476Y-2095D01*
X2514Y-2187D01*
X2584Y-2257D01*
X2676Y-2296D01*
X2775Y-2296D01*
X2998Y-2296D01*
X2089Y-3205D01*
X2058Y-3251D01*
X1933Y-3125D01*
X1718Y-3036D01*
X1485Y-3035D01*
X1270Y-3124D01*
X1105Y-3289D01*
X1016Y-3504D01*
X1016Y-3736D01*
X1105Y-3952D01*
X1269Y-4116D01*
X1376Y-4161D01*
X896Y-4641D01*
X834Y-4735D01*
X812Y-4845D01*
X812Y-6629D01*
X781Y-6641D01*
X622Y-6800D01*
X536Y-7008D01*
X536Y-7232D01*
X622Y-7440D01*
X780Y-7599D01*
X988Y-7685D01*
X1213Y-7686D01*
X1420Y-7600D01*
X1580Y-7441D01*
X1666Y-7233D01*
X1666Y-7009D01*
X1580Y-6801D01*
X1421Y-6642D01*
X1390Y-6629D01*
X1390Y-4965D01*
X2289Y-4066D01*
X2289Y-4147D01*
X1825Y-4611D01*
X1763Y-4705D01*
X1741Y-4815D01*
X1741Y-6252D01*
X1763Y-6363D01*
X1825Y-6456D01*
X2312Y-6943D01*
X2312Y-12483D01*
X2205Y-12527D01*
X2186Y-12546D01*
X2186Y-11005D01*
X2097Y-10790D01*
X1933Y-10625D01*
X1718Y-10536D01*
X1485Y-10535D01*
X1270Y-10624D01*
X1105Y-10789D01*
X1016Y-11004D01*
X1016Y-11236D01*
X1105Y-11452D01*
X1269Y-11616D01*
X1484Y-11705D01*
X1717Y-11706D01*
X1932Y-11617D01*
X2097Y-11452D01*
X2186Y-11237D01*
X2186Y-11005D01*
X2186Y-12546D01*
X2008Y-12724D01*
X1901Y-12981D01*
X1901Y-13259D01*
X2007Y-13517D01*
X2204Y-13714D01*
X2461Y-13820D01*
X2740Y-13821D01*
X2997Y-13714D01*
X3194Y-13518D01*
X3301Y-13260D01*
X3301Y-12982D01*
X3195Y-12725D01*
X2998Y-12527D01*
X2890Y-12483D01*
X2890Y-11874D01*
X3014Y-11997D01*
X3394Y-12155D01*
X3806Y-12156D01*
X4186Y-11999D01*
X4478Y-11708D01*
X4636Y-11327D01*
X4636Y-10916D01*
X4479Y-10535D01*
X4188Y-10244D01*
X3808Y-10086D01*
X3396Y-10085D01*
X3015Y-10243D01*
X2890Y-10368D01*
X2890Y-6823D01*
X2868Y-6712D01*
X2868Y-6712D01*
X2847Y-6681D01*
X2805Y-6618D01*
X2805Y-6618D01*
X2508Y-6320D01*
X2740Y-6321D01*
X2997Y-6214D01*
X3194Y-6018D01*
X3301Y-5760D01*
X3301Y-5654D01*
X4401Y-4554D01*
X4401Y-4759D01*
X4447Y-4871D01*
X4397Y-4947D01*
X4375Y-5057D01*
X4375Y-6018D01*
X4286Y-6107D01*
X4217Y-6272D01*
X4217Y-6449D01*
X4271Y-6579D01*
X4214Y-6556D01*
X3989Y-6556D01*
X3781Y-6641D01*
X3622Y-6800D01*
X3536Y-7008D01*
X3536Y-7232D01*
X3622Y-7440D01*
X3780Y-7599D01*
X3988Y-7685D01*
X4213Y-7686D01*
X4244Y-7673D01*
X6250Y-9679D01*
X6250Y-19061D01*
X6272Y-19172D01*
X6335Y-19266D01*
X6642Y-19573D01*
X6620Y-19626D01*
X6620Y-19866D01*
X6668Y-19982D01*
X5709Y-19982D01*
X5801Y-19760D01*
X5801Y-19482D01*
X5695Y-19224D01*
X5676Y-19205D01*
X5717Y-19205D01*
X5932Y-19117D01*
X6097Y-18952D01*
X6186Y-18737D01*
X6186Y-18505D01*
X6186Y-11005D01*
X6097Y-10790D01*
X5933Y-10625D01*
X5718Y-10536D01*
X5485Y-10535D01*
X5270Y-10624D01*
X5105Y-10789D01*
X5016Y-11004D01*
X5016Y-11236D01*
X5092Y-11421D01*
X4962Y-11420D01*
X4705Y-11527D01*
X4508Y-11724D01*
X4401Y-11981D01*
X4401Y-12259D01*
X4507Y-12517D01*
X4704Y-12714D01*
X4961Y-12820D01*
X5240Y-12821D01*
X5497Y-12714D01*
X5694Y-12518D01*
X5801Y-12260D01*
X5801Y-11982D01*
X5695Y-11725D01*
X5676Y-11706D01*
X5717Y-11706D01*
X5932Y-11617D01*
X6097Y-11452D01*
X6186Y-11237D01*
X6186Y-11005D01*
X6186Y-18505D01*
X6097Y-18289D01*
X5933Y-18125D01*
X5718Y-18035D01*
X5485Y-18035D01*
X5270Y-18124D01*
X5105Y-18289D01*
X5016Y-18503D01*
X5016Y-18736D01*
X5092Y-18920D01*
X4962Y-18920D01*
X4705Y-19027D01*
X4636Y-19095D01*
X4636Y-18415D01*
X4479Y-18035D01*
X4188Y-17743D01*
X3808Y-17586D01*
X3396Y-17585D01*
X3015Y-17742D01*
X2724Y-18033D01*
X2566Y-18414D01*
X2566Y-18825D01*
X2723Y-19206D01*
X3014Y-19497D01*
X3394Y-19655D01*
X3806Y-19656D01*
X4186Y-19498D01*
X4478Y-19207D01*
X4636Y-18827D01*
X4636Y-18415D01*
X4636Y-19095D01*
X4508Y-19223D01*
X4401Y-19481D01*
X4401Y-19759D01*
X4493Y-19982D01*
X2950Y-19982D01*
X2909Y-19990D01*
X2741Y-19920D01*
X2462Y-19920D01*
X2205Y-20027D01*
X2186Y-20045D01*
X2186Y-18505D01*
X2097Y-18289D01*
X1933Y-18125D01*
X1718Y-18035D01*
X1485Y-18035D01*
X1270Y-18124D01*
X1105Y-18289D01*
X1016Y-18503D01*
X1016Y-18736D01*
X1105Y-18951D01*
X1269Y-19116D01*
X1484Y-19205D01*
X1717Y-19205D01*
X1932Y-19117D01*
X2097Y-18952D01*
X2186Y-18737D01*
X2186Y-18505D01*
X2186Y-20045D01*
X2008Y-20223D01*
X1901Y-20481D01*
X1901Y-20759D01*
X2007Y-21016D01*
X2135Y-21144D01*
X2074Y-21103D01*
X1601Y-21009D01*
X270Y-21009D01*
X270Y-766D01*
X294Y-774D01*
X471Y-761D01*
X577Y-717D01*
X591Y-633D01*
X351Y-392D01*
X345Y-398D01*
X275Y-327D01*
X280Y-322D01*
X275Y-316D01*
X345Y-245D01*
X351Y-251D01*
X356Y-245D01*
X427Y-316D01*
X422Y-322D01*
X662Y-562D01*
X747Y-547D01*
X803Y-379D01*
X793Y-240D01*
X28923Y-240D01*
X28899Y-313D01*
X28911Y-491D01*
X28955Y-596D01*
X29040Y-611D01*
X29280Y-371D01*
X29274Y-365D01*
X29345Y-294D01*
X29351Y-300D01*
X29356Y-294D01*
X29427Y-365D01*
X29421Y-371D01*
X29427Y-376D01*
X29356Y-447D01*
X29351Y-441D01*
X29110Y-682D01*
X29125Y-766D01*
X29294Y-823D01*
X29431Y-813D01*
X29431Y-9550D01*
X29333Y-9451D01*
X29021Y-9322D01*
X28683Y-9321D01*
X28370Y-9451D01*
X28131Y-9689D01*
X28001Y-10002D01*
X28001Y-10340D01*
X28082Y-10537D01*
X27985Y-10536D01*
X27770Y-10625D01*
X27605Y-10790D01*
X27516Y-11005D01*
X27516Y-11237D01*
X27592Y-11422D01*
X27462Y-11421D01*
X27205Y-11528D01*
X27136Y-11596D01*
X27136Y-10917D01*
X26979Y-10536D01*
X26688Y-10245D01*
X26308Y-10087D01*
X25896Y-10086D01*
X25801Y-10126D01*
X25801Y-5483D01*
X25695Y-5226D01*
X25498Y-5028D01*
X25241Y-4922D01*
X24962Y-4921D01*
X24705Y-5028D01*
X24508Y-5225D01*
X24401Y-5482D01*
X24401Y-5760D01*
X24507Y-6018D01*
X24704Y-6215D01*
X24961Y-6321D01*
X25240Y-6322D01*
X25497Y-6215D01*
X25694Y-6019D01*
X25801Y-5761D01*
X25801Y-5483D01*
X25801Y-10126D01*
X25516Y-10244D01*
X25224Y-10535D01*
X25066Y-10915D01*
X25066Y-11327D01*
X25223Y-11707D01*
X25514Y-11998D01*
X25894Y-12156D01*
X26306Y-12157D01*
X26687Y-11999D01*
X26978Y-11709D01*
X27136Y-11328D01*
X27136Y-10917D01*
X27136Y-11596D01*
X27008Y-11725D01*
X26901Y-11982D01*
X26901Y-12260D01*
X27007Y-12518D01*
X27161Y-12672D01*
X26962Y-12671D01*
X26705Y-12778D01*
X26686Y-12797D01*
X26686Y-12756D01*
X26597Y-12541D01*
X26433Y-12376D01*
X26218Y-12287D01*
X25985Y-12286D01*
X25770Y-12375D01*
X25605Y-12540D01*
X25577Y-12608D01*
X25498Y-12528D01*
X25241Y-12422D01*
X24962Y-12421D01*
X24705Y-12528D01*
X24508Y-12725D01*
X24401Y-12982D01*
X24401Y-13260D01*
X24507Y-13518D01*
X24704Y-13715D01*
X24961Y-13821D01*
X25240Y-13822D01*
X25497Y-13715D01*
X25694Y-13519D01*
X25761Y-13359D01*
X25769Y-13367D01*
X25984Y-13456D01*
X26217Y-13457D01*
X26401Y-13381D01*
X26401Y-13510D01*
X26507Y-13768D01*
X26704Y-13965D01*
X26961Y-14071D01*
X27240Y-14072D01*
X27497Y-13965D01*
X27694Y-13769D01*
X27801Y-13511D01*
X27801Y-13233D01*
X27695Y-12976D01*
X27541Y-12821D01*
X27740Y-12822D01*
X27997Y-12715D01*
X28194Y-12519D01*
X28301Y-12261D01*
X28301Y-11983D01*
X28195Y-11726D01*
X28176Y-11707D01*
X28217Y-11707D01*
X28432Y-11618D01*
X28597Y-11453D01*
X28686Y-11238D01*
X28686Y-11021D01*
X29019Y-11022D01*
X29332Y-10893D01*
X29431Y-10793D01*
X29431Y-17050D01*
X29431Y-17050D01*
G37*
G54D24*
X29431Y-17050D02*
X29333Y-16951D01*
X29021Y-16822D01*
X28801Y-16822D01*
X28801Y-15733D01*
X28695Y-15476D01*
X28498Y-15278D01*
X28241Y-15172D01*
X27962Y-15171D01*
X27705Y-15278D01*
X27508Y-15475D01*
X27401Y-15732D01*
X27401Y-16010D01*
X27507Y-16268D01*
X27704Y-16465D01*
X27961Y-16571D01*
X28240Y-16572D01*
X28497Y-16465D01*
X28694Y-16269D01*
X28801Y-16011D01*
X28801Y-15733D01*
X28801Y-16822D01*
X28683Y-16821D01*
X28370Y-16951D01*
X28131Y-17189D01*
X28001Y-17502D01*
X28001Y-17840D01*
X28082Y-18037D01*
X27985Y-18036D01*
X27770Y-18125D01*
X27605Y-18290D01*
X27516Y-18505D01*
X27516Y-18737D01*
X27592Y-18922D01*
X27462Y-18921D01*
X27205Y-19028D01*
X27136Y-19096D01*
X27136Y-18417D01*
X27136Y-14667D01*
X26979Y-14286D01*
X26688Y-13995D01*
X26308Y-13837D01*
X25896Y-13836D01*
X25516Y-13994D01*
X25224Y-14285D01*
X25066Y-14665D01*
X25066Y-15077D01*
X25223Y-15457D01*
X25514Y-15748D01*
X25894Y-15906D01*
X26306Y-15907D01*
X26687Y-15749D01*
X26978Y-15459D01*
X27136Y-15078D01*
X27136Y-14667D01*
X27136Y-18417D01*
X26979Y-18036D01*
X26688Y-17745D01*
X26686Y-17744D01*
X26686Y-16756D01*
X26597Y-16541D01*
X26433Y-16376D01*
X26218Y-16287D01*
X25985Y-16286D01*
X25770Y-16375D01*
X25605Y-16540D01*
X25516Y-16755D01*
X25516Y-16987D01*
X25605Y-17202D01*
X25769Y-17367D01*
X25984Y-17456D01*
X26217Y-17457D01*
X26432Y-17368D01*
X26597Y-17203D01*
X26686Y-16988D01*
X26686Y-16756D01*
X26686Y-17744D01*
X26308Y-17587D01*
X25896Y-17586D01*
X25516Y-17744D01*
X25224Y-18035D01*
X25066Y-18415D01*
X25066Y-18827D01*
X25223Y-19207D01*
X25514Y-19498D01*
X25894Y-19656D01*
X26306Y-19657D01*
X26687Y-19499D01*
X26978Y-19209D01*
X27136Y-18828D01*
X27136Y-18417D01*
X27136Y-19096D01*
X27008Y-19225D01*
X26901Y-19482D01*
X26901Y-19760D01*
X26945Y-19868D01*
X26896Y-19917D01*
X26834Y-20011D01*
X26812Y-20122D01*
X26812Y-20234D01*
X26705Y-20278D01*
X26686Y-20297D01*
X26686Y-20256D01*
X26597Y-20041D01*
X26433Y-19876D01*
X26218Y-19787D01*
X25985Y-19786D01*
X25770Y-19875D01*
X25605Y-20040D01*
X25577Y-20108D01*
X25498Y-20028D01*
X25241Y-19922D01*
X24962Y-19921D01*
X24705Y-20028D01*
X24686Y-20047D01*
X24686Y-18506D01*
X24597Y-18291D01*
X24433Y-18126D01*
X24218Y-18037D01*
X23985Y-18036D01*
X23786Y-18119D01*
X23886Y-17878D01*
X23886Y-17467D01*
X23729Y-17086D01*
X23438Y-16795D01*
X23058Y-16637D01*
X22646Y-16636D01*
X22266Y-16794D01*
X21974Y-17085D01*
X21816Y-17465D01*
X21816Y-17877D01*
X21973Y-18257D01*
X22264Y-18548D01*
X22440Y-18622D01*
X22266Y-18694D01*
X21974Y-18985D01*
X21816Y-19365D01*
X21816Y-19777D01*
X21973Y-20157D01*
X22264Y-20448D01*
X22644Y-20606D01*
X23056Y-20607D01*
X23437Y-20449D01*
X23728Y-20159D01*
X23886Y-19778D01*
X23886Y-19367D01*
X23786Y-19124D01*
X23984Y-19206D01*
X24217Y-19207D01*
X24432Y-19118D01*
X24597Y-18953D01*
X24686Y-18738D01*
X24686Y-18506D01*
X24686Y-20047D01*
X24508Y-20225D01*
X24414Y-20450D01*
X21725Y-23139D01*
X21725Y-16514D01*
X21814Y-16425D01*
X21882Y-16260D01*
X21883Y-16083D01*
X21815Y-15918D01*
X21689Y-15792D01*
X21525Y-15724D01*
X21347Y-15724D01*
X21183Y-15792D01*
X21057Y-15918D01*
X20989Y-16082D01*
X20989Y-16260D01*
X21057Y-16424D01*
X21146Y-16514D01*
X21146Y-18408D01*
X21097Y-18289D01*
X20933Y-18125D01*
X20718Y-18035D01*
X20485Y-18035D01*
X20270Y-18124D01*
X20105Y-18289D01*
X20016Y-18503D01*
X20016Y-18736D01*
X20092Y-18920D01*
X19962Y-18920D01*
X19705Y-19027D01*
X19508Y-19223D01*
X19401Y-19481D01*
X19401Y-19759D01*
X19507Y-20016D01*
X19704Y-20213D01*
X19961Y-20320D01*
X20240Y-20320D01*
X20497Y-20214D01*
X20694Y-20017D01*
X20801Y-19760D01*
X20801Y-19482D01*
X20695Y-19224D01*
X20676Y-19205D01*
X20717Y-19205D01*
X20932Y-19117D01*
X21097Y-18952D01*
X21146Y-18833D01*
X21146Y-23141D01*
X21085Y-23203D01*
X20959Y-23202D01*
X20795Y-23270D01*
X20708Y-23357D01*
X18245Y-20895D01*
X18301Y-20760D01*
X18301Y-20482D01*
X18195Y-20224D01*
X17998Y-20027D01*
X17741Y-19920D01*
X17462Y-19920D01*
X17322Y-19978D01*
X17322Y-18980D01*
X17566Y-18736D01*
X17566Y-18825D01*
X17723Y-19206D01*
X18014Y-19497D01*
X18394Y-19655D01*
X18806Y-19656D01*
X19187Y-19498D01*
X19478Y-19207D01*
X19636Y-18827D01*
X19636Y-18415D01*
X19479Y-18035D01*
X19188Y-17743D01*
X18808Y-17586D01*
X18717Y-17585D01*
X22152Y-14150D01*
X22152Y-14150D01*
X22215Y-14056D01*
X22215Y-14056D01*
X22219Y-14037D01*
X22237Y-13945D01*
X22237Y-13945D01*
X22237Y-11022D01*
X22264Y-11048D01*
X22644Y-11206D01*
X23056Y-11207D01*
X23437Y-11049D01*
X23541Y-10946D01*
X23516Y-11005D01*
X23516Y-11237D01*
X23605Y-11452D01*
X23769Y-11617D01*
X23984Y-11706D01*
X24217Y-11707D01*
X24432Y-11618D01*
X24597Y-11453D01*
X24686Y-11238D01*
X24686Y-11006D01*
X24597Y-10791D01*
X24433Y-10626D01*
X24218Y-10537D01*
X23985Y-10536D01*
X23786Y-10619D01*
X23886Y-10378D01*
X23886Y-9967D01*
X23729Y-9586D01*
X23438Y-9295D01*
X23058Y-9137D01*
X22646Y-9136D01*
X22388Y-9243D01*
X23958Y-7673D01*
X23988Y-7685D01*
X24213Y-7686D01*
X24421Y-7600D01*
X24580Y-7441D01*
X24666Y-7233D01*
X24666Y-7009D01*
X24580Y-6801D01*
X24422Y-6642D01*
X24214Y-6556D01*
X23989Y-6556D01*
X23781Y-6641D01*
X23622Y-6800D01*
X23536Y-7008D01*
X23536Y-7232D01*
X23549Y-7264D01*
X21966Y-8847D01*
X21966Y-8611D01*
X23189Y-7388D01*
X23265Y-7275D01*
X23265Y-7275D01*
X23292Y-7141D01*
X23292Y-3871D01*
X23516Y-3647D01*
X23516Y-3737D01*
X23605Y-3952D01*
X23769Y-4117D01*
X23984Y-4206D01*
X24217Y-4207D01*
X24432Y-4118D01*
X24597Y-3953D01*
X24686Y-3738D01*
X24686Y-3506D01*
X24597Y-3291D01*
X24433Y-3126D01*
X24218Y-3037D01*
X24126Y-3037D01*
X25003Y-2160D01*
X25014Y-2187D01*
X25084Y-2257D01*
X25176Y-2296D01*
X25276Y-2296D01*
X26026Y-2296D01*
X26118Y-2258D01*
X26188Y-2187D01*
X26202Y-2154D01*
X26362Y-2261D01*
X26601Y-2309D01*
X26743Y-2281D01*
X26743Y-2800D01*
X26688Y-2745D01*
X26308Y-2587D01*
X25896Y-2586D01*
X25516Y-2744D01*
X25224Y-3035D01*
X25066Y-3415D01*
X25066Y-3827D01*
X25223Y-4207D01*
X25514Y-4498D01*
X25894Y-4656D01*
X26306Y-4657D01*
X26687Y-4499D01*
X26743Y-4443D01*
X26743Y-6680D01*
X26622Y-6800D01*
X26536Y-7008D01*
X26536Y-7232D01*
X26622Y-7440D01*
X26781Y-7599D01*
X26988Y-7685D01*
X27213Y-7686D01*
X27421Y-7600D01*
X27580Y-7441D01*
X27666Y-7233D01*
X27666Y-7009D01*
X27580Y-6801D01*
X27422Y-6642D01*
X27322Y-6601D01*
X27322Y-5264D01*
X27461Y-5321D01*
X27740Y-5322D01*
X27997Y-5215D01*
X28194Y-5019D01*
X28301Y-4761D01*
X28301Y-4483D01*
X28195Y-4226D01*
X28176Y-4207D01*
X28217Y-4207D01*
X28432Y-4118D01*
X28597Y-3953D01*
X28686Y-3738D01*
X28686Y-3506D01*
X28597Y-3291D01*
X28433Y-3126D01*
X28218Y-3037D01*
X27985Y-3036D01*
X27770Y-3125D01*
X27605Y-3290D01*
X27516Y-3505D01*
X27516Y-3737D01*
X27592Y-3922D01*
X27462Y-3921D01*
X27322Y-3979D01*
X27322Y-2045D01*
X27341Y-2017D01*
X27362Y-1986D01*
X27362Y-1986D01*
X27384Y-1875D01*
X27384Y-1875D01*
X27384Y-1621D01*
X27362Y-1510D01*
X27299Y-1416D01*
X27205Y-1353D01*
X27185Y-1349D01*
X27178Y-1318D01*
X27043Y-1115D01*
X26840Y-980D01*
X26601Y-932D01*
X26362Y-980D01*
X26202Y-1087D01*
X26188Y-1054D01*
X26118Y-984D01*
X26026Y-946D01*
X25927Y-946D01*
X25177Y-946D01*
X25085Y-983D01*
X25014Y-1054D01*
X24976Y-1146D01*
X24976Y-1245D01*
X24976Y-1285D01*
X24913Y-1297D01*
X24800Y-1373D01*
X22942Y-3231D01*
X20469Y-758D01*
X20355Y-682D01*
X20221Y-656D01*
X18716Y-656D01*
X18582Y-682D01*
X18468Y-758D01*
X18281Y-946D01*
X17677Y-946D01*
X17585Y-983D01*
X17514Y-1054D01*
X17476Y-1146D01*
X17476Y-1245D01*
X17476Y-2095D01*
X17514Y-2187D01*
X17584Y-2257D01*
X17676Y-2296D01*
X17776Y-2296D01*
X18526Y-2296D01*
X18618Y-2258D01*
X18688Y-2187D01*
X18702Y-2154D01*
X18862Y-2261D01*
X19101Y-2309D01*
X19223Y-2285D01*
X19223Y-2779D01*
X19188Y-2745D01*
X18808Y-2587D01*
X18396Y-2586D01*
X18016Y-2744D01*
X17724Y-3035D01*
X17566Y-3415D01*
X17566Y-3827D01*
X17723Y-4207D01*
X18014Y-4498D01*
X18394Y-4656D01*
X18806Y-4657D01*
X19187Y-4499D01*
X19223Y-4463D01*
X19223Y-6559D01*
X19214Y-6556D01*
X18989Y-6556D01*
X18781Y-6641D01*
X18622Y-6800D01*
X18536Y-7008D01*
X18536Y-7232D01*
X18622Y-7440D01*
X18781Y-7599D01*
X18988Y-7685D01*
X19213Y-7686D01*
X19421Y-7600D01*
X19580Y-7441D01*
X19666Y-7233D01*
X19666Y-7009D01*
X19653Y-6978D01*
X19717Y-6914D01*
X19717Y-6914D01*
X19779Y-6820D01*
X19779Y-6820D01*
X19783Y-6802D01*
X19801Y-6710D01*
X19801Y-6710D01*
X19801Y-5255D01*
X19961Y-5321D01*
X20240Y-5322D01*
X20497Y-5215D01*
X20694Y-5019D01*
X20801Y-4761D01*
X20801Y-4483D01*
X20695Y-4226D01*
X20676Y-4207D01*
X20717Y-4207D01*
X20932Y-4118D01*
X21097Y-3953D01*
X21186Y-3738D01*
X21186Y-3506D01*
X21097Y-3291D01*
X20933Y-3126D01*
X20718Y-3037D01*
X20485Y-3036D01*
X20270Y-3125D01*
X20105Y-3290D01*
X20016Y-3505D01*
X20016Y-3737D01*
X20092Y-3922D01*
X19962Y-3921D01*
X19801Y-3988D01*
X19801Y-2076D01*
X19801Y-2076D01*
X19862Y-1986D01*
X19884Y-1875D01*
X19884Y-1875D01*
X19884Y-1621D01*
X19862Y-1510D01*
X19799Y-1416D01*
X19709Y-1356D01*
X20076Y-1356D01*
X22592Y-3871D01*
X22592Y-6828D01*
X22580Y-6801D01*
X22422Y-6642D01*
X22214Y-6556D01*
X21989Y-6556D01*
X21781Y-6641D01*
X21622Y-6800D01*
X21536Y-7008D01*
X21536Y-7232D01*
X21549Y-7264D01*
X20882Y-7931D01*
X20819Y-8024D01*
X20797Y-8135D01*
X20797Y-10569D01*
X20718Y-10536D01*
X20485Y-10535D01*
X20270Y-10624D01*
X20105Y-10789D01*
X20016Y-11004D01*
X20016Y-11236D01*
X20092Y-11421D01*
X19962Y-11420D01*
X19705Y-11527D01*
X19508Y-11724D01*
X19401Y-11981D01*
X19401Y-12259D01*
X19507Y-12517D01*
X19704Y-12714D01*
X19961Y-12820D01*
X20240Y-12821D01*
X20497Y-12714D01*
X20694Y-12518D01*
X20797Y-12270D01*
X20797Y-12625D01*
X15866Y-17556D01*
X15866Y-8178D01*
X17312Y-9624D01*
X17312Y-12483D01*
X17205Y-12527D01*
X17186Y-12546D01*
X17186Y-11005D01*
X17097Y-10790D01*
X16933Y-10625D01*
X16718Y-10536D01*
X16485Y-10535D01*
X16270Y-10624D01*
X16105Y-10789D01*
X16016Y-11004D01*
X16016Y-11236D01*
X16105Y-11452D01*
X16269Y-11616D01*
X16484Y-11705D01*
X16717Y-11706D01*
X16932Y-11617D01*
X17097Y-11452D01*
X17186Y-11237D01*
X17186Y-11005D01*
X17186Y-12546D01*
X17008Y-12724D01*
X16901Y-12981D01*
X16901Y-13259D01*
X17007Y-13517D01*
X17204Y-13714D01*
X17461Y-13820D01*
X17740Y-13821D01*
X17997Y-13714D01*
X18194Y-13518D01*
X18301Y-13260D01*
X18301Y-12982D01*
X18195Y-12725D01*
X17998Y-12527D01*
X17890Y-12483D01*
X17890Y-11874D01*
X18014Y-11997D01*
X18394Y-12155D01*
X18806Y-12156D01*
X19187Y-11999D01*
X19478Y-11708D01*
X19636Y-11327D01*
X19636Y-10916D01*
X19479Y-10535D01*
X19188Y-10244D01*
X18808Y-10086D01*
X18396Y-10085D01*
X18301Y-10125D01*
X18301Y-5483D01*
X18195Y-5226D01*
X17998Y-5028D01*
X17741Y-4922D01*
X17462Y-4921D01*
X17205Y-5028D01*
X17186Y-5047D01*
X17186Y-3506D01*
X17097Y-3291D01*
X16933Y-3126D01*
X16718Y-3037D01*
X16485Y-3036D01*
X16270Y-3125D01*
X16105Y-3290D01*
X16016Y-3505D01*
X16016Y-3737D01*
X16105Y-3952D01*
X16269Y-4117D01*
X16484Y-4206D01*
X16717Y-4207D01*
X16932Y-4118D01*
X17097Y-3953D01*
X17186Y-3738D01*
X17186Y-3506D01*
X17186Y-5047D01*
X17008Y-5225D01*
X16901Y-5482D01*
X16901Y-5760D01*
X17007Y-6018D01*
X17204Y-6215D01*
X17461Y-6321D01*
X17740Y-6322D01*
X17997Y-6215D01*
X18194Y-6019D01*
X18301Y-5761D01*
X18301Y-5483D01*
X18301Y-10125D01*
X18016Y-10243D01*
X17890Y-10368D01*
X17890Y-9504D01*
X17890Y-9504D01*
X17868Y-9394D01*
X17868Y-9394D01*
X17848Y-9362D01*
X17806Y-9300D01*
X17806Y-9300D01*
X14987Y-6481D01*
X14893Y-6418D01*
X14783Y-6396D01*
X14547Y-6396D01*
X14547Y-3485D01*
X14525Y-3374D01*
X14462Y-3280D01*
X14462Y-3280D01*
X11896Y-714D01*
X11802Y-651D01*
X11691Y-629D01*
X6246Y-629D01*
X6153Y-647D01*
X6135Y-651D01*
X6041Y-714D01*
X4540Y-2215D01*
X4410Y-2215D01*
X4543Y-2126D01*
X4678Y-1923D01*
X4726Y-1684D01*
X4726Y-1557D01*
X4678Y-1318D01*
X4543Y-1115D01*
X4340Y-980D01*
X4101Y-932D01*
X3862Y-980D01*
X3702Y-1087D01*
X3688Y-1054D01*
X3618Y-984D01*
X3526Y-946D01*
X3426Y-946D01*
X2676Y-946D01*
X2584Y-983D01*
X2514Y-1054D01*
X2476Y-1146D01*
X2476Y-1245D01*
X2476Y-2095D01*
X2514Y-2187D01*
X2584Y-2257D01*
X2676Y-2296D01*
X2775Y-2296D01*
X2998Y-2296D01*
X2089Y-3205D01*
X2058Y-3251D01*
X1933Y-3125D01*
X1718Y-3036D01*
X1485Y-3035D01*
X1270Y-3124D01*
X1105Y-3289D01*
X1016Y-3504D01*
X1016Y-3736D01*
X1105Y-3952D01*
X1269Y-4116D01*
X1376Y-4161D01*
X896Y-4641D01*
X834Y-4735D01*
X812Y-4845D01*
X812Y-6629D01*
X781Y-6641D01*
X622Y-6800D01*
X536Y-7008D01*
X536Y-7232D01*
X622Y-7440D01*
X780Y-7599D01*
X988Y-7685D01*
X1213Y-7686D01*
X1420Y-7600D01*
X1580Y-7441D01*
X1666Y-7233D01*
X1666Y-7009D01*
X1580Y-6801D01*
X1421Y-6642D01*
X1390Y-6629D01*
X1390Y-4965D01*
X2289Y-4066D01*
X2289Y-4147D01*
X1825Y-4611D01*
X1763Y-4705D01*
X1741Y-4815D01*
X1741Y-6252D01*
X1763Y-6363D01*
X1825Y-6456D01*
X2312Y-6943D01*
X2312Y-12483D01*
X2205Y-12527D01*
X2186Y-12546D01*
X2186Y-11005D01*
X2097Y-10790D01*
X1933Y-10625D01*
X1718Y-10536D01*
X1485Y-10535D01*
X1270Y-10624D01*
X1105Y-10789D01*
X1016Y-11004D01*
X1016Y-11236D01*
X1105Y-11452D01*
X1269Y-11616D01*
X1484Y-11705D01*
X1717Y-11706D01*
X1932Y-11617D01*
X2097Y-11452D01*
X2186Y-11237D01*
X2186Y-11005D01*
X2186Y-12546D01*
X2008Y-12724D01*
X1901Y-12981D01*
X1901Y-13259D01*
X2007Y-13517D01*
X2204Y-13714D01*
X2461Y-13820D01*
X2740Y-13821D01*
X2997Y-13714D01*
X3194Y-13518D01*
X3301Y-13260D01*
X3301Y-12982D01*
X3195Y-12725D01*
X2998Y-12527D01*
X2890Y-12483D01*
X2890Y-11874D01*
X3014Y-11997D01*
X3394Y-12155D01*
X3806Y-12156D01*
X4186Y-11999D01*
X4478Y-11708D01*
X4636Y-11327D01*
X4636Y-10916D01*
X4479Y-10535D01*
X4188Y-10244D01*
X3808Y-10086D01*
X3396Y-10085D01*
X3015Y-10243D01*
X2890Y-10368D01*
X2890Y-6823D01*
X2868Y-6712D01*
X2868Y-6712D01*
X2847Y-6681D01*
X2805Y-6618D01*
X2805Y-6618D01*
X2508Y-6320D01*
X2740Y-6321D01*
X2997Y-6214D01*
X3194Y-6018D01*
X3301Y-5760D01*
X3301Y-5654D01*
X4401Y-4554D01*
X4401Y-4759D01*
X4447Y-4871D01*
X4397Y-4947D01*
X4375Y-5057D01*
X4375Y-6018D01*
X4286Y-6107D01*
X4217Y-6272D01*
X4217Y-6449D01*
X4271Y-6579D01*
X4214Y-6556D01*
X3989Y-6556D01*
X3781Y-6641D01*
X3622Y-6800D01*
X3536Y-7008D01*
X3536Y-7232D01*
X3622Y-7440D01*
X3780Y-7599D01*
X3988Y-7685D01*
X4213Y-7686D01*
X4244Y-7673D01*
X6250Y-9679D01*
X6250Y-19061D01*
X6272Y-19172D01*
X6335Y-19266D01*
X6642Y-19573D01*
X6620Y-19626D01*
X6620Y-19866D01*
X6668Y-19982D01*
X5709Y-19982D01*
X5801Y-19760D01*
X5801Y-19482D01*
X5695Y-19224D01*
X5676Y-19205D01*
X5717Y-19205D01*
X5932Y-19117D01*
X6097Y-18952D01*
X6186Y-18737D01*
X6186Y-18505D01*
X6186Y-11005D01*
X6097Y-10790D01*
X5933Y-10625D01*
X5718Y-10536D01*
X5485Y-10535D01*
X5270Y-10624D01*
X5105Y-10789D01*
X5016Y-11004D01*
X5016Y-11236D01*
X5092Y-11421D01*
X4962Y-11420D01*
X4705Y-11527D01*
X4508Y-11724D01*
X4401Y-11981D01*
X4401Y-12259D01*
X4507Y-12517D01*
X4704Y-12714D01*
X4961Y-12820D01*
X5240Y-12821D01*
X5497Y-12714D01*
X5694Y-12518D01*
X5801Y-12260D01*
X5801Y-11982D01*
X5695Y-11725D01*
X5676Y-11706D01*
X5717Y-11706D01*
X5932Y-11617D01*
X6097Y-11452D01*
X6186Y-11237D01*
X6186Y-11005D01*
X6186Y-18505D01*
X6097Y-18289D01*
X5933Y-18125D01*
X5718Y-18035D01*
X5485Y-18035D01*
X5270Y-18124D01*
X5105Y-18289D01*
X5016Y-18503D01*
X5016Y-18736D01*
X5092Y-18920D01*
X4962Y-18920D01*
X4705Y-19027D01*
X4636Y-19095D01*
X4636Y-18415D01*
X4479Y-18035D01*
X4188Y-17743D01*
X3808Y-17586D01*
X3396Y-17585D01*
X3015Y-17742D01*
X2724Y-18033D01*
X2566Y-18414D01*
X2566Y-18825D01*
X2723Y-19206D01*
X3014Y-19497D01*
X3394Y-19655D01*
X3806Y-19656D01*
X4186Y-19498D01*
X4478Y-19207D01*
X4636Y-18827D01*
X4636Y-18415D01*
X4636Y-19095D01*
X4508Y-19223D01*
X4401Y-19481D01*
X4401Y-19759D01*
X4493Y-19982D01*
X2950Y-19982D01*
X2909Y-19990D01*
X2741Y-19920D01*
X2462Y-19920D01*
X2205Y-20027D01*
X2186Y-20045D01*
X2186Y-18505D01*
X2097Y-18289D01*
X1933Y-18125D01*
X1718Y-18035D01*
X1485Y-18035D01*
X1270Y-18124D01*
X1105Y-18289D01*
X1016Y-18503D01*
X1016Y-18736D01*
X1105Y-18951D01*
X1269Y-19116D01*
X1484Y-19205D01*
X1717Y-19205D01*
X1932Y-19117D01*
X2097Y-18952D01*
X2186Y-18737D01*
X2186Y-18505D01*
X2186Y-20045D01*
X2008Y-20223D01*
X1901Y-20481D01*
X1901Y-20759D01*
X2007Y-21016D01*
X2135Y-21144D01*
X2074Y-21103D01*
X1601Y-21009D01*
X270Y-21009D01*
X270Y-766D01*
X294Y-774D01*
X471Y-761D01*
X577Y-717D01*
X591Y-633D01*
X351Y-392D01*
X345Y-398D01*
X275Y-327D01*
X280Y-322D01*
X275Y-316D01*
X345Y-245D01*
X351Y-251D01*
X356Y-245D01*
X427Y-316D01*
X422Y-322D01*
X662Y-562D01*
X747Y-547D01*
X803Y-379D01*
X793Y-240D01*
X28923Y-240D01*
X28899Y-313D01*
X28911Y-491D01*
X28955Y-596D01*
X29040Y-611D01*
X29280Y-371D01*
X29274Y-365D01*
X29345Y-294D01*
X29351Y-300D01*
X29356Y-294D01*
X29427Y-365D01*
X29421Y-371D01*
X29427Y-376D01*
X29356Y-447D01*
X29351Y-441D01*
X29110Y-682D01*
X29125Y-766D01*
X29294Y-823D01*
X29431Y-813D01*
X29431Y-9550D01*
X29333Y-9451D01*
X29021Y-9322D01*
X28683Y-9321D01*
X28370Y-9451D01*
X28131Y-9689D01*
X28001Y-10002D01*
X28001Y-10340D01*
X28082Y-10537D01*
X27985Y-10536D01*
X27770Y-10625D01*
X27605Y-10790D01*
X27516Y-11005D01*
X27516Y-11237D01*
X27592Y-11422D01*
X27462Y-11421D01*
X27205Y-11528D01*
X27136Y-11596D01*
X27136Y-10917D01*
X26979Y-10536D01*
X26688Y-10245D01*
X26308Y-10087D01*
X25896Y-10086D01*
X25801Y-10126D01*
X25801Y-5483D01*
X25695Y-5226D01*
X25498Y-5028D01*
X25241Y-4922D01*
X24962Y-4921D01*
X24705Y-5028D01*
X24508Y-5225D01*
X24401Y-5482D01*
X24401Y-5760D01*
X24507Y-6018D01*
X24704Y-6215D01*
X24961Y-6321D01*
X25240Y-6322D01*
X25497Y-6215D01*
X25694Y-6019D01*
X25801Y-5761D01*
X25801Y-5483D01*
X25801Y-10126D01*
X25516Y-10244D01*
X25224Y-10535D01*
X25066Y-10915D01*
X25066Y-11327D01*
X25223Y-11707D01*
X25514Y-11998D01*
X25894Y-12156D01*
X26306Y-12157D01*
X26687Y-11999D01*
X26978Y-11709D01*
X27136Y-11328D01*
X27136Y-10917D01*
X27136Y-11596D01*
X27008Y-11725D01*
X26901Y-11982D01*
X26901Y-12260D01*
X27007Y-12518D01*
X27161Y-12672D01*
X26962Y-12671D01*
X26705Y-12778D01*
X26686Y-12797D01*
X26686Y-12756D01*
X26597Y-12541D01*
X26433Y-12376D01*
X26218Y-12287D01*
X25985Y-12286D01*
X25770Y-12375D01*
X25605Y-12540D01*
X25577Y-12608D01*
X25498Y-12528D01*
X25241Y-12422D01*
X24962Y-12421D01*
X24705Y-12528D01*
X24508Y-12725D01*
X24401Y-12982D01*
X24401Y-13260D01*
X24507Y-13518D01*
X24704Y-13715D01*
X24961Y-13821D01*
X25240Y-13822D01*
X25497Y-13715D01*
X25694Y-13519D01*
X25761Y-13359D01*
X25769Y-13367D01*
X25984Y-13456D01*
X26217Y-13457D01*
X26401Y-13381D01*
X26401Y-13510D01*
X26507Y-13768D01*
X26704Y-13965D01*
X26961Y-14071D01*
X27240Y-14072D01*
X27497Y-13965D01*
X27694Y-13769D01*
X27801Y-13511D01*
X27801Y-13233D01*
X27695Y-12976D01*
X27541Y-12821D01*
X27740Y-12822D01*
X27997Y-12715D01*
X28194Y-12519D01*
X28301Y-12261D01*
X28301Y-11983D01*
X28195Y-11726D01*
X28176Y-11707D01*
X28217Y-11707D01*
X28432Y-11618D01*
X28597Y-11453D01*
X28686Y-11238D01*
X28686Y-11021D01*
X29019Y-11022D01*
X29332Y-10893D01*
X29431Y-10793D01*
X29431Y-17050D01*
G54D10*
G36*
X29431Y-43927D02*
X29408Y-43920D01*
X29230Y-43932D01*
X29125Y-43976D01*
X29110Y-44060D01*
X29351Y-44301D01*
X29356Y-44295D01*
X29427Y-44366D01*
X29421Y-44372D01*
X29427Y-44377D01*
X29356Y-44448D01*
X29351Y-44442D01*
X29345Y-44448D01*
X29274Y-44377D01*
X29280Y-44372D01*
X29040Y-44131D01*
X28955Y-44146D01*
X28899Y-44314D01*
X28908Y-44451D01*
X12673Y-44451D01*
X12771Y-44354D01*
X12901Y-44041D01*
X12901Y-43703D01*
X12780Y-43411D01*
X12798Y-43411D01*
X12798Y-43411D01*
X12909Y-43389D01*
X13003Y-43326D01*
X15200Y-41129D01*
X16945Y-42875D01*
X16901Y-42982D01*
X16901Y-43260D01*
X17007Y-43518D01*
X17204Y-43715D01*
X17461Y-43821D01*
X17740Y-43822D01*
X17997Y-43715D01*
X18194Y-43519D01*
X18239Y-43411D01*
X24463Y-43411D01*
X24507Y-43518D01*
X24704Y-43715D01*
X24961Y-43821D01*
X25240Y-43822D01*
X25497Y-43715D01*
X25694Y-43519D01*
X25801Y-43261D01*
X25801Y-42983D01*
X25695Y-42726D01*
X25498Y-42528D01*
X25241Y-42422D01*
X24962Y-42421D01*
X24705Y-42528D01*
X24508Y-42725D01*
X24463Y-42832D01*
X23554Y-42832D01*
X23728Y-42659D01*
X23886Y-42278D01*
X23886Y-41867D01*
X23786Y-41624D01*
X23984Y-41706D01*
X24217Y-41707D01*
X24432Y-41618D01*
X24597Y-41453D01*
X24686Y-41238D01*
X24686Y-41006D01*
X24597Y-40791D01*
X24433Y-40626D01*
X24218Y-40537D01*
X23985Y-40536D01*
X23770Y-40625D01*
X23605Y-40790D01*
X23516Y-41005D01*
X23516Y-41237D01*
X23541Y-41297D01*
X23438Y-41195D01*
X23058Y-41037D01*
X22646Y-41036D01*
X22266Y-41194D01*
X21974Y-41485D01*
X21816Y-41865D01*
X21816Y-42277D01*
X21973Y-42657D01*
X22148Y-42832D01*
X21186Y-42832D01*
X21186Y-41006D01*
X21097Y-40791D01*
X20933Y-40626D01*
X20718Y-40537D01*
X20485Y-40536D01*
X20270Y-40625D01*
X20105Y-40790D01*
X20016Y-41005D01*
X20016Y-41237D01*
X20092Y-41422D01*
X19962Y-41421D01*
X19705Y-41528D01*
X19636Y-41596D01*
X19636Y-40917D01*
X19479Y-40536D01*
X19188Y-40245D01*
X18808Y-40087D01*
X18396Y-40086D01*
X18016Y-40244D01*
X17724Y-40535D01*
X17566Y-40915D01*
X17566Y-41327D01*
X17723Y-41707D01*
X18014Y-41998D01*
X18394Y-42156D01*
X18806Y-42157D01*
X19187Y-41999D01*
X19478Y-41709D01*
X19636Y-41328D01*
X19636Y-40917D01*
X19636Y-41596D01*
X19508Y-41725D01*
X19401Y-41982D01*
X19401Y-42260D01*
X19507Y-42518D01*
X19704Y-42715D01*
X19961Y-42821D01*
X20240Y-42822D01*
X20497Y-42715D01*
X20694Y-42519D01*
X20801Y-42261D01*
X20801Y-41983D01*
X20695Y-41726D01*
X20676Y-41707D01*
X20717Y-41707D01*
X20932Y-41618D01*
X21097Y-41453D01*
X21186Y-41238D01*
X21186Y-41006D01*
X21186Y-42832D01*
X18239Y-42832D01*
X18195Y-42726D01*
X17998Y-42528D01*
X17741Y-42422D01*
X17462Y-42421D01*
X17355Y-42466D01*
X17248Y-42359D01*
X17248Y-37233D01*
X17180Y-37069D01*
X17055Y-36943D01*
X16890Y-36875D01*
X16713Y-36875D01*
X16548Y-36943D01*
X16422Y-37068D01*
X16354Y-37232D01*
X16354Y-37410D01*
X16422Y-37574D01*
X16548Y-37700D01*
X16712Y-37768D01*
X16890Y-37768D01*
X17054Y-37701D01*
X17180Y-37575D01*
X17248Y-37411D01*
X17248Y-37233D01*
X17248Y-42359D01*
X16595Y-41707D01*
X16717Y-41707D01*
X16932Y-41618D01*
X17097Y-41453D01*
X17186Y-41238D01*
X17186Y-41006D01*
X17097Y-40791D01*
X16933Y-40626D01*
X16718Y-40537D01*
X16485Y-40536D01*
X16270Y-40625D01*
X16105Y-40790D01*
X16016Y-41005D01*
X16016Y-41127D01*
X15487Y-40599D01*
X15487Y-37640D01*
X15548Y-37700D01*
X15712Y-37768D01*
X15890Y-37768D01*
X16054Y-37701D01*
X16180Y-37575D01*
X16248Y-37411D01*
X16248Y-37233D01*
X16180Y-37069D01*
X16055Y-36943D01*
X15890Y-36875D01*
X15713Y-36875D01*
X15548Y-36943D01*
X15487Y-37003D01*
X15487Y-27492D01*
X17312Y-29316D01*
X17312Y-34983D01*
X17205Y-35027D01*
X17186Y-35045D01*
X17186Y-33505D01*
X17097Y-33289D01*
X16933Y-33125D01*
X16718Y-33035D01*
X16485Y-33035D01*
X16270Y-33124D01*
X16105Y-33289D01*
X16016Y-33503D01*
X16016Y-33736D01*
X16105Y-33951D01*
X16269Y-34116D01*
X16484Y-34205D01*
X16717Y-34205D01*
X16932Y-34117D01*
X17097Y-33952D01*
X17186Y-33737D01*
X17186Y-33505D01*
X17186Y-35045D01*
X17008Y-35223D01*
X16901Y-35481D01*
X16901Y-35759D01*
X17007Y-36016D01*
X17204Y-36213D01*
X17461Y-36320D01*
X17740Y-36320D01*
X17997Y-36214D01*
X18194Y-36017D01*
X18238Y-35911D01*
X24463Y-35911D01*
X24507Y-36018D01*
X24704Y-36215D01*
X24961Y-36321D01*
X25240Y-36322D01*
X25497Y-36215D01*
X25694Y-36019D01*
X25761Y-35859D01*
X25769Y-35867D01*
X25984Y-35956D01*
X26217Y-35957D01*
X26401Y-35881D01*
X26401Y-36010D01*
X26507Y-36268D01*
X26704Y-36465D01*
X26961Y-36571D01*
X27240Y-36572D01*
X27497Y-36465D01*
X27694Y-36269D01*
X27801Y-36011D01*
X27801Y-35733D01*
X27695Y-35476D01*
X27541Y-35321D01*
X27740Y-35322D01*
X27997Y-35215D01*
X28145Y-35068D01*
X28369Y-35292D01*
X28681Y-35421D01*
X29019Y-35422D01*
X29332Y-35293D01*
X29431Y-35193D01*
X29431Y-36427D01*
X29408Y-36420D01*
X29230Y-36432D01*
X29125Y-36476D01*
X29110Y-36560D01*
X29351Y-36801D01*
X29356Y-36795D01*
X29427Y-36866D01*
X29421Y-36872D01*
X29427Y-36877D01*
X29356Y-36948D01*
X29351Y-36942D01*
X29280Y-37013D01*
X29280Y-36872D01*
X29040Y-36631D01*
X28955Y-36646D01*
X28899Y-36814D01*
X28911Y-36992D01*
X28955Y-37097D01*
X29040Y-37112D01*
X29280Y-36872D01*
X29280Y-37013D01*
X29110Y-37183D01*
X29125Y-37267D01*
X29294Y-37324D01*
X29431Y-37314D01*
X29431Y-41450D01*
X29333Y-41351D01*
X29021Y-41222D01*
X28801Y-41222D01*
X28801Y-38233D01*
X28695Y-37976D01*
X28498Y-37778D01*
X28241Y-37672D01*
X27962Y-37671D01*
X27705Y-37778D01*
X27508Y-37975D01*
X27401Y-38232D01*
X27401Y-38510D01*
X27507Y-38768D01*
X27704Y-38965D01*
X27961Y-39071D01*
X28240Y-39072D01*
X28497Y-38965D01*
X28694Y-38769D01*
X28801Y-38511D01*
X28801Y-38233D01*
X28801Y-41222D01*
X28686Y-41221D01*
X28686Y-41006D01*
X28597Y-40791D01*
X28433Y-40626D01*
X28218Y-40537D01*
X27985Y-40536D01*
X27770Y-40625D01*
X27605Y-40790D01*
X27516Y-41005D01*
X27516Y-41237D01*
X27592Y-41422D01*
X27462Y-41421D01*
X27205Y-41528D01*
X27136Y-41596D01*
X27136Y-40917D01*
X27136Y-37167D01*
X26979Y-36786D01*
X26688Y-36495D01*
X26308Y-36337D01*
X25896Y-36336D01*
X25516Y-36494D01*
X25224Y-36785D01*
X25066Y-37165D01*
X25066Y-37577D01*
X25223Y-37957D01*
X25514Y-38248D01*
X25894Y-38406D01*
X26306Y-38407D01*
X26687Y-38249D01*
X26978Y-37959D01*
X27136Y-37578D01*
X27136Y-37167D01*
X27136Y-40917D01*
X26979Y-40536D01*
X26688Y-40245D01*
X26686Y-40244D01*
X26686Y-39256D01*
X26597Y-39041D01*
X26433Y-38876D01*
X26218Y-38787D01*
X25985Y-38786D01*
X25770Y-38875D01*
X25605Y-39040D01*
X25516Y-39255D01*
X25516Y-39487D01*
X25605Y-39702D01*
X25769Y-39867D01*
X25984Y-39956D01*
X26217Y-39957D01*
X26432Y-39868D01*
X26597Y-39703D01*
X26686Y-39488D01*
X26686Y-39256D01*
X26686Y-40244D01*
X26308Y-40087D01*
X25896Y-40086D01*
X25516Y-40244D01*
X25224Y-40535D01*
X25066Y-40915D01*
X25066Y-41327D01*
X25223Y-41707D01*
X25514Y-41998D01*
X25894Y-42156D01*
X26306Y-42157D01*
X26687Y-41999D01*
X26978Y-41709D01*
X27136Y-41328D01*
X27136Y-40917D01*
X27136Y-41596D01*
X27008Y-41725D01*
X26901Y-41982D01*
X26901Y-42260D01*
X27007Y-42518D01*
X27204Y-42715D01*
X27461Y-42821D01*
X27740Y-42822D01*
X27997Y-42715D01*
X28145Y-42568D01*
X28369Y-42792D01*
X28681Y-42921D01*
X29019Y-42922D01*
X29332Y-42793D01*
X29431Y-42693D01*
X29431Y-43927D01*
X29431Y-43927D01*
G37*
G54D24*
X29431Y-43927D02*
X29408Y-43920D01*
X29230Y-43932D01*
X29125Y-43976D01*
X29110Y-44060D01*
X29351Y-44301D01*
X29356Y-44295D01*
X29427Y-44366D01*
X29421Y-44372D01*
X29427Y-44377D01*
X29356Y-44448D01*
X29351Y-44442D01*
X29345Y-44448D01*
X29274Y-44377D01*
X29280Y-44372D01*
X29040Y-44131D01*
X28955Y-44146D01*
X28899Y-44314D01*
X28908Y-44451D01*
X12673Y-44451D01*
X12771Y-44354D01*
X12901Y-44041D01*
X12901Y-43703D01*
X12780Y-43411D01*
X12798Y-43411D01*
X12798Y-43411D01*
X12909Y-43389D01*
X13003Y-43326D01*
X15200Y-41129D01*
X16945Y-42875D01*
X16901Y-42982D01*
X16901Y-43260D01*
X17007Y-43518D01*
X17204Y-43715D01*
X17461Y-43821D01*
X17740Y-43822D01*
X17997Y-43715D01*
X18194Y-43519D01*
X18239Y-43411D01*
X24463Y-43411D01*
X24507Y-43518D01*
X24704Y-43715D01*
X24961Y-43821D01*
X25240Y-43822D01*
X25497Y-43715D01*
X25694Y-43519D01*
X25801Y-43261D01*
X25801Y-42983D01*
X25695Y-42726D01*
X25498Y-42528D01*
X25241Y-42422D01*
X24962Y-42421D01*
X24705Y-42528D01*
X24508Y-42725D01*
X24463Y-42832D01*
X23554Y-42832D01*
X23728Y-42659D01*
X23886Y-42278D01*
X23886Y-41867D01*
X23786Y-41624D01*
X23984Y-41706D01*
X24217Y-41707D01*
X24432Y-41618D01*
X24597Y-41453D01*
X24686Y-41238D01*
X24686Y-41006D01*
X24597Y-40791D01*
X24433Y-40626D01*
X24218Y-40537D01*
X23985Y-40536D01*
X23770Y-40625D01*
X23605Y-40790D01*
X23516Y-41005D01*
X23516Y-41237D01*
X23541Y-41297D01*
X23438Y-41195D01*
X23058Y-41037D01*
X22646Y-41036D01*
X22266Y-41194D01*
X21974Y-41485D01*
X21816Y-41865D01*
X21816Y-42277D01*
X21973Y-42657D01*
X22148Y-42832D01*
X21186Y-42832D01*
X21186Y-41006D01*
X21097Y-40791D01*
X20933Y-40626D01*
X20718Y-40537D01*
X20485Y-40536D01*
X20270Y-40625D01*
X20105Y-40790D01*
X20016Y-41005D01*
X20016Y-41237D01*
X20092Y-41422D01*
X19962Y-41421D01*
X19705Y-41528D01*
X19636Y-41596D01*
X19636Y-40917D01*
X19479Y-40536D01*
X19188Y-40245D01*
X18808Y-40087D01*
X18396Y-40086D01*
X18016Y-40244D01*
X17724Y-40535D01*
X17566Y-40915D01*
X17566Y-41327D01*
X17723Y-41707D01*
X18014Y-41998D01*
X18394Y-42156D01*
X18806Y-42157D01*
X19187Y-41999D01*
X19478Y-41709D01*
X19636Y-41328D01*
X19636Y-40917D01*
X19636Y-41596D01*
X19508Y-41725D01*
X19401Y-41982D01*
X19401Y-42260D01*
X19507Y-42518D01*
X19704Y-42715D01*
X19961Y-42821D01*
X20240Y-42822D01*
X20497Y-42715D01*
X20694Y-42519D01*
X20801Y-42261D01*
X20801Y-41983D01*
X20695Y-41726D01*
X20676Y-41707D01*
X20717Y-41707D01*
X20932Y-41618D01*
X21097Y-41453D01*
X21186Y-41238D01*
X21186Y-41006D01*
X21186Y-42832D01*
X18239Y-42832D01*
X18195Y-42726D01*
X17998Y-42528D01*
X17741Y-42422D01*
X17462Y-42421D01*
X17355Y-42466D01*
X17248Y-42359D01*
X17248Y-37233D01*
X17180Y-37069D01*
X17055Y-36943D01*
X16890Y-36875D01*
X16713Y-36875D01*
X16548Y-36943D01*
X16422Y-37068D01*
X16354Y-37232D01*
X16354Y-37410D01*
X16422Y-37574D01*
X16548Y-37700D01*
X16712Y-37768D01*
X16890Y-37768D01*
X17054Y-37701D01*
X17180Y-37575D01*
X17248Y-37411D01*
X17248Y-37233D01*
X17248Y-42359D01*
X16595Y-41707D01*
X16717Y-41707D01*
X16932Y-41618D01*
X17097Y-41453D01*
X17186Y-41238D01*
X17186Y-41006D01*
X17097Y-40791D01*
X16933Y-40626D01*
X16718Y-40537D01*
X16485Y-40536D01*
X16270Y-40625D01*
X16105Y-40790D01*
X16016Y-41005D01*
X16016Y-41127D01*
X15487Y-40599D01*
X15487Y-37640D01*
X15548Y-37700D01*
X15712Y-37768D01*
X15890Y-37768D01*
X16054Y-37701D01*
X16180Y-37575D01*
X16248Y-37411D01*
X16248Y-37233D01*
X16180Y-37069D01*
X16055Y-36943D01*
X15890Y-36875D01*
X15713Y-36875D01*
X15548Y-36943D01*
X15487Y-37003D01*
X15487Y-27492D01*
X17312Y-29316D01*
X17312Y-34983D01*
X17205Y-35027D01*
X17186Y-35045D01*
X17186Y-33505D01*
X17097Y-33289D01*
X16933Y-33125D01*
X16718Y-33035D01*
X16485Y-33035D01*
X16270Y-33124D01*
X16105Y-33289D01*
X16016Y-33503D01*
X16016Y-33736D01*
X16105Y-33951D01*
X16269Y-34116D01*
X16484Y-34205D01*
X16717Y-34205D01*
X16932Y-34117D01*
X17097Y-33952D01*
X17186Y-33737D01*
X17186Y-33505D01*
X17186Y-35045D01*
X17008Y-35223D01*
X16901Y-35481D01*
X16901Y-35759D01*
X17007Y-36016D01*
X17204Y-36213D01*
X17461Y-36320D01*
X17740Y-36320D01*
X17997Y-36214D01*
X18194Y-36017D01*
X18238Y-35911D01*
X24463Y-35911D01*
X24507Y-36018D01*
X24704Y-36215D01*
X24961Y-36321D01*
X25240Y-36322D01*
X25497Y-36215D01*
X25694Y-36019D01*
X25761Y-35859D01*
X25769Y-35867D01*
X25984Y-35956D01*
X26217Y-35957D01*
X26401Y-35881D01*
X26401Y-36010D01*
X26507Y-36268D01*
X26704Y-36465D01*
X26961Y-36571D01*
X27240Y-36572D01*
X27497Y-36465D01*
X27694Y-36269D01*
X27801Y-36011D01*
X27801Y-35733D01*
X27695Y-35476D01*
X27541Y-35321D01*
X27740Y-35322D01*
X27997Y-35215D01*
X28145Y-35068D01*
X28369Y-35292D01*
X28681Y-35421D01*
X29019Y-35422D01*
X29332Y-35293D01*
X29431Y-35193D01*
X29431Y-36427D01*
X29408Y-36420D01*
X29230Y-36432D01*
X29125Y-36476D01*
X29110Y-36560D01*
X29351Y-36801D01*
X29356Y-36795D01*
X29427Y-36866D01*
X29421Y-36872D01*
X29427Y-36877D01*
X29356Y-36948D01*
X29351Y-36942D01*
X29280Y-37013D01*
X29280Y-36872D01*
X29040Y-36631D01*
X28955Y-36646D01*
X28899Y-36814D01*
X28911Y-36992D01*
X28955Y-37097D01*
X29040Y-37112D01*
X29280Y-36872D01*
X29280Y-37013D01*
X29110Y-37183D01*
X29125Y-37267D01*
X29294Y-37324D01*
X29431Y-37314D01*
X29431Y-41450D01*
X29333Y-41351D01*
X29021Y-41222D01*
X28801Y-41222D01*
X28801Y-38233D01*
X28695Y-37976D01*
X28498Y-37778D01*
X28241Y-37672D01*
X27962Y-37671D01*
X27705Y-37778D01*
X27508Y-37975D01*
X27401Y-38232D01*
X27401Y-38510D01*
X27507Y-38768D01*
X27704Y-38965D01*
X27961Y-39071D01*
X28240Y-39072D01*
X28497Y-38965D01*
X28694Y-38769D01*
X28801Y-38511D01*
X28801Y-38233D01*
X28801Y-41222D01*
X28686Y-41221D01*
X28686Y-41006D01*
X28597Y-40791D01*
X28433Y-40626D01*
X28218Y-40537D01*
X27985Y-40536D01*
X27770Y-40625D01*
X27605Y-40790D01*
X27516Y-41005D01*
X27516Y-41237D01*
X27592Y-41422D01*
X27462Y-41421D01*
X27205Y-41528D01*
X27136Y-41596D01*
X27136Y-40917D01*
X27136Y-37167D01*
X26979Y-36786D01*
X26688Y-36495D01*
X26308Y-36337D01*
X25896Y-36336D01*
X25516Y-36494D01*
X25224Y-36785D01*
X25066Y-37165D01*
X25066Y-37577D01*
X25223Y-37957D01*
X25514Y-38248D01*
X25894Y-38406D01*
X26306Y-38407D01*
X26687Y-38249D01*
X26978Y-37959D01*
X27136Y-37578D01*
X27136Y-37167D01*
X27136Y-40917D01*
X26979Y-40536D01*
X26688Y-40245D01*
X26686Y-40244D01*
X26686Y-39256D01*
X26597Y-39041D01*
X26433Y-38876D01*
X26218Y-38787D01*
X25985Y-38786D01*
X25770Y-38875D01*
X25605Y-39040D01*
X25516Y-39255D01*
X25516Y-39487D01*
X25605Y-39702D01*
X25769Y-39867D01*
X25984Y-39956D01*
X26217Y-39957D01*
X26432Y-39868D01*
X26597Y-39703D01*
X26686Y-39488D01*
X26686Y-39256D01*
X26686Y-40244D01*
X26308Y-40087D01*
X25896Y-40086D01*
X25516Y-40244D01*
X25224Y-40535D01*
X25066Y-40915D01*
X25066Y-41327D01*
X25223Y-41707D01*
X25514Y-41998D01*
X25894Y-42156D01*
X26306Y-42157D01*
X26687Y-41999D01*
X26978Y-41709D01*
X27136Y-41328D01*
X27136Y-40917D01*
X27136Y-41596D01*
X27008Y-41725D01*
X26901Y-41982D01*
X26901Y-42260D01*
X27007Y-42518D01*
X27204Y-42715D01*
X27461Y-42821D01*
X27740Y-42822D01*
X27997Y-42715D01*
X28145Y-42568D01*
X28369Y-42792D01*
X28681Y-42921D01*
X29019Y-42922D01*
X29332Y-42793D01*
X29431Y-42693D01*
X29431Y-43927D01*
M02*
