G04 (created by PCBNEW (2013-02-13 BZR 3947)-testing) date 9/24/2013 12:40:53 PM*
%MOIN*%
G04 Gerber Fmt 3.4, Leading zero omitted, Abs format*
%FSLAX34Y34*%
G01*
G70*
G90*
G04 APERTURE LIST*
%ADD10C,0*%
%ADD11C,0.2836*%
%ADD12O,0.4017X0.2049*%
%ADD13C,0.0434331*%
%ADD14C,0.0788661*%
%ADD15C,0.0709921*%
%ADD16C,0.098*%
%ADD17C,0.165*%
%ADD18C,0.075*%
%ADD19O,0.083X0.093*%
%ADD20R,0.083X0.093*%
%ADD21C,0.0473701*%
%ADD22C,0.128*%
G04 APERTURE END LIST*
G54D10*
G54D11*
X14851Y-32120D03*
G54D12*
X574Y-22244D03*
G54D13*
X6299Y-1523D03*
X8031Y-1523D03*
G54D14*
X7225Y-16746D03*
X7225Y-18746D03*
X7225Y-20746D03*
X7225Y-17746D03*
X7225Y-19746D03*
X7225Y-15746D03*
G54D15*
X1101Y-7121D03*
X4101Y-7121D03*
G54D16*
X4601Y-39120D03*
X2101Y-40120D03*
G54D17*
X3601Y-41120D03*
G54D18*
X1601Y-41120D03*
X5601Y-41120D03*
G54D16*
X17601Y-28120D03*
X20101Y-27120D03*
G54D17*
X18601Y-26120D03*
G54D18*
X20601Y-26120D03*
X16601Y-26120D03*
G54D16*
X17601Y-13121D03*
X20101Y-12121D03*
G54D17*
X18601Y-11121D03*
G54D18*
X20601Y-11121D03*
X16601Y-11121D03*
G54D16*
X25101Y-5622D03*
X27601Y-4622D03*
G54D17*
X26101Y-3622D03*
G54D18*
X28101Y-3622D03*
X24101Y-3622D03*
G54D16*
X17601Y-5622D03*
X20101Y-4622D03*
G54D17*
X18601Y-3622D03*
G54D18*
X20601Y-3622D03*
X16601Y-3622D03*
G54D16*
X17601Y-20620D03*
X20101Y-19620D03*
G54D17*
X18601Y-18620D03*
G54D18*
X20601Y-18620D03*
X16601Y-18620D03*
G54D16*
X10101Y-43122D03*
X12601Y-42122D03*
G54D17*
X11101Y-41122D03*
G54D18*
X13101Y-41122D03*
X9101Y-41122D03*
G54D19*
X26601Y-1621D03*
G54D20*
X25601Y-1621D03*
G54D19*
X4101Y-1621D03*
G54D20*
X3101Y-1621D03*
G54D21*
X351Y-36370D03*
X29351Y-371D03*
X29351Y-36620D03*
X351Y-322D03*
G54D16*
X2601Y-5621D03*
X5101Y-4621D03*
G54D17*
X3601Y-3621D03*
G54D18*
X5601Y-3621D03*
X1601Y-3621D03*
G54D16*
X2601Y-28120D03*
X5101Y-27120D03*
G54D17*
X3601Y-26120D03*
G54D18*
X5601Y-26120D03*
X1601Y-26120D03*
G54D16*
X10101Y-28120D03*
X12601Y-27120D03*
G54D17*
X11101Y-26120D03*
G54D18*
X13101Y-26120D03*
X9101Y-26120D03*
G54D16*
X10101Y-35620D03*
X12601Y-34620D03*
G54D17*
X11101Y-33620D03*
G54D18*
X13101Y-33620D03*
X9101Y-33620D03*
G54D16*
X17601Y-35620D03*
X20101Y-34620D03*
G54D17*
X18601Y-33620D03*
G54D18*
X20601Y-33620D03*
X16601Y-33620D03*
G54D16*
X4601Y-31620D03*
X2101Y-32620D03*
G54D17*
X3601Y-33620D03*
G54D18*
X1601Y-33620D03*
X5601Y-33620D03*
G54D16*
X10101Y-20620D03*
X12601Y-19620D03*
G54D17*
X11101Y-18620D03*
G54D18*
X13101Y-18620D03*
X9101Y-18620D03*
G54D16*
X2601Y-20620D03*
X5101Y-19620D03*
G54D17*
X3601Y-18620D03*
G54D18*
X5601Y-18620D03*
X1601Y-18620D03*
G54D16*
X10101Y-13121D03*
X12601Y-12121D03*
G54D17*
X11101Y-11121D03*
G54D18*
X13101Y-11121D03*
X9101Y-11121D03*
G54D16*
X25101Y-35622D03*
X27601Y-34622D03*
G54D17*
X26101Y-33622D03*
G54D18*
X28101Y-33622D03*
X24101Y-33622D03*
G54D16*
X25101Y-28122D03*
X27601Y-27122D03*
G54D17*
X26101Y-26122D03*
G54D18*
X28101Y-26122D03*
X24101Y-26122D03*
G54D16*
X2601Y-13121D03*
X5101Y-12121D03*
G54D17*
X3601Y-11121D03*
G54D18*
X5601Y-11121D03*
X1601Y-11121D03*
G54D16*
X10101Y-5621D03*
X12601Y-4621D03*
G54D17*
X11101Y-3621D03*
G54D18*
X13101Y-3621D03*
X9101Y-3621D03*
G54D15*
X24101Y-7121D03*
X27101Y-7121D03*
X14601Y-7121D03*
X11601Y-7121D03*
X22101Y-7121D03*
X19101Y-7121D03*
G54D19*
X11601Y-1621D03*
G54D20*
X10601Y-1621D03*
G54D19*
X19101Y-1621D03*
G54D20*
X18101Y-1621D03*
G54D21*
X29351Y-44372D03*
X351Y-44372D03*
G54D16*
X6351Y-35622D03*
X8851Y-34622D03*
G54D17*
X7351Y-33622D03*
G54D18*
X9351Y-33622D03*
X5351Y-33622D03*
G54D22*
X12051Y-36372D03*
X2651Y-36372D03*
G54D17*
X12051Y-30372D03*
X2651Y-30372D03*
G54D16*
X28101Y-30872D03*
X27101Y-28372D03*
G54D17*
X26101Y-29872D03*
G54D18*
X26101Y-27872D03*
X26101Y-31872D03*
G54D22*
X28851Y-25172D03*
X28851Y-34572D03*
G54D17*
X22851Y-25172D03*
X22851Y-34572D03*
G54D16*
X28101Y-15872D03*
X27101Y-13372D03*
G54D17*
X26101Y-14872D03*
G54D18*
X26101Y-12872D03*
X26101Y-16872D03*
G54D22*
X28851Y-10172D03*
X28851Y-19572D03*
G54D17*
X22851Y-10172D03*
X22851Y-19572D03*
G54D16*
X17601Y-43122D03*
X20101Y-42122D03*
G54D17*
X18601Y-41122D03*
G54D18*
X20601Y-41122D03*
X16601Y-41122D03*
G54D16*
X25101Y-43122D03*
X27601Y-42122D03*
G54D17*
X26101Y-41122D03*
G54D18*
X28101Y-41122D03*
X24101Y-41122D03*
G54D16*
X25101Y-13122D03*
X27601Y-12122D03*
G54D17*
X26101Y-11122D03*
G54D18*
X28101Y-11122D03*
X24101Y-11122D03*
G54D16*
X25101Y-20622D03*
X27601Y-19622D03*
G54D17*
X26101Y-18622D03*
G54D18*
X28101Y-18622D03*
X24101Y-18622D03*
G54D16*
X6351Y-43122D03*
X8851Y-42122D03*
G54D17*
X7351Y-41122D03*
G54D18*
X9351Y-41122D03*
X5351Y-41122D03*
G54D22*
X12051Y-43872D03*
X2651Y-43872D03*
G54D17*
X12051Y-37872D03*
X2651Y-37872D03*
G54D16*
X28101Y-23372D03*
X27101Y-20872D03*
G54D17*
X26101Y-22372D03*
G54D18*
X26101Y-20372D03*
X26101Y-24372D03*
G54D22*
X28851Y-17672D03*
X28851Y-27072D03*
G54D17*
X22851Y-17672D03*
X22851Y-27072D03*
G54D16*
X28101Y-38372D03*
X27101Y-35872D03*
G54D17*
X26101Y-37372D03*
G54D18*
X26101Y-35372D03*
X26101Y-39372D03*
G54D22*
X28851Y-32672D03*
X28851Y-42072D03*
G54D17*
X22851Y-32672D03*
X22851Y-42072D03*
G54D21*
X14851Y-37322D03*
X16001Y-37320D03*
X17201Y-37320D03*
X18401Y-37320D03*
X19601Y-37320D03*
X21501Y-37320D03*
X22601Y-37320D03*
X23801Y-37320D03*
X28301Y-37320D03*
X13501Y-37320D03*
X10701Y-37320D03*
X9501Y-37320D03*
X8301Y-37320D03*
X7001Y-37320D03*
X5801Y-37320D03*
X1251Y-37320D03*
X3901Y-37320D03*
G54D11*
X14851Y-9621D03*
G54D21*
X201Y-37320D03*
X29501Y-37320D03*
M02*
