G04 (created by PCBNEW (2013-02-13 BZR 3947)-testing) date 9/24/2013 1:08:40 PM*
%MOIN*%
G04 Gerber Fmt 3.4, Leading zero omitted, Abs format*
%FSLAX34Y34*%
G01*
G70*
G90*
G04 APERTURE LIST*
%ADD10C,0*%
%ADD11C,0.00393701*%
%ADD12C,0.015*%
%ADD13C,0.00590551*%
%ADD14C,0.008*%
%ADD15C,0.2836*%
%ADD16O,0.4017X0.2049*%
%ADD17C,0.0434331*%
%ADD18C,0.0788661*%
%ADD19C,0.0709921*%
%ADD20C,0.098*%
%ADD21C,0.165*%
%ADD22C,0.075*%
%ADD23O,0.083X0.093*%
%ADD24R,0.083X0.093*%
%ADD25C,0.0473701*%
%ADD26C,0.128*%
G04 APERTURE END LIST*
G54D10*
G54D11*
X29701Y-37322D02*
X18301Y-37322D01*
X1Y-37322D02*
X29701Y-37322D01*
G54D12*
X1101Y-38620D02*
X1801Y-38620D01*
X5401Y-38620D02*
X6101Y-38620D01*
X6101Y-38620D02*
X6101Y-39320D01*
X6101Y-42920D02*
X6101Y-43620D01*
X6101Y-43620D02*
X5401Y-43620D01*
X1801Y-43620D02*
X1101Y-43620D01*
X1101Y-43620D02*
X1101Y-42920D01*
X1101Y-39320D02*
X1101Y-38620D01*
X21101Y-28620D02*
X20401Y-28620D01*
X16801Y-28620D02*
X16101Y-28620D01*
X16101Y-28620D02*
X16101Y-27920D01*
X16101Y-24320D02*
X16101Y-23620D01*
X16101Y-23620D02*
X16801Y-23620D01*
X20401Y-23620D02*
X21101Y-23620D01*
X21101Y-23620D02*
X21101Y-24320D01*
X21101Y-27920D02*
X21101Y-28620D01*
X21101Y-13621D02*
X20401Y-13621D01*
X16801Y-13621D02*
X16101Y-13621D01*
X16101Y-13621D02*
X16101Y-12921D01*
X16101Y-9321D02*
X16101Y-8621D01*
X16101Y-8621D02*
X16801Y-8621D01*
X20401Y-8621D02*
X21101Y-8621D01*
X21101Y-8621D02*
X21101Y-9321D01*
X21101Y-12921D02*
X21101Y-13621D01*
X28601Y-6122D02*
X27901Y-6122D01*
X24301Y-6122D02*
X23601Y-6122D01*
X23601Y-6122D02*
X23601Y-5422D01*
X23601Y-1822D02*
X23601Y-1122D01*
X23601Y-1122D02*
X24301Y-1122D01*
X27901Y-1122D02*
X28601Y-1122D01*
X28601Y-1122D02*
X28601Y-1822D01*
X28601Y-5422D02*
X28601Y-6122D01*
X21101Y-6122D02*
X20401Y-6122D01*
X16801Y-6122D02*
X16101Y-6122D01*
X16101Y-6122D02*
X16101Y-5422D01*
X16101Y-1822D02*
X16101Y-1122D01*
X16101Y-1122D02*
X16801Y-1122D01*
X20401Y-1122D02*
X21101Y-1122D01*
X21101Y-1122D02*
X21101Y-1822D01*
X21101Y-5422D02*
X21101Y-6122D01*
X21101Y-21120D02*
X20401Y-21120D01*
X16801Y-21120D02*
X16101Y-21120D01*
X16101Y-21120D02*
X16101Y-20420D01*
X16101Y-16820D02*
X16101Y-16120D01*
X16101Y-16120D02*
X16801Y-16120D01*
X20401Y-16120D02*
X21101Y-16120D01*
X21101Y-16120D02*
X21101Y-16820D01*
X21101Y-20420D02*
X21101Y-21120D01*
X13601Y-43622D02*
X12901Y-43622D01*
X9301Y-43622D02*
X8601Y-43622D01*
X8601Y-43622D02*
X8601Y-42922D01*
X8601Y-39322D02*
X8601Y-38622D01*
X8601Y-38622D02*
X9301Y-38622D01*
X12901Y-38622D02*
X13601Y-38622D01*
X13601Y-38622D02*
X13601Y-39322D01*
X13601Y-42922D02*
X13601Y-43622D01*
X6101Y-6121D02*
X5401Y-6121D01*
X1801Y-6121D02*
X1101Y-6121D01*
X1101Y-6121D02*
X1101Y-5421D01*
X1101Y-1821D02*
X1101Y-1121D01*
X1101Y-1121D02*
X1801Y-1121D01*
X5401Y-1121D02*
X6101Y-1121D01*
X6101Y-1121D02*
X6101Y-1821D01*
X6101Y-5421D02*
X6101Y-6121D01*
X6101Y-28620D02*
X5401Y-28620D01*
X1801Y-28620D02*
X1101Y-28620D01*
X1101Y-28620D02*
X1101Y-27920D01*
X1101Y-24320D02*
X1101Y-23620D01*
X1101Y-23620D02*
X1801Y-23620D01*
X5401Y-23620D02*
X6101Y-23620D01*
X6101Y-23620D02*
X6101Y-24320D01*
X6101Y-27920D02*
X6101Y-28620D01*
X13601Y-28620D02*
X12901Y-28620D01*
X9301Y-28620D02*
X8601Y-28620D01*
X8601Y-28620D02*
X8601Y-27920D01*
X8601Y-24320D02*
X8601Y-23620D01*
X8601Y-23620D02*
X9301Y-23620D01*
X12901Y-23620D02*
X13601Y-23620D01*
X13601Y-23620D02*
X13601Y-24320D01*
X13601Y-27920D02*
X13601Y-28620D01*
X13601Y-36120D02*
X12901Y-36120D01*
X9301Y-36120D02*
X8601Y-36120D01*
X8601Y-36120D02*
X8601Y-35420D01*
X8601Y-31820D02*
X8601Y-31120D01*
X8601Y-31120D02*
X9301Y-31120D01*
X12901Y-31120D02*
X13601Y-31120D01*
X13601Y-31120D02*
X13601Y-31820D01*
X13601Y-35420D02*
X13601Y-36120D01*
X21101Y-36120D02*
X20401Y-36120D01*
X16801Y-36120D02*
X16101Y-36120D01*
X16101Y-36120D02*
X16101Y-35420D01*
X16101Y-31820D02*
X16101Y-31120D01*
X16101Y-31120D02*
X16801Y-31120D01*
X20401Y-31120D02*
X21101Y-31120D01*
X21101Y-31120D02*
X21101Y-31820D01*
X21101Y-35420D02*
X21101Y-36120D01*
X1101Y-31120D02*
X1801Y-31120D01*
X5401Y-31120D02*
X6101Y-31120D01*
X6101Y-31120D02*
X6101Y-31820D01*
X6101Y-35420D02*
X6101Y-36120D01*
X6101Y-36120D02*
X5401Y-36120D01*
X1801Y-36120D02*
X1101Y-36120D01*
X1101Y-36120D02*
X1101Y-35420D01*
X1101Y-31820D02*
X1101Y-31120D01*
X13601Y-21120D02*
X12901Y-21120D01*
X9301Y-21120D02*
X8601Y-21120D01*
X8601Y-21120D02*
X8601Y-20420D01*
X8601Y-16820D02*
X8601Y-16120D01*
X8601Y-16120D02*
X9301Y-16120D01*
X12901Y-16120D02*
X13601Y-16120D01*
X13601Y-16120D02*
X13601Y-16820D01*
X13601Y-20420D02*
X13601Y-21120D01*
X6101Y-21120D02*
X5401Y-21120D01*
X1801Y-21120D02*
X1101Y-21120D01*
X1101Y-21120D02*
X1101Y-20420D01*
X1101Y-16820D02*
X1101Y-16120D01*
X1101Y-16120D02*
X1801Y-16120D01*
X5401Y-16120D02*
X6101Y-16120D01*
X6101Y-16120D02*
X6101Y-16820D01*
X6101Y-20420D02*
X6101Y-21120D01*
X13601Y-13621D02*
X12901Y-13621D01*
X9301Y-13621D02*
X8601Y-13621D01*
X8601Y-13621D02*
X8601Y-12921D01*
X8601Y-9321D02*
X8601Y-8621D01*
X8601Y-8621D02*
X9301Y-8621D01*
X12901Y-8621D02*
X13601Y-8621D01*
X13601Y-8621D02*
X13601Y-9321D01*
X13601Y-12921D02*
X13601Y-13621D01*
X28601Y-36122D02*
X27901Y-36122D01*
X24301Y-36122D02*
X23601Y-36122D01*
X23601Y-36122D02*
X23601Y-35422D01*
X23601Y-31822D02*
X23601Y-31122D01*
X23601Y-31122D02*
X24301Y-31122D01*
X27901Y-31122D02*
X28601Y-31122D01*
X28601Y-31122D02*
X28601Y-31822D01*
X28601Y-35422D02*
X28601Y-36122D01*
X28601Y-28622D02*
X27901Y-28622D01*
X24301Y-28622D02*
X23601Y-28622D01*
X23601Y-28622D02*
X23601Y-27922D01*
X23601Y-24322D02*
X23601Y-23622D01*
X23601Y-23622D02*
X24301Y-23622D01*
X27901Y-23622D02*
X28601Y-23622D01*
X28601Y-23622D02*
X28601Y-24322D01*
X28601Y-27922D02*
X28601Y-28622D01*
X6101Y-13621D02*
X5401Y-13621D01*
X1801Y-13621D02*
X1101Y-13621D01*
X1101Y-13621D02*
X1101Y-12921D01*
X1101Y-9321D02*
X1101Y-8621D01*
X1101Y-8621D02*
X1801Y-8621D01*
X5401Y-8621D02*
X6101Y-8621D01*
X6101Y-8621D02*
X6101Y-9321D01*
X6101Y-12921D02*
X6101Y-13621D01*
X13601Y-6121D02*
X12901Y-6121D01*
X9301Y-6121D02*
X8601Y-6121D01*
X8601Y-6121D02*
X8601Y-5421D01*
X8601Y-1821D02*
X8601Y-1121D01*
X8601Y-1121D02*
X9301Y-1121D01*
X12901Y-1121D02*
X13601Y-1121D01*
X13601Y-1121D02*
X13601Y-1821D01*
X13601Y-5421D02*
X13601Y-6121D01*
X21101Y-43622D02*
X20401Y-43622D01*
X16801Y-43622D02*
X16101Y-43622D01*
X16101Y-43622D02*
X16101Y-42922D01*
X16101Y-39322D02*
X16101Y-38622D01*
X16101Y-38622D02*
X16801Y-38622D01*
X20401Y-38622D02*
X21101Y-38622D01*
X21101Y-38622D02*
X21101Y-39322D01*
X21101Y-42922D02*
X21101Y-43622D01*
X28601Y-43622D02*
X27901Y-43622D01*
X24301Y-43622D02*
X23601Y-43622D01*
X23601Y-43622D02*
X23601Y-42922D01*
X23601Y-39322D02*
X23601Y-38622D01*
X23601Y-38622D02*
X24301Y-38622D01*
X27901Y-38622D02*
X28601Y-38622D01*
X28601Y-38622D02*
X28601Y-39322D01*
X28601Y-42922D02*
X28601Y-43622D01*
X28601Y-13622D02*
X27901Y-13622D01*
X24301Y-13622D02*
X23601Y-13622D01*
X23601Y-13622D02*
X23601Y-12922D01*
X23601Y-9322D02*
X23601Y-8622D01*
X23601Y-8622D02*
X24301Y-8622D01*
X27901Y-8622D02*
X28601Y-8622D01*
X28601Y-8622D02*
X28601Y-9322D01*
X28601Y-12922D02*
X28601Y-13622D01*
X28601Y-21122D02*
X27901Y-21122D01*
X24301Y-21122D02*
X23601Y-21122D01*
X23601Y-21122D02*
X23601Y-20422D01*
X23601Y-16822D02*
X23601Y-16122D01*
X23601Y-16122D02*
X24301Y-16122D01*
X27901Y-16122D02*
X28601Y-16122D01*
X28601Y-16122D02*
X28601Y-16822D01*
X28601Y-20422D02*
X28601Y-21122D01*
G54D13*
X7986Y-16950D02*
X7711Y-16950D01*
X7711Y-16845D01*
X7724Y-16819D01*
X7737Y-16806D01*
X7763Y-16792D01*
X7803Y-16792D01*
X7829Y-16806D01*
X7842Y-16819D01*
X7855Y-16845D01*
X7855Y-16950D01*
X7986Y-16530D02*
X7986Y-16688D01*
X7986Y-16609D02*
X7711Y-16609D01*
X7750Y-16635D01*
X7776Y-16661D01*
X7790Y-16688D01*
X8386Y-17180D02*
X8111Y-17180D01*
X8308Y-17088D01*
X8111Y-16996D01*
X8386Y-16996D01*
X8386Y-16865D02*
X8111Y-16865D01*
X8373Y-16747D02*
X8386Y-16707D01*
X8386Y-16642D01*
X8373Y-16615D01*
X8360Y-16602D01*
X8334Y-16589D01*
X8308Y-16589D01*
X8281Y-16602D01*
X8268Y-16615D01*
X8255Y-16642D01*
X8242Y-16694D01*
X8229Y-16720D01*
X8216Y-16733D01*
X8190Y-16747D01*
X8163Y-16747D01*
X8137Y-16733D01*
X8124Y-16720D01*
X8111Y-16694D01*
X8111Y-16628D01*
X8124Y-16589D01*
X8111Y-16418D02*
X8111Y-16366D01*
X8124Y-16340D01*
X8150Y-16313D01*
X8203Y-16300D01*
X8295Y-16300D01*
X8347Y-16313D01*
X8373Y-16340D01*
X8386Y-16366D01*
X8386Y-16418D01*
X8373Y-16445D01*
X8347Y-16471D01*
X8295Y-16484D01*
X8203Y-16484D01*
X8150Y-16471D01*
X8124Y-16445D01*
X8111Y-16418D01*
X7986Y-18950D02*
X7711Y-18950D01*
X7711Y-18845D01*
X7724Y-18819D01*
X7737Y-18806D01*
X7763Y-18792D01*
X7803Y-18792D01*
X7829Y-18806D01*
X7842Y-18819D01*
X7855Y-18845D01*
X7855Y-18950D01*
X7711Y-18701D02*
X7711Y-18530D01*
X7816Y-18622D01*
X7816Y-18583D01*
X7829Y-18556D01*
X7842Y-18543D01*
X7868Y-18530D01*
X7934Y-18530D01*
X7960Y-18543D01*
X7973Y-18556D01*
X7986Y-18583D01*
X7986Y-18661D01*
X7973Y-18688D01*
X7960Y-18701D01*
X8373Y-19101D02*
X8386Y-19062D01*
X8386Y-18996D01*
X8373Y-18970D01*
X8360Y-18957D01*
X8334Y-18943D01*
X8308Y-18943D01*
X8281Y-18957D01*
X8268Y-18970D01*
X8255Y-18996D01*
X8242Y-19048D01*
X8229Y-19075D01*
X8216Y-19088D01*
X8190Y-19101D01*
X8163Y-19101D01*
X8137Y-19088D01*
X8124Y-19075D01*
X8111Y-19048D01*
X8111Y-18983D01*
X8124Y-18943D01*
X8360Y-18668D02*
X8373Y-18681D01*
X8386Y-18720D01*
X8386Y-18747D01*
X8373Y-18786D01*
X8347Y-18812D01*
X8321Y-18825D01*
X8268Y-18838D01*
X8229Y-18838D01*
X8176Y-18825D01*
X8150Y-18812D01*
X8124Y-18786D01*
X8111Y-18747D01*
X8111Y-18720D01*
X8124Y-18681D01*
X8137Y-18668D01*
X8386Y-18550D02*
X8111Y-18550D01*
X8386Y-18392D02*
X8229Y-18510D01*
X8111Y-18392D02*
X8268Y-18550D01*
X7986Y-20950D02*
X7711Y-20950D01*
X7711Y-20845D01*
X7724Y-20819D01*
X7737Y-20806D01*
X7763Y-20792D01*
X7803Y-20792D01*
X7829Y-20806D01*
X7842Y-20819D01*
X7855Y-20845D01*
X7855Y-20950D01*
X7711Y-20543D02*
X7711Y-20674D01*
X7842Y-20688D01*
X7829Y-20674D01*
X7816Y-20648D01*
X7816Y-20583D01*
X7829Y-20556D01*
X7842Y-20543D01*
X7868Y-20530D01*
X7934Y-20530D01*
X7960Y-20543D01*
X7973Y-20556D01*
X7986Y-20583D01*
X7986Y-20648D01*
X7973Y-20674D01*
X7960Y-20688D01*
X8386Y-20917D02*
X8255Y-21009D01*
X8386Y-21075D02*
X8111Y-21075D01*
X8111Y-20970D01*
X8124Y-20943D01*
X8137Y-20930D01*
X8163Y-20917D01*
X8203Y-20917D01*
X8229Y-20930D01*
X8242Y-20943D01*
X8255Y-20970D01*
X8255Y-21075D01*
X8242Y-20799D02*
X8242Y-20707D01*
X8386Y-20668D02*
X8386Y-20799D01*
X8111Y-20799D01*
X8111Y-20668D01*
X8373Y-20563D02*
X8386Y-20523D01*
X8386Y-20458D01*
X8373Y-20432D01*
X8360Y-20418D01*
X8334Y-20405D01*
X8308Y-20405D01*
X8281Y-20418D01*
X8268Y-20432D01*
X8255Y-20458D01*
X8242Y-20510D01*
X8229Y-20537D01*
X8216Y-20550D01*
X8190Y-20563D01*
X8163Y-20563D01*
X8137Y-20550D01*
X8124Y-20537D01*
X8111Y-20510D01*
X8111Y-20445D01*
X8124Y-20405D01*
X7986Y-17950D02*
X7711Y-17950D01*
X7711Y-17845D01*
X7724Y-17819D01*
X7737Y-17806D01*
X7763Y-17792D01*
X7803Y-17792D01*
X7829Y-17806D01*
X7842Y-17819D01*
X7855Y-17845D01*
X7855Y-17950D01*
X7737Y-17688D02*
X7724Y-17674D01*
X7711Y-17648D01*
X7711Y-17583D01*
X7724Y-17556D01*
X7737Y-17543D01*
X7763Y-17530D01*
X7790Y-17530D01*
X7829Y-17543D01*
X7986Y-17701D01*
X7986Y-17530D01*
X8111Y-18075D02*
X8386Y-17983D01*
X8111Y-17891D01*
X8373Y-17681D02*
X8386Y-17707D01*
X8386Y-17760D01*
X8373Y-17786D01*
X8360Y-17799D01*
X8334Y-17812D01*
X8255Y-17812D01*
X8229Y-17799D01*
X8216Y-17786D01*
X8203Y-17760D01*
X8203Y-17707D01*
X8216Y-17681D01*
X8373Y-17445D02*
X8386Y-17471D01*
X8386Y-17523D01*
X8373Y-17550D01*
X8360Y-17563D01*
X8334Y-17576D01*
X8255Y-17576D01*
X8229Y-17563D01*
X8216Y-17550D01*
X8203Y-17523D01*
X8203Y-17471D01*
X8216Y-17445D01*
X7986Y-19950D02*
X7711Y-19950D01*
X7711Y-19845D01*
X7724Y-19819D01*
X7737Y-19806D01*
X7763Y-19792D01*
X7803Y-19792D01*
X7829Y-19806D01*
X7842Y-19819D01*
X7855Y-19845D01*
X7855Y-19950D01*
X7803Y-19556D02*
X7986Y-19556D01*
X7698Y-19622D02*
X7895Y-19688D01*
X7895Y-19517D01*
X8386Y-20180D02*
X8111Y-20180D01*
X8308Y-20088D01*
X8111Y-19996D01*
X8386Y-19996D01*
X8111Y-19812D02*
X8111Y-19760D01*
X8124Y-19733D01*
X8150Y-19707D01*
X8203Y-19694D01*
X8295Y-19694D01*
X8347Y-19707D01*
X8373Y-19733D01*
X8386Y-19760D01*
X8386Y-19812D01*
X8373Y-19838D01*
X8347Y-19865D01*
X8295Y-19878D01*
X8203Y-19878D01*
X8150Y-19865D01*
X8124Y-19838D01*
X8111Y-19812D01*
X8373Y-19589D02*
X8386Y-19550D01*
X8386Y-19484D01*
X8373Y-19458D01*
X8360Y-19445D01*
X8334Y-19432D01*
X8308Y-19432D01*
X8281Y-19445D01*
X8268Y-19458D01*
X8255Y-19484D01*
X8242Y-19537D01*
X8229Y-19563D01*
X8216Y-19576D01*
X8190Y-19589D01*
X8163Y-19589D01*
X8137Y-19576D01*
X8124Y-19563D01*
X8111Y-19537D01*
X8111Y-19471D01*
X8124Y-19432D01*
X8386Y-19313D02*
X8111Y-19313D01*
X7986Y-15950D02*
X7711Y-15950D01*
X7711Y-15845D01*
X7724Y-15819D01*
X7737Y-15806D01*
X7763Y-15792D01*
X7803Y-15792D01*
X7829Y-15806D01*
X7842Y-15819D01*
X7855Y-15845D01*
X7855Y-15950D01*
X7711Y-15556D02*
X7711Y-15609D01*
X7724Y-15635D01*
X7737Y-15648D01*
X7776Y-15674D01*
X7829Y-15688D01*
X7934Y-15688D01*
X7960Y-15674D01*
X7973Y-15661D01*
X7986Y-15635D01*
X7986Y-15583D01*
X7973Y-15556D01*
X7960Y-15543D01*
X7934Y-15530D01*
X7868Y-15530D01*
X7842Y-15543D01*
X7829Y-15556D01*
X7816Y-15583D01*
X7816Y-15635D01*
X7829Y-15661D01*
X7842Y-15674D01*
X7868Y-15688D01*
X8124Y-15957D02*
X8111Y-15983D01*
X8111Y-16022D01*
X8124Y-16062D01*
X8150Y-16088D01*
X8176Y-16101D01*
X8229Y-16114D01*
X8268Y-16114D01*
X8321Y-16101D01*
X8347Y-16088D01*
X8373Y-16062D01*
X8386Y-16022D01*
X8386Y-15996D01*
X8373Y-15957D01*
X8360Y-15943D01*
X8268Y-15943D01*
X8268Y-15996D01*
X8386Y-15825D02*
X8111Y-15825D01*
X8386Y-15668D01*
X8111Y-15668D01*
X8386Y-15537D02*
X8111Y-15537D01*
X8111Y-15471D01*
X8124Y-15432D01*
X8150Y-15405D01*
X8176Y-15392D01*
X8229Y-15379D01*
X8268Y-15379D01*
X8321Y-15392D01*
X8347Y-15405D01*
X8373Y-15432D01*
X8386Y-15471D01*
X8386Y-15537D01*
G54D14*
X2858Y-42549D02*
X2944Y-42573D01*
X3087Y-42573D01*
X3144Y-42549D01*
X3172Y-42525D01*
X3201Y-42478D01*
X3201Y-42430D01*
X3172Y-42382D01*
X3144Y-42358D01*
X3087Y-42335D01*
X2972Y-42311D01*
X2915Y-42287D01*
X2887Y-42263D01*
X2858Y-42216D01*
X2858Y-42168D01*
X2887Y-42120D01*
X2915Y-42097D01*
X2972Y-42073D01*
X3115Y-42073D01*
X3201Y-42097D01*
X3429Y-42120D02*
X3458Y-42097D01*
X3515Y-42073D01*
X3658Y-42073D01*
X3715Y-42097D01*
X3744Y-42120D01*
X3772Y-42168D01*
X3772Y-42216D01*
X3744Y-42287D01*
X3401Y-42573D01*
X3772Y-42573D01*
X4344Y-42573D02*
X4001Y-42573D01*
X4172Y-42573D02*
X4172Y-42073D01*
X4115Y-42144D01*
X4058Y-42192D01*
X4001Y-42216D01*
X17858Y-25049D02*
X17944Y-25073D01*
X18087Y-25073D01*
X18144Y-25049D01*
X18173Y-25025D01*
X18201Y-24978D01*
X18201Y-24930D01*
X18173Y-24882D01*
X18144Y-24858D01*
X18087Y-24835D01*
X17973Y-24811D01*
X17915Y-24787D01*
X17887Y-24763D01*
X17858Y-24716D01*
X17858Y-24668D01*
X17887Y-24620D01*
X17915Y-24597D01*
X17973Y-24573D01*
X18115Y-24573D01*
X18201Y-24597D01*
X18773Y-25073D02*
X18430Y-25073D01*
X18601Y-25073D02*
X18601Y-24573D01*
X18544Y-24644D01*
X18487Y-24692D01*
X18430Y-24716D01*
X19287Y-24739D02*
X19287Y-25073D01*
X19144Y-24549D02*
X19001Y-24906D01*
X19373Y-24906D01*
X17858Y-10049D02*
X17944Y-10073D01*
X18087Y-10073D01*
X18144Y-10049D01*
X18173Y-10025D01*
X18201Y-9978D01*
X18201Y-9930D01*
X18173Y-9882D01*
X18144Y-9859D01*
X18087Y-9835D01*
X17973Y-9811D01*
X17915Y-9787D01*
X17887Y-9763D01*
X17858Y-9716D01*
X17858Y-9668D01*
X17887Y-9621D01*
X17915Y-9597D01*
X17973Y-9573D01*
X18115Y-9573D01*
X18201Y-9597D01*
X18773Y-10073D02*
X18430Y-10073D01*
X18601Y-10073D02*
X18601Y-9573D01*
X18544Y-9644D01*
X18487Y-9692D01*
X18430Y-9716D01*
X19001Y-9621D02*
X19030Y-9597D01*
X19087Y-9573D01*
X19230Y-9573D01*
X19287Y-9597D01*
X19315Y-9621D01*
X19344Y-9668D01*
X19344Y-9716D01*
X19315Y-9787D01*
X18973Y-10073D01*
X19344Y-10073D01*
X25358Y-2550D02*
X25444Y-2574D01*
X25587Y-2574D01*
X25644Y-2550D01*
X25673Y-2526D01*
X25701Y-2479D01*
X25701Y-2431D01*
X25673Y-2383D01*
X25644Y-2360D01*
X25587Y-2336D01*
X25473Y-2312D01*
X25415Y-2288D01*
X25387Y-2264D01*
X25358Y-2217D01*
X25358Y-2169D01*
X25387Y-2122D01*
X25415Y-2098D01*
X25473Y-2074D01*
X25615Y-2074D01*
X25701Y-2098D01*
X26273Y-2574D02*
X25930Y-2574D01*
X26101Y-2574D02*
X26101Y-2074D01*
X26044Y-2145D01*
X25987Y-2193D01*
X25930Y-2217D01*
X26787Y-2074D02*
X26673Y-2074D01*
X26615Y-2098D01*
X26587Y-2122D01*
X26530Y-2193D01*
X26501Y-2288D01*
X26501Y-2479D01*
X26530Y-2526D01*
X26558Y-2550D01*
X26615Y-2574D01*
X26730Y-2574D01*
X26787Y-2550D01*
X26815Y-2526D01*
X26844Y-2479D01*
X26844Y-2360D01*
X26815Y-2312D01*
X26787Y-2288D01*
X26730Y-2264D01*
X26615Y-2264D01*
X26558Y-2288D01*
X26530Y-2312D01*
X26501Y-2360D01*
X17858Y-2550D02*
X17944Y-2574D01*
X18087Y-2574D01*
X18144Y-2550D01*
X18173Y-2526D01*
X18201Y-2479D01*
X18201Y-2431D01*
X18173Y-2383D01*
X18144Y-2360D01*
X18087Y-2336D01*
X17973Y-2312D01*
X17915Y-2288D01*
X17887Y-2264D01*
X17858Y-2217D01*
X17858Y-2169D01*
X17887Y-2122D01*
X17915Y-2098D01*
X17973Y-2074D01*
X18115Y-2074D01*
X18201Y-2098D01*
X18773Y-2574D02*
X18430Y-2574D01*
X18601Y-2574D02*
X18601Y-2074D01*
X18544Y-2145D01*
X18487Y-2193D01*
X18430Y-2217D01*
X19344Y-2574D02*
X19001Y-2574D01*
X19173Y-2574D02*
X19173Y-2074D01*
X19115Y-2145D01*
X19058Y-2193D01*
X19001Y-2217D01*
X17858Y-17549D02*
X17944Y-17573D01*
X18087Y-17573D01*
X18144Y-17549D01*
X18173Y-17525D01*
X18201Y-17478D01*
X18201Y-17430D01*
X18173Y-17382D01*
X18144Y-17358D01*
X18087Y-17335D01*
X17973Y-17311D01*
X17915Y-17287D01*
X17887Y-17263D01*
X17858Y-17216D01*
X17858Y-17168D01*
X17887Y-17120D01*
X17915Y-17097D01*
X17973Y-17073D01*
X18115Y-17073D01*
X18201Y-17097D01*
X18773Y-17573D02*
X18430Y-17573D01*
X18601Y-17573D02*
X18601Y-17073D01*
X18544Y-17144D01*
X18487Y-17192D01*
X18430Y-17216D01*
X18973Y-17073D02*
X19344Y-17073D01*
X19144Y-17263D01*
X19230Y-17263D01*
X19287Y-17287D01*
X19315Y-17311D01*
X19344Y-17358D01*
X19344Y-17478D01*
X19315Y-17525D01*
X19287Y-17549D01*
X19230Y-17573D01*
X19058Y-17573D01*
X19001Y-17549D01*
X18973Y-17525D01*
X10358Y-40050D02*
X10444Y-40074D01*
X10587Y-40074D01*
X10644Y-40050D01*
X10672Y-40026D01*
X10701Y-39979D01*
X10701Y-39931D01*
X10672Y-39883D01*
X10644Y-39860D01*
X10587Y-39836D01*
X10472Y-39812D01*
X10415Y-39788D01*
X10387Y-39764D01*
X10358Y-39717D01*
X10358Y-39669D01*
X10387Y-39622D01*
X10415Y-39598D01*
X10472Y-39574D01*
X10615Y-39574D01*
X10701Y-39598D01*
X10929Y-39622D02*
X10958Y-39598D01*
X11015Y-39574D01*
X11158Y-39574D01*
X11215Y-39598D01*
X11244Y-39622D01*
X11272Y-39669D01*
X11272Y-39717D01*
X11244Y-39788D01*
X10901Y-40074D01*
X11272Y-40074D01*
X11501Y-39622D02*
X11529Y-39598D01*
X11587Y-39574D01*
X11729Y-39574D01*
X11787Y-39598D01*
X11815Y-39622D01*
X11844Y-39669D01*
X11844Y-39717D01*
X11815Y-39788D01*
X11472Y-40074D01*
X11844Y-40074D01*
G54D11*
X431Y-36203D02*
X234Y-36203D01*
X234Y-36128D01*
X243Y-36109D01*
X252Y-36100D01*
X271Y-36091D01*
X299Y-36091D01*
X318Y-36100D01*
X327Y-36109D01*
X337Y-36128D01*
X337Y-36203D01*
X252Y-36016D02*
X243Y-36006D01*
X234Y-35988D01*
X234Y-35941D01*
X243Y-35922D01*
X252Y-35913D01*
X271Y-35903D01*
X290Y-35903D01*
X318Y-35913D01*
X431Y-36025D01*
X431Y-35903D01*
X234Y-35781D02*
X234Y-35763D01*
X243Y-35744D01*
X252Y-35734D01*
X271Y-35725D01*
X309Y-35716D01*
X356Y-35716D01*
X393Y-35725D01*
X412Y-35734D01*
X421Y-35744D01*
X431Y-35763D01*
X431Y-35781D01*
X421Y-35800D01*
X412Y-35809D01*
X393Y-35819D01*
X356Y-35828D01*
X309Y-35828D01*
X271Y-35819D01*
X252Y-35809D01*
X243Y-35800D01*
X234Y-35781D01*
X234Y-35594D02*
X234Y-35575D01*
X243Y-35556D01*
X252Y-35547D01*
X271Y-35538D01*
X309Y-35528D01*
X356Y-35528D01*
X393Y-35538D01*
X412Y-35547D01*
X421Y-35556D01*
X431Y-35575D01*
X431Y-35594D01*
X421Y-35613D01*
X412Y-35622D01*
X393Y-35631D01*
X356Y-35641D01*
X309Y-35641D01*
X271Y-35631D01*
X252Y-35622D01*
X243Y-35613D01*
X234Y-35594D01*
X243Y-35520D02*
X234Y-35539D01*
X234Y-35567D01*
X243Y-35595D01*
X262Y-35614D01*
X281Y-35623D01*
X318Y-35633D01*
X346Y-35633D01*
X384Y-35623D01*
X402Y-35614D01*
X421Y-35595D01*
X431Y-35567D01*
X431Y-35548D01*
X421Y-35520D01*
X412Y-35511D01*
X346Y-35511D01*
X346Y-35548D01*
X431Y-35427D02*
X234Y-35427D01*
X431Y-35314D01*
X234Y-35314D01*
X431Y-35220D02*
X234Y-35220D01*
X234Y-35174D01*
X243Y-35145D01*
X262Y-35127D01*
X281Y-35117D01*
X318Y-35108D01*
X346Y-35108D01*
X384Y-35117D01*
X402Y-35127D01*
X421Y-35145D01*
X431Y-35174D01*
X431Y-35220D01*
X29430Y-1203D02*
X29234Y-1203D01*
X29234Y-1128D01*
X29243Y-1110D01*
X29252Y-1100D01*
X29271Y-1091D01*
X29299Y-1091D01*
X29318Y-1100D01*
X29327Y-1110D01*
X29337Y-1128D01*
X29337Y-1203D01*
X29252Y-1016D02*
X29243Y-1006D01*
X29234Y-988D01*
X29234Y-941D01*
X29243Y-922D01*
X29252Y-913D01*
X29271Y-903D01*
X29290Y-903D01*
X29318Y-913D01*
X29430Y-1025D01*
X29430Y-903D01*
X29234Y-782D02*
X29234Y-763D01*
X29243Y-744D01*
X29252Y-735D01*
X29271Y-725D01*
X29308Y-716D01*
X29355Y-716D01*
X29393Y-725D01*
X29412Y-735D01*
X29421Y-744D01*
X29430Y-763D01*
X29430Y-782D01*
X29421Y-800D01*
X29412Y-810D01*
X29393Y-819D01*
X29355Y-828D01*
X29308Y-828D01*
X29271Y-819D01*
X29252Y-810D01*
X29243Y-800D01*
X29234Y-782D01*
X29430Y-528D02*
X29430Y-641D01*
X29430Y-585D02*
X29234Y-585D01*
X29262Y-603D01*
X29280Y-622D01*
X29290Y-641D01*
X29243Y-1521D02*
X29234Y-1539D01*
X29234Y-1567D01*
X29243Y-1596D01*
X29262Y-1614D01*
X29280Y-1624D01*
X29318Y-1633D01*
X29346Y-1633D01*
X29383Y-1624D01*
X29402Y-1614D01*
X29421Y-1596D01*
X29430Y-1567D01*
X29430Y-1549D01*
X29421Y-1521D01*
X29412Y-1511D01*
X29346Y-1511D01*
X29346Y-1549D01*
X29430Y-1427D02*
X29234Y-1427D01*
X29430Y-1314D01*
X29234Y-1314D01*
X29430Y-1221D02*
X29234Y-1221D01*
X29234Y-1174D01*
X29243Y-1146D01*
X29262Y-1127D01*
X29280Y-1117D01*
X29318Y-1108D01*
X29346Y-1108D01*
X29383Y-1117D01*
X29402Y-1127D01*
X29421Y-1146D01*
X29430Y-1174D01*
X29430Y-1221D01*
X29430Y-36453D02*
X29234Y-36453D01*
X29234Y-36378D01*
X29243Y-36359D01*
X29252Y-36350D01*
X29271Y-36341D01*
X29299Y-36341D01*
X29318Y-36350D01*
X29327Y-36359D01*
X29337Y-36378D01*
X29337Y-36453D01*
X29252Y-36266D02*
X29243Y-36256D01*
X29234Y-36238D01*
X29234Y-36191D01*
X29243Y-36172D01*
X29252Y-36163D01*
X29271Y-36153D01*
X29290Y-36153D01*
X29318Y-36163D01*
X29430Y-36275D01*
X29430Y-36153D01*
X29234Y-36031D02*
X29234Y-36013D01*
X29243Y-35994D01*
X29252Y-35984D01*
X29271Y-35975D01*
X29308Y-35966D01*
X29355Y-35966D01*
X29393Y-35975D01*
X29412Y-35984D01*
X29421Y-35994D01*
X29430Y-36013D01*
X29430Y-36031D01*
X29421Y-36050D01*
X29412Y-36059D01*
X29393Y-36069D01*
X29355Y-36078D01*
X29308Y-36078D01*
X29271Y-36069D01*
X29252Y-36059D01*
X29243Y-36050D01*
X29234Y-36031D01*
X29252Y-35891D02*
X29243Y-35881D01*
X29234Y-35863D01*
X29234Y-35816D01*
X29243Y-35797D01*
X29252Y-35788D01*
X29271Y-35778D01*
X29290Y-35778D01*
X29318Y-35788D01*
X29430Y-35900D01*
X29430Y-35778D01*
X29243Y-35770D02*
X29234Y-35789D01*
X29234Y-35817D01*
X29243Y-35845D01*
X29262Y-35864D01*
X29280Y-35873D01*
X29318Y-35883D01*
X29346Y-35883D01*
X29383Y-35873D01*
X29402Y-35864D01*
X29421Y-35845D01*
X29430Y-35817D01*
X29430Y-35798D01*
X29421Y-35770D01*
X29412Y-35761D01*
X29346Y-35761D01*
X29346Y-35798D01*
X29430Y-35677D02*
X29234Y-35677D01*
X29430Y-35564D01*
X29234Y-35564D01*
X29430Y-35470D02*
X29234Y-35470D01*
X29234Y-35424D01*
X29243Y-35395D01*
X29262Y-35377D01*
X29280Y-35367D01*
X29318Y-35358D01*
X29346Y-35358D01*
X29383Y-35367D01*
X29402Y-35377D01*
X29421Y-35395D01*
X29430Y-35424D01*
X29430Y-35470D01*
X431Y-1154D02*
X234Y-1154D01*
X234Y-1079D01*
X243Y-1061D01*
X252Y-1051D01*
X271Y-1042D01*
X299Y-1042D01*
X318Y-1051D01*
X327Y-1061D01*
X337Y-1079D01*
X337Y-1154D01*
X252Y-967D02*
X243Y-957D01*
X234Y-939D01*
X234Y-892D01*
X243Y-873D01*
X252Y-864D01*
X271Y-854D01*
X290Y-854D01*
X318Y-864D01*
X431Y-976D01*
X431Y-854D01*
X234Y-732D02*
X234Y-714D01*
X243Y-695D01*
X252Y-686D01*
X271Y-676D01*
X309Y-667D01*
X356Y-667D01*
X393Y-676D01*
X412Y-686D01*
X421Y-695D01*
X431Y-714D01*
X431Y-732D01*
X421Y-751D01*
X412Y-761D01*
X393Y-770D01*
X356Y-779D01*
X309Y-779D01*
X271Y-770D01*
X252Y-761D01*
X243Y-751D01*
X234Y-732D01*
X234Y-601D02*
X234Y-479D01*
X309Y-545D01*
X309Y-517D01*
X318Y-498D01*
X327Y-489D01*
X346Y-479D01*
X393Y-479D01*
X412Y-489D01*
X421Y-498D01*
X431Y-517D01*
X431Y-573D01*
X421Y-592D01*
X412Y-601D01*
X243Y-1472D02*
X234Y-1490D01*
X234Y-1518D01*
X243Y-1547D01*
X262Y-1565D01*
X281Y-1575D01*
X318Y-1584D01*
X346Y-1584D01*
X384Y-1575D01*
X402Y-1565D01*
X421Y-1547D01*
X431Y-1518D01*
X431Y-1500D01*
X421Y-1472D01*
X412Y-1462D01*
X346Y-1462D01*
X346Y-1500D01*
X431Y-1378D02*
X234Y-1378D01*
X431Y-1265D01*
X234Y-1265D01*
X431Y-1172D02*
X234Y-1172D01*
X234Y-1125D01*
X243Y-1097D01*
X262Y-1078D01*
X281Y-1068D01*
X318Y-1059D01*
X346Y-1059D01*
X384Y-1068D01*
X402Y-1078D01*
X421Y-1097D01*
X431Y-1125D01*
X431Y-1172D01*
G54D14*
X3144Y-2549D02*
X3229Y-2573D01*
X3372Y-2573D01*
X3429Y-2549D01*
X3458Y-2525D01*
X3487Y-2478D01*
X3487Y-2430D01*
X3458Y-2382D01*
X3429Y-2359D01*
X3372Y-2335D01*
X3258Y-2311D01*
X3201Y-2287D01*
X3172Y-2263D01*
X3144Y-2216D01*
X3144Y-2168D01*
X3172Y-2121D01*
X3201Y-2097D01*
X3258Y-2073D01*
X3401Y-2073D01*
X3487Y-2097D01*
X4058Y-2573D02*
X3715Y-2573D01*
X3887Y-2573D02*
X3887Y-2073D01*
X3829Y-2144D01*
X3772Y-2192D01*
X3715Y-2216D01*
X3144Y-25049D02*
X3229Y-25073D01*
X3372Y-25073D01*
X3429Y-25049D01*
X3458Y-25025D01*
X3487Y-24978D01*
X3487Y-24930D01*
X3458Y-24882D01*
X3429Y-24858D01*
X3372Y-24835D01*
X3258Y-24811D01*
X3201Y-24787D01*
X3172Y-24763D01*
X3144Y-24716D01*
X3144Y-24668D01*
X3172Y-24620D01*
X3201Y-24597D01*
X3258Y-24573D01*
X3401Y-24573D01*
X3487Y-24597D01*
X4001Y-24739D02*
X4001Y-25073D01*
X3858Y-24549D02*
X3715Y-24906D01*
X4087Y-24906D01*
X10644Y-25049D02*
X10729Y-25073D01*
X10872Y-25073D01*
X10929Y-25049D01*
X10958Y-25025D01*
X10987Y-24978D01*
X10987Y-24930D01*
X10958Y-24882D01*
X10929Y-24858D01*
X10872Y-24835D01*
X10758Y-24811D01*
X10701Y-24787D01*
X10672Y-24763D01*
X10644Y-24716D01*
X10644Y-24668D01*
X10672Y-24620D01*
X10701Y-24597D01*
X10758Y-24573D01*
X10901Y-24573D01*
X10987Y-24597D01*
X11272Y-25073D02*
X11387Y-25073D01*
X11444Y-25049D01*
X11472Y-25025D01*
X11529Y-24954D01*
X11558Y-24858D01*
X11558Y-24668D01*
X11529Y-24620D01*
X11501Y-24597D01*
X11444Y-24573D01*
X11329Y-24573D01*
X11272Y-24597D01*
X11244Y-24620D01*
X11215Y-24668D01*
X11215Y-24787D01*
X11244Y-24835D01*
X11272Y-24858D01*
X11329Y-24882D01*
X11444Y-24882D01*
X11501Y-24858D01*
X11529Y-24835D01*
X11558Y-24787D01*
X10358Y-32549D02*
X10444Y-32573D01*
X10587Y-32573D01*
X10644Y-32549D01*
X10672Y-32525D01*
X10701Y-32478D01*
X10701Y-32430D01*
X10672Y-32382D01*
X10644Y-32358D01*
X10587Y-32335D01*
X10472Y-32311D01*
X10415Y-32287D01*
X10387Y-32263D01*
X10358Y-32216D01*
X10358Y-32168D01*
X10387Y-32120D01*
X10415Y-32097D01*
X10472Y-32073D01*
X10615Y-32073D01*
X10701Y-32097D01*
X11272Y-32573D02*
X10929Y-32573D01*
X11101Y-32573D02*
X11101Y-32073D01*
X11044Y-32144D01*
X10987Y-32192D01*
X10929Y-32216D01*
X11644Y-32073D02*
X11701Y-32073D01*
X11758Y-32097D01*
X11787Y-32120D01*
X11815Y-32168D01*
X11844Y-32263D01*
X11844Y-32382D01*
X11815Y-32478D01*
X11787Y-32525D01*
X11758Y-32549D01*
X11701Y-32573D01*
X11644Y-32573D01*
X11587Y-32549D01*
X11558Y-32525D01*
X11529Y-32478D01*
X11501Y-32382D01*
X11501Y-32263D01*
X11529Y-32168D01*
X11558Y-32120D01*
X11587Y-32097D01*
X11644Y-32073D01*
X17858Y-32549D02*
X17944Y-32573D01*
X18087Y-32573D01*
X18144Y-32549D01*
X18173Y-32525D01*
X18201Y-32478D01*
X18201Y-32430D01*
X18173Y-32382D01*
X18144Y-32358D01*
X18087Y-32335D01*
X17973Y-32311D01*
X17915Y-32287D01*
X17887Y-32263D01*
X17858Y-32216D01*
X17858Y-32168D01*
X17887Y-32120D01*
X17915Y-32097D01*
X17973Y-32073D01*
X18115Y-32073D01*
X18201Y-32097D01*
X18773Y-32573D02*
X18430Y-32573D01*
X18601Y-32573D02*
X18601Y-32073D01*
X18544Y-32144D01*
X18487Y-32192D01*
X18430Y-32216D01*
X19315Y-32073D02*
X19030Y-32073D01*
X19001Y-32311D01*
X19030Y-32287D01*
X19087Y-32263D01*
X19230Y-32263D01*
X19287Y-32287D01*
X19315Y-32311D01*
X19344Y-32358D01*
X19344Y-32478D01*
X19315Y-32525D01*
X19287Y-32549D01*
X19230Y-32573D01*
X19087Y-32573D01*
X19030Y-32549D01*
X19001Y-32525D01*
X3144Y-35049D02*
X3229Y-35073D01*
X3372Y-35073D01*
X3429Y-35049D01*
X3458Y-35025D01*
X3487Y-34978D01*
X3487Y-34930D01*
X3458Y-34882D01*
X3429Y-34858D01*
X3372Y-34835D01*
X3258Y-34811D01*
X3201Y-34787D01*
X3172Y-34763D01*
X3144Y-34716D01*
X3144Y-34668D01*
X3172Y-34620D01*
X3201Y-34597D01*
X3258Y-34573D01*
X3401Y-34573D01*
X3487Y-34597D01*
X4029Y-34573D02*
X3744Y-34573D01*
X3715Y-34811D01*
X3744Y-34787D01*
X3801Y-34763D01*
X3944Y-34763D01*
X4001Y-34787D01*
X4029Y-34811D01*
X4058Y-34858D01*
X4058Y-34978D01*
X4029Y-35025D01*
X4001Y-35049D01*
X3944Y-35073D01*
X3801Y-35073D01*
X3744Y-35049D01*
X3715Y-35025D01*
X10644Y-17549D02*
X10729Y-17573D01*
X10872Y-17573D01*
X10929Y-17549D01*
X10958Y-17525D01*
X10987Y-17478D01*
X10987Y-17430D01*
X10958Y-17382D01*
X10929Y-17358D01*
X10872Y-17335D01*
X10758Y-17311D01*
X10701Y-17287D01*
X10672Y-17263D01*
X10644Y-17216D01*
X10644Y-17168D01*
X10672Y-17120D01*
X10701Y-17097D01*
X10758Y-17073D01*
X10901Y-17073D01*
X10987Y-17097D01*
X11329Y-17287D02*
X11272Y-17263D01*
X11244Y-17239D01*
X11215Y-17192D01*
X11215Y-17168D01*
X11244Y-17120D01*
X11272Y-17097D01*
X11329Y-17073D01*
X11444Y-17073D01*
X11501Y-17097D01*
X11529Y-17120D01*
X11558Y-17168D01*
X11558Y-17192D01*
X11529Y-17239D01*
X11501Y-17263D01*
X11444Y-17287D01*
X11329Y-17287D01*
X11272Y-17311D01*
X11244Y-17335D01*
X11215Y-17382D01*
X11215Y-17478D01*
X11244Y-17525D01*
X11272Y-17549D01*
X11329Y-17573D01*
X11444Y-17573D01*
X11501Y-17549D01*
X11529Y-17525D01*
X11558Y-17478D01*
X11558Y-17382D01*
X11529Y-17335D01*
X11501Y-17311D01*
X11444Y-17287D01*
X3144Y-17549D02*
X3229Y-17573D01*
X3372Y-17573D01*
X3429Y-17549D01*
X3458Y-17525D01*
X3487Y-17478D01*
X3487Y-17430D01*
X3458Y-17382D01*
X3429Y-17358D01*
X3372Y-17335D01*
X3258Y-17311D01*
X3201Y-17287D01*
X3172Y-17263D01*
X3144Y-17216D01*
X3144Y-17168D01*
X3172Y-17120D01*
X3201Y-17097D01*
X3258Y-17073D01*
X3401Y-17073D01*
X3487Y-17097D01*
X3687Y-17073D02*
X4058Y-17073D01*
X3858Y-17263D01*
X3944Y-17263D01*
X4001Y-17287D01*
X4029Y-17311D01*
X4058Y-17358D01*
X4058Y-17478D01*
X4029Y-17525D01*
X4001Y-17549D01*
X3944Y-17573D01*
X3772Y-17573D01*
X3715Y-17549D01*
X3687Y-17525D01*
X10644Y-10049D02*
X10729Y-10073D01*
X10872Y-10073D01*
X10929Y-10049D01*
X10958Y-10025D01*
X10987Y-9978D01*
X10987Y-9930D01*
X10958Y-9882D01*
X10929Y-9859D01*
X10872Y-9835D01*
X10758Y-9811D01*
X10701Y-9787D01*
X10672Y-9763D01*
X10644Y-9716D01*
X10644Y-9668D01*
X10672Y-9621D01*
X10701Y-9597D01*
X10758Y-9573D01*
X10901Y-9573D01*
X10987Y-9597D01*
X11187Y-9573D02*
X11587Y-9573D01*
X11329Y-10073D01*
X25358Y-32550D02*
X25444Y-32574D01*
X25587Y-32574D01*
X25644Y-32550D01*
X25673Y-32526D01*
X25701Y-32479D01*
X25701Y-32431D01*
X25673Y-32383D01*
X25644Y-32360D01*
X25587Y-32336D01*
X25473Y-32312D01*
X25415Y-32288D01*
X25387Y-32264D01*
X25358Y-32217D01*
X25358Y-32169D01*
X25387Y-32122D01*
X25415Y-32098D01*
X25473Y-32074D01*
X25615Y-32074D01*
X25701Y-32098D01*
X25930Y-32122D02*
X25958Y-32098D01*
X26015Y-32074D01*
X26158Y-32074D01*
X26215Y-32098D01*
X26244Y-32122D01*
X26273Y-32169D01*
X26273Y-32217D01*
X26244Y-32288D01*
X25901Y-32574D01*
X26273Y-32574D01*
X26644Y-32074D02*
X26701Y-32074D01*
X26758Y-32098D01*
X26787Y-32122D01*
X26815Y-32169D01*
X26844Y-32264D01*
X26844Y-32383D01*
X26815Y-32479D01*
X26787Y-32526D01*
X26758Y-32550D01*
X26701Y-32574D01*
X26644Y-32574D01*
X26587Y-32550D01*
X26558Y-32526D01*
X26530Y-32479D01*
X26501Y-32383D01*
X26501Y-32264D01*
X26530Y-32169D01*
X26558Y-32122D01*
X26587Y-32098D01*
X26644Y-32074D01*
X25358Y-25050D02*
X25444Y-25074D01*
X25587Y-25074D01*
X25644Y-25050D01*
X25673Y-25026D01*
X25701Y-24979D01*
X25701Y-24931D01*
X25673Y-24883D01*
X25644Y-24860D01*
X25587Y-24836D01*
X25473Y-24812D01*
X25415Y-24788D01*
X25387Y-24764D01*
X25358Y-24717D01*
X25358Y-24669D01*
X25387Y-24622D01*
X25415Y-24598D01*
X25473Y-24574D01*
X25615Y-24574D01*
X25701Y-24598D01*
X26273Y-25074D02*
X25930Y-25074D01*
X26101Y-25074D02*
X26101Y-24574D01*
X26044Y-24645D01*
X25987Y-24693D01*
X25930Y-24717D01*
X26558Y-25074D02*
X26673Y-25074D01*
X26730Y-25050D01*
X26758Y-25026D01*
X26815Y-24955D01*
X26844Y-24860D01*
X26844Y-24669D01*
X26815Y-24622D01*
X26787Y-24598D01*
X26730Y-24574D01*
X26615Y-24574D01*
X26558Y-24598D01*
X26530Y-24622D01*
X26501Y-24669D01*
X26501Y-24788D01*
X26530Y-24836D01*
X26558Y-24860D01*
X26615Y-24883D01*
X26730Y-24883D01*
X26787Y-24860D01*
X26815Y-24836D01*
X26844Y-24788D01*
X3144Y-10049D02*
X3229Y-10073D01*
X3372Y-10073D01*
X3429Y-10049D01*
X3458Y-10025D01*
X3487Y-9978D01*
X3487Y-9930D01*
X3458Y-9882D01*
X3429Y-9859D01*
X3372Y-9835D01*
X3258Y-9811D01*
X3201Y-9787D01*
X3172Y-9763D01*
X3144Y-9716D01*
X3144Y-9668D01*
X3172Y-9621D01*
X3201Y-9597D01*
X3258Y-9573D01*
X3401Y-9573D01*
X3487Y-9597D01*
X3715Y-9621D02*
X3744Y-9597D01*
X3801Y-9573D01*
X3944Y-9573D01*
X4001Y-9597D01*
X4029Y-9621D01*
X4058Y-9668D01*
X4058Y-9716D01*
X4029Y-9787D01*
X3687Y-10073D01*
X4058Y-10073D01*
X10644Y-2549D02*
X10729Y-2573D01*
X10872Y-2573D01*
X10929Y-2549D01*
X10958Y-2525D01*
X10987Y-2478D01*
X10987Y-2430D01*
X10958Y-2382D01*
X10929Y-2359D01*
X10872Y-2335D01*
X10758Y-2311D01*
X10701Y-2287D01*
X10672Y-2263D01*
X10644Y-2216D01*
X10644Y-2168D01*
X10672Y-2121D01*
X10701Y-2097D01*
X10758Y-2073D01*
X10901Y-2073D01*
X10987Y-2097D01*
X11501Y-2073D02*
X11387Y-2073D01*
X11329Y-2097D01*
X11301Y-2121D01*
X11244Y-2192D01*
X11215Y-2287D01*
X11215Y-2478D01*
X11244Y-2525D01*
X11272Y-2549D01*
X11329Y-2573D01*
X11444Y-2573D01*
X11501Y-2549D01*
X11529Y-2525D01*
X11558Y-2478D01*
X11558Y-2359D01*
X11529Y-2311D01*
X11501Y-2287D01*
X11444Y-2263D01*
X11329Y-2263D01*
X11272Y-2287D01*
X11244Y-2311D01*
X11215Y-2359D01*
G54D11*
X29430Y-44204D02*
X29234Y-44204D01*
X29234Y-44129D01*
X29243Y-44111D01*
X29252Y-44101D01*
X29271Y-44092D01*
X29299Y-44092D01*
X29318Y-44101D01*
X29327Y-44111D01*
X29337Y-44129D01*
X29337Y-44204D01*
X29252Y-44017D02*
X29243Y-44007D01*
X29234Y-43989D01*
X29234Y-43942D01*
X29243Y-43923D01*
X29252Y-43914D01*
X29271Y-43904D01*
X29290Y-43904D01*
X29318Y-43914D01*
X29430Y-44026D01*
X29430Y-43904D01*
X29234Y-43782D02*
X29234Y-43764D01*
X29243Y-43745D01*
X29252Y-43736D01*
X29271Y-43726D01*
X29308Y-43717D01*
X29355Y-43717D01*
X29393Y-43726D01*
X29412Y-43736D01*
X29421Y-43745D01*
X29430Y-43764D01*
X29430Y-43782D01*
X29421Y-43801D01*
X29412Y-43811D01*
X29393Y-43820D01*
X29355Y-43829D01*
X29308Y-43829D01*
X29271Y-43820D01*
X29252Y-43811D01*
X29243Y-43801D01*
X29234Y-43782D01*
X29299Y-43548D02*
X29430Y-43548D01*
X29224Y-43595D02*
X29365Y-43642D01*
X29365Y-43520D01*
X29243Y-43522D02*
X29234Y-43540D01*
X29234Y-43568D01*
X29243Y-43597D01*
X29262Y-43615D01*
X29280Y-43625D01*
X29318Y-43634D01*
X29346Y-43634D01*
X29383Y-43625D01*
X29402Y-43615D01*
X29421Y-43597D01*
X29430Y-43568D01*
X29430Y-43550D01*
X29421Y-43522D01*
X29412Y-43512D01*
X29346Y-43512D01*
X29346Y-43550D01*
X29430Y-43428D02*
X29234Y-43428D01*
X29430Y-43315D01*
X29234Y-43315D01*
X29430Y-43222D02*
X29234Y-43222D01*
X29234Y-43175D01*
X29243Y-43147D01*
X29262Y-43128D01*
X29280Y-43118D01*
X29318Y-43109D01*
X29346Y-43109D01*
X29383Y-43118D01*
X29402Y-43128D01*
X29421Y-43147D01*
X29430Y-43175D01*
X29430Y-43222D01*
X431Y-44204D02*
X234Y-44204D01*
X234Y-44129D01*
X243Y-44111D01*
X252Y-44101D01*
X271Y-44092D01*
X299Y-44092D01*
X318Y-44101D01*
X327Y-44111D01*
X337Y-44129D01*
X337Y-44204D01*
X252Y-44017D02*
X243Y-44007D01*
X234Y-43989D01*
X234Y-43942D01*
X243Y-43923D01*
X252Y-43914D01*
X271Y-43904D01*
X290Y-43904D01*
X318Y-43914D01*
X431Y-44026D01*
X431Y-43904D01*
X234Y-43782D02*
X234Y-43764D01*
X243Y-43745D01*
X252Y-43736D01*
X271Y-43726D01*
X309Y-43717D01*
X356Y-43717D01*
X393Y-43726D01*
X412Y-43736D01*
X421Y-43745D01*
X431Y-43764D01*
X431Y-43782D01*
X421Y-43801D01*
X412Y-43811D01*
X393Y-43820D01*
X356Y-43829D01*
X309Y-43829D01*
X271Y-43820D01*
X252Y-43811D01*
X243Y-43801D01*
X234Y-43782D01*
X234Y-43539D02*
X234Y-43633D01*
X327Y-43642D01*
X318Y-43633D01*
X309Y-43614D01*
X309Y-43567D01*
X318Y-43548D01*
X327Y-43539D01*
X346Y-43529D01*
X393Y-43529D01*
X412Y-43539D01*
X421Y-43548D01*
X431Y-43567D01*
X431Y-43614D01*
X421Y-43633D01*
X412Y-43642D01*
X243Y-43522D02*
X234Y-43540D01*
X234Y-43568D01*
X243Y-43597D01*
X262Y-43615D01*
X281Y-43625D01*
X318Y-43634D01*
X346Y-43634D01*
X384Y-43625D01*
X402Y-43615D01*
X421Y-43597D01*
X431Y-43568D01*
X431Y-43550D01*
X421Y-43522D01*
X412Y-43512D01*
X346Y-43512D01*
X346Y-43550D01*
X431Y-43428D02*
X234Y-43428D01*
X431Y-43315D01*
X234Y-43315D01*
X431Y-43222D02*
X234Y-43222D01*
X234Y-43175D01*
X243Y-43147D01*
X262Y-43128D01*
X281Y-43118D01*
X318Y-43109D01*
X346Y-43109D01*
X384Y-43118D01*
X402Y-43128D01*
X421Y-43147D01*
X431Y-43175D01*
X431Y-43222D01*
G54D14*
X6608Y-32550D02*
X6694Y-32574D01*
X6837Y-32574D01*
X6894Y-32550D01*
X6922Y-32526D01*
X6951Y-32479D01*
X6951Y-32431D01*
X6922Y-32383D01*
X6894Y-32360D01*
X6837Y-32336D01*
X6722Y-32312D01*
X6665Y-32288D01*
X6637Y-32264D01*
X6608Y-32217D01*
X6608Y-32169D01*
X6637Y-32122D01*
X6665Y-32098D01*
X6722Y-32074D01*
X6865Y-32074D01*
X6951Y-32098D01*
X7494Y-32074D02*
X7208Y-32074D01*
X7179Y-32312D01*
X7208Y-32288D01*
X7265Y-32264D01*
X7408Y-32264D01*
X7465Y-32288D01*
X7494Y-32312D01*
X7522Y-32360D01*
X7522Y-32479D01*
X7494Y-32526D01*
X7465Y-32550D01*
X7408Y-32574D01*
X7265Y-32574D01*
X7208Y-32550D01*
X7179Y-32526D01*
X8094Y-32574D02*
X7751Y-32574D01*
X7922Y-32574D02*
X7922Y-32074D01*
X7865Y-32145D01*
X7808Y-32193D01*
X7751Y-32217D01*
X25030Y-30900D02*
X25053Y-30814D01*
X25053Y-30672D01*
X25030Y-30614D01*
X25006Y-30586D01*
X24958Y-30557D01*
X24911Y-30557D01*
X24863Y-30586D01*
X24839Y-30614D01*
X24815Y-30672D01*
X24792Y-30786D01*
X24768Y-30843D01*
X24744Y-30872D01*
X24696Y-30900D01*
X24649Y-30900D01*
X24601Y-30872D01*
X24577Y-30843D01*
X24553Y-30786D01*
X24553Y-30643D01*
X24577Y-30557D01*
X25053Y-29986D02*
X25053Y-30329D01*
X25053Y-30157D02*
X24553Y-30157D01*
X24625Y-30214D01*
X24673Y-30272D01*
X24696Y-30329D01*
X25053Y-29700D02*
X25053Y-29586D01*
X25030Y-29529D01*
X25006Y-29500D01*
X24934Y-29443D01*
X24839Y-29414D01*
X24649Y-29414D01*
X24601Y-29443D01*
X24577Y-29472D01*
X24553Y-29529D01*
X24553Y-29643D01*
X24577Y-29700D01*
X24601Y-29729D01*
X24649Y-29757D01*
X24768Y-29757D01*
X24815Y-29729D01*
X24839Y-29700D01*
X24863Y-29643D01*
X24863Y-29529D01*
X24839Y-29472D01*
X24815Y-29443D01*
X24768Y-29414D01*
X25053Y-28843D02*
X25053Y-29186D01*
X25053Y-29014D02*
X24553Y-29014D01*
X24625Y-29072D01*
X24673Y-29129D01*
X24696Y-29186D01*
X25030Y-15900D02*
X25053Y-15814D01*
X25053Y-15672D01*
X25030Y-15614D01*
X25006Y-15586D01*
X24958Y-15557D01*
X24911Y-15557D01*
X24863Y-15586D01*
X24839Y-15614D01*
X24815Y-15672D01*
X24792Y-15786D01*
X24768Y-15843D01*
X24744Y-15872D01*
X24696Y-15900D01*
X24649Y-15900D01*
X24601Y-15872D01*
X24577Y-15843D01*
X24553Y-15786D01*
X24553Y-15643D01*
X24577Y-15557D01*
X25053Y-14986D02*
X25053Y-15329D01*
X25053Y-15157D02*
X24553Y-15157D01*
X24625Y-15214D01*
X24673Y-15272D01*
X24696Y-15329D01*
X24553Y-14786D02*
X24553Y-14386D01*
X25053Y-14643D01*
X25053Y-13843D02*
X25053Y-14186D01*
X25053Y-14014D02*
X24553Y-14014D01*
X24625Y-14072D01*
X24673Y-14129D01*
X24696Y-14186D01*
X17858Y-40050D02*
X17944Y-40074D01*
X18087Y-40074D01*
X18144Y-40050D01*
X18173Y-40026D01*
X18201Y-39979D01*
X18201Y-39931D01*
X18173Y-39883D01*
X18144Y-39860D01*
X18087Y-39836D01*
X17973Y-39812D01*
X17915Y-39788D01*
X17887Y-39764D01*
X17858Y-39717D01*
X17858Y-39669D01*
X17887Y-39622D01*
X17915Y-39598D01*
X17973Y-39574D01*
X18115Y-39574D01*
X18201Y-39598D01*
X18430Y-39622D02*
X18458Y-39598D01*
X18515Y-39574D01*
X18658Y-39574D01*
X18715Y-39598D01*
X18744Y-39622D01*
X18773Y-39669D01*
X18773Y-39717D01*
X18744Y-39788D01*
X18401Y-40074D01*
X18773Y-40074D01*
X18973Y-39574D02*
X19344Y-39574D01*
X19144Y-39764D01*
X19230Y-39764D01*
X19287Y-39788D01*
X19315Y-39812D01*
X19344Y-39860D01*
X19344Y-39979D01*
X19315Y-40026D01*
X19287Y-40050D01*
X19230Y-40074D01*
X19058Y-40074D01*
X19001Y-40050D01*
X18973Y-40026D01*
X25358Y-40050D02*
X25444Y-40074D01*
X25587Y-40074D01*
X25644Y-40050D01*
X25673Y-40026D01*
X25701Y-39979D01*
X25701Y-39931D01*
X25673Y-39883D01*
X25644Y-39860D01*
X25587Y-39836D01*
X25473Y-39812D01*
X25415Y-39788D01*
X25387Y-39764D01*
X25358Y-39717D01*
X25358Y-39669D01*
X25387Y-39622D01*
X25415Y-39598D01*
X25473Y-39574D01*
X25615Y-39574D01*
X25701Y-39598D01*
X25930Y-39622D02*
X25958Y-39598D01*
X26015Y-39574D01*
X26158Y-39574D01*
X26215Y-39598D01*
X26244Y-39622D01*
X26273Y-39669D01*
X26273Y-39717D01*
X26244Y-39788D01*
X25901Y-40074D01*
X26273Y-40074D01*
X26787Y-39741D02*
X26787Y-40074D01*
X26644Y-39550D02*
X26501Y-39907D01*
X26873Y-39907D01*
X25358Y-10050D02*
X25444Y-10074D01*
X25587Y-10074D01*
X25644Y-10050D01*
X25673Y-10026D01*
X25701Y-9979D01*
X25701Y-9931D01*
X25673Y-9883D01*
X25644Y-9860D01*
X25587Y-9836D01*
X25473Y-9812D01*
X25415Y-9788D01*
X25387Y-9764D01*
X25358Y-9717D01*
X25358Y-9669D01*
X25387Y-9622D01*
X25415Y-9598D01*
X25473Y-9574D01*
X25615Y-9574D01*
X25701Y-9598D01*
X26273Y-10074D02*
X25930Y-10074D01*
X26101Y-10074D02*
X26101Y-9574D01*
X26044Y-9645D01*
X25987Y-9693D01*
X25930Y-9717D01*
X26473Y-9574D02*
X26873Y-9574D01*
X26615Y-10074D01*
X25358Y-17550D02*
X25444Y-17574D01*
X25587Y-17574D01*
X25644Y-17550D01*
X25673Y-17526D01*
X25701Y-17479D01*
X25701Y-17431D01*
X25673Y-17383D01*
X25644Y-17360D01*
X25587Y-17336D01*
X25473Y-17312D01*
X25415Y-17288D01*
X25387Y-17264D01*
X25358Y-17217D01*
X25358Y-17169D01*
X25387Y-17122D01*
X25415Y-17098D01*
X25473Y-17074D01*
X25615Y-17074D01*
X25701Y-17098D01*
X26273Y-17574D02*
X25930Y-17574D01*
X26101Y-17574D02*
X26101Y-17074D01*
X26044Y-17145D01*
X25987Y-17193D01*
X25930Y-17217D01*
X26615Y-17288D02*
X26558Y-17264D01*
X26530Y-17241D01*
X26501Y-17193D01*
X26501Y-17169D01*
X26530Y-17122D01*
X26558Y-17098D01*
X26615Y-17074D01*
X26730Y-17074D01*
X26787Y-17098D01*
X26815Y-17122D01*
X26844Y-17169D01*
X26844Y-17193D01*
X26815Y-17241D01*
X26787Y-17264D01*
X26730Y-17288D01*
X26615Y-17288D01*
X26558Y-17312D01*
X26530Y-17336D01*
X26501Y-17383D01*
X26501Y-17479D01*
X26530Y-17526D01*
X26558Y-17550D01*
X26615Y-17574D01*
X26730Y-17574D01*
X26787Y-17550D01*
X26815Y-17526D01*
X26844Y-17479D01*
X26844Y-17383D01*
X26815Y-17336D01*
X26787Y-17312D01*
X26730Y-17288D01*
X6322Y-40050D02*
X6408Y-40074D01*
X6551Y-40074D01*
X6608Y-40050D01*
X6637Y-40026D01*
X6665Y-39979D01*
X6665Y-39931D01*
X6637Y-39883D01*
X6608Y-39860D01*
X6551Y-39836D01*
X6437Y-39812D01*
X6379Y-39788D01*
X6351Y-39764D01*
X6322Y-39717D01*
X6322Y-39669D01*
X6351Y-39622D01*
X6379Y-39598D01*
X6437Y-39574D01*
X6579Y-39574D01*
X6665Y-39598D01*
X6894Y-39622D02*
X6922Y-39598D01*
X6979Y-39574D01*
X7122Y-39574D01*
X7179Y-39598D01*
X7208Y-39622D01*
X7237Y-39669D01*
X7237Y-39717D01*
X7208Y-39788D01*
X6865Y-40074D01*
X7237Y-40074D01*
X7808Y-40074D02*
X7465Y-40074D01*
X7637Y-40074D02*
X7637Y-39574D01*
X7579Y-39645D01*
X7522Y-39693D01*
X7465Y-39717D01*
X8379Y-40074D02*
X8037Y-40074D01*
X8208Y-40074D02*
X8208Y-39574D01*
X8151Y-39645D01*
X8094Y-39693D01*
X8037Y-39717D01*
X25030Y-23400D02*
X25053Y-23314D01*
X25053Y-23172D01*
X25030Y-23114D01*
X25006Y-23086D01*
X24958Y-23057D01*
X24911Y-23057D01*
X24863Y-23086D01*
X24839Y-23114D01*
X24815Y-23172D01*
X24792Y-23286D01*
X24768Y-23343D01*
X24744Y-23372D01*
X24696Y-23400D01*
X24649Y-23400D01*
X24601Y-23372D01*
X24577Y-23343D01*
X24553Y-23286D01*
X24553Y-23143D01*
X24577Y-23057D01*
X25053Y-22486D02*
X25053Y-22829D01*
X25053Y-22657D02*
X24553Y-22657D01*
X24625Y-22714D01*
X24673Y-22772D01*
X24696Y-22829D01*
X24768Y-22143D02*
X24744Y-22200D01*
X24720Y-22229D01*
X24673Y-22257D01*
X24649Y-22257D01*
X24601Y-22229D01*
X24577Y-22200D01*
X24553Y-22143D01*
X24553Y-22029D01*
X24577Y-21972D01*
X24601Y-21943D01*
X24649Y-21914D01*
X24673Y-21914D01*
X24720Y-21943D01*
X24744Y-21972D01*
X24768Y-22029D01*
X24768Y-22143D01*
X24792Y-22200D01*
X24815Y-22229D01*
X24863Y-22257D01*
X24958Y-22257D01*
X25006Y-22229D01*
X25030Y-22200D01*
X25053Y-22143D01*
X25053Y-22029D01*
X25030Y-21972D01*
X25006Y-21943D01*
X24958Y-21914D01*
X24863Y-21914D01*
X24815Y-21943D01*
X24792Y-21972D01*
X24768Y-22029D01*
X25053Y-21343D02*
X25053Y-21686D01*
X25053Y-21514D02*
X24553Y-21514D01*
X24625Y-21572D01*
X24673Y-21629D01*
X24696Y-21686D01*
X25030Y-38400D02*
X25053Y-38314D01*
X25053Y-38172D01*
X25030Y-38114D01*
X25006Y-38086D01*
X24958Y-38057D01*
X24911Y-38057D01*
X24863Y-38086D01*
X24839Y-38114D01*
X24815Y-38172D01*
X24792Y-38286D01*
X24768Y-38343D01*
X24744Y-38372D01*
X24696Y-38400D01*
X24649Y-38400D01*
X24601Y-38372D01*
X24577Y-38343D01*
X24553Y-38286D01*
X24553Y-38143D01*
X24577Y-38057D01*
X24601Y-37829D02*
X24577Y-37800D01*
X24553Y-37743D01*
X24553Y-37600D01*
X24577Y-37543D01*
X24601Y-37514D01*
X24649Y-37486D01*
X24696Y-37486D01*
X24768Y-37514D01*
X25053Y-37857D01*
X25053Y-37486D01*
X24553Y-37114D02*
X24553Y-37057D01*
X24577Y-37000D01*
X24601Y-36972D01*
X24649Y-36943D01*
X24744Y-36914D01*
X24863Y-36914D01*
X24958Y-36943D01*
X25006Y-36972D01*
X25030Y-37000D01*
X25053Y-37057D01*
X25053Y-37114D01*
X25030Y-37172D01*
X25006Y-37200D01*
X24958Y-37229D01*
X24863Y-37257D01*
X24744Y-37257D01*
X24649Y-37229D01*
X24601Y-37200D01*
X24577Y-37172D01*
X24553Y-37114D01*
X25053Y-36343D02*
X25053Y-36686D01*
X25053Y-36514D02*
X24553Y-36514D01*
X24625Y-36572D01*
X24673Y-36629D01*
X24696Y-36686D01*
%LPC*%
G54D15*
X14851Y-32120D03*
G54D16*
X574Y-22244D03*
G54D17*
X6299Y-1523D03*
X8031Y-1523D03*
G54D18*
X7225Y-16746D03*
X7225Y-18746D03*
X7225Y-20746D03*
X7225Y-17746D03*
X7225Y-19746D03*
X7225Y-15746D03*
G54D19*
X1101Y-7121D03*
X4101Y-7121D03*
G54D20*
X4601Y-39120D03*
X2101Y-40120D03*
G54D21*
X3601Y-41120D03*
G54D22*
X1601Y-41120D03*
X5601Y-41120D03*
G54D20*
X17601Y-28120D03*
X20101Y-27120D03*
G54D21*
X18601Y-26120D03*
G54D22*
X20601Y-26120D03*
X16601Y-26120D03*
G54D20*
X17601Y-13121D03*
X20101Y-12121D03*
G54D21*
X18601Y-11121D03*
G54D22*
X20601Y-11121D03*
X16601Y-11121D03*
G54D20*
X25101Y-5622D03*
X27601Y-4622D03*
G54D21*
X26101Y-3622D03*
G54D22*
X28101Y-3622D03*
X24101Y-3622D03*
G54D20*
X17601Y-5622D03*
X20101Y-4622D03*
G54D21*
X18601Y-3622D03*
G54D22*
X20601Y-3622D03*
X16601Y-3622D03*
G54D20*
X17601Y-20620D03*
X20101Y-19620D03*
G54D21*
X18601Y-18620D03*
G54D22*
X20601Y-18620D03*
X16601Y-18620D03*
G54D20*
X10101Y-43122D03*
X12601Y-42122D03*
G54D21*
X11101Y-41122D03*
G54D22*
X13101Y-41122D03*
X9101Y-41122D03*
G54D23*
X26601Y-1621D03*
G54D24*
X25601Y-1621D03*
G54D23*
X4101Y-1621D03*
G54D24*
X3101Y-1621D03*
G54D25*
X351Y-36370D03*
X29351Y-371D03*
X29351Y-36620D03*
X351Y-322D03*
G54D20*
X2601Y-5621D03*
X5101Y-4621D03*
G54D21*
X3601Y-3621D03*
G54D22*
X5601Y-3621D03*
X1601Y-3621D03*
G54D20*
X2601Y-28120D03*
X5101Y-27120D03*
G54D21*
X3601Y-26120D03*
G54D22*
X5601Y-26120D03*
X1601Y-26120D03*
G54D20*
X10101Y-28120D03*
X12601Y-27120D03*
G54D21*
X11101Y-26120D03*
G54D22*
X13101Y-26120D03*
X9101Y-26120D03*
G54D20*
X10101Y-35620D03*
X12601Y-34620D03*
G54D21*
X11101Y-33620D03*
G54D22*
X13101Y-33620D03*
X9101Y-33620D03*
G54D20*
X17601Y-35620D03*
X20101Y-34620D03*
G54D21*
X18601Y-33620D03*
G54D22*
X20601Y-33620D03*
X16601Y-33620D03*
G54D20*
X4601Y-31620D03*
X2101Y-32620D03*
G54D21*
X3601Y-33620D03*
G54D22*
X1601Y-33620D03*
X5601Y-33620D03*
G54D20*
X10101Y-20620D03*
X12601Y-19620D03*
G54D21*
X11101Y-18620D03*
G54D22*
X13101Y-18620D03*
X9101Y-18620D03*
G54D20*
X2601Y-20620D03*
X5101Y-19620D03*
G54D21*
X3601Y-18620D03*
G54D22*
X5601Y-18620D03*
X1601Y-18620D03*
G54D20*
X10101Y-13121D03*
X12601Y-12121D03*
G54D21*
X11101Y-11121D03*
G54D22*
X13101Y-11121D03*
X9101Y-11121D03*
G54D20*
X25101Y-35622D03*
X27601Y-34622D03*
G54D21*
X26101Y-33622D03*
G54D22*
X28101Y-33622D03*
X24101Y-33622D03*
G54D20*
X25101Y-28122D03*
X27601Y-27122D03*
G54D21*
X26101Y-26122D03*
G54D22*
X28101Y-26122D03*
X24101Y-26122D03*
G54D20*
X2601Y-13121D03*
X5101Y-12121D03*
G54D21*
X3601Y-11121D03*
G54D22*
X5601Y-11121D03*
X1601Y-11121D03*
G54D20*
X10101Y-5621D03*
X12601Y-4621D03*
G54D21*
X11101Y-3621D03*
G54D22*
X13101Y-3621D03*
X9101Y-3621D03*
G54D19*
X24101Y-7121D03*
X27101Y-7121D03*
X14601Y-7121D03*
X11601Y-7121D03*
X22101Y-7121D03*
X19101Y-7121D03*
G54D23*
X11601Y-1621D03*
G54D24*
X10601Y-1621D03*
G54D23*
X19101Y-1621D03*
G54D24*
X18101Y-1621D03*
G54D25*
X29351Y-44372D03*
X351Y-44372D03*
G54D20*
X6351Y-35622D03*
X8851Y-34622D03*
G54D21*
X7351Y-33622D03*
G54D22*
X9351Y-33622D03*
X5351Y-33622D03*
G54D26*
X12051Y-36372D03*
X2651Y-36372D03*
G54D21*
X12051Y-30372D03*
X2651Y-30372D03*
G54D20*
X28101Y-30872D03*
X27101Y-28372D03*
G54D21*
X26101Y-29872D03*
G54D22*
X26101Y-27872D03*
X26101Y-31872D03*
G54D26*
X28851Y-25172D03*
X28851Y-34572D03*
G54D21*
X22851Y-25172D03*
X22851Y-34572D03*
G54D20*
X28101Y-15872D03*
X27101Y-13372D03*
G54D21*
X26101Y-14872D03*
G54D22*
X26101Y-12872D03*
X26101Y-16872D03*
G54D26*
X28851Y-10172D03*
X28851Y-19572D03*
G54D21*
X22851Y-10172D03*
X22851Y-19572D03*
G54D20*
X17601Y-43122D03*
X20101Y-42122D03*
G54D21*
X18601Y-41122D03*
G54D22*
X20601Y-41122D03*
X16601Y-41122D03*
G54D20*
X25101Y-43122D03*
X27601Y-42122D03*
G54D21*
X26101Y-41122D03*
G54D22*
X28101Y-41122D03*
X24101Y-41122D03*
G54D20*
X25101Y-13122D03*
X27601Y-12122D03*
G54D21*
X26101Y-11122D03*
G54D22*
X28101Y-11122D03*
X24101Y-11122D03*
G54D20*
X25101Y-20622D03*
X27601Y-19622D03*
G54D21*
X26101Y-18622D03*
G54D22*
X28101Y-18622D03*
X24101Y-18622D03*
G54D20*
X6351Y-43122D03*
X8851Y-42122D03*
G54D21*
X7351Y-41122D03*
G54D22*
X9351Y-41122D03*
X5351Y-41122D03*
G54D26*
X12051Y-43872D03*
X2651Y-43872D03*
G54D21*
X12051Y-37872D03*
X2651Y-37872D03*
G54D20*
X28101Y-23372D03*
X27101Y-20872D03*
G54D21*
X26101Y-22372D03*
G54D22*
X26101Y-20372D03*
X26101Y-24372D03*
G54D26*
X28851Y-17672D03*
X28851Y-27072D03*
G54D21*
X22851Y-17672D03*
X22851Y-27072D03*
G54D20*
X28101Y-38372D03*
X27101Y-35872D03*
G54D21*
X26101Y-37372D03*
G54D22*
X26101Y-35372D03*
X26101Y-39372D03*
G54D26*
X28851Y-32672D03*
X28851Y-42072D03*
G54D21*
X22851Y-32672D03*
X22851Y-42072D03*
G54D25*
X14851Y-37322D03*
X16001Y-37320D03*
X17201Y-37320D03*
X18401Y-37320D03*
X19601Y-37320D03*
X21501Y-37320D03*
X22601Y-37320D03*
X23801Y-37320D03*
X28301Y-37320D03*
X13501Y-37320D03*
X10701Y-37320D03*
X9501Y-37320D03*
X8301Y-37320D03*
X7001Y-37320D03*
X5801Y-37320D03*
X1251Y-37320D03*
X3901Y-37320D03*
G54D15*
X14851Y-9621D03*
G54D25*
X201Y-37320D03*
X29501Y-37320D03*
M02*
