M48
;DRILL file {Pcbnew (2013-02-13 BZR 3947)-testing} date 9/24/2013 1:08:48 PM
;FORMAT={3:3/ absolute / metric / keep zeros}
FMAT,2
METRIC,TZ
T1C0.400
T2C0.813
T3C0.900
T4C0.991
T5C1.000
T6C1.499
T7C1.702
T8C2.499
T9C3.048
T10C3.988
%
G90
G05
M71
T1
X000892Y-000818
X000892Y-092382
X000892Y-112705
X002290Y-038407
X007751Y-038407
X009810Y-043390
X011094Y-015562
X011094Y-049648
X014804Y-068578
X015042Y-042874
X016450Y-056998
X016898Y-046485
X017100Y-036406
X017692Y-004260
X017692Y-013994
X019562Y-026342
X019586Y-011660
X020540Y-009286
X020540Y-013090
X020796Y-007221
X023499Y-037645
X023753Y-099621
X023819Y-055052
X024798Y-058507
X025658Y-040360
X025670Y-049565
X026165Y-019865
X026589Y-062505
X027505Y-071234
X027592Y-053303
X027592Y-055713
X028162Y-062865
X028555Y-059759
X029125Y-042000
X029665Y-054517
X029761Y-063975
X030109Y-037746
X030511Y-034692
X031052Y-052669
X032255Y-058600
X032699Y-051683
X033860Y-112199
X034083Y-044723
X034141Y-060127
X034469Y-055292
X034969Y-057601
X035570Y-061492
X035780Y-032921
X036008Y-093815
X036453Y-099494
X036758Y-050439
X036972Y-005665
X037374Y-068523
X038856Y-040947
X038856Y-060372
X040247Y-060320
X040437Y-046069
X040437Y-057293
X040887Y-090857
X041077Y-059452
X042041Y-019865
X043954Y-061290
X044453Y-024945
X044596Y-057173
X045799Y-055388
X047762Y-058535
X048010Y-021389
X048928Y-072808
X049055Y-033954
X052201Y-025707
X052811Y-036003
X052840Y-042356
X053528Y-050292
X053597Y-098224
X053606Y-057161
X055007Y-015734
X055179Y-043625
X055179Y-072935
X055179Y-092234
X055772Y-053613
X055772Y-062137
X056138Y-028882
X056138Y-035867
X057050Y-053673
X059048Y-053506
X060251Y-056150
X060343Y-051252
X060349Y-038332
X060756Y-062860
X061914Y-061476
X068035Y-111476
X070235Y-093779
X073283Y-104564
X074298Y-100129
X074552Y-000943
X074552Y-093017
X074552Y-112705
X074631Y-090971
T2
X002798Y-018088
X010417Y-018088
X029467Y-018088
X037088Y-018088
X048518Y-018088
X056138Y-018088
X061218Y-018088
X068838Y-018088
T3
X016000Y-003870
X018352Y-039997
X018352Y-042537
X018352Y-045077
X018352Y-047617
X018352Y-050157
X018352Y-052697
X020400Y-003870
T4
X007877Y-004118
X010417Y-004118
X026928Y-004118
X029467Y-004118
X045978Y-004118
X048518Y-004118
X065028Y-004118
X067568Y-004118
T5
X000511Y-094795
X003178Y-094795
X009910Y-094795
X014736Y-094795
X017784Y-094795
X021085Y-094795
X024134Y-094795
X027182Y-094795
X034294Y-094795
X037722Y-094798
X040644Y-094795
X043692Y-094795
X046740Y-094795
X049788Y-094795
X054614Y-094795
X057408Y-094795
X060456Y-094795
X071886Y-094795
X074934Y-094795
T6
X005337Y-082857
X005337Y-101907
X006608Y-014278
X006608Y-033328
X006608Y-052377
X006608Y-071427
X011688Y-080317
X011688Y-099367
X012958Y-011737
X012958Y-030788
X012958Y-049837
X012958Y-068887
X016133Y-090480
X016133Y-109530
X022483Y-087940
X022483Y-106990
X025658Y-014278
X025658Y-033328
X025658Y-052377
X025658Y-071427
X025658Y-090477
X025658Y-109530
X032008Y-011737
X032008Y-030788
X032008Y-049837
X032008Y-068887
X032008Y-087937
X032008Y-106990
X044708Y-014280
X044708Y-033328
X044708Y-052377
X044708Y-071427
X044708Y-090477
X044708Y-109530
X051058Y-011740
X051058Y-030788
X051058Y-049837
X051058Y-068887
X051058Y-087937
X051058Y-106990
X063758Y-014280
X063758Y-033330
X063758Y-052380
X063758Y-071430
X063758Y-090480
X063758Y-109530
X068838Y-033965
X068838Y-053015
X068838Y-072065
X068838Y-091115
X070108Y-011740
X070108Y-030790
X070108Y-049840
X070108Y-068890
X070108Y-087940
X070108Y-106990
X071378Y-040315
X071378Y-059365
X071378Y-078415
X071378Y-097465
T7
X004068Y-009198
X004068Y-028247
X004068Y-047297
X004068Y-066347
X004068Y-085397
X004068Y-104447
X013592Y-085400
X013592Y-104450
X014227Y-009198
X014227Y-028247
X014227Y-047297
X014227Y-066347
X014227Y-085397
X014227Y-104447
X023118Y-009198
X023118Y-028247
X023118Y-047297
X023118Y-066347
X023118Y-085397
X023118Y-104450
X023753Y-085400
X023753Y-104450
X033278Y-009198
X033278Y-028247
X033278Y-047297
X033278Y-066347
X033278Y-085397
X033278Y-104450
X042168Y-009200
X042168Y-028247
X042168Y-047297
X042168Y-066347
X042168Y-085397
X042168Y-104450
X052328Y-009200
X052328Y-028247
X052328Y-047297
X052328Y-066347
X052328Y-085397
X052328Y-104450
X061218Y-009200
X061218Y-028250
X061218Y-047300
X061218Y-066350
X061218Y-085400
X061218Y-104450
X066298Y-032695
X066298Y-042855
X066298Y-051745
X066298Y-061905
X066298Y-070795
X066298Y-080955
X066298Y-089845
X066298Y-100005
X071378Y-009200
X071378Y-028250
X071378Y-047300
X071378Y-066350
X071378Y-085400
X071378Y-104450
T9
X006735Y-092385
X006735Y-111435
X030610Y-092385
X030610Y-111435
X073283Y-025837
X073283Y-044887
X073283Y-049713
X073283Y-063937
X073283Y-068763
X073283Y-082987
X073283Y-087813
X073283Y-106863
T10
X006735Y-077145
X006735Y-096195
X009148Y-009198
X009148Y-028247
X009148Y-047297
X009148Y-066347
X009148Y-085397
X009148Y-104447
X018673Y-085400
X018673Y-104450
X028197Y-009198
X028197Y-028247
X028197Y-047297
X028197Y-066347
X028197Y-085397
X028197Y-104450
X030610Y-077145
X030610Y-096195
X047248Y-009200
X047248Y-028247
X047248Y-047297
X047248Y-066347
X047248Y-085397
X047248Y-104450
X058043Y-025837
X058043Y-044887
X058043Y-049713
X058043Y-063937
X058043Y-068763
X058043Y-082987
X058043Y-087813
X058043Y-106863
X066298Y-009200
X066298Y-028250
X066298Y-037775
X066298Y-047300
X066298Y-056825
X066298Y-066350
X066298Y-075875
X066298Y-085400
X066298Y-094925
X066298Y-104450
T8
X-000792Y-056501G85X003709Y-056501
G05
X036471Y-024438G85X038973Y-024438
G05
X036471Y-081587G85X038973Y-081587
G05
T0
M30
