M48
;DRILL file {Pcbnew (2013-02-13 BZR 3947)-testing} date 10/17/2013 1:35:27 PM
;FORMAT={3:3/ absolute / metric / keep zeros}
FMAT,2
METRIC,TZ
T1C0.400
T2C0.711
T3C0.813
T4C0.900
T5C0.991
T6C1.000
T7C1.499
T8C1.702
T9C2.500
T10C3.048
T11C3.988
%
G90
G05
M71
T1
X000892Y-000818
X000892Y-112705
X000895Y-093017
X004377Y-038888
X005552Y-041798
X006432Y-031255
X006572Y-040638
X007459Y-038124
X009995Y-035495
X012032Y-015533
X013937Y-033057
X014828Y-030982
X016585Y-043956
X020994Y-035070
X021150Y-051043
X021960Y-031416
X023277Y-030799
X023874Y-054957
X026576Y-061115
X029365Y-063080
X030862Y-063246
X031031Y-019459
X031975Y-052107
X032603Y-063674
X033108Y-045724
X033639Y-059715
X034134Y-044999
X035273Y-054538
X035569Y-035157
X035724Y-053338
X035786Y-041805
X035939Y-062302
X036081Y-068548
X036200Y-049204
X036252Y-058310
X037239Y-050549
X037923Y-061846
X038820Y-061045
X039680Y-056592
X040078Y-058152
X040552Y-059983
X041551Y-049939
X041828Y-051820
X043087Y-051078
X053143Y-062282
X053533Y-042738
X054607Y-050939
X059390Y-056174
X060833Y-056144
X074552Y-000943
X074552Y-112705
X074555Y-093144
T2
X001276Y-020628
X001276Y-021897
X001276Y-023168
X001276Y-024438
X001276Y-025708
X001276Y-026978
X001276Y-029517
X001276Y-030788
X001276Y-032058
X001276Y-033328
X001276Y-035867
X001276Y-037137
X001276Y-038407
T3
X002798Y-018088
X010417Y-018088
X029467Y-018088
X037088Y-018088
X048518Y-018088
X056138Y-018088
X061218Y-018088
X068838Y-018088
T4
X016000Y-003870
X018352Y-039997
X018352Y-042537
X018352Y-045077
X018352Y-047617
X018352Y-050157
X018352Y-052697
X020400Y-003870
T5
X007877Y-004118
X010417Y-004118
X026928Y-004118
X029467Y-004118
X045978Y-004118
X048518Y-004118
X065028Y-004118
X067568Y-004118
T6
X000006Y-094795
X003054Y-094795
X010674Y-094795
X014484Y-094795
X018294Y-094795
X022104Y-094795
X025914Y-094795
X036074Y-094795
X039884Y-094795
X043694Y-094795
X047504Y-094795
X051314Y-094795
X055124Y-094795
X058934Y-094795
X062744Y-094795
X071634Y-094795
X075444Y-094795
T7
X006608Y-014278
X006608Y-033328
X006608Y-052377
X006608Y-071427
X006608Y-090477
X006608Y-109530
X012958Y-011737
X012958Y-030788
X012958Y-049837
X012958Y-068887
X012958Y-087937
X012958Y-106990
X016133Y-090480
X016133Y-109530
X022483Y-087940
X022483Y-106990
X025658Y-014278
X025658Y-033328
X025658Y-052377
X025658Y-071427
X025658Y-090477
X025658Y-109530
X032008Y-011737
X032008Y-030788
X032008Y-049837
X032008Y-068887
X032008Y-087937
X032008Y-106990
X044708Y-014280
X044708Y-033328
X044708Y-052377
X044708Y-071427
X044708Y-090477
X044708Y-109530
X051058Y-011740
X051058Y-030788
X051058Y-049837
X051058Y-068887
X051058Y-087937
X051058Y-106990
X063758Y-014280
X063758Y-033330
X063758Y-052380
X063758Y-071430
X063758Y-090480
X063758Y-109530
X068838Y-033965
X068838Y-053015
X068838Y-072065
X068838Y-091115
X070108Y-011740
X070108Y-030790
X070108Y-049840
X070108Y-068890
X070108Y-087940
X070108Y-106990
X071378Y-040315
X071378Y-059365
X071378Y-078415
X071378Y-097465
T8
X004068Y-009198
X004068Y-028247
X004068Y-047297
X004068Y-066347
X004068Y-085397
X004068Y-104450
X013592Y-085400
X013592Y-104450
X014227Y-009198
X014227Y-028247
X014227Y-047297
X014227Y-066347
X014227Y-085397
X014227Y-104450
X023118Y-009198
X023118Y-028247
X023118Y-047297
X023118Y-066347
X023118Y-085397
X023118Y-104450
X023753Y-085400
X023753Y-104450
X033278Y-009198
X033278Y-028247
X033278Y-047297
X033278Y-066347
X033278Y-085397
X033278Y-104450
X042168Y-009200
X042168Y-028247
X042168Y-047297
X042168Y-066347
X042168Y-085397
X042168Y-104450
X052328Y-009200
X052328Y-028247
X052328Y-047297
X052328Y-066347
X052328Y-085397
X052328Y-104450
X061218Y-009200
X061218Y-028250
X061218Y-047300
X061218Y-066350
X061218Y-085400
X061218Y-104450
X066298Y-032695
X066298Y-042855
X066298Y-051745
X066298Y-061905
X066298Y-070795
X066298Y-080955
X066298Y-089845
X066298Y-100005
X071378Y-009200
X071378Y-028250
X071378Y-047300
X071378Y-066350
X071378Y-085400
X071378Y-104450
T9
X-000827Y-056501
X000697Y-056501
X002221Y-056501
X003745Y-056501
T10
X006735Y-092385
X006735Y-111435
X030610Y-092385
X030610Y-111435
X073283Y-025837
X073283Y-044887
X073283Y-049713
X073283Y-063937
X073283Y-068763
X073283Y-082987
X073283Y-087813
X073283Y-106863
T11
X006735Y-077145
X006735Y-096195
X009148Y-009198
X009148Y-028247
X009148Y-047297
X009148Y-066347
X009148Y-085397
X009148Y-104450
X018673Y-085400
X018673Y-104450
X028197Y-009198
X028197Y-028247
X028197Y-047297
X028197Y-066347
X028197Y-085397
X028197Y-104450
X030610Y-077145
X030610Y-096195
X047248Y-009200
X047248Y-028247
X047248Y-047297
X047248Y-066347
X047248Y-085397
X047248Y-104450
X058043Y-025837
X058043Y-044887
X058043Y-049713
X058043Y-063937
X058043Y-068763
X058043Y-082987
X058043Y-087813
X058043Y-106863
X066298Y-009200
X066298Y-028250
X066298Y-037775
X066298Y-047300
X066298Y-056825
X066298Y-066350
X066298Y-075875
X066298Y-085400
X066298Y-094925
X066298Y-104450
T9
X-000791Y-056501G85X003709Y-056501
G05
T0
M30
