G04 (created by PCBNEW (2013-02-13 BZR 3947)-testing) date 10/17/2013 1:35:15 PM*
%MOIN*%
G04 Gerber Fmt 3.4, Leading zero omitted, Abs format*
%FSLAX34Y34*%
G01*
G70*
G90*
G04 APERTURE LIST*
%ADD10C,0*%
%ADD11R,0.0393701X0.122047*%
%ADD12R,0.0453X0.0551*%
%ADD13C,0.016*%
%ADD14R,0.035X0.055*%
%ADD15R,0.055X0.035*%
%ADD16C,0.0708661*%
%ADD17C,0.0629921*%
%ADD18C,0.09*%
%ADD19C,0.157*%
%ADD20C,0.067*%
%ADD21O,0.075X0.085*%
%ADD22R,0.075X0.085*%
%ADD23C,0.12*%
%ADD24C,0.0393701*%
%ADD25R,0.0807X0.1575*%
%ADD26R,0.0807X0.1378*%
%ADD27O,0.0197008X0.0984252*%
%ADD28C,0.0354331*%
%ADD29O,0.06X0.042*%
%ADD30O,0.393701X0.19685*%
%ADD31C,0.0984252*%
%ADD32C,0.00787402*%
%ADD33C,0.02*%
%ADD34C,0.01*%
G04 APERTURE END LIST*
G54D10*
G54D11*
X15639Y-4623D03*
X14064Y-1119D03*
X15638Y-1119D03*
X14064Y-4623D03*
G54D12*
X22286Y-21689D03*
X22286Y-22555D03*
X22916Y-21689D03*
X22916Y-22555D03*
G54D13*
X15984Y-24103D02*
X16400Y-24519D01*
X15761Y-24326D02*
X16177Y-24742D01*
X15539Y-24549D02*
X15954Y-24965D01*
X15316Y-24772D02*
X15732Y-25187D01*
X15093Y-24994D02*
X15509Y-25410D01*
X14870Y-25217D02*
X15286Y-25633D01*
X16207Y-23881D02*
X16622Y-24297D01*
X16429Y-23658D02*
X16845Y-24074D01*
X16652Y-23435D02*
X17068Y-23851D01*
X16875Y-23213D02*
X17291Y-23628D01*
X17098Y-22990D02*
X17513Y-23406D01*
X12802Y-20921D02*
X13218Y-21337D01*
X12579Y-21144D02*
X12995Y-21560D01*
X12357Y-21367D02*
X12772Y-21783D01*
X12134Y-21590D02*
X12550Y-22005D01*
X11911Y-21812D02*
X12327Y-22228D01*
X11688Y-22035D02*
X12104Y-22451D01*
X13025Y-20699D02*
X13441Y-21115D01*
X13247Y-20476D02*
X13663Y-20892D01*
X13470Y-20253D02*
X13886Y-20669D01*
X13693Y-20031D02*
X14109Y-20446D01*
X13916Y-19808D02*
X14331Y-20224D01*
X12802Y-24519D02*
X13218Y-24103D01*
X15984Y-21337D02*
X16400Y-20921D01*
X12579Y-24297D02*
X12995Y-23881D01*
X15761Y-21115D02*
X16177Y-20699D01*
X15539Y-20892D02*
X15954Y-20476D01*
X12357Y-24074D02*
X12772Y-23658D01*
X12134Y-23851D02*
X12550Y-23435D01*
X15316Y-20669D02*
X15732Y-20253D01*
X15093Y-20446D02*
X15509Y-20031D01*
X11911Y-23628D02*
X12327Y-23213D01*
X11688Y-23406D02*
X12104Y-22990D01*
X14870Y-20224D02*
X15286Y-19808D01*
X16207Y-21560D02*
X16622Y-21144D01*
X13025Y-24742D02*
X13441Y-24326D01*
X13247Y-24965D02*
X13663Y-24549D01*
X16429Y-21783D02*
X16845Y-21367D01*
X16652Y-22005D02*
X17068Y-21590D01*
X13470Y-25187D02*
X13886Y-24772D01*
X13693Y-25410D02*
X14109Y-24994D01*
X16875Y-22228D02*
X17291Y-21812D01*
X17098Y-22451D02*
X17513Y-22035D01*
X13916Y-25633D02*
X14331Y-25217D01*
G54D14*
X6476Y-4621D03*
X7226Y-4621D03*
G54D15*
X23801Y-21647D03*
X23801Y-20897D03*
X23801Y-22647D03*
X23801Y-23397D03*
X8901Y-23145D03*
X8901Y-23895D03*
G54D14*
X11771Y-20434D03*
X11021Y-20434D03*
X22226Y-23472D03*
X22976Y-23472D03*
X20726Y-21722D03*
X21476Y-21722D03*
G54D15*
X7351Y-6746D03*
X7351Y-5996D03*
X8351Y-6746D03*
X8351Y-5996D03*
X7901Y-24695D03*
X7901Y-23945D03*
G54D14*
X20726Y-20772D03*
X21476Y-20772D03*
G54D15*
X7901Y-23095D03*
X7901Y-22345D03*
G54D14*
X14226Y-44122D03*
X13476Y-44122D03*
X4226Y-44122D03*
X4976Y-44122D03*
X28226Y-20872D03*
X28976Y-20872D03*
X28226Y-13372D03*
X28976Y-13372D03*
X28476Y-6121D03*
X27726Y-6121D03*
X20876Y-28620D03*
X20126Y-28620D03*
X20976Y-16120D03*
X20226Y-16120D03*
X20976Y-13621D03*
X20226Y-13621D03*
X20976Y-6121D03*
X20226Y-6121D03*
G54D16*
X7225Y-16746D03*
X7225Y-18746D03*
X7225Y-20746D03*
X7225Y-17746D03*
X7225Y-19746D03*
X7225Y-15746D03*
G54D17*
X1101Y-7121D03*
X4101Y-7121D03*
G54D18*
X2601Y-43122D03*
X5101Y-42122D03*
G54D19*
X3601Y-41122D03*
G54D20*
X5601Y-41122D03*
X1601Y-41122D03*
G54D18*
X17601Y-28120D03*
X20101Y-27120D03*
G54D19*
X18601Y-26120D03*
G54D20*
X20601Y-26120D03*
X16601Y-26120D03*
G54D18*
X17601Y-13121D03*
X20101Y-12121D03*
G54D19*
X18601Y-11121D03*
G54D20*
X20601Y-11121D03*
X16601Y-11121D03*
G54D18*
X25101Y-5622D03*
X27601Y-4622D03*
G54D19*
X26101Y-3622D03*
G54D20*
X28101Y-3622D03*
X24101Y-3622D03*
G54D18*
X17601Y-5622D03*
X20101Y-4622D03*
G54D19*
X18601Y-3622D03*
G54D20*
X20601Y-3622D03*
X16601Y-3622D03*
G54D18*
X17601Y-20620D03*
X20101Y-19620D03*
G54D19*
X18601Y-18620D03*
G54D20*
X20601Y-18620D03*
X16601Y-18620D03*
G54D18*
X10101Y-43122D03*
X12601Y-42122D03*
G54D19*
X11101Y-41122D03*
G54D20*
X13101Y-41122D03*
X9101Y-41122D03*
G54D21*
X26601Y-1621D03*
G54D22*
X25601Y-1621D03*
G54D21*
X4101Y-1621D03*
G54D22*
X3101Y-1621D03*
G54D14*
X13476Y-28620D03*
X12726Y-28620D03*
X28226Y-35872D03*
X28976Y-35872D03*
X28226Y-28372D03*
X28976Y-28372D03*
X20976Y-36120D03*
X20226Y-36120D03*
X14226Y-36372D03*
X13476Y-36372D03*
X5226Y-36122D03*
X4476Y-36122D03*
X5976Y-21120D03*
X5226Y-21120D03*
X5976Y-6121D03*
X5226Y-6121D03*
X13476Y-16120D03*
X12726Y-16120D03*
X13476Y-13621D03*
X12726Y-13621D03*
X5976Y-28620D03*
X5226Y-28620D03*
X5976Y-13621D03*
X5226Y-13621D03*
X13476Y-6121D03*
X12726Y-6121D03*
G54D18*
X2601Y-5621D03*
X5101Y-4621D03*
G54D19*
X3601Y-3621D03*
G54D20*
X5601Y-3621D03*
X1601Y-3621D03*
G54D18*
X2601Y-28120D03*
X5101Y-27120D03*
G54D19*
X3601Y-26120D03*
G54D20*
X5601Y-26120D03*
X1601Y-26120D03*
G54D18*
X10101Y-28120D03*
X12601Y-27120D03*
G54D19*
X11101Y-26120D03*
G54D20*
X13101Y-26120D03*
X9101Y-26120D03*
G54D18*
X10101Y-35620D03*
X12601Y-34620D03*
G54D19*
X11101Y-33620D03*
G54D20*
X13101Y-33620D03*
X9101Y-33620D03*
G54D18*
X17601Y-35620D03*
X20101Y-34620D03*
G54D19*
X18601Y-33620D03*
G54D20*
X20601Y-33620D03*
X16601Y-33620D03*
G54D18*
X2601Y-35620D03*
X5101Y-34620D03*
G54D19*
X3601Y-33620D03*
G54D20*
X5601Y-33620D03*
X1601Y-33620D03*
G54D18*
X10101Y-20620D03*
X12601Y-19620D03*
G54D19*
X11101Y-18620D03*
G54D20*
X13101Y-18620D03*
X9101Y-18620D03*
G54D18*
X2601Y-20620D03*
X5101Y-19620D03*
G54D19*
X3601Y-18620D03*
G54D20*
X5601Y-18620D03*
X1601Y-18620D03*
G54D18*
X10101Y-13121D03*
X12601Y-12121D03*
G54D19*
X11101Y-11121D03*
G54D20*
X13101Y-11121D03*
X9101Y-11121D03*
G54D18*
X25101Y-35622D03*
X27601Y-34622D03*
G54D19*
X26101Y-33622D03*
G54D20*
X28101Y-33622D03*
X24101Y-33622D03*
G54D18*
X25101Y-28122D03*
X27601Y-27122D03*
G54D19*
X26101Y-26122D03*
G54D20*
X28101Y-26122D03*
X24101Y-26122D03*
G54D18*
X2601Y-13121D03*
X5101Y-12121D03*
G54D19*
X3601Y-11121D03*
G54D20*
X5601Y-11121D03*
X1601Y-11121D03*
G54D18*
X10101Y-5621D03*
X12601Y-4621D03*
G54D19*
X11101Y-3621D03*
G54D20*
X13101Y-3621D03*
X9101Y-3621D03*
G54D17*
X24101Y-7121D03*
X27101Y-7121D03*
X14601Y-7121D03*
X11601Y-7121D03*
X22101Y-7121D03*
X19101Y-7121D03*
G54D21*
X11601Y-1621D03*
G54D22*
X10601Y-1621D03*
G54D21*
X19101Y-1621D03*
G54D22*
X18101Y-1621D03*
G54D14*
X20976Y-43622D03*
X20226Y-43622D03*
X28476Y-43622D03*
X27726Y-43622D03*
G54D18*
X6351Y-35622D03*
X8851Y-34622D03*
G54D19*
X7351Y-33622D03*
G54D20*
X9351Y-33622D03*
X5351Y-33622D03*
G54D23*
X12051Y-36372D03*
X2651Y-36372D03*
G54D19*
X12051Y-30372D03*
X2651Y-30372D03*
G54D18*
X28101Y-30872D03*
X27101Y-28372D03*
G54D19*
X26101Y-29872D03*
G54D20*
X26101Y-27872D03*
X26101Y-31872D03*
G54D23*
X28851Y-25172D03*
X28851Y-34572D03*
G54D19*
X22851Y-25172D03*
X22851Y-34572D03*
G54D18*
X28101Y-15872D03*
X27101Y-13372D03*
G54D19*
X26101Y-14872D03*
G54D20*
X26101Y-12872D03*
X26101Y-16872D03*
G54D23*
X28851Y-10172D03*
X28851Y-19572D03*
G54D19*
X22851Y-10172D03*
X22851Y-19572D03*
G54D18*
X17601Y-43122D03*
X20101Y-42122D03*
G54D19*
X18601Y-41122D03*
G54D20*
X20601Y-41122D03*
X16601Y-41122D03*
G54D18*
X25101Y-43122D03*
X27601Y-42122D03*
G54D19*
X26101Y-41122D03*
G54D20*
X28101Y-41122D03*
X24101Y-41122D03*
G54D18*
X25101Y-13122D03*
X27601Y-12122D03*
G54D19*
X26101Y-11122D03*
G54D20*
X28101Y-11122D03*
X24101Y-11122D03*
G54D18*
X25101Y-20622D03*
X27601Y-19622D03*
G54D19*
X26101Y-18622D03*
G54D20*
X28101Y-18622D03*
X24101Y-18622D03*
G54D18*
X6351Y-43122D03*
X8851Y-42122D03*
G54D19*
X7351Y-41122D03*
G54D20*
X9351Y-41122D03*
X5351Y-41122D03*
G54D23*
X12051Y-43872D03*
X2651Y-43872D03*
G54D19*
X12051Y-37872D03*
X2651Y-37872D03*
G54D18*
X28101Y-23372D03*
X27101Y-20872D03*
G54D19*
X26101Y-22372D03*
G54D20*
X26101Y-20372D03*
X26101Y-24372D03*
G54D23*
X28851Y-17672D03*
X28851Y-27072D03*
G54D19*
X22851Y-17672D03*
X22851Y-27072D03*
G54D18*
X28101Y-38372D03*
X27101Y-35872D03*
G54D19*
X26101Y-37372D03*
G54D20*
X26101Y-35372D03*
X26101Y-39372D03*
G54D23*
X28851Y-32672D03*
X28851Y-42072D03*
G54D19*
X22851Y-32672D03*
X22851Y-42072D03*
G54D24*
X352Y-36620D03*
X29351Y-371D03*
X29352Y-36670D03*
X351Y-322D03*
X29351Y-44372D03*
X351Y-44372D03*
G54D25*
X9104Y-775D03*
X5226Y-775D03*
G54D26*
X5226Y-2449D03*
X9104Y-2449D03*
G54D27*
X7165Y-2449D03*
X6850Y-2449D03*
X6535Y-2449D03*
X7480Y-2449D03*
X7795Y-2449D03*
G54D28*
X6299Y-1523D03*
X8031Y-1523D03*
G54D29*
X502Y-8121D03*
X502Y-8621D03*
X502Y-9121D03*
X502Y-9621D03*
X502Y-10121D03*
X502Y-10621D03*
X502Y-11621D03*
X502Y-12121D03*
X502Y-12621D03*
X502Y-13121D03*
G54D24*
X29702Y-37320D03*
X28202Y-37320D03*
X24702Y-37320D03*
X23202Y-37320D03*
X21702Y-37320D03*
X20202Y-37320D03*
G54D29*
X502Y-15120D03*
X502Y-14620D03*
X502Y-14120D03*
G54D24*
X18702Y-37320D03*
X17202Y-37320D03*
X15702Y-37320D03*
X14202Y-37320D03*
X10202Y-37320D03*
X8702Y-37320D03*
X7202Y-37320D03*
X5702Y-37320D03*
X4202Y-37320D03*
X1202Y-37320D03*
X2Y-37320D03*
G54D30*
X574Y-22244D03*
G54D31*
X-325Y-22244D03*
X274Y-22244D03*
X874Y-22244D03*
X1474Y-22244D03*
G54D24*
X15622Y-22280D03*
X15778Y-22894D03*
X15965Y-23615D03*
X14930Y-24348D03*
X8326Y-20095D03*
X8265Y-13807D03*
X2532Y-12305D03*
X11561Y-24834D03*
X14088Y-16458D03*
X14003Y-13841D03*
X15283Y-24033D03*
X5837Y-12197D03*
X14205Y-26987D03*
X21075Y-16826D03*
X20922Y-24520D03*
X3935Y-13974D03*
X5487Y-13014D03*
X6529Y-17305D03*
X14064Y-20999D03*
X13034Y-18001D03*
X16963Y-20109D03*
X2587Y-15999D03*
X2185Y-16456D03*
X16467Y-20401D03*
X14660Y-19901D03*
X1723Y-15310D03*
X10463Y-24060D03*
X9399Y-21636D03*
X12216Y-7660D03*
X2936Y-15009D03*
X9164Y-12125D03*
X12835Y-25068D03*
X8645Y-12368D03*
X12150Y-24900D03*
X23950Y-22103D03*
X16358Y-19660D03*
X13886Y-21471D03*
X14251Y-19371D03*
X23381Y-22115D03*
X21498Y-20054D03*
X13438Y-17716D03*
X12588Y-20514D03*
X4736Y-6115D03*
X13243Y-23509D03*
X14149Y-24528D03*
X14272Y-22956D03*
G54D32*
X16512Y-23170D02*
X16512Y-23295D01*
X15622Y-22280D02*
X16512Y-23170D01*
X16860Y-23643D02*
X16512Y-23295D01*
X16637Y-23866D02*
X16289Y-23518D01*
X16289Y-23405D02*
X15778Y-22894D01*
X16289Y-23518D02*
X16289Y-23405D01*
X16415Y-24089D02*
X16067Y-23741D01*
X15965Y-23639D02*
X15965Y-23615D01*
X16067Y-23741D02*
X15965Y-23639D01*
X11655Y-23439D02*
X11896Y-23198D01*
X7622Y-23439D02*
X11655Y-23439D01*
X7508Y-23324D02*
X7622Y-23439D01*
X7508Y-22861D02*
X7508Y-23324D01*
X7730Y-22639D02*
X7508Y-22861D01*
X8225Y-22639D02*
X7730Y-22639D01*
X8654Y-22209D02*
X8225Y-22639D01*
X8654Y-19484D02*
X8654Y-22209D01*
X7416Y-18246D02*
X8654Y-19484D01*
X7038Y-18246D02*
X7416Y-18246D01*
X6734Y-17943D02*
X7038Y-18246D01*
X6734Y-17557D02*
X6734Y-17943D01*
X7225Y-17067D02*
X6734Y-17557D01*
X7225Y-16746D02*
X7225Y-17067D01*
X15338Y-24348D02*
X15746Y-24757D01*
X14930Y-24348D02*
X15338Y-24348D01*
X5976Y-21120D02*
X6269Y-21120D01*
X4476Y-35925D02*
X4476Y-35728D01*
X4476Y-35925D02*
X4476Y-36122D01*
X4519Y-36558D02*
X4519Y-44122D01*
X4476Y-36515D02*
X4519Y-36558D01*
X4476Y-36122D02*
X4476Y-36515D01*
X5683Y-28914D02*
X5683Y-28620D01*
X4533Y-30064D02*
X5683Y-28914D01*
X4533Y-35672D02*
X4533Y-30064D01*
X4476Y-35728D02*
X4533Y-35672D01*
X4226Y-44122D02*
X4519Y-44122D01*
X5976Y-28620D02*
X5683Y-28620D01*
X6269Y-21027D02*
X6269Y-21120D01*
X7076Y-20220D02*
X6269Y-21027D01*
X8202Y-20220D02*
X7076Y-20220D01*
X8326Y-20095D02*
X8202Y-20220D01*
X8079Y-13621D02*
X8265Y-13807D01*
X5976Y-13621D02*
X8079Y-13621D01*
X5976Y-13621D02*
X5683Y-13621D01*
X5683Y-13804D02*
X5683Y-13621D01*
X5473Y-14014D02*
X5683Y-13804D01*
X4977Y-14014D02*
X5473Y-14014D01*
X3490Y-12527D02*
X4977Y-14014D01*
X3268Y-12305D02*
X3490Y-12527D01*
X2532Y-12305D02*
X3268Y-12305D01*
X5976Y-10041D02*
X5976Y-6121D01*
X3490Y-12527D02*
X5976Y-10041D01*
X7321Y-28620D02*
X5976Y-28620D01*
X11108Y-24834D02*
X7321Y-28620D01*
X11561Y-24834D02*
X11108Y-24834D01*
X13476Y-13621D02*
X13476Y-13227D01*
X13476Y-6121D02*
X13476Y-6514D01*
X13769Y-16139D02*
X14088Y-16458D01*
X13769Y-16120D02*
X13769Y-16139D01*
X13476Y-16120D02*
X13769Y-16120D01*
X13989Y-13841D02*
X13769Y-13621D01*
X14003Y-13841D02*
X13989Y-13841D01*
X13476Y-13621D02*
X13769Y-13621D01*
X15969Y-24534D02*
X15621Y-24186D01*
X15468Y-24033D02*
X15283Y-24033D01*
X15621Y-24186D02*
X15468Y-24033D01*
X13476Y-13227D02*
X13476Y-11574D01*
X12858Y-11574D02*
X13476Y-11574D01*
X12835Y-11551D02*
X12858Y-11574D01*
X12005Y-11551D02*
X12835Y-11551D01*
X11333Y-12223D02*
X12005Y-11551D01*
X9555Y-12223D02*
X11333Y-12223D01*
X9086Y-12692D02*
X9555Y-12223D01*
X6332Y-12692D02*
X9086Y-12692D01*
X5837Y-12197D02*
X6332Y-12692D01*
X13569Y-6607D02*
X13476Y-6514D01*
X13569Y-11481D02*
X13569Y-6607D01*
X13476Y-11574D02*
X13569Y-11481D01*
X14226Y-44122D02*
X13933Y-44122D01*
X13883Y-36421D02*
X13933Y-36372D01*
X13883Y-44072D02*
X13883Y-36421D01*
X13933Y-44122D02*
X13883Y-44072D01*
X14226Y-36372D02*
X13933Y-36372D01*
X13476Y-27716D02*
X14205Y-26987D01*
X13476Y-28620D02*
X13476Y-27716D01*
X17680Y-36372D02*
X14226Y-36372D01*
X18181Y-35871D02*
X17680Y-36372D01*
X18181Y-34728D02*
X18181Y-35871D01*
X17283Y-33829D02*
X18181Y-34728D01*
X17283Y-32134D02*
X17283Y-33829D01*
X13769Y-28620D02*
X17283Y-32134D01*
X13476Y-28620D02*
X13769Y-28620D01*
X20976Y-6121D02*
X20976Y-6514D01*
X14124Y-25425D02*
X13776Y-25773D01*
X21054Y-35649D02*
X20976Y-35727D01*
X21054Y-29192D02*
X21054Y-35649D01*
X20876Y-29014D02*
X21054Y-29192D01*
X20876Y-28620D02*
X20876Y-29014D01*
X20976Y-36120D02*
X20976Y-35727D01*
X21079Y-36616D02*
X20976Y-36514D01*
X21079Y-43126D02*
X21079Y-36616D01*
X20976Y-43228D02*
X21079Y-43126D01*
X20976Y-43622D02*
X20976Y-43228D01*
X20976Y-36120D02*
X20976Y-36514D01*
X20976Y-13621D02*
X20976Y-13227D01*
X20828Y-24520D02*
X20131Y-25217D01*
X20922Y-24520D02*
X20828Y-24520D01*
X20876Y-27092D02*
X20876Y-28620D01*
X20131Y-26347D02*
X20876Y-27092D01*
X20131Y-25217D02*
X20131Y-26347D01*
X20976Y-13621D02*
X20976Y-16120D01*
X21075Y-16613D02*
X21075Y-16826D01*
X20976Y-16514D02*
X21075Y-16613D01*
X20976Y-16120D02*
X20976Y-16514D01*
X20108Y-25194D02*
X20131Y-25217D01*
X16877Y-25194D02*
X20108Y-25194D01*
X16068Y-26003D02*
X16877Y-25194D01*
X14006Y-26003D02*
X16068Y-26003D01*
X13776Y-25773D02*
X14006Y-26003D01*
X20976Y-13227D02*
X20976Y-11574D01*
X21063Y-6601D02*
X20976Y-6514D01*
X21063Y-11487D02*
X21063Y-6601D01*
X20976Y-11574D02*
X21063Y-11487D01*
X20358Y-11574D02*
X20976Y-11574D01*
X20336Y-11551D02*
X20358Y-11574D01*
X19505Y-11551D02*
X20336Y-11551D01*
X18723Y-12333D02*
X19505Y-11551D01*
X17388Y-12333D02*
X18723Y-12333D01*
X15403Y-14319D02*
X17388Y-12333D01*
X12288Y-14319D02*
X15403Y-14319D01*
X10508Y-12539D02*
X12288Y-14319D01*
X9861Y-12539D02*
X10508Y-12539D01*
X8580Y-13820D02*
X9861Y-12539D01*
X8580Y-13937D02*
X8580Y-13820D01*
X8338Y-14179D02*
X8580Y-13937D01*
X4140Y-14179D02*
X8338Y-14179D01*
X3935Y-13974D02*
X4140Y-14179D01*
X28976Y-28372D02*
X29269Y-28372D01*
X29569Y-35572D02*
X29269Y-35872D01*
X29569Y-28672D02*
X29569Y-35572D01*
X29269Y-28372D02*
X29569Y-28672D01*
X29579Y-28062D02*
X29269Y-28372D01*
X29579Y-21181D02*
X29579Y-28062D01*
X29269Y-20872D02*
X29579Y-21181D01*
X28976Y-20872D02*
X29269Y-20872D01*
X28976Y-20872D02*
X28683Y-20872D01*
X29046Y-35872D02*
X29269Y-35872D01*
X29046Y-35872D02*
X29037Y-35872D01*
X28976Y-35872D02*
X29037Y-35872D01*
X29579Y-42812D02*
X28769Y-43622D01*
X29579Y-39677D02*
X29579Y-42812D01*
X29037Y-39135D02*
X29579Y-39677D01*
X29037Y-35872D02*
X29037Y-39135D01*
X28476Y-43622D02*
X28769Y-43622D01*
X28476Y-6121D02*
X28183Y-6121D01*
X27880Y-10238D02*
X27880Y-6606D01*
X28976Y-11334D02*
X27880Y-10238D01*
X28976Y-13372D02*
X28976Y-11334D01*
X28183Y-6303D02*
X28183Y-6121D01*
X27880Y-6606D02*
X28183Y-6303D01*
X9066Y-13014D02*
X5487Y-13014D01*
X9698Y-12381D02*
X9066Y-13014D01*
X10634Y-12381D02*
X9698Y-12381D01*
X12409Y-14156D02*
X10634Y-12381D01*
X14134Y-14156D02*
X12409Y-14156D01*
X16102Y-12188D02*
X14134Y-14156D01*
X16102Y-10975D02*
X16102Y-12188D01*
X20519Y-6557D02*
X16102Y-10975D01*
X20519Y-5935D02*
X20519Y-6557D01*
X20727Y-5727D02*
X20519Y-5935D01*
X21466Y-5727D02*
X20727Y-5727D01*
X22345Y-6606D02*
X21466Y-5727D01*
X27880Y-6606D02*
X22345Y-6606D01*
X18725Y-20378D02*
X17083Y-22020D01*
X21783Y-20378D02*
X18725Y-20378D01*
X21886Y-20481D02*
X21783Y-20378D01*
X23965Y-20481D02*
X21886Y-20481D01*
X24586Y-19860D02*
X23965Y-20481D01*
X27017Y-19860D02*
X24586Y-19860D01*
X27017Y-17902D02*
X27017Y-19860D01*
X28976Y-15943D02*
X27017Y-17902D01*
X28976Y-13372D02*
X28976Y-15943D01*
X28683Y-20688D02*
X28683Y-20872D01*
X28360Y-20366D02*
X28683Y-20688D01*
X27522Y-20366D02*
X28360Y-20366D01*
X27017Y-19860D02*
X27522Y-20366D01*
X12119Y-23420D02*
X11771Y-23769D01*
X6529Y-19051D02*
X6978Y-19500D01*
X6529Y-17305D02*
X6529Y-19051D01*
X6978Y-19500D02*
X7225Y-19746D01*
X11602Y-23599D02*
X11771Y-23769D01*
X7532Y-23599D02*
X11602Y-23599D01*
X5683Y-21750D02*
X7532Y-23599D01*
X5683Y-20796D02*
X5683Y-21750D01*
X6978Y-19500D02*
X5683Y-20796D01*
X17936Y-5622D02*
X17601Y-5622D01*
X19505Y-4053D02*
X17936Y-5622D01*
X20336Y-4053D02*
X19505Y-4053D01*
X21905Y-5622D02*
X20336Y-4053D01*
X25101Y-5622D02*
X21905Y-5622D01*
X13233Y-20907D02*
X13581Y-21255D01*
X13837Y-20999D02*
X14064Y-20999D01*
X13581Y-21255D02*
X13837Y-20999D01*
X28101Y-15558D02*
X28101Y-15872D01*
X25788Y-13245D02*
X28101Y-15558D01*
X25101Y-13245D02*
X25788Y-13245D01*
X21206Y-17141D02*
X25101Y-13245D01*
X20910Y-17141D02*
X21206Y-17141D01*
X20649Y-16880D02*
X20910Y-17141D01*
X20649Y-15926D02*
X20649Y-16880D01*
X17844Y-13121D02*
X20649Y-15926D01*
X17601Y-13121D02*
X17844Y-13121D01*
X25101Y-13245D02*
X25101Y-13122D01*
X8883Y-14338D02*
X10101Y-13121D01*
X3819Y-14338D02*
X8883Y-14338D01*
X2601Y-13121D02*
X3819Y-14338D01*
X13455Y-20684D02*
X13107Y-20336D01*
X13172Y-20271D02*
X13107Y-20336D01*
X13172Y-19354D02*
X13172Y-20271D01*
X12640Y-18822D02*
X13172Y-19354D01*
X12640Y-17584D02*
X12640Y-18822D01*
X13025Y-17200D02*
X12640Y-17584D01*
X13025Y-14480D02*
X13025Y-17200D01*
X11461Y-14480D02*
X13025Y-14480D01*
X10101Y-13121D02*
X11461Y-14480D01*
X16241Y-14480D02*
X17601Y-13121D01*
X13025Y-14480D02*
X16241Y-14480D01*
X13678Y-20461D02*
X13330Y-20113D01*
X502Y-9121D02*
X920Y-9121D01*
X2601Y-16586D02*
X2601Y-20620D01*
X2941Y-16246D02*
X2601Y-16586D01*
X10101Y-20269D02*
X10101Y-20620D01*
X7739Y-17907D02*
X10101Y-20269D01*
X7739Y-16570D02*
X7739Y-17907D01*
X7416Y-16246D02*
X7739Y-16570D01*
X2941Y-16246D02*
X7416Y-16246D01*
X2227Y-10428D02*
X920Y-9121D01*
X2227Y-11680D02*
X2227Y-10428D01*
X1750Y-12157D02*
X2227Y-11680D01*
X1750Y-14274D02*
X1750Y-12157D01*
X2941Y-15464D02*
X1750Y-14274D01*
X2941Y-16246D02*
X2941Y-15464D01*
X13129Y-18001D02*
X13034Y-18001D01*
X14151Y-19023D02*
X13129Y-18001D01*
X13330Y-19844D02*
X14151Y-19023D01*
X13330Y-20113D02*
X13330Y-19844D01*
X17601Y-20276D02*
X17601Y-20620D01*
X17119Y-19794D02*
X17601Y-20276D01*
X17008Y-19794D02*
X17119Y-19794D01*
X16559Y-19345D02*
X17008Y-19794D01*
X16454Y-19345D02*
X16559Y-19345D01*
X16375Y-19266D02*
X16454Y-19345D01*
X16367Y-19266D02*
X16375Y-19266D01*
X16210Y-19109D02*
X16367Y-19266D01*
X14535Y-19109D02*
X16210Y-19109D01*
X14449Y-19023D02*
X14535Y-19109D01*
X14151Y-19023D02*
X14449Y-19023D01*
X25644Y-28122D02*
X25101Y-28122D01*
X28101Y-30578D02*
X25644Y-28122D01*
X28101Y-30872D02*
X28101Y-30578D01*
X13901Y-20238D02*
X13553Y-19890D01*
X502Y-9621D02*
X920Y-9621D01*
X2070Y-10770D02*
X920Y-9621D01*
X2070Y-11615D02*
X2070Y-10770D01*
X1584Y-12100D02*
X2070Y-11615D01*
X1584Y-14444D02*
X1584Y-12100D01*
X2587Y-15447D02*
X1584Y-14444D01*
X2587Y-15999D02*
X2587Y-15447D01*
X10436Y-28120D02*
X10101Y-28120D01*
X12027Y-26529D02*
X10436Y-28120D01*
X12813Y-26529D02*
X12027Y-26529D01*
X12956Y-26672D02*
X12813Y-26529D01*
X16153Y-26672D02*
X12956Y-26672D01*
X17601Y-28120D02*
X16153Y-26672D01*
X13855Y-19588D02*
X13553Y-19890D01*
X14022Y-19588D02*
X13855Y-19588D01*
X14121Y-19686D02*
X14022Y-19588D01*
X14382Y-19686D02*
X14121Y-19686D01*
X14483Y-19585D02*
X14382Y-19686D01*
X15838Y-19585D02*
X14483Y-19585D01*
X16338Y-20086D02*
X15838Y-19585D01*
X16940Y-20086D02*
X16338Y-20086D01*
X16963Y-20109D02*
X16940Y-20086D01*
X28101Y-38083D02*
X28101Y-38372D01*
X25639Y-35622D02*
X28101Y-38083D01*
X25101Y-35622D02*
X25639Y-35622D01*
X2185Y-15269D02*
X2185Y-16456D01*
X1078Y-14161D02*
X2185Y-15269D01*
X1078Y-10278D02*
X1078Y-14161D01*
X920Y-10121D02*
X1078Y-10278D01*
X502Y-10121D02*
X920Y-10121D01*
X10100Y-35622D02*
X10101Y-35620D01*
X6351Y-35622D02*
X10100Y-35622D01*
X14405Y-35620D02*
X17601Y-35620D01*
X12813Y-34029D02*
X14405Y-35620D01*
X12027Y-34029D02*
X12813Y-34029D01*
X10436Y-35620D02*
X12027Y-34029D01*
X10101Y-35620D02*
X10436Y-35620D01*
X16160Y-20401D02*
X15872Y-20113D01*
X16467Y-20401D02*
X16160Y-20401D01*
X15524Y-20461D02*
X15872Y-20113D01*
X6351Y-43122D02*
X10101Y-43122D01*
X14239Y-19901D02*
X14660Y-19901D01*
X14124Y-20016D02*
X14239Y-19901D01*
X920Y-14507D02*
X1723Y-15310D01*
X920Y-11367D02*
X920Y-14507D01*
X502Y-10949D02*
X920Y-11367D01*
X502Y-10621D02*
X502Y-10949D01*
X11924Y-24060D02*
X12342Y-23643D01*
X10463Y-24060D02*
X11924Y-24060D01*
X7901Y-21423D02*
X7901Y-22345D01*
X7225Y-20746D02*
X7901Y-21423D01*
X12119Y-22020D02*
X11771Y-21672D01*
X9435Y-21672D02*
X9399Y-21636D01*
X11771Y-21672D02*
X9435Y-21672D01*
X13623Y-5351D02*
X14064Y-5351D01*
X13169Y-5805D02*
X13623Y-5351D01*
X13169Y-6708D02*
X13169Y-5805D01*
X12216Y-7660D02*
X13169Y-6708D01*
X14064Y-4623D02*
X14064Y-5351D01*
G54D33*
X22624Y-20897D02*
X22286Y-21234D01*
X23801Y-20897D02*
X22624Y-20897D01*
X22286Y-21689D02*
X22286Y-21234D01*
X13233Y-24534D02*
X13624Y-24143D01*
X15301Y-25202D02*
X15692Y-25593D01*
X17083Y-23420D02*
X17474Y-23811D01*
X22286Y-21689D02*
X21881Y-21689D01*
X21830Y-20778D02*
X22286Y-21234D01*
X21830Y-20772D02*
X21830Y-20778D01*
X21476Y-20772D02*
X21830Y-20772D01*
X17348Y-23937D02*
X17474Y-23937D01*
X15692Y-25593D02*
X17348Y-23937D01*
X17474Y-23937D02*
X17474Y-23811D01*
X23330Y-23414D02*
X23347Y-23397D01*
X23330Y-23472D02*
X23330Y-23414D01*
X23801Y-23397D02*
X23347Y-23397D01*
X22976Y-23472D02*
X23330Y-23472D01*
X22976Y-23472D02*
X22622Y-23472D01*
X21881Y-21689D02*
X21758Y-21812D01*
X21566Y-21812D02*
X21476Y-21722D01*
X21758Y-21812D02*
X21566Y-21812D01*
X22916Y-22555D02*
X22916Y-23009D01*
X22241Y-24165D02*
X21879Y-24165D01*
X22622Y-23784D02*
X22241Y-24165D01*
X22622Y-23472D02*
X22622Y-23784D01*
X21652Y-23937D02*
X21879Y-24165D01*
X17474Y-23937D02*
X21652Y-23937D01*
X27771Y-44372D02*
X29351Y-44372D01*
X24615Y-41215D02*
X27771Y-44372D01*
X24615Y-39265D02*
X24615Y-41215D01*
X21879Y-36529D02*
X24615Y-39265D01*
X21879Y-24165D02*
X21879Y-36529D01*
X22775Y-23009D02*
X22916Y-23009D01*
X22622Y-23162D02*
X22775Y-23009D01*
X22469Y-23009D02*
X22622Y-23162D01*
X21963Y-23009D02*
X22469Y-23009D01*
X21758Y-22803D02*
X21963Y-23009D01*
X21758Y-21812D02*
X21758Y-22803D01*
X22622Y-23162D02*
X22622Y-23472D01*
X15301Y-25202D02*
X14910Y-24811D01*
X8397Y-23945D02*
X8447Y-23895D01*
X7901Y-23945D02*
X8397Y-23945D01*
X8901Y-23895D02*
X8447Y-23895D01*
X502Y-15120D02*
X502Y-15509D01*
X352Y-25286D02*
X3045Y-22593D01*
X352Y-36620D02*
X352Y-25286D01*
X2118Y-17126D02*
X502Y-15509D01*
X2118Y-18895D02*
X2118Y-17126D01*
X1964Y-19049D02*
X2118Y-18895D01*
X1964Y-20985D02*
X1964Y-19049D01*
X3045Y-22066D02*
X1964Y-20985D01*
X3045Y-22593D02*
X3045Y-22066D01*
X15639Y-4623D02*
X15639Y-3833D01*
X7795Y-2449D02*
X7795Y-3120D01*
X4398Y-23945D02*
X7901Y-23945D01*
X3045Y-22593D02*
X4398Y-23945D01*
X16929Y-2543D02*
X15639Y-3833D01*
X27178Y-2543D02*
X16929Y-2543D01*
X29351Y-371D02*
X27178Y-2543D01*
X2936Y-15009D02*
X3102Y-14843D01*
X7226Y-4621D02*
X6872Y-4621D01*
X1969Y-13710D02*
X3102Y-14843D01*
X1969Y-12292D02*
X1969Y-13710D01*
X2624Y-11637D02*
X1969Y-12292D01*
X2624Y-10679D02*
X2624Y-11637D01*
X5580Y-7723D02*
X2624Y-10679D01*
X5580Y-5661D02*
X5580Y-7723D01*
X4253Y-5661D02*
X5580Y-5661D01*
X2454Y-3862D02*
X4253Y-5661D01*
X2454Y-2425D02*
X2454Y-3862D01*
X351Y-322D02*
X2454Y-2425D01*
X5580Y-5661D02*
X6411Y-5661D01*
X6872Y-5200D02*
X6872Y-4621D01*
X6411Y-5661D02*
X6872Y-5200D01*
X6411Y-5762D02*
X6411Y-5661D01*
X6999Y-6349D02*
X6411Y-5762D01*
X8711Y-6349D02*
X6999Y-6349D01*
X9002Y-6059D02*
X8711Y-6349D01*
X9002Y-4587D02*
X9002Y-6059D01*
X11506Y-4587D02*
X9002Y-4587D01*
X12534Y-3559D02*
X11506Y-4587D01*
X12534Y-3448D02*
X12534Y-3559D01*
X12877Y-3105D02*
X12534Y-3448D01*
X14910Y-3105D02*
X12877Y-3105D01*
X15639Y-3833D02*
X14910Y-3105D01*
X7795Y-3380D02*
X7795Y-3120D01*
X9002Y-4587D02*
X7795Y-3380D01*
X6321Y-14843D02*
X7225Y-15746D01*
X3102Y-14843D02*
X6321Y-14843D01*
X11021Y-20434D02*
X11021Y-19980D01*
X9615Y-18574D02*
X11021Y-19980D01*
X9615Y-18136D02*
X9615Y-18574D01*
X7225Y-15746D02*
X9615Y-18136D01*
X12131Y-21142D02*
X12564Y-21575D01*
X12131Y-20087D02*
X12131Y-21142D01*
X12024Y-19980D02*
X12131Y-20087D01*
X11021Y-19980D02*
X12024Y-19980D01*
X14862Y-24811D02*
X14910Y-24811D01*
X14524Y-24474D02*
X14862Y-24811D01*
X14524Y-24367D02*
X14524Y-24474D01*
X14300Y-24143D02*
X14524Y-24367D01*
X13624Y-24143D02*
X14300Y-24143D01*
X12564Y-21575D02*
X12955Y-21966D01*
X15078Y-20016D02*
X14687Y-20407D01*
X14687Y-21215D02*
X13446Y-22456D01*
X14687Y-20407D02*
X14687Y-21215D01*
X12955Y-21966D02*
X13446Y-22456D01*
X13624Y-22634D02*
X13624Y-24143D01*
X13446Y-22456D02*
X13624Y-22634D01*
G54D32*
X13070Y-25068D02*
X12835Y-25068D01*
X13107Y-25105D02*
X13070Y-25068D01*
X8351Y-11312D02*
X9164Y-12125D01*
X8351Y-6746D02*
X8351Y-11312D01*
X13455Y-24757D02*
X13107Y-25105D01*
X13678Y-24980D02*
X13330Y-25328D01*
X7351Y-6746D02*
X7351Y-7039D01*
X7351Y-11074D02*
X8645Y-12368D01*
X7351Y-7039D02*
X7351Y-11074D01*
X13267Y-25391D02*
X13330Y-25328D01*
X12641Y-25391D02*
X13267Y-25391D01*
X12150Y-24900D02*
X12641Y-25391D01*
X12787Y-21352D02*
X13135Y-21700D01*
X13364Y-21471D02*
X13886Y-21471D01*
X13135Y-21700D02*
X13364Y-21471D01*
X22916Y-21689D02*
X23261Y-21689D01*
X23801Y-21689D02*
X23261Y-21689D01*
X23801Y-21647D02*
X23801Y-21689D01*
X23801Y-21955D02*
X23950Y-22103D01*
X23801Y-21689D02*
X23801Y-21955D01*
X16069Y-19371D02*
X16358Y-19660D01*
X14251Y-19371D02*
X16069Y-19371D01*
X7901Y-24695D02*
X8294Y-24695D01*
X13010Y-24311D02*
X12662Y-24659D01*
X8471Y-24519D02*
X8294Y-24695D01*
X12521Y-24519D02*
X8471Y-24519D01*
X12662Y-24659D02*
X12521Y-24519D01*
X22286Y-22555D02*
X22286Y-22161D01*
X23801Y-22647D02*
X23801Y-22500D01*
X12588Y-20707D02*
X13010Y-21129D01*
X12588Y-20514D02*
X12588Y-20707D01*
X21353Y-20200D02*
X21498Y-20054D01*
X18270Y-20200D02*
X21353Y-20200D01*
X17258Y-19188D02*
X18270Y-20200D01*
X16520Y-19188D02*
X17258Y-19188D01*
X15047Y-17716D02*
X16520Y-19188D01*
X13438Y-17716D02*
X15047Y-17716D01*
X23381Y-22161D02*
X23381Y-22115D01*
X22286Y-22161D02*
X23381Y-22161D01*
X23462Y-22161D02*
X23801Y-22500D01*
X23381Y-22161D02*
X23462Y-22161D01*
X6850Y-2449D02*
X6850Y-3059D01*
X7351Y-5996D02*
X7351Y-5702D01*
X7519Y-5534D02*
X7351Y-5702D01*
X7519Y-3728D02*
X7519Y-5534D01*
X6850Y-3059D02*
X7519Y-3728D01*
X8351Y-4245D02*
X8351Y-5702D01*
X7165Y-3059D02*
X8351Y-4245D01*
X7165Y-2449D02*
X7165Y-3059D01*
X8351Y-5996D02*
X8351Y-5702D01*
X19309Y-21895D02*
X17654Y-21895D01*
X20433Y-20772D02*
X19309Y-21895D01*
X20726Y-20772D02*
X20433Y-20772D01*
X17306Y-22243D02*
X17654Y-21895D01*
X20226Y-42247D02*
X20226Y-43622D01*
X20101Y-42122D02*
X20226Y-42247D01*
X27601Y-43103D02*
X27726Y-43228D01*
X27601Y-42122D02*
X27601Y-43103D01*
X27726Y-43622D02*
X27726Y-43228D01*
X13476Y-42997D02*
X13476Y-44122D01*
X12601Y-42122D02*
X13476Y-42997D01*
X20226Y-34745D02*
X20226Y-36120D01*
X20101Y-34620D02*
X20226Y-34745D01*
X13476Y-35495D02*
X13476Y-36372D01*
X12601Y-34620D02*
X13476Y-35495D01*
X5101Y-28102D02*
X5226Y-28227D01*
X5101Y-27120D02*
X5101Y-28102D01*
X5226Y-28620D02*
X5226Y-28227D01*
X27101Y-20872D02*
X28226Y-20872D01*
X8851Y-42122D02*
X5101Y-42122D01*
X5101Y-43603D02*
X4976Y-43728D01*
X5101Y-42122D02*
X5101Y-43603D01*
X4976Y-44122D02*
X4976Y-43728D01*
X27601Y-35872D02*
X27601Y-34622D01*
X27101Y-35872D02*
X27601Y-35872D01*
X27601Y-35872D02*
X28226Y-35872D01*
X27601Y-28372D02*
X27601Y-27122D01*
X27101Y-28372D02*
X27601Y-28372D01*
X27601Y-28372D02*
X28226Y-28372D01*
X5226Y-34622D02*
X5226Y-36122D01*
X8851Y-34622D02*
X5226Y-34622D01*
X5102Y-34622D02*
X5101Y-34620D01*
X5226Y-34622D02*
X5102Y-34622D01*
X27601Y-13372D02*
X27601Y-12122D01*
X27101Y-13372D02*
X27601Y-13372D01*
X27601Y-13372D02*
X28226Y-13372D01*
X20226Y-12246D02*
X20226Y-13621D01*
X20101Y-12121D02*
X20226Y-12246D01*
X12601Y-13102D02*
X12726Y-13227D01*
X12601Y-12121D02*
X12601Y-13102D01*
X12726Y-13621D02*
X12726Y-13227D01*
X5101Y-13102D02*
X5226Y-13227D01*
X5101Y-12121D02*
X5101Y-13102D01*
X5226Y-13621D02*
X5226Y-13227D01*
X5101Y-20602D02*
X5226Y-20727D01*
X5101Y-19620D02*
X5101Y-20602D01*
X5226Y-21120D02*
X5226Y-20727D01*
X27726Y-4747D02*
X27726Y-6121D01*
X27601Y-4622D02*
X27726Y-4747D01*
X20226Y-4747D02*
X20226Y-6121D01*
X20101Y-4622D02*
X20226Y-4747D01*
X12726Y-6121D02*
X12726Y-5727D01*
X12601Y-5602D02*
X12726Y-5727D01*
X12601Y-4621D02*
X12601Y-5602D01*
X20101Y-28202D02*
X20126Y-28227D01*
X20101Y-27120D02*
X20101Y-28202D01*
X20126Y-28620D02*
X20126Y-28227D01*
X5226Y-6121D02*
X4933Y-6121D01*
X4927Y-6115D02*
X4736Y-6115D01*
X4933Y-6121D02*
X4927Y-6115D01*
X12601Y-28102D02*
X12726Y-28227D01*
X12601Y-27120D02*
X12601Y-28102D01*
X12726Y-28620D02*
X12726Y-28227D01*
X20101Y-16639D02*
X20226Y-16514D01*
X20101Y-19620D02*
X20101Y-16639D01*
X20226Y-16120D02*
X20226Y-16514D01*
X12726Y-16120D02*
X12726Y-16514D01*
X12463Y-19482D02*
X12601Y-19620D01*
X12463Y-16777D02*
X12463Y-19482D01*
X12726Y-16514D02*
X12463Y-16777D01*
G54D33*
X6535Y-2449D02*
X6535Y-3120D01*
X25601Y-1621D02*
X25047Y-1621D01*
X20726Y-21722D02*
X20726Y-22175D01*
X22226Y-23472D02*
X21872Y-23472D01*
X13901Y-25202D02*
X14292Y-24811D01*
X14515Y-25034D02*
X14687Y-25034D01*
X14292Y-24811D02*
X14515Y-25034D01*
X6476Y-3179D02*
X6535Y-3120D01*
X6476Y-4621D02*
X6476Y-3179D01*
X4572Y-3092D02*
X3101Y-1621D01*
X4572Y-4060D02*
X4572Y-3092D01*
X4453Y-4179D02*
X4572Y-4060D01*
X4453Y-4862D02*
X4453Y-4179D01*
X4842Y-5251D02*
X4453Y-4862D01*
X5491Y-5251D02*
X4842Y-5251D01*
X6122Y-4621D02*
X5491Y-5251D01*
X6476Y-4621D02*
X6122Y-4621D01*
X15078Y-25425D02*
X14687Y-25034D01*
X20726Y-22774D02*
X20726Y-22175D01*
X21175Y-22774D02*
X20726Y-22774D01*
X21872Y-23472D02*
X21175Y-22774D01*
X18511Y-22774D02*
X17697Y-23589D01*
X20726Y-22774D02*
X18511Y-22774D01*
X12342Y-21798D02*
X11951Y-21407D01*
X12787Y-24089D02*
X13178Y-23698D01*
X13178Y-23574D02*
X13243Y-23509D01*
X13178Y-23698D02*
X13178Y-23574D01*
X14292Y-24671D02*
X14149Y-24528D01*
X14292Y-24811D02*
X14292Y-24671D01*
X8397Y-23095D02*
X8447Y-23145D01*
X7901Y-23095D02*
X8397Y-23095D01*
X8901Y-23145D02*
X8447Y-23145D01*
X8901Y-23145D02*
X8901Y-22792D01*
X18718Y-2238D02*
X18101Y-1621D01*
X24430Y-2238D02*
X18718Y-2238D01*
X25047Y-1621D02*
X24430Y-2238D01*
X8901Y-19423D02*
X8901Y-21250D01*
X7225Y-17746D02*
X8901Y-19423D01*
X8901Y-22792D02*
X8901Y-21250D01*
X8901Y-21250D02*
X11771Y-21250D01*
X11794Y-21250D02*
X11771Y-21250D01*
X11951Y-21407D02*
X11794Y-21250D01*
X11771Y-21250D02*
X11771Y-20434D01*
X13243Y-22699D02*
X13243Y-23509D01*
X12342Y-21798D02*
X13243Y-22699D01*
X17306Y-23198D02*
X17697Y-23589D01*
X17306Y-23198D02*
X16915Y-22807D01*
X15050Y-20490D02*
X15301Y-20238D01*
X15050Y-21899D02*
X15050Y-20490D01*
X15050Y-22178D02*
X15050Y-21899D01*
X14272Y-22956D02*
X15050Y-22178D01*
X16007Y-21899D02*
X16915Y-22807D01*
X15050Y-21899D02*
X16007Y-21899D01*
X16943Y-2224D02*
X17547Y-1621D01*
X11205Y-2224D02*
X16943Y-2224D01*
X10601Y-1621D02*
X11205Y-2224D01*
X18101Y-1621D02*
X17547Y-1621D01*
G54D10*
G36*
X2312Y-19983D02*
X2205Y-20027D01*
X2186Y-20045D01*
X2186Y-18505D01*
X2097Y-18289D01*
X1933Y-18125D01*
X1718Y-18035D01*
X1485Y-18035D01*
X1270Y-18124D01*
X1105Y-18289D01*
X1036Y-18456D01*
X1036Y-15241D01*
X986Y-15170D01*
X552Y-15170D01*
X552Y-15520D01*
X625Y-15583D01*
X799Y-15535D01*
X942Y-15424D01*
X1032Y-15267D01*
X1036Y-15241D01*
X1036Y-18456D01*
X1016Y-18503D01*
X1016Y-18736D01*
X1105Y-18951D01*
X1269Y-19116D01*
X1484Y-19205D01*
X1717Y-19205D01*
X1932Y-19117D01*
X2097Y-18952D01*
X2186Y-18737D01*
X2186Y-18505D01*
X2186Y-20045D01*
X2008Y-20223D01*
X1901Y-20481D01*
X1901Y-20759D01*
X2007Y-21016D01*
X2135Y-21145D01*
X2074Y-21104D01*
X1602Y-21010D01*
X270Y-21010D01*
X270Y-15553D01*
X379Y-15583D01*
X452Y-15520D01*
X452Y-15170D01*
X444Y-15170D01*
X444Y-15080D01*
X603Y-15080D01*
X653Y-15070D01*
X986Y-15070D01*
X1022Y-15019D01*
X1276Y-15272D01*
X1276Y-15398D01*
X1344Y-15562D01*
X1469Y-15688D01*
X1633Y-15756D01*
X1811Y-15757D01*
X1896Y-15722D01*
X1896Y-16113D01*
X1807Y-16202D01*
X1738Y-16366D01*
X1738Y-16544D01*
X1806Y-16708D01*
X1932Y-16834D01*
X2096Y-16902D01*
X2274Y-16902D01*
X2312Y-16887D01*
X2312Y-19983D01*
X2312Y-19983D01*
G37*
G54D34*
X2312Y-19983D02*
X2205Y-20027D01*
X2186Y-20045D01*
X2186Y-18505D01*
X2097Y-18289D01*
X1933Y-18125D01*
X1718Y-18035D01*
X1485Y-18035D01*
X1270Y-18124D01*
X1105Y-18289D01*
X1036Y-18456D01*
X1036Y-15241D01*
X986Y-15170D01*
X552Y-15170D01*
X552Y-15520D01*
X625Y-15583D01*
X799Y-15535D01*
X942Y-15424D01*
X1032Y-15267D01*
X1036Y-15241D01*
X1036Y-18456D01*
X1016Y-18503D01*
X1016Y-18736D01*
X1105Y-18951D01*
X1269Y-19116D01*
X1484Y-19205D01*
X1717Y-19205D01*
X1932Y-19117D01*
X2097Y-18952D01*
X2186Y-18737D01*
X2186Y-18505D01*
X2186Y-20045D01*
X2008Y-20223D01*
X1901Y-20481D01*
X1901Y-20759D01*
X2007Y-21016D01*
X2135Y-21145D01*
X2074Y-21104D01*
X1602Y-21010D01*
X270Y-21010D01*
X270Y-15553D01*
X379Y-15583D01*
X452Y-15520D01*
X452Y-15170D01*
X444Y-15170D01*
X444Y-15080D01*
X603Y-15080D01*
X653Y-15070D01*
X986Y-15070D01*
X1022Y-15019D01*
X1276Y-15272D01*
X1276Y-15398D01*
X1344Y-15562D01*
X1469Y-15688D01*
X1633Y-15756D01*
X1811Y-15757D01*
X1896Y-15722D01*
X1896Y-16113D01*
X1807Y-16202D01*
X1738Y-16366D01*
X1738Y-16544D01*
X1806Y-16708D01*
X1932Y-16834D01*
X2096Y-16902D01*
X2274Y-16902D01*
X2312Y-16887D01*
X2312Y-19983D01*
G54D10*
G36*
X5687Y-9921D02*
X4666Y-10942D01*
X4666Y-7009D01*
X4580Y-6801D01*
X4421Y-6642D01*
X4214Y-6556D01*
X3989Y-6556D01*
X3781Y-6641D01*
X3622Y-6800D01*
X3536Y-7008D01*
X3536Y-7232D01*
X3622Y-7440D01*
X3780Y-7599D01*
X3988Y-7685D01*
X4213Y-7686D01*
X4420Y-7600D01*
X4580Y-7441D01*
X4666Y-7233D01*
X4666Y-7009D01*
X4666Y-10942D01*
X4636Y-10972D01*
X4636Y-10916D01*
X4479Y-10535D01*
X4188Y-10244D01*
X3808Y-10086D01*
X3396Y-10085D01*
X3301Y-10125D01*
X3301Y-5482D01*
X3195Y-5225D01*
X2998Y-5027D01*
X2741Y-4921D01*
X2462Y-4920D01*
X2205Y-5027D01*
X2186Y-5046D01*
X2186Y-3505D01*
X2097Y-3290D01*
X1933Y-3125D01*
X1718Y-3036D01*
X1485Y-3035D01*
X1270Y-3124D01*
X1105Y-3289D01*
X1016Y-3504D01*
X1016Y-3736D01*
X1105Y-3952D01*
X1269Y-4116D01*
X1484Y-4205D01*
X1717Y-4206D01*
X1932Y-4117D01*
X2097Y-3952D01*
X2186Y-3737D01*
X2186Y-3505D01*
X2186Y-5046D01*
X2008Y-5224D01*
X1901Y-5481D01*
X1901Y-5759D01*
X2007Y-6017D01*
X2204Y-6214D01*
X2461Y-6320D01*
X2740Y-6321D01*
X2997Y-6214D01*
X3194Y-6018D01*
X3301Y-5760D01*
X3301Y-5482D01*
X3301Y-10125D01*
X3015Y-10243D01*
X2724Y-10534D01*
X2566Y-10914D01*
X2566Y-11326D01*
X2723Y-11706D01*
X3014Y-11997D01*
X3057Y-12015D01*
X2874Y-12015D01*
X2785Y-11926D01*
X2621Y-11858D01*
X2450Y-11858D01*
X2474Y-11822D01*
X2495Y-11791D01*
X2495Y-11791D01*
X2517Y-11680D01*
X2517Y-11680D01*
X2517Y-10428D01*
X2495Y-10317D01*
X2432Y-10223D01*
X2432Y-10223D01*
X1666Y-9457D01*
X1666Y-7009D01*
X1580Y-6801D01*
X1421Y-6642D01*
X1214Y-6556D01*
X989Y-6556D01*
X781Y-6641D01*
X622Y-6800D01*
X536Y-7008D01*
X536Y-7232D01*
X622Y-7440D01*
X780Y-7599D01*
X988Y-7685D01*
X1213Y-7686D01*
X1420Y-7600D01*
X1580Y-7441D01*
X1666Y-7233D01*
X1666Y-7009D01*
X1666Y-9457D01*
X1125Y-8916D01*
X1031Y-8853D01*
X995Y-8846D01*
X1028Y-8797D01*
X1063Y-8621D01*
X1028Y-8445D01*
X978Y-8371D01*
X1028Y-8297D01*
X1063Y-8121D01*
X1028Y-7945D01*
X928Y-7795D01*
X779Y-7696D01*
X603Y-7661D01*
X401Y-7661D01*
X270Y-7687D01*
X270Y-766D01*
X294Y-774D01*
X471Y-761D01*
X577Y-717D01*
X591Y-633D01*
X351Y-392D01*
X345Y-398D01*
X275Y-327D01*
X280Y-322D01*
X275Y-316D01*
X345Y-245D01*
X351Y-251D01*
X356Y-245D01*
X427Y-316D01*
X422Y-322D01*
X662Y-562D01*
X747Y-547D01*
X803Y-379D01*
X793Y-240D01*
X4572Y-240D01*
X4572Y-1160D01*
X4543Y-1115D01*
X4340Y-980D01*
X4101Y-932D01*
X3862Y-980D01*
X3702Y-1087D01*
X3688Y-1054D01*
X3618Y-984D01*
X3526Y-946D01*
X3426Y-946D01*
X2676Y-946D01*
X2584Y-983D01*
X2514Y-1054D01*
X2476Y-1146D01*
X2476Y-1245D01*
X2476Y-2095D01*
X2514Y-2187D01*
X2584Y-2257D01*
X2676Y-2296D01*
X2775Y-2296D01*
X3281Y-2296D01*
X3571Y-2586D01*
X3396Y-2585D01*
X3015Y-2743D01*
X2724Y-3034D01*
X2566Y-3414D01*
X2566Y-3826D01*
X2723Y-4206D01*
X3014Y-4497D01*
X3394Y-4655D01*
X3806Y-4656D01*
X4103Y-4533D01*
X4103Y-4862D01*
X4129Y-4996D01*
X4205Y-5109D01*
X4595Y-5499D01*
X4708Y-5575D01*
X4842Y-5601D01*
X4987Y-5601D01*
X4909Y-5633D01*
X4860Y-5682D01*
X4826Y-5668D01*
X4648Y-5668D01*
X4484Y-5736D01*
X4358Y-5861D01*
X4290Y-6026D01*
X4290Y-6203D01*
X4357Y-6368D01*
X4483Y-6493D01*
X4647Y-6562D01*
X4825Y-6562D01*
X4852Y-6551D01*
X4909Y-6607D01*
X5001Y-6646D01*
X5100Y-6646D01*
X5450Y-6646D01*
X5542Y-6608D01*
X5601Y-6549D01*
X5659Y-6607D01*
X5687Y-6619D01*
X5687Y-9921D01*
X5687Y-9921D01*
G37*
G54D34*
X5687Y-9921D02*
X4666Y-10942D01*
X4666Y-7009D01*
X4580Y-6801D01*
X4421Y-6642D01*
X4214Y-6556D01*
X3989Y-6556D01*
X3781Y-6641D01*
X3622Y-6800D01*
X3536Y-7008D01*
X3536Y-7232D01*
X3622Y-7440D01*
X3780Y-7599D01*
X3988Y-7685D01*
X4213Y-7686D01*
X4420Y-7600D01*
X4580Y-7441D01*
X4666Y-7233D01*
X4666Y-7009D01*
X4666Y-10942D01*
X4636Y-10972D01*
X4636Y-10916D01*
X4479Y-10535D01*
X4188Y-10244D01*
X3808Y-10086D01*
X3396Y-10085D01*
X3301Y-10125D01*
X3301Y-5482D01*
X3195Y-5225D01*
X2998Y-5027D01*
X2741Y-4921D01*
X2462Y-4920D01*
X2205Y-5027D01*
X2186Y-5046D01*
X2186Y-3505D01*
X2097Y-3290D01*
X1933Y-3125D01*
X1718Y-3036D01*
X1485Y-3035D01*
X1270Y-3124D01*
X1105Y-3289D01*
X1016Y-3504D01*
X1016Y-3736D01*
X1105Y-3952D01*
X1269Y-4116D01*
X1484Y-4205D01*
X1717Y-4206D01*
X1932Y-4117D01*
X2097Y-3952D01*
X2186Y-3737D01*
X2186Y-3505D01*
X2186Y-5046D01*
X2008Y-5224D01*
X1901Y-5481D01*
X1901Y-5759D01*
X2007Y-6017D01*
X2204Y-6214D01*
X2461Y-6320D01*
X2740Y-6321D01*
X2997Y-6214D01*
X3194Y-6018D01*
X3301Y-5760D01*
X3301Y-5482D01*
X3301Y-10125D01*
X3015Y-10243D01*
X2724Y-10534D01*
X2566Y-10914D01*
X2566Y-11326D01*
X2723Y-11706D01*
X3014Y-11997D01*
X3057Y-12015D01*
X2874Y-12015D01*
X2785Y-11926D01*
X2621Y-11858D01*
X2450Y-11858D01*
X2474Y-11822D01*
X2495Y-11791D01*
X2495Y-11791D01*
X2517Y-11680D01*
X2517Y-11680D01*
X2517Y-10428D01*
X2495Y-10317D01*
X2432Y-10223D01*
X2432Y-10223D01*
X1666Y-9457D01*
X1666Y-7009D01*
X1580Y-6801D01*
X1421Y-6642D01*
X1214Y-6556D01*
X989Y-6556D01*
X781Y-6641D01*
X622Y-6800D01*
X536Y-7008D01*
X536Y-7232D01*
X622Y-7440D01*
X780Y-7599D01*
X988Y-7685D01*
X1213Y-7686D01*
X1420Y-7600D01*
X1580Y-7441D01*
X1666Y-7233D01*
X1666Y-7009D01*
X1666Y-9457D01*
X1125Y-8916D01*
X1031Y-8853D01*
X995Y-8846D01*
X1028Y-8797D01*
X1063Y-8621D01*
X1028Y-8445D01*
X978Y-8371D01*
X1028Y-8297D01*
X1063Y-8121D01*
X1028Y-7945D01*
X928Y-7795D01*
X779Y-7696D01*
X603Y-7661D01*
X401Y-7661D01*
X270Y-7687D01*
X270Y-766D01*
X294Y-774D01*
X471Y-761D01*
X577Y-717D01*
X591Y-633D01*
X351Y-392D01*
X345Y-398D01*
X275Y-327D01*
X280Y-322D01*
X275Y-316D01*
X345Y-245D01*
X351Y-251D01*
X356Y-245D01*
X427Y-316D01*
X422Y-322D01*
X662Y-562D01*
X747Y-547D01*
X803Y-379D01*
X793Y-240D01*
X4572Y-240D01*
X4572Y-1160D01*
X4543Y-1115D01*
X4340Y-980D01*
X4101Y-932D01*
X3862Y-980D01*
X3702Y-1087D01*
X3688Y-1054D01*
X3618Y-984D01*
X3526Y-946D01*
X3426Y-946D01*
X2676Y-946D01*
X2584Y-983D01*
X2514Y-1054D01*
X2476Y-1146D01*
X2476Y-1245D01*
X2476Y-2095D01*
X2514Y-2187D01*
X2584Y-2257D01*
X2676Y-2296D01*
X2775Y-2296D01*
X3281Y-2296D01*
X3571Y-2586D01*
X3396Y-2585D01*
X3015Y-2743D01*
X2724Y-3034D01*
X2566Y-3414D01*
X2566Y-3826D01*
X2723Y-4206D01*
X3014Y-4497D01*
X3394Y-4655D01*
X3806Y-4656D01*
X4103Y-4533D01*
X4103Y-4862D01*
X4129Y-4996D01*
X4205Y-5109D01*
X4595Y-5499D01*
X4708Y-5575D01*
X4842Y-5601D01*
X4987Y-5601D01*
X4909Y-5633D01*
X4860Y-5682D01*
X4826Y-5668D01*
X4648Y-5668D01*
X4484Y-5736D01*
X4358Y-5861D01*
X4290Y-6026D01*
X4290Y-6203D01*
X4357Y-6368D01*
X4483Y-6493D01*
X4647Y-6562D01*
X4825Y-6562D01*
X4852Y-6551D01*
X4909Y-6607D01*
X5001Y-6646D01*
X5100Y-6646D01*
X5450Y-6646D01*
X5542Y-6608D01*
X5601Y-6549D01*
X5659Y-6607D01*
X5687Y-6619D01*
X5687Y-9921D01*
G54D10*
G36*
X8198Y-12331D02*
X8198Y-12402D01*
X6452Y-12402D01*
X6284Y-12235D01*
X6284Y-12109D01*
X6216Y-11944D01*
X6091Y-11819D01*
X5927Y-11750D01*
X5749Y-11750D01*
X5712Y-11766D01*
X5695Y-11725D01*
X5676Y-11706D01*
X5717Y-11706D01*
X5932Y-11617D01*
X6097Y-11452D01*
X6186Y-11237D01*
X6186Y-11005D01*
X6097Y-10790D01*
X5933Y-10625D01*
X5840Y-10586D01*
X6180Y-10246D01*
X6180Y-10246D01*
X6243Y-10152D01*
X6265Y-10041D01*
X6265Y-10041D01*
X6265Y-6619D01*
X6292Y-6608D01*
X6363Y-6537D01*
X6401Y-6446D01*
X6401Y-6346D01*
X6401Y-5796D01*
X6363Y-5704D01*
X6293Y-5634D01*
X6201Y-5596D01*
X6101Y-5596D01*
X5751Y-5596D01*
X5659Y-5633D01*
X5601Y-5692D01*
X5543Y-5634D01*
X5465Y-5601D01*
X5491Y-5601D01*
X5625Y-5575D01*
X5625Y-5575D01*
X5739Y-5499D01*
X6145Y-5093D01*
X6159Y-5107D01*
X6251Y-5146D01*
X6350Y-5146D01*
X6700Y-5146D01*
X6792Y-5108D01*
X6851Y-5049D01*
X6909Y-5108D01*
X7001Y-5146D01*
X7113Y-5146D01*
X7176Y-5083D01*
X7176Y-4671D01*
X7168Y-4671D01*
X7168Y-4571D01*
X7176Y-4571D01*
X7176Y-4158D01*
X7113Y-4096D01*
X7001Y-4096D01*
X6909Y-4133D01*
X6851Y-4192D01*
X6826Y-4167D01*
X6826Y-3444D01*
X7230Y-3848D01*
X7230Y-5414D01*
X7146Y-5498D01*
X7098Y-5571D01*
X7026Y-5571D01*
X6934Y-5608D01*
X6864Y-5679D01*
X6826Y-5771D01*
X6826Y-5870D01*
X6826Y-6220D01*
X6864Y-6312D01*
X6922Y-6371D01*
X6864Y-6429D01*
X6826Y-6521D01*
X6826Y-6620D01*
X6826Y-6970D01*
X6864Y-7062D01*
X6934Y-7132D01*
X7026Y-7171D01*
X7062Y-7171D01*
X7062Y-11074D01*
X7084Y-11185D01*
X7146Y-11278D01*
X8198Y-12331D01*
X8198Y-12331D01*
G37*
G54D34*
X8198Y-12331D02*
X8198Y-12402D01*
X6452Y-12402D01*
X6284Y-12235D01*
X6284Y-12109D01*
X6216Y-11944D01*
X6091Y-11819D01*
X5927Y-11750D01*
X5749Y-11750D01*
X5712Y-11766D01*
X5695Y-11725D01*
X5676Y-11706D01*
X5717Y-11706D01*
X5932Y-11617D01*
X6097Y-11452D01*
X6186Y-11237D01*
X6186Y-11005D01*
X6097Y-10790D01*
X5933Y-10625D01*
X5840Y-10586D01*
X6180Y-10246D01*
X6180Y-10246D01*
X6243Y-10152D01*
X6265Y-10041D01*
X6265Y-10041D01*
X6265Y-6619D01*
X6292Y-6608D01*
X6363Y-6537D01*
X6401Y-6446D01*
X6401Y-6346D01*
X6401Y-5796D01*
X6363Y-5704D01*
X6293Y-5634D01*
X6201Y-5596D01*
X6101Y-5596D01*
X5751Y-5596D01*
X5659Y-5633D01*
X5601Y-5692D01*
X5543Y-5634D01*
X5465Y-5601D01*
X5491Y-5601D01*
X5625Y-5575D01*
X5625Y-5575D01*
X5739Y-5499D01*
X6145Y-5093D01*
X6159Y-5107D01*
X6251Y-5146D01*
X6350Y-5146D01*
X6700Y-5146D01*
X6792Y-5108D01*
X6851Y-5049D01*
X6909Y-5108D01*
X7001Y-5146D01*
X7113Y-5146D01*
X7176Y-5083D01*
X7176Y-4671D01*
X7168Y-4671D01*
X7168Y-4571D01*
X7176Y-4571D01*
X7176Y-4158D01*
X7113Y-4096D01*
X7001Y-4096D01*
X6909Y-4133D01*
X6851Y-4192D01*
X6826Y-4167D01*
X6826Y-3444D01*
X7230Y-3848D01*
X7230Y-5414D01*
X7146Y-5498D01*
X7098Y-5571D01*
X7026Y-5571D01*
X6934Y-5608D01*
X6864Y-5679D01*
X6826Y-5771D01*
X6826Y-5870D01*
X6826Y-6220D01*
X6864Y-6312D01*
X6922Y-6371D01*
X6864Y-6429D01*
X6826Y-6521D01*
X6826Y-6620D01*
X6826Y-6970D01*
X6864Y-7062D01*
X6934Y-7132D01*
X7026Y-7171D01*
X7062Y-7171D01*
X7062Y-11074D01*
X7084Y-11185D01*
X7146Y-11278D01*
X8198Y-12331D01*
G54D10*
G36*
X10724Y-24808D02*
X9640Y-25893D01*
X9597Y-25789D01*
X9433Y-25625D01*
X9218Y-25535D01*
X8985Y-25535D01*
X8770Y-25624D01*
X8605Y-25789D01*
X8516Y-26003D01*
X8516Y-26236D01*
X8605Y-26451D01*
X8769Y-26616D01*
X8873Y-26659D01*
X7202Y-28331D01*
X6401Y-28331D01*
X6401Y-28296D01*
X6363Y-28204D01*
X6293Y-28134D01*
X6201Y-28095D01*
X6101Y-28095D01*
X5751Y-28095D01*
X5659Y-28133D01*
X5601Y-28192D01*
X5543Y-28134D01*
X5490Y-28112D01*
X5472Y-28085D01*
X5430Y-28023D01*
X5430Y-28023D01*
X5390Y-27982D01*
X5390Y-27758D01*
X5497Y-27714D01*
X5694Y-27517D01*
X5801Y-27260D01*
X5801Y-26982D01*
X5695Y-26724D01*
X5676Y-26705D01*
X5717Y-26705D01*
X5932Y-26617D01*
X6097Y-26452D01*
X6186Y-26237D01*
X6186Y-26005D01*
X6097Y-25789D01*
X5933Y-25625D01*
X5718Y-25535D01*
X5485Y-25535D01*
X5270Y-25624D01*
X5105Y-25789D01*
X5016Y-26003D01*
X5016Y-26236D01*
X5092Y-26420D01*
X4962Y-26420D01*
X4705Y-26527D01*
X4636Y-26595D01*
X4636Y-25915D01*
X4479Y-25535D01*
X4188Y-25243D01*
X3808Y-25086D01*
X3396Y-25085D01*
X3015Y-25242D01*
X2724Y-25533D01*
X2566Y-25914D01*
X2566Y-26325D01*
X2723Y-26706D01*
X3014Y-26997D01*
X3394Y-27155D01*
X3806Y-27156D01*
X4186Y-26998D01*
X4478Y-26707D01*
X4636Y-26327D01*
X4636Y-25915D01*
X4636Y-26595D01*
X4508Y-26723D01*
X4401Y-26981D01*
X4401Y-27259D01*
X4507Y-27516D01*
X4704Y-27713D01*
X4812Y-27758D01*
X4812Y-28102D01*
X4834Y-28213D01*
X4835Y-28214D01*
X4801Y-28295D01*
X4801Y-28395D01*
X4801Y-28945D01*
X4839Y-29037D01*
X4909Y-29107D01*
X5001Y-29145D01*
X5042Y-29145D01*
X4328Y-29859D01*
X4265Y-29953D01*
X4243Y-30064D01*
X4243Y-32799D01*
X4188Y-32743D01*
X3808Y-32586D01*
X3686Y-32585D01*
X3686Y-30167D01*
X3529Y-29786D01*
X3301Y-29558D01*
X3301Y-27982D01*
X3195Y-27724D01*
X2998Y-27527D01*
X2741Y-27420D01*
X2462Y-27420D01*
X2205Y-27527D01*
X2186Y-27545D01*
X2186Y-26005D01*
X2097Y-25789D01*
X1933Y-25625D01*
X1718Y-25535D01*
X1485Y-25535D01*
X1270Y-25624D01*
X1105Y-25789D01*
X1016Y-26003D01*
X1016Y-26236D01*
X1105Y-26451D01*
X1269Y-26616D01*
X1484Y-26705D01*
X1717Y-26705D01*
X1932Y-26617D01*
X2097Y-26452D01*
X2186Y-26237D01*
X2186Y-26005D01*
X2186Y-27545D01*
X2008Y-27723D01*
X1901Y-27981D01*
X1901Y-28259D01*
X2007Y-28516D01*
X2204Y-28713D01*
X2461Y-28820D01*
X2740Y-28820D01*
X2997Y-28714D01*
X3194Y-28517D01*
X3301Y-28260D01*
X3301Y-27982D01*
X3301Y-29558D01*
X3238Y-29495D01*
X2858Y-29337D01*
X2446Y-29336D01*
X2065Y-29494D01*
X1774Y-29785D01*
X1616Y-30165D01*
X1616Y-30577D01*
X1773Y-30957D01*
X2064Y-31248D01*
X2444Y-31406D01*
X2856Y-31407D01*
X3236Y-31249D01*
X3528Y-30959D01*
X3686Y-30578D01*
X3686Y-30167D01*
X3686Y-32585D01*
X3396Y-32585D01*
X3015Y-32742D01*
X2724Y-33033D01*
X2566Y-33414D01*
X2566Y-33825D01*
X2723Y-34206D01*
X3014Y-34497D01*
X3394Y-34655D01*
X3806Y-34656D01*
X4186Y-34498D01*
X4243Y-34442D01*
X4243Y-35566D01*
X4212Y-35613D01*
X4159Y-35634D01*
X4089Y-35705D01*
X4051Y-35797D01*
X4051Y-35896D01*
X4051Y-36446D01*
X4089Y-36538D01*
X4159Y-36608D01*
X4212Y-36630D01*
X4230Y-36657D01*
X4230Y-36874D01*
X4113Y-36873D01*
X3949Y-36941D01*
X3823Y-37067D01*
X3755Y-37231D01*
X3755Y-37409D01*
X3823Y-37573D01*
X3948Y-37699D01*
X4113Y-37767D01*
X4230Y-37767D01*
X4230Y-40287D01*
X4188Y-40245D01*
X3808Y-40087D01*
X3686Y-40087D01*
X3686Y-37667D01*
X3529Y-37286D01*
X3238Y-36995D01*
X3232Y-36992D01*
X3371Y-36854D01*
X3501Y-36541D01*
X3501Y-36203D01*
X3372Y-35891D01*
X3283Y-35802D01*
X3301Y-35760D01*
X3301Y-35482D01*
X3195Y-35224D01*
X2998Y-35027D01*
X2741Y-34920D01*
X2462Y-34920D01*
X2205Y-35027D01*
X2186Y-35045D01*
X2186Y-33505D01*
X2097Y-33289D01*
X1933Y-33125D01*
X1718Y-33035D01*
X1485Y-33035D01*
X1270Y-33124D01*
X1105Y-33289D01*
X1016Y-33503D01*
X1016Y-33736D01*
X1105Y-33951D01*
X1269Y-34116D01*
X1484Y-34205D01*
X1717Y-34205D01*
X1932Y-34117D01*
X2097Y-33952D01*
X2186Y-33737D01*
X2186Y-33505D01*
X2186Y-35045D01*
X2008Y-35223D01*
X1901Y-35481D01*
X1901Y-35759D01*
X1948Y-35873D01*
X1931Y-35889D01*
X1801Y-36202D01*
X1801Y-36540D01*
X1930Y-36852D01*
X2069Y-36992D01*
X2065Y-36994D01*
X1774Y-37285D01*
X1649Y-37586D01*
X1649Y-37232D01*
X1581Y-37068D01*
X1455Y-36942D01*
X1291Y-36874D01*
X1113Y-36873D01*
X949Y-36941D01*
X823Y-37067D01*
X804Y-37114D01*
X804Y-36677D01*
X791Y-36500D01*
X748Y-36395D01*
X663Y-36380D01*
X423Y-36620D01*
X663Y-36861D01*
X748Y-36846D01*
X804Y-36677D01*
X804Y-37114D01*
X755Y-37231D01*
X755Y-37409D01*
X823Y-37573D01*
X948Y-37699D01*
X1113Y-37767D01*
X1290Y-37767D01*
X1455Y-37699D01*
X1580Y-37574D01*
X1649Y-37410D01*
X1649Y-37232D01*
X1649Y-37586D01*
X1616Y-37665D01*
X1616Y-38077D01*
X1773Y-38457D01*
X2064Y-38748D01*
X2444Y-38906D01*
X2856Y-38907D01*
X3236Y-38749D01*
X3528Y-38459D01*
X3686Y-38078D01*
X3686Y-37667D01*
X3686Y-40087D01*
X3396Y-40086D01*
X3015Y-40244D01*
X2724Y-40535D01*
X2566Y-40915D01*
X2566Y-41327D01*
X2723Y-41707D01*
X3014Y-41998D01*
X3394Y-42156D01*
X3806Y-42157D01*
X4186Y-41999D01*
X4230Y-41956D01*
X4230Y-43597D01*
X4001Y-43597D01*
X3909Y-43634D01*
X3839Y-43705D01*
X3801Y-43797D01*
X3801Y-43896D01*
X3801Y-44446D01*
X3803Y-44451D01*
X3273Y-44451D01*
X3371Y-44354D01*
X3501Y-44041D01*
X3501Y-43703D01*
X3372Y-43391D01*
X3284Y-43302D01*
X3301Y-43261D01*
X3301Y-42983D01*
X3195Y-42726D01*
X2998Y-42528D01*
X2741Y-42422D01*
X2462Y-42421D01*
X2205Y-42528D01*
X2186Y-42547D01*
X2186Y-41006D01*
X2097Y-40791D01*
X1933Y-40626D01*
X1718Y-40537D01*
X1485Y-40536D01*
X1270Y-40625D01*
X1105Y-40790D01*
X1016Y-41005D01*
X1016Y-41237D01*
X1105Y-41452D01*
X1269Y-41617D01*
X1484Y-41706D01*
X1717Y-41707D01*
X1932Y-41618D01*
X2097Y-41453D01*
X2186Y-41238D01*
X2186Y-41006D01*
X2186Y-42547D01*
X2008Y-42725D01*
X1901Y-42982D01*
X1901Y-43260D01*
X1947Y-43373D01*
X1931Y-43389D01*
X1801Y-43702D01*
X1801Y-44040D01*
X1930Y-44352D01*
X2028Y-44451D01*
X795Y-44451D01*
X803Y-44429D01*
X790Y-44251D01*
X747Y-44146D01*
X662Y-44131D01*
X422Y-44372D01*
X427Y-44377D01*
X356Y-44448D01*
X351Y-44442D01*
X345Y-44448D01*
X275Y-44377D01*
X280Y-44372D01*
X275Y-44366D01*
X345Y-44295D01*
X351Y-44301D01*
X591Y-44060D01*
X577Y-43976D01*
X408Y-43920D01*
X270Y-43929D01*
X270Y-37684D01*
X380Y-37574D01*
X449Y-37410D01*
X449Y-37232D01*
X381Y-37068D01*
X380Y-37066D01*
X472Y-37060D01*
X578Y-37016D01*
X592Y-36931D01*
X352Y-36691D01*
X346Y-36697D01*
X276Y-36626D01*
X281Y-36620D01*
X276Y-36615D01*
X346Y-36544D01*
X352Y-36550D01*
X592Y-36309D01*
X578Y-36225D01*
X409Y-36168D01*
X270Y-36178D01*
X270Y-23478D01*
X1602Y-23478D01*
X2074Y-23384D01*
X2474Y-23117D01*
X2742Y-22716D01*
X2836Y-22244D01*
X2742Y-21772D01*
X2474Y-21371D01*
X2295Y-21251D01*
X2461Y-21320D01*
X2740Y-21320D01*
X2997Y-21214D01*
X3194Y-21017D01*
X3301Y-20760D01*
X3301Y-20482D01*
X3195Y-20224D01*
X2998Y-20027D01*
X2890Y-19983D01*
X2890Y-19373D01*
X3014Y-19497D01*
X3394Y-19655D01*
X3806Y-19656D01*
X4186Y-19498D01*
X4478Y-19207D01*
X4636Y-18827D01*
X4636Y-18415D01*
X4479Y-18035D01*
X4188Y-17743D01*
X3808Y-17586D01*
X3396Y-17585D01*
X3015Y-17742D01*
X2890Y-17867D01*
X2890Y-16706D01*
X3060Y-16536D01*
X6658Y-16536D01*
X6620Y-16626D01*
X6620Y-16859D01*
X6618Y-16858D01*
X6441Y-16858D01*
X6276Y-16926D01*
X6151Y-17052D01*
X6082Y-17216D01*
X6082Y-17394D01*
X6150Y-17558D01*
X6240Y-17648D01*
X6240Y-19051D01*
X6262Y-19162D01*
X6325Y-19255D01*
X6569Y-19500D01*
X5478Y-20591D01*
X5477Y-20592D01*
X5472Y-20585D01*
X5430Y-20523D01*
X5430Y-20523D01*
X5390Y-20482D01*
X5390Y-20258D01*
X5497Y-20214D01*
X5694Y-20017D01*
X5801Y-19760D01*
X5801Y-19482D01*
X5695Y-19224D01*
X5676Y-19205D01*
X5717Y-19205D01*
X5932Y-19117D01*
X6097Y-18952D01*
X6186Y-18737D01*
X6186Y-18505D01*
X6097Y-18289D01*
X5933Y-18125D01*
X5718Y-18035D01*
X5485Y-18035D01*
X5270Y-18124D01*
X5105Y-18289D01*
X5016Y-18503D01*
X5016Y-18736D01*
X5092Y-18920D01*
X4962Y-18920D01*
X4705Y-19027D01*
X4508Y-19223D01*
X4401Y-19481D01*
X4401Y-19759D01*
X4507Y-20016D01*
X4704Y-20213D01*
X4812Y-20258D01*
X4812Y-20602D01*
X4834Y-20713D01*
X4835Y-20714D01*
X4801Y-20795D01*
X4801Y-20895D01*
X4801Y-21445D01*
X4839Y-21537D01*
X4909Y-21607D01*
X5001Y-21645D01*
X5100Y-21645D01*
X5393Y-21645D01*
X5393Y-21750D01*
X5415Y-21860D01*
X5478Y-21954D01*
X7328Y-23804D01*
X7328Y-23804D01*
X7385Y-23842D01*
X7385Y-23842D01*
X7438Y-23895D01*
X7851Y-23895D01*
X7851Y-23889D01*
X7951Y-23889D01*
X7951Y-23895D01*
X8363Y-23895D01*
X8370Y-23889D01*
X10050Y-23889D01*
X10016Y-23971D01*
X10016Y-24149D01*
X10049Y-24230D01*
X9370Y-24230D01*
X9388Y-24212D01*
X9426Y-24120D01*
X9426Y-24008D01*
X9363Y-23945D01*
X8951Y-23945D01*
X8951Y-23953D01*
X8851Y-23953D01*
X8851Y-23945D01*
X8438Y-23945D01*
X8376Y-24008D01*
X8363Y-23995D01*
X7951Y-23995D01*
X7951Y-24003D01*
X7851Y-24003D01*
X7851Y-23995D01*
X7438Y-23995D01*
X7376Y-24058D01*
X7376Y-24170D01*
X7414Y-24262D01*
X7472Y-24320D01*
X7414Y-24379D01*
X7376Y-24470D01*
X7376Y-24570D01*
X7376Y-24920D01*
X7414Y-25012D01*
X7484Y-25082D01*
X7576Y-25120D01*
X7675Y-25120D01*
X8225Y-25120D01*
X8317Y-25082D01*
X8388Y-25012D01*
X8410Y-24960D01*
X8499Y-24900D01*
X8590Y-24808D01*
X10724Y-24808D01*
X10724Y-24808D01*
G37*
G54D34*
X10724Y-24808D02*
X9640Y-25893D01*
X9597Y-25789D01*
X9433Y-25625D01*
X9218Y-25535D01*
X8985Y-25535D01*
X8770Y-25624D01*
X8605Y-25789D01*
X8516Y-26003D01*
X8516Y-26236D01*
X8605Y-26451D01*
X8769Y-26616D01*
X8873Y-26659D01*
X7202Y-28331D01*
X6401Y-28331D01*
X6401Y-28296D01*
X6363Y-28204D01*
X6293Y-28134D01*
X6201Y-28095D01*
X6101Y-28095D01*
X5751Y-28095D01*
X5659Y-28133D01*
X5601Y-28192D01*
X5543Y-28134D01*
X5490Y-28112D01*
X5472Y-28085D01*
X5430Y-28023D01*
X5430Y-28023D01*
X5390Y-27982D01*
X5390Y-27758D01*
X5497Y-27714D01*
X5694Y-27517D01*
X5801Y-27260D01*
X5801Y-26982D01*
X5695Y-26724D01*
X5676Y-26705D01*
X5717Y-26705D01*
X5932Y-26617D01*
X6097Y-26452D01*
X6186Y-26237D01*
X6186Y-26005D01*
X6097Y-25789D01*
X5933Y-25625D01*
X5718Y-25535D01*
X5485Y-25535D01*
X5270Y-25624D01*
X5105Y-25789D01*
X5016Y-26003D01*
X5016Y-26236D01*
X5092Y-26420D01*
X4962Y-26420D01*
X4705Y-26527D01*
X4636Y-26595D01*
X4636Y-25915D01*
X4479Y-25535D01*
X4188Y-25243D01*
X3808Y-25086D01*
X3396Y-25085D01*
X3015Y-25242D01*
X2724Y-25533D01*
X2566Y-25914D01*
X2566Y-26325D01*
X2723Y-26706D01*
X3014Y-26997D01*
X3394Y-27155D01*
X3806Y-27156D01*
X4186Y-26998D01*
X4478Y-26707D01*
X4636Y-26327D01*
X4636Y-25915D01*
X4636Y-26595D01*
X4508Y-26723D01*
X4401Y-26981D01*
X4401Y-27259D01*
X4507Y-27516D01*
X4704Y-27713D01*
X4812Y-27758D01*
X4812Y-28102D01*
X4834Y-28213D01*
X4835Y-28214D01*
X4801Y-28295D01*
X4801Y-28395D01*
X4801Y-28945D01*
X4839Y-29037D01*
X4909Y-29107D01*
X5001Y-29145D01*
X5042Y-29145D01*
X4328Y-29859D01*
X4265Y-29953D01*
X4243Y-30064D01*
X4243Y-32799D01*
X4188Y-32743D01*
X3808Y-32586D01*
X3686Y-32585D01*
X3686Y-30167D01*
X3529Y-29786D01*
X3301Y-29558D01*
X3301Y-27982D01*
X3195Y-27724D01*
X2998Y-27527D01*
X2741Y-27420D01*
X2462Y-27420D01*
X2205Y-27527D01*
X2186Y-27545D01*
X2186Y-26005D01*
X2097Y-25789D01*
X1933Y-25625D01*
X1718Y-25535D01*
X1485Y-25535D01*
X1270Y-25624D01*
X1105Y-25789D01*
X1016Y-26003D01*
X1016Y-26236D01*
X1105Y-26451D01*
X1269Y-26616D01*
X1484Y-26705D01*
X1717Y-26705D01*
X1932Y-26617D01*
X2097Y-26452D01*
X2186Y-26237D01*
X2186Y-26005D01*
X2186Y-27545D01*
X2008Y-27723D01*
X1901Y-27981D01*
X1901Y-28259D01*
X2007Y-28516D01*
X2204Y-28713D01*
X2461Y-28820D01*
X2740Y-28820D01*
X2997Y-28714D01*
X3194Y-28517D01*
X3301Y-28260D01*
X3301Y-27982D01*
X3301Y-29558D01*
X3238Y-29495D01*
X2858Y-29337D01*
X2446Y-29336D01*
X2065Y-29494D01*
X1774Y-29785D01*
X1616Y-30165D01*
X1616Y-30577D01*
X1773Y-30957D01*
X2064Y-31248D01*
X2444Y-31406D01*
X2856Y-31407D01*
X3236Y-31249D01*
X3528Y-30959D01*
X3686Y-30578D01*
X3686Y-30167D01*
X3686Y-32585D01*
X3396Y-32585D01*
X3015Y-32742D01*
X2724Y-33033D01*
X2566Y-33414D01*
X2566Y-33825D01*
X2723Y-34206D01*
X3014Y-34497D01*
X3394Y-34655D01*
X3806Y-34656D01*
X4186Y-34498D01*
X4243Y-34442D01*
X4243Y-35566D01*
X4212Y-35613D01*
X4159Y-35634D01*
X4089Y-35705D01*
X4051Y-35797D01*
X4051Y-35896D01*
X4051Y-36446D01*
X4089Y-36538D01*
X4159Y-36608D01*
X4212Y-36630D01*
X4230Y-36657D01*
X4230Y-36874D01*
X4113Y-36873D01*
X3949Y-36941D01*
X3823Y-37067D01*
X3755Y-37231D01*
X3755Y-37409D01*
X3823Y-37573D01*
X3948Y-37699D01*
X4113Y-37767D01*
X4230Y-37767D01*
X4230Y-40287D01*
X4188Y-40245D01*
X3808Y-40087D01*
X3686Y-40087D01*
X3686Y-37667D01*
X3529Y-37286D01*
X3238Y-36995D01*
X3232Y-36992D01*
X3371Y-36854D01*
X3501Y-36541D01*
X3501Y-36203D01*
X3372Y-35891D01*
X3283Y-35802D01*
X3301Y-35760D01*
X3301Y-35482D01*
X3195Y-35224D01*
X2998Y-35027D01*
X2741Y-34920D01*
X2462Y-34920D01*
X2205Y-35027D01*
X2186Y-35045D01*
X2186Y-33505D01*
X2097Y-33289D01*
X1933Y-33125D01*
X1718Y-33035D01*
X1485Y-33035D01*
X1270Y-33124D01*
X1105Y-33289D01*
X1016Y-33503D01*
X1016Y-33736D01*
X1105Y-33951D01*
X1269Y-34116D01*
X1484Y-34205D01*
X1717Y-34205D01*
X1932Y-34117D01*
X2097Y-33952D01*
X2186Y-33737D01*
X2186Y-33505D01*
X2186Y-35045D01*
X2008Y-35223D01*
X1901Y-35481D01*
X1901Y-35759D01*
X1948Y-35873D01*
X1931Y-35889D01*
X1801Y-36202D01*
X1801Y-36540D01*
X1930Y-36852D01*
X2069Y-36992D01*
X2065Y-36994D01*
X1774Y-37285D01*
X1649Y-37586D01*
X1649Y-37232D01*
X1581Y-37068D01*
X1455Y-36942D01*
X1291Y-36874D01*
X1113Y-36873D01*
X949Y-36941D01*
X823Y-37067D01*
X804Y-37114D01*
X804Y-36677D01*
X791Y-36500D01*
X748Y-36395D01*
X663Y-36380D01*
X423Y-36620D01*
X663Y-36861D01*
X748Y-36846D01*
X804Y-36677D01*
X804Y-37114D01*
X755Y-37231D01*
X755Y-37409D01*
X823Y-37573D01*
X948Y-37699D01*
X1113Y-37767D01*
X1290Y-37767D01*
X1455Y-37699D01*
X1580Y-37574D01*
X1649Y-37410D01*
X1649Y-37232D01*
X1649Y-37586D01*
X1616Y-37665D01*
X1616Y-38077D01*
X1773Y-38457D01*
X2064Y-38748D01*
X2444Y-38906D01*
X2856Y-38907D01*
X3236Y-38749D01*
X3528Y-38459D01*
X3686Y-38078D01*
X3686Y-37667D01*
X3686Y-40087D01*
X3396Y-40086D01*
X3015Y-40244D01*
X2724Y-40535D01*
X2566Y-40915D01*
X2566Y-41327D01*
X2723Y-41707D01*
X3014Y-41998D01*
X3394Y-42156D01*
X3806Y-42157D01*
X4186Y-41999D01*
X4230Y-41956D01*
X4230Y-43597D01*
X4001Y-43597D01*
X3909Y-43634D01*
X3839Y-43705D01*
X3801Y-43797D01*
X3801Y-43896D01*
X3801Y-44446D01*
X3803Y-44451D01*
X3273Y-44451D01*
X3371Y-44354D01*
X3501Y-44041D01*
X3501Y-43703D01*
X3372Y-43391D01*
X3284Y-43302D01*
X3301Y-43261D01*
X3301Y-42983D01*
X3195Y-42726D01*
X2998Y-42528D01*
X2741Y-42422D01*
X2462Y-42421D01*
X2205Y-42528D01*
X2186Y-42547D01*
X2186Y-41006D01*
X2097Y-40791D01*
X1933Y-40626D01*
X1718Y-40537D01*
X1485Y-40536D01*
X1270Y-40625D01*
X1105Y-40790D01*
X1016Y-41005D01*
X1016Y-41237D01*
X1105Y-41452D01*
X1269Y-41617D01*
X1484Y-41706D01*
X1717Y-41707D01*
X1932Y-41618D01*
X2097Y-41453D01*
X2186Y-41238D01*
X2186Y-41006D01*
X2186Y-42547D01*
X2008Y-42725D01*
X1901Y-42982D01*
X1901Y-43260D01*
X1947Y-43373D01*
X1931Y-43389D01*
X1801Y-43702D01*
X1801Y-44040D01*
X1930Y-44352D01*
X2028Y-44451D01*
X795Y-44451D01*
X803Y-44429D01*
X790Y-44251D01*
X747Y-44146D01*
X662Y-44131D01*
X422Y-44372D01*
X427Y-44377D01*
X356Y-44448D01*
X351Y-44442D01*
X345Y-44448D01*
X275Y-44377D01*
X280Y-44372D01*
X275Y-44366D01*
X345Y-44295D01*
X351Y-44301D01*
X591Y-44060D01*
X577Y-43976D01*
X408Y-43920D01*
X270Y-43929D01*
X270Y-37684D01*
X380Y-37574D01*
X449Y-37410D01*
X449Y-37232D01*
X381Y-37068D01*
X380Y-37066D01*
X472Y-37060D01*
X578Y-37016D01*
X592Y-36931D01*
X352Y-36691D01*
X346Y-36697D01*
X276Y-36626D01*
X281Y-36620D01*
X276Y-36615D01*
X346Y-36544D01*
X352Y-36550D01*
X592Y-36309D01*
X578Y-36225D01*
X409Y-36168D01*
X270Y-36178D01*
X270Y-23478D01*
X1602Y-23478D01*
X2074Y-23384D01*
X2474Y-23117D01*
X2742Y-22716D01*
X2836Y-22244D01*
X2742Y-21772D01*
X2474Y-21371D01*
X2295Y-21251D01*
X2461Y-21320D01*
X2740Y-21320D01*
X2997Y-21214D01*
X3194Y-21017D01*
X3301Y-20760D01*
X3301Y-20482D01*
X3195Y-20224D01*
X2998Y-20027D01*
X2890Y-19983D01*
X2890Y-19373D01*
X3014Y-19497D01*
X3394Y-19655D01*
X3806Y-19656D01*
X4186Y-19498D01*
X4478Y-19207D01*
X4636Y-18827D01*
X4636Y-18415D01*
X4479Y-18035D01*
X4188Y-17743D01*
X3808Y-17586D01*
X3396Y-17585D01*
X3015Y-17742D01*
X2890Y-17867D01*
X2890Y-16706D01*
X3060Y-16536D01*
X6658Y-16536D01*
X6620Y-16626D01*
X6620Y-16859D01*
X6618Y-16858D01*
X6441Y-16858D01*
X6276Y-16926D01*
X6151Y-17052D01*
X6082Y-17216D01*
X6082Y-17394D01*
X6150Y-17558D01*
X6240Y-17648D01*
X6240Y-19051D01*
X6262Y-19162D01*
X6325Y-19255D01*
X6569Y-19500D01*
X5478Y-20591D01*
X5477Y-20592D01*
X5472Y-20585D01*
X5430Y-20523D01*
X5430Y-20523D01*
X5390Y-20482D01*
X5390Y-20258D01*
X5497Y-20214D01*
X5694Y-20017D01*
X5801Y-19760D01*
X5801Y-19482D01*
X5695Y-19224D01*
X5676Y-19205D01*
X5717Y-19205D01*
X5932Y-19117D01*
X6097Y-18952D01*
X6186Y-18737D01*
X6186Y-18505D01*
X6097Y-18289D01*
X5933Y-18125D01*
X5718Y-18035D01*
X5485Y-18035D01*
X5270Y-18124D01*
X5105Y-18289D01*
X5016Y-18503D01*
X5016Y-18736D01*
X5092Y-18920D01*
X4962Y-18920D01*
X4705Y-19027D01*
X4508Y-19223D01*
X4401Y-19481D01*
X4401Y-19759D01*
X4507Y-20016D01*
X4704Y-20213D01*
X4812Y-20258D01*
X4812Y-20602D01*
X4834Y-20713D01*
X4835Y-20714D01*
X4801Y-20795D01*
X4801Y-20895D01*
X4801Y-21445D01*
X4839Y-21537D01*
X4909Y-21607D01*
X5001Y-21645D01*
X5100Y-21645D01*
X5393Y-21645D01*
X5393Y-21750D01*
X5415Y-21860D01*
X5478Y-21954D01*
X7328Y-23804D01*
X7328Y-23804D01*
X7385Y-23842D01*
X7385Y-23842D01*
X7438Y-23895D01*
X7851Y-23895D01*
X7851Y-23889D01*
X7951Y-23889D01*
X7951Y-23895D01*
X8363Y-23895D01*
X8370Y-23889D01*
X10050Y-23889D01*
X10016Y-23971D01*
X10016Y-24149D01*
X10049Y-24230D01*
X9370Y-24230D01*
X9388Y-24212D01*
X9426Y-24120D01*
X9426Y-24008D01*
X9363Y-23945D01*
X8951Y-23945D01*
X8951Y-23953D01*
X8851Y-23953D01*
X8851Y-23945D01*
X8438Y-23945D01*
X8376Y-24008D01*
X8363Y-23995D01*
X7951Y-23995D01*
X7951Y-24003D01*
X7851Y-24003D01*
X7851Y-23995D01*
X7438Y-23995D01*
X7376Y-24058D01*
X7376Y-24170D01*
X7414Y-24262D01*
X7472Y-24320D01*
X7414Y-24379D01*
X7376Y-24470D01*
X7376Y-24570D01*
X7376Y-24920D01*
X7414Y-25012D01*
X7484Y-25082D01*
X7576Y-25120D01*
X7675Y-25120D01*
X8225Y-25120D01*
X8317Y-25082D01*
X8388Y-25012D01*
X8410Y-24960D01*
X8499Y-24900D01*
X8590Y-24808D01*
X10724Y-24808D01*
G54D10*
G36*
X12735Y-15595D02*
X12501Y-15595D01*
X12409Y-15633D01*
X12339Y-15704D01*
X12301Y-15795D01*
X12301Y-15895D01*
X12301Y-16445D01*
X12326Y-16505D01*
X12258Y-16572D01*
X12196Y-16666D01*
X12174Y-16777D01*
X12174Y-19058D01*
X12136Y-19095D01*
X12136Y-18415D01*
X11979Y-18035D01*
X11688Y-17743D01*
X11308Y-17586D01*
X10896Y-17585D01*
X10515Y-17742D01*
X10224Y-18033D01*
X10066Y-18414D01*
X10066Y-18825D01*
X10223Y-19206D01*
X10514Y-19497D01*
X10894Y-19655D01*
X11306Y-19656D01*
X11686Y-19498D01*
X11978Y-19207D01*
X12136Y-18827D01*
X12136Y-18415D01*
X12136Y-19095D01*
X12008Y-19223D01*
X11901Y-19481D01*
X11901Y-19759D01*
X11963Y-19909D01*
X11896Y-19909D01*
X11546Y-19909D01*
X11455Y-19947D01*
X11396Y-20005D01*
X11337Y-19947D01*
X11245Y-19909D01*
X11133Y-19909D01*
X11071Y-19971D01*
X11071Y-20384D01*
X11079Y-20384D01*
X11079Y-20484D01*
X11071Y-20484D01*
X11071Y-20492D01*
X10971Y-20492D01*
X10971Y-20484D01*
X10963Y-20484D01*
X10963Y-20384D01*
X10971Y-20384D01*
X10971Y-19971D01*
X10908Y-19909D01*
X10796Y-19909D01*
X10705Y-19947D01*
X10634Y-20017D01*
X10596Y-20109D01*
X10596Y-20126D01*
X10498Y-20027D01*
X10241Y-19920D01*
X10162Y-19920D01*
X9379Y-19138D01*
X9432Y-19117D01*
X9597Y-18952D01*
X9686Y-18737D01*
X9686Y-18505D01*
X9597Y-18289D01*
X9433Y-18125D01*
X9218Y-18035D01*
X8985Y-18035D01*
X8770Y-18124D01*
X8605Y-18289D01*
X8583Y-18342D01*
X8029Y-17788D01*
X8029Y-16570D01*
X8029Y-16570D01*
X8007Y-16459D01*
X8007Y-16459D01*
X7986Y-16428D01*
X7944Y-16365D01*
X7944Y-16365D01*
X7672Y-16093D01*
X7751Y-16067D01*
X7834Y-15841D01*
X7823Y-15601D01*
X7751Y-15426D01*
X7650Y-15392D01*
X7579Y-15463D01*
X7579Y-15321D01*
X7545Y-15220D01*
X7319Y-15138D01*
X7079Y-15148D01*
X6904Y-15220D01*
X6870Y-15321D01*
X7225Y-15676D01*
X7579Y-15321D01*
X7579Y-15463D01*
X7295Y-15746D01*
X7301Y-15752D01*
X7230Y-15823D01*
X7225Y-15817D01*
X7219Y-15823D01*
X7148Y-15752D01*
X7154Y-15746D01*
X6799Y-15392D01*
X6698Y-15426D01*
X6616Y-15652D01*
X6626Y-15892D01*
X6653Y-15957D01*
X3230Y-15957D01*
X3230Y-15464D01*
X3208Y-15353D01*
X3145Y-15260D01*
X3145Y-15260D01*
X2040Y-14154D01*
X2040Y-13549D01*
X2204Y-13714D01*
X2461Y-13820D01*
X2740Y-13821D01*
X2847Y-13776D01*
X3614Y-14543D01*
X3614Y-14543D01*
X3708Y-14606D01*
X3708Y-14606D01*
X3726Y-14609D01*
X3819Y-14628D01*
X8883Y-14628D01*
X8883Y-14628D01*
X8994Y-14606D01*
X9088Y-14543D01*
X9854Y-13776D01*
X9961Y-13820D01*
X10240Y-13821D01*
X10347Y-13776D01*
X11256Y-14685D01*
X11256Y-14685D01*
X11350Y-14748D01*
X11350Y-14748D01*
X11368Y-14751D01*
X11461Y-14770D01*
X12735Y-14770D01*
X12735Y-15595D01*
X12735Y-15595D01*
G37*
G54D34*
X12735Y-15595D02*
X12501Y-15595D01*
X12409Y-15633D01*
X12339Y-15704D01*
X12301Y-15795D01*
X12301Y-15895D01*
X12301Y-16445D01*
X12326Y-16505D01*
X12258Y-16572D01*
X12196Y-16666D01*
X12174Y-16777D01*
X12174Y-19058D01*
X12136Y-19095D01*
X12136Y-18415D01*
X11979Y-18035D01*
X11688Y-17743D01*
X11308Y-17586D01*
X10896Y-17585D01*
X10515Y-17742D01*
X10224Y-18033D01*
X10066Y-18414D01*
X10066Y-18825D01*
X10223Y-19206D01*
X10514Y-19497D01*
X10894Y-19655D01*
X11306Y-19656D01*
X11686Y-19498D01*
X11978Y-19207D01*
X12136Y-18827D01*
X12136Y-18415D01*
X12136Y-19095D01*
X12008Y-19223D01*
X11901Y-19481D01*
X11901Y-19759D01*
X11963Y-19909D01*
X11896Y-19909D01*
X11546Y-19909D01*
X11455Y-19947D01*
X11396Y-20005D01*
X11337Y-19947D01*
X11245Y-19909D01*
X11133Y-19909D01*
X11071Y-19971D01*
X11071Y-20384D01*
X11079Y-20384D01*
X11079Y-20484D01*
X11071Y-20484D01*
X11071Y-20492D01*
X10971Y-20492D01*
X10971Y-20484D01*
X10963Y-20484D01*
X10963Y-20384D01*
X10971Y-20384D01*
X10971Y-19971D01*
X10908Y-19909D01*
X10796Y-19909D01*
X10705Y-19947D01*
X10634Y-20017D01*
X10596Y-20109D01*
X10596Y-20126D01*
X10498Y-20027D01*
X10241Y-19920D01*
X10162Y-19920D01*
X9379Y-19138D01*
X9432Y-19117D01*
X9597Y-18952D01*
X9686Y-18737D01*
X9686Y-18505D01*
X9597Y-18289D01*
X9433Y-18125D01*
X9218Y-18035D01*
X8985Y-18035D01*
X8770Y-18124D01*
X8605Y-18289D01*
X8583Y-18342D01*
X8029Y-17788D01*
X8029Y-16570D01*
X8029Y-16570D01*
X8007Y-16459D01*
X8007Y-16459D01*
X7986Y-16428D01*
X7944Y-16365D01*
X7944Y-16365D01*
X7672Y-16093D01*
X7751Y-16067D01*
X7834Y-15841D01*
X7823Y-15601D01*
X7751Y-15426D01*
X7650Y-15392D01*
X7579Y-15463D01*
X7579Y-15321D01*
X7545Y-15220D01*
X7319Y-15138D01*
X7079Y-15148D01*
X6904Y-15220D01*
X6870Y-15321D01*
X7225Y-15676D01*
X7579Y-15321D01*
X7579Y-15463D01*
X7295Y-15746D01*
X7301Y-15752D01*
X7230Y-15823D01*
X7225Y-15817D01*
X7219Y-15823D01*
X7148Y-15752D01*
X7154Y-15746D01*
X6799Y-15392D01*
X6698Y-15426D01*
X6616Y-15652D01*
X6626Y-15892D01*
X6653Y-15957D01*
X3230Y-15957D01*
X3230Y-15464D01*
X3208Y-15353D01*
X3145Y-15260D01*
X3145Y-15260D01*
X2040Y-14154D01*
X2040Y-13549D01*
X2204Y-13714D01*
X2461Y-13820D01*
X2740Y-13821D01*
X2847Y-13776D01*
X3614Y-14543D01*
X3614Y-14543D01*
X3708Y-14606D01*
X3708Y-14606D01*
X3726Y-14609D01*
X3819Y-14628D01*
X8883Y-14628D01*
X8883Y-14628D01*
X8994Y-14606D01*
X9088Y-14543D01*
X9854Y-13776D01*
X9961Y-13820D01*
X10240Y-13821D01*
X10347Y-13776D01*
X11256Y-14685D01*
X11256Y-14685D01*
X11350Y-14748D01*
X11350Y-14748D01*
X11368Y-14751D01*
X11461Y-14770D01*
X12735Y-14770D01*
X12735Y-15595D01*
G54D10*
G36*
X15631Y-23317D02*
X15586Y-23361D01*
X15518Y-23526D01*
X15518Y-23647D01*
X15372Y-23586D01*
X15195Y-23586D01*
X15030Y-23654D01*
X14904Y-23780D01*
X14854Y-23901D01*
X14841Y-23901D01*
X14677Y-23969D01*
X14551Y-24095D01*
X14491Y-24239D01*
X14402Y-24149D01*
X14238Y-24081D01*
X14060Y-24081D01*
X13896Y-24149D01*
X13805Y-24240D01*
X13798Y-24235D01*
X13752Y-24226D01*
X13729Y-24166D01*
X13656Y-24167D01*
X13598Y-24225D01*
X13546Y-24235D01*
X13502Y-24264D01*
X13531Y-24221D01*
X13542Y-24168D01*
X13599Y-24111D01*
X13601Y-24038D01*
X13541Y-24015D01*
X13531Y-23969D01*
X13482Y-23894D01*
X13496Y-23888D01*
X13622Y-23763D01*
X13690Y-23599D01*
X13690Y-23421D01*
X13622Y-23257D01*
X13593Y-23227D01*
X13593Y-22699D01*
X13567Y-22565D01*
X13491Y-22452D01*
X13491Y-22452D01*
X13030Y-21991D01*
X13041Y-21981D01*
X13029Y-21968D01*
X13135Y-21990D01*
X13246Y-21968D01*
X13246Y-21968D01*
X13340Y-21905D01*
X13484Y-21760D01*
X13544Y-21760D01*
X13633Y-21850D01*
X13797Y-21918D01*
X13975Y-21918D01*
X14139Y-21850D01*
X14265Y-21725D01*
X14333Y-21560D01*
X14333Y-21383D01*
X14327Y-21368D01*
X14443Y-21252D01*
X14511Y-21088D01*
X14511Y-20910D01*
X14443Y-20746D01*
X14365Y-20667D01*
X14422Y-20581D01*
X14430Y-20544D01*
X14466Y-20537D01*
X14573Y-20466D01*
X14629Y-20383D01*
X14655Y-20382D01*
X14690Y-20347D01*
X14732Y-20347D01*
X14726Y-20356D01*
X14700Y-20490D01*
X14700Y-21899D01*
X14700Y-22033D01*
X14224Y-22509D01*
X14183Y-22509D01*
X14019Y-22577D01*
X13893Y-22703D01*
X13825Y-22867D01*
X13825Y-23045D01*
X13893Y-23209D01*
X14018Y-23335D01*
X14183Y-23403D01*
X14360Y-23403D01*
X14525Y-23335D01*
X14650Y-23210D01*
X14719Y-23045D01*
X14719Y-23004D01*
X15227Y-22496D01*
X15243Y-22533D01*
X15368Y-22658D01*
X15388Y-22667D01*
X15331Y-22805D01*
X15331Y-22982D01*
X15399Y-23147D01*
X15525Y-23272D01*
X15631Y-23317D01*
X15631Y-23317D01*
G37*
G54D34*
X15631Y-23317D02*
X15586Y-23361D01*
X15518Y-23526D01*
X15518Y-23647D01*
X15372Y-23586D01*
X15195Y-23586D01*
X15030Y-23654D01*
X14904Y-23780D01*
X14854Y-23901D01*
X14841Y-23901D01*
X14677Y-23969D01*
X14551Y-24095D01*
X14491Y-24239D01*
X14402Y-24149D01*
X14238Y-24081D01*
X14060Y-24081D01*
X13896Y-24149D01*
X13805Y-24240D01*
X13798Y-24235D01*
X13752Y-24226D01*
X13729Y-24166D01*
X13656Y-24167D01*
X13598Y-24225D01*
X13546Y-24235D01*
X13502Y-24264D01*
X13531Y-24221D01*
X13542Y-24168D01*
X13599Y-24111D01*
X13601Y-24038D01*
X13541Y-24015D01*
X13531Y-23969D01*
X13482Y-23894D01*
X13496Y-23888D01*
X13622Y-23763D01*
X13690Y-23599D01*
X13690Y-23421D01*
X13622Y-23257D01*
X13593Y-23227D01*
X13593Y-22699D01*
X13567Y-22565D01*
X13491Y-22452D01*
X13491Y-22452D01*
X13030Y-21991D01*
X13041Y-21981D01*
X13029Y-21968D01*
X13135Y-21990D01*
X13246Y-21968D01*
X13246Y-21968D01*
X13340Y-21905D01*
X13484Y-21760D01*
X13544Y-21760D01*
X13633Y-21850D01*
X13797Y-21918D01*
X13975Y-21918D01*
X14139Y-21850D01*
X14265Y-21725D01*
X14333Y-21560D01*
X14333Y-21383D01*
X14327Y-21368D01*
X14443Y-21252D01*
X14511Y-21088D01*
X14511Y-20910D01*
X14443Y-20746D01*
X14365Y-20667D01*
X14422Y-20581D01*
X14430Y-20544D01*
X14466Y-20537D01*
X14573Y-20466D01*
X14629Y-20383D01*
X14655Y-20382D01*
X14690Y-20347D01*
X14732Y-20347D01*
X14726Y-20356D01*
X14700Y-20490D01*
X14700Y-21899D01*
X14700Y-22033D01*
X14224Y-22509D01*
X14183Y-22509D01*
X14019Y-22577D01*
X13893Y-22703D01*
X13825Y-22867D01*
X13825Y-23045D01*
X13893Y-23209D01*
X14018Y-23335D01*
X14183Y-23403D01*
X14360Y-23403D01*
X14525Y-23335D01*
X14650Y-23210D01*
X14719Y-23045D01*
X14719Y-23004D01*
X15227Y-22496D01*
X15243Y-22533D01*
X15368Y-22658D01*
X15388Y-22667D01*
X15331Y-22805D01*
X15331Y-22982D01*
X15399Y-23147D01*
X15525Y-23272D01*
X15631Y-23317D01*
G54D10*
G36*
X22974Y-22605D02*
X22966Y-22605D01*
X22966Y-22612D01*
X22866Y-22612D01*
X22866Y-22605D01*
X22858Y-22605D01*
X22858Y-22505D01*
X22866Y-22505D01*
X22866Y-22497D01*
X22966Y-22497D01*
X22966Y-22505D01*
X22974Y-22505D01*
X22974Y-22605D01*
X22974Y-22605D01*
G37*
G54D34*
X22974Y-22605D02*
X22966Y-22605D01*
X22966Y-22612D01*
X22866Y-22612D01*
X22866Y-22605D01*
X22858Y-22605D01*
X22858Y-22505D01*
X22866Y-22505D01*
X22866Y-22497D01*
X22966Y-22497D01*
X22966Y-22505D01*
X22974Y-22505D01*
X22974Y-22605D01*
G54D10*
G36*
X29428Y-36676D02*
X29357Y-36747D01*
X29352Y-36741D01*
X29346Y-36747D01*
X29326Y-36726D01*
X29326Y-36614D01*
X29346Y-36594D01*
X29352Y-36600D01*
X29357Y-36594D01*
X29428Y-36665D01*
X29423Y-36670D01*
X29428Y-36676D01*
X29428Y-36676D01*
G37*
G54D34*
X29428Y-36676D02*
X29357Y-36747D01*
X29352Y-36741D01*
X29346Y-36747D01*
X29326Y-36726D01*
X29326Y-36614D01*
X29346Y-36594D01*
X29352Y-36600D01*
X29357Y-36594D01*
X29428Y-36665D01*
X29423Y-36670D01*
X29428Y-36676D01*
G54D10*
G36*
X29431Y-9550D02*
X29333Y-9451D01*
X29021Y-9322D01*
X28683Y-9321D01*
X28370Y-9451D01*
X28169Y-9651D01*
X28169Y-6726D01*
X28250Y-6645D01*
X28251Y-6646D01*
X28351Y-6646D01*
X28701Y-6646D01*
X28793Y-6608D01*
X28863Y-6537D01*
X28901Y-6446D01*
X28901Y-6346D01*
X28901Y-5796D01*
X28863Y-5704D01*
X28793Y-5634D01*
X28701Y-5596D01*
X28602Y-5596D01*
X28252Y-5596D01*
X28160Y-5633D01*
X28101Y-5692D01*
X28043Y-5634D01*
X28015Y-5622D01*
X28015Y-5197D01*
X28194Y-5019D01*
X28301Y-4761D01*
X28301Y-4483D01*
X28195Y-4226D01*
X28176Y-4207D01*
X28217Y-4207D01*
X28432Y-4118D01*
X28597Y-3953D01*
X28686Y-3738D01*
X28686Y-3506D01*
X28597Y-3291D01*
X28433Y-3126D01*
X28218Y-3037D01*
X27985Y-3036D01*
X27770Y-3125D01*
X27605Y-3290D01*
X27516Y-3505D01*
X27516Y-3737D01*
X27592Y-3922D01*
X27462Y-3921D01*
X27205Y-4028D01*
X27136Y-4096D01*
X27136Y-3417D01*
X26979Y-3036D01*
X26688Y-2745D01*
X26308Y-2587D01*
X25896Y-2586D01*
X25516Y-2744D01*
X25224Y-3035D01*
X25066Y-3415D01*
X25066Y-3827D01*
X25223Y-4207D01*
X25514Y-4498D01*
X25894Y-4656D01*
X26306Y-4657D01*
X26687Y-4499D01*
X26978Y-4209D01*
X27136Y-3828D01*
X27136Y-3417D01*
X27136Y-4096D01*
X27008Y-4225D01*
X26901Y-4482D01*
X26901Y-4760D01*
X27007Y-5018D01*
X27204Y-5215D01*
X27437Y-5311D01*
X27437Y-5622D01*
X27410Y-5633D01*
X27339Y-5704D01*
X27301Y-5796D01*
X27301Y-5895D01*
X27301Y-6317D01*
X25252Y-6317D01*
X25497Y-6215D01*
X25694Y-6019D01*
X25801Y-5761D01*
X25801Y-5483D01*
X25695Y-5226D01*
X25498Y-5028D01*
X25241Y-4922D01*
X24962Y-4921D01*
X24705Y-5028D01*
X24686Y-5047D01*
X24686Y-3506D01*
X24597Y-3291D01*
X24433Y-3126D01*
X24218Y-3037D01*
X23985Y-3036D01*
X23770Y-3125D01*
X23605Y-3290D01*
X23516Y-3505D01*
X23516Y-3737D01*
X23605Y-3952D01*
X23769Y-4117D01*
X23984Y-4206D01*
X24217Y-4207D01*
X24432Y-4118D01*
X24597Y-3953D01*
X24686Y-3738D01*
X24686Y-3506D01*
X24686Y-5047D01*
X24508Y-5225D01*
X24463Y-5332D01*
X22025Y-5332D01*
X20846Y-4153D01*
X20932Y-4118D01*
X21097Y-3953D01*
X21186Y-3738D01*
X21186Y-3506D01*
X21097Y-3291D01*
X20933Y-3126D01*
X20718Y-3037D01*
X20485Y-3036D01*
X20270Y-3125D01*
X20105Y-3290D01*
X20016Y-3505D01*
X20016Y-3737D01*
X20027Y-3763D01*
X19636Y-3763D01*
X19636Y-3417D01*
X19479Y-3036D01*
X19188Y-2745D01*
X18810Y-2588D01*
X24430Y-2588D01*
X24564Y-2561D01*
X24564Y-2561D01*
X24677Y-2485D01*
X25003Y-2160D01*
X25014Y-2187D01*
X25084Y-2257D01*
X25176Y-2296D01*
X25276Y-2296D01*
X26026Y-2296D01*
X26118Y-2258D01*
X26188Y-2187D01*
X26202Y-2154D01*
X26362Y-2261D01*
X26601Y-2309D01*
X26840Y-2261D01*
X27043Y-2126D01*
X27178Y-1923D01*
X27226Y-1684D01*
X27226Y-1557D01*
X27178Y-1318D01*
X27043Y-1115D01*
X26840Y-980D01*
X26601Y-932D01*
X26362Y-980D01*
X26202Y-1087D01*
X26188Y-1054D01*
X26118Y-984D01*
X26026Y-946D01*
X25927Y-946D01*
X25177Y-946D01*
X25085Y-983D01*
X25014Y-1054D01*
X24976Y-1146D01*
X24976Y-1245D01*
X24976Y-1285D01*
X24913Y-1297D01*
X24800Y-1373D01*
X24285Y-1888D01*
X19685Y-1888D01*
X19726Y-1684D01*
X19726Y-1557D01*
X19678Y-1318D01*
X19543Y-1115D01*
X19340Y-980D01*
X19101Y-932D01*
X18862Y-980D01*
X18702Y-1087D01*
X18688Y-1054D01*
X18618Y-984D01*
X18526Y-946D01*
X18427Y-946D01*
X17677Y-946D01*
X17585Y-983D01*
X17514Y-1054D01*
X17476Y-1146D01*
X17476Y-1245D01*
X17476Y-1285D01*
X17413Y-1297D01*
X17300Y-1373D01*
X16798Y-1874D01*
X16043Y-1874D01*
X16046Y-1871D01*
X16084Y-1779D01*
X16085Y-1679D01*
X16085Y-459D01*
X16047Y-367D01*
X15976Y-297D01*
X15884Y-258D01*
X15785Y-258D01*
X15391Y-258D01*
X15299Y-296D01*
X15229Y-367D01*
X15191Y-458D01*
X15191Y-558D01*
X15191Y-1778D01*
X15229Y-1870D01*
X15233Y-1874D01*
X14469Y-1874D01*
X14472Y-1871D01*
X14510Y-1779D01*
X14511Y-1679D01*
X14511Y-459D01*
X14473Y-367D01*
X14402Y-297D01*
X14310Y-258D01*
X14211Y-258D01*
X13817Y-258D01*
X13725Y-296D01*
X13655Y-367D01*
X13617Y-458D01*
X13617Y-558D01*
X13617Y-1778D01*
X13655Y-1870D01*
X13659Y-1874D01*
X12188Y-1874D01*
X12226Y-1684D01*
X12226Y-1557D01*
X12178Y-1318D01*
X12043Y-1115D01*
X11840Y-980D01*
X11601Y-932D01*
X11362Y-980D01*
X11202Y-1087D01*
X11188Y-1054D01*
X11118Y-984D01*
X11026Y-946D01*
X10926Y-946D01*
X10176Y-946D01*
X10084Y-983D01*
X10014Y-1054D01*
X9976Y-1146D01*
X9976Y-1245D01*
X9976Y-2095D01*
X10014Y-2187D01*
X10084Y-2257D01*
X10176Y-2296D01*
X10275Y-2296D01*
X10781Y-2296D01*
X10957Y-2472D01*
X11071Y-2548D01*
X11071Y-2548D01*
X11205Y-2574D01*
X16943Y-2574D01*
X17077Y-2548D01*
X17077Y-2548D01*
X17191Y-2472D01*
X17503Y-2160D01*
X17514Y-2187D01*
X17584Y-2257D01*
X17676Y-2296D01*
X17776Y-2296D01*
X18281Y-2296D01*
X18471Y-2485D01*
X18584Y-2561D01*
X18584Y-2561D01*
X18712Y-2587D01*
X18396Y-2586D01*
X18016Y-2744D01*
X17724Y-3035D01*
X17566Y-3415D01*
X17566Y-3827D01*
X17723Y-4207D01*
X18014Y-4498D01*
X18394Y-4656D01*
X18492Y-4656D01*
X18059Y-5089D01*
X17998Y-5028D01*
X17741Y-4922D01*
X17462Y-4921D01*
X17205Y-5028D01*
X17186Y-5047D01*
X17186Y-3506D01*
X17097Y-3291D01*
X16933Y-3126D01*
X16718Y-3037D01*
X16485Y-3036D01*
X16270Y-3125D01*
X16105Y-3290D01*
X16016Y-3505D01*
X16016Y-3737D01*
X16105Y-3952D01*
X16269Y-4117D01*
X16484Y-4206D01*
X16717Y-4207D01*
X16932Y-4118D01*
X17097Y-3953D01*
X17186Y-3738D01*
X17186Y-3506D01*
X17186Y-5047D01*
X17008Y-5225D01*
X16901Y-5482D01*
X16901Y-5760D01*
X17007Y-6018D01*
X17204Y-6215D01*
X17461Y-6321D01*
X17740Y-6322D01*
X17997Y-6215D01*
X18194Y-6019D01*
X18301Y-5761D01*
X18301Y-5666D01*
X19401Y-4566D01*
X19401Y-4760D01*
X19507Y-5018D01*
X19704Y-5215D01*
X19937Y-5311D01*
X19937Y-5622D01*
X19910Y-5633D01*
X19839Y-5704D01*
X19801Y-5796D01*
X19801Y-5895D01*
X19801Y-6445D01*
X19839Y-6537D01*
X19909Y-6607D01*
X20001Y-6646D01*
X20022Y-6646D01*
X19664Y-7003D01*
X19580Y-6801D01*
X19422Y-6642D01*
X19214Y-6556D01*
X18989Y-6556D01*
X18781Y-6641D01*
X18622Y-6800D01*
X18536Y-7008D01*
X18536Y-7232D01*
X18622Y-7440D01*
X18781Y-7599D01*
X18984Y-7684D01*
X16086Y-10582D01*
X16086Y-5282D01*
X16086Y-3963D01*
X16048Y-3871D01*
X15977Y-3800D01*
X15885Y-3762D01*
X15786Y-3762D01*
X15751Y-3762D01*
X15689Y-3825D01*
X15689Y-4573D01*
X16023Y-4573D01*
X16086Y-4510D01*
X16086Y-3963D01*
X16086Y-5282D01*
X16086Y-4735D01*
X16023Y-4673D01*
X15689Y-4673D01*
X15689Y-5420D01*
X15751Y-5483D01*
X15786Y-5483D01*
X15885Y-5483D01*
X15977Y-5445D01*
X16048Y-5374D01*
X16086Y-5282D01*
X16086Y-10582D01*
X15897Y-10770D01*
X15834Y-10864D01*
X15812Y-10975D01*
X15812Y-12068D01*
X15589Y-12292D01*
X15589Y-5420D01*
X15589Y-4673D01*
X15589Y-4573D01*
X15589Y-3825D01*
X15526Y-3762D01*
X15491Y-3762D01*
X15392Y-3762D01*
X15300Y-3800D01*
X15230Y-3871D01*
X15192Y-3963D01*
X15192Y-4510D01*
X15254Y-4573D01*
X15589Y-4573D01*
X15589Y-4673D01*
X15254Y-4673D01*
X15192Y-4735D01*
X15192Y-5282D01*
X15230Y-5374D01*
X15300Y-5445D01*
X15392Y-5483D01*
X15491Y-5483D01*
X15526Y-5483D01*
X15589Y-5420D01*
X15589Y-12292D01*
X15166Y-12714D01*
X15166Y-7009D01*
X15080Y-6801D01*
X14921Y-6642D01*
X14714Y-6556D01*
X14489Y-6556D01*
X14281Y-6641D01*
X14122Y-6800D01*
X14036Y-7008D01*
X14036Y-7232D01*
X14122Y-7440D01*
X14280Y-7599D01*
X14488Y-7685D01*
X14713Y-7686D01*
X14920Y-7600D01*
X15080Y-7441D01*
X15166Y-7233D01*
X15166Y-7009D01*
X15166Y-12714D01*
X14337Y-13543D01*
X14257Y-13462D01*
X14092Y-13394D01*
X13941Y-13394D01*
X13901Y-13367D01*
X13901Y-13296D01*
X13863Y-13204D01*
X13793Y-13134D01*
X13765Y-13122D01*
X13765Y-11694D01*
X13774Y-11685D01*
X13774Y-11685D01*
X13836Y-11591D01*
X13859Y-11481D01*
X13859Y-11481D01*
X13859Y-6607D01*
X13848Y-6552D01*
X13863Y-6537D01*
X13901Y-6446D01*
X13901Y-6346D01*
X13901Y-5796D01*
X13863Y-5704D01*
X13799Y-5640D01*
X14064Y-5640D01*
X14174Y-5618D01*
X14268Y-5556D01*
X14320Y-5479D01*
X14402Y-5445D01*
X14472Y-5375D01*
X14510Y-5283D01*
X14511Y-5183D01*
X14511Y-3963D01*
X14473Y-3871D01*
X14402Y-3800D01*
X14310Y-3762D01*
X14211Y-3762D01*
X13817Y-3762D01*
X13725Y-3800D01*
X13655Y-3870D01*
X13617Y-3962D01*
X13617Y-4062D01*
X13617Y-5063D01*
X13531Y-5080D01*
X13512Y-5084D01*
X13418Y-5146D01*
X12975Y-5590D01*
X12972Y-5585D01*
X12930Y-5523D01*
X12930Y-5523D01*
X12890Y-5482D01*
X12890Y-5258D01*
X12997Y-5214D01*
X13194Y-5018D01*
X13301Y-4760D01*
X13301Y-4482D01*
X13195Y-4225D01*
X13176Y-4206D01*
X13217Y-4206D01*
X13432Y-4117D01*
X13597Y-3952D01*
X13686Y-3737D01*
X13686Y-3505D01*
X13597Y-3290D01*
X13433Y-3125D01*
X13218Y-3036D01*
X12985Y-3035D01*
X12770Y-3124D01*
X12605Y-3289D01*
X12516Y-3504D01*
X12516Y-3736D01*
X12592Y-3921D01*
X12462Y-3920D01*
X12205Y-4027D01*
X12136Y-4095D01*
X12136Y-3416D01*
X11979Y-3035D01*
X11688Y-2744D01*
X11308Y-2586D01*
X10896Y-2585D01*
X10515Y-2743D01*
X10224Y-3034D01*
X10066Y-3414D01*
X10066Y-3826D01*
X10223Y-4206D01*
X10514Y-4497D01*
X10894Y-4655D01*
X11306Y-4656D01*
X11686Y-4499D01*
X11978Y-4208D01*
X12136Y-3827D01*
X12136Y-3416D01*
X12136Y-4095D01*
X12008Y-4224D01*
X11901Y-4481D01*
X11901Y-4759D01*
X12007Y-5017D01*
X12204Y-5214D01*
X12312Y-5258D01*
X12312Y-5602D01*
X12334Y-5713D01*
X12335Y-5715D01*
X12301Y-5796D01*
X12301Y-5895D01*
X12301Y-6445D01*
X12339Y-6537D01*
X12409Y-6607D01*
X12501Y-6646D01*
X12600Y-6646D01*
X12822Y-6646D01*
X12254Y-7214D01*
X12166Y-7213D01*
X12166Y-7009D01*
X12080Y-6801D01*
X11921Y-6642D01*
X11714Y-6556D01*
X11489Y-6556D01*
X11281Y-6641D01*
X11122Y-6800D01*
X11036Y-7008D01*
X11036Y-7232D01*
X11122Y-7440D01*
X11280Y-7599D01*
X11488Y-7685D01*
X11713Y-7686D01*
X11770Y-7662D01*
X11769Y-7749D01*
X11837Y-7913D01*
X11963Y-8039D01*
X12127Y-8107D01*
X12305Y-8107D01*
X12469Y-8039D01*
X12595Y-7914D01*
X12663Y-7750D01*
X12663Y-7623D01*
X13280Y-7006D01*
X13280Y-10561D01*
X13218Y-10536D01*
X12985Y-10535D01*
X12770Y-10624D01*
X12605Y-10789D01*
X12516Y-11004D01*
X12516Y-11236D01*
X12526Y-11262D01*
X12136Y-11262D01*
X12136Y-10916D01*
X11979Y-10535D01*
X11688Y-10244D01*
X11308Y-10086D01*
X10896Y-10085D01*
X10801Y-10125D01*
X10801Y-5482D01*
X10695Y-5225D01*
X10498Y-5027D01*
X10241Y-4921D01*
X9962Y-4920D01*
X9705Y-5027D01*
X9508Y-5224D01*
X9401Y-5481D01*
X9401Y-5759D01*
X9507Y-6017D01*
X9704Y-6214D01*
X9961Y-6320D01*
X10240Y-6321D01*
X10497Y-6214D01*
X10694Y-6018D01*
X10801Y-5760D01*
X10801Y-5482D01*
X10801Y-10125D01*
X10515Y-10243D01*
X10224Y-10534D01*
X10066Y-10914D01*
X10066Y-11326D01*
X10223Y-11706D01*
X10450Y-11934D01*
X9568Y-11934D01*
X9543Y-11872D01*
X9417Y-11747D01*
X9268Y-11685D01*
X9432Y-11617D01*
X9597Y-11452D01*
X9686Y-11237D01*
X9686Y-11005D01*
X9597Y-10790D01*
X9433Y-10625D01*
X9218Y-10536D01*
X8985Y-10535D01*
X8770Y-10624D01*
X8640Y-10754D01*
X8640Y-7171D01*
X8675Y-7171D01*
X8767Y-7133D01*
X8838Y-7062D01*
X8876Y-6971D01*
X8876Y-6871D01*
X8876Y-6521D01*
X8838Y-6429D01*
X8779Y-6371D01*
X8838Y-6312D01*
X8876Y-6221D01*
X8876Y-6121D01*
X8876Y-5771D01*
X8838Y-5679D01*
X8768Y-5609D01*
X8676Y-5571D01*
X8640Y-5571D01*
X8640Y-4245D01*
X8618Y-4134D01*
X8555Y-4040D01*
X8555Y-4040D01*
X8143Y-3628D01*
X8143Y-2892D01*
X8143Y-2499D01*
X7844Y-2499D01*
X7844Y-3124D01*
X7897Y-3175D01*
X8006Y-3124D01*
X8098Y-3022D01*
X8143Y-2892D01*
X8143Y-3628D01*
X7689Y-3174D01*
X7692Y-3175D01*
X7746Y-3124D01*
X7746Y-3074D01*
X7802Y-2990D01*
X7828Y-2857D01*
X7828Y-2391D01*
X7844Y-2391D01*
X7844Y-2399D01*
X8143Y-2399D01*
X8143Y-2005D01*
X8123Y-1947D01*
X8273Y-1885D01*
X8393Y-1765D01*
X8454Y-1619D01*
X8471Y-1661D01*
X8450Y-1710D01*
X8450Y-1809D01*
X8450Y-3187D01*
X8488Y-3279D01*
X8559Y-3350D01*
X8577Y-3357D01*
X8516Y-3504D01*
X8516Y-3736D01*
X8605Y-3952D01*
X8769Y-4116D01*
X8984Y-4205D01*
X9217Y-4206D01*
X9432Y-4117D01*
X9597Y-3952D01*
X9686Y-3737D01*
X9686Y-3505D01*
X9626Y-3359D01*
X9649Y-3350D01*
X9719Y-3279D01*
X9757Y-3188D01*
X9757Y-3088D01*
X9757Y-1710D01*
X9737Y-1661D01*
X9757Y-1612D01*
X9757Y-1513D01*
X9757Y-240D01*
X28923Y-240D01*
X28899Y-313D01*
X28911Y-491D01*
X28955Y-596D01*
X29040Y-611D01*
X29280Y-371D01*
X29274Y-365D01*
X29345Y-294D01*
X29351Y-300D01*
X29356Y-294D01*
X29427Y-365D01*
X29421Y-371D01*
X29427Y-376D01*
X29356Y-447D01*
X29351Y-441D01*
X29110Y-682D01*
X29125Y-766D01*
X29294Y-823D01*
X29431Y-813D01*
X29431Y-9550D01*
X29431Y-9550D01*
G37*
G54D34*
X29431Y-9550D02*
X29333Y-9451D01*
X29021Y-9322D01*
X28683Y-9321D01*
X28370Y-9451D01*
X28169Y-9651D01*
X28169Y-6726D01*
X28250Y-6645D01*
X28251Y-6646D01*
X28351Y-6646D01*
X28701Y-6646D01*
X28793Y-6608D01*
X28863Y-6537D01*
X28901Y-6446D01*
X28901Y-6346D01*
X28901Y-5796D01*
X28863Y-5704D01*
X28793Y-5634D01*
X28701Y-5596D01*
X28602Y-5596D01*
X28252Y-5596D01*
X28160Y-5633D01*
X28101Y-5692D01*
X28043Y-5634D01*
X28015Y-5622D01*
X28015Y-5197D01*
X28194Y-5019D01*
X28301Y-4761D01*
X28301Y-4483D01*
X28195Y-4226D01*
X28176Y-4207D01*
X28217Y-4207D01*
X28432Y-4118D01*
X28597Y-3953D01*
X28686Y-3738D01*
X28686Y-3506D01*
X28597Y-3291D01*
X28433Y-3126D01*
X28218Y-3037D01*
X27985Y-3036D01*
X27770Y-3125D01*
X27605Y-3290D01*
X27516Y-3505D01*
X27516Y-3737D01*
X27592Y-3922D01*
X27462Y-3921D01*
X27205Y-4028D01*
X27136Y-4096D01*
X27136Y-3417D01*
X26979Y-3036D01*
X26688Y-2745D01*
X26308Y-2587D01*
X25896Y-2586D01*
X25516Y-2744D01*
X25224Y-3035D01*
X25066Y-3415D01*
X25066Y-3827D01*
X25223Y-4207D01*
X25514Y-4498D01*
X25894Y-4656D01*
X26306Y-4657D01*
X26687Y-4499D01*
X26978Y-4209D01*
X27136Y-3828D01*
X27136Y-3417D01*
X27136Y-4096D01*
X27008Y-4225D01*
X26901Y-4482D01*
X26901Y-4760D01*
X27007Y-5018D01*
X27204Y-5215D01*
X27437Y-5311D01*
X27437Y-5622D01*
X27410Y-5633D01*
X27339Y-5704D01*
X27301Y-5796D01*
X27301Y-5895D01*
X27301Y-6317D01*
X25252Y-6317D01*
X25497Y-6215D01*
X25694Y-6019D01*
X25801Y-5761D01*
X25801Y-5483D01*
X25695Y-5226D01*
X25498Y-5028D01*
X25241Y-4922D01*
X24962Y-4921D01*
X24705Y-5028D01*
X24686Y-5047D01*
X24686Y-3506D01*
X24597Y-3291D01*
X24433Y-3126D01*
X24218Y-3037D01*
X23985Y-3036D01*
X23770Y-3125D01*
X23605Y-3290D01*
X23516Y-3505D01*
X23516Y-3737D01*
X23605Y-3952D01*
X23769Y-4117D01*
X23984Y-4206D01*
X24217Y-4207D01*
X24432Y-4118D01*
X24597Y-3953D01*
X24686Y-3738D01*
X24686Y-3506D01*
X24686Y-5047D01*
X24508Y-5225D01*
X24463Y-5332D01*
X22025Y-5332D01*
X20846Y-4153D01*
X20932Y-4118D01*
X21097Y-3953D01*
X21186Y-3738D01*
X21186Y-3506D01*
X21097Y-3291D01*
X20933Y-3126D01*
X20718Y-3037D01*
X20485Y-3036D01*
X20270Y-3125D01*
X20105Y-3290D01*
X20016Y-3505D01*
X20016Y-3737D01*
X20027Y-3763D01*
X19636Y-3763D01*
X19636Y-3417D01*
X19479Y-3036D01*
X19188Y-2745D01*
X18810Y-2588D01*
X24430Y-2588D01*
X24564Y-2561D01*
X24564Y-2561D01*
X24677Y-2485D01*
X25003Y-2160D01*
X25014Y-2187D01*
X25084Y-2257D01*
X25176Y-2296D01*
X25276Y-2296D01*
X26026Y-2296D01*
X26118Y-2258D01*
X26188Y-2187D01*
X26202Y-2154D01*
X26362Y-2261D01*
X26601Y-2309D01*
X26840Y-2261D01*
X27043Y-2126D01*
X27178Y-1923D01*
X27226Y-1684D01*
X27226Y-1557D01*
X27178Y-1318D01*
X27043Y-1115D01*
X26840Y-980D01*
X26601Y-932D01*
X26362Y-980D01*
X26202Y-1087D01*
X26188Y-1054D01*
X26118Y-984D01*
X26026Y-946D01*
X25927Y-946D01*
X25177Y-946D01*
X25085Y-983D01*
X25014Y-1054D01*
X24976Y-1146D01*
X24976Y-1245D01*
X24976Y-1285D01*
X24913Y-1297D01*
X24800Y-1373D01*
X24285Y-1888D01*
X19685Y-1888D01*
X19726Y-1684D01*
X19726Y-1557D01*
X19678Y-1318D01*
X19543Y-1115D01*
X19340Y-980D01*
X19101Y-932D01*
X18862Y-980D01*
X18702Y-1087D01*
X18688Y-1054D01*
X18618Y-984D01*
X18526Y-946D01*
X18427Y-946D01*
X17677Y-946D01*
X17585Y-983D01*
X17514Y-1054D01*
X17476Y-1146D01*
X17476Y-1245D01*
X17476Y-1285D01*
X17413Y-1297D01*
X17300Y-1373D01*
X16798Y-1874D01*
X16043Y-1874D01*
X16046Y-1871D01*
X16084Y-1779D01*
X16085Y-1679D01*
X16085Y-459D01*
X16047Y-367D01*
X15976Y-297D01*
X15884Y-258D01*
X15785Y-258D01*
X15391Y-258D01*
X15299Y-296D01*
X15229Y-367D01*
X15191Y-458D01*
X15191Y-558D01*
X15191Y-1778D01*
X15229Y-1870D01*
X15233Y-1874D01*
X14469Y-1874D01*
X14472Y-1871D01*
X14510Y-1779D01*
X14511Y-1679D01*
X14511Y-459D01*
X14473Y-367D01*
X14402Y-297D01*
X14310Y-258D01*
X14211Y-258D01*
X13817Y-258D01*
X13725Y-296D01*
X13655Y-367D01*
X13617Y-458D01*
X13617Y-558D01*
X13617Y-1778D01*
X13655Y-1870D01*
X13659Y-1874D01*
X12188Y-1874D01*
X12226Y-1684D01*
X12226Y-1557D01*
X12178Y-1318D01*
X12043Y-1115D01*
X11840Y-980D01*
X11601Y-932D01*
X11362Y-980D01*
X11202Y-1087D01*
X11188Y-1054D01*
X11118Y-984D01*
X11026Y-946D01*
X10926Y-946D01*
X10176Y-946D01*
X10084Y-983D01*
X10014Y-1054D01*
X9976Y-1146D01*
X9976Y-1245D01*
X9976Y-2095D01*
X10014Y-2187D01*
X10084Y-2257D01*
X10176Y-2296D01*
X10275Y-2296D01*
X10781Y-2296D01*
X10957Y-2472D01*
X11071Y-2548D01*
X11071Y-2548D01*
X11205Y-2574D01*
X16943Y-2574D01*
X17077Y-2548D01*
X17077Y-2548D01*
X17191Y-2472D01*
X17503Y-2160D01*
X17514Y-2187D01*
X17584Y-2257D01*
X17676Y-2296D01*
X17776Y-2296D01*
X18281Y-2296D01*
X18471Y-2485D01*
X18584Y-2561D01*
X18584Y-2561D01*
X18712Y-2587D01*
X18396Y-2586D01*
X18016Y-2744D01*
X17724Y-3035D01*
X17566Y-3415D01*
X17566Y-3827D01*
X17723Y-4207D01*
X18014Y-4498D01*
X18394Y-4656D01*
X18492Y-4656D01*
X18059Y-5089D01*
X17998Y-5028D01*
X17741Y-4922D01*
X17462Y-4921D01*
X17205Y-5028D01*
X17186Y-5047D01*
X17186Y-3506D01*
X17097Y-3291D01*
X16933Y-3126D01*
X16718Y-3037D01*
X16485Y-3036D01*
X16270Y-3125D01*
X16105Y-3290D01*
X16016Y-3505D01*
X16016Y-3737D01*
X16105Y-3952D01*
X16269Y-4117D01*
X16484Y-4206D01*
X16717Y-4207D01*
X16932Y-4118D01*
X17097Y-3953D01*
X17186Y-3738D01*
X17186Y-3506D01*
X17186Y-5047D01*
X17008Y-5225D01*
X16901Y-5482D01*
X16901Y-5760D01*
X17007Y-6018D01*
X17204Y-6215D01*
X17461Y-6321D01*
X17740Y-6322D01*
X17997Y-6215D01*
X18194Y-6019D01*
X18301Y-5761D01*
X18301Y-5666D01*
X19401Y-4566D01*
X19401Y-4760D01*
X19507Y-5018D01*
X19704Y-5215D01*
X19937Y-5311D01*
X19937Y-5622D01*
X19910Y-5633D01*
X19839Y-5704D01*
X19801Y-5796D01*
X19801Y-5895D01*
X19801Y-6445D01*
X19839Y-6537D01*
X19909Y-6607D01*
X20001Y-6646D01*
X20022Y-6646D01*
X19664Y-7003D01*
X19580Y-6801D01*
X19422Y-6642D01*
X19214Y-6556D01*
X18989Y-6556D01*
X18781Y-6641D01*
X18622Y-6800D01*
X18536Y-7008D01*
X18536Y-7232D01*
X18622Y-7440D01*
X18781Y-7599D01*
X18984Y-7684D01*
X16086Y-10582D01*
X16086Y-5282D01*
X16086Y-3963D01*
X16048Y-3871D01*
X15977Y-3800D01*
X15885Y-3762D01*
X15786Y-3762D01*
X15751Y-3762D01*
X15689Y-3825D01*
X15689Y-4573D01*
X16023Y-4573D01*
X16086Y-4510D01*
X16086Y-3963D01*
X16086Y-5282D01*
X16086Y-4735D01*
X16023Y-4673D01*
X15689Y-4673D01*
X15689Y-5420D01*
X15751Y-5483D01*
X15786Y-5483D01*
X15885Y-5483D01*
X15977Y-5445D01*
X16048Y-5374D01*
X16086Y-5282D01*
X16086Y-10582D01*
X15897Y-10770D01*
X15834Y-10864D01*
X15812Y-10975D01*
X15812Y-12068D01*
X15589Y-12292D01*
X15589Y-5420D01*
X15589Y-4673D01*
X15589Y-4573D01*
X15589Y-3825D01*
X15526Y-3762D01*
X15491Y-3762D01*
X15392Y-3762D01*
X15300Y-3800D01*
X15230Y-3871D01*
X15192Y-3963D01*
X15192Y-4510D01*
X15254Y-4573D01*
X15589Y-4573D01*
X15589Y-4673D01*
X15254Y-4673D01*
X15192Y-4735D01*
X15192Y-5282D01*
X15230Y-5374D01*
X15300Y-5445D01*
X15392Y-5483D01*
X15491Y-5483D01*
X15526Y-5483D01*
X15589Y-5420D01*
X15589Y-12292D01*
X15166Y-12714D01*
X15166Y-7009D01*
X15080Y-6801D01*
X14921Y-6642D01*
X14714Y-6556D01*
X14489Y-6556D01*
X14281Y-6641D01*
X14122Y-6800D01*
X14036Y-7008D01*
X14036Y-7232D01*
X14122Y-7440D01*
X14280Y-7599D01*
X14488Y-7685D01*
X14713Y-7686D01*
X14920Y-7600D01*
X15080Y-7441D01*
X15166Y-7233D01*
X15166Y-7009D01*
X15166Y-12714D01*
X14337Y-13543D01*
X14257Y-13462D01*
X14092Y-13394D01*
X13941Y-13394D01*
X13901Y-13367D01*
X13901Y-13296D01*
X13863Y-13204D01*
X13793Y-13134D01*
X13765Y-13122D01*
X13765Y-11694D01*
X13774Y-11685D01*
X13774Y-11685D01*
X13836Y-11591D01*
X13859Y-11481D01*
X13859Y-11481D01*
X13859Y-6607D01*
X13848Y-6552D01*
X13863Y-6537D01*
X13901Y-6446D01*
X13901Y-6346D01*
X13901Y-5796D01*
X13863Y-5704D01*
X13799Y-5640D01*
X14064Y-5640D01*
X14174Y-5618D01*
X14268Y-5556D01*
X14320Y-5479D01*
X14402Y-5445D01*
X14472Y-5375D01*
X14510Y-5283D01*
X14511Y-5183D01*
X14511Y-3963D01*
X14473Y-3871D01*
X14402Y-3800D01*
X14310Y-3762D01*
X14211Y-3762D01*
X13817Y-3762D01*
X13725Y-3800D01*
X13655Y-3870D01*
X13617Y-3962D01*
X13617Y-4062D01*
X13617Y-5063D01*
X13531Y-5080D01*
X13512Y-5084D01*
X13418Y-5146D01*
X12975Y-5590D01*
X12972Y-5585D01*
X12930Y-5523D01*
X12930Y-5523D01*
X12890Y-5482D01*
X12890Y-5258D01*
X12997Y-5214D01*
X13194Y-5018D01*
X13301Y-4760D01*
X13301Y-4482D01*
X13195Y-4225D01*
X13176Y-4206D01*
X13217Y-4206D01*
X13432Y-4117D01*
X13597Y-3952D01*
X13686Y-3737D01*
X13686Y-3505D01*
X13597Y-3290D01*
X13433Y-3125D01*
X13218Y-3036D01*
X12985Y-3035D01*
X12770Y-3124D01*
X12605Y-3289D01*
X12516Y-3504D01*
X12516Y-3736D01*
X12592Y-3921D01*
X12462Y-3920D01*
X12205Y-4027D01*
X12136Y-4095D01*
X12136Y-3416D01*
X11979Y-3035D01*
X11688Y-2744D01*
X11308Y-2586D01*
X10896Y-2585D01*
X10515Y-2743D01*
X10224Y-3034D01*
X10066Y-3414D01*
X10066Y-3826D01*
X10223Y-4206D01*
X10514Y-4497D01*
X10894Y-4655D01*
X11306Y-4656D01*
X11686Y-4499D01*
X11978Y-4208D01*
X12136Y-3827D01*
X12136Y-3416D01*
X12136Y-4095D01*
X12008Y-4224D01*
X11901Y-4481D01*
X11901Y-4759D01*
X12007Y-5017D01*
X12204Y-5214D01*
X12312Y-5258D01*
X12312Y-5602D01*
X12334Y-5713D01*
X12335Y-5715D01*
X12301Y-5796D01*
X12301Y-5895D01*
X12301Y-6445D01*
X12339Y-6537D01*
X12409Y-6607D01*
X12501Y-6646D01*
X12600Y-6646D01*
X12822Y-6646D01*
X12254Y-7214D01*
X12166Y-7213D01*
X12166Y-7009D01*
X12080Y-6801D01*
X11921Y-6642D01*
X11714Y-6556D01*
X11489Y-6556D01*
X11281Y-6641D01*
X11122Y-6800D01*
X11036Y-7008D01*
X11036Y-7232D01*
X11122Y-7440D01*
X11280Y-7599D01*
X11488Y-7685D01*
X11713Y-7686D01*
X11770Y-7662D01*
X11769Y-7749D01*
X11837Y-7913D01*
X11963Y-8039D01*
X12127Y-8107D01*
X12305Y-8107D01*
X12469Y-8039D01*
X12595Y-7914D01*
X12663Y-7750D01*
X12663Y-7623D01*
X13280Y-7006D01*
X13280Y-10561D01*
X13218Y-10536D01*
X12985Y-10535D01*
X12770Y-10624D01*
X12605Y-10789D01*
X12516Y-11004D01*
X12516Y-11236D01*
X12526Y-11262D01*
X12136Y-11262D01*
X12136Y-10916D01*
X11979Y-10535D01*
X11688Y-10244D01*
X11308Y-10086D01*
X10896Y-10085D01*
X10801Y-10125D01*
X10801Y-5482D01*
X10695Y-5225D01*
X10498Y-5027D01*
X10241Y-4921D01*
X9962Y-4920D01*
X9705Y-5027D01*
X9508Y-5224D01*
X9401Y-5481D01*
X9401Y-5759D01*
X9507Y-6017D01*
X9704Y-6214D01*
X9961Y-6320D01*
X10240Y-6321D01*
X10497Y-6214D01*
X10694Y-6018D01*
X10801Y-5760D01*
X10801Y-5482D01*
X10801Y-10125D01*
X10515Y-10243D01*
X10224Y-10534D01*
X10066Y-10914D01*
X10066Y-11326D01*
X10223Y-11706D01*
X10450Y-11934D01*
X9568Y-11934D01*
X9543Y-11872D01*
X9417Y-11747D01*
X9268Y-11685D01*
X9432Y-11617D01*
X9597Y-11452D01*
X9686Y-11237D01*
X9686Y-11005D01*
X9597Y-10790D01*
X9433Y-10625D01*
X9218Y-10536D01*
X8985Y-10535D01*
X8770Y-10624D01*
X8640Y-10754D01*
X8640Y-7171D01*
X8675Y-7171D01*
X8767Y-7133D01*
X8838Y-7062D01*
X8876Y-6971D01*
X8876Y-6871D01*
X8876Y-6521D01*
X8838Y-6429D01*
X8779Y-6371D01*
X8838Y-6312D01*
X8876Y-6221D01*
X8876Y-6121D01*
X8876Y-5771D01*
X8838Y-5679D01*
X8768Y-5609D01*
X8676Y-5571D01*
X8640Y-5571D01*
X8640Y-4245D01*
X8618Y-4134D01*
X8555Y-4040D01*
X8555Y-4040D01*
X8143Y-3628D01*
X8143Y-2892D01*
X8143Y-2499D01*
X7844Y-2499D01*
X7844Y-3124D01*
X7897Y-3175D01*
X8006Y-3124D01*
X8098Y-3022D01*
X8143Y-2892D01*
X8143Y-3628D01*
X7689Y-3174D01*
X7692Y-3175D01*
X7746Y-3124D01*
X7746Y-3074D01*
X7802Y-2990D01*
X7828Y-2857D01*
X7828Y-2391D01*
X7844Y-2391D01*
X7844Y-2399D01*
X8143Y-2399D01*
X8143Y-2005D01*
X8123Y-1947D01*
X8273Y-1885D01*
X8393Y-1765D01*
X8454Y-1619D01*
X8471Y-1661D01*
X8450Y-1710D01*
X8450Y-1809D01*
X8450Y-3187D01*
X8488Y-3279D01*
X8559Y-3350D01*
X8577Y-3357D01*
X8516Y-3504D01*
X8516Y-3736D01*
X8605Y-3952D01*
X8769Y-4116D01*
X8984Y-4205D01*
X9217Y-4206D01*
X9432Y-4117D01*
X9597Y-3952D01*
X9686Y-3737D01*
X9686Y-3505D01*
X9626Y-3359D01*
X9649Y-3350D01*
X9719Y-3279D01*
X9757Y-3188D01*
X9757Y-3088D01*
X9757Y-1710D01*
X9737Y-1661D01*
X9757Y-1612D01*
X9757Y-1513D01*
X9757Y-240D01*
X28923Y-240D01*
X28899Y-313D01*
X28911Y-491D01*
X28955Y-596D01*
X29040Y-611D01*
X29280Y-371D01*
X29274Y-365D01*
X29345Y-294D01*
X29351Y-300D01*
X29356Y-294D01*
X29427Y-365D01*
X29421Y-371D01*
X29427Y-376D01*
X29356Y-447D01*
X29351Y-441D01*
X29110Y-682D01*
X29125Y-766D01*
X29294Y-823D01*
X29431Y-813D01*
X29431Y-9550D01*
G54D10*
G36*
X29431Y-43927D02*
X29408Y-43920D01*
X29230Y-43932D01*
X29125Y-43976D01*
X29110Y-44060D01*
X29351Y-44301D01*
X29356Y-44295D01*
X29427Y-44366D01*
X29421Y-44372D01*
X29427Y-44377D01*
X29356Y-44448D01*
X29351Y-44442D01*
X29345Y-44448D01*
X29274Y-44377D01*
X29280Y-44372D01*
X29040Y-44131D01*
X28955Y-44146D01*
X28899Y-44314D01*
X28908Y-44451D01*
X25801Y-44451D01*
X25801Y-42983D01*
X25695Y-42726D01*
X25498Y-42528D01*
X25241Y-42422D01*
X24962Y-42421D01*
X24705Y-42528D01*
X24686Y-42547D01*
X24686Y-41006D01*
X24597Y-40791D01*
X24433Y-40626D01*
X24218Y-40537D01*
X23985Y-40536D01*
X23770Y-40625D01*
X23649Y-40746D01*
X23649Y-37232D01*
X23581Y-37068D01*
X23455Y-36942D01*
X23291Y-36874D01*
X23113Y-36873D01*
X22949Y-36941D01*
X22823Y-37067D01*
X22755Y-37231D01*
X22755Y-37409D01*
X22823Y-37573D01*
X22948Y-37699D01*
X23113Y-37767D01*
X23290Y-37767D01*
X23455Y-37699D01*
X23580Y-37574D01*
X23649Y-37410D01*
X23649Y-37232D01*
X23649Y-40746D01*
X23605Y-40790D01*
X23516Y-41005D01*
X23516Y-41237D01*
X23541Y-41297D01*
X23438Y-41195D01*
X23058Y-41037D01*
X22646Y-41036D01*
X22266Y-41194D01*
X21974Y-41485D01*
X21816Y-41865D01*
X21816Y-42277D01*
X21973Y-42657D01*
X22264Y-42948D01*
X22644Y-43106D01*
X23056Y-43107D01*
X23437Y-42949D01*
X23728Y-42659D01*
X23886Y-42278D01*
X23886Y-41867D01*
X23786Y-41624D01*
X23984Y-41706D01*
X24217Y-41707D01*
X24432Y-41618D01*
X24597Y-41453D01*
X24686Y-41238D01*
X24686Y-41006D01*
X24686Y-42547D01*
X24508Y-42725D01*
X24401Y-42982D01*
X24401Y-43260D01*
X24507Y-43518D01*
X24704Y-43715D01*
X24961Y-43821D01*
X25240Y-43822D01*
X25497Y-43715D01*
X25694Y-43519D01*
X25801Y-43261D01*
X25801Y-42983D01*
X25801Y-44451D01*
X18301Y-44451D01*
X18301Y-42983D01*
X18195Y-42726D01*
X17998Y-42528D01*
X17741Y-42422D01*
X17462Y-42421D01*
X17205Y-42528D01*
X17186Y-42547D01*
X17186Y-41006D01*
X17097Y-40791D01*
X16933Y-40626D01*
X16718Y-40537D01*
X16485Y-40536D01*
X16270Y-40625D01*
X16149Y-40746D01*
X16149Y-37232D01*
X16081Y-37068D01*
X15955Y-36942D01*
X15791Y-36874D01*
X15613Y-36873D01*
X15449Y-36941D01*
X15323Y-37067D01*
X15255Y-37231D01*
X15255Y-37409D01*
X15323Y-37573D01*
X15448Y-37699D01*
X15613Y-37767D01*
X15790Y-37767D01*
X15955Y-37699D01*
X16080Y-37574D01*
X16149Y-37410D01*
X16149Y-37232D01*
X16149Y-40746D01*
X16105Y-40790D01*
X16016Y-41005D01*
X16016Y-41237D01*
X16105Y-41452D01*
X16269Y-41617D01*
X16484Y-41706D01*
X16717Y-41707D01*
X16932Y-41618D01*
X17097Y-41453D01*
X17186Y-41238D01*
X17186Y-41006D01*
X17186Y-42547D01*
X17008Y-42725D01*
X16901Y-42982D01*
X16901Y-43260D01*
X17007Y-43518D01*
X17204Y-43715D01*
X17461Y-43821D01*
X17740Y-43822D01*
X17997Y-43715D01*
X18194Y-43519D01*
X18301Y-43261D01*
X18301Y-42983D01*
X18301Y-44451D01*
X14649Y-44451D01*
X14651Y-44446D01*
X14651Y-44347D01*
X14651Y-43797D01*
X14613Y-43705D01*
X14543Y-43635D01*
X14451Y-43597D01*
X14351Y-43597D01*
X14173Y-43597D01*
X14173Y-37767D01*
X14290Y-37767D01*
X14455Y-37699D01*
X14580Y-37574D01*
X14649Y-37410D01*
X14649Y-37232D01*
X14581Y-37068D01*
X14455Y-36942D01*
X14347Y-36897D01*
X14450Y-36897D01*
X14542Y-36859D01*
X14613Y-36788D01*
X14651Y-36696D01*
X14651Y-36661D01*
X17680Y-36661D01*
X17680Y-36661D01*
X17791Y-36639D01*
X17885Y-36576D01*
X18386Y-36075D01*
X18386Y-36075D01*
X18428Y-36012D01*
X18449Y-35981D01*
X18449Y-35981D01*
X18471Y-35871D01*
X18471Y-35871D01*
X18471Y-34728D01*
X18456Y-34655D01*
X18806Y-34656D01*
X19187Y-34498D01*
X19478Y-34207D01*
X19636Y-33827D01*
X19636Y-33415D01*
X19479Y-33035D01*
X19188Y-32743D01*
X18808Y-32586D01*
X18396Y-32585D01*
X18016Y-32742D01*
X17724Y-33033D01*
X17572Y-33399D01*
X17572Y-32134D01*
X17550Y-32023D01*
X17488Y-31930D01*
X17488Y-31930D01*
X13974Y-28416D01*
X13901Y-28367D01*
X13901Y-28296D01*
X13863Y-28204D01*
X13793Y-28134D01*
X13765Y-28122D01*
X13765Y-27835D01*
X14167Y-27434D01*
X14293Y-27434D01*
X14457Y-27366D01*
X14583Y-27240D01*
X14651Y-27076D01*
X14651Y-26961D01*
X16033Y-26961D01*
X16945Y-27874D01*
X16901Y-27981D01*
X16901Y-28259D01*
X17007Y-28516D01*
X17204Y-28713D01*
X17461Y-28820D01*
X17740Y-28820D01*
X17997Y-28714D01*
X18194Y-28517D01*
X18301Y-28260D01*
X18301Y-27982D01*
X18195Y-27724D01*
X17998Y-27527D01*
X17741Y-27420D01*
X17462Y-27420D01*
X17355Y-27465D01*
X16595Y-26705D01*
X16717Y-26705D01*
X16932Y-26617D01*
X17097Y-26452D01*
X17186Y-26237D01*
X17186Y-26005D01*
X17097Y-25789D01*
X16933Y-25625D01*
X16878Y-25602D01*
X16997Y-25483D01*
X17774Y-25483D01*
X17724Y-25533D01*
X17566Y-25914D01*
X17566Y-26325D01*
X17723Y-26706D01*
X18014Y-26997D01*
X18394Y-27155D01*
X18806Y-27156D01*
X19187Y-26998D01*
X19478Y-26707D01*
X19636Y-26327D01*
X19636Y-25915D01*
X19479Y-25535D01*
X19428Y-25483D01*
X19842Y-25483D01*
X19842Y-26347D01*
X19864Y-26457D01*
X19866Y-26460D01*
X19705Y-26527D01*
X19508Y-26723D01*
X19401Y-26981D01*
X19401Y-27259D01*
X19507Y-27516D01*
X19704Y-27713D01*
X19812Y-27758D01*
X19812Y-28132D01*
X19810Y-28133D01*
X19739Y-28204D01*
X19701Y-28295D01*
X19701Y-28395D01*
X19701Y-28945D01*
X19739Y-29037D01*
X19809Y-29107D01*
X19901Y-29145D01*
X20001Y-29145D01*
X20351Y-29145D01*
X20443Y-29107D01*
X20501Y-29049D01*
X20559Y-29107D01*
X20612Y-29129D01*
X20671Y-29218D01*
X20765Y-29312D01*
X20765Y-33055D01*
X20718Y-33035D01*
X20485Y-33035D01*
X20270Y-33124D01*
X20105Y-33289D01*
X20016Y-33503D01*
X20016Y-33736D01*
X20092Y-33920D01*
X19962Y-33920D01*
X19705Y-34027D01*
X19508Y-34223D01*
X19401Y-34481D01*
X19401Y-34759D01*
X19507Y-35016D01*
X19704Y-35213D01*
X19937Y-35310D01*
X19937Y-35622D01*
X19910Y-35633D01*
X19839Y-35704D01*
X19801Y-35795D01*
X19801Y-35895D01*
X19801Y-36445D01*
X19839Y-36537D01*
X19909Y-36607D01*
X20001Y-36645D01*
X20101Y-36645D01*
X20451Y-36645D01*
X20543Y-36607D01*
X20601Y-36549D01*
X20659Y-36607D01*
X20712Y-36629D01*
X20771Y-36718D01*
X20789Y-36736D01*
X20789Y-40566D01*
X20718Y-40537D01*
X20649Y-40537D01*
X20649Y-37232D01*
X20581Y-37068D01*
X20455Y-36942D01*
X20291Y-36874D01*
X20113Y-36873D01*
X19949Y-36941D01*
X19823Y-37067D01*
X19755Y-37231D01*
X19755Y-37409D01*
X19823Y-37573D01*
X19948Y-37699D01*
X20113Y-37767D01*
X20290Y-37767D01*
X20455Y-37699D01*
X20580Y-37574D01*
X20649Y-37410D01*
X20649Y-37232D01*
X20649Y-40537D01*
X20485Y-40536D01*
X20270Y-40625D01*
X20105Y-40790D01*
X20016Y-41005D01*
X20016Y-41237D01*
X20092Y-41422D01*
X19962Y-41421D01*
X19705Y-41528D01*
X19636Y-41596D01*
X19636Y-40917D01*
X19479Y-40536D01*
X19188Y-40245D01*
X19149Y-40228D01*
X19149Y-37232D01*
X19081Y-37068D01*
X18955Y-36942D01*
X18791Y-36874D01*
X18613Y-36873D01*
X18449Y-36941D01*
X18323Y-37067D01*
X18255Y-37231D01*
X18255Y-37409D01*
X18323Y-37573D01*
X18448Y-37699D01*
X18613Y-37767D01*
X18790Y-37767D01*
X18955Y-37699D01*
X19080Y-37574D01*
X19149Y-37410D01*
X19149Y-37232D01*
X19149Y-40228D01*
X18808Y-40087D01*
X18396Y-40086D01*
X18016Y-40244D01*
X17724Y-40535D01*
X17649Y-40716D01*
X17649Y-37232D01*
X17581Y-37068D01*
X17455Y-36942D01*
X17291Y-36874D01*
X17113Y-36873D01*
X16949Y-36941D01*
X16823Y-37067D01*
X16755Y-37231D01*
X16755Y-37409D01*
X16823Y-37573D01*
X16948Y-37699D01*
X17113Y-37767D01*
X17290Y-37767D01*
X17455Y-37699D01*
X17580Y-37574D01*
X17649Y-37410D01*
X17649Y-37232D01*
X17649Y-40716D01*
X17566Y-40915D01*
X17566Y-41327D01*
X17723Y-41707D01*
X18014Y-41998D01*
X18394Y-42156D01*
X18806Y-42157D01*
X19187Y-41999D01*
X19478Y-41709D01*
X19636Y-41328D01*
X19636Y-40917D01*
X19636Y-41596D01*
X19508Y-41725D01*
X19401Y-41982D01*
X19401Y-42260D01*
X19507Y-42518D01*
X19704Y-42715D01*
X19937Y-42811D01*
X19937Y-43123D01*
X19910Y-43134D01*
X19839Y-43205D01*
X19801Y-43297D01*
X19801Y-43396D01*
X19801Y-43946D01*
X19839Y-44038D01*
X19909Y-44108D01*
X20001Y-44147D01*
X20101Y-44147D01*
X20451Y-44147D01*
X20543Y-44109D01*
X20601Y-44050D01*
X20659Y-44108D01*
X20751Y-44147D01*
X20851Y-44147D01*
X21201Y-44147D01*
X21293Y-44109D01*
X21363Y-44038D01*
X21401Y-43946D01*
X21401Y-43847D01*
X21401Y-43297D01*
X21363Y-43205D01*
X21354Y-43196D01*
X21368Y-43126D01*
X21368Y-43126D01*
X21368Y-37619D01*
X21448Y-37699D01*
X21613Y-37767D01*
X21790Y-37767D01*
X21955Y-37699D01*
X22080Y-37574D01*
X22149Y-37410D01*
X22149Y-37232D01*
X22081Y-37068D01*
X21955Y-36942D01*
X21791Y-36874D01*
X21613Y-36873D01*
X21449Y-36941D01*
X21368Y-37022D01*
X21368Y-36616D01*
X21368Y-36616D01*
X21354Y-36546D01*
X21363Y-36537D01*
X21401Y-36445D01*
X21401Y-36346D01*
X21401Y-35796D01*
X21363Y-35704D01*
X21338Y-35679D01*
X21344Y-35649D01*
X21344Y-35649D01*
X21344Y-29192D01*
X21344Y-29192D01*
X21322Y-29081D01*
X21322Y-29081D01*
X21301Y-29050D01*
X21274Y-29010D01*
X21274Y-29010D01*
X21301Y-28945D01*
X21301Y-28846D01*
X21301Y-28296D01*
X21263Y-28204D01*
X21193Y-28134D01*
X21165Y-28122D01*
X21165Y-27092D01*
X21165Y-27092D01*
X21143Y-26981D01*
X21143Y-26981D01*
X21123Y-26950D01*
X21081Y-26887D01*
X21081Y-26887D01*
X20846Y-26652D01*
X20932Y-26617D01*
X21097Y-26452D01*
X21186Y-26237D01*
X21186Y-26005D01*
X21097Y-25789D01*
X20933Y-25625D01*
X20718Y-25535D01*
X20485Y-25535D01*
X20420Y-25562D01*
X20420Y-25337D01*
X20803Y-24954D01*
X20833Y-24967D01*
X21011Y-24967D01*
X21175Y-24899D01*
X21301Y-24773D01*
X21369Y-24609D01*
X21369Y-24431D01*
X21301Y-24267D01*
X21176Y-24141D01*
X21011Y-24073D01*
X20834Y-24073D01*
X20669Y-24141D01*
X20543Y-24266D01*
X20475Y-24431D01*
X20475Y-24464D01*
X20034Y-24905D01*
X16877Y-24905D01*
X16766Y-24927D01*
X16735Y-24948D01*
X16672Y-24989D01*
X15948Y-25714D01*
X15629Y-25714D01*
X15669Y-25699D01*
X15668Y-25626D01*
X15610Y-25568D01*
X15600Y-25515D01*
X15571Y-25472D01*
X15614Y-25501D01*
X15667Y-25511D01*
X15724Y-25569D01*
X15797Y-25570D01*
X15820Y-25510D01*
X15866Y-25501D01*
X15974Y-25429D01*
X16045Y-25322D01*
X16052Y-25286D01*
X16089Y-25278D01*
X16196Y-25207D01*
X16268Y-25100D01*
X16275Y-25063D01*
X16312Y-25056D01*
X16419Y-24984D01*
X16491Y-24877D01*
X16498Y-24840D01*
X16535Y-24833D01*
X16642Y-24761D01*
X16713Y-24654D01*
X16721Y-24617D01*
X16757Y-24610D01*
X16864Y-24538D01*
X16936Y-24431D01*
X16943Y-24395D01*
X16980Y-24387D01*
X17087Y-24316D01*
X17159Y-24209D01*
X17166Y-24172D01*
X17203Y-24165D01*
X17310Y-24093D01*
X17381Y-23986D01*
X17391Y-23939D01*
X17451Y-23917D01*
X17450Y-23858D01*
X17489Y-23897D01*
X17509Y-23876D01*
X17563Y-23912D01*
X17697Y-23939D01*
X17830Y-23912D01*
X17944Y-23836D01*
X18656Y-23124D01*
X20726Y-23124D01*
X21030Y-23124D01*
X21625Y-23719D01*
X21738Y-23795D01*
X21806Y-23808D01*
X21839Y-23888D01*
X21909Y-23958D01*
X22001Y-23997D01*
X22101Y-23997D01*
X22451Y-23997D01*
X22543Y-23959D01*
X22601Y-23900D01*
X22660Y-23959D01*
X22752Y-23997D01*
X22864Y-23997D01*
X22926Y-23934D01*
X22926Y-23522D01*
X22918Y-23522D01*
X22918Y-23422D01*
X22926Y-23422D01*
X22926Y-23414D01*
X23026Y-23414D01*
X23026Y-23422D01*
X23034Y-23422D01*
X23034Y-23522D01*
X23026Y-23522D01*
X23026Y-23934D01*
X23089Y-23997D01*
X23201Y-23997D01*
X23293Y-23959D01*
X23363Y-23888D01*
X23401Y-23796D01*
X23401Y-23790D01*
X23476Y-23822D01*
X23576Y-23822D01*
X23689Y-23822D01*
X23751Y-23759D01*
X23751Y-23447D01*
X23743Y-23447D01*
X23743Y-23347D01*
X23751Y-23347D01*
X23751Y-23339D01*
X23851Y-23339D01*
X23851Y-23347D01*
X24264Y-23347D01*
X24326Y-23284D01*
X24326Y-23172D01*
X24288Y-23080D01*
X24230Y-23022D01*
X24288Y-22963D01*
X24326Y-22871D01*
X24326Y-22772D01*
X24326Y-22422D01*
X24308Y-22377D01*
X24328Y-22357D01*
X24396Y-22193D01*
X24397Y-22015D01*
X24329Y-21851D01*
X24326Y-21848D01*
X24326Y-21772D01*
X24326Y-21422D01*
X24288Y-21330D01*
X24230Y-21272D01*
X24288Y-21213D01*
X24326Y-21121D01*
X24326Y-21009D01*
X24264Y-20947D01*
X23851Y-20947D01*
X23851Y-20954D01*
X23751Y-20954D01*
X23751Y-20947D01*
X23339Y-20947D01*
X23276Y-21009D01*
X23276Y-21121D01*
X23314Y-21213D01*
X23373Y-21272D01*
X23360Y-21284D01*
X23355Y-21272D01*
X23284Y-21201D01*
X23193Y-21163D01*
X23093Y-21163D01*
X22640Y-21163D01*
X22601Y-21179D01*
X22563Y-21163D01*
X22463Y-21163D01*
X22399Y-21163D01*
X22336Y-21226D01*
X22336Y-21639D01*
X22344Y-21639D01*
X22344Y-21739D01*
X22336Y-21739D01*
X22336Y-21746D01*
X22236Y-21746D01*
X22236Y-21739D01*
X22236Y-21639D01*
X22236Y-21226D01*
X22174Y-21163D01*
X22109Y-21163D01*
X22010Y-21163D01*
X21918Y-21201D01*
X21848Y-21272D01*
X21842Y-21284D01*
X21805Y-21247D01*
X21863Y-21188D01*
X21901Y-21096D01*
X21901Y-20997D01*
X21901Y-20884D01*
X21839Y-20822D01*
X21526Y-20822D01*
X21526Y-21234D01*
X21539Y-21247D01*
X21526Y-21259D01*
X21526Y-21672D01*
X21839Y-21672D01*
X21872Y-21638D01*
X21872Y-21639D01*
X22236Y-21639D01*
X22236Y-21739D01*
X21872Y-21739D01*
X21839Y-21772D01*
X21839Y-21772D01*
X21526Y-21772D01*
X21526Y-22184D01*
X21589Y-22247D01*
X21701Y-22247D01*
X21793Y-22209D01*
X21836Y-22165D01*
X21810Y-22229D01*
X21810Y-22329D01*
X21810Y-22880D01*
X21834Y-22938D01*
X21422Y-22526D01*
X21309Y-22451D01*
X21175Y-22424D01*
X21076Y-22424D01*
X21076Y-22175D01*
X21076Y-22175D01*
X21101Y-22150D01*
X21160Y-22209D01*
X21252Y-22247D01*
X21364Y-22247D01*
X21426Y-22184D01*
X21426Y-21772D01*
X21418Y-21772D01*
X21418Y-21672D01*
X21426Y-21672D01*
X21426Y-21259D01*
X21414Y-21247D01*
X21426Y-21234D01*
X21426Y-20822D01*
X21418Y-20822D01*
X21418Y-20722D01*
X21426Y-20722D01*
X21426Y-20714D01*
X21526Y-20714D01*
X21526Y-20722D01*
X21735Y-20722D01*
X21775Y-20748D01*
X21886Y-20771D01*
X23276Y-20771D01*
X23276Y-20784D01*
X23339Y-20847D01*
X23751Y-20847D01*
X23751Y-20839D01*
X23851Y-20839D01*
X23851Y-20847D01*
X24264Y-20847D01*
X24326Y-20784D01*
X24326Y-20672D01*
X24288Y-20580D01*
X24282Y-20574D01*
X24420Y-20435D01*
X24401Y-20482D01*
X24401Y-20760D01*
X24507Y-21018D01*
X24704Y-21215D01*
X24961Y-21321D01*
X25240Y-21322D01*
X25497Y-21215D01*
X25694Y-21019D01*
X25761Y-20859D01*
X25769Y-20867D01*
X25984Y-20956D01*
X26217Y-20957D01*
X26401Y-20881D01*
X26401Y-21010D01*
X26507Y-21268D01*
X26704Y-21465D01*
X26961Y-21571D01*
X27240Y-21572D01*
X27497Y-21465D01*
X27694Y-21269D01*
X27739Y-21161D01*
X27801Y-21161D01*
X27801Y-21196D01*
X27839Y-21288D01*
X27909Y-21358D01*
X28001Y-21397D01*
X28101Y-21397D01*
X28451Y-21397D01*
X28543Y-21359D01*
X28601Y-21300D01*
X28659Y-21358D01*
X28751Y-21397D01*
X28851Y-21397D01*
X29201Y-21397D01*
X29290Y-21360D01*
X29290Y-24433D01*
X29021Y-24322D01*
X28801Y-24322D01*
X28801Y-23233D01*
X28695Y-22976D01*
X28498Y-22778D01*
X28241Y-22672D01*
X27962Y-22671D01*
X27705Y-22778D01*
X27508Y-22975D01*
X27401Y-23232D01*
X27401Y-23510D01*
X27507Y-23768D01*
X27704Y-23965D01*
X27961Y-24071D01*
X28240Y-24072D01*
X28497Y-23965D01*
X28694Y-23769D01*
X28801Y-23511D01*
X28801Y-23233D01*
X28801Y-24322D01*
X28683Y-24321D01*
X28370Y-24451D01*
X28131Y-24689D01*
X28001Y-25002D01*
X28001Y-25340D01*
X28082Y-25537D01*
X27985Y-25536D01*
X27770Y-25625D01*
X27605Y-25790D01*
X27516Y-26005D01*
X27516Y-26237D01*
X27592Y-26422D01*
X27462Y-26421D01*
X27205Y-26528D01*
X27136Y-26596D01*
X27136Y-25917D01*
X27136Y-22167D01*
X26979Y-21786D01*
X26688Y-21495D01*
X26308Y-21337D01*
X25896Y-21336D01*
X25516Y-21494D01*
X25224Y-21785D01*
X25066Y-22165D01*
X25066Y-22577D01*
X25223Y-22957D01*
X25514Y-23248D01*
X25894Y-23406D01*
X26306Y-23407D01*
X26687Y-23249D01*
X26978Y-22959D01*
X27136Y-22578D01*
X27136Y-22167D01*
X27136Y-25917D01*
X26979Y-25536D01*
X26688Y-25245D01*
X26686Y-25244D01*
X26686Y-24256D01*
X26597Y-24041D01*
X26433Y-23876D01*
X26218Y-23787D01*
X25985Y-23786D01*
X25770Y-23875D01*
X25605Y-24040D01*
X25516Y-24255D01*
X25516Y-24487D01*
X25605Y-24702D01*
X25769Y-24867D01*
X25984Y-24956D01*
X26217Y-24957D01*
X26432Y-24868D01*
X26597Y-24703D01*
X26686Y-24488D01*
X26686Y-24256D01*
X26686Y-25244D01*
X26308Y-25087D01*
X25896Y-25086D01*
X25516Y-25244D01*
X25224Y-25535D01*
X25066Y-25915D01*
X25066Y-26327D01*
X25223Y-26707D01*
X25514Y-26998D01*
X25894Y-27156D01*
X26306Y-27157D01*
X26687Y-26999D01*
X26978Y-26709D01*
X27136Y-26328D01*
X27136Y-25917D01*
X27136Y-26596D01*
X27008Y-26725D01*
X26901Y-26982D01*
X26901Y-27260D01*
X27007Y-27518D01*
X27161Y-27672D01*
X26962Y-27671D01*
X26705Y-27778D01*
X26686Y-27797D01*
X26686Y-27756D01*
X26597Y-27541D01*
X26433Y-27376D01*
X26218Y-27287D01*
X25985Y-27286D01*
X25770Y-27375D01*
X25605Y-27540D01*
X25577Y-27608D01*
X25498Y-27528D01*
X25241Y-27422D01*
X24962Y-27421D01*
X24705Y-27528D01*
X24686Y-27547D01*
X24686Y-26006D01*
X24597Y-25791D01*
X24433Y-25626D01*
X24326Y-25582D01*
X24326Y-23621D01*
X24326Y-23509D01*
X24264Y-23447D01*
X23851Y-23447D01*
X23851Y-23759D01*
X23914Y-23822D01*
X24027Y-23822D01*
X24126Y-23822D01*
X24218Y-23783D01*
X24288Y-23713D01*
X24326Y-23621D01*
X24326Y-25582D01*
X24218Y-25537D01*
X23985Y-25536D01*
X23786Y-25619D01*
X23886Y-25378D01*
X23886Y-24967D01*
X23751Y-24639D01*
X23729Y-24586D01*
X23438Y-24295D01*
X23058Y-24137D01*
X22646Y-24136D01*
X22266Y-24294D01*
X21974Y-24585D01*
X21816Y-24965D01*
X21816Y-25377D01*
X21973Y-25757D01*
X22264Y-26048D01*
X22440Y-26122D01*
X22266Y-26194D01*
X21974Y-26485D01*
X21816Y-26865D01*
X21816Y-27277D01*
X21973Y-27657D01*
X22264Y-27948D01*
X22644Y-28106D01*
X23056Y-28107D01*
X23437Y-27949D01*
X23728Y-27659D01*
X23886Y-27278D01*
X23886Y-26867D01*
X23786Y-26624D01*
X23984Y-26706D01*
X24217Y-26707D01*
X24432Y-26618D01*
X24597Y-26453D01*
X24686Y-26238D01*
X24686Y-26006D01*
X24686Y-27547D01*
X24508Y-27725D01*
X24401Y-27982D01*
X24401Y-28260D01*
X24507Y-28518D01*
X24704Y-28715D01*
X24961Y-28821D01*
X25240Y-28822D01*
X25497Y-28715D01*
X25663Y-28550D01*
X25950Y-28836D01*
X25896Y-28836D01*
X25516Y-28994D01*
X25224Y-29285D01*
X25066Y-29665D01*
X25066Y-30077D01*
X25223Y-30457D01*
X25514Y-30748D01*
X25894Y-30906D01*
X26306Y-30907D01*
X26687Y-30749D01*
X26978Y-30459D01*
X27136Y-30078D01*
X27136Y-30023D01*
X27548Y-30435D01*
X27508Y-30475D01*
X27401Y-30732D01*
X27401Y-31010D01*
X27507Y-31268D01*
X27704Y-31465D01*
X27961Y-31571D01*
X28240Y-31572D01*
X28497Y-31465D01*
X28694Y-31269D01*
X28801Y-31011D01*
X28801Y-30733D01*
X28695Y-30476D01*
X28498Y-30278D01*
X28241Y-30172D01*
X28103Y-30172D01*
X27003Y-29071D01*
X27240Y-29072D01*
X27497Y-28965D01*
X27694Y-28769D01*
X27739Y-28661D01*
X27801Y-28661D01*
X27801Y-28696D01*
X27839Y-28788D01*
X27909Y-28858D01*
X28001Y-28897D01*
X28101Y-28897D01*
X28451Y-28897D01*
X28543Y-28859D01*
X28601Y-28800D01*
X28659Y-28858D01*
X28751Y-28897D01*
X28851Y-28897D01*
X29201Y-28897D01*
X29280Y-28864D01*
X29280Y-31929D01*
X29021Y-31822D01*
X28683Y-31821D01*
X28370Y-31951D01*
X28131Y-32189D01*
X28001Y-32502D01*
X28001Y-32840D01*
X28082Y-33037D01*
X27985Y-33036D01*
X27770Y-33125D01*
X27605Y-33290D01*
X27516Y-33505D01*
X27516Y-33737D01*
X27592Y-33922D01*
X27462Y-33921D01*
X27205Y-34028D01*
X27136Y-34096D01*
X27136Y-33417D01*
X26979Y-33036D01*
X26688Y-32745D01*
X26686Y-32744D01*
X26686Y-31756D01*
X26597Y-31541D01*
X26433Y-31376D01*
X26218Y-31287D01*
X25985Y-31286D01*
X25770Y-31375D01*
X25605Y-31540D01*
X25516Y-31755D01*
X25516Y-31987D01*
X25605Y-32202D01*
X25769Y-32367D01*
X25984Y-32456D01*
X26217Y-32457D01*
X26432Y-32368D01*
X26597Y-32203D01*
X26686Y-31988D01*
X26686Y-31756D01*
X26686Y-32744D01*
X26308Y-32587D01*
X25896Y-32586D01*
X25516Y-32744D01*
X25224Y-33035D01*
X25066Y-33415D01*
X25066Y-33827D01*
X25223Y-34207D01*
X25514Y-34498D01*
X25894Y-34656D01*
X26306Y-34657D01*
X26687Y-34499D01*
X26978Y-34209D01*
X27136Y-33828D01*
X27136Y-33417D01*
X27136Y-34096D01*
X27008Y-34225D01*
X26901Y-34482D01*
X26901Y-34760D01*
X27007Y-35018D01*
X27161Y-35172D01*
X26962Y-35171D01*
X26705Y-35278D01*
X26686Y-35297D01*
X26686Y-35256D01*
X26597Y-35041D01*
X26433Y-34876D01*
X26218Y-34787D01*
X25985Y-34786D01*
X25770Y-34875D01*
X25605Y-35040D01*
X25577Y-35108D01*
X25498Y-35028D01*
X25241Y-34922D01*
X24962Y-34921D01*
X24705Y-35028D01*
X24686Y-35047D01*
X24686Y-33506D01*
X24597Y-33291D01*
X24433Y-33126D01*
X24218Y-33037D01*
X23985Y-33036D01*
X23786Y-33119D01*
X23886Y-32878D01*
X23886Y-32467D01*
X23729Y-32086D01*
X23438Y-31795D01*
X23058Y-31637D01*
X22646Y-31636D01*
X22266Y-31794D01*
X21974Y-32085D01*
X21816Y-32465D01*
X21816Y-32877D01*
X21973Y-33257D01*
X22264Y-33548D01*
X22440Y-33622D01*
X22266Y-33694D01*
X21974Y-33985D01*
X21816Y-34365D01*
X21816Y-34777D01*
X21973Y-35157D01*
X22264Y-35448D01*
X22644Y-35606D01*
X23056Y-35607D01*
X23437Y-35449D01*
X23728Y-35159D01*
X23886Y-34778D01*
X23886Y-34367D01*
X23786Y-34124D01*
X23984Y-34206D01*
X24217Y-34207D01*
X24432Y-34118D01*
X24597Y-33953D01*
X24686Y-33738D01*
X24686Y-33506D01*
X24686Y-35047D01*
X24508Y-35225D01*
X24401Y-35482D01*
X24401Y-35760D01*
X24507Y-36018D01*
X24704Y-36215D01*
X24961Y-36321D01*
X25240Y-36322D01*
X25497Y-36215D01*
X25661Y-36052D01*
X25945Y-36336D01*
X25896Y-36336D01*
X25516Y-36494D01*
X25224Y-36785D01*
X25094Y-37099D01*
X25081Y-37068D01*
X24955Y-36942D01*
X24791Y-36874D01*
X24613Y-36873D01*
X24449Y-36941D01*
X24323Y-37067D01*
X24255Y-37231D01*
X24255Y-37409D01*
X24323Y-37573D01*
X24448Y-37699D01*
X24613Y-37767D01*
X24790Y-37767D01*
X24955Y-37699D01*
X25069Y-37585D01*
X25223Y-37957D01*
X25514Y-38248D01*
X25894Y-38406D01*
X26306Y-38407D01*
X26687Y-38249D01*
X26978Y-37959D01*
X27136Y-37578D01*
X27136Y-37527D01*
X27546Y-37937D01*
X27508Y-37975D01*
X27401Y-38232D01*
X27401Y-38510D01*
X27507Y-38768D01*
X27704Y-38965D01*
X27961Y-39071D01*
X28240Y-39072D01*
X28497Y-38965D01*
X28694Y-38769D01*
X28747Y-38640D01*
X28747Y-39135D01*
X28769Y-39246D01*
X28832Y-39339D01*
X29290Y-39797D01*
X29290Y-41333D01*
X29021Y-41222D01*
X28686Y-41221D01*
X28686Y-41006D01*
X28597Y-40791D01*
X28433Y-40626D01*
X28218Y-40537D01*
X27985Y-40536D01*
X27770Y-40625D01*
X27605Y-40790D01*
X27516Y-41005D01*
X27516Y-41237D01*
X27592Y-41422D01*
X27462Y-41421D01*
X27205Y-41528D01*
X27136Y-41596D01*
X27136Y-40917D01*
X26979Y-40536D01*
X26688Y-40245D01*
X26686Y-40244D01*
X26686Y-39256D01*
X26597Y-39041D01*
X26433Y-38876D01*
X26218Y-38787D01*
X25985Y-38786D01*
X25770Y-38875D01*
X25605Y-39040D01*
X25516Y-39255D01*
X25516Y-39487D01*
X25605Y-39702D01*
X25769Y-39867D01*
X25984Y-39956D01*
X26217Y-39957D01*
X26432Y-39868D01*
X26597Y-39703D01*
X26686Y-39488D01*
X26686Y-39256D01*
X26686Y-40244D01*
X26308Y-40087D01*
X25896Y-40086D01*
X25516Y-40244D01*
X25224Y-40535D01*
X25066Y-40915D01*
X25066Y-41327D01*
X25223Y-41707D01*
X25514Y-41998D01*
X25894Y-42156D01*
X26306Y-42157D01*
X26687Y-41999D01*
X26978Y-41709D01*
X27136Y-41328D01*
X27136Y-40917D01*
X27136Y-41596D01*
X27008Y-41725D01*
X26901Y-41982D01*
X26901Y-42260D01*
X27007Y-42518D01*
X27204Y-42715D01*
X27312Y-42759D01*
X27312Y-43103D01*
X27334Y-43214D01*
X27335Y-43216D01*
X27301Y-43297D01*
X27301Y-43396D01*
X27301Y-43946D01*
X27339Y-44038D01*
X27409Y-44108D01*
X27501Y-44147D01*
X27601Y-44147D01*
X27951Y-44147D01*
X28043Y-44109D01*
X28101Y-44050D01*
X28159Y-44108D01*
X28251Y-44147D01*
X28351Y-44147D01*
X28701Y-44147D01*
X28793Y-44109D01*
X28863Y-44038D01*
X28901Y-43946D01*
X28901Y-43875D01*
X28974Y-43826D01*
X29431Y-43369D01*
X29431Y-43927D01*
X29431Y-43927D01*
G37*
G54D34*
X29431Y-43927D02*
X29408Y-43920D01*
X29230Y-43932D01*
X29125Y-43976D01*
X29110Y-44060D01*
X29351Y-44301D01*
X29356Y-44295D01*
X29427Y-44366D01*
X29421Y-44372D01*
X29427Y-44377D01*
X29356Y-44448D01*
X29351Y-44442D01*
X29345Y-44448D01*
X29274Y-44377D01*
X29280Y-44372D01*
X29040Y-44131D01*
X28955Y-44146D01*
X28899Y-44314D01*
X28908Y-44451D01*
X25801Y-44451D01*
X25801Y-42983D01*
X25695Y-42726D01*
X25498Y-42528D01*
X25241Y-42422D01*
X24962Y-42421D01*
X24705Y-42528D01*
X24686Y-42547D01*
X24686Y-41006D01*
X24597Y-40791D01*
X24433Y-40626D01*
X24218Y-40537D01*
X23985Y-40536D01*
X23770Y-40625D01*
X23649Y-40746D01*
X23649Y-37232D01*
X23581Y-37068D01*
X23455Y-36942D01*
X23291Y-36874D01*
X23113Y-36873D01*
X22949Y-36941D01*
X22823Y-37067D01*
X22755Y-37231D01*
X22755Y-37409D01*
X22823Y-37573D01*
X22948Y-37699D01*
X23113Y-37767D01*
X23290Y-37767D01*
X23455Y-37699D01*
X23580Y-37574D01*
X23649Y-37410D01*
X23649Y-37232D01*
X23649Y-40746D01*
X23605Y-40790D01*
X23516Y-41005D01*
X23516Y-41237D01*
X23541Y-41297D01*
X23438Y-41195D01*
X23058Y-41037D01*
X22646Y-41036D01*
X22266Y-41194D01*
X21974Y-41485D01*
X21816Y-41865D01*
X21816Y-42277D01*
X21973Y-42657D01*
X22264Y-42948D01*
X22644Y-43106D01*
X23056Y-43107D01*
X23437Y-42949D01*
X23728Y-42659D01*
X23886Y-42278D01*
X23886Y-41867D01*
X23786Y-41624D01*
X23984Y-41706D01*
X24217Y-41707D01*
X24432Y-41618D01*
X24597Y-41453D01*
X24686Y-41238D01*
X24686Y-41006D01*
X24686Y-42547D01*
X24508Y-42725D01*
X24401Y-42982D01*
X24401Y-43260D01*
X24507Y-43518D01*
X24704Y-43715D01*
X24961Y-43821D01*
X25240Y-43822D01*
X25497Y-43715D01*
X25694Y-43519D01*
X25801Y-43261D01*
X25801Y-42983D01*
X25801Y-44451D01*
X18301Y-44451D01*
X18301Y-42983D01*
X18195Y-42726D01*
X17998Y-42528D01*
X17741Y-42422D01*
X17462Y-42421D01*
X17205Y-42528D01*
X17186Y-42547D01*
X17186Y-41006D01*
X17097Y-40791D01*
X16933Y-40626D01*
X16718Y-40537D01*
X16485Y-40536D01*
X16270Y-40625D01*
X16149Y-40746D01*
X16149Y-37232D01*
X16081Y-37068D01*
X15955Y-36942D01*
X15791Y-36874D01*
X15613Y-36873D01*
X15449Y-36941D01*
X15323Y-37067D01*
X15255Y-37231D01*
X15255Y-37409D01*
X15323Y-37573D01*
X15448Y-37699D01*
X15613Y-37767D01*
X15790Y-37767D01*
X15955Y-37699D01*
X16080Y-37574D01*
X16149Y-37410D01*
X16149Y-37232D01*
X16149Y-40746D01*
X16105Y-40790D01*
X16016Y-41005D01*
X16016Y-41237D01*
X16105Y-41452D01*
X16269Y-41617D01*
X16484Y-41706D01*
X16717Y-41707D01*
X16932Y-41618D01*
X17097Y-41453D01*
X17186Y-41238D01*
X17186Y-41006D01*
X17186Y-42547D01*
X17008Y-42725D01*
X16901Y-42982D01*
X16901Y-43260D01*
X17007Y-43518D01*
X17204Y-43715D01*
X17461Y-43821D01*
X17740Y-43822D01*
X17997Y-43715D01*
X18194Y-43519D01*
X18301Y-43261D01*
X18301Y-42983D01*
X18301Y-44451D01*
X14649Y-44451D01*
X14651Y-44446D01*
X14651Y-44347D01*
X14651Y-43797D01*
X14613Y-43705D01*
X14543Y-43635D01*
X14451Y-43597D01*
X14351Y-43597D01*
X14173Y-43597D01*
X14173Y-37767D01*
X14290Y-37767D01*
X14455Y-37699D01*
X14580Y-37574D01*
X14649Y-37410D01*
X14649Y-37232D01*
X14581Y-37068D01*
X14455Y-36942D01*
X14347Y-36897D01*
X14450Y-36897D01*
X14542Y-36859D01*
X14613Y-36788D01*
X14651Y-36696D01*
X14651Y-36661D01*
X17680Y-36661D01*
X17680Y-36661D01*
X17791Y-36639D01*
X17885Y-36576D01*
X18386Y-36075D01*
X18386Y-36075D01*
X18428Y-36012D01*
X18449Y-35981D01*
X18449Y-35981D01*
X18471Y-35871D01*
X18471Y-35871D01*
X18471Y-34728D01*
X18456Y-34655D01*
X18806Y-34656D01*
X19187Y-34498D01*
X19478Y-34207D01*
X19636Y-33827D01*
X19636Y-33415D01*
X19479Y-33035D01*
X19188Y-32743D01*
X18808Y-32586D01*
X18396Y-32585D01*
X18016Y-32742D01*
X17724Y-33033D01*
X17572Y-33399D01*
X17572Y-32134D01*
X17550Y-32023D01*
X17488Y-31930D01*
X17488Y-31930D01*
X13974Y-28416D01*
X13901Y-28367D01*
X13901Y-28296D01*
X13863Y-28204D01*
X13793Y-28134D01*
X13765Y-28122D01*
X13765Y-27835D01*
X14167Y-27434D01*
X14293Y-27434D01*
X14457Y-27366D01*
X14583Y-27240D01*
X14651Y-27076D01*
X14651Y-26961D01*
X16033Y-26961D01*
X16945Y-27874D01*
X16901Y-27981D01*
X16901Y-28259D01*
X17007Y-28516D01*
X17204Y-28713D01*
X17461Y-28820D01*
X17740Y-28820D01*
X17997Y-28714D01*
X18194Y-28517D01*
X18301Y-28260D01*
X18301Y-27982D01*
X18195Y-27724D01*
X17998Y-27527D01*
X17741Y-27420D01*
X17462Y-27420D01*
X17355Y-27465D01*
X16595Y-26705D01*
X16717Y-26705D01*
X16932Y-26617D01*
X17097Y-26452D01*
X17186Y-26237D01*
X17186Y-26005D01*
X17097Y-25789D01*
X16933Y-25625D01*
X16878Y-25602D01*
X16997Y-25483D01*
X17774Y-25483D01*
X17724Y-25533D01*
X17566Y-25914D01*
X17566Y-26325D01*
X17723Y-26706D01*
X18014Y-26997D01*
X18394Y-27155D01*
X18806Y-27156D01*
X19187Y-26998D01*
X19478Y-26707D01*
X19636Y-26327D01*
X19636Y-25915D01*
X19479Y-25535D01*
X19428Y-25483D01*
X19842Y-25483D01*
X19842Y-26347D01*
X19864Y-26457D01*
X19866Y-26460D01*
X19705Y-26527D01*
X19508Y-26723D01*
X19401Y-26981D01*
X19401Y-27259D01*
X19507Y-27516D01*
X19704Y-27713D01*
X19812Y-27758D01*
X19812Y-28132D01*
X19810Y-28133D01*
X19739Y-28204D01*
X19701Y-28295D01*
X19701Y-28395D01*
X19701Y-28945D01*
X19739Y-29037D01*
X19809Y-29107D01*
X19901Y-29145D01*
X20001Y-29145D01*
X20351Y-29145D01*
X20443Y-29107D01*
X20501Y-29049D01*
X20559Y-29107D01*
X20612Y-29129D01*
X20671Y-29218D01*
X20765Y-29312D01*
X20765Y-33055D01*
X20718Y-33035D01*
X20485Y-33035D01*
X20270Y-33124D01*
X20105Y-33289D01*
X20016Y-33503D01*
X20016Y-33736D01*
X20092Y-33920D01*
X19962Y-33920D01*
X19705Y-34027D01*
X19508Y-34223D01*
X19401Y-34481D01*
X19401Y-34759D01*
X19507Y-35016D01*
X19704Y-35213D01*
X19937Y-35310D01*
X19937Y-35622D01*
X19910Y-35633D01*
X19839Y-35704D01*
X19801Y-35795D01*
X19801Y-35895D01*
X19801Y-36445D01*
X19839Y-36537D01*
X19909Y-36607D01*
X20001Y-36645D01*
X20101Y-36645D01*
X20451Y-36645D01*
X20543Y-36607D01*
X20601Y-36549D01*
X20659Y-36607D01*
X20712Y-36629D01*
X20771Y-36718D01*
X20789Y-36736D01*
X20789Y-40566D01*
X20718Y-40537D01*
X20649Y-40537D01*
X20649Y-37232D01*
X20581Y-37068D01*
X20455Y-36942D01*
X20291Y-36874D01*
X20113Y-36873D01*
X19949Y-36941D01*
X19823Y-37067D01*
X19755Y-37231D01*
X19755Y-37409D01*
X19823Y-37573D01*
X19948Y-37699D01*
X20113Y-37767D01*
X20290Y-37767D01*
X20455Y-37699D01*
X20580Y-37574D01*
X20649Y-37410D01*
X20649Y-37232D01*
X20649Y-40537D01*
X20485Y-40536D01*
X20270Y-40625D01*
X20105Y-40790D01*
X20016Y-41005D01*
X20016Y-41237D01*
X20092Y-41422D01*
X19962Y-41421D01*
X19705Y-41528D01*
X19636Y-41596D01*
X19636Y-40917D01*
X19479Y-40536D01*
X19188Y-40245D01*
X19149Y-40228D01*
X19149Y-37232D01*
X19081Y-37068D01*
X18955Y-36942D01*
X18791Y-36874D01*
X18613Y-36873D01*
X18449Y-36941D01*
X18323Y-37067D01*
X18255Y-37231D01*
X18255Y-37409D01*
X18323Y-37573D01*
X18448Y-37699D01*
X18613Y-37767D01*
X18790Y-37767D01*
X18955Y-37699D01*
X19080Y-37574D01*
X19149Y-37410D01*
X19149Y-37232D01*
X19149Y-40228D01*
X18808Y-40087D01*
X18396Y-40086D01*
X18016Y-40244D01*
X17724Y-40535D01*
X17649Y-40716D01*
X17649Y-37232D01*
X17581Y-37068D01*
X17455Y-36942D01*
X17291Y-36874D01*
X17113Y-36873D01*
X16949Y-36941D01*
X16823Y-37067D01*
X16755Y-37231D01*
X16755Y-37409D01*
X16823Y-37573D01*
X16948Y-37699D01*
X17113Y-37767D01*
X17290Y-37767D01*
X17455Y-37699D01*
X17580Y-37574D01*
X17649Y-37410D01*
X17649Y-37232D01*
X17649Y-40716D01*
X17566Y-40915D01*
X17566Y-41327D01*
X17723Y-41707D01*
X18014Y-41998D01*
X18394Y-42156D01*
X18806Y-42157D01*
X19187Y-41999D01*
X19478Y-41709D01*
X19636Y-41328D01*
X19636Y-40917D01*
X19636Y-41596D01*
X19508Y-41725D01*
X19401Y-41982D01*
X19401Y-42260D01*
X19507Y-42518D01*
X19704Y-42715D01*
X19937Y-42811D01*
X19937Y-43123D01*
X19910Y-43134D01*
X19839Y-43205D01*
X19801Y-43297D01*
X19801Y-43396D01*
X19801Y-43946D01*
X19839Y-44038D01*
X19909Y-44108D01*
X20001Y-44147D01*
X20101Y-44147D01*
X20451Y-44147D01*
X20543Y-44109D01*
X20601Y-44050D01*
X20659Y-44108D01*
X20751Y-44147D01*
X20851Y-44147D01*
X21201Y-44147D01*
X21293Y-44109D01*
X21363Y-44038D01*
X21401Y-43946D01*
X21401Y-43847D01*
X21401Y-43297D01*
X21363Y-43205D01*
X21354Y-43196D01*
X21368Y-43126D01*
X21368Y-43126D01*
X21368Y-37619D01*
X21448Y-37699D01*
X21613Y-37767D01*
X21790Y-37767D01*
X21955Y-37699D01*
X22080Y-37574D01*
X22149Y-37410D01*
X22149Y-37232D01*
X22081Y-37068D01*
X21955Y-36942D01*
X21791Y-36874D01*
X21613Y-36873D01*
X21449Y-36941D01*
X21368Y-37022D01*
X21368Y-36616D01*
X21368Y-36616D01*
X21354Y-36546D01*
X21363Y-36537D01*
X21401Y-36445D01*
X21401Y-36346D01*
X21401Y-35796D01*
X21363Y-35704D01*
X21338Y-35679D01*
X21344Y-35649D01*
X21344Y-35649D01*
X21344Y-29192D01*
X21344Y-29192D01*
X21322Y-29081D01*
X21322Y-29081D01*
X21301Y-29050D01*
X21274Y-29010D01*
X21274Y-29010D01*
X21301Y-28945D01*
X21301Y-28846D01*
X21301Y-28296D01*
X21263Y-28204D01*
X21193Y-28134D01*
X21165Y-28122D01*
X21165Y-27092D01*
X21165Y-27092D01*
X21143Y-26981D01*
X21143Y-26981D01*
X21123Y-26950D01*
X21081Y-26887D01*
X21081Y-26887D01*
X20846Y-26652D01*
X20932Y-26617D01*
X21097Y-26452D01*
X21186Y-26237D01*
X21186Y-26005D01*
X21097Y-25789D01*
X20933Y-25625D01*
X20718Y-25535D01*
X20485Y-25535D01*
X20420Y-25562D01*
X20420Y-25337D01*
X20803Y-24954D01*
X20833Y-24967D01*
X21011Y-24967D01*
X21175Y-24899D01*
X21301Y-24773D01*
X21369Y-24609D01*
X21369Y-24431D01*
X21301Y-24267D01*
X21176Y-24141D01*
X21011Y-24073D01*
X20834Y-24073D01*
X20669Y-24141D01*
X20543Y-24266D01*
X20475Y-24431D01*
X20475Y-24464D01*
X20034Y-24905D01*
X16877Y-24905D01*
X16766Y-24927D01*
X16735Y-24948D01*
X16672Y-24989D01*
X15948Y-25714D01*
X15629Y-25714D01*
X15669Y-25699D01*
X15668Y-25626D01*
X15610Y-25568D01*
X15600Y-25515D01*
X15571Y-25472D01*
X15614Y-25501D01*
X15667Y-25511D01*
X15724Y-25569D01*
X15797Y-25570D01*
X15820Y-25510D01*
X15866Y-25501D01*
X15974Y-25429D01*
X16045Y-25322D01*
X16052Y-25286D01*
X16089Y-25278D01*
X16196Y-25207D01*
X16268Y-25100D01*
X16275Y-25063D01*
X16312Y-25056D01*
X16419Y-24984D01*
X16491Y-24877D01*
X16498Y-24840D01*
X16535Y-24833D01*
X16642Y-24761D01*
X16713Y-24654D01*
X16721Y-24617D01*
X16757Y-24610D01*
X16864Y-24538D01*
X16936Y-24431D01*
X16943Y-24395D01*
X16980Y-24387D01*
X17087Y-24316D01*
X17159Y-24209D01*
X17166Y-24172D01*
X17203Y-24165D01*
X17310Y-24093D01*
X17381Y-23986D01*
X17391Y-23939D01*
X17451Y-23917D01*
X17450Y-23858D01*
X17489Y-23897D01*
X17509Y-23876D01*
X17563Y-23912D01*
X17697Y-23939D01*
X17830Y-23912D01*
X17944Y-23836D01*
X18656Y-23124D01*
X20726Y-23124D01*
X21030Y-23124D01*
X21625Y-23719D01*
X21738Y-23795D01*
X21806Y-23808D01*
X21839Y-23888D01*
X21909Y-23958D01*
X22001Y-23997D01*
X22101Y-23997D01*
X22451Y-23997D01*
X22543Y-23959D01*
X22601Y-23900D01*
X22660Y-23959D01*
X22752Y-23997D01*
X22864Y-23997D01*
X22926Y-23934D01*
X22926Y-23522D01*
X22918Y-23522D01*
X22918Y-23422D01*
X22926Y-23422D01*
X22926Y-23414D01*
X23026Y-23414D01*
X23026Y-23422D01*
X23034Y-23422D01*
X23034Y-23522D01*
X23026Y-23522D01*
X23026Y-23934D01*
X23089Y-23997D01*
X23201Y-23997D01*
X23293Y-23959D01*
X23363Y-23888D01*
X23401Y-23796D01*
X23401Y-23790D01*
X23476Y-23822D01*
X23576Y-23822D01*
X23689Y-23822D01*
X23751Y-23759D01*
X23751Y-23447D01*
X23743Y-23447D01*
X23743Y-23347D01*
X23751Y-23347D01*
X23751Y-23339D01*
X23851Y-23339D01*
X23851Y-23347D01*
X24264Y-23347D01*
X24326Y-23284D01*
X24326Y-23172D01*
X24288Y-23080D01*
X24230Y-23022D01*
X24288Y-22963D01*
X24326Y-22871D01*
X24326Y-22772D01*
X24326Y-22422D01*
X24308Y-22377D01*
X24328Y-22357D01*
X24396Y-22193D01*
X24397Y-22015D01*
X24329Y-21851D01*
X24326Y-21848D01*
X24326Y-21772D01*
X24326Y-21422D01*
X24288Y-21330D01*
X24230Y-21272D01*
X24288Y-21213D01*
X24326Y-21121D01*
X24326Y-21009D01*
X24264Y-20947D01*
X23851Y-20947D01*
X23851Y-20954D01*
X23751Y-20954D01*
X23751Y-20947D01*
X23339Y-20947D01*
X23276Y-21009D01*
X23276Y-21121D01*
X23314Y-21213D01*
X23373Y-21272D01*
X23360Y-21284D01*
X23355Y-21272D01*
X23284Y-21201D01*
X23193Y-21163D01*
X23093Y-21163D01*
X22640Y-21163D01*
X22601Y-21179D01*
X22563Y-21163D01*
X22463Y-21163D01*
X22399Y-21163D01*
X22336Y-21226D01*
X22336Y-21639D01*
X22344Y-21639D01*
X22344Y-21739D01*
X22336Y-21739D01*
X22336Y-21746D01*
X22236Y-21746D01*
X22236Y-21739D01*
X22236Y-21639D01*
X22236Y-21226D01*
X22174Y-21163D01*
X22109Y-21163D01*
X22010Y-21163D01*
X21918Y-21201D01*
X21848Y-21272D01*
X21842Y-21284D01*
X21805Y-21247D01*
X21863Y-21188D01*
X21901Y-21096D01*
X21901Y-20997D01*
X21901Y-20884D01*
X21839Y-20822D01*
X21526Y-20822D01*
X21526Y-21234D01*
X21539Y-21247D01*
X21526Y-21259D01*
X21526Y-21672D01*
X21839Y-21672D01*
X21872Y-21638D01*
X21872Y-21639D01*
X22236Y-21639D01*
X22236Y-21739D01*
X21872Y-21739D01*
X21839Y-21772D01*
X21839Y-21772D01*
X21526Y-21772D01*
X21526Y-22184D01*
X21589Y-22247D01*
X21701Y-22247D01*
X21793Y-22209D01*
X21836Y-22165D01*
X21810Y-22229D01*
X21810Y-22329D01*
X21810Y-22880D01*
X21834Y-22938D01*
X21422Y-22526D01*
X21309Y-22451D01*
X21175Y-22424D01*
X21076Y-22424D01*
X21076Y-22175D01*
X21076Y-22175D01*
X21101Y-22150D01*
X21160Y-22209D01*
X21252Y-22247D01*
X21364Y-22247D01*
X21426Y-22184D01*
X21426Y-21772D01*
X21418Y-21772D01*
X21418Y-21672D01*
X21426Y-21672D01*
X21426Y-21259D01*
X21414Y-21247D01*
X21426Y-21234D01*
X21426Y-20822D01*
X21418Y-20822D01*
X21418Y-20722D01*
X21426Y-20722D01*
X21426Y-20714D01*
X21526Y-20714D01*
X21526Y-20722D01*
X21735Y-20722D01*
X21775Y-20748D01*
X21886Y-20771D01*
X23276Y-20771D01*
X23276Y-20784D01*
X23339Y-20847D01*
X23751Y-20847D01*
X23751Y-20839D01*
X23851Y-20839D01*
X23851Y-20847D01*
X24264Y-20847D01*
X24326Y-20784D01*
X24326Y-20672D01*
X24288Y-20580D01*
X24282Y-20574D01*
X24420Y-20435D01*
X24401Y-20482D01*
X24401Y-20760D01*
X24507Y-21018D01*
X24704Y-21215D01*
X24961Y-21321D01*
X25240Y-21322D01*
X25497Y-21215D01*
X25694Y-21019D01*
X25761Y-20859D01*
X25769Y-20867D01*
X25984Y-20956D01*
X26217Y-20957D01*
X26401Y-20881D01*
X26401Y-21010D01*
X26507Y-21268D01*
X26704Y-21465D01*
X26961Y-21571D01*
X27240Y-21572D01*
X27497Y-21465D01*
X27694Y-21269D01*
X27739Y-21161D01*
X27801Y-21161D01*
X27801Y-21196D01*
X27839Y-21288D01*
X27909Y-21358D01*
X28001Y-21397D01*
X28101Y-21397D01*
X28451Y-21397D01*
X28543Y-21359D01*
X28601Y-21300D01*
X28659Y-21358D01*
X28751Y-21397D01*
X28851Y-21397D01*
X29201Y-21397D01*
X29290Y-21360D01*
X29290Y-24433D01*
X29021Y-24322D01*
X28801Y-24322D01*
X28801Y-23233D01*
X28695Y-22976D01*
X28498Y-22778D01*
X28241Y-22672D01*
X27962Y-22671D01*
X27705Y-22778D01*
X27508Y-22975D01*
X27401Y-23232D01*
X27401Y-23510D01*
X27507Y-23768D01*
X27704Y-23965D01*
X27961Y-24071D01*
X28240Y-24072D01*
X28497Y-23965D01*
X28694Y-23769D01*
X28801Y-23511D01*
X28801Y-23233D01*
X28801Y-24322D01*
X28683Y-24321D01*
X28370Y-24451D01*
X28131Y-24689D01*
X28001Y-25002D01*
X28001Y-25340D01*
X28082Y-25537D01*
X27985Y-25536D01*
X27770Y-25625D01*
X27605Y-25790D01*
X27516Y-26005D01*
X27516Y-26237D01*
X27592Y-26422D01*
X27462Y-26421D01*
X27205Y-26528D01*
X27136Y-26596D01*
X27136Y-25917D01*
X27136Y-22167D01*
X26979Y-21786D01*
X26688Y-21495D01*
X26308Y-21337D01*
X25896Y-21336D01*
X25516Y-21494D01*
X25224Y-21785D01*
X25066Y-22165D01*
X25066Y-22577D01*
X25223Y-22957D01*
X25514Y-23248D01*
X25894Y-23406D01*
X26306Y-23407D01*
X26687Y-23249D01*
X26978Y-22959D01*
X27136Y-22578D01*
X27136Y-22167D01*
X27136Y-25917D01*
X26979Y-25536D01*
X26688Y-25245D01*
X26686Y-25244D01*
X26686Y-24256D01*
X26597Y-24041D01*
X26433Y-23876D01*
X26218Y-23787D01*
X25985Y-23786D01*
X25770Y-23875D01*
X25605Y-24040D01*
X25516Y-24255D01*
X25516Y-24487D01*
X25605Y-24702D01*
X25769Y-24867D01*
X25984Y-24956D01*
X26217Y-24957D01*
X26432Y-24868D01*
X26597Y-24703D01*
X26686Y-24488D01*
X26686Y-24256D01*
X26686Y-25244D01*
X26308Y-25087D01*
X25896Y-25086D01*
X25516Y-25244D01*
X25224Y-25535D01*
X25066Y-25915D01*
X25066Y-26327D01*
X25223Y-26707D01*
X25514Y-26998D01*
X25894Y-27156D01*
X26306Y-27157D01*
X26687Y-26999D01*
X26978Y-26709D01*
X27136Y-26328D01*
X27136Y-25917D01*
X27136Y-26596D01*
X27008Y-26725D01*
X26901Y-26982D01*
X26901Y-27260D01*
X27007Y-27518D01*
X27161Y-27672D01*
X26962Y-27671D01*
X26705Y-27778D01*
X26686Y-27797D01*
X26686Y-27756D01*
X26597Y-27541D01*
X26433Y-27376D01*
X26218Y-27287D01*
X25985Y-27286D01*
X25770Y-27375D01*
X25605Y-27540D01*
X25577Y-27608D01*
X25498Y-27528D01*
X25241Y-27422D01*
X24962Y-27421D01*
X24705Y-27528D01*
X24686Y-27547D01*
X24686Y-26006D01*
X24597Y-25791D01*
X24433Y-25626D01*
X24326Y-25582D01*
X24326Y-23621D01*
X24326Y-23509D01*
X24264Y-23447D01*
X23851Y-23447D01*
X23851Y-23759D01*
X23914Y-23822D01*
X24027Y-23822D01*
X24126Y-23822D01*
X24218Y-23783D01*
X24288Y-23713D01*
X24326Y-23621D01*
X24326Y-25582D01*
X24218Y-25537D01*
X23985Y-25536D01*
X23786Y-25619D01*
X23886Y-25378D01*
X23886Y-24967D01*
X23751Y-24639D01*
X23729Y-24586D01*
X23438Y-24295D01*
X23058Y-24137D01*
X22646Y-24136D01*
X22266Y-24294D01*
X21974Y-24585D01*
X21816Y-24965D01*
X21816Y-25377D01*
X21973Y-25757D01*
X22264Y-26048D01*
X22440Y-26122D01*
X22266Y-26194D01*
X21974Y-26485D01*
X21816Y-26865D01*
X21816Y-27277D01*
X21973Y-27657D01*
X22264Y-27948D01*
X22644Y-28106D01*
X23056Y-28107D01*
X23437Y-27949D01*
X23728Y-27659D01*
X23886Y-27278D01*
X23886Y-26867D01*
X23786Y-26624D01*
X23984Y-26706D01*
X24217Y-26707D01*
X24432Y-26618D01*
X24597Y-26453D01*
X24686Y-26238D01*
X24686Y-26006D01*
X24686Y-27547D01*
X24508Y-27725D01*
X24401Y-27982D01*
X24401Y-28260D01*
X24507Y-28518D01*
X24704Y-28715D01*
X24961Y-28821D01*
X25240Y-28822D01*
X25497Y-28715D01*
X25663Y-28550D01*
X25950Y-28836D01*
X25896Y-28836D01*
X25516Y-28994D01*
X25224Y-29285D01*
X25066Y-29665D01*
X25066Y-30077D01*
X25223Y-30457D01*
X25514Y-30748D01*
X25894Y-30906D01*
X26306Y-30907D01*
X26687Y-30749D01*
X26978Y-30459D01*
X27136Y-30078D01*
X27136Y-30023D01*
X27548Y-30435D01*
X27508Y-30475D01*
X27401Y-30732D01*
X27401Y-31010D01*
X27507Y-31268D01*
X27704Y-31465D01*
X27961Y-31571D01*
X28240Y-31572D01*
X28497Y-31465D01*
X28694Y-31269D01*
X28801Y-31011D01*
X28801Y-30733D01*
X28695Y-30476D01*
X28498Y-30278D01*
X28241Y-30172D01*
X28103Y-30172D01*
X27003Y-29071D01*
X27240Y-29072D01*
X27497Y-28965D01*
X27694Y-28769D01*
X27739Y-28661D01*
X27801Y-28661D01*
X27801Y-28696D01*
X27839Y-28788D01*
X27909Y-28858D01*
X28001Y-28897D01*
X28101Y-28897D01*
X28451Y-28897D01*
X28543Y-28859D01*
X28601Y-28800D01*
X28659Y-28858D01*
X28751Y-28897D01*
X28851Y-28897D01*
X29201Y-28897D01*
X29280Y-28864D01*
X29280Y-31929D01*
X29021Y-31822D01*
X28683Y-31821D01*
X28370Y-31951D01*
X28131Y-32189D01*
X28001Y-32502D01*
X28001Y-32840D01*
X28082Y-33037D01*
X27985Y-33036D01*
X27770Y-33125D01*
X27605Y-33290D01*
X27516Y-33505D01*
X27516Y-33737D01*
X27592Y-33922D01*
X27462Y-33921D01*
X27205Y-34028D01*
X27136Y-34096D01*
X27136Y-33417D01*
X26979Y-33036D01*
X26688Y-32745D01*
X26686Y-32744D01*
X26686Y-31756D01*
X26597Y-31541D01*
X26433Y-31376D01*
X26218Y-31287D01*
X25985Y-31286D01*
X25770Y-31375D01*
X25605Y-31540D01*
X25516Y-31755D01*
X25516Y-31987D01*
X25605Y-32202D01*
X25769Y-32367D01*
X25984Y-32456D01*
X26217Y-32457D01*
X26432Y-32368D01*
X26597Y-32203D01*
X26686Y-31988D01*
X26686Y-31756D01*
X26686Y-32744D01*
X26308Y-32587D01*
X25896Y-32586D01*
X25516Y-32744D01*
X25224Y-33035D01*
X25066Y-33415D01*
X25066Y-33827D01*
X25223Y-34207D01*
X25514Y-34498D01*
X25894Y-34656D01*
X26306Y-34657D01*
X26687Y-34499D01*
X26978Y-34209D01*
X27136Y-33828D01*
X27136Y-33417D01*
X27136Y-34096D01*
X27008Y-34225D01*
X26901Y-34482D01*
X26901Y-34760D01*
X27007Y-35018D01*
X27161Y-35172D01*
X26962Y-35171D01*
X26705Y-35278D01*
X26686Y-35297D01*
X26686Y-35256D01*
X26597Y-35041D01*
X26433Y-34876D01*
X26218Y-34787D01*
X25985Y-34786D01*
X25770Y-34875D01*
X25605Y-35040D01*
X25577Y-35108D01*
X25498Y-35028D01*
X25241Y-34922D01*
X24962Y-34921D01*
X24705Y-35028D01*
X24686Y-35047D01*
X24686Y-33506D01*
X24597Y-33291D01*
X24433Y-33126D01*
X24218Y-33037D01*
X23985Y-33036D01*
X23786Y-33119D01*
X23886Y-32878D01*
X23886Y-32467D01*
X23729Y-32086D01*
X23438Y-31795D01*
X23058Y-31637D01*
X22646Y-31636D01*
X22266Y-31794D01*
X21974Y-32085D01*
X21816Y-32465D01*
X21816Y-32877D01*
X21973Y-33257D01*
X22264Y-33548D01*
X22440Y-33622D01*
X22266Y-33694D01*
X21974Y-33985D01*
X21816Y-34365D01*
X21816Y-34777D01*
X21973Y-35157D01*
X22264Y-35448D01*
X22644Y-35606D01*
X23056Y-35607D01*
X23437Y-35449D01*
X23728Y-35159D01*
X23886Y-34778D01*
X23886Y-34367D01*
X23786Y-34124D01*
X23984Y-34206D01*
X24217Y-34207D01*
X24432Y-34118D01*
X24597Y-33953D01*
X24686Y-33738D01*
X24686Y-33506D01*
X24686Y-35047D01*
X24508Y-35225D01*
X24401Y-35482D01*
X24401Y-35760D01*
X24507Y-36018D01*
X24704Y-36215D01*
X24961Y-36321D01*
X25240Y-36322D01*
X25497Y-36215D01*
X25661Y-36052D01*
X25945Y-36336D01*
X25896Y-36336D01*
X25516Y-36494D01*
X25224Y-36785D01*
X25094Y-37099D01*
X25081Y-37068D01*
X24955Y-36942D01*
X24791Y-36874D01*
X24613Y-36873D01*
X24449Y-36941D01*
X24323Y-37067D01*
X24255Y-37231D01*
X24255Y-37409D01*
X24323Y-37573D01*
X24448Y-37699D01*
X24613Y-37767D01*
X24790Y-37767D01*
X24955Y-37699D01*
X25069Y-37585D01*
X25223Y-37957D01*
X25514Y-38248D01*
X25894Y-38406D01*
X26306Y-38407D01*
X26687Y-38249D01*
X26978Y-37959D01*
X27136Y-37578D01*
X27136Y-37527D01*
X27546Y-37937D01*
X27508Y-37975D01*
X27401Y-38232D01*
X27401Y-38510D01*
X27507Y-38768D01*
X27704Y-38965D01*
X27961Y-39071D01*
X28240Y-39072D01*
X28497Y-38965D01*
X28694Y-38769D01*
X28747Y-38640D01*
X28747Y-39135D01*
X28769Y-39246D01*
X28832Y-39339D01*
X29290Y-39797D01*
X29290Y-41333D01*
X29021Y-41222D01*
X28686Y-41221D01*
X28686Y-41006D01*
X28597Y-40791D01*
X28433Y-40626D01*
X28218Y-40537D01*
X27985Y-40536D01*
X27770Y-40625D01*
X27605Y-40790D01*
X27516Y-41005D01*
X27516Y-41237D01*
X27592Y-41422D01*
X27462Y-41421D01*
X27205Y-41528D01*
X27136Y-41596D01*
X27136Y-40917D01*
X26979Y-40536D01*
X26688Y-40245D01*
X26686Y-40244D01*
X26686Y-39256D01*
X26597Y-39041D01*
X26433Y-38876D01*
X26218Y-38787D01*
X25985Y-38786D01*
X25770Y-38875D01*
X25605Y-39040D01*
X25516Y-39255D01*
X25516Y-39487D01*
X25605Y-39702D01*
X25769Y-39867D01*
X25984Y-39956D01*
X26217Y-39957D01*
X26432Y-39868D01*
X26597Y-39703D01*
X26686Y-39488D01*
X26686Y-39256D01*
X26686Y-40244D01*
X26308Y-40087D01*
X25896Y-40086D01*
X25516Y-40244D01*
X25224Y-40535D01*
X25066Y-40915D01*
X25066Y-41327D01*
X25223Y-41707D01*
X25514Y-41998D01*
X25894Y-42156D01*
X26306Y-42157D01*
X26687Y-41999D01*
X26978Y-41709D01*
X27136Y-41328D01*
X27136Y-40917D01*
X27136Y-41596D01*
X27008Y-41725D01*
X26901Y-41982D01*
X26901Y-42260D01*
X27007Y-42518D01*
X27204Y-42715D01*
X27312Y-42759D01*
X27312Y-43103D01*
X27334Y-43214D01*
X27335Y-43216D01*
X27301Y-43297D01*
X27301Y-43396D01*
X27301Y-43946D01*
X27339Y-44038D01*
X27409Y-44108D01*
X27501Y-44147D01*
X27601Y-44147D01*
X27951Y-44147D01*
X28043Y-44109D01*
X28101Y-44050D01*
X28159Y-44108D01*
X28251Y-44147D01*
X28351Y-44147D01*
X28701Y-44147D01*
X28793Y-44109D01*
X28863Y-44038D01*
X28901Y-43946D01*
X28901Y-43875D01*
X28974Y-43826D01*
X29431Y-43369D01*
X29431Y-43927D01*
M02*
