M48
;DRILL file {Pcbnew (2013-02-13 BZR 3947)-testing} date 10/20/2013 2:02:52 PM
;FORMAT={2:4/ absolute / inch / keep zeros}
FMAT,2
INCH,TZ
T1C0.016
T2C0.028
T3C0.032
T4C0.035
T5C0.039
T6C0.039
T7C0.059
T8C0.067
T9C0.098
T10C0.120
T11C0.157
%
G90
G05
M72
T1
X000351Y-000322
X000351Y-044372
X000352Y-036621
X002079Y-016254
X002459Y-015025
X002706Y-011766
X004371Y-012795
X004645Y-009621
X006033Y-002182
X006230Y-015585
X006464Y-024307
X007429Y-003219
X008693Y-020215
X008832Y-024680
X008839Y-017879
X009364Y-019725
X009942Y-021970
X010709Y-019791
X011361Y-013793
X011375Y-021040
X012447Y-024680
X013118Y-022144
X013775Y-018025
X013924Y-022422
X014018Y-021630
X014319Y-023761
X014410Y-012841
X014603Y-022911
X014768Y-026737
X014792Y-019779
X015046Y-023729
X015574Y-021453
X015625Y-023946
X015708Y-021987
X016667Y-017185
X017056Y-019283
X017619Y-016277
X017905Y-022272
X018313Y-020989
X020698Y-014183
X021594Y-022911
X022760Y-021124
X023919Y-014741
X029351Y-000371
X029351Y-044372
X029352Y-036671
T2
X000502Y-008121
X000502Y-008621
X000502Y-009121
X000502Y-009621
X000502Y-010121
X000502Y-010621
X000502Y-011621
X000502Y-012121
X000502Y-012621
X000502Y-013121
X000502Y-014121
X000502Y-014621
X000502Y-015121
T3
X001101Y-007021
X004101Y-007021
X011601Y-007021
X014601Y-007021
X016102Y-006971
X019102Y-006971
X022751Y-001621
X022751Y-004621
T4
X006299Y-001524
X007225Y-015747
X007225Y-016747
X007225Y-017747
X007225Y-018747
X007225Y-019747
X007225Y-020747
X008031Y-001524
T5
X003101Y-001621
X004101Y-001621
X010601Y-001621
X011601Y-001621
X018102Y-001621
X019102Y-001621
X025602Y-001621
X026602Y-001621
T6
X000002Y-037321
X001202Y-037321
X004202Y-037321
X005702Y-037321
X007202Y-037321
X008702Y-037321
X010202Y-037321
X014202Y-037321
X015702Y-037321
X017202Y-037321
X018702Y-037321
X020202Y-037321
X021702Y-037321
X023202Y-037321
X024702Y-037321
X028202Y-037321
X029702Y-037321
T7
X002101Y-032621
X002101Y-040121
X002601Y-005621
X002601Y-013121
X002601Y-020621
X002601Y-028121
X004601Y-031621
X004601Y-039121
X005101Y-004621
X005101Y-012121
X005101Y-019621
X005101Y-027121
X006351Y-035622
X006351Y-043122
X008851Y-034622
X008851Y-042122
X010101Y-005621
X010101Y-013121
X010101Y-020621
X010101Y-028121
X010101Y-035621
X010101Y-043122
X012601Y-004621
X012601Y-012121
X012601Y-019621
X012601Y-027121
X012601Y-034621
X012601Y-042122
X017602Y-005622
X017602Y-013121
X017602Y-020621
X017602Y-028121
X017602Y-035621
X017602Y-043122
X020102Y-004622
X020102Y-012121
X020102Y-019621
X020102Y-027121
X020102Y-034621
X020102Y-042122
X025102Y-005622
X025102Y-013122
X025102Y-020622
X025102Y-028122
X025102Y-035622
X025102Y-043122
X027102Y-013372
X027102Y-020872
X027102Y-028372
X027102Y-035872
X027602Y-004622
X027602Y-012122
X027602Y-019622
X027602Y-027122
X027602Y-034622
X027602Y-042122
X028102Y-015872
X028102Y-023372
X028102Y-030872
X028102Y-038372
T8
X001601Y-003621
X001601Y-011121
X001601Y-018621
X001601Y-026121
X001601Y-033621
X001601Y-041121
X005351Y-033622
X005351Y-041122
X005601Y-003621
X005601Y-011121
X005601Y-018621
X005601Y-026121
X005601Y-033621
X005601Y-041121
X009101Y-003621
X009101Y-011121
X009101Y-018621
X009101Y-026121
X009101Y-033621
X009101Y-041122
X009351Y-033622
X009351Y-041122
X013101Y-003621
X013101Y-011121
X013101Y-018621
X013101Y-026121
X013101Y-033621
X013101Y-041122
X016602Y-003622
X016602Y-011121
X016602Y-018621
X016602Y-026121
X016602Y-033621
X016602Y-041122
X020602Y-003622
X020602Y-011121
X020602Y-018621
X020602Y-026121
X020602Y-033621
X020602Y-041122
X024102Y-003622
X024102Y-011122
X024102Y-018622
X024102Y-026122
X024102Y-033622
X024102Y-041122
X026102Y-012872
X026102Y-016872
X026102Y-020372
X026102Y-024372
X026102Y-027872
X026102Y-031872
X026102Y-035372
X026102Y-039372
X028102Y-003622
X028102Y-011122
X028102Y-018622
X028102Y-026122
X028102Y-033622
X028102Y-041122
T9
X006851Y-007371
X006851Y-029871
X007351Y-007371
X007351Y-029871
X007851Y-007371
X007851Y-029871
X014351Y-039971
X014851Y-039971
X015351Y-039971
X021851Y-007371
X021851Y-029871
X022351Y-007371
X022351Y-029871
X022851Y-007371
X022851Y-029871
T10
X002651Y-036372
X002651Y-043872
X012051Y-036372
X012051Y-043872
X028852Y-010172
X028852Y-017672
X028852Y-019572
X028852Y-025172
X028852Y-027072
X028852Y-032672
X028852Y-034572
X028852Y-042072
T11
X002651Y-030372
X002651Y-037872
X003601Y-003621
X003601Y-011121
X003601Y-018621
X003601Y-026121
X003601Y-033621
X003601Y-041121
X007351Y-033622
X007351Y-041122
X011101Y-003621
X011101Y-011121
X011101Y-018621
X011101Y-026121
X011101Y-033621
X011101Y-041122
X012051Y-030372
X012051Y-037872
X018602Y-003622
X018602Y-011121
X018602Y-018621
X018602Y-026121
X018602Y-033621
X018602Y-041122
X022852Y-010172
X022852Y-017672
X022852Y-019572
X022852Y-025172
X022852Y-027072
X022852Y-032672
X022852Y-034572
X022852Y-042072
X026102Y-003622
X026102Y-011122
X026102Y-014872
X026102Y-018622
X026102Y-022372
X026102Y-026122
X026102Y-029872
X026102Y-033622
X026102Y-037372
X026102Y-041122
T9
X006859Y-007371G85X007844Y-007371
G05
X006859Y-029871G85X007844Y-029871
G05
X014359Y-039971G85X015343Y-039971
G05
X021859Y-007371G85X022843Y-007371
G05
X021859Y-029871G85X022843Y-029871
G05
T0
M30
