M48
;DRILL file {Pcbnew (2013-02-13 BZR 3947)-testing} date 9/17/2013 5:01:31 PM
;FORMAT={3:3/ absolute / metric / keep zeros}
FMAT,2
METRIC,TZ
T1C0.400
T2C0.813
T3C0.900
T4C0.991
T5C1.000
T6C1.499
T7C1.499
T8C1.702
T9C1.702
T10C2.499
T11C3.048
T12C3.988
%
G90
G05
M71
T1
X000892Y-000818
X000892Y-093655
X000892Y-112705
X011848Y-016158
X012744Y-081743
X015017Y-075017
X017217Y-057584
X020281Y-050755
X029325Y-054455
X030088Y-064291
X031831Y-051701
X032991Y-033196
X033126Y-064168
X034272Y-049810
X034499Y-013441
X034537Y-056285
X035859Y-053201
X036674Y-065974
X036697Y-045022
X037009Y-052291
X037026Y-050632
X037838Y-054680
X038091Y-056108
X039751Y-060640
X040062Y-067558
X040235Y-058591
X040873Y-059664
X041619Y-056936
X042205Y-051921
X044082Y-057754
X044884Y-061356
X053462Y-060071
X054448Y-041076
X059993Y-056192
X061857Y-057734
X062151Y-093147
X074552Y-000943
X074552Y-093655
X074552Y-112705
T2
X002798Y-018088
X010417Y-018088
X029467Y-018088
X037088Y-018088
X048518Y-018088
X056138Y-018088
X061218Y-018088
X068838Y-018088
T3
X016000Y-003870
X018352Y-039997
X018352Y-042537
X018352Y-045077
X018352Y-047617
X018352Y-050157
X018352Y-052697
X020400Y-003870
T4
X007877Y-004118
X010417Y-004118
X026928Y-004118
X029467Y-004118
X045978Y-004118
X048518Y-004118
X065028Y-004118
X067568Y-004118
T5
X037722Y-094798
X040136Y-094798
X042676Y-094798
T6
X006608Y-014278
X006608Y-033328
X006608Y-052377
X006608Y-071427
X006608Y-090477
X006608Y-109530
X012958Y-011737
X012958Y-030788
X012958Y-049837
X012958Y-068887
X012958Y-087937
X012958Y-106990
X025658Y-014278
X025658Y-033328
X025658Y-052377
X025658Y-071427
X025658Y-090477
X025658Y-109530
X032008Y-011737
X032008Y-030788
X032008Y-049837
X032008Y-068887
X032008Y-087937
X032008Y-106990
X044708Y-014280
X044708Y-033328
X044708Y-052377
X044708Y-071427
X044708Y-090477
X051058Y-011740
X051058Y-030788
X051058Y-049837
X051058Y-068887
X051058Y-087937
X063758Y-014280
X063758Y-071430
X063758Y-090480
X070108Y-011740
X070108Y-068890
X070108Y-087940
T7
X016133Y-090480
X016133Y-109530
X022483Y-087940
X022483Y-106990
X044708Y-109530
X051058Y-106990
X063758Y-033330
X063758Y-052380
X063758Y-109530
X068838Y-033965
X068838Y-053015
X068838Y-072065
X068838Y-091115
X070108Y-030790
X070108Y-049840
X070108Y-106990
X071378Y-040315
X071378Y-059365
X071378Y-078415
X071378Y-097465
T8
X004068Y-009198
X004068Y-028247
X004068Y-047297
X004068Y-066347
X004068Y-085397
X004068Y-104450
X014227Y-009198
X014227Y-028247
X014227Y-047297
X014227Y-066347
X014227Y-085397
X014227Y-104450
X023118Y-009198
X023118Y-028247
X023118Y-047297
X023118Y-066347
X023118Y-085397
X023118Y-104450
X033278Y-009198
X033278Y-028247
X033278Y-047297
X033278Y-066347
X033278Y-085397
X033278Y-104450
X042168Y-009200
X042168Y-028247
X042168Y-047297
X042168Y-066347
X042168Y-085397
X052328Y-009200
X052328Y-028247
X052328Y-047297
X052328Y-066347
X052328Y-085397
X061218Y-009200
X061218Y-066350
X061218Y-085400
X071378Y-009200
X071378Y-066350
X071378Y-085400
T9
X013592Y-085400
X013592Y-104450
X023753Y-085400
X023753Y-104450
X042168Y-104450
X052328Y-104450
X061218Y-028250
X061218Y-047300
X061218Y-104450
X066298Y-032695
X066298Y-042855
X066298Y-051745
X066298Y-061905
X066298Y-070795
X066298Y-080955
X066298Y-089845
X066298Y-100005
X071378Y-028250
X071378Y-047300
X071378Y-104450
T11
X006735Y-092385
X006735Y-111435
X030610Y-092385
X030610Y-111435
X073283Y-025837
X073283Y-044887
X073283Y-049713
X073283Y-063937
X073283Y-068763
X073283Y-082987
X073283Y-087813
X073283Y-106863
T12
X006735Y-077145
X006735Y-096195
X009148Y-009198
X009148Y-028247
X009148Y-047297
X009148Y-066347
X009148Y-085397
X009148Y-104450
X018673Y-085400
X018673Y-104450
X028197Y-009198
X028197Y-028247
X028197Y-047297
X028197Y-066347
X028197Y-085397
X028197Y-104450
X030610Y-077145
X030610Y-096195
X047248Y-009200
X047248Y-028247
X047248Y-047297
X047248Y-066347
X047248Y-085397
X047248Y-104450
X058043Y-025837
X058043Y-044887
X058043Y-049713
X058043Y-063937
X058043Y-068763
X058043Y-082987
X058043Y-087813
X058043Y-106863
X066298Y-009200
X066298Y-028250
X066298Y-037775
X066298Y-047300
X066298Y-056825
X066298Y-066350
X066298Y-075875
X066298Y-085400
X066298Y-094925
X066298Y-104450
T10
X-000792Y-056501G85X003709Y-056501
G05
T0
M30
