G04 (created by PCBNEW (2013-02-13 BZR 3947)-testing) date 9/24/2013 1:08:39 PM*
%MOIN*%
G04 Gerber Fmt 3.4, Leading zero omitted, Abs format*
%FSLAX34Y34*%
G01*
G70*
G90*
G04 APERTURE LIST*
%ADD10C,0*%
%ADD11C,0.2756*%
%ADD12O,0.3937X0.1969*%
%ADD13C,0.0354331*%
%ADD14C,0.0708661*%
%ADD15C,0.0629921*%
%ADD16C,0.09*%
%ADD17C,0.157*%
%ADD18C,0.067*%
%ADD19O,0.075X0.085*%
%ADD20R,0.075X0.085*%
%ADD21C,0.0393701*%
%ADD22C,0.12*%
%ADD23C,0.00787402*%
%ADD24C,0.02*%
%ADD25C,0.01*%
G04 APERTURE END LIST*
G54D10*
G54D11*
X14851Y-32120D03*
G54D12*
X574Y-22244D03*
G54D13*
X6299Y-1523D03*
X8031Y-1523D03*
G54D14*
X7225Y-16746D03*
X7225Y-18746D03*
X7225Y-20746D03*
X7225Y-17746D03*
X7225Y-19746D03*
X7225Y-15746D03*
G54D15*
X1101Y-7121D03*
X4101Y-7121D03*
G54D16*
X4601Y-39120D03*
X2101Y-40120D03*
G54D17*
X3601Y-41120D03*
G54D18*
X1601Y-41120D03*
X5601Y-41120D03*
G54D16*
X17601Y-28120D03*
X20101Y-27120D03*
G54D17*
X18601Y-26120D03*
G54D18*
X20601Y-26120D03*
X16601Y-26120D03*
G54D16*
X17601Y-13121D03*
X20101Y-12121D03*
G54D17*
X18601Y-11121D03*
G54D18*
X20601Y-11121D03*
X16601Y-11121D03*
G54D16*
X25101Y-5622D03*
X27601Y-4622D03*
G54D17*
X26101Y-3622D03*
G54D18*
X28101Y-3622D03*
X24101Y-3622D03*
G54D16*
X17601Y-5622D03*
X20101Y-4622D03*
G54D17*
X18601Y-3622D03*
G54D18*
X20601Y-3622D03*
X16601Y-3622D03*
G54D16*
X17601Y-20620D03*
X20101Y-19620D03*
G54D17*
X18601Y-18620D03*
G54D18*
X20601Y-18620D03*
X16601Y-18620D03*
G54D16*
X10101Y-43122D03*
X12601Y-42122D03*
G54D17*
X11101Y-41122D03*
G54D18*
X13101Y-41122D03*
X9101Y-41122D03*
G54D19*
X26601Y-1621D03*
G54D20*
X25601Y-1621D03*
G54D19*
X4101Y-1621D03*
G54D20*
X3101Y-1621D03*
G54D21*
X351Y-36370D03*
X29351Y-371D03*
X29351Y-36620D03*
X351Y-322D03*
G54D16*
X2601Y-5621D03*
X5101Y-4621D03*
G54D17*
X3601Y-3621D03*
G54D18*
X5601Y-3621D03*
X1601Y-3621D03*
G54D16*
X2601Y-28120D03*
X5101Y-27120D03*
G54D17*
X3601Y-26120D03*
G54D18*
X5601Y-26120D03*
X1601Y-26120D03*
G54D16*
X10101Y-28120D03*
X12601Y-27120D03*
G54D17*
X11101Y-26120D03*
G54D18*
X13101Y-26120D03*
X9101Y-26120D03*
G54D16*
X10101Y-35620D03*
X12601Y-34620D03*
G54D17*
X11101Y-33620D03*
G54D18*
X13101Y-33620D03*
X9101Y-33620D03*
G54D16*
X17601Y-35620D03*
X20101Y-34620D03*
G54D17*
X18601Y-33620D03*
G54D18*
X20601Y-33620D03*
X16601Y-33620D03*
G54D16*
X4601Y-31620D03*
X2101Y-32620D03*
G54D17*
X3601Y-33620D03*
G54D18*
X1601Y-33620D03*
X5601Y-33620D03*
G54D16*
X10101Y-20620D03*
X12601Y-19620D03*
G54D17*
X11101Y-18620D03*
G54D18*
X13101Y-18620D03*
X9101Y-18620D03*
G54D16*
X2601Y-20620D03*
X5101Y-19620D03*
G54D17*
X3601Y-18620D03*
G54D18*
X5601Y-18620D03*
X1601Y-18620D03*
G54D16*
X10101Y-13121D03*
X12601Y-12121D03*
G54D17*
X11101Y-11121D03*
G54D18*
X13101Y-11121D03*
X9101Y-11121D03*
G54D16*
X25101Y-35622D03*
X27601Y-34622D03*
G54D17*
X26101Y-33622D03*
G54D18*
X28101Y-33622D03*
X24101Y-33622D03*
G54D16*
X25101Y-28122D03*
X27601Y-27122D03*
G54D17*
X26101Y-26122D03*
G54D18*
X28101Y-26122D03*
X24101Y-26122D03*
G54D16*
X2601Y-13121D03*
X5101Y-12121D03*
G54D17*
X3601Y-11121D03*
G54D18*
X5601Y-11121D03*
X1601Y-11121D03*
G54D16*
X10101Y-5621D03*
X12601Y-4621D03*
G54D17*
X11101Y-3621D03*
G54D18*
X13101Y-3621D03*
X9101Y-3621D03*
G54D15*
X24101Y-7121D03*
X27101Y-7121D03*
X14601Y-7121D03*
X11601Y-7121D03*
X22101Y-7121D03*
X19101Y-7121D03*
G54D19*
X11601Y-1621D03*
G54D20*
X10601Y-1621D03*
G54D19*
X19101Y-1621D03*
G54D20*
X18101Y-1621D03*
G54D21*
X29351Y-44372D03*
X351Y-44372D03*
G54D16*
X6351Y-35622D03*
X8851Y-34622D03*
G54D17*
X7351Y-33622D03*
G54D18*
X9351Y-33622D03*
X5351Y-33622D03*
G54D22*
X12051Y-36372D03*
X2651Y-36372D03*
G54D17*
X12051Y-30372D03*
X2651Y-30372D03*
G54D16*
X28101Y-30872D03*
X27101Y-28372D03*
G54D17*
X26101Y-29872D03*
G54D18*
X26101Y-27872D03*
X26101Y-31872D03*
G54D22*
X28851Y-25172D03*
X28851Y-34572D03*
G54D17*
X22851Y-25172D03*
X22851Y-34572D03*
G54D16*
X28101Y-15872D03*
X27101Y-13372D03*
G54D17*
X26101Y-14872D03*
G54D18*
X26101Y-12872D03*
X26101Y-16872D03*
G54D22*
X28851Y-10172D03*
X28851Y-19572D03*
G54D17*
X22851Y-10172D03*
X22851Y-19572D03*
G54D16*
X17601Y-43122D03*
X20101Y-42122D03*
G54D17*
X18601Y-41122D03*
G54D18*
X20601Y-41122D03*
X16601Y-41122D03*
G54D16*
X25101Y-43122D03*
X27601Y-42122D03*
G54D17*
X26101Y-41122D03*
G54D18*
X28101Y-41122D03*
X24101Y-41122D03*
G54D16*
X25101Y-13122D03*
X27601Y-12122D03*
G54D17*
X26101Y-11122D03*
G54D18*
X28101Y-11122D03*
X24101Y-11122D03*
G54D16*
X25101Y-20622D03*
X27601Y-19622D03*
G54D17*
X26101Y-18622D03*
G54D18*
X28101Y-18622D03*
X24101Y-18622D03*
G54D16*
X6351Y-43122D03*
X8851Y-42122D03*
G54D17*
X7351Y-41122D03*
G54D18*
X9351Y-41122D03*
X5351Y-41122D03*
G54D22*
X12051Y-43872D03*
X2651Y-43872D03*
G54D17*
X12051Y-37872D03*
X2651Y-37872D03*
G54D16*
X28101Y-23372D03*
X27101Y-20872D03*
G54D17*
X26101Y-22372D03*
G54D18*
X26101Y-20372D03*
X26101Y-24372D03*
G54D22*
X28851Y-17672D03*
X28851Y-27072D03*
G54D17*
X22851Y-17672D03*
X22851Y-27072D03*
G54D16*
X28101Y-38372D03*
X27101Y-35872D03*
G54D17*
X26101Y-37372D03*
G54D18*
X26101Y-35372D03*
X26101Y-39372D03*
G54D22*
X28851Y-32672D03*
X28851Y-42072D03*
G54D17*
X22851Y-32672D03*
X22851Y-42072D03*
G54D21*
X14851Y-37322D03*
X16001Y-37320D03*
X17201Y-37320D03*
X18401Y-37320D03*
X19601Y-37320D03*
X21501Y-37320D03*
X22601Y-37320D03*
X23801Y-37320D03*
X28301Y-37320D03*
X13501Y-37320D03*
X10701Y-37320D03*
X9501Y-37320D03*
X8301Y-37320D03*
X7001Y-37320D03*
X5801Y-37320D03*
X1251Y-37320D03*
X3901Y-37320D03*
G54D11*
X14851Y-9621D03*
G54D21*
X201Y-37320D03*
X29501Y-37320D03*
X17304Y-24129D03*
X16171Y-23406D03*
X15845Y-23748D03*
X10106Y-19513D03*
X11241Y-23527D03*
X4367Y-19546D03*
X5828Y-26999D03*
X10828Y-28044D03*
X15297Y-16120D03*
X15297Y-23768D03*
X16097Y-35770D03*
X21724Y-36312D03*
X21724Y-28714D03*
X21656Y-6194D03*
X20791Y-14174D03*
X20803Y-16675D03*
X21724Y-17175D03*
X28851Y-41167D03*
X29382Y-35815D03*
X15919Y-22556D03*
X15919Y-18137D03*
X10468Y-24608D03*
X12873Y-20347D03*
X10101Y-15889D03*
X3862Y-17082D03*
X18804Y-23045D03*
X14471Y-19857D03*
X12698Y-23071D03*
X6476Y-22440D03*
X6652Y-18301D03*
X14555Y-2230D03*
X901Y-15121D03*
X3051Y-15121D03*
X18901Y-8421D03*
X10301Y-7821D03*
X16551Y-7821D03*
X7701Y-10371D03*
X17501Y-9821D03*
X22101Y-14121D03*
X22101Y-11371D03*
X20551Y-10121D03*
X9251Y-14821D03*
X21101Y-38671D03*
X27651Y-36921D03*
X9351Y-39221D03*
X14351Y-39171D03*
X29251Y-39421D03*
X10862Y-20985D03*
X10862Y-21934D03*
X9763Y-23034D03*
X11716Y-25186D03*
X13767Y-22677D03*
X13570Y-21768D03*
X8187Y-2843D03*
X7710Y-4590D03*
X6732Y-14333D03*
X21957Y-21107D03*
X23919Y-24748D03*
X21957Y-24463D03*
X23720Y-22106D03*
X22460Y-21131D03*
X23759Y-15091D03*
X11853Y-14860D03*
X12225Y-20735D03*
X8086Y-5153D03*
X8086Y-3655D03*
X23247Y-21065D03*
X23756Y-20178D03*
X21074Y-19799D03*
X21104Y-22504D03*
X11466Y-16535D03*
X13418Y-17607D03*
X6965Y-5509D03*
X6965Y-1676D03*
X26785Y-43888D03*
X13330Y-44173D03*
X14176Y-36935D03*
X14086Y-12960D03*
X14003Y-24209D03*
X19312Y-13367D03*
X12012Y-13658D03*
X13441Y-23672D03*
X19262Y-28664D03*
X4367Y-6126D03*
X18031Y-21806D03*
X17557Y-22509D03*
X9377Y-21673D03*
X11087Y-24750D03*
X11678Y-21463D03*
X5921Y-16879D03*
X24375Y-24203D03*
X14713Y-26977D03*
G54D23*
X17018Y-23843D02*
X17304Y-24129D01*
X17018Y-20393D02*
X17018Y-23843D01*
X17376Y-20036D02*
X17018Y-20393D01*
X17376Y-18233D02*
X17376Y-20036D01*
X18201Y-17408D02*
X17376Y-18233D01*
X18201Y-12701D02*
X18201Y-17408D01*
X17680Y-12180D02*
X18201Y-12701D01*
X17680Y-10556D02*
X17680Y-12180D01*
X18171Y-10065D02*
X17680Y-10556D01*
X18171Y-5360D02*
X18171Y-10065D01*
X17861Y-5051D02*
X18171Y-5360D01*
X16671Y-5051D02*
X17861Y-5051D01*
X14601Y-7121D02*
X16671Y-5051D01*
X16171Y-23454D02*
X16171Y-23406D01*
X17171Y-24454D02*
X16171Y-23454D01*
X17426Y-24454D02*
X17171Y-24454D01*
X17990Y-23891D02*
X17426Y-24454D01*
X17990Y-22292D02*
X17990Y-23891D01*
X18360Y-21922D02*
X17990Y-22292D01*
X18360Y-19810D02*
X18360Y-21922D01*
X17681Y-19131D02*
X18360Y-19810D01*
X17681Y-18262D02*
X17681Y-19131D01*
X18312Y-17631D02*
X17681Y-18262D01*
X20310Y-17631D02*
X18312Y-17631D01*
X21244Y-16696D02*
X20310Y-17631D01*
X21244Y-7978D02*
X21244Y-16696D01*
X22101Y-7121D02*
X21244Y-7978D01*
X16709Y-24612D02*
X15845Y-23748D01*
X17491Y-24612D02*
X16709Y-24612D01*
X18419Y-23684D02*
X17491Y-24612D01*
X18419Y-22089D02*
X18419Y-23684D01*
X18518Y-21990D02*
X18419Y-22089D01*
X18518Y-20060D02*
X18518Y-21990D01*
X21402Y-17176D02*
X18518Y-20060D01*
X21402Y-9820D02*
X21402Y-17176D01*
X24101Y-7121D02*
X21402Y-9820D01*
X11241Y-20543D02*
X11241Y-23527D01*
X10212Y-19513D02*
X11241Y-20543D01*
X10106Y-19513D02*
X10212Y-19513D01*
X4367Y-25538D02*
X5828Y-26999D01*
X4367Y-19546D02*
X4367Y-25538D01*
X9783Y-26999D02*
X10828Y-28044D01*
X5828Y-26999D02*
X9783Y-26999D01*
X17060Y-34807D02*
X16097Y-35770D01*
X17060Y-29504D02*
X17060Y-34807D01*
X16612Y-29056D02*
X17060Y-29504D01*
X16612Y-26801D02*
X16612Y-29056D01*
X15297Y-25486D02*
X16612Y-26801D01*
X15297Y-23768D02*
X15297Y-25486D01*
X15297Y-23768D02*
X15297Y-16120D01*
X21724Y-36312D02*
X21724Y-28714D01*
X21083Y-13882D02*
X20791Y-14174D01*
X21083Y-6767D02*
X21083Y-13882D01*
X21656Y-6194D02*
X21083Y-6767D01*
X20803Y-14185D02*
X20803Y-16675D01*
X20791Y-14174D02*
X20803Y-14185D01*
X21636Y-17263D02*
X21724Y-17175D01*
X21636Y-28626D02*
X21636Y-17263D01*
X21724Y-28714D02*
X21636Y-28626D01*
X28851Y-36345D02*
X29382Y-35815D01*
X28851Y-41167D02*
X28851Y-36345D01*
X15919Y-22556D02*
X15919Y-18137D01*
X10468Y-23233D02*
X10468Y-24608D01*
X7225Y-19989D02*
X10468Y-23233D01*
X7225Y-19746D02*
X7225Y-19989D01*
X6540Y-19061D02*
X7225Y-19746D01*
X6540Y-18634D02*
X6540Y-19061D01*
X6540Y-18634D02*
X6540Y-18634D01*
X6337Y-18431D02*
X6540Y-18634D01*
X6337Y-9357D02*
X6337Y-18431D01*
X4101Y-7121D02*
X6337Y-9357D01*
X17601Y-8987D02*
X17601Y-5622D01*
X13733Y-12855D02*
X17601Y-8987D01*
X13733Y-19487D02*
X13733Y-12855D01*
X12873Y-20347D02*
X13733Y-19487D01*
X10101Y-13121D02*
X10101Y-15889D01*
X2601Y-18343D02*
X2601Y-20620D01*
X3862Y-17082D02*
X2601Y-18343D01*
X2601Y-28120D02*
X10101Y-28120D01*
X18804Y-23649D02*
X18804Y-23045D01*
X17601Y-24852D02*
X18804Y-23649D01*
X17601Y-28120D02*
X17601Y-24852D01*
X4601Y-33872D02*
X6351Y-35622D01*
X4601Y-31620D02*
X4601Y-33872D01*
X6351Y-40870D02*
X4601Y-39120D01*
X6351Y-43122D02*
X6351Y-40870D01*
X14471Y-24994D02*
X14471Y-19857D01*
X16348Y-26871D02*
X14471Y-24994D01*
X16348Y-32872D02*
X16348Y-26871D01*
X15686Y-33534D02*
X16348Y-32872D01*
X15686Y-41206D02*
X15686Y-33534D01*
X17601Y-43122D02*
X15686Y-41206D01*
X12698Y-21660D02*
X12698Y-23071D01*
X10172Y-19134D02*
X12698Y-21660D01*
X10172Y-19134D02*
X10172Y-19134D01*
X10172Y-18021D02*
X10172Y-19134D01*
X7405Y-15253D02*
X10172Y-18021D01*
X7045Y-15253D02*
X7405Y-15253D01*
X6737Y-15561D02*
X7045Y-15253D01*
X6737Y-17940D02*
X6737Y-15561D01*
X7225Y-18428D02*
X6737Y-17940D01*
X7225Y-18746D02*
X7225Y-18428D01*
X6476Y-21495D02*
X6476Y-22440D01*
X7225Y-20746D02*
X6476Y-21495D01*
X14555Y-6276D02*
X14555Y-2230D01*
X9783Y-11049D02*
X14555Y-6276D01*
X9783Y-11727D02*
X9783Y-11049D01*
X6573Y-14936D02*
X9783Y-11727D01*
X6573Y-18222D02*
X6573Y-14936D01*
X6652Y-18301D02*
X6573Y-18222D01*
G54D24*
X3051Y-15121D02*
X901Y-15121D01*
X18901Y-8421D02*
X18901Y-8471D01*
X7751Y-10371D02*
X10301Y-7821D01*
X7710Y-13354D02*
X7710Y-10380D01*
X7710Y-10380D02*
X7701Y-10371D01*
X7701Y-10371D02*
X7751Y-10371D01*
X22101Y-11371D02*
X22101Y-14121D01*
X18901Y-8471D02*
X20551Y-10121D01*
X6732Y-14333D02*
X7710Y-13354D01*
X9251Y-14821D02*
X9251Y-14871D01*
X27651Y-37521D02*
X26501Y-38671D01*
X26501Y-38671D02*
X21101Y-38671D01*
X27651Y-36921D02*
X27651Y-37521D01*
X14301Y-39221D02*
X9351Y-39221D01*
X14351Y-39171D02*
X14301Y-39221D01*
X585Y-36605D02*
X351Y-36370D01*
X585Y-44137D02*
X585Y-36605D01*
X351Y-44372D02*
X585Y-44137D01*
X10862Y-20492D02*
X10862Y-20985D01*
X10259Y-19889D02*
X10862Y-20492D01*
X9950Y-19889D02*
X10259Y-19889D01*
X9730Y-19669D02*
X9950Y-19889D01*
X9730Y-18252D02*
X9730Y-19669D01*
X7225Y-15746D02*
X9730Y-18252D01*
X10862Y-20985D02*
X10862Y-21934D01*
X13570Y-22480D02*
X13767Y-22677D01*
X13570Y-21768D02*
X13570Y-22480D01*
X7710Y-3319D02*
X7710Y-4590D01*
X8187Y-2843D02*
X7710Y-3319D01*
X7710Y-4590D02*
X7710Y-13354D01*
X11661Y-25131D02*
X11716Y-25186D01*
X10458Y-25131D02*
X11661Y-25131D01*
X9763Y-24436D02*
X10458Y-25131D01*
X9763Y-23034D02*
X9763Y-24436D01*
X23379Y-24207D02*
X21957Y-24207D01*
X23919Y-24748D02*
X23379Y-24207D01*
X21957Y-24463D02*
X21957Y-24207D01*
X21957Y-24207D02*
X21957Y-21107D01*
G54D23*
X11874Y-20385D02*
X12225Y-20735D01*
X11874Y-19180D02*
X11874Y-20385D01*
X12012Y-19042D02*
X11874Y-19180D01*
X12012Y-15019D02*
X12012Y-19042D01*
X11853Y-14860D02*
X12012Y-15019D01*
X23435Y-22106D02*
X23720Y-22106D01*
X22460Y-21131D02*
X23435Y-22106D01*
X23759Y-18164D02*
X23759Y-15091D01*
X23648Y-18275D02*
X23759Y-18164D01*
X23648Y-18903D02*
X23648Y-18275D01*
X24091Y-19345D02*
X23648Y-18903D01*
X24091Y-21736D02*
X24091Y-19345D01*
X23720Y-22106D02*
X24091Y-21736D01*
X27033Y-7052D02*
X27101Y-7121D01*
X27033Y-1937D02*
X27033Y-7052D01*
X27094Y-1875D02*
X27033Y-1937D01*
X27094Y-1621D02*
X27094Y-1875D01*
X26601Y-1621D02*
X27094Y-1621D01*
X8086Y-5153D02*
X8086Y-3655D01*
X21074Y-22473D02*
X21104Y-22504D01*
X21074Y-19799D02*
X21074Y-22473D01*
X23756Y-20555D02*
X23247Y-21065D01*
X23756Y-20178D02*
X23756Y-20555D01*
X11466Y-13731D02*
X11466Y-16535D01*
X11855Y-13342D02*
X11466Y-13731D01*
X12142Y-13342D02*
X11855Y-13342D01*
X13418Y-14618D02*
X12142Y-13342D01*
X13418Y-17607D02*
X13418Y-14618D01*
X19512Y-6710D02*
X19101Y-7121D01*
X19512Y-1957D02*
X19512Y-6710D01*
X19594Y-1875D02*
X19512Y-1957D01*
X19594Y-1621D02*
X19594Y-1875D01*
X19101Y-1621D02*
X19594Y-1621D01*
X12012Y-6710D02*
X11601Y-7121D01*
X12012Y-1957D02*
X12012Y-6710D01*
X12094Y-1875D02*
X12012Y-1957D01*
X12094Y-1621D02*
X12094Y-1875D01*
X11601Y-1621D02*
X12094Y-1621D01*
X6965Y-1676D02*
X6965Y-5509D01*
X26785Y-42938D02*
X26785Y-43888D01*
X27601Y-42122D02*
X26785Y-42938D01*
X13330Y-42851D02*
X13330Y-44173D01*
X12601Y-42122D02*
X13330Y-42851D01*
X14176Y-36195D02*
X14176Y-36935D01*
X12601Y-34620D02*
X14176Y-36195D01*
X14086Y-24126D02*
X14086Y-12960D01*
X14003Y-24209D02*
X14086Y-24126D01*
X27101Y-20122D02*
X27101Y-20872D01*
X27601Y-19622D02*
X27101Y-20122D01*
X27101Y-35122D02*
X27101Y-35872D01*
X27601Y-34622D02*
X27101Y-35122D01*
X27101Y-27622D02*
X27101Y-28372D01*
X27601Y-27122D02*
X27101Y-27622D01*
X27101Y-12622D02*
X27101Y-13372D01*
X27601Y-12122D02*
X27101Y-12622D01*
X19312Y-12909D02*
X19312Y-13367D01*
X20101Y-12121D02*
X19312Y-12909D01*
X12169Y-13815D02*
X12012Y-13658D01*
X12169Y-19186D02*
X12169Y-13815D01*
X12032Y-19324D02*
X12169Y-19186D01*
X12032Y-20056D02*
X12032Y-19324D01*
X13255Y-21279D02*
X12032Y-20056D01*
X13255Y-23486D02*
X13255Y-21279D01*
X13441Y-23672D02*
X13255Y-23486D01*
X1101Y-5745D02*
X1101Y-7121D01*
X2283Y-4563D02*
X1101Y-5745D01*
X2283Y-3439D02*
X2283Y-4563D01*
X3608Y-2114D02*
X2283Y-3439D01*
X3608Y-1621D02*
X3608Y-2114D01*
X4101Y-1621D02*
X3608Y-1621D01*
X19262Y-27959D02*
X19262Y-28664D01*
X20101Y-27120D02*
X19262Y-27959D01*
X4367Y-5354D02*
X4367Y-6126D01*
X5101Y-4621D02*
X4367Y-5354D01*
X17557Y-22279D02*
X17557Y-22509D01*
X18031Y-21806D02*
X17557Y-22279D01*
G54D24*
X9377Y-19899D02*
X9377Y-21673D01*
X7225Y-17746D02*
X9377Y-19899D01*
X10844Y-24506D02*
X11087Y-24750D01*
X10844Y-23140D02*
X10844Y-24506D01*
X9377Y-21673D02*
X10844Y-23140D01*
X5921Y-14840D02*
X5921Y-16879D01*
X2115Y-11034D02*
X5921Y-14840D01*
X2115Y-10877D02*
X2115Y-11034D01*
X597Y-9359D02*
X2115Y-10877D01*
X597Y-3570D02*
X597Y-9359D01*
X2547Y-1621D02*
X597Y-3570D01*
X3101Y-1621D02*
X2547Y-1621D01*
X25601Y-1621D02*
X25601Y-2224D01*
X25128Y-2698D02*
X25601Y-2224D01*
X25128Y-4044D02*
X25128Y-2698D01*
X25745Y-4661D02*
X25128Y-4044D01*
X25745Y-7837D02*
X25745Y-4661D01*
X24783Y-8800D02*
X25745Y-7837D01*
X24783Y-11635D02*
X24783Y-8800D01*
X24465Y-11953D02*
X24783Y-11635D01*
X24465Y-18012D02*
X24465Y-11953D01*
X24617Y-18164D02*
X24465Y-18012D01*
X24617Y-19824D02*
X24617Y-18164D01*
X24375Y-20065D02*
X24617Y-19824D01*
X24375Y-24203D02*
X24375Y-20065D01*
X11087Y-24750D02*
X11678Y-24158D01*
X11678Y-24158D02*
X11678Y-21463D01*
X11894Y-24158D02*
X14713Y-26977D01*
X11678Y-24158D02*
X11894Y-24158D01*
G54D10*
G36*
X6048Y-18240D02*
X5933Y-18125D01*
X5718Y-18035D01*
X5485Y-18035D01*
X5270Y-18124D01*
X5105Y-18289D01*
X5016Y-18503D01*
X5016Y-18736D01*
X5092Y-18920D01*
X4962Y-18920D01*
X4705Y-19027D01*
X4581Y-19151D01*
X4513Y-19123D01*
X4636Y-18827D01*
X4636Y-18415D01*
X4479Y-18035D01*
X4188Y-17743D01*
X3808Y-17586D01*
X3767Y-17586D01*
X3824Y-17529D01*
X3950Y-17529D01*
X4114Y-17461D01*
X4240Y-17336D01*
X4308Y-17171D01*
X4309Y-16994D01*
X4241Y-16829D01*
X4115Y-16703D01*
X3951Y-16635D01*
X3773Y-16635D01*
X3609Y-16703D01*
X3483Y-16829D01*
X3415Y-16993D01*
X3415Y-17120D01*
X3301Y-17233D01*
X3301Y-12982D01*
X3195Y-12725D01*
X2998Y-12527D01*
X2741Y-12421D01*
X2462Y-12420D01*
X2205Y-12527D01*
X2008Y-12724D01*
X1901Y-12981D01*
X1901Y-13259D01*
X2007Y-13517D01*
X2204Y-13714D01*
X2461Y-13820D01*
X2740Y-13821D01*
X2997Y-13714D01*
X3194Y-13518D01*
X3301Y-13260D01*
X3301Y-12982D01*
X3301Y-17233D01*
X2396Y-18138D01*
X2334Y-18232D01*
X2312Y-18343D01*
X2312Y-19983D01*
X2205Y-20027D01*
X2186Y-20045D01*
X2186Y-18505D01*
X2097Y-18289D01*
X1933Y-18125D01*
X1718Y-18035D01*
X1485Y-18035D01*
X1270Y-18124D01*
X1105Y-18289D01*
X1016Y-18503D01*
X1016Y-18736D01*
X1105Y-18951D01*
X1269Y-19116D01*
X1484Y-19205D01*
X1717Y-19205D01*
X1932Y-19117D01*
X2097Y-18952D01*
X2186Y-18737D01*
X2186Y-18505D01*
X2186Y-20045D01*
X2008Y-20223D01*
X1901Y-20481D01*
X1901Y-20759D01*
X2007Y-21016D01*
X2135Y-21144D01*
X2074Y-21103D01*
X1601Y-21009D01*
X270Y-21009D01*
X270Y-9475D01*
X274Y-9493D01*
X350Y-9606D01*
X1339Y-10596D01*
X1270Y-10624D01*
X1105Y-10789D01*
X1016Y-11004D01*
X1016Y-11236D01*
X1105Y-11452D01*
X1269Y-11616D01*
X1484Y-11705D01*
X1717Y-11706D01*
X1932Y-11617D01*
X2068Y-11481D01*
X5571Y-14985D01*
X5571Y-16597D01*
X5543Y-16626D01*
X5475Y-16790D01*
X5475Y-16968D01*
X5542Y-17132D01*
X5668Y-17258D01*
X5832Y-17326D01*
X6010Y-17326D01*
X6048Y-17310D01*
X6048Y-18240D01*
X6048Y-18240D01*
G37*
G54D25*
X6048Y-18240D02*
X5933Y-18125D01*
X5718Y-18035D01*
X5485Y-18035D01*
X5270Y-18124D01*
X5105Y-18289D01*
X5016Y-18503D01*
X5016Y-18736D01*
X5092Y-18920D01*
X4962Y-18920D01*
X4705Y-19027D01*
X4581Y-19151D01*
X4513Y-19123D01*
X4636Y-18827D01*
X4636Y-18415D01*
X4479Y-18035D01*
X4188Y-17743D01*
X3808Y-17586D01*
X3767Y-17586D01*
X3824Y-17529D01*
X3950Y-17529D01*
X4114Y-17461D01*
X4240Y-17336D01*
X4308Y-17171D01*
X4309Y-16994D01*
X4241Y-16829D01*
X4115Y-16703D01*
X3951Y-16635D01*
X3773Y-16635D01*
X3609Y-16703D01*
X3483Y-16829D01*
X3415Y-16993D01*
X3415Y-17120D01*
X3301Y-17233D01*
X3301Y-12982D01*
X3195Y-12725D01*
X2998Y-12527D01*
X2741Y-12421D01*
X2462Y-12420D01*
X2205Y-12527D01*
X2008Y-12724D01*
X1901Y-12981D01*
X1901Y-13259D01*
X2007Y-13517D01*
X2204Y-13714D01*
X2461Y-13820D01*
X2740Y-13821D01*
X2997Y-13714D01*
X3194Y-13518D01*
X3301Y-13260D01*
X3301Y-12982D01*
X3301Y-17233D01*
X2396Y-18138D01*
X2334Y-18232D01*
X2312Y-18343D01*
X2312Y-19983D01*
X2205Y-20027D01*
X2186Y-20045D01*
X2186Y-18505D01*
X2097Y-18289D01*
X1933Y-18125D01*
X1718Y-18035D01*
X1485Y-18035D01*
X1270Y-18124D01*
X1105Y-18289D01*
X1016Y-18503D01*
X1016Y-18736D01*
X1105Y-18951D01*
X1269Y-19116D01*
X1484Y-19205D01*
X1717Y-19205D01*
X1932Y-19117D01*
X2097Y-18952D01*
X2186Y-18737D01*
X2186Y-18505D01*
X2186Y-20045D01*
X2008Y-20223D01*
X1901Y-20481D01*
X1901Y-20759D01*
X2007Y-21016D01*
X2135Y-21144D01*
X2074Y-21103D01*
X1601Y-21009D01*
X270Y-21009D01*
X270Y-9475D01*
X274Y-9493D01*
X350Y-9606D01*
X1339Y-10596D01*
X1270Y-10624D01*
X1105Y-10789D01*
X1016Y-11004D01*
X1016Y-11236D01*
X1105Y-11452D01*
X1269Y-11616D01*
X1484Y-11705D01*
X1717Y-11706D01*
X1932Y-11617D01*
X2068Y-11481D01*
X5571Y-14985D01*
X5571Y-16597D01*
X5543Y-16626D01*
X5475Y-16790D01*
X5475Y-16968D01*
X5542Y-17132D01*
X5668Y-17258D01*
X5832Y-17326D01*
X6010Y-17326D01*
X6048Y-17310D01*
X6048Y-18240D01*
G54D10*
G36*
X9942Y-19929D02*
X9727Y-20017D01*
X9727Y-19899D01*
X9727Y-19899D01*
X9700Y-19765D01*
X9625Y-19651D01*
X9625Y-19651D01*
X9179Y-19205D01*
X9217Y-19205D01*
X9432Y-19117D01*
X9597Y-18952D01*
X9686Y-18737D01*
X9686Y-18505D01*
X9597Y-18289D01*
X9433Y-18125D01*
X9218Y-18035D01*
X8985Y-18035D01*
X8770Y-18124D01*
X8605Y-18289D01*
X8516Y-18503D01*
X8516Y-18543D01*
X7829Y-17856D01*
X7829Y-17627D01*
X7737Y-17404D01*
X7579Y-17246D01*
X7737Y-17089D01*
X7829Y-16867D01*
X7829Y-16627D01*
X7737Y-16404D01*
X7567Y-16234D01*
X7559Y-16231D01*
X7579Y-16172D01*
X7225Y-15817D01*
X7219Y-15823D01*
X7148Y-15752D01*
X7154Y-15746D01*
X7148Y-15741D01*
X7219Y-15670D01*
X7225Y-15676D01*
X7230Y-15670D01*
X7301Y-15741D01*
X7295Y-15746D01*
X7650Y-16101D01*
X7751Y-16067D01*
X7767Y-16024D01*
X9883Y-18141D01*
X9883Y-19122D01*
X9853Y-19134D01*
X9727Y-19260D01*
X9659Y-19424D01*
X9659Y-19602D01*
X9727Y-19766D01*
X9853Y-19892D01*
X9942Y-19929D01*
X9942Y-19929D01*
G37*
G54D25*
X9942Y-19929D02*
X9727Y-20017D01*
X9727Y-19899D01*
X9727Y-19899D01*
X9700Y-19765D01*
X9625Y-19651D01*
X9625Y-19651D01*
X9179Y-19205D01*
X9217Y-19205D01*
X9432Y-19117D01*
X9597Y-18952D01*
X9686Y-18737D01*
X9686Y-18505D01*
X9597Y-18289D01*
X9433Y-18125D01*
X9218Y-18035D01*
X8985Y-18035D01*
X8770Y-18124D01*
X8605Y-18289D01*
X8516Y-18503D01*
X8516Y-18543D01*
X7829Y-17856D01*
X7829Y-17627D01*
X7737Y-17404D01*
X7579Y-17246D01*
X7737Y-17089D01*
X7829Y-16867D01*
X7829Y-16627D01*
X7737Y-16404D01*
X7567Y-16234D01*
X7559Y-16231D01*
X7579Y-16172D01*
X7225Y-15817D01*
X7219Y-15823D01*
X7148Y-15752D01*
X7154Y-15746D01*
X7148Y-15741D01*
X7219Y-15670D01*
X7225Y-15676D01*
X7230Y-15670D01*
X7301Y-15741D01*
X7295Y-15746D01*
X7650Y-16101D01*
X7751Y-16067D01*
X7767Y-16024D01*
X9883Y-18141D01*
X9883Y-19122D01*
X9853Y-19134D01*
X9727Y-19260D01*
X9659Y-19424D01*
X9659Y-19602D01*
X9727Y-19766D01*
X9853Y-19892D01*
X9942Y-19929D01*
G54D10*
G36*
X10952Y-22754D02*
X9824Y-21625D01*
X9824Y-21585D01*
X9756Y-21421D01*
X9727Y-21392D01*
X9727Y-21223D01*
X9961Y-21320D01*
X10240Y-21320D01*
X10497Y-21214D01*
X10694Y-21017D01*
X10801Y-20760D01*
X10801Y-20512D01*
X10952Y-20663D01*
X10952Y-22754D01*
X10952Y-22754D01*
G37*
G54D25*
X10952Y-22754D02*
X9824Y-21625D01*
X9824Y-21585D01*
X9756Y-21421D01*
X9727Y-21392D01*
X9727Y-21223D01*
X9961Y-21320D01*
X10240Y-21320D01*
X10497Y-21214D01*
X10694Y-21017D01*
X10801Y-20760D01*
X10801Y-20512D01*
X10952Y-20663D01*
X10952Y-22754D01*
G54D10*
G36*
X13797Y-23395D02*
X13694Y-23293D01*
X13544Y-23231D01*
X13544Y-21279D01*
X13522Y-21168D01*
X13460Y-21075D01*
X13460Y-21075D01*
X13115Y-20730D01*
X13126Y-20726D01*
X13252Y-20600D01*
X13320Y-20436D01*
X13320Y-20309D01*
X13797Y-19833D01*
X13797Y-23395D01*
X13797Y-23395D01*
G37*
G54D25*
X13797Y-23395D02*
X13694Y-23293D01*
X13544Y-23231D01*
X13544Y-21279D01*
X13522Y-21168D01*
X13460Y-21075D01*
X13460Y-21075D01*
X13115Y-20730D01*
X13126Y-20726D01*
X13252Y-20600D01*
X13320Y-20436D01*
X13320Y-20309D01*
X13797Y-19833D01*
X13797Y-23395D01*
G54D10*
G36*
X17312Y-8867D02*
X16479Y-9700D01*
X16479Y-9298D01*
X16232Y-8700D01*
X15774Y-8241D01*
X15176Y-7993D01*
X14528Y-7992D01*
X13930Y-8240D01*
X13471Y-8697D01*
X13223Y-9295D01*
X13222Y-9943D01*
X13470Y-10542D01*
X13927Y-11000D01*
X14525Y-11248D01*
X14930Y-11249D01*
X13686Y-12493D01*
X13686Y-11005D01*
X13597Y-10790D01*
X13433Y-10625D01*
X13218Y-10536D01*
X12985Y-10535D01*
X12770Y-10624D01*
X12605Y-10789D01*
X12516Y-11004D01*
X12516Y-11236D01*
X12592Y-11421D01*
X12462Y-11420D01*
X12205Y-11527D01*
X12008Y-11724D01*
X11901Y-11981D01*
X11901Y-12259D01*
X12007Y-12517D01*
X12204Y-12714D01*
X12461Y-12820D01*
X12740Y-12821D01*
X12997Y-12714D01*
X13194Y-12518D01*
X13301Y-12260D01*
X13301Y-11982D01*
X13195Y-11725D01*
X13176Y-11706D01*
X13217Y-11706D01*
X13432Y-11617D01*
X13597Y-11452D01*
X13686Y-11237D01*
X13686Y-11005D01*
X13686Y-12493D01*
X13528Y-12650D01*
X13466Y-12744D01*
X13444Y-12855D01*
X13444Y-14235D01*
X12347Y-13138D01*
X12253Y-13075D01*
X12142Y-13053D01*
X11855Y-13053D01*
X11744Y-13075D01*
X11650Y-13138D01*
X11262Y-13526D01*
X11199Y-13620D01*
X11177Y-13731D01*
X11177Y-16192D01*
X11088Y-16281D01*
X11019Y-16446D01*
X11019Y-16623D01*
X11087Y-16788D01*
X11213Y-16914D01*
X11377Y-16982D01*
X11555Y-16982D01*
X11719Y-16914D01*
X11722Y-16910D01*
X11722Y-17778D01*
X11688Y-17743D01*
X11308Y-17586D01*
X10896Y-17585D01*
X10801Y-17624D01*
X10801Y-12982D01*
X10695Y-12725D01*
X10498Y-12527D01*
X10241Y-12421D01*
X9962Y-12420D01*
X9705Y-12527D01*
X9508Y-12724D01*
X9401Y-12981D01*
X9401Y-13259D01*
X9507Y-13517D01*
X9704Y-13714D01*
X9812Y-13758D01*
X9812Y-15547D01*
X9722Y-15636D01*
X9654Y-15800D01*
X9654Y-15978D01*
X9722Y-16142D01*
X9847Y-16268D01*
X10012Y-16336D01*
X10189Y-16336D01*
X10354Y-16268D01*
X10479Y-16143D01*
X10548Y-15979D01*
X10548Y-15801D01*
X10480Y-15636D01*
X10390Y-15547D01*
X10390Y-13758D01*
X10497Y-13714D01*
X10694Y-13518D01*
X10801Y-13260D01*
X10801Y-12982D01*
X10801Y-17624D01*
X10515Y-17742D01*
X10403Y-17855D01*
X10403Y-17855D01*
X10377Y-17816D01*
X10377Y-17816D01*
X7610Y-15049D01*
X7516Y-14986D01*
X7405Y-14964D01*
X7045Y-14964D01*
X6934Y-14986D01*
X6931Y-14988D01*
X9987Y-11932D01*
X9987Y-11932D01*
X10050Y-11838D01*
X10050Y-11838D01*
X10054Y-11820D01*
X10072Y-11727D01*
X10072Y-11727D01*
X10072Y-11341D01*
X10223Y-11706D01*
X10514Y-11997D01*
X10894Y-12155D01*
X11306Y-12156D01*
X11686Y-11999D01*
X11978Y-11708D01*
X12136Y-11327D01*
X12136Y-10916D01*
X11979Y-10535D01*
X11688Y-10244D01*
X11308Y-10086D01*
X11155Y-10086D01*
X14036Y-7205D01*
X14036Y-7232D01*
X14122Y-7440D01*
X14280Y-7599D01*
X14488Y-7685D01*
X14713Y-7686D01*
X14920Y-7600D01*
X15080Y-7441D01*
X15166Y-7233D01*
X15166Y-7009D01*
X15153Y-6978D01*
X16791Y-5340D01*
X16960Y-5340D01*
X16901Y-5482D01*
X16901Y-5760D01*
X17007Y-6018D01*
X17204Y-6215D01*
X17312Y-6259D01*
X17312Y-8867D01*
X17312Y-8867D01*
G37*
G54D25*
X17312Y-8867D02*
X16479Y-9700D01*
X16479Y-9298D01*
X16232Y-8700D01*
X15774Y-8241D01*
X15176Y-7993D01*
X14528Y-7992D01*
X13930Y-8240D01*
X13471Y-8697D01*
X13223Y-9295D01*
X13222Y-9943D01*
X13470Y-10542D01*
X13927Y-11000D01*
X14525Y-11248D01*
X14930Y-11249D01*
X13686Y-12493D01*
X13686Y-11005D01*
X13597Y-10790D01*
X13433Y-10625D01*
X13218Y-10536D01*
X12985Y-10535D01*
X12770Y-10624D01*
X12605Y-10789D01*
X12516Y-11004D01*
X12516Y-11236D01*
X12592Y-11421D01*
X12462Y-11420D01*
X12205Y-11527D01*
X12008Y-11724D01*
X11901Y-11981D01*
X11901Y-12259D01*
X12007Y-12517D01*
X12204Y-12714D01*
X12461Y-12820D01*
X12740Y-12821D01*
X12997Y-12714D01*
X13194Y-12518D01*
X13301Y-12260D01*
X13301Y-11982D01*
X13195Y-11725D01*
X13176Y-11706D01*
X13217Y-11706D01*
X13432Y-11617D01*
X13597Y-11452D01*
X13686Y-11237D01*
X13686Y-11005D01*
X13686Y-12493D01*
X13528Y-12650D01*
X13466Y-12744D01*
X13444Y-12855D01*
X13444Y-14235D01*
X12347Y-13138D01*
X12253Y-13075D01*
X12142Y-13053D01*
X11855Y-13053D01*
X11744Y-13075D01*
X11650Y-13138D01*
X11262Y-13526D01*
X11199Y-13620D01*
X11177Y-13731D01*
X11177Y-16192D01*
X11088Y-16281D01*
X11019Y-16446D01*
X11019Y-16623D01*
X11087Y-16788D01*
X11213Y-16914D01*
X11377Y-16982D01*
X11555Y-16982D01*
X11719Y-16914D01*
X11722Y-16910D01*
X11722Y-17778D01*
X11688Y-17743D01*
X11308Y-17586D01*
X10896Y-17585D01*
X10801Y-17624D01*
X10801Y-12982D01*
X10695Y-12725D01*
X10498Y-12527D01*
X10241Y-12421D01*
X9962Y-12420D01*
X9705Y-12527D01*
X9508Y-12724D01*
X9401Y-12981D01*
X9401Y-13259D01*
X9507Y-13517D01*
X9704Y-13714D01*
X9812Y-13758D01*
X9812Y-15547D01*
X9722Y-15636D01*
X9654Y-15800D01*
X9654Y-15978D01*
X9722Y-16142D01*
X9847Y-16268D01*
X10012Y-16336D01*
X10189Y-16336D01*
X10354Y-16268D01*
X10479Y-16143D01*
X10548Y-15979D01*
X10548Y-15801D01*
X10480Y-15636D01*
X10390Y-15547D01*
X10390Y-13758D01*
X10497Y-13714D01*
X10694Y-13518D01*
X10801Y-13260D01*
X10801Y-12982D01*
X10801Y-17624D01*
X10515Y-17742D01*
X10403Y-17855D01*
X10403Y-17855D01*
X10377Y-17816D01*
X10377Y-17816D01*
X7610Y-15049D01*
X7516Y-14986D01*
X7405Y-14964D01*
X7045Y-14964D01*
X6934Y-14986D01*
X6931Y-14988D01*
X9987Y-11932D01*
X9987Y-11932D01*
X10050Y-11838D01*
X10050Y-11838D01*
X10054Y-11820D01*
X10072Y-11727D01*
X10072Y-11727D01*
X10072Y-11341D01*
X10223Y-11706D01*
X10514Y-11997D01*
X10894Y-12155D01*
X11306Y-12156D01*
X11686Y-11999D01*
X11978Y-11708D01*
X12136Y-11327D01*
X12136Y-10916D01*
X11979Y-10535D01*
X11688Y-10244D01*
X11308Y-10086D01*
X11155Y-10086D01*
X14036Y-7205D01*
X14036Y-7232D01*
X14122Y-7440D01*
X14280Y-7599D01*
X14488Y-7685D01*
X14713Y-7686D01*
X14920Y-7600D01*
X15080Y-7441D01*
X15166Y-7233D01*
X15166Y-7009D01*
X15153Y-6978D01*
X16791Y-5340D01*
X16960Y-5340D01*
X16901Y-5482D01*
X16901Y-5760D01*
X17007Y-6018D01*
X17204Y-6215D01*
X17312Y-6259D01*
X17312Y-8867D01*
G54D10*
G36*
X17912Y-17288D02*
X17171Y-18028D01*
X17109Y-18122D01*
X17087Y-18233D01*
X17087Y-18279D01*
X16933Y-18125D01*
X16718Y-18035D01*
X16485Y-18035D01*
X16366Y-18084D01*
X16366Y-18048D01*
X16299Y-17884D01*
X16173Y-17758D01*
X16009Y-17690D01*
X15831Y-17690D01*
X15667Y-17758D01*
X15587Y-17838D01*
X15587Y-16463D01*
X15676Y-16374D01*
X15744Y-16210D01*
X15744Y-16032D01*
X15676Y-15868D01*
X15551Y-15742D01*
X15386Y-15674D01*
X15209Y-15673D01*
X15044Y-15741D01*
X14919Y-15867D01*
X14850Y-16031D01*
X14850Y-16209D01*
X14918Y-16373D01*
X15008Y-16463D01*
X15008Y-23425D01*
X14919Y-23514D01*
X14850Y-23679D01*
X14850Y-23856D01*
X14918Y-24021D01*
X15008Y-24111D01*
X15008Y-25122D01*
X14761Y-24874D01*
X14761Y-20200D01*
X14850Y-20111D01*
X14918Y-19947D01*
X14918Y-19769D01*
X14850Y-19605D01*
X14725Y-19479D01*
X14560Y-19411D01*
X14383Y-19411D01*
X14375Y-19414D01*
X14375Y-13303D01*
X14465Y-13214D01*
X14533Y-13050D01*
X14533Y-12872D01*
X14465Y-12708D01*
X14377Y-12620D01*
X16032Y-10965D01*
X16016Y-11004D01*
X16016Y-11236D01*
X16105Y-11452D01*
X16269Y-11616D01*
X16484Y-11705D01*
X16717Y-11706D01*
X16932Y-11617D01*
X17097Y-11452D01*
X17186Y-11237D01*
X17186Y-11005D01*
X17097Y-10790D01*
X16933Y-10625D01*
X16718Y-10536D01*
X16485Y-10535D01*
X16445Y-10552D01*
X17806Y-9191D01*
X17806Y-9191D01*
X17848Y-9129D01*
X17868Y-9098D01*
X17868Y-9098D01*
X17881Y-9033D01*
X17881Y-9945D01*
X17475Y-10351D01*
X17413Y-10445D01*
X17391Y-10556D01*
X17391Y-12180D01*
X17413Y-12291D01*
X17475Y-12385D01*
X17511Y-12420D01*
X17462Y-12420D01*
X17205Y-12527D01*
X17008Y-12724D01*
X16901Y-12981D01*
X16901Y-13259D01*
X17007Y-13517D01*
X17204Y-13714D01*
X17461Y-13820D01*
X17740Y-13821D01*
X17912Y-13750D01*
X17912Y-17288D01*
X17912Y-17288D01*
G37*
G54D25*
X17912Y-17288D02*
X17171Y-18028D01*
X17109Y-18122D01*
X17087Y-18233D01*
X17087Y-18279D01*
X16933Y-18125D01*
X16718Y-18035D01*
X16485Y-18035D01*
X16366Y-18084D01*
X16366Y-18048D01*
X16299Y-17884D01*
X16173Y-17758D01*
X16009Y-17690D01*
X15831Y-17690D01*
X15667Y-17758D01*
X15587Y-17838D01*
X15587Y-16463D01*
X15676Y-16374D01*
X15744Y-16210D01*
X15744Y-16032D01*
X15676Y-15868D01*
X15551Y-15742D01*
X15386Y-15674D01*
X15209Y-15673D01*
X15044Y-15741D01*
X14919Y-15867D01*
X14850Y-16031D01*
X14850Y-16209D01*
X14918Y-16373D01*
X15008Y-16463D01*
X15008Y-23425D01*
X14919Y-23514D01*
X14850Y-23679D01*
X14850Y-23856D01*
X14918Y-24021D01*
X15008Y-24111D01*
X15008Y-25122D01*
X14761Y-24874D01*
X14761Y-20200D01*
X14850Y-20111D01*
X14918Y-19947D01*
X14918Y-19769D01*
X14850Y-19605D01*
X14725Y-19479D01*
X14560Y-19411D01*
X14383Y-19411D01*
X14375Y-19414D01*
X14375Y-13303D01*
X14465Y-13214D01*
X14533Y-13050D01*
X14533Y-12872D01*
X14465Y-12708D01*
X14377Y-12620D01*
X16032Y-10965D01*
X16016Y-11004D01*
X16016Y-11236D01*
X16105Y-11452D01*
X16269Y-11616D01*
X16484Y-11705D01*
X16717Y-11706D01*
X16932Y-11617D01*
X17097Y-11452D01*
X17186Y-11237D01*
X17186Y-11005D01*
X17097Y-10790D01*
X16933Y-10625D01*
X16718Y-10536D01*
X16485Y-10535D01*
X16445Y-10552D01*
X17806Y-9191D01*
X17806Y-9191D01*
X17848Y-9129D01*
X17868Y-9098D01*
X17868Y-9098D01*
X17881Y-9033D01*
X17881Y-9945D01*
X17475Y-10351D01*
X17413Y-10445D01*
X17391Y-10556D01*
X17391Y-12180D01*
X17413Y-12291D01*
X17475Y-12385D01*
X17511Y-12420D01*
X17462Y-12420D01*
X17205Y-12527D01*
X17008Y-12724D01*
X16901Y-12981D01*
X16901Y-13259D01*
X17007Y-13517D01*
X17204Y-13714D01*
X17461Y-13820D01*
X17740Y-13821D01*
X17912Y-13750D01*
X17912Y-17288D01*
G54D10*
G36*
X24217Y-11707D02*
X24142Y-11819D01*
X24115Y-11953D01*
X24115Y-14815D01*
X24013Y-14712D01*
X23848Y-14644D01*
X23671Y-14644D01*
X23506Y-14712D01*
X23380Y-14838D01*
X23312Y-15002D01*
X23312Y-15179D01*
X23380Y-15344D01*
X23470Y-15434D01*
X23470Y-16826D01*
X23438Y-16795D01*
X23058Y-16637D01*
X22646Y-16636D01*
X22266Y-16794D01*
X22113Y-16946D01*
X22103Y-16922D01*
X21977Y-16796D01*
X21813Y-16728D01*
X21691Y-16728D01*
X21691Y-9940D01*
X21923Y-9708D01*
X21816Y-9965D01*
X21816Y-10377D01*
X21973Y-10757D01*
X22264Y-11048D01*
X22644Y-11206D01*
X23056Y-11207D01*
X23437Y-11049D01*
X23541Y-10946D01*
X23516Y-11005D01*
X23516Y-11237D01*
X23605Y-11452D01*
X23769Y-11617D01*
X23984Y-11706D01*
X24217Y-11707D01*
X24217Y-11707D01*
X24217Y-11707D01*
G37*
G54D25*
X24217Y-11707D02*
X24142Y-11819D01*
X24115Y-11953D01*
X24115Y-14815D01*
X24013Y-14712D01*
X23848Y-14644D01*
X23671Y-14644D01*
X23506Y-14712D01*
X23380Y-14838D01*
X23312Y-15002D01*
X23312Y-15179D01*
X23380Y-15344D01*
X23470Y-15434D01*
X23470Y-16826D01*
X23438Y-16795D01*
X23058Y-16637D01*
X22646Y-16636D01*
X22266Y-16794D01*
X22113Y-16946D01*
X22103Y-16922D01*
X21977Y-16796D01*
X21813Y-16728D01*
X21691Y-16728D01*
X21691Y-9940D01*
X21923Y-9708D01*
X21816Y-9965D01*
X21816Y-10377D01*
X21973Y-10757D01*
X22264Y-11048D01*
X22644Y-11206D01*
X23056Y-11207D01*
X23437Y-11049D01*
X23541Y-10946D01*
X23516Y-11005D01*
X23516Y-11237D01*
X23605Y-11452D01*
X23769Y-11617D01*
X23984Y-11706D01*
X24217Y-11707D01*
X24217Y-11707D01*
G54D10*
G36*
X29427Y-36626D02*
X29356Y-36697D01*
X29351Y-36691D01*
X29345Y-36697D01*
X29274Y-36626D01*
X29280Y-36620D01*
X29274Y-36615D01*
X29345Y-36544D01*
X29351Y-36550D01*
X29356Y-36544D01*
X29427Y-36615D01*
X29421Y-36620D01*
X29427Y-36626D01*
X29427Y-36626D01*
G37*
G54D25*
X29427Y-36626D02*
X29356Y-36697D01*
X29351Y-36691D01*
X29345Y-36697D01*
X29274Y-36626D01*
X29280Y-36620D01*
X29274Y-36615D01*
X29345Y-36544D01*
X29351Y-36550D01*
X29356Y-36544D01*
X29427Y-36615D01*
X29421Y-36620D01*
X29427Y-36626D01*
G54D10*
G36*
X29431Y-9550D02*
X29333Y-9451D01*
X29021Y-9322D01*
X28683Y-9321D01*
X28370Y-9451D01*
X28131Y-9689D01*
X28001Y-10002D01*
X28001Y-10340D01*
X28082Y-10537D01*
X27985Y-10536D01*
X27770Y-10625D01*
X27605Y-10790D01*
X27516Y-11005D01*
X27516Y-11237D01*
X27592Y-11422D01*
X27462Y-11421D01*
X27205Y-11528D01*
X27008Y-11725D01*
X26901Y-11982D01*
X26901Y-12260D01*
X26945Y-12368D01*
X26896Y-12417D01*
X26834Y-12511D01*
X26812Y-12622D01*
X26812Y-12734D01*
X26705Y-12778D01*
X26686Y-12797D01*
X26686Y-12756D01*
X26597Y-12541D01*
X26433Y-12376D01*
X26218Y-12287D01*
X25985Y-12286D01*
X25770Y-12375D01*
X25605Y-12540D01*
X25577Y-12608D01*
X25498Y-12528D01*
X25241Y-12422D01*
X24962Y-12421D01*
X24815Y-12482D01*
X24815Y-12098D01*
X25030Y-11883D01*
X25106Y-11769D01*
X25133Y-11635D01*
X25133Y-11489D01*
X25223Y-11707D01*
X25514Y-11998D01*
X25894Y-12156D01*
X26306Y-12157D01*
X26687Y-11999D01*
X26978Y-11709D01*
X27136Y-11328D01*
X27136Y-10917D01*
X26979Y-10536D01*
X26688Y-10245D01*
X26308Y-10087D01*
X25896Y-10086D01*
X25516Y-10244D01*
X25224Y-10535D01*
X25133Y-10754D01*
X25133Y-8945D01*
X25993Y-8085D01*
X25993Y-8085D01*
X25993Y-8085D01*
X26069Y-7971D01*
X26095Y-7837D01*
X26095Y-7837D01*
X26095Y-7837D01*
X26095Y-4661D01*
X26095Y-4657D01*
X26306Y-4657D01*
X26687Y-4499D01*
X26743Y-4443D01*
X26743Y-6680D01*
X26622Y-6800D01*
X26536Y-7008D01*
X26536Y-7232D01*
X26622Y-7440D01*
X26781Y-7599D01*
X26988Y-7685D01*
X27213Y-7686D01*
X27421Y-7600D01*
X27580Y-7441D01*
X27666Y-7233D01*
X27666Y-7009D01*
X27580Y-6801D01*
X27422Y-6642D01*
X27322Y-6601D01*
X27322Y-5264D01*
X27461Y-5321D01*
X27740Y-5322D01*
X27997Y-5215D01*
X28194Y-5019D01*
X28301Y-4761D01*
X28301Y-4483D01*
X28195Y-4226D01*
X28176Y-4207D01*
X28217Y-4207D01*
X28432Y-4118D01*
X28597Y-3953D01*
X28686Y-3738D01*
X28686Y-3506D01*
X28597Y-3291D01*
X28433Y-3126D01*
X28218Y-3037D01*
X27985Y-3036D01*
X27770Y-3125D01*
X27605Y-3290D01*
X27516Y-3505D01*
X27516Y-3737D01*
X27592Y-3922D01*
X27462Y-3921D01*
X27322Y-3979D01*
X27322Y-2045D01*
X27341Y-2017D01*
X27362Y-1986D01*
X27362Y-1986D01*
X27384Y-1875D01*
X27384Y-1875D01*
X27384Y-1621D01*
X27362Y-1510D01*
X27299Y-1416D01*
X27205Y-1353D01*
X27185Y-1349D01*
X27178Y-1318D01*
X27043Y-1115D01*
X26840Y-980D01*
X26601Y-932D01*
X26362Y-980D01*
X26202Y-1087D01*
X26188Y-1054D01*
X26118Y-984D01*
X26026Y-946D01*
X25927Y-946D01*
X25177Y-946D01*
X25085Y-983D01*
X25014Y-1054D01*
X24976Y-1146D01*
X24976Y-1245D01*
X24976Y-2095D01*
X25014Y-2187D01*
X25079Y-2252D01*
X24880Y-2450D01*
X24805Y-2564D01*
X24778Y-2698D01*
X24778Y-4044D01*
X24805Y-4178D01*
X24880Y-4291D01*
X25395Y-4806D01*
X25395Y-4986D01*
X25241Y-4922D01*
X24962Y-4921D01*
X24705Y-5028D01*
X24686Y-5047D01*
X24686Y-3506D01*
X24597Y-3291D01*
X24433Y-3126D01*
X24218Y-3037D01*
X23985Y-3036D01*
X23770Y-3125D01*
X23605Y-3290D01*
X23516Y-3505D01*
X23516Y-3737D01*
X23605Y-3952D01*
X23769Y-4117D01*
X23984Y-4206D01*
X24217Y-4207D01*
X24432Y-4118D01*
X24597Y-3953D01*
X24686Y-3738D01*
X24686Y-3506D01*
X24686Y-5047D01*
X24508Y-5225D01*
X24401Y-5482D01*
X24401Y-5760D01*
X24507Y-6018D01*
X24704Y-6215D01*
X24961Y-6321D01*
X25240Y-6322D01*
X25395Y-6257D01*
X25395Y-7692D01*
X24535Y-8552D01*
X24460Y-8666D01*
X24433Y-8800D01*
X24433Y-10626D01*
X24433Y-10626D01*
X24218Y-10537D01*
X23985Y-10536D01*
X23786Y-10619D01*
X23886Y-10378D01*
X23886Y-9967D01*
X23729Y-9586D01*
X23438Y-9295D01*
X23058Y-9137D01*
X22646Y-9136D01*
X22388Y-9243D01*
X23958Y-7673D01*
X23988Y-7685D01*
X24213Y-7686D01*
X24421Y-7600D01*
X24580Y-7441D01*
X24666Y-7233D01*
X24666Y-7009D01*
X24580Y-6801D01*
X24422Y-6642D01*
X24214Y-6556D01*
X23989Y-6556D01*
X23781Y-6641D01*
X23622Y-6800D01*
X23536Y-7008D01*
X23536Y-7232D01*
X23549Y-7264D01*
X21533Y-9279D01*
X21533Y-8097D01*
X21958Y-7673D01*
X21988Y-7685D01*
X22213Y-7686D01*
X22421Y-7600D01*
X22580Y-7441D01*
X22666Y-7233D01*
X22666Y-7009D01*
X22580Y-6801D01*
X22422Y-6642D01*
X22214Y-6556D01*
X21989Y-6556D01*
X21781Y-6641D01*
X21622Y-6800D01*
X21536Y-7008D01*
X21536Y-7232D01*
X21549Y-7264D01*
X21373Y-7440D01*
X21373Y-6886D01*
X21618Y-6641D01*
X21744Y-6641D01*
X21909Y-6573D01*
X22034Y-6448D01*
X22102Y-6283D01*
X22103Y-6106D01*
X22035Y-5941D01*
X21909Y-5815D01*
X21745Y-5747D01*
X21567Y-5747D01*
X21403Y-5815D01*
X21277Y-5941D01*
X21209Y-6105D01*
X21209Y-6232D01*
X21186Y-6254D01*
X21186Y-3506D01*
X21097Y-3291D01*
X20933Y-3126D01*
X20718Y-3037D01*
X20485Y-3036D01*
X20270Y-3125D01*
X20105Y-3290D01*
X20016Y-3505D01*
X20016Y-3737D01*
X20092Y-3922D01*
X19962Y-3921D01*
X19801Y-3988D01*
X19801Y-2076D01*
X19801Y-2076D01*
X19862Y-1986D01*
X19884Y-1875D01*
X19884Y-1875D01*
X19884Y-1621D01*
X19862Y-1510D01*
X19799Y-1416D01*
X19705Y-1353D01*
X19685Y-1349D01*
X19678Y-1318D01*
X19543Y-1115D01*
X19340Y-980D01*
X19101Y-932D01*
X18862Y-980D01*
X18702Y-1087D01*
X18688Y-1054D01*
X18618Y-984D01*
X18526Y-946D01*
X18427Y-946D01*
X17677Y-946D01*
X17585Y-983D01*
X17514Y-1054D01*
X17476Y-1146D01*
X17476Y-1245D01*
X17476Y-2095D01*
X17514Y-2187D01*
X17584Y-2257D01*
X17676Y-2296D01*
X17776Y-2296D01*
X18526Y-2296D01*
X18618Y-2258D01*
X18688Y-2187D01*
X18702Y-2154D01*
X18862Y-2261D01*
X19101Y-2309D01*
X19223Y-2285D01*
X19223Y-2779D01*
X19188Y-2745D01*
X18808Y-2587D01*
X18396Y-2586D01*
X18016Y-2744D01*
X17724Y-3035D01*
X17566Y-3415D01*
X17566Y-3827D01*
X17723Y-4207D01*
X18014Y-4498D01*
X18394Y-4656D01*
X18806Y-4657D01*
X19187Y-4499D01*
X19223Y-4463D01*
X19223Y-6559D01*
X19214Y-6556D01*
X18989Y-6556D01*
X18781Y-6641D01*
X18622Y-6800D01*
X18536Y-7008D01*
X18536Y-7232D01*
X18622Y-7440D01*
X18781Y-7599D01*
X18988Y-7685D01*
X19213Y-7686D01*
X19421Y-7600D01*
X19580Y-7441D01*
X19666Y-7233D01*
X19666Y-7009D01*
X19653Y-6978D01*
X19717Y-6914D01*
X19717Y-6914D01*
X19779Y-6820D01*
X19779Y-6820D01*
X19783Y-6802D01*
X19801Y-6710D01*
X19801Y-6710D01*
X19801Y-5255D01*
X19961Y-5321D01*
X20240Y-5322D01*
X20497Y-5215D01*
X20694Y-5019D01*
X20801Y-4761D01*
X20801Y-4483D01*
X20695Y-4226D01*
X20676Y-4207D01*
X20717Y-4207D01*
X20932Y-4118D01*
X21097Y-3953D01*
X21186Y-3738D01*
X21186Y-3506D01*
X21186Y-6254D01*
X20879Y-6562D01*
X20816Y-6656D01*
X20794Y-6767D01*
X20794Y-10567D01*
X20718Y-10536D01*
X20485Y-10535D01*
X20270Y-10624D01*
X20105Y-10789D01*
X20016Y-11004D01*
X20016Y-11236D01*
X20092Y-11421D01*
X19962Y-11420D01*
X19705Y-11527D01*
X19508Y-11724D01*
X19401Y-11981D01*
X19401Y-12259D01*
X19445Y-12367D01*
X19108Y-12705D01*
X19045Y-12798D01*
X19023Y-12909D01*
X19023Y-13025D01*
X18934Y-13114D01*
X18866Y-13278D01*
X18865Y-13456D01*
X18933Y-13620D01*
X19059Y-13746D01*
X19223Y-13814D01*
X19401Y-13814D01*
X19565Y-13746D01*
X19691Y-13621D01*
X19759Y-13456D01*
X19759Y-13279D01*
X19691Y-13114D01*
X19604Y-13027D01*
X19855Y-12776D01*
X19961Y-12820D01*
X20240Y-12821D01*
X20497Y-12714D01*
X20694Y-12518D01*
X20794Y-12278D01*
X20794Y-13727D01*
X20703Y-13727D01*
X20538Y-13795D01*
X20413Y-13920D01*
X20344Y-14085D01*
X20344Y-14262D01*
X20412Y-14427D01*
X20513Y-14528D01*
X20513Y-16333D01*
X20424Y-16422D01*
X20356Y-16586D01*
X20356Y-16764D01*
X20424Y-16928D01*
X20513Y-17018D01*
X20190Y-17341D01*
X18490Y-17341D01*
X18490Y-12701D01*
X18468Y-12590D01*
X18406Y-12497D01*
X18406Y-12497D01*
X17969Y-12060D01*
X17969Y-11953D01*
X18014Y-11997D01*
X18394Y-12155D01*
X18806Y-12156D01*
X19187Y-11999D01*
X19478Y-11708D01*
X19636Y-11327D01*
X19636Y-10916D01*
X19479Y-10535D01*
X19188Y-10244D01*
X18808Y-10086D01*
X18456Y-10085D01*
X18460Y-10065D01*
X18460Y-10065D01*
X18460Y-5360D01*
X18438Y-5249D01*
X18438Y-5249D01*
X18417Y-5218D01*
X18375Y-5155D01*
X18375Y-5155D01*
X18066Y-4846D01*
X17972Y-4783D01*
X17861Y-4761D01*
X17186Y-4761D01*
X17186Y-3506D01*
X17097Y-3291D01*
X16933Y-3126D01*
X16718Y-3037D01*
X16485Y-3036D01*
X16270Y-3125D01*
X16105Y-3290D01*
X16016Y-3505D01*
X16016Y-3737D01*
X16105Y-3952D01*
X16269Y-4117D01*
X16484Y-4206D01*
X16717Y-4207D01*
X16932Y-4118D01*
X17097Y-3953D01*
X17186Y-3738D01*
X17186Y-3506D01*
X17186Y-4761D01*
X16671Y-4761D01*
X16560Y-4783D01*
X16466Y-4846D01*
X14744Y-6568D01*
X14714Y-6556D01*
X14685Y-6556D01*
X14760Y-6481D01*
X14760Y-6481D01*
X14802Y-6418D01*
X14823Y-6387D01*
X14823Y-6387D01*
X14845Y-6276D01*
X14845Y-6276D01*
X14845Y-2572D01*
X14934Y-2483D01*
X15002Y-2319D01*
X15002Y-2141D01*
X14934Y-1977D01*
X14809Y-1851D01*
X14645Y-1783D01*
X14467Y-1783D01*
X14303Y-1851D01*
X14177Y-1976D01*
X14109Y-2141D01*
X14108Y-2318D01*
X14176Y-2483D01*
X14266Y-2572D01*
X14266Y-6156D01*
X13686Y-6736D01*
X13686Y-3505D01*
X13597Y-3290D01*
X13433Y-3125D01*
X13218Y-3036D01*
X12985Y-3035D01*
X12770Y-3124D01*
X12605Y-3289D01*
X12516Y-3504D01*
X12516Y-3736D01*
X12592Y-3921D01*
X12462Y-3920D01*
X12301Y-3987D01*
X12301Y-2076D01*
X12301Y-2076D01*
X12361Y-1986D01*
X12383Y-1875D01*
X12383Y-1875D01*
X12383Y-1621D01*
X12361Y-1510D01*
X12299Y-1416D01*
X12205Y-1353D01*
X12184Y-1349D01*
X12178Y-1318D01*
X12043Y-1115D01*
X11840Y-980D01*
X11601Y-932D01*
X11362Y-980D01*
X11202Y-1087D01*
X11188Y-1054D01*
X11118Y-984D01*
X11026Y-946D01*
X10926Y-946D01*
X10176Y-946D01*
X10084Y-983D01*
X10014Y-1054D01*
X9976Y-1146D01*
X9976Y-1245D01*
X9976Y-2095D01*
X10014Y-2187D01*
X10084Y-2257D01*
X10176Y-2296D01*
X10275Y-2296D01*
X11025Y-2296D01*
X11117Y-2258D01*
X11188Y-2187D01*
X11201Y-2154D01*
X11362Y-2261D01*
X11601Y-2309D01*
X11722Y-2285D01*
X11722Y-2778D01*
X11688Y-2744D01*
X11308Y-2586D01*
X10896Y-2585D01*
X10515Y-2743D01*
X10224Y-3034D01*
X10066Y-3414D01*
X10066Y-3826D01*
X10223Y-4206D01*
X10514Y-4497D01*
X10894Y-4655D01*
X11306Y-4656D01*
X11686Y-4499D01*
X11722Y-4462D01*
X11722Y-6559D01*
X11714Y-6556D01*
X11489Y-6556D01*
X11281Y-6641D01*
X11122Y-6800D01*
X11036Y-7008D01*
X11036Y-7232D01*
X11122Y-7440D01*
X11280Y-7599D01*
X11488Y-7685D01*
X11713Y-7686D01*
X11920Y-7600D01*
X12080Y-7441D01*
X12166Y-7233D01*
X12166Y-7009D01*
X12153Y-6978D01*
X12216Y-6914D01*
X12216Y-6914D01*
X12279Y-6820D01*
X12279Y-6820D01*
X12283Y-6802D01*
X12301Y-6710D01*
X12301Y-6710D01*
X12301Y-5254D01*
X12461Y-5320D01*
X12740Y-5321D01*
X12997Y-5214D01*
X13194Y-5018D01*
X13301Y-4760D01*
X13301Y-4482D01*
X13195Y-4225D01*
X13176Y-4206D01*
X13217Y-4206D01*
X13432Y-4117D01*
X13597Y-3952D01*
X13686Y-3737D01*
X13686Y-3505D01*
X13686Y-6736D01*
X10801Y-9621D01*
X10801Y-5482D01*
X10695Y-5225D01*
X10498Y-5027D01*
X10241Y-4921D01*
X9962Y-4920D01*
X9705Y-5027D01*
X9686Y-5046D01*
X9686Y-3505D01*
X9597Y-3290D01*
X9433Y-3125D01*
X9218Y-3036D01*
X8985Y-3035D01*
X8770Y-3124D01*
X8605Y-3289D01*
X8516Y-3504D01*
X8516Y-3525D01*
X8465Y-3402D01*
X8458Y-3396D01*
X8458Y-1439D01*
X8393Y-1281D01*
X8273Y-1161D01*
X8116Y-1096D01*
X7946Y-1096D01*
X7789Y-1161D01*
X7669Y-1281D01*
X7604Y-1438D01*
X7604Y-1608D01*
X7669Y-1765D01*
X7789Y-1885D01*
X7946Y-1950D01*
X8116Y-1950D01*
X8273Y-1885D01*
X8393Y-1765D01*
X8458Y-1608D01*
X8458Y-1439D01*
X8458Y-3396D01*
X8340Y-3277D01*
X8175Y-3209D01*
X7998Y-3208D01*
X7833Y-3276D01*
X7708Y-3402D01*
X7639Y-3566D01*
X7639Y-3744D01*
X7707Y-3908D01*
X7797Y-3998D01*
X7797Y-4811D01*
X7708Y-4900D01*
X7639Y-5064D01*
X7639Y-5242D01*
X7707Y-5406D01*
X7833Y-5532D01*
X7997Y-5600D01*
X8175Y-5600D01*
X8339Y-5532D01*
X8465Y-5406D01*
X8533Y-5242D01*
X8533Y-5065D01*
X8465Y-4900D01*
X8376Y-4810D01*
X8376Y-3998D01*
X8465Y-3909D01*
X8526Y-3761D01*
X8605Y-3952D01*
X8769Y-4116D01*
X8984Y-4205D01*
X9217Y-4206D01*
X9432Y-4117D01*
X9597Y-3952D01*
X9686Y-3737D01*
X9686Y-3505D01*
X9686Y-5046D01*
X9508Y-5224D01*
X9401Y-5481D01*
X9401Y-5759D01*
X9507Y-6017D01*
X9704Y-6214D01*
X9961Y-6320D01*
X10240Y-6321D01*
X10497Y-6214D01*
X10694Y-6018D01*
X10801Y-5760D01*
X10801Y-5482D01*
X10801Y-9621D01*
X9608Y-10815D01*
X9597Y-10790D01*
X9433Y-10625D01*
X9218Y-10536D01*
X8985Y-10535D01*
X8770Y-10624D01*
X8605Y-10789D01*
X8516Y-11004D01*
X8516Y-11236D01*
X8605Y-11452D01*
X8769Y-11616D01*
X8984Y-11705D01*
X9217Y-11706D01*
X9432Y-11617D01*
X9493Y-11555D01*
X9493Y-11607D01*
X7412Y-13689D01*
X7412Y-5421D01*
X7344Y-5256D01*
X7254Y-5166D01*
X7254Y-2019D01*
X7343Y-1930D01*
X7411Y-1766D01*
X7412Y-1588D01*
X7344Y-1424D01*
X7218Y-1298D01*
X7054Y-1230D01*
X6876Y-1230D01*
X6712Y-1297D01*
X6681Y-1329D01*
X6661Y-1281D01*
X6541Y-1161D01*
X6384Y-1096D01*
X6214Y-1096D01*
X6057Y-1161D01*
X5937Y-1281D01*
X5872Y-1438D01*
X5871Y-1608D01*
X5936Y-1765D01*
X6056Y-1885D01*
X6213Y-1950D01*
X6383Y-1950D01*
X6540Y-1885D01*
X6560Y-1866D01*
X6586Y-1929D01*
X6675Y-2019D01*
X6675Y-5167D01*
X6586Y-5256D01*
X6518Y-5420D01*
X6518Y-5598D01*
X6586Y-5762D01*
X6711Y-5888D01*
X6875Y-5956D01*
X7053Y-5956D01*
X7217Y-5888D01*
X7343Y-5762D01*
X7411Y-5598D01*
X7412Y-5421D01*
X7412Y-13689D01*
X6627Y-14474D01*
X6627Y-9357D01*
X6608Y-9264D01*
X6604Y-9246D01*
X6604Y-9246D01*
X6542Y-9152D01*
X6542Y-9152D01*
X6186Y-8796D01*
X6186Y-3505D01*
X6097Y-3290D01*
X5933Y-3125D01*
X5718Y-3036D01*
X5485Y-3035D01*
X5270Y-3124D01*
X5105Y-3289D01*
X5016Y-3504D01*
X5016Y-3736D01*
X5092Y-3921D01*
X4962Y-3920D01*
X4705Y-4027D01*
X4508Y-4224D01*
X4401Y-4481D01*
X4401Y-4759D01*
X4445Y-4867D01*
X4163Y-5149D01*
X4100Y-5243D01*
X4078Y-5354D01*
X4078Y-5784D01*
X3989Y-5873D01*
X3921Y-6037D01*
X3920Y-6215D01*
X3988Y-6379D01*
X4114Y-6505D01*
X4278Y-6573D01*
X4456Y-6573D01*
X4620Y-6505D01*
X4746Y-6380D01*
X4814Y-6215D01*
X4814Y-6038D01*
X4746Y-5873D01*
X4657Y-5784D01*
X4657Y-5474D01*
X4854Y-5276D01*
X4961Y-5320D01*
X5240Y-5321D01*
X5497Y-5214D01*
X5694Y-5018D01*
X5801Y-4760D01*
X5801Y-4482D01*
X5695Y-4225D01*
X5676Y-4206D01*
X5717Y-4206D01*
X5932Y-4117D01*
X6097Y-3952D01*
X6186Y-3737D01*
X6186Y-3505D01*
X6186Y-8796D01*
X4653Y-7264D01*
X4666Y-7233D01*
X4666Y-7009D01*
X4580Y-6801D01*
X4421Y-6642D01*
X4214Y-6556D01*
X3989Y-6556D01*
X3781Y-6641D01*
X3622Y-6800D01*
X3536Y-7008D01*
X3536Y-7232D01*
X3622Y-7440D01*
X3780Y-7599D01*
X3988Y-7685D01*
X4213Y-7686D01*
X4244Y-7673D01*
X6048Y-9477D01*
X6048Y-10740D01*
X5933Y-10625D01*
X5718Y-10536D01*
X5485Y-10535D01*
X5270Y-10624D01*
X5105Y-10789D01*
X5016Y-11004D01*
X5016Y-11236D01*
X5092Y-11421D01*
X4962Y-11420D01*
X4705Y-11527D01*
X4508Y-11724D01*
X4401Y-11981D01*
X4401Y-12259D01*
X4507Y-12517D01*
X4704Y-12714D01*
X4961Y-12820D01*
X5240Y-12821D01*
X5497Y-12714D01*
X5694Y-12518D01*
X5801Y-12260D01*
X5801Y-11982D01*
X5695Y-11725D01*
X5676Y-11706D01*
X5717Y-11706D01*
X5932Y-11617D01*
X6048Y-11501D01*
X6048Y-14472D01*
X3732Y-12156D01*
X3806Y-12156D01*
X4186Y-11999D01*
X4478Y-11708D01*
X4636Y-11327D01*
X4636Y-10916D01*
X4479Y-10535D01*
X4188Y-10244D01*
X3808Y-10086D01*
X3396Y-10085D01*
X3015Y-10243D01*
X2724Y-10534D01*
X2566Y-10914D01*
X2566Y-10990D01*
X2465Y-10889D01*
X2465Y-10877D01*
X2438Y-10743D01*
X2362Y-10629D01*
X947Y-9214D01*
X947Y-7668D01*
X988Y-7685D01*
X1213Y-7686D01*
X1420Y-7600D01*
X1580Y-7441D01*
X1666Y-7233D01*
X1666Y-7009D01*
X1580Y-6801D01*
X1421Y-6642D01*
X1390Y-6629D01*
X1390Y-5864D01*
X1991Y-5263D01*
X1901Y-5481D01*
X1901Y-5759D01*
X2007Y-6017D01*
X2204Y-6214D01*
X2461Y-6320D01*
X2740Y-6321D01*
X2997Y-6214D01*
X3194Y-6018D01*
X3301Y-5760D01*
X3301Y-5482D01*
X3195Y-5225D01*
X2998Y-5027D01*
X2741Y-4921D01*
X2462Y-4920D01*
X2244Y-5011D01*
X2487Y-4767D01*
X2487Y-4767D01*
X2550Y-4673D01*
X2572Y-4563D01*
X2572Y-4563D01*
X2572Y-3841D01*
X2723Y-4206D01*
X3014Y-4497D01*
X3394Y-4655D01*
X3806Y-4656D01*
X4186Y-4499D01*
X4478Y-4208D01*
X4636Y-3827D01*
X4636Y-3416D01*
X4479Y-3035D01*
X4188Y-2744D01*
X3808Y-2586D01*
X3545Y-2586D01*
X3812Y-2318D01*
X3812Y-2318D01*
X3854Y-2256D01*
X3862Y-2261D01*
X4101Y-2309D01*
X4340Y-2261D01*
X4543Y-2126D01*
X4678Y-1923D01*
X4726Y-1684D01*
X4726Y-1557D01*
X4678Y-1318D01*
X4543Y-1115D01*
X4340Y-980D01*
X4101Y-932D01*
X3862Y-980D01*
X3702Y-1087D01*
X3688Y-1054D01*
X3618Y-984D01*
X3526Y-946D01*
X3426Y-946D01*
X2676Y-946D01*
X2584Y-983D01*
X2514Y-1054D01*
X2476Y-1146D01*
X2476Y-1245D01*
X2476Y-1285D01*
X2413Y-1297D01*
X2300Y-1373D01*
X2300Y-1373D01*
X350Y-3323D01*
X274Y-3436D01*
X270Y-3454D01*
X270Y-766D01*
X294Y-774D01*
X471Y-761D01*
X577Y-717D01*
X591Y-633D01*
X351Y-392D01*
X345Y-398D01*
X275Y-327D01*
X280Y-322D01*
X275Y-316D01*
X345Y-245D01*
X351Y-251D01*
X356Y-245D01*
X427Y-316D01*
X422Y-322D01*
X662Y-562D01*
X747Y-547D01*
X803Y-379D01*
X793Y-240D01*
X28923Y-240D01*
X28899Y-313D01*
X28911Y-491D01*
X28955Y-596D01*
X29040Y-611D01*
X29280Y-371D01*
X29274Y-365D01*
X29345Y-294D01*
X29351Y-300D01*
X29356Y-294D01*
X29427Y-365D01*
X29421Y-371D01*
X29427Y-376D01*
X29356Y-447D01*
X29351Y-441D01*
X29110Y-682D01*
X29125Y-766D01*
X29294Y-823D01*
X29431Y-813D01*
X29431Y-9550D01*
X29431Y-9550D01*
G37*
G54D25*
X29431Y-9550D02*
X29333Y-9451D01*
X29021Y-9322D01*
X28683Y-9321D01*
X28370Y-9451D01*
X28131Y-9689D01*
X28001Y-10002D01*
X28001Y-10340D01*
X28082Y-10537D01*
X27985Y-10536D01*
X27770Y-10625D01*
X27605Y-10790D01*
X27516Y-11005D01*
X27516Y-11237D01*
X27592Y-11422D01*
X27462Y-11421D01*
X27205Y-11528D01*
X27008Y-11725D01*
X26901Y-11982D01*
X26901Y-12260D01*
X26945Y-12368D01*
X26896Y-12417D01*
X26834Y-12511D01*
X26812Y-12622D01*
X26812Y-12734D01*
X26705Y-12778D01*
X26686Y-12797D01*
X26686Y-12756D01*
X26597Y-12541D01*
X26433Y-12376D01*
X26218Y-12287D01*
X25985Y-12286D01*
X25770Y-12375D01*
X25605Y-12540D01*
X25577Y-12608D01*
X25498Y-12528D01*
X25241Y-12422D01*
X24962Y-12421D01*
X24815Y-12482D01*
X24815Y-12098D01*
X25030Y-11883D01*
X25106Y-11769D01*
X25133Y-11635D01*
X25133Y-11489D01*
X25223Y-11707D01*
X25514Y-11998D01*
X25894Y-12156D01*
X26306Y-12157D01*
X26687Y-11999D01*
X26978Y-11709D01*
X27136Y-11328D01*
X27136Y-10917D01*
X26979Y-10536D01*
X26688Y-10245D01*
X26308Y-10087D01*
X25896Y-10086D01*
X25516Y-10244D01*
X25224Y-10535D01*
X25133Y-10754D01*
X25133Y-8945D01*
X25993Y-8085D01*
X25993Y-8085D01*
X25993Y-8085D01*
X26069Y-7971D01*
X26095Y-7837D01*
X26095Y-7837D01*
X26095Y-7837D01*
X26095Y-4661D01*
X26095Y-4657D01*
X26306Y-4657D01*
X26687Y-4499D01*
X26743Y-4443D01*
X26743Y-6680D01*
X26622Y-6800D01*
X26536Y-7008D01*
X26536Y-7232D01*
X26622Y-7440D01*
X26781Y-7599D01*
X26988Y-7685D01*
X27213Y-7686D01*
X27421Y-7600D01*
X27580Y-7441D01*
X27666Y-7233D01*
X27666Y-7009D01*
X27580Y-6801D01*
X27422Y-6642D01*
X27322Y-6601D01*
X27322Y-5264D01*
X27461Y-5321D01*
X27740Y-5322D01*
X27997Y-5215D01*
X28194Y-5019D01*
X28301Y-4761D01*
X28301Y-4483D01*
X28195Y-4226D01*
X28176Y-4207D01*
X28217Y-4207D01*
X28432Y-4118D01*
X28597Y-3953D01*
X28686Y-3738D01*
X28686Y-3506D01*
X28597Y-3291D01*
X28433Y-3126D01*
X28218Y-3037D01*
X27985Y-3036D01*
X27770Y-3125D01*
X27605Y-3290D01*
X27516Y-3505D01*
X27516Y-3737D01*
X27592Y-3922D01*
X27462Y-3921D01*
X27322Y-3979D01*
X27322Y-2045D01*
X27341Y-2017D01*
X27362Y-1986D01*
X27362Y-1986D01*
X27384Y-1875D01*
X27384Y-1875D01*
X27384Y-1621D01*
X27362Y-1510D01*
X27299Y-1416D01*
X27205Y-1353D01*
X27185Y-1349D01*
X27178Y-1318D01*
X27043Y-1115D01*
X26840Y-980D01*
X26601Y-932D01*
X26362Y-980D01*
X26202Y-1087D01*
X26188Y-1054D01*
X26118Y-984D01*
X26026Y-946D01*
X25927Y-946D01*
X25177Y-946D01*
X25085Y-983D01*
X25014Y-1054D01*
X24976Y-1146D01*
X24976Y-1245D01*
X24976Y-2095D01*
X25014Y-2187D01*
X25079Y-2252D01*
X24880Y-2450D01*
X24805Y-2564D01*
X24778Y-2698D01*
X24778Y-4044D01*
X24805Y-4178D01*
X24880Y-4291D01*
X25395Y-4806D01*
X25395Y-4986D01*
X25241Y-4922D01*
X24962Y-4921D01*
X24705Y-5028D01*
X24686Y-5047D01*
X24686Y-3506D01*
X24597Y-3291D01*
X24433Y-3126D01*
X24218Y-3037D01*
X23985Y-3036D01*
X23770Y-3125D01*
X23605Y-3290D01*
X23516Y-3505D01*
X23516Y-3737D01*
X23605Y-3952D01*
X23769Y-4117D01*
X23984Y-4206D01*
X24217Y-4207D01*
X24432Y-4118D01*
X24597Y-3953D01*
X24686Y-3738D01*
X24686Y-3506D01*
X24686Y-5047D01*
X24508Y-5225D01*
X24401Y-5482D01*
X24401Y-5760D01*
X24507Y-6018D01*
X24704Y-6215D01*
X24961Y-6321D01*
X25240Y-6322D01*
X25395Y-6257D01*
X25395Y-7692D01*
X24535Y-8552D01*
X24460Y-8666D01*
X24433Y-8800D01*
X24433Y-10626D01*
X24433Y-10626D01*
X24218Y-10537D01*
X23985Y-10536D01*
X23786Y-10619D01*
X23886Y-10378D01*
X23886Y-9967D01*
X23729Y-9586D01*
X23438Y-9295D01*
X23058Y-9137D01*
X22646Y-9136D01*
X22388Y-9243D01*
X23958Y-7673D01*
X23988Y-7685D01*
X24213Y-7686D01*
X24421Y-7600D01*
X24580Y-7441D01*
X24666Y-7233D01*
X24666Y-7009D01*
X24580Y-6801D01*
X24422Y-6642D01*
X24214Y-6556D01*
X23989Y-6556D01*
X23781Y-6641D01*
X23622Y-6800D01*
X23536Y-7008D01*
X23536Y-7232D01*
X23549Y-7264D01*
X21533Y-9279D01*
X21533Y-8097D01*
X21958Y-7673D01*
X21988Y-7685D01*
X22213Y-7686D01*
X22421Y-7600D01*
X22580Y-7441D01*
X22666Y-7233D01*
X22666Y-7009D01*
X22580Y-6801D01*
X22422Y-6642D01*
X22214Y-6556D01*
X21989Y-6556D01*
X21781Y-6641D01*
X21622Y-6800D01*
X21536Y-7008D01*
X21536Y-7232D01*
X21549Y-7264D01*
X21373Y-7440D01*
X21373Y-6886D01*
X21618Y-6641D01*
X21744Y-6641D01*
X21909Y-6573D01*
X22034Y-6448D01*
X22102Y-6283D01*
X22103Y-6106D01*
X22035Y-5941D01*
X21909Y-5815D01*
X21745Y-5747D01*
X21567Y-5747D01*
X21403Y-5815D01*
X21277Y-5941D01*
X21209Y-6105D01*
X21209Y-6232D01*
X21186Y-6254D01*
X21186Y-3506D01*
X21097Y-3291D01*
X20933Y-3126D01*
X20718Y-3037D01*
X20485Y-3036D01*
X20270Y-3125D01*
X20105Y-3290D01*
X20016Y-3505D01*
X20016Y-3737D01*
X20092Y-3922D01*
X19962Y-3921D01*
X19801Y-3988D01*
X19801Y-2076D01*
X19801Y-2076D01*
X19862Y-1986D01*
X19884Y-1875D01*
X19884Y-1875D01*
X19884Y-1621D01*
X19862Y-1510D01*
X19799Y-1416D01*
X19705Y-1353D01*
X19685Y-1349D01*
X19678Y-1318D01*
X19543Y-1115D01*
X19340Y-980D01*
X19101Y-932D01*
X18862Y-980D01*
X18702Y-1087D01*
X18688Y-1054D01*
X18618Y-984D01*
X18526Y-946D01*
X18427Y-946D01*
X17677Y-946D01*
X17585Y-983D01*
X17514Y-1054D01*
X17476Y-1146D01*
X17476Y-1245D01*
X17476Y-2095D01*
X17514Y-2187D01*
X17584Y-2257D01*
X17676Y-2296D01*
X17776Y-2296D01*
X18526Y-2296D01*
X18618Y-2258D01*
X18688Y-2187D01*
X18702Y-2154D01*
X18862Y-2261D01*
X19101Y-2309D01*
X19223Y-2285D01*
X19223Y-2779D01*
X19188Y-2745D01*
X18808Y-2587D01*
X18396Y-2586D01*
X18016Y-2744D01*
X17724Y-3035D01*
X17566Y-3415D01*
X17566Y-3827D01*
X17723Y-4207D01*
X18014Y-4498D01*
X18394Y-4656D01*
X18806Y-4657D01*
X19187Y-4499D01*
X19223Y-4463D01*
X19223Y-6559D01*
X19214Y-6556D01*
X18989Y-6556D01*
X18781Y-6641D01*
X18622Y-6800D01*
X18536Y-7008D01*
X18536Y-7232D01*
X18622Y-7440D01*
X18781Y-7599D01*
X18988Y-7685D01*
X19213Y-7686D01*
X19421Y-7600D01*
X19580Y-7441D01*
X19666Y-7233D01*
X19666Y-7009D01*
X19653Y-6978D01*
X19717Y-6914D01*
X19717Y-6914D01*
X19779Y-6820D01*
X19779Y-6820D01*
X19783Y-6802D01*
X19801Y-6710D01*
X19801Y-6710D01*
X19801Y-5255D01*
X19961Y-5321D01*
X20240Y-5322D01*
X20497Y-5215D01*
X20694Y-5019D01*
X20801Y-4761D01*
X20801Y-4483D01*
X20695Y-4226D01*
X20676Y-4207D01*
X20717Y-4207D01*
X20932Y-4118D01*
X21097Y-3953D01*
X21186Y-3738D01*
X21186Y-3506D01*
X21186Y-6254D01*
X20879Y-6562D01*
X20816Y-6656D01*
X20794Y-6767D01*
X20794Y-10567D01*
X20718Y-10536D01*
X20485Y-10535D01*
X20270Y-10624D01*
X20105Y-10789D01*
X20016Y-11004D01*
X20016Y-11236D01*
X20092Y-11421D01*
X19962Y-11420D01*
X19705Y-11527D01*
X19508Y-11724D01*
X19401Y-11981D01*
X19401Y-12259D01*
X19445Y-12367D01*
X19108Y-12705D01*
X19045Y-12798D01*
X19023Y-12909D01*
X19023Y-13025D01*
X18934Y-13114D01*
X18866Y-13278D01*
X18865Y-13456D01*
X18933Y-13620D01*
X19059Y-13746D01*
X19223Y-13814D01*
X19401Y-13814D01*
X19565Y-13746D01*
X19691Y-13621D01*
X19759Y-13456D01*
X19759Y-13279D01*
X19691Y-13114D01*
X19604Y-13027D01*
X19855Y-12776D01*
X19961Y-12820D01*
X20240Y-12821D01*
X20497Y-12714D01*
X20694Y-12518D01*
X20794Y-12278D01*
X20794Y-13727D01*
X20703Y-13727D01*
X20538Y-13795D01*
X20413Y-13920D01*
X20344Y-14085D01*
X20344Y-14262D01*
X20412Y-14427D01*
X20513Y-14528D01*
X20513Y-16333D01*
X20424Y-16422D01*
X20356Y-16586D01*
X20356Y-16764D01*
X20424Y-16928D01*
X20513Y-17018D01*
X20190Y-17341D01*
X18490Y-17341D01*
X18490Y-12701D01*
X18468Y-12590D01*
X18406Y-12497D01*
X18406Y-12497D01*
X17969Y-12060D01*
X17969Y-11953D01*
X18014Y-11997D01*
X18394Y-12155D01*
X18806Y-12156D01*
X19187Y-11999D01*
X19478Y-11708D01*
X19636Y-11327D01*
X19636Y-10916D01*
X19479Y-10535D01*
X19188Y-10244D01*
X18808Y-10086D01*
X18456Y-10085D01*
X18460Y-10065D01*
X18460Y-10065D01*
X18460Y-5360D01*
X18438Y-5249D01*
X18438Y-5249D01*
X18417Y-5218D01*
X18375Y-5155D01*
X18375Y-5155D01*
X18066Y-4846D01*
X17972Y-4783D01*
X17861Y-4761D01*
X17186Y-4761D01*
X17186Y-3506D01*
X17097Y-3291D01*
X16933Y-3126D01*
X16718Y-3037D01*
X16485Y-3036D01*
X16270Y-3125D01*
X16105Y-3290D01*
X16016Y-3505D01*
X16016Y-3737D01*
X16105Y-3952D01*
X16269Y-4117D01*
X16484Y-4206D01*
X16717Y-4207D01*
X16932Y-4118D01*
X17097Y-3953D01*
X17186Y-3738D01*
X17186Y-3506D01*
X17186Y-4761D01*
X16671Y-4761D01*
X16560Y-4783D01*
X16466Y-4846D01*
X14744Y-6568D01*
X14714Y-6556D01*
X14685Y-6556D01*
X14760Y-6481D01*
X14760Y-6481D01*
X14802Y-6418D01*
X14823Y-6387D01*
X14823Y-6387D01*
X14845Y-6276D01*
X14845Y-6276D01*
X14845Y-2572D01*
X14934Y-2483D01*
X15002Y-2319D01*
X15002Y-2141D01*
X14934Y-1977D01*
X14809Y-1851D01*
X14645Y-1783D01*
X14467Y-1783D01*
X14303Y-1851D01*
X14177Y-1976D01*
X14109Y-2141D01*
X14108Y-2318D01*
X14176Y-2483D01*
X14266Y-2572D01*
X14266Y-6156D01*
X13686Y-6736D01*
X13686Y-3505D01*
X13597Y-3290D01*
X13433Y-3125D01*
X13218Y-3036D01*
X12985Y-3035D01*
X12770Y-3124D01*
X12605Y-3289D01*
X12516Y-3504D01*
X12516Y-3736D01*
X12592Y-3921D01*
X12462Y-3920D01*
X12301Y-3987D01*
X12301Y-2076D01*
X12301Y-2076D01*
X12361Y-1986D01*
X12383Y-1875D01*
X12383Y-1875D01*
X12383Y-1621D01*
X12361Y-1510D01*
X12299Y-1416D01*
X12205Y-1353D01*
X12184Y-1349D01*
X12178Y-1318D01*
X12043Y-1115D01*
X11840Y-980D01*
X11601Y-932D01*
X11362Y-980D01*
X11202Y-1087D01*
X11188Y-1054D01*
X11118Y-984D01*
X11026Y-946D01*
X10926Y-946D01*
X10176Y-946D01*
X10084Y-983D01*
X10014Y-1054D01*
X9976Y-1146D01*
X9976Y-1245D01*
X9976Y-2095D01*
X10014Y-2187D01*
X10084Y-2257D01*
X10176Y-2296D01*
X10275Y-2296D01*
X11025Y-2296D01*
X11117Y-2258D01*
X11188Y-2187D01*
X11201Y-2154D01*
X11362Y-2261D01*
X11601Y-2309D01*
X11722Y-2285D01*
X11722Y-2778D01*
X11688Y-2744D01*
X11308Y-2586D01*
X10896Y-2585D01*
X10515Y-2743D01*
X10224Y-3034D01*
X10066Y-3414D01*
X10066Y-3826D01*
X10223Y-4206D01*
X10514Y-4497D01*
X10894Y-4655D01*
X11306Y-4656D01*
X11686Y-4499D01*
X11722Y-4462D01*
X11722Y-6559D01*
X11714Y-6556D01*
X11489Y-6556D01*
X11281Y-6641D01*
X11122Y-6800D01*
X11036Y-7008D01*
X11036Y-7232D01*
X11122Y-7440D01*
X11280Y-7599D01*
X11488Y-7685D01*
X11713Y-7686D01*
X11920Y-7600D01*
X12080Y-7441D01*
X12166Y-7233D01*
X12166Y-7009D01*
X12153Y-6978D01*
X12216Y-6914D01*
X12216Y-6914D01*
X12279Y-6820D01*
X12279Y-6820D01*
X12283Y-6802D01*
X12301Y-6710D01*
X12301Y-6710D01*
X12301Y-5254D01*
X12461Y-5320D01*
X12740Y-5321D01*
X12997Y-5214D01*
X13194Y-5018D01*
X13301Y-4760D01*
X13301Y-4482D01*
X13195Y-4225D01*
X13176Y-4206D01*
X13217Y-4206D01*
X13432Y-4117D01*
X13597Y-3952D01*
X13686Y-3737D01*
X13686Y-3505D01*
X13686Y-6736D01*
X10801Y-9621D01*
X10801Y-5482D01*
X10695Y-5225D01*
X10498Y-5027D01*
X10241Y-4921D01*
X9962Y-4920D01*
X9705Y-5027D01*
X9686Y-5046D01*
X9686Y-3505D01*
X9597Y-3290D01*
X9433Y-3125D01*
X9218Y-3036D01*
X8985Y-3035D01*
X8770Y-3124D01*
X8605Y-3289D01*
X8516Y-3504D01*
X8516Y-3525D01*
X8465Y-3402D01*
X8458Y-3396D01*
X8458Y-1439D01*
X8393Y-1281D01*
X8273Y-1161D01*
X8116Y-1096D01*
X7946Y-1096D01*
X7789Y-1161D01*
X7669Y-1281D01*
X7604Y-1438D01*
X7604Y-1608D01*
X7669Y-1765D01*
X7789Y-1885D01*
X7946Y-1950D01*
X8116Y-1950D01*
X8273Y-1885D01*
X8393Y-1765D01*
X8458Y-1608D01*
X8458Y-1439D01*
X8458Y-3396D01*
X8340Y-3277D01*
X8175Y-3209D01*
X7998Y-3208D01*
X7833Y-3276D01*
X7708Y-3402D01*
X7639Y-3566D01*
X7639Y-3744D01*
X7707Y-3908D01*
X7797Y-3998D01*
X7797Y-4811D01*
X7708Y-4900D01*
X7639Y-5064D01*
X7639Y-5242D01*
X7707Y-5406D01*
X7833Y-5532D01*
X7997Y-5600D01*
X8175Y-5600D01*
X8339Y-5532D01*
X8465Y-5406D01*
X8533Y-5242D01*
X8533Y-5065D01*
X8465Y-4900D01*
X8376Y-4810D01*
X8376Y-3998D01*
X8465Y-3909D01*
X8526Y-3761D01*
X8605Y-3952D01*
X8769Y-4116D01*
X8984Y-4205D01*
X9217Y-4206D01*
X9432Y-4117D01*
X9597Y-3952D01*
X9686Y-3737D01*
X9686Y-3505D01*
X9686Y-5046D01*
X9508Y-5224D01*
X9401Y-5481D01*
X9401Y-5759D01*
X9507Y-6017D01*
X9704Y-6214D01*
X9961Y-6320D01*
X10240Y-6321D01*
X10497Y-6214D01*
X10694Y-6018D01*
X10801Y-5760D01*
X10801Y-5482D01*
X10801Y-9621D01*
X9608Y-10815D01*
X9597Y-10790D01*
X9433Y-10625D01*
X9218Y-10536D01*
X8985Y-10535D01*
X8770Y-10624D01*
X8605Y-10789D01*
X8516Y-11004D01*
X8516Y-11236D01*
X8605Y-11452D01*
X8769Y-11616D01*
X8984Y-11705D01*
X9217Y-11706D01*
X9432Y-11617D01*
X9493Y-11555D01*
X9493Y-11607D01*
X7412Y-13689D01*
X7412Y-5421D01*
X7344Y-5256D01*
X7254Y-5166D01*
X7254Y-2019D01*
X7343Y-1930D01*
X7411Y-1766D01*
X7412Y-1588D01*
X7344Y-1424D01*
X7218Y-1298D01*
X7054Y-1230D01*
X6876Y-1230D01*
X6712Y-1297D01*
X6681Y-1329D01*
X6661Y-1281D01*
X6541Y-1161D01*
X6384Y-1096D01*
X6214Y-1096D01*
X6057Y-1161D01*
X5937Y-1281D01*
X5872Y-1438D01*
X5871Y-1608D01*
X5936Y-1765D01*
X6056Y-1885D01*
X6213Y-1950D01*
X6383Y-1950D01*
X6540Y-1885D01*
X6560Y-1866D01*
X6586Y-1929D01*
X6675Y-2019D01*
X6675Y-5167D01*
X6586Y-5256D01*
X6518Y-5420D01*
X6518Y-5598D01*
X6586Y-5762D01*
X6711Y-5888D01*
X6875Y-5956D01*
X7053Y-5956D01*
X7217Y-5888D01*
X7343Y-5762D01*
X7411Y-5598D01*
X7412Y-5421D01*
X7412Y-13689D01*
X6627Y-14474D01*
X6627Y-9357D01*
X6608Y-9264D01*
X6604Y-9246D01*
X6604Y-9246D01*
X6542Y-9152D01*
X6542Y-9152D01*
X6186Y-8796D01*
X6186Y-3505D01*
X6097Y-3290D01*
X5933Y-3125D01*
X5718Y-3036D01*
X5485Y-3035D01*
X5270Y-3124D01*
X5105Y-3289D01*
X5016Y-3504D01*
X5016Y-3736D01*
X5092Y-3921D01*
X4962Y-3920D01*
X4705Y-4027D01*
X4508Y-4224D01*
X4401Y-4481D01*
X4401Y-4759D01*
X4445Y-4867D01*
X4163Y-5149D01*
X4100Y-5243D01*
X4078Y-5354D01*
X4078Y-5784D01*
X3989Y-5873D01*
X3921Y-6037D01*
X3920Y-6215D01*
X3988Y-6379D01*
X4114Y-6505D01*
X4278Y-6573D01*
X4456Y-6573D01*
X4620Y-6505D01*
X4746Y-6380D01*
X4814Y-6215D01*
X4814Y-6038D01*
X4746Y-5873D01*
X4657Y-5784D01*
X4657Y-5474D01*
X4854Y-5276D01*
X4961Y-5320D01*
X5240Y-5321D01*
X5497Y-5214D01*
X5694Y-5018D01*
X5801Y-4760D01*
X5801Y-4482D01*
X5695Y-4225D01*
X5676Y-4206D01*
X5717Y-4206D01*
X5932Y-4117D01*
X6097Y-3952D01*
X6186Y-3737D01*
X6186Y-3505D01*
X6186Y-8796D01*
X4653Y-7264D01*
X4666Y-7233D01*
X4666Y-7009D01*
X4580Y-6801D01*
X4421Y-6642D01*
X4214Y-6556D01*
X3989Y-6556D01*
X3781Y-6641D01*
X3622Y-6800D01*
X3536Y-7008D01*
X3536Y-7232D01*
X3622Y-7440D01*
X3780Y-7599D01*
X3988Y-7685D01*
X4213Y-7686D01*
X4244Y-7673D01*
X6048Y-9477D01*
X6048Y-10740D01*
X5933Y-10625D01*
X5718Y-10536D01*
X5485Y-10535D01*
X5270Y-10624D01*
X5105Y-10789D01*
X5016Y-11004D01*
X5016Y-11236D01*
X5092Y-11421D01*
X4962Y-11420D01*
X4705Y-11527D01*
X4508Y-11724D01*
X4401Y-11981D01*
X4401Y-12259D01*
X4507Y-12517D01*
X4704Y-12714D01*
X4961Y-12820D01*
X5240Y-12821D01*
X5497Y-12714D01*
X5694Y-12518D01*
X5801Y-12260D01*
X5801Y-11982D01*
X5695Y-11725D01*
X5676Y-11706D01*
X5717Y-11706D01*
X5932Y-11617D01*
X6048Y-11501D01*
X6048Y-14472D01*
X3732Y-12156D01*
X3806Y-12156D01*
X4186Y-11999D01*
X4478Y-11708D01*
X4636Y-11327D01*
X4636Y-10916D01*
X4479Y-10535D01*
X4188Y-10244D01*
X3808Y-10086D01*
X3396Y-10085D01*
X3015Y-10243D01*
X2724Y-10534D01*
X2566Y-10914D01*
X2566Y-10990D01*
X2465Y-10889D01*
X2465Y-10877D01*
X2438Y-10743D01*
X2362Y-10629D01*
X947Y-9214D01*
X947Y-7668D01*
X988Y-7685D01*
X1213Y-7686D01*
X1420Y-7600D01*
X1580Y-7441D01*
X1666Y-7233D01*
X1666Y-7009D01*
X1580Y-6801D01*
X1421Y-6642D01*
X1390Y-6629D01*
X1390Y-5864D01*
X1991Y-5263D01*
X1901Y-5481D01*
X1901Y-5759D01*
X2007Y-6017D01*
X2204Y-6214D01*
X2461Y-6320D01*
X2740Y-6321D01*
X2997Y-6214D01*
X3194Y-6018D01*
X3301Y-5760D01*
X3301Y-5482D01*
X3195Y-5225D01*
X2998Y-5027D01*
X2741Y-4921D01*
X2462Y-4920D01*
X2244Y-5011D01*
X2487Y-4767D01*
X2487Y-4767D01*
X2550Y-4673D01*
X2572Y-4563D01*
X2572Y-4563D01*
X2572Y-3841D01*
X2723Y-4206D01*
X3014Y-4497D01*
X3394Y-4655D01*
X3806Y-4656D01*
X4186Y-4499D01*
X4478Y-4208D01*
X4636Y-3827D01*
X4636Y-3416D01*
X4479Y-3035D01*
X4188Y-2744D01*
X3808Y-2586D01*
X3545Y-2586D01*
X3812Y-2318D01*
X3812Y-2318D01*
X3854Y-2256D01*
X3862Y-2261D01*
X4101Y-2309D01*
X4340Y-2261D01*
X4543Y-2126D01*
X4678Y-1923D01*
X4726Y-1684D01*
X4726Y-1557D01*
X4678Y-1318D01*
X4543Y-1115D01*
X4340Y-980D01*
X4101Y-932D01*
X3862Y-980D01*
X3702Y-1087D01*
X3688Y-1054D01*
X3618Y-984D01*
X3526Y-946D01*
X3426Y-946D01*
X2676Y-946D01*
X2584Y-983D01*
X2514Y-1054D01*
X2476Y-1146D01*
X2476Y-1245D01*
X2476Y-1285D01*
X2413Y-1297D01*
X2300Y-1373D01*
X2300Y-1373D01*
X350Y-3323D01*
X274Y-3436D01*
X270Y-3454D01*
X270Y-766D01*
X294Y-774D01*
X471Y-761D01*
X577Y-717D01*
X591Y-633D01*
X351Y-392D01*
X345Y-398D01*
X275Y-327D01*
X280Y-322D01*
X275Y-316D01*
X345Y-245D01*
X351Y-251D01*
X356Y-245D01*
X427Y-316D01*
X422Y-322D01*
X662Y-562D01*
X747Y-547D01*
X803Y-379D01*
X793Y-240D01*
X28923Y-240D01*
X28899Y-313D01*
X28911Y-491D01*
X28955Y-596D01*
X29040Y-611D01*
X29280Y-371D01*
X29274Y-365D01*
X29345Y-294D01*
X29351Y-300D01*
X29356Y-294D01*
X29427Y-365D01*
X29421Y-371D01*
X29427Y-376D01*
X29356Y-447D01*
X29351Y-441D01*
X29110Y-682D01*
X29125Y-766D01*
X29294Y-823D01*
X29431Y-813D01*
X29431Y-9550D01*
G54D10*
G36*
X29431Y-41450D02*
X29333Y-41351D01*
X29269Y-41325D01*
X29298Y-41256D01*
X29298Y-41078D01*
X29230Y-40914D01*
X29140Y-40824D01*
X29140Y-37592D01*
X29248Y-37699D01*
X29412Y-37767D01*
X29431Y-37767D01*
X29431Y-41450D01*
X29431Y-41450D01*
G37*
G54D25*
X29431Y-41450D02*
X29333Y-41351D01*
X29269Y-41325D01*
X29298Y-41256D01*
X29298Y-41078D01*
X29230Y-40914D01*
X29140Y-40824D01*
X29140Y-37592D01*
X29248Y-37699D01*
X29412Y-37767D01*
X29431Y-37767D01*
X29431Y-41450D01*
G54D10*
G36*
X29431Y-43927D02*
X29408Y-43920D01*
X29230Y-43932D01*
X29125Y-43976D01*
X29110Y-44060D01*
X29351Y-44301D01*
X29356Y-44295D01*
X29427Y-44366D01*
X29421Y-44372D01*
X29427Y-44377D01*
X29356Y-44448D01*
X29351Y-44442D01*
X29345Y-44448D01*
X29274Y-44377D01*
X29280Y-44372D01*
X29040Y-44131D01*
X28955Y-44146D01*
X28899Y-44314D01*
X28908Y-44451D01*
X25801Y-44451D01*
X25801Y-42983D01*
X25695Y-42726D01*
X25498Y-42528D01*
X25241Y-42422D01*
X24962Y-42421D01*
X24705Y-42528D01*
X24686Y-42547D01*
X24686Y-41006D01*
X24597Y-40791D01*
X24433Y-40626D01*
X24248Y-40549D01*
X24248Y-37232D01*
X24180Y-37068D01*
X24055Y-36942D01*
X23890Y-36874D01*
X23713Y-36873D01*
X23548Y-36941D01*
X23422Y-37067D01*
X23354Y-37231D01*
X23354Y-37409D01*
X23422Y-37573D01*
X23548Y-37699D01*
X23712Y-37767D01*
X23890Y-37767D01*
X24054Y-37699D01*
X24180Y-37574D01*
X24248Y-37410D01*
X24248Y-37232D01*
X24248Y-40549D01*
X24218Y-40537D01*
X23985Y-40536D01*
X23770Y-40625D01*
X23605Y-40790D01*
X23516Y-41005D01*
X23516Y-41237D01*
X23541Y-41297D01*
X23438Y-41195D01*
X23058Y-41037D01*
X23048Y-41037D01*
X23048Y-37232D01*
X22980Y-37068D01*
X22855Y-36942D01*
X22690Y-36874D01*
X22513Y-36873D01*
X22348Y-36941D01*
X22222Y-37067D01*
X22154Y-37231D01*
X22154Y-37409D01*
X22222Y-37573D01*
X22348Y-37699D01*
X22512Y-37767D01*
X22690Y-37767D01*
X22854Y-37699D01*
X22980Y-37574D01*
X23048Y-37410D01*
X23048Y-37232D01*
X23048Y-41037D01*
X22646Y-41036D01*
X22266Y-41194D01*
X21974Y-41485D01*
X21948Y-41547D01*
X21948Y-37232D01*
X21880Y-37068D01*
X21755Y-36942D01*
X21590Y-36874D01*
X21413Y-36873D01*
X21248Y-36941D01*
X21186Y-37003D01*
X21186Y-33505D01*
X21186Y-26005D01*
X21097Y-25789D01*
X20933Y-25625D01*
X20718Y-25535D01*
X20485Y-25535D01*
X20270Y-25624D01*
X20105Y-25789D01*
X20016Y-26003D01*
X20016Y-26236D01*
X20092Y-26420D01*
X19962Y-26420D01*
X19705Y-26527D01*
X19508Y-26723D01*
X19401Y-26981D01*
X19401Y-27259D01*
X19445Y-27367D01*
X19058Y-27754D01*
X18995Y-27848D01*
X18973Y-27959D01*
X18973Y-28321D01*
X18884Y-28410D01*
X18816Y-28575D01*
X18815Y-28752D01*
X18883Y-28917D01*
X19009Y-29043D01*
X19173Y-29111D01*
X19351Y-29111D01*
X19515Y-29043D01*
X19641Y-28917D01*
X19709Y-28753D01*
X19709Y-28575D01*
X19641Y-28411D01*
X19552Y-28321D01*
X19552Y-28079D01*
X19855Y-27776D01*
X19961Y-27820D01*
X20240Y-27820D01*
X20497Y-27714D01*
X20694Y-27517D01*
X20801Y-27260D01*
X20801Y-26982D01*
X20695Y-26724D01*
X20676Y-26705D01*
X20717Y-26705D01*
X20932Y-26617D01*
X21097Y-26452D01*
X21186Y-26237D01*
X21186Y-26005D01*
X21186Y-33505D01*
X21097Y-33289D01*
X20933Y-33125D01*
X20718Y-33035D01*
X20485Y-33035D01*
X20270Y-33124D01*
X20105Y-33289D01*
X20016Y-33503D01*
X20016Y-33736D01*
X20092Y-33920D01*
X19962Y-33920D01*
X19705Y-34027D01*
X19636Y-34095D01*
X19636Y-33415D01*
X19479Y-33035D01*
X19188Y-32743D01*
X18808Y-32586D01*
X18396Y-32585D01*
X18016Y-32742D01*
X17724Y-33033D01*
X17566Y-33414D01*
X17566Y-33825D01*
X17723Y-34206D01*
X18014Y-34497D01*
X18394Y-34655D01*
X18806Y-34656D01*
X19187Y-34498D01*
X19478Y-34207D01*
X19636Y-33827D01*
X19636Y-33415D01*
X19636Y-34095D01*
X19508Y-34223D01*
X19401Y-34481D01*
X19401Y-34759D01*
X19507Y-35016D01*
X19704Y-35213D01*
X19961Y-35320D01*
X20240Y-35320D01*
X20497Y-35214D01*
X20694Y-35017D01*
X20801Y-34760D01*
X20801Y-34482D01*
X20695Y-34224D01*
X20676Y-34205D01*
X20717Y-34205D01*
X20932Y-34117D01*
X21097Y-33952D01*
X21186Y-33737D01*
X21186Y-33505D01*
X21186Y-37003D01*
X21122Y-37067D01*
X21054Y-37231D01*
X21054Y-37409D01*
X21122Y-37573D01*
X21248Y-37699D01*
X21412Y-37767D01*
X21590Y-37767D01*
X21754Y-37699D01*
X21880Y-37574D01*
X21948Y-37410D01*
X21948Y-37232D01*
X21948Y-41547D01*
X21816Y-41865D01*
X21816Y-42277D01*
X21973Y-42657D01*
X22264Y-42948D01*
X22644Y-43106D01*
X23056Y-43107D01*
X23437Y-42949D01*
X23728Y-42659D01*
X23886Y-42278D01*
X23886Y-41867D01*
X23786Y-41624D01*
X23984Y-41706D01*
X24217Y-41707D01*
X24432Y-41618D01*
X24597Y-41453D01*
X24686Y-41238D01*
X24686Y-41006D01*
X24686Y-42547D01*
X24508Y-42725D01*
X24401Y-42982D01*
X24401Y-43260D01*
X24507Y-43518D01*
X24704Y-43715D01*
X24961Y-43821D01*
X25240Y-43822D01*
X25497Y-43715D01*
X25694Y-43519D01*
X25801Y-43261D01*
X25801Y-42983D01*
X25801Y-44451D01*
X21186Y-44451D01*
X21186Y-41006D01*
X21097Y-40791D01*
X20933Y-40626D01*
X20718Y-40537D01*
X20485Y-40536D01*
X20270Y-40625D01*
X20105Y-40790D01*
X20048Y-40928D01*
X20048Y-37232D01*
X19980Y-37068D01*
X19855Y-36942D01*
X19690Y-36874D01*
X19513Y-36873D01*
X19348Y-36941D01*
X19222Y-37067D01*
X19154Y-37231D01*
X19154Y-37409D01*
X19222Y-37573D01*
X19348Y-37699D01*
X19512Y-37767D01*
X19690Y-37767D01*
X19854Y-37699D01*
X19980Y-37574D01*
X20048Y-37410D01*
X20048Y-37232D01*
X20048Y-40928D01*
X20016Y-41005D01*
X20016Y-41237D01*
X20092Y-41422D01*
X19962Y-41421D01*
X19705Y-41528D01*
X19636Y-41596D01*
X19636Y-40917D01*
X19479Y-40536D01*
X19188Y-40245D01*
X18848Y-40103D01*
X18848Y-37232D01*
X18780Y-37068D01*
X18655Y-36942D01*
X18490Y-36874D01*
X18313Y-36873D01*
X18148Y-36941D01*
X18022Y-37067D01*
X17954Y-37231D01*
X17954Y-37409D01*
X18022Y-37573D01*
X18148Y-37699D01*
X18312Y-37767D01*
X18490Y-37767D01*
X18654Y-37699D01*
X18780Y-37574D01*
X18848Y-37410D01*
X18848Y-37232D01*
X18848Y-40103D01*
X18808Y-40087D01*
X18396Y-40086D01*
X18016Y-40244D01*
X17724Y-40535D01*
X17648Y-40718D01*
X17648Y-37232D01*
X17580Y-37068D01*
X17455Y-36942D01*
X17290Y-36874D01*
X17113Y-36873D01*
X16948Y-36941D01*
X16822Y-37067D01*
X16754Y-37231D01*
X16754Y-37409D01*
X16822Y-37573D01*
X16948Y-37699D01*
X17112Y-37767D01*
X17290Y-37767D01*
X17454Y-37699D01*
X17580Y-37574D01*
X17648Y-37410D01*
X17648Y-37232D01*
X17648Y-40718D01*
X17566Y-40915D01*
X17566Y-41327D01*
X17723Y-41707D01*
X18014Y-41998D01*
X18394Y-42156D01*
X18806Y-42157D01*
X19187Y-41999D01*
X19478Y-41709D01*
X19636Y-41328D01*
X19636Y-40917D01*
X19636Y-41596D01*
X19508Y-41725D01*
X19401Y-41982D01*
X19401Y-42260D01*
X19507Y-42518D01*
X19704Y-42715D01*
X19961Y-42821D01*
X20240Y-42822D01*
X20497Y-42715D01*
X20694Y-42519D01*
X20801Y-42261D01*
X20801Y-41983D01*
X20695Y-41726D01*
X20676Y-41707D01*
X20717Y-41707D01*
X20932Y-41618D01*
X21097Y-41453D01*
X21186Y-41238D01*
X21186Y-41006D01*
X21186Y-44451D01*
X15298Y-44451D01*
X15298Y-37233D01*
X15230Y-37069D01*
X15104Y-36943D01*
X14940Y-36875D01*
X14762Y-36875D01*
X14623Y-36932D01*
X14623Y-36846D01*
X14555Y-36682D01*
X14465Y-36592D01*
X14465Y-36195D01*
X14447Y-36103D01*
X14443Y-36085D01*
X14443Y-36085D01*
X14380Y-35991D01*
X14380Y-35991D01*
X13257Y-34867D01*
X13301Y-34760D01*
X13301Y-34482D01*
X13195Y-34224D01*
X13176Y-34205D01*
X13217Y-34205D01*
X13432Y-34117D01*
X13597Y-33952D01*
X13686Y-33737D01*
X13686Y-33505D01*
X13597Y-33289D01*
X13433Y-33125D01*
X13218Y-33035D01*
X13086Y-33035D01*
X13086Y-30167D01*
X12929Y-29786D01*
X12638Y-29495D01*
X12258Y-29337D01*
X11846Y-29336D01*
X11465Y-29494D01*
X11174Y-29785D01*
X11016Y-30165D01*
X11016Y-30577D01*
X11173Y-30957D01*
X11464Y-31248D01*
X11844Y-31406D01*
X12256Y-31407D01*
X12636Y-31249D01*
X12928Y-30959D01*
X13086Y-30578D01*
X13086Y-30167D01*
X13086Y-33035D01*
X12985Y-33035D01*
X12770Y-33124D01*
X12605Y-33289D01*
X12516Y-33503D01*
X12516Y-33736D01*
X12592Y-33920D01*
X12462Y-33920D01*
X12205Y-34027D01*
X12136Y-34095D01*
X12136Y-33415D01*
X11979Y-33035D01*
X11688Y-32743D01*
X11308Y-32586D01*
X10896Y-32585D01*
X10515Y-32742D01*
X10224Y-33033D01*
X10066Y-33414D01*
X10066Y-33825D01*
X10223Y-34206D01*
X10514Y-34497D01*
X10894Y-34655D01*
X11306Y-34656D01*
X11686Y-34498D01*
X11978Y-34207D01*
X12136Y-33827D01*
X12136Y-33415D01*
X12136Y-34095D01*
X12008Y-34223D01*
X11901Y-34481D01*
X11901Y-34759D01*
X12007Y-35016D01*
X12204Y-35213D01*
X12461Y-35320D01*
X12740Y-35320D01*
X12847Y-35276D01*
X13886Y-36315D01*
X13886Y-36592D01*
X13797Y-36681D01*
X13729Y-36845D01*
X13729Y-36931D01*
X13590Y-36874D01*
X13412Y-36873D01*
X13248Y-36941D01*
X13122Y-37067D01*
X13054Y-37231D01*
X13054Y-37409D01*
X13122Y-37573D01*
X13247Y-37699D01*
X13412Y-37767D01*
X13589Y-37767D01*
X13754Y-37699D01*
X13879Y-37574D01*
X13948Y-37410D01*
X13948Y-37324D01*
X14087Y-37381D01*
X14264Y-37381D01*
X14404Y-37324D01*
X14404Y-37410D01*
X14472Y-37574D01*
X14597Y-37700D01*
X14761Y-37768D01*
X14939Y-37768D01*
X15103Y-37701D01*
X15229Y-37575D01*
X15297Y-37411D01*
X15298Y-37233D01*
X15298Y-44451D01*
X13684Y-44451D01*
X13709Y-44426D01*
X13777Y-44262D01*
X13777Y-44084D01*
X13709Y-43920D01*
X13620Y-43830D01*
X13620Y-42851D01*
X13598Y-42740D01*
X13535Y-42646D01*
X13535Y-42646D01*
X13257Y-42368D01*
X13301Y-42261D01*
X13301Y-41983D01*
X13195Y-41726D01*
X13176Y-41707D01*
X13217Y-41707D01*
X13432Y-41618D01*
X13597Y-41453D01*
X13686Y-41238D01*
X13686Y-41006D01*
X13597Y-40791D01*
X13433Y-40626D01*
X13218Y-40537D01*
X13086Y-40537D01*
X13086Y-37667D01*
X12929Y-37286D01*
X12638Y-36995D01*
X12632Y-36992D01*
X12771Y-36854D01*
X12901Y-36541D01*
X12901Y-36203D01*
X12772Y-35891D01*
X12533Y-35651D01*
X12221Y-35522D01*
X11883Y-35521D01*
X11570Y-35651D01*
X11331Y-35889D01*
X11201Y-36202D01*
X11201Y-36540D01*
X11330Y-36852D01*
X11469Y-36992D01*
X11465Y-36994D01*
X11174Y-37285D01*
X11148Y-37348D01*
X11148Y-37232D01*
X11080Y-37068D01*
X10954Y-36942D01*
X10801Y-36878D01*
X10801Y-35482D01*
X10695Y-35224D01*
X10498Y-35027D01*
X10241Y-34920D01*
X9962Y-34920D01*
X9936Y-34931D01*
X9936Y-33506D01*
X9847Y-33291D01*
X9683Y-33126D01*
X9468Y-33037D01*
X9235Y-33036D01*
X9228Y-33040D01*
X9218Y-33035D01*
X8985Y-33035D01*
X8770Y-33124D01*
X8605Y-33289D01*
X8516Y-33503D01*
X8516Y-33736D01*
X8605Y-33951D01*
X8615Y-33962D01*
X8455Y-34028D01*
X8386Y-34096D01*
X8386Y-33417D01*
X8229Y-33036D01*
X7938Y-32745D01*
X7558Y-32587D01*
X7146Y-32586D01*
X6765Y-32744D01*
X6474Y-33035D01*
X6316Y-33415D01*
X6316Y-33827D01*
X6473Y-34207D01*
X6764Y-34498D01*
X7144Y-34656D01*
X7556Y-34657D01*
X7936Y-34499D01*
X8228Y-34209D01*
X8386Y-33828D01*
X8386Y-33417D01*
X8386Y-34096D01*
X8258Y-34225D01*
X8151Y-34482D01*
X8151Y-34760D01*
X8257Y-35018D01*
X8454Y-35215D01*
X8711Y-35321D01*
X8990Y-35322D01*
X9247Y-35215D01*
X9444Y-35019D01*
X9551Y-34761D01*
X9551Y-34483D01*
X9445Y-34226D01*
X9426Y-34207D01*
X9467Y-34207D01*
X9682Y-34118D01*
X9847Y-33953D01*
X9936Y-33738D01*
X9936Y-33506D01*
X9936Y-34931D01*
X9705Y-35027D01*
X9508Y-35223D01*
X9401Y-35481D01*
X9401Y-35759D01*
X9507Y-36016D01*
X9704Y-36213D01*
X9961Y-36320D01*
X10240Y-36320D01*
X10497Y-36214D01*
X10694Y-36017D01*
X10801Y-35760D01*
X10801Y-35482D01*
X10801Y-36878D01*
X10790Y-36874D01*
X10612Y-36873D01*
X10448Y-36941D01*
X10322Y-37067D01*
X10254Y-37231D01*
X10254Y-37409D01*
X10322Y-37573D01*
X10447Y-37699D01*
X10612Y-37767D01*
X10789Y-37767D01*
X10954Y-37699D01*
X11036Y-37618D01*
X11016Y-37665D01*
X11016Y-38077D01*
X11173Y-38457D01*
X11464Y-38748D01*
X11844Y-38906D01*
X12256Y-38907D01*
X12636Y-38749D01*
X12928Y-38459D01*
X13086Y-38078D01*
X13086Y-37667D01*
X13086Y-40537D01*
X12985Y-40536D01*
X12770Y-40625D01*
X12605Y-40790D01*
X12516Y-41005D01*
X12516Y-41237D01*
X12592Y-41422D01*
X12462Y-41421D01*
X12205Y-41528D01*
X12136Y-41596D01*
X12136Y-40917D01*
X11979Y-40536D01*
X11688Y-40245D01*
X11308Y-40087D01*
X10896Y-40086D01*
X10515Y-40244D01*
X10224Y-40535D01*
X10066Y-40915D01*
X10066Y-41327D01*
X10223Y-41707D01*
X10514Y-41998D01*
X10894Y-42156D01*
X11306Y-42157D01*
X11686Y-41999D01*
X11978Y-41709D01*
X12136Y-41328D01*
X12136Y-40917D01*
X12136Y-41596D01*
X12008Y-41725D01*
X11901Y-41982D01*
X11901Y-42260D01*
X12007Y-42518D01*
X12204Y-42715D01*
X12461Y-42821D01*
X12740Y-42822D01*
X12847Y-42777D01*
X13041Y-42971D01*
X13041Y-43830D01*
X12952Y-43919D01*
X12883Y-44083D01*
X12883Y-44261D01*
X12951Y-44425D01*
X12977Y-44451D01*
X12673Y-44451D01*
X12771Y-44354D01*
X12901Y-44041D01*
X12901Y-43703D01*
X12772Y-43391D01*
X12533Y-43151D01*
X12221Y-43022D01*
X11883Y-43021D01*
X11570Y-43151D01*
X11331Y-43389D01*
X11201Y-43702D01*
X11201Y-44040D01*
X11330Y-44352D01*
X11428Y-44451D01*
X10801Y-44451D01*
X10801Y-42983D01*
X10695Y-42726D01*
X10498Y-42528D01*
X10241Y-42422D01*
X9962Y-42421D01*
X9948Y-42427D01*
X9948Y-37232D01*
X9880Y-37068D01*
X9754Y-36942D01*
X9590Y-36874D01*
X9412Y-36873D01*
X9248Y-36941D01*
X9122Y-37067D01*
X9054Y-37231D01*
X9054Y-37409D01*
X9122Y-37573D01*
X9247Y-37699D01*
X9412Y-37767D01*
X9589Y-37767D01*
X9754Y-37699D01*
X9879Y-37574D01*
X9948Y-37410D01*
X9948Y-37232D01*
X9948Y-42427D01*
X9936Y-42432D01*
X9936Y-41006D01*
X9847Y-40791D01*
X9683Y-40626D01*
X9468Y-40537D01*
X9235Y-40536D01*
X9226Y-40540D01*
X9218Y-40537D01*
X8985Y-40536D01*
X8770Y-40625D01*
X8748Y-40647D01*
X8748Y-37232D01*
X8680Y-37068D01*
X8554Y-36942D01*
X8390Y-36874D01*
X8212Y-36873D01*
X8048Y-36941D01*
X7922Y-37067D01*
X7854Y-37231D01*
X7854Y-37409D01*
X7922Y-37573D01*
X8047Y-37699D01*
X8212Y-37767D01*
X8389Y-37767D01*
X8554Y-37699D01*
X8679Y-37574D01*
X8748Y-37410D01*
X8748Y-37232D01*
X8748Y-40647D01*
X8605Y-40790D01*
X8516Y-41005D01*
X8516Y-41237D01*
X8605Y-41452D01*
X8614Y-41462D01*
X8455Y-41528D01*
X8386Y-41596D01*
X8386Y-40917D01*
X8229Y-40536D01*
X7938Y-40245D01*
X7558Y-40087D01*
X7448Y-40087D01*
X7448Y-37232D01*
X7380Y-37068D01*
X7254Y-36942D01*
X7090Y-36874D01*
X7051Y-36874D01*
X7051Y-35483D01*
X6945Y-35226D01*
X6748Y-35028D01*
X6491Y-34922D01*
X6212Y-34921D01*
X6105Y-34966D01*
X5345Y-34207D01*
X5467Y-34207D01*
X5477Y-34202D01*
X5484Y-34205D01*
X5717Y-34205D01*
X5932Y-34117D01*
X6097Y-33952D01*
X6186Y-33737D01*
X6186Y-33505D01*
X6097Y-33289D01*
X5933Y-33125D01*
X5718Y-33035D01*
X5485Y-33035D01*
X5475Y-33040D01*
X5468Y-33037D01*
X5235Y-33036D01*
X5020Y-33125D01*
X4890Y-33255D01*
X4890Y-32258D01*
X4997Y-32214D01*
X5194Y-32017D01*
X5301Y-31760D01*
X5301Y-31482D01*
X5195Y-31224D01*
X4998Y-31027D01*
X4741Y-30920D01*
X4462Y-30920D01*
X4205Y-31027D01*
X4008Y-31223D01*
X3901Y-31481D01*
X3901Y-31759D01*
X4007Y-32016D01*
X4204Y-32213D01*
X4312Y-32258D01*
X4312Y-32867D01*
X4188Y-32743D01*
X3808Y-32586D01*
X3686Y-32585D01*
X3686Y-30167D01*
X3529Y-29786D01*
X3238Y-29495D01*
X2858Y-29337D01*
X2446Y-29336D01*
X2065Y-29494D01*
X1774Y-29785D01*
X1616Y-30165D01*
X1616Y-30577D01*
X1773Y-30957D01*
X2064Y-31248D01*
X2444Y-31406D01*
X2856Y-31407D01*
X3236Y-31249D01*
X3528Y-30959D01*
X3686Y-30578D01*
X3686Y-30167D01*
X3686Y-32585D01*
X3396Y-32585D01*
X3015Y-32742D01*
X2801Y-32956D01*
X2801Y-32482D01*
X2695Y-32224D01*
X2498Y-32027D01*
X2241Y-31920D01*
X1962Y-31920D01*
X1705Y-32027D01*
X1508Y-32223D01*
X1401Y-32481D01*
X1401Y-32759D01*
X1507Y-33016D01*
X1526Y-33035D01*
X1485Y-33035D01*
X1270Y-33124D01*
X1105Y-33289D01*
X1016Y-33503D01*
X1016Y-33736D01*
X1105Y-33951D01*
X1269Y-34116D01*
X1484Y-34205D01*
X1717Y-34205D01*
X1932Y-34117D01*
X2097Y-33952D01*
X2186Y-33737D01*
X2186Y-33505D01*
X2110Y-33320D01*
X2240Y-33320D01*
X2497Y-33214D01*
X2694Y-33017D01*
X2801Y-32760D01*
X2801Y-32482D01*
X2801Y-32956D01*
X2724Y-33033D01*
X2566Y-33414D01*
X2566Y-33825D01*
X2723Y-34206D01*
X3014Y-34497D01*
X3394Y-34655D01*
X3806Y-34656D01*
X4186Y-34498D01*
X4478Y-34207D01*
X4492Y-34172D01*
X5695Y-35375D01*
X5651Y-35482D01*
X5651Y-35760D01*
X5757Y-36018D01*
X5954Y-36215D01*
X6211Y-36321D01*
X6490Y-36322D01*
X6747Y-36215D01*
X6944Y-36019D01*
X7051Y-35761D01*
X7051Y-35483D01*
X7051Y-36874D01*
X6912Y-36873D01*
X6748Y-36941D01*
X6622Y-37067D01*
X6554Y-37231D01*
X6554Y-37409D01*
X6622Y-37573D01*
X6747Y-37699D01*
X6912Y-37767D01*
X7089Y-37767D01*
X7254Y-37699D01*
X7379Y-37574D01*
X7448Y-37410D01*
X7448Y-37232D01*
X7448Y-40087D01*
X7146Y-40086D01*
X6765Y-40244D01*
X6474Y-40535D01*
X6459Y-40570D01*
X6248Y-40358D01*
X6248Y-37232D01*
X6180Y-37068D01*
X6054Y-36942D01*
X5890Y-36874D01*
X5712Y-36873D01*
X5548Y-36941D01*
X5422Y-37067D01*
X5354Y-37231D01*
X5354Y-37409D01*
X5422Y-37573D01*
X5547Y-37699D01*
X5712Y-37767D01*
X5889Y-37767D01*
X6054Y-37699D01*
X6179Y-37574D01*
X6248Y-37410D01*
X6248Y-37232D01*
X6248Y-40358D01*
X5257Y-39367D01*
X5301Y-39260D01*
X5301Y-38982D01*
X5195Y-38724D01*
X4998Y-38527D01*
X4741Y-38420D01*
X4462Y-38420D01*
X4348Y-38468D01*
X4348Y-37232D01*
X4280Y-37068D01*
X4154Y-36942D01*
X3990Y-36874D01*
X3812Y-36873D01*
X3648Y-36941D01*
X3522Y-37067D01*
X3460Y-37217D01*
X3238Y-36995D01*
X3232Y-36992D01*
X3371Y-36854D01*
X3501Y-36541D01*
X3501Y-36203D01*
X3372Y-35891D01*
X3133Y-35651D01*
X2821Y-35522D01*
X2483Y-35521D01*
X2170Y-35651D01*
X1931Y-35889D01*
X1801Y-36202D01*
X1801Y-36540D01*
X1930Y-36852D01*
X2069Y-36992D01*
X2065Y-36994D01*
X1774Y-37285D01*
X1698Y-37468D01*
X1698Y-37232D01*
X1630Y-37068D01*
X1504Y-36942D01*
X1340Y-36874D01*
X1162Y-36873D01*
X998Y-36941D01*
X872Y-37067D01*
X804Y-37231D01*
X804Y-37409D01*
X872Y-37573D01*
X997Y-37699D01*
X1162Y-37767D01*
X1339Y-37767D01*
X1504Y-37699D01*
X1629Y-37574D01*
X1698Y-37410D01*
X1698Y-37232D01*
X1698Y-37468D01*
X1616Y-37665D01*
X1616Y-38077D01*
X1773Y-38457D01*
X2064Y-38748D01*
X2444Y-38906D01*
X2856Y-38907D01*
X3236Y-38749D01*
X3528Y-38459D01*
X3686Y-38078D01*
X3686Y-37715D01*
X3812Y-37767D01*
X3989Y-37767D01*
X4154Y-37699D01*
X4279Y-37574D01*
X4348Y-37410D01*
X4348Y-37232D01*
X4348Y-38468D01*
X4205Y-38527D01*
X4008Y-38723D01*
X3901Y-38981D01*
X3901Y-39259D01*
X4007Y-39516D01*
X4204Y-39713D01*
X4461Y-39820D01*
X4740Y-39820D01*
X4847Y-39776D01*
X5607Y-40535D01*
X5485Y-40535D01*
X5475Y-40540D01*
X5468Y-40537D01*
X5235Y-40536D01*
X5020Y-40625D01*
X4855Y-40790D01*
X4766Y-41005D01*
X4766Y-41237D01*
X4855Y-41452D01*
X5019Y-41617D01*
X5234Y-41706D01*
X5467Y-41707D01*
X5477Y-41702D01*
X5484Y-41705D01*
X5717Y-41705D01*
X5932Y-41617D01*
X6062Y-41487D01*
X6062Y-42484D01*
X5955Y-42528D01*
X5758Y-42725D01*
X5651Y-42982D01*
X5651Y-43260D01*
X5757Y-43518D01*
X5954Y-43715D01*
X6211Y-43821D01*
X6490Y-43822D01*
X6747Y-43715D01*
X6944Y-43519D01*
X7051Y-43261D01*
X7051Y-42983D01*
X6945Y-42726D01*
X6748Y-42528D01*
X6640Y-42484D01*
X6640Y-41875D01*
X6764Y-41998D01*
X7144Y-42156D01*
X7556Y-42157D01*
X7936Y-41999D01*
X8228Y-41709D01*
X8386Y-41328D01*
X8386Y-40917D01*
X8386Y-41596D01*
X8258Y-41725D01*
X8151Y-41982D01*
X8151Y-42260D01*
X8257Y-42518D01*
X8454Y-42715D01*
X8711Y-42821D01*
X8990Y-42822D01*
X9247Y-42715D01*
X9444Y-42519D01*
X9551Y-42261D01*
X9551Y-41983D01*
X9445Y-41726D01*
X9426Y-41707D01*
X9467Y-41707D01*
X9682Y-41618D01*
X9847Y-41453D01*
X9936Y-41238D01*
X9936Y-41006D01*
X9936Y-42432D01*
X9705Y-42528D01*
X9508Y-42725D01*
X9401Y-42982D01*
X9401Y-43260D01*
X9507Y-43518D01*
X9704Y-43715D01*
X9961Y-43821D01*
X10240Y-43822D01*
X10497Y-43715D01*
X10694Y-43519D01*
X10801Y-43261D01*
X10801Y-42983D01*
X10801Y-44451D01*
X4636Y-44451D01*
X4636Y-40915D01*
X4479Y-40535D01*
X4188Y-40243D01*
X3808Y-40086D01*
X3396Y-40085D01*
X3015Y-40242D01*
X2801Y-40456D01*
X2801Y-39982D01*
X2695Y-39724D01*
X2498Y-39527D01*
X2241Y-39420D01*
X1962Y-39420D01*
X1705Y-39527D01*
X1508Y-39723D01*
X1401Y-39981D01*
X1401Y-40259D01*
X1507Y-40516D01*
X1526Y-40535D01*
X1485Y-40535D01*
X1270Y-40624D01*
X1105Y-40789D01*
X1016Y-41003D01*
X1016Y-41236D01*
X1105Y-41451D01*
X1269Y-41616D01*
X1484Y-41705D01*
X1717Y-41705D01*
X1932Y-41617D01*
X2097Y-41452D01*
X2186Y-41237D01*
X2186Y-41005D01*
X2110Y-40820D01*
X2240Y-40820D01*
X2497Y-40714D01*
X2694Y-40517D01*
X2801Y-40260D01*
X2801Y-39982D01*
X2801Y-40456D01*
X2724Y-40533D01*
X2566Y-40914D01*
X2566Y-41325D01*
X2723Y-41706D01*
X3014Y-41997D01*
X3394Y-42155D01*
X3806Y-42156D01*
X4186Y-41998D01*
X4478Y-41707D01*
X4636Y-41327D01*
X4636Y-40915D01*
X4636Y-44451D01*
X3273Y-44451D01*
X3371Y-44354D01*
X3501Y-44041D01*
X3501Y-43703D01*
X3372Y-43391D01*
X3133Y-43151D01*
X2821Y-43022D01*
X2483Y-43021D01*
X2170Y-43151D01*
X1931Y-43389D01*
X1801Y-43702D01*
X1801Y-44040D01*
X1930Y-44352D01*
X2028Y-44451D01*
X795Y-44451D01*
X803Y-44429D01*
X803Y-36427D01*
X790Y-36250D01*
X747Y-36145D01*
X662Y-36130D01*
X422Y-36370D01*
X662Y-36611D01*
X747Y-36596D01*
X803Y-36427D01*
X803Y-44429D01*
X790Y-44251D01*
X747Y-44146D01*
X662Y-44131D01*
X422Y-44372D01*
X427Y-44377D01*
X356Y-44448D01*
X351Y-44442D01*
X345Y-44448D01*
X275Y-44377D01*
X280Y-44372D01*
X275Y-44366D01*
X345Y-44295D01*
X351Y-44301D01*
X591Y-44060D01*
X577Y-43976D01*
X408Y-43920D01*
X270Y-43929D01*
X270Y-37767D01*
X289Y-37767D01*
X454Y-37699D01*
X579Y-37574D01*
X648Y-37410D01*
X648Y-37232D01*
X580Y-37068D01*
X454Y-36942D01*
X290Y-36874D01*
X270Y-36874D01*
X270Y-36815D01*
X294Y-36822D01*
X471Y-36810D01*
X577Y-36766D01*
X591Y-36681D01*
X351Y-36441D01*
X345Y-36447D01*
X275Y-36376D01*
X280Y-36370D01*
X275Y-36365D01*
X345Y-36294D01*
X351Y-36300D01*
X591Y-36059D01*
X577Y-35975D01*
X408Y-35918D01*
X270Y-35928D01*
X270Y-23478D01*
X1601Y-23478D01*
X2074Y-23385D01*
X2474Y-23117D01*
X2742Y-22716D01*
X2836Y-22244D01*
X2742Y-21772D01*
X2474Y-21371D01*
X2295Y-21251D01*
X2461Y-21320D01*
X2740Y-21320D01*
X2997Y-21214D01*
X3194Y-21017D01*
X3301Y-20760D01*
X3301Y-20482D01*
X3195Y-20224D01*
X2998Y-20027D01*
X2890Y-19983D01*
X2890Y-19373D01*
X3014Y-19497D01*
X3394Y-19655D01*
X3806Y-19656D01*
X3921Y-19608D01*
X3920Y-19634D01*
X3988Y-19799D01*
X4078Y-19889D01*
X4078Y-25198D01*
X3808Y-25086D01*
X3396Y-25085D01*
X3015Y-25242D01*
X2724Y-25533D01*
X2566Y-25914D01*
X2566Y-26325D01*
X2723Y-26706D01*
X3014Y-26997D01*
X3394Y-27155D01*
X3806Y-27156D01*
X4186Y-26998D01*
X4478Y-26707D01*
X4636Y-26327D01*
X4636Y-26216D01*
X4876Y-26456D01*
X4705Y-26527D01*
X4508Y-26723D01*
X4401Y-26981D01*
X4401Y-27259D01*
X4507Y-27516D01*
X4704Y-27713D01*
X4961Y-27820D01*
X5240Y-27820D01*
X5497Y-27714D01*
X5694Y-27517D01*
X5726Y-27440D01*
X5738Y-27445D01*
X5916Y-27445D01*
X6081Y-27378D01*
X6170Y-27288D01*
X9663Y-27288D01*
X9844Y-27469D01*
X9705Y-27527D01*
X9508Y-27723D01*
X9463Y-27831D01*
X3239Y-27831D01*
X3195Y-27724D01*
X2998Y-27527D01*
X2741Y-27420D01*
X2462Y-27420D01*
X2205Y-27527D01*
X2186Y-27545D01*
X2186Y-26005D01*
X2097Y-25789D01*
X1933Y-25625D01*
X1718Y-25535D01*
X1485Y-25535D01*
X1270Y-25624D01*
X1105Y-25789D01*
X1016Y-26003D01*
X1016Y-26236D01*
X1105Y-26451D01*
X1269Y-26616D01*
X1484Y-26705D01*
X1717Y-26705D01*
X1932Y-26617D01*
X2097Y-26452D01*
X2186Y-26237D01*
X2186Y-26005D01*
X2186Y-27545D01*
X2008Y-27723D01*
X1901Y-27981D01*
X1901Y-28259D01*
X2007Y-28516D01*
X2204Y-28713D01*
X2461Y-28820D01*
X2740Y-28820D01*
X2997Y-28714D01*
X3194Y-28517D01*
X3239Y-28410D01*
X9463Y-28410D01*
X9507Y-28516D01*
X9704Y-28713D01*
X9961Y-28820D01*
X10240Y-28820D01*
X10497Y-28714D01*
X10694Y-28517D01*
X10710Y-28479D01*
X10739Y-28491D01*
X10917Y-28491D01*
X11081Y-28423D01*
X11207Y-28298D01*
X11275Y-28133D01*
X11275Y-27956D01*
X11207Y-27791D01*
X11082Y-27666D01*
X10918Y-27597D01*
X10791Y-27597D01*
X9987Y-26794D01*
X9894Y-26731D01*
X9783Y-26709D01*
X9686Y-26709D01*
X9686Y-26005D01*
X9597Y-25789D01*
X9433Y-25625D01*
X9218Y-25535D01*
X8985Y-25535D01*
X8770Y-25624D01*
X8605Y-25789D01*
X8516Y-26003D01*
X8516Y-26236D01*
X8605Y-26451D01*
X8769Y-26616D01*
X8984Y-26705D01*
X9217Y-26705D01*
X9432Y-26617D01*
X9597Y-26452D01*
X9686Y-26237D01*
X9686Y-26005D01*
X9686Y-26709D01*
X6170Y-26709D01*
X6081Y-26620D01*
X5973Y-26575D01*
X6097Y-26452D01*
X6186Y-26237D01*
X6186Y-26005D01*
X6097Y-25789D01*
X5933Y-25625D01*
X5718Y-25535D01*
X5485Y-25535D01*
X5270Y-25624D01*
X5105Y-25789D01*
X5082Y-25844D01*
X4657Y-25418D01*
X4657Y-20166D01*
X4704Y-20213D01*
X4961Y-20320D01*
X5240Y-20320D01*
X5497Y-20214D01*
X5694Y-20017D01*
X5801Y-19760D01*
X5801Y-19482D01*
X5695Y-19224D01*
X5676Y-19205D01*
X5717Y-19205D01*
X5932Y-19117D01*
X6097Y-18952D01*
X6186Y-18737D01*
X6186Y-18689D01*
X6250Y-18754D01*
X6250Y-19061D01*
X6272Y-19172D01*
X6335Y-19266D01*
X6642Y-19573D01*
X6620Y-19626D01*
X6620Y-19866D01*
X6712Y-20088D01*
X6870Y-20246D01*
X6713Y-20404D01*
X6620Y-20626D01*
X6620Y-20866D01*
X6642Y-20919D01*
X6271Y-21291D01*
X6208Y-21385D01*
X6186Y-21495D01*
X6186Y-22097D01*
X6097Y-22186D01*
X6029Y-22350D01*
X6029Y-22528D01*
X6097Y-22692D01*
X6222Y-22818D01*
X6387Y-22886D01*
X6564Y-22887D01*
X6729Y-22819D01*
X6854Y-22693D01*
X6923Y-22529D01*
X6923Y-22351D01*
X6855Y-22187D01*
X6765Y-22097D01*
X6765Y-21615D01*
X7051Y-21329D01*
X7104Y-21351D01*
X7344Y-21351D01*
X7567Y-21259D01*
X7737Y-21089D01*
X7789Y-20963D01*
X10178Y-23352D01*
X10178Y-24265D01*
X10089Y-24354D01*
X10021Y-24518D01*
X10021Y-24696D01*
X10089Y-24861D01*
X10214Y-24986D01*
X10378Y-25055D01*
X10556Y-25055D01*
X10704Y-24994D01*
X10708Y-25002D01*
X10821Y-25116D01*
X10515Y-25242D01*
X10224Y-25533D01*
X10066Y-25914D01*
X10066Y-26325D01*
X10223Y-26706D01*
X10514Y-26997D01*
X10894Y-27155D01*
X11306Y-27156D01*
X11686Y-26998D01*
X11978Y-26707D01*
X12136Y-26327D01*
X12136Y-25915D01*
X11979Y-25535D01*
X11688Y-25243D01*
X11361Y-25108D01*
X11465Y-25003D01*
X11534Y-24839D01*
X11534Y-24798D01*
X11786Y-24545D01*
X12838Y-25596D01*
X12770Y-25624D01*
X12605Y-25789D01*
X12516Y-26003D01*
X12516Y-26236D01*
X12592Y-26420D01*
X12462Y-26420D01*
X12205Y-26527D01*
X12008Y-26723D01*
X11901Y-26981D01*
X11901Y-27259D01*
X12007Y-27516D01*
X12204Y-27713D01*
X12461Y-27820D01*
X12740Y-27820D01*
X12997Y-27714D01*
X13194Y-27517D01*
X13301Y-27260D01*
X13301Y-26982D01*
X13195Y-26724D01*
X13176Y-26705D01*
X13217Y-26705D01*
X13432Y-26617D01*
X13597Y-26452D01*
X13625Y-26384D01*
X14267Y-27025D01*
X14267Y-27065D01*
X14334Y-27230D01*
X14460Y-27356D01*
X14624Y-27424D01*
X14802Y-27424D01*
X14966Y-27356D01*
X15092Y-27230D01*
X15160Y-27066D01*
X15160Y-26888D01*
X15093Y-26724D01*
X14967Y-26598D01*
X14803Y-26530D01*
X14762Y-26530D01*
X12142Y-23910D01*
X12028Y-23835D01*
X12028Y-23835D01*
X12028Y-21745D01*
X12057Y-21716D01*
X12125Y-21552D01*
X12125Y-21496D01*
X12409Y-21780D01*
X12409Y-22728D01*
X12320Y-22817D01*
X12252Y-22981D01*
X12252Y-23159D01*
X12319Y-23323D01*
X12445Y-23449D01*
X12609Y-23517D01*
X12787Y-23517D01*
X12951Y-23450D01*
X12966Y-23435D01*
X12966Y-23486D01*
X12988Y-23596D01*
X12994Y-23606D01*
X12994Y-23760D01*
X13062Y-23924D01*
X13187Y-24050D01*
X13351Y-24118D01*
X13529Y-24118D01*
X13563Y-24105D01*
X13557Y-24120D01*
X13556Y-24297D01*
X13624Y-24462D01*
X13750Y-24587D01*
X13914Y-24656D01*
X14092Y-24656D01*
X14182Y-24619D01*
X14182Y-24994D01*
X14204Y-25105D01*
X14267Y-25199D01*
X16058Y-26991D01*
X16058Y-31026D01*
X15774Y-30741D01*
X15176Y-30493D01*
X14528Y-30492D01*
X13930Y-30739D01*
X13471Y-31197D01*
X13223Y-31795D01*
X13222Y-32443D01*
X13470Y-33041D01*
X13927Y-33500D01*
X14525Y-33748D01*
X15173Y-33749D01*
X15396Y-33656D01*
X15396Y-41206D01*
X15418Y-41317D01*
X15481Y-41411D01*
X16945Y-42875D01*
X16901Y-42982D01*
X16901Y-43260D01*
X17007Y-43518D01*
X17204Y-43715D01*
X17461Y-43821D01*
X17740Y-43822D01*
X17997Y-43715D01*
X18194Y-43519D01*
X18301Y-43261D01*
X18301Y-42983D01*
X18195Y-42726D01*
X17998Y-42528D01*
X17741Y-42422D01*
X17462Y-42421D01*
X17355Y-42466D01*
X16595Y-41707D01*
X16717Y-41707D01*
X16932Y-41618D01*
X17097Y-41453D01*
X17186Y-41238D01*
X17186Y-41006D01*
X17097Y-40791D01*
X16933Y-40626D01*
X16718Y-40537D01*
X16485Y-40536D01*
X16270Y-40625D01*
X16105Y-40790D01*
X16016Y-41005D01*
X16016Y-41127D01*
X15975Y-41086D01*
X15975Y-37767D01*
X16090Y-37767D01*
X16254Y-37699D01*
X16380Y-37574D01*
X16448Y-37410D01*
X16448Y-37232D01*
X16380Y-37068D01*
X16255Y-36942D01*
X16090Y-36874D01*
X15975Y-36873D01*
X15975Y-36203D01*
X16008Y-36217D01*
X16185Y-36217D01*
X16350Y-36149D01*
X16476Y-36024D01*
X16544Y-35859D01*
X16544Y-35732D01*
X16976Y-35300D01*
X16901Y-35481D01*
X16901Y-35759D01*
X17007Y-36016D01*
X17204Y-36213D01*
X17461Y-36320D01*
X17740Y-36320D01*
X17997Y-36214D01*
X18194Y-36017D01*
X18301Y-35760D01*
X18301Y-35482D01*
X18195Y-35224D01*
X17998Y-35027D01*
X17741Y-34920D01*
X17462Y-34920D01*
X17274Y-34998D01*
X17307Y-34949D01*
X17327Y-34918D01*
X17327Y-34918D01*
X17349Y-34807D01*
X17349Y-34807D01*
X17349Y-29504D01*
X17327Y-29393D01*
X17265Y-29299D01*
X17265Y-29299D01*
X16901Y-28936D01*
X16901Y-28260D01*
X17007Y-28516D01*
X17204Y-28713D01*
X17461Y-28820D01*
X17740Y-28820D01*
X17997Y-28714D01*
X18194Y-28517D01*
X18301Y-28260D01*
X18301Y-27982D01*
X18195Y-27724D01*
X17998Y-27527D01*
X17890Y-27483D01*
X17890Y-26873D01*
X18014Y-26997D01*
X18394Y-27155D01*
X18806Y-27156D01*
X19187Y-26998D01*
X19478Y-26707D01*
X19636Y-26327D01*
X19636Y-25915D01*
X19479Y-25535D01*
X19188Y-25243D01*
X18808Y-25086D01*
X18396Y-25085D01*
X18016Y-25242D01*
X17890Y-25367D01*
X17890Y-24972D01*
X19008Y-23854D01*
X19008Y-23854D01*
X19071Y-23760D01*
X19093Y-23649D01*
X19093Y-23649D01*
X19093Y-23387D01*
X19182Y-23298D01*
X19250Y-23134D01*
X19251Y-22956D01*
X19183Y-22792D01*
X19057Y-22666D01*
X18893Y-22598D01*
X18715Y-22598D01*
X18709Y-22601D01*
X18709Y-22209D01*
X18722Y-22195D01*
X18722Y-22195D01*
X18785Y-22101D01*
X18807Y-21990D01*
X18807Y-21990D01*
X18807Y-20180D01*
X19401Y-19586D01*
X19401Y-19759D01*
X19507Y-20016D01*
X19704Y-20213D01*
X19961Y-20320D01*
X20240Y-20320D01*
X20497Y-20214D01*
X20684Y-20027D01*
X20695Y-20052D01*
X20784Y-20142D01*
X20784Y-22192D01*
X20726Y-22250D01*
X20657Y-22414D01*
X20657Y-22592D01*
X20725Y-22757D01*
X20851Y-22882D01*
X21015Y-22951D01*
X21193Y-22951D01*
X21346Y-22887D01*
X21346Y-28459D01*
X21345Y-28460D01*
X21277Y-28625D01*
X21277Y-28802D01*
X21345Y-28967D01*
X21434Y-29057D01*
X21434Y-35970D01*
X21345Y-36059D01*
X21277Y-36223D01*
X21277Y-36401D01*
X21345Y-36565D01*
X21470Y-36691D01*
X21634Y-36759D01*
X21812Y-36759D01*
X21976Y-36691D01*
X22102Y-36566D01*
X22170Y-36401D01*
X22171Y-36224D01*
X22103Y-36059D01*
X22013Y-35970D01*
X22013Y-35197D01*
X22264Y-35448D01*
X22644Y-35606D01*
X23056Y-35607D01*
X23437Y-35449D01*
X23728Y-35159D01*
X23886Y-34778D01*
X23886Y-34367D01*
X23786Y-34124D01*
X23984Y-34206D01*
X24217Y-34207D01*
X24432Y-34118D01*
X24597Y-33953D01*
X24686Y-33738D01*
X24686Y-33506D01*
X24597Y-33291D01*
X24433Y-33126D01*
X24218Y-33037D01*
X23985Y-33036D01*
X23786Y-33119D01*
X23886Y-32878D01*
X23886Y-32467D01*
X23729Y-32086D01*
X23438Y-31795D01*
X23058Y-31637D01*
X22646Y-31636D01*
X22266Y-31794D01*
X22013Y-32046D01*
X22013Y-29056D01*
X22102Y-28967D01*
X22170Y-28803D01*
X22171Y-28625D01*
X22103Y-28461D01*
X21977Y-28335D01*
X21925Y-28314D01*
X21925Y-27540D01*
X21973Y-27657D01*
X22264Y-27948D01*
X22644Y-28106D01*
X23056Y-28107D01*
X23437Y-27949D01*
X23728Y-27659D01*
X23886Y-27278D01*
X23886Y-26867D01*
X23786Y-26624D01*
X23984Y-26706D01*
X24217Y-26707D01*
X24432Y-26618D01*
X24597Y-26453D01*
X24686Y-26238D01*
X24686Y-26006D01*
X24597Y-25791D01*
X24433Y-25626D01*
X24218Y-25537D01*
X23985Y-25536D01*
X23786Y-25619D01*
X23886Y-25378D01*
X23886Y-24967D01*
X23729Y-24586D01*
X23438Y-24295D01*
X23058Y-24137D01*
X22646Y-24136D01*
X22266Y-24294D01*
X21974Y-24585D01*
X21925Y-24703D01*
X21925Y-20040D01*
X21973Y-20157D01*
X22264Y-20448D01*
X22644Y-20606D01*
X23056Y-20607D01*
X23408Y-20461D01*
X23425Y-20478D01*
X23284Y-20618D01*
X23158Y-20618D01*
X22994Y-20686D01*
X22868Y-20811D01*
X22840Y-20879D01*
X22839Y-20878D01*
X22714Y-20752D01*
X22550Y-20684D01*
X22372Y-20684D01*
X22207Y-20751D01*
X22082Y-20877D01*
X22013Y-21041D01*
X22013Y-21219D01*
X22081Y-21383D01*
X22207Y-21509D01*
X22371Y-21577D01*
X22498Y-21577D01*
X23231Y-22310D01*
X23231Y-22310D01*
X23325Y-22373D01*
X23325Y-22373D01*
X23343Y-22377D01*
X23363Y-22381D01*
X23467Y-22484D01*
X23631Y-22553D01*
X23809Y-22553D01*
X23973Y-22485D01*
X24025Y-22433D01*
X24025Y-23921D01*
X23997Y-23949D01*
X23928Y-24113D01*
X23928Y-24291D01*
X23996Y-24456D01*
X24122Y-24581D01*
X24286Y-24650D01*
X24464Y-24650D01*
X24628Y-24582D01*
X24754Y-24456D01*
X24822Y-24292D01*
X24822Y-24114D01*
X24754Y-23950D01*
X24725Y-23921D01*
X24725Y-21223D01*
X24961Y-21321D01*
X25240Y-21322D01*
X25497Y-21215D01*
X25694Y-21019D01*
X25761Y-20859D01*
X25769Y-20867D01*
X25984Y-20956D01*
X26217Y-20957D01*
X26401Y-20881D01*
X26401Y-21010D01*
X26507Y-21268D01*
X26704Y-21465D01*
X26961Y-21571D01*
X27240Y-21572D01*
X27497Y-21465D01*
X27694Y-21269D01*
X27801Y-21011D01*
X27801Y-20733D01*
X27695Y-20476D01*
X27541Y-20321D01*
X27740Y-20322D01*
X27997Y-20215D01*
X28145Y-20068D01*
X28369Y-20292D01*
X28681Y-20421D01*
X29019Y-20422D01*
X29332Y-20293D01*
X29431Y-20193D01*
X29431Y-24550D01*
X29333Y-24451D01*
X29021Y-24322D01*
X28801Y-24322D01*
X28801Y-23233D01*
X28695Y-22976D01*
X28498Y-22778D01*
X28241Y-22672D01*
X27962Y-22671D01*
X27705Y-22778D01*
X27508Y-22975D01*
X27401Y-23232D01*
X27401Y-23510D01*
X27507Y-23768D01*
X27704Y-23965D01*
X27961Y-24071D01*
X28240Y-24072D01*
X28497Y-23965D01*
X28694Y-23769D01*
X28801Y-23511D01*
X28801Y-23233D01*
X28801Y-24322D01*
X28683Y-24321D01*
X28370Y-24451D01*
X28131Y-24689D01*
X28001Y-25002D01*
X28001Y-25340D01*
X28082Y-25537D01*
X27985Y-25536D01*
X27770Y-25625D01*
X27605Y-25790D01*
X27516Y-26005D01*
X27516Y-26237D01*
X27592Y-26422D01*
X27462Y-26421D01*
X27205Y-26528D01*
X27136Y-26596D01*
X27136Y-25917D01*
X27136Y-22167D01*
X26979Y-21786D01*
X26688Y-21495D01*
X26308Y-21337D01*
X25896Y-21336D01*
X25516Y-21494D01*
X25224Y-21785D01*
X25066Y-22165D01*
X25066Y-22577D01*
X25223Y-22957D01*
X25514Y-23248D01*
X25894Y-23406D01*
X26306Y-23407D01*
X26687Y-23249D01*
X26978Y-22959D01*
X27136Y-22578D01*
X27136Y-22167D01*
X27136Y-25917D01*
X26979Y-25536D01*
X26688Y-25245D01*
X26686Y-25244D01*
X26686Y-24256D01*
X26597Y-24041D01*
X26433Y-23876D01*
X26218Y-23787D01*
X25985Y-23786D01*
X25770Y-23875D01*
X25605Y-24040D01*
X25516Y-24255D01*
X25516Y-24487D01*
X25605Y-24702D01*
X25769Y-24867D01*
X25984Y-24956D01*
X26217Y-24957D01*
X26432Y-24868D01*
X26597Y-24703D01*
X26686Y-24488D01*
X26686Y-24256D01*
X26686Y-25244D01*
X26308Y-25087D01*
X25896Y-25086D01*
X25516Y-25244D01*
X25224Y-25535D01*
X25066Y-25915D01*
X25066Y-26327D01*
X25223Y-26707D01*
X25514Y-26998D01*
X25894Y-27156D01*
X26306Y-27157D01*
X26687Y-26999D01*
X26978Y-26709D01*
X27136Y-26328D01*
X27136Y-25917D01*
X27136Y-26596D01*
X27008Y-26725D01*
X26901Y-26982D01*
X26901Y-27260D01*
X26945Y-27368D01*
X26896Y-27417D01*
X26834Y-27511D01*
X26812Y-27622D01*
X26812Y-27734D01*
X26705Y-27778D01*
X26686Y-27797D01*
X26686Y-27756D01*
X26597Y-27541D01*
X26433Y-27376D01*
X26218Y-27287D01*
X25985Y-27286D01*
X25770Y-27375D01*
X25605Y-27540D01*
X25577Y-27608D01*
X25498Y-27528D01*
X25241Y-27422D01*
X24962Y-27421D01*
X24705Y-27528D01*
X24508Y-27725D01*
X24401Y-27982D01*
X24401Y-28260D01*
X24507Y-28518D01*
X24704Y-28715D01*
X24961Y-28821D01*
X25240Y-28822D01*
X25497Y-28715D01*
X25694Y-28519D01*
X25761Y-28359D01*
X25769Y-28367D01*
X25984Y-28456D01*
X26217Y-28457D01*
X26401Y-28381D01*
X26401Y-28510D01*
X26507Y-28768D01*
X26704Y-28965D01*
X26961Y-29071D01*
X27240Y-29072D01*
X27497Y-28965D01*
X27694Y-28769D01*
X27801Y-28511D01*
X27801Y-28233D01*
X27695Y-27976D01*
X27541Y-27821D01*
X27740Y-27822D01*
X27997Y-27715D01*
X28145Y-27568D01*
X28369Y-27792D01*
X28681Y-27921D01*
X29019Y-27922D01*
X29332Y-27793D01*
X29431Y-27693D01*
X29431Y-32050D01*
X29333Y-31951D01*
X29021Y-31822D01*
X28801Y-31822D01*
X28801Y-30733D01*
X28695Y-30476D01*
X28498Y-30278D01*
X28241Y-30172D01*
X27962Y-30171D01*
X27705Y-30278D01*
X27508Y-30475D01*
X27401Y-30732D01*
X27401Y-31010D01*
X27507Y-31268D01*
X27704Y-31465D01*
X27961Y-31571D01*
X28240Y-31572D01*
X28497Y-31465D01*
X28694Y-31269D01*
X28801Y-31011D01*
X28801Y-30733D01*
X28801Y-31822D01*
X28683Y-31821D01*
X28370Y-31951D01*
X28131Y-32189D01*
X28001Y-32502D01*
X28001Y-32840D01*
X28082Y-33037D01*
X27985Y-33036D01*
X27770Y-33125D01*
X27605Y-33290D01*
X27516Y-33505D01*
X27516Y-33737D01*
X27592Y-33922D01*
X27462Y-33921D01*
X27205Y-34028D01*
X27136Y-34096D01*
X27136Y-33417D01*
X27136Y-29667D01*
X26979Y-29286D01*
X26688Y-28995D01*
X26308Y-28837D01*
X25896Y-28836D01*
X25516Y-28994D01*
X25224Y-29285D01*
X25066Y-29665D01*
X25066Y-30077D01*
X25223Y-30457D01*
X25514Y-30748D01*
X25894Y-30906D01*
X26306Y-30907D01*
X26687Y-30749D01*
X26978Y-30459D01*
X27136Y-30078D01*
X27136Y-29667D01*
X27136Y-33417D01*
X26979Y-33036D01*
X26688Y-32745D01*
X26686Y-32744D01*
X26686Y-31756D01*
X26597Y-31541D01*
X26433Y-31376D01*
X26218Y-31287D01*
X25985Y-31286D01*
X25770Y-31375D01*
X25605Y-31540D01*
X25516Y-31755D01*
X25516Y-31987D01*
X25605Y-32202D01*
X25769Y-32367D01*
X25984Y-32456D01*
X26217Y-32457D01*
X26432Y-32368D01*
X26597Y-32203D01*
X26686Y-31988D01*
X26686Y-31756D01*
X26686Y-32744D01*
X26308Y-32587D01*
X25896Y-32586D01*
X25516Y-32744D01*
X25224Y-33035D01*
X25066Y-33415D01*
X25066Y-33827D01*
X25223Y-34207D01*
X25514Y-34498D01*
X25894Y-34656D01*
X26306Y-34657D01*
X26687Y-34499D01*
X26978Y-34209D01*
X27136Y-33828D01*
X27136Y-33417D01*
X27136Y-34096D01*
X27008Y-34225D01*
X26901Y-34482D01*
X26901Y-34760D01*
X26945Y-34868D01*
X26896Y-34917D01*
X26834Y-35011D01*
X26812Y-35122D01*
X26812Y-35234D01*
X26705Y-35278D01*
X26686Y-35297D01*
X26686Y-35256D01*
X26597Y-35041D01*
X26433Y-34876D01*
X26218Y-34787D01*
X25985Y-34786D01*
X25770Y-34875D01*
X25605Y-35040D01*
X25577Y-35108D01*
X25498Y-35028D01*
X25241Y-34922D01*
X24962Y-34921D01*
X24705Y-35028D01*
X24508Y-35225D01*
X24401Y-35482D01*
X24401Y-35760D01*
X24507Y-36018D01*
X24704Y-36215D01*
X24961Y-36321D01*
X25240Y-36322D01*
X25497Y-36215D01*
X25694Y-36019D01*
X25761Y-35859D01*
X25769Y-35867D01*
X25984Y-35956D01*
X26217Y-35957D01*
X26401Y-35881D01*
X26401Y-36010D01*
X26507Y-36268D01*
X26704Y-36465D01*
X26961Y-36571D01*
X27240Y-36572D01*
X27497Y-36465D01*
X27694Y-36269D01*
X27801Y-36011D01*
X27801Y-35733D01*
X27695Y-35476D01*
X27541Y-35321D01*
X27740Y-35322D01*
X27997Y-35215D01*
X28145Y-35068D01*
X28369Y-35292D01*
X28681Y-35421D01*
X29019Y-35422D01*
X29332Y-35293D01*
X29431Y-35193D01*
X29431Y-35368D01*
X29293Y-35368D01*
X29129Y-35436D01*
X29003Y-35561D01*
X28935Y-35725D01*
X28935Y-35852D01*
X28646Y-36141D01*
X28584Y-36235D01*
X28562Y-36345D01*
X28562Y-36949D01*
X28555Y-36942D01*
X28390Y-36874D01*
X28213Y-36873D01*
X28048Y-36941D01*
X27922Y-37067D01*
X27854Y-37231D01*
X27854Y-37409D01*
X27922Y-37573D01*
X28020Y-37671D01*
X27962Y-37671D01*
X27705Y-37778D01*
X27508Y-37975D01*
X27401Y-38232D01*
X27401Y-38510D01*
X27507Y-38768D01*
X27704Y-38965D01*
X27961Y-39071D01*
X28240Y-39072D01*
X28497Y-38965D01*
X28562Y-38901D01*
X28562Y-40755D01*
X28433Y-40626D01*
X28218Y-40537D01*
X27985Y-40536D01*
X27770Y-40625D01*
X27605Y-40790D01*
X27516Y-41005D01*
X27516Y-41237D01*
X27592Y-41422D01*
X27462Y-41421D01*
X27205Y-41528D01*
X27136Y-41596D01*
X27136Y-40917D01*
X27136Y-37167D01*
X26979Y-36786D01*
X26688Y-36495D01*
X26308Y-36337D01*
X25896Y-36336D01*
X25516Y-36494D01*
X25224Y-36785D01*
X25066Y-37165D01*
X25066Y-37577D01*
X25223Y-37957D01*
X25514Y-38248D01*
X25894Y-38406D01*
X26306Y-38407D01*
X26687Y-38249D01*
X26978Y-37959D01*
X27136Y-37578D01*
X27136Y-37167D01*
X27136Y-40917D01*
X26979Y-40536D01*
X26688Y-40245D01*
X26686Y-40244D01*
X26686Y-39256D01*
X26597Y-39041D01*
X26433Y-38876D01*
X26218Y-38787D01*
X25985Y-38786D01*
X25770Y-38875D01*
X25605Y-39040D01*
X25516Y-39255D01*
X25516Y-39487D01*
X25605Y-39702D01*
X25769Y-39867D01*
X25984Y-39956D01*
X26217Y-39957D01*
X26432Y-39868D01*
X26597Y-39703D01*
X26686Y-39488D01*
X26686Y-39256D01*
X26686Y-40244D01*
X26308Y-40087D01*
X25896Y-40086D01*
X25516Y-40244D01*
X25224Y-40535D01*
X25066Y-40915D01*
X25066Y-41327D01*
X25223Y-41707D01*
X25514Y-41998D01*
X25894Y-42156D01*
X26306Y-42157D01*
X26687Y-41999D01*
X26978Y-41709D01*
X27136Y-41328D01*
X27136Y-40917D01*
X27136Y-41596D01*
X27008Y-41725D01*
X26901Y-41982D01*
X26901Y-42260D01*
X26945Y-42368D01*
X26580Y-42733D01*
X26518Y-42827D01*
X26495Y-42938D01*
X26495Y-43545D01*
X26406Y-43634D01*
X26338Y-43798D01*
X26338Y-43976D01*
X26406Y-44141D01*
X26531Y-44266D01*
X26696Y-44335D01*
X26873Y-44335D01*
X27038Y-44267D01*
X27163Y-44141D01*
X27232Y-43977D01*
X27232Y-43799D01*
X27164Y-43635D01*
X27074Y-43545D01*
X27074Y-43058D01*
X27355Y-42777D01*
X27461Y-42821D01*
X27740Y-42822D01*
X27997Y-42715D01*
X28145Y-42568D01*
X28369Y-42792D01*
X28681Y-42921D01*
X29019Y-42922D01*
X29332Y-42793D01*
X29431Y-42693D01*
X29431Y-43927D01*
X29431Y-43927D01*
G37*
G54D25*
X29431Y-43927D02*
X29408Y-43920D01*
X29230Y-43932D01*
X29125Y-43976D01*
X29110Y-44060D01*
X29351Y-44301D01*
X29356Y-44295D01*
X29427Y-44366D01*
X29421Y-44372D01*
X29427Y-44377D01*
X29356Y-44448D01*
X29351Y-44442D01*
X29345Y-44448D01*
X29274Y-44377D01*
X29280Y-44372D01*
X29040Y-44131D01*
X28955Y-44146D01*
X28899Y-44314D01*
X28908Y-44451D01*
X25801Y-44451D01*
X25801Y-42983D01*
X25695Y-42726D01*
X25498Y-42528D01*
X25241Y-42422D01*
X24962Y-42421D01*
X24705Y-42528D01*
X24686Y-42547D01*
X24686Y-41006D01*
X24597Y-40791D01*
X24433Y-40626D01*
X24248Y-40549D01*
X24248Y-37232D01*
X24180Y-37068D01*
X24055Y-36942D01*
X23890Y-36874D01*
X23713Y-36873D01*
X23548Y-36941D01*
X23422Y-37067D01*
X23354Y-37231D01*
X23354Y-37409D01*
X23422Y-37573D01*
X23548Y-37699D01*
X23712Y-37767D01*
X23890Y-37767D01*
X24054Y-37699D01*
X24180Y-37574D01*
X24248Y-37410D01*
X24248Y-37232D01*
X24248Y-40549D01*
X24218Y-40537D01*
X23985Y-40536D01*
X23770Y-40625D01*
X23605Y-40790D01*
X23516Y-41005D01*
X23516Y-41237D01*
X23541Y-41297D01*
X23438Y-41195D01*
X23058Y-41037D01*
X23048Y-41037D01*
X23048Y-37232D01*
X22980Y-37068D01*
X22855Y-36942D01*
X22690Y-36874D01*
X22513Y-36873D01*
X22348Y-36941D01*
X22222Y-37067D01*
X22154Y-37231D01*
X22154Y-37409D01*
X22222Y-37573D01*
X22348Y-37699D01*
X22512Y-37767D01*
X22690Y-37767D01*
X22854Y-37699D01*
X22980Y-37574D01*
X23048Y-37410D01*
X23048Y-37232D01*
X23048Y-41037D01*
X22646Y-41036D01*
X22266Y-41194D01*
X21974Y-41485D01*
X21948Y-41547D01*
X21948Y-37232D01*
X21880Y-37068D01*
X21755Y-36942D01*
X21590Y-36874D01*
X21413Y-36873D01*
X21248Y-36941D01*
X21186Y-37003D01*
X21186Y-33505D01*
X21186Y-26005D01*
X21097Y-25789D01*
X20933Y-25625D01*
X20718Y-25535D01*
X20485Y-25535D01*
X20270Y-25624D01*
X20105Y-25789D01*
X20016Y-26003D01*
X20016Y-26236D01*
X20092Y-26420D01*
X19962Y-26420D01*
X19705Y-26527D01*
X19508Y-26723D01*
X19401Y-26981D01*
X19401Y-27259D01*
X19445Y-27367D01*
X19058Y-27754D01*
X18995Y-27848D01*
X18973Y-27959D01*
X18973Y-28321D01*
X18884Y-28410D01*
X18816Y-28575D01*
X18815Y-28752D01*
X18883Y-28917D01*
X19009Y-29043D01*
X19173Y-29111D01*
X19351Y-29111D01*
X19515Y-29043D01*
X19641Y-28917D01*
X19709Y-28753D01*
X19709Y-28575D01*
X19641Y-28411D01*
X19552Y-28321D01*
X19552Y-28079D01*
X19855Y-27776D01*
X19961Y-27820D01*
X20240Y-27820D01*
X20497Y-27714D01*
X20694Y-27517D01*
X20801Y-27260D01*
X20801Y-26982D01*
X20695Y-26724D01*
X20676Y-26705D01*
X20717Y-26705D01*
X20932Y-26617D01*
X21097Y-26452D01*
X21186Y-26237D01*
X21186Y-26005D01*
X21186Y-33505D01*
X21097Y-33289D01*
X20933Y-33125D01*
X20718Y-33035D01*
X20485Y-33035D01*
X20270Y-33124D01*
X20105Y-33289D01*
X20016Y-33503D01*
X20016Y-33736D01*
X20092Y-33920D01*
X19962Y-33920D01*
X19705Y-34027D01*
X19636Y-34095D01*
X19636Y-33415D01*
X19479Y-33035D01*
X19188Y-32743D01*
X18808Y-32586D01*
X18396Y-32585D01*
X18016Y-32742D01*
X17724Y-33033D01*
X17566Y-33414D01*
X17566Y-33825D01*
X17723Y-34206D01*
X18014Y-34497D01*
X18394Y-34655D01*
X18806Y-34656D01*
X19187Y-34498D01*
X19478Y-34207D01*
X19636Y-33827D01*
X19636Y-33415D01*
X19636Y-34095D01*
X19508Y-34223D01*
X19401Y-34481D01*
X19401Y-34759D01*
X19507Y-35016D01*
X19704Y-35213D01*
X19961Y-35320D01*
X20240Y-35320D01*
X20497Y-35214D01*
X20694Y-35017D01*
X20801Y-34760D01*
X20801Y-34482D01*
X20695Y-34224D01*
X20676Y-34205D01*
X20717Y-34205D01*
X20932Y-34117D01*
X21097Y-33952D01*
X21186Y-33737D01*
X21186Y-33505D01*
X21186Y-37003D01*
X21122Y-37067D01*
X21054Y-37231D01*
X21054Y-37409D01*
X21122Y-37573D01*
X21248Y-37699D01*
X21412Y-37767D01*
X21590Y-37767D01*
X21754Y-37699D01*
X21880Y-37574D01*
X21948Y-37410D01*
X21948Y-37232D01*
X21948Y-41547D01*
X21816Y-41865D01*
X21816Y-42277D01*
X21973Y-42657D01*
X22264Y-42948D01*
X22644Y-43106D01*
X23056Y-43107D01*
X23437Y-42949D01*
X23728Y-42659D01*
X23886Y-42278D01*
X23886Y-41867D01*
X23786Y-41624D01*
X23984Y-41706D01*
X24217Y-41707D01*
X24432Y-41618D01*
X24597Y-41453D01*
X24686Y-41238D01*
X24686Y-41006D01*
X24686Y-42547D01*
X24508Y-42725D01*
X24401Y-42982D01*
X24401Y-43260D01*
X24507Y-43518D01*
X24704Y-43715D01*
X24961Y-43821D01*
X25240Y-43822D01*
X25497Y-43715D01*
X25694Y-43519D01*
X25801Y-43261D01*
X25801Y-42983D01*
X25801Y-44451D01*
X21186Y-44451D01*
X21186Y-41006D01*
X21097Y-40791D01*
X20933Y-40626D01*
X20718Y-40537D01*
X20485Y-40536D01*
X20270Y-40625D01*
X20105Y-40790D01*
X20048Y-40928D01*
X20048Y-37232D01*
X19980Y-37068D01*
X19855Y-36942D01*
X19690Y-36874D01*
X19513Y-36873D01*
X19348Y-36941D01*
X19222Y-37067D01*
X19154Y-37231D01*
X19154Y-37409D01*
X19222Y-37573D01*
X19348Y-37699D01*
X19512Y-37767D01*
X19690Y-37767D01*
X19854Y-37699D01*
X19980Y-37574D01*
X20048Y-37410D01*
X20048Y-37232D01*
X20048Y-40928D01*
X20016Y-41005D01*
X20016Y-41237D01*
X20092Y-41422D01*
X19962Y-41421D01*
X19705Y-41528D01*
X19636Y-41596D01*
X19636Y-40917D01*
X19479Y-40536D01*
X19188Y-40245D01*
X18848Y-40103D01*
X18848Y-37232D01*
X18780Y-37068D01*
X18655Y-36942D01*
X18490Y-36874D01*
X18313Y-36873D01*
X18148Y-36941D01*
X18022Y-37067D01*
X17954Y-37231D01*
X17954Y-37409D01*
X18022Y-37573D01*
X18148Y-37699D01*
X18312Y-37767D01*
X18490Y-37767D01*
X18654Y-37699D01*
X18780Y-37574D01*
X18848Y-37410D01*
X18848Y-37232D01*
X18848Y-40103D01*
X18808Y-40087D01*
X18396Y-40086D01*
X18016Y-40244D01*
X17724Y-40535D01*
X17648Y-40718D01*
X17648Y-37232D01*
X17580Y-37068D01*
X17455Y-36942D01*
X17290Y-36874D01*
X17113Y-36873D01*
X16948Y-36941D01*
X16822Y-37067D01*
X16754Y-37231D01*
X16754Y-37409D01*
X16822Y-37573D01*
X16948Y-37699D01*
X17112Y-37767D01*
X17290Y-37767D01*
X17454Y-37699D01*
X17580Y-37574D01*
X17648Y-37410D01*
X17648Y-37232D01*
X17648Y-40718D01*
X17566Y-40915D01*
X17566Y-41327D01*
X17723Y-41707D01*
X18014Y-41998D01*
X18394Y-42156D01*
X18806Y-42157D01*
X19187Y-41999D01*
X19478Y-41709D01*
X19636Y-41328D01*
X19636Y-40917D01*
X19636Y-41596D01*
X19508Y-41725D01*
X19401Y-41982D01*
X19401Y-42260D01*
X19507Y-42518D01*
X19704Y-42715D01*
X19961Y-42821D01*
X20240Y-42822D01*
X20497Y-42715D01*
X20694Y-42519D01*
X20801Y-42261D01*
X20801Y-41983D01*
X20695Y-41726D01*
X20676Y-41707D01*
X20717Y-41707D01*
X20932Y-41618D01*
X21097Y-41453D01*
X21186Y-41238D01*
X21186Y-41006D01*
X21186Y-44451D01*
X15298Y-44451D01*
X15298Y-37233D01*
X15230Y-37069D01*
X15104Y-36943D01*
X14940Y-36875D01*
X14762Y-36875D01*
X14623Y-36932D01*
X14623Y-36846D01*
X14555Y-36682D01*
X14465Y-36592D01*
X14465Y-36195D01*
X14447Y-36103D01*
X14443Y-36085D01*
X14443Y-36085D01*
X14380Y-35991D01*
X14380Y-35991D01*
X13257Y-34867D01*
X13301Y-34760D01*
X13301Y-34482D01*
X13195Y-34224D01*
X13176Y-34205D01*
X13217Y-34205D01*
X13432Y-34117D01*
X13597Y-33952D01*
X13686Y-33737D01*
X13686Y-33505D01*
X13597Y-33289D01*
X13433Y-33125D01*
X13218Y-33035D01*
X13086Y-33035D01*
X13086Y-30167D01*
X12929Y-29786D01*
X12638Y-29495D01*
X12258Y-29337D01*
X11846Y-29336D01*
X11465Y-29494D01*
X11174Y-29785D01*
X11016Y-30165D01*
X11016Y-30577D01*
X11173Y-30957D01*
X11464Y-31248D01*
X11844Y-31406D01*
X12256Y-31407D01*
X12636Y-31249D01*
X12928Y-30959D01*
X13086Y-30578D01*
X13086Y-30167D01*
X13086Y-33035D01*
X12985Y-33035D01*
X12770Y-33124D01*
X12605Y-33289D01*
X12516Y-33503D01*
X12516Y-33736D01*
X12592Y-33920D01*
X12462Y-33920D01*
X12205Y-34027D01*
X12136Y-34095D01*
X12136Y-33415D01*
X11979Y-33035D01*
X11688Y-32743D01*
X11308Y-32586D01*
X10896Y-32585D01*
X10515Y-32742D01*
X10224Y-33033D01*
X10066Y-33414D01*
X10066Y-33825D01*
X10223Y-34206D01*
X10514Y-34497D01*
X10894Y-34655D01*
X11306Y-34656D01*
X11686Y-34498D01*
X11978Y-34207D01*
X12136Y-33827D01*
X12136Y-33415D01*
X12136Y-34095D01*
X12008Y-34223D01*
X11901Y-34481D01*
X11901Y-34759D01*
X12007Y-35016D01*
X12204Y-35213D01*
X12461Y-35320D01*
X12740Y-35320D01*
X12847Y-35276D01*
X13886Y-36315D01*
X13886Y-36592D01*
X13797Y-36681D01*
X13729Y-36845D01*
X13729Y-36931D01*
X13590Y-36874D01*
X13412Y-36873D01*
X13248Y-36941D01*
X13122Y-37067D01*
X13054Y-37231D01*
X13054Y-37409D01*
X13122Y-37573D01*
X13247Y-37699D01*
X13412Y-37767D01*
X13589Y-37767D01*
X13754Y-37699D01*
X13879Y-37574D01*
X13948Y-37410D01*
X13948Y-37324D01*
X14087Y-37381D01*
X14264Y-37381D01*
X14404Y-37324D01*
X14404Y-37410D01*
X14472Y-37574D01*
X14597Y-37700D01*
X14761Y-37768D01*
X14939Y-37768D01*
X15103Y-37701D01*
X15229Y-37575D01*
X15297Y-37411D01*
X15298Y-37233D01*
X15298Y-44451D01*
X13684Y-44451D01*
X13709Y-44426D01*
X13777Y-44262D01*
X13777Y-44084D01*
X13709Y-43920D01*
X13620Y-43830D01*
X13620Y-42851D01*
X13598Y-42740D01*
X13535Y-42646D01*
X13535Y-42646D01*
X13257Y-42368D01*
X13301Y-42261D01*
X13301Y-41983D01*
X13195Y-41726D01*
X13176Y-41707D01*
X13217Y-41707D01*
X13432Y-41618D01*
X13597Y-41453D01*
X13686Y-41238D01*
X13686Y-41006D01*
X13597Y-40791D01*
X13433Y-40626D01*
X13218Y-40537D01*
X13086Y-40537D01*
X13086Y-37667D01*
X12929Y-37286D01*
X12638Y-36995D01*
X12632Y-36992D01*
X12771Y-36854D01*
X12901Y-36541D01*
X12901Y-36203D01*
X12772Y-35891D01*
X12533Y-35651D01*
X12221Y-35522D01*
X11883Y-35521D01*
X11570Y-35651D01*
X11331Y-35889D01*
X11201Y-36202D01*
X11201Y-36540D01*
X11330Y-36852D01*
X11469Y-36992D01*
X11465Y-36994D01*
X11174Y-37285D01*
X11148Y-37348D01*
X11148Y-37232D01*
X11080Y-37068D01*
X10954Y-36942D01*
X10801Y-36878D01*
X10801Y-35482D01*
X10695Y-35224D01*
X10498Y-35027D01*
X10241Y-34920D01*
X9962Y-34920D01*
X9936Y-34931D01*
X9936Y-33506D01*
X9847Y-33291D01*
X9683Y-33126D01*
X9468Y-33037D01*
X9235Y-33036D01*
X9228Y-33040D01*
X9218Y-33035D01*
X8985Y-33035D01*
X8770Y-33124D01*
X8605Y-33289D01*
X8516Y-33503D01*
X8516Y-33736D01*
X8605Y-33951D01*
X8615Y-33962D01*
X8455Y-34028D01*
X8386Y-34096D01*
X8386Y-33417D01*
X8229Y-33036D01*
X7938Y-32745D01*
X7558Y-32587D01*
X7146Y-32586D01*
X6765Y-32744D01*
X6474Y-33035D01*
X6316Y-33415D01*
X6316Y-33827D01*
X6473Y-34207D01*
X6764Y-34498D01*
X7144Y-34656D01*
X7556Y-34657D01*
X7936Y-34499D01*
X8228Y-34209D01*
X8386Y-33828D01*
X8386Y-33417D01*
X8386Y-34096D01*
X8258Y-34225D01*
X8151Y-34482D01*
X8151Y-34760D01*
X8257Y-35018D01*
X8454Y-35215D01*
X8711Y-35321D01*
X8990Y-35322D01*
X9247Y-35215D01*
X9444Y-35019D01*
X9551Y-34761D01*
X9551Y-34483D01*
X9445Y-34226D01*
X9426Y-34207D01*
X9467Y-34207D01*
X9682Y-34118D01*
X9847Y-33953D01*
X9936Y-33738D01*
X9936Y-33506D01*
X9936Y-34931D01*
X9705Y-35027D01*
X9508Y-35223D01*
X9401Y-35481D01*
X9401Y-35759D01*
X9507Y-36016D01*
X9704Y-36213D01*
X9961Y-36320D01*
X10240Y-36320D01*
X10497Y-36214D01*
X10694Y-36017D01*
X10801Y-35760D01*
X10801Y-35482D01*
X10801Y-36878D01*
X10790Y-36874D01*
X10612Y-36873D01*
X10448Y-36941D01*
X10322Y-37067D01*
X10254Y-37231D01*
X10254Y-37409D01*
X10322Y-37573D01*
X10447Y-37699D01*
X10612Y-37767D01*
X10789Y-37767D01*
X10954Y-37699D01*
X11036Y-37618D01*
X11016Y-37665D01*
X11016Y-38077D01*
X11173Y-38457D01*
X11464Y-38748D01*
X11844Y-38906D01*
X12256Y-38907D01*
X12636Y-38749D01*
X12928Y-38459D01*
X13086Y-38078D01*
X13086Y-37667D01*
X13086Y-40537D01*
X12985Y-40536D01*
X12770Y-40625D01*
X12605Y-40790D01*
X12516Y-41005D01*
X12516Y-41237D01*
X12592Y-41422D01*
X12462Y-41421D01*
X12205Y-41528D01*
X12136Y-41596D01*
X12136Y-40917D01*
X11979Y-40536D01*
X11688Y-40245D01*
X11308Y-40087D01*
X10896Y-40086D01*
X10515Y-40244D01*
X10224Y-40535D01*
X10066Y-40915D01*
X10066Y-41327D01*
X10223Y-41707D01*
X10514Y-41998D01*
X10894Y-42156D01*
X11306Y-42157D01*
X11686Y-41999D01*
X11978Y-41709D01*
X12136Y-41328D01*
X12136Y-40917D01*
X12136Y-41596D01*
X12008Y-41725D01*
X11901Y-41982D01*
X11901Y-42260D01*
X12007Y-42518D01*
X12204Y-42715D01*
X12461Y-42821D01*
X12740Y-42822D01*
X12847Y-42777D01*
X13041Y-42971D01*
X13041Y-43830D01*
X12952Y-43919D01*
X12883Y-44083D01*
X12883Y-44261D01*
X12951Y-44425D01*
X12977Y-44451D01*
X12673Y-44451D01*
X12771Y-44354D01*
X12901Y-44041D01*
X12901Y-43703D01*
X12772Y-43391D01*
X12533Y-43151D01*
X12221Y-43022D01*
X11883Y-43021D01*
X11570Y-43151D01*
X11331Y-43389D01*
X11201Y-43702D01*
X11201Y-44040D01*
X11330Y-44352D01*
X11428Y-44451D01*
X10801Y-44451D01*
X10801Y-42983D01*
X10695Y-42726D01*
X10498Y-42528D01*
X10241Y-42422D01*
X9962Y-42421D01*
X9948Y-42427D01*
X9948Y-37232D01*
X9880Y-37068D01*
X9754Y-36942D01*
X9590Y-36874D01*
X9412Y-36873D01*
X9248Y-36941D01*
X9122Y-37067D01*
X9054Y-37231D01*
X9054Y-37409D01*
X9122Y-37573D01*
X9247Y-37699D01*
X9412Y-37767D01*
X9589Y-37767D01*
X9754Y-37699D01*
X9879Y-37574D01*
X9948Y-37410D01*
X9948Y-37232D01*
X9948Y-42427D01*
X9936Y-42432D01*
X9936Y-41006D01*
X9847Y-40791D01*
X9683Y-40626D01*
X9468Y-40537D01*
X9235Y-40536D01*
X9226Y-40540D01*
X9218Y-40537D01*
X8985Y-40536D01*
X8770Y-40625D01*
X8748Y-40647D01*
X8748Y-37232D01*
X8680Y-37068D01*
X8554Y-36942D01*
X8390Y-36874D01*
X8212Y-36873D01*
X8048Y-36941D01*
X7922Y-37067D01*
X7854Y-37231D01*
X7854Y-37409D01*
X7922Y-37573D01*
X8047Y-37699D01*
X8212Y-37767D01*
X8389Y-37767D01*
X8554Y-37699D01*
X8679Y-37574D01*
X8748Y-37410D01*
X8748Y-37232D01*
X8748Y-40647D01*
X8605Y-40790D01*
X8516Y-41005D01*
X8516Y-41237D01*
X8605Y-41452D01*
X8614Y-41462D01*
X8455Y-41528D01*
X8386Y-41596D01*
X8386Y-40917D01*
X8229Y-40536D01*
X7938Y-40245D01*
X7558Y-40087D01*
X7448Y-40087D01*
X7448Y-37232D01*
X7380Y-37068D01*
X7254Y-36942D01*
X7090Y-36874D01*
X7051Y-36874D01*
X7051Y-35483D01*
X6945Y-35226D01*
X6748Y-35028D01*
X6491Y-34922D01*
X6212Y-34921D01*
X6105Y-34966D01*
X5345Y-34207D01*
X5467Y-34207D01*
X5477Y-34202D01*
X5484Y-34205D01*
X5717Y-34205D01*
X5932Y-34117D01*
X6097Y-33952D01*
X6186Y-33737D01*
X6186Y-33505D01*
X6097Y-33289D01*
X5933Y-33125D01*
X5718Y-33035D01*
X5485Y-33035D01*
X5475Y-33040D01*
X5468Y-33037D01*
X5235Y-33036D01*
X5020Y-33125D01*
X4890Y-33255D01*
X4890Y-32258D01*
X4997Y-32214D01*
X5194Y-32017D01*
X5301Y-31760D01*
X5301Y-31482D01*
X5195Y-31224D01*
X4998Y-31027D01*
X4741Y-30920D01*
X4462Y-30920D01*
X4205Y-31027D01*
X4008Y-31223D01*
X3901Y-31481D01*
X3901Y-31759D01*
X4007Y-32016D01*
X4204Y-32213D01*
X4312Y-32258D01*
X4312Y-32867D01*
X4188Y-32743D01*
X3808Y-32586D01*
X3686Y-32585D01*
X3686Y-30167D01*
X3529Y-29786D01*
X3238Y-29495D01*
X2858Y-29337D01*
X2446Y-29336D01*
X2065Y-29494D01*
X1774Y-29785D01*
X1616Y-30165D01*
X1616Y-30577D01*
X1773Y-30957D01*
X2064Y-31248D01*
X2444Y-31406D01*
X2856Y-31407D01*
X3236Y-31249D01*
X3528Y-30959D01*
X3686Y-30578D01*
X3686Y-30167D01*
X3686Y-32585D01*
X3396Y-32585D01*
X3015Y-32742D01*
X2801Y-32956D01*
X2801Y-32482D01*
X2695Y-32224D01*
X2498Y-32027D01*
X2241Y-31920D01*
X1962Y-31920D01*
X1705Y-32027D01*
X1508Y-32223D01*
X1401Y-32481D01*
X1401Y-32759D01*
X1507Y-33016D01*
X1526Y-33035D01*
X1485Y-33035D01*
X1270Y-33124D01*
X1105Y-33289D01*
X1016Y-33503D01*
X1016Y-33736D01*
X1105Y-33951D01*
X1269Y-34116D01*
X1484Y-34205D01*
X1717Y-34205D01*
X1932Y-34117D01*
X2097Y-33952D01*
X2186Y-33737D01*
X2186Y-33505D01*
X2110Y-33320D01*
X2240Y-33320D01*
X2497Y-33214D01*
X2694Y-33017D01*
X2801Y-32760D01*
X2801Y-32482D01*
X2801Y-32956D01*
X2724Y-33033D01*
X2566Y-33414D01*
X2566Y-33825D01*
X2723Y-34206D01*
X3014Y-34497D01*
X3394Y-34655D01*
X3806Y-34656D01*
X4186Y-34498D01*
X4478Y-34207D01*
X4492Y-34172D01*
X5695Y-35375D01*
X5651Y-35482D01*
X5651Y-35760D01*
X5757Y-36018D01*
X5954Y-36215D01*
X6211Y-36321D01*
X6490Y-36322D01*
X6747Y-36215D01*
X6944Y-36019D01*
X7051Y-35761D01*
X7051Y-35483D01*
X7051Y-36874D01*
X6912Y-36873D01*
X6748Y-36941D01*
X6622Y-37067D01*
X6554Y-37231D01*
X6554Y-37409D01*
X6622Y-37573D01*
X6747Y-37699D01*
X6912Y-37767D01*
X7089Y-37767D01*
X7254Y-37699D01*
X7379Y-37574D01*
X7448Y-37410D01*
X7448Y-37232D01*
X7448Y-40087D01*
X7146Y-40086D01*
X6765Y-40244D01*
X6474Y-40535D01*
X6459Y-40570D01*
X6248Y-40358D01*
X6248Y-37232D01*
X6180Y-37068D01*
X6054Y-36942D01*
X5890Y-36874D01*
X5712Y-36873D01*
X5548Y-36941D01*
X5422Y-37067D01*
X5354Y-37231D01*
X5354Y-37409D01*
X5422Y-37573D01*
X5547Y-37699D01*
X5712Y-37767D01*
X5889Y-37767D01*
X6054Y-37699D01*
X6179Y-37574D01*
X6248Y-37410D01*
X6248Y-37232D01*
X6248Y-40358D01*
X5257Y-39367D01*
X5301Y-39260D01*
X5301Y-38982D01*
X5195Y-38724D01*
X4998Y-38527D01*
X4741Y-38420D01*
X4462Y-38420D01*
X4348Y-38468D01*
X4348Y-37232D01*
X4280Y-37068D01*
X4154Y-36942D01*
X3990Y-36874D01*
X3812Y-36873D01*
X3648Y-36941D01*
X3522Y-37067D01*
X3460Y-37217D01*
X3238Y-36995D01*
X3232Y-36992D01*
X3371Y-36854D01*
X3501Y-36541D01*
X3501Y-36203D01*
X3372Y-35891D01*
X3133Y-35651D01*
X2821Y-35522D01*
X2483Y-35521D01*
X2170Y-35651D01*
X1931Y-35889D01*
X1801Y-36202D01*
X1801Y-36540D01*
X1930Y-36852D01*
X2069Y-36992D01*
X2065Y-36994D01*
X1774Y-37285D01*
X1698Y-37468D01*
X1698Y-37232D01*
X1630Y-37068D01*
X1504Y-36942D01*
X1340Y-36874D01*
X1162Y-36873D01*
X998Y-36941D01*
X872Y-37067D01*
X804Y-37231D01*
X804Y-37409D01*
X872Y-37573D01*
X997Y-37699D01*
X1162Y-37767D01*
X1339Y-37767D01*
X1504Y-37699D01*
X1629Y-37574D01*
X1698Y-37410D01*
X1698Y-37232D01*
X1698Y-37468D01*
X1616Y-37665D01*
X1616Y-38077D01*
X1773Y-38457D01*
X2064Y-38748D01*
X2444Y-38906D01*
X2856Y-38907D01*
X3236Y-38749D01*
X3528Y-38459D01*
X3686Y-38078D01*
X3686Y-37715D01*
X3812Y-37767D01*
X3989Y-37767D01*
X4154Y-37699D01*
X4279Y-37574D01*
X4348Y-37410D01*
X4348Y-37232D01*
X4348Y-38468D01*
X4205Y-38527D01*
X4008Y-38723D01*
X3901Y-38981D01*
X3901Y-39259D01*
X4007Y-39516D01*
X4204Y-39713D01*
X4461Y-39820D01*
X4740Y-39820D01*
X4847Y-39776D01*
X5607Y-40535D01*
X5485Y-40535D01*
X5475Y-40540D01*
X5468Y-40537D01*
X5235Y-40536D01*
X5020Y-40625D01*
X4855Y-40790D01*
X4766Y-41005D01*
X4766Y-41237D01*
X4855Y-41452D01*
X5019Y-41617D01*
X5234Y-41706D01*
X5467Y-41707D01*
X5477Y-41702D01*
X5484Y-41705D01*
X5717Y-41705D01*
X5932Y-41617D01*
X6062Y-41487D01*
X6062Y-42484D01*
X5955Y-42528D01*
X5758Y-42725D01*
X5651Y-42982D01*
X5651Y-43260D01*
X5757Y-43518D01*
X5954Y-43715D01*
X6211Y-43821D01*
X6490Y-43822D01*
X6747Y-43715D01*
X6944Y-43519D01*
X7051Y-43261D01*
X7051Y-42983D01*
X6945Y-42726D01*
X6748Y-42528D01*
X6640Y-42484D01*
X6640Y-41875D01*
X6764Y-41998D01*
X7144Y-42156D01*
X7556Y-42157D01*
X7936Y-41999D01*
X8228Y-41709D01*
X8386Y-41328D01*
X8386Y-40917D01*
X8386Y-41596D01*
X8258Y-41725D01*
X8151Y-41982D01*
X8151Y-42260D01*
X8257Y-42518D01*
X8454Y-42715D01*
X8711Y-42821D01*
X8990Y-42822D01*
X9247Y-42715D01*
X9444Y-42519D01*
X9551Y-42261D01*
X9551Y-41983D01*
X9445Y-41726D01*
X9426Y-41707D01*
X9467Y-41707D01*
X9682Y-41618D01*
X9847Y-41453D01*
X9936Y-41238D01*
X9936Y-41006D01*
X9936Y-42432D01*
X9705Y-42528D01*
X9508Y-42725D01*
X9401Y-42982D01*
X9401Y-43260D01*
X9507Y-43518D01*
X9704Y-43715D01*
X9961Y-43821D01*
X10240Y-43822D01*
X10497Y-43715D01*
X10694Y-43519D01*
X10801Y-43261D01*
X10801Y-42983D01*
X10801Y-44451D01*
X4636Y-44451D01*
X4636Y-40915D01*
X4479Y-40535D01*
X4188Y-40243D01*
X3808Y-40086D01*
X3396Y-40085D01*
X3015Y-40242D01*
X2801Y-40456D01*
X2801Y-39982D01*
X2695Y-39724D01*
X2498Y-39527D01*
X2241Y-39420D01*
X1962Y-39420D01*
X1705Y-39527D01*
X1508Y-39723D01*
X1401Y-39981D01*
X1401Y-40259D01*
X1507Y-40516D01*
X1526Y-40535D01*
X1485Y-40535D01*
X1270Y-40624D01*
X1105Y-40789D01*
X1016Y-41003D01*
X1016Y-41236D01*
X1105Y-41451D01*
X1269Y-41616D01*
X1484Y-41705D01*
X1717Y-41705D01*
X1932Y-41617D01*
X2097Y-41452D01*
X2186Y-41237D01*
X2186Y-41005D01*
X2110Y-40820D01*
X2240Y-40820D01*
X2497Y-40714D01*
X2694Y-40517D01*
X2801Y-40260D01*
X2801Y-39982D01*
X2801Y-40456D01*
X2724Y-40533D01*
X2566Y-40914D01*
X2566Y-41325D01*
X2723Y-41706D01*
X3014Y-41997D01*
X3394Y-42155D01*
X3806Y-42156D01*
X4186Y-41998D01*
X4478Y-41707D01*
X4636Y-41327D01*
X4636Y-40915D01*
X4636Y-44451D01*
X3273Y-44451D01*
X3371Y-44354D01*
X3501Y-44041D01*
X3501Y-43703D01*
X3372Y-43391D01*
X3133Y-43151D01*
X2821Y-43022D01*
X2483Y-43021D01*
X2170Y-43151D01*
X1931Y-43389D01*
X1801Y-43702D01*
X1801Y-44040D01*
X1930Y-44352D01*
X2028Y-44451D01*
X795Y-44451D01*
X803Y-44429D01*
X803Y-36427D01*
X790Y-36250D01*
X747Y-36145D01*
X662Y-36130D01*
X422Y-36370D01*
X662Y-36611D01*
X747Y-36596D01*
X803Y-36427D01*
X803Y-44429D01*
X790Y-44251D01*
X747Y-44146D01*
X662Y-44131D01*
X422Y-44372D01*
X427Y-44377D01*
X356Y-44448D01*
X351Y-44442D01*
X345Y-44448D01*
X275Y-44377D01*
X280Y-44372D01*
X275Y-44366D01*
X345Y-44295D01*
X351Y-44301D01*
X591Y-44060D01*
X577Y-43976D01*
X408Y-43920D01*
X270Y-43929D01*
X270Y-37767D01*
X289Y-37767D01*
X454Y-37699D01*
X579Y-37574D01*
X648Y-37410D01*
X648Y-37232D01*
X580Y-37068D01*
X454Y-36942D01*
X290Y-36874D01*
X270Y-36874D01*
X270Y-36815D01*
X294Y-36822D01*
X471Y-36810D01*
X577Y-36766D01*
X591Y-36681D01*
X351Y-36441D01*
X345Y-36447D01*
X275Y-36376D01*
X280Y-36370D01*
X275Y-36365D01*
X345Y-36294D01*
X351Y-36300D01*
X591Y-36059D01*
X577Y-35975D01*
X408Y-35918D01*
X270Y-35928D01*
X270Y-23478D01*
X1601Y-23478D01*
X2074Y-23385D01*
X2474Y-23117D01*
X2742Y-22716D01*
X2836Y-22244D01*
X2742Y-21772D01*
X2474Y-21371D01*
X2295Y-21251D01*
X2461Y-21320D01*
X2740Y-21320D01*
X2997Y-21214D01*
X3194Y-21017D01*
X3301Y-20760D01*
X3301Y-20482D01*
X3195Y-20224D01*
X2998Y-20027D01*
X2890Y-19983D01*
X2890Y-19373D01*
X3014Y-19497D01*
X3394Y-19655D01*
X3806Y-19656D01*
X3921Y-19608D01*
X3920Y-19634D01*
X3988Y-19799D01*
X4078Y-19889D01*
X4078Y-25198D01*
X3808Y-25086D01*
X3396Y-25085D01*
X3015Y-25242D01*
X2724Y-25533D01*
X2566Y-25914D01*
X2566Y-26325D01*
X2723Y-26706D01*
X3014Y-26997D01*
X3394Y-27155D01*
X3806Y-27156D01*
X4186Y-26998D01*
X4478Y-26707D01*
X4636Y-26327D01*
X4636Y-26216D01*
X4876Y-26456D01*
X4705Y-26527D01*
X4508Y-26723D01*
X4401Y-26981D01*
X4401Y-27259D01*
X4507Y-27516D01*
X4704Y-27713D01*
X4961Y-27820D01*
X5240Y-27820D01*
X5497Y-27714D01*
X5694Y-27517D01*
X5726Y-27440D01*
X5738Y-27445D01*
X5916Y-27445D01*
X6081Y-27378D01*
X6170Y-27288D01*
X9663Y-27288D01*
X9844Y-27469D01*
X9705Y-27527D01*
X9508Y-27723D01*
X9463Y-27831D01*
X3239Y-27831D01*
X3195Y-27724D01*
X2998Y-27527D01*
X2741Y-27420D01*
X2462Y-27420D01*
X2205Y-27527D01*
X2186Y-27545D01*
X2186Y-26005D01*
X2097Y-25789D01*
X1933Y-25625D01*
X1718Y-25535D01*
X1485Y-25535D01*
X1270Y-25624D01*
X1105Y-25789D01*
X1016Y-26003D01*
X1016Y-26236D01*
X1105Y-26451D01*
X1269Y-26616D01*
X1484Y-26705D01*
X1717Y-26705D01*
X1932Y-26617D01*
X2097Y-26452D01*
X2186Y-26237D01*
X2186Y-26005D01*
X2186Y-27545D01*
X2008Y-27723D01*
X1901Y-27981D01*
X1901Y-28259D01*
X2007Y-28516D01*
X2204Y-28713D01*
X2461Y-28820D01*
X2740Y-28820D01*
X2997Y-28714D01*
X3194Y-28517D01*
X3239Y-28410D01*
X9463Y-28410D01*
X9507Y-28516D01*
X9704Y-28713D01*
X9961Y-28820D01*
X10240Y-28820D01*
X10497Y-28714D01*
X10694Y-28517D01*
X10710Y-28479D01*
X10739Y-28491D01*
X10917Y-28491D01*
X11081Y-28423D01*
X11207Y-28298D01*
X11275Y-28133D01*
X11275Y-27956D01*
X11207Y-27791D01*
X11082Y-27666D01*
X10918Y-27597D01*
X10791Y-27597D01*
X9987Y-26794D01*
X9894Y-26731D01*
X9783Y-26709D01*
X9686Y-26709D01*
X9686Y-26005D01*
X9597Y-25789D01*
X9433Y-25625D01*
X9218Y-25535D01*
X8985Y-25535D01*
X8770Y-25624D01*
X8605Y-25789D01*
X8516Y-26003D01*
X8516Y-26236D01*
X8605Y-26451D01*
X8769Y-26616D01*
X8984Y-26705D01*
X9217Y-26705D01*
X9432Y-26617D01*
X9597Y-26452D01*
X9686Y-26237D01*
X9686Y-26005D01*
X9686Y-26709D01*
X6170Y-26709D01*
X6081Y-26620D01*
X5973Y-26575D01*
X6097Y-26452D01*
X6186Y-26237D01*
X6186Y-26005D01*
X6097Y-25789D01*
X5933Y-25625D01*
X5718Y-25535D01*
X5485Y-25535D01*
X5270Y-25624D01*
X5105Y-25789D01*
X5082Y-25844D01*
X4657Y-25418D01*
X4657Y-20166D01*
X4704Y-20213D01*
X4961Y-20320D01*
X5240Y-20320D01*
X5497Y-20214D01*
X5694Y-20017D01*
X5801Y-19760D01*
X5801Y-19482D01*
X5695Y-19224D01*
X5676Y-19205D01*
X5717Y-19205D01*
X5932Y-19117D01*
X6097Y-18952D01*
X6186Y-18737D01*
X6186Y-18689D01*
X6250Y-18754D01*
X6250Y-19061D01*
X6272Y-19172D01*
X6335Y-19266D01*
X6642Y-19573D01*
X6620Y-19626D01*
X6620Y-19866D01*
X6712Y-20088D01*
X6870Y-20246D01*
X6713Y-20404D01*
X6620Y-20626D01*
X6620Y-20866D01*
X6642Y-20919D01*
X6271Y-21291D01*
X6208Y-21385D01*
X6186Y-21495D01*
X6186Y-22097D01*
X6097Y-22186D01*
X6029Y-22350D01*
X6029Y-22528D01*
X6097Y-22692D01*
X6222Y-22818D01*
X6387Y-22886D01*
X6564Y-22887D01*
X6729Y-22819D01*
X6854Y-22693D01*
X6923Y-22529D01*
X6923Y-22351D01*
X6855Y-22187D01*
X6765Y-22097D01*
X6765Y-21615D01*
X7051Y-21329D01*
X7104Y-21351D01*
X7344Y-21351D01*
X7567Y-21259D01*
X7737Y-21089D01*
X7789Y-20963D01*
X10178Y-23352D01*
X10178Y-24265D01*
X10089Y-24354D01*
X10021Y-24518D01*
X10021Y-24696D01*
X10089Y-24861D01*
X10214Y-24986D01*
X10378Y-25055D01*
X10556Y-25055D01*
X10704Y-24994D01*
X10708Y-25002D01*
X10821Y-25116D01*
X10515Y-25242D01*
X10224Y-25533D01*
X10066Y-25914D01*
X10066Y-26325D01*
X10223Y-26706D01*
X10514Y-26997D01*
X10894Y-27155D01*
X11306Y-27156D01*
X11686Y-26998D01*
X11978Y-26707D01*
X12136Y-26327D01*
X12136Y-25915D01*
X11979Y-25535D01*
X11688Y-25243D01*
X11361Y-25108D01*
X11465Y-25003D01*
X11534Y-24839D01*
X11534Y-24798D01*
X11786Y-24545D01*
X12838Y-25596D01*
X12770Y-25624D01*
X12605Y-25789D01*
X12516Y-26003D01*
X12516Y-26236D01*
X12592Y-26420D01*
X12462Y-26420D01*
X12205Y-26527D01*
X12008Y-26723D01*
X11901Y-26981D01*
X11901Y-27259D01*
X12007Y-27516D01*
X12204Y-27713D01*
X12461Y-27820D01*
X12740Y-27820D01*
X12997Y-27714D01*
X13194Y-27517D01*
X13301Y-27260D01*
X13301Y-26982D01*
X13195Y-26724D01*
X13176Y-26705D01*
X13217Y-26705D01*
X13432Y-26617D01*
X13597Y-26452D01*
X13625Y-26384D01*
X14267Y-27025D01*
X14267Y-27065D01*
X14334Y-27230D01*
X14460Y-27356D01*
X14624Y-27424D01*
X14802Y-27424D01*
X14966Y-27356D01*
X15092Y-27230D01*
X15160Y-27066D01*
X15160Y-26888D01*
X15093Y-26724D01*
X14967Y-26598D01*
X14803Y-26530D01*
X14762Y-26530D01*
X12142Y-23910D01*
X12028Y-23835D01*
X12028Y-23835D01*
X12028Y-21745D01*
X12057Y-21716D01*
X12125Y-21552D01*
X12125Y-21496D01*
X12409Y-21780D01*
X12409Y-22728D01*
X12320Y-22817D01*
X12252Y-22981D01*
X12252Y-23159D01*
X12319Y-23323D01*
X12445Y-23449D01*
X12609Y-23517D01*
X12787Y-23517D01*
X12951Y-23450D01*
X12966Y-23435D01*
X12966Y-23486D01*
X12988Y-23596D01*
X12994Y-23606D01*
X12994Y-23760D01*
X13062Y-23924D01*
X13187Y-24050D01*
X13351Y-24118D01*
X13529Y-24118D01*
X13563Y-24105D01*
X13557Y-24120D01*
X13556Y-24297D01*
X13624Y-24462D01*
X13750Y-24587D01*
X13914Y-24656D01*
X14092Y-24656D01*
X14182Y-24619D01*
X14182Y-24994D01*
X14204Y-25105D01*
X14267Y-25199D01*
X16058Y-26991D01*
X16058Y-31026D01*
X15774Y-30741D01*
X15176Y-30493D01*
X14528Y-30492D01*
X13930Y-30739D01*
X13471Y-31197D01*
X13223Y-31795D01*
X13222Y-32443D01*
X13470Y-33041D01*
X13927Y-33500D01*
X14525Y-33748D01*
X15173Y-33749D01*
X15396Y-33656D01*
X15396Y-41206D01*
X15418Y-41317D01*
X15481Y-41411D01*
X16945Y-42875D01*
X16901Y-42982D01*
X16901Y-43260D01*
X17007Y-43518D01*
X17204Y-43715D01*
X17461Y-43821D01*
X17740Y-43822D01*
X17997Y-43715D01*
X18194Y-43519D01*
X18301Y-43261D01*
X18301Y-42983D01*
X18195Y-42726D01*
X17998Y-42528D01*
X17741Y-42422D01*
X17462Y-42421D01*
X17355Y-42466D01*
X16595Y-41707D01*
X16717Y-41707D01*
X16932Y-41618D01*
X17097Y-41453D01*
X17186Y-41238D01*
X17186Y-41006D01*
X17097Y-40791D01*
X16933Y-40626D01*
X16718Y-40537D01*
X16485Y-40536D01*
X16270Y-40625D01*
X16105Y-40790D01*
X16016Y-41005D01*
X16016Y-41127D01*
X15975Y-41086D01*
X15975Y-37767D01*
X16090Y-37767D01*
X16254Y-37699D01*
X16380Y-37574D01*
X16448Y-37410D01*
X16448Y-37232D01*
X16380Y-37068D01*
X16255Y-36942D01*
X16090Y-36874D01*
X15975Y-36873D01*
X15975Y-36203D01*
X16008Y-36217D01*
X16185Y-36217D01*
X16350Y-36149D01*
X16476Y-36024D01*
X16544Y-35859D01*
X16544Y-35732D01*
X16976Y-35300D01*
X16901Y-35481D01*
X16901Y-35759D01*
X17007Y-36016D01*
X17204Y-36213D01*
X17461Y-36320D01*
X17740Y-36320D01*
X17997Y-36214D01*
X18194Y-36017D01*
X18301Y-35760D01*
X18301Y-35482D01*
X18195Y-35224D01*
X17998Y-35027D01*
X17741Y-34920D01*
X17462Y-34920D01*
X17274Y-34998D01*
X17307Y-34949D01*
X17327Y-34918D01*
X17327Y-34918D01*
X17349Y-34807D01*
X17349Y-34807D01*
X17349Y-29504D01*
X17327Y-29393D01*
X17265Y-29299D01*
X17265Y-29299D01*
X16901Y-28936D01*
X16901Y-28260D01*
X17007Y-28516D01*
X17204Y-28713D01*
X17461Y-28820D01*
X17740Y-28820D01*
X17997Y-28714D01*
X18194Y-28517D01*
X18301Y-28260D01*
X18301Y-27982D01*
X18195Y-27724D01*
X17998Y-27527D01*
X17890Y-27483D01*
X17890Y-26873D01*
X18014Y-26997D01*
X18394Y-27155D01*
X18806Y-27156D01*
X19187Y-26998D01*
X19478Y-26707D01*
X19636Y-26327D01*
X19636Y-25915D01*
X19479Y-25535D01*
X19188Y-25243D01*
X18808Y-25086D01*
X18396Y-25085D01*
X18016Y-25242D01*
X17890Y-25367D01*
X17890Y-24972D01*
X19008Y-23854D01*
X19008Y-23854D01*
X19071Y-23760D01*
X19093Y-23649D01*
X19093Y-23649D01*
X19093Y-23387D01*
X19182Y-23298D01*
X19250Y-23134D01*
X19251Y-22956D01*
X19183Y-22792D01*
X19057Y-22666D01*
X18893Y-22598D01*
X18715Y-22598D01*
X18709Y-22601D01*
X18709Y-22209D01*
X18722Y-22195D01*
X18722Y-22195D01*
X18785Y-22101D01*
X18807Y-21990D01*
X18807Y-21990D01*
X18807Y-20180D01*
X19401Y-19586D01*
X19401Y-19759D01*
X19507Y-20016D01*
X19704Y-20213D01*
X19961Y-20320D01*
X20240Y-20320D01*
X20497Y-20214D01*
X20684Y-20027D01*
X20695Y-20052D01*
X20784Y-20142D01*
X20784Y-22192D01*
X20726Y-22250D01*
X20657Y-22414D01*
X20657Y-22592D01*
X20725Y-22757D01*
X20851Y-22882D01*
X21015Y-22951D01*
X21193Y-22951D01*
X21346Y-22887D01*
X21346Y-28459D01*
X21345Y-28460D01*
X21277Y-28625D01*
X21277Y-28802D01*
X21345Y-28967D01*
X21434Y-29057D01*
X21434Y-35970D01*
X21345Y-36059D01*
X21277Y-36223D01*
X21277Y-36401D01*
X21345Y-36565D01*
X21470Y-36691D01*
X21634Y-36759D01*
X21812Y-36759D01*
X21976Y-36691D01*
X22102Y-36566D01*
X22170Y-36401D01*
X22171Y-36224D01*
X22103Y-36059D01*
X22013Y-35970D01*
X22013Y-35197D01*
X22264Y-35448D01*
X22644Y-35606D01*
X23056Y-35607D01*
X23437Y-35449D01*
X23728Y-35159D01*
X23886Y-34778D01*
X23886Y-34367D01*
X23786Y-34124D01*
X23984Y-34206D01*
X24217Y-34207D01*
X24432Y-34118D01*
X24597Y-33953D01*
X24686Y-33738D01*
X24686Y-33506D01*
X24597Y-33291D01*
X24433Y-33126D01*
X24218Y-33037D01*
X23985Y-33036D01*
X23786Y-33119D01*
X23886Y-32878D01*
X23886Y-32467D01*
X23729Y-32086D01*
X23438Y-31795D01*
X23058Y-31637D01*
X22646Y-31636D01*
X22266Y-31794D01*
X22013Y-32046D01*
X22013Y-29056D01*
X22102Y-28967D01*
X22170Y-28803D01*
X22171Y-28625D01*
X22103Y-28461D01*
X21977Y-28335D01*
X21925Y-28314D01*
X21925Y-27540D01*
X21973Y-27657D01*
X22264Y-27948D01*
X22644Y-28106D01*
X23056Y-28107D01*
X23437Y-27949D01*
X23728Y-27659D01*
X23886Y-27278D01*
X23886Y-26867D01*
X23786Y-26624D01*
X23984Y-26706D01*
X24217Y-26707D01*
X24432Y-26618D01*
X24597Y-26453D01*
X24686Y-26238D01*
X24686Y-26006D01*
X24597Y-25791D01*
X24433Y-25626D01*
X24218Y-25537D01*
X23985Y-25536D01*
X23786Y-25619D01*
X23886Y-25378D01*
X23886Y-24967D01*
X23729Y-24586D01*
X23438Y-24295D01*
X23058Y-24137D01*
X22646Y-24136D01*
X22266Y-24294D01*
X21974Y-24585D01*
X21925Y-24703D01*
X21925Y-20040D01*
X21973Y-20157D01*
X22264Y-20448D01*
X22644Y-20606D01*
X23056Y-20607D01*
X23408Y-20461D01*
X23425Y-20478D01*
X23284Y-20618D01*
X23158Y-20618D01*
X22994Y-20686D01*
X22868Y-20811D01*
X22840Y-20879D01*
X22839Y-20878D01*
X22714Y-20752D01*
X22550Y-20684D01*
X22372Y-20684D01*
X22207Y-20751D01*
X22082Y-20877D01*
X22013Y-21041D01*
X22013Y-21219D01*
X22081Y-21383D01*
X22207Y-21509D01*
X22371Y-21577D01*
X22498Y-21577D01*
X23231Y-22310D01*
X23231Y-22310D01*
X23325Y-22373D01*
X23325Y-22373D01*
X23343Y-22377D01*
X23363Y-22381D01*
X23467Y-22484D01*
X23631Y-22553D01*
X23809Y-22553D01*
X23973Y-22485D01*
X24025Y-22433D01*
X24025Y-23921D01*
X23997Y-23949D01*
X23928Y-24113D01*
X23928Y-24291D01*
X23996Y-24456D01*
X24122Y-24581D01*
X24286Y-24650D01*
X24464Y-24650D01*
X24628Y-24582D01*
X24754Y-24456D01*
X24822Y-24292D01*
X24822Y-24114D01*
X24754Y-23950D01*
X24725Y-23921D01*
X24725Y-21223D01*
X24961Y-21321D01*
X25240Y-21322D01*
X25497Y-21215D01*
X25694Y-21019D01*
X25761Y-20859D01*
X25769Y-20867D01*
X25984Y-20956D01*
X26217Y-20957D01*
X26401Y-20881D01*
X26401Y-21010D01*
X26507Y-21268D01*
X26704Y-21465D01*
X26961Y-21571D01*
X27240Y-21572D01*
X27497Y-21465D01*
X27694Y-21269D01*
X27801Y-21011D01*
X27801Y-20733D01*
X27695Y-20476D01*
X27541Y-20321D01*
X27740Y-20322D01*
X27997Y-20215D01*
X28145Y-20068D01*
X28369Y-20292D01*
X28681Y-20421D01*
X29019Y-20422D01*
X29332Y-20293D01*
X29431Y-20193D01*
X29431Y-24550D01*
X29333Y-24451D01*
X29021Y-24322D01*
X28801Y-24322D01*
X28801Y-23233D01*
X28695Y-22976D01*
X28498Y-22778D01*
X28241Y-22672D01*
X27962Y-22671D01*
X27705Y-22778D01*
X27508Y-22975D01*
X27401Y-23232D01*
X27401Y-23510D01*
X27507Y-23768D01*
X27704Y-23965D01*
X27961Y-24071D01*
X28240Y-24072D01*
X28497Y-23965D01*
X28694Y-23769D01*
X28801Y-23511D01*
X28801Y-23233D01*
X28801Y-24322D01*
X28683Y-24321D01*
X28370Y-24451D01*
X28131Y-24689D01*
X28001Y-25002D01*
X28001Y-25340D01*
X28082Y-25537D01*
X27985Y-25536D01*
X27770Y-25625D01*
X27605Y-25790D01*
X27516Y-26005D01*
X27516Y-26237D01*
X27592Y-26422D01*
X27462Y-26421D01*
X27205Y-26528D01*
X27136Y-26596D01*
X27136Y-25917D01*
X27136Y-22167D01*
X26979Y-21786D01*
X26688Y-21495D01*
X26308Y-21337D01*
X25896Y-21336D01*
X25516Y-21494D01*
X25224Y-21785D01*
X25066Y-22165D01*
X25066Y-22577D01*
X25223Y-22957D01*
X25514Y-23248D01*
X25894Y-23406D01*
X26306Y-23407D01*
X26687Y-23249D01*
X26978Y-22959D01*
X27136Y-22578D01*
X27136Y-22167D01*
X27136Y-25917D01*
X26979Y-25536D01*
X26688Y-25245D01*
X26686Y-25244D01*
X26686Y-24256D01*
X26597Y-24041D01*
X26433Y-23876D01*
X26218Y-23787D01*
X25985Y-23786D01*
X25770Y-23875D01*
X25605Y-24040D01*
X25516Y-24255D01*
X25516Y-24487D01*
X25605Y-24702D01*
X25769Y-24867D01*
X25984Y-24956D01*
X26217Y-24957D01*
X26432Y-24868D01*
X26597Y-24703D01*
X26686Y-24488D01*
X26686Y-24256D01*
X26686Y-25244D01*
X26308Y-25087D01*
X25896Y-25086D01*
X25516Y-25244D01*
X25224Y-25535D01*
X25066Y-25915D01*
X25066Y-26327D01*
X25223Y-26707D01*
X25514Y-26998D01*
X25894Y-27156D01*
X26306Y-27157D01*
X26687Y-26999D01*
X26978Y-26709D01*
X27136Y-26328D01*
X27136Y-25917D01*
X27136Y-26596D01*
X27008Y-26725D01*
X26901Y-26982D01*
X26901Y-27260D01*
X26945Y-27368D01*
X26896Y-27417D01*
X26834Y-27511D01*
X26812Y-27622D01*
X26812Y-27734D01*
X26705Y-27778D01*
X26686Y-27797D01*
X26686Y-27756D01*
X26597Y-27541D01*
X26433Y-27376D01*
X26218Y-27287D01*
X25985Y-27286D01*
X25770Y-27375D01*
X25605Y-27540D01*
X25577Y-27608D01*
X25498Y-27528D01*
X25241Y-27422D01*
X24962Y-27421D01*
X24705Y-27528D01*
X24508Y-27725D01*
X24401Y-27982D01*
X24401Y-28260D01*
X24507Y-28518D01*
X24704Y-28715D01*
X24961Y-28821D01*
X25240Y-28822D01*
X25497Y-28715D01*
X25694Y-28519D01*
X25761Y-28359D01*
X25769Y-28367D01*
X25984Y-28456D01*
X26217Y-28457D01*
X26401Y-28381D01*
X26401Y-28510D01*
X26507Y-28768D01*
X26704Y-28965D01*
X26961Y-29071D01*
X27240Y-29072D01*
X27497Y-28965D01*
X27694Y-28769D01*
X27801Y-28511D01*
X27801Y-28233D01*
X27695Y-27976D01*
X27541Y-27821D01*
X27740Y-27822D01*
X27997Y-27715D01*
X28145Y-27568D01*
X28369Y-27792D01*
X28681Y-27921D01*
X29019Y-27922D01*
X29332Y-27793D01*
X29431Y-27693D01*
X29431Y-32050D01*
X29333Y-31951D01*
X29021Y-31822D01*
X28801Y-31822D01*
X28801Y-30733D01*
X28695Y-30476D01*
X28498Y-30278D01*
X28241Y-30172D01*
X27962Y-30171D01*
X27705Y-30278D01*
X27508Y-30475D01*
X27401Y-30732D01*
X27401Y-31010D01*
X27507Y-31268D01*
X27704Y-31465D01*
X27961Y-31571D01*
X28240Y-31572D01*
X28497Y-31465D01*
X28694Y-31269D01*
X28801Y-31011D01*
X28801Y-30733D01*
X28801Y-31822D01*
X28683Y-31821D01*
X28370Y-31951D01*
X28131Y-32189D01*
X28001Y-32502D01*
X28001Y-32840D01*
X28082Y-33037D01*
X27985Y-33036D01*
X27770Y-33125D01*
X27605Y-33290D01*
X27516Y-33505D01*
X27516Y-33737D01*
X27592Y-33922D01*
X27462Y-33921D01*
X27205Y-34028D01*
X27136Y-34096D01*
X27136Y-33417D01*
X27136Y-29667D01*
X26979Y-29286D01*
X26688Y-28995D01*
X26308Y-28837D01*
X25896Y-28836D01*
X25516Y-28994D01*
X25224Y-29285D01*
X25066Y-29665D01*
X25066Y-30077D01*
X25223Y-30457D01*
X25514Y-30748D01*
X25894Y-30906D01*
X26306Y-30907D01*
X26687Y-30749D01*
X26978Y-30459D01*
X27136Y-30078D01*
X27136Y-29667D01*
X27136Y-33417D01*
X26979Y-33036D01*
X26688Y-32745D01*
X26686Y-32744D01*
X26686Y-31756D01*
X26597Y-31541D01*
X26433Y-31376D01*
X26218Y-31287D01*
X25985Y-31286D01*
X25770Y-31375D01*
X25605Y-31540D01*
X25516Y-31755D01*
X25516Y-31987D01*
X25605Y-32202D01*
X25769Y-32367D01*
X25984Y-32456D01*
X26217Y-32457D01*
X26432Y-32368D01*
X26597Y-32203D01*
X26686Y-31988D01*
X26686Y-31756D01*
X26686Y-32744D01*
X26308Y-32587D01*
X25896Y-32586D01*
X25516Y-32744D01*
X25224Y-33035D01*
X25066Y-33415D01*
X25066Y-33827D01*
X25223Y-34207D01*
X25514Y-34498D01*
X25894Y-34656D01*
X26306Y-34657D01*
X26687Y-34499D01*
X26978Y-34209D01*
X27136Y-33828D01*
X27136Y-33417D01*
X27136Y-34096D01*
X27008Y-34225D01*
X26901Y-34482D01*
X26901Y-34760D01*
X26945Y-34868D01*
X26896Y-34917D01*
X26834Y-35011D01*
X26812Y-35122D01*
X26812Y-35234D01*
X26705Y-35278D01*
X26686Y-35297D01*
X26686Y-35256D01*
X26597Y-35041D01*
X26433Y-34876D01*
X26218Y-34787D01*
X25985Y-34786D01*
X25770Y-34875D01*
X25605Y-35040D01*
X25577Y-35108D01*
X25498Y-35028D01*
X25241Y-34922D01*
X24962Y-34921D01*
X24705Y-35028D01*
X24508Y-35225D01*
X24401Y-35482D01*
X24401Y-35760D01*
X24507Y-36018D01*
X24704Y-36215D01*
X24961Y-36321D01*
X25240Y-36322D01*
X25497Y-36215D01*
X25694Y-36019D01*
X25761Y-35859D01*
X25769Y-35867D01*
X25984Y-35956D01*
X26217Y-35957D01*
X26401Y-35881D01*
X26401Y-36010D01*
X26507Y-36268D01*
X26704Y-36465D01*
X26961Y-36571D01*
X27240Y-36572D01*
X27497Y-36465D01*
X27694Y-36269D01*
X27801Y-36011D01*
X27801Y-35733D01*
X27695Y-35476D01*
X27541Y-35321D01*
X27740Y-35322D01*
X27997Y-35215D01*
X28145Y-35068D01*
X28369Y-35292D01*
X28681Y-35421D01*
X29019Y-35422D01*
X29332Y-35293D01*
X29431Y-35193D01*
X29431Y-35368D01*
X29293Y-35368D01*
X29129Y-35436D01*
X29003Y-35561D01*
X28935Y-35725D01*
X28935Y-35852D01*
X28646Y-36141D01*
X28584Y-36235D01*
X28562Y-36345D01*
X28562Y-36949D01*
X28555Y-36942D01*
X28390Y-36874D01*
X28213Y-36873D01*
X28048Y-36941D01*
X27922Y-37067D01*
X27854Y-37231D01*
X27854Y-37409D01*
X27922Y-37573D01*
X28020Y-37671D01*
X27962Y-37671D01*
X27705Y-37778D01*
X27508Y-37975D01*
X27401Y-38232D01*
X27401Y-38510D01*
X27507Y-38768D01*
X27704Y-38965D01*
X27961Y-39071D01*
X28240Y-39072D01*
X28497Y-38965D01*
X28562Y-38901D01*
X28562Y-40755D01*
X28433Y-40626D01*
X28218Y-40537D01*
X27985Y-40536D01*
X27770Y-40625D01*
X27605Y-40790D01*
X27516Y-41005D01*
X27516Y-41237D01*
X27592Y-41422D01*
X27462Y-41421D01*
X27205Y-41528D01*
X27136Y-41596D01*
X27136Y-40917D01*
X27136Y-37167D01*
X26979Y-36786D01*
X26688Y-36495D01*
X26308Y-36337D01*
X25896Y-36336D01*
X25516Y-36494D01*
X25224Y-36785D01*
X25066Y-37165D01*
X25066Y-37577D01*
X25223Y-37957D01*
X25514Y-38248D01*
X25894Y-38406D01*
X26306Y-38407D01*
X26687Y-38249D01*
X26978Y-37959D01*
X27136Y-37578D01*
X27136Y-37167D01*
X27136Y-40917D01*
X26979Y-40536D01*
X26688Y-40245D01*
X26686Y-40244D01*
X26686Y-39256D01*
X26597Y-39041D01*
X26433Y-38876D01*
X26218Y-38787D01*
X25985Y-38786D01*
X25770Y-38875D01*
X25605Y-39040D01*
X25516Y-39255D01*
X25516Y-39487D01*
X25605Y-39702D01*
X25769Y-39867D01*
X25984Y-39956D01*
X26217Y-39957D01*
X26432Y-39868D01*
X26597Y-39703D01*
X26686Y-39488D01*
X26686Y-39256D01*
X26686Y-40244D01*
X26308Y-40087D01*
X25896Y-40086D01*
X25516Y-40244D01*
X25224Y-40535D01*
X25066Y-40915D01*
X25066Y-41327D01*
X25223Y-41707D01*
X25514Y-41998D01*
X25894Y-42156D01*
X26306Y-42157D01*
X26687Y-41999D01*
X26978Y-41709D01*
X27136Y-41328D01*
X27136Y-40917D01*
X27136Y-41596D01*
X27008Y-41725D01*
X26901Y-41982D01*
X26901Y-42260D01*
X26945Y-42368D01*
X26580Y-42733D01*
X26518Y-42827D01*
X26495Y-42938D01*
X26495Y-43545D01*
X26406Y-43634D01*
X26338Y-43798D01*
X26338Y-43976D01*
X26406Y-44141D01*
X26531Y-44266D01*
X26696Y-44335D01*
X26873Y-44335D01*
X27038Y-44267D01*
X27163Y-44141D01*
X27232Y-43977D01*
X27232Y-43799D01*
X27164Y-43635D01*
X27074Y-43545D01*
X27074Y-43058D01*
X27355Y-42777D01*
X27461Y-42821D01*
X27740Y-42822D01*
X27997Y-42715D01*
X28145Y-42568D01*
X28369Y-42792D01*
X28681Y-42921D01*
X29019Y-42922D01*
X29332Y-42793D01*
X29431Y-42693D01*
X29431Y-43927D01*
M02*
