G04 (created by PCBNEW (2013-02-13 BZR 3947)-testing) date 9/17/2013 2:51:23 PM*
%MOIN*%
G04 Gerber Fmt 3.4, Leading zero omitted, Abs format*
%FSLAX34Y34*%
G01*
G70*
G90*
G04 APERTURE LIST*
%ADD10C,0*%
%ADD11O,0.3937X0.1969*%
%ADD12C,0.0354331*%
%ADD13C,0.0708661*%
%ADD14C,0.0629921*%
%ADD15C,0.09*%
%ADD16C,0.157*%
%ADD17C,0.067*%
%ADD18O,0.075X0.085*%
%ADD19R,0.075X0.085*%
%ADD20C,0.0393701*%
%ADD21C,0.12*%
%ADD22C,0.016*%
%ADD23C,0.02*%
%ADD24C,0.01*%
G04 APERTURE END LIST*
G54D10*
G54D11*
X574Y-22244D03*
G54D12*
X6299Y-1523D03*
X8031Y-1523D03*
G54D13*
X12601Y-37370D03*
X10601Y-37370D03*
X8601Y-37370D03*
X11601Y-37370D03*
X9601Y-37370D03*
X13601Y-37370D03*
G54D14*
X1101Y-7121D03*
X4101Y-7121D03*
G54D15*
X17601Y-43120D03*
X20101Y-42120D03*
G54D16*
X18601Y-41120D03*
G54D17*
X20601Y-41120D03*
X16601Y-41120D03*
G54D15*
X17601Y-28120D03*
X20101Y-27120D03*
G54D16*
X18601Y-26120D03*
G54D17*
X20601Y-26120D03*
X16601Y-26120D03*
G54D15*
X17601Y-13121D03*
X20101Y-12121D03*
G54D16*
X18601Y-11121D03*
G54D17*
X20601Y-11121D03*
X16601Y-11121D03*
G54D15*
X25101Y-5622D03*
X27601Y-4622D03*
G54D16*
X26101Y-3622D03*
G54D17*
X28101Y-3622D03*
X24101Y-3622D03*
G54D15*
X17601Y-5622D03*
X20101Y-4622D03*
G54D16*
X18601Y-3622D03*
G54D17*
X20601Y-3622D03*
X16601Y-3622D03*
G54D15*
X17601Y-20620D03*
X20101Y-19620D03*
G54D16*
X18601Y-18620D03*
G54D17*
X20601Y-18620D03*
X16601Y-18620D03*
G54D15*
X25101Y-43120D03*
X27601Y-42120D03*
G54D16*
X26101Y-41120D03*
G54D17*
X28101Y-41120D03*
X24101Y-41120D03*
G54D18*
X26601Y-1621D03*
G54D19*
X25601Y-1621D03*
G54D18*
X4101Y-1621D03*
G54D19*
X3101Y-1621D03*
G54D20*
X351Y-44370D03*
X29351Y-371D03*
X29351Y-44370D03*
X351Y-322D03*
G54D15*
X2601Y-5621D03*
X5101Y-4621D03*
G54D16*
X3601Y-3621D03*
G54D17*
X5601Y-3621D03*
X1601Y-3621D03*
G54D15*
X2601Y-28120D03*
X5101Y-27120D03*
G54D16*
X3601Y-26120D03*
G54D17*
X5601Y-26120D03*
X1601Y-26120D03*
G54D15*
X10101Y-28120D03*
X12601Y-27120D03*
G54D16*
X11101Y-26120D03*
G54D17*
X13101Y-26120D03*
X9101Y-26120D03*
G54D15*
X10101Y-35620D03*
X12601Y-34620D03*
G54D16*
X11101Y-33620D03*
G54D17*
X13101Y-33620D03*
X9101Y-33620D03*
G54D15*
X17601Y-35620D03*
X20101Y-34620D03*
G54D16*
X18601Y-33620D03*
G54D17*
X20601Y-33620D03*
X16601Y-33620D03*
G54D15*
X2601Y-35620D03*
X5101Y-34620D03*
G54D16*
X3601Y-33620D03*
G54D17*
X5601Y-33620D03*
X1601Y-33620D03*
G54D15*
X10101Y-20620D03*
X12601Y-19620D03*
G54D16*
X11101Y-18620D03*
G54D17*
X13101Y-18620D03*
X9101Y-18620D03*
G54D15*
X2601Y-20620D03*
X5101Y-19620D03*
G54D16*
X3601Y-18620D03*
G54D17*
X5601Y-18620D03*
X1601Y-18620D03*
G54D15*
X10101Y-13121D03*
X12601Y-12121D03*
G54D16*
X11101Y-11121D03*
G54D17*
X13101Y-11121D03*
X9101Y-11121D03*
G54D15*
X10101Y-43120D03*
X12601Y-42120D03*
G54D16*
X11101Y-41120D03*
G54D17*
X13101Y-41120D03*
X9101Y-41120D03*
G54D15*
X2601Y-43120D03*
X5101Y-42120D03*
G54D16*
X3601Y-41120D03*
G54D17*
X5601Y-41120D03*
X1601Y-41120D03*
G54D15*
X2601Y-13121D03*
X5101Y-12121D03*
G54D16*
X3601Y-11121D03*
G54D17*
X5601Y-11121D03*
X1601Y-11121D03*
G54D15*
X10101Y-5621D03*
X12601Y-4621D03*
G54D16*
X11101Y-3621D03*
G54D17*
X13101Y-3621D03*
X9101Y-3621D03*
G54D15*
X28101Y-15870D03*
X27101Y-13370D03*
G54D16*
X26101Y-14870D03*
G54D17*
X26101Y-12870D03*
X26101Y-16870D03*
G54D21*
X28851Y-10170D03*
X28851Y-19570D03*
G54D16*
X22851Y-10170D03*
X22851Y-19570D03*
G54D15*
X28101Y-30870D03*
X27101Y-28370D03*
G54D16*
X26101Y-29870D03*
G54D17*
X26101Y-27870D03*
X26101Y-31870D03*
G54D21*
X28851Y-25170D03*
X28851Y-34570D03*
G54D16*
X22851Y-25170D03*
X22851Y-34570D03*
G54D14*
X24101Y-7121D03*
X27101Y-7121D03*
X14601Y-7121D03*
X11601Y-7121D03*
X22101Y-7121D03*
X19101Y-7121D03*
G54D18*
X11601Y-1621D03*
G54D19*
X10601Y-1621D03*
G54D18*
X19101Y-1621D03*
G54D19*
X18101Y-1621D03*
G54D20*
X16006Y-22997D03*
X17869Y-23986D03*
X16809Y-24628D03*
X9247Y-32783D03*
X10996Y-23822D03*
X16105Y-27758D03*
X16105Y-25320D03*
X15524Y-24023D03*
X14229Y-15969D03*
X15436Y-27995D03*
X21465Y-25242D03*
X21465Y-16609D03*
X9630Y-24172D03*
X11878Y-17673D03*
X13588Y-19605D03*
X11421Y-19934D03*
X13012Y-27740D03*
X13740Y-21336D03*
X16823Y-20007D03*
X17775Y-19888D03*
X11686Y-24264D03*
X8574Y-21643D03*
X8044Y-13897D03*
X27178Y-18974D03*
X25005Y-21322D03*
X25005Y-17130D03*
X14237Y-18375D03*
X12502Y-20689D03*
X14479Y-25582D03*
X13764Y-21883D03*
X5081Y-6919D03*
X7687Y-26580D03*
X4664Y-6040D03*
X12702Y-7367D03*
X14600Y-23845D03*
X11889Y-21040D03*
X14213Y-24586D03*
X14968Y-20842D03*
G54D22*
X16006Y-8525D02*
X16006Y-22997D01*
X14601Y-7121D02*
X16006Y-8525D01*
X21096Y-20758D02*
X17869Y-23986D01*
X21096Y-16390D02*
X21096Y-20758D01*
X24606Y-12881D02*
X21096Y-16390D01*
X24606Y-6929D02*
X24606Y-12881D01*
X24306Y-6629D02*
X24606Y-6929D01*
X22592Y-6629D02*
X24306Y-6629D01*
X22101Y-7121D02*
X22592Y-6629D01*
X16462Y-24280D02*
X16809Y-24628D01*
X16462Y-19607D02*
X16462Y-24280D01*
X17180Y-18889D02*
X16462Y-19607D01*
X17180Y-17528D02*
X17180Y-18889D01*
X24101Y-10606D02*
X17180Y-17528D01*
X24101Y-7121D02*
X24101Y-10606D01*
X9247Y-27520D02*
X9247Y-32783D01*
X9783Y-26984D02*
X9247Y-27520D01*
X9783Y-25036D02*
X9783Y-26984D01*
X10996Y-23822D02*
X9783Y-25036D01*
X16105Y-25320D02*
X16105Y-27758D01*
X15584Y-23963D02*
X15524Y-24023D01*
X15584Y-17325D02*
X15584Y-23963D01*
X14229Y-15969D02*
X15584Y-17325D01*
X15436Y-24112D02*
X15436Y-27995D01*
X15524Y-24023D02*
X15436Y-24112D01*
X21465Y-16609D02*
X21465Y-25242D01*
X8601Y-36370D02*
X9601Y-37370D01*
X8601Y-25201D02*
X8601Y-36370D01*
X9630Y-24172D02*
X8601Y-25201D01*
X8401Y-11421D02*
X4101Y-7121D01*
X8401Y-20935D02*
X8401Y-11421D01*
X9630Y-22163D02*
X8401Y-20935D01*
X9630Y-24172D02*
X9630Y-22163D01*
X11878Y-11681D02*
X11878Y-17673D01*
X12049Y-11509D02*
X11878Y-11681D01*
X12049Y-7599D02*
X12049Y-11509D01*
X11400Y-7599D02*
X12049Y-7599D01*
X10101Y-6300D02*
X11400Y-7599D01*
X10101Y-5621D02*
X10101Y-6300D01*
X12049Y-7500D02*
X12049Y-7599D01*
X13928Y-5622D02*
X12049Y-7500D01*
X17601Y-5622D02*
X13928Y-5622D01*
X17938Y-13121D02*
X17601Y-13121D01*
X19565Y-11494D02*
X17938Y-13121D01*
X19565Y-8960D02*
X19565Y-11494D01*
X22136Y-6389D02*
X19565Y-8960D01*
X24406Y-6389D02*
X22136Y-6389D01*
X27793Y-9777D02*
X24406Y-6389D01*
X27793Y-15563D02*
X27793Y-9777D01*
X28101Y-15870D02*
X27793Y-15563D01*
X12962Y-20231D02*
X13588Y-19605D01*
X11718Y-20231D02*
X12962Y-20231D01*
X11421Y-19934D02*
X11718Y-20231D01*
X20351Y-30870D02*
X17601Y-28120D01*
X28101Y-30870D02*
X20351Y-30870D01*
X13012Y-27740D02*
X11986Y-27740D01*
X10481Y-27740D02*
X10101Y-28120D01*
X11986Y-27740D02*
X10481Y-27740D01*
X12060Y-23015D02*
X13740Y-21336D01*
X12060Y-26648D02*
X12060Y-23015D01*
X11986Y-26722D02*
X12060Y-26648D01*
X11986Y-27740D02*
X11986Y-26722D01*
X17102Y-35620D02*
X17601Y-35620D01*
X14819Y-37904D02*
X17102Y-35620D01*
X4884Y-37904D02*
X14819Y-37904D01*
X2601Y-35620D02*
X4884Y-37904D01*
X17102Y-29397D02*
X17102Y-35620D01*
X16730Y-29025D02*
X17102Y-29397D01*
X16730Y-27009D02*
X16730Y-29025D01*
X17167Y-26571D02*
X16730Y-27009D01*
X17167Y-22255D02*
X17167Y-26571D01*
X16823Y-21911D02*
X17167Y-22255D01*
X16823Y-20007D02*
X16823Y-21911D01*
X17601Y-43120D02*
X25101Y-43120D01*
X2601Y-43120D02*
X10101Y-43120D01*
X10101Y-43120D02*
X17601Y-43120D01*
X18211Y-20324D02*
X17775Y-19888D01*
X18211Y-22060D02*
X18211Y-20324D01*
X17408Y-22864D02*
X18211Y-22060D01*
X17408Y-27080D02*
X17408Y-22864D01*
X16990Y-27498D02*
X17408Y-27080D01*
X16990Y-28825D02*
X16990Y-27498D01*
X17414Y-29250D02*
X16990Y-28825D01*
X17414Y-34571D02*
X17414Y-29250D01*
X18230Y-35386D02*
X17414Y-34571D01*
X18230Y-35972D02*
X18230Y-35386D01*
X17601Y-36600D02*
X18230Y-35972D01*
X17601Y-43120D02*
X17601Y-36600D01*
X11595Y-24264D02*
X11686Y-24264D01*
X10023Y-25837D02*
X11595Y-24264D01*
X10023Y-27253D02*
X10023Y-25837D01*
X9487Y-27789D02*
X10023Y-27253D01*
X9487Y-28851D02*
X9487Y-27789D01*
X10085Y-29449D02*
X9487Y-28851D01*
X10085Y-34738D02*
X10085Y-29449D01*
X10739Y-35393D02*
X10085Y-34738D01*
X10739Y-37232D02*
X10739Y-35393D01*
X10601Y-37370D02*
X10739Y-37232D01*
X8361Y-21856D02*
X8574Y-21643D01*
X8361Y-37130D02*
X8361Y-21856D01*
X8601Y-37370D02*
X8361Y-37130D01*
X8044Y-21113D02*
X8044Y-13897D01*
X8574Y-21643D02*
X8044Y-21113D01*
G54D23*
X28732Y-17421D02*
X27178Y-18974D01*
X28732Y-15148D02*
X28732Y-17421D01*
X28054Y-14470D02*
X28732Y-15148D01*
X28054Y-9849D02*
X28054Y-14470D01*
X29351Y-8551D02*
X28054Y-9849D01*
X29351Y-371D02*
X29351Y-8551D01*
X29351Y-41333D02*
X29351Y-44370D01*
X28051Y-40034D02*
X29351Y-41333D01*
X28051Y-33094D02*
X28051Y-40034D01*
X28732Y-32414D02*
X28051Y-33094D01*
X28732Y-27095D02*
X28732Y-32414D01*
X27178Y-25542D02*
X28732Y-27095D01*
X27178Y-18974D02*
X27178Y-25542D01*
G54D22*
X12521Y-20670D02*
X12502Y-20689D01*
X13035Y-20670D02*
X12521Y-20670D01*
X14237Y-19468D02*
X13035Y-20670D01*
X14237Y-18375D02*
X14237Y-19468D01*
X25005Y-17130D02*
X25005Y-21322D01*
X26990Y-7009D02*
X27101Y-7121D01*
X26990Y-4070D02*
X26990Y-7009D01*
X27136Y-3923D02*
X26990Y-4070D01*
X27136Y-1621D02*
X27136Y-3923D01*
X26601Y-1621D02*
X27136Y-1621D01*
X13764Y-24867D02*
X13764Y-21883D01*
X14479Y-25582D02*
X13764Y-24867D01*
X11601Y-4457D02*
X11601Y-7121D01*
X12136Y-3922D02*
X11601Y-4457D01*
X12136Y-1621D02*
X12136Y-3922D01*
X11601Y-1621D02*
X12136Y-1621D01*
X19101Y-4458D02*
X19101Y-7121D01*
X19636Y-3923D02*
X19101Y-4458D01*
X19636Y-1621D02*
X19636Y-3923D01*
X19101Y-1621D02*
X19636Y-1621D01*
X7687Y-11657D02*
X7687Y-26580D01*
X3593Y-7562D02*
X7687Y-11657D01*
X3593Y-6937D02*
X3593Y-7562D01*
X3897Y-6633D02*
X3593Y-6937D01*
X4796Y-6633D02*
X3897Y-6633D01*
X5081Y-6919D02*
X4796Y-6633D01*
X4664Y-5057D02*
X4664Y-6040D01*
X5101Y-4621D02*
X4664Y-5057D01*
X1101Y-5400D02*
X1101Y-7121D01*
X2283Y-4218D02*
X1101Y-5400D01*
X2283Y-3582D02*
X2283Y-4218D01*
X3659Y-2206D02*
X2283Y-3582D01*
X4101Y-2206D02*
X3659Y-2206D01*
X4101Y-1621D02*
X4101Y-2206D01*
X13603Y-8267D02*
X12702Y-7367D01*
X13603Y-16337D02*
X13603Y-8267D01*
X15342Y-18076D02*
X13603Y-16337D01*
X15342Y-23104D02*
X15342Y-18076D01*
X14600Y-23845D02*
X15342Y-23104D01*
G54D23*
X3726Y-995D02*
X3101Y-1621D01*
X9421Y-995D02*
X3726Y-995D01*
X10046Y-1621D02*
X9421Y-995D01*
X10601Y-1621D02*
X10161Y-1621D01*
X10161Y-1621D02*
X10136Y-1621D01*
X10136Y-1621D02*
X10091Y-1621D01*
X10091Y-1621D02*
X10046Y-1621D01*
X9628Y-18779D02*
X11889Y-21040D01*
X9628Y-18285D02*
X9628Y-18779D01*
X9462Y-18119D02*
X9628Y-18285D01*
X9462Y-12780D02*
X9462Y-18119D01*
X9628Y-12613D02*
X9462Y-12780D01*
X9628Y-10785D02*
X9628Y-12613D01*
X9464Y-10621D02*
X9628Y-10785D01*
X9464Y-5321D02*
X9464Y-10621D01*
X10091Y-4694D02*
X9464Y-5321D01*
X10091Y-1621D02*
X10091Y-4694D01*
X14863Y-25237D02*
X14213Y-24586D01*
X14863Y-34108D02*
X14863Y-25237D01*
X11601Y-37370D02*
X14863Y-34108D01*
X13882Y-20943D02*
X14213Y-21273D01*
X12790Y-20943D02*
X13882Y-20943D01*
X12647Y-21086D02*
X12790Y-20943D01*
X11935Y-21086D02*
X12647Y-21086D01*
X11889Y-21040D02*
X11935Y-21086D01*
X14643Y-20842D02*
X14968Y-20842D01*
X14213Y-21273D02*
X14643Y-20842D01*
X14213Y-21273D02*
X14213Y-24586D01*
G54D10*
G36*
X16772Y-35484D02*
X14682Y-37574D01*
X14170Y-37574D01*
X14210Y-37465D01*
X14200Y-37225D01*
X14127Y-37050D01*
X14026Y-37016D01*
X13956Y-37087D01*
X13956Y-36945D01*
X13922Y-36844D01*
X13696Y-36762D01*
X13456Y-36772D01*
X13281Y-36844D01*
X13247Y-36945D01*
X13601Y-37300D01*
X13956Y-36945D01*
X13956Y-37087D01*
X13672Y-37370D01*
X13677Y-37376D01*
X13607Y-37447D01*
X13601Y-37441D01*
X13596Y-37447D01*
X13525Y-37376D01*
X13530Y-37370D01*
X13176Y-37016D01*
X13117Y-37036D01*
X13114Y-37028D01*
X12944Y-36858D01*
X12722Y-36766D01*
X12700Y-36766D01*
X15111Y-34356D01*
X15111Y-34356D01*
X15111Y-34356D01*
X15187Y-34242D01*
X15213Y-34108D01*
X15213Y-34108D01*
X15213Y-28387D01*
X15346Y-28442D01*
X15524Y-28442D01*
X15688Y-28374D01*
X15814Y-28249D01*
X15859Y-28140D01*
X16015Y-28205D01*
X16193Y-28205D01*
X16357Y-28137D01*
X16400Y-28095D01*
X16400Y-29025D01*
X16425Y-29151D01*
X16496Y-29258D01*
X16772Y-29534D01*
X16772Y-33058D01*
X16718Y-33035D01*
X16485Y-33035D01*
X16270Y-33124D01*
X16105Y-33289D01*
X16016Y-33503D01*
X16016Y-33736D01*
X16105Y-33951D01*
X16269Y-34116D01*
X16484Y-34205D01*
X16717Y-34205D01*
X16772Y-34183D01*
X16772Y-35484D01*
X16772Y-35484D01*
G37*
G54D24*
X16772Y-35484D02*
X14682Y-37574D01*
X14170Y-37574D01*
X14210Y-37465D01*
X14200Y-37225D01*
X14127Y-37050D01*
X14026Y-37016D01*
X13956Y-37087D01*
X13956Y-36945D01*
X13922Y-36844D01*
X13696Y-36762D01*
X13456Y-36772D01*
X13281Y-36844D01*
X13247Y-36945D01*
X13601Y-37300D01*
X13956Y-36945D01*
X13956Y-37087D01*
X13672Y-37370D01*
X13677Y-37376D01*
X13607Y-37447D01*
X13601Y-37441D01*
X13596Y-37447D01*
X13525Y-37376D01*
X13530Y-37370D01*
X13176Y-37016D01*
X13117Y-37036D01*
X13114Y-37028D01*
X12944Y-36858D01*
X12722Y-36766D01*
X12700Y-36766D01*
X15111Y-34356D01*
X15111Y-34356D01*
X15111Y-34356D01*
X15187Y-34242D01*
X15213Y-34108D01*
X15213Y-34108D01*
X15213Y-28387D01*
X15346Y-28442D01*
X15524Y-28442D01*
X15688Y-28374D01*
X15814Y-28249D01*
X15859Y-28140D01*
X16015Y-28205D01*
X16193Y-28205D01*
X16357Y-28137D01*
X16400Y-28095D01*
X16400Y-29025D01*
X16425Y-29151D01*
X16496Y-29258D01*
X16772Y-29534D01*
X16772Y-33058D01*
X16718Y-33035D01*
X16485Y-33035D01*
X16270Y-33124D01*
X16105Y-33289D01*
X16016Y-33503D01*
X16016Y-33736D01*
X16105Y-33951D01*
X16269Y-34116D01*
X16484Y-34205D01*
X16717Y-34205D01*
X16772Y-34183D01*
X16772Y-35484D01*
G54D10*
G36*
X29431Y-43926D02*
X29408Y-43918D01*
X29230Y-43931D01*
X29125Y-43975D01*
X29110Y-44059D01*
X29351Y-44300D01*
X29356Y-44294D01*
X29427Y-44365D01*
X29421Y-44370D01*
X29427Y-44376D01*
X29356Y-44447D01*
X29351Y-44441D01*
X29345Y-44447D01*
X29274Y-44376D01*
X29280Y-44370D01*
X29040Y-44130D01*
X28955Y-44145D01*
X28899Y-44313D01*
X28908Y-44451D01*
X28686Y-44451D01*
X28686Y-41005D01*
X28597Y-40789D01*
X28433Y-40625D01*
X28218Y-40535D01*
X27985Y-40535D01*
X27770Y-40624D01*
X27605Y-40789D01*
X27516Y-41003D01*
X27516Y-41236D01*
X27592Y-41420D01*
X27462Y-41420D01*
X27205Y-41527D01*
X27136Y-41595D01*
X27136Y-40915D01*
X26979Y-40535D01*
X26688Y-40243D01*
X26686Y-40243D01*
X26686Y-31755D01*
X26597Y-31539D01*
X26433Y-31375D01*
X26218Y-31285D01*
X25985Y-31285D01*
X25770Y-31374D01*
X25605Y-31539D01*
X25516Y-31753D01*
X25516Y-31986D01*
X25605Y-32201D01*
X25769Y-32366D01*
X25984Y-32455D01*
X26217Y-32455D01*
X26432Y-32367D01*
X26597Y-32202D01*
X26686Y-31987D01*
X26686Y-31755D01*
X26686Y-40243D01*
X26308Y-40086D01*
X25896Y-40085D01*
X25516Y-40242D01*
X25224Y-40533D01*
X25066Y-40914D01*
X25066Y-41325D01*
X25223Y-41706D01*
X25514Y-41997D01*
X25894Y-42155D01*
X26306Y-42156D01*
X26687Y-41998D01*
X26978Y-41707D01*
X27136Y-41327D01*
X27136Y-40915D01*
X27136Y-41595D01*
X27008Y-41723D01*
X26901Y-41981D01*
X26901Y-42259D01*
X27007Y-42516D01*
X27204Y-42713D01*
X27461Y-42820D01*
X27740Y-42820D01*
X27997Y-42714D01*
X28194Y-42517D01*
X28301Y-42260D01*
X28301Y-41982D01*
X28195Y-41724D01*
X28176Y-41705D01*
X28217Y-41705D01*
X28432Y-41617D01*
X28597Y-41452D01*
X28686Y-41237D01*
X28686Y-41005D01*
X28686Y-44451D01*
X795Y-44451D01*
X803Y-44427D01*
X790Y-44250D01*
X747Y-44145D01*
X662Y-44130D01*
X422Y-44370D01*
X427Y-44376D01*
X356Y-44447D01*
X351Y-44441D01*
X345Y-44447D01*
X275Y-44376D01*
X280Y-44370D01*
X275Y-44365D01*
X345Y-44294D01*
X351Y-44300D01*
X591Y-44059D01*
X577Y-43975D01*
X408Y-43918D01*
X270Y-43928D01*
X270Y-23478D01*
X1601Y-23478D01*
X2074Y-23385D01*
X2474Y-23117D01*
X2742Y-22716D01*
X2836Y-22244D01*
X2742Y-21772D01*
X2474Y-21371D01*
X2295Y-21251D01*
X2461Y-21320D01*
X2740Y-21320D01*
X2997Y-21214D01*
X3194Y-21017D01*
X3301Y-20760D01*
X3301Y-20482D01*
X3195Y-20224D01*
X2998Y-20027D01*
X2741Y-19920D01*
X2462Y-19920D01*
X2205Y-20027D01*
X2186Y-20045D01*
X2186Y-18505D01*
X2097Y-18289D01*
X1933Y-18125D01*
X1718Y-18035D01*
X1485Y-18035D01*
X1270Y-18124D01*
X1105Y-18289D01*
X1016Y-18503D01*
X1016Y-18736D01*
X1105Y-18951D01*
X1269Y-19116D01*
X1484Y-19205D01*
X1717Y-19205D01*
X1932Y-19117D01*
X2097Y-18952D01*
X2186Y-18737D01*
X2186Y-18505D01*
X2186Y-20045D01*
X2008Y-20223D01*
X1901Y-20481D01*
X1901Y-20759D01*
X2007Y-21016D01*
X2135Y-21144D01*
X2074Y-21103D01*
X1601Y-21009D01*
X270Y-21009D01*
X270Y-766D01*
X294Y-774D01*
X471Y-761D01*
X577Y-717D01*
X591Y-633D01*
X351Y-392D01*
X345Y-398D01*
X275Y-327D01*
X280Y-322D01*
X275Y-316D01*
X345Y-245D01*
X351Y-251D01*
X356Y-245D01*
X427Y-316D01*
X422Y-322D01*
X662Y-562D01*
X747Y-547D01*
X803Y-379D01*
X793Y-240D01*
X28923Y-240D01*
X28899Y-313D01*
X28911Y-491D01*
X28955Y-596D01*
X29040Y-611D01*
X29280Y-371D01*
X29274Y-365D01*
X29345Y-294D01*
X29351Y-300D01*
X29356Y-294D01*
X29427Y-365D01*
X29421Y-371D01*
X29427Y-376D01*
X29356Y-447D01*
X29351Y-441D01*
X29110Y-682D01*
X29125Y-766D01*
X29294Y-823D01*
X29431Y-813D01*
X29431Y-9549D01*
X29333Y-9450D01*
X29021Y-9321D01*
X28686Y-9320D01*
X28686Y-3506D01*
X28597Y-3291D01*
X28433Y-3126D01*
X28218Y-3037D01*
X27985Y-3036D01*
X27770Y-3125D01*
X27605Y-3290D01*
X27516Y-3505D01*
X27516Y-3737D01*
X27592Y-3922D01*
X27466Y-3921D01*
X27466Y-1621D01*
X27441Y-1494D01*
X27370Y-1387D01*
X27262Y-1316D01*
X27164Y-1296D01*
X27043Y-1115D01*
X26840Y-980D01*
X26601Y-932D01*
X26362Y-980D01*
X26202Y-1087D01*
X26188Y-1054D01*
X26118Y-984D01*
X26026Y-946D01*
X25927Y-946D01*
X25177Y-946D01*
X25085Y-983D01*
X25014Y-1054D01*
X24976Y-1146D01*
X24976Y-1245D01*
X24976Y-2095D01*
X25014Y-2187D01*
X25084Y-2257D01*
X25176Y-2296D01*
X25276Y-2296D01*
X26026Y-2296D01*
X26118Y-2258D01*
X26188Y-2187D01*
X26202Y-2154D01*
X26362Y-2261D01*
X26601Y-2309D01*
X26806Y-2268D01*
X26806Y-2863D01*
X26688Y-2745D01*
X26308Y-2587D01*
X25896Y-2586D01*
X25516Y-2744D01*
X25224Y-3035D01*
X25066Y-3415D01*
X25066Y-3827D01*
X25223Y-4207D01*
X25514Y-4498D01*
X25894Y-4656D01*
X26306Y-4657D01*
X26660Y-4511D01*
X26660Y-6763D01*
X26622Y-6800D01*
X26536Y-7008D01*
X26536Y-7232D01*
X26622Y-7440D01*
X26781Y-7599D01*
X26988Y-7685D01*
X27213Y-7686D01*
X27421Y-7600D01*
X27580Y-7441D01*
X27666Y-7233D01*
X27666Y-7009D01*
X27580Y-6801D01*
X27422Y-6642D01*
X27320Y-6600D01*
X27320Y-5263D01*
X27461Y-5321D01*
X27740Y-5322D01*
X27997Y-5215D01*
X28194Y-5019D01*
X28301Y-4761D01*
X28301Y-4483D01*
X28195Y-4226D01*
X28176Y-4207D01*
X28217Y-4207D01*
X28432Y-4118D01*
X28597Y-3953D01*
X28686Y-3738D01*
X28686Y-3506D01*
X28686Y-9320D01*
X28683Y-9320D01*
X28370Y-9449D01*
X28131Y-9688D01*
X28114Y-9729D01*
X28098Y-9651D01*
X28098Y-9651D01*
X28027Y-9544D01*
X28027Y-9544D01*
X25801Y-7318D01*
X25801Y-5483D01*
X25695Y-5226D01*
X25498Y-5028D01*
X25241Y-4922D01*
X24962Y-4921D01*
X24705Y-5028D01*
X24686Y-5047D01*
X24686Y-3506D01*
X24597Y-3291D01*
X24433Y-3126D01*
X24218Y-3037D01*
X23985Y-3036D01*
X23770Y-3125D01*
X23605Y-3290D01*
X23516Y-3505D01*
X23516Y-3737D01*
X23605Y-3952D01*
X23769Y-4117D01*
X23984Y-4206D01*
X24217Y-4207D01*
X24432Y-4118D01*
X24597Y-3953D01*
X24686Y-3738D01*
X24686Y-3506D01*
X24686Y-5047D01*
X24508Y-5225D01*
X24401Y-5482D01*
X24401Y-5760D01*
X24507Y-6018D01*
X24704Y-6215D01*
X24961Y-6321D01*
X25240Y-6322D01*
X25497Y-6215D01*
X25694Y-6019D01*
X25801Y-5761D01*
X25801Y-5483D01*
X25801Y-7318D01*
X24639Y-6156D01*
X24532Y-6084D01*
X24406Y-6059D01*
X22136Y-6059D01*
X22010Y-6084D01*
X21903Y-6156D01*
X21903Y-6156D01*
X21186Y-6872D01*
X21186Y-3506D01*
X21097Y-3291D01*
X20933Y-3126D01*
X20718Y-3037D01*
X20485Y-3036D01*
X20270Y-3125D01*
X20105Y-3290D01*
X20016Y-3505D01*
X20016Y-3737D01*
X20092Y-3922D01*
X19966Y-3921D01*
X19966Y-1621D01*
X19941Y-1494D01*
X19870Y-1387D01*
X19762Y-1316D01*
X19664Y-1296D01*
X19543Y-1115D01*
X19340Y-980D01*
X19101Y-932D01*
X18862Y-980D01*
X18702Y-1087D01*
X18688Y-1054D01*
X18618Y-984D01*
X18526Y-946D01*
X18427Y-946D01*
X17677Y-946D01*
X17585Y-983D01*
X17514Y-1054D01*
X17476Y-1146D01*
X17476Y-1245D01*
X17476Y-2095D01*
X17514Y-2187D01*
X17584Y-2257D01*
X17676Y-2296D01*
X17776Y-2296D01*
X18526Y-2296D01*
X18618Y-2258D01*
X18688Y-2187D01*
X18702Y-2154D01*
X18862Y-2261D01*
X19101Y-2309D01*
X19306Y-2268D01*
X19306Y-2863D01*
X19188Y-2745D01*
X18808Y-2587D01*
X18396Y-2586D01*
X18016Y-2744D01*
X17724Y-3035D01*
X17566Y-3415D01*
X17566Y-3827D01*
X17723Y-4207D01*
X18014Y-4498D01*
X18394Y-4656D01*
X18771Y-4657D01*
X18771Y-6652D01*
X18622Y-6800D01*
X18536Y-7008D01*
X18536Y-7232D01*
X18622Y-7440D01*
X18781Y-7599D01*
X18988Y-7685D01*
X19213Y-7686D01*
X19421Y-7600D01*
X19580Y-7441D01*
X19666Y-7233D01*
X19666Y-7009D01*
X19580Y-6801D01*
X19431Y-6651D01*
X19431Y-4833D01*
X19507Y-5018D01*
X19704Y-5215D01*
X19961Y-5321D01*
X20240Y-5322D01*
X20497Y-5215D01*
X20694Y-5019D01*
X20801Y-4761D01*
X20801Y-4483D01*
X20695Y-4226D01*
X20676Y-4207D01*
X20717Y-4207D01*
X20932Y-4118D01*
X21097Y-3953D01*
X21186Y-3738D01*
X21186Y-3506D01*
X21186Y-6872D01*
X19331Y-8727D01*
X19260Y-8834D01*
X19235Y-8960D01*
X19235Y-10290D01*
X19188Y-10244D01*
X18808Y-10086D01*
X18396Y-10085D01*
X18016Y-10243D01*
X17724Y-10534D01*
X17566Y-10914D01*
X17566Y-11326D01*
X17723Y-11706D01*
X18014Y-11997D01*
X18394Y-12155D01*
X18436Y-12155D01*
X18031Y-12561D01*
X17998Y-12527D01*
X17741Y-12421D01*
X17462Y-12420D01*
X17205Y-12527D01*
X17008Y-12724D01*
X16901Y-12981D01*
X16901Y-13259D01*
X17007Y-13517D01*
X17204Y-13714D01*
X17461Y-13820D01*
X17740Y-13821D01*
X17997Y-13714D01*
X18194Y-13518D01*
X18301Y-13260D01*
X18301Y-13224D01*
X19401Y-12124D01*
X19401Y-12259D01*
X19507Y-12517D01*
X19704Y-12714D01*
X19961Y-12820D01*
X20240Y-12821D01*
X20497Y-12714D01*
X20694Y-12518D01*
X20801Y-12260D01*
X20801Y-11982D01*
X20695Y-11725D01*
X20676Y-11706D01*
X20717Y-11706D01*
X20932Y-11617D01*
X21097Y-11452D01*
X21186Y-11237D01*
X21186Y-11005D01*
X21097Y-10790D01*
X20933Y-10625D01*
X20718Y-10536D01*
X20485Y-10535D01*
X20270Y-10624D01*
X20105Y-10789D01*
X20016Y-11004D01*
X20016Y-11236D01*
X20092Y-11421D01*
X19962Y-11420D01*
X19895Y-11448D01*
X19895Y-9097D01*
X21601Y-7391D01*
X21622Y-7440D01*
X21781Y-7599D01*
X21988Y-7685D01*
X22213Y-7686D01*
X22421Y-7600D01*
X22580Y-7441D01*
X22666Y-7233D01*
X22666Y-7022D01*
X22729Y-6959D01*
X23556Y-6959D01*
X23536Y-7008D01*
X23536Y-7232D01*
X23622Y-7440D01*
X23771Y-7590D01*
X23771Y-9687D01*
X23729Y-9585D01*
X23438Y-9293D01*
X23058Y-9136D01*
X22646Y-9135D01*
X22266Y-9292D01*
X21974Y-9583D01*
X21816Y-9964D01*
X21816Y-10375D01*
X21973Y-10756D01*
X22264Y-11047D01*
X22644Y-11205D01*
X23035Y-11206D01*
X16946Y-17294D01*
X16875Y-17401D01*
X16850Y-17528D01*
X16850Y-18090D01*
X16718Y-18035D01*
X16485Y-18035D01*
X16336Y-18097D01*
X16336Y-11644D01*
X16484Y-11705D01*
X16717Y-11706D01*
X16932Y-11617D01*
X17097Y-11452D01*
X17186Y-11237D01*
X17186Y-11005D01*
X17097Y-10790D01*
X16933Y-10625D01*
X16718Y-10536D01*
X16485Y-10535D01*
X16336Y-10597D01*
X16336Y-8525D01*
X16311Y-8399D01*
X16311Y-8399D01*
X16239Y-8292D01*
X16239Y-8292D01*
X15166Y-7219D01*
X15166Y-7009D01*
X15080Y-6801D01*
X14921Y-6642D01*
X14714Y-6556D01*
X14489Y-6556D01*
X14281Y-6641D01*
X14122Y-6800D01*
X14036Y-7008D01*
X14036Y-7232D01*
X14122Y-7440D01*
X14280Y-7599D01*
X14488Y-7685D01*
X14699Y-7686D01*
X15676Y-8662D01*
X15676Y-16950D01*
X14676Y-15950D01*
X14676Y-15881D01*
X14608Y-15717D01*
X14482Y-15591D01*
X14318Y-15523D01*
X14140Y-15522D01*
X13976Y-15590D01*
X13933Y-15633D01*
X13933Y-8267D01*
X13933Y-8267D01*
X13933Y-8267D01*
X13928Y-8242D01*
X13908Y-8141D01*
X13908Y-8141D01*
X13836Y-8034D01*
X13836Y-8034D01*
X13149Y-7347D01*
X13149Y-7278D01*
X13081Y-7114D01*
X12992Y-7024D01*
X14065Y-5952D01*
X16980Y-5952D01*
X17007Y-6018D01*
X17204Y-6215D01*
X17461Y-6321D01*
X17740Y-6322D01*
X17997Y-6215D01*
X18194Y-6019D01*
X18301Y-5761D01*
X18301Y-5483D01*
X18195Y-5226D01*
X17998Y-5028D01*
X17741Y-4922D01*
X17462Y-4921D01*
X17205Y-5028D01*
X17186Y-5047D01*
X17186Y-3506D01*
X17097Y-3291D01*
X16933Y-3126D01*
X16718Y-3037D01*
X16485Y-3036D01*
X16270Y-3125D01*
X16105Y-3290D01*
X16016Y-3505D01*
X16016Y-3737D01*
X16105Y-3952D01*
X16269Y-4117D01*
X16484Y-4206D01*
X16717Y-4207D01*
X16932Y-4118D01*
X17097Y-3953D01*
X17186Y-3738D01*
X17186Y-3506D01*
X17186Y-5047D01*
X17008Y-5225D01*
X16980Y-5292D01*
X13928Y-5292D01*
X13802Y-5317D01*
X13695Y-5388D01*
X12139Y-6944D01*
X12080Y-6801D01*
X11931Y-6651D01*
X11931Y-4832D01*
X12007Y-5017D01*
X12204Y-5214D01*
X12461Y-5320D01*
X12740Y-5321D01*
X12997Y-5214D01*
X13194Y-5018D01*
X13301Y-4760D01*
X13301Y-4482D01*
X13195Y-4225D01*
X13176Y-4206D01*
X13217Y-4206D01*
X13432Y-4117D01*
X13597Y-3952D01*
X13686Y-3737D01*
X13686Y-3505D01*
X13597Y-3290D01*
X13433Y-3125D01*
X13218Y-3036D01*
X12985Y-3035D01*
X12770Y-3124D01*
X12605Y-3289D01*
X12516Y-3504D01*
X12516Y-3736D01*
X12592Y-3921D01*
X12466Y-3920D01*
X12466Y-1621D01*
X12441Y-1494D01*
X12369Y-1387D01*
X12262Y-1316D01*
X12164Y-1296D01*
X12043Y-1115D01*
X11840Y-980D01*
X11601Y-932D01*
X11362Y-980D01*
X11202Y-1087D01*
X11188Y-1054D01*
X11118Y-984D01*
X11026Y-946D01*
X10926Y-946D01*
X10176Y-946D01*
X10084Y-983D01*
X10014Y-1054D01*
X10002Y-1082D01*
X9668Y-748D01*
X9555Y-672D01*
X9421Y-645D01*
X3726Y-645D01*
X3726Y-645D01*
X3592Y-672D01*
X3479Y-748D01*
X3479Y-748D01*
X3281Y-946D01*
X2676Y-946D01*
X2584Y-983D01*
X2514Y-1054D01*
X2476Y-1146D01*
X2476Y-1245D01*
X2476Y-2095D01*
X2514Y-2187D01*
X2584Y-2257D01*
X2676Y-2296D01*
X2775Y-2296D01*
X3102Y-2296D01*
X2100Y-3297D01*
X2097Y-3290D01*
X1933Y-3125D01*
X1718Y-3036D01*
X1485Y-3035D01*
X1270Y-3124D01*
X1105Y-3289D01*
X1016Y-3504D01*
X1016Y-3736D01*
X1105Y-3952D01*
X1269Y-4116D01*
X1484Y-4205D01*
X1717Y-4206D01*
X1906Y-4127D01*
X868Y-5166D01*
X796Y-5273D01*
X771Y-5400D01*
X771Y-6652D01*
X622Y-6800D01*
X536Y-7008D01*
X536Y-7232D01*
X622Y-7440D01*
X780Y-7599D01*
X988Y-7685D01*
X1213Y-7686D01*
X1420Y-7600D01*
X1580Y-7441D01*
X1666Y-7233D01*
X1666Y-7009D01*
X1580Y-6801D01*
X1431Y-6651D01*
X1431Y-5536D01*
X2516Y-4451D01*
X2588Y-4344D01*
X2588Y-4344D01*
X2613Y-4218D01*
X2613Y-3939D01*
X2723Y-4206D01*
X3014Y-4497D01*
X3394Y-4655D01*
X3806Y-4656D01*
X4186Y-4499D01*
X4478Y-4208D01*
X4636Y-3827D01*
X4636Y-3416D01*
X4479Y-3035D01*
X4188Y-2744D01*
X3808Y-2586D01*
X3745Y-2586D01*
X3795Y-2536D01*
X4101Y-2536D01*
X4227Y-2511D01*
X4334Y-2439D01*
X4406Y-2332D01*
X4431Y-2206D01*
X4431Y-2201D01*
X4543Y-2126D01*
X4678Y-1923D01*
X4726Y-1684D01*
X4726Y-1557D01*
X4684Y-1345D01*
X5910Y-1345D01*
X5872Y-1438D01*
X5871Y-1608D01*
X5936Y-1765D01*
X6056Y-1885D01*
X6213Y-1950D01*
X6383Y-1950D01*
X6540Y-1885D01*
X6661Y-1765D01*
X6726Y-1608D01*
X6726Y-1439D01*
X6687Y-1345D01*
X7642Y-1345D01*
X7604Y-1438D01*
X7604Y-1608D01*
X7669Y-1765D01*
X7789Y-1885D01*
X7946Y-1950D01*
X8116Y-1950D01*
X8273Y-1885D01*
X8393Y-1765D01*
X8458Y-1608D01*
X8458Y-1439D01*
X8420Y-1345D01*
X9276Y-1345D01*
X9741Y-1811D01*
X9741Y-4549D01*
X9686Y-4604D01*
X9686Y-3505D01*
X9597Y-3290D01*
X9433Y-3125D01*
X9218Y-3036D01*
X8985Y-3035D01*
X8770Y-3124D01*
X8605Y-3289D01*
X8516Y-3504D01*
X8516Y-3736D01*
X8605Y-3952D01*
X8769Y-4116D01*
X8984Y-4205D01*
X9217Y-4206D01*
X9432Y-4117D01*
X9597Y-3952D01*
X9686Y-3737D01*
X9686Y-3505D01*
X9686Y-4604D01*
X9217Y-5073D01*
X9141Y-5187D01*
X9114Y-5321D01*
X9114Y-10536D01*
X8985Y-10535D01*
X8770Y-10624D01*
X8605Y-10789D01*
X8516Y-11004D01*
X8516Y-11069D01*
X4666Y-7219D01*
X4666Y-7084D01*
X4702Y-7172D01*
X4828Y-7297D01*
X4992Y-7366D01*
X5170Y-7366D01*
X5334Y-7298D01*
X5460Y-7172D01*
X5528Y-7008D01*
X5528Y-6830D01*
X5460Y-6666D01*
X5335Y-6540D01*
X5171Y-6472D01*
X5101Y-6472D01*
X5029Y-6400D01*
X4974Y-6363D01*
X5043Y-6294D01*
X5111Y-6130D01*
X5111Y-5952D01*
X5043Y-5788D01*
X4994Y-5739D01*
X4994Y-5320D01*
X5240Y-5321D01*
X5497Y-5214D01*
X5694Y-5018D01*
X5801Y-4760D01*
X5801Y-4482D01*
X5695Y-4225D01*
X5676Y-4206D01*
X5717Y-4206D01*
X5932Y-4117D01*
X6097Y-3952D01*
X6186Y-3737D01*
X6186Y-3505D01*
X6097Y-3290D01*
X5933Y-3125D01*
X5718Y-3036D01*
X5485Y-3035D01*
X5270Y-3124D01*
X5105Y-3289D01*
X5016Y-3504D01*
X5016Y-3736D01*
X5092Y-3921D01*
X4962Y-3920D01*
X4705Y-4027D01*
X4508Y-4224D01*
X4401Y-4481D01*
X4401Y-4759D01*
X4429Y-4827D01*
X4359Y-4931D01*
X4334Y-5057D01*
X4334Y-5739D01*
X4286Y-5787D01*
X4217Y-5951D01*
X4217Y-6129D01*
X4285Y-6293D01*
X4295Y-6303D01*
X3897Y-6303D01*
X3897Y-6303D01*
X3872Y-6308D01*
X3770Y-6329D01*
X3663Y-6400D01*
X3663Y-6400D01*
X3359Y-6704D01*
X3301Y-6792D01*
X3301Y-5482D01*
X3195Y-5225D01*
X2998Y-5027D01*
X2741Y-4921D01*
X2462Y-4920D01*
X2205Y-5027D01*
X2008Y-5224D01*
X1901Y-5481D01*
X1901Y-5759D01*
X2007Y-6017D01*
X2204Y-6214D01*
X2461Y-6320D01*
X2740Y-6321D01*
X2997Y-6214D01*
X3194Y-6018D01*
X3301Y-5760D01*
X3301Y-5482D01*
X3301Y-6792D01*
X3288Y-6811D01*
X3263Y-6937D01*
X3263Y-7562D01*
X3288Y-7688D01*
X3359Y-7795D01*
X7357Y-11793D01*
X7357Y-26278D01*
X7309Y-26326D01*
X7241Y-26491D01*
X7240Y-26668D01*
X7308Y-26833D01*
X7434Y-26958D01*
X7598Y-27027D01*
X7776Y-27027D01*
X7940Y-26959D01*
X8031Y-26868D01*
X8031Y-37130D01*
X8036Y-37155D01*
X8036Y-37155D01*
X7997Y-37250D01*
X7997Y-37490D01*
X8031Y-37574D01*
X6186Y-37574D01*
X6186Y-33505D01*
X6186Y-26005D01*
X6186Y-18505D01*
X6186Y-11005D01*
X6097Y-10790D01*
X5933Y-10625D01*
X5718Y-10536D01*
X5485Y-10535D01*
X5270Y-10624D01*
X5105Y-10789D01*
X5016Y-11004D01*
X5016Y-11236D01*
X5092Y-11421D01*
X4962Y-11420D01*
X4705Y-11527D01*
X4636Y-11595D01*
X4636Y-10916D01*
X4479Y-10535D01*
X4188Y-10244D01*
X3808Y-10086D01*
X3396Y-10085D01*
X3015Y-10243D01*
X2724Y-10534D01*
X2566Y-10914D01*
X2566Y-11326D01*
X2723Y-11706D01*
X3014Y-11997D01*
X3394Y-12155D01*
X3806Y-12156D01*
X4186Y-11999D01*
X4478Y-11708D01*
X4636Y-11327D01*
X4636Y-10916D01*
X4636Y-11595D01*
X4508Y-11724D01*
X4401Y-11981D01*
X4401Y-12259D01*
X4507Y-12517D01*
X4704Y-12714D01*
X4961Y-12820D01*
X5240Y-12821D01*
X5497Y-12714D01*
X5694Y-12518D01*
X5801Y-12260D01*
X5801Y-11982D01*
X5695Y-11725D01*
X5676Y-11706D01*
X5717Y-11706D01*
X5932Y-11617D01*
X6097Y-11452D01*
X6186Y-11237D01*
X6186Y-11005D01*
X6186Y-18505D01*
X6097Y-18289D01*
X5933Y-18125D01*
X5718Y-18035D01*
X5485Y-18035D01*
X5270Y-18124D01*
X5105Y-18289D01*
X5016Y-18503D01*
X5016Y-18736D01*
X5092Y-18920D01*
X4962Y-18920D01*
X4705Y-19027D01*
X4636Y-19095D01*
X4636Y-18415D01*
X4479Y-18035D01*
X4188Y-17743D01*
X3808Y-17586D01*
X3396Y-17585D01*
X3301Y-17624D01*
X3301Y-12982D01*
X3195Y-12725D01*
X2998Y-12527D01*
X2741Y-12421D01*
X2462Y-12420D01*
X2205Y-12527D01*
X2186Y-12546D01*
X2186Y-11005D01*
X2097Y-10790D01*
X1933Y-10625D01*
X1718Y-10536D01*
X1485Y-10535D01*
X1270Y-10624D01*
X1105Y-10789D01*
X1016Y-11004D01*
X1016Y-11236D01*
X1105Y-11452D01*
X1269Y-11616D01*
X1484Y-11705D01*
X1717Y-11706D01*
X1932Y-11617D01*
X2097Y-11452D01*
X2186Y-11237D01*
X2186Y-11005D01*
X2186Y-12546D01*
X2008Y-12724D01*
X1901Y-12981D01*
X1901Y-13259D01*
X2007Y-13517D01*
X2204Y-13714D01*
X2461Y-13820D01*
X2740Y-13821D01*
X2997Y-13714D01*
X3194Y-13518D01*
X3301Y-13260D01*
X3301Y-12982D01*
X3301Y-17624D01*
X3015Y-17742D01*
X2724Y-18033D01*
X2566Y-18414D01*
X2566Y-18825D01*
X2723Y-19206D01*
X3014Y-19497D01*
X3394Y-19655D01*
X3806Y-19656D01*
X4186Y-19498D01*
X4478Y-19207D01*
X4636Y-18827D01*
X4636Y-18415D01*
X4636Y-19095D01*
X4508Y-19223D01*
X4401Y-19481D01*
X4401Y-19759D01*
X4507Y-20016D01*
X4704Y-20213D01*
X4961Y-20320D01*
X5240Y-20320D01*
X5497Y-20214D01*
X5694Y-20017D01*
X5801Y-19760D01*
X5801Y-19482D01*
X5695Y-19224D01*
X5676Y-19205D01*
X5717Y-19205D01*
X5932Y-19117D01*
X6097Y-18952D01*
X6186Y-18737D01*
X6186Y-18505D01*
X6186Y-26005D01*
X6097Y-25789D01*
X5933Y-25625D01*
X5718Y-25535D01*
X5485Y-25535D01*
X5270Y-25624D01*
X5105Y-25789D01*
X5016Y-26003D01*
X5016Y-26236D01*
X5092Y-26420D01*
X4962Y-26420D01*
X4705Y-26527D01*
X4636Y-26595D01*
X4636Y-25915D01*
X4479Y-25535D01*
X4188Y-25243D01*
X3808Y-25086D01*
X3396Y-25085D01*
X3015Y-25242D01*
X2724Y-25533D01*
X2566Y-25914D01*
X2566Y-26325D01*
X2723Y-26706D01*
X3014Y-26997D01*
X3394Y-27155D01*
X3806Y-27156D01*
X4186Y-26998D01*
X4478Y-26707D01*
X4636Y-26327D01*
X4636Y-25915D01*
X4636Y-26595D01*
X4508Y-26723D01*
X4401Y-26981D01*
X4401Y-27259D01*
X4507Y-27516D01*
X4704Y-27713D01*
X4961Y-27820D01*
X5240Y-27820D01*
X5497Y-27714D01*
X5694Y-27517D01*
X5801Y-27260D01*
X5801Y-26982D01*
X5695Y-26724D01*
X5676Y-26705D01*
X5717Y-26705D01*
X5932Y-26617D01*
X6097Y-26452D01*
X6186Y-26237D01*
X6186Y-26005D01*
X6186Y-33505D01*
X6097Y-33289D01*
X5933Y-33125D01*
X5718Y-33035D01*
X5485Y-33035D01*
X5270Y-33124D01*
X5105Y-33289D01*
X5016Y-33503D01*
X5016Y-33736D01*
X5092Y-33920D01*
X4962Y-33920D01*
X4705Y-34027D01*
X4636Y-34095D01*
X4636Y-33415D01*
X4479Y-33035D01*
X4188Y-32743D01*
X3808Y-32586D01*
X3396Y-32585D01*
X3301Y-32624D01*
X3301Y-27982D01*
X3195Y-27724D01*
X2998Y-27527D01*
X2741Y-27420D01*
X2462Y-27420D01*
X2205Y-27527D01*
X2186Y-27545D01*
X2186Y-26005D01*
X2097Y-25789D01*
X1933Y-25625D01*
X1718Y-25535D01*
X1485Y-25535D01*
X1270Y-25624D01*
X1105Y-25789D01*
X1016Y-26003D01*
X1016Y-26236D01*
X1105Y-26451D01*
X1269Y-26616D01*
X1484Y-26705D01*
X1717Y-26705D01*
X1932Y-26617D01*
X2097Y-26452D01*
X2186Y-26237D01*
X2186Y-26005D01*
X2186Y-27545D01*
X2008Y-27723D01*
X1901Y-27981D01*
X1901Y-28259D01*
X2007Y-28516D01*
X2204Y-28713D01*
X2461Y-28820D01*
X2740Y-28820D01*
X2997Y-28714D01*
X3194Y-28517D01*
X3301Y-28260D01*
X3301Y-27982D01*
X3301Y-32624D01*
X3015Y-32742D01*
X2724Y-33033D01*
X2566Y-33414D01*
X2566Y-33825D01*
X2723Y-34206D01*
X3014Y-34497D01*
X3394Y-34655D01*
X3806Y-34656D01*
X4186Y-34498D01*
X4478Y-34207D01*
X4636Y-33827D01*
X4636Y-33415D01*
X4636Y-34095D01*
X4508Y-34223D01*
X4401Y-34481D01*
X4401Y-34759D01*
X4507Y-35016D01*
X4704Y-35213D01*
X4961Y-35320D01*
X5240Y-35320D01*
X5497Y-35214D01*
X5694Y-35017D01*
X5801Y-34760D01*
X5801Y-34482D01*
X5695Y-34224D01*
X5676Y-34205D01*
X5717Y-34205D01*
X5932Y-34117D01*
X6097Y-33952D01*
X6186Y-33737D01*
X6186Y-33505D01*
X6186Y-37574D01*
X5021Y-37574D01*
X3273Y-35826D01*
X3301Y-35760D01*
X3301Y-35482D01*
X3195Y-35224D01*
X2998Y-35027D01*
X2741Y-34920D01*
X2462Y-34920D01*
X2205Y-35027D01*
X2186Y-35045D01*
X2186Y-33505D01*
X2097Y-33289D01*
X1933Y-33125D01*
X1718Y-33035D01*
X1485Y-33035D01*
X1270Y-33124D01*
X1105Y-33289D01*
X1016Y-33503D01*
X1016Y-33736D01*
X1105Y-33951D01*
X1269Y-34116D01*
X1484Y-34205D01*
X1717Y-34205D01*
X1932Y-34117D01*
X2097Y-33952D01*
X2186Y-33737D01*
X2186Y-33505D01*
X2186Y-35045D01*
X2008Y-35223D01*
X1901Y-35481D01*
X1901Y-35759D01*
X2007Y-36016D01*
X2204Y-36213D01*
X2461Y-36320D01*
X2740Y-36320D01*
X2807Y-36293D01*
X4651Y-38137D01*
X4758Y-38209D01*
X4758Y-38209D01*
X4884Y-38234D01*
X14819Y-38234D01*
X14945Y-38209D01*
X14945Y-38209D01*
X15052Y-38137D01*
X17090Y-36099D01*
X17204Y-36213D01*
X17428Y-36307D01*
X17368Y-36367D01*
X17296Y-36474D01*
X17271Y-36600D01*
X17271Y-42499D01*
X17205Y-42527D01*
X17186Y-42545D01*
X17186Y-41005D01*
X17097Y-40789D01*
X16933Y-40625D01*
X16718Y-40535D01*
X16485Y-40535D01*
X16270Y-40624D01*
X16105Y-40789D01*
X16016Y-41003D01*
X16016Y-41236D01*
X16105Y-41451D01*
X16269Y-41616D01*
X16484Y-41705D01*
X16717Y-41705D01*
X16932Y-41617D01*
X17097Y-41452D01*
X17186Y-41237D01*
X17186Y-41005D01*
X17186Y-42545D01*
X17008Y-42723D01*
X16980Y-42790D01*
X12812Y-42790D01*
X12997Y-42714D01*
X13194Y-42517D01*
X13301Y-42260D01*
X13301Y-41982D01*
X13195Y-41724D01*
X13176Y-41705D01*
X13217Y-41705D01*
X13432Y-41617D01*
X13597Y-41452D01*
X13686Y-41237D01*
X13686Y-41005D01*
X13597Y-40789D01*
X13433Y-40625D01*
X13218Y-40535D01*
X12985Y-40535D01*
X12770Y-40624D01*
X12605Y-40789D01*
X12516Y-41003D01*
X12516Y-41236D01*
X12592Y-41420D01*
X12462Y-41420D01*
X12205Y-41527D01*
X12136Y-41595D01*
X12136Y-40915D01*
X11979Y-40535D01*
X11688Y-40243D01*
X11308Y-40086D01*
X10896Y-40085D01*
X10515Y-40242D01*
X10224Y-40533D01*
X10066Y-40914D01*
X10066Y-41325D01*
X10223Y-41706D01*
X10514Y-41997D01*
X10894Y-42155D01*
X11306Y-42156D01*
X11686Y-41998D01*
X11978Y-41707D01*
X12136Y-41327D01*
X12136Y-40915D01*
X12136Y-41595D01*
X12008Y-41723D01*
X11901Y-41981D01*
X11901Y-42259D01*
X12007Y-42516D01*
X12204Y-42713D01*
X12389Y-42790D01*
X10722Y-42790D01*
X10695Y-42724D01*
X10498Y-42527D01*
X10241Y-42420D01*
X9962Y-42420D01*
X9705Y-42527D01*
X9686Y-42545D01*
X9686Y-41005D01*
X9597Y-40789D01*
X9433Y-40625D01*
X9218Y-40535D01*
X8985Y-40535D01*
X8770Y-40624D01*
X8605Y-40789D01*
X8516Y-41003D01*
X8516Y-41236D01*
X8605Y-41451D01*
X8769Y-41616D01*
X8984Y-41705D01*
X9217Y-41705D01*
X9432Y-41617D01*
X9597Y-41452D01*
X9686Y-41237D01*
X9686Y-41005D01*
X9686Y-42545D01*
X9508Y-42723D01*
X9480Y-42790D01*
X5312Y-42790D01*
X5497Y-42714D01*
X5694Y-42517D01*
X5801Y-42260D01*
X5801Y-41982D01*
X5695Y-41724D01*
X5676Y-41705D01*
X5717Y-41705D01*
X5932Y-41617D01*
X6097Y-41452D01*
X6186Y-41237D01*
X6186Y-41005D01*
X6097Y-40789D01*
X5933Y-40625D01*
X5718Y-40535D01*
X5485Y-40535D01*
X5270Y-40624D01*
X5105Y-40789D01*
X5016Y-41003D01*
X5016Y-41236D01*
X5092Y-41420D01*
X4962Y-41420D01*
X4705Y-41527D01*
X4636Y-41595D01*
X4636Y-40915D01*
X4479Y-40535D01*
X4188Y-40243D01*
X3808Y-40086D01*
X3396Y-40085D01*
X3015Y-40242D01*
X2724Y-40533D01*
X2566Y-40914D01*
X2566Y-41325D01*
X2723Y-41706D01*
X3014Y-41997D01*
X3394Y-42155D01*
X3806Y-42156D01*
X4186Y-41998D01*
X4478Y-41707D01*
X4636Y-41327D01*
X4636Y-40915D01*
X4636Y-41595D01*
X4508Y-41723D01*
X4401Y-41981D01*
X4401Y-42259D01*
X4507Y-42516D01*
X4704Y-42713D01*
X4889Y-42790D01*
X3222Y-42790D01*
X3195Y-42724D01*
X2998Y-42527D01*
X2741Y-42420D01*
X2462Y-42420D01*
X2205Y-42527D01*
X2186Y-42545D01*
X2186Y-41005D01*
X2097Y-40789D01*
X1933Y-40625D01*
X1718Y-40535D01*
X1485Y-40535D01*
X1270Y-40624D01*
X1105Y-40789D01*
X1016Y-41003D01*
X1016Y-41236D01*
X1105Y-41451D01*
X1269Y-41616D01*
X1484Y-41705D01*
X1717Y-41705D01*
X1932Y-41617D01*
X2097Y-41452D01*
X2186Y-41237D01*
X2186Y-41005D01*
X2186Y-42545D01*
X2008Y-42723D01*
X1901Y-42981D01*
X1901Y-43259D01*
X2007Y-43516D01*
X2204Y-43713D01*
X2461Y-43820D01*
X2740Y-43820D01*
X2997Y-43714D01*
X3194Y-43517D01*
X3222Y-43450D01*
X9480Y-43450D01*
X9507Y-43516D01*
X9704Y-43713D01*
X9961Y-43820D01*
X10240Y-43820D01*
X10497Y-43714D01*
X10694Y-43517D01*
X10722Y-43450D01*
X16980Y-43450D01*
X17007Y-43516D01*
X17204Y-43713D01*
X17461Y-43820D01*
X17740Y-43820D01*
X17997Y-43714D01*
X18194Y-43517D01*
X18222Y-43450D01*
X24480Y-43450D01*
X24507Y-43516D01*
X24704Y-43713D01*
X24961Y-43820D01*
X25240Y-43820D01*
X25497Y-43714D01*
X25694Y-43517D01*
X25801Y-43260D01*
X25801Y-42982D01*
X25695Y-42724D01*
X25498Y-42527D01*
X25241Y-42420D01*
X24962Y-42420D01*
X24705Y-42527D01*
X24686Y-42545D01*
X24686Y-41005D01*
X24597Y-40789D01*
X24433Y-40625D01*
X24218Y-40535D01*
X23985Y-40535D01*
X23886Y-40576D01*
X23886Y-34365D01*
X23729Y-33985D01*
X23438Y-33693D01*
X23058Y-33536D01*
X22646Y-33535D01*
X22266Y-33692D01*
X21974Y-33983D01*
X21816Y-34364D01*
X21816Y-34775D01*
X21973Y-35156D01*
X22264Y-35447D01*
X22644Y-35605D01*
X23056Y-35606D01*
X23437Y-35448D01*
X23728Y-35157D01*
X23886Y-34777D01*
X23886Y-34365D01*
X23886Y-40576D01*
X23770Y-40624D01*
X23605Y-40789D01*
X23516Y-41003D01*
X23516Y-41236D01*
X23605Y-41451D01*
X23769Y-41616D01*
X23984Y-41705D01*
X24217Y-41705D01*
X24432Y-41617D01*
X24597Y-41452D01*
X24686Y-41237D01*
X24686Y-41005D01*
X24686Y-42545D01*
X24508Y-42723D01*
X24480Y-42790D01*
X20313Y-42790D01*
X20497Y-42714D01*
X20694Y-42517D01*
X20801Y-42260D01*
X20801Y-41982D01*
X20695Y-41724D01*
X20676Y-41705D01*
X20717Y-41705D01*
X20932Y-41617D01*
X21097Y-41452D01*
X21186Y-41237D01*
X21186Y-41005D01*
X21186Y-33505D01*
X21097Y-33289D01*
X20933Y-33125D01*
X20718Y-33035D01*
X20485Y-33035D01*
X20270Y-33124D01*
X20105Y-33289D01*
X20016Y-33503D01*
X20016Y-33736D01*
X20092Y-33920D01*
X19962Y-33920D01*
X19705Y-34027D01*
X19508Y-34223D01*
X19401Y-34481D01*
X19401Y-34759D01*
X19507Y-35016D01*
X19704Y-35213D01*
X19961Y-35320D01*
X20240Y-35320D01*
X20497Y-35214D01*
X20694Y-35017D01*
X20801Y-34760D01*
X20801Y-34482D01*
X20695Y-34224D01*
X20676Y-34205D01*
X20717Y-34205D01*
X20932Y-34117D01*
X21097Y-33952D01*
X21186Y-33737D01*
X21186Y-33505D01*
X21186Y-41005D01*
X21097Y-40789D01*
X20933Y-40625D01*
X20718Y-40535D01*
X20485Y-40535D01*
X20270Y-40624D01*
X20105Y-40789D01*
X20016Y-41003D01*
X20016Y-41236D01*
X20092Y-41420D01*
X19962Y-41420D01*
X19705Y-41527D01*
X19508Y-41723D01*
X19401Y-41981D01*
X19401Y-42259D01*
X19507Y-42516D01*
X19704Y-42713D01*
X19889Y-42790D01*
X18222Y-42790D01*
X18195Y-42724D01*
X17998Y-42527D01*
X17931Y-42499D01*
X17931Y-41914D01*
X18014Y-41997D01*
X18394Y-42155D01*
X18806Y-42156D01*
X19187Y-41998D01*
X19478Y-41707D01*
X19636Y-41327D01*
X19636Y-40915D01*
X19479Y-40535D01*
X19188Y-40243D01*
X18808Y-40086D01*
X18396Y-40085D01*
X18016Y-40242D01*
X17931Y-40327D01*
X17931Y-36737D01*
X18463Y-36205D01*
X18535Y-36098D01*
X18535Y-36098D01*
X18560Y-35972D01*
X18560Y-35386D01*
X18535Y-35260D01*
X18535Y-35260D01*
X18463Y-35153D01*
X17744Y-34434D01*
X17744Y-34227D01*
X18014Y-34497D01*
X18394Y-34655D01*
X18806Y-34656D01*
X19187Y-34498D01*
X19478Y-34207D01*
X19636Y-33827D01*
X19636Y-33415D01*
X19479Y-33035D01*
X19188Y-32743D01*
X18808Y-32586D01*
X18396Y-32585D01*
X18016Y-32742D01*
X17744Y-33013D01*
X17744Y-29250D01*
X17719Y-29123D01*
X17719Y-29123D01*
X17648Y-29016D01*
X17445Y-28813D01*
X17461Y-28820D01*
X17740Y-28820D01*
X17807Y-28793D01*
X20118Y-31104D01*
X20118Y-31104D01*
X20225Y-31175D01*
X20225Y-31175D01*
X20326Y-31195D01*
X20351Y-31200D01*
X20351Y-31200D01*
X20351Y-31200D01*
X27480Y-31200D01*
X27507Y-31266D01*
X27704Y-31463D01*
X27961Y-31570D01*
X28240Y-31570D01*
X28497Y-31464D01*
X28694Y-31267D01*
X28801Y-31010D01*
X28801Y-30732D01*
X28695Y-30474D01*
X28498Y-30277D01*
X28241Y-30170D01*
X27962Y-30170D01*
X27801Y-30237D01*
X27801Y-28232D01*
X27695Y-27974D01*
X27498Y-27777D01*
X27241Y-27670D01*
X27136Y-27670D01*
X27136Y-14665D01*
X26979Y-14285D01*
X26688Y-13993D01*
X26308Y-13836D01*
X25896Y-13835D01*
X25516Y-13992D01*
X25224Y-14283D01*
X25066Y-14664D01*
X25066Y-15075D01*
X25223Y-15456D01*
X25514Y-15747D01*
X25894Y-15905D01*
X26306Y-15906D01*
X26687Y-15748D01*
X26978Y-15457D01*
X27136Y-15077D01*
X27136Y-14665D01*
X27136Y-27670D01*
X26962Y-27670D01*
X26705Y-27777D01*
X26686Y-27795D01*
X26686Y-27755D01*
X26686Y-16755D01*
X26597Y-16539D01*
X26433Y-16375D01*
X26218Y-16285D01*
X25985Y-16285D01*
X25770Y-16374D01*
X25605Y-16539D01*
X25516Y-16753D01*
X25516Y-16986D01*
X25605Y-17201D01*
X25769Y-17366D01*
X25984Y-17455D01*
X26217Y-17455D01*
X26432Y-17367D01*
X26597Y-17202D01*
X26686Y-16987D01*
X26686Y-16755D01*
X26686Y-27755D01*
X26597Y-27539D01*
X26433Y-27375D01*
X26218Y-27285D01*
X25985Y-27285D01*
X25770Y-27374D01*
X25605Y-27539D01*
X25516Y-27753D01*
X25516Y-27986D01*
X25605Y-28201D01*
X25769Y-28366D01*
X25984Y-28455D01*
X26217Y-28455D01*
X26401Y-28379D01*
X26401Y-28509D01*
X26507Y-28766D01*
X26704Y-28963D01*
X26961Y-29070D01*
X27240Y-29070D01*
X27497Y-28964D01*
X27694Y-28767D01*
X27801Y-28510D01*
X27801Y-28232D01*
X27801Y-30237D01*
X27705Y-30277D01*
X27508Y-30473D01*
X27480Y-30540D01*
X26895Y-30540D01*
X26978Y-30457D01*
X27136Y-30077D01*
X27136Y-29665D01*
X26979Y-29285D01*
X26688Y-28993D01*
X26308Y-28836D01*
X25896Y-28835D01*
X25516Y-28992D01*
X25452Y-29056D01*
X25452Y-21234D01*
X25384Y-21070D01*
X25335Y-21021D01*
X25335Y-17432D01*
X25384Y-17383D01*
X25452Y-17219D01*
X25452Y-17041D01*
X25384Y-16877D01*
X25259Y-16751D01*
X25095Y-16683D01*
X24917Y-16683D01*
X24752Y-16751D01*
X24627Y-16876D01*
X24559Y-17040D01*
X24558Y-17218D01*
X24626Y-17382D01*
X24675Y-17431D01*
X24675Y-21021D01*
X24627Y-21069D01*
X24559Y-21233D01*
X24558Y-21411D01*
X24626Y-21575D01*
X24752Y-21701D01*
X24916Y-21769D01*
X25094Y-21769D01*
X25258Y-21702D01*
X25384Y-21576D01*
X25452Y-21412D01*
X25452Y-21234D01*
X25452Y-29056D01*
X25224Y-29283D01*
X25066Y-29664D01*
X25066Y-30075D01*
X25223Y-30456D01*
X25307Y-30540D01*
X21186Y-30540D01*
X21186Y-26005D01*
X21097Y-25789D01*
X20933Y-25625D01*
X20718Y-25535D01*
X20485Y-25535D01*
X20270Y-25624D01*
X20105Y-25789D01*
X20016Y-26003D01*
X20016Y-26236D01*
X20092Y-26420D01*
X19962Y-26420D01*
X19705Y-26527D01*
X19508Y-26723D01*
X19401Y-26981D01*
X19401Y-27259D01*
X19507Y-27516D01*
X19704Y-27713D01*
X19961Y-27820D01*
X20240Y-27820D01*
X20497Y-27714D01*
X20694Y-27517D01*
X20801Y-27260D01*
X20801Y-26982D01*
X20695Y-26724D01*
X20676Y-26705D01*
X20717Y-26705D01*
X20932Y-26617D01*
X21097Y-26452D01*
X21186Y-26237D01*
X21186Y-26005D01*
X21186Y-30540D01*
X20488Y-30540D01*
X18274Y-28326D01*
X18301Y-28260D01*
X18301Y-27982D01*
X18195Y-27724D01*
X17998Y-27527D01*
X17741Y-27420D01*
X17534Y-27420D01*
X17641Y-27314D01*
X17641Y-27314D01*
X17641Y-27314D01*
X17712Y-27207D01*
X17712Y-27207D01*
X17738Y-27080D01*
X17738Y-27080D01*
X17738Y-26720D01*
X18014Y-26997D01*
X18394Y-27155D01*
X18806Y-27156D01*
X19187Y-26998D01*
X19478Y-26707D01*
X19636Y-26327D01*
X19636Y-25915D01*
X19479Y-25535D01*
X19188Y-25243D01*
X18808Y-25086D01*
X18396Y-25085D01*
X18016Y-25242D01*
X17738Y-25520D01*
X17738Y-24415D01*
X17779Y-24433D01*
X17957Y-24433D01*
X18121Y-24365D01*
X18247Y-24239D01*
X18315Y-24075D01*
X18316Y-24006D01*
X21135Y-21187D01*
X21135Y-24940D01*
X21086Y-24988D01*
X21018Y-25152D01*
X21018Y-25330D01*
X21085Y-25494D01*
X21211Y-25620D01*
X21375Y-25688D01*
X21553Y-25688D01*
X21717Y-25621D01*
X21843Y-25495D01*
X21854Y-25468D01*
X21973Y-25756D01*
X22264Y-26047D01*
X22644Y-26205D01*
X23056Y-26206D01*
X23437Y-26048D01*
X23728Y-25757D01*
X23886Y-25377D01*
X23886Y-24965D01*
X23886Y-19365D01*
X23729Y-18985D01*
X23438Y-18693D01*
X23058Y-18536D01*
X22646Y-18535D01*
X22266Y-18692D01*
X21974Y-18983D01*
X21816Y-19364D01*
X21816Y-19775D01*
X21973Y-20156D01*
X22264Y-20447D01*
X22644Y-20605D01*
X23056Y-20606D01*
X23437Y-20448D01*
X23728Y-20157D01*
X23886Y-19777D01*
X23886Y-19365D01*
X23886Y-24965D01*
X23729Y-24585D01*
X23438Y-24293D01*
X23058Y-24136D01*
X22646Y-24135D01*
X22266Y-24292D01*
X21974Y-24583D01*
X21817Y-24962D01*
X21795Y-24940D01*
X21795Y-16911D01*
X21843Y-16862D01*
X21911Y-16698D01*
X21911Y-16520D01*
X21844Y-16356D01*
X21720Y-16233D01*
X24839Y-13114D01*
X24839Y-13114D01*
X24839Y-13114D01*
X24910Y-13007D01*
X24910Y-13007D01*
X24936Y-12881D01*
X24936Y-7386D01*
X27463Y-9914D01*
X27463Y-12763D01*
X27241Y-12670D01*
X26962Y-12670D01*
X26705Y-12777D01*
X26686Y-12795D01*
X26686Y-12755D01*
X26597Y-12539D01*
X26433Y-12375D01*
X26218Y-12285D01*
X25985Y-12285D01*
X25770Y-12374D01*
X25605Y-12539D01*
X25516Y-12753D01*
X25516Y-12986D01*
X25605Y-13201D01*
X25769Y-13366D01*
X25984Y-13455D01*
X26217Y-13455D01*
X26401Y-13379D01*
X26401Y-13509D01*
X26507Y-13766D01*
X26704Y-13963D01*
X26961Y-14070D01*
X27240Y-14070D01*
X27463Y-13978D01*
X27463Y-15563D01*
X27466Y-15575D01*
X27401Y-15731D01*
X27401Y-16009D01*
X27507Y-16266D01*
X27704Y-16463D01*
X27961Y-16570D01*
X28240Y-16570D01*
X28497Y-16464D01*
X28694Y-16267D01*
X28801Y-16010D01*
X28801Y-15732D01*
X28695Y-15474D01*
X28498Y-15277D01*
X28241Y-15170D01*
X28123Y-15170D01*
X28123Y-10635D01*
X28130Y-10651D01*
X28369Y-10891D01*
X28681Y-11020D01*
X29019Y-11021D01*
X29332Y-10891D01*
X29431Y-10792D01*
X29431Y-18949D01*
X29333Y-18850D01*
X29021Y-18721D01*
X28683Y-18720D01*
X28370Y-18849D01*
X28131Y-19088D01*
X28001Y-19401D01*
X28001Y-19739D01*
X28130Y-20051D01*
X28369Y-20291D01*
X28681Y-20420D01*
X29019Y-20421D01*
X29332Y-20291D01*
X29431Y-20192D01*
X29431Y-24549D01*
X29333Y-24450D01*
X29021Y-24321D01*
X28683Y-24320D01*
X28370Y-24449D01*
X28131Y-24688D01*
X28001Y-25001D01*
X28001Y-25339D01*
X28130Y-25651D01*
X28369Y-25891D01*
X28681Y-26020D01*
X29019Y-26021D01*
X29332Y-25891D01*
X29431Y-25792D01*
X29431Y-33949D01*
X29333Y-33850D01*
X29021Y-33721D01*
X28683Y-33720D01*
X28370Y-33849D01*
X28131Y-34088D01*
X28001Y-34401D01*
X28001Y-34739D01*
X28130Y-35051D01*
X28369Y-35291D01*
X28681Y-35420D01*
X29019Y-35421D01*
X29332Y-35291D01*
X29431Y-35192D01*
X29431Y-43926D01*
X29431Y-43926D01*
G37*
G54D24*
X29431Y-43926D02*
X29408Y-43918D01*
X29230Y-43931D01*
X29125Y-43975D01*
X29110Y-44059D01*
X29351Y-44300D01*
X29356Y-44294D01*
X29427Y-44365D01*
X29421Y-44370D01*
X29427Y-44376D01*
X29356Y-44447D01*
X29351Y-44441D01*
X29345Y-44447D01*
X29274Y-44376D01*
X29280Y-44370D01*
X29040Y-44130D01*
X28955Y-44145D01*
X28899Y-44313D01*
X28908Y-44451D01*
X28686Y-44451D01*
X28686Y-41005D01*
X28597Y-40789D01*
X28433Y-40625D01*
X28218Y-40535D01*
X27985Y-40535D01*
X27770Y-40624D01*
X27605Y-40789D01*
X27516Y-41003D01*
X27516Y-41236D01*
X27592Y-41420D01*
X27462Y-41420D01*
X27205Y-41527D01*
X27136Y-41595D01*
X27136Y-40915D01*
X26979Y-40535D01*
X26688Y-40243D01*
X26686Y-40243D01*
X26686Y-31755D01*
X26597Y-31539D01*
X26433Y-31375D01*
X26218Y-31285D01*
X25985Y-31285D01*
X25770Y-31374D01*
X25605Y-31539D01*
X25516Y-31753D01*
X25516Y-31986D01*
X25605Y-32201D01*
X25769Y-32366D01*
X25984Y-32455D01*
X26217Y-32455D01*
X26432Y-32367D01*
X26597Y-32202D01*
X26686Y-31987D01*
X26686Y-31755D01*
X26686Y-40243D01*
X26308Y-40086D01*
X25896Y-40085D01*
X25516Y-40242D01*
X25224Y-40533D01*
X25066Y-40914D01*
X25066Y-41325D01*
X25223Y-41706D01*
X25514Y-41997D01*
X25894Y-42155D01*
X26306Y-42156D01*
X26687Y-41998D01*
X26978Y-41707D01*
X27136Y-41327D01*
X27136Y-40915D01*
X27136Y-41595D01*
X27008Y-41723D01*
X26901Y-41981D01*
X26901Y-42259D01*
X27007Y-42516D01*
X27204Y-42713D01*
X27461Y-42820D01*
X27740Y-42820D01*
X27997Y-42714D01*
X28194Y-42517D01*
X28301Y-42260D01*
X28301Y-41982D01*
X28195Y-41724D01*
X28176Y-41705D01*
X28217Y-41705D01*
X28432Y-41617D01*
X28597Y-41452D01*
X28686Y-41237D01*
X28686Y-41005D01*
X28686Y-44451D01*
X795Y-44451D01*
X803Y-44427D01*
X790Y-44250D01*
X747Y-44145D01*
X662Y-44130D01*
X422Y-44370D01*
X427Y-44376D01*
X356Y-44447D01*
X351Y-44441D01*
X345Y-44447D01*
X275Y-44376D01*
X280Y-44370D01*
X275Y-44365D01*
X345Y-44294D01*
X351Y-44300D01*
X591Y-44059D01*
X577Y-43975D01*
X408Y-43918D01*
X270Y-43928D01*
X270Y-23478D01*
X1601Y-23478D01*
X2074Y-23385D01*
X2474Y-23117D01*
X2742Y-22716D01*
X2836Y-22244D01*
X2742Y-21772D01*
X2474Y-21371D01*
X2295Y-21251D01*
X2461Y-21320D01*
X2740Y-21320D01*
X2997Y-21214D01*
X3194Y-21017D01*
X3301Y-20760D01*
X3301Y-20482D01*
X3195Y-20224D01*
X2998Y-20027D01*
X2741Y-19920D01*
X2462Y-19920D01*
X2205Y-20027D01*
X2186Y-20045D01*
X2186Y-18505D01*
X2097Y-18289D01*
X1933Y-18125D01*
X1718Y-18035D01*
X1485Y-18035D01*
X1270Y-18124D01*
X1105Y-18289D01*
X1016Y-18503D01*
X1016Y-18736D01*
X1105Y-18951D01*
X1269Y-19116D01*
X1484Y-19205D01*
X1717Y-19205D01*
X1932Y-19117D01*
X2097Y-18952D01*
X2186Y-18737D01*
X2186Y-18505D01*
X2186Y-20045D01*
X2008Y-20223D01*
X1901Y-20481D01*
X1901Y-20759D01*
X2007Y-21016D01*
X2135Y-21144D01*
X2074Y-21103D01*
X1601Y-21009D01*
X270Y-21009D01*
X270Y-766D01*
X294Y-774D01*
X471Y-761D01*
X577Y-717D01*
X591Y-633D01*
X351Y-392D01*
X345Y-398D01*
X275Y-327D01*
X280Y-322D01*
X275Y-316D01*
X345Y-245D01*
X351Y-251D01*
X356Y-245D01*
X427Y-316D01*
X422Y-322D01*
X662Y-562D01*
X747Y-547D01*
X803Y-379D01*
X793Y-240D01*
X28923Y-240D01*
X28899Y-313D01*
X28911Y-491D01*
X28955Y-596D01*
X29040Y-611D01*
X29280Y-371D01*
X29274Y-365D01*
X29345Y-294D01*
X29351Y-300D01*
X29356Y-294D01*
X29427Y-365D01*
X29421Y-371D01*
X29427Y-376D01*
X29356Y-447D01*
X29351Y-441D01*
X29110Y-682D01*
X29125Y-766D01*
X29294Y-823D01*
X29431Y-813D01*
X29431Y-9549D01*
X29333Y-9450D01*
X29021Y-9321D01*
X28686Y-9320D01*
X28686Y-3506D01*
X28597Y-3291D01*
X28433Y-3126D01*
X28218Y-3037D01*
X27985Y-3036D01*
X27770Y-3125D01*
X27605Y-3290D01*
X27516Y-3505D01*
X27516Y-3737D01*
X27592Y-3922D01*
X27466Y-3921D01*
X27466Y-1621D01*
X27441Y-1494D01*
X27370Y-1387D01*
X27262Y-1316D01*
X27164Y-1296D01*
X27043Y-1115D01*
X26840Y-980D01*
X26601Y-932D01*
X26362Y-980D01*
X26202Y-1087D01*
X26188Y-1054D01*
X26118Y-984D01*
X26026Y-946D01*
X25927Y-946D01*
X25177Y-946D01*
X25085Y-983D01*
X25014Y-1054D01*
X24976Y-1146D01*
X24976Y-1245D01*
X24976Y-2095D01*
X25014Y-2187D01*
X25084Y-2257D01*
X25176Y-2296D01*
X25276Y-2296D01*
X26026Y-2296D01*
X26118Y-2258D01*
X26188Y-2187D01*
X26202Y-2154D01*
X26362Y-2261D01*
X26601Y-2309D01*
X26806Y-2268D01*
X26806Y-2863D01*
X26688Y-2745D01*
X26308Y-2587D01*
X25896Y-2586D01*
X25516Y-2744D01*
X25224Y-3035D01*
X25066Y-3415D01*
X25066Y-3827D01*
X25223Y-4207D01*
X25514Y-4498D01*
X25894Y-4656D01*
X26306Y-4657D01*
X26660Y-4511D01*
X26660Y-6763D01*
X26622Y-6800D01*
X26536Y-7008D01*
X26536Y-7232D01*
X26622Y-7440D01*
X26781Y-7599D01*
X26988Y-7685D01*
X27213Y-7686D01*
X27421Y-7600D01*
X27580Y-7441D01*
X27666Y-7233D01*
X27666Y-7009D01*
X27580Y-6801D01*
X27422Y-6642D01*
X27320Y-6600D01*
X27320Y-5263D01*
X27461Y-5321D01*
X27740Y-5322D01*
X27997Y-5215D01*
X28194Y-5019D01*
X28301Y-4761D01*
X28301Y-4483D01*
X28195Y-4226D01*
X28176Y-4207D01*
X28217Y-4207D01*
X28432Y-4118D01*
X28597Y-3953D01*
X28686Y-3738D01*
X28686Y-3506D01*
X28686Y-9320D01*
X28683Y-9320D01*
X28370Y-9449D01*
X28131Y-9688D01*
X28114Y-9729D01*
X28098Y-9651D01*
X28098Y-9651D01*
X28027Y-9544D01*
X28027Y-9544D01*
X25801Y-7318D01*
X25801Y-5483D01*
X25695Y-5226D01*
X25498Y-5028D01*
X25241Y-4922D01*
X24962Y-4921D01*
X24705Y-5028D01*
X24686Y-5047D01*
X24686Y-3506D01*
X24597Y-3291D01*
X24433Y-3126D01*
X24218Y-3037D01*
X23985Y-3036D01*
X23770Y-3125D01*
X23605Y-3290D01*
X23516Y-3505D01*
X23516Y-3737D01*
X23605Y-3952D01*
X23769Y-4117D01*
X23984Y-4206D01*
X24217Y-4207D01*
X24432Y-4118D01*
X24597Y-3953D01*
X24686Y-3738D01*
X24686Y-3506D01*
X24686Y-5047D01*
X24508Y-5225D01*
X24401Y-5482D01*
X24401Y-5760D01*
X24507Y-6018D01*
X24704Y-6215D01*
X24961Y-6321D01*
X25240Y-6322D01*
X25497Y-6215D01*
X25694Y-6019D01*
X25801Y-5761D01*
X25801Y-5483D01*
X25801Y-7318D01*
X24639Y-6156D01*
X24532Y-6084D01*
X24406Y-6059D01*
X22136Y-6059D01*
X22010Y-6084D01*
X21903Y-6156D01*
X21903Y-6156D01*
X21186Y-6872D01*
X21186Y-3506D01*
X21097Y-3291D01*
X20933Y-3126D01*
X20718Y-3037D01*
X20485Y-3036D01*
X20270Y-3125D01*
X20105Y-3290D01*
X20016Y-3505D01*
X20016Y-3737D01*
X20092Y-3922D01*
X19966Y-3921D01*
X19966Y-1621D01*
X19941Y-1494D01*
X19870Y-1387D01*
X19762Y-1316D01*
X19664Y-1296D01*
X19543Y-1115D01*
X19340Y-980D01*
X19101Y-932D01*
X18862Y-980D01*
X18702Y-1087D01*
X18688Y-1054D01*
X18618Y-984D01*
X18526Y-946D01*
X18427Y-946D01*
X17677Y-946D01*
X17585Y-983D01*
X17514Y-1054D01*
X17476Y-1146D01*
X17476Y-1245D01*
X17476Y-2095D01*
X17514Y-2187D01*
X17584Y-2257D01*
X17676Y-2296D01*
X17776Y-2296D01*
X18526Y-2296D01*
X18618Y-2258D01*
X18688Y-2187D01*
X18702Y-2154D01*
X18862Y-2261D01*
X19101Y-2309D01*
X19306Y-2268D01*
X19306Y-2863D01*
X19188Y-2745D01*
X18808Y-2587D01*
X18396Y-2586D01*
X18016Y-2744D01*
X17724Y-3035D01*
X17566Y-3415D01*
X17566Y-3827D01*
X17723Y-4207D01*
X18014Y-4498D01*
X18394Y-4656D01*
X18771Y-4657D01*
X18771Y-6652D01*
X18622Y-6800D01*
X18536Y-7008D01*
X18536Y-7232D01*
X18622Y-7440D01*
X18781Y-7599D01*
X18988Y-7685D01*
X19213Y-7686D01*
X19421Y-7600D01*
X19580Y-7441D01*
X19666Y-7233D01*
X19666Y-7009D01*
X19580Y-6801D01*
X19431Y-6651D01*
X19431Y-4833D01*
X19507Y-5018D01*
X19704Y-5215D01*
X19961Y-5321D01*
X20240Y-5322D01*
X20497Y-5215D01*
X20694Y-5019D01*
X20801Y-4761D01*
X20801Y-4483D01*
X20695Y-4226D01*
X20676Y-4207D01*
X20717Y-4207D01*
X20932Y-4118D01*
X21097Y-3953D01*
X21186Y-3738D01*
X21186Y-3506D01*
X21186Y-6872D01*
X19331Y-8727D01*
X19260Y-8834D01*
X19235Y-8960D01*
X19235Y-10290D01*
X19188Y-10244D01*
X18808Y-10086D01*
X18396Y-10085D01*
X18016Y-10243D01*
X17724Y-10534D01*
X17566Y-10914D01*
X17566Y-11326D01*
X17723Y-11706D01*
X18014Y-11997D01*
X18394Y-12155D01*
X18436Y-12155D01*
X18031Y-12561D01*
X17998Y-12527D01*
X17741Y-12421D01*
X17462Y-12420D01*
X17205Y-12527D01*
X17008Y-12724D01*
X16901Y-12981D01*
X16901Y-13259D01*
X17007Y-13517D01*
X17204Y-13714D01*
X17461Y-13820D01*
X17740Y-13821D01*
X17997Y-13714D01*
X18194Y-13518D01*
X18301Y-13260D01*
X18301Y-13224D01*
X19401Y-12124D01*
X19401Y-12259D01*
X19507Y-12517D01*
X19704Y-12714D01*
X19961Y-12820D01*
X20240Y-12821D01*
X20497Y-12714D01*
X20694Y-12518D01*
X20801Y-12260D01*
X20801Y-11982D01*
X20695Y-11725D01*
X20676Y-11706D01*
X20717Y-11706D01*
X20932Y-11617D01*
X21097Y-11452D01*
X21186Y-11237D01*
X21186Y-11005D01*
X21097Y-10790D01*
X20933Y-10625D01*
X20718Y-10536D01*
X20485Y-10535D01*
X20270Y-10624D01*
X20105Y-10789D01*
X20016Y-11004D01*
X20016Y-11236D01*
X20092Y-11421D01*
X19962Y-11420D01*
X19895Y-11448D01*
X19895Y-9097D01*
X21601Y-7391D01*
X21622Y-7440D01*
X21781Y-7599D01*
X21988Y-7685D01*
X22213Y-7686D01*
X22421Y-7600D01*
X22580Y-7441D01*
X22666Y-7233D01*
X22666Y-7022D01*
X22729Y-6959D01*
X23556Y-6959D01*
X23536Y-7008D01*
X23536Y-7232D01*
X23622Y-7440D01*
X23771Y-7590D01*
X23771Y-9687D01*
X23729Y-9585D01*
X23438Y-9293D01*
X23058Y-9136D01*
X22646Y-9135D01*
X22266Y-9292D01*
X21974Y-9583D01*
X21816Y-9964D01*
X21816Y-10375D01*
X21973Y-10756D01*
X22264Y-11047D01*
X22644Y-11205D01*
X23035Y-11206D01*
X16946Y-17294D01*
X16875Y-17401D01*
X16850Y-17528D01*
X16850Y-18090D01*
X16718Y-18035D01*
X16485Y-18035D01*
X16336Y-18097D01*
X16336Y-11644D01*
X16484Y-11705D01*
X16717Y-11706D01*
X16932Y-11617D01*
X17097Y-11452D01*
X17186Y-11237D01*
X17186Y-11005D01*
X17097Y-10790D01*
X16933Y-10625D01*
X16718Y-10536D01*
X16485Y-10535D01*
X16336Y-10597D01*
X16336Y-8525D01*
X16311Y-8399D01*
X16311Y-8399D01*
X16239Y-8292D01*
X16239Y-8292D01*
X15166Y-7219D01*
X15166Y-7009D01*
X15080Y-6801D01*
X14921Y-6642D01*
X14714Y-6556D01*
X14489Y-6556D01*
X14281Y-6641D01*
X14122Y-6800D01*
X14036Y-7008D01*
X14036Y-7232D01*
X14122Y-7440D01*
X14280Y-7599D01*
X14488Y-7685D01*
X14699Y-7686D01*
X15676Y-8662D01*
X15676Y-16950D01*
X14676Y-15950D01*
X14676Y-15881D01*
X14608Y-15717D01*
X14482Y-15591D01*
X14318Y-15523D01*
X14140Y-15522D01*
X13976Y-15590D01*
X13933Y-15633D01*
X13933Y-8267D01*
X13933Y-8267D01*
X13933Y-8267D01*
X13928Y-8242D01*
X13908Y-8141D01*
X13908Y-8141D01*
X13836Y-8034D01*
X13836Y-8034D01*
X13149Y-7347D01*
X13149Y-7278D01*
X13081Y-7114D01*
X12992Y-7024D01*
X14065Y-5952D01*
X16980Y-5952D01*
X17007Y-6018D01*
X17204Y-6215D01*
X17461Y-6321D01*
X17740Y-6322D01*
X17997Y-6215D01*
X18194Y-6019D01*
X18301Y-5761D01*
X18301Y-5483D01*
X18195Y-5226D01*
X17998Y-5028D01*
X17741Y-4922D01*
X17462Y-4921D01*
X17205Y-5028D01*
X17186Y-5047D01*
X17186Y-3506D01*
X17097Y-3291D01*
X16933Y-3126D01*
X16718Y-3037D01*
X16485Y-3036D01*
X16270Y-3125D01*
X16105Y-3290D01*
X16016Y-3505D01*
X16016Y-3737D01*
X16105Y-3952D01*
X16269Y-4117D01*
X16484Y-4206D01*
X16717Y-4207D01*
X16932Y-4118D01*
X17097Y-3953D01*
X17186Y-3738D01*
X17186Y-3506D01*
X17186Y-5047D01*
X17008Y-5225D01*
X16980Y-5292D01*
X13928Y-5292D01*
X13802Y-5317D01*
X13695Y-5388D01*
X12139Y-6944D01*
X12080Y-6801D01*
X11931Y-6651D01*
X11931Y-4832D01*
X12007Y-5017D01*
X12204Y-5214D01*
X12461Y-5320D01*
X12740Y-5321D01*
X12997Y-5214D01*
X13194Y-5018D01*
X13301Y-4760D01*
X13301Y-4482D01*
X13195Y-4225D01*
X13176Y-4206D01*
X13217Y-4206D01*
X13432Y-4117D01*
X13597Y-3952D01*
X13686Y-3737D01*
X13686Y-3505D01*
X13597Y-3290D01*
X13433Y-3125D01*
X13218Y-3036D01*
X12985Y-3035D01*
X12770Y-3124D01*
X12605Y-3289D01*
X12516Y-3504D01*
X12516Y-3736D01*
X12592Y-3921D01*
X12466Y-3920D01*
X12466Y-1621D01*
X12441Y-1494D01*
X12369Y-1387D01*
X12262Y-1316D01*
X12164Y-1296D01*
X12043Y-1115D01*
X11840Y-980D01*
X11601Y-932D01*
X11362Y-980D01*
X11202Y-1087D01*
X11188Y-1054D01*
X11118Y-984D01*
X11026Y-946D01*
X10926Y-946D01*
X10176Y-946D01*
X10084Y-983D01*
X10014Y-1054D01*
X10002Y-1082D01*
X9668Y-748D01*
X9555Y-672D01*
X9421Y-645D01*
X3726Y-645D01*
X3726Y-645D01*
X3592Y-672D01*
X3479Y-748D01*
X3479Y-748D01*
X3281Y-946D01*
X2676Y-946D01*
X2584Y-983D01*
X2514Y-1054D01*
X2476Y-1146D01*
X2476Y-1245D01*
X2476Y-2095D01*
X2514Y-2187D01*
X2584Y-2257D01*
X2676Y-2296D01*
X2775Y-2296D01*
X3102Y-2296D01*
X2100Y-3297D01*
X2097Y-3290D01*
X1933Y-3125D01*
X1718Y-3036D01*
X1485Y-3035D01*
X1270Y-3124D01*
X1105Y-3289D01*
X1016Y-3504D01*
X1016Y-3736D01*
X1105Y-3952D01*
X1269Y-4116D01*
X1484Y-4205D01*
X1717Y-4206D01*
X1906Y-4127D01*
X868Y-5166D01*
X796Y-5273D01*
X771Y-5400D01*
X771Y-6652D01*
X622Y-6800D01*
X536Y-7008D01*
X536Y-7232D01*
X622Y-7440D01*
X780Y-7599D01*
X988Y-7685D01*
X1213Y-7686D01*
X1420Y-7600D01*
X1580Y-7441D01*
X1666Y-7233D01*
X1666Y-7009D01*
X1580Y-6801D01*
X1431Y-6651D01*
X1431Y-5536D01*
X2516Y-4451D01*
X2588Y-4344D01*
X2588Y-4344D01*
X2613Y-4218D01*
X2613Y-3939D01*
X2723Y-4206D01*
X3014Y-4497D01*
X3394Y-4655D01*
X3806Y-4656D01*
X4186Y-4499D01*
X4478Y-4208D01*
X4636Y-3827D01*
X4636Y-3416D01*
X4479Y-3035D01*
X4188Y-2744D01*
X3808Y-2586D01*
X3745Y-2586D01*
X3795Y-2536D01*
X4101Y-2536D01*
X4227Y-2511D01*
X4334Y-2439D01*
X4406Y-2332D01*
X4431Y-2206D01*
X4431Y-2201D01*
X4543Y-2126D01*
X4678Y-1923D01*
X4726Y-1684D01*
X4726Y-1557D01*
X4684Y-1345D01*
X5910Y-1345D01*
X5872Y-1438D01*
X5871Y-1608D01*
X5936Y-1765D01*
X6056Y-1885D01*
X6213Y-1950D01*
X6383Y-1950D01*
X6540Y-1885D01*
X6661Y-1765D01*
X6726Y-1608D01*
X6726Y-1439D01*
X6687Y-1345D01*
X7642Y-1345D01*
X7604Y-1438D01*
X7604Y-1608D01*
X7669Y-1765D01*
X7789Y-1885D01*
X7946Y-1950D01*
X8116Y-1950D01*
X8273Y-1885D01*
X8393Y-1765D01*
X8458Y-1608D01*
X8458Y-1439D01*
X8420Y-1345D01*
X9276Y-1345D01*
X9741Y-1811D01*
X9741Y-4549D01*
X9686Y-4604D01*
X9686Y-3505D01*
X9597Y-3290D01*
X9433Y-3125D01*
X9218Y-3036D01*
X8985Y-3035D01*
X8770Y-3124D01*
X8605Y-3289D01*
X8516Y-3504D01*
X8516Y-3736D01*
X8605Y-3952D01*
X8769Y-4116D01*
X8984Y-4205D01*
X9217Y-4206D01*
X9432Y-4117D01*
X9597Y-3952D01*
X9686Y-3737D01*
X9686Y-3505D01*
X9686Y-4604D01*
X9217Y-5073D01*
X9141Y-5187D01*
X9114Y-5321D01*
X9114Y-10536D01*
X8985Y-10535D01*
X8770Y-10624D01*
X8605Y-10789D01*
X8516Y-11004D01*
X8516Y-11069D01*
X4666Y-7219D01*
X4666Y-7084D01*
X4702Y-7172D01*
X4828Y-7297D01*
X4992Y-7366D01*
X5170Y-7366D01*
X5334Y-7298D01*
X5460Y-7172D01*
X5528Y-7008D01*
X5528Y-6830D01*
X5460Y-6666D01*
X5335Y-6540D01*
X5171Y-6472D01*
X5101Y-6472D01*
X5029Y-6400D01*
X4974Y-6363D01*
X5043Y-6294D01*
X5111Y-6130D01*
X5111Y-5952D01*
X5043Y-5788D01*
X4994Y-5739D01*
X4994Y-5320D01*
X5240Y-5321D01*
X5497Y-5214D01*
X5694Y-5018D01*
X5801Y-4760D01*
X5801Y-4482D01*
X5695Y-4225D01*
X5676Y-4206D01*
X5717Y-4206D01*
X5932Y-4117D01*
X6097Y-3952D01*
X6186Y-3737D01*
X6186Y-3505D01*
X6097Y-3290D01*
X5933Y-3125D01*
X5718Y-3036D01*
X5485Y-3035D01*
X5270Y-3124D01*
X5105Y-3289D01*
X5016Y-3504D01*
X5016Y-3736D01*
X5092Y-3921D01*
X4962Y-3920D01*
X4705Y-4027D01*
X4508Y-4224D01*
X4401Y-4481D01*
X4401Y-4759D01*
X4429Y-4827D01*
X4359Y-4931D01*
X4334Y-5057D01*
X4334Y-5739D01*
X4286Y-5787D01*
X4217Y-5951D01*
X4217Y-6129D01*
X4285Y-6293D01*
X4295Y-6303D01*
X3897Y-6303D01*
X3897Y-6303D01*
X3872Y-6308D01*
X3770Y-6329D01*
X3663Y-6400D01*
X3663Y-6400D01*
X3359Y-6704D01*
X3301Y-6792D01*
X3301Y-5482D01*
X3195Y-5225D01*
X2998Y-5027D01*
X2741Y-4921D01*
X2462Y-4920D01*
X2205Y-5027D01*
X2008Y-5224D01*
X1901Y-5481D01*
X1901Y-5759D01*
X2007Y-6017D01*
X2204Y-6214D01*
X2461Y-6320D01*
X2740Y-6321D01*
X2997Y-6214D01*
X3194Y-6018D01*
X3301Y-5760D01*
X3301Y-5482D01*
X3301Y-6792D01*
X3288Y-6811D01*
X3263Y-6937D01*
X3263Y-7562D01*
X3288Y-7688D01*
X3359Y-7795D01*
X7357Y-11793D01*
X7357Y-26278D01*
X7309Y-26326D01*
X7241Y-26491D01*
X7240Y-26668D01*
X7308Y-26833D01*
X7434Y-26958D01*
X7598Y-27027D01*
X7776Y-27027D01*
X7940Y-26959D01*
X8031Y-26868D01*
X8031Y-37130D01*
X8036Y-37155D01*
X8036Y-37155D01*
X7997Y-37250D01*
X7997Y-37490D01*
X8031Y-37574D01*
X6186Y-37574D01*
X6186Y-33505D01*
X6186Y-26005D01*
X6186Y-18505D01*
X6186Y-11005D01*
X6097Y-10790D01*
X5933Y-10625D01*
X5718Y-10536D01*
X5485Y-10535D01*
X5270Y-10624D01*
X5105Y-10789D01*
X5016Y-11004D01*
X5016Y-11236D01*
X5092Y-11421D01*
X4962Y-11420D01*
X4705Y-11527D01*
X4636Y-11595D01*
X4636Y-10916D01*
X4479Y-10535D01*
X4188Y-10244D01*
X3808Y-10086D01*
X3396Y-10085D01*
X3015Y-10243D01*
X2724Y-10534D01*
X2566Y-10914D01*
X2566Y-11326D01*
X2723Y-11706D01*
X3014Y-11997D01*
X3394Y-12155D01*
X3806Y-12156D01*
X4186Y-11999D01*
X4478Y-11708D01*
X4636Y-11327D01*
X4636Y-10916D01*
X4636Y-11595D01*
X4508Y-11724D01*
X4401Y-11981D01*
X4401Y-12259D01*
X4507Y-12517D01*
X4704Y-12714D01*
X4961Y-12820D01*
X5240Y-12821D01*
X5497Y-12714D01*
X5694Y-12518D01*
X5801Y-12260D01*
X5801Y-11982D01*
X5695Y-11725D01*
X5676Y-11706D01*
X5717Y-11706D01*
X5932Y-11617D01*
X6097Y-11452D01*
X6186Y-11237D01*
X6186Y-11005D01*
X6186Y-18505D01*
X6097Y-18289D01*
X5933Y-18125D01*
X5718Y-18035D01*
X5485Y-18035D01*
X5270Y-18124D01*
X5105Y-18289D01*
X5016Y-18503D01*
X5016Y-18736D01*
X5092Y-18920D01*
X4962Y-18920D01*
X4705Y-19027D01*
X4636Y-19095D01*
X4636Y-18415D01*
X4479Y-18035D01*
X4188Y-17743D01*
X3808Y-17586D01*
X3396Y-17585D01*
X3301Y-17624D01*
X3301Y-12982D01*
X3195Y-12725D01*
X2998Y-12527D01*
X2741Y-12421D01*
X2462Y-12420D01*
X2205Y-12527D01*
X2186Y-12546D01*
X2186Y-11005D01*
X2097Y-10790D01*
X1933Y-10625D01*
X1718Y-10536D01*
X1485Y-10535D01*
X1270Y-10624D01*
X1105Y-10789D01*
X1016Y-11004D01*
X1016Y-11236D01*
X1105Y-11452D01*
X1269Y-11616D01*
X1484Y-11705D01*
X1717Y-11706D01*
X1932Y-11617D01*
X2097Y-11452D01*
X2186Y-11237D01*
X2186Y-11005D01*
X2186Y-12546D01*
X2008Y-12724D01*
X1901Y-12981D01*
X1901Y-13259D01*
X2007Y-13517D01*
X2204Y-13714D01*
X2461Y-13820D01*
X2740Y-13821D01*
X2997Y-13714D01*
X3194Y-13518D01*
X3301Y-13260D01*
X3301Y-12982D01*
X3301Y-17624D01*
X3015Y-17742D01*
X2724Y-18033D01*
X2566Y-18414D01*
X2566Y-18825D01*
X2723Y-19206D01*
X3014Y-19497D01*
X3394Y-19655D01*
X3806Y-19656D01*
X4186Y-19498D01*
X4478Y-19207D01*
X4636Y-18827D01*
X4636Y-18415D01*
X4636Y-19095D01*
X4508Y-19223D01*
X4401Y-19481D01*
X4401Y-19759D01*
X4507Y-20016D01*
X4704Y-20213D01*
X4961Y-20320D01*
X5240Y-20320D01*
X5497Y-20214D01*
X5694Y-20017D01*
X5801Y-19760D01*
X5801Y-19482D01*
X5695Y-19224D01*
X5676Y-19205D01*
X5717Y-19205D01*
X5932Y-19117D01*
X6097Y-18952D01*
X6186Y-18737D01*
X6186Y-18505D01*
X6186Y-26005D01*
X6097Y-25789D01*
X5933Y-25625D01*
X5718Y-25535D01*
X5485Y-25535D01*
X5270Y-25624D01*
X5105Y-25789D01*
X5016Y-26003D01*
X5016Y-26236D01*
X5092Y-26420D01*
X4962Y-26420D01*
X4705Y-26527D01*
X4636Y-26595D01*
X4636Y-25915D01*
X4479Y-25535D01*
X4188Y-25243D01*
X3808Y-25086D01*
X3396Y-25085D01*
X3015Y-25242D01*
X2724Y-25533D01*
X2566Y-25914D01*
X2566Y-26325D01*
X2723Y-26706D01*
X3014Y-26997D01*
X3394Y-27155D01*
X3806Y-27156D01*
X4186Y-26998D01*
X4478Y-26707D01*
X4636Y-26327D01*
X4636Y-25915D01*
X4636Y-26595D01*
X4508Y-26723D01*
X4401Y-26981D01*
X4401Y-27259D01*
X4507Y-27516D01*
X4704Y-27713D01*
X4961Y-27820D01*
X5240Y-27820D01*
X5497Y-27714D01*
X5694Y-27517D01*
X5801Y-27260D01*
X5801Y-26982D01*
X5695Y-26724D01*
X5676Y-26705D01*
X5717Y-26705D01*
X5932Y-26617D01*
X6097Y-26452D01*
X6186Y-26237D01*
X6186Y-26005D01*
X6186Y-33505D01*
X6097Y-33289D01*
X5933Y-33125D01*
X5718Y-33035D01*
X5485Y-33035D01*
X5270Y-33124D01*
X5105Y-33289D01*
X5016Y-33503D01*
X5016Y-33736D01*
X5092Y-33920D01*
X4962Y-33920D01*
X4705Y-34027D01*
X4636Y-34095D01*
X4636Y-33415D01*
X4479Y-33035D01*
X4188Y-32743D01*
X3808Y-32586D01*
X3396Y-32585D01*
X3301Y-32624D01*
X3301Y-27982D01*
X3195Y-27724D01*
X2998Y-27527D01*
X2741Y-27420D01*
X2462Y-27420D01*
X2205Y-27527D01*
X2186Y-27545D01*
X2186Y-26005D01*
X2097Y-25789D01*
X1933Y-25625D01*
X1718Y-25535D01*
X1485Y-25535D01*
X1270Y-25624D01*
X1105Y-25789D01*
X1016Y-26003D01*
X1016Y-26236D01*
X1105Y-26451D01*
X1269Y-26616D01*
X1484Y-26705D01*
X1717Y-26705D01*
X1932Y-26617D01*
X2097Y-26452D01*
X2186Y-26237D01*
X2186Y-26005D01*
X2186Y-27545D01*
X2008Y-27723D01*
X1901Y-27981D01*
X1901Y-28259D01*
X2007Y-28516D01*
X2204Y-28713D01*
X2461Y-28820D01*
X2740Y-28820D01*
X2997Y-28714D01*
X3194Y-28517D01*
X3301Y-28260D01*
X3301Y-27982D01*
X3301Y-32624D01*
X3015Y-32742D01*
X2724Y-33033D01*
X2566Y-33414D01*
X2566Y-33825D01*
X2723Y-34206D01*
X3014Y-34497D01*
X3394Y-34655D01*
X3806Y-34656D01*
X4186Y-34498D01*
X4478Y-34207D01*
X4636Y-33827D01*
X4636Y-33415D01*
X4636Y-34095D01*
X4508Y-34223D01*
X4401Y-34481D01*
X4401Y-34759D01*
X4507Y-35016D01*
X4704Y-35213D01*
X4961Y-35320D01*
X5240Y-35320D01*
X5497Y-35214D01*
X5694Y-35017D01*
X5801Y-34760D01*
X5801Y-34482D01*
X5695Y-34224D01*
X5676Y-34205D01*
X5717Y-34205D01*
X5932Y-34117D01*
X6097Y-33952D01*
X6186Y-33737D01*
X6186Y-33505D01*
X6186Y-37574D01*
X5021Y-37574D01*
X3273Y-35826D01*
X3301Y-35760D01*
X3301Y-35482D01*
X3195Y-35224D01*
X2998Y-35027D01*
X2741Y-34920D01*
X2462Y-34920D01*
X2205Y-35027D01*
X2186Y-35045D01*
X2186Y-33505D01*
X2097Y-33289D01*
X1933Y-33125D01*
X1718Y-33035D01*
X1485Y-33035D01*
X1270Y-33124D01*
X1105Y-33289D01*
X1016Y-33503D01*
X1016Y-33736D01*
X1105Y-33951D01*
X1269Y-34116D01*
X1484Y-34205D01*
X1717Y-34205D01*
X1932Y-34117D01*
X2097Y-33952D01*
X2186Y-33737D01*
X2186Y-33505D01*
X2186Y-35045D01*
X2008Y-35223D01*
X1901Y-35481D01*
X1901Y-35759D01*
X2007Y-36016D01*
X2204Y-36213D01*
X2461Y-36320D01*
X2740Y-36320D01*
X2807Y-36293D01*
X4651Y-38137D01*
X4758Y-38209D01*
X4758Y-38209D01*
X4884Y-38234D01*
X14819Y-38234D01*
X14945Y-38209D01*
X14945Y-38209D01*
X15052Y-38137D01*
X17090Y-36099D01*
X17204Y-36213D01*
X17428Y-36307D01*
X17368Y-36367D01*
X17296Y-36474D01*
X17271Y-36600D01*
X17271Y-42499D01*
X17205Y-42527D01*
X17186Y-42545D01*
X17186Y-41005D01*
X17097Y-40789D01*
X16933Y-40625D01*
X16718Y-40535D01*
X16485Y-40535D01*
X16270Y-40624D01*
X16105Y-40789D01*
X16016Y-41003D01*
X16016Y-41236D01*
X16105Y-41451D01*
X16269Y-41616D01*
X16484Y-41705D01*
X16717Y-41705D01*
X16932Y-41617D01*
X17097Y-41452D01*
X17186Y-41237D01*
X17186Y-41005D01*
X17186Y-42545D01*
X17008Y-42723D01*
X16980Y-42790D01*
X12812Y-42790D01*
X12997Y-42714D01*
X13194Y-42517D01*
X13301Y-42260D01*
X13301Y-41982D01*
X13195Y-41724D01*
X13176Y-41705D01*
X13217Y-41705D01*
X13432Y-41617D01*
X13597Y-41452D01*
X13686Y-41237D01*
X13686Y-41005D01*
X13597Y-40789D01*
X13433Y-40625D01*
X13218Y-40535D01*
X12985Y-40535D01*
X12770Y-40624D01*
X12605Y-40789D01*
X12516Y-41003D01*
X12516Y-41236D01*
X12592Y-41420D01*
X12462Y-41420D01*
X12205Y-41527D01*
X12136Y-41595D01*
X12136Y-40915D01*
X11979Y-40535D01*
X11688Y-40243D01*
X11308Y-40086D01*
X10896Y-40085D01*
X10515Y-40242D01*
X10224Y-40533D01*
X10066Y-40914D01*
X10066Y-41325D01*
X10223Y-41706D01*
X10514Y-41997D01*
X10894Y-42155D01*
X11306Y-42156D01*
X11686Y-41998D01*
X11978Y-41707D01*
X12136Y-41327D01*
X12136Y-40915D01*
X12136Y-41595D01*
X12008Y-41723D01*
X11901Y-41981D01*
X11901Y-42259D01*
X12007Y-42516D01*
X12204Y-42713D01*
X12389Y-42790D01*
X10722Y-42790D01*
X10695Y-42724D01*
X10498Y-42527D01*
X10241Y-42420D01*
X9962Y-42420D01*
X9705Y-42527D01*
X9686Y-42545D01*
X9686Y-41005D01*
X9597Y-40789D01*
X9433Y-40625D01*
X9218Y-40535D01*
X8985Y-40535D01*
X8770Y-40624D01*
X8605Y-40789D01*
X8516Y-41003D01*
X8516Y-41236D01*
X8605Y-41451D01*
X8769Y-41616D01*
X8984Y-41705D01*
X9217Y-41705D01*
X9432Y-41617D01*
X9597Y-41452D01*
X9686Y-41237D01*
X9686Y-41005D01*
X9686Y-42545D01*
X9508Y-42723D01*
X9480Y-42790D01*
X5312Y-42790D01*
X5497Y-42714D01*
X5694Y-42517D01*
X5801Y-42260D01*
X5801Y-41982D01*
X5695Y-41724D01*
X5676Y-41705D01*
X5717Y-41705D01*
X5932Y-41617D01*
X6097Y-41452D01*
X6186Y-41237D01*
X6186Y-41005D01*
X6097Y-40789D01*
X5933Y-40625D01*
X5718Y-40535D01*
X5485Y-40535D01*
X5270Y-40624D01*
X5105Y-40789D01*
X5016Y-41003D01*
X5016Y-41236D01*
X5092Y-41420D01*
X4962Y-41420D01*
X4705Y-41527D01*
X4636Y-41595D01*
X4636Y-40915D01*
X4479Y-40535D01*
X4188Y-40243D01*
X3808Y-40086D01*
X3396Y-40085D01*
X3015Y-40242D01*
X2724Y-40533D01*
X2566Y-40914D01*
X2566Y-41325D01*
X2723Y-41706D01*
X3014Y-41997D01*
X3394Y-42155D01*
X3806Y-42156D01*
X4186Y-41998D01*
X4478Y-41707D01*
X4636Y-41327D01*
X4636Y-40915D01*
X4636Y-41595D01*
X4508Y-41723D01*
X4401Y-41981D01*
X4401Y-42259D01*
X4507Y-42516D01*
X4704Y-42713D01*
X4889Y-42790D01*
X3222Y-42790D01*
X3195Y-42724D01*
X2998Y-42527D01*
X2741Y-42420D01*
X2462Y-42420D01*
X2205Y-42527D01*
X2186Y-42545D01*
X2186Y-41005D01*
X2097Y-40789D01*
X1933Y-40625D01*
X1718Y-40535D01*
X1485Y-40535D01*
X1270Y-40624D01*
X1105Y-40789D01*
X1016Y-41003D01*
X1016Y-41236D01*
X1105Y-41451D01*
X1269Y-41616D01*
X1484Y-41705D01*
X1717Y-41705D01*
X1932Y-41617D01*
X2097Y-41452D01*
X2186Y-41237D01*
X2186Y-41005D01*
X2186Y-42545D01*
X2008Y-42723D01*
X1901Y-42981D01*
X1901Y-43259D01*
X2007Y-43516D01*
X2204Y-43713D01*
X2461Y-43820D01*
X2740Y-43820D01*
X2997Y-43714D01*
X3194Y-43517D01*
X3222Y-43450D01*
X9480Y-43450D01*
X9507Y-43516D01*
X9704Y-43713D01*
X9961Y-43820D01*
X10240Y-43820D01*
X10497Y-43714D01*
X10694Y-43517D01*
X10722Y-43450D01*
X16980Y-43450D01*
X17007Y-43516D01*
X17204Y-43713D01*
X17461Y-43820D01*
X17740Y-43820D01*
X17997Y-43714D01*
X18194Y-43517D01*
X18222Y-43450D01*
X24480Y-43450D01*
X24507Y-43516D01*
X24704Y-43713D01*
X24961Y-43820D01*
X25240Y-43820D01*
X25497Y-43714D01*
X25694Y-43517D01*
X25801Y-43260D01*
X25801Y-42982D01*
X25695Y-42724D01*
X25498Y-42527D01*
X25241Y-42420D01*
X24962Y-42420D01*
X24705Y-42527D01*
X24686Y-42545D01*
X24686Y-41005D01*
X24597Y-40789D01*
X24433Y-40625D01*
X24218Y-40535D01*
X23985Y-40535D01*
X23886Y-40576D01*
X23886Y-34365D01*
X23729Y-33985D01*
X23438Y-33693D01*
X23058Y-33536D01*
X22646Y-33535D01*
X22266Y-33692D01*
X21974Y-33983D01*
X21816Y-34364D01*
X21816Y-34775D01*
X21973Y-35156D01*
X22264Y-35447D01*
X22644Y-35605D01*
X23056Y-35606D01*
X23437Y-35448D01*
X23728Y-35157D01*
X23886Y-34777D01*
X23886Y-34365D01*
X23886Y-40576D01*
X23770Y-40624D01*
X23605Y-40789D01*
X23516Y-41003D01*
X23516Y-41236D01*
X23605Y-41451D01*
X23769Y-41616D01*
X23984Y-41705D01*
X24217Y-41705D01*
X24432Y-41617D01*
X24597Y-41452D01*
X24686Y-41237D01*
X24686Y-41005D01*
X24686Y-42545D01*
X24508Y-42723D01*
X24480Y-42790D01*
X20313Y-42790D01*
X20497Y-42714D01*
X20694Y-42517D01*
X20801Y-42260D01*
X20801Y-41982D01*
X20695Y-41724D01*
X20676Y-41705D01*
X20717Y-41705D01*
X20932Y-41617D01*
X21097Y-41452D01*
X21186Y-41237D01*
X21186Y-41005D01*
X21186Y-33505D01*
X21097Y-33289D01*
X20933Y-33125D01*
X20718Y-33035D01*
X20485Y-33035D01*
X20270Y-33124D01*
X20105Y-33289D01*
X20016Y-33503D01*
X20016Y-33736D01*
X20092Y-33920D01*
X19962Y-33920D01*
X19705Y-34027D01*
X19508Y-34223D01*
X19401Y-34481D01*
X19401Y-34759D01*
X19507Y-35016D01*
X19704Y-35213D01*
X19961Y-35320D01*
X20240Y-35320D01*
X20497Y-35214D01*
X20694Y-35017D01*
X20801Y-34760D01*
X20801Y-34482D01*
X20695Y-34224D01*
X20676Y-34205D01*
X20717Y-34205D01*
X20932Y-34117D01*
X21097Y-33952D01*
X21186Y-33737D01*
X21186Y-33505D01*
X21186Y-41005D01*
X21097Y-40789D01*
X20933Y-40625D01*
X20718Y-40535D01*
X20485Y-40535D01*
X20270Y-40624D01*
X20105Y-40789D01*
X20016Y-41003D01*
X20016Y-41236D01*
X20092Y-41420D01*
X19962Y-41420D01*
X19705Y-41527D01*
X19508Y-41723D01*
X19401Y-41981D01*
X19401Y-42259D01*
X19507Y-42516D01*
X19704Y-42713D01*
X19889Y-42790D01*
X18222Y-42790D01*
X18195Y-42724D01*
X17998Y-42527D01*
X17931Y-42499D01*
X17931Y-41914D01*
X18014Y-41997D01*
X18394Y-42155D01*
X18806Y-42156D01*
X19187Y-41998D01*
X19478Y-41707D01*
X19636Y-41327D01*
X19636Y-40915D01*
X19479Y-40535D01*
X19188Y-40243D01*
X18808Y-40086D01*
X18396Y-40085D01*
X18016Y-40242D01*
X17931Y-40327D01*
X17931Y-36737D01*
X18463Y-36205D01*
X18535Y-36098D01*
X18535Y-36098D01*
X18560Y-35972D01*
X18560Y-35386D01*
X18535Y-35260D01*
X18535Y-35260D01*
X18463Y-35153D01*
X17744Y-34434D01*
X17744Y-34227D01*
X18014Y-34497D01*
X18394Y-34655D01*
X18806Y-34656D01*
X19187Y-34498D01*
X19478Y-34207D01*
X19636Y-33827D01*
X19636Y-33415D01*
X19479Y-33035D01*
X19188Y-32743D01*
X18808Y-32586D01*
X18396Y-32585D01*
X18016Y-32742D01*
X17744Y-33013D01*
X17744Y-29250D01*
X17719Y-29123D01*
X17719Y-29123D01*
X17648Y-29016D01*
X17445Y-28813D01*
X17461Y-28820D01*
X17740Y-28820D01*
X17807Y-28793D01*
X20118Y-31104D01*
X20118Y-31104D01*
X20225Y-31175D01*
X20225Y-31175D01*
X20326Y-31195D01*
X20351Y-31200D01*
X20351Y-31200D01*
X20351Y-31200D01*
X27480Y-31200D01*
X27507Y-31266D01*
X27704Y-31463D01*
X27961Y-31570D01*
X28240Y-31570D01*
X28497Y-31464D01*
X28694Y-31267D01*
X28801Y-31010D01*
X28801Y-30732D01*
X28695Y-30474D01*
X28498Y-30277D01*
X28241Y-30170D01*
X27962Y-30170D01*
X27801Y-30237D01*
X27801Y-28232D01*
X27695Y-27974D01*
X27498Y-27777D01*
X27241Y-27670D01*
X27136Y-27670D01*
X27136Y-14665D01*
X26979Y-14285D01*
X26688Y-13993D01*
X26308Y-13836D01*
X25896Y-13835D01*
X25516Y-13992D01*
X25224Y-14283D01*
X25066Y-14664D01*
X25066Y-15075D01*
X25223Y-15456D01*
X25514Y-15747D01*
X25894Y-15905D01*
X26306Y-15906D01*
X26687Y-15748D01*
X26978Y-15457D01*
X27136Y-15077D01*
X27136Y-14665D01*
X27136Y-27670D01*
X26962Y-27670D01*
X26705Y-27777D01*
X26686Y-27795D01*
X26686Y-27755D01*
X26686Y-16755D01*
X26597Y-16539D01*
X26433Y-16375D01*
X26218Y-16285D01*
X25985Y-16285D01*
X25770Y-16374D01*
X25605Y-16539D01*
X25516Y-16753D01*
X25516Y-16986D01*
X25605Y-17201D01*
X25769Y-17366D01*
X25984Y-17455D01*
X26217Y-17455D01*
X26432Y-17367D01*
X26597Y-17202D01*
X26686Y-16987D01*
X26686Y-16755D01*
X26686Y-27755D01*
X26597Y-27539D01*
X26433Y-27375D01*
X26218Y-27285D01*
X25985Y-27285D01*
X25770Y-27374D01*
X25605Y-27539D01*
X25516Y-27753D01*
X25516Y-27986D01*
X25605Y-28201D01*
X25769Y-28366D01*
X25984Y-28455D01*
X26217Y-28455D01*
X26401Y-28379D01*
X26401Y-28509D01*
X26507Y-28766D01*
X26704Y-28963D01*
X26961Y-29070D01*
X27240Y-29070D01*
X27497Y-28964D01*
X27694Y-28767D01*
X27801Y-28510D01*
X27801Y-28232D01*
X27801Y-30237D01*
X27705Y-30277D01*
X27508Y-30473D01*
X27480Y-30540D01*
X26895Y-30540D01*
X26978Y-30457D01*
X27136Y-30077D01*
X27136Y-29665D01*
X26979Y-29285D01*
X26688Y-28993D01*
X26308Y-28836D01*
X25896Y-28835D01*
X25516Y-28992D01*
X25452Y-29056D01*
X25452Y-21234D01*
X25384Y-21070D01*
X25335Y-21021D01*
X25335Y-17432D01*
X25384Y-17383D01*
X25452Y-17219D01*
X25452Y-17041D01*
X25384Y-16877D01*
X25259Y-16751D01*
X25095Y-16683D01*
X24917Y-16683D01*
X24752Y-16751D01*
X24627Y-16876D01*
X24559Y-17040D01*
X24558Y-17218D01*
X24626Y-17382D01*
X24675Y-17431D01*
X24675Y-21021D01*
X24627Y-21069D01*
X24559Y-21233D01*
X24558Y-21411D01*
X24626Y-21575D01*
X24752Y-21701D01*
X24916Y-21769D01*
X25094Y-21769D01*
X25258Y-21702D01*
X25384Y-21576D01*
X25452Y-21412D01*
X25452Y-21234D01*
X25452Y-29056D01*
X25224Y-29283D01*
X25066Y-29664D01*
X25066Y-30075D01*
X25223Y-30456D01*
X25307Y-30540D01*
X21186Y-30540D01*
X21186Y-26005D01*
X21097Y-25789D01*
X20933Y-25625D01*
X20718Y-25535D01*
X20485Y-25535D01*
X20270Y-25624D01*
X20105Y-25789D01*
X20016Y-26003D01*
X20016Y-26236D01*
X20092Y-26420D01*
X19962Y-26420D01*
X19705Y-26527D01*
X19508Y-26723D01*
X19401Y-26981D01*
X19401Y-27259D01*
X19507Y-27516D01*
X19704Y-27713D01*
X19961Y-27820D01*
X20240Y-27820D01*
X20497Y-27714D01*
X20694Y-27517D01*
X20801Y-27260D01*
X20801Y-26982D01*
X20695Y-26724D01*
X20676Y-26705D01*
X20717Y-26705D01*
X20932Y-26617D01*
X21097Y-26452D01*
X21186Y-26237D01*
X21186Y-26005D01*
X21186Y-30540D01*
X20488Y-30540D01*
X18274Y-28326D01*
X18301Y-28260D01*
X18301Y-27982D01*
X18195Y-27724D01*
X17998Y-27527D01*
X17741Y-27420D01*
X17534Y-27420D01*
X17641Y-27314D01*
X17641Y-27314D01*
X17641Y-27314D01*
X17712Y-27207D01*
X17712Y-27207D01*
X17738Y-27080D01*
X17738Y-27080D01*
X17738Y-26720D01*
X18014Y-26997D01*
X18394Y-27155D01*
X18806Y-27156D01*
X19187Y-26998D01*
X19478Y-26707D01*
X19636Y-26327D01*
X19636Y-25915D01*
X19479Y-25535D01*
X19188Y-25243D01*
X18808Y-25086D01*
X18396Y-25085D01*
X18016Y-25242D01*
X17738Y-25520D01*
X17738Y-24415D01*
X17779Y-24433D01*
X17957Y-24433D01*
X18121Y-24365D01*
X18247Y-24239D01*
X18315Y-24075D01*
X18316Y-24006D01*
X21135Y-21187D01*
X21135Y-24940D01*
X21086Y-24988D01*
X21018Y-25152D01*
X21018Y-25330D01*
X21085Y-25494D01*
X21211Y-25620D01*
X21375Y-25688D01*
X21553Y-25688D01*
X21717Y-25621D01*
X21843Y-25495D01*
X21854Y-25468D01*
X21973Y-25756D01*
X22264Y-26047D01*
X22644Y-26205D01*
X23056Y-26206D01*
X23437Y-26048D01*
X23728Y-25757D01*
X23886Y-25377D01*
X23886Y-24965D01*
X23886Y-19365D01*
X23729Y-18985D01*
X23438Y-18693D01*
X23058Y-18536D01*
X22646Y-18535D01*
X22266Y-18692D01*
X21974Y-18983D01*
X21816Y-19364D01*
X21816Y-19775D01*
X21973Y-20156D01*
X22264Y-20447D01*
X22644Y-20605D01*
X23056Y-20606D01*
X23437Y-20448D01*
X23728Y-20157D01*
X23886Y-19777D01*
X23886Y-19365D01*
X23886Y-24965D01*
X23729Y-24585D01*
X23438Y-24293D01*
X23058Y-24136D01*
X22646Y-24135D01*
X22266Y-24292D01*
X21974Y-24583D01*
X21817Y-24962D01*
X21795Y-24940D01*
X21795Y-16911D01*
X21843Y-16862D01*
X21911Y-16698D01*
X21911Y-16520D01*
X21844Y-16356D01*
X21720Y-16233D01*
X24839Y-13114D01*
X24839Y-13114D01*
X24839Y-13114D01*
X24910Y-13007D01*
X24910Y-13007D01*
X24936Y-12881D01*
X24936Y-7386D01*
X27463Y-9914D01*
X27463Y-12763D01*
X27241Y-12670D01*
X26962Y-12670D01*
X26705Y-12777D01*
X26686Y-12795D01*
X26686Y-12755D01*
X26597Y-12539D01*
X26433Y-12375D01*
X26218Y-12285D01*
X25985Y-12285D01*
X25770Y-12374D01*
X25605Y-12539D01*
X25516Y-12753D01*
X25516Y-12986D01*
X25605Y-13201D01*
X25769Y-13366D01*
X25984Y-13455D01*
X26217Y-13455D01*
X26401Y-13379D01*
X26401Y-13509D01*
X26507Y-13766D01*
X26704Y-13963D01*
X26961Y-14070D01*
X27240Y-14070D01*
X27463Y-13978D01*
X27463Y-15563D01*
X27466Y-15575D01*
X27401Y-15731D01*
X27401Y-16009D01*
X27507Y-16266D01*
X27704Y-16463D01*
X27961Y-16570D01*
X28240Y-16570D01*
X28497Y-16464D01*
X28694Y-16267D01*
X28801Y-16010D01*
X28801Y-15732D01*
X28695Y-15474D01*
X28498Y-15277D01*
X28241Y-15170D01*
X28123Y-15170D01*
X28123Y-10635D01*
X28130Y-10651D01*
X28369Y-10891D01*
X28681Y-11020D01*
X29019Y-11021D01*
X29332Y-10891D01*
X29431Y-10792D01*
X29431Y-18949D01*
X29333Y-18850D01*
X29021Y-18721D01*
X28683Y-18720D01*
X28370Y-18849D01*
X28131Y-19088D01*
X28001Y-19401D01*
X28001Y-19739D01*
X28130Y-20051D01*
X28369Y-20291D01*
X28681Y-20420D01*
X29019Y-20421D01*
X29332Y-20291D01*
X29431Y-20192D01*
X29431Y-24549D01*
X29333Y-24450D01*
X29021Y-24321D01*
X28683Y-24320D01*
X28370Y-24449D01*
X28131Y-24688D01*
X28001Y-25001D01*
X28001Y-25339D01*
X28130Y-25651D01*
X28369Y-25891D01*
X28681Y-26020D01*
X29019Y-26021D01*
X29332Y-25891D01*
X29431Y-25792D01*
X29431Y-33949D01*
X29333Y-33850D01*
X29021Y-33721D01*
X28683Y-33720D01*
X28370Y-33849D01*
X28131Y-34088D01*
X28001Y-34401D01*
X28001Y-34739D01*
X28130Y-35051D01*
X28369Y-35291D01*
X28681Y-35420D01*
X29019Y-35421D01*
X29332Y-35291D01*
X29431Y-35192D01*
X29431Y-43926D01*
M02*
