G04 (created by PCBNEW (2013-02-13 BZR 3947)-testing) date 9/17/2013 2:51:24 PM*
%MOIN*%
G04 Gerber Fmt 3.4, Leading zero omitted, Abs format*
%FSLAX34Y34*%
G01*
G70*
G90*
G04 APERTURE LIST*
%ADD10C,0*%
%ADD11C,0.00787402*%
%ADD12C,0.0079*%
%ADD13C,0.015*%
%ADD14C,0.011811*%
%ADD15C,0.012*%
%ADD16C,0.008*%
%ADD17C,0.00625197*%
%ADD18C,0.005*%
%ADD19O,0.4017X0.2049*%
%ADD20R,0.0473701X0.130047*%
%ADD21R,0.0887X0.1655*%
%ADD22R,0.0887X0.1458*%
%ADD23O,0.0277008X0.106425*%
%ADD24C,0.0434331*%
%ADD25R,0.0533X0.0631*%
%ADD26C,0.024*%
%ADD27R,0.043X0.063*%
%ADD28R,0.063X0.043*%
%ADD29C,0.0788661*%
%ADD30C,0.0709921*%
%ADD31C,0.098*%
%ADD32C,0.165*%
%ADD33C,0.075*%
%ADD34O,0.083X0.093*%
%ADD35R,0.083X0.093*%
%ADD36C,0.0473701*%
%ADD37C,0.128*%
G04 APERTURE END LIST*
G54D10*
G54D11*
X16898Y-25327D02*
X16916Y-25309D01*
X16935Y-25252D01*
X16935Y-25215D01*
X16916Y-25159D01*
X16879Y-25121D01*
X16841Y-25102D01*
X16767Y-25084D01*
X16710Y-25084D01*
X16635Y-25102D01*
X16598Y-25121D01*
X16560Y-25159D01*
X16542Y-25215D01*
X16542Y-25252D01*
X16560Y-25309D01*
X16579Y-25327D01*
X16823Y-25477D02*
X16823Y-25665D01*
X16935Y-25440D02*
X16542Y-25571D01*
X16935Y-25702D01*
X16935Y-25834D02*
X16542Y-25834D01*
X16542Y-25984D01*
X16560Y-26021D01*
X16579Y-26040D01*
X16617Y-26059D01*
X16673Y-26059D01*
X16710Y-26040D01*
X16729Y-26021D01*
X16748Y-25984D01*
X16748Y-25834D01*
X16916Y-26208D02*
X16935Y-26265D01*
X16935Y-26358D01*
X16916Y-26396D01*
X16898Y-26415D01*
X16860Y-26433D01*
X16823Y-26433D01*
X16785Y-26415D01*
X16767Y-26396D01*
X16748Y-26358D01*
X16729Y-26283D01*
X16710Y-26246D01*
X16692Y-26227D01*
X16654Y-26208D01*
X16617Y-26208D01*
X16579Y-26227D01*
X16560Y-26246D01*
X16542Y-26283D01*
X16542Y-26377D01*
X16560Y-26433D01*
X1379Y-11590D02*
X1379Y-11721D01*
X1585Y-11777D02*
X1585Y-11590D01*
X1192Y-11590D01*
X1192Y-11777D01*
X1566Y-11927D02*
X1585Y-11984D01*
X1585Y-12077D01*
X1566Y-12115D01*
X1548Y-12134D01*
X1510Y-12152D01*
X1473Y-12152D01*
X1435Y-12134D01*
X1417Y-12115D01*
X1398Y-12077D01*
X1379Y-12002D01*
X1360Y-11965D01*
X1342Y-11946D01*
X1304Y-11927D01*
X1267Y-11927D01*
X1229Y-11946D01*
X1210Y-11965D01*
X1192Y-12002D01*
X1192Y-12096D01*
X1210Y-12152D01*
X1548Y-12546D02*
X1566Y-12527D01*
X1585Y-12471D01*
X1585Y-12434D01*
X1566Y-12377D01*
X1529Y-12340D01*
X1491Y-12321D01*
X1417Y-12302D01*
X1360Y-12302D01*
X1285Y-12321D01*
X1248Y-12340D01*
X1210Y-12377D01*
X1192Y-12434D01*
X1192Y-12471D01*
X1210Y-12527D01*
X1229Y-12546D01*
G54D12*
X15442Y-2871D02*
G75*
G03X15442Y-2871I-591J0D01*
G74*
G01*
X15776Y-4091D02*
X15776Y-4288D01*
X15776Y-4288D02*
X15501Y-4288D01*
X15501Y-4288D02*
X15501Y-4091D01*
X13926Y-4288D02*
X13926Y-4091D01*
X14201Y-4288D02*
X13926Y-4288D01*
X14201Y-4091D02*
X14201Y-4288D01*
X14201Y-1651D02*
X14201Y-1454D01*
X14201Y-1454D02*
X13926Y-1454D01*
X13926Y-1454D02*
X13926Y-1651D01*
X15776Y-1651D02*
X15776Y-1454D01*
X15776Y-1454D02*
X15501Y-1454D01*
X15501Y-1454D02*
X15501Y-1651D01*
G54D13*
X13631Y-3973D02*
X13631Y-1769D01*
X16071Y-3973D02*
X16071Y-1769D01*
X16032Y-4091D02*
X16032Y-1651D01*
X16032Y-1651D02*
X13670Y-1651D01*
X13670Y-1651D02*
X13670Y-4091D01*
X13670Y-4091D02*
X16032Y-4091D01*
G54D12*
X8015Y-2488D02*
X8665Y-2488D01*
X8665Y-2488D02*
X8665Y811D01*
X8665Y811D02*
X5665Y811D01*
X5665Y811D02*
X5665Y-2488D01*
X5665Y-2488D02*
X6365Y-2488D01*
G54D14*
X24251Y-23120D02*
X25551Y-23120D01*
X25551Y-23120D02*
X25551Y-21520D01*
X25551Y-21520D02*
X24251Y-21520D01*
X24251Y-21520D02*
X24251Y-23120D01*
G54D15*
X17387Y-22720D02*
X14601Y-19934D01*
X14601Y-19934D02*
X11815Y-22720D01*
X14467Y-25372D02*
X11815Y-22720D01*
X14735Y-25372D02*
X17387Y-22720D01*
X14467Y-25372D02*
X14735Y-25372D01*
G54D16*
X14851Y-24842D02*
G75*
G03X14851Y-24842I-250J0D01*
G74*
G01*
G54D14*
X7058Y-5021D02*
X7501Y-5021D01*
X7501Y-5021D02*
X7501Y-4221D01*
X7501Y-4221D02*
X7058Y-4221D01*
X6633Y-5021D02*
X6201Y-5021D01*
X6201Y-5021D02*
X6201Y-4221D01*
X6201Y-4221D02*
X6633Y-4221D01*
X26609Y-22020D02*
X27051Y-22020D01*
X27051Y-22020D02*
X27051Y-21220D01*
X27051Y-21220D02*
X26609Y-21220D01*
X26183Y-22020D02*
X25751Y-22020D01*
X25751Y-22020D02*
X25751Y-21220D01*
X25751Y-21220D02*
X26183Y-21220D01*
X26609Y-23620D02*
X27051Y-23620D01*
X27051Y-23620D02*
X27051Y-22820D01*
X27051Y-22820D02*
X26609Y-22820D01*
X26183Y-23620D02*
X25751Y-23620D01*
X25751Y-23620D02*
X25751Y-22820D01*
X25751Y-22820D02*
X26183Y-22820D01*
X8501Y-23728D02*
X8501Y-24170D01*
X8501Y-24170D02*
X9301Y-24170D01*
X9301Y-24170D02*
X9301Y-23728D01*
X8501Y-23302D02*
X8501Y-22870D01*
X8501Y-22870D02*
X9301Y-22870D01*
X9301Y-22870D02*
X9301Y-23302D01*
X11188Y-20034D02*
X10746Y-20034D01*
X10746Y-20034D02*
X10746Y-20834D01*
X10746Y-20834D02*
X11188Y-20834D01*
X11614Y-20034D02*
X12046Y-20034D01*
X12046Y-20034D02*
X12046Y-20834D01*
X12046Y-20834D02*
X11614Y-20834D01*
X25109Y-24220D02*
X25551Y-24220D01*
X25551Y-24220D02*
X25551Y-23420D01*
X25551Y-23420D02*
X25109Y-23420D01*
X24683Y-24220D02*
X24251Y-24220D01*
X24251Y-24220D02*
X24251Y-23420D01*
X24251Y-23420D02*
X24683Y-23420D01*
X23609Y-22320D02*
X24051Y-22320D01*
X24051Y-22320D02*
X24051Y-21520D01*
X24051Y-21520D02*
X23609Y-21520D01*
X23183Y-22320D02*
X22751Y-22320D01*
X22751Y-22320D02*
X22751Y-21520D01*
X22751Y-21520D02*
X23183Y-21520D01*
X7751Y-6163D02*
X7751Y-5721D01*
X7751Y-5721D02*
X6951Y-5721D01*
X6951Y-5721D02*
X6951Y-6163D01*
X7751Y-6589D02*
X7751Y-7021D01*
X7751Y-7021D02*
X6951Y-7021D01*
X6951Y-7021D02*
X6951Y-6589D01*
X8751Y-6163D02*
X8751Y-5721D01*
X8751Y-5721D02*
X7951Y-5721D01*
X7951Y-5721D02*
X7951Y-6163D01*
X8751Y-6589D02*
X8751Y-7021D01*
X8751Y-7021D02*
X7951Y-7021D01*
X7951Y-7021D02*
X7951Y-6589D01*
X8301Y-24113D02*
X8301Y-23670D01*
X8301Y-23670D02*
X7501Y-23670D01*
X7501Y-23670D02*
X7501Y-24113D01*
X8301Y-24538D02*
X8301Y-24970D01*
X8301Y-24970D02*
X7501Y-24970D01*
X7501Y-24970D02*
X7501Y-24538D01*
X26609Y-19920D02*
X27051Y-19920D01*
X27051Y-19920D02*
X27051Y-19120D01*
X27051Y-19120D02*
X26609Y-19120D01*
X26183Y-19920D02*
X25751Y-19920D01*
X25751Y-19920D02*
X25751Y-19120D01*
X25751Y-19120D02*
X26183Y-19120D01*
X8301Y-22513D02*
X8301Y-22070D01*
X8301Y-22070D02*
X7501Y-22070D01*
X7501Y-22070D02*
X7501Y-22513D01*
X8301Y-22938D02*
X8301Y-23370D01*
X8301Y-23370D02*
X7501Y-23370D01*
X7501Y-23370D02*
X7501Y-22938D01*
X27894Y-43220D02*
X27451Y-43220D01*
X27451Y-43220D02*
X27451Y-44020D01*
X27451Y-44020D02*
X27894Y-44020D01*
X28319Y-43220D02*
X28751Y-43220D01*
X28751Y-43220D02*
X28751Y-44020D01*
X28751Y-44020D02*
X28319Y-44020D01*
G54D11*
X28001Y-43470D02*
X28001Y-43770D01*
X28176Y-43470D02*
X28176Y-43770D01*
X28176Y-43770D02*
X28026Y-43620D01*
X28026Y-43620D02*
X28176Y-43470D01*
G54D14*
X20394Y-43220D02*
X19951Y-43220D01*
X19951Y-43220D02*
X19951Y-44020D01*
X19951Y-44020D02*
X20394Y-44020D01*
X20819Y-43220D02*
X21251Y-43220D01*
X21251Y-43220D02*
X21251Y-44020D01*
X21251Y-44020D02*
X20819Y-44020D01*
G54D11*
X20501Y-43470D02*
X20501Y-43770D01*
X20676Y-43470D02*
X20676Y-43770D01*
X20676Y-43770D02*
X20526Y-43620D01*
X20526Y-43620D02*
X20676Y-43470D01*
G54D14*
X27394Y-26220D02*
X26951Y-26220D01*
X26951Y-26220D02*
X26951Y-27020D01*
X26951Y-27020D02*
X27394Y-27020D01*
X27819Y-26220D02*
X28251Y-26220D01*
X28251Y-26220D02*
X28251Y-27020D01*
X28251Y-27020D02*
X27819Y-27020D01*
G54D11*
X27501Y-26470D02*
X27501Y-26770D01*
X27676Y-26470D02*
X27676Y-26770D01*
X27676Y-26770D02*
X27526Y-26620D01*
X27526Y-26620D02*
X27676Y-26470D01*
G54D14*
X27394Y-11221D02*
X26951Y-11221D01*
X26951Y-11221D02*
X26951Y-12021D01*
X26951Y-12021D02*
X27394Y-12021D01*
X27819Y-11221D02*
X28251Y-11221D01*
X28251Y-11221D02*
X28251Y-12021D01*
X28251Y-12021D02*
X27819Y-12021D01*
G54D11*
X27501Y-11471D02*
X27501Y-11771D01*
X27676Y-11471D02*
X27676Y-11771D01*
X27676Y-11771D02*
X27526Y-11621D01*
X27526Y-11621D02*
X27676Y-11471D01*
G54D14*
X27894Y-5721D02*
X27451Y-5721D01*
X27451Y-5721D02*
X27451Y-6521D01*
X27451Y-6521D02*
X27894Y-6521D01*
X28319Y-5721D02*
X28751Y-5721D01*
X28751Y-5721D02*
X28751Y-6521D01*
X28751Y-6521D02*
X28319Y-6521D01*
G54D11*
X28001Y-5971D02*
X28001Y-6271D01*
X28176Y-5971D02*
X28176Y-6271D01*
X28176Y-6271D02*
X28026Y-6121D01*
X28026Y-6121D02*
X28176Y-5971D01*
G54D14*
X20294Y-28220D02*
X19851Y-28220D01*
X19851Y-28220D02*
X19851Y-29020D01*
X19851Y-29020D02*
X20294Y-29020D01*
X20719Y-28220D02*
X21151Y-28220D01*
X21151Y-28220D02*
X21151Y-29020D01*
X21151Y-29020D02*
X20719Y-29020D01*
G54D11*
X20401Y-28470D02*
X20401Y-28770D01*
X20576Y-28470D02*
X20576Y-28770D01*
X20576Y-28770D02*
X20426Y-28620D01*
X20426Y-28620D02*
X20576Y-28470D01*
G54D14*
X20394Y-15720D02*
X19951Y-15720D01*
X19951Y-15720D02*
X19951Y-16520D01*
X19951Y-16520D02*
X20394Y-16520D01*
X20819Y-15720D02*
X21251Y-15720D01*
X21251Y-15720D02*
X21251Y-16520D01*
X21251Y-16520D02*
X20819Y-16520D01*
G54D11*
X20501Y-15970D02*
X20501Y-16270D01*
X20676Y-15970D02*
X20676Y-16270D01*
X20676Y-16270D02*
X20526Y-16120D01*
X20526Y-16120D02*
X20676Y-15970D01*
G54D14*
X20394Y-13221D02*
X19951Y-13221D01*
X19951Y-13221D02*
X19951Y-14021D01*
X19951Y-14021D02*
X20394Y-14021D01*
X20819Y-13221D02*
X21251Y-13221D01*
X21251Y-13221D02*
X21251Y-14021D01*
X21251Y-14021D02*
X20819Y-14021D01*
G54D11*
X20501Y-13471D02*
X20501Y-13771D01*
X20676Y-13471D02*
X20676Y-13771D01*
X20676Y-13771D02*
X20526Y-13621D01*
X20526Y-13621D02*
X20676Y-13471D01*
G54D14*
X20394Y-5721D02*
X19951Y-5721D01*
X19951Y-5721D02*
X19951Y-6521D01*
X19951Y-6521D02*
X20394Y-6521D01*
X20819Y-5721D02*
X21251Y-5721D01*
X21251Y-5721D02*
X21251Y-6521D01*
X21251Y-6521D02*
X20819Y-6521D01*
G54D11*
X20501Y-5971D02*
X20501Y-6271D01*
X20676Y-5971D02*
X20676Y-6271D01*
X20676Y-6271D02*
X20526Y-6121D01*
X20526Y-6121D02*
X20676Y-5971D01*
G54D14*
X1101Y-7121D02*
X1301Y-7121D01*
X4101Y-7121D02*
X3901Y-7121D01*
X3901Y-7121D02*
X3901Y-7521D01*
X3901Y-7521D02*
X1301Y-7521D01*
X1301Y-7521D02*
X1301Y-6721D01*
X1301Y-6721D02*
X3901Y-6721D01*
X3901Y-6721D02*
X3901Y-7121D01*
X12893Y-28220D02*
X12451Y-28220D01*
X12451Y-28220D02*
X12451Y-29020D01*
X12451Y-29020D02*
X12893Y-29020D01*
X13319Y-28220D02*
X13751Y-28220D01*
X13751Y-28220D02*
X13751Y-29020D01*
X13751Y-29020D02*
X13319Y-29020D01*
G54D11*
X13001Y-28470D02*
X13001Y-28770D01*
X13176Y-28470D02*
X13176Y-28770D01*
X13176Y-28770D02*
X13026Y-28620D01*
X13026Y-28620D02*
X13176Y-28470D01*
G54D14*
X12893Y-43220D02*
X12451Y-43220D01*
X12451Y-43220D02*
X12451Y-44020D01*
X12451Y-44020D02*
X12893Y-44020D01*
X13319Y-43220D02*
X13751Y-43220D01*
X13751Y-43220D02*
X13751Y-44020D01*
X13751Y-44020D02*
X13319Y-44020D01*
G54D11*
X13001Y-43470D02*
X13001Y-43770D01*
X13176Y-43470D02*
X13176Y-43770D01*
X13176Y-43770D02*
X13026Y-43620D01*
X13026Y-43620D02*
X13176Y-43470D01*
G54D14*
X5393Y-43220D02*
X4951Y-43220D01*
X4951Y-43220D02*
X4951Y-44020D01*
X4951Y-44020D02*
X5393Y-44020D01*
X5819Y-43220D02*
X6251Y-43220D01*
X6251Y-43220D02*
X6251Y-44020D01*
X6251Y-44020D02*
X5819Y-44020D01*
G54D11*
X5501Y-43470D02*
X5501Y-43770D01*
X5676Y-43470D02*
X5676Y-43770D01*
X5676Y-43770D02*
X5526Y-43620D01*
X5526Y-43620D02*
X5676Y-43470D01*
G54D14*
X20394Y-35720D02*
X19951Y-35720D01*
X19951Y-35720D02*
X19951Y-36520D01*
X19951Y-36520D02*
X20394Y-36520D01*
X20819Y-35720D02*
X21251Y-35720D01*
X21251Y-35720D02*
X21251Y-36520D01*
X21251Y-36520D02*
X20819Y-36520D01*
G54D11*
X20501Y-35970D02*
X20501Y-36270D01*
X20676Y-35970D02*
X20676Y-36270D01*
X20676Y-36270D02*
X20526Y-36120D01*
X20526Y-36120D02*
X20676Y-35970D01*
G54D14*
X12893Y-35720D02*
X12451Y-35720D01*
X12451Y-35720D02*
X12451Y-36520D01*
X12451Y-36520D02*
X12893Y-36520D01*
X13319Y-35720D02*
X13751Y-35720D01*
X13751Y-35720D02*
X13751Y-36520D01*
X13751Y-36520D02*
X13319Y-36520D01*
G54D11*
X13001Y-35970D02*
X13001Y-36270D01*
X13176Y-35970D02*
X13176Y-36270D01*
X13176Y-36270D02*
X13026Y-36120D01*
X13026Y-36120D02*
X13176Y-35970D01*
G54D14*
X5393Y-35720D02*
X4951Y-35720D01*
X4951Y-35720D02*
X4951Y-36520D01*
X4951Y-36520D02*
X5393Y-36520D01*
X5819Y-35720D02*
X6251Y-35720D01*
X6251Y-35720D02*
X6251Y-36520D01*
X6251Y-36520D02*
X5819Y-36520D01*
G54D11*
X5501Y-35970D02*
X5501Y-36270D01*
X5676Y-35970D02*
X5676Y-36270D01*
X5676Y-36270D02*
X5526Y-36120D01*
X5526Y-36120D02*
X5676Y-35970D01*
G54D14*
X5393Y-20720D02*
X4951Y-20720D01*
X4951Y-20720D02*
X4951Y-21520D01*
X4951Y-21520D02*
X5393Y-21520D01*
X5819Y-20720D02*
X6251Y-20720D01*
X6251Y-20720D02*
X6251Y-21520D01*
X6251Y-21520D02*
X5819Y-21520D01*
G54D11*
X5501Y-20970D02*
X5501Y-21270D01*
X5676Y-20970D02*
X5676Y-21270D01*
X5676Y-21270D02*
X5526Y-21120D01*
X5526Y-21120D02*
X5676Y-20970D01*
G54D14*
X5393Y-5721D02*
X4951Y-5721D01*
X4951Y-5721D02*
X4951Y-6521D01*
X4951Y-6521D02*
X5393Y-6521D01*
X5819Y-5721D02*
X6251Y-5721D01*
X6251Y-5721D02*
X6251Y-6521D01*
X6251Y-6521D02*
X5819Y-6521D01*
G54D11*
X5501Y-5971D02*
X5501Y-6271D01*
X5676Y-5971D02*
X5676Y-6271D01*
X5676Y-6271D02*
X5526Y-6121D01*
X5526Y-6121D02*
X5676Y-5971D01*
G54D14*
X12893Y-15720D02*
X12451Y-15720D01*
X12451Y-15720D02*
X12451Y-16520D01*
X12451Y-16520D02*
X12893Y-16520D01*
X13319Y-15720D02*
X13751Y-15720D01*
X13751Y-15720D02*
X13751Y-16520D01*
X13751Y-16520D02*
X13319Y-16520D01*
G54D11*
X13001Y-15970D02*
X13001Y-16270D01*
X13176Y-15970D02*
X13176Y-16270D01*
X13176Y-16270D02*
X13026Y-16120D01*
X13026Y-16120D02*
X13176Y-15970D01*
G54D14*
X12893Y-13221D02*
X12451Y-13221D01*
X12451Y-13221D02*
X12451Y-14021D01*
X12451Y-14021D02*
X12893Y-14021D01*
X13319Y-13221D02*
X13751Y-13221D01*
X13751Y-13221D02*
X13751Y-14021D01*
X13751Y-14021D02*
X13319Y-14021D01*
G54D11*
X13001Y-13471D02*
X13001Y-13771D01*
X13176Y-13471D02*
X13176Y-13771D01*
X13176Y-13771D02*
X13026Y-13621D01*
X13026Y-13621D02*
X13176Y-13471D01*
G54D14*
X5393Y-28220D02*
X4951Y-28220D01*
X4951Y-28220D02*
X4951Y-29020D01*
X4951Y-29020D02*
X5393Y-29020D01*
X5819Y-28220D02*
X6251Y-28220D01*
X6251Y-28220D02*
X6251Y-29020D01*
X6251Y-29020D02*
X5819Y-29020D01*
G54D11*
X5501Y-28470D02*
X5501Y-28770D01*
X5676Y-28470D02*
X5676Y-28770D01*
X5676Y-28770D02*
X5526Y-28620D01*
X5526Y-28620D02*
X5676Y-28470D01*
G54D14*
X5393Y-13221D02*
X4951Y-13221D01*
X4951Y-13221D02*
X4951Y-14021D01*
X4951Y-14021D02*
X5393Y-14021D01*
X5819Y-13221D02*
X6251Y-13221D01*
X6251Y-13221D02*
X6251Y-14021D01*
X6251Y-14021D02*
X5819Y-14021D01*
G54D11*
X5501Y-13471D02*
X5501Y-13771D01*
X5676Y-13471D02*
X5676Y-13771D01*
X5676Y-13771D02*
X5526Y-13621D01*
X5526Y-13621D02*
X5676Y-13471D01*
G54D14*
X12893Y-5721D02*
X12451Y-5721D01*
X12451Y-5721D02*
X12451Y-6521D01*
X12451Y-6521D02*
X12893Y-6521D01*
X13319Y-5721D02*
X13751Y-5721D01*
X13751Y-5721D02*
X13751Y-6521D01*
X13751Y-6521D02*
X13319Y-6521D01*
G54D11*
X13001Y-5971D02*
X13001Y-6271D01*
X13176Y-5971D02*
X13176Y-6271D01*
X13176Y-6271D02*
X13026Y-6121D01*
X13026Y-6121D02*
X13176Y-5971D01*
G54D15*
X15283Y-2438D02*
X15198Y-2467D01*
X15055Y-2467D01*
X14998Y-2438D01*
X14969Y-2410D01*
X14940Y-2353D01*
X14940Y-2296D01*
X14969Y-2238D01*
X14998Y-2210D01*
X15055Y-2181D01*
X15169Y-2153D01*
X15226Y-2124D01*
X15255Y-2096D01*
X15283Y-2038D01*
X15283Y-1981D01*
X15255Y-1924D01*
X15226Y-1896D01*
X15169Y-1867D01*
X15026Y-1867D01*
X14940Y-1896D01*
X14569Y-1867D02*
X14512Y-1867D01*
X14455Y-1896D01*
X14426Y-1924D01*
X14398Y-1981D01*
X14369Y-2096D01*
X14369Y-2238D01*
X14398Y-2353D01*
X14426Y-2410D01*
X14455Y-2438D01*
X14512Y-2467D01*
X14569Y-2467D01*
X14626Y-2438D01*
X14655Y-2410D01*
X14683Y-2353D01*
X14712Y-2238D01*
X14712Y-2096D01*
X14683Y-1981D01*
X14655Y-1924D01*
X14626Y-1896D01*
X14569Y-1867D01*
X10301Y-64D02*
X10301Y-493D01*
X10329Y-579D01*
X10387Y-636D01*
X10472Y-664D01*
X10529Y-664D01*
X9701Y-664D02*
X10044Y-664D01*
X9872Y-664D02*
X9872Y-64D01*
X9929Y-150D01*
X9987Y-207D01*
X10044Y-236D01*
G54D17*
X23667Y-21552D02*
X24060Y-21814D01*
X23667Y-21814D02*
X24060Y-21552D01*
X24060Y-22170D02*
X24060Y-21945D01*
X24060Y-22058D02*
X23667Y-22058D01*
X23723Y-22020D01*
X23760Y-21983D01*
X23779Y-21945D01*
X16048Y-20046D02*
X16327Y-19767D01*
X15783Y-19728D02*
X15783Y-19754D01*
X15810Y-19807D01*
X15836Y-19834D01*
X15889Y-19860D01*
X15942Y-19860D01*
X15982Y-19847D01*
X16048Y-19807D01*
X16088Y-19767D01*
X16128Y-19701D01*
X16141Y-19661D01*
X16141Y-19608D01*
X16115Y-19555D01*
X16088Y-19529D01*
X16035Y-19502D01*
X16009Y-19502D01*
X15492Y-19489D02*
X15651Y-19648D01*
X15571Y-19569D02*
X15849Y-19290D01*
X15836Y-19357D01*
X15836Y-19410D01*
X15849Y-19449D01*
G54D16*
X15401Y-20961D02*
X15266Y-21096D01*
X15549Y-21055D02*
X15030Y-20725D01*
X15360Y-21244D01*
X14882Y-20873D02*
X14720Y-21035D01*
X15225Y-21379D02*
X14801Y-20954D01*
X15050Y-21554D02*
X14626Y-21129D01*
X14835Y-21527D01*
X14438Y-21318D01*
X14862Y-21742D01*
X14505Y-21655D02*
X14411Y-21749D01*
X14592Y-22012D02*
X14727Y-21877D01*
X14303Y-21453D01*
X14168Y-21587D01*
X13919Y-21877D02*
X13926Y-21830D01*
X13966Y-21789D01*
X14027Y-21769D01*
X14094Y-21783D01*
X14148Y-21810D01*
X14242Y-21877D01*
X14303Y-21937D01*
X14370Y-22032D01*
X14397Y-22086D01*
X14411Y-22153D01*
X14390Y-22214D01*
X14363Y-22241D01*
X14303Y-22261D01*
X14269Y-22254D01*
X14128Y-22113D01*
X14182Y-22059D01*
X14081Y-22281D02*
X13946Y-22416D01*
X14229Y-22375D02*
X13710Y-22045D01*
X14040Y-22564D01*
X13549Y-22207D02*
X13374Y-22382D01*
X13629Y-22449D01*
X13589Y-22490D01*
X13582Y-22537D01*
X13589Y-22571D01*
X13616Y-22624D01*
X13717Y-22725D01*
X13771Y-22752D01*
X13805Y-22759D01*
X13852Y-22752D01*
X13932Y-22672D01*
X13939Y-22624D01*
X13932Y-22591D01*
X13306Y-22530D02*
X13273Y-22523D01*
X13225Y-22530D01*
X13158Y-22597D01*
X13151Y-22645D01*
X13158Y-22678D01*
X13185Y-22732D01*
X13225Y-22773D01*
X13299Y-22820D01*
X13704Y-22901D01*
X13528Y-23076D01*
X12983Y-22773D02*
X13326Y-23116D01*
X13353Y-23170D01*
X13360Y-23204D01*
X13353Y-23251D01*
X13299Y-23305D01*
X13252Y-23311D01*
X13219Y-23305D01*
X13165Y-23278D01*
X12821Y-22934D01*
X12707Y-23332D02*
X12990Y-23614D01*
X12613Y-23103D02*
X12983Y-23338D01*
X12808Y-23513D01*
G54D17*
X6512Y-5485D02*
X6530Y-5502D01*
X6582Y-5520D01*
X6617Y-5520D01*
X6670Y-5502D01*
X6705Y-5467D01*
X6723Y-5432D01*
X6740Y-5362D01*
X6740Y-5309D01*
X6723Y-5239D01*
X6705Y-5204D01*
X6670Y-5169D01*
X6617Y-5151D01*
X6582Y-5151D01*
X6530Y-5169D01*
X6512Y-5187D01*
X6302Y-5309D02*
X6337Y-5292D01*
X6354Y-5274D01*
X6372Y-5239D01*
X6372Y-5222D01*
X6354Y-5187D01*
X6337Y-5169D01*
X6302Y-5151D01*
X6232Y-5151D01*
X6197Y-5169D01*
X6179Y-5187D01*
X6162Y-5222D01*
X6162Y-5239D01*
X6179Y-5274D01*
X6197Y-5292D01*
X6232Y-5309D01*
X6302Y-5309D01*
X6337Y-5327D01*
X6354Y-5344D01*
X6372Y-5379D01*
X6372Y-5449D01*
X6354Y-5485D01*
X6337Y-5502D01*
X6302Y-5520D01*
X6232Y-5520D01*
X6197Y-5502D01*
X6179Y-5485D01*
X6162Y-5449D01*
X6162Y-5379D01*
X6179Y-5344D01*
X6197Y-5327D01*
X6232Y-5309D01*
X26867Y-20992D02*
X26885Y-21011D01*
X26942Y-21030D01*
X26979Y-21030D01*
X27035Y-21011D01*
X27073Y-20973D01*
X27092Y-20936D01*
X27110Y-20861D01*
X27110Y-20805D01*
X27092Y-20730D01*
X27073Y-20692D01*
X27035Y-20655D01*
X26979Y-20636D01*
X26942Y-20636D01*
X26885Y-20655D01*
X26867Y-20674D01*
X26492Y-21030D02*
X26717Y-21030D01*
X26604Y-21030D02*
X26604Y-20636D01*
X26642Y-20692D01*
X26679Y-20730D01*
X26717Y-20749D01*
X26867Y-22592D02*
X26885Y-22611D01*
X26942Y-22630D01*
X26979Y-22630D01*
X27035Y-22611D01*
X27073Y-22573D01*
X27092Y-22536D01*
X27110Y-22461D01*
X27110Y-22405D01*
X27092Y-22330D01*
X27073Y-22292D01*
X27035Y-22255D01*
X26979Y-22236D01*
X26942Y-22236D01*
X26885Y-22255D01*
X26867Y-22274D01*
X26717Y-22274D02*
X26698Y-22255D01*
X26660Y-22236D01*
X26567Y-22236D01*
X26529Y-22255D01*
X26510Y-22274D01*
X26492Y-22311D01*
X26492Y-22349D01*
X26510Y-22405D01*
X26735Y-22630D01*
X26492Y-22630D01*
X8273Y-23055D02*
X8291Y-23036D01*
X8310Y-22980D01*
X8310Y-22942D01*
X8291Y-22886D01*
X8254Y-22849D01*
X8216Y-22830D01*
X8142Y-22811D01*
X8085Y-22811D01*
X8010Y-22830D01*
X7973Y-22849D01*
X7935Y-22886D01*
X7917Y-22942D01*
X7917Y-22980D01*
X7935Y-23036D01*
X7954Y-23055D01*
X8048Y-23392D02*
X8310Y-23392D01*
X7898Y-23298D02*
X8179Y-23205D01*
X8179Y-23448D01*
X11062Y-19781D02*
X11080Y-19799D01*
X11137Y-19818D01*
X11174Y-19818D01*
X11230Y-19799D01*
X11268Y-19762D01*
X11287Y-19724D01*
X11305Y-19649D01*
X11305Y-19593D01*
X11287Y-19518D01*
X11268Y-19481D01*
X11230Y-19443D01*
X11174Y-19424D01*
X11137Y-19424D01*
X11080Y-19443D01*
X11062Y-19462D01*
X10705Y-19424D02*
X10893Y-19424D01*
X10912Y-19612D01*
X10893Y-19593D01*
X10855Y-19574D01*
X10762Y-19574D01*
X10724Y-19593D01*
X10705Y-19612D01*
X10687Y-19649D01*
X10687Y-19743D01*
X10705Y-19781D01*
X10724Y-19799D01*
X10762Y-19818D01*
X10855Y-19818D01*
X10893Y-19799D01*
X10912Y-19781D01*
X23817Y-23692D02*
X23835Y-23711D01*
X23892Y-23730D01*
X23929Y-23730D01*
X23985Y-23711D01*
X24023Y-23673D01*
X24042Y-23636D01*
X24060Y-23561D01*
X24060Y-23505D01*
X24042Y-23430D01*
X24023Y-23392D01*
X23985Y-23355D01*
X23929Y-23336D01*
X23892Y-23336D01*
X23835Y-23355D01*
X23817Y-23374D01*
X23479Y-23336D02*
X23554Y-23336D01*
X23592Y-23355D01*
X23610Y-23374D01*
X23648Y-23430D01*
X23667Y-23505D01*
X23667Y-23655D01*
X23648Y-23692D01*
X23629Y-23711D01*
X23592Y-23730D01*
X23517Y-23730D01*
X23479Y-23711D01*
X23460Y-23692D01*
X23442Y-23655D01*
X23442Y-23561D01*
X23460Y-23523D01*
X23479Y-23505D01*
X23517Y-23486D01*
X23592Y-23486D01*
X23629Y-23505D01*
X23648Y-23523D01*
X23667Y-23561D01*
X23817Y-22792D02*
X23835Y-22811D01*
X23892Y-22830D01*
X23929Y-22830D01*
X23985Y-22811D01*
X24023Y-22773D01*
X24042Y-22736D01*
X24060Y-22661D01*
X24060Y-22605D01*
X24042Y-22530D01*
X24023Y-22492D01*
X23985Y-22455D01*
X23929Y-22436D01*
X23892Y-22436D01*
X23835Y-22455D01*
X23817Y-22474D01*
X23685Y-22436D02*
X23423Y-22436D01*
X23592Y-22830D01*
X7562Y-7620D02*
X7685Y-7444D01*
X7773Y-7620D02*
X7773Y-7251D01*
X7632Y-7251D01*
X7597Y-7269D01*
X7580Y-7287D01*
X7562Y-7322D01*
X7562Y-7374D01*
X7580Y-7409D01*
X7597Y-7427D01*
X7632Y-7444D01*
X7773Y-7444D01*
X7212Y-7620D02*
X7422Y-7620D01*
X7317Y-7620D02*
X7317Y-7251D01*
X7352Y-7304D01*
X7387Y-7339D01*
X7422Y-7357D01*
X8562Y-7620D02*
X8685Y-7444D01*
X8773Y-7620D02*
X8773Y-7251D01*
X8632Y-7251D01*
X8597Y-7269D01*
X8580Y-7287D01*
X8562Y-7322D01*
X8562Y-7374D01*
X8580Y-7409D01*
X8597Y-7427D01*
X8632Y-7444D01*
X8773Y-7444D01*
X8422Y-7287D02*
X8404Y-7269D01*
X8369Y-7251D01*
X8282Y-7251D01*
X8247Y-7269D01*
X8229Y-7287D01*
X8212Y-7322D01*
X8212Y-7357D01*
X8229Y-7409D01*
X8440Y-7620D01*
X8212Y-7620D01*
X7273Y-24605D02*
X7291Y-24586D01*
X7310Y-24530D01*
X7310Y-24492D01*
X7291Y-24436D01*
X7254Y-24399D01*
X7216Y-24380D01*
X7142Y-24361D01*
X7085Y-24361D01*
X7010Y-24380D01*
X6973Y-24399D01*
X6935Y-24436D01*
X6917Y-24492D01*
X6917Y-24530D01*
X6935Y-24586D01*
X6954Y-24605D01*
X6917Y-24736D02*
X6917Y-24980D01*
X7067Y-24848D01*
X7067Y-24905D01*
X7085Y-24942D01*
X7104Y-24961D01*
X7142Y-24980D01*
X7235Y-24980D01*
X7273Y-24961D01*
X7291Y-24942D01*
X7310Y-24905D01*
X7310Y-24792D01*
X7291Y-24755D01*
X7273Y-24736D01*
X26117Y-20430D02*
X26248Y-20242D01*
X26342Y-20430D02*
X26342Y-20036D01*
X26192Y-20036D01*
X26154Y-20055D01*
X26135Y-20074D01*
X26117Y-20111D01*
X26117Y-20167D01*
X26135Y-20205D01*
X26154Y-20223D01*
X26192Y-20242D01*
X26342Y-20242D01*
X25985Y-20036D02*
X25742Y-20036D01*
X25873Y-20186D01*
X25817Y-20186D01*
X25779Y-20205D01*
X25760Y-20223D01*
X25742Y-20261D01*
X25742Y-20355D01*
X25760Y-20392D01*
X25779Y-20411D01*
X25817Y-20430D01*
X25929Y-20430D01*
X25967Y-20411D01*
X25985Y-20392D01*
X7810Y-23805D02*
X7623Y-23674D01*
X7810Y-23580D02*
X7417Y-23580D01*
X7417Y-23730D01*
X7435Y-23767D01*
X7454Y-23786D01*
X7492Y-23805D01*
X7548Y-23805D01*
X7585Y-23786D01*
X7604Y-23767D01*
X7623Y-23730D01*
X7623Y-23580D01*
X7417Y-24161D02*
X7417Y-23973D01*
X7604Y-23955D01*
X7585Y-23973D01*
X7567Y-24011D01*
X7567Y-24105D01*
X7585Y-24142D01*
X7604Y-24161D01*
X7642Y-24180D01*
X7735Y-24180D01*
X7773Y-24161D01*
X7791Y-24142D01*
X7810Y-24105D01*
X7810Y-24011D01*
X7791Y-23973D01*
X7773Y-23955D01*
X28348Y-44519D02*
X28348Y-44151D01*
X28260Y-44151D01*
X28208Y-44169D01*
X28173Y-44204D01*
X28155Y-44239D01*
X28138Y-44309D01*
X28138Y-44362D01*
X28155Y-44432D01*
X28173Y-44467D01*
X28208Y-44502D01*
X28260Y-44519D01*
X28348Y-44519D01*
X27997Y-44186D02*
X27980Y-44169D01*
X27945Y-44151D01*
X27857Y-44151D01*
X27822Y-44169D01*
X27805Y-44186D01*
X27787Y-44221D01*
X27787Y-44256D01*
X27805Y-44309D01*
X28015Y-44519D01*
X27787Y-44519D01*
X27647Y-44186D02*
X27629Y-44169D01*
X27594Y-44151D01*
X27507Y-44151D01*
X27472Y-44169D01*
X27454Y-44186D01*
X27437Y-44221D01*
X27437Y-44256D01*
X27454Y-44309D01*
X27664Y-44519D01*
X27437Y-44519D01*
X20848Y-44519D02*
X20848Y-44151D01*
X20760Y-44151D01*
X20708Y-44169D01*
X20673Y-44204D01*
X20655Y-44239D01*
X20638Y-44309D01*
X20638Y-44362D01*
X20655Y-44432D01*
X20673Y-44467D01*
X20708Y-44502D01*
X20760Y-44519D01*
X20848Y-44519D01*
X20497Y-44186D02*
X20480Y-44169D01*
X20445Y-44151D01*
X20357Y-44151D01*
X20322Y-44169D01*
X20305Y-44186D01*
X20287Y-44221D01*
X20287Y-44256D01*
X20305Y-44309D01*
X20515Y-44519D01*
X20287Y-44519D01*
X19937Y-44519D02*
X20147Y-44519D01*
X20042Y-44519D02*
X20042Y-44151D01*
X20077Y-44204D01*
X20112Y-44239D01*
X20147Y-44256D01*
X27848Y-27519D02*
X27848Y-27151D01*
X27760Y-27151D01*
X27708Y-27169D01*
X27673Y-27204D01*
X27655Y-27239D01*
X27638Y-27309D01*
X27638Y-27362D01*
X27655Y-27432D01*
X27673Y-27467D01*
X27708Y-27502D01*
X27760Y-27519D01*
X27848Y-27519D01*
X27287Y-27519D02*
X27497Y-27519D01*
X27392Y-27519D02*
X27392Y-27151D01*
X27427Y-27204D01*
X27462Y-27239D01*
X27497Y-27256D01*
X27077Y-27309D02*
X27112Y-27291D01*
X27129Y-27274D01*
X27147Y-27239D01*
X27147Y-27221D01*
X27129Y-27186D01*
X27112Y-27169D01*
X27077Y-27151D01*
X27007Y-27151D01*
X26972Y-27169D01*
X26954Y-27186D01*
X26937Y-27221D01*
X26937Y-27239D01*
X26954Y-27274D01*
X26972Y-27291D01*
X27007Y-27309D01*
X27077Y-27309D01*
X27112Y-27327D01*
X27129Y-27344D01*
X27147Y-27379D01*
X27147Y-27449D01*
X27129Y-27484D01*
X27112Y-27502D01*
X27077Y-27519D01*
X27007Y-27519D01*
X26972Y-27502D01*
X26954Y-27484D01*
X26937Y-27449D01*
X26937Y-27379D01*
X26954Y-27344D01*
X26972Y-27327D01*
X27007Y-27309D01*
X27848Y-12520D02*
X27848Y-12151D01*
X27760Y-12151D01*
X27708Y-12169D01*
X27673Y-12204D01*
X27655Y-12239D01*
X27638Y-12309D01*
X27638Y-12362D01*
X27655Y-12432D01*
X27673Y-12467D01*
X27708Y-12502D01*
X27760Y-12520D01*
X27848Y-12520D01*
X27287Y-12520D02*
X27497Y-12520D01*
X27392Y-12520D02*
X27392Y-12151D01*
X27427Y-12204D01*
X27462Y-12239D01*
X27497Y-12257D01*
X27164Y-12151D02*
X26919Y-12151D01*
X27077Y-12520D01*
X28348Y-7020D02*
X28348Y-6651D01*
X28260Y-6651D01*
X28208Y-6669D01*
X28173Y-6704D01*
X28155Y-6739D01*
X28138Y-6809D01*
X28138Y-6862D01*
X28155Y-6932D01*
X28173Y-6967D01*
X28208Y-7002D01*
X28260Y-7020D01*
X28348Y-7020D01*
X27787Y-7020D02*
X27997Y-7020D01*
X27892Y-7020D02*
X27892Y-6651D01*
X27927Y-6704D01*
X27962Y-6739D01*
X27997Y-6757D01*
X27472Y-6651D02*
X27542Y-6651D01*
X27577Y-6669D01*
X27594Y-6687D01*
X27629Y-6739D01*
X27647Y-6809D01*
X27647Y-6949D01*
X27629Y-6985D01*
X27612Y-7002D01*
X27577Y-7020D01*
X27507Y-7020D01*
X27472Y-7002D01*
X27454Y-6985D01*
X27437Y-6949D01*
X27437Y-6862D01*
X27454Y-6827D01*
X27472Y-6809D01*
X27507Y-6792D01*
X27577Y-6792D01*
X27612Y-6809D01*
X27629Y-6827D01*
X27647Y-6862D01*
X20748Y-27969D02*
X20748Y-27601D01*
X20660Y-27601D01*
X20608Y-27619D01*
X20573Y-27654D01*
X20555Y-27689D01*
X20538Y-27759D01*
X20538Y-27812D01*
X20555Y-27882D01*
X20573Y-27917D01*
X20608Y-27952D01*
X20660Y-27969D01*
X20748Y-27969D01*
X20187Y-27969D02*
X20397Y-27969D01*
X20292Y-27969D02*
X20292Y-27601D01*
X20327Y-27654D01*
X20362Y-27689D01*
X20397Y-27706D01*
X19872Y-27724D02*
X19872Y-27969D01*
X19959Y-27584D02*
X20047Y-27847D01*
X19819Y-27847D01*
X20848Y-17019D02*
X20848Y-16651D01*
X20760Y-16651D01*
X20708Y-16669D01*
X20673Y-16704D01*
X20655Y-16739D01*
X20638Y-16809D01*
X20638Y-16862D01*
X20655Y-16932D01*
X20673Y-16967D01*
X20708Y-17002D01*
X20760Y-17019D01*
X20848Y-17019D01*
X20287Y-17019D02*
X20497Y-17019D01*
X20392Y-17019D02*
X20392Y-16651D01*
X20427Y-16704D01*
X20462Y-16739D01*
X20497Y-16756D01*
X20164Y-16651D02*
X19937Y-16651D01*
X20059Y-16791D01*
X20007Y-16791D01*
X19972Y-16809D01*
X19954Y-16827D01*
X19937Y-16862D01*
X19937Y-16949D01*
X19954Y-16984D01*
X19972Y-17002D01*
X20007Y-17019D01*
X20112Y-17019D01*
X20147Y-17002D01*
X20164Y-16984D01*
X20848Y-14520D02*
X20848Y-14151D01*
X20760Y-14151D01*
X20708Y-14169D01*
X20673Y-14204D01*
X20655Y-14239D01*
X20638Y-14309D01*
X20638Y-14362D01*
X20655Y-14432D01*
X20673Y-14467D01*
X20708Y-14502D01*
X20760Y-14520D01*
X20848Y-14520D01*
X20287Y-14520D02*
X20497Y-14520D01*
X20392Y-14520D02*
X20392Y-14151D01*
X20427Y-14204D01*
X20462Y-14239D01*
X20497Y-14257D01*
X20147Y-14187D02*
X20129Y-14169D01*
X20094Y-14151D01*
X20007Y-14151D01*
X19972Y-14169D01*
X19954Y-14187D01*
X19937Y-14222D01*
X19937Y-14257D01*
X19954Y-14309D01*
X20164Y-14520D01*
X19937Y-14520D01*
X20848Y-7020D02*
X20848Y-6651D01*
X20760Y-6651D01*
X20708Y-6669D01*
X20673Y-6704D01*
X20655Y-6739D01*
X20638Y-6809D01*
X20638Y-6862D01*
X20655Y-6932D01*
X20673Y-6967D01*
X20708Y-7002D01*
X20760Y-7020D01*
X20848Y-7020D01*
X20287Y-7020D02*
X20497Y-7020D01*
X20392Y-7020D02*
X20392Y-6651D01*
X20427Y-6704D01*
X20462Y-6739D01*
X20497Y-6757D01*
X19937Y-7020D02*
X20147Y-7020D01*
X20042Y-7020D02*
X20042Y-6651D01*
X20077Y-6704D01*
X20112Y-6739D01*
X20147Y-6757D01*
G54D18*
X25809Y-972D02*
X25809Y-722D01*
X25869Y-722D01*
X25905Y-734D01*
X25928Y-757D01*
X25940Y-781D01*
X25952Y-829D01*
X25952Y-865D01*
X25940Y-912D01*
X25928Y-936D01*
X25905Y-960D01*
X25869Y-972D01*
X25809Y-972D01*
X26143Y-841D02*
X26059Y-841D01*
X26059Y-972D02*
X26059Y-722D01*
X26178Y-722D01*
X26250Y-722D02*
X26405Y-722D01*
X26321Y-817D01*
X26357Y-817D01*
X26381Y-829D01*
X26393Y-841D01*
X26405Y-865D01*
X26405Y-924D01*
X26393Y-948D01*
X26381Y-960D01*
X26357Y-972D01*
X26286Y-972D01*
X26262Y-960D01*
X26250Y-948D01*
X3291Y-972D02*
X3291Y-722D01*
X3351Y-722D01*
X3387Y-734D01*
X3410Y-757D01*
X3422Y-781D01*
X3434Y-829D01*
X3434Y-865D01*
X3422Y-912D01*
X3410Y-936D01*
X3387Y-960D01*
X3351Y-972D01*
X3291Y-972D01*
X3684Y-948D02*
X3672Y-960D01*
X3637Y-972D01*
X3613Y-972D01*
X3577Y-960D01*
X3553Y-936D01*
X3541Y-912D01*
X3529Y-865D01*
X3529Y-829D01*
X3541Y-781D01*
X3553Y-757D01*
X3577Y-734D01*
X3613Y-722D01*
X3637Y-722D01*
X3672Y-734D01*
X3684Y-746D01*
X3922Y-972D02*
X3779Y-972D01*
X3851Y-972D02*
X3851Y-722D01*
X3827Y-757D01*
X3803Y-781D01*
X3779Y-793D01*
G54D17*
X13173Y-29519D02*
X13173Y-29151D01*
X13085Y-29151D01*
X13032Y-29169D01*
X12997Y-29204D01*
X12980Y-29239D01*
X12962Y-29309D01*
X12962Y-29362D01*
X12980Y-29432D01*
X12997Y-29467D01*
X13032Y-29502D01*
X13085Y-29519D01*
X13173Y-29519D01*
X12787Y-29519D02*
X12717Y-29519D01*
X12682Y-29502D01*
X12664Y-29484D01*
X12629Y-29432D01*
X12612Y-29362D01*
X12612Y-29221D01*
X12629Y-29186D01*
X12647Y-29169D01*
X12682Y-29151D01*
X12752Y-29151D01*
X12787Y-29169D01*
X12804Y-29186D01*
X12822Y-29221D01*
X12822Y-29309D01*
X12804Y-29344D01*
X12787Y-29362D01*
X12752Y-29379D01*
X12682Y-29379D01*
X12647Y-29362D01*
X12629Y-29344D01*
X12612Y-29309D01*
X13348Y-44519D02*
X13348Y-44151D01*
X13260Y-44151D01*
X13208Y-44169D01*
X13173Y-44204D01*
X13155Y-44239D01*
X13138Y-44309D01*
X13138Y-44362D01*
X13155Y-44432D01*
X13173Y-44467D01*
X13208Y-44502D01*
X13260Y-44519D01*
X13348Y-44519D01*
X12997Y-44186D02*
X12980Y-44169D01*
X12945Y-44151D01*
X12857Y-44151D01*
X12822Y-44169D01*
X12804Y-44186D01*
X12787Y-44221D01*
X12787Y-44256D01*
X12804Y-44309D01*
X13015Y-44519D01*
X12787Y-44519D01*
X12559Y-44151D02*
X12524Y-44151D01*
X12489Y-44169D01*
X12471Y-44186D01*
X12454Y-44221D01*
X12436Y-44291D01*
X12436Y-44379D01*
X12454Y-44449D01*
X12471Y-44484D01*
X12489Y-44502D01*
X12524Y-44519D01*
X12559Y-44519D01*
X12594Y-44502D01*
X12612Y-44484D01*
X12629Y-44449D01*
X12647Y-44379D01*
X12647Y-44291D01*
X12629Y-44221D01*
X12612Y-44186D01*
X12594Y-44169D01*
X12559Y-44151D01*
X5848Y-44519D02*
X5848Y-44151D01*
X5760Y-44151D01*
X5708Y-44169D01*
X5673Y-44204D01*
X5655Y-44239D01*
X5638Y-44309D01*
X5638Y-44362D01*
X5655Y-44432D01*
X5673Y-44467D01*
X5708Y-44502D01*
X5760Y-44519D01*
X5848Y-44519D01*
X5287Y-44519D02*
X5497Y-44519D01*
X5392Y-44519D02*
X5392Y-44151D01*
X5427Y-44204D01*
X5462Y-44239D01*
X5497Y-44256D01*
X5112Y-44519D02*
X5042Y-44519D01*
X5006Y-44502D01*
X4989Y-44484D01*
X4954Y-44432D01*
X4936Y-44362D01*
X4936Y-44221D01*
X4954Y-44186D01*
X4971Y-44169D01*
X5006Y-44151D01*
X5077Y-44151D01*
X5112Y-44169D01*
X5129Y-44186D01*
X5147Y-44221D01*
X5147Y-44309D01*
X5129Y-44344D01*
X5112Y-44362D01*
X5077Y-44379D01*
X5006Y-44379D01*
X4971Y-44362D01*
X4954Y-44344D01*
X4936Y-44309D01*
X20848Y-37019D02*
X20848Y-36651D01*
X20760Y-36651D01*
X20708Y-36669D01*
X20673Y-36704D01*
X20655Y-36739D01*
X20638Y-36809D01*
X20638Y-36862D01*
X20655Y-36932D01*
X20673Y-36967D01*
X20708Y-37002D01*
X20760Y-37019D01*
X20848Y-37019D01*
X20287Y-37019D02*
X20497Y-37019D01*
X20392Y-37019D02*
X20392Y-36651D01*
X20427Y-36704D01*
X20462Y-36739D01*
X20497Y-36756D01*
X19954Y-36651D02*
X20129Y-36651D01*
X20147Y-36827D01*
X20129Y-36809D01*
X20094Y-36791D01*
X20007Y-36791D01*
X19972Y-36809D01*
X19954Y-36827D01*
X19937Y-36862D01*
X19937Y-36949D01*
X19954Y-36984D01*
X19972Y-37002D01*
X20007Y-37019D01*
X20094Y-37019D01*
X20129Y-37002D01*
X20147Y-36984D01*
X13348Y-37019D02*
X13348Y-36651D01*
X13260Y-36651D01*
X13208Y-36669D01*
X13173Y-36704D01*
X13155Y-36739D01*
X13138Y-36809D01*
X13138Y-36862D01*
X13155Y-36932D01*
X13173Y-36967D01*
X13208Y-37002D01*
X13260Y-37019D01*
X13348Y-37019D01*
X12787Y-37019D02*
X12997Y-37019D01*
X12892Y-37019D02*
X12892Y-36651D01*
X12927Y-36704D01*
X12962Y-36739D01*
X12997Y-36756D01*
X12559Y-36651D02*
X12524Y-36651D01*
X12489Y-36669D01*
X12471Y-36686D01*
X12454Y-36721D01*
X12436Y-36791D01*
X12436Y-36879D01*
X12454Y-36949D01*
X12471Y-36984D01*
X12489Y-37002D01*
X12524Y-37019D01*
X12559Y-37019D01*
X12594Y-37002D01*
X12612Y-36984D01*
X12629Y-36949D01*
X12647Y-36879D01*
X12647Y-36791D01*
X12629Y-36721D01*
X12612Y-36686D01*
X12594Y-36669D01*
X12559Y-36651D01*
X5673Y-37019D02*
X5673Y-36651D01*
X5585Y-36651D01*
X5532Y-36669D01*
X5497Y-36704D01*
X5480Y-36739D01*
X5462Y-36809D01*
X5462Y-36862D01*
X5480Y-36932D01*
X5497Y-36967D01*
X5532Y-37002D01*
X5585Y-37019D01*
X5673Y-37019D01*
X5129Y-36651D02*
X5304Y-36651D01*
X5322Y-36827D01*
X5304Y-36809D01*
X5269Y-36791D01*
X5182Y-36791D01*
X5147Y-36809D01*
X5129Y-36827D01*
X5112Y-36862D01*
X5112Y-36949D01*
X5129Y-36984D01*
X5147Y-37002D01*
X5182Y-37019D01*
X5269Y-37019D01*
X5304Y-37002D01*
X5322Y-36984D01*
X5673Y-22019D02*
X5673Y-21651D01*
X5585Y-21651D01*
X5532Y-21669D01*
X5497Y-21704D01*
X5480Y-21739D01*
X5462Y-21809D01*
X5462Y-21862D01*
X5480Y-21932D01*
X5497Y-21967D01*
X5532Y-22002D01*
X5585Y-22019D01*
X5673Y-22019D01*
X5340Y-21651D02*
X5112Y-21651D01*
X5234Y-21791D01*
X5182Y-21791D01*
X5147Y-21809D01*
X5129Y-21827D01*
X5112Y-21862D01*
X5112Y-21949D01*
X5129Y-21984D01*
X5147Y-22002D01*
X5182Y-22019D01*
X5287Y-22019D01*
X5322Y-22002D01*
X5340Y-21984D01*
X5673Y-7020D02*
X5673Y-6651D01*
X5585Y-6651D01*
X5532Y-6669D01*
X5497Y-6704D01*
X5480Y-6739D01*
X5462Y-6809D01*
X5462Y-6862D01*
X5480Y-6932D01*
X5497Y-6967D01*
X5532Y-7002D01*
X5585Y-7020D01*
X5673Y-7020D01*
X5112Y-7020D02*
X5322Y-7020D01*
X5217Y-7020D02*
X5217Y-6651D01*
X5252Y-6704D01*
X5287Y-6739D01*
X5322Y-6757D01*
X13173Y-17019D02*
X13173Y-16651D01*
X13085Y-16651D01*
X13032Y-16669D01*
X12997Y-16704D01*
X12980Y-16739D01*
X12962Y-16809D01*
X12962Y-16862D01*
X12980Y-16932D01*
X12997Y-16967D01*
X13032Y-17002D01*
X13085Y-17019D01*
X13173Y-17019D01*
X12752Y-16809D02*
X12787Y-16791D01*
X12804Y-16774D01*
X12822Y-16739D01*
X12822Y-16721D01*
X12804Y-16686D01*
X12787Y-16669D01*
X12752Y-16651D01*
X12682Y-16651D01*
X12647Y-16669D01*
X12629Y-16686D01*
X12612Y-16721D01*
X12612Y-16739D01*
X12629Y-16774D01*
X12647Y-16791D01*
X12682Y-16809D01*
X12752Y-16809D01*
X12787Y-16827D01*
X12804Y-16844D01*
X12822Y-16879D01*
X12822Y-16949D01*
X12804Y-16984D01*
X12787Y-17002D01*
X12752Y-17019D01*
X12682Y-17019D01*
X12647Y-17002D01*
X12629Y-16984D01*
X12612Y-16949D01*
X12612Y-16879D01*
X12629Y-16844D01*
X12647Y-16827D01*
X12682Y-16809D01*
X13173Y-14520D02*
X13173Y-14151D01*
X13085Y-14151D01*
X13032Y-14169D01*
X12997Y-14204D01*
X12980Y-14239D01*
X12962Y-14309D01*
X12962Y-14362D01*
X12980Y-14432D01*
X12997Y-14467D01*
X13032Y-14502D01*
X13085Y-14520D01*
X13173Y-14520D01*
X12840Y-14151D02*
X12594Y-14151D01*
X12752Y-14520D01*
X5673Y-29519D02*
X5673Y-29151D01*
X5585Y-29151D01*
X5532Y-29169D01*
X5497Y-29204D01*
X5480Y-29239D01*
X5462Y-29309D01*
X5462Y-29362D01*
X5480Y-29432D01*
X5497Y-29467D01*
X5532Y-29502D01*
X5585Y-29519D01*
X5673Y-29519D01*
X5147Y-29274D02*
X5147Y-29519D01*
X5234Y-29134D02*
X5322Y-29397D01*
X5094Y-29397D01*
X5673Y-14520D02*
X5673Y-14151D01*
X5585Y-14151D01*
X5532Y-14169D01*
X5497Y-14204D01*
X5480Y-14239D01*
X5462Y-14309D01*
X5462Y-14362D01*
X5480Y-14432D01*
X5497Y-14467D01*
X5532Y-14502D01*
X5585Y-14520D01*
X5673Y-14520D01*
X5322Y-14187D02*
X5304Y-14169D01*
X5269Y-14151D01*
X5182Y-14151D01*
X5147Y-14169D01*
X5129Y-14187D01*
X5112Y-14222D01*
X5112Y-14257D01*
X5129Y-14309D01*
X5340Y-14520D01*
X5112Y-14520D01*
X13173Y-7020D02*
X13173Y-6651D01*
X13085Y-6651D01*
X13032Y-6669D01*
X12997Y-6704D01*
X12980Y-6739D01*
X12962Y-6809D01*
X12962Y-6862D01*
X12980Y-6932D01*
X12997Y-6967D01*
X13032Y-7002D01*
X13085Y-7020D01*
X13173Y-7020D01*
X12647Y-6651D02*
X12717Y-6651D01*
X12752Y-6669D01*
X12769Y-6687D01*
X12804Y-6739D01*
X12822Y-6809D01*
X12822Y-6949D01*
X12804Y-6985D01*
X12787Y-7002D01*
X12752Y-7020D01*
X12682Y-7020D01*
X12647Y-7002D01*
X12629Y-6985D01*
X12612Y-6949D01*
X12612Y-6862D01*
X12629Y-6827D01*
X12647Y-6809D01*
X12682Y-6792D01*
X12752Y-6792D01*
X12787Y-6809D01*
X12804Y-6827D01*
X12822Y-6862D01*
G54D18*
X10809Y-972D02*
X10809Y-722D01*
X10869Y-722D01*
X10904Y-734D01*
X10928Y-757D01*
X10940Y-781D01*
X10952Y-829D01*
X10952Y-865D01*
X10940Y-912D01*
X10928Y-936D01*
X10904Y-960D01*
X10869Y-972D01*
X10809Y-972D01*
X11143Y-841D02*
X11059Y-841D01*
X11059Y-972D02*
X11059Y-722D01*
X11178Y-722D01*
X11404Y-972D02*
X11262Y-972D01*
X11333Y-972D02*
X11333Y-722D01*
X11309Y-757D01*
X11285Y-781D01*
X11262Y-793D01*
X18309Y-972D02*
X18309Y-722D01*
X18369Y-722D01*
X18405Y-734D01*
X18428Y-757D01*
X18440Y-781D01*
X18452Y-829D01*
X18452Y-865D01*
X18440Y-912D01*
X18428Y-936D01*
X18405Y-960D01*
X18369Y-972D01*
X18309Y-972D01*
X18643Y-841D02*
X18559Y-841D01*
X18559Y-972D02*
X18559Y-722D01*
X18678Y-722D01*
X18762Y-746D02*
X18774Y-734D01*
X18798Y-722D01*
X18857Y-722D01*
X18881Y-734D01*
X18893Y-746D01*
X18905Y-769D01*
X18905Y-793D01*
X18893Y-829D01*
X18750Y-972D01*
X18905Y-972D01*
%LPC*%
G54D19*
X574Y-22244D03*
G54D20*
X15639Y-4623D03*
X14064Y-1119D03*
X15638Y-1119D03*
X14064Y-4623D03*
G54D21*
X9104Y-775D03*
X5226Y-775D03*
G54D22*
X5226Y-2449D03*
X9104Y-2449D03*
G54D23*
X7165Y-2449D03*
X6850Y-2449D03*
X6535Y-2449D03*
X7480Y-2449D03*
X7795Y-2449D03*
G54D24*
X6299Y-1523D03*
X8031Y-1523D03*
G54D25*
X24586Y-21887D03*
X24586Y-22753D03*
X25216Y-21887D03*
X25216Y-22753D03*
G54D26*
X15984Y-24103D02*
X16400Y-24519D01*
X15761Y-24326D02*
X16177Y-24742D01*
X15539Y-24549D02*
X15954Y-24965D01*
X15316Y-24772D02*
X15732Y-25187D01*
X15093Y-24994D02*
X15509Y-25410D01*
X14870Y-25217D02*
X15286Y-25633D01*
X16207Y-23881D02*
X16622Y-24297D01*
X16429Y-23658D02*
X16845Y-24074D01*
X16652Y-23435D02*
X17068Y-23851D01*
X16875Y-23213D02*
X17291Y-23628D01*
X17098Y-22990D02*
X17513Y-23406D01*
X12802Y-20921D02*
X13218Y-21337D01*
X12579Y-21144D02*
X12995Y-21560D01*
X12357Y-21367D02*
X12772Y-21783D01*
X12134Y-21590D02*
X12550Y-22005D01*
X11911Y-21812D02*
X12327Y-22228D01*
X11688Y-22035D02*
X12104Y-22451D01*
X13025Y-20699D02*
X13441Y-21115D01*
X13247Y-20476D02*
X13663Y-20892D01*
X13470Y-20253D02*
X13886Y-20669D01*
X13693Y-20031D02*
X14109Y-20446D01*
X13916Y-19808D02*
X14331Y-20224D01*
X12802Y-24519D02*
X13218Y-24103D01*
X15984Y-21337D02*
X16400Y-20921D01*
X12579Y-24297D02*
X12995Y-23881D01*
X15761Y-21115D02*
X16177Y-20699D01*
X15539Y-20892D02*
X15954Y-20476D01*
X12357Y-24074D02*
X12772Y-23658D01*
X12134Y-23851D02*
X12550Y-23435D01*
X15316Y-20669D02*
X15732Y-20253D01*
X15093Y-20446D02*
X15509Y-20031D01*
X11911Y-23628D02*
X12327Y-23213D01*
X11688Y-23406D02*
X12104Y-22990D01*
X14870Y-20224D02*
X15286Y-19808D01*
X16207Y-21560D02*
X16622Y-21144D01*
X13025Y-24742D02*
X13441Y-24326D01*
X13247Y-24965D02*
X13663Y-24549D01*
X16429Y-21783D02*
X16845Y-21367D01*
X16652Y-22005D02*
X17068Y-21590D01*
X13470Y-25187D02*
X13886Y-24772D01*
X13693Y-25410D02*
X14109Y-24994D01*
X16875Y-22228D02*
X17291Y-21812D01*
X17098Y-22451D02*
X17513Y-22035D01*
X13916Y-25633D02*
X14331Y-25217D01*
G54D27*
X6476Y-4621D03*
X7226Y-4621D03*
X26026Y-21620D03*
X26776Y-21620D03*
X26026Y-23220D03*
X26776Y-23220D03*
G54D28*
X8901Y-23145D03*
X8901Y-23895D03*
G54D27*
X11771Y-20434D03*
X11021Y-20434D03*
X24526Y-23820D03*
X25276Y-23820D03*
X23026Y-21920D03*
X23776Y-21920D03*
G54D28*
X7351Y-6746D03*
X7351Y-5996D03*
X8351Y-6746D03*
X8351Y-5996D03*
X7901Y-24695D03*
X7901Y-23945D03*
G54D27*
X26026Y-19520D03*
X26776Y-19520D03*
G54D28*
X7901Y-23095D03*
X7901Y-22345D03*
G54D27*
X28476Y-43620D03*
X27726Y-43620D03*
X20976Y-43620D03*
X20226Y-43620D03*
X27976Y-26620D03*
X27226Y-26620D03*
X27976Y-11621D03*
X27226Y-11621D03*
X28476Y-6121D03*
X27726Y-6121D03*
X20876Y-28620D03*
X20126Y-28620D03*
X20976Y-16120D03*
X20226Y-16120D03*
X20976Y-13621D03*
X20226Y-13621D03*
X20976Y-6121D03*
X20226Y-6121D03*
G54D29*
X12601Y-37370D03*
X10601Y-37370D03*
X8601Y-37370D03*
X11601Y-37370D03*
X9601Y-37370D03*
X13601Y-37370D03*
G54D30*
X1101Y-7121D03*
X4101Y-7121D03*
G54D31*
X17601Y-43120D03*
X20101Y-42120D03*
G54D32*
X18601Y-41120D03*
G54D33*
X20601Y-41120D03*
X16601Y-41120D03*
G54D31*
X17601Y-28120D03*
X20101Y-27120D03*
G54D32*
X18601Y-26120D03*
G54D33*
X20601Y-26120D03*
X16601Y-26120D03*
G54D31*
X17601Y-13121D03*
X20101Y-12121D03*
G54D32*
X18601Y-11121D03*
G54D33*
X20601Y-11121D03*
X16601Y-11121D03*
G54D31*
X25101Y-5622D03*
X27601Y-4622D03*
G54D32*
X26101Y-3622D03*
G54D33*
X28101Y-3622D03*
X24101Y-3622D03*
G54D31*
X17601Y-5622D03*
X20101Y-4622D03*
G54D32*
X18601Y-3622D03*
G54D33*
X20601Y-3622D03*
X16601Y-3622D03*
G54D31*
X17601Y-20620D03*
X20101Y-19620D03*
G54D32*
X18601Y-18620D03*
G54D33*
X20601Y-18620D03*
X16601Y-18620D03*
G54D31*
X25101Y-43120D03*
X27601Y-42120D03*
G54D32*
X26101Y-41120D03*
G54D33*
X28101Y-41120D03*
X24101Y-41120D03*
G54D34*
X26601Y-1621D03*
G54D35*
X25601Y-1621D03*
G54D34*
X4101Y-1621D03*
G54D35*
X3101Y-1621D03*
G54D36*
X351Y-44370D03*
X29351Y-371D03*
X29351Y-44370D03*
X351Y-322D03*
G54D27*
X13476Y-28620D03*
X12726Y-28620D03*
X13476Y-43620D03*
X12726Y-43620D03*
X5976Y-43620D03*
X5226Y-43620D03*
X20976Y-36120D03*
X20226Y-36120D03*
X13476Y-36120D03*
X12726Y-36120D03*
X5976Y-36120D03*
X5226Y-36120D03*
X5976Y-21120D03*
X5226Y-21120D03*
X5976Y-6121D03*
X5226Y-6121D03*
X13476Y-16120D03*
X12726Y-16120D03*
X13476Y-13621D03*
X12726Y-13621D03*
X5976Y-28620D03*
X5226Y-28620D03*
X5976Y-13621D03*
X5226Y-13621D03*
X13476Y-6121D03*
X12726Y-6121D03*
G54D31*
X2601Y-5621D03*
X5101Y-4621D03*
G54D32*
X3601Y-3621D03*
G54D33*
X5601Y-3621D03*
X1601Y-3621D03*
G54D31*
X2601Y-28120D03*
X5101Y-27120D03*
G54D32*
X3601Y-26120D03*
G54D33*
X5601Y-26120D03*
X1601Y-26120D03*
G54D31*
X10101Y-28120D03*
X12601Y-27120D03*
G54D32*
X11101Y-26120D03*
G54D33*
X13101Y-26120D03*
X9101Y-26120D03*
G54D31*
X10101Y-35620D03*
X12601Y-34620D03*
G54D32*
X11101Y-33620D03*
G54D33*
X13101Y-33620D03*
X9101Y-33620D03*
G54D31*
X17601Y-35620D03*
X20101Y-34620D03*
G54D32*
X18601Y-33620D03*
G54D33*
X20601Y-33620D03*
X16601Y-33620D03*
G54D31*
X2601Y-35620D03*
X5101Y-34620D03*
G54D32*
X3601Y-33620D03*
G54D33*
X5601Y-33620D03*
X1601Y-33620D03*
G54D31*
X10101Y-20620D03*
X12601Y-19620D03*
G54D32*
X11101Y-18620D03*
G54D33*
X13101Y-18620D03*
X9101Y-18620D03*
G54D31*
X2601Y-20620D03*
X5101Y-19620D03*
G54D32*
X3601Y-18620D03*
G54D33*
X5601Y-18620D03*
X1601Y-18620D03*
G54D31*
X10101Y-13121D03*
X12601Y-12121D03*
G54D32*
X11101Y-11121D03*
G54D33*
X13101Y-11121D03*
X9101Y-11121D03*
G54D31*
X10101Y-43120D03*
X12601Y-42120D03*
G54D32*
X11101Y-41120D03*
G54D33*
X13101Y-41120D03*
X9101Y-41120D03*
G54D31*
X2601Y-43120D03*
X5101Y-42120D03*
G54D32*
X3601Y-41120D03*
G54D33*
X5601Y-41120D03*
X1601Y-41120D03*
G54D31*
X2601Y-13121D03*
X5101Y-12121D03*
G54D32*
X3601Y-11121D03*
G54D33*
X5601Y-11121D03*
X1601Y-11121D03*
G54D31*
X10101Y-5621D03*
X12601Y-4621D03*
G54D32*
X11101Y-3621D03*
G54D33*
X13101Y-3621D03*
X9101Y-3621D03*
G54D31*
X28101Y-15870D03*
X27101Y-13370D03*
G54D32*
X26101Y-14870D03*
G54D33*
X26101Y-12870D03*
X26101Y-16870D03*
G54D37*
X28851Y-10170D03*
X28851Y-19570D03*
G54D32*
X22851Y-10170D03*
X22851Y-19570D03*
G54D31*
X28101Y-30870D03*
X27101Y-28370D03*
G54D32*
X26101Y-29870D03*
G54D33*
X26101Y-27870D03*
X26101Y-31870D03*
G54D37*
X28851Y-25170D03*
X28851Y-34570D03*
G54D32*
X22851Y-25170D03*
X22851Y-34570D03*
G54D30*
X24101Y-7121D03*
X27101Y-7121D03*
X14601Y-7121D03*
X11601Y-7121D03*
X22101Y-7121D03*
X19101Y-7121D03*
G54D34*
X11601Y-1621D03*
G54D35*
X10601Y-1621D03*
G54D34*
X19101Y-1621D03*
G54D35*
X18101Y-1621D03*
M02*
