G04 (created by PCBNEW (2013-02-13 BZR 3947)-testing) date 10/17/2013 1:35:16 PM*
%MOIN*%
G04 Gerber Fmt 3.4, Leading zero omitted, Abs format*
%FSLAX34Y34*%
G01*
G70*
G90*
G04 APERTURE LIST*
%ADD10C,0*%
%ADD11C,0.0708661*%
%ADD12C,0.0629921*%
%ADD13C,0.09*%
%ADD14C,0.157*%
%ADD15C,0.067*%
%ADD16O,0.075X0.085*%
%ADD17R,0.075X0.085*%
%ADD18C,0.12*%
%ADD19C,0.0393701*%
%ADD20C,0.0354331*%
%ADD21O,0.06X0.042*%
%ADD22O,0.393701X0.19685*%
%ADD23C,0.0984252*%
%ADD24C,0.00787402*%
%ADD25C,0.02*%
%ADD26C,0.01*%
G04 APERTURE END LIST*
G54D10*
G54D11*
X7225Y-16746D03*
X7225Y-18746D03*
X7225Y-20746D03*
X7225Y-17746D03*
X7225Y-19746D03*
X7225Y-15746D03*
G54D12*
X1101Y-7121D03*
X4101Y-7121D03*
G54D13*
X2601Y-43122D03*
X5101Y-42122D03*
G54D14*
X3601Y-41122D03*
G54D15*
X5601Y-41122D03*
X1601Y-41122D03*
G54D13*
X17601Y-28120D03*
X20101Y-27120D03*
G54D14*
X18601Y-26120D03*
G54D15*
X20601Y-26120D03*
X16601Y-26120D03*
G54D13*
X17601Y-13121D03*
X20101Y-12121D03*
G54D14*
X18601Y-11121D03*
G54D15*
X20601Y-11121D03*
X16601Y-11121D03*
G54D13*
X25101Y-5622D03*
X27601Y-4622D03*
G54D14*
X26101Y-3622D03*
G54D15*
X28101Y-3622D03*
X24101Y-3622D03*
G54D13*
X17601Y-5622D03*
X20101Y-4622D03*
G54D14*
X18601Y-3622D03*
G54D15*
X20601Y-3622D03*
X16601Y-3622D03*
G54D13*
X17601Y-20620D03*
X20101Y-19620D03*
G54D14*
X18601Y-18620D03*
G54D15*
X20601Y-18620D03*
X16601Y-18620D03*
G54D13*
X10101Y-43122D03*
X12601Y-42122D03*
G54D14*
X11101Y-41122D03*
G54D15*
X13101Y-41122D03*
X9101Y-41122D03*
G54D16*
X26601Y-1621D03*
G54D17*
X25601Y-1621D03*
G54D16*
X4101Y-1621D03*
G54D17*
X3101Y-1621D03*
G54D13*
X2601Y-5621D03*
X5101Y-4621D03*
G54D14*
X3601Y-3621D03*
G54D15*
X5601Y-3621D03*
X1601Y-3621D03*
G54D13*
X2601Y-28120D03*
X5101Y-27120D03*
G54D14*
X3601Y-26120D03*
G54D15*
X5601Y-26120D03*
X1601Y-26120D03*
G54D13*
X10101Y-28120D03*
X12601Y-27120D03*
G54D14*
X11101Y-26120D03*
G54D15*
X13101Y-26120D03*
X9101Y-26120D03*
G54D13*
X10101Y-35620D03*
X12601Y-34620D03*
G54D14*
X11101Y-33620D03*
G54D15*
X13101Y-33620D03*
X9101Y-33620D03*
G54D13*
X17601Y-35620D03*
X20101Y-34620D03*
G54D14*
X18601Y-33620D03*
G54D15*
X20601Y-33620D03*
X16601Y-33620D03*
G54D13*
X2601Y-35620D03*
X5101Y-34620D03*
G54D14*
X3601Y-33620D03*
G54D15*
X5601Y-33620D03*
X1601Y-33620D03*
G54D13*
X10101Y-20620D03*
X12601Y-19620D03*
G54D14*
X11101Y-18620D03*
G54D15*
X13101Y-18620D03*
X9101Y-18620D03*
G54D13*
X2601Y-20620D03*
X5101Y-19620D03*
G54D14*
X3601Y-18620D03*
G54D15*
X5601Y-18620D03*
X1601Y-18620D03*
G54D13*
X10101Y-13121D03*
X12601Y-12121D03*
G54D14*
X11101Y-11121D03*
G54D15*
X13101Y-11121D03*
X9101Y-11121D03*
G54D13*
X25101Y-35622D03*
X27601Y-34622D03*
G54D14*
X26101Y-33622D03*
G54D15*
X28101Y-33622D03*
X24101Y-33622D03*
G54D13*
X25101Y-28122D03*
X27601Y-27122D03*
G54D14*
X26101Y-26122D03*
G54D15*
X28101Y-26122D03*
X24101Y-26122D03*
G54D13*
X2601Y-13121D03*
X5101Y-12121D03*
G54D14*
X3601Y-11121D03*
G54D15*
X5601Y-11121D03*
X1601Y-11121D03*
G54D13*
X10101Y-5621D03*
X12601Y-4621D03*
G54D14*
X11101Y-3621D03*
G54D15*
X13101Y-3621D03*
X9101Y-3621D03*
G54D12*
X24101Y-7121D03*
X27101Y-7121D03*
X14601Y-7121D03*
X11601Y-7121D03*
X22101Y-7121D03*
X19101Y-7121D03*
G54D16*
X11601Y-1621D03*
G54D17*
X10601Y-1621D03*
G54D16*
X19101Y-1621D03*
G54D17*
X18101Y-1621D03*
G54D13*
X6351Y-35622D03*
X8851Y-34622D03*
G54D14*
X7351Y-33622D03*
G54D15*
X9351Y-33622D03*
X5351Y-33622D03*
G54D18*
X12051Y-36372D03*
X2651Y-36372D03*
G54D14*
X12051Y-30372D03*
X2651Y-30372D03*
G54D13*
X28101Y-30872D03*
X27101Y-28372D03*
G54D14*
X26101Y-29872D03*
G54D15*
X26101Y-27872D03*
X26101Y-31872D03*
G54D18*
X28851Y-25172D03*
X28851Y-34572D03*
G54D14*
X22851Y-25172D03*
X22851Y-34572D03*
G54D13*
X28101Y-15872D03*
X27101Y-13372D03*
G54D14*
X26101Y-14872D03*
G54D15*
X26101Y-12872D03*
X26101Y-16872D03*
G54D18*
X28851Y-10172D03*
X28851Y-19572D03*
G54D14*
X22851Y-10172D03*
X22851Y-19572D03*
G54D13*
X17601Y-43122D03*
X20101Y-42122D03*
G54D14*
X18601Y-41122D03*
G54D15*
X20601Y-41122D03*
X16601Y-41122D03*
G54D13*
X25101Y-43122D03*
X27601Y-42122D03*
G54D14*
X26101Y-41122D03*
G54D15*
X28101Y-41122D03*
X24101Y-41122D03*
G54D13*
X25101Y-13122D03*
X27601Y-12122D03*
G54D14*
X26101Y-11122D03*
G54D15*
X28101Y-11122D03*
X24101Y-11122D03*
G54D13*
X25101Y-20622D03*
X27601Y-19622D03*
G54D14*
X26101Y-18622D03*
G54D15*
X28101Y-18622D03*
X24101Y-18622D03*
G54D13*
X6351Y-43122D03*
X8851Y-42122D03*
G54D14*
X7351Y-41122D03*
G54D15*
X9351Y-41122D03*
X5351Y-41122D03*
G54D18*
X12051Y-43872D03*
X2651Y-43872D03*
G54D14*
X12051Y-37872D03*
X2651Y-37872D03*
G54D13*
X28101Y-23372D03*
X27101Y-20872D03*
G54D14*
X26101Y-22372D03*
G54D15*
X26101Y-20372D03*
X26101Y-24372D03*
G54D18*
X28851Y-17672D03*
X28851Y-27072D03*
G54D14*
X22851Y-17672D03*
X22851Y-27072D03*
G54D13*
X28101Y-38372D03*
X27101Y-35872D03*
G54D14*
X26101Y-37372D03*
G54D15*
X26101Y-35372D03*
X26101Y-39372D03*
G54D18*
X28851Y-32672D03*
X28851Y-42072D03*
G54D14*
X22851Y-32672D03*
X22851Y-42072D03*
G54D19*
X352Y-36620D03*
X29351Y-371D03*
X29352Y-36670D03*
X351Y-322D03*
X29351Y-44372D03*
X351Y-44372D03*
G54D20*
X6299Y-1523D03*
X8031Y-1523D03*
G54D21*
X502Y-8121D03*
X502Y-8621D03*
X502Y-9121D03*
X502Y-9621D03*
X502Y-10121D03*
X502Y-10621D03*
X502Y-11621D03*
X502Y-12121D03*
X502Y-12621D03*
X502Y-13121D03*
G54D19*
X29702Y-37320D03*
X28202Y-37320D03*
X24702Y-37320D03*
X23202Y-37320D03*
X21702Y-37320D03*
X20202Y-37320D03*
G54D21*
X502Y-15120D03*
X502Y-14620D03*
X502Y-14120D03*
G54D19*
X18702Y-37320D03*
X17202Y-37320D03*
X15702Y-37320D03*
X14202Y-37320D03*
X10202Y-37320D03*
X8702Y-37320D03*
X7202Y-37320D03*
X5702Y-37320D03*
X4202Y-37320D03*
X1202Y-37320D03*
X2Y-37320D03*
G54D22*
X574Y-22244D03*
G54D23*
X-325Y-22244D03*
X274Y-22244D03*
X874Y-22244D03*
X1474Y-22244D03*
G54D19*
X15622Y-22280D03*
X15778Y-22894D03*
X15965Y-23615D03*
X14930Y-24348D03*
X8326Y-20095D03*
X8265Y-13807D03*
X2532Y-12305D03*
X11561Y-24834D03*
X14088Y-16458D03*
X14003Y-13841D03*
X15283Y-24033D03*
X5837Y-12197D03*
X14205Y-26987D03*
X21075Y-16826D03*
X20922Y-24520D03*
X3935Y-13974D03*
X5487Y-13014D03*
X6529Y-17305D03*
X14064Y-20999D03*
X13034Y-18001D03*
X16963Y-20109D03*
X2587Y-15999D03*
X2185Y-16456D03*
X16467Y-20401D03*
X14660Y-19901D03*
X1723Y-15310D03*
X10463Y-24060D03*
X9399Y-21636D03*
X12216Y-7660D03*
X2936Y-15009D03*
X9164Y-12125D03*
X12835Y-25068D03*
X8645Y-12368D03*
X12150Y-24900D03*
X23950Y-22103D03*
X16358Y-19660D03*
X13886Y-21471D03*
X14251Y-19371D03*
X23381Y-22115D03*
X21498Y-20054D03*
X13438Y-17716D03*
X12588Y-20514D03*
X4736Y-6115D03*
X13243Y-23509D03*
X14149Y-24528D03*
X14272Y-22956D03*
G54D24*
X15622Y-8141D02*
X15622Y-22280D01*
X14601Y-7121D02*
X15622Y-8141D01*
X15955Y-22717D02*
X15778Y-22894D01*
X15955Y-19926D02*
X15955Y-22717D01*
X15886Y-19856D02*
X15955Y-19926D01*
X15886Y-17494D02*
X15886Y-19856D01*
X21162Y-12218D02*
X15886Y-17494D01*
X21162Y-8060D02*
X21162Y-12218D01*
X22101Y-7121D02*
X21162Y-8060D01*
X16113Y-23467D02*
X15965Y-23615D01*
X16113Y-19860D02*
X16113Y-23467D01*
X16043Y-19791D02*
X16113Y-19860D01*
X16043Y-18348D02*
X16043Y-19791D01*
X24101Y-10290D02*
X16043Y-18348D01*
X24101Y-7121D02*
X24101Y-10290D01*
X8265Y-20034D02*
X8326Y-20095D01*
X8265Y-13807D02*
X8265Y-20034D01*
X1848Y-11621D02*
X2532Y-12305D01*
X502Y-11621D02*
X1848Y-11621D01*
X13893Y-25385D02*
X14930Y-24348D01*
X12112Y-25385D02*
X13893Y-25385D01*
X11561Y-24834D02*
X12112Y-25385D01*
X11561Y-23330D02*
X11561Y-24834D01*
X8326Y-20095D02*
X11561Y-23330D01*
X14003Y-16373D02*
X14003Y-13841D01*
X14088Y-16458D02*
X14003Y-16373D01*
X5336Y-12699D02*
X5837Y-12197D01*
X4690Y-12699D02*
X5336Y-12699D01*
X3695Y-13694D02*
X4690Y-12699D01*
X2355Y-13694D02*
X3695Y-13694D01*
X920Y-12259D02*
X2355Y-13694D01*
X920Y-12121D02*
X920Y-12259D01*
X502Y-12121D02*
X920Y-12121D01*
X14859Y-23609D02*
X15283Y-24033D01*
X14859Y-20894D02*
X14859Y-23609D01*
X14345Y-20380D02*
X14859Y-20894D01*
X14345Y-19770D02*
X14345Y-20380D01*
X14568Y-19547D02*
X14345Y-19770D01*
X14568Y-16938D02*
X14568Y-19547D01*
X14088Y-16458D02*
X14568Y-16938D01*
X15283Y-25908D02*
X14205Y-26987D01*
X15283Y-24033D02*
X15283Y-25908D01*
X21075Y-24367D02*
X20922Y-24520D01*
X21075Y-16826D02*
X21075Y-24367D01*
X502Y-12621D02*
X920Y-12621D01*
X2273Y-13974D02*
X3935Y-13974D01*
X920Y-12621D02*
X2273Y-13974D01*
X502Y-13121D02*
X920Y-13121D01*
X2057Y-14257D02*
X920Y-13121D01*
X3772Y-14257D02*
X2057Y-14257D01*
X3805Y-14290D02*
X3772Y-14257D01*
X4210Y-14290D02*
X3805Y-14290D01*
X5487Y-13014D02*
X4210Y-14290D01*
X502Y-14120D02*
X920Y-14120D01*
X6529Y-16515D02*
X6529Y-17305D01*
X4482Y-14467D02*
X6529Y-16515D01*
X6163Y-12786D02*
X4482Y-14467D01*
X6163Y-9183D02*
X6163Y-12786D01*
X4101Y-7121D02*
X6163Y-9183D01*
X1215Y-14415D02*
X920Y-14120D01*
X3707Y-14415D02*
X1215Y-14415D01*
X3759Y-14467D02*
X3707Y-14415D01*
X4482Y-14467D02*
X3759Y-14467D01*
X10101Y-6252D02*
X10101Y-5621D01*
X11403Y-7554D02*
X10101Y-6252D01*
X11877Y-7554D02*
X11403Y-7554D01*
X12086Y-7345D02*
X11877Y-7554D01*
X13640Y-7345D02*
X12086Y-7345D01*
X13688Y-7394D02*
X13640Y-7345D01*
X15460Y-5622D02*
X17601Y-5622D01*
X13688Y-7394D02*
X15460Y-5622D01*
X10101Y-3262D02*
X10101Y-5621D01*
X11094Y-2268D02*
X10101Y-3262D01*
X11094Y-1119D02*
X11094Y-2268D01*
X10752Y-777D02*
X11094Y-1119D01*
X2972Y-777D02*
X10752Y-777D01*
X652Y-3098D02*
X2972Y-777D01*
X652Y-7557D02*
X652Y-3098D01*
X502Y-7707D02*
X652Y-7557D01*
X502Y-8121D02*
X502Y-7707D01*
X2601Y-6259D02*
X2601Y-5621D01*
X1303Y-7557D02*
X2601Y-6259D01*
X652Y-7557D02*
X1303Y-7557D01*
X13688Y-17520D02*
X13688Y-7394D01*
X13753Y-17585D02*
X13688Y-17520D01*
X13753Y-20688D02*
X13753Y-17585D01*
X14064Y-20999D02*
X13753Y-20688D01*
X502Y-8621D02*
X920Y-8621D01*
X2698Y-10398D02*
X920Y-8621D01*
X2698Y-11586D02*
X2698Y-10398D01*
X2916Y-11804D02*
X2698Y-11586D01*
X2916Y-12806D02*
X2916Y-11804D01*
X2601Y-13121D02*
X2916Y-12806D01*
X25101Y-21468D02*
X25101Y-20622D01*
X28101Y-23058D02*
X28101Y-23372D01*
X26511Y-21468D02*
X28101Y-23058D01*
X25101Y-21468D02*
X26511Y-21468D01*
X21714Y-24855D02*
X25101Y-21468D01*
X20812Y-24855D02*
X21714Y-24855D01*
X17601Y-21644D02*
X20812Y-24855D01*
X17601Y-20620D02*
X17601Y-21644D01*
X10415Y-20620D02*
X13034Y-18001D01*
X10101Y-20620D02*
X10415Y-20620D01*
X25100Y-28120D02*
X25101Y-28122D01*
X17601Y-28120D02*
X25100Y-28120D01*
X2601Y-23904D02*
X2601Y-28120D01*
X3336Y-23169D02*
X2601Y-23904D01*
X3336Y-19633D02*
X3336Y-23169D01*
X2587Y-18884D02*
X3336Y-19633D01*
X2587Y-15999D02*
X2587Y-18884D01*
X2601Y-28120D02*
X10101Y-28120D01*
X16963Y-22461D02*
X16963Y-20109D01*
X17601Y-23100D02*
X16963Y-22461D01*
X17601Y-28120D02*
X17601Y-23100D01*
X2602Y-35622D02*
X2601Y-35620D01*
X6351Y-35622D02*
X2602Y-35622D01*
X2601Y-33898D02*
X2601Y-35620D01*
X1747Y-33044D02*
X2601Y-33898D01*
X1747Y-26616D02*
X1747Y-33044D01*
X2077Y-26285D02*
X1747Y-26616D01*
X2077Y-23712D02*
X2077Y-26285D01*
X3179Y-22611D02*
X2077Y-23712D01*
X3179Y-19777D02*
X3179Y-22611D01*
X2185Y-18784D02*
X3179Y-19777D01*
X2185Y-16456D02*
X2185Y-18784D01*
X25100Y-35620D02*
X25101Y-35622D01*
X17601Y-35620D02*
X25100Y-35620D01*
X16467Y-23671D02*
X16467Y-20401D01*
X17061Y-24266D02*
X16467Y-23671D01*
X17061Y-26426D02*
X17061Y-24266D01*
X17027Y-26461D02*
X17061Y-26426D01*
X17027Y-28406D02*
X17027Y-26461D01*
X17601Y-28981D02*
X17027Y-28406D01*
X17601Y-35620D02*
X17601Y-28981D01*
X13153Y-43122D02*
X15377Y-40898D01*
X10101Y-43122D02*
X13153Y-43122D01*
X15377Y-40898D02*
X17601Y-43122D01*
X17601Y-43122D02*
X25101Y-43122D01*
X6351Y-43122D02*
X2601Y-43122D01*
X15377Y-40898D02*
X15377Y-28417D01*
X15295Y-20535D02*
X14660Y-19901D01*
X15295Y-23600D02*
X15295Y-20535D01*
X15618Y-23923D02*
X15295Y-23600D01*
X15618Y-28176D02*
X15618Y-23923D01*
X15377Y-28417D02*
X15618Y-28176D01*
X14665Y-28417D02*
X15377Y-28417D01*
X13727Y-27479D02*
X14665Y-28417D01*
X13727Y-27443D02*
X13727Y-27479D01*
X11433Y-25149D02*
X13727Y-27443D01*
X11430Y-25149D02*
X11433Y-25149D01*
X11246Y-24964D02*
X11430Y-25149D01*
X11246Y-24964D02*
X11246Y-24964D01*
X10496Y-24964D02*
X11246Y-24964D01*
X6026Y-20495D02*
X10496Y-24964D01*
X6026Y-19742D02*
X6026Y-20495D01*
X4504Y-18220D02*
X6026Y-19742D01*
X4504Y-17466D02*
X4504Y-18220D01*
X2348Y-15310D02*
X4504Y-17466D01*
X1723Y-15310D02*
X2348Y-15310D01*
X9844Y-24060D02*
X10463Y-24060D01*
X6741Y-20957D02*
X9844Y-24060D01*
X6741Y-19230D02*
X6741Y-20957D01*
X7225Y-18746D02*
X6741Y-19230D01*
X7225Y-20746D02*
X7985Y-20746D01*
X8509Y-20746D02*
X9399Y-21636D01*
X7985Y-20746D02*
X8509Y-20746D01*
X7985Y-13973D02*
X7985Y-20746D01*
X7950Y-13937D02*
X7985Y-13973D01*
X7950Y-11622D02*
X7950Y-13937D01*
X10346Y-9226D02*
X7950Y-11622D01*
X10651Y-9226D02*
X10346Y-9226D01*
X12216Y-7660D02*
X10651Y-9226D01*
G54D25*
X383Y-36652D02*
X352Y-36620D01*
X383Y-44339D02*
X383Y-36652D01*
X351Y-44372D02*
X383Y-44339D01*
X29078Y-36945D02*
X29352Y-36670D01*
X29078Y-38956D02*
X29078Y-36945D01*
X27419Y-40614D02*
X29078Y-38956D01*
X27419Y-41214D02*
X27419Y-40614D01*
X26971Y-41663D02*
X27419Y-41214D01*
X26971Y-42400D02*
X26971Y-41663D01*
X28942Y-44372D02*
X26971Y-42400D01*
X29351Y-44372D02*
X28942Y-44372D01*
X2861Y-14934D02*
X2936Y-15009D01*
X1167Y-14934D02*
X2861Y-14934D01*
X981Y-15120D02*
X1167Y-14934D01*
X502Y-15120D02*
X981Y-15120D01*
G54D24*
X12012Y-6710D02*
X11601Y-7121D01*
X12012Y-1957D02*
X12012Y-6710D01*
X12094Y-1875D02*
X12012Y-1957D01*
X12094Y-1621D02*
X12094Y-1875D01*
X11601Y-1621D02*
X12094Y-1621D01*
X12835Y-24158D02*
X12835Y-25068D01*
X9523Y-20846D02*
X12835Y-24158D01*
X9523Y-20024D02*
X9523Y-20846D01*
X9574Y-19973D02*
X9523Y-20024D01*
X9574Y-17785D02*
X9574Y-19973D01*
X9164Y-17375D02*
X9574Y-17785D01*
X9164Y-12125D02*
X9164Y-17375D01*
X12150Y-23696D02*
X12150Y-24900D01*
X8645Y-20191D02*
X12150Y-23696D01*
X8645Y-12368D02*
X8645Y-20191D01*
X14059Y-21471D02*
X13886Y-21471D01*
X14383Y-21147D02*
X14059Y-21471D01*
X14383Y-20872D02*
X14383Y-21147D01*
X14186Y-20675D02*
X14383Y-20872D01*
X14186Y-19436D02*
X14186Y-20675D01*
X14251Y-19371D02*
X14186Y-19436D01*
X16358Y-19574D02*
X16358Y-19660D01*
X19441Y-16492D02*
X16358Y-19574D01*
X21199Y-16492D02*
X19441Y-16492D01*
X21390Y-16683D02*
X21199Y-16492D01*
X21390Y-19445D02*
X21390Y-16683D01*
X23950Y-22005D02*
X21390Y-19445D01*
X23950Y-22103D02*
X23950Y-22005D01*
X19512Y-6710D02*
X19101Y-7121D01*
X19512Y-1957D02*
X19512Y-6710D01*
X19594Y-1875D02*
X19512Y-1957D01*
X19594Y-1621D02*
X19594Y-1875D01*
X19101Y-1621D02*
X19594Y-1621D01*
X13577Y-17854D02*
X13438Y-17716D01*
X13577Y-19525D02*
X13577Y-17854D01*
X12588Y-20514D02*
X13577Y-19525D01*
X21498Y-20232D02*
X23381Y-22115D01*
X21498Y-20054D02*
X21498Y-20232D01*
X27101Y-20122D02*
X27101Y-20872D01*
X27601Y-19622D02*
X27101Y-20122D01*
X1101Y-4812D02*
X1101Y-7121D01*
X3749Y-2164D02*
X1101Y-4812D01*
X4101Y-2164D02*
X3749Y-2164D01*
X4101Y-1621D02*
X4101Y-2164D01*
X4736Y-4985D02*
X4736Y-6115D01*
X5101Y-4621D02*
X4736Y-4985D01*
X27033Y-7052D02*
X27101Y-7121D01*
X27033Y-1937D02*
X27033Y-7052D01*
X27094Y-1875D02*
X27033Y-1937D01*
X27094Y-1621D02*
X27094Y-1875D01*
X26601Y-1621D02*
X27094Y-1621D01*
G54D25*
X502Y-14620D02*
X981Y-14620D01*
X6384Y-17691D02*
X7169Y-17691D01*
X3326Y-14633D02*
X6384Y-17691D01*
X994Y-14633D02*
X3326Y-14633D01*
X981Y-14620D02*
X994Y-14633D01*
X7169Y-17691D02*
X7225Y-17746D01*
X10601Y-1621D02*
X10047Y-1621D01*
X7762Y-17098D02*
X7169Y-17691D01*
X7762Y-14058D02*
X7762Y-17098D01*
X7732Y-14028D02*
X7762Y-14058D01*
X7732Y-3434D02*
X7732Y-14028D01*
X8234Y-3434D02*
X7732Y-3434D01*
X10047Y-1621D02*
X8234Y-3434D01*
X3725Y-997D02*
X3101Y-1621D01*
X4912Y-997D02*
X3725Y-997D01*
X7349Y-3434D02*
X4912Y-997D01*
X7732Y-3434D02*
X7349Y-3434D01*
X13243Y-23509D02*
X13481Y-23747D01*
X13481Y-23747D02*
X13481Y-23747D01*
X13481Y-23860D02*
X13481Y-23747D01*
X14149Y-24528D02*
X13481Y-23860D01*
X13481Y-23747D02*
X14272Y-22956D01*
G54D10*
G36*
X2889Y-19982D02*
X2741Y-19920D01*
X2462Y-19920D01*
X2205Y-20027D01*
X2008Y-20223D01*
X1901Y-20481D01*
X1901Y-20759D01*
X2007Y-21016D01*
X2135Y-21145D01*
X2074Y-21104D01*
X1602Y-21010D01*
X270Y-21010D01*
X270Y-15553D01*
X379Y-15583D01*
X452Y-15520D01*
X452Y-15170D01*
X444Y-15170D01*
X444Y-15080D01*
X603Y-15080D01*
X653Y-15070D01*
X986Y-15070D01*
X1036Y-14999D01*
X1033Y-14983D01*
X1417Y-14983D01*
X1344Y-15056D01*
X1276Y-15220D01*
X1276Y-15398D01*
X1344Y-15562D01*
X1469Y-15688D01*
X1633Y-15756D01*
X1811Y-15757D01*
X1975Y-15689D01*
X2065Y-15599D01*
X2228Y-15599D01*
X2291Y-15662D01*
X2208Y-15745D01*
X2140Y-15910D01*
X2140Y-16009D01*
X2097Y-16009D01*
X1932Y-16076D01*
X1807Y-16202D01*
X1738Y-16366D01*
X1738Y-16544D01*
X1806Y-16708D01*
X1896Y-16798D01*
X1896Y-18109D01*
X1718Y-18035D01*
X1485Y-18035D01*
X1270Y-18124D01*
X1105Y-18289D01*
X1036Y-18456D01*
X1036Y-15241D01*
X986Y-15170D01*
X552Y-15170D01*
X552Y-15520D01*
X625Y-15583D01*
X799Y-15535D01*
X942Y-15424D01*
X1032Y-15267D01*
X1036Y-15241D01*
X1036Y-18456D01*
X1016Y-18503D01*
X1016Y-18736D01*
X1105Y-18951D01*
X1269Y-19116D01*
X1484Y-19205D01*
X1717Y-19205D01*
X1932Y-19117D01*
X2020Y-19028D01*
X2889Y-19897D01*
X2889Y-19982D01*
X2889Y-19982D01*
G37*
G54D26*
X2889Y-19982D02*
X2741Y-19920D01*
X2462Y-19920D01*
X2205Y-20027D01*
X2008Y-20223D01*
X1901Y-20481D01*
X1901Y-20759D01*
X2007Y-21016D01*
X2135Y-21145D01*
X2074Y-21104D01*
X1602Y-21010D01*
X270Y-21010D01*
X270Y-15553D01*
X379Y-15583D01*
X452Y-15520D01*
X452Y-15170D01*
X444Y-15170D01*
X444Y-15080D01*
X603Y-15080D01*
X653Y-15070D01*
X986Y-15070D01*
X1036Y-14999D01*
X1033Y-14983D01*
X1417Y-14983D01*
X1344Y-15056D01*
X1276Y-15220D01*
X1276Y-15398D01*
X1344Y-15562D01*
X1469Y-15688D01*
X1633Y-15756D01*
X1811Y-15757D01*
X1975Y-15689D01*
X2065Y-15599D01*
X2228Y-15599D01*
X2291Y-15662D01*
X2208Y-15745D01*
X2140Y-15910D01*
X2140Y-16009D01*
X2097Y-16009D01*
X1932Y-16076D01*
X1807Y-16202D01*
X1738Y-16366D01*
X1738Y-16544D01*
X1806Y-16708D01*
X1896Y-16798D01*
X1896Y-18109D01*
X1718Y-18035D01*
X1485Y-18035D01*
X1270Y-18124D01*
X1105Y-18289D01*
X1036Y-18456D01*
X1036Y-15241D01*
X986Y-15170D01*
X552Y-15170D01*
X552Y-15520D01*
X625Y-15583D01*
X799Y-15535D01*
X942Y-15424D01*
X1032Y-15267D01*
X1036Y-15241D01*
X1036Y-18456D01*
X1016Y-18503D01*
X1016Y-18736D01*
X1105Y-18951D01*
X1269Y-19116D01*
X1484Y-19205D01*
X1717Y-19205D01*
X1932Y-19117D01*
X2020Y-19028D01*
X2889Y-19897D01*
X2889Y-19982D01*
G54D10*
G36*
X6870Y-18246D02*
X6713Y-18404D01*
X6620Y-18626D01*
X6620Y-18866D01*
X6642Y-18919D01*
X6537Y-19025D01*
X6474Y-19119D01*
X6452Y-19230D01*
X6452Y-20511D01*
X6315Y-20375D01*
X6315Y-19742D01*
X6315Y-19742D01*
X6293Y-19631D01*
X6293Y-19631D01*
X6273Y-19600D01*
X6231Y-19537D01*
X6231Y-19537D01*
X5846Y-19152D01*
X5932Y-19117D01*
X6097Y-18952D01*
X6186Y-18737D01*
X6186Y-18505D01*
X6097Y-18289D01*
X5933Y-18125D01*
X5718Y-18035D01*
X5485Y-18035D01*
X5270Y-18124D01*
X5105Y-18289D01*
X5069Y-18376D01*
X4794Y-18100D01*
X4794Y-17466D01*
X4794Y-17466D01*
X4771Y-17355D01*
X4771Y-17355D01*
X4751Y-17324D01*
X4709Y-17261D01*
X4709Y-17261D01*
X2553Y-15105D01*
X2459Y-15042D01*
X2348Y-15020D01*
X2065Y-15020D01*
X2028Y-14983D01*
X3181Y-14983D01*
X6136Y-17938D01*
X6136Y-17938D01*
X6250Y-18014D01*
X6384Y-18041D01*
X6384Y-18041D01*
X6693Y-18041D01*
X6712Y-18088D01*
X6870Y-18246D01*
X6870Y-18246D01*
G37*
G54D26*
X6870Y-18246D02*
X6713Y-18404D01*
X6620Y-18626D01*
X6620Y-18866D01*
X6642Y-18919D01*
X6537Y-19025D01*
X6474Y-19119D01*
X6452Y-19230D01*
X6452Y-20511D01*
X6315Y-20375D01*
X6315Y-19742D01*
X6315Y-19742D01*
X6293Y-19631D01*
X6293Y-19631D01*
X6273Y-19600D01*
X6231Y-19537D01*
X6231Y-19537D01*
X5846Y-19152D01*
X5932Y-19117D01*
X6097Y-18952D01*
X6186Y-18737D01*
X6186Y-18505D01*
X6097Y-18289D01*
X5933Y-18125D01*
X5718Y-18035D01*
X5485Y-18035D01*
X5270Y-18124D01*
X5105Y-18289D01*
X5069Y-18376D01*
X4794Y-18100D01*
X4794Y-17466D01*
X4794Y-17466D01*
X4771Y-17355D01*
X4771Y-17355D01*
X4751Y-17324D01*
X4709Y-17261D01*
X4709Y-17261D01*
X2553Y-15105D01*
X2459Y-15042D01*
X2348Y-15020D01*
X2065Y-15020D01*
X2028Y-14983D01*
X3181Y-14983D01*
X6136Y-17938D01*
X6136Y-17938D01*
X6250Y-18014D01*
X6384Y-18041D01*
X6384Y-18041D01*
X6693Y-18041D01*
X6712Y-18088D01*
X6870Y-18246D01*
G54D10*
G36*
X7412Y-15171D02*
X7319Y-15138D01*
X7079Y-15148D01*
X6904Y-15220D01*
X6870Y-15321D01*
X7225Y-15676D01*
X7230Y-15670D01*
X7301Y-15741D01*
X7295Y-15746D01*
X7301Y-15752D01*
X7230Y-15823D01*
X7225Y-15817D01*
X7154Y-15888D01*
X7154Y-15746D01*
X6799Y-15392D01*
X6698Y-15426D01*
X6616Y-15652D01*
X6626Y-15892D01*
X6698Y-16067D01*
X6799Y-16101D01*
X7154Y-15746D01*
X7154Y-15888D01*
X6870Y-16172D01*
X6890Y-16231D01*
X6883Y-16234D01*
X6763Y-16354D01*
X6734Y-16310D01*
X6734Y-16310D01*
X4891Y-14467D01*
X6368Y-12990D01*
X6368Y-12990D01*
X6431Y-12896D01*
X6453Y-12786D01*
X6453Y-12786D01*
X6453Y-9183D01*
X6431Y-9072D01*
X6368Y-8978D01*
X6186Y-8796D01*
X6186Y-3505D01*
X6097Y-3290D01*
X5933Y-3125D01*
X5718Y-3036D01*
X5485Y-3035D01*
X5270Y-3124D01*
X5105Y-3289D01*
X5016Y-3504D01*
X5016Y-3736D01*
X5092Y-3921D01*
X4962Y-3920D01*
X4705Y-4027D01*
X4508Y-4224D01*
X4401Y-4481D01*
X4401Y-4759D01*
X4462Y-4908D01*
X4447Y-4985D01*
X4447Y-5772D01*
X4358Y-5861D01*
X4290Y-6026D01*
X4290Y-6203D01*
X4357Y-6368D01*
X4483Y-6493D01*
X4647Y-6562D01*
X4825Y-6562D01*
X4989Y-6494D01*
X5115Y-6368D01*
X5183Y-6204D01*
X5183Y-6026D01*
X5116Y-5862D01*
X5026Y-5772D01*
X5026Y-5320D01*
X5240Y-5321D01*
X5497Y-5214D01*
X5694Y-5018D01*
X5801Y-4760D01*
X5801Y-4482D01*
X5695Y-4225D01*
X5676Y-4206D01*
X5717Y-4206D01*
X5932Y-4117D01*
X6097Y-3952D01*
X6186Y-3737D01*
X6186Y-3505D01*
X6186Y-8796D01*
X4653Y-7264D01*
X4666Y-7233D01*
X4666Y-7009D01*
X4580Y-6801D01*
X4421Y-6642D01*
X4214Y-6556D01*
X3989Y-6556D01*
X3781Y-6641D01*
X3622Y-6800D01*
X3536Y-7008D01*
X3536Y-7232D01*
X3622Y-7440D01*
X3780Y-7599D01*
X3988Y-7685D01*
X4213Y-7686D01*
X4244Y-7673D01*
X5874Y-9303D01*
X5874Y-10601D01*
X5718Y-10536D01*
X5485Y-10535D01*
X5270Y-10624D01*
X5105Y-10789D01*
X5016Y-11004D01*
X5016Y-11236D01*
X5092Y-11421D01*
X4962Y-11420D01*
X4705Y-11527D01*
X4508Y-11724D01*
X4401Y-11981D01*
X4401Y-12259D01*
X4495Y-12488D01*
X4486Y-12494D01*
X3576Y-13404D01*
X3241Y-13404D01*
X3301Y-13260D01*
X3301Y-12982D01*
X3205Y-12750D01*
X3205Y-12077D01*
X3394Y-12155D01*
X3806Y-12156D01*
X4186Y-11999D01*
X4478Y-11708D01*
X4636Y-11327D01*
X4636Y-10916D01*
X4479Y-10535D01*
X4188Y-10244D01*
X3808Y-10086D01*
X3396Y-10085D01*
X3015Y-10243D01*
X2966Y-10292D01*
X2965Y-10287D01*
X2965Y-10287D01*
X2944Y-10256D01*
X2902Y-10193D01*
X2902Y-10193D01*
X1125Y-8416D01*
X1031Y-8353D01*
X995Y-8346D01*
X1028Y-8297D01*
X1063Y-8121D01*
X1028Y-7945D01*
X962Y-7847D01*
X1303Y-7847D01*
X1303Y-7847D01*
X1413Y-7825D01*
X1507Y-7762D01*
X2805Y-6464D01*
X2805Y-6464D01*
X2868Y-6370D01*
X2868Y-6370D01*
X2872Y-6351D01*
X2890Y-6259D01*
X2890Y-6259D01*
X2890Y-6258D01*
X2997Y-6214D01*
X3194Y-6018D01*
X3301Y-5760D01*
X3301Y-5482D01*
X3195Y-5225D01*
X2998Y-5027D01*
X2741Y-4921D01*
X2462Y-4920D01*
X2205Y-5027D01*
X2008Y-5224D01*
X1901Y-5481D01*
X1901Y-5759D01*
X2007Y-6017D01*
X2204Y-6214D01*
X2227Y-6223D01*
X1600Y-6850D01*
X1580Y-6801D01*
X1421Y-6642D01*
X1390Y-6629D01*
X1390Y-4932D01*
X2566Y-3756D01*
X2566Y-3826D01*
X2723Y-4206D01*
X3014Y-4497D01*
X3394Y-4655D01*
X3806Y-4656D01*
X4186Y-4499D01*
X4478Y-4208D01*
X4636Y-3827D01*
X4636Y-3416D01*
X4479Y-3035D01*
X4188Y-2744D01*
X3808Y-2586D01*
X3736Y-2586D01*
X3869Y-2453D01*
X4101Y-2453D01*
X4212Y-2431D01*
X4305Y-2368D01*
X4368Y-2275D01*
X4376Y-2237D01*
X4543Y-2126D01*
X4678Y-1923D01*
X4726Y-1684D01*
X4726Y-1557D01*
X4684Y-1347D01*
X4767Y-1347D01*
X7102Y-3681D01*
X7102Y-3681D01*
X7215Y-3757D01*
X7349Y-3784D01*
X7382Y-3784D01*
X7382Y-14028D01*
X7408Y-14162D01*
X7412Y-14167D01*
X7412Y-15171D01*
X7412Y-15171D01*
G37*
G54D26*
X7412Y-15171D02*
X7319Y-15138D01*
X7079Y-15148D01*
X6904Y-15220D01*
X6870Y-15321D01*
X7225Y-15676D01*
X7230Y-15670D01*
X7301Y-15741D01*
X7295Y-15746D01*
X7301Y-15752D01*
X7230Y-15823D01*
X7225Y-15817D01*
X7154Y-15888D01*
X7154Y-15746D01*
X6799Y-15392D01*
X6698Y-15426D01*
X6616Y-15652D01*
X6626Y-15892D01*
X6698Y-16067D01*
X6799Y-16101D01*
X7154Y-15746D01*
X7154Y-15888D01*
X6870Y-16172D01*
X6890Y-16231D01*
X6883Y-16234D01*
X6763Y-16354D01*
X6734Y-16310D01*
X6734Y-16310D01*
X4891Y-14467D01*
X6368Y-12990D01*
X6368Y-12990D01*
X6431Y-12896D01*
X6453Y-12786D01*
X6453Y-12786D01*
X6453Y-9183D01*
X6431Y-9072D01*
X6368Y-8978D01*
X6186Y-8796D01*
X6186Y-3505D01*
X6097Y-3290D01*
X5933Y-3125D01*
X5718Y-3036D01*
X5485Y-3035D01*
X5270Y-3124D01*
X5105Y-3289D01*
X5016Y-3504D01*
X5016Y-3736D01*
X5092Y-3921D01*
X4962Y-3920D01*
X4705Y-4027D01*
X4508Y-4224D01*
X4401Y-4481D01*
X4401Y-4759D01*
X4462Y-4908D01*
X4447Y-4985D01*
X4447Y-5772D01*
X4358Y-5861D01*
X4290Y-6026D01*
X4290Y-6203D01*
X4357Y-6368D01*
X4483Y-6493D01*
X4647Y-6562D01*
X4825Y-6562D01*
X4989Y-6494D01*
X5115Y-6368D01*
X5183Y-6204D01*
X5183Y-6026D01*
X5116Y-5862D01*
X5026Y-5772D01*
X5026Y-5320D01*
X5240Y-5321D01*
X5497Y-5214D01*
X5694Y-5018D01*
X5801Y-4760D01*
X5801Y-4482D01*
X5695Y-4225D01*
X5676Y-4206D01*
X5717Y-4206D01*
X5932Y-4117D01*
X6097Y-3952D01*
X6186Y-3737D01*
X6186Y-3505D01*
X6186Y-8796D01*
X4653Y-7264D01*
X4666Y-7233D01*
X4666Y-7009D01*
X4580Y-6801D01*
X4421Y-6642D01*
X4214Y-6556D01*
X3989Y-6556D01*
X3781Y-6641D01*
X3622Y-6800D01*
X3536Y-7008D01*
X3536Y-7232D01*
X3622Y-7440D01*
X3780Y-7599D01*
X3988Y-7685D01*
X4213Y-7686D01*
X4244Y-7673D01*
X5874Y-9303D01*
X5874Y-10601D01*
X5718Y-10536D01*
X5485Y-10535D01*
X5270Y-10624D01*
X5105Y-10789D01*
X5016Y-11004D01*
X5016Y-11236D01*
X5092Y-11421D01*
X4962Y-11420D01*
X4705Y-11527D01*
X4508Y-11724D01*
X4401Y-11981D01*
X4401Y-12259D01*
X4495Y-12488D01*
X4486Y-12494D01*
X3576Y-13404D01*
X3241Y-13404D01*
X3301Y-13260D01*
X3301Y-12982D01*
X3205Y-12750D01*
X3205Y-12077D01*
X3394Y-12155D01*
X3806Y-12156D01*
X4186Y-11999D01*
X4478Y-11708D01*
X4636Y-11327D01*
X4636Y-10916D01*
X4479Y-10535D01*
X4188Y-10244D01*
X3808Y-10086D01*
X3396Y-10085D01*
X3015Y-10243D01*
X2966Y-10292D01*
X2965Y-10287D01*
X2965Y-10287D01*
X2944Y-10256D01*
X2902Y-10193D01*
X2902Y-10193D01*
X1125Y-8416D01*
X1031Y-8353D01*
X995Y-8346D01*
X1028Y-8297D01*
X1063Y-8121D01*
X1028Y-7945D01*
X962Y-7847D01*
X1303Y-7847D01*
X1303Y-7847D01*
X1413Y-7825D01*
X1507Y-7762D01*
X2805Y-6464D01*
X2805Y-6464D01*
X2868Y-6370D01*
X2868Y-6370D01*
X2872Y-6351D01*
X2890Y-6259D01*
X2890Y-6259D01*
X2890Y-6258D01*
X2997Y-6214D01*
X3194Y-6018D01*
X3301Y-5760D01*
X3301Y-5482D01*
X3195Y-5225D01*
X2998Y-5027D01*
X2741Y-4921D01*
X2462Y-4920D01*
X2205Y-5027D01*
X2008Y-5224D01*
X1901Y-5481D01*
X1901Y-5759D01*
X2007Y-6017D01*
X2204Y-6214D01*
X2227Y-6223D01*
X1600Y-6850D01*
X1580Y-6801D01*
X1421Y-6642D01*
X1390Y-6629D01*
X1390Y-4932D01*
X2566Y-3756D01*
X2566Y-3826D01*
X2723Y-4206D01*
X3014Y-4497D01*
X3394Y-4655D01*
X3806Y-4656D01*
X4186Y-4499D01*
X4478Y-4208D01*
X4636Y-3827D01*
X4636Y-3416D01*
X4479Y-3035D01*
X4188Y-2744D01*
X3808Y-2586D01*
X3736Y-2586D01*
X3869Y-2453D01*
X4101Y-2453D01*
X4212Y-2431D01*
X4305Y-2368D01*
X4368Y-2275D01*
X4376Y-2237D01*
X4543Y-2126D01*
X4678Y-1923D01*
X4726Y-1684D01*
X4726Y-1557D01*
X4684Y-1347D01*
X4767Y-1347D01*
X7102Y-3681D01*
X7102Y-3681D01*
X7215Y-3757D01*
X7349Y-3784D01*
X7382Y-3784D01*
X7382Y-14028D01*
X7408Y-14162D01*
X7412Y-14167D01*
X7412Y-15171D01*
G54D10*
G36*
X15088Y-40778D02*
X14649Y-41217D01*
X14649Y-37232D01*
X14581Y-37068D01*
X14455Y-36942D01*
X14291Y-36874D01*
X14113Y-36873D01*
X13949Y-36941D01*
X13823Y-37067D01*
X13755Y-37231D01*
X13755Y-37409D01*
X13823Y-37573D01*
X13948Y-37699D01*
X14113Y-37767D01*
X14290Y-37767D01*
X14455Y-37699D01*
X14580Y-37574D01*
X14649Y-37410D01*
X14649Y-37232D01*
X14649Y-41217D01*
X13686Y-42180D01*
X13686Y-41006D01*
X13686Y-33505D01*
X13597Y-33289D01*
X13433Y-33125D01*
X13218Y-33035D01*
X13086Y-33035D01*
X13086Y-30167D01*
X12929Y-29786D01*
X12638Y-29495D01*
X12258Y-29337D01*
X11846Y-29336D01*
X11465Y-29494D01*
X11174Y-29785D01*
X11016Y-30165D01*
X11016Y-30577D01*
X11173Y-30957D01*
X11464Y-31248D01*
X11844Y-31406D01*
X12256Y-31407D01*
X12636Y-31249D01*
X12928Y-30959D01*
X13086Y-30578D01*
X13086Y-30167D01*
X13086Y-33035D01*
X12985Y-33035D01*
X12770Y-33124D01*
X12605Y-33289D01*
X12516Y-33503D01*
X12516Y-33736D01*
X12592Y-33920D01*
X12462Y-33920D01*
X12205Y-34027D01*
X12136Y-34095D01*
X12136Y-33415D01*
X11979Y-33035D01*
X11688Y-32743D01*
X11308Y-32586D01*
X10896Y-32585D01*
X10515Y-32742D01*
X10224Y-33033D01*
X10066Y-33414D01*
X10066Y-33825D01*
X10223Y-34206D01*
X10514Y-34497D01*
X10894Y-34655D01*
X11306Y-34656D01*
X11686Y-34498D01*
X11978Y-34207D01*
X12136Y-33827D01*
X12136Y-33415D01*
X12136Y-34095D01*
X12008Y-34223D01*
X11901Y-34481D01*
X11901Y-34759D01*
X12007Y-35016D01*
X12204Y-35213D01*
X12461Y-35320D01*
X12740Y-35320D01*
X12997Y-35214D01*
X13194Y-35017D01*
X13301Y-34760D01*
X13301Y-34482D01*
X13195Y-34224D01*
X13176Y-34205D01*
X13217Y-34205D01*
X13432Y-34117D01*
X13597Y-33952D01*
X13686Y-33737D01*
X13686Y-33505D01*
X13686Y-41006D01*
X13597Y-40791D01*
X13433Y-40626D01*
X13218Y-40537D01*
X13086Y-40537D01*
X13086Y-37667D01*
X12929Y-37286D01*
X12638Y-36995D01*
X12632Y-36992D01*
X12771Y-36854D01*
X12901Y-36541D01*
X12901Y-36203D01*
X12772Y-35891D01*
X12533Y-35651D01*
X12221Y-35522D01*
X11883Y-35521D01*
X11570Y-35651D01*
X11331Y-35889D01*
X11201Y-36202D01*
X11201Y-36540D01*
X11330Y-36852D01*
X11469Y-36992D01*
X11465Y-36994D01*
X11174Y-37285D01*
X11016Y-37665D01*
X11016Y-38077D01*
X11173Y-38457D01*
X11464Y-38748D01*
X11844Y-38906D01*
X12256Y-38907D01*
X12636Y-38749D01*
X12928Y-38459D01*
X13086Y-38078D01*
X13086Y-37667D01*
X13086Y-40537D01*
X12985Y-40536D01*
X12770Y-40625D01*
X12605Y-40790D01*
X12516Y-41005D01*
X12516Y-41237D01*
X12592Y-41422D01*
X12462Y-41421D01*
X12205Y-41528D01*
X12136Y-41596D01*
X12136Y-40917D01*
X11979Y-40536D01*
X11688Y-40245D01*
X11308Y-40087D01*
X10896Y-40086D01*
X10801Y-40126D01*
X10801Y-35482D01*
X10695Y-35224D01*
X10498Y-35027D01*
X10241Y-34920D01*
X9962Y-34920D01*
X9936Y-34931D01*
X9936Y-33506D01*
X9847Y-33291D01*
X9683Y-33126D01*
X9468Y-33037D01*
X9235Y-33036D01*
X9228Y-33040D01*
X9218Y-33035D01*
X8985Y-33035D01*
X8770Y-33124D01*
X8605Y-33289D01*
X8516Y-33503D01*
X8516Y-33736D01*
X8605Y-33951D01*
X8615Y-33962D01*
X8455Y-34028D01*
X8386Y-34096D01*
X8386Y-33417D01*
X8229Y-33036D01*
X7938Y-32745D01*
X7558Y-32587D01*
X7146Y-32586D01*
X6765Y-32744D01*
X6474Y-33035D01*
X6316Y-33415D01*
X6316Y-33827D01*
X6473Y-34207D01*
X6764Y-34498D01*
X7144Y-34656D01*
X7556Y-34657D01*
X7936Y-34499D01*
X8228Y-34209D01*
X8386Y-33828D01*
X8386Y-33417D01*
X8386Y-34096D01*
X8258Y-34225D01*
X8151Y-34482D01*
X8151Y-34760D01*
X8257Y-35018D01*
X8454Y-35215D01*
X8711Y-35321D01*
X8990Y-35322D01*
X9247Y-35215D01*
X9444Y-35019D01*
X9551Y-34761D01*
X9551Y-34483D01*
X9445Y-34226D01*
X9426Y-34207D01*
X9467Y-34207D01*
X9682Y-34118D01*
X9847Y-33953D01*
X9936Y-33738D01*
X9936Y-33506D01*
X9936Y-34931D01*
X9705Y-35027D01*
X9508Y-35223D01*
X9401Y-35481D01*
X9401Y-35759D01*
X9507Y-36016D01*
X9704Y-36213D01*
X9961Y-36320D01*
X10240Y-36320D01*
X10497Y-36214D01*
X10694Y-36017D01*
X10801Y-35760D01*
X10801Y-35482D01*
X10801Y-40126D01*
X10649Y-40188D01*
X10649Y-37232D01*
X10581Y-37068D01*
X10455Y-36942D01*
X10291Y-36874D01*
X10113Y-36873D01*
X9949Y-36941D01*
X9823Y-37067D01*
X9755Y-37231D01*
X9755Y-37409D01*
X9823Y-37573D01*
X9948Y-37699D01*
X10113Y-37767D01*
X10290Y-37767D01*
X10455Y-37699D01*
X10580Y-37574D01*
X10649Y-37410D01*
X10649Y-37232D01*
X10649Y-40188D01*
X10515Y-40244D01*
X10224Y-40535D01*
X10066Y-40915D01*
X10066Y-41327D01*
X10223Y-41707D01*
X10514Y-41998D01*
X10894Y-42156D01*
X11306Y-42157D01*
X11686Y-41999D01*
X11978Y-41709D01*
X12136Y-41328D01*
X12136Y-40917D01*
X12136Y-41596D01*
X12008Y-41725D01*
X11901Y-41982D01*
X11901Y-42260D01*
X12007Y-42518D01*
X12204Y-42715D01*
X12461Y-42821D01*
X12740Y-42822D01*
X12997Y-42715D01*
X13194Y-42519D01*
X13301Y-42261D01*
X13301Y-41983D01*
X13195Y-41726D01*
X13176Y-41707D01*
X13217Y-41707D01*
X13432Y-41618D01*
X13597Y-41453D01*
X13686Y-41238D01*
X13686Y-41006D01*
X13686Y-42180D01*
X13033Y-42832D01*
X10739Y-42832D01*
X10695Y-42726D01*
X10498Y-42528D01*
X10241Y-42422D01*
X9962Y-42421D01*
X9936Y-42432D01*
X9936Y-41006D01*
X9847Y-40791D01*
X9683Y-40626D01*
X9468Y-40537D01*
X9235Y-40536D01*
X9226Y-40540D01*
X9218Y-40537D01*
X9149Y-40537D01*
X9149Y-37232D01*
X9081Y-37068D01*
X8955Y-36942D01*
X8791Y-36874D01*
X8613Y-36873D01*
X8449Y-36941D01*
X8323Y-37067D01*
X8255Y-37231D01*
X8255Y-37409D01*
X8323Y-37573D01*
X8448Y-37699D01*
X8613Y-37767D01*
X8790Y-37767D01*
X8955Y-37699D01*
X9080Y-37574D01*
X9149Y-37410D01*
X9149Y-37232D01*
X9149Y-40537D01*
X8985Y-40536D01*
X8770Y-40625D01*
X8605Y-40790D01*
X8516Y-41005D01*
X8516Y-41237D01*
X8605Y-41452D01*
X8614Y-41462D01*
X8455Y-41528D01*
X8386Y-41596D01*
X8386Y-40917D01*
X8229Y-40536D01*
X7938Y-40245D01*
X7649Y-40125D01*
X7649Y-37232D01*
X7581Y-37068D01*
X7455Y-36942D01*
X7291Y-36874D01*
X7113Y-36873D01*
X6949Y-36941D01*
X6823Y-37067D01*
X6755Y-37231D01*
X6755Y-37409D01*
X6823Y-37573D01*
X6948Y-37699D01*
X7113Y-37767D01*
X7290Y-37767D01*
X7455Y-37699D01*
X7580Y-37574D01*
X7649Y-37410D01*
X7649Y-37232D01*
X7649Y-40125D01*
X7558Y-40087D01*
X7146Y-40086D01*
X6765Y-40244D01*
X6474Y-40535D01*
X6316Y-40915D01*
X6316Y-41327D01*
X6473Y-41707D01*
X6764Y-41998D01*
X7144Y-42156D01*
X7556Y-42157D01*
X7936Y-41999D01*
X8228Y-41709D01*
X8386Y-41328D01*
X8386Y-40917D01*
X8386Y-41596D01*
X8258Y-41725D01*
X8151Y-41982D01*
X8151Y-42260D01*
X8257Y-42518D01*
X8454Y-42715D01*
X8711Y-42821D01*
X8990Y-42822D01*
X9247Y-42715D01*
X9444Y-42519D01*
X9551Y-42261D01*
X9551Y-41983D01*
X9445Y-41726D01*
X9426Y-41707D01*
X9467Y-41707D01*
X9682Y-41618D01*
X9847Y-41453D01*
X9936Y-41238D01*
X9936Y-41006D01*
X9936Y-42432D01*
X9705Y-42528D01*
X9508Y-42725D01*
X9401Y-42982D01*
X9401Y-43260D01*
X9507Y-43518D01*
X9704Y-43715D01*
X9961Y-43821D01*
X10240Y-43822D01*
X10497Y-43715D01*
X10694Y-43519D01*
X10739Y-43411D01*
X11322Y-43411D01*
X11201Y-43702D01*
X11201Y-44040D01*
X11330Y-44352D01*
X11428Y-44451D01*
X3273Y-44451D01*
X3371Y-44354D01*
X3501Y-44041D01*
X3501Y-43703D01*
X3380Y-43411D01*
X5713Y-43411D01*
X5757Y-43518D01*
X5954Y-43715D01*
X6211Y-43821D01*
X6490Y-43822D01*
X6747Y-43715D01*
X6944Y-43519D01*
X7051Y-43261D01*
X7051Y-42983D01*
X6945Y-42726D01*
X6748Y-42528D01*
X6491Y-42422D01*
X6212Y-42421D01*
X6186Y-42432D01*
X6186Y-41006D01*
X6149Y-40916D01*
X6149Y-37232D01*
X6081Y-37068D01*
X5955Y-36942D01*
X5791Y-36874D01*
X5613Y-36873D01*
X5449Y-36941D01*
X5323Y-37067D01*
X5255Y-37231D01*
X5255Y-37409D01*
X5323Y-37573D01*
X5448Y-37699D01*
X5613Y-37767D01*
X5790Y-37767D01*
X5955Y-37699D01*
X6080Y-37574D01*
X6149Y-37410D01*
X6149Y-37232D01*
X6149Y-40916D01*
X6097Y-40791D01*
X5933Y-40626D01*
X5718Y-40537D01*
X5485Y-40536D01*
X5476Y-40540D01*
X5468Y-40537D01*
X5235Y-40536D01*
X5020Y-40625D01*
X4855Y-40790D01*
X4766Y-41005D01*
X4766Y-41237D01*
X4855Y-41452D01*
X4864Y-41462D01*
X4705Y-41528D01*
X4649Y-41584D01*
X4649Y-37232D01*
X4581Y-37068D01*
X4455Y-36942D01*
X4291Y-36874D01*
X4113Y-36873D01*
X3949Y-36941D01*
X3823Y-37067D01*
X3755Y-37231D01*
X3755Y-37409D01*
X3823Y-37573D01*
X3948Y-37699D01*
X4113Y-37767D01*
X4290Y-37767D01*
X4455Y-37699D01*
X4580Y-37574D01*
X4649Y-37410D01*
X4649Y-37232D01*
X4649Y-41584D01*
X4636Y-41596D01*
X4636Y-40917D01*
X4479Y-40536D01*
X4188Y-40245D01*
X3808Y-40087D01*
X3396Y-40086D01*
X3015Y-40244D01*
X2724Y-40535D01*
X2566Y-40915D01*
X2566Y-41327D01*
X2723Y-41707D01*
X3014Y-41998D01*
X3394Y-42156D01*
X3806Y-42157D01*
X4186Y-41999D01*
X4478Y-41709D01*
X4636Y-41328D01*
X4636Y-40917D01*
X4636Y-41596D01*
X4508Y-41725D01*
X4401Y-41982D01*
X4401Y-42260D01*
X4507Y-42518D01*
X4704Y-42715D01*
X4961Y-42821D01*
X5240Y-42822D01*
X5497Y-42715D01*
X5694Y-42519D01*
X5801Y-42261D01*
X5801Y-41983D01*
X5695Y-41726D01*
X5676Y-41707D01*
X5717Y-41707D01*
X5932Y-41618D01*
X6097Y-41453D01*
X6186Y-41238D01*
X6186Y-41006D01*
X6186Y-42432D01*
X5955Y-42528D01*
X5758Y-42725D01*
X5713Y-42832D01*
X3239Y-42832D01*
X3195Y-42726D01*
X2998Y-42528D01*
X2741Y-42422D01*
X2462Y-42421D01*
X2205Y-42528D01*
X2186Y-42547D01*
X2186Y-41006D01*
X2097Y-40791D01*
X1933Y-40626D01*
X1718Y-40537D01*
X1485Y-40536D01*
X1270Y-40625D01*
X1105Y-40790D01*
X1016Y-41005D01*
X1016Y-41237D01*
X1105Y-41452D01*
X1269Y-41617D01*
X1484Y-41706D01*
X1717Y-41707D01*
X1932Y-41618D01*
X2097Y-41453D01*
X2186Y-41238D01*
X2186Y-41006D01*
X2186Y-42547D01*
X2008Y-42725D01*
X1901Y-42982D01*
X1901Y-43260D01*
X1947Y-43373D01*
X1931Y-43389D01*
X1801Y-43702D01*
X1801Y-44040D01*
X1930Y-44352D01*
X2028Y-44451D01*
X795Y-44451D01*
X803Y-44429D01*
X790Y-44251D01*
X747Y-44146D01*
X662Y-44131D01*
X422Y-44372D01*
X427Y-44377D01*
X356Y-44448D01*
X351Y-44442D01*
X345Y-44448D01*
X275Y-44377D01*
X280Y-44372D01*
X275Y-44366D01*
X345Y-44295D01*
X351Y-44301D01*
X591Y-44060D01*
X577Y-43976D01*
X408Y-43920D01*
X270Y-43929D01*
X270Y-37684D01*
X380Y-37574D01*
X449Y-37410D01*
X449Y-37232D01*
X381Y-37068D01*
X380Y-37066D01*
X472Y-37060D01*
X578Y-37016D01*
X592Y-36931D01*
X352Y-36691D01*
X346Y-36697D01*
X276Y-36626D01*
X281Y-36620D01*
X276Y-36615D01*
X346Y-36544D01*
X352Y-36550D01*
X592Y-36309D01*
X578Y-36225D01*
X409Y-36168D01*
X270Y-36178D01*
X270Y-23478D01*
X1602Y-23478D01*
X1977Y-23404D01*
X1873Y-23508D01*
X1810Y-23602D01*
X1788Y-23712D01*
X1788Y-25565D01*
X1718Y-25535D01*
X1485Y-25535D01*
X1270Y-25624D01*
X1105Y-25789D01*
X1016Y-26003D01*
X1016Y-26236D01*
X1105Y-26451D01*
X1269Y-26616D01*
X1457Y-26694D01*
X1457Y-33044D01*
X1458Y-33046D01*
X1270Y-33124D01*
X1105Y-33289D01*
X1016Y-33503D01*
X1016Y-33736D01*
X1105Y-33951D01*
X1269Y-34116D01*
X1484Y-34205D01*
X1717Y-34205D01*
X1932Y-34117D01*
X2097Y-33952D01*
X2140Y-33847D01*
X2312Y-34018D01*
X2312Y-34983D01*
X2205Y-35027D01*
X2008Y-35223D01*
X1901Y-35481D01*
X1901Y-35759D01*
X1948Y-35873D01*
X1931Y-35889D01*
X1801Y-36202D01*
X1801Y-36540D01*
X1930Y-36852D01*
X2069Y-36992D01*
X2065Y-36994D01*
X1774Y-37285D01*
X1649Y-37586D01*
X1649Y-37232D01*
X1581Y-37068D01*
X1455Y-36942D01*
X1291Y-36874D01*
X1113Y-36873D01*
X949Y-36941D01*
X823Y-37067D01*
X804Y-37114D01*
X804Y-36677D01*
X791Y-36500D01*
X748Y-36395D01*
X663Y-36380D01*
X423Y-36620D01*
X663Y-36861D01*
X748Y-36846D01*
X804Y-36677D01*
X804Y-37114D01*
X755Y-37231D01*
X755Y-37409D01*
X823Y-37573D01*
X948Y-37699D01*
X1113Y-37767D01*
X1290Y-37767D01*
X1455Y-37699D01*
X1580Y-37574D01*
X1649Y-37410D01*
X1649Y-37232D01*
X1649Y-37586D01*
X1616Y-37665D01*
X1616Y-38077D01*
X1773Y-38457D01*
X2064Y-38748D01*
X2444Y-38906D01*
X2856Y-38907D01*
X3236Y-38749D01*
X3528Y-38459D01*
X3686Y-38078D01*
X3686Y-37667D01*
X3529Y-37286D01*
X3238Y-36995D01*
X3232Y-36992D01*
X3371Y-36854D01*
X3501Y-36541D01*
X3501Y-36203D01*
X3380Y-35911D01*
X5713Y-35911D01*
X5757Y-36018D01*
X5954Y-36215D01*
X6211Y-36321D01*
X6490Y-36322D01*
X6747Y-36215D01*
X6944Y-36019D01*
X7051Y-35761D01*
X7051Y-35483D01*
X6945Y-35226D01*
X6748Y-35028D01*
X6491Y-34922D01*
X6212Y-34921D01*
X6186Y-34932D01*
X6186Y-33505D01*
X6097Y-33289D01*
X5933Y-33125D01*
X5718Y-33035D01*
X5485Y-33035D01*
X5475Y-33040D01*
X5468Y-33037D01*
X5235Y-33036D01*
X5020Y-33125D01*
X4855Y-33290D01*
X4766Y-33505D01*
X4766Y-33737D01*
X4855Y-33952D01*
X4863Y-33961D01*
X4705Y-34027D01*
X4508Y-34223D01*
X4401Y-34481D01*
X4401Y-34759D01*
X4507Y-35016D01*
X4704Y-35213D01*
X4961Y-35320D01*
X5240Y-35320D01*
X5497Y-35214D01*
X5694Y-35017D01*
X5801Y-34760D01*
X5801Y-34482D01*
X5695Y-34224D01*
X5676Y-34205D01*
X5717Y-34205D01*
X5932Y-34117D01*
X6097Y-33952D01*
X6186Y-33737D01*
X6186Y-33505D01*
X6186Y-34932D01*
X5955Y-35028D01*
X5758Y-35225D01*
X5713Y-35332D01*
X3239Y-35332D01*
X3195Y-35224D01*
X2998Y-35027D01*
X2890Y-34983D01*
X2890Y-34373D01*
X3014Y-34497D01*
X3394Y-34655D01*
X3806Y-34656D01*
X4186Y-34498D01*
X4478Y-34207D01*
X4636Y-33827D01*
X4636Y-33415D01*
X4479Y-33035D01*
X4188Y-32743D01*
X3808Y-32586D01*
X3396Y-32585D01*
X3015Y-32742D01*
X2724Y-33033D01*
X2566Y-33414D01*
X2566Y-33454D01*
X2036Y-32924D01*
X2036Y-31221D01*
X2064Y-31248D01*
X2444Y-31406D01*
X2856Y-31407D01*
X3236Y-31249D01*
X3528Y-30959D01*
X3686Y-30578D01*
X3686Y-30167D01*
X3529Y-29786D01*
X3238Y-29495D01*
X2858Y-29337D01*
X2446Y-29336D01*
X2065Y-29494D01*
X2036Y-29523D01*
X2036Y-28545D01*
X2204Y-28713D01*
X2461Y-28820D01*
X2740Y-28820D01*
X2997Y-28714D01*
X3194Y-28517D01*
X3239Y-28410D01*
X9463Y-28410D01*
X9507Y-28516D01*
X9704Y-28713D01*
X9961Y-28820D01*
X10240Y-28820D01*
X10497Y-28714D01*
X10694Y-28517D01*
X10801Y-28260D01*
X10801Y-27982D01*
X10695Y-27724D01*
X10498Y-27527D01*
X10241Y-27420D01*
X9962Y-27420D01*
X9705Y-27527D01*
X9686Y-27545D01*
X9686Y-26005D01*
X9597Y-25789D01*
X9433Y-25625D01*
X9218Y-25535D01*
X8985Y-25535D01*
X8770Y-25624D01*
X8605Y-25789D01*
X8516Y-26003D01*
X8516Y-26236D01*
X8605Y-26451D01*
X8769Y-26616D01*
X8984Y-26705D01*
X9217Y-26705D01*
X9432Y-26617D01*
X9597Y-26452D01*
X9686Y-26237D01*
X9686Y-26005D01*
X9686Y-27545D01*
X9508Y-27723D01*
X9463Y-27831D01*
X6186Y-27831D01*
X6186Y-26005D01*
X6097Y-25789D01*
X5933Y-25625D01*
X5718Y-25535D01*
X5485Y-25535D01*
X5270Y-25624D01*
X5105Y-25789D01*
X5016Y-26003D01*
X5016Y-26236D01*
X5092Y-26420D01*
X4962Y-26420D01*
X4705Y-26527D01*
X4508Y-26723D01*
X4401Y-26981D01*
X4401Y-27259D01*
X4507Y-27516D01*
X4704Y-27713D01*
X4961Y-27820D01*
X5240Y-27820D01*
X5497Y-27714D01*
X5694Y-27517D01*
X5801Y-27260D01*
X5801Y-26982D01*
X5695Y-26724D01*
X5676Y-26705D01*
X5717Y-26705D01*
X5932Y-26617D01*
X6097Y-26452D01*
X6186Y-26237D01*
X6186Y-26005D01*
X6186Y-27831D01*
X3239Y-27831D01*
X3195Y-27724D01*
X2998Y-27527D01*
X2890Y-27483D01*
X2890Y-26873D01*
X3014Y-26997D01*
X3394Y-27155D01*
X3806Y-27156D01*
X4186Y-26998D01*
X4478Y-26707D01*
X4636Y-26327D01*
X4636Y-25915D01*
X4479Y-25535D01*
X4188Y-25243D01*
X3808Y-25086D01*
X3396Y-25085D01*
X3015Y-25242D01*
X2890Y-25367D01*
X2890Y-24024D01*
X3541Y-23373D01*
X3541Y-23373D01*
X3604Y-23280D01*
X3604Y-23280D01*
X3607Y-23261D01*
X3626Y-23169D01*
X3626Y-23169D01*
X3626Y-19655D01*
X3806Y-19656D01*
X4186Y-19498D01*
X4478Y-19207D01*
X4636Y-18827D01*
X4636Y-18761D01*
X4844Y-18969D01*
X4705Y-19027D01*
X4508Y-19223D01*
X4401Y-19481D01*
X4401Y-19759D01*
X4507Y-20016D01*
X4704Y-20213D01*
X4961Y-20320D01*
X5240Y-20320D01*
X5497Y-20214D01*
X5694Y-20017D01*
X5737Y-19914D01*
X5737Y-20495D01*
X5759Y-20605D01*
X5821Y-20699D01*
X10291Y-25169D01*
X10291Y-25169D01*
X10354Y-25211D01*
X10385Y-25232D01*
X10385Y-25232D01*
X10496Y-25254D01*
X10496Y-25254D01*
X10504Y-25254D01*
X10224Y-25533D01*
X10066Y-25914D01*
X10066Y-26325D01*
X10223Y-26706D01*
X10514Y-26997D01*
X10894Y-27155D01*
X11306Y-27156D01*
X11686Y-26998D01*
X11978Y-26707D01*
X12136Y-26327D01*
X12136Y-26261D01*
X12344Y-26469D01*
X12205Y-26527D01*
X12008Y-26723D01*
X11901Y-26981D01*
X11901Y-27259D01*
X12007Y-27516D01*
X12204Y-27713D01*
X12461Y-27820D01*
X12740Y-27820D01*
X12997Y-27714D01*
X13194Y-27517D01*
X13252Y-27377D01*
X13458Y-27583D01*
X13458Y-27583D01*
X13459Y-27590D01*
X13522Y-27684D01*
X14460Y-28622D01*
X14460Y-28622D01*
X14554Y-28685D01*
X14554Y-28685D01*
X14573Y-28688D01*
X14665Y-28707D01*
X15088Y-28707D01*
X15088Y-40778D01*
X15088Y-40778D01*
G37*
G54D26*
X15088Y-40778D02*
X14649Y-41217D01*
X14649Y-37232D01*
X14581Y-37068D01*
X14455Y-36942D01*
X14291Y-36874D01*
X14113Y-36873D01*
X13949Y-36941D01*
X13823Y-37067D01*
X13755Y-37231D01*
X13755Y-37409D01*
X13823Y-37573D01*
X13948Y-37699D01*
X14113Y-37767D01*
X14290Y-37767D01*
X14455Y-37699D01*
X14580Y-37574D01*
X14649Y-37410D01*
X14649Y-37232D01*
X14649Y-41217D01*
X13686Y-42180D01*
X13686Y-41006D01*
X13686Y-33505D01*
X13597Y-33289D01*
X13433Y-33125D01*
X13218Y-33035D01*
X13086Y-33035D01*
X13086Y-30167D01*
X12929Y-29786D01*
X12638Y-29495D01*
X12258Y-29337D01*
X11846Y-29336D01*
X11465Y-29494D01*
X11174Y-29785D01*
X11016Y-30165D01*
X11016Y-30577D01*
X11173Y-30957D01*
X11464Y-31248D01*
X11844Y-31406D01*
X12256Y-31407D01*
X12636Y-31249D01*
X12928Y-30959D01*
X13086Y-30578D01*
X13086Y-30167D01*
X13086Y-33035D01*
X12985Y-33035D01*
X12770Y-33124D01*
X12605Y-33289D01*
X12516Y-33503D01*
X12516Y-33736D01*
X12592Y-33920D01*
X12462Y-33920D01*
X12205Y-34027D01*
X12136Y-34095D01*
X12136Y-33415D01*
X11979Y-33035D01*
X11688Y-32743D01*
X11308Y-32586D01*
X10896Y-32585D01*
X10515Y-32742D01*
X10224Y-33033D01*
X10066Y-33414D01*
X10066Y-33825D01*
X10223Y-34206D01*
X10514Y-34497D01*
X10894Y-34655D01*
X11306Y-34656D01*
X11686Y-34498D01*
X11978Y-34207D01*
X12136Y-33827D01*
X12136Y-33415D01*
X12136Y-34095D01*
X12008Y-34223D01*
X11901Y-34481D01*
X11901Y-34759D01*
X12007Y-35016D01*
X12204Y-35213D01*
X12461Y-35320D01*
X12740Y-35320D01*
X12997Y-35214D01*
X13194Y-35017D01*
X13301Y-34760D01*
X13301Y-34482D01*
X13195Y-34224D01*
X13176Y-34205D01*
X13217Y-34205D01*
X13432Y-34117D01*
X13597Y-33952D01*
X13686Y-33737D01*
X13686Y-33505D01*
X13686Y-41006D01*
X13597Y-40791D01*
X13433Y-40626D01*
X13218Y-40537D01*
X13086Y-40537D01*
X13086Y-37667D01*
X12929Y-37286D01*
X12638Y-36995D01*
X12632Y-36992D01*
X12771Y-36854D01*
X12901Y-36541D01*
X12901Y-36203D01*
X12772Y-35891D01*
X12533Y-35651D01*
X12221Y-35522D01*
X11883Y-35521D01*
X11570Y-35651D01*
X11331Y-35889D01*
X11201Y-36202D01*
X11201Y-36540D01*
X11330Y-36852D01*
X11469Y-36992D01*
X11465Y-36994D01*
X11174Y-37285D01*
X11016Y-37665D01*
X11016Y-38077D01*
X11173Y-38457D01*
X11464Y-38748D01*
X11844Y-38906D01*
X12256Y-38907D01*
X12636Y-38749D01*
X12928Y-38459D01*
X13086Y-38078D01*
X13086Y-37667D01*
X13086Y-40537D01*
X12985Y-40536D01*
X12770Y-40625D01*
X12605Y-40790D01*
X12516Y-41005D01*
X12516Y-41237D01*
X12592Y-41422D01*
X12462Y-41421D01*
X12205Y-41528D01*
X12136Y-41596D01*
X12136Y-40917D01*
X11979Y-40536D01*
X11688Y-40245D01*
X11308Y-40087D01*
X10896Y-40086D01*
X10801Y-40126D01*
X10801Y-35482D01*
X10695Y-35224D01*
X10498Y-35027D01*
X10241Y-34920D01*
X9962Y-34920D01*
X9936Y-34931D01*
X9936Y-33506D01*
X9847Y-33291D01*
X9683Y-33126D01*
X9468Y-33037D01*
X9235Y-33036D01*
X9228Y-33040D01*
X9218Y-33035D01*
X8985Y-33035D01*
X8770Y-33124D01*
X8605Y-33289D01*
X8516Y-33503D01*
X8516Y-33736D01*
X8605Y-33951D01*
X8615Y-33962D01*
X8455Y-34028D01*
X8386Y-34096D01*
X8386Y-33417D01*
X8229Y-33036D01*
X7938Y-32745D01*
X7558Y-32587D01*
X7146Y-32586D01*
X6765Y-32744D01*
X6474Y-33035D01*
X6316Y-33415D01*
X6316Y-33827D01*
X6473Y-34207D01*
X6764Y-34498D01*
X7144Y-34656D01*
X7556Y-34657D01*
X7936Y-34499D01*
X8228Y-34209D01*
X8386Y-33828D01*
X8386Y-33417D01*
X8386Y-34096D01*
X8258Y-34225D01*
X8151Y-34482D01*
X8151Y-34760D01*
X8257Y-35018D01*
X8454Y-35215D01*
X8711Y-35321D01*
X8990Y-35322D01*
X9247Y-35215D01*
X9444Y-35019D01*
X9551Y-34761D01*
X9551Y-34483D01*
X9445Y-34226D01*
X9426Y-34207D01*
X9467Y-34207D01*
X9682Y-34118D01*
X9847Y-33953D01*
X9936Y-33738D01*
X9936Y-33506D01*
X9936Y-34931D01*
X9705Y-35027D01*
X9508Y-35223D01*
X9401Y-35481D01*
X9401Y-35759D01*
X9507Y-36016D01*
X9704Y-36213D01*
X9961Y-36320D01*
X10240Y-36320D01*
X10497Y-36214D01*
X10694Y-36017D01*
X10801Y-35760D01*
X10801Y-35482D01*
X10801Y-40126D01*
X10649Y-40188D01*
X10649Y-37232D01*
X10581Y-37068D01*
X10455Y-36942D01*
X10291Y-36874D01*
X10113Y-36873D01*
X9949Y-36941D01*
X9823Y-37067D01*
X9755Y-37231D01*
X9755Y-37409D01*
X9823Y-37573D01*
X9948Y-37699D01*
X10113Y-37767D01*
X10290Y-37767D01*
X10455Y-37699D01*
X10580Y-37574D01*
X10649Y-37410D01*
X10649Y-37232D01*
X10649Y-40188D01*
X10515Y-40244D01*
X10224Y-40535D01*
X10066Y-40915D01*
X10066Y-41327D01*
X10223Y-41707D01*
X10514Y-41998D01*
X10894Y-42156D01*
X11306Y-42157D01*
X11686Y-41999D01*
X11978Y-41709D01*
X12136Y-41328D01*
X12136Y-40917D01*
X12136Y-41596D01*
X12008Y-41725D01*
X11901Y-41982D01*
X11901Y-42260D01*
X12007Y-42518D01*
X12204Y-42715D01*
X12461Y-42821D01*
X12740Y-42822D01*
X12997Y-42715D01*
X13194Y-42519D01*
X13301Y-42261D01*
X13301Y-41983D01*
X13195Y-41726D01*
X13176Y-41707D01*
X13217Y-41707D01*
X13432Y-41618D01*
X13597Y-41453D01*
X13686Y-41238D01*
X13686Y-41006D01*
X13686Y-42180D01*
X13033Y-42832D01*
X10739Y-42832D01*
X10695Y-42726D01*
X10498Y-42528D01*
X10241Y-42422D01*
X9962Y-42421D01*
X9936Y-42432D01*
X9936Y-41006D01*
X9847Y-40791D01*
X9683Y-40626D01*
X9468Y-40537D01*
X9235Y-40536D01*
X9226Y-40540D01*
X9218Y-40537D01*
X9149Y-40537D01*
X9149Y-37232D01*
X9081Y-37068D01*
X8955Y-36942D01*
X8791Y-36874D01*
X8613Y-36873D01*
X8449Y-36941D01*
X8323Y-37067D01*
X8255Y-37231D01*
X8255Y-37409D01*
X8323Y-37573D01*
X8448Y-37699D01*
X8613Y-37767D01*
X8790Y-37767D01*
X8955Y-37699D01*
X9080Y-37574D01*
X9149Y-37410D01*
X9149Y-37232D01*
X9149Y-40537D01*
X8985Y-40536D01*
X8770Y-40625D01*
X8605Y-40790D01*
X8516Y-41005D01*
X8516Y-41237D01*
X8605Y-41452D01*
X8614Y-41462D01*
X8455Y-41528D01*
X8386Y-41596D01*
X8386Y-40917D01*
X8229Y-40536D01*
X7938Y-40245D01*
X7649Y-40125D01*
X7649Y-37232D01*
X7581Y-37068D01*
X7455Y-36942D01*
X7291Y-36874D01*
X7113Y-36873D01*
X6949Y-36941D01*
X6823Y-37067D01*
X6755Y-37231D01*
X6755Y-37409D01*
X6823Y-37573D01*
X6948Y-37699D01*
X7113Y-37767D01*
X7290Y-37767D01*
X7455Y-37699D01*
X7580Y-37574D01*
X7649Y-37410D01*
X7649Y-37232D01*
X7649Y-40125D01*
X7558Y-40087D01*
X7146Y-40086D01*
X6765Y-40244D01*
X6474Y-40535D01*
X6316Y-40915D01*
X6316Y-41327D01*
X6473Y-41707D01*
X6764Y-41998D01*
X7144Y-42156D01*
X7556Y-42157D01*
X7936Y-41999D01*
X8228Y-41709D01*
X8386Y-41328D01*
X8386Y-40917D01*
X8386Y-41596D01*
X8258Y-41725D01*
X8151Y-41982D01*
X8151Y-42260D01*
X8257Y-42518D01*
X8454Y-42715D01*
X8711Y-42821D01*
X8990Y-42822D01*
X9247Y-42715D01*
X9444Y-42519D01*
X9551Y-42261D01*
X9551Y-41983D01*
X9445Y-41726D01*
X9426Y-41707D01*
X9467Y-41707D01*
X9682Y-41618D01*
X9847Y-41453D01*
X9936Y-41238D01*
X9936Y-41006D01*
X9936Y-42432D01*
X9705Y-42528D01*
X9508Y-42725D01*
X9401Y-42982D01*
X9401Y-43260D01*
X9507Y-43518D01*
X9704Y-43715D01*
X9961Y-43821D01*
X10240Y-43822D01*
X10497Y-43715D01*
X10694Y-43519D01*
X10739Y-43411D01*
X11322Y-43411D01*
X11201Y-43702D01*
X11201Y-44040D01*
X11330Y-44352D01*
X11428Y-44451D01*
X3273Y-44451D01*
X3371Y-44354D01*
X3501Y-44041D01*
X3501Y-43703D01*
X3380Y-43411D01*
X5713Y-43411D01*
X5757Y-43518D01*
X5954Y-43715D01*
X6211Y-43821D01*
X6490Y-43822D01*
X6747Y-43715D01*
X6944Y-43519D01*
X7051Y-43261D01*
X7051Y-42983D01*
X6945Y-42726D01*
X6748Y-42528D01*
X6491Y-42422D01*
X6212Y-42421D01*
X6186Y-42432D01*
X6186Y-41006D01*
X6149Y-40916D01*
X6149Y-37232D01*
X6081Y-37068D01*
X5955Y-36942D01*
X5791Y-36874D01*
X5613Y-36873D01*
X5449Y-36941D01*
X5323Y-37067D01*
X5255Y-37231D01*
X5255Y-37409D01*
X5323Y-37573D01*
X5448Y-37699D01*
X5613Y-37767D01*
X5790Y-37767D01*
X5955Y-37699D01*
X6080Y-37574D01*
X6149Y-37410D01*
X6149Y-37232D01*
X6149Y-40916D01*
X6097Y-40791D01*
X5933Y-40626D01*
X5718Y-40537D01*
X5485Y-40536D01*
X5476Y-40540D01*
X5468Y-40537D01*
X5235Y-40536D01*
X5020Y-40625D01*
X4855Y-40790D01*
X4766Y-41005D01*
X4766Y-41237D01*
X4855Y-41452D01*
X4864Y-41462D01*
X4705Y-41528D01*
X4649Y-41584D01*
X4649Y-37232D01*
X4581Y-37068D01*
X4455Y-36942D01*
X4291Y-36874D01*
X4113Y-36873D01*
X3949Y-36941D01*
X3823Y-37067D01*
X3755Y-37231D01*
X3755Y-37409D01*
X3823Y-37573D01*
X3948Y-37699D01*
X4113Y-37767D01*
X4290Y-37767D01*
X4455Y-37699D01*
X4580Y-37574D01*
X4649Y-37410D01*
X4649Y-37232D01*
X4649Y-41584D01*
X4636Y-41596D01*
X4636Y-40917D01*
X4479Y-40536D01*
X4188Y-40245D01*
X3808Y-40087D01*
X3396Y-40086D01*
X3015Y-40244D01*
X2724Y-40535D01*
X2566Y-40915D01*
X2566Y-41327D01*
X2723Y-41707D01*
X3014Y-41998D01*
X3394Y-42156D01*
X3806Y-42157D01*
X4186Y-41999D01*
X4478Y-41709D01*
X4636Y-41328D01*
X4636Y-40917D01*
X4636Y-41596D01*
X4508Y-41725D01*
X4401Y-41982D01*
X4401Y-42260D01*
X4507Y-42518D01*
X4704Y-42715D01*
X4961Y-42821D01*
X5240Y-42822D01*
X5497Y-42715D01*
X5694Y-42519D01*
X5801Y-42261D01*
X5801Y-41983D01*
X5695Y-41726D01*
X5676Y-41707D01*
X5717Y-41707D01*
X5932Y-41618D01*
X6097Y-41453D01*
X6186Y-41238D01*
X6186Y-41006D01*
X6186Y-42432D01*
X5955Y-42528D01*
X5758Y-42725D01*
X5713Y-42832D01*
X3239Y-42832D01*
X3195Y-42726D01*
X2998Y-42528D01*
X2741Y-42422D01*
X2462Y-42421D01*
X2205Y-42528D01*
X2186Y-42547D01*
X2186Y-41006D01*
X2097Y-40791D01*
X1933Y-40626D01*
X1718Y-40537D01*
X1485Y-40536D01*
X1270Y-40625D01*
X1105Y-40790D01*
X1016Y-41005D01*
X1016Y-41237D01*
X1105Y-41452D01*
X1269Y-41617D01*
X1484Y-41706D01*
X1717Y-41707D01*
X1932Y-41618D01*
X2097Y-41453D01*
X2186Y-41238D01*
X2186Y-41006D01*
X2186Y-42547D01*
X2008Y-42725D01*
X1901Y-42982D01*
X1901Y-43260D01*
X1947Y-43373D01*
X1931Y-43389D01*
X1801Y-43702D01*
X1801Y-44040D01*
X1930Y-44352D01*
X2028Y-44451D01*
X795Y-44451D01*
X803Y-44429D01*
X790Y-44251D01*
X747Y-44146D01*
X662Y-44131D01*
X422Y-44372D01*
X427Y-44377D01*
X356Y-44448D01*
X351Y-44442D01*
X345Y-44448D01*
X275Y-44377D01*
X280Y-44372D01*
X275Y-44366D01*
X345Y-44295D01*
X351Y-44301D01*
X591Y-44060D01*
X577Y-43976D01*
X408Y-43920D01*
X270Y-43929D01*
X270Y-37684D01*
X380Y-37574D01*
X449Y-37410D01*
X449Y-37232D01*
X381Y-37068D01*
X380Y-37066D01*
X472Y-37060D01*
X578Y-37016D01*
X592Y-36931D01*
X352Y-36691D01*
X346Y-36697D01*
X276Y-36626D01*
X281Y-36620D01*
X276Y-36615D01*
X346Y-36544D01*
X352Y-36550D01*
X592Y-36309D01*
X578Y-36225D01*
X409Y-36168D01*
X270Y-36178D01*
X270Y-23478D01*
X1602Y-23478D01*
X1977Y-23404D01*
X1873Y-23508D01*
X1810Y-23602D01*
X1788Y-23712D01*
X1788Y-25565D01*
X1718Y-25535D01*
X1485Y-25535D01*
X1270Y-25624D01*
X1105Y-25789D01*
X1016Y-26003D01*
X1016Y-26236D01*
X1105Y-26451D01*
X1269Y-26616D01*
X1457Y-26694D01*
X1457Y-33044D01*
X1458Y-33046D01*
X1270Y-33124D01*
X1105Y-33289D01*
X1016Y-33503D01*
X1016Y-33736D01*
X1105Y-33951D01*
X1269Y-34116D01*
X1484Y-34205D01*
X1717Y-34205D01*
X1932Y-34117D01*
X2097Y-33952D01*
X2140Y-33847D01*
X2312Y-34018D01*
X2312Y-34983D01*
X2205Y-35027D01*
X2008Y-35223D01*
X1901Y-35481D01*
X1901Y-35759D01*
X1948Y-35873D01*
X1931Y-35889D01*
X1801Y-36202D01*
X1801Y-36540D01*
X1930Y-36852D01*
X2069Y-36992D01*
X2065Y-36994D01*
X1774Y-37285D01*
X1649Y-37586D01*
X1649Y-37232D01*
X1581Y-37068D01*
X1455Y-36942D01*
X1291Y-36874D01*
X1113Y-36873D01*
X949Y-36941D01*
X823Y-37067D01*
X804Y-37114D01*
X804Y-36677D01*
X791Y-36500D01*
X748Y-36395D01*
X663Y-36380D01*
X423Y-36620D01*
X663Y-36861D01*
X748Y-36846D01*
X804Y-36677D01*
X804Y-37114D01*
X755Y-37231D01*
X755Y-37409D01*
X823Y-37573D01*
X948Y-37699D01*
X1113Y-37767D01*
X1290Y-37767D01*
X1455Y-37699D01*
X1580Y-37574D01*
X1649Y-37410D01*
X1649Y-37232D01*
X1649Y-37586D01*
X1616Y-37665D01*
X1616Y-38077D01*
X1773Y-38457D01*
X2064Y-38748D01*
X2444Y-38906D01*
X2856Y-38907D01*
X3236Y-38749D01*
X3528Y-38459D01*
X3686Y-38078D01*
X3686Y-37667D01*
X3529Y-37286D01*
X3238Y-36995D01*
X3232Y-36992D01*
X3371Y-36854D01*
X3501Y-36541D01*
X3501Y-36203D01*
X3380Y-35911D01*
X5713Y-35911D01*
X5757Y-36018D01*
X5954Y-36215D01*
X6211Y-36321D01*
X6490Y-36322D01*
X6747Y-36215D01*
X6944Y-36019D01*
X7051Y-35761D01*
X7051Y-35483D01*
X6945Y-35226D01*
X6748Y-35028D01*
X6491Y-34922D01*
X6212Y-34921D01*
X6186Y-34932D01*
X6186Y-33505D01*
X6097Y-33289D01*
X5933Y-33125D01*
X5718Y-33035D01*
X5485Y-33035D01*
X5475Y-33040D01*
X5468Y-33037D01*
X5235Y-33036D01*
X5020Y-33125D01*
X4855Y-33290D01*
X4766Y-33505D01*
X4766Y-33737D01*
X4855Y-33952D01*
X4863Y-33961D01*
X4705Y-34027D01*
X4508Y-34223D01*
X4401Y-34481D01*
X4401Y-34759D01*
X4507Y-35016D01*
X4704Y-35213D01*
X4961Y-35320D01*
X5240Y-35320D01*
X5497Y-35214D01*
X5694Y-35017D01*
X5801Y-34760D01*
X5801Y-34482D01*
X5695Y-34224D01*
X5676Y-34205D01*
X5717Y-34205D01*
X5932Y-34117D01*
X6097Y-33952D01*
X6186Y-33737D01*
X6186Y-33505D01*
X6186Y-34932D01*
X5955Y-35028D01*
X5758Y-35225D01*
X5713Y-35332D01*
X3239Y-35332D01*
X3195Y-35224D01*
X2998Y-35027D01*
X2890Y-34983D01*
X2890Y-34373D01*
X3014Y-34497D01*
X3394Y-34655D01*
X3806Y-34656D01*
X4186Y-34498D01*
X4478Y-34207D01*
X4636Y-33827D01*
X4636Y-33415D01*
X4479Y-33035D01*
X4188Y-32743D01*
X3808Y-32586D01*
X3396Y-32585D01*
X3015Y-32742D01*
X2724Y-33033D01*
X2566Y-33414D01*
X2566Y-33454D01*
X2036Y-32924D01*
X2036Y-31221D01*
X2064Y-31248D01*
X2444Y-31406D01*
X2856Y-31407D01*
X3236Y-31249D01*
X3528Y-30959D01*
X3686Y-30578D01*
X3686Y-30167D01*
X3529Y-29786D01*
X3238Y-29495D01*
X2858Y-29337D01*
X2446Y-29336D01*
X2065Y-29494D01*
X2036Y-29523D01*
X2036Y-28545D01*
X2204Y-28713D01*
X2461Y-28820D01*
X2740Y-28820D01*
X2997Y-28714D01*
X3194Y-28517D01*
X3239Y-28410D01*
X9463Y-28410D01*
X9507Y-28516D01*
X9704Y-28713D01*
X9961Y-28820D01*
X10240Y-28820D01*
X10497Y-28714D01*
X10694Y-28517D01*
X10801Y-28260D01*
X10801Y-27982D01*
X10695Y-27724D01*
X10498Y-27527D01*
X10241Y-27420D01*
X9962Y-27420D01*
X9705Y-27527D01*
X9686Y-27545D01*
X9686Y-26005D01*
X9597Y-25789D01*
X9433Y-25625D01*
X9218Y-25535D01*
X8985Y-25535D01*
X8770Y-25624D01*
X8605Y-25789D01*
X8516Y-26003D01*
X8516Y-26236D01*
X8605Y-26451D01*
X8769Y-26616D01*
X8984Y-26705D01*
X9217Y-26705D01*
X9432Y-26617D01*
X9597Y-26452D01*
X9686Y-26237D01*
X9686Y-26005D01*
X9686Y-27545D01*
X9508Y-27723D01*
X9463Y-27831D01*
X6186Y-27831D01*
X6186Y-26005D01*
X6097Y-25789D01*
X5933Y-25625D01*
X5718Y-25535D01*
X5485Y-25535D01*
X5270Y-25624D01*
X5105Y-25789D01*
X5016Y-26003D01*
X5016Y-26236D01*
X5092Y-26420D01*
X4962Y-26420D01*
X4705Y-26527D01*
X4508Y-26723D01*
X4401Y-26981D01*
X4401Y-27259D01*
X4507Y-27516D01*
X4704Y-27713D01*
X4961Y-27820D01*
X5240Y-27820D01*
X5497Y-27714D01*
X5694Y-27517D01*
X5801Y-27260D01*
X5801Y-26982D01*
X5695Y-26724D01*
X5676Y-26705D01*
X5717Y-26705D01*
X5932Y-26617D01*
X6097Y-26452D01*
X6186Y-26237D01*
X6186Y-26005D01*
X6186Y-27831D01*
X3239Y-27831D01*
X3195Y-27724D01*
X2998Y-27527D01*
X2890Y-27483D01*
X2890Y-26873D01*
X3014Y-26997D01*
X3394Y-27155D01*
X3806Y-27156D01*
X4186Y-26998D01*
X4478Y-26707D01*
X4636Y-26327D01*
X4636Y-25915D01*
X4479Y-25535D01*
X4188Y-25243D01*
X3808Y-25086D01*
X3396Y-25085D01*
X3015Y-25242D01*
X2890Y-25367D01*
X2890Y-24024D01*
X3541Y-23373D01*
X3541Y-23373D01*
X3604Y-23280D01*
X3604Y-23280D01*
X3607Y-23261D01*
X3626Y-23169D01*
X3626Y-23169D01*
X3626Y-19655D01*
X3806Y-19656D01*
X4186Y-19498D01*
X4478Y-19207D01*
X4636Y-18827D01*
X4636Y-18761D01*
X4844Y-18969D01*
X4705Y-19027D01*
X4508Y-19223D01*
X4401Y-19481D01*
X4401Y-19759D01*
X4507Y-20016D01*
X4704Y-20213D01*
X4961Y-20320D01*
X5240Y-20320D01*
X5497Y-20214D01*
X5694Y-20017D01*
X5737Y-19914D01*
X5737Y-20495D01*
X5759Y-20605D01*
X5821Y-20699D01*
X10291Y-25169D01*
X10291Y-25169D01*
X10354Y-25211D01*
X10385Y-25232D01*
X10385Y-25232D01*
X10496Y-25254D01*
X10496Y-25254D01*
X10504Y-25254D01*
X10224Y-25533D01*
X10066Y-25914D01*
X10066Y-26325D01*
X10223Y-26706D01*
X10514Y-26997D01*
X10894Y-27155D01*
X11306Y-27156D01*
X11686Y-26998D01*
X11978Y-26707D01*
X12136Y-26327D01*
X12136Y-26261D01*
X12344Y-26469D01*
X12205Y-26527D01*
X12008Y-26723D01*
X11901Y-26981D01*
X11901Y-27259D01*
X12007Y-27516D01*
X12204Y-27713D01*
X12461Y-27820D01*
X12740Y-27820D01*
X12997Y-27714D01*
X13194Y-27517D01*
X13252Y-27377D01*
X13458Y-27583D01*
X13458Y-27583D01*
X13459Y-27590D01*
X13522Y-27684D01*
X14460Y-28622D01*
X14460Y-28622D01*
X14554Y-28685D01*
X14554Y-28685D01*
X14573Y-28688D01*
X14665Y-28707D01*
X15088Y-28707D01*
X15088Y-40778D01*
G54D10*
G36*
X29431Y-17050D02*
X29333Y-16951D01*
X29021Y-16822D01*
X28801Y-16822D01*
X28801Y-15733D01*
X28695Y-15476D01*
X28498Y-15278D01*
X28241Y-15172D01*
X27962Y-15171D01*
X27705Y-15278D01*
X27508Y-15475D01*
X27401Y-15732D01*
X27401Y-16010D01*
X27507Y-16268D01*
X27704Y-16465D01*
X27961Y-16571D01*
X28240Y-16572D01*
X28497Y-16465D01*
X28694Y-16269D01*
X28801Y-16011D01*
X28801Y-15733D01*
X28801Y-16822D01*
X28683Y-16821D01*
X28370Y-16951D01*
X28131Y-17189D01*
X28001Y-17502D01*
X28001Y-17840D01*
X28082Y-18037D01*
X27985Y-18036D01*
X27770Y-18125D01*
X27605Y-18290D01*
X27516Y-18505D01*
X27516Y-18737D01*
X27592Y-18922D01*
X27462Y-18921D01*
X27205Y-19028D01*
X27136Y-19096D01*
X27136Y-18417D01*
X27136Y-14667D01*
X26979Y-14286D01*
X26688Y-13995D01*
X26308Y-13837D01*
X25896Y-13836D01*
X25516Y-13994D01*
X25224Y-14285D01*
X25066Y-14665D01*
X25066Y-15077D01*
X25223Y-15457D01*
X25514Y-15748D01*
X25894Y-15906D01*
X26306Y-15907D01*
X26687Y-15749D01*
X26978Y-15459D01*
X27136Y-15078D01*
X27136Y-14667D01*
X27136Y-18417D01*
X26979Y-18036D01*
X26688Y-17745D01*
X26686Y-17744D01*
X26686Y-16756D01*
X26597Y-16541D01*
X26433Y-16376D01*
X26218Y-16287D01*
X25985Y-16286D01*
X25770Y-16375D01*
X25605Y-16540D01*
X25516Y-16755D01*
X25516Y-16987D01*
X25605Y-17202D01*
X25769Y-17367D01*
X25984Y-17456D01*
X26217Y-17457D01*
X26432Y-17368D01*
X26597Y-17203D01*
X26686Y-16988D01*
X26686Y-16756D01*
X26686Y-17744D01*
X26308Y-17587D01*
X25896Y-17586D01*
X25516Y-17744D01*
X25224Y-18035D01*
X25066Y-18415D01*
X25066Y-18827D01*
X25223Y-19207D01*
X25514Y-19498D01*
X25894Y-19656D01*
X26306Y-19657D01*
X26687Y-19499D01*
X26978Y-19209D01*
X27136Y-18828D01*
X27136Y-18417D01*
X27136Y-19096D01*
X27008Y-19225D01*
X26901Y-19482D01*
X26901Y-19760D01*
X26945Y-19868D01*
X26896Y-19917D01*
X26834Y-20011D01*
X26812Y-20122D01*
X26812Y-20234D01*
X26705Y-20278D01*
X26686Y-20297D01*
X26686Y-20256D01*
X26597Y-20041D01*
X26433Y-19876D01*
X26218Y-19787D01*
X25985Y-19786D01*
X25770Y-19875D01*
X25605Y-20040D01*
X25577Y-20108D01*
X25498Y-20028D01*
X25241Y-19922D01*
X24962Y-19921D01*
X24705Y-20028D01*
X24508Y-20225D01*
X24401Y-20482D01*
X24401Y-20760D01*
X24507Y-21018D01*
X24704Y-21215D01*
X24812Y-21259D01*
X24812Y-21348D01*
X24319Y-21841D01*
X24203Y-21725D01*
X24039Y-21657D01*
X24011Y-21657D01*
X22961Y-20607D01*
X23056Y-20607D01*
X23437Y-20449D01*
X23728Y-20159D01*
X23886Y-19778D01*
X23886Y-19367D01*
X23786Y-19124D01*
X23984Y-19206D01*
X24217Y-19207D01*
X24432Y-19118D01*
X24597Y-18953D01*
X24686Y-18738D01*
X24686Y-18506D01*
X24597Y-18291D01*
X24433Y-18126D01*
X24218Y-18037D01*
X23985Y-18036D01*
X23786Y-18119D01*
X23886Y-17878D01*
X23886Y-17467D01*
X23729Y-17086D01*
X23438Y-16795D01*
X23058Y-16637D01*
X22646Y-16636D01*
X22266Y-16794D01*
X21974Y-17085D01*
X21816Y-17465D01*
X21816Y-17877D01*
X21973Y-18257D01*
X22264Y-18548D01*
X22440Y-18622D01*
X22266Y-18694D01*
X21974Y-18985D01*
X21816Y-19365D01*
X21816Y-19462D01*
X21680Y-19325D01*
X21680Y-16683D01*
X21680Y-16683D01*
X21658Y-16572D01*
X21658Y-16572D01*
X21637Y-16541D01*
X21595Y-16478D01*
X21595Y-16478D01*
X21404Y-16287D01*
X21310Y-16224D01*
X21199Y-16202D01*
X19441Y-16202D01*
X19330Y-16224D01*
X19299Y-16245D01*
X19236Y-16287D01*
X17137Y-18386D01*
X17097Y-18289D01*
X16933Y-18125D01*
X16751Y-18049D01*
X23530Y-11271D01*
X23605Y-11452D01*
X23769Y-11617D01*
X23984Y-11706D01*
X24217Y-11707D01*
X24432Y-11618D01*
X24597Y-11453D01*
X24686Y-11238D01*
X24686Y-11006D01*
X24597Y-10791D01*
X24433Y-10626D01*
X24250Y-10550D01*
X24306Y-10495D01*
X24306Y-10495D01*
X24348Y-10432D01*
X24368Y-10401D01*
X24368Y-10401D01*
X24390Y-10290D01*
X24390Y-10290D01*
X24390Y-7612D01*
X24421Y-7600D01*
X24580Y-7441D01*
X24666Y-7233D01*
X24666Y-7009D01*
X24580Y-6801D01*
X24422Y-6642D01*
X24214Y-6556D01*
X23989Y-6556D01*
X23781Y-6641D01*
X23622Y-6800D01*
X23536Y-7008D01*
X23536Y-7232D01*
X23622Y-7440D01*
X23781Y-7599D01*
X23812Y-7612D01*
X23812Y-9786D01*
X23729Y-9586D01*
X23438Y-9295D01*
X23058Y-9137D01*
X22646Y-9136D01*
X22266Y-9294D01*
X21974Y-9585D01*
X21816Y-9965D01*
X21816Y-10377D01*
X21973Y-10757D01*
X22264Y-11048D01*
X22644Y-11206D01*
X22775Y-11206D01*
X16175Y-17807D01*
X16175Y-17614D01*
X21366Y-12422D01*
X21366Y-12422D01*
X21429Y-12328D01*
X21429Y-12328D01*
X21433Y-12310D01*
X21451Y-12218D01*
X21451Y-12218D01*
X21451Y-8180D01*
X21958Y-7673D01*
X21988Y-7685D01*
X22213Y-7686D01*
X22421Y-7600D01*
X22580Y-7441D01*
X22666Y-7233D01*
X22666Y-7009D01*
X22580Y-6801D01*
X22422Y-6642D01*
X22214Y-6556D01*
X21989Y-6556D01*
X21781Y-6641D01*
X21622Y-6800D01*
X21536Y-7008D01*
X21536Y-7232D01*
X21549Y-7264D01*
X21186Y-7626D01*
X21186Y-3506D01*
X21097Y-3291D01*
X20933Y-3126D01*
X20718Y-3037D01*
X20485Y-3036D01*
X20270Y-3125D01*
X20105Y-3290D01*
X20016Y-3505D01*
X20016Y-3737D01*
X20092Y-3922D01*
X19962Y-3921D01*
X19801Y-3988D01*
X19801Y-2076D01*
X19801Y-2076D01*
X19862Y-1986D01*
X19884Y-1875D01*
X19884Y-1875D01*
X19884Y-1621D01*
X19862Y-1510D01*
X19799Y-1416D01*
X19705Y-1353D01*
X19685Y-1349D01*
X19678Y-1318D01*
X19543Y-1115D01*
X19340Y-980D01*
X19101Y-932D01*
X18862Y-980D01*
X18702Y-1087D01*
X18688Y-1054D01*
X18618Y-984D01*
X18526Y-946D01*
X18427Y-946D01*
X17677Y-946D01*
X17585Y-983D01*
X17514Y-1054D01*
X17476Y-1146D01*
X17476Y-1245D01*
X17476Y-2095D01*
X17514Y-2187D01*
X17584Y-2257D01*
X17676Y-2296D01*
X17776Y-2296D01*
X18526Y-2296D01*
X18618Y-2258D01*
X18688Y-2187D01*
X18702Y-2154D01*
X18862Y-2261D01*
X19101Y-2309D01*
X19223Y-2285D01*
X19223Y-2779D01*
X19188Y-2745D01*
X18808Y-2587D01*
X18396Y-2586D01*
X18016Y-2744D01*
X17724Y-3035D01*
X17566Y-3415D01*
X17566Y-3827D01*
X17723Y-4207D01*
X18014Y-4498D01*
X18394Y-4656D01*
X18806Y-4657D01*
X19187Y-4499D01*
X19223Y-4463D01*
X19223Y-6559D01*
X19214Y-6556D01*
X18989Y-6556D01*
X18781Y-6641D01*
X18622Y-6800D01*
X18536Y-7008D01*
X18536Y-7232D01*
X18622Y-7440D01*
X18781Y-7599D01*
X18988Y-7685D01*
X19213Y-7686D01*
X19421Y-7600D01*
X19580Y-7441D01*
X19666Y-7233D01*
X19666Y-7009D01*
X19653Y-6978D01*
X19717Y-6914D01*
X19717Y-6914D01*
X19779Y-6820D01*
X19779Y-6820D01*
X19783Y-6802D01*
X19801Y-6710D01*
X19801Y-6710D01*
X19801Y-5255D01*
X19961Y-5321D01*
X20240Y-5322D01*
X20497Y-5215D01*
X20694Y-5019D01*
X20801Y-4761D01*
X20801Y-4483D01*
X20695Y-4226D01*
X20676Y-4207D01*
X20717Y-4207D01*
X20932Y-4118D01*
X21097Y-3953D01*
X21186Y-3738D01*
X21186Y-3506D01*
X21186Y-7626D01*
X20957Y-7855D01*
X20894Y-7949D01*
X20872Y-8060D01*
X20872Y-10600D01*
X20718Y-10536D01*
X20485Y-10535D01*
X20270Y-10624D01*
X20105Y-10789D01*
X20016Y-11004D01*
X20016Y-11236D01*
X20092Y-11421D01*
X19962Y-11420D01*
X19705Y-11527D01*
X19636Y-11595D01*
X19636Y-10916D01*
X19479Y-10535D01*
X19188Y-10244D01*
X18808Y-10086D01*
X18396Y-10085D01*
X18016Y-10243D01*
X17724Y-10534D01*
X17566Y-10914D01*
X17566Y-11326D01*
X17723Y-11706D01*
X18014Y-11997D01*
X18394Y-12155D01*
X18806Y-12156D01*
X19187Y-11999D01*
X19478Y-11708D01*
X19636Y-11327D01*
X19636Y-10916D01*
X19636Y-11595D01*
X19508Y-11724D01*
X19401Y-11981D01*
X19401Y-12259D01*
X19507Y-12517D01*
X19704Y-12714D01*
X19961Y-12820D01*
X20150Y-12821D01*
X18301Y-14669D01*
X18301Y-12982D01*
X18195Y-12725D01*
X17998Y-12527D01*
X17741Y-12421D01*
X17462Y-12420D01*
X17205Y-12527D01*
X17186Y-12546D01*
X17186Y-11005D01*
X17097Y-10790D01*
X16933Y-10625D01*
X16718Y-10536D01*
X16485Y-10535D01*
X16270Y-10624D01*
X16105Y-10789D01*
X16016Y-11004D01*
X16016Y-11236D01*
X16105Y-11452D01*
X16269Y-11616D01*
X16484Y-11705D01*
X16717Y-11706D01*
X16932Y-11617D01*
X17097Y-11452D01*
X17186Y-11237D01*
X17186Y-11005D01*
X17186Y-12546D01*
X17008Y-12724D01*
X16901Y-12981D01*
X16901Y-13259D01*
X17007Y-13517D01*
X17204Y-13714D01*
X17461Y-13820D01*
X17740Y-13821D01*
X17997Y-13714D01*
X18194Y-13518D01*
X18301Y-13260D01*
X18301Y-12982D01*
X18301Y-14669D01*
X15911Y-17059D01*
X15911Y-8141D01*
X15911Y-8141D01*
X15889Y-8031D01*
X15889Y-8031D01*
X15868Y-7999D01*
X15826Y-7937D01*
X15826Y-7937D01*
X15153Y-7264D01*
X15166Y-7233D01*
X15166Y-7009D01*
X15080Y-6801D01*
X14921Y-6642D01*
X14870Y-6621D01*
X15580Y-5911D01*
X16963Y-5911D01*
X17007Y-6018D01*
X17204Y-6215D01*
X17461Y-6321D01*
X17740Y-6322D01*
X17997Y-6215D01*
X18194Y-6019D01*
X18301Y-5761D01*
X18301Y-5483D01*
X18195Y-5226D01*
X17998Y-5028D01*
X17741Y-4922D01*
X17462Y-4921D01*
X17205Y-5028D01*
X17186Y-5047D01*
X17186Y-3506D01*
X17097Y-3291D01*
X16933Y-3126D01*
X16718Y-3037D01*
X16485Y-3036D01*
X16270Y-3125D01*
X16105Y-3290D01*
X16016Y-3505D01*
X16016Y-3737D01*
X16105Y-3952D01*
X16269Y-4117D01*
X16484Y-4206D01*
X16717Y-4207D01*
X16932Y-4118D01*
X17097Y-3953D01*
X17186Y-3738D01*
X17186Y-3506D01*
X17186Y-5047D01*
X17008Y-5225D01*
X16963Y-5332D01*
X15460Y-5332D01*
X15350Y-5354D01*
X15318Y-5375D01*
X15256Y-5417D01*
X13617Y-7056D01*
X12166Y-7056D01*
X12166Y-7009D01*
X12153Y-6978D01*
X12216Y-6914D01*
X12216Y-6914D01*
X12279Y-6820D01*
X12279Y-6820D01*
X12283Y-6802D01*
X12301Y-6710D01*
X12301Y-6710D01*
X12301Y-5254D01*
X12461Y-5320D01*
X12740Y-5321D01*
X12997Y-5214D01*
X13194Y-5018D01*
X13301Y-4760D01*
X13301Y-4482D01*
X13195Y-4225D01*
X13176Y-4206D01*
X13217Y-4206D01*
X13432Y-4117D01*
X13597Y-3952D01*
X13686Y-3737D01*
X13686Y-3505D01*
X13597Y-3290D01*
X13433Y-3125D01*
X13218Y-3036D01*
X12985Y-3035D01*
X12770Y-3124D01*
X12605Y-3289D01*
X12516Y-3504D01*
X12516Y-3736D01*
X12592Y-3921D01*
X12462Y-3920D01*
X12301Y-3987D01*
X12301Y-2076D01*
X12301Y-2076D01*
X12361Y-1986D01*
X12383Y-1875D01*
X12383Y-1875D01*
X12383Y-1621D01*
X12361Y-1510D01*
X12299Y-1416D01*
X12205Y-1353D01*
X12184Y-1349D01*
X12178Y-1318D01*
X12043Y-1115D01*
X11840Y-980D01*
X11601Y-932D01*
X11362Y-980D01*
X11348Y-989D01*
X11299Y-915D01*
X11299Y-915D01*
X10957Y-573D01*
X10863Y-510D01*
X10752Y-488D01*
X2972Y-488D01*
X2862Y-510D01*
X2830Y-531D01*
X2768Y-573D01*
X447Y-2893D01*
X385Y-2987D01*
X363Y-3098D01*
X363Y-7437D01*
X297Y-7503D01*
X270Y-7543D01*
X270Y-766D01*
X294Y-774D01*
X471Y-761D01*
X577Y-717D01*
X591Y-633D01*
X351Y-392D01*
X345Y-398D01*
X275Y-327D01*
X280Y-322D01*
X275Y-316D01*
X345Y-245D01*
X351Y-251D01*
X356Y-245D01*
X427Y-316D01*
X422Y-322D01*
X662Y-562D01*
X747Y-547D01*
X803Y-379D01*
X793Y-240D01*
X28923Y-240D01*
X28899Y-313D01*
X28911Y-491D01*
X28955Y-596D01*
X29040Y-611D01*
X29280Y-371D01*
X29274Y-365D01*
X29345Y-294D01*
X29351Y-300D01*
X29356Y-294D01*
X29427Y-365D01*
X29421Y-371D01*
X29427Y-376D01*
X29356Y-447D01*
X29351Y-441D01*
X29110Y-682D01*
X29125Y-766D01*
X29294Y-823D01*
X29431Y-813D01*
X29431Y-9550D01*
X29333Y-9451D01*
X29021Y-9322D01*
X28686Y-9321D01*
X28686Y-3506D01*
X28597Y-3291D01*
X28433Y-3126D01*
X28218Y-3037D01*
X27985Y-3036D01*
X27770Y-3125D01*
X27605Y-3290D01*
X27516Y-3505D01*
X27516Y-3737D01*
X27592Y-3922D01*
X27462Y-3921D01*
X27322Y-3979D01*
X27322Y-2045D01*
X27341Y-2017D01*
X27362Y-1986D01*
X27362Y-1986D01*
X27384Y-1875D01*
X27384Y-1875D01*
X27384Y-1621D01*
X27362Y-1510D01*
X27299Y-1416D01*
X27205Y-1353D01*
X27185Y-1349D01*
X27178Y-1318D01*
X27043Y-1115D01*
X26840Y-980D01*
X26601Y-932D01*
X26362Y-980D01*
X26202Y-1087D01*
X26188Y-1054D01*
X26118Y-984D01*
X26026Y-946D01*
X25927Y-946D01*
X25177Y-946D01*
X25085Y-983D01*
X25014Y-1054D01*
X24976Y-1146D01*
X24976Y-1245D01*
X24976Y-2095D01*
X25014Y-2187D01*
X25084Y-2257D01*
X25176Y-2296D01*
X25276Y-2296D01*
X26026Y-2296D01*
X26118Y-2258D01*
X26188Y-2187D01*
X26202Y-2154D01*
X26362Y-2261D01*
X26601Y-2309D01*
X26743Y-2281D01*
X26743Y-2800D01*
X26688Y-2745D01*
X26308Y-2587D01*
X25896Y-2586D01*
X25516Y-2744D01*
X25224Y-3035D01*
X25066Y-3415D01*
X25066Y-3827D01*
X25223Y-4207D01*
X25514Y-4498D01*
X25894Y-4656D01*
X26306Y-4657D01*
X26687Y-4499D01*
X26743Y-4443D01*
X26743Y-6680D01*
X26622Y-6800D01*
X26536Y-7008D01*
X26536Y-7232D01*
X26622Y-7440D01*
X26781Y-7599D01*
X26988Y-7685D01*
X27213Y-7686D01*
X27421Y-7600D01*
X27580Y-7441D01*
X27666Y-7233D01*
X27666Y-7009D01*
X27580Y-6801D01*
X27422Y-6642D01*
X27322Y-6601D01*
X27322Y-5264D01*
X27461Y-5321D01*
X27740Y-5322D01*
X27997Y-5215D01*
X28194Y-5019D01*
X28301Y-4761D01*
X28301Y-4483D01*
X28195Y-4226D01*
X28176Y-4207D01*
X28217Y-4207D01*
X28432Y-4118D01*
X28597Y-3953D01*
X28686Y-3738D01*
X28686Y-3506D01*
X28686Y-9321D01*
X28683Y-9321D01*
X28370Y-9451D01*
X28131Y-9689D01*
X28001Y-10002D01*
X28001Y-10340D01*
X28082Y-10537D01*
X27985Y-10536D01*
X27770Y-10625D01*
X27605Y-10790D01*
X27516Y-11005D01*
X27516Y-11237D01*
X27592Y-11422D01*
X27462Y-11421D01*
X27205Y-11528D01*
X27136Y-11596D01*
X27136Y-10917D01*
X26979Y-10536D01*
X26688Y-10245D01*
X26308Y-10087D01*
X25896Y-10086D01*
X25801Y-10126D01*
X25801Y-5483D01*
X25695Y-5226D01*
X25498Y-5028D01*
X25241Y-4922D01*
X24962Y-4921D01*
X24705Y-5028D01*
X24686Y-5047D01*
X24686Y-3506D01*
X24597Y-3291D01*
X24433Y-3126D01*
X24218Y-3037D01*
X23985Y-3036D01*
X23770Y-3125D01*
X23605Y-3290D01*
X23516Y-3505D01*
X23516Y-3737D01*
X23605Y-3952D01*
X23769Y-4117D01*
X23984Y-4206D01*
X24217Y-4207D01*
X24432Y-4118D01*
X24597Y-3953D01*
X24686Y-3738D01*
X24686Y-3506D01*
X24686Y-5047D01*
X24508Y-5225D01*
X24401Y-5482D01*
X24401Y-5760D01*
X24507Y-6018D01*
X24704Y-6215D01*
X24961Y-6321D01*
X25240Y-6322D01*
X25497Y-6215D01*
X25694Y-6019D01*
X25801Y-5761D01*
X25801Y-5483D01*
X25801Y-10126D01*
X25516Y-10244D01*
X25224Y-10535D01*
X25066Y-10915D01*
X25066Y-11327D01*
X25223Y-11707D01*
X25514Y-11998D01*
X25894Y-12156D01*
X26306Y-12157D01*
X26687Y-11999D01*
X26978Y-11709D01*
X27136Y-11328D01*
X27136Y-10917D01*
X27136Y-11596D01*
X27008Y-11725D01*
X26901Y-11982D01*
X26901Y-12260D01*
X27007Y-12518D01*
X27161Y-12672D01*
X26962Y-12671D01*
X26705Y-12778D01*
X26686Y-12797D01*
X26686Y-12756D01*
X26597Y-12541D01*
X26433Y-12376D01*
X26218Y-12287D01*
X25985Y-12286D01*
X25770Y-12375D01*
X25605Y-12540D01*
X25577Y-12608D01*
X25498Y-12528D01*
X25241Y-12422D01*
X24962Y-12421D01*
X24705Y-12528D01*
X24508Y-12725D01*
X24401Y-12982D01*
X24401Y-13260D01*
X24507Y-13518D01*
X24704Y-13715D01*
X24961Y-13821D01*
X25240Y-13822D01*
X25497Y-13715D01*
X25694Y-13519D01*
X25761Y-13359D01*
X25769Y-13367D01*
X25984Y-13456D01*
X26217Y-13457D01*
X26401Y-13381D01*
X26401Y-13510D01*
X26507Y-13768D01*
X26704Y-13965D01*
X26961Y-14071D01*
X27240Y-14072D01*
X27497Y-13965D01*
X27694Y-13769D01*
X27801Y-13511D01*
X27801Y-13233D01*
X27695Y-12976D01*
X27541Y-12821D01*
X27740Y-12822D01*
X27997Y-12715D01*
X28194Y-12519D01*
X28301Y-12261D01*
X28301Y-11983D01*
X28195Y-11726D01*
X28176Y-11707D01*
X28217Y-11707D01*
X28432Y-11618D01*
X28597Y-11453D01*
X28686Y-11238D01*
X28686Y-11021D01*
X29019Y-11022D01*
X29332Y-10893D01*
X29431Y-10793D01*
X29431Y-17050D01*
X29431Y-17050D01*
G37*
G54D26*
X29431Y-17050D02*
X29333Y-16951D01*
X29021Y-16822D01*
X28801Y-16822D01*
X28801Y-15733D01*
X28695Y-15476D01*
X28498Y-15278D01*
X28241Y-15172D01*
X27962Y-15171D01*
X27705Y-15278D01*
X27508Y-15475D01*
X27401Y-15732D01*
X27401Y-16010D01*
X27507Y-16268D01*
X27704Y-16465D01*
X27961Y-16571D01*
X28240Y-16572D01*
X28497Y-16465D01*
X28694Y-16269D01*
X28801Y-16011D01*
X28801Y-15733D01*
X28801Y-16822D01*
X28683Y-16821D01*
X28370Y-16951D01*
X28131Y-17189D01*
X28001Y-17502D01*
X28001Y-17840D01*
X28082Y-18037D01*
X27985Y-18036D01*
X27770Y-18125D01*
X27605Y-18290D01*
X27516Y-18505D01*
X27516Y-18737D01*
X27592Y-18922D01*
X27462Y-18921D01*
X27205Y-19028D01*
X27136Y-19096D01*
X27136Y-18417D01*
X27136Y-14667D01*
X26979Y-14286D01*
X26688Y-13995D01*
X26308Y-13837D01*
X25896Y-13836D01*
X25516Y-13994D01*
X25224Y-14285D01*
X25066Y-14665D01*
X25066Y-15077D01*
X25223Y-15457D01*
X25514Y-15748D01*
X25894Y-15906D01*
X26306Y-15907D01*
X26687Y-15749D01*
X26978Y-15459D01*
X27136Y-15078D01*
X27136Y-14667D01*
X27136Y-18417D01*
X26979Y-18036D01*
X26688Y-17745D01*
X26686Y-17744D01*
X26686Y-16756D01*
X26597Y-16541D01*
X26433Y-16376D01*
X26218Y-16287D01*
X25985Y-16286D01*
X25770Y-16375D01*
X25605Y-16540D01*
X25516Y-16755D01*
X25516Y-16987D01*
X25605Y-17202D01*
X25769Y-17367D01*
X25984Y-17456D01*
X26217Y-17457D01*
X26432Y-17368D01*
X26597Y-17203D01*
X26686Y-16988D01*
X26686Y-16756D01*
X26686Y-17744D01*
X26308Y-17587D01*
X25896Y-17586D01*
X25516Y-17744D01*
X25224Y-18035D01*
X25066Y-18415D01*
X25066Y-18827D01*
X25223Y-19207D01*
X25514Y-19498D01*
X25894Y-19656D01*
X26306Y-19657D01*
X26687Y-19499D01*
X26978Y-19209D01*
X27136Y-18828D01*
X27136Y-18417D01*
X27136Y-19096D01*
X27008Y-19225D01*
X26901Y-19482D01*
X26901Y-19760D01*
X26945Y-19868D01*
X26896Y-19917D01*
X26834Y-20011D01*
X26812Y-20122D01*
X26812Y-20234D01*
X26705Y-20278D01*
X26686Y-20297D01*
X26686Y-20256D01*
X26597Y-20041D01*
X26433Y-19876D01*
X26218Y-19787D01*
X25985Y-19786D01*
X25770Y-19875D01*
X25605Y-20040D01*
X25577Y-20108D01*
X25498Y-20028D01*
X25241Y-19922D01*
X24962Y-19921D01*
X24705Y-20028D01*
X24508Y-20225D01*
X24401Y-20482D01*
X24401Y-20760D01*
X24507Y-21018D01*
X24704Y-21215D01*
X24812Y-21259D01*
X24812Y-21348D01*
X24319Y-21841D01*
X24203Y-21725D01*
X24039Y-21657D01*
X24011Y-21657D01*
X22961Y-20607D01*
X23056Y-20607D01*
X23437Y-20449D01*
X23728Y-20159D01*
X23886Y-19778D01*
X23886Y-19367D01*
X23786Y-19124D01*
X23984Y-19206D01*
X24217Y-19207D01*
X24432Y-19118D01*
X24597Y-18953D01*
X24686Y-18738D01*
X24686Y-18506D01*
X24597Y-18291D01*
X24433Y-18126D01*
X24218Y-18037D01*
X23985Y-18036D01*
X23786Y-18119D01*
X23886Y-17878D01*
X23886Y-17467D01*
X23729Y-17086D01*
X23438Y-16795D01*
X23058Y-16637D01*
X22646Y-16636D01*
X22266Y-16794D01*
X21974Y-17085D01*
X21816Y-17465D01*
X21816Y-17877D01*
X21973Y-18257D01*
X22264Y-18548D01*
X22440Y-18622D01*
X22266Y-18694D01*
X21974Y-18985D01*
X21816Y-19365D01*
X21816Y-19462D01*
X21680Y-19325D01*
X21680Y-16683D01*
X21680Y-16683D01*
X21658Y-16572D01*
X21658Y-16572D01*
X21637Y-16541D01*
X21595Y-16478D01*
X21595Y-16478D01*
X21404Y-16287D01*
X21310Y-16224D01*
X21199Y-16202D01*
X19441Y-16202D01*
X19330Y-16224D01*
X19299Y-16245D01*
X19236Y-16287D01*
X17137Y-18386D01*
X17097Y-18289D01*
X16933Y-18125D01*
X16751Y-18049D01*
X23530Y-11271D01*
X23605Y-11452D01*
X23769Y-11617D01*
X23984Y-11706D01*
X24217Y-11707D01*
X24432Y-11618D01*
X24597Y-11453D01*
X24686Y-11238D01*
X24686Y-11006D01*
X24597Y-10791D01*
X24433Y-10626D01*
X24250Y-10550D01*
X24306Y-10495D01*
X24306Y-10495D01*
X24348Y-10432D01*
X24368Y-10401D01*
X24368Y-10401D01*
X24390Y-10290D01*
X24390Y-10290D01*
X24390Y-7612D01*
X24421Y-7600D01*
X24580Y-7441D01*
X24666Y-7233D01*
X24666Y-7009D01*
X24580Y-6801D01*
X24422Y-6642D01*
X24214Y-6556D01*
X23989Y-6556D01*
X23781Y-6641D01*
X23622Y-6800D01*
X23536Y-7008D01*
X23536Y-7232D01*
X23622Y-7440D01*
X23781Y-7599D01*
X23812Y-7612D01*
X23812Y-9786D01*
X23729Y-9586D01*
X23438Y-9295D01*
X23058Y-9137D01*
X22646Y-9136D01*
X22266Y-9294D01*
X21974Y-9585D01*
X21816Y-9965D01*
X21816Y-10377D01*
X21973Y-10757D01*
X22264Y-11048D01*
X22644Y-11206D01*
X22775Y-11206D01*
X16175Y-17807D01*
X16175Y-17614D01*
X21366Y-12422D01*
X21366Y-12422D01*
X21429Y-12328D01*
X21429Y-12328D01*
X21433Y-12310D01*
X21451Y-12218D01*
X21451Y-12218D01*
X21451Y-8180D01*
X21958Y-7673D01*
X21988Y-7685D01*
X22213Y-7686D01*
X22421Y-7600D01*
X22580Y-7441D01*
X22666Y-7233D01*
X22666Y-7009D01*
X22580Y-6801D01*
X22422Y-6642D01*
X22214Y-6556D01*
X21989Y-6556D01*
X21781Y-6641D01*
X21622Y-6800D01*
X21536Y-7008D01*
X21536Y-7232D01*
X21549Y-7264D01*
X21186Y-7626D01*
X21186Y-3506D01*
X21097Y-3291D01*
X20933Y-3126D01*
X20718Y-3037D01*
X20485Y-3036D01*
X20270Y-3125D01*
X20105Y-3290D01*
X20016Y-3505D01*
X20016Y-3737D01*
X20092Y-3922D01*
X19962Y-3921D01*
X19801Y-3988D01*
X19801Y-2076D01*
X19801Y-2076D01*
X19862Y-1986D01*
X19884Y-1875D01*
X19884Y-1875D01*
X19884Y-1621D01*
X19862Y-1510D01*
X19799Y-1416D01*
X19705Y-1353D01*
X19685Y-1349D01*
X19678Y-1318D01*
X19543Y-1115D01*
X19340Y-980D01*
X19101Y-932D01*
X18862Y-980D01*
X18702Y-1087D01*
X18688Y-1054D01*
X18618Y-984D01*
X18526Y-946D01*
X18427Y-946D01*
X17677Y-946D01*
X17585Y-983D01*
X17514Y-1054D01*
X17476Y-1146D01*
X17476Y-1245D01*
X17476Y-2095D01*
X17514Y-2187D01*
X17584Y-2257D01*
X17676Y-2296D01*
X17776Y-2296D01*
X18526Y-2296D01*
X18618Y-2258D01*
X18688Y-2187D01*
X18702Y-2154D01*
X18862Y-2261D01*
X19101Y-2309D01*
X19223Y-2285D01*
X19223Y-2779D01*
X19188Y-2745D01*
X18808Y-2587D01*
X18396Y-2586D01*
X18016Y-2744D01*
X17724Y-3035D01*
X17566Y-3415D01*
X17566Y-3827D01*
X17723Y-4207D01*
X18014Y-4498D01*
X18394Y-4656D01*
X18806Y-4657D01*
X19187Y-4499D01*
X19223Y-4463D01*
X19223Y-6559D01*
X19214Y-6556D01*
X18989Y-6556D01*
X18781Y-6641D01*
X18622Y-6800D01*
X18536Y-7008D01*
X18536Y-7232D01*
X18622Y-7440D01*
X18781Y-7599D01*
X18988Y-7685D01*
X19213Y-7686D01*
X19421Y-7600D01*
X19580Y-7441D01*
X19666Y-7233D01*
X19666Y-7009D01*
X19653Y-6978D01*
X19717Y-6914D01*
X19717Y-6914D01*
X19779Y-6820D01*
X19779Y-6820D01*
X19783Y-6802D01*
X19801Y-6710D01*
X19801Y-6710D01*
X19801Y-5255D01*
X19961Y-5321D01*
X20240Y-5322D01*
X20497Y-5215D01*
X20694Y-5019D01*
X20801Y-4761D01*
X20801Y-4483D01*
X20695Y-4226D01*
X20676Y-4207D01*
X20717Y-4207D01*
X20932Y-4118D01*
X21097Y-3953D01*
X21186Y-3738D01*
X21186Y-3506D01*
X21186Y-7626D01*
X20957Y-7855D01*
X20894Y-7949D01*
X20872Y-8060D01*
X20872Y-10600D01*
X20718Y-10536D01*
X20485Y-10535D01*
X20270Y-10624D01*
X20105Y-10789D01*
X20016Y-11004D01*
X20016Y-11236D01*
X20092Y-11421D01*
X19962Y-11420D01*
X19705Y-11527D01*
X19636Y-11595D01*
X19636Y-10916D01*
X19479Y-10535D01*
X19188Y-10244D01*
X18808Y-10086D01*
X18396Y-10085D01*
X18016Y-10243D01*
X17724Y-10534D01*
X17566Y-10914D01*
X17566Y-11326D01*
X17723Y-11706D01*
X18014Y-11997D01*
X18394Y-12155D01*
X18806Y-12156D01*
X19187Y-11999D01*
X19478Y-11708D01*
X19636Y-11327D01*
X19636Y-10916D01*
X19636Y-11595D01*
X19508Y-11724D01*
X19401Y-11981D01*
X19401Y-12259D01*
X19507Y-12517D01*
X19704Y-12714D01*
X19961Y-12820D01*
X20150Y-12821D01*
X18301Y-14669D01*
X18301Y-12982D01*
X18195Y-12725D01*
X17998Y-12527D01*
X17741Y-12421D01*
X17462Y-12420D01*
X17205Y-12527D01*
X17186Y-12546D01*
X17186Y-11005D01*
X17097Y-10790D01*
X16933Y-10625D01*
X16718Y-10536D01*
X16485Y-10535D01*
X16270Y-10624D01*
X16105Y-10789D01*
X16016Y-11004D01*
X16016Y-11236D01*
X16105Y-11452D01*
X16269Y-11616D01*
X16484Y-11705D01*
X16717Y-11706D01*
X16932Y-11617D01*
X17097Y-11452D01*
X17186Y-11237D01*
X17186Y-11005D01*
X17186Y-12546D01*
X17008Y-12724D01*
X16901Y-12981D01*
X16901Y-13259D01*
X17007Y-13517D01*
X17204Y-13714D01*
X17461Y-13820D01*
X17740Y-13821D01*
X17997Y-13714D01*
X18194Y-13518D01*
X18301Y-13260D01*
X18301Y-12982D01*
X18301Y-14669D01*
X15911Y-17059D01*
X15911Y-8141D01*
X15911Y-8141D01*
X15889Y-8031D01*
X15889Y-8031D01*
X15868Y-7999D01*
X15826Y-7937D01*
X15826Y-7937D01*
X15153Y-7264D01*
X15166Y-7233D01*
X15166Y-7009D01*
X15080Y-6801D01*
X14921Y-6642D01*
X14870Y-6621D01*
X15580Y-5911D01*
X16963Y-5911D01*
X17007Y-6018D01*
X17204Y-6215D01*
X17461Y-6321D01*
X17740Y-6322D01*
X17997Y-6215D01*
X18194Y-6019D01*
X18301Y-5761D01*
X18301Y-5483D01*
X18195Y-5226D01*
X17998Y-5028D01*
X17741Y-4922D01*
X17462Y-4921D01*
X17205Y-5028D01*
X17186Y-5047D01*
X17186Y-3506D01*
X17097Y-3291D01*
X16933Y-3126D01*
X16718Y-3037D01*
X16485Y-3036D01*
X16270Y-3125D01*
X16105Y-3290D01*
X16016Y-3505D01*
X16016Y-3737D01*
X16105Y-3952D01*
X16269Y-4117D01*
X16484Y-4206D01*
X16717Y-4207D01*
X16932Y-4118D01*
X17097Y-3953D01*
X17186Y-3738D01*
X17186Y-3506D01*
X17186Y-5047D01*
X17008Y-5225D01*
X16963Y-5332D01*
X15460Y-5332D01*
X15350Y-5354D01*
X15318Y-5375D01*
X15256Y-5417D01*
X13617Y-7056D01*
X12166Y-7056D01*
X12166Y-7009D01*
X12153Y-6978D01*
X12216Y-6914D01*
X12216Y-6914D01*
X12279Y-6820D01*
X12279Y-6820D01*
X12283Y-6802D01*
X12301Y-6710D01*
X12301Y-6710D01*
X12301Y-5254D01*
X12461Y-5320D01*
X12740Y-5321D01*
X12997Y-5214D01*
X13194Y-5018D01*
X13301Y-4760D01*
X13301Y-4482D01*
X13195Y-4225D01*
X13176Y-4206D01*
X13217Y-4206D01*
X13432Y-4117D01*
X13597Y-3952D01*
X13686Y-3737D01*
X13686Y-3505D01*
X13597Y-3290D01*
X13433Y-3125D01*
X13218Y-3036D01*
X12985Y-3035D01*
X12770Y-3124D01*
X12605Y-3289D01*
X12516Y-3504D01*
X12516Y-3736D01*
X12592Y-3921D01*
X12462Y-3920D01*
X12301Y-3987D01*
X12301Y-2076D01*
X12301Y-2076D01*
X12361Y-1986D01*
X12383Y-1875D01*
X12383Y-1875D01*
X12383Y-1621D01*
X12361Y-1510D01*
X12299Y-1416D01*
X12205Y-1353D01*
X12184Y-1349D01*
X12178Y-1318D01*
X12043Y-1115D01*
X11840Y-980D01*
X11601Y-932D01*
X11362Y-980D01*
X11348Y-989D01*
X11299Y-915D01*
X11299Y-915D01*
X10957Y-573D01*
X10863Y-510D01*
X10752Y-488D01*
X2972Y-488D01*
X2862Y-510D01*
X2830Y-531D01*
X2768Y-573D01*
X447Y-2893D01*
X385Y-2987D01*
X363Y-3098D01*
X363Y-7437D01*
X297Y-7503D01*
X270Y-7543D01*
X270Y-766D01*
X294Y-774D01*
X471Y-761D01*
X577Y-717D01*
X591Y-633D01*
X351Y-392D01*
X345Y-398D01*
X275Y-327D01*
X280Y-322D01*
X275Y-316D01*
X345Y-245D01*
X351Y-251D01*
X356Y-245D01*
X427Y-316D01*
X422Y-322D01*
X662Y-562D01*
X747Y-547D01*
X803Y-379D01*
X793Y-240D01*
X28923Y-240D01*
X28899Y-313D01*
X28911Y-491D01*
X28955Y-596D01*
X29040Y-611D01*
X29280Y-371D01*
X29274Y-365D01*
X29345Y-294D01*
X29351Y-300D01*
X29356Y-294D01*
X29427Y-365D01*
X29421Y-371D01*
X29427Y-376D01*
X29356Y-447D01*
X29351Y-441D01*
X29110Y-682D01*
X29125Y-766D01*
X29294Y-823D01*
X29431Y-813D01*
X29431Y-9550D01*
X29333Y-9451D01*
X29021Y-9322D01*
X28686Y-9321D01*
X28686Y-3506D01*
X28597Y-3291D01*
X28433Y-3126D01*
X28218Y-3037D01*
X27985Y-3036D01*
X27770Y-3125D01*
X27605Y-3290D01*
X27516Y-3505D01*
X27516Y-3737D01*
X27592Y-3922D01*
X27462Y-3921D01*
X27322Y-3979D01*
X27322Y-2045D01*
X27341Y-2017D01*
X27362Y-1986D01*
X27362Y-1986D01*
X27384Y-1875D01*
X27384Y-1875D01*
X27384Y-1621D01*
X27362Y-1510D01*
X27299Y-1416D01*
X27205Y-1353D01*
X27185Y-1349D01*
X27178Y-1318D01*
X27043Y-1115D01*
X26840Y-980D01*
X26601Y-932D01*
X26362Y-980D01*
X26202Y-1087D01*
X26188Y-1054D01*
X26118Y-984D01*
X26026Y-946D01*
X25927Y-946D01*
X25177Y-946D01*
X25085Y-983D01*
X25014Y-1054D01*
X24976Y-1146D01*
X24976Y-1245D01*
X24976Y-2095D01*
X25014Y-2187D01*
X25084Y-2257D01*
X25176Y-2296D01*
X25276Y-2296D01*
X26026Y-2296D01*
X26118Y-2258D01*
X26188Y-2187D01*
X26202Y-2154D01*
X26362Y-2261D01*
X26601Y-2309D01*
X26743Y-2281D01*
X26743Y-2800D01*
X26688Y-2745D01*
X26308Y-2587D01*
X25896Y-2586D01*
X25516Y-2744D01*
X25224Y-3035D01*
X25066Y-3415D01*
X25066Y-3827D01*
X25223Y-4207D01*
X25514Y-4498D01*
X25894Y-4656D01*
X26306Y-4657D01*
X26687Y-4499D01*
X26743Y-4443D01*
X26743Y-6680D01*
X26622Y-6800D01*
X26536Y-7008D01*
X26536Y-7232D01*
X26622Y-7440D01*
X26781Y-7599D01*
X26988Y-7685D01*
X27213Y-7686D01*
X27421Y-7600D01*
X27580Y-7441D01*
X27666Y-7233D01*
X27666Y-7009D01*
X27580Y-6801D01*
X27422Y-6642D01*
X27322Y-6601D01*
X27322Y-5264D01*
X27461Y-5321D01*
X27740Y-5322D01*
X27997Y-5215D01*
X28194Y-5019D01*
X28301Y-4761D01*
X28301Y-4483D01*
X28195Y-4226D01*
X28176Y-4207D01*
X28217Y-4207D01*
X28432Y-4118D01*
X28597Y-3953D01*
X28686Y-3738D01*
X28686Y-3506D01*
X28686Y-9321D01*
X28683Y-9321D01*
X28370Y-9451D01*
X28131Y-9689D01*
X28001Y-10002D01*
X28001Y-10340D01*
X28082Y-10537D01*
X27985Y-10536D01*
X27770Y-10625D01*
X27605Y-10790D01*
X27516Y-11005D01*
X27516Y-11237D01*
X27592Y-11422D01*
X27462Y-11421D01*
X27205Y-11528D01*
X27136Y-11596D01*
X27136Y-10917D01*
X26979Y-10536D01*
X26688Y-10245D01*
X26308Y-10087D01*
X25896Y-10086D01*
X25801Y-10126D01*
X25801Y-5483D01*
X25695Y-5226D01*
X25498Y-5028D01*
X25241Y-4922D01*
X24962Y-4921D01*
X24705Y-5028D01*
X24686Y-5047D01*
X24686Y-3506D01*
X24597Y-3291D01*
X24433Y-3126D01*
X24218Y-3037D01*
X23985Y-3036D01*
X23770Y-3125D01*
X23605Y-3290D01*
X23516Y-3505D01*
X23516Y-3737D01*
X23605Y-3952D01*
X23769Y-4117D01*
X23984Y-4206D01*
X24217Y-4207D01*
X24432Y-4118D01*
X24597Y-3953D01*
X24686Y-3738D01*
X24686Y-3506D01*
X24686Y-5047D01*
X24508Y-5225D01*
X24401Y-5482D01*
X24401Y-5760D01*
X24507Y-6018D01*
X24704Y-6215D01*
X24961Y-6321D01*
X25240Y-6322D01*
X25497Y-6215D01*
X25694Y-6019D01*
X25801Y-5761D01*
X25801Y-5483D01*
X25801Y-10126D01*
X25516Y-10244D01*
X25224Y-10535D01*
X25066Y-10915D01*
X25066Y-11327D01*
X25223Y-11707D01*
X25514Y-11998D01*
X25894Y-12156D01*
X26306Y-12157D01*
X26687Y-11999D01*
X26978Y-11709D01*
X27136Y-11328D01*
X27136Y-10917D01*
X27136Y-11596D01*
X27008Y-11725D01*
X26901Y-11982D01*
X26901Y-12260D01*
X27007Y-12518D01*
X27161Y-12672D01*
X26962Y-12671D01*
X26705Y-12778D01*
X26686Y-12797D01*
X26686Y-12756D01*
X26597Y-12541D01*
X26433Y-12376D01*
X26218Y-12287D01*
X25985Y-12286D01*
X25770Y-12375D01*
X25605Y-12540D01*
X25577Y-12608D01*
X25498Y-12528D01*
X25241Y-12422D01*
X24962Y-12421D01*
X24705Y-12528D01*
X24508Y-12725D01*
X24401Y-12982D01*
X24401Y-13260D01*
X24507Y-13518D01*
X24704Y-13715D01*
X24961Y-13821D01*
X25240Y-13822D01*
X25497Y-13715D01*
X25694Y-13519D01*
X25761Y-13359D01*
X25769Y-13367D01*
X25984Y-13456D01*
X26217Y-13457D01*
X26401Y-13381D01*
X26401Y-13510D01*
X26507Y-13768D01*
X26704Y-13965D01*
X26961Y-14071D01*
X27240Y-14072D01*
X27497Y-13965D01*
X27694Y-13769D01*
X27801Y-13511D01*
X27801Y-13233D01*
X27695Y-12976D01*
X27541Y-12821D01*
X27740Y-12822D01*
X27997Y-12715D01*
X28194Y-12519D01*
X28301Y-12261D01*
X28301Y-11983D01*
X28195Y-11726D01*
X28176Y-11707D01*
X28217Y-11707D01*
X28432Y-11618D01*
X28597Y-11453D01*
X28686Y-11238D01*
X28686Y-11021D01*
X29019Y-11022D01*
X29332Y-10893D01*
X29431Y-10793D01*
X29431Y-17050D01*
G54D10*
G36*
X29431Y-43927D02*
X29408Y-43920D01*
X29230Y-43932D01*
X29125Y-43976D01*
X29110Y-44060D01*
X29351Y-44301D01*
X29356Y-44295D01*
X29427Y-44366D01*
X29421Y-44372D01*
X29427Y-44377D01*
X29356Y-44448D01*
X29351Y-44442D01*
X29345Y-44448D01*
X29274Y-44377D01*
X29280Y-44372D01*
X29040Y-44131D01*
X28955Y-44146D01*
X28899Y-44314D01*
X28908Y-44451D01*
X12673Y-44451D01*
X12771Y-44354D01*
X12901Y-44041D01*
X12901Y-43703D01*
X12780Y-43411D01*
X13153Y-43411D01*
X13153Y-43411D01*
X13264Y-43389D01*
X13358Y-43326D01*
X15377Y-41307D01*
X16945Y-42875D01*
X16901Y-42982D01*
X16901Y-43260D01*
X17007Y-43518D01*
X17204Y-43715D01*
X17461Y-43821D01*
X17740Y-43822D01*
X17997Y-43715D01*
X18194Y-43519D01*
X18239Y-43411D01*
X24463Y-43411D01*
X24507Y-43518D01*
X24704Y-43715D01*
X24961Y-43821D01*
X25240Y-43822D01*
X25497Y-43715D01*
X25694Y-43519D01*
X25801Y-43261D01*
X25801Y-42983D01*
X25695Y-42726D01*
X25498Y-42528D01*
X25241Y-42422D01*
X24962Y-42421D01*
X24705Y-42528D01*
X24508Y-42725D01*
X24463Y-42832D01*
X23554Y-42832D01*
X23728Y-42659D01*
X23886Y-42278D01*
X23886Y-41867D01*
X23786Y-41624D01*
X23984Y-41706D01*
X24217Y-41707D01*
X24432Y-41618D01*
X24597Y-41453D01*
X24686Y-41238D01*
X24686Y-41006D01*
X24597Y-40791D01*
X24433Y-40626D01*
X24218Y-40537D01*
X23985Y-40536D01*
X23770Y-40625D01*
X23649Y-40746D01*
X23649Y-37232D01*
X23581Y-37068D01*
X23455Y-36942D01*
X23291Y-36874D01*
X23113Y-36873D01*
X22949Y-36941D01*
X22823Y-37067D01*
X22755Y-37231D01*
X22755Y-37409D01*
X22823Y-37573D01*
X22948Y-37699D01*
X23113Y-37767D01*
X23290Y-37767D01*
X23455Y-37699D01*
X23580Y-37574D01*
X23649Y-37410D01*
X23649Y-37232D01*
X23649Y-40746D01*
X23605Y-40790D01*
X23516Y-41005D01*
X23516Y-41237D01*
X23541Y-41297D01*
X23438Y-41195D01*
X23058Y-41037D01*
X22646Y-41036D01*
X22266Y-41194D01*
X22149Y-41310D01*
X22149Y-37232D01*
X22081Y-37068D01*
X21955Y-36942D01*
X21791Y-36874D01*
X21613Y-36873D01*
X21449Y-36941D01*
X21323Y-37067D01*
X21255Y-37231D01*
X21255Y-37409D01*
X21323Y-37573D01*
X21448Y-37699D01*
X21613Y-37767D01*
X21790Y-37767D01*
X21955Y-37699D01*
X22080Y-37574D01*
X22149Y-37410D01*
X22149Y-37232D01*
X22149Y-41310D01*
X21974Y-41485D01*
X21816Y-41865D01*
X21816Y-42277D01*
X21973Y-42657D01*
X22148Y-42832D01*
X21186Y-42832D01*
X21186Y-41006D01*
X21097Y-40791D01*
X20933Y-40626D01*
X20718Y-40537D01*
X20649Y-40537D01*
X20649Y-37232D01*
X20581Y-37068D01*
X20455Y-36942D01*
X20291Y-36874D01*
X20113Y-36873D01*
X19949Y-36941D01*
X19823Y-37067D01*
X19755Y-37231D01*
X19755Y-37409D01*
X19823Y-37573D01*
X19948Y-37699D01*
X20113Y-37767D01*
X20290Y-37767D01*
X20455Y-37699D01*
X20580Y-37574D01*
X20649Y-37410D01*
X20649Y-37232D01*
X20649Y-40537D01*
X20485Y-40536D01*
X20270Y-40625D01*
X20105Y-40790D01*
X20016Y-41005D01*
X20016Y-41237D01*
X20092Y-41422D01*
X19962Y-41421D01*
X19705Y-41528D01*
X19636Y-41596D01*
X19636Y-40917D01*
X19479Y-40536D01*
X19188Y-40245D01*
X19149Y-40228D01*
X19149Y-37232D01*
X19081Y-37068D01*
X18955Y-36942D01*
X18791Y-36874D01*
X18613Y-36873D01*
X18449Y-36941D01*
X18323Y-37067D01*
X18255Y-37231D01*
X18255Y-37409D01*
X18323Y-37573D01*
X18448Y-37699D01*
X18613Y-37767D01*
X18790Y-37767D01*
X18955Y-37699D01*
X19080Y-37574D01*
X19149Y-37410D01*
X19149Y-37232D01*
X19149Y-40228D01*
X18808Y-40087D01*
X18396Y-40086D01*
X18016Y-40244D01*
X17724Y-40535D01*
X17649Y-40716D01*
X17649Y-37232D01*
X17581Y-37068D01*
X17455Y-36942D01*
X17291Y-36874D01*
X17113Y-36873D01*
X16949Y-36941D01*
X16823Y-37067D01*
X16755Y-37231D01*
X16755Y-37409D01*
X16823Y-37573D01*
X16948Y-37699D01*
X17113Y-37767D01*
X17290Y-37767D01*
X17455Y-37699D01*
X17580Y-37574D01*
X17649Y-37410D01*
X17649Y-37232D01*
X17649Y-40716D01*
X17566Y-40915D01*
X17566Y-41327D01*
X17723Y-41707D01*
X18014Y-41998D01*
X18394Y-42156D01*
X18806Y-42157D01*
X19187Y-41999D01*
X19478Y-41709D01*
X19636Y-41328D01*
X19636Y-40917D01*
X19636Y-41596D01*
X19508Y-41725D01*
X19401Y-41982D01*
X19401Y-42260D01*
X19507Y-42518D01*
X19704Y-42715D01*
X19961Y-42821D01*
X20240Y-42822D01*
X20497Y-42715D01*
X20694Y-42519D01*
X20801Y-42261D01*
X20801Y-41983D01*
X20695Y-41726D01*
X20676Y-41707D01*
X20717Y-41707D01*
X20932Y-41618D01*
X21097Y-41453D01*
X21186Y-41238D01*
X21186Y-41006D01*
X21186Y-42832D01*
X18239Y-42832D01*
X18195Y-42726D01*
X17998Y-42528D01*
X17741Y-42422D01*
X17462Y-42421D01*
X17355Y-42466D01*
X16595Y-41707D01*
X16717Y-41707D01*
X16932Y-41618D01*
X17097Y-41453D01*
X17186Y-41238D01*
X17186Y-41006D01*
X17097Y-40791D01*
X16933Y-40626D01*
X16718Y-40537D01*
X16485Y-40536D01*
X16270Y-40625D01*
X16105Y-40790D01*
X16016Y-41005D01*
X16016Y-41127D01*
X15667Y-40778D01*
X15667Y-37767D01*
X15790Y-37767D01*
X15955Y-37699D01*
X16080Y-37574D01*
X16149Y-37410D01*
X16149Y-37232D01*
X16081Y-37068D01*
X15955Y-36942D01*
X15791Y-36874D01*
X15667Y-36873D01*
X15667Y-28537D01*
X15823Y-28381D01*
X15823Y-28381D01*
X15886Y-28287D01*
X15886Y-28287D01*
X15889Y-28269D01*
X15908Y-28176D01*
X15908Y-28176D01*
X15908Y-24062D01*
X16053Y-24062D01*
X16218Y-23994D01*
X16299Y-23913D01*
X16772Y-24385D01*
X16772Y-25558D01*
X16718Y-25535D01*
X16485Y-25535D01*
X16270Y-25624D01*
X16105Y-25789D01*
X16016Y-26003D01*
X16016Y-26236D01*
X16105Y-26451D01*
X16269Y-26616D01*
X16484Y-26705D01*
X16717Y-26705D01*
X16737Y-26697D01*
X16737Y-28406D01*
X16759Y-28517D01*
X16822Y-28611D01*
X17312Y-29101D01*
X17312Y-34983D01*
X17205Y-35027D01*
X17186Y-35045D01*
X17186Y-33505D01*
X17097Y-33289D01*
X16933Y-33125D01*
X16718Y-33035D01*
X16485Y-33035D01*
X16270Y-33124D01*
X16105Y-33289D01*
X16016Y-33503D01*
X16016Y-33736D01*
X16105Y-33951D01*
X16269Y-34116D01*
X16484Y-34205D01*
X16717Y-34205D01*
X16932Y-34117D01*
X17097Y-33952D01*
X17186Y-33737D01*
X17186Y-33505D01*
X17186Y-35045D01*
X17008Y-35223D01*
X16901Y-35481D01*
X16901Y-35759D01*
X17007Y-36016D01*
X17204Y-36213D01*
X17461Y-36320D01*
X17740Y-36320D01*
X17997Y-36214D01*
X18194Y-36017D01*
X18239Y-35910D01*
X24463Y-35910D01*
X24507Y-36018D01*
X24704Y-36215D01*
X24961Y-36321D01*
X25240Y-36322D01*
X25497Y-36215D01*
X25694Y-36019D01*
X25761Y-35859D01*
X25769Y-35867D01*
X25984Y-35956D01*
X26217Y-35957D01*
X26401Y-35881D01*
X26401Y-36010D01*
X26507Y-36268D01*
X26704Y-36465D01*
X26961Y-36571D01*
X27240Y-36572D01*
X27497Y-36465D01*
X27694Y-36269D01*
X27801Y-36011D01*
X27801Y-35733D01*
X27695Y-35476D01*
X27541Y-35321D01*
X27740Y-35322D01*
X27997Y-35215D01*
X28145Y-35068D01*
X28369Y-35292D01*
X28681Y-35421D01*
X29019Y-35422D01*
X29332Y-35293D01*
X29431Y-35193D01*
X29431Y-36226D01*
X29409Y-36218D01*
X29232Y-36231D01*
X29126Y-36275D01*
X29112Y-36359D01*
X29352Y-36600D01*
X29357Y-36594D01*
X29428Y-36665D01*
X29423Y-36670D01*
X29428Y-36676D01*
X29357Y-36747D01*
X29352Y-36741D01*
X29281Y-36812D01*
X29281Y-36670D01*
X29041Y-36430D01*
X28956Y-36445D01*
X28900Y-36613D01*
X28912Y-36791D01*
X28956Y-36896D01*
X29041Y-36911D01*
X29281Y-36670D01*
X29281Y-36812D01*
X29112Y-36981D01*
X29126Y-37066D01*
X29295Y-37122D01*
X29300Y-37122D01*
X29255Y-37231D01*
X29255Y-37409D01*
X29323Y-37573D01*
X29431Y-37682D01*
X29431Y-41450D01*
X29333Y-41351D01*
X29021Y-41222D01*
X28801Y-41222D01*
X28801Y-38233D01*
X28695Y-37976D01*
X28498Y-37778D01*
X28381Y-37730D01*
X28455Y-37699D01*
X28580Y-37574D01*
X28649Y-37410D01*
X28649Y-37232D01*
X28581Y-37068D01*
X28455Y-36942D01*
X28291Y-36874D01*
X28113Y-36873D01*
X27949Y-36941D01*
X27823Y-37067D01*
X27755Y-37231D01*
X27755Y-37409D01*
X27823Y-37573D01*
X27933Y-37684D01*
X27705Y-37778D01*
X27508Y-37975D01*
X27401Y-38232D01*
X27401Y-38510D01*
X27507Y-38768D01*
X27704Y-38965D01*
X27961Y-39071D01*
X28240Y-39072D01*
X28497Y-38965D01*
X28694Y-38769D01*
X28801Y-38511D01*
X28801Y-38233D01*
X28801Y-41222D01*
X28686Y-41221D01*
X28686Y-41006D01*
X28597Y-40791D01*
X28433Y-40626D01*
X28218Y-40537D01*
X27985Y-40536D01*
X27770Y-40625D01*
X27605Y-40790D01*
X27516Y-41005D01*
X27516Y-41237D01*
X27592Y-41422D01*
X27462Y-41421D01*
X27205Y-41528D01*
X27136Y-41596D01*
X27136Y-40917D01*
X27136Y-37167D01*
X26979Y-36786D01*
X26688Y-36495D01*
X26308Y-36337D01*
X25896Y-36336D01*
X25516Y-36494D01*
X25224Y-36785D01*
X25094Y-37099D01*
X25081Y-37068D01*
X24955Y-36942D01*
X24791Y-36874D01*
X24613Y-36873D01*
X24449Y-36941D01*
X24323Y-37067D01*
X24255Y-37231D01*
X24255Y-37409D01*
X24323Y-37573D01*
X24448Y-37699D01*
X24613Y-37767D01*
X24790Y-37767D01*
X24955Y-37699D01*
X25069Y-37585D01*
X25223Y-37957D01*
X25514Y-38248D01*
X25894Y-38406D01*
X26306Y-38407D01*
X26687Y-38249D01*
X26978Y-37959D01*
X27136Y-37578D01*
X27136Y-37167D01*
X27136Y-40917D01*
X26979Y-40536D01*
X26688Y-40245D01*
X26686Y-40244D01*
X26686Y-39256D01*
X26597Y-39041D01*
X26433Y-38876D01*
X26218Y-38787D01*
X25985Y-38786D01*
X25770Y-38875D01*
X25605Y-39040D01*
X25516Y-39255D01*
X25516Y-39487D01*
X25605Y-39702D01*
X25769Y-39867D01*
X25984Y-39956D01*
X26217Y-39957D01*
X26432Y-39868D01*
X26597Y-39703D01*
X26686Y-39488D01*
X26686Y-39256D01*
X26686Y-40244D01*
X26308Y-40087D01*
X25896Y-40086D01*
X25516Y-40244D01*
X25224Y-40535D01*
X25066Y-40915D01*
X25066Y-41327D01*
X25223Y-41707D01*
X25514Y-41998D01*
X25894Y-42156D01*
X26306Y-42157D01*
X26687Y-41999D01*
X26978Y-41709D01*
X27136Y-41328D01*
X27136Y-40917D01*
X27136Y-41596D01*
X27008Y-41725D01*
X26901Y-41982D01*
X26901Y-42260D01*
X27007Y-42518D01*
X27204Y-42715D01*
X27461Y-42821D01*
X27740Y-42822D01*
X27997Y-42715D01*
X28145Y-42568D01*
X28369Y-42792D01*
X28681Y-42921D01*
X29019Y-42922D01*
X29332Y-42793D01*
X29431Y-42693D01*
X29431Y-43927D01*
X29431Y-43927D01*
G37*
G54D26*
X29431Y-43927D02*
X29408Y-43920D01*
X29230Y-43932D01*
X29125Y-43976D01*
X29110Y-44060D01*
X29351Y-44301D01*
X29356Y-44295D01*
X29427Y-44366D01*
X29421Y-44372D01*
X29427Y-44377D01*
X29356Y-44448D01*
X29351Y-44442D01*
X29345Y-44448D01*
X29274Y-44377D01*
X29280Y-44372D01*
X29040Y-44131D01*
X28955Y-44146D01*
X28899Y-44314D01*
X28908Y-44451D01*
X12673Y-44451D01*
X12771Y-44354D01*
X12901Y-44041D01*
X12901Y-43703D01*
X12780Y-43411D01*
X13153Y-43411D01*
X13153Y-43411D01*
X13264Y-43389D01*
X13358Y-43326D01*
X15377Y-41307D01*
X16945Y-42875D01*
X16901Y-42982D01*
X16901Y-43260D01*
X17007Y-43518D01*
X17204Y-43715D01*
X17461Y-43821D01*
X17740Y-43822D01*
X17997Y-43715D01*
X18194Y-43519D01*
X18239Y-43411D01*
X24463Y-43411D01*
X24507Y-43518D01*
X24704Y-43715D01*
X24961Y-43821D01*
X25240Y-43822D01*
X25497Y-43715D01*
X25694Y-43519D01*
X25801Y-43261D01*
X25801Y-42983D01*
X25695Y-42726D01*
X25498Y-42528D01*
X25241Y-42422D01*
X24962Y-42421D01*
X24705Y-42528D01*
X24508Y-42725D01*
X24463Y-42832D01*
X23554Y-42832D01*
X23728Y-42659D01*
X23886Y-42278D01*
X23886Y-41867D01*
X23786Y-41624D01*
X23984Y-41706D01*
X24217Y-41707D01*
X24432Y-41618D01*
X24597Y-41453D01*
X24686Y-41238D01*
X24686Y-41006D01*
X24597Y-40791D01*
X24433Y-40626D01*
X24218Y-40537D01*
X23985Y-40536D01*
X23770Y-40625D01*
X23649Y-40746D01*
X23649Y-37232D01*
X23581Y-37068D01*
X23455Y-36942D01*
X23291Y-36874D01*
X23113Y-36873D01*
X22949Y-36941D01*
X22823Y-37067D01*
X22755Y-37231D01*
X22755Y-37409D01*
X22823Y-37573D01*
X22948Y-37699D01*
X23113Y-37767D01*
X23290Y-37767D01*
X23455Y-37699D01*
X23580Y-37574D01*
X23649Y-37410D01*
X23649Y-37232D01*
X23649Y-40746D01*
X23605Y-40790D01*
X23516Y-41005D01*
X23516Y-41237D01*
X23541Y-41297D01*
X23438Y-41195D01*
X23058Y-41037D01*
X22646Y-41036D01*
X22266Y-41194D01*
X22149Y-41310D01*
X22149Y-37232D01*
X22081Y-37068D01*
X21955Y-36942D01*
X21791Y-36874D01*
X21613Y-36873D01*
X21449Y-36941D01*
X21323Y-37067D01*
X21255Y-37231D01*
X21255Y-37409D01*
X21323Y-37573D01*
X21448Y-37699D01*
X21613Y-37767D01*
X21790Y-37767D01*
X21955Y-37699D01*
X22080Y-37574D01*
X22149Y-37410D01*
X22149Y-37232D01*
X22149Y-41310D01*
X21974Y-41485D01*
X21816Y-41865D01*
X21816Y-42277D01*
X21973Y-42657D01*
X22148Y-42832D01*
X21186Y-42832D01*
X21186Y-41006D01*
X21097Y-40791D01*
X20933Y-40626D01*
X20718Y-40537D01*
X20649Y-40537D01*
X20649Y-37232D01*
X20581Y-37068D01*
X20455Y-36942D01*
X20291Y-36874D01*
X20113Y-36873D01*
X19949Y-36941D01*
X19823Y-37067D01*
X19755Y-37231D01*
X19755Y-37409D01*
X19823Y-37573D01*
X19948Y-37699D01*
X20113Y-37767D01*
X20290Y-37767D01*
X20455Y-37699D01*
X20580Y-37574D01*
X20649Y-37410D01*
X20649Y-37232D01*
X20649Y-40537D01*
X20485Y-40536D01*
X20270Y-40625D01*
X20105Y-40790D01*
X20016Y-41005D01*
X20016Y-41237D01*
X20092Y-41422D01*
X19962Y-41421D01*
X19705Y-41528D01*
X19636Y-41596D01*
X19636Y-40917D01*
X19479Y-40536D01*
X19188Y-40245D01*
X19149Y-40228D01*
X19149Y-37232D01*
X19081Y-37068D01*
X18955Y-36942D01*
X18791Y-36874D01*
X18613Y-36873D01*
X18449Y-36941D01*
X18323Y-37067D01*
X18255Y-37231D01*
X18255Y-37409D01*
X18323Y-37573D01*
X18448Y-37699D01*
X18613Y-37767D01*
X18790Y-37767D01*
X18955Y-37699D01*
X19080Y-37574D01*
X19149Y-37410D01*
X19149Y-37232D01*
X19149Y-40228D01*
X18808Y-40087D01*
X18396Y-40086D01*
X18016Y-40244D01*
X17724Y-40535D01*
X17649Y-40716D01*
X17649Y-37232D01*
X17581Y-37068D01*
X17455Y-36942D01*
X17291Y-36874D01*
X17113Y-36873D01*
X16949Y-36941D01*
X16823Y-37067D01*
X16755Y-37231D01*
X16755Y-37409D01*
X16823Y-37573D01*
X16948Y-37699D01*
X17113Y-37767D01*
X17290Y-37767D01*
X17455Y-37699D01*
X17580Y-37574D01*
X17649Y-37410D01*
X17649Y-37232D01*
X17649Y-40716D01*
X17566Y-40915D01*
X17566Y-41327D01*
X17723Y-41707D01*
X18014Y-41998D01*
X18394Y-42156D01*
X18806Y-42157D01*
X19187Y-41999D01*
X19478Y-41709D01*
X19636Y-41328D01*
X19636Y-40917D01*
X19636Y-41596D01*
X19508Y-41725D01*
X19401Y-41982D01*
X19401Y-42260D01*
X19507Y-42518D01*
X19704Y-42715D01*
X19961Y-42821D01*
X20240Y-42822D01*
X20497Y-42715D01*
X20694Y-42519D01*
X20801Y-42261D01*
X20801Y-41983D01*
X20695Y-41726D01*
X20676Y-41707D01*
X20717Y-41707D01*
X20932Y-41618D01*
X21097Y-41453D01*
X21186Y-41238D01*
X21186Y-41006D01*
X21186Y-42832D01*
X18239Y-42832D01*
X18195Y-42726D01*
X17998Y-42528D01*
X17741Y-42422D01*
X17462Y-42421D01*
X17355Y-42466D01*
X16595Y-41707D01*
X16717Y-41707D01*
X16932Y-41618D01*
X17097Y-41453D01*
X17186Y-41238D01*
X17186Y-41006D01*
X17097Y-40791D01*
X16933Y-40626D01*
X16718Y-40537D01*
X16485Y-40536D01*
X16270Y-40625D01*
X16105Y-40790D01*
X16016Y-41005D01*
X16016Y-41127D01*
X15667Y-40778D01*
X15667Y-37767D01*
X15790Y-37767D01*
X15955Y-37699D01*
X16080Y-37574D01*
X16149Y-37410D01*
X16149Y-37232D01*
X16081Y-37068D01*
X15955Y-36942D01*
X15791Y-36874D01*
X15667Y-36873D01*
X15667Y-28537D01*
X15823Y-28381D01*
X15823Y-28381D01*
X15886Y-28287D01*
X15886Y-28287D01*
X15889Y-28269D01*
X15908Y-28176D01*
X15908Y-28176D01*
X15908Y-24062D01*
X16053Y-24062D01*
X16218Y-23994D01*
X16299Y-23913D01*
X16772Y-24385D01*
X16772Y-25558D01*
X16718Y-25535D01*
X16485Y-25535D01*
X16270Y-25624D01*
X16105Y-25789D01*
X16016Y-26003D01*
X16016Y-26236D01*
X16105Y-26451D01*
X16269Y-26616D01*
X16484Y-26705D01*
X16717Y-26705D01*
X16737Y-26697D01*
X16737Y-28406D01*
X16759Y-28517D01*
X16822Y-28611D01*
X17312Y-29101D01*
X17312Y-34983D01*
X17205Y-35027D01*
X17186Y-35045D01*
X17186Y-33505D01*
X17097Y-33289D01*
X16933Y-33125D01*
X16718Y-33035D01*
X16485Y-33035D01*
X16270Y-33124D01*
X16105Y-33289D01*
X16016Y-33503D01*
X16016Y-33736D01*
X16105Y-33951D01*
X16269Y-34116D01*
X16484Y-34205D01*
X16717Y-34205D01*
X16932Y-34117D01*
X17097Y-33952D01*
X17186Y-33737D01*
X17186Y-33505D01*
X17186Y-35045D01*
X17008Y-35223D01*
X16901Y-35481D01*
X16901Y-35759D01*
X17007Y-36016D01*
X17204Y-36213D01*
X17461Y-36320D01*
X17740Y-36320D01*
X17997Y-36214D01*
X18194Y-36017D01*
X18239Y-35910D01*
X24463Y-35910D01*
X24507Y-36018D01*
X24704Y-36215D01*
X24961Y-36321D01*
X25240Y-36322D01*
X25497Y-36215D01*
X25694Y-36019D01*
X25761Y-35859D01*
X25769Y-35867D01*
X25984Y-35956D01*
X26217Y-35957D01*
X26401Y-35881D01*
X26401Y-36010D01*
X26507Y-36268D01*
X26704Y-36465D01*
X26961Y-36571D01*
X27240Y-36572D01*
X27497Y-36465D01*
X27694Y-36269D01*
X27801Y-36011D01*
X27801Y-35733D01*
X27695Y-35476D01*
X27541Y-35321D01*
X27740Y-35322D01*
X27997Y-35215D01*
X28145Y-35068D01*
X28369Y-35292D01*
X28681Y-35421D01*
X29019Y-35422D01*
X29332Y-35293D01*
X29431Y-35193D01*
X29431Y-36226D01*
X29409Y-36218D01*
X29232Y-36231D01*
X29126Y-36275D01*
X29112Y-36359D01*
X29352Y-36600D01*
X29357Y-36594D01*
X29428Y-36665D01*
X29423Y-36670D01*
X29428Y-36676D01*
X29357Y-36747D01*
X29352Y-36741D01*
X29281Y-36812D01*
X29281Y-36670D01*
X29041Y-36430D01*
X28956Y-36445D01*
X28900Y-36613D01*
X28912Y-36791D01*
X28956Y-36896D01*
X29041Y-36911D01*
X29281Y-36670D01*
X29281Y-36812D01*
X29112Y-36981D01*
X29126Y-37066D01*
X29295Y-37122D01*
X29300Y-37122D01*
X29255Y-37231D01*
X29255Y-37409D01*
X29323Y-37573D01*
X29431Y-37682D01*
X29431Y-41450D01*
X29333Y-41351D01*
X29021Y-41222D01*
X28801Y-41222D01*
X28801Y-38233D01*
X28695Y-37976D01*
X28498Y-37778D01*
X28381Y-37730D01*
X28455Y-37699D01*
X28580Y-37574D01*
X28649Y-37410D01*
X28649Y-37232D01*
X28581Y-37068D01*
X28455Y-36942D01*
X28291Y-36874D01*
X28113Y-36873D01*
X27949Y-36941D01*
X27823Y-37067D01*
X27755Y-37231D01*
X27755Y-37409D01*
X27823Y-37573D01*
X27933Y-37684D01*
X27705Y-37778D01*
X27508Y-37975D01*
X27401Y-38232D01*
X27401Y-38510D01*
X27507Y-38768D01*
X27704Y-38965D01*
X27961Y-39071D01*
X28240Y-39072D01*
X28497Y-38965D01*
X28694Y-38769D01*
X28801Y-38511D01*
X28801Y-38233D01*
X28801Y-41222D01*
X28686Y-41221D01*
X28686Y-41006D01*
X28597Y-40791D01*
X28433Y-40626D01*
X28218Y-40537D01*
X27985Y-40536D01*
X27770Y-40625D01*
X27605Y-40790D01*
X27516Y-41005D01*
X27516Y-41237D01*
X27592Y-41422D01*
X27462Y-41421D01*
X27205Y-41528D01*
X27136Y-41596D01*
X27136Y-40917D01*
X27136Y-37167D01*
X26979Y-36786D01*
X26688Y-36495D01*
X26308Y-36337D01*
X25896Y-36336D01*
X25516Y-36494D01*
X25224Y-36785D01*
X25094Y-37099D01*
X25081Y-37068D01*
X24955Y-36942D01*
X24791Y-36874D01*
X24613Y-36873D01*
X24449Y-36941D01*
X24323Y-37067D01*
X24255Y-37231D01*
X24255Y-37409D01*
X24323Y-37573D01*
X24448Y-37699D01*
X24613Y-37767D01*
X24790Y-37767D01*
X24955Y-37699D01*
X25069Y-37585D01*
X25223Y-37957D01*
X25514Y-38248D01*
X25894Y-38406D01*
X26306Y-38407D01*
X26687Y-38249D01*
X26978Y-37959D01*
X27136Y-37578D01*
X27136Y-37167D01*
X27136Y-40917D01*
X26979Y-40536D01*
X26688Y-40245D01*
X26686Y-40244D01*
X26686Y-39256D01*
X26597Y-39041D01*
X26433Y-38876D01*
X26218Y-38787D01*
X25985Y-38786D01*
X25770Y-38875D01*
X25605Y-39040D01*
X25516Y-39255D01*
X25516Y-39487D01*
X25605Y-39702D01*
X25769Y-39867D01*
X25984Y-39956D01*
X26217Y-39957D01*
X26432Y-39868D01*
X26597Y-39703D01*
X26686Y-39488D01*
X26686Y-39256D01*
X26686Y-40244D01*
X26308Y-40087D01*
X25896Y-40086D01*
X25516Y-40244D01*
X25224Y-40535D01*
X25066Y-40915D01*
X25066Y-41327D01*
X25223Y-41707D01*
X25514Y-41998D01*
X25894Y-42156D01*
X26306Y-42157D01*
X26687Y-41999D01*
X26978Y-41709D01*
X27136Y-41328D01*
X27136Y-40917D01*
X27136Y-41596D01*
X27008Y-41725D01*
X26901Y-41982D01*
X26901Y-42260D01*
X27007Y-42518D01*
X27204Y-42715D01*
X27461Y-42821D01*
X27740Y-42822D01*
X27997Y-42715D01*
X28145Y-42568D01*
X28369Y-42792D01*
X28681Y-42921D01*
X29019Y-42922D01*
X29332Y-42793D01*
X29431Y-42693D01*
X29431Y-43927D01*
M02*
