G04 (created by PCBNEW (2013-02-13 BZR 3947)-testing) date 9/17/2013 2:51:26 PM*
%MOIN*%
G04 Gerber Fmt 3.4, Leading zero omitted, Abs format*
%FSLAX34Y34*%
G01*
G70*
G90*
G04 APERTURE LIST*
%ADD10C,0*%
%ADD11O,0.4017X0.2049*%
%ADD12R,0.0473701X0.130047*%
%ADD13R,0.0887X0.1655*%
%ADD14R,0.0887X0.1458*%
%ADD15O,0.0277008X0.106425*%
%ADD16C,0.0434331*%
%ADD17R,0.0533X0.0631*%
%ADD18C,0.024*%
%ADD19R,0.043X0.063*%
%ADD20R,0.063X0.043*%
%ADD21C,0.0788661*%
%ADD22C,0.0709921*%
%ADD23C,0.098*%
%ADD24C,0.165*%
%ADD25C,0.075*%
%ADD26O,0.083X0.093*%
%ADD27R,0.083X0.093*%
%ADD28C,0.0473701*%
%ADD29C,0.128*%
G04 APERTURE END LIST*
G54D10*
G54D11*
X574Y-22244D03*
G54D12*
X15639Y-4623D03*
X14064Y-1119D03*
X15638Y-1119D03*
X14064Y-4623D03*
G54D13*
X9104Y-775D03*
X5226Y-775D03*
G54D14*
X5226Y-2449D03*
X9104Y-2449D03*
G54D15*
X7165Y-2449D03*
X6850Y-2449D03*
X6535Y-2449D03*
X7480Y-2449D03*
X7795Y-2449D03*
G54D16*
X6299Y-1523D03*
X8031Y-1523D03*
G54D17*
X24586Y-21887D03*
X24586Y-22753D03*
X25216Y-21887D03*
X25216Y-22753D03*
G54D18*
X15984Y-24103D02*
X16400Y-24519D01*
X15761Y-24326D02*
X16177Y-24742D01*
X15539Y-24549D02*
X15954Y-24965D01*
X15316Y-24772D02*
X15732Y-25187D01*
X15093Y-24994D02*
X15509Y-25410D01*
X14870Y-25217D02*
X15286Y-25633D01*
X16207Y-23881D02*
X16622Y-24297D01*
X16429Y-23658D02*
X16845Y-24074D01*
X16652Y-23435D02*
X17068Y-23851D01*
X16875Y-23213D02*
X17291Y-23628D01*
X17098Y-22990D02*
X17513Y-23406D01*
X12802Y-20921D02*
X13218Y-21337D01*
X12579Y-21144D02*
X12995Y-21560D01*
X12357Y-21367D02*
X12772Y-21783D01*
X12134Y-21590D02*
X12550Y-22005D01*
X11911Y-21812D02*
X12327Y-22228D01*
X11688Y-22035D02*
X12104Y-22451D01*
X13025Y-20699D02*
X13441Y-21115D01*
X13247Y-20476D02*
X13663Y-20892D01*
X13470Y-20253D02*
X13886Y-20669D01*
X13693Y-20031D02*
X14109Y-20446D01*
X13916Y-19808D02*
X14331Y-20224D01*
X12802Y-24519D02*
X13218Y-24103D01*
X15984Y-21337D02*
X16400Y-20921D01*
X12579Y-24297D02*
X12995Y-23881D01*
X15761Y-21115D02*
X16177Y-20699D01*
X15539Y-20892D02*
X15954Y-20476D01*
X12357Y-24074D02*
X12772Y-23658D01*
X12134Y-23851D02*
X12550Y-23435D01*
X15316Y-20669D02*
X15732Y-20253D01*
X15093Y-20446D02*
X15509Y-20031D01*
X11911Y-23628D02*
X12327Y-23213D01*
X11688Y-23406D02*
X12104Y-22990D01*
X14870Y-20224D02*
X15286Y-19808D01*
X16207Y-21560D02*
X16622Y-21144D01*
X13025Y-24742D02*
X13441Y-24326D01*
X13247Y-24965D02*
X13663Y-24549D01*
X16429Y-21783D02*
X16845Y-21367D01*
X16652Y-22005D02*
X17068Y-21590D01*
X13470Y-25187D02*
X13886Y-24772D01*
X13693Y-25410D02*
X14109Y-24994D01*
X16875Y-22228D02*
X17291Y-21812D01*
X17098Y-22451D02*
X17513Y-22035D01*
X13916Y-25633D02*
X14331Y-25217D01*
G54D19*
X6476Y-4621D03*
X7226Y-4621D03*
X26026Y-21620D03*
X26776Y-21620D03*
X26026Y-23220D03*
X26776Y-23220D03*
G54D20*
X8901Y-23145D03*
X8901Y-23895D03*
G54D19*
X11771Y-20434D03*
X11021Y-20434D03*
X24526Y-23820D03*
X25276Y-23820D03*
X23026Y-21920D03*
X23776Y-21920D03*
G54D20*
X7351Y-6746D03*
X7351Y-5996D03*
X8351Y-6746D03*
X8351Y-5996D03*
X7901Y-24695D03*
X7901Y-23945D03*
G54D19*
X26026Y-19520D03*
X26776Y-19520D03*
G54D20*
X7901Y-23095D03*
X7901Y-22345D03*
G54D19*
X28476Y-43620D03*
X27726Y-43620D03*
X20976Y-43620D03*
X20226Y-43620D03*
X27976Y-26620D03*
X27226Y-26620D03*
X27976Y-11621D03*
X27226Y-11621D03*
X28476Y-6121D03*
X27726Y-6121D03*
X20876Y-28620D03*
X20126Y-28620D03*
X20976Y-16120D03*
X20226Y-16120D03*
X20976Y-13621D03*
X20226Y-13621D03*
X20976Y-6121D03*
X20226Y-6121D03*
G54D21*
X12601Y-37370D03*
X10601Y-37370D03*
X8601Y-37370D03*
X11601Y-37370D03*
X9601Y-37370D03*
X13601Y-37370D03*
G54D22*
X1101Y-7121D03*
X4101Y-7121D03*
G54D23*
X17601Y-43120D03*
X20101Y-42120D03*
G54D24*
X18601Y-41120D03*
G54D25*
X20601Y-41120D03*
X16601Y-41120D03*
G54D23*
X17601Y-28120D03*
X20101Y-27120D03*
G54D24*
X18601Y-26120D03*
G54D25*
X20601Y-26120D03*
X16601Y-26120D03*
G54D23*
X17601Y-13121D03*
X20101Y-12121D03*
G54D24*
X18601Y-11121D03*
G54D25*
X20601Y-11121D03*
X16601Y-11121D03*
G54D23*
X25101Y-5622D03*
X27601Y-4622D03*
G54D24*
X26101Y-3622D03*
G54D25*
X28101Y-3622D03*
X24101Y-3622D03*
G54D23*
X17601Y-5622D03*
X20101Y-4622D03*
G54D24*
X18601Y-3622D03*
G54D25*
X20601Y-3622D03*
X16601Y-3622D03*
G54D23*
X17601Y-20620D03*
X20101Y-19620D03*
G54D24*
X18601Y-18620D03*
G54D25*
X20601Y-18620D03*
X16601Y-18620D03*
G54D23*
X25101Y-43120D03*
X27601Y-42120D03*
G54D24*
X26101Y-41120D03*
G54D25*
X28101Y-41120D03*
X24101Y-41120D03*
G54D26*
X26601Y-1621D03*
G54D27*
X25601Y-1621D03*
G54D26*
X4101Y-1621D03*
G54D27*
X3101Y-1621D03*
G54D28*
X351Y-44370D03*
X29351Y-371D03*
X29351Y-44370D03*
X351Y-322D03*
G54D19*
X13476Y-28620D03*
X12726Y-28620D03*
X13476Y-43620D03*
X12726Y-43620D03*
X5976Y-43620D03*
X5226Y-43620D03*
X20976Y-36120D03*
X20226Y-36120D03*
X13476Y-36120D03*
X12726Y-36120D03*
X5976Y-36120D03*
X5226Y-36120D03*
X5976Y-21120D03*
X5226Y-21120D03*
X5976Y-6121D03*
X5226Y-6121D03*
X13476Y-16120D03*
X12726Y-16120D03*
X13476Y-13621D03*
X12726Y-13621D03*
X5976Y-28620D03*
X5226Y-28620D03*
X5976Y-13621D03*
X5226Y-13621D03*
X13476Y-6121D03*
X12726Y-6121D03*
G54D23*
X2601Y-5621D03*
X5101Y-4621D03*
G54D24*
X3601Y-3621D03*
G54D25*
X5601Y-3621D03*
X1601Y-3621D03*
G54D23*
X2601Y-28120D03*
X5101Y-27120D03*
G54D24*
X3601Y-26120D03*
G54D25*
X5601Y-26120D03*
X1601Y-26120D03*
G54D23*
X10101Y-28120D03*
X12601Y-27120D03*
G54D24*
X11101Y-26120D03*
G54D25*
X13101Y-26120D03*
X9101Y-26120D03*
G54D23*
X10101Y-35620D03*
X12601Y-34620D03*
G54D24*
X11101Y-33620D03*
G54D25*
X13101Y-33620D03*
X9101Y-33620D03*
G54D23*
X17601Y-35620D03*
X20101Y-34620D03*
G54D24*
X18601Y-33620D03*
G54D25*
X20601Y-33620D03*
X16601Y-33620D03*
G54D23*
X2601Y-35620D03*
X5101Y-34620D03*
G54D24*
X3601Y-33620D03*
G54D25*
X5601Y-33620D03*
X1601Y-33620D03*
G54D23*
X10101Y-20620D03*
X12601Y-19620D03*
G54D24*
X11101Y-18620D03*
G54D25*
X13101Y-18620D03*
X9101Y-18620D03*
G54D23*
X2601Y-20620D03*
X5101Y-19620D03*
G54D24*
X3601Y-18620D03*
G54D25*
X5601Y-18620D03*
X1601Y-18620D03*
G54D23*
X10101Y-13121D03*
X12601Y-12121D03*
G54D24*
X11101Y-11121D03*
G54D25*
X13101Y-11121D03*
X9101Y-11121D03*
G54D23*
X10101Y-43120D03*
X12601Y-42120D03*
G54D24*
X11101Y-41120D03*
G54D25*
X13101Y-41120D03*
X9101Y-41120D03*
G54D23*
X2601Y-43120D03*
X5101Y-42120D03*
G54D24*
X3601Y-41120D03*
G54D25*
X5601Y-41120D03*
X1601Y-41120D03*
G54D23*
X2601Y-13121D03*
X5101Y-12121D03*
G54D24*
X3601Y-11121D03*
G54D25*
X5601Y-11121D03*
X1601Y-11121D03*
G54D23*
X10101Y-5621D03*
X12601Y-4621D03*
G54D24*
X11101Y-3621D03*
G54D25*
X13101Y-3621D03*
X9101Y-3621D03*
G54D23*
X28101Y-15870D03*
X27101Y-13370D03*
G54D24*
X26101Y-14870D03*
G54D25*
X26101Y-12870D03*
X26101Y-16870D03*
G54D29*
X28851Y-10170D03*
X28851Y-19570D03*
G54D24*
X22851Y-10170D03*
X22851Y-19570D03*
G54D23*
X28101Y-30870D03*
X27101Y-28370D03*
G54D24*
X26101Y-29870D03*
G54D25*
X26101Y-27870D03*
X26101Y-31870D03*
G54D29*
X28851Y-25170D03*
X28851Y-34570D03*
G54D24*
X22851Y-25170D03*
X22851Y-34570D03*
G54D22*
X24101Y-7121D03*
X27101Y-7121D03*
X14601Y-7121D03*
X11601Y-7121D03*
X22101Y-7121D03*
X19101Y-7121D03*
G54D26*
X11601Y-1621D03*
G54D27*
X10601Y-1621D03*
G54D26*
X19101Y-1621D03*
G54D27*
X18101Y-1621D03*
M02*
