M48
;DRILL file {Pcbnew (2013-02-13 BZR 3947)-testing} date 1/1/2014 8:25:41 PM
;FORMAT={2:4/ absolute / inch / keep zeros}
FMAT,2
INCH,TZ
T1C0.016
T2C0.028
T3C0.032
T4C0.035
T5C0.039
T6C0.059
T7C0.067
T8C0.098
T9C0.120
T10C0.157
%
G90
G05
M72
T1
X000351Y-000322
X000352Y-036621
X000908Y-021435
X002698Y-009686
X003104Y-022724
X003233Y-022219
X003271Y-024443
X003932Y-008423
X003953Y-012257
X004246Y-024846
X004338Y-023053
X004448Y-023738
X005329Y-020907
X005799Y-023905
X006086Y-014036
X006161Y-002324
X006386Y-025871
X006501Y-025205
X006516Y-026685
X006970Y-022537
X007278Y-013862
X007382Y-024916
X008051Y-036522
X008177Y-002663
X008234Y-004672
X008276Y-016976
X008289Y-021148
X008690Y-019747
X008701Y-017417
X008707Y-024361
X009398Y-014897
X010030Y-018116
X011101Y-035272
X011174Y-022843
X011525Y-021154
X012377Y-020897
X012498Y-024916
X012940Y-022548
X013297Y-021862
X013301Y-036522
X013528Y-023905
X013724Y-021453
X014024Y-010033
X014028Y-022147
X014206Y-020810
X014434Y-023658
X014967Y-023458
X015301Y-036522
X015451Y-035072
X015639Y-003724
X015651Y-036022
X015708Y-019723
X015900Y-023597
X016162Y-025205
X016469Y-020524
X016531Y-022513
X016727Y-018049
X016761Y-024782
X017028Y-011795
X017031Y-014618
X017683Y-022856
X018048Y-021170
X018324Y-019645
X019988Y-013004
X020190Y-021015
X020537Y-022513
X021121Y-002880
X021781Y-022513
X022249Y-014144
X022539Y-012865
X022606Y-021164
X022651Y-036372
X023355Y-022147
X025084Y-002734
X029351Y-000371
X029352Y-036671
T2
X000502Y-008121
X000502Y-008621
X000502Y-009121
X000502Y-009621
X000502Y-010121
X000502Y-011621
X000502Y-012121
X000502Y-012621
X000502Y-013121
X000502Y-014121
X000502Y-014621
X000502Y-015121
X000502Y-015621
X000502Y-016121
T3
X001101Y-007021
X004101Y-007021
X011601Y-007021
X014601Y-007021
X016102Y-006971
X019102Y-006971
X022751Y-001621
X022751Y-004621
T4
X006299Y-001524
X007225Y-015747
X007225Y-016747
X007225Y-017747
X007225Y-018747
X007225Y-019747
X007225Y-020747
X008031Y-001524
T5
X003101Y-001621
X004101Y-001621
X010601Y-001621
X011601Y-001621
X018102Y-001621
X019102Y-001621
X025602Y-001621
X026602Y-001621
T6
X002101Y-032621
X002601Y-005621
X002601Y-013121
X002601Y-020621
X002601Y-028121
X004601Y-031621
X005101Y-004621
X005101Y-012121
X005101Y-019621
X005101Y-027121
X006351Y-035622
X008851Y-034622
X010101Y-005621
X010101Y-013121
X010101Y-020621
X010101Y-028121
X010101Y-035621
X012601Y-004621
X012601Y-012121
X012601Y-019621
X012601Y-027121
X012601Y-034621
X017602Y-005622
X017602Y-013121
X017602Y-020621
X017602Y-028121
X017602Y-035621
X020102Y-004622
X020102Y-012121
X020102Y-019621
X020102Y-027121
X020102Y-034621
X025102Y-005622
X025102Y-013122
X025102Y-020622
X025102Y-028122
X025102Y-035622
X027102Y-013372
X027102Y-020872
X027102Y-028372
X027602Y-004622
X027602Y-012122
X027602Y-019622
X027602Y-027122
X027602Y-034622
X028102Y-015872
X028102Y-023372
X028102Y-030872
T7
X001601Y-003621
X001601Y-011121
X001601Y-018621
X001601Y-026121
X001601Y-033621
X005351Y-033622
X005601Y-003621
X005601Y-011121
X005601Y-018621
X005601Y-026121
X005601Y-033621
X009101Y-003621
X009101Y-011121
X009101Y-018621
X009101Y-026121
X009101Y-033621
X009351Y-033622
X013101Y-003621
X013101Y-011121
X013101Y-018621
X013101Y-026121
X013101Y-033621
X016602Y-003622
X016602Y-011121
X016602Y-018621
X016602Y-026121
X016602Y-033621
X020602Y-003622
X020602Y-011121
X020602Y-018621
X020602Y-026121
X020602Y-033621
X024102Y-003622
X024102Y-011122
X024102Y-018622
X024102Y-026122
X024102Y-033622
X026102Y-012872
X026102Y-016872
X026102Y-020372
X026102Y-024372
X026102Y-027872
X026102Y-031872
X028102Y-003622
X028102Y-011122
X028102Y-018622
X028102Y-026122
X028102Y-033622
T8
X007351Y-007371
X007351Y-029871
X022351Y-007371
X022351Y-029871
T9
X002651Y-036372
X012051Y-036372
X028852Y-010172
X028852Y-017672
X028852Y-019572
X028852Y-025172
X028852Y-027072
X028852Y-034572
T10
X002651Y-030372
X003601Y-003621
X003601Y-011121
X003601Y-018621
X003601Y-026121
X003601Y-033621
X007351Y-033622
X011101Y-003621
X011101Y-011121
X011101Y-018621
X011101Y-026121
X011101Y-033621
X012051Y-030372
X018602Y-003622
X018602Y-011121
X018602Y-018621
X018602Y-026121
X018602Y-033621
X022852Y-010172
X022852Y-017672
X022852Y-019572
X022852Y-025172
X022852Y-027072
X022852Y-034572
X026102Y-003622
X026102Y-011122
X026102Y-014872
X026102Y-018622
X026102Y-022372
X026102Y-026122
X026102Y-029872
X026102Y-033622
T0
M30
