G04 (created by PCBNEW (2013-02-13 BZR 3947)-testing) date 1/1/2014 1:43:51 PM*
%MOIN*%
G04 Gerber Fmt 3.4, Leading zero omitted, Abs format*
%FSLAX34Y34*%
G01*
G70*
G90*
G04 APERTURE LIST*
%ADD10C,0*%
%ADD11C,0.00390157*%
%ADD12C,0.098*%
%ADD13C,0.165*%
%ADD14C,0.075*%
%ADD15R,0.0473701X0.130047*%
%ADD16R,0.0533X0.0631*%
%ADD17C,0.024*%
%ADD18R,0.043X0.063*%
%ADD19R,0.063X0.043*%
%ADD20C,0.0788661*%
%ADD21C,0.0709921*%
%ADD22O,0.083X0.093*%
%ADD23R,0.083X0.093*%
%ADD24C,0.128*%
%ADD25C,0.0473701*%
%ADD26O,0.068X0.05*%
%ADD27R,0.067X0.0237*%
%ADD28R,0.0887X0.1655*%
%ADD29R,0.0887X0.1458*%
%ADD30O,0.0277008X0.12611*%
%ADD31C,0.0434331*%
%ADD32C,0.2049*%
%ADD33R,0.0473701X0.0473701*%
G04 APERTURE END LIST*
G54D10*
G54D11*
X1Y-37022D02*
X1Y-272D01*
X29701Y-272D02*
X29701Y-37022D01*
X301Y-37322D02*
X29401Y-37322D01*
X1Y-37022D02*
G75*
G03X301Y-37322I299J0D01*
G74*
G01*
X29401Y-37322D02*
G75*
G03X29701Y-37022I0J300D01*
G74*
G01*
X301Y27D02*
G75*
G03X1Y-272I0J-300D01*
G74*
G01*
X29401Y27D02*
X301Y27D01*
X29701Y-272D02*
G75*
G03X29401Y27I-300J0D01*
G74*
G01*
G54D12*
X25101Y-35622D03*
X27601Y-34622D03*
G54D13*
X26101Y-33622D03*
G54D14*
X28101Y-33622D03*
X24101Y-33622D03*
G54D15*
X15639Y-4623D03*
X14064Y-1119D03*
X15638Y-1119D03*
X14064Y-4623D03*
G54D16*
X22286Y-21689D03*
X22286Y-22555D03*
X22916Y-21689D03*
X22916Y-22555D03*
G54D17*
X15984Y-24103D02*
X16400Y-24519D01*
X15761Y-24326D02*
X16177Y-24742D01*
X15539Y-24549D02*
X15954Y-24965D01*
X15316Y-24772D02*
X15732Y-25187D01*
X15093Y-24994D02*
X15509Y-25410D01*
X14870Y-25217D02*
X15286Y-25633D01*
X16207Y-23881D02*
X16622Y-24297D01*
X16429Y-23658D02*
X16845Y-24074D01*
X16652Y-23435D02*
X17068Y-23851D01*
X16875Y-23213D02*
X17291Y-23628D01*
X17098Y-22990D02*
X17513Y-23406D01*
X12802Y-20921D02*
X13218Y-21337D01*
X12579Y-21144D02*
X12995Y-21560D01*
X12357Y-21367D02*
X12772Y-21783D01*
X12134Y-21590D02*
X12550Y-22005D01*
X11911Y-21812D02*
X12327Y-22228D01*
X11688Y-22035D02*
X12104Y-22451D01*
X13025Y-20699D02*
X13441Y-21115D01*
X13247Y-20476D02*
X13663Y-20892D01*
X13470Y-20253D02*
X13886Y-20669D01*
X13693Y-20031D02*
X14109Y-20446D01*
X13916Y-19808D02*
X14331Y-20224D01*
X12802Y-24519D02*
X13218Y-24103D01*
X15984Y-21337D02*
X16400Y-20921D01*
X12579Y-24297D02*
X12995Y-23881D01*
X15761Y-21115D02*
X16177Y-20699D01*
X15539Y-20892D02*
X15954Y-20476D01*
X12357Y-24074D02*
X12772Y-23658D01*
X12134Y-23851D02*
X12550Y-23435D01*
X15316Y-20669D02*
X15732Y-20253D01*
X15093Y-20446D02*
X15509Y-20031D01*
X11911Y-23628D02*
X12327Y-23213D01*
X11688Y-23406D02*
X12104Y-22990D01*
X14870Y-20224D02*
X15286Y-19808D01*
X16207Y-21560D02*
X16622Y-21144D01*
X13025Y-24742D02*
X13441Y-24326D01*
X13247Y-24965D02*
X13663Y-24549D01*
X16429Y-21783D02*
X16845Y-21367D01*
X16652Y-22005D02*
X17068Y-21590D01*
X13470Y-25187D02*
X13886Y-24772D01*
X13693Y-25410D02*
X14109Y-24994D01*
X16875Y-22228D02*
X17291Y-21812D01*
X17098Y-22451D02*
X17513Y-22035D01*
X13916Y-25633D02*
X14331Y-25217D01*
G54D18*
X6551Y-4009D03*
X7301Y-4009D03*
G54D19*
X23801Y-21647D03*
X23801Y-20897D03*
X23801Y-22647D03*
X23801Y-23397D03*
X8901Y-23145D03*
X8901Y-23895D03*
G54D18*
X11771Y-20434D03*
X11021Y-20434D03*
X22226Y-23472D03*
X22976Y-23472D03*
X20726Y-21722D03*
X21476Y-21722D03*
X7801Y-5209D03*
X7051Y-5209D03*
G54D19*
X8751Y-5446D03*
X8751Y-4696D03*
X7901Y-24695D03*
X7901Y-23945D03*
G54D18*
X20726Y-20772D03*
X21476Y-20772D03*
G54D19*
X7901Y-23095D03*
X7901Y-22345D03*
G54D20*
X7225Y-16746D03*
X7225Y-18746D03*
X7225Y-20746D03*
X7225Y-17746D03*
X7225Y-19746D03*
X7225Y-15746D03*
G54D21*
X4101Y-7021D03*
X1101Y-7021D03*
G54D12*
X17601Y-28120D03*
X20101Y-27120D03*
G54D13*
X18601Y-26120D03*
G54D14*
X20601Y-26120D03*
X16601Y-26120D03*
G54D12*
X17601Y-13121D03*
X20101Y-12121D03*
G54D13*
X18601Y-11121D03*
G54D14*
X20601Y-11121D03*
X16601Y-11121D03*
G54D12*
X25101Y-5622D03*
X27601Y-4622D03*
G54D13*
X26101Y-3622D03*
G54D14*
X28101Y-3622D03*
X24101Y-3622D03*
G54D12*
X17601Y-5622D03*
X20101Y-4622D03*
G54D13*
X18601Y-3622D03*
G54D14*
X20601Y-3622D03*
X16601Y-3622D03*
G54D12*
X17601Y-20620D03*
X20101Y-19620D03*
G54D13*
X18601Y-18620D03*
G54D14*
X20601Y-18620D03*
X16601Y-18620D03*
G54D22*
X26601Y-1621D03*
G54D23*
X25601Y-1621D03*
G54D22*
X4101Y-1621D03*
G54D23*
X3101Y-1621D03*
G54D12*
X2601Y-5621D03*
X5101Y-4621D03*
G54D13*
X3601Y-3621D03*
G54D14*
X5601Y-3621D03*
X1601Y-3621D03*
G54D12*
X2601Y-28120D03*
X5101Y-27120D03*
G54D13*
X3601Y-26120D03*
G54D14*
X5601Y-26120D03*
X1601Y-26120D03*
G54D12*
X10101Y-28120D03*
X12601Y-27120D03*
G54D13*
X11101Y-26120D03*
G54D14*
X13101Y-26120D03*
X9101Y-26120D03*
G54D12*
X10101Y-35620D03*
X12601Y-34620D03*
G54D13*
X11101Y-33620D03*
G54D14*
X13101Y-33620D03*
X9101Y-33620D03*
G54D12*
X17601Y-35620D03*
X20101Y-34620D03*
G54D13*
X18601Y-33620D03*
G54D14*
X20601Y-33620D03*
X16601Y-33620D03*
G54D12*
X4601Y-31620D03*
X2101Y-32620D03*
G54D13*
X3601Y-33620D03*
G54D14*
X1601Y-33620D03*
X5601Y-33620D03*
G54D12*
X10101Y-20620D03*
X12601Y-19620D03*
G54D13*
X11101Y-18620D03*
G54D14*
X13101Y-18620D03*
X9101Y-18620D03*
G54D12*
X2601Y-20620D03*
X5101Y-19620D03*
G54D13*
X3601Y-18620D03*
G54D14*
X5601Y-18620D03*
X1601Y-18620D03*
G54D12*
X10101Y-13121D03*
X12601Y-12121D03*
G54D13*
X11101Y-11121D03*
G54D14*
X13101Y-11121D03*
X9101Y-11121D03*
G54D12*
X25101Y-28122D03*
X27601Y-27122D03*
G54D13*
X26101Y-26122D03*
G54D14*
X28101Y-26122D03*
X24101Y-26122D03*
G54D12*
X2601Y-13121D03*
X5101Y-12121D03*
G54D13*
X3601Y-11121D03*
G54D14*
X5601Y-11121D03*
X1601Y-11121D03*
G54D12*
X10101Y-5621D03*
X12601Y-4621D03*
G54D13*
X11101Y-3621D03*
G54D14*
X13101Y-3621D03*
X9101Y-3621D03*
G54D21*
X22751Y-1621D03*
X22751Y-4621D03*
X14601Y-7021D03*
X11601Y-7021D03*
X16101Y-6971D03*
X19101Y-6971D03*
G54D22*
X11601Y-1621D03*
G54D23*
X10601Y-1621D03*
G54D22*
X19101Y-1621D03*
G54D23*
X18101Y-1621D03*
G54D12*
X6351Y-35622D03*
X8851Y-34622D03*
G54D13*
X7351Y-33622D03*
G54D14*
X9351Y-33622D03*
X5351Y-33622D03*
G54D24*
X12051Y-36372D03*
X2651Y-36372D03*
G54D13*
X12051Y-30372D03*
X2651Y-30372D03*
G54D12*
X28101Y-30872D03*
X27101Y-28372D03*
G54D13*
X26101Y-29872D03*
G54D14*
X26101Y-27872D03*
X26101Y-31872D03*
G54D24*
X28851Y-25172D03*
X28851Y-34572D03*
G54D13*
X22851Y-25172D03*
X22851Y-34572D03*
G54D12*
X28101Y-15872D03*
X27101Y-13372D03*
G54D13*
X26101Y-14872D03*
G54D14*
X26101Y-12872D03*
X26101Y-16872D03*
G54D24*
X28851Y-10172D03*
X28851Y-19572D03*
G54D13*
X22851Y-10172D03*
X22851Y-19572D03*
G54D12*
X25101Y-13122D03*
X27601Y-12122D03*
G54D13*
X26101Y-11122D03*
G54D14*
X28101Y-11122D03*
X24101Y-11122D03*
G54D12*
X25101Y-20622D03*
X27601Y-19622D03*
G54D13*
X26101Y-18622D03*
G54D14*
X28101Y-18622D03*
X24101Y-18622D03*
G54D12*
X28101Y-23372D03*
X27101Y-20872D03*
G54D13*
X26101Y-22372D03*
G54D14*
X26101Y-20372D03*
X26101Y-24372D03*
G54D24*
X28851Y-17672D03*
X28851Y-27072D03*
G54D13*
X22851Y-17672D03*
X22851Y-27072D03*
G54D25*
X352Y-36620D03*
X29351Y-371D03*
X29352Y-36670D03*
X351Y-322D03*
G54D26*
X502Y-8121D03*
X502Y-8621D03*
X502Y-9121D03*
X502Y-9621D03*
X502Y-10121D03*
X502Y-11621D03*
X502Y-12121D03*
X502Y-12621D03*
X502Y-13121D03*
X502Y-15120D03*
X502Y-14620D03*
X502Y-14120D03*
G54D18*
X7726Y-25859D03*
X6976Y-25859D03*
X7726Y-26884D03*
X6976Y-26884D03*
G54D27*
X3803Y-21752D03*
X3803Y-22008D03*
X3803Y-22264D03*
X3803Y-22520D03*
X3803Y-22776D03*
X3803Y-23032D03*
X3803Y-23286D03*
X3803Y-23542D03*
X3803Y-23798D03*
X3803Y-24054D03*
X3803Y-24310D03*
X3803Y-24566D03*
X949Y-24566D03*
X949Y-24310D03*
X949Y-24054D03*
X949Y-23798D03*
X949Y-23542D03*
X949Y-23286D03*
X949Y-23032D03*
X949Y-22776D03*
X949Y-22520D03*
X949Y-22264D03*
X949Y-22008D03*
X949Y-21752D03*
G54D26*
X502Y-15620D03*
X502Y-16120D03*
G54D28*
X9104Y-775D03*
X5226Y-775D03*
G54D29*
X5226Y-2449D03*
X9104Y-2449D03*
G54D30*
X7165Y-2549D03*
X6850Y-2549D03*
X6535Y-2549D03*
X7480Y-2549D03*
X7795Y-2549D03*
G54D31*
X6299Y-1523D03*
X8031Y-1523D03*
G54D32*
X7351Y-29870D03*
X22351Y-29870D03*
X7351Y-7371D03*
X22351Y-7371D03*
G54D33*
X27351Y-16702D03*
X27351Y-18041D03*
X27351Y-9202D03*
X27351Y-10541D03*
X28270Y-5871D03*
X26932Y-5871D03*
X20770Y-28370D03*
X19432Y-28370D03*
X20770Y-16370D03*
X19432Y-16370D03*
X20770Y-13371D03*
X19432Y-13371D03*
X20770Y-5871D03*
X19432Y-5871D03*
X13270Y-28370D03*
X11932Y-28370D03*
X27351Y-31702D03*
X27351Y-33041D03*
X27351Y-24202D03*
X27351Y-25541D03*
X20770Y-35870D03*
X19432Y-35870D03*
X14770Y-35870D03*
X13432Y-35870D03*
X5270Y-35870D03*
X3932Y-35870D03*
X5770Y-20870D03*
X4432Y-20870D03*
X5770Y-5871D03*
X4432Y-5871D03*
X13270Y-16370D03*
X11932Y-16370D03*
X13270Y-13371D03*
X11932Y-13371D03*
X5770Y-28370D03*
X4432Y-28370D03*
X5770Y-13371D03*
X4432Y-13371D03*
X13270Y-5871D03*
X11932Y-5871D03*
M02*
