M48
;DRILL file {Pcbnew (2013-02-13 BZR 3947)-testing} date 9/17/2013 2:51:32 PM
;FORMAT={3:3/ absolute / metric / keep zeros}
FMAT,2
METRIC,TZ
T1C0.400
T2C0.813
T3C0.813
T4C0.900
T5C0.991
T6C1.499
T7C1.702
T8C2.499
T9C3.048
T10C3.988
%
G90
G05
M71
T1
X000892Y-000818
X000892Y-112702
X011848Y-015344
X012908Y-017575
X019527Y-067514
X020434Y-035301
X021780Y-054973
X023488Y-083270
X024461Y-061398
X027932Y-060509
X029011Y-050634
X029685Y-061633
X030170Y-044891
X030199Y-053442
X031755Y-052551
X032265Y-018712
X033051Y-070461
X034515Y-049798
X034900Y-054195
X034961Y-055584
X036101Y-062449
X036143Y-040564
X036163Y-046674
X036777Y-064980
X037085Y-060569
X038020Y-052940
X039208Y-071109
X039432Y-061020
X040656Y-058414
X040907Y-064313
X040907Y-070506
X042697Y-062555
X042731Y-050819
X045149Y-050516
X045388Y-060925
X054521Y-042188
X054521Y-064115
X063515Y-043510
X063515Y-054160
X069034Y-048195
X074552Y-000943
X074552Y-112702
T2
X002798Y-018088
X010417Y-018088
T3
X029467Y-018088
X037088Y-018088
X048518Y-018088
X056138Y-018088
X061218Y-018088
X068838Y-018088
T4
X016000Y-003870
X020400Y-003870
X021848Y-094922
X024388Y-094922
X026928Y-094922
X029468Y-094922
X032008Y-094922
X034548Y-094922
T5
X007877Y-004118
X010417Y-004118
X026928Y-004118
X029467Y-004118
X045978Y-004118
X048518Y-004118
X065028Y-004118
X067568Y-004118
T6
X006608Y-014278
X006608Y-033328
X006608Y-052377
X006608Y-071427
X006608Y-090477
X006608Y-109527
X012958Y-011737
X012958Y-030788
X012958Y-049837
X012958Y-068887
X012958Y-087937
X012958Y-106987
X025658Y-014278
X025658Y-033328
X025658Y-052377
X025658Y-071427
X025658Y-090477
X025658Y-109527
X032008Y-011737
X032008Y-030788
X032008Y-049837
X032008Y-068887
X032008Y-087937
X032008Y-106987
X044708Y-014280
X044708Y-033328
X044708Y-052377
X044708Y-071427
X044708Y-090477
X044708Y-109527
X051058Y-011740
X051058Y-030788
X051058Y-049837
X051058Y-068887
X051058Y-087937
X051058Y-106987
X063758Y-014280
X063758Y-109527
X068838Y-033962
X068838Y-072062
X070108Y-011740
X070108Y-106987
X071378Y-040312
X071378Y-078412
T7
X004068Y-009198
X004068Y-028247
X004068Y-047297
X004068Y-066347
X004068Y-085397
X004068Y-104447
X014227Y-009198
X014227Y-028247
X014227Y-047297
X014227Y-066347
X014227Y-085397
X014227Y-104447
X023118Y-009198
X023118Y-028247
X023118Y-047297
X023118Y-066347
X023118Y-085397
X023118Y-104447
X033278Y-009198
X033278Y-028247
X033278Y-047297
X033278Y-066347
X033278Y-085397
X033278Y-104447
X042168Y-009200
X042168Y-028247
X042168Y-047297
X042168Y-066347
X042168Y-085397
X042168Y-104447
X052328Y-009200
X052328Y-028247
X052328Y-047297
X052328Y-066347
X052328Y-085397
X052328Y-104447
X061218Y-009200
X061218Y-104447
X066298Y-032692
X066298Y-042852
X066298Y-070792
X066298Y-080952
X071378Y-009200
X071378Y-104447
T9
X073283Y-025834
X073283Y-049710
X073283Y-063934
X073283Y-087810
T10
X009148Y-009198
X009148Y-028247
X009148Y-047297
X009148Y-066347
X009148Y-085397
X009148Y-104447
X028197Y-009198
X028197Y-028247
X028197Y-047297
X028197Y-066347
X028197Y-085397
X028197Y-104447
X047248Y-009200
X047248Y-028247
X047248Y-047297
X047248Y-066347
X047248Y-085397
X047248Y-104447
X058043Y-025834
X058043Y-049710
X058043Y-063934
X058043Y-087810
X066298Y-009200
X066298Y-037772
X066298Y-075872
X066298Y-104447
T8
X-000792Y-056501G85X003709Y-056501
G05
T0
M30
