G04 (created by PCBNEW (2013-02-13 BZR 3947)-testing) date 11/23/2013 3:02:21 PM*
%MOIN*%
G04 Gerber Fmt 3.4, Leading zero omitted, Abs format*
%FSLAX34Y34*%
G01*
G70*
G90*
G04 APERTURE LIST*
%ADD10C,0*%
%ADD11C,0.0708661*%
%ADD12C,0.0629921*%
%ADD13C,0.09*%
%ADD14C,0.157*%
%ADD15C,0.067*%
%ADD16O,0.075X0.085*%
%ADD17R,0.075X0.085*%
%ADD18C,0.12*%
%ADD19C,0.0393701*%
%ADD20O,0.06X0.042*%
%ADD21C,0.0354331*%
%ADD22C,0.1969*%
%ADD23C,0.0314961*%
%ADD24C,0.00787402*%
%ADD25C,0.00708661*%
%ADD26C,0.019685*%
%ADD27C,0.015748*%
%ADD28C,0.01*%
G04 APERTURE END LIST*
G54D10*
G54D11*
X7225Y-16746D03*
X7225Y-18746D03*
X7225Y-20746D03*
X7225Y-17746D03*
X7225Y-19746D03*
X7225Y-15746D03*
G54D12*
X4101Y-7021D03*
X1101Y-7021D03*
G54D13*
X4601Y-39120D03*
X2101Y-40120D03*
G54D14*
X3601Y-41120D03*
G54D15*
X1601Y-41120D03*
X5601Y-41120D03*
G54D13*
X17601Y-28120D03*
X20101Y-27120D03*
G54D14*
X18601Y-26120D03*
G54D15*
X20601Y-26120D03*
X16601Y-26120D03*
G54D13*
X17601Y-13121D03*
X20101Y-12121D03*
G54D14*
X18601Y-11121D03*
G54D15*
X20601Y-11121D03*
X16601Y-11121D03*
G54D13*
X25101Y-5622D03*
X27601Y-4622D03*
G54D14*
X26101Y-3622D03*
G54D15*
X28101Y-3622D03*
X24101Y-3622D03*
G54D13*
X17601Y-5622D03*
X20101Y-4622D03*
G54D14*
X18601Y-3622D03*
G54D15*
X20601Y-3622D03*
X16601Y-3622D03*
G54D13*
X17601Y-20620D03*
X20101Y-19620D03*
G54D14*
X18601Y-18620D03*
G54D15*
X20601Y-18620D03*
X16601Y-18620D03*
G54D13*
X10101Y-43122D03*
X12601Y-42122D03*
G54D14*
X11101Y-41122D03*
G54D15*
X13101Y-41122D03*
X9101Y-41122D03*
G54D16*
X26601Y-1621D03*
G54D17*
X25601Y-1621D03*
G54D16*
X4101Y-1621D03*
G54D17*
X3101Y-1621D03*
G54D13*
X2601Y-5621D03*
X5101Y-4621D03*
G54D14*
X3601Y-3621D03*
G54D15*
X5601Y-3621D03*
X1601Y-3621D03*
G54D13*
X2601Y-28120D03*
X5101Y-27120D03*
G54D14*
X3601Y-26120D03*
G54D15*
X5601Y-26120D03*
X1601Y-26120D03*
G54D13*
X10101Y-28120D03*
X12601Y-27120D03*
G54D14*
X11101Y-26120D03*
G54D15*
X13101Y-26120D03*
X9101Y-26120D03*
G54D13*
X10101Y-35620D03*
X12601Y-34620D03*
G54D14*
X11101Y-33620D03*
G54D15*
X13101Y-33620D03*
X9101Y-33620D03*
G54D13*
X17601Y-35620D03*
X20101Y-34620D03*
G54D14*
X18601Y-33620D03*
G54D15*
X20601Y-33620D03*
X16601Y-33620D03*
G54D13*
X4601Y-31620D03*
X2101Y-32620D03*
G54D14*
X3601Y-33620D03*
G54D15*
X1601Y-33620D03*
X5601Y-33620D03*
G54D13*
X10101Y-20620D03*
X12601Y-19620D03*
G54D14*
X11101Y-18620D03*
G54D15*
X13101Y-18620D03*
X9101Y-18620D03*
G54D13*
X2601Y-20620D03*
X5101Y-19620D03*
G54D14*
X3601Y-18620D03*
G54D15*
X5601Y-18620D03*
X1601Y-18620D03*
G54D13*
X10101Y-13121D03*
X12601Y-12121D03*
G54D14*
X11101Y-11121D03*
G54D15*
X13101Y-11121D03*
X9101Y-11121D03*
G54D13*
X25101Y-35622D03*
X27601Y-34622D03*
G54D14*
X26101Y-33622D03*
G54D15*
X28101Y-33622D03*
X24101Y-33622D03*
G54D13*
X25101Y-28122D03*
X27601Y-27122D03*
G54D14*
X26101Y-26122D03*
G54D15*
X28101Y-26122D03*
X24101Y-26122D03*
G54D13*
X2601Y-13121D03*
X5101Y-12121D03*
G54D14*
X3601Y-11121D03*
G54D15*
X5601Y-11121D03*
X1601Y-11121D03*
G54D13*
X10101Y-5621D03*
X12601Y-4621D03*
G54D14*
X11101Y-3621D03*
G54D15*
X13101Y-3621D03*
X9101Y-3621D03*
G54D12*
X22751Y-1621D03*
X22751Y-4621D03*
X14601Y-7021D03*
X11601Y-7021D03*
X16101Y-6971D03*
X19101Y-6971D03*
G54D16*
X11601Y-1621D03*
G54D17*
X10601Y-1621D03*
G54D16*
X19101Y-1621D03*
G54D17*
X18101Y-1621D03*
G54D13*
X6351Y-35622D03*
X8851Y-34622D03*
G54D14*
X7351Y-33622D03*
G54D15*
X9351Y-33622D03*
X5351Y-33622D03*
G54D18*
X12051Y-36372D03*
X2651Y-36372D03*
G54D14*
X12051Y-30372D03*
X2651Y-30372D03*
G54D13*
X28101Y-30872D03*
X27101Y-28372D03*
G54D14*
X26101Y-29872D03*
G54D15*
X26101Y-27872D03*
X26101Y-31872D03*
G54D18*
X28851Y-25172D03*
X28851Y-34572D03*
G54D14*
X22851Y-25172D03*
X22851Y-34572D03*
G54D13*
X28101Y-15872D03*
X27101Y-13372D03*
G54D14*
X26101Y-14872D03*
G54D15*
X26101Y-12872D03*
X26101Y-16872D03*
G54D18*
X28851Y-10172D03*
X28851Y-19572D03*
G54D14*
X22851Y-10172D03*
X22851Y-19572D03*
G54D13*
X17601Y-43122D03*
X20101Y-42122D03*
G54D14*
X18601Y-41122D03*
G54D15*
X20601Y-41122D03*
X16601Y-41122D03*
G54D13*
X25101Y-43122D03*
X27601Y-42122D03*
G54D14*
X26101Y-41122D03*
G54D15*
X28101Y-41122D03*
X24101Y-41122D03*
G54D13*
X25101Y-13122D03*
X27601Y-12122D03*
G54D14*
X26101Y-11122D03*
G54D15*
X28101Y-11122D03*
X24101Y-11122D03*
G54D13*
X25101Y-20622D03*
X27601Y-19622D03*
G54D14*
X26101Y-18622D03*
G54D15*
X28101Y-18622D03*
X24101Y-18622D03*
G54D13*
X6351Y-43122D03*
X8851Y-42122D03*
G54D14*
X7351Y-41122D03*
G54D15*
X9351Y-41122D03*
X5351Y-41122D03*
G54D18*
X12051Y-43872D03*
X2651Y-43872D03*
G54D14*
X12051Y-37872D03*
X2651Y-37872D03*
G54D13*
X28101Y-23372D03*
X27101Y-20872D03*
G54D14*
X26101Y-22372D03*
G54D15*
X26101Y-20372D03*
X26101Y-24372D03*
G54D18*
X28851Y-17672D03*
X28851Y-27072D03*
G54D14*
X22851Y-17672D03*
X22851Y-27072D03*
G54D13*
X28101Y-38372D03*
X27101Y-35872D03*
G54D14*
X26101Y-37372D03*
G54D15*
X26101Y-35372D03*
X26101Y-39372D03*
G54D18*
X28851Y-32672D03*
X28851Y-42072D03*
G54D14*
X22851Y-32672D03*
X22851Y-42072D03*
G54D19*
X352Y-36620D03*
X29351Y-371D03*
X29352Y-36670D03*
X351Y-322D03*
X29351Y-44372D03*
X351Y-44372D03*
G54D20*
X502Y-8121D03*
X502Y-8621D03*
X502Y-9121D03*
X502Y-9621D03*
X502Y-10121D03*
X502Y-10621D03*
X502Y-11621D03*
X502Y-12121D03*
X502Y-12621D03*
X502Y-13121D03*
G54D19*
X29501Y-37322D03*
X28202Y-37320D03*
X24702Y-37320D03*
X23202Y-37320D03*
X21702Y-37320D03*
X20202Y-37320D03*
G54D20*
X502Y-15120D03*
X502Y-14620D03*
X502Y-14120D03*
G54D19*
X18702Y-37320D03*
X17202Y-37320D03*
X15702Y-37320D03*
X14202Y-37320D03*
X10202Y-37320D03*
X8702Y-37320D03*
X7202Y-37320D03*
X5702Y-37320D03*
X4202Y-37320D03*
X1202Y-37320D03*
X201Y-37322D03*
G54D20*
X502Y-15620D03*
X502Y-16120D03*
G54D21*
X6299Y-1523D03*
X8031Y-1523D03*
G54D22*
X7351Y-29870D03*
X22351Y-29870D03*
X7351Y-7371D03*
X14851Y-39970D03*
X22351Y-7371D03*
G54D23*
X16727Y-18048D03*
X18324Y-19645D03*
X21120Y-2880D03*
X8701Y-17416D03*
X6500Y-25205D03*
X16162Y-25205D03*
X3952Y-12257D03*
G54D19*
X13301Y-36522D03*
X15301Y-36522D03*
G54D23*
X19988Y-13003D03*
X17031Y-14617D03*
X22248Y-14144D03*
X6086Y-14036D03*
X7278Y-13862D03*
X3931Y-8422D03*
X8690Y-19746D03*
X12376Y-20897D03*
X16469Y-20523D03*
X3103Y-22724D03*
X5328Y-20907D03*
X4337Y-23053D03*
X13723Y-21453D03*
X14205Y-20809D03*
X3232Y-22218D03*
X17028Y-11795D03*
X2698Y-9686D03*
X14024Y-10032D03*
X22539Y-12865D03*
X13296Y-19747D03*
X2800Y-22246D03*
X2596Y-15045D03*
X1141Y-11863D03*
X10030Y-18115D03*
X3271Y-24443D03*
X6516Y-26685D03*
X908Y-21434D03*
X4246Y-24845D03*
X6385Y-25871D03*
X8288Y-21147D03*
X11524Y-21154D03*
X8275Y-16975D03*
X9398Y-14897D03*
G54D19*
X8051Y-36522D03*
X11101Y-35272D03*
X15451Y-35072D03*
X15651Y-36022D03*
X22651Y-36372D03*
X8176Y-2662D03*
X13527Y-23905D03*
X15639Y-3723D03*
X5799Y-23905D03*
X16761Y-24782D03*
X11174Y-22842D03*
X15900Y-23596D03*
X8706Y-24360D03*
G54D23*
X22606Y-21164D03*
X13297Y-21862D03*
X23354Y-22147D03*
X14027Y-22147D03*
X7381Y-24915D03*
X12498Y-24915D03*
X8234Y-4671D03*
X14966Y-23458D03*
X17682Y-22855D03*
X14434Y-23658D03*
X20190Y-21015D03*
X18047Y-21170D03*
G54D19*
X6160Y-2323D03*
X12939Y-22548D03*
X6969Y-22537D03*
X21780Y-22513D03*
X20537Y-22513D03*
X15707Y-19722D03*
X25084Y-2733D03*
X16530Y-22513D03*
X4448Y-23738D03*
G54D24*
X16727Y-18048D02*
X18324Y-19645D01*
X22379Y-1621D02*
X21120Y-2880D01*
X22751Y-1621D02*
X22379Y-1621D01*
X7895Y-17416D02*
X8701Y-17416D01*
X7225Y-16746D02*
X7895Y-17416D01*
X16162Y-25205D02*
X6500Y-25205D01*
X502Y-12121D02*
X920Y-12121D01*
X1056Y-12257D02*
X920Y-12121D01*
X3952Y-12257D02*
X1056Y-12257D01*
G54D25*
X15301Y-36522D02*
X13301Y-36522D01*
G54D24*
X1006Y-12535D02*
X920Y-12621D01*
X3738Y-12535D02*
X1006Y-12535D01*
X3912Y-12709D02*
X3738Y-12535D01*
X9512Y-12709D02*
X3912Y-12709D01*
X9689Y-12532D02*
X9512Y-12709D01*
X10377Y-12532D02*
X9689Y-12532D01*
X10541Y-12696D02*
X10377Y-12532D01*
X17025Y-12696D02*
X10541Y-12696D01*
X17171Y-12551D02*
X17025Y-12696D01*
X17933Y-12551D02*
X17171Y-12551D01*
X18385Y-13003D02*
X17933Y-12551D01*
X19988Y-13003D02*
X18385Y-13003D01*
X502Y-12621D02*
X920Y-12621D01*
X502Y-13121D02*
X502Y-13449D01*
X9390Y-14617D02*
X17031Y-14617D01*
X8346Y-13573D02*
X9390Y-14617D01*
X3533Y-13573D02*
X8346Y-13573D01*
X3395Y-13710D02*
X3533Y-13573D01*
X763Y-13710D02*
X3395Y-13710D01*
X502Y-13449D02*
X763Y-13710D01*
X21774Y-14617D02*
X22248Y-14144D01*
X17031Y-14617D02*
X21774Y-14617D01*
X502Y-14120D02*
X920Y-14120D01*
X1005Y-14036D02*
X6086Y-14036D01*
X920Y-14120D02*
X1005Y-14036D01*
X2529Y-7021D02*
X1101Y-7021D01*
X3931Y-8422D02*
X2529Y-7021D01*
X7104Y-14036D02*
X7278Y-13862D01*
X6086Y-14036D02*
X7104Y-14036D01*
X7225Y-19746D02*
X8690Y-19746D01*
X12750Y-20523D02*
X16469Y-20523D01*
X12376Y-20897D02*
X12750Y-20523D01*
X17600Y-5621D02*
X10101Y-5621D01*
X17601Y-5622D02*
X17600Y-5621D01*
X25101Y-5622D02*
X17601Y-5622D01*
X11843Y-21430D02*
X12376Y-20897D01*
X7131Y-21430D02*
X11843Y-21430D01*
X6331Y-20630D02*
X7131Y-21430D01*
X5215Y-20630D02*
X6331Y-20630D01*
X3121Y-22724D02*
X5215Y-20630D01*
X3103Y-22724D02*
X3121Y-22724D01*
X2601Y-13121D02*
X10101Y-13121D01*
X17601Y-13121D02*
X10101Y-13121D01*
X25101Y-13132D02*
X25101Y-13122D01*
X28101Y-15594D02*
X28101Y-15872D01*
X25639Y-13132D02*
X28101Y-15594D01*
X25101Y-13132D02*
X25639Y-13132D01*
X5906Y-21484D02*
X4337Y-23053D01*
X5328Y-20907D02*
X5906Y-21484D01*
X24954Y-13279D02*
X25101Y-13132D01*
X17760Y-13279D02*
X24954Y-13279D01*
X17601Y-13121D02*
X17760Y-13279D01*
X13590Y-21586D02*
X13723Y-21453D01*
X12300Y-21586D02*
X13590Y-21586D01*
X12299Y-21587D02*
X12300Y-21586D01*
X6009Y-21587D02*
X12299Y-21587D01*
X5906Y-21484D02*
X6009Y-21587D01*
X2776Y-20620D02*
X2601Y-20620D01*
X2776Y-21762D02*
X3232Y-22218D01*
X2776Y-20620D02*
X2776Y-21762D01*
X17602Y-20622D02*
X25101Y-20622D01*
X17601Y-20620D02*
X17602Y-20622D01*
X28101Y-23094D02*
X28101Y-23372D01*
X25629Y-20622D02*
X28101Y-23094D01*
X25101Y-20622D02*
X25629Y-20622D01*
X13960Y-9121D02*
X502Y-9121D01*
X16634Y-11795D02*
X13960Y-9121D01*
X17028Y-11795D02*
X16634Y-11795D01*
X16597Y-20809D02*
X16880Y-20526D01*
X14205Y-20809D02*
X16597Y-20809D01*
X16975Y-20620D02*
X16880Y-20526D01*
X17601Y-20620D02*
X16975Y-20620D01*
X10364Y-20357D02*
X10101Y-20620D01*
X16174Y-20357D02*
X10364Y-20357D01*
X16289Y-20242D02*
X16174Y-20357D01*
X16597Y-20242D02*
X16289Y-20242D01*
X16880Y-20526D02*
X16597Y-20242D01*
X9750Y-20270D02*
X10101Y-20620D01*
X3127Y-20270D02*
X9750Y-20270D01*
X2776Y-20620D02*
X3127Y-20270D01*
X25644Y-28122D02*
X25101Y-28122D01*
X28101Y-30578D02*
X25644Y-28122D01*
X28101Y-30872D02*
X28101Y-30578D01*
X17602Y-28122D02*
X17601Y-28120D01*
X25101Y-28122D02*
X17602Y-28122D01*
X10101Y-28120D02*
X17601Y-28120D01*
X502Y-9621D02*
X920Y-9621D01*
X2698Y-9686D02*
X2698Y-9686D01*
X985Y-9686D02*
X2698Y-9686D01*
X920Y-9621D02*
X985Y-9686D01*
X2601Y-28120D02*
X10101Y-28120D01*
X502Y-10121D02*
X920Y-10121D01*
X10100Y-35622D02*
X10101Y-35620D01*
X6351Y-35622D02*
X10100Y-35622D01*
X17602Y-35622D02*
X25101Y-35622D01*
X17601Y-35620D02*
X17602Y-35622D01*
X28101Y-38083D02*
X28101Y-38372D01*
X25639Y-35622D02*
X28101Y-38083D01*
X25101Y-35622D02*
X25639Y-35622D01*
X17601Y-35620D02*
X10101Y-35620D01*
X10101Y-33711D02*
X10101Y-35620D01*
X8010Y-31620D02*
X10101Y-33711D01*
X4601Y-31620D02*
X8010Y-31620D01*
X1008Y-10032D02*
X920Y-10121D01*
X14024Y-10032D02*
X1008Y-10032D01*
X16062Y-12071D02*
X14024Y-10032D01*
X17675Y-12071D02*
X16062Y-12071D01*
X18325Y-12720D02*
X17675Y-12071D01*
X22395Y-12720D02*
X18325Y-12720D01*
X22539Y-12865D02*
X22395Y-12720D01*
X6351Y-43122D02*
X10101Y-43122D01*
X6351Y-40870D02*
X4601Y-39120D01*
X6351Y-43122D02*
X6351Y-40870D01*
X4174Y-19717D02*
X2698Y-19717D01*
X4861Y-19029D02*
X4174Y-19717D01*
X5368Y-19029D02*
X4861Y-19029D01*
X5559Y-19219D02*
X5368Y-19029D01*
X9922Y-19219D02*
X5559Y-19219D01*
X10896Y-20193D02*
X9922Y-19219D01*
X12850Y-20193D02*
X10896Y-20193D01*
X13296Y-19747D02*
X12850Y-20193D01*
X2027Y-21474D02*
X2800Y-22246D01*
X2027Y-20387D02*
X2027Y-21474D01*
X2698Y-19717D02*
X2027Y-20387D01*
X2596Y-19614D02*
X2596Y-15045D01*
X2698Y-19717D02*
X2596Y-19614D01*
X1141Y-11588D02*
X502Y-10949D01*
X1141Y-11863D02*
X1141Y-11588D01*
X502Y-10621D02*
X502Y-10949D01*
X10101Y-43122D02*
X17601Y-43122D01*
X17601Y-43122D02*
X25101Y-43122D01*
X7856Y-18115D02*
X10030Y-18115D01*
X7225Y-18746D02*
X7856Y-18115D01*
X920Y-16291D02*
X920Y-15620D01*
X632Y-16579D02*
X920Y-16291D01*
X632Y-21804D02*
X632Y-16579D01*
X3271Y-24443D02*
X632Y-21804D01*
X502Y-15620D02*
X920Y-15620D01*
X5513Y-26685D02*
X6516Y-26685D01*
X3271Y-24443D02*
X5513Y-26685D01*
X4246Y-24772D02*
X4246Y-24845D01*
X908Y-21434D02*
X4246Y-24772D01*
X5360Y-24845D02*
X6385Y-25871D01*
X4246Y-24845D02*
X5360Y-24845D01*
X7887Y-20746D02*
X8288Y-21147D01*
X7225Y-20746D02*
X7887Y-20746D01*
X8351Y-21210D02*
X8288Y-21147D01*
X11468Y-21210D02*
X8351Y-21210D01*
X11524Y-21154D02*
X11468Y-21210D01*
X9398Y-15853D02*
X9398Y-14897D01*
X8275Y-16975D02*
X9398Y-15853D01*
G54D26*
X1901Y-35072D02*
X352Y-36620D01*
X4351Y-35072D02*
X1901Y-35072D01*
X4651Y-35372D02*
X4351Y-35072D01*
X4651Y-36422D02*
X4651Y-35372D01*
X4751Y-36522D02*
X4651Y-36422D01*
X8051Y-36522D02*
X4751Y-36522D01*
X13251Y-35272D02*
X11101Y-35272D01*
X13451Y-35072D02*
X13251Y-35272D01*
X15451Y-35072D02*
X13451Y-35072D01*
X16451Y-36822D02*
X15651Y-36022D01*
X22201Y-36822D02*
X16451Y-36822D01*
X22651Y-36372D02*
X22201Y-36822D01*
G54D27*
X5836Y-322D02*
X8176Y-2662D01*
X351Y-322D02*
X5836Y-322D01*
X14578Y-2662D02*
X8176Y-2662D01*
X15639Y-3723D02*
X14578Y-2662D01*
X502Y-15120D02*
X959Y-15120D01*
X13595Y-23973D02*
X13527Y-23905D01*
X15523Y-23973D02*
X13595Y-23973D01*
X15900Y-23596D02*
X15523Y-23973D01*
X16761Y-23738D02*
X16761Y-24782D01*
X16619Y-23596D02*
X16761Y-23738D01*
X15900Y-23596D02*
X16619Y-23596D01*
X11174Y-22842D02*
X11174Y-23905D01*
X11174Y-23905D02*
X13527Y-23905D01*
X5607Y-24096D02*
X5799Y-23905D01*
X4011Y-24096D02*
X5607Y-24096D01*
X1830Y-21915D02*
X4011Y-24096D01*
X1830Y-19783D02*
X1830Y-21915D01*
X2095Y-19518D02*
X1830Y-19783D01*
X2095Y-16256D02*
X2095Y-19518D01*
X959Y-15120D02*
X2095Y-16256D01*
X8706Y-23905D02*
X8706Y-24360D01*
X11174Y-23905D02*
X8706Y-23905D01*
X8706Y-23905D02*
X5799Y-23905D01*
G54D24*
X23750Y-4621D02*
X22751Y-4621D01*
X26207Y-2164D02*
X23750Y-4621D01*
X26601Y-2164D02*
X26207Y-2164D01*
X26601Y-1621D02*
X26601Y-2164D01*
X21908Y-21862D02*
X22606Y-21164D01*
X13297Y-21862D02*
X21908Y-21862D01*
X23354Y-22147D02*
X14027Y-22147D01*
X7381Y-24915D02*
X12498Y-24915D01*
X15143Y-23281D02*
X14966Y-23458D01*
X26610Y-23281D02*
X15143Y-23281D01*
X27271Y-23942D02*
X26610Y-23281D01*
X28363Y-23942D02*
X27271Y-23942D01*
X29579Y-22726D02*
X28363Y-23942D01*
X29579Y-16541D02*
X29579Y-22726D01*
X27101Y-14064D02*
X29579Y-16541D01*
X26990Y-14064D02*
X27101Y-14064D01*
X26531Y-13605D02*
X26990Y-14064D01*
X26531Y-13083D02*
X26531Y-13605D01*
X26554Y-13059D02*
X26531Y-13083D01*
X26554Y-12684D02*
X26554Y-13059D01*
X26009Y-12138D02*
X26554Y-12684D01*
X25824Y-12138D02*
X26009Y-12138D01*
X25069Y-11384D02*
X25824Y-12138D01*
X25069Y-11112D02*
X25069Y-11384D01*
X22731Y-8774D02*
X25069Y-11112D01*
X12337Y-8774D02*
X22731Y-8774D01*
X8234Y-4671D02*
X12337Y-8774D01*
X14434Y-23573D02*
X14434Y-23658D01*
X15152Y-22855D02*
X14434Y-23573D01*
X17682Y-22855D02*
X15152Y-22855D01*
X18202Y-21015D02*
X18047Y-21170D01*
X20190Y-21015D02*
X18202Y-21015D01*
X27101Y-27622D02*
X27101Y-28372D01*
X27601Y-27122D02*
X27101Y-27622D01*
X5268Y-32620D02*
X2101Y-32620D01*
X6158Y-33511D02*
X5268Y-32620D01*
X6158Y-33717D02*
X6158Y-33511D01*
X7063Y-34622D02*
X6158Y-33717D01*
X8851Y-34622D02*
X7063Y-34622D01*
X27601Y-12872D02*
X27601Y-12122D01*
X27101Y-13372D02*
X27601Y-12872D01*
X4512Y-6610D02*
X4101Y-7021D01*
X4512Y-1957D02*
X4512Y-6610D01*
X4594Y-1875D02*
X4512Y-1957D01*
X4594Y-1621D02*
X4594Y-1875D01*
X4101Y-1621D02*
X4594Y-1621D01*
G54D27*
X11193Y-1028D02*
X10601Y-1621D01*
X16976Y-1028D02*
X11193Y-1028D01*
X17568Y-1621D02*
X16976Y-1028D01*
X18101Y-1621D02*
X17568Y-1621D01*
X502Y-14620D02*
X959Y-14620D01*
X3686Y-1036D02*
X3101Y-1621D01*
X4873Y-1036D02*
X3686Y-1036D01*
X6160Y-2323D02*
X4873Y-1036D01*
X20537Y-22513D02*
X21780Y-22513D01*
X4099Y-14620D02*
X7225Y-17746D01*
X959Y-14620D02*
X4099Y-14620D01*
X8972Y-17746D02*
X7225Y-17746D01*
X9042Y-17676D02*
X8972Y-17746D01*
X13661Y-17676D02*
X9042Y-17676D01*
X15707Y-19722D02*
X13661Y-17676D01*
X25084Y-2720D02*
X25084Y-2733D01*
X25601Y-2203D02*
X25084Y-2720D01*
X25601Y-1621D02*
X25601Y-2203D01*
X12975Y-22513D02*
X16530Y-22513D01*
X12939Y-22548D02*
X12975Y-22513D01*
X16530Y-22513D02*
X20537Y-22513D01*
X7018Y-22488D02*
X6969Y-22537D01*
X12880Y-22488D02*
X7018Y-22488D01*
X12939Y-22548D02*
X12880Y-22488D01*
X5649Y-22537D02*
X4448Y-23738D01*
X6969Y-22537D02*
X5649Y-22537D01*
G54D10*
G36*
X9158Y-15754D02*
X8294Y-16618D01*
X8204Y-16618D01*
X8073Y-16672D01*
X7972Y-16773D01*
X7918Y-16904D01*
X7918Y-17046D01*
X7956Y-17139D01*
X7834Y-17017D01*
X7834Y-15841D01*
X7823Y-15601D01*
X7751Y-15426D01*
X7650Y-15392D01*
X7579Y-15463D01*
X7579Y-15321D01*
X7545Y-15220D01*
X7319Y-15138D01*
X7079Y-15148D01*
X6904Y-15220D01*
X6870Y-15321D01*
X7225Y-15676D01*
X7579Y-15321D01*
X7579Y-15463D01*
X7295Y-15746D01*
X7650Y-16101D01*
X7751Y-16067D01*
X7834Y-15841D01*
X7834Y-17017D01*
X7748Y-16931D01*
X7779Y-16857D01*
X7779Y-16637D01*
X7695Y-16433D01*
X7539Y-16277D01*
X7537Y-16276D01*
X7545Y-16273D01*
X7579Y-16172D01*
X7225Y-15817D01*
X7154Y-15888D01*
X7154Y-15746D01*
X6799Y-15392D01*
X6698Y-15426D01*
X6616Y-15652D01*
X6626Y-15892D01*
X6698Y-16067D01*
X6799Y-16101D01*
X7154Y-15746D01*
X7154Y-15888D01*
X6870Y-16172D01*
X6904Y-16273D01*
X6912Y-16276D01*
X6911Y-16276D01*
X6755Y-16432D01*
X6670Y-16636D01*
X6670Y-16798D01*
X4296Y-14423D01*
X4205Y-14363D01*
X4099Y-14342D01*
X4099Y-14342D01*
X1011Y-14342D01*
X1012Y-14342D01*
X1012Y-14342D01*
X1089Y-14290D01*
X1104Y-14275D01*
X5820Y-14275D01*
X5883Y-14338D01*
X6015Y-14393D01*
X6157Y-14393D01*
X6288Y-14339D01*
X6352Y-14275D01*
X7104Y-14275D01*
X7195Y-14257D01*
X7195Y-14257D01*
X7251Y-14219D01*
X7348Y-14219D01*
X7480Y-14165D01*
X7580Y-14065D01*
X7635Y-13933D01*
X7635Y-13812D01*
X8247Y-13812D01*
X9112Y-14677D01*
X9095Y-14694D01*
X9040Y-14825D01*
X9040Y-14968D01*
X9094Y-15099D01*
X9158Y-15163D01*
X9158Y-15754D01*
X9158Y-15754D01*
G37*
G54D28*
X9158Y-15754D02*
X8294Y-16618D01*
X8204Y-16618D01*
X8073Y-16672D01*
X7972Y-16773D01*
X7918Y-16904D01*
X7918Y-17046D01*
X7956Y-17139D01*
X7834Y-17017D01*
X7834Y-15841D01*
X7823Y-15601D01*
X7751Y-15426D01*
X7650Y-15392D01*
X7579Y-15463D01*
X7579Y-15321D01*
X7545Y-15220D01*
X7319Y-15138D01*
X7079Y-15148D01*
X6904Y-15220D01*
X6870Y-15321D01*
X7225Y-15676D01*
X7579Y-15321D01*
X7579Y-15463D01*
X7295Y-15746D01*
X7650Y-16101D01*
X7751Y-16067D01*
X7834Y-15841D01*
X7834Y-17017D01*
X7748Y-16931D01*
X7779Y-16857D01*
X7779Y-16637D01*
X7695Y-16433D01*
X7539Y-16277D01*
X7537Y-16276D01*
X7545Y-16273D01*
X7579Y-16172D01*
X7225Y-15817D01*
X7154Y-15888D01*
X7154Y-15746D01*
X6799Y-15392D01*
X6698Y-15426D01*
X6616Y-15652D01*
X6626Y-15892D01*
X6698Y-16067D01*
X6799Y-16101D01*
X7154Y-15746D01*
X7154Y-15888D01*
X6870Y-16172D01*
X6904Y-16273D01*
X6912Y-16276D01*
X6911Y-16276D01*
X6755Y-16432D01*
X6670Y-16636D01*
X6670Y-16798D01*
X4296Y-14423D01*
X4205Y-14363D01*
X4099Y-14342D01*
X4099Y-14342D01*
X1011Y-14342D01*
X1012Y-14342D01*
X1012Y-14342D01*
X1089Y-14290D01*
X1104Y-14275D01*
X5820Y-14275D01*
X5883Y-14338D01*
X6015Y-14393D01*
X6157Y-14393D01*
X6288Y-14339D01*
X6352Y-14275D01*
X7104Y-14275D01*
X7195Y-14257D01*
X7195Y-14257D01*
X7251Y-14219D01*
X7348Y-14219D01*
X7480Y-14165D01*
X7580Y-14065D01*
X7635Y-13933D01*
X7635Y-13812D01*
X8247Y-13812D01*
X9112Y-14677D01*
X9095Y-14694D01*
X9040Y-14825D01*
X9040Y-14968D01*
X9094Y-15099D01*
X9158Y-15163D01*
X9158Y-15754D01*
G54D10*
G36*
X29481Y-9671D02*
X29305Y-9494D01*
X29011Y-9372D01*
X28693Y-9371D01*
X28636Y-9395D01*
X28636Y-3516D01*
X28555Y-3319D01*
X28405Y-3168D01*
X28208Y-3087D01*
X27995Y-3086D01*
X27798Y-3168D01*
X27648Y-3318D01*
X27566Y-3515D01*
X27566Y-3727D01*
X27647Y-3924D01*
X27695Y-3972D01*
X27472Y-3971D01*
X27233Y-4070D01*
X27176Y-4127D01*
X27176Y-1683D01*
X27176Y-1558D01*
X27132Y-1338D01*
X27008Y-1152D01*
X26821Y-1027D01*
X26601Y-983D01*
X26381Y-1027D01*
X26194Y-1152D01*
X26176Y-1179D01*
X26176Y-1156D01*
X26146Y-1082D01*
X26090Y-1026D01*
X26016Y-996D01*
X25936Y-996D01*
X25186Y-996D01*
X25113Y-1026D01*
X25057Y-1082D01*
X25026Y-1156D01*
X25026Y-1235D01*
X25026Y-2085D01*
X25056Y-2159D01*
X25113Y-2215D01*
X25171Y-2239D01*
X25074Y-2336D01*
X25005Y-2336D01*
X24859Y-2396D01*
X24748Y-2508D01*
X24687Y-2654D01*
X24687Y-2812D01*
X24747Y-2958D01*
X24859Y-3069D01*
X24932Y-3100D01*
X24601Y-3431D01*
X24555Y-3319D01*
X24405Y-3168D01*
X24208Y-3087D01*
X23995Y-3086D01*
X23798Y-3168D01*
X23648Y-3318D01*
X23566Y-3515D01*
X23566Y-3727D01*
X23647Y-3924D01*
X23798Y-4075D01*
X23911Y-4122D01*
X23651Y-4381D01*
X23266Y-4381D01*
X23266Y-1519D01*
X23187Y-1329D01*
X23043Y-1184D01*
X22854Y-1106D01*
X22649Y-1106D01*
X22459Y-1184D01*
X22314Y-1328D01*
X22284Y-1402D01*
X22210Y-1451D01*
X22210Y-1451D01*
X21139Y-2522D01*
X21050Y-2522D01*
X20918Y-2576D01*
X20817Y-2677D01*
X20763Y-2808D01*
X20763Y-2950D01*
X20817Y-3082D01*
X20903Y-3168D01*
X20708Y-3087D01*
X20495Y-3086D01*
X20298Y-3168D01*
X20148Y-3318D01*
X20066Y-3515D01*
X20066Y-3727D01*
X20147Y-3924D01*
X20195Y-3972D01*
X19972Y-3971D01*
X19733Y-4070D01*
X19676Y-4127D01*
X19676Y-1683D01*
X19676Y-1558D01*
X19632Y-1338D01*
X19508Y-1152D01*
X19321Y-1027D01*
X19101Y-983D01*
X18881Y-1027D01*
X18694Y-1152D01*
X18676Y-1179D01*
X18676Y-1156D01*
X18646Y-1082D01*
X18590Y-1026D01*
X18516Y-996D01*
X18436Y-996D01*
X17686Y-996D01*
X17613Y-1026D01*
X17557Y-1082D01*
X17526Y-1156D01*
X17526Y-1184D01*
X17173Y-831D01*
X17083Y-771D01*
X16976Y-749D01*
X16976Y-749D01*
X11193Y-749D01*
X11193Y-749D01*
X11176Y-753D01*
X11087Y-771D01*
X10996Y-831D01*
X10996Y-831D01*
X10832Y-996D01*
X10186Y-996D01*
X10113Y-1026D01*
X10056Y-1082D01*
X10026Y-1156D01*
X10026Y-1235D01*
X10026Y-2085D01*
X10056Y-2159D01*
X10112Y-2215D01*
X10186Y-2246D01*
X10265Y-2246D01*
X11015Y-2246D01*
X11089Y-2215D01*
X11145Y-2159D01*
X11176Y-2086D01*
X11176Y-2062D01*
X11194Y-2089D01*
X11381Y-2214D01*
X11601Y-2258D01*
X11821Y-2214D01*
X12007Y-2089D01*
X12132Y-1903D01*
X12176Y-1683D01*
X12176Y-1558D01*
X12132Y-1338D01*
X12111Y-1307D01*
X16861Y-1307D01*
X17371Y-1818D01*
X17371Y-1818D01*
X17462Y-1878D01*
X17526Y-1891D01*
X17526Y-2085D01*
X17556Y-2159D01*
X17613Y-2215D01*
X17686Y-2246D01*
X17766Y-2246D01*
X18516Y-2246D01*
X18589Y-2215D01*
X18646Y-2159D01*
X18676Y-2086D01*
X18676Y-2062D01*
X18694Y-2089D01*
X18881Y-2214D01*
X19101Y-2258D01*
X19321Y-2214D01*
X19508Y-2089D01*
X19632Y-1903D01*
X19676Y-1683D01*
X19676Y-4127D01*
X19586Y-4217D01*
X19586Y-3426D01*
X19437Y-3064D01*
X19160Y-2787D01*
X18798Y-2637D01*
X18406Y-2636D01*
X18044Y-2786D01*
X17767Y-3063D01*
X17616Y-3425D01*
X17616Y-3817D01*
X17766Y-4179D01*
X18042Y-4456D01*
X18404Y-4606D01*
X18796Y-4607D01*
X19158Y-4457D01*
X19436Y-4180D01*
X19586Y-3818D01*
X19586Y-3426D01*
X19586Y-4217D01*
X19550Y-4253D01*
X19451Y-4492D01*
X19451Y-4750D01*
X19550Y-4989D01*
X19732Y-5172D01*
X19971Y-5271D01*
X20230Y-5272D01*
X20469Y-5173D01*
X20652Y-4990D01*
X20751Y-4751D01*
X20751Y-4493D01*
X20652Y-4254D01*
X20555Y-4157D01*
X20707Y-4157D01*
X20904Y-4075D01*
X21054Y-3925D01*
X21136Y-3728D01*
X21136Y-3516D01*
X21055Y-3319D01*
X20919Y-3183D01*
X21049Y-3237D01*
X21191Y-3237D01*
X21323Y-3183D01*
X21423Y-3082D01*
X21478Y-2951D01*
X21478Y-2861D01*
X22370Y-1968D01*
X22459Y-2057D01*
X22648Y-2135D01*
X22853Y-2136D01*
X23042Y-2057D01*
X23187Y-1913D01*
X23266Y-1723D01*
X23266Y-1519D01*
X23266Y-4381D01*
X23209Y-4381D01*
X23187Y-4329D01*
X23043Y-4184D01*
X22854Y-4106D01*
X22649Y-4106D01*
X22459Y-4184D01*
X22314Y-4328D01*
X22236Y-4518D01*
X22236Y-4723D01*
X22314Y-4912D01*
X22459Y-5057D01*
X22648Y-5135D01*
X22853Y-5136D01*
X23042Y-5057D01*
X23187Y-4913D01*
X23209Y-4860D01*
X23750Y-4860D01*
X23842Y-4842D01*
X23842Y-4842D01*
X23920Y-4790D01*
X25116Y-3593D01*
X25116Y-3817D01*
X25266Y-4179D01*
X25542Y-4456D01*
X25904Y-4606D01*
X26296Y-4607D01*
X26658Y-4457D01*
X26936Y-4180D01*
X27086Y-3818D01*
X27086Y-3426D01*
X26937Y-3064D01*
X26660Y-2787D01*
X26298Y-2637D01*
X26073Y-2637D01*
X26306Y-2403D01*
X26601Y-2403D01*
X26693Y-2385D01*
X26770Y-2333D01*
X26822Y-2255D01*
X26832Y-2207D01*
X27008Y-2089D01*
X27132Y-1903D01*
X27176Y-1683D01*
X27176Y-4127D01*
X27050Y-4253D01*
X26951Y-4492D01*
X26951Y-4750D01*
X27050Y-4989D01*
X27232Y-5172D01*
X27471Y-5271D01*
X27730Y-5272D01*
X27969Y-5173D01*
X28152Y-4990D01*
X28251Y-4751D01*
X28251Y-4493D01*
X28152Y-4254D01*
X28055Y-4157D01*
X28207Y-4157D01*
X28404Y-4075D01*
X28554Y-3925D01*
X28636Y-3728D01*
X28636Y-3516D01*
X28636Y-9395D01*
X28399Y-9493D01*
X28173Y-9718D01*
X28051Y-10012D01*
X28051Y-10330D01*
X28157Y-10587D01*
X27995Y-10586D01*
X27798Y-10668D01*
X27648Y-10818D01*
X27566Y-11015D01*
X27566Y-11227D01*
X27647Y-11424D01*
X27695Y-11472D01*
X27472Y-11471D01*
X27233Y-11570D01*
X27050Y-11753D01*
X26951Y-11992D01*
X26951Y-12250D01*
X27050Y-12489D01*
X27232Y-12672D01*
X27362Y-12726D01*
X27362Y-12772D01*
X27359Y-12775D01*
X27231Y-12722D01*
X26972Y-12721D01*
X26794Y-12795D01*
X26794Y-12684D01*
X26776Y-12592D01*
X26724Y-12515D01*
X26310Y-12101D01*
X26658Y-11957D01*
X26936Y-11680D01*
X27086Y-11318D01*
X27086Y-10926D01*
X26937Y-10564D01*
X26660Y-10287D01*
X26298Y-10137D01*
X25906Y-10136D01*
X25544Y-10286D01*
X25267Y-10563D01*
X25147Y-10851D01*
X22901Y-8605D01*
X22823Y-8553D01*
X22731Y-8535D01*
X22635Y-8535D01*
X23021Y-8375D01*
X23354Y-8042D01*
X23535Y-7607D01*
X23535Y-7136D01*
X23355Y-6700D01*
X23023Y-6367D01*
X22587Y-6186D01*
X22116Y-6186D01*
X21681Y-6366D01*
X21347Y-6699D01*
X21166Y-7134D01*
X21166Y-7605D01*
X21346Y-8041D01*
X21679Y-8374D01*
X22066Y-8535D01*
X19616Y-8535D01*
X19616Y-6869D01*
X19538Y-6679D01*
X19393Y-6534D01*
X19204Y-6456D01*
X18999Y-6456D01*
X18810Y-6534D01*
X18665Y-6678D01*
X18586Y-6868D01*
X18586Y-7073D01*
X18664Y-7262D01*
X18809Y-7407D01*
X18998Y-7485D01*
X19203Y-7486D01*
X19392Y-7407D01*
X19537Y-7263D01*
X19616Y-7073D01*
X19616Y-6869D01*
X19616Y-8535D01*
X16616Y-8535D01*
X16616Y-6869D01*
X16538Y-6679D01*
X16393Y-6534D01*
X16204Y-6456D01*
X15999Y-6456D01*
X15810Y-6534D01*
X15665Y-6678D01*
X15586Y-6868D01*
X15586Y-7073D01*
X15664Y-7262D01*
X15809Y-7407D01*
X15998Y-7485D01*
X16203Y-7486D01*
X16392Y-7407D01*
X16537Y-7263D01*
X16616Y-7073D01*
X16616Y-6869D01*
X16616Y-8535D01*
X15116Y-8535D01*
X15116Y-6919D01*
X15038Y-6729D01*
X14893Y-6584D01*
X14704Y-6506D01*
X14499Y-6506D01*
X14310Y-6584D01*
X14165Y-6728D01*
X14086Y-6918D01*
X14086Y-7123D01*
X14164Y-7312D01*
X14309Y-7457D01*
X14498Y-7535D01*
X14703Y-7536D01*
X14892Y-7457D01*
X15037Y-7313D01*
X15116Y-7123D01*
X15116Y-6919D01*
X15116Y-8535D01*
X12436Y-8535D01*
X11393Y-7492D01*
X11498Y-7535D01*
X11703Y-7536D01*
X11892Y-7457D01*
X12037Y-7313D01*
X12116Y-7123D01*
X12116Y-6919D01*
X12038Y-6729D01*
X11893Y-6584D01*
X11704Y-6506D01*
X11499Y-6506D01*
X11310Y-6584D01*
X11165Y-6728D01*
X11086Y-6918D01*
X11086Y-7123D01*
X11130Y-7229D01*
X10172Y-6271D01*
X10230Y-6271D01*
X10469Y-6172D01*
X10652Y-5989D01*
X10705Y-5860D01*
X16996Y-5860D01*
X17050Y-5989D01*
X17232Y-6172D01*
X17471Y-6271D01*
X17730Y-6272D01*
X17969Y-6173D01*
X18152Y-5990D01*
X18205Y-5861D01*
X24497Y-5861D01*
X24550Y-5989D01*
X24732Y-6172D01*
X24971Y-6271D01*
X25230Y-6272D01*
X25469Y-6173D01*
X25652Y-5990D01*
X25751Y-5751D01*
X25751Y-5493D01*
X25652Y-5254D01*
X25470Y-5071D01*
X25231Y-4972D01*
X24972Y-4971D01*
X24733Y-5070D01*
X24550Y-5253D01*
X24497Y-5382D01*
X18205Y-5382D01*
X18152Y-5254D01*
X17970Y-5071D01*
X17731Y-4972D01*
X17472Y-4971D01*
X17233Y-5070D01*
X17136Y-5167D01*
X17136Y-3516D01*
X17055Y-3319D01*
X16905Y-3168D01*
X16708Y-3087D01*
X16495Y-3086D01*
X16298Y-3168D01*
X16148Y-3318D01*
X16066Y-3515D01*
X16066Y-3727D01*
X16147Y-3924D01*
X16298Y-4075D01*
X16494Y-4156D01*
X16707Y-4157D01*
X16904Y-4075D01*
X17054Y-3925D01*
X17136Y-3728D01*
X17136Y-3516D01*
X17136Y-5167D01*
X17050Y-5253D01*
X16997Y-5381D01*
X13636Y-5381D01*
X13636Y-3515D01*
X13555Y-3318D01*
X13404Y-3167D01*
X13208Y-3086D01*
X12995Y-3085D01*
X12798Y-3167D01*
X12648Y-3317D01*
X12566Y-3514D01*
X12566Y-3727D01*
X12647Y-3923D01*
X12694Y-3971D01*
X12472Y-3970D01*
X12233Y-4069D01*
X12086Y-4216D01*
X12086Y-3425D01*
X11936Y-3063D01*
X11660Y-2786D01*
X11298Y-2636D01*
X10906Y-2635D01*
X10544Y-2785D01*
X10266Y-3062D01*
X10116Y-3424D01*
X10116Y-3816D01*
X10265Y-4178D01*
X10542Y-4455D01*
X10904Y-4605D01*
X11296Y-4606D01*
X11658Y-4456D01*
X11935Y-4179D01*
X12086Y-3817D01*
X12086Y-3425D01*
X12086Y-4216D01*
X12050Y-4252D01*
X11951Y-4491D01*
X11951Y-4749D01*
X12050Y-4988D01*
X12232Y-5171D01*
X12471Y-5270D01*
X12730Y-5271D01*
X12969Y-5172D01*
X13152Y-4989D01*
X13251Y-4750D01*
X13251Y-4492D01*
X13152Y-4253D01*
X13055Y-4156D01*
X13207Y-4156D01*
X13404Y-4074D01*
X13554Y-3924D01*
X13636Y-3727D01*
X13636Y-3515D01*
X13636Y-5381D01*
X10705Y-5381D01*
X10652Y-5253D01*
X10470Y-5070D01*
X10231Y-4971D01*
X9972Y-4970D01*
X9733Y-5069D01*
X9636Y-5166D01*
X9636Y-3515D01*
X9555Y-3318D01*
X9404Y-3167D01*
X9208Y-3086D01*
X8995Y-3085D01*
X8798Y-3167D01*
X8648Y-3317D01*
X8566Y-3514D01*
X8566Y-3727D01*
X8647Y-3923D01*
X8797Y-4074D01*
X8994Y-4155D01*
X9207Y-4156D01*
X9404Y-4074D01*
X9554Y-3924D01*
X9636Y-3727D01*
X9636Y-3515D01*
X9636Y-5166D01*
X9550Y-5252D01*
X9451Y-5491D01*
X9451Y-5550D01*
X8591Y-4690D01*
X8591Y-4600D01*
X8537Y-4469D01*
X8436Y-4368D01*
X8408Y-4357D01*
X8408Y-1448D01*
X8351Y-1310D01*
X8245Y-1204D01*
X8106Y-1146D01*
X7956Y-1146D01*
X7818Y-1203D01*
X7711Y-1309D01*
X7654Y-1448D01*
X7654Y-1598D01*
X7711Y-1736D01*
X7817Y-1843D01*
X7956Y-1900D01*
X8106Y-1900D01*
X8244Y-1843D01*
X8351Y-1737D01*
X8408Y-1598D01*
X8408Y-1448D01*
X8408Y-4357D01*
X8305Y-4314D01*
X8163Y-4314D01*
X8031Y-4368D01*
X7931Y-4468D01*
X7876Y-4600D01*
X7876Y-4742D01*
X7930Y-4873D01*
X8031Y-4974D01*
X8162Y-5029D01*
X8252Y-5029D01*
X12105Y-8881D01*
X8536Y-8881D01*
X8536Y-7136D01*
X8356Y-6700D01*
X8023Y-6367D01*
X7588Y-6186D01*
X7116Y-6186D01*
X6681Y-6366D01*
X6676Y-6371D01*
X6676Y-1448D01*
X6619Y-1310D01*
X6513Y-1204D01*
X6374Y-1146D01*
X6224Y-1146D01*
X6085Y-1203D01*
X5979Y-1309D01*
X5922Y-1448D01*
X5921Y-1598D01*
X5979Y-1736D01*
X6085Y-1843D01*
X6223Y-1900D01*
X6373Y-1900D01*
X6512Y-1843D01*
X6618Y-1737D01*
X6676Y-1598D01*
X6676Y-1448D01*
X6676Y-6371D01*
X6557Y-6489D01*
X6557Y-2244D01*
X6497Y-2099D01*
X6386Y-1987D01*
X6240Y-1926D01*
X6158Y-1926D01*
X5070Y-839D01*
X4980Y-778D01*
X4873Y-757D01*
X4873Y-757D01*
X3686Y-757D01*
X3579Y-778D01*
X3489Y-839D01*
X3489Y-839D01*
X3332Y-996D01*
X2686Y-996D01*
X2613Y-1026D01*
X2556Y-1082D01*
X2526Y-1156D01*
X2526Y-1235D01*
X2526Y-2085D01*
X2556Y-2159D01*
X2612Y-2215D01*
X2686Y-2246D01*
X2765Y-2246D01*
X3515Y-2246D01*
X3589Y-2215D01*
X3645Y-2159D01*
X3676Y-2086D01*
X3676Y-2062D01*
X3694Y-2089D01*
X3881Y-2214D01*
X4101Y-2258D01*
X4272Y-2224D01*
X4272Y-2899D01*
X4160Y-2786D01*
X3798Y-2636D01*
X3406Y-2635D01*
X3044Y-2785D01*
X2766Y-3062D01*
X2616Y-3424D01*
X2616Y-3816D01*
X2765Y-4178D01*
X3042Y-4455D01*
X3404Y-4605D01*
X3796Y-4606D01*
X4158Y-4456D01*
X4272Y-4342D01*
X4272Y-6510D01*
X4256Y-6527D01*
X4204Y-6506D01*
X3999Y-6506D01*
X3810Y-6584D01*
X3665Y-6728D01*
X3586Y-6918D01*
X3586Y-7123D01*
X3664Y-7312D01*
X3809Y-7457D01*
X3998Y-7535D01*
X4203Y-7536D01*
X4392Y-7457D01*
X4537Y-7313D01*
X4616Y-7123D01*
X4616Y-6919D01*
X4594Y-6866D01*
X4681Y-6779D01*
X4733Y-6701D01*
X4751Y-6610D01*
X4751Y-5179D01*
X4971Y-5270D01*
X5230Y-5271D01*
X5469Y-5172D01*
X5652Y-4989D01*
X5751Y-4750D01*
X5751Y-4492D01*
X5652Y-4253D01*
X5555Y-4156D01*
X5707Y-4156D01*
X5904Y-4074D01*
X6054Y-3924D01*
X6136Y-3727D01*
X6136Y-3515D01*
X6055Y-3318D01*
X5904Y-3167D01*
X5708Y-3086D01*
X5495Y-3085D01*
X5298Y-3167D01*
X5148Y-3317D01*
X5066Y-3514D01*
X5066Y-3727D01*
X5147Y-3923D01*
X5194Y-3971D01*
X4972Y-3970D01*
X4751Y-4062D01*
X4751Y-2056D01*
X4763Y-2044D01*
X4815Y-1966D01*
X4833Y-1875D01*
X4833Y-1621D01*
X4815Y-1529D01*
X4763Y-1451D01*
X4686Y-1399D01*
X4643Y-1391D01*
X4632Y-1338D01*
X4616Y-1314D01*
X4758Y-1314D01*
X5764Y-2320D01*
X5764Y-2402D01*
X5824Y-2548D01*
X5935Y-2659D01*
X6081Y-2720D01*
X6239Y-2720D01*
X6385Y-2660D01*
X6497Y-2548D01*
X6557Y-2402D01*
X6557Y-2244D01*
X6557Y-6489D01*
X6347Y-6699D01*
X6167Y-7134D01*
X6166Y-7605D01*
X6346Y-8041D01*
X6679Y-8374D01*
X7114Y-8555D01*
X7585Y-8555D01*
X8021Y-8375D01*
X8354Y-8042D01*
X8535Y-7607D01*
X8536Y-7136D01*
X8536Y-8881D01*
X4289Y-8881D01*
X4289Y-8352D01*
X4234Y-8220D01*
X4134Y-8120D01*
X4003Y-8065D01*
X3912Y-8065D01*
X3251Y-7404D01*
X3251Y-5492D01*
X3152Y-5253D01*
X2970Y-5070D01*
X2731Y-4971D01*
X2472Y-4970D01*
X2233Y-5069D01*
X2136Y-5166D01*
X2136Y-3515D01*
X2055Y-3318D01*
X1904Y-3167D01*
X1708Y-3086D01*
X1495Y-3085D01*
X1298Y-3167D01*
X1148Y-3317D01*
X1066Y-3514D01*
X1066Y-3727D01*
X1147Y-3923D01*
X1297Y-4074D01*
X1494Y-4155D01*
X1707Y-4156D01*
X1904Y-4074D01*
X2054Y-3924D01*
X2136Y-3727D01*
X2136Y-3515D01*
X2136Y-5166D01*
X2050Y-5252D01*
X1951Y-5491D01*
X1951Y-5749D01*
X2050Y-5988D01*
X2232Y-6171D01*
X2471Y-6270D01*
X2730Y-6271D01*
X2969Y-6172D01*
X3152Y-5989D01*
X3251Y-5750D01*
X3251Y-5492D01*
X3251Y-7404D01*
X2699Y-6851D01*
X2621Y-6799D01*
X2529Y-6781D01*
X1559Y-6781D01*
X1538Y-6729D01*
X1393Y-6584D01*
X1204Y-6506D01*
X999Y-6506D01*
X810Y-6584D01*
X665Y-6728D01*
X586Y-6918D01*
X586Y-7123D01*
X664Y-7312D01*
X809Y-7457D01*
X998Y-7535D01*
X1203Y-7536D01*
X1392Y-7457D01*
X1537Y-7313D01*
X1559Y-7260D01*
X2430Y-7260D01*
X3574Y-8403D01*
X3574Y-8493D01*
X3628Y-8625D01*
X3728Y-8725D01*
X3860Y-8780D01*
X4002Y-8780D01*
X4133Y-8726D01*
X4234Y-8625D01*
X4289Y-8494D01*
X4289Y-8352D01*
X4289Y-8881D01*
X925Y-8881D01*
X918Y-8871D01*
X980Y-8777D01*
X1012Y-8621D01*
X980Y-8464D01*
X918Y-8371D01*
X980Y-8277D01*
X1012Y-8121D01*
X980Y-7964D01*
X892Y-7831D01*
X759Y-7742D01*
X602Y-7711D01*
X402Y-7711D01*
X245Y-7742D01*
X220Y-7758D01*
X220Y-749D01*
X294Y-774D01*
X471Y-761D01*
X577Y-717D01*
X591Y-633D01*
X351Y-392D01*
X345Y-398D01*
X275Y-327D01*
X280Y-322D01*
X275Y-316D01*
X345Y-245D01*
X351Y-251D01*
X356Y-245D01*
X427Y-316D01*
X422Y-322D01*
X662Y-562D01*
X747Y-547D01*
X803Y-379D01*
X790Y-201D01*
X786Y-191D01*
X28940Y-191D01*
X28899Y-313D01*
X28911Y-491D01*
X28955Y-596D01*
X29040Y-611D01*
X29280Y-371D01*
X29274Y-365D01*
X29345Y-294D01*
X29351Y-300D01*
X29356Y-294D01*
X29427Y-365D01*
X29421Y-371D01*
X29427Y-376D01*
X29356Y-447D01*
X29351Y-441D01*
X29110Y-682D01*
X29125Y-766D01*
X29294Y-823D01*
X29471Y-810D01*
X29481Y-806D01*
X29481Y-9671D01*
X29481Y-9671D01*
G37*
G54D28*
X29481Y-9671D02*
X29305Y-9494D01*
X29011Y-9372D01*
X28693Y-9371D01*
X28636Y-9395D01*
X28636Y-3516D01*
X28555Y-3319D01*
X28405Y-3168D01*
X28208Y-3087D01*
X27995Y-3086D01*
X27798Y-3168D01*
X27648Y-3318D01*
X27566Y-3515D01*
X27566Y-3727D01*
X27647Y-3924D01*
X27695Y-3972D01*
X27472Y-3971D01*
X27233Y-4070D01*
X27176Y-4127D01*
X27176Y-1683D01*
X27176Y-1558D01*
X27132Y-1338D01*
X27008Y-1152D01*
X26821Y-1027D01*
X26601Y-983D01*
X26381Y-1027D01*
X26194Y-1152D01*
X26176Y-1179D01*
X26176Y-1156D01*
X26146Y-1082D01*
X26090Y-1026D01*
X26016Y-996D01*
X25936Y-996D01*
X25186Y-996D01*
X25113Y-1026D01*
X25057Y-1082D01*
X25026Y-1156D01*
X25026Y-1235D01*
X25026Y-2085D01*
X25056Y-2159D01*
X25113Y-2215D01*
X25171Y-2239D01*
X25074Y-2336D01*
X25005Y-2336D01*
X24859Y-2396D01*
X24748Y-2508D01*
X24687Y-2654D01*
X24687Y-2812D01*
X24747Y-2958D01*
X24859Y-3069D01*
X24932Y-3100D01*
X24601Y-3431D01*
X24555Y-3319D01*
X24405Y-3168D01*
X24208Y-3087D01*
X23995Y-3086D01*
X23798Y-3168D01*
X23648Y-3318D01*
X23566Y-3515D01*
X23566Y-3727D01*
X23647Y-3924D01*
X23798Y-4075D01*
X23911Y-4122D01*
X23651Y-4381D01*
X23266Y-4381D01*
X23266Y-1519D01*
X23187Y-1329D01*
X23043Y-1184D01*
X22854Y-1106D01*
X22649Y-1106D01*
X22459Y-1184D01*
X22314Y-1328D01*
X22284Y-1402D01*
X22210Y-1451D01*
X22210Y-1451D01*
X21139Y-2522D01*
X21050Y-2522D01*
X20918Y-2576D01*
X20817Y-2677D01*
X20763Y-2808D01*
X20763Y-2950D01*
X20817Y-3082D01*
X20903Y-3168D01*
X20708Y-3087D01*
X20495Y-3086D01*
X20298Y-3168D01*
X20148Y-3318D01*
X20066Y-3515D01*
X20066Y-3727D01*
X20147Y-3924D01*
X20195Y-3972D01*
X19972Y-3971D01*
X19733Y-4070D01*
X19676Y-4127D01*
X19676Y-1683D01*
X19676Y-1558D01*
X19632Y-1338D01*
X19508Y-1152D01*
X19321Y-1027D01*
X19101Y-983D01*
X18881Y-1027D01*
X18694Y-1152D01*
X18676Y-1179D01*
X18676Y-1156D01*
X18646Y-1082D01*
X18590Y-1026D01*
X18516Y-996D01*
X18436Y-996D01*
X17686Y-996D01*
X17613Y-1026D01*
X17557Y-1082D01*
X17526Y-1156D01*
X17526Y-1184D01*
X17173Y-831D01*
X17083Y-771D01*
X16976Y-749D01*
X16976Y-749D01*
X11193Y-749D01*
X11193Y-749D01*
X11176Y-753D01*
X11087Y-771D01*
X10996Y-831D01*
X10996Y-831D01*
X10832Y-996D01*
X10186Y-996D01*
X10113Y-1026D01*
X10056Y-1082D01*
X10026Y-1156D01*
X10026Y-1235D01*
X10026Y-2085D01*
X10056Y-2159D01*
X10112Y-2215D01*
X10186Y-2246D01*
X10265Y-2246D01*
X11015Y-2246D01*
X11089Y-2215D01*
X11145Y-2159D01*
X11176Y-2086D01*
X11176Y-2062D01*
X11194Y-2089D01*
X11381Y-2214D01*
X11601Y-2258D01*
X11821Y-2214D01*
X12007Y-2089D01*
X12132Y-1903D01*
X12176Y-1683D01*
X12176Y-1558D01*
X12132Y-1338D01*
X12111Y-1307D01*
X16861Y-1307D01*
X17371Y-1818D01*
X17371Y-1818D01*
X17462Y-1878D01*
X17526Y-1891D01*
X17526Y-2085D01*
X17556Y-2159D01*
X17613Y-2215D01*
X17686Y-2246D01*
X17766Y-2246D01*
X18516Y-2246D01*
X18589Y-2215D01*
X18646Y-2159D01*
X18676Y-2086D01*
X18676Y-2062D01*
X18694Y-2089D01*
X18881Y-2214D01*
X19101Y-2258D01*
X19321Y-2214D01*
X19508Y-2089D01*
X19632Y-1903D01*
X19676Y-1683D01*
X19676Y-4127D01*
X19586Y-4217D01*
X19586Y-3426D01*
X19437Y-3064D01*
X19160Y-2787D01*
X18798Y-2637D01*
X18406Y-2636D01*
X18044Y-2786D01*
X17767Y-3063D01*
X17616Y-3425D01*
X17616Y-3817D01*
X17766Y-4179D01*
X18042Y-4456D01*
X18404Y-4606D01*
X18796Y-4607D01*
X19158Y-4457D01*
X19436Y-4180D01*
X19586Y-3818D01*
X19586Y-3426D01*
X19586Y-4217D01*
X19550Y-4253D01*
X19451Y-4492D01*
X19451Y-4750D01*
X19550Y-4989D01*
X19732Y-5172D01*
X19971Y-5271D01*
X20230Y-5272D01*
X20469Y-5173D01*
X20652Y-4990D01*
X20751Y-4751D01*
X20751Y-4493D01*
X20652Y-4254D01*
X20555Y-4157D01*
X20707Y-4157D01*
X20904Y-4075D01*
X21054Y-3925D01*
X21136Y-3728D01*
X21136Y-3516D01*
X21055Y-3319D01*
X20919Y-3183D01*
X21049Y-3237D01*
X21191Y-3237D01*
X21323Y-3183D01*
X21423Y-3082D01*
X21478Y-2951D01*
X21478Y-2861D01*
X22370Y-1968D01*
X22459Y-2057D01*
X22648Y-2135D01*
X22853Y-2136D01*
X23042Y-2057D01*
X23187Y-1913D01*
X23266Y-1723D01*
X23266Y-1519D01*
X23266Y-4381D01*
X23209Y-4381D01*
X23187Y-4329D01*
X23043Y-4184D01*
X22854Y-4106D01*
X22649Y-4106D01*
X22459Y-4184D01*
X22314Y-4328D01*
X22236Y-4518D01*
X22236Y-4723D01*
X22314Y-4912D01*
X22459Y-5057D01*
X22648Y-5135D01*
X22853Y-5136D01*
X23042Y-5057D01*
X23187Y-4913D01*
X23209Y-4860D01*
X23750Y-4860D01*
X23842Y-4842D01*
X23842Y-4842D01*
X23920Y-4790D01*
X25116Y-3593D01*
X25116Y-3817D01*
X25266Y-4179D01*
X25542Y-4456D01*
X25904Y-4606D01*
X26296Y-4607D01*
X26658Y-4457D01*
X26936Y-4180D01*
X27086Y-3818D01*
X27086Y-3426D01*
X26937Y-3064D01*
X26660Y-2787D01*
X26298Y-2637D01*
X26073Y-2637D01*
X26306Y-2403D01*
X26601Y-2403D01*
X26693Y-2385D01*
X26770Y-2333D01*
X26822Y-2255D01*
X26832Y-2207D01*
X27008Y-2089D01*
X27132Y-1903D01*
X27176Y-1683D01*
X27176Y-4127D01*
X27050Y-4253D01*
X26951Y-4492D01*
X26951Y-4750D01*
X27050Y-4989D01*
X27232Y-5172D01*
X27471Y-5271D01*
X27730Y-5272D01*
X27969Y-5173D01*
X28152Y-4990D01*
X28251Y-4751D01*
X28251Y-4493D01*
X28152Y-4254D01*
X28055Y-4157D01*
X28207Y-4157D01*
X28404Y-4075D01*
X28554Y-3925D01*
X28636Y-3728D01*
X28636Y-3516D01*
X28636Y-9395D01*
X28399Y-9493D01*
X28173Y-9718D01*
X28051Y-10012D01*
X28051Y-10330D01*
X28157Y-10587D01*
X27995Y-10586D01*
X27798Y-10668D01*
X27648Y-10818D01*
X27566Y-11015D01*
X27566Y-11227D01*
X27647Y-11424D01*
X27695Y-11472D01*
X27472Y-11471D01*
X27233Y-11570D01*
X27050Y-11753D01*
X26951Y-11992D01*
X26951Y-12250D01*
X27050Y-12489D01*
X27232Y-12672D01*
X27362Y-12726D01*
X27362Y-12772D01*
X27359Y-12775D01*
X27231Y-12722D01*
X26972Y-12721D01*
X26794Y-12795D01*
X26794Y-12684D01*
X26776Y-12592D01*
X26724Y-12515D01*
X26310Y-12101D01*
X26658Y-11957D01*
X26936Y-11680D01*
X27086Y-11318D01*
X27086Y-10926D01*
X26937Y-10564D01*
X26660Y-10287D01*
X26298Y-10137D01*
X25906Y-10136D01*
X25544Y-10286D01*
X25267Y-10563D01*
X25147Y-10851D01*
X22901Y-8605D01*
X22823Y-8553D01*
X22731Y-8535D01*
X22635Y-8535D01*
X23021Y-8375D01*
X23354Y-8042D01*
X23535Y-7607D01*
X23535Y-7136D01*
X23355Y-6700D01*
X23023Y-6367D01*
X22587Y-6186D01*
X22116Y-6186D01*
X21681Y-6366D01*
X21347Y-6699D01*
X21166Y-7134D01*
X21166Y-7605D01*
X21346Y-8041D01*
X21679Y-8374D01*
X22066Y-8535D01*
X19616Y-8535D01*
X19616Y-6869D01*
X19538Y-6679D01*
X19393Y-6534D01*
X19204Y-6456D01*
X18999Y-6456D01*
X18810Y-6534D01*
X18665Y-6678D01*
X18586Y-6868D01*
X18586Y-7073D01*
X18664Y-7262D01*
X18809Y-7407D01*
X18998Y-7485D01*
X19203Y-7486D01*
X19392Y-7407D01*
X19537Y-7263D01*
X19616Y-7073D01*
X19616Y-6869D01*
X19616Y-8535D01*
X16616Y-8535D01*
X16616Y-6869D01*
X16538Y-6679D01*
X16393Y-6534D01*
X16204Y-6456D01*
X15999Y-6456D01*
X15810Y-6534D01*
X15665Y-6678D01*
X15586Y-6868D01*
X15586Y-7073D01*
X15664Y-7262D01*
X15809Y-7407D01*
X15998Y-7485D01*
X16203Y-7486D01*
X16392Y-7407D01*
X16537Y-7263D01*
X16616Y-7073D01*
X16616Y-6869D01*
X16616Y-8535D01*
X15116Y-8535D01*
X15116Y-6919D01*
X15038Y-6729D01*
X14893Y-6584D01*
X14704Y-6506D01*
X14499Y-6506D01*
X14310Y-6584D01*
X14165Y-6728D01*
X14086Y-6918D01*
X14086Y-7123D01*
X14164Y-7312D01*
X14309Y-7457D01*
X14498Y-7535D01*
X14703Y-7536D01*
X14892Y-7457D01*
X15037Y-7313D01*
X15116Y-7123D01*
X15116Y-6919D01*
X15116Y-8535D01*
X12436Y-8535D01*
X11393Y-7492D01*
X11498Y-7535D01*
X11703Y-7536D01*
X11892Y-7457D01*
X12037Y-7313D01*
X12116Y-7123D01*
X12116Y-6919D01*
X12038Y-6729D01*
X11893Y-6584D01*
X11704Y-6506D01*
X11499Y-6506D01*
X11310Y-6584D01*
X11165Y-6728D01*
X11086Y-6918D01*
X11086Y-7123D01*
X11130Y-7229D01*
X10172Y-6271D01*
X10230Y-6271D01*
X10469Y-6172D01*
X10652Y-5989D01*
X10705Y-5860D01*
X16996Y-5860D01*
X17050Y-5989D01*
X17232Y-6172D01*
X17471Y-6271D01*
X17730Y-6272D01*
X17969Y-6173D01*
X18152Y-5990D01*
X18205Y-5861D01*
X24497Y-5861D01*
X24550Y-5989D01*
X24732Y-6172D01*
X24971Y-6271D01*
X25230Y-6272D01*
X25469Y-6173D01*
X25652Y-5990D01*
X25751Y-5751D01*
X25751Y-5493D01*
X25652Y-5254D01*
X25470Y-5071D01*
X25231Y-4972D01*
X24972Y-4971D01*
X24733Y-5070D01*
X24550Y-5253D01*
X24497Y-5382D01*
X18205Y-5382D01*
X18152Y-5254D01*
X17970Y-5071D01*
X17731Y-4972D01*
X17472Y-4971D01*
X17233Y-5070D01*
X17136Y-5167D01*
X17136Y-3516D01*
X17055Y-3319D01*
X16905Y-3168D01*
X16708Y-3087D01*
X16495Y-3086D01*
X16298Y-3168D01*
X16148Y-3318D01*
X16066Y-3515D01*
X16066Y-3727D01*
X16147Y-3924D01*
X16298Y-4075D01*
X16494Y-4156D01*
X16707Y-4157D01*
X16904Y-4075D01*
X17054Y-3925D01*
X17136Y-3728D01*
X17136Y-3516D01*
X17136Y-5167D01*
X17050Y-5253D01*
X16997Y-5381D01*
X13636Y-5381D01*
X13636Y-3515D01*
X13555Y-3318D01*
X13404Y-3167D01*
X13208Y-3086D01*
X12995Y-3085D01*
X12798Y-3167D01*
X12648Y-3317D01*
X12566Y-3514D01*
X12566Y-3727D01*
X12647Y-3923D01*
X12694Y-3971D01*
X12472Y-3970D01*
X12233Y-4069D01*
X12086Y-4216D01*
X12086Y-3425D01*
X11936Y-3063D01*
X11660Y-2786D01*
X11298Y-2636D01*
X10906Y-2635D01*
X10544Y-2785D01*
X10266Y-3062D01*
X10116Y-3424D01*
X10116Y-3816D01*
X10265Y-4178D01*
X10542Y-4455D01*
X10904Y-4605D01*
X11296Y-4606D01*
X11658Y-4456D01*
X11935Y-4179D01*
X12086Y-3817D01*
X12086Y-3425D01*
X12086Y-4216D01*
X12050Y-4252D01*
X11951Y-4491D01*
X11951Y-4749D01*
X12050Y-4988D01*
X12232Y-5171D01*
X12471Y-5270D01*
X12730Y-5271D01*
X12969Y-5172D01*
X13152Y-4989D01*
X13251Y-4750D01*
X13251Y-4492D01*
X13152Y-4253D01*
X13055Y-4156D01*
X13207Y-4156D01*
X13404Y-4074D01*
X13554Y-3924D01*
X13636Y-3727D01*
X13636Y-3515D01*
X13636Y-5381D01*
X10705Y-5381D01*
X10652Y-5253D01*
X10470Y-5070D01*
X10231Y-4971D01*
X9972Y-4970D01*
X9733Y-5069D01*
X9636Y-5166D01*
X9636Y-3515D01*
X9555Y-3318D01*
X9404Y-3167D01*
X9208Y-3086D01*
X8995Y-3085D01*
X8798Y-3167D01*
X8648Y-3317D01*
X8566Y-3514D01*
X8566Y-3727D01*
X8647Y-3923D01*
X8797Y-4074D01*
X8994Y-4155D01*
X9207Y-4156D01*
X9404Y-4074D01*
X9554Y-3924D01*
X9636Y-3727D01*
X9636Y-3515D01*
X9636Y-5166D01*
X9550Y-5252D01*
X9451Y-5491D01*
X9451Y-5550D01*
X8591Y-4690D01*
X8591Y-4600D01*
X8537Y-4469D01*
X8436Y-4368D01*
X8408Y-4357D01*
X8408Y-1448D01*
X8351Y-1310D01*
X8245Y-1204D01*
X8106Y-1146D01*
X7956Y-1146D01*
X7818Y-1203D01*
X7711Y-1309D01*
X7654Y-1448D01*
X7654Y-1598D01*
X7711Y-1736D01*
X7817Y-1843D01*
X7956Y-1900D01*
X8106Y-1900D01*
X8244Y-1843D01*
X8351Y-1737D01*
X8408Y-1598D01*
X8408Y-1448D01*
X8408Y-4357D01*
X8305Y-4314D01*
X8163Y-4314D01*
X8031Y-4368D01*
X7931Y-4468D01*
X7876Y-4600D01*
X7876Y-4742D01*
X7930Y-4873D01*
X8031Y-4974D01*
X8162Y-5029D01*
X8252Y-5029D01*
X12105Y-8881D01*
X8536Y-8881D01*
X8536Y-7136D01*
X8356Y-6700D01*
X8023Y-6367D01*
X7588Y-6186D01*
X7116Y-6186D01*
X6681Y-6366D01*
X6676Y-6371D01*
X6676Y-1448D01*
X6619Y-1310D01*
X6513Y-1204D01*
X6374Y-1146D01*
X6224Y-1146D01*
X6085Y-1203D01*
X5979Y-1309D01*
X5922Y-1448D01*
X5921Y-1598D01*
X5979Y-1736D01*
X6085Y-1843D01*
X6223Y-1900D01*
X6373Y-1900D01*
X6512Y-1843D01*
X6618Y-1737D01*
X6676Y-1598D01*
X6676Y-1448D01*
X6676Y-6371D01*
X6557Y-6489D01*
X6557Y-2244D01*
X6497Y-2099D01*
X6386Y-1987D01*
X6240Y-1926D01*
X6158Y-1926D01*
X5070Y-839D01*
X4980Y-778D01*
X4873Y-757D01*
X4873Y-757D01*
X3686Y-757D01*
X3579Y-778D01*
X3489Y-839D01*
X3489Y-839D01*
X3332Y-996D01*
X2686Y-996D01*
X2613Y-1026D01*
X2556Y-1082D01*
X2526Y-1156D01*
X2526Y-1235D01*
X2526Y-2085D01*
X2556Y-2159D01*
X2612Y-2215D01*
X2686Y-2246D01*
X2765Y-2246D01*
X3515Y-2246D01*
X3589Y-2215D01*
X3645Y-2159D01*
X3676Y-2086D01*
X3676Y-2062D01*
X3694Y-2089D01*
X3881Y-2214D01*
X4101Y-2258D01*
X4272Y-2224D01*
X4272Y-2899D01*
X4160Y-2786D01*
X3798Y-2636D01*
X3406Y-2635D01*
X3044Y-2785D01*
X2766Y-3062D01*
X2616Y-3424D01*
X2616Y-3816D01*
X2765Y-4178D01*
X3042Y-4455D01*
X3404Y-4605D01*
X3796Y-4606D01*
X4158Y-4456D01*
X4272Y-4342D01*
X4272Y-6510D01*
X4256Y-6527D01*
X4204Y-6506D01*
X3999Y-6506D01*
X3810Y-6584D01*
X3665Y-6728D01*
X3586Y-6918D01*
X3586Y-7123D01*
X3664Y-7312D01*
X3809Y-7457D01*
X3998Y-7535D01*
X4203Y-7536D01*
X4392Y-7457D01*
X4537Y-7313D01*
X4616Y-7123D01*
X4616Y-6919D01*
X4594Y-6866D01*
X4681Y-6779D01*
X4733Y-6701D01*
X4751Y-6610D01*
X4751Y-5179D01*
X4971Y-5270D01*
X5230Y-5271D01*
X5469Y-5172D01*
X5652Y-4989D01*
X5751Y-4750D01*
X5751Y-4492D01*
X5652Y-4253D01*
X5555Y-4156D01*
X5707Y-4156D01*
X5904Y-4074D01*
X6054Y-3924D01*
X6136Y-3727D01*
X6136Y-3515D01*
X6055Y-3318D01*
X5904Y-3167D01*
X5708Y-3086D01*
X5495Y-3085D01*
X5298Y-3167D01*
X5148Y-3317D01*
X5066Y-3514D01*
X5066Y-3727D01*
X5147Y-3923D01*
X5194Y-3971D01*
X4972Y-3970D01*
X4751Y-4062D01*
X4751Y-2056D01*
X4763Y-2044D01*
X4815Y-1966D01*
X4833Y-1875D01*
X4833Y-1621D01*
X4815Y-1529D01*
X4763Y-1451D01*
X4686Y-1399D01*
X4643Y-1391D01*
X4632Y-1338D01*
X4616Y-1314D01*
X4758Y-1314D01*
X5764Y-2320D01*
X5764Y-2402D01*
X5824Y-2548D01*
X5935Y-2659D01*
X6081Y-2720D01*
X6239Y-2720D01*
X6385Y-2660D01*
X6497Y-2548D01*
X6557Y-2402D01*
X6557Y-2244D01*
X6557Y-6489D01*
X6347Y-6699D01*
X6167Y-7134D01*
X6166Y-7605D01*
X6346Y-8041D01*
X6679Y-8374D01*
X7114Y-8555D01*
X7585Y-8555D01*
X8021Y-8375D01*
X8354Y-8042D01*
X8535Y-7607D01*
X8536Y-7136D01*
X8536Y-8881D01*
X4289Y-8881D01*
X4289Y-8352D01*
X4234Y-8220D01*
X4134Y-8120D01*
X4003Y-8065D01*
X3912Y-8065D01*
X3251Y-7404D01*
X3251Y-5492D01*
X3152Y-5253D01*
X2970Y-5070D01*
X2731Y-4971D01*
X2472Y-4970D01*
X2233Y-5069D01*
X2136Y-5166D01*
X2136Y-3515D01*
X2055Y-3318D01*
X1904Y-3167D01*
X1708Y-3086D01*
X1495Y-3085D01*
X1298Y-3167D01*
X1148Y-3317D01*
X1066Y-3514D01*
X1066Y-3727D01*
X1147Y-3923D01*
X1297Y-4074D01*
X1494Y-4155D01*
X1707Y-4156D01*
X1904Y-4074D01*
X2054Y-3924D01*
X2136Y-3727D01*
X2136Y-3515D01*
X2136Y-5166D01*
X2050Y-5252D01*
X1951Y-5491D01*
X1951Y-5749D01*
X2050Y-5988D01*
X2232Y-6171D01*
X2471Y-6270D01*
X2730Y-6271D01*
X2969Y-6172D01*
X3152Y-5989D01*
X3251Y-5750D01*
X3251Y-5492D01*
X3251Y-7404D01*
X2699Y-6851D01*
X2621Y-6799D01*
X2529Y-6781D01*
X1559Y-6781D01*
X1538Y-6729D01*
X1393Y-6584D01*
X1204Y-6506D01*
X999Y-6506D01*
X810Y-6584D01*
X665Y-6728D01*
X586Y-6918D01*
X586Y-7123D01*
X664Y-7312D01*
X809Y-7457D01*
X998Y-7535D01*
X1203Y-7536D01*
X1392Y-7457D01*
X1537Y-7313D01*
X1559Y-7260D01*
X2430Y-7260D01*
X3574Y-8403D01*
X3574Y-8493D01*
X3628Y-8625D01*
X3728Y-8725D01*
X3860Y-8780D01*
X4002Y-8780D01*
X4133Y-8726D01*
X4234Y-8625D01*
X4289Y-8494D01*
X4289Y-8352D01*
X4289Y-8881D01*
X925Y-8881D01*
X918Y-8871D01*
X980Y-8777D01*
X1012Y-8621D01*
X980Y-8464D01*
X918Y-8371D01*
X980Y-8277D01*
X1012Y-8121D01*
X980Y-7964D01*
X892Y-7831D01*
X759Y-7742D01*
X602Y-7711D01*
X402Y-7711D01*
X245Y-7742D01*
X220Y-7758D01*
X220Y-749D01*
X294Y-774D01*
X471Y-761D01*
X577Y-717D01*
X591Y-633D01*
X351Y-392D01*
X345Y-398D01*
X275Y-327D01*
X280Y-322D01*
X275Y-316D01*
X345Y-245D01*
X351Y-251D01*
X356Y-245D01*
X427Y-316D01*
X422Y-322D01*
X662Y-562D01*
X747Y-547D01*
X803Y-379D01*
X790Y-201D01*
X786Y-191D01*
X28940Y-191D01*
X28899Y-313D01*
X28911Y-491D01*
X28955Y-596D01*
X29040Y-611D01*
X29280Y-371D01*
X29274Y-365D01*
X29345Y-294D01*
X29351Y-300D01*
X29356Y-294D01*
X29427Y-365D01*
X29421Y-371D01*
X29427Y-376D01*
X29356Y-447D01*
X29351Y-441D01*
X29110Y-682D01*
X29125Y-766D01*
X29294Y-823D01*
X29471Y-810D01*
X29481Y-806D01*
X29481Y-9671D01*
G54D10*
G36*
X29481Y-43944D02*
X29408Y-43920D01*
X29230Y-43932D01*
X29125Y-43976D01*
X29110Y-44060D01*
X29351Y-44301D01*
X29356Y-44295D01*
X29427Y-44366D01*
X29421Y-44372D01*
X29427Y-44377D01*
X29356Y-44448D01*
X29351Y-44442D01*
X29345Y-44448D01*
X29274Y-44377D01*
X29280Y-44372D01*
X29040Y-44131D01*
X28955Y-44146D01*
X28899Y-44314D01*
X28911Y-44492D01*
X28915Y-44502D01*
X12552Y-44502D01*
X12729Y-44325D01*
X12851Y-44031D01*
X12851Y-43713D01*
X12729Y-43419D01*
X12672Y-43361D01*
X16997Y-43361D01*
X17050Y-43489D01*
X17232Y-43672D01*
X17471Y-43771D01*
X17730Y-43772D01*
X17969Y-43673D01*
X18152Y-43490D01*
X18205Y-43361D01*
X24497Y-43361D01*
X24550Y-43489D01*
X24732Y-43672D01*
X24971Y-43771D01*
X25230Y-43772D01*
X25469Y-43673D01*
X25652Y-43490D01*
X25751Y-43251D01*
X25751Y-42993D01*
X25652Y-42754D01*
X25470Y-42571D01*
X25231Y-42472D01*
X25099Y-42472D01*
X25099Y-37242D01*
X25038Y-37096D01*
X24927Y-36984D01*
X24781Y-36924D01*
X24623Y-36923D01*
X24477Y-36984D01*
X24366Y-37095D01*
X24305Y-37241D01*
X24305Y-37399D01*
X24365Y-37545D01*
X24477Y-37657D01*
X24623Y-37717D01*
X24780Y-37717D01*
X24926Y-37657D01*
X25038Y-37545D01*
X25099Y-37400D01*
X25099Y-37242D01*
X25099Y-42472D01*
X24972Y-42471D01*
X24733Y-42570D01*
X24636Y-42667D01*
X24636Y-41016D01*
X24555Y-40819D01*
X24405Y-40668D01*
X24208Y-40587D01*
X23995Y-40586D01*
X23798Y-40668D01*
X23648Y-40818D01*
X23599Y-40936D01*
X23599Y-37242D01*
X23538Y-37096D01*
X23427Y-36984D01*
X23281Y-36924D01*
X23123Y-36923D01*
X22977Y-36984D01*
X22866Y-37095D01*
X22805Y-37241D01*
X22805Y-37399D01*
X22865Y-37545D01*
X22977Y-37657D01*
X23123Y-37717D01*
X23280Y-37717D01*
X23426Y-37657D01*
X23538Y-37545D01*
X23599Y-37400D01*
X23599Y-37242D01*
X23599Y-40936D01*
X23566Y-41015D01*
X23566Y-41227D01*
X23647Y-41424D01*
X23798Y-41575D01*
X23994Y-41656D01*
X24207Y-41657D01*
X24404Y-41575D01*
X24554Y-41425D01*
X24636Y-41228D01*
X24636Y-41016D01*
X24636Y-42667D01*
X24550Y-42753D01*
X24497Y-42882D01*
X23433Y-42882D01*
X23686Y-42630D01*
X23836Y-42268D01*
X23836Y-41876D01*
X23687Y-41514D01*
X23410Y-41237D01*
X23048Y-41087D01*
X22656Y-41086D01*
X22294Y-41236D01*
X22099Y-41431D01*
X22099Y-37242D01*
X22038Y-37096D01*
X21927Y-36984D01*
X21781Y-36924D01*
X21623Y-36923D01*
X21477Y-36984D01*
X21366Y-37095D01*
X21305Y-37241D01*
X21305Y-37399D01*
X21365Y-37545D01*
X21477Y-37657D01*
X21623Y-37717D01*
X21780Y-37717D01*
X21926Y-37657D01*
X22038Y-37545D01*
X22099Y-37400D01*
X22099Y-37242D01*
X22099Y-41431D01*
X22017Y-41513D01*
X21866Y-41875D01*
X21866Y-42267D01*
X22016Y-42629D01*
X22269Y-42882D01*
X21136Y-42882D01*
X21136Y-41016D01*
X21055Y-40819D01*
X20905Y-40668D01*
X20708Y-40587D01*
X20599Y-40587D01*
X20599Y-37242D01*
X20538Y-37096D01*
X20427Y-36984D01*
X20281Y-36924D01*
X20123Y-36923D01*
X19977Y-36984D01*
X19866Y-37095D01*
X19805Y-37241D01*
X19805Y-37399D01*
X19865Y-37545D01*
X19977Y-37657D01*
X20123Y-37717D01*
X20280Y-37717D01*
X20426Y-37657D01*
X20538Y-37545D01*
X20599Y-37400D01*
X20599Y-37242D01*
X20599Y-40587D01*
X20495Y-40586D01*
X20298Y-40668D01*
X20148Y-40818D01*
X20066Y-41015D01*
X20066Y-41227D01*
X20147Y-41424D01*
X20195Y-41472D01*
X19972Y-41471D01*
X19733Y-41570D01*
X19586Y-41717D01*
X19586Y-40926D01*
X19437Y-40564D01*
X19160Y-40287D01*
X19099Y-40262D01*
X19099Y-37242D01*
X19038Y-37096D01*
X18927Y-36984D01*
X18781Y-36924D01*
X18623Y-36923D01*
X18477Y-36984D01*
X18366Y-37095D01*
X18305Y-37241D01*
X18305Y-37399D01*
X18365Y-37545D01*
X18477Y-37657D01*
X18623Y-37717D01*
X18780Y-37717D01*
X18926Y-37657D01*
X19038Y-37545D01*
X19099Y-37400D01*
X19099Y-37242D01*
X19099Y-40262D01*
X18798Y-40137D01*
X18406Y-40136D01*
X18044Y-40286D01*
X17767Y-40563D01*
X17616Y-40925D01*
X17616Y-41317D01*
X17766Y-41679D01*
X18042Y-41956D01*
X18404Y-42106D01*
X18796Y-42107D01*
X19158Y-41957D01*
X19436Y-41680D01*
X19586Y-41318D01*
X19586Y-40926D01*
X19586Y-41717D01*
X19550Y-41753D01*
X19451Y-41992D01*
X19451Y-42250D01*
X19550Y-42489D01*
X19732Y-42672D01*
X19971Y-42771D01*
X20230Y-42772D01*
X20469Y-42673D01*
X20652Y-42490D01*
X20751Y-42251D01*
X20751Y-41993D01*
X20652Y-41754D01*
X20555Y-41657D01*
X20707Y-41657D01*
X20904Y-41575D01*
X21054Y-41425D01*
X21136Y-41228D01*
X21136Y-41016D01*
X21136Y-42882D01*
X18205Y-42882D01*
X18152Y-42754D01*
X17970Y-42571D01*
X17731Y-42472D01*
X17599Y-42472D01*
X17599Y-37242D01*
X17538Y-37096D01*
X17427Y-36984D01*
X17281Y-36924D01*
X17123Y-36923D01*
X16977Y-36984D01*
X16866Y-37095D01*
X16805Y-37241D01*
X16805Y-37399D01*
X16865Y-37545D01*
X16977Y-37657D01*
X17123Y-37717D01*
X17280Y-37717D01*
X17426Y-37657D01*
X17538Y-37545D01*
X17599Y-37400D01*
X17599Y-37242D01*
X17599Y-42472D01*
X17472Y-42471D01*
X17233Y-42570D01*
X17136Y-42667D01*
X17136Y-41016D01*
X17055Y-40819D01*
X16905Y-40668D01*
X16708Y-40587D01*
X16495Y-40586D01*
X16298Y-40668D01*
X16148Y-40818D01*
X16099Y-40936D01*
X16099Y-37242D01*
X16038Y-37096D01*
X15927Y-36984D01*
X15781Y-36924D01*
X15698Y-36924D01*
X15698Y-36443D01*
X15638Y-36297D01*
X15526Y-36185D01*
X15380Y-36125D01*
X15222Y-36125D01*
X15076Y-36185D01*
X14975Y-36286D01*
X13627Y-36286D01*
X13526Y-36185D01*
X13380Y-36125D01*
X13222Y-36125D01*
X13076Y-36185D01*
X12965Y-36296D01*
X12904Y-36442D01*
X12904Y-36600D01*
X12964Y-36746D01*
X13076Y-36858D01*
X13222Y-36918D01*
X13379Y-36918D01*
X13525Y-36858D01*
X13627Y-36757D01*
X14975Y-36757D01*
X15076Y-36858D01*
X15222Y-36918D01*
X15379Y-36918D01*
X15525Y-36858D01*
X15637Y-36747D01*
X15698Y-36601D01*
X15698Y-36443D01*
X15698Y-36924D01*
X15623Y-36923D01*
X15477Y-36984D01*
X15366Y-37095D01*
X15305Y-37241D01*
X15305Y-37399D01*
X15365Y-37545D01*
X15477Y-37657D01*
X15623Y-37717D01*
X15780Y-37717D01*
X15926Y-37657D01*
X16038Y-37545D01*
X16099Y-37400D01*
X16099Y-37242D01*
X16099Y-40936D01*
X16066Y-41015D01*
X16066Y-41227D01*
X16147Y-41424D01*
X16298Y-41575D01*
X16494Y-41656D01*
X16707Y-41657D01*
X16904Y-41575D01*
X17054Y-41425D01*
X17136Y-41228D01*
X17136Y-41016D01*
X17136Y-42667D01*
X17050Y-42753D01*
X16997Y-42882D01*
X16035Y-42882D01*
X16035Y-39736D01*
X15855Y-39300D01*
X15523Y-38967D01*
X15087Y-38786D01*
X14616Y-38786D01*
X14599Y-38793D01*
X14599Y-37242D01*
X14538Y-37096D01*
X14427Y-36984D01*
X14281Y-36924D01*
X14123Y-36923D01*
X13977Y-36984D01*
X13866Y-37095D01*
X13805Y-37241D01*
X13805Y-37399D01*
X13865Y-37545D01*
X13977Y-37657D01*
X14123Y-37717D01*
X14280Y-37717D01*
X14426Y-37657D01*
X14538Y-37545D01*
X14599Y-37400D01*
X14599Y-37242D01*
X14599Y-38793D01*
X14181Y-38966D01*
X13847Y-39299D01*
X13666Y-39734D01*
X13666Y-40205D01*
X13846Y-40640D01*
X14179Y-40974D01*
X14614Y-41155D01*
X15085Y-41155D01*
X15521Y-40975D01*
X15854Y-40642D01*
X16035Y-40207D01*
X16035Y-39736D01*
X16035Y-42882D01*
X13636Y-42882D01*
X13636Y-41016D01*
X13555Y-40819D01*
X13404Y-40668D01*
X13208Y-40587D01*
X12995Y-40586D01*
X12798Y-40668D01*
X12648Y-40818D01*
X12566Y-41015D01*
X12566Y-41227D01*
X12647Y-41424D01*
X12694Y-41472D01*
X12472Y-41471D01*
X12233Y-41570D01*
X12086Y-41717D01*
X12086Y-40926D01*
X11936Y-40564D01*
X11660Y-40287D01*
X11298Y-40137D01*
X10906Y-40136D01*
X10599Y-40263D01*
X10599Y-37242D01*
X10538Y-37096D01*
X10427Y-36984D01*
X10281Y-36924D01*
X10123Y-36923D01*
X9977Y-36984D01*
X9866Y-37095D01*
X9805Y-37241D01*
X9805Y-37399D01*
X9865Y-37545D01*
X9977Y-37657D01*
X10123Y-37717D01*
X10280Y-37717D01*
X10426Y-37657D01*
X10538Y-37545D01*
X10599Y-37400D01*
X10599Y-37242D01*
X10599Y-40263D01*
X10544Y-40286D01*
X10266Y-40563D01*
X10116Y-40925D01*
X10116Y-41317D01*
X10265Y-41679D01*
X10542Y-41956D01*
X10904Y-42106D01*
X11296Y-42107D01*
X11658Y-41957D01*
X11935Y-41680D01*
X12086Y-41318D01*
X12086Y-40926D01*
X12086Y-41717D01*
X12050Y-41753D01*
X11951Y-41992D01*
X11951Y-42250D01*
X12050Y-42489D01*
X12232Y-42672D01*
X12471Y-42771D01*
X12730Y-42772D01*
X12969Y-42673D01*
X13152Y-42490D01*
X13251Y-42251D01*
X13251Y-41993D01*
X13152Y-41754D01*
X13055Y-41657D01*
X13207Y-41657D01*
X13404Y-41575D01*
X13554Y-41425D01*
X13636Y-41228D01*
X13636Y-41016D01*
X13636Y-42882D01*
X10705Y-42882D01*
X10652Y-42754D01*
X10470Y-42571D01*
X10231Y-42472D01*
X9972Y-42471D01*
X9886Y-42507D01*
X9886Y-41016D01*
X9805Y-40819D01*
X9654Y-40668D01*
X9458Y-40587D01*
X9245Y-40586D01*
X9226Y-40594D01*
X9208Y-40587D01*
X9099Y-40587D01*
X9099Y-37242D01*
X9038Y-37096D01*
X8927Y-36984D01*
X8781Y-36924D01*
X8623Y-36923D01*
X8477Y-36984D01*
X8366Y-37095D01*
X8305Y-37241D01*
X8305Y-37399D01*
X8365Y-37545D01*
X8477Y-37657D01*
X8623Y-37717D01*
X8780Y-37717D01*
X8926Y-37657D01*
X9038Y-37545D01*
X9099Y-37400D01*
X9099Y-37242D01*
X9099Y-40587D01*
X8995Y-40586D01*
X8798Y-40668D01*
X8648Y-40818D01*
X8566Y-41015D01*
X8566Y-41227D01*
X8647Y-41424D01*
X8702Y-41480D01*
X8483Y-41570D01*
X8300Y-41753D01*
X8201Y-41992D01*
X8201Y-42250D01*
X8300Y-42489D01*
X8482Y-42672D01*
X8721Y-42771D01*
X8980Y-42772D01*
X9219Y-42673D01*
X9402Y-42490D01*
X9501Y-42251D01*
X9501Y-41993D01*
X9402Y-41754D01*
X9305Y-41657D01*
X9457Y-41657D01*
X9654Y-41575D01*
X9804Y-41425D01*
X9886Y-41228D01*
X9886Y-41016D01*
X9886Y-42507D01*
X9733Y-42570D01*
X9550Y-42753D01*
X9496Y-42882D01*
X6955Y-42882D01*
X6902Y-42754D01*
X6720Y-42571D01*
X6590Y-42517D01*
X6590Y-41754D01*
X6792Y-41956D01*
X7154Y-42106D01*
X7546Y-42107D01*
X7908Y-41957D01*
X8185Y-41680D01*
X8336Y-41318D01*
X8336Y-40926D01*
X8186Y-40564D01*
X7910Y-40287D01*
X7599Y-40158D01*
X7599Y-37242D01*
X7538Y-37096D01*
X7427Y-36984D01*
X7281Y-36924D01*
X7123Y-36923D01*
X6977Y-36984D01*
X6866Y-37095D01*
X6805Y-37241D01*
X6805Y-37399D01*
X6865Y-37545D01*
X6977Y-37657D01*
X7123Y-37717D01*
X7280Y-37717D01*
X7426Y-37657D01*
X7538Y-37545D01*
X7599Y-37400D01*
X7599Y-37242D01*
X7599Y-40158D01*
X7548Y-40137D01*
X7156Y-40136D01*
X6794Y-40286D01*
X6516Y-40563D01*
X6477Y-40658D01*
X6099Y-40280D01*
X6099Y-37242D01*
X6038Y-37096D01*
X5927Y-36984D01*
X5781Y-36924D01*
X5623Y-36923D01*
X5477Y-36984D01*
X5366Y-37095D01*
X5305Y-37241D01*
X5305Y-37399D01*
X5365Y-37545D01*
X5477Y-37657D01*
X5623Y-37717D01*
X5780Y-37717D01*
X5926Y-37657D01*
X6038Y-37545D01*
X6099Y-37400D01*
X6099Y-37242D01*
X6099Y-40280D01*
X5198Y-39378D01*
X5251Y-39250D01*
X5251Y-38992D01*
X5152Y-38753D01*
X4970Y-38570D01*
X4731Y-38470D01*
X4599Y-38470D01*
X4599Y-37242D01*
X4538Y-37096D01*
X4427Y-36984D01*
X4281Y-36924D01*
X4123Y-36923D01*
X3977Y-36984D01*
X3866Y-37095D01*
X3805Y-37241D01*
X3805Y-37399D01*
X3865Y-37545D01*
X3977Y-37657D01*
X4123Y-37717D01*
X4280Y-37717D01*
X4426Y-37657D01*
X4538Y-37545D01*
X4599Y-37400D01*
X4599Y-37242D01*
X4599Y-38470D01*
X4472Y-38470D01*
X4233Y-38569D01*
X4050Y-38752D01*
X3951Y-38991D01*
X3951Y-39249D01*
X4050Y-39488D01*
X4232Y-39671D01*
X4471Y-39770D01*
X4730Y-39770D01*
X4859Y-39717D01*
X5741Y-40599D01*
X5708Y-40585D01*
X5495Y-40585D01*
X5475Y-40594D01*
X5458Y-40587D01*
X5245Y-40586D01*
X5048Y-40668D01*
X4898Y-40818D01*
X4816Y-41015D01*
X4816Y-41227D01*
X4897Y-41424D01*
X5047Y-41575D01*
X5244Y-41656D01*
X5457Y-41657D01*
X5477Y-41648D01*
X5494Y-41655D01*
X5707Y-41655D01*
X5904Y-41574D01*
X6054Y-41424D01*
X6112Y-41286D01*
X6112Y-42517D01*
X5983Y-42570D01*
X5800Y-42753D01*
X5701Y-42992D01*
X5701Y-43250D01*
X5800Y-43489D01*
X5982Y-43672D01*
X6221Y-43771D01*
X6480Y-43772D01*
X6719Y-43673D01*
X6902Y-43490D01*
X6955Y-43361D01*
X9496Y-43361D01*
X9550Y-43489D01*
X9732Y-43672D01*
X9971Y-43771D01*
X10230Y-43772D01*
X10469Y-43673D01*
X10652Y-43490D01*
X10705Y-43361D01*
X11430Y-43361D01*
X11373Y-43418D01*
X11251Y-43712D01*
X11251Y-44030D01*
X11372Y-44324D01*
X11550Y-44502D01*
X4586Y-44502D01*
X4586Y-40925D01*
X4436Y-40563D01*
X4160Y-40286D01*
X3798Y-40136D01*
X3636Y-40135D01*
X3636Y-37676D01*
X3486Y-37314D01*
X3210Y-37037D01*
X3144Y-37010D01*
X3329Y-36825D01*
X3451Y-36531D01*
X3451Y-36213D01*
X3329Y-35919D01*
X3105Y-35694D01*
X2811Y-35572D01*
X2492Y-35571D01*
X2198Y-35693D01*
X1973Y-35918D01*
X1851Y-36212D01*
X1851Y-36530D01*
X1972Y-36824D01*
X2157Y-37010D01*
X2094Y-37036D01*
X1816Y-37313D01*
X1666Y-37675D01*
X1666Y-38067D01*
X1815Y-38429D01*
X2092Y-38706D01*
X2454Y-38856D01*
X2846Y-38857D01*
X3208Y-38707D01*
X3485Y-38430D01*
X3636Y-38068D01*
X3636Y-37676D01*
X3636Y-40135D01*
X3406Y-40135D01*
X3044Y-40285D01*
X2766Y-40562D01*
X2751Y-40599D01*
X2751Y-39992D01*
X2652Y-39753D01*
X2470Y-39570D01*
X2231Y-39470D01*
X1972Y-39470D01*
X1733Y-39569D01*
X1599Y-39703D01*
X1599Y-37242D01*
X1538Y-37096D01*
X1427Y-36984D01*
X1281Y-36924D01*
X1123Y-36923D01*
X977Y-36984D01*
X866Y-37095D01*
X805Y-37241D01*
X805Y-37399D01*
X865Y-37545D01*
X977Y-37657D01*
X1123Y-37717D01*
X1280Y-37717D01*
X1426Y-37657D01*
X1538Y-37545D01*
X1599Y-37400D01*
X1599Y-37242D01*
X1599Y-39703D01*
X1550Y-39752D01*
X1451Y-39991D01*
X1451Y-40249D01*
X1550Y-40488D01*
X1647Y-40585D01*
X1495Y-40585D01*
X1298Y-40667D01*
X1148Y-40817D01*
X1066Y-41013D01*
X1066Y-41226D01*
X1147Y-41423D01*
X1297Y-41574D01*
X1494Y-41655D01*
X1707Y-41655D01*
X1904Y-41574D01*
X2054Y-41424D01*
X2136Y-41227D01*
X2136Y-41014D01*
X2055Y-40818D01*
X2007Y-40770D01*
X2230Y-40770D01*
X2469Y-40672D01*
X2652Y-40489D01*
X2751Y-40250D01*
X2751Y-39992D01*
X2751Y-40599D01*
X2616Y-40924D01*
X2616Y-41315D01*
X2765Y-41678D01*
X3042Y-41955D01*
X3404Y-42105D01*
X3796Y-42106D01*
X4158Y-41956D01*
X4435Y-41679D01*
X4586Y-41317D01*
X4586Y-40925D01*
X4586Y-44502D01*
X3152Y-44502D01*
X3329Y-44325D01*
X3451Y-44031D01*
X3451Y-43713D01*
X3329Y-43419D01*
X3105Y-43194D01*
X2811Y-43072D01*
X2492Y-43071D01*
X2198Y-43193D01*
X1973Y-43418D01*
X1851Y-43712D01*
X1851Y-44030D01*
X1972Y-44324D01*
X2150Y-44502D01*
X804Y-44502D01*
X804Y-36677D01*
X791Y-36500D01*
X748Y-36395D01*
X663Y-36380D01*
X423Y-36620D01*
X663Y-36861D01*
X748Y-36846D01*
X804Y-36677D01*
X804Y-44502D01*
X778Y-44502D01*
X803Y-44429D01*
X790Y-44251D01*
X747Y-44146D01*
X662Y-44131D01*
X422Y-44372D01*
X427Y-44377D01*
X356Y-44448D01*
X351Y-44442D01*
X345Y-44448D01*
X275Y-44377D01*
X280Y-44372D01*
X275Y-44366D01*
X345Y-44295D01*
X351Y-44301D01*
X591Y-44060D01*
X577Y-43976D01*
X408Y-43920D01*
X231Y-43932D01*
X220Y-43936D01*
X220Y-37718D01*
X279Y-37718D01*
X425Y-37658D01*
X537Y-37547D01*
X598Y-37401D01*
X598Y-37243D01*
X538Y-37097D01*
X492Y-37052D01*
X578Y-37016D01*
X592Y-36931D01*
X352Y-36691D01*
X346Y-36697D01*
X276Y-36626D01*
X281Y-36620D01*
X276Y-36615D01*
X346Y-36544D01*
X352Y-36550D01*
X592Y-36309D01*
X578Y-36225D01*
X409Y-36168D01*
X232Y-36181D01*
X220Y-36186D01*
X220Y-16483D01*
X245Y-16499D01*
X402Y-16530D01*
X402Y-16530D01*
X393Y-16579D01*
X393Y-21804D01*
X411Y-21896D01*
X463Y-21973D01*
X2914Y-24424D01*
X2913Y-24514D01*
X2968Y-24645D01*
X3068Y-24746D01*
X3200Y-24800D01*
X3290Y-24800D01*
X3625Y-25135D01*
X3406Y-25135D01*
X3044Y-25285D01*
X2766Y-25562D01*
X2616Y-25924D01*
X2616Y-26315D01*
X2765Y-26678D01*
X3042Y-26955D01*
X3404Y-27105D01*
X3796Y-27106D01*
X4158Y-26956D01*
X4435Y-26679D01*
X4586Y-26317D01*
X4586Y-26096D01*
X4963Y-26474D01*
X4733Y-26569D01*
X4550Y-26752D01*
X4451Y-26991D01*
X4451Y-27249D01*
X4550Y-27488D01*
X4732Y-27671D01*
X4971Y-27770D01*
X5230Y-27770D01*
X5469Y-27672D01*
X5652Y-27489D01*
X5751Y-27250D01*
X5751Y-26992D01*
X5723Y-26924D01*
X6250Y-26924D01*
X6313Y-26988D01*
X6444Y-27042D01*
X6587Y-27042D01*
X6718Y-26988D01*
X6819Y-26888D01*
X6873Y-26756D01*
X6873Y-26614D01*
X6819Y-26483D01*
X6719Y-26382D01*
X6587Y-26327D01*
X6445Y-26327D01*
X6314Y-26382D01*
X6250Y-26445D01*
X6032Y-26445D01*
X6054Y-26424D01*
X6136Y-26227D01*
X6136Y-26127D01*
X6183Y-26173D01*
X6314Y-26228D01*
X6456Y-26228D01*
X6588Y-26174D01*
X6688Y-26073D01*
X6743Y-25942D01*
X6743Y-25800D01*
X6689Y-25668D01*
X6588Y-25568D01*
X6573Y-25562D01*
X6703Y-25508D01*
X6767Y-25444D01*
X10384Y-25444D01*
X10266Y-25562D01*
X10116Y-25924D01*
X10116Y-26315D01*
X10265Y-26678D01*
X10542Y-26955D01*
X10904Y-27105D01*
X11296Y-27106D01*
X11658Y-26956D01*
X11935Y-26679D01*
X12086Y-26317D01*
X12086Y-25925D01*
X11936Y-25563D01*
X11818Y-25444D01*
X15896Y-25444D01*
X15959Y-25508D01*
X16090Y-25562D01*
X16233Y-25562D01*
X16364Y-25508D01*
X16465Y-25408D01*
X16519Y-25276D01*
X16519Y-25134D01*
X16465Y-25003D01*
X16365Y-24902D01*
X16233Y-24847D01*
X16091Y-24847D01*
X15960Y-24902D01*
X15896Y-24965D01*
X12855Y-24965D01*
X12855Y-24844D01*
X12801Y-24713D01*
X12701Y-24612D01*
X12569Y-24558D01*
X12427Y-24558D01*
X12296Y-24612D01*
X12232Y-24676D01*
X7647Y-24676D01*
X7584Y-24612D01*
X7453Y-24558D01*
X7310Y-24558D01*
X7179Y-24612D01*
X7078Y-24713D01*
X7024Y-24844D01*
X7024Y-24965D01*
X6767Y-24965D01*
X6703Y-24902D01*
X6572Y-24847D01*
X6430Y-24847D01*
X6298Y-24902D01*
X6198Y-25002D01*
X6143Y-25133D01*
X6143Y-25276D01*
X6153Y-25300D01*
X5529Y-24676D01*
X5452Y-24624D01*
X5360Y-24606D01*
X4512Y-24606D01*
X4448Y-24542D01*
X4317Y-24488D01*
X4300Y-24488D01*
X1265Y-21453D01*
X1265Y-21364D01*
X1211Y-21232D01*
X1111Y-21132D01*
X979Y-21077D01*
X872Y-21077D01*
X872Y-16678D01*
X1089Y-16460D01*
X1141Y-16383D01*
X1159Y-16291D01*
X1159Y-15620D01*
X1141Y-15529D01*
X1089Y-15451D01*
X1012Y-15399D01*
X962Y-15389D01*
X1032Y-15267D01*
X1036Y-15241D01*
X986Y-15170D01*
X552Y-15170D01*
X552Y-15178D01*
X452Y-15178D01*
X452Y-15170D01*
X444Y-15170D01*
X444Y-15070D01*
X452Y-15070D01*
X452Y-15062D01*
X552Y-15062D01*
X552Y-15070D01*
X986Y-15070D01*
X1036Y-14999D01*
X1032Y-14974D01*
X989Y-14899D01*
X2269Y-14899D01*
X2238Y-14973D01*
X2238Y-15115D01*
X2292Y-15247D01*
X2356Y-15311D01*
X2356Y-19614D01*
X2374Y-19702D01*
X2136Y-19940D01*
X2136Y-18514D01*
X2055Y-18318D01*
X1904Y-18167D01*
X1708Y-18085D01*
X1495Y-18085D01*
X1298Y-18167D01*
X1148Y-18317D01*
X1066Y-18513D01*
X1066Y-18726D01*
X1147Y-18923D01*
X1297Y-19074D01*
X1494Y-19155D01*
X1707Y-19155D01*
X1904Y-19074D01*
X2054Y-18924D01*
X2136Y-18727D01*
X2136Y-18514D01*
X2136Y-19940D01*
X1858Y-20218D01*
X1806Y-20295D01*
X1788Y-20387D01*
X1788Y-21474D01*
X1806Y-21565D01*
X1858Y-21643D01*
X2443Y-22227D01*
X2442Y-22317D01*
X2497Y-22449D01*
X2597Y-22549D01*
X2729Y-22604D01*
X2766Y-22604D01*
X2746Y-22652D01*
X2746Y-22795D01*
X2800Y-22926D01*
X2901Y-23027D01*
X3032Y-23081D01*
X3174Y-23081D01*
X3306Y-23027D01*
X3406Y-22927D01*
X3461Y-22795D01*
X3461Y-22723D01*
X5050Y-21134D01*
X5125Y-21210D01*
X5257Y-21264D01*
X5347Y-21264D01*
X5567Y-21484D01*
X4356Y-22695D01*
X4267Y-22695D01*
X4135Y-22749D01*
X4035Y-22850D01*
X3980Y-22981D01*
X3980Y-23123D01*
X4034Y-23255D01*
X4135Y-23356D01*
X4234Y-23397D01*
X4223Y-23401D01*
X4112Y-23513D01*
X4051Y-23658D01*
X4051Y-23816D01*
X4111Y-23962D01*
X4223Y-24074D01*
X4369Y-24135D01*
X4527Y-24135D01*
X4672Y-24074D01*
X4784Y-23963D01*
X4845Y-23817D01*
X4845Y-23735D01*
X5765Y-22815D01*
X6687Y-22815D01*
X6744Y-22873D01*
X6890Y-22933D01*
X7048Y-22934D01*
X7194Y-22873D01*
X7301Y-22767D01*
X12600Y-22767D01*
X12603Y-22772D01*
X12714Y-22884D01*
X12860Y-22945D01*
X13018Y-22945D01*
X13164Y-22884D01*
X13257Y-22791D01*
X14877Y-22791D01*
X14369Y-23300D01*
X14363Y-23300D01*
X14232Y-23354D01*
X14131Y-23455D01*
X14076Y-23586D01*
X14076Y-23728D01*
X14131Y-23860D01*
X14231Y-23960D01*
X14362Y-24015D01*
X14505Y-24015D01*
X14636Y-23961D01*
X14737Y-23860D01*
X14776Y-23766D01*
X14895Y-23815D01*
X15037Y-23815D01*
X15168Y-23761D01*
X15269Y-23661D01*
X15323Y-23529D01*
X15323Y-23520D01*
X26511Y-23520D01*
X27102Y-24111D01*
X27102Y-24111D01*
X27179Y-24163D01*
X27271Y-24181D01*
X27271Y-24181D01*
X28363Y-24181D01*
X28455Y-24163D01*
X28455Y-24163D01*
X28533Y-24111D01*
X29481Y-23162D01*
X29481Y-24671D01*
X29305Y-24494D01*
X29011Y-24372D01*
X28693Y-24371D01*
X28399Y-24493D01*
X28173Y-24718D01*
X28051Y-25012D01*
X28051Y-25330D01*
X28157Y-25587D01*
X27995Y-25586D01*
X27798Y-25668D01*
X27648Y-25818D01*
X27566Y-26015D01*
X27566Y-26227D01*
X27647Y-26424D01*
X27695Y-26472D01*
X27472Y-26471D01*
X27233Y-26570D01*
X27086Y-26717D01*
X27086Y-25926D01*
X26937Y-25564D01*
X26660Y-25287D01*
X26636Y-25277D01*
X26636Y-24266D01*
X26555Y-24069D01*
X26405Y-23918D01*
X26208Y-23837D01*
X25995Y-23836D01*
X25798Y-23918D01*
X25648Y-24068D01*
X25566Y-24265D01*
X25566Y-24477D01*
X25647Y-24674D01*
X25798Y-24825D01*
X25994Y-24906D01*
X26207Y-24907D01*
X26404Y-24825D01*
X26554Y-24675D01*
X26636Y-24478D01*
X26636Y-24266D01*
X26636Y-25277D01*
X26298Y-25137D01*
X25906Y-25136D01*
X25544Y-25286D01*
X25267Y-25563D01*
X25116Y-25925D01*
X25116Y-26317D01*
X25266Y-26679D01*
X25542Y-26956D01*
X25904Y-27106D01*
X26296Y-27107D01*
X26658Y-26957D01*
X26936Y-26680D01*
X27086Y-26318D01*
X27086Y-25926D01*
X27086Y-26717D01*
X27050Y-26753D01*
X26951Y-26992D01*
X26951Y-27250D01*
X27004Y-27380D01*
X26932Y-27452D01*
X26880Y-27530D01*
X26862Y-27622D01*
X26862Y-27767D01*
X26733Y-27820D01*
X26636Y-27917D01*
X26636Y-27766D01*
X26555Y-27569D01*
X26405Y-27418D01*
X26208Y-27337D01*
X25995Y-27336D01*
X25798Y-27418D01*
X25648Y-27568D01*
X25595Y-27696D01*
X25470Y-27571D01*
X25231Y-27472D01*
X24972Y-27471D01*
X24733Y-27570D01*
X24636Y-27667D01*
X24636Y-26016D01*
X24555Y-25819D01*
X24405Y-25668D01*
X24208Y-25587D01*
X23995Y-25586D01*
X23798Y-25668D01*
X23648Y-25818D01*
X23566Y-26015D01*
X23566Y-26227D01*
X23647Y-26424D01*
X23798Y-26575D01*
X23994Y-26656D01*
X24207Y-26657D01*
X24404Y-26575D01*
X24554Y-26425D01*
X24636Y-26228D01*
X24636Y-26016D01*
X24636Y-27667D01*
X24550Y-27753D01*
X24497Y-27882D01*
X23433Y-27882D01*
X23686Y-27630D01*
X23836Y-27268D01*
X23836Y-26876D01*
X23687Y-26514D01*
X23410Y-26237D01*
X23132Y-26121D01*
X23408Y-26007D01*
X23686Y-25730D01*
X23836Y-25368D01*
X23836Y-24976D01*
X23687Y-24614D01*
X23410Y-24337D01*
X23048Y-24187D01*
X22656Y-24186D01*
X22294Y-24336D01*
X22017Y-24613D01*
X21866Y-24975D01*
X21866Y-25367D01*
X22016Y-25729D01*
X22292Y-26006D01*
X22571Y-26122D01*
X22294Y-26236D01*
X22017Y-26513D01*
X21866Y-26875D01*
X21866Y-27267D01*
X22016Y-27629D01*
X22269Y-27882D01*
X21136Y-27882D01*
X21136Y-26014D01*
X21055Y-25818D01*
X20905Y-25667D01*
X20708Y-25585D01*
X20495Y-25585D01*
X20298Y-25667D01*
X20148Y-25817D01*
X20066Y-26013D01*
X20066Y-26226D01*
X20147Y-26423D01*
X20195Y-26470D01*
X19972Y-26470D01*
X19733Y-26569D01*
X19586Y-26716D01*
X19586Y-25925D01*
X19437Y-25563D01*
X19160Y-25286D01*
X18798Y-25136D01*
X18406Y-25135D01*
X18044Y-25285D01*
X17767Y-25562D01*
X17616Y-25924D01*
X17616Y-26315D01*
X17766Y-26678D01*
X18042Y-26955D01*
X18404Y-27105D01*
X18796Y-27106D01*
X19158Y-26956D01*
X19436Y-26679D01*
X19586Y-26317D01*
X19586Y-25925D01*
X19586Y-26716D01*
X19550Y-26752D01*
X19451Y-26991D01*
X19451Y-27249D01*
X19550Y-27488D01*
X19732Y-27671D01*
X19971Y-27770D01*
X20230Y-27770D01*
X20469Y-27672D01*
X20652Y-27489D01*
X20751Y-27250D01*
X20751Y-26992D01*
X20652Y-26753D01*
X20555Y-26655D01*
X20707Y-26655D01*
X20904Y-26574D01*
X21054Y-26424D01*
X21136Y-26227D01*
X21136Y-26014D01*
X21136Y-27882D01*
X18206Y-27882D01*
X18152Y-27753D01*
X17970Y-27570D01*
X17731Y-27470D01*
X17472Y-27470D01*
X17233Y-27569D01*
X17136Y-27666D01*
X17136Y-26014D01*
X17055Y-25818D01*
X16905Y-25667D01*
X16708Y-25585D01*
X16495Y-25585D01*
X16298Y-25667D01*
X16148Y-25817D01*
X16066Y-26013D01*
X16066Y-26226D01*
X16147Y-26423D01*
X16298Y-26574D01*
X16494Y-26655D01*
X16707Y-26655D01*
X16904Y-26574D01*
X17054Y-26424D01*
X17136Y-26227D01*
X17136Y-26014D01*
X17136Y-27666D01*
X17050Y-27752D01*
X16997Y-27881D01*
X13636Y-27881D01*
X13636Y-26014D01*
X13555Y-25818D01*
X13404Y-25667D01*
X13208Y-25585D01*
X12995Y-25585D01*
X12798Y-25667D01*
X12648Y-25817D01*
X12566Y-26013D01*
X12566Y-26226D01*
X12647Y-26423D01*
X12694Y-26470D01*
X12472Y-26470D01*
X12233Y-26569D01*
X12050Y-26752D01*
X11951Y-26991D01*
X11951Y-27249D01*
X12050Y-27488D01*
X12232Y-27671D01*
X12471Y-27770D01*
X12730Y-27770D01*
X12969Y-27672D01*
X13152Y-27489D01*
X13251Y-27250D01*
X13251Y-26992D01*
X13152Y-26753D01*
X13055Y-26655D01*
X13207Y-26655D01*
X13404Y-26574D01*
X13554Y-26424D01*
X13636Y-26227D01*
X13636Y-26014D01*
X13636Y-27881D01*
X10705Y-27881D01*
X10652Y-27753D01*
X10470Y-27570D01*
X10231Y-27470D01*
X9972Y-27470D01*
X9733Y-27569D01*
X9636Y-27666D01*
X9636Y-26014D01*
X9555Y-25818D01*
X9404Y-25667D01*
X9208Y-25585D01*
X8995Y-25585D01*
X8798Y-25667D01*
X8648Y-25817D01*
X8566Y-26013D01*
X8566Y-26226D01*
X8647Y-26423D01*
X8797Y-26574D01*
X8994Y-26655D01*
X9207Y-26655D01*
X9404Y-26574D01*
X9554Y-26424D01*
X9636Y-26227D01*
X9636Y-26014D01*
X9636Y-27666D01*
X9550Y-27752D01*
X9496Y-27881D01*
X3205Y-27881D01*
X3152Y-27753D01*
X2970Y-27570D01*
X2731Y-27470D01*
X2472Y-27470D01*
X2233Y-27569D01*
X2136Y-27666D01*
X2136Y-26014D01*
X2055Y-25818D01*
X1904Y-25667D01*
X1708Y-25585D01*
X1495Y-25585D01*
X1298Y-25667D01*
X1148Y-25817D01*
X1066Y-26013D01*
X1066Y-26226D01*
X1147Y-26423D01*
X1297Y-26574D01*
X1494Y-26655D01*
X1707Y-26655D01*
X1904Y-26574D01*
X2054Y-26424D01*
X2136Y-26227D01*
X2136Y-26014D01*
X2136Y-27666D01*
X2050Y-27752D01*
X1951Y-27991D01*
X1951Y-28249D01*
X2050Y-28488D01*
X2232Y-28671D01*
X2471Y-28770D01*
X2730Y-28770D01*
X2969Y-28672D01*
X3152Y-28489D01*
X3205Y-28360D01*
X9496Y-28360D01*
X9550Y-28488D01*
X9732Y-28671D01*
X9971Y-28770D01*
X10230Y-28770D01*
X10469Y-28672D01*
X10652Y-28489D01*
X10705Y-28360D01*
X16997Y-28360D01*
X17050Y-28488D01*
X17232Y-28671D01*
X17471Y-28770D01*
X17730Y-28770D01*
X17969Y-28672D01*
X18152Y-28489D01*
X18205Y-28361D01*
X24497Y-28361D01*
X24550Y-28489D01*
X24732Y-28672D01*
X24971Y-28771D01*
X25230Y-28772D01*
X25469Y-28673D01*
X25652Y-28490D01*
X25658Y-28474D01*
X26071Y-28887D01*
X25906Y-28886D01*
X25544Y-29036D01*
X25267Y-29313D01*
X25116Y-29675D01*
X25116Y-30067D01*
X25266Y-30429D01*
X25542Y-30706D01*
X25904Y-30856D01*
X26296Y-30857D01*
X26658Y-30707D01*
X26936Y-30430D01*
X27086Y-30068D01*
X27086Y-29902D01*
X27619Y-30435D01*
X27550Y-30503D01*
X27451Y-30742D01*
X27451Y-31000D01*
X27550Y-31239D01*
X27732Y-31422D01*
X27971Y-31521D01*
X28230Y-31522D01*
X28469Y-31423D01*
X28652Y-31240D01*
X28751Y-31001D01*
X28751Y-30743D01*
X28652Y-30504D01*
X28470Y-30321D01*
X28231Y-30222D01*
X28083Y-30222D01*
X26820Y-28959D01*
X26971Y-29021D01*
X27230Y-29022D01*
X27469Y-28923D01*
X27652Y-28740D01*
X27751Y-28501D01*
X27751Y-28243D01*
X27652Y-28004D01*
X27470Y-27821D01*
X27340Y-27767D01*
X27340Y-27721D01*
X27343Y-27718D01*
X27471Y-27771D01*
X27730Y-27772D01*
X27969Y-27673D01*
X28152Y-27490D01*
X28155Y-27482D01*
X28172Y-27524D01*
X28397Y-27749D01*
X28691Y-27871D01*
X29010Y-27872D01*
X29304Y-27750D01*
X29481Y-27573D01*
X29481Y-32171D01*
X29305Y-31994D01*
X29011Y-31872D01*
X28693Y-31871D01*
X28399Y-31993D01*
X28173Y-32218D01*
X28051Y-32512D01*
X28051Y-32830D01*
X28157Y-33087D01*
X27995Y-33086D01*
X27798Y-33168D01*
X27648Y-33318D01*
X27566Y-33515D01*
X27566Y-33727D01*
X27647Y-33924D01*
X27695Y-33972D01*
X27472Y-33971D01*
X27233Y-34070D01*
X27086Y-34217D01*
X27086Y-33426D01*
X26937Y-33064D01*
X26660Y-32787D01*
X26636Y-32777D01*
X26636Y-31766D01*
X26555Y-31569D01*
X26405Y-31418D01*
X26208Y-31337D01*
X25995Y-31336D01*
X25798Y-31418D01*
X25648Y-31568D01*
X25566Y-31765D01*
X25566Y-31977D01*
X25647Y-32174D01*
X25798Y-32325D01*
X25994Y-32406D01*
X26207Y-32407D01*
X26404Y-32325D01*
X26554Y-32175D01*
X26636Y-31978D01*
X26636Y-31766D01*
X26636Y-32777D01*
X26298Y-32637D01*
X25906Y-32636D01*
X25544Y-32786D01*
X25267Y-33063D01*
X25116Y-33425D01*
X25116Y-33817D01*
X25266Y-34179D01*
X25542Y-34456D01*
X25904Y-34606D01*
X26296Y-34607D01*
X26658Y-34457D01*
X26936Y-34180D01*
X27086Y-33818D01*
X27086Y-33426D01*
X27086Y-34217D01*
X27050Y-34253D01*
X26951Y-34492D01*
X26951Y-34750D01*
X27050Y-34989D01*
X27232Y-35172D01*
X27471Y-35271D01*
X27730Y-35272D01*
X27969Y-35173D01*
X28152Y-34990D01*
X28155Y-34982D01*
X28172Y-35024D01*
X28397Y-35249D01*
X28691Y-35371D01*
X29010Y-35372D01*
X29304Y-35250D01*
X29481Y-35073D01*
X29481Y-36243D01*
X29409Y-36218D01*
X29232Y-36231D01*
X29126Y-36275D01*
X29112Y-36359D01*
X29352Y-36600D01*
X29357Y-36594D01*
X29428Y-36665D01*
X29423Y-36670D01*
X29428Y-36676D01*
X29357Y-36747D01*
X29352Y-36741D01*
X29281Y-36812D01*
X29281Y-36670D01*
X29041Y-36430D01*
X28956Y-36445D01*
X28900Y-36613D01*
X28912Y-36791D01*
X28956Y-36896D01*
X29041Y-36911D01*
X29281Y-36670D01*
X29281Y-36812D01*
X29112Y-36981D01*
X29126Y-37066D01*
X29178Y-37083D01*
X29165Y-37096D01*
X29104Y-37242D01*
X29104Y-37400D01*
X29164Y-37546D01*
X29276Y-37658D01*
X29422Y-37718D01*
X29481Y-37718D01*
X29481Y-41571D01*
X29305Y-41394D01*
X29011Y-41272D01*
X28751Y-41271D01*
X28751Y-38243D01*
X28652Y-38004D01*
X28470Y-37821D01*
X28231Y-37722D01*
X28078Y-37722D01*
X28039Y-37682D01*
X28123Y-37717D01*
X28280Y-37717D01*
X28426Y-37657D01*
X28538Y-37545D01*
X28599Y-37400D01*
X28599Y-37242D01*
X28538Y-37096D01*
X28427Y-36984D01*
X28281Y-36924D01*
X28123Y-36923D01*
X27977Y-36984D01*
X27866Y-37095D01*
X27805Y-37241D01*
X27805Y-37399D01*
X27840Y-37484D01*
X26811Y-36455D01*
X26971Y-36521D01*
X27230Y-36522D01*
X27469Y-36423D01*
X27652Y-36240D01*
X27751Y-36001D01*
X27751Y-35743D01*
X27652Y-35504D01*
X27470Y-35321D01*
X27231Y-35222D01*
X26972Y-35221D01*
X26733Y-35320D01*
X26636Y-35417D01*
X26636Y-35266D01*
X26555Y-35069D01*
X26405Y-34918D01*
X26208Y-34837D01*
X25995Y-34836D01*
X25798Y-34918D01*
X25648Y-35068D01*
X25595Y-35196D01*
X25470Y-35071D01*
X25231Y-34972D01*
X24972Y-34971D01*
X24733Y-35070D01*
X24636Y-35167D01*
X24636Y-33516D01*
X24555Y-33319D01*
X24405Y-33168D01*
X24208Y-33087D01*
X23995Y-33086D01*
X23798Y-33168D01*
X23648Y-33318D01*
X23566Y-33515D01*
X23566Y-33727D01*
X23647Y-33924D01*
X23798Y-34075D01*
X23994Y-34156D01*
X24207Y-34157D01*
X24404Y-34075D01*
X24554Y-33925D01*
X24636Y-33728D01*
X24636Y-33516D01*
X24636Y-35167D01*
X24550Y-35253D01*
X24497Y-35382D01*
X23433Y-35382D01*
X23686Y-35130D01*
X23836Y-34768D01*
X23836Y-34376D01*
X23687Y-34014D01*
X23410Y-33737D01*
X23132Y-33621D01*
X23408Y-33507D01*
X23686Y-33230D01*
X23836Y-32868D01*
X23836Y-32476D01*
X23687Y-32114D01*
X23535Y-31963D01*
X23535Y-29636D01*
X23355Y-29200D01*
X23023Y-28867D01*
X22587Y-28686D01*
X22116Y-28686D01*
X21681Y-28866D01*
X21347Y-29199D01*
X21166Y-29634D01*
X21166Y-30105D01*
X21346Y-30540D01*
X21679Y-30874D01*
X22114Y-31055D01*
X22585Y-31055D01*
X23021Y-30875D01*
X23354Y-30542D01*
X23535Y-30107D01*
X23535Y-29636D01*
X23535Y-31963D01*
X23410Y-31837D01*
X23048Y-31687D01*
X22656Y-31686D01*
X22294Y-31836D01*
X22017Y-32113D01*
X21866Y-32475D01*
X21866Y-32867D01*
X22016Y-33229D01*
X22292Y-33506D01*
X22571Y-33622D01*
X22294Y-33736D01*
X22017Y-34013D01*
X21866Y-34375D01*
X21866Y-34767D01*
X22016Y-35129D01*
X22269Y-35382D01*
X21136Y-35382D01*
X21136Y-33514D01*
X21055Y-33318D01*
X20905Y-33167D01*
X20708Y-33085D01*
X20495Y-33085D01*
X20298Y-33167D01*
X20148Y-33317D01*
X20066Y-33513D01*
X20066Y-33726D01*
X20147Y-33923D01*
X20195Y-33970D01*
X19972Y-33970D01*
X19733Y-34069D01*
X19586Y-34216D01*
X19586Y-33425D01*
X19437Y-33063D01*
X19160Y-32786D01*
X18798Y-32636D01*
X18406Y-32635D01*
X18044Y-32785D01*
X17767Y-33062D01*
X17616Y-33424D01*
X17616Y-33815D01*
X17766Y-34178D01*
X18042Y-34455D01*
X18404Y-34605D01*
X18796Y-34606D01*
X19158Y-34456D01*
X19436Y-34179D01*
X19586Y-33817D01*
X19586Y-33425D01*
X19586Y-34216D01*
X19550Y-34252D01*
X19451Y-34491D01*
X19451Y-34749D01*
X19550Y-34988D01*
X19732Y-35171D01*
X19971Y-35270D01*
X20230Y-35270D01*
X20469Y-35172D01*
X20652Y-34989D01*
X20751Y-34750D01*
X20751Y-34492D01*
X20652Y-34253D01*
X20555Y-34155D01*
X20707Y-34155D01*
X20904Y-34074D01*
X21054Y-33924D01*
X21136Y-33727D01*
X21136Y-33514D01*
X21136Y-35382D01*
X18206Y-35382D01*
X18152Y-35253D01*
X17970Y-35070D01*
X17731Y-34970D01*
X17472Y-34970D01*
X17233Y-35069D01*
X17136Y-35166D01*
X17136Y-33514D01*
X17055Y-33318D01*
X16905Y-33167D01*
X16708Y-33085D01*
X16495Y-33085D01*
X16298Y-33167D01*
X16148Y-33317D01*
X16066Y-33513D01*
X16066Y-33726D01*
X16147Y-33923D01*
X16298Y-34074D01*
X16494Y-34155D01*
X16707Y-34155D01*
X16904Y-34074D01*
X17054Y-33924D01*
X17136Y-33727D01*
X17136Y-33514D01*
X17136Y-35166D01*
X17050Y-35252D01*
X16997Y-35381D01*
X13636Y-35381D01*
X13636Y-33514D01*
X13555Y-33318D01*
X13404Y-33167D01*
X13208Y-33085D01*
X13036Y-33085D01*
X13036Y-30176D01*
X12886Y-29814D01*
X12610Y-29537D01*
X12248Y-29387D01*
X11856Y-29386D01*
X11494Y-29536D01*
X11216Y-29813D01*
X11066Y-30175D01*
X11066Y-30567D01*
X11215Y-30929D01*
X11492Y-31206D01*
X11854Y-31356D01*
X12246Y-31357D01*
X12608Y-31207D01*
X12885Y-30930D01*
X13036Y-30568D01*
X13036Y-30176D01*
X13036Y-33085D01*
X12995Y-33085D01*
X12798Y-33167D01*
X12648Y-33317D01*
X12566Y-33513D01*
X12566Y-33726D01*
X12647Y-33923D01*
X12694Y-33970D01*
X12472Y-33970D01*
X12233Y-34069D01*
X12050Y-34252D01*
X11951Y-34491D01*
X11951Y-34749D01*
X12050Y-34988D01*
X12232Y-35171D01*
X12471Y-35270D01*
X12730Y-35270D01*
X12969Y-35172D01*
X13152Y-34989D01*
X13251Y-34750D01*
X13251Y-34492D01*
X13152Y-34253D01*
X13055Y-34155D01*
X13207Y-34155D01*
X13404Y-34074D01*
X13554Y-33924D01*
X13636Y-33727D01*
X13636Y-33514D01*
X13636Y-35381D01*
X10705Y-35381D01*
X10652Y-35253D01*
X10470Y-35070D01*
X10340Y-35016D01*
X10340Y-34253D01*
X10542Y-34455D01*
X10904Y-34605D01*
X11296Y-34606D01*
X11658Y-34456D01*
X11935Y-34179D01*
X12086Y-33817D01*
X12086Y-33425D01*
X11936Y-33063D01*
X11660Y-32786D01*
X11298Y-32636D01*
X10906Y-32635D01*
X10544Y-32785D01*
X10266Y-33062D01*
X10127Y-33398D01*
X8536Y-31807D01*
X8536Y-29636D01*
X8356Y-29200D01*
X8023Y-28867D01*
X7588Y-28686D01*
X7116Y-28686D01*
X6681Y-28866D01*
X6347Y-29199D01*
X6167Y-29634D01*
X6166Y-30105D01*
X6346Y-30540D01*
X6679Y-30874D01*
X7114Y-31055D01*
X7585Y-31055D01*
X8021Y-30875D01*
X8354Y-30542D01*
X8535Y-30107D01*
X8536Y-29636D01*
X8536Y-31807D01*
X8180Y-31451D01*
X8102Y-31399D01*
X8010Y-31381D01*
X5205Y-31381D01*
X5152Y-31253D01*
X4970Y-31070D01*
X4731Y-30970D01*
X4472Y-30970D01*
X4233Y-31069D01*
X4050Y-31252D01*
X3951Y-31491D01*
X3951Y-31749D01*
X4050Y-31988D01*
X4232Y-32171D01*
X4471Y-32270D01*
X4730Y-32270D01*
X4969Y-32172D01*
X5152Y-31989D01*
X5205Y-31860D01*
X7911Y-31860D01*
X9137Y-33085D01*
X8995Y-33085D01*
X8798Y-33167D01*
X8648Y-33317D01*
X8566Y-33513D01*
X8566Y-33726D01*
X8647Y-33923D01*
X8703Y-33979D01*
X8483Y-34070D01*
X8300Y-34253D01*
X8246Y-34382D01*
X7983Y-34382D01*
X8185Y-34180D01*
X8336Y-33818D01*
X8336Y-33426D01*
X8186Y-33064D01*
X7910Y-32787D01*
X7548Y-32637D01*
X7156Y-32636D01*
X6794Y-32786D01*
X6516Y-33063D01*
X6373Y-33409D01*
X6328Y-33342D01*
X6328Y-33342D01*
X5437Y-32451D01*
X5359Y-32399D01*
X5268Y-32381D01*
X3636Y-32381D01*
X3636Y-30176D01*
X3486Y-29814D01*
X3210Y-29537D01*
X2848Y-29387D01*
X2456Y-29386D01*
X2094Y-29536D01*
X1816Y-29813D01*
X1666Y-30175D01*
X1666Y-30567D01*
X1815Y-30929D01*
X2092Y-31206D01*
X2454Y-31356D01*
X2846Y-31357D01*
X3208Y-31207D01*
X3485Y-30930D01*
X3636Y-30568D01*
X3636Y-30176D01*
X3636Y-32381D01*
X2705Y-32381D01*
X2652Y-32253D01*
X2470Y-32070D01*
X2231Y-31970D01*
X1972Y-31970D01*
X1733Y-32069D01*
X1550Y-32252D01*
X1451Y-32491D01*
X1451Y-32749D01*
X1550Y-32988D01*
X1647Y-33085D01*
X1495Y-33085D01*
X1298Y-33167D01*
X1148Y-33317D01*
X1066Y-33513D01*
X1066Y-33726D01*
X1147Y-33923D01*
X1297Y-34074D01*
X1494Y-34155D01*
X1707Y-34155D01*
X1904Y-34074D01*
X2054Y-33924D01*
X2136Y-33727D01*
X2136Y-33514D01*
X2055Y-33318D01*
X2007Y-33270D01*
X2230Y-33270D01*
X2469Y-33172D01*
X2652Y-32989D01*
X2705Y-32860D01*
X2969Y-32860D01*
X2766Y-33062D01*
X2616Y-33424D01*
X2616Y-33815D01*
X2765Y-34178D01*
X3042Y-34455D01*
X3404Y-34605D01*
X3796Y-34606D01*
X4158Y-34456D01*
X4435Y-34179D01*
X4586Y-33817D01*
X4586Y-33425D01*
X4436Y-33063D01*
X4233Y-32860D01*
X5169Y-32860D01*
X5396Y-33087D01*
X5245Y-33086D01*
X5048Y-33168D01*
X4898Y-33318D01*
X4816Y-33515D01*
X4816Y-33727D01*
X4897Y-33924D01*
X5047Y-34075D01*
X5244Y-34156D01*
X5457Y-34157D01*
X5477Y-34148D01*
X5494Y-34155D01*
X5707Y-34155D01*
X5904Y-34074D01*
X6040Y-33938D01*
X6893Y-34791D01*
X6893Y-34791D01*
X6971Y-34843D01*
X7063Y-34861D01*
X7063Y-34861D01*
X7063Y-34861D01*
X8246Y-34861D01*
X8300Y-34989D01*
X8482Y-35172D01*
X8721Y-35271D01*
X8980Y-35272D01*
X9219Y-35173D01*
X9402Y-34990D01*
X9501Y-34751D01*
X9501Y-34493D01*
X9402Y-34254D01*
X9305Y-34157D01*
X9457Y-34157D01*
X9654Y-34075D01*
X9804Y-33925D01*
X9855Y-33803D01*
X9862Y-33810D01*
X9862Y-35016D01*
X9733Y-35069D01*
X9550Y-35252D01*
X9496Y-35382D01*
X6955Y-35382D01*
X6902Y-35254D01*
X6720Y-35071D01*
X6481Y-34972D01*
X6222Y-34971D01*
X5983Y-35070D01*
X5800Y-35253D01*
X5701Y-35492D01*
X5701Y-35750D01*
X5800Y-35989D01*
X5982Y-36172D01*
X6221Y-36271D01*
X6480Y-36272D01*
X6719Y-36173D01*
X6902Y-35990D01*
X6955Y-35861D01*
X9497Y-35861D01*
X9550Y-35988D01*
X9732Y-36171D01*
X9971Y-36270D01*
X10230Y-36270D01*
X10469Y-36172D01*
X10652Y-35989D01*
X10705Y-35860D01*
X11431Y-35860D01*
X11373Y-35918D01*
X11251Y-36212D01*
X11251Y-36530D01*
X11372Y-36824D01*
X11557Y-37010D01*
X11494Y-37036D01*
X11216Y-37313D01*
X11066Y-37675D01*
X11066Y-38067D01*
X11215Y-38429D01*
X11492Y-38706D01*
X11854Y-38856D01*
X12246Y-38857D01*
X12608Y-38707D01*
X12885Y-38430D01*
X13036Y-38068D01*
X13036Y-37676D01*
X12886Y-37314D01*
X12610Y-37037D01*
X12544Y-37010D01*
X12729Y-36825D01*
X12851Y-36531D01*
X12851Y-36213D01*
X12729Y-35919D01*
X12670Y-35860D01*
X16997Y-35860D01*
X17050Y-35988D01*
X17232Y-36171D01*
X17471Y-36270D01*
X17730Y-36270D01*
X17969Y-36172D01*
X18152Y-35989D01*
X18205Y-35861D01*
X24497Y-35861D01*
X24550Y-35989D01*
X24732Y-36172D01*
X24971Y-36271D01*
X25230Y-36272D01*
X25469Y-36173D01*
X25652Y-35990D01*
X25657Y-35978D01*
X26066Y-36387D01*
X25906Y-36386D01*
X25544Y-36536D01*
X25267Y-36813D01*
X25116Y-37175D01*
X25116Y-37567D01*
X25266Y-37929D01*
X25542Y-38206D01*
X25904Y-38356D01*
X26296Y-38357D01*
X26658Y-38207D01*
X26936Y-37930D01*
X27086Y-37568D01*
X27086Y-37407D01*
X27616Y-37937D01*
X27550Y-38003D01*
X27451Y-38242D01*
X27451Y-38500D01*
X27550Y-38739D01*
X27732Y-38922D01*
X27971Y-39021D01*
X28230Y-39022D01*
X28469Y-38923D01*
X28652Y-38740D01*
X28751Y-38501D01*
X28751Y-38243D01*
X28751Y-41271D01*
X28693Y-41271D01*
X28603Y-41309D01*
X28636Y-41228D01*
X28636Y-41016D01*
X28555Y-40819D01*
X28405Y-40668D01*
X28208Y-40587D01*
X27995Y-40586D01*
X27798Y-40668D01*
X27648Y-40818D01*
X27566Y-41015D01*
X27566Y-41227D01*
X27647Y-41424D01*
X27695Y-41472D01*
X27472Y-41471D01*
X27233Y-41570D01*
X27086Y-41717D01*
X27086Y-40926D01*
X26937Y-40564D01*
X26660Y-40287D01*
X26636Y-40277D01*
X26636Y-39266D01*
X26555Y-39069D01*
X26405Y-38918D01*
X26208Y-38837D01*
X25995Y-38836D01*
X25798Y-38918D01*
X25648Y-39068D01*
X25566Y-39265D01*
X25566Y-39477D01*
X25647Y-39674D01*
X25798Y-39825D01*
X25994Y-39906D01*
X26207Y-39907D01*
X26404Y-39825D01*
X26554Y-39675D01*
X26636Y-39478D01*
X26636Y-39266D01*
X26636Y-40277D01*
X26298Y-40137D01*
X25906Y-40136D01*
X25544Y-40286D01*
X25267Y-40563D01*
X25116Y-40925D01*
X25116Y-41317D01*
X25266Y-41679D01*
X25542Y-41956D01*
X25904Y-42106D01*
X26296Y-42107D01*
X26658Y-41957D01*
X26936Y-41680D01*
X27086Y-41318D01*
X27086Y-40926D01*
X27086Y-41717D01*
X27050Y-41753D01*
X26951Y-41992D01*
X26951Y-42250D01*
X27050Y-42489D01*
X27232Y-42672D01*
X27471Y-42771D01*
X27730Y-42772D01*
X27969Y-42673D01*
X28152Y-42490D01*
X28155Y-42482D01*
X28172Y-42524D01*
X28397Y-42749D01*
X28691Y-42871D01*
X29010Y-42872D01*
X29304Y-42750D01*
X29481Y-42573D01*
X29481Y-43944D01*
X29481Y-43944D01*
G37*
G54D28*
X29481Y-43944D02*
X29408Y-43920D01*
X29230Y-43932D01*
X29125Y-43976D01*
X29110Y-44060D01*
X29351Y-44301D01*
X29356Y-44295D01*
X29427Y-44366D01*
X29421Y-44372D01*
X29427Y-44377D01*
X29356Y-44448D01*
X29351Y-44442D01*
X29345Y-44448D01*
X29274Y-44377D01*
X29280Y-44372D01*
X29040Y-44131D01*
X28955Y-44146D01*
X28899Y-44314D01*
X28911Y-44492D01*
X28915Y-44502D01*
X12552Y-44502D01*
X12729Y-44325D01*
X12851Y-44031D01*
X12851Y-43713D01*
X12729Y-43419D01*
X12672Y-43361D01*
X16997Y-43361D01*
X17050Y-43489D01*
X17232Y-43672D01*
X17471Y-43771D01*
X17730Y-43772D01*
X17969Y-43673D01*
X18152Y-43490D01*
X18205Y-43361D01*
X24497Y-43361D01*
X24550Y-43489D01*
X24732Y-43672D01*
X24971Y-43771D01*
X25230Y-43772D01*
X25469Y-43673D01*
X25652Y-43490D01*
X25751Y-43251D01*
X25751Y-42993D01*
X25652Y-42754D01*
X25470Y-42571D01*
X25231Y-42472D01*
X25099Y-42472D01*
X25099Y-37242D01*
X25038Y-37096D01*
X24927Y-36984D01*
X24781Y-36924D01*
X24623Y-36923D01*
X24477Y-36984D01*
X24366Y-37095D01*
X24305Y-37241D01*
X24305Y-37399D01*
X24365Y-37545D01*
X24477Y-37657D01*
X24623Y-37717D01*
X24780Y-37717D01*
X24926Y-37657D01*
X25038Y-37545D01*
X25099Y-37400D01*
X25099Y-37242D01*
X25099Y-42472D01*
X24972Y-42471D01*
X24733Y-42570D01*
X24636Y-42667D01*
X24636Y-41016D01*
X24555Y-40819D01*
X24405Y-40668D01*
X24208Y-40587D01*
X23995Y-40586D01*
X23798Y-40668D01*
X23648Y-40818D01*
X23599Y-40936D01*
X23599Y-37242D01*
X23538Y-37096D01*
X23427Y-36984D01*
X23281Y-36924D01*
X23123Y-36923D01*
X22977Y-36984D01*
X22866Y-37095D01*
X22805Y-37241D01*
X22805Y-37399D01*
X22865Y-37545D01*
X22977Y-37657D01*
X23123Y-37717D01*
X23280Y-37717D01*
X23426Y-37657D01*
X23538Y-37545D01*
X23599Y-37400D01*
X23599Y-37242D01*
X23599Y-40936D01*
X23566Y-41015D01*
X23566Y-41227D01*
X23647Y-41424D01*
X23798Y-41575D01*
X23994Y-41656D01*
X24207Y-41657D01*
X24404Y-41575D01*
X24554Y-41425D01*
X24636Y-41228D01*
X24636Y-41016D01*
X24636Y-42667D01*
X24550Y-42753D01*
X24497Y-42882D01*
X23433Y-42882D01*
X23686Y-42630D01*
X23836Y-42268D01*
X23836Y-41876D01*
X23687Y-41514D01*
X23410Y-41237D01*
X23048Y-41087D01*
X22656Y-41086D01*
X22294Y-41236D01*
X22099Y-41431D01*
X22099Y-37242D01*
X22038Y-37096D01*
X21927Y-36984D01*
X21781Y-36924D01*
X21623Y-36923D01*
X21477Y-36984D01*
X21366Y-37095D01*
X21305Y-37241D01*
X21305Y-37399D01*
X21365Y-37545D01*
X21477Y-37657D01*
X21623Y-37717D01*
X21780Y-37717D01*
X21926Y-37657D01*
X22038Y-37545D01*
X22099Y-37400D01*
X22099Y-37242D01*
X22099Y-41431D01*
X22017Y-41513D01*
X21866Y-41875D01*
X21866Y-42267D01*
X22016Y-42629D01*
X22269Y-42882D01*
X21136Y-42882D01*
X21136Y-41016D01*
X21055Y-40819D01*
X20905Y-40668D01*
X20708Y-40587D01*
X20599Y-40587D01*
X20599Y-37242D01*
X20538Y-37096D01*
X20427Y-36984D01*
X20281Y-36924D01*
X20123Y-36923D01*
X19977Y-36984D01*
X19866Y-37095D01*
X19805Y-37241D01*
X19805Y-37399D01*
X19865Y-37545D01*
X19977Y-37657D01*
X20123Y-37717D01*
X20280Y-37717D01*
X20426Y-37657D01*
X20538Y-37545D01*
X20599Y-37400D01*
X20599Y-37242D01*
X20599Y-40587D01*
X20495Y-40586D01*
X20298Y-40668D01*
X20148Y-40818D01*
X20066Y-41015D01*
X20066Y-41227D01*
X20147Y-41424D01*
X20195Y-41472D01*
X19972Y-41471D01*
X19733Y-41570D01*
X19586Y-41717D01*
X19586Y-40926D01*
X19437Y-40564D01*
X19160Y-40287D01*
X19099Y-40262D01*
X19099Y-37242D01*
X19038Y-37096D01*
X18927Y-36984D01*
X18781Y-36924D01*
X18623Y-36923D01*
X18477Y-36984D01*
X18366Y-37095D01*
X18305Y-37241D01*
X18305Y-37399D01*
X18365Y-37545D01*
X18477Y-37657D01*
X18623Y-37717D01*
X18780Y-37717D01*
X18926Y-37657D01*
X19038Y-37545D01*
X19099Y-37400D01*
X19099Y-37242D01*
X19099Y-40262D01*
X18798Y-40137D01*
X18406Y-40136D01*
X18044Y-40286D01*
X17767Y-40563D01*
X17616Y-40925D01*
X17616Y-41317D01*
X17766Y-41679D01*
X18042Y-41956D01*
X18404Y-42106D01*
X18796Y-42107D01*
X19158Y-41957D01*
X19436Y-41680D01*
X19586Y-41318D01*
X19586Y-40926D01*
X19586Y-41717D01*
X19550Y-41753D01*
X19451Y-41992D01*
X19451Y-42250D01*
X19550Y-42489D01*
X19732Y-42672D01*
X19971Y-42771D01*
X20230Y-42772D01*
X20469Y-42673D01*
X20652Y-42490D01*
X20751Y-42251D01*
X20751Y-41993D01*
X20652Y-41754D01*
X20555Y-41657D01*
X20707Y-41657D01*
X20904Y-41575D01*
X21054Y-41425D01*
X21136Y-41228D01*
X21136Y-41016D01*
X21136Y-42882D01*
X18205Y-42882D01*
X18152Y-42754D01*
X17970Y-42571D01*
X17731Y-42472D01*
X17599Y-42472D01*
X17599Y-37242D01*
X17538Y-37096D01*
X17427Y-36984D01*
X17281Y-36924D01*
X17123Y-36923D01*
X16977Y-36984D01*
X16866Y-37095D01*
X16805Y-37241D01*
X16805Y-37399D01*
X16865Y-37545D01*
X16977Y-37657D01*
X17123Y-37717D01*
X17280Y-37717D01*
X17426Y-37657D01*
X17538Y-37545D01*
X17599Y-37400D01*
X17599Y-37242D01*
X17599Y-42472D01*
X17472Y-42471D01*
X17233Y-42570D01*
X17136Y-42667D01*
X17136Y-41016D01*
X17055Y-40819D01*
X16905Y-40668D01*
X16708Y-40587D01*
X16495Y-40586D01*
X16298Y-40668D01*
X16148Y-40818D01*
X16099Y-40936D01*
X16099Y-37242D01*
X16038Y-37096D01*
X15927Y-36984D01*
X15781Y-36924D01*
X15698Y-36924D01*
X15698Y-36443D01*
X15638Y-36297D01*
X15526Y-36185D01*
X15380Y-36125D01*
X15222Y-36125D01*
X15076Y-36185D01*
X14975Y-36286D01*
X13627Y-36286D01*
X13526Y-36185D01*
X13380Y-36125D01*
X13222Y-36125D01*
X13076Y-36185D01*
X12965Y-36296D01*
X12904Y-36442D01*
X12904Y-36600D01*
X12964Y-36746D01*
X13076Y-36858D01*
X13222Y-36918D01*
X13379Y-36918D01*
X13525Y-36858D01*
X13627Y-36757D01*
X14975Y-36757D01*
X15076Y-36858D01*
X15222Y-36918D01*
X15379Y-36918D01*
X15525Y-36858D01*
X15637Y-36747D01*
X15698Y-36601D01*
X15698Y-36443D01*
X15698Y-36924D01*
X15623Y-36923D01*
X15477Y-36984D01*
X15366Y-37095D01*
X15305Y-37241D01*
X15305Y-37399D01*
X15365Y-37545D01*
X15477Y-37657D01*
X15623Y-37717D01*
X15780Y-37717D01*
X15926Y-37657D01*
X16038Y-37545D01*
X16099Y-37400D01*
X16099Y-37242D01*
X16099Y-40936D01*
X16066Y-41015D01*
X16066Y-41227D01*
X16147Y-41424D01*
X16298Y-41575D01*
X16494Y-41656D01*
X16707Y-41657D01*
X16904Y-41575D01*
X17054Y-41425D01*
X17136Y-41228D01*
X17136Y-41016D01*
X17136Y-42667D01*
X17050Y-42753D01*
X16997Y-42882D01*
X16035Y-42882D01*
X16035Y-39736D01*
X15855Y-39300D01*
X15523Y-38967D01*
X15087Y-38786D01*
X14616Y-38786D01*
X14599Y-38793D01*
X14599Y-37242D01*
X14538Y-37096D01*
X14427Y-36984D01*
X14281Y-36924D01*
X14123Y-36923D01*
X13977Y-36984D01*
X13866Y-37095D01*
X13805Y-37241D01*
X13805Y-37399D01*
X13865Y-37545D01*
X13977Y-37657D01*
X14123Y-37717D01*
X14280Y-37717D01*
X14426Y-37657D01*
X14538Y-37545D01*
X14599Y-37400D01*
X14599Y-37242D01*
X14599Y-38793D01*
X14181Y-38966D01*
X13847Y-39299D01*
X13666Y-39734D01*
X13666Y-40205D01*
X13846Y-40640D01*
X14179Y-40974D01*
X14614Y-41155D01*
X15085Y-41155D01*
X15521Y-40975D01*
X15854Y-40642D01*
X16035Y-40207D01*
X16035Y-39736D01*
X16035Y-42882D01*
X13636Y-42882D01*
X13636Y-41016D01*
X13555Y-40819D01*
X13404Y-40668D01*
X13208Y-40587D01*
X12995Y-40586D01*
X12798Y-40668D01*
X12648Y-40818D01*
X12566Y-41015D01*
X12566Y-41227D01*
X12647Y-41424D01*
X12694Y-41472D01*
X12472Y-41471D01*
X12233Y-41570D01*
X12086Y-41717D01*
X12086Y-40926D01*
X11936Y-40564D01*
X11660Y-40287D01*
X11298Y-40137D01*
X10906Y-40136D01*
X10599Y-40263D01*
X10599Y-37242D01*
X10538Y-37096D01*
X10427Y-36984D01*
X10281Y-36924D01*
X10123Y-36923D01*
X9977Y-36984D01*
X9866Y-37095D01*
X9805Y-37241D01*
X9805Y-37399D01*
X9865Y-37545D01*
X9977Y-37657D01*
X10123Y-37717D01*
X10280Y-37717D01*
X10426Y-37657D01*
X10538Y-37545D01*
X10599Y-37400D01*
X10599Y-37242D01*
X10599Y-40263D01*
X10544Y-40286D01*
X10266Y-40563D01*
X10116Y-40925D01*
X10116Y-41317D01*
X10265Y-41679D01*
X10542Y-41956D01*
X10904Y-42106D01*
X11296Y-42107D01*
X11658Y-41957D01*
X11935Y-41680D01*
X12086Y-41318D01*
X12086Y-40926D01*
X12086Y-41717D01*
X12050Y-41753D01*
X11951Y-41992D01*
X11951Y-42250D01*
X12050Y-42489D01*
X12232Y-42672D01*
X12471Y-42771D01*
X12730Y-42772D01*
X12969Y-42673D01*
X13152Y-42490D01*
X13251Y-42251D01*
X13251Y-41993D01*
X13152Y-41754D01*
X13055Y-41657D01*
X13207Y-41657D01*
X13404Y-41575D01*
X13554Y-41425D01*
X13636Y-41228D01*
X13636Y-41016D01*
X13636Y-42882D01*
X10705Y-42882D01*
X10652Y-42754D01*
X10470Y-42571D01*
X10231Y-42472D01*
X9972Y-42471D01*
X9886Y-42507D01*
X9886Y-41016D01*
X9805Y-40819D01*
X9654Y-40668D01*
X9458Y-40587D01*
X9245Y-40586D01*
X9226Y-40594D01*
X9208Y-40587D01*
X9099Y-40587D01*
X9099Y-37242D01*
X9038Y-37096D01*
X8927Y-36984D01*
X8781Y-36924D01*
X8623Y-36923D01*
X8477Y-36984D01*
X8366Y-37095D01*
X8305Y-37241D01*
X8305Y-37399D01*
X8365Y-37545D01*
X8477Y-37657D01*
X8623Y-37717D01*
X8780Y-37717D01*
X8926Y-37657D01*
X9038Y-37545D01*
X9099Y-37400D01*
X9099Y-37242D01*
X9099Y-40587D01*
X8995Y-40586D01*
X8798Y-40668D01*
X8648Y-40818D01*
X8566Y-41015D01*
X8566Y-41227D01*
X8647Y-41424D01*
X8702Y-41480D01*
X8483Y-41570D01*
X8300Y-41753D01*
X8201Y-41992D01*
X8201Y-42250D01*
X8300Y-42489D01*
X8482Y-42672D01*
X8721Y-42771D01*
X8980Y-42772D01*
X9219Y-42673D01*
X9402Y-42490D01*
X9501Y-42251D01*
X9501Y-41993D01*
X9402Y-41754D01*
X9305Y-41657D01*
X9457Y-41657D01*
X9654Y-41575D01*
X9804Y-41425D01*
X9886Y-41228D01*
X9886Y-41016D01*
X9886Y-42507D01*
X9733Y-42570D01*
X9550Y-42753D01*
X9496Y-42882D01*
X6955Y-42882D01*
X6902Y-42754D01*
X6720Y-42571D01*
X6590Y-42517D01*
X6590Y-41754D01*
X6792Y-41956D01*
X7154Y-42106D01*
X7546Y-42107D01*
X7908Y-41957D01*
X8185Y-41680D01*
X8336Y-41318D01*
X8336Y-40926D01*
X8186Y-40564D01*
X7910Y-40287D01*
X7599Y-40158D01*
X7599Y-37242D01*
X7538Y-37096D01*
X7427Y-36984D01*
X7281Y-36924D01*
X7123Y-36923D01*
X6977Y-36984D01*
X6866Y-37095D01*
X6805Y-37241D01*
X6805Y-37399D01*
X6865Y-37545D01*
X6977Y-37657D01*
X7123Y-37717D01*
X7280Y-37717D01*
X7426Y-37657D01*
X7538Y-37545D01*
X7599Y-37400D01*
X7599Y-37242D01*
X7599Y-40158D01*
X7548Y-40137D01*
X7156Y-40136D01*
X6794Y-40286D01*
X6516Y-40563D01*
X6477Y-40658D01*
X6099Y-40280D01*
X6099Y-37242D01*
X6038Y-37096D01*
X5927Y-36984D01*
X5781Y-36924D01*
X5623Y-36923D01*
X5477Y-36984D01*
X5366Y-37095D01*
X5305Y-37241D01*
X5305Y-37399D01*
X5365Y-37545D01*
X5477Y-37657D01*
X5623Y-37717D01*
X5780Y-37717D01*
X5926Y-37657D01*
X6038Y-37545D01*
X6099Y-37400D01*
X6099Y-37242D01*
X6099Y-40280D01*
X5198Y-39378D01*
X5251Y-39250D01*
X5251Y-38992D01*
X5152Y-38753D01*
X4970Y-38570D01*
X4731Y-38470D01*
X4599Y-38470D01*
X4599Y-37242D01*
X4538Y-37096D01*
X4427Y-36984D01*
X4281Y-36924D01*
X4123Y-36923D01*
X3977Y-36984D01*
X3866Y-37095D01*
X3805Y-37241D01*
X3805Y-37399D01*
X3865Y-37545D01*
X3977Y-37657D01*
X4123Y-37717D01*
X4280Y-37717D01*
X4426Y-37657D01*
X4538Y-37545D01*
X4599Y-37400D01*
X4599Y-37242D01*
X4599Y-38470D01*
X4472Y-38470D01*
X4233Y-38569D01*
X4050Y-38752D01*
X3951Y-38991D01*
X3951Y-39249D01*
X4050Y-39488D01*
X4232Y-39671D01*
X4471Y-39770D01*
X4730Y-39770D01*
X4859Y-39717D01*
X5741Y-40599D01*
X5708Y-40585D01*
X5495Y-40585D01*
X5475Y-40594D01*
X5458Y-40587D01*
X5245Y-40586D01*
X5048Y-40668D01*
X4898Y-40818D01*
X4816Y-41015D01*
X4816Y-41227D01*
X4897Y-41424D01*
X5047Y-41575D01*
X5244Y-41656D01*
X5457Y-41657D01*
X5477Y-41648D01*
X5494Y-41655D01*
X5707Y-41655D01*
X5904Y-41574D01*
X6054Y-41424D01*
X6112Y-41286D01*
X6112Y-42517D01*
X5983Y-42570D01*
X5800Y-42753D01*
X5701Y-42992D01*
X5701Y-43250D01*
X5800Y-43489D01*
X5982Y-43672D01*
X6221Y-43771D01*
X6480Y-43772D01*
X6719Y-43673D01*
X6902Y-43490D01*
X6955Y-43361D01*
X9496Y-43361D01*
X9550Y-43489D01*
X9732Y-43672D01*
X9971Y-43771D01*
X10230Y-43772D01*
X10469Y-43673D01*
X10652Y-43490D01*
X10705Y-43361D01*
X11430Y-43361D01*
X11373Y-43418D01*
X11251Y-43712D01*
X11251Y-44030D01*
X11372Y-44324D01*
X11550Y-44502D01*
X4586Y-44502D01*
X4586Y-40925D01*
X4436Y-40563D01*
X4160Y-40286D01*
X3798Y-40136D01*
X3636Y-40135D01*
X3636Y-37676D01*
X3486Y-37314D01*
X3210Y-37037D01*
X3144Y-37010D01*
X3329Y-36825D01*
X3451Y-36531D01*
X3451Y-36213D01*
X3329Y-35919D01*
X3105Y-35694D01*
X2811Y-35572D01*
X2492Y-35571D01*
X2198Y-35693D01*
X1973Y-35918D01*
X1851Y-36212D01*
X1851Y-36530D01*
X1972Y-36824D01*
X2157Y-37010D01*
X2094Y-37036D01*
X1816Y-37313D01*
X1666Y-37675D01*
X1666Y-38067D01*
X1815Y-38429D01*
X2092Y-38706D01*
X2454Y-38856D01*
X2846Y-38857D01*
X3208Y-38707D01*
X3485Y-38430D01*
X3636Y-38068D01*
X3636Y-37676D01*
X3636Y-40135D01*
X3406Y-40135D01*
X3044Y-40285D01*
X2766Y-40562D01*
X2751Y-40599D01*
X2751Y-39992D01*
X2652Y-39753D01*
X2470Y-39570D01*
X2231Y-39470D01*
X1972Y-39470D01*
X1733Y-39569D01*
X1599Y-39703D01*
X1599Y-37242D01*
X1538Y-37096D01*
X1427Y-36984D01*
X1281Y-36924D01*
X1123Y-36923D01*
X977Y-36984D01*
X866Y-37095D01*
X805Y-37241D01*
X805Y-37399D01*
X865Y-37545D01*
X977Y-37657D01*
X1123Y-37717D01*
X1280Y-37717D01*
X1426Y-37657D01*
X1538Y-37545D01*
X1599Y-37400D01*
X1599Y-37242D01*
X1599Y-39703D01*
X1550Y-39752D01*
X1451Y-39991D01*
X1451Y-40249D01*
X1550Y-40488D01*
X1647Y-40585D01*
X1495Y-40585D01*
X1298Y-40667D01*
X1148Y-40817D01*
X1066Y-41013D01*
X1066Y-41226D01*
X1147Y-41423D01*
X1297Y-41574D01*
X1494Y-41655D01*
X1707Y-41655D01*
X1904Y-41574D01*
X2054Y-41424D01*
X2136Y-41227D01*
X2136Y-41014D01*
X2055Y-40818D01*
X2007Y-40770D01*
X2230Y-40770D01*
X2469Y-40672D01*
X2652Y-40489D01*
X2751Y-40250D01*
X2751Y-39992D01*
X2751Y-40599D01*
X2616Y-40924D01*
X2616Y-41315D01*
X2765Y-41678D01*
X3042Y-41955D01*
X3404Y-42105D01*
X3796Y-42106D01*
X4158Y-41956D01*
X4435Y-41679D01*
X4586Y-41317D01*
X4586Y-40925D01*
X4586Y-44502D01*
X3152Y-44502D01*
X3329Y-44325D01*
X3451Y-44031D01*
X3451Y-43713D01*
X3329Y-43419D01*
X3105Y-43194D01*
X2811Y-43072D01*
X2492Y-43071D01*
X2198Y-43193D01*
X1973Y-43418D01*
X1851Y-43712D01*
X1851Y-44030D01*
X1972Y-44324D01*
X2150Y-44502D01*
X804Y-44502D01*
X804Y-36677D01*
X791Y-36500D01*
X748Y-36395D01*
X663Y-36380D01*
X423Y-36620D01*
X663Y-36861D01*
X748Y-36846D01*
X804Y-36677D01*
X804Y-44502D01*
X778Y-44502D01*
X803Y-44429D01*
X790Y-44251D01*
X747Y-44146D01*
X662Y-44131D01*
X422Y-44372D01*
X427Y-44377D01*
X356Y-44448D01*
X351Y-44442D01*
X345Y-44448D01*
X275Y-44377D01*
X280Y-44372D01*
X275Y-44366D01*
X345Y-44295D01*
X351Y-44301D01*
X591Y-44060D01*
X577Y-43976D01*
X408Y-43920D01*
X231Y-43932D01*
X220Y-43936D01*
X220Y-37718D01*
X279Y-37718D01*
X425Y-37658D01*
X537Y-37547D01*
X598Y-37401D01*
X598Y-37243D01*
X538Y-37097D01*
X492Y-37052D01*
X578Y-37016D01*
X592Y-36931D01*
X352Y-36691D01*
X346Y-36697D01*
X276Y-36626D01*
X281Y-36620D01*
X276Y-36615D01*
X346Y-36544D01*
X352Y-36550D01*
X592Y-36309D01*
X578Y-36225D01*
X409Y-36168D01*
X232Y-36181D01*
X220Y-36186D01*
X220Y-16483D01*
X245Y-16499D01*
X402Y-16530D01*
X402Y-16530D01*
X393Y-16579D01*
X393Y-21804D01*
X411Y-21896D01*
X463Y-21973D01*
X2914Y-24424D01*
X2913Y-24514D01*
X2968Y-24645D01*
X3068Y-24746D01*
X3200Y-24800D01*
X3290Y-24800D01*
X3625Y-25135D01*
X3406Y-25135D01*
X3044Y-25285D01*
X2766Y-25562D01*
X2616Y-25924D01*
X2616Y-26315D01*
X2765Y-26678D01*
X3042Y-26955D01*
X3404Y-27105D01*
X3796Y-27106D01*
X4158Y-26956D01*
X4435Y-26679D01*
X4586Y-26317D01*
X4586Y-26096D01*
X4963Y-26474D01*
X4733Y-26569D01*
X4550Y-26752D01*
X4451Y-26991D01*
X4451Y-27249D01*
X4550Y-27488D01*
X4732Y-27671D01*
X4971Y-27770D01*
X5230Y-27770D01*
X5469Y-27672D01*
X5652Y-27489D01*
X5751Y-27250D01*
X5751Y-26992D01*
X5723Y-26924D01*
X6250Y-26924D01*
X6313Y-26988D01*
X6444Y-27042D01*
X6587Y-27042D01*
X6718Y-26988D01*
X6819Y-26888D01*
X6873Y-26756D01*
X6873Y-26614D01*
X6819Y-26483D01*
X6719Y-26382D01*
X6587Y-26327D01*
X6445Y-26327D01*
X6314Y-26382D01*
X6250Y-26445D01*
X6032Y-26445D01*
X6054Y-26424D01*
X6136Y-26227D01*
X6136Y-26127D01*
X6183Y-26173D01*
X6314Y-26228D01*
X6456Y-26228D01*
X6588Y-26174D01*
X6688Y-26073D01*
X6743Y-25942D01*
X6743Y-25800D01*
X6689Y-25668D01*
X6588Y-25568D01*
X6573Y-25562D01*
X6703Y-25508D01*
X6767Y-25444D01*
X10384Y-25444D01*
X10266Y-25562D01*
X10116Y-25924D01*
X10116Y-26315D01*
X10265Y-26678D01*
X10542Y-26955D01*
X10904Y-27105D01*
X11296Y-27106D01*
X11658Y-26956D01*
X11935Y-26679D01*
X12086Y-26317D01*
X12086Y-25925D01*
X11936Y-25563D01*
X11818Y-25444D01*
X15896Y-25444D01*
X15959Y-25508D01*
X16090Y-25562D01*
X16233Y-25562D01*
X16364Y-25508D01*
X16465Y-25408D01*
X16519Y-25276D01*
X16519Y-25134D01*
X16465Y-25003D01*
X16365Y-24902D01*
X16233Y-24847D01*
X16091Y-24847D01*
X15960Y-24902D01*
X15896Y-24965D01*
X12855Y-24965D01*
X12855Y-24844D01*
X12801Y-24713D01*
X12701Y-24612D01*
X12569Y-24558D01*
X12427Y-24558D01*
X12296Y-24612D01*
X12232Y-24676D01*
X7647Y-24676D01*
X7584Y-24612D01*
X7453Y-24558D01*
X7310Y-24558D01*
X7179Y-24612D01*
X7078Y-24713D01*
X7024Y-24844D01*
X7024Y-24965D01*
X6767Y-24965D01*
X6703Y-24902D01*
X6572Y-24847D01*
X6430Y-24847D01*
X6298Y-24902D01*
X6198Y-25002D01*
X6143Y-25133D01*
X6143Y-25276D01*
X6153Y-25300D01*
X5529Y-24676D01*
X5452Y-24624D01*
X5360Y-24606D01*
X4512Y-24606D01*
X4448Y-24542D01*
X4317Y-24488D01*
X4300Y-24488D01*
X1265Y-21453D01*
X1265Y-21364D01*
X1211Y-21232D01*
X1111Y-21132D01*
X979Y-21077D01*
X872Y-21077D01*
X872Y-16678D01*
X1089Y-16460D01*
X1141Y-16383D01*
X1159Y-16291D01*
X1159Y-15620D01*
X1141Y-15529D01*
X1089Y-15451D01*
X1012Y-15399D01*
X962Y-15389D01*
X1032Y-15267D01*
X1036Y-15241D01*
X986Y-15170D01*
X552Y-15170D01*
X552Y-15178D01*
X452Y-15178D01*
X452Y-15170D01*
X444Y-15170D01*
X444Y-15070D01*
X452Y-15070D01*
X452Y-15062D01*
X552Y-15062D01*
X552Y-15070D01*
X986Y-15070D01*
X1036Y-14999D01*
X1032Y-14974D01*
X989Y-14899D01*
X2269Y-14899D01*
X2238Y-14973D01*
X2238Y-15115D01*
X2292Y-15247D01*
X2356Y-15311D01*
X2356Y-19614D01*
X2374Y-19702D01*
X2136Y-19940D01*
X2136Y-18514D01*
X2055Y-18318D01*
X1904Y-18167D01*
X1708Y-18085D01*
X1495Y-18085D01*
X1298Y-18167D01*
X1148Y-18317D01*
X1066Y-18513D01*
X1066Y-18726D01*
X1147Y-18923D01*
X1297Y-19074D01*
X1494Y-19155D01*
X1707Y-19155D01*
X1904Y-19074D01*
X2054Y-18924D01*
X2136Y-18727D01*
X2136Y-18514D01*
X2136Y-19940D01*
X1858Y-20218D01*
X1806Y-20295D01*
X1788Y-20387D01*
X1788Y-21474D01*
X1806Y-21565D01*
X1858Y-21643D01*
X2443Y-22227D01*
X2442Y-22317D01*
X2497Y-22449D01*
X2597Y-22549D01*
X2729Y-22604D01*
X2766Y-22604D01*
X2746Y-22652D01*
X2746Y-22795D01*
X2800Y-22926D01*
X2901Y-23027D01*
X3032Y-23081D01*
X3174Y-23081D01*
X3306Y-23027D01*
X3406Y-22927D01*
X3461Y-22795D01*
X3461Y-22723D01*
X5050Y-21134D01*
X5125Y-21210D01*
X5257Y-21264D01*
X5347Y-21264D01*
X5567Y-21484D01*
X4356Y-22695D01*
X4267Y-22695D01*
X4135Y-22749D01*
X4035Y-22850D01*
X3980Y-22981D01*
X3980Y-23123D01*
X4034Y-23255D01*
X4135Y-23356D01*
X4234Y-23397D01*
X4223Y-23401D01*
X4112Y-23513D01*
X4051Y-23658D01*
X4051Y-23816D01*
X4111Y-23962D01*
X4223Y-24074D01*
X4369Y-24135D01*
X4527Y-24135D01*
X4672Y-24074D01*
X4784Y-23963D01*
X4845Y-23817D01*
X4845Y-23735D01*
X5765Y-22815D01*
X6687Y-22815D01*
X6744Y-22873D01*
X6890Y-22933D01*
X7048Y-22934D01*
X7194Y-22873D01*
X7301Y-22767D01*
X12600Y-22767D01*
X12603Y-22772D01*
X12714Y-22884D01*
X12860Y-22945D01*
X13018Y-22945D01*
X13164Y-22884D01*
X13257Y-22791D01*
X14877Y-22791D01*
X14369Y-23300D01*
X14363Y-23300D01*
X14232Y-23354D01*
X14131Y-23455D01*
X14076Y-23586D01*
X14076Y-23728D01*
X14131Y-23860D01*
X14231Y-23960D01*
X14362Y-24015D01*
X14505Y-24015D01*
X14636Y-23961D01*
X14737Y-23860D01*
X14776Y-23766D01*
X14895Y-23815D01*
X15037Y-23815D01*
X15168Y-23761D01*
X15269Y-23661D01*
X15323Y-23529D01*
X15323Y-23520D01*
X26511Y-23520D01*
X27102Y-24111D01*
X27102Y-24111D01*
X27179Y-24163D01*
X27271Y-24181D01*
X27271Y-24181D01*
X28363Y-24181D01*
X28455Y-24163D01*
X28455Y-24163D01*
X28533Y-24111D01*
X29481Y-23162D01*
X29481Y-24671D01*
X29305Y-24494D01*
X29011Y-24372D01*
X28693Y-24371D01*
X28399Y-24493D01*
X28173Y-24718D01*
X28051Y-25012D01*
X28051Y-25330D01*
X28157Y-25587D01*
X27995Y-25586D01*
X27798Y-25668D01*
X27648Y-25818D01*
X27566Y-26015D01*
X27566Y-26227D01*
X27647Y-26424D01*
X27695Y-26472D01*
X27472Y-26471D01*
X27233Y-26570D01*
X27086Y-26717D01*
X27086Y-25926D01*
X26937Y-25564D01*
X26660Y-25287D01*
X26636Y-25277D01*
X26636Y-24266D01*
X26555Y-24069D01*
X26405Y-23918D01*
X26208Y-23837D01*
X25995Y-23836D01*
X25798Y-23918D01*
X25648Y-24068D01*
X25566Y-24265D01*
X25566Y-24477D01*
X25647Y-24674D01*
X25798Y-24825D01*
X25994Y-24906D01*
X26207Y-24907D01*
X26404Y-24825D01*
X26554Y-24675D01*
X26636Y-24478D01*
X26636Y-24266D01*
X26636Y-25277D01*
X26298Y-25137D01*
X25906Y-25136D01*
X25544Y-25286D01*
X25267Y-25563D01*
X25116Y-25925D01*
X25116Y-26317D01*
X25266Y-26679D01*
X25542Y-26956D01*
X25904Y-27106D01*
X26296Y-27107D01*
X26658Y-26957D01*
X26936Y-26680D01*
X27086Y-26318D01*
X27086Y-25926D01*
X27086Y-26717D01*
X27050Y-26753D01*
X26951Y-26992D01*
X26951Y-27250D01*
X27004Y-27380D01*
X26932Y-27452D01*
X26880Y-27530D01*
X26862Y-27622D01*
X26862Y-27767D01*
X26733Y-27820D01*
X26636Y-27917D01*
X26636Y-27766D01*
X26555Y-27569D01*
X26405Y-27418D01*
X26208Y-27337D01*
X25995Y-27336D01*
X25798Y-27418D01*
X25648Y-27568D01*
X25595Y-27696D01*
X25470Y-27571D01*
X25231Y-27472D01*
X24972Y-27471D01*
X24733Y-27570D01*
X24636Y-27667D01*
X24636Y-26016D01*
X24555Y-25819D01*
X24405Y-25668D01*
X24208Y-25587D01*
X23995Y-25586D01*
X23798Y-25668D01*
X23648Y-25818D01*
X23566Y-26015D01*
X23566Y-26227D01*
X23647Y-26424D01*
X23798Y-26575D01*
X23994Y-26656D01*
X24207Y-26657D01*
X24404Y-26575D01*
X24554Y-26425D01*
X24636Y-26228D01*
X24636Y-26016D01*
X24636Y-27667D01*
X24550Y-27753D01*
X24497Y-27882D01*
X23433Y-27882D01*
X23686Y-27630D01*
X23836Y-27268D01*
X23836Y-26876D01*
X23687Y-26514D01*
X23410Y-26237D01*
X23132Y-26121D01*
X23408Y-26007D01*
X23686Y-25730D01*
X23836Y-25368D01*
X23836Y-24976D01*
X23687Y-24614D01*
X23410Y-24337D01*
X23048Y-24187D01*
X22656Y-24186D01*
X22294Y-24336D01*
X22017Y-24613D01*
X21866Y-24975D01*
X21866Y-25367D01*
X22016Y-25729D01*
X22292Y-26006D01*
X22571Y-26122D01*
X22294Y-26236D01*
X22017Y-26513D01*
X21866Y-26875D01*
X21866Y-27267D01*
X22016Y-27629D01*
X22269Y-27882D01*
X21136Y-27882D01*
X21136Y-26014D01*
X21055Y-25818D01*
X20905Y-25667D01*
X20708Y-25585D01*
X20495Y-25585D01*
X20298Y-25667D01*
X20148Y-25817D01*
X20066Y-26013D01*
X20066Y-26226D01*
X20147Y-26423D01*
X20195Y-26470D01*
X19972Y-26470D01*
X19733Y-26569D01*
X19586Y-26716D01*
X19586Y-25925D01*
X19437Y-25563D01*
X19160Y-25286D01*
X18798Y-25136D01*
X18406Y-25135D01*
X18044Y-25285D01*
X17767Y-25562D01*
X17616Y-25924D01*
X17616Y-26315D01*
X17766Y-26678D01*
X18042Y-26955D01*
X18404Y-27105D01*
X18796Y-27106D01*
X19158Y-26956D01*
X19436Y-26679D01*
X19586Y-26317D01*
X19586Y-25925D01*
X19586Y-26716D01*
X19550Y-26752D01*
X19451Y-26991D01*
X19451Y-27249D01*
X19550Y-27488D01*
X19732Y-27671D01*
X19971Y-27770D01*
X20230Y-27770D01*
X20469Y-27672D01*
X20652Y-27489D01*
X20751Y-27250D01*
X20751Y-26992D01*
X20652Y-26753D01*
X20555Y-26655D01*
X20707Y-26655D01*
X20904Y-26574D01*
X21054Y-26424D01*
X21136Y-26227D01*
X21136Y-26014D01*
X21136Y-27882D01*
X18206Y-27882D01*
X18152Y-27753D01*
X17970Y-27570D01*
X17731Y-27470D01*
X17472Y-27470D01*
X17233Y-27569D01*
X17136Y-27666D01*
X17136Y-26014D01*
X17055Y-25818D01*
X16905Y-25667D01*
X16708Y-25585D01*
X16495Y-25585D01*
X16298Y-25667D01*
X16148Y-25817D01*
X16066Y-26013D01*
X16066Y-26226D01*
X16147Y-26423D01*
X16298Y-26574D01*
X16494Y-26655D01*
X16707Y-26655D01*
X16904Y-26574D01*
X17054Y-26424D01*
X17136Y-26227D01*
X17136Y-26014D01*
X17136Y-27666D01*
X17050Y-27752D01*
X16997Y-27881D01*
X13636Y-27881D01*
X13636Y-26014D01*
X13555Y-25818D01*
X13404Y-25667D01*
X13208Y-25585D01*
X12995Y-25585D01*
X12798Y-25667D01*
X12648Y-25817D01*
X12566Y-26013D01*
X12566Y-26226D01*
X12647Y-26423D01*
X12694Y-26470D01*
X12472Y-26470D01*
X12233Y-26569D01*
X12050Y-26752D01*
X11951Y-26991D01*
X11951Y-27249D01*
X12050Y-27488D01*
X12232Y-27671D01*
X12471Y-27770D01*
X12730Y-27770D01*
X12969Y-27672D01*
X13152Y-27489D01*
X13251Y-27250D01*
X13251Y-26992D01*
X13152Y-26753D01*
X13055Y-26655D01*
X13207Y-26655D01*
X13404Y-26574D01*
X13554Y-26424D01*
X13636Y-26227D01*
X13636Y-26014D01*
X13636Y-27881D01*
X10705Y-27881D01*
X10652Y-27753D01*
X10470Y-27570D01*
X10231Y-27470D01*
X9972Y-27470D01*
X9733Y-27569D01*
X9636Y-27666D01*
X9636Y-26014D01*
X9555Y-25818D01*
X9404Y-25667D01*
X9208Y-25585D01*
X8995Y-25585D01*
X8798Y-25667D01*
X8648Y-25817D01*
X8566Y-26013D01*
X8566Y-26226D01*
X8647Y-26423D01*
X8797Y-26574D01*
X8994Y-26655D01*
X9207Y-26655D01*
X9404Y-26574D01*
X9554Y-26424D01*
X9636Y-26227D01*
X9636Y-26014D01*
X9636Y-27666D01*
X9550Y-27752D01*
X9496Y-27881D01*
X3205Y-27881D01*
X3152Y-27753D01*
X2970Y-27570D01*
X2731Y-27470D01*
X2472Y-27470D01*
X2233Y-27569D01*
X2136Y-27666D01*
X2136Y-26014D01*
X2055Y-25818D01*
X1904Y-25667D01*
X1708Y-25585D01*
X1495Y-25585D01*
X1298Y-25667D01*
X1148Y-25817D01*
X1066Y-26013D01*
X1066Y-26226D01*
X1147Y-26423D01*
X1297Y-26574D01*
X1494Y-26655D01*
X1707Y-26655D01*
X1904Y-26574D01*
X2054Y-26424D01*
X2136Y-26227D01*
X2136Y-26014D01*
X2136Y-27666D01*
X2050Y-27752D01*
X1951Y-27991D01*
X1951Y-28249D01*
X2050Y-28488D01*
X2232Y-28671D01*
X2471Y-28770D01*
X2730Y-28770D01*
X2969Y-28672D01*
X3152Y-28489D01*
X3205Y-28360D01*
X9496Y-28360D01*
X9550Y-28488D01*
X9732Y-28671D01*
X9971Y-28770D01*
X10230Y-28770D01*
X10469Y-28672D01*
X10652Y-28489D01*
X10705Y-28360D01*
X16997Y-28360D01*
X17050Y-28488D01*
X17232Y-28671D01*
X17471Y-28770D01*
X17730Y-28770D01*
X17969Y-28672D01*
X18152Y-28489D01*
X18205Y-28361D01*
X24497Y-28361D01*
X24550Y-28489D01*
X24732Y-28672D01*
X24971Y-28771D01*
X25230Y-28772D01*
X25469Y-28673D01*
X25652Y-28490D01*
X25658Y-28474D01*
X26071Y-28887D01*
X25906Y-28886D01*
X25544Y-29036D01*
X25267Y-29313D01*
X25116Y-29675D01*
X25116Y-30067D01*
X25266Y-30429D01*
X25542Y-30706D01*
X25904Y-30856D01*
X26296Y-30857D01*
X26658Y-30707D01*
X26936Y-30430D01*
X27086Y-30068D01*
X27086Y-29902D01*
X27619Y-30435D01*
X27550Y-30503D01*
X27451Y-30742D01*
X27451Y-31000D01*
X27550Y-31239D01*
X27732Y-31422D01*
X27971Y-31521D01*
X28230Y-31522D01*
X28469Y-31423D01*
X28652Y-31240D01*
X28751Y-31001D01*
X28751Y-30743D01*
X28652Y-30504D01*
X28470Y-30321D01*
X28231Y-30222D01*
X28083Y-30222D01*
X26820Y-28959D01*
X26971Y-29021D01*
X27230Y-29022D01*
X27469Y-28923D01*
X27652Y-28740D01*
X27751Y-28501D01*
X27751Y-28243D01*
X27652Y-28004D01*
X27470Y-27821D01*
X27340Y-27767D01*
X27340Y-27721D01*
X27343Y-27718D01*
X27471Y-27771D01*
X27730Y-27772D01*
X27969Y-27673D01*
X28152Y-27490D01*
X28155Y-27482D01*
X28172Y-27524D01*
X28397Y-27749D01*
X28691Y-27871D01*
X29010Y-27872D01*
X29304Y-27750D01*
X29481Y-27573D01*
X29481Y-32171D01*
X29305Y-31994D01*
X29011Y-31872D01*
X28693Y-31871D01*
X28399Y-31993D01*
X28173Y-32218D01*
X28051Y-32512D01*
X28051Y-32830D01*
X28157Y-33087D01*
X27995Y-33086D01*
X27798Y-33168D01*
X27648Y-33318D01*
X27566Y-33515D01*
X27566Y-33727D01*
X27647Y-33924D01*
X27695Y-33972D01*
X27472Y-33971D01*
X27233Y-34070D01*
X27086Y-34217D01*
X27086Y-33426D01*
X26937Y-33064D01*
X26660Y-32787D01*
X26636Y-32777D01*
X26636Y-31766D01*
X26555Y-31569D01*
X26405Y-31418D01*
X26208Y-31337D01*
X25995Y-31336D01*
X25798Y-31418D01*
X25648Y-31568D01*
X25566Y-31765D01*
X25566Y-31977D01*
X25647Y-32174D01*
X25798Y-32325D01*
X25994Y-32406D01*
X26207Y-32407D01*
X26404Y-32325D01*
X26554Y-32175D01*
X26636Y-31978D01*
X26636Y-31766D01*
X26636Y-32777D01*
X26298Y-32637D01*
X25906Y-32636D01*
X25544Y-32786D01*
X25267Y-33063D01*
X25116Y-33425D01*
X25116Y-33817D01*
X25266Y-34179D01*
X25542Y-34456D01*
X25904Y-34606D01*
X26296Y-34607D01*
X26658Y-34457D01*
X26936Y-34180D01*
X27086Y-33818D01*
X27086Y-33426D01*
X27086Y-34217D01*
X27050Y-34253D01*
X26951Y-34492D01*
X26951Y-34750D01*
X27050Y-34989D01*
X27232Y-35172D01*
X27471Y-35271D01*
X27730Y-35272D01*
X27969Y-35173D01*
X28152Y-34990D01*
X28155Y-34982D01*
X28172Y-35024D01*
X28397Y-35249D01*
X28691Y-35371D01*
X29010Y-35372D01*
X29304Y-35250D01*
X29481Y-35073D01*
X29481Y-36243D01*
X29409Y-36218D01*
X29232Y-36231D01*
X29126Y-36275D01*
X29112Y-36359D01*
X29352Y-36600D01*
X29357Y-36594D01*
X29428Y-36665D01*
X29423Y-36670D01*
X29428Y-36676D01*
X29357Y-36747D01*
X29352Y-36741D01*
X29281Y-36812D01*
X29281Y-36670D01*
X29041Y-36430D01*
X28956Y-36445D01*
X28900Y-36613D01*
X28912Y-36791D01*
X28956Y-36896D01*
X29041Y-36911D01*
X29281Y-36670D01*
X29281Y-36812D01*
X29112Y-36981D01*
X29126Y-37066D01*
X29178Y-37083D01*
X29165Y-37096D01*
X29104Y-37242D01*
X29104Y-37400D01*
X29164Y-37546D01*
X29276Y-37658D01*
X29422Y-37718D01*
X29481Y-37718D01*
X29481Y-41571D01*
X29305Y-41394D01*
X29011Y-41272D01*
X28751Y-41271D01*
X28751Y-38243D01*
X28652Y-38004D01*
X28470Y-37821D01*
X28231Y-37722D01*
X28078Y-37722D01*
X28039Y-37682D01*
X28123Y-37717D01*
X28280Y-37717D01*
X28426Y-37657D01*
X28538Y-37545D01*
X28599Y-37400D01*
X28599Y-37242D01*
X28538Y-37096D01*
X28427Y-36984D01*
X28281Y-36924D01*
X28123Y-36923D01*
X27977Y-36984D01*
X27866Y-37095D01*
X27805Y-37241D01*
X27805Y-37399D01*
X27840Y-37484D01*
X26811Y-36455D01*
X26971Y-36521D01*
X27230Y-36522D01*
X27469Y-36423D01*
X27652Y-36240D01*
X27751Y-36001D01*
X27751Y-35743D01*
X27652Y-35504D01*
X27470Y-35321D01*
X27231Y-35222D01*
X26972Y-35221D01*
X26733Y-35320D01*
X26636Y-35417D01*
X26636Y-35266D01*
X26555Y-35069D01*
X26405Y-34918D01*
X26208Y-34837D01*
X25995Y-34836D01*
X25798Y-34918D01*
X25648Y-35068D01*
X25595Y-35196D01*
X25470Y-35071D01*
X25231Y-34972D01*
X24972Y-34971D01*
X24733Y-35070D01*
X24636Y-35167D01*
X24636Y-33516D01*
X24555Y-33319D01*
X24405Y-33168D01*
X24208Y-33087D01*
X23995Y-33086D01*
X23798Y-33168D01*
X23648Y-33318D01*
X23566Y-33515D01*
X23566Y-33727D01*
X23647Y-33924D01*
X23798Y-34075D01*
X23994Y-34156D01*
X24207Y-34157D01*
X24404Y-34075D01*
X24554Y-33925D01*
X24636Y-33728D01*
X24636Y-33516D01*
X24636Y-35167D01*
X24550Y-35253D01*
X24497Y-35382D01*
X23433Y-35382D01*
X23686Y-35130D01*
X23836Y-34768D01*
X23836Y-34376D01*
X23687Y-34014D01*
X23410Y-33737D01*
X23132Y-33621D01*
X23408Y-33507D01*
X23686Y-33230D01*
X23836Y-32868D01*
X23836Y-32476D01*
X23687Y-32114D01*
X23535Y-31963D01*
X23535Y-29636D01*
X23355Y-29200D01*
X23023Y-28867D01*
X22587Y-28686D01*
X22116Y-28686D01*
X21681Y-28866D01*
X21347Y-29199D01*
X21166Y-29634D01*
X21166Y-30105D01*
X21346Y-30540D01*
X21679Y-30874D01*
X22114Y-31055D01*
X22585Y-31055D01*
X23021Y-30875D01*
X23354Y-30542D01*
X23535Y-30107D01*
X23535Y-29636D01*
X23535Y-31963D01*
X23410Y-31837D01*
X23048Y-31687D01*
X22656Y-31686D01*
X22294Y-31836D01*
X22017Y-32113D01*
X21866Y-32475D01*
X21866Y-32867D01*
X22016Y-33229D01*
X22292Y-33506D01*
X22571Y-33622D01*
X22294Y-33736D01*
X22017Y-34013D01*
X21866Y-34375D01*
X21866Y-34767D01*
X22016Y-35129D01*
X22269Y-35382D01*
X21136Y-35382D01*
X21136Y-33514D01*
X21055Y-33318D01*
X20905Y-33167D01*
X20708Y-33085D01*
X20495Y-33085D01*
X20298Y-33167D01*
X20148Y-33317D01*
X20066Y-33513D01*
X20066Y-33726D01*
X20147Y-33923D01*
X20195Y-33970D01*
X19972Y-33970D01*
X19733Y-34069D01*
X19586Y-34216D01*
X19586Y-33425D01*
X19437Y-33063D01*
X19160Y-32786D01*
X18798Y-32636D01*
X18406Y-32635D01*
X18044Y-32785D01*
X17767Y-33062D01*
X17616Y-33424D01*
X17616Y-33815D01*
X17766Y-34178D01*
X18042Y-34455D01*
X18404Y-34605D01*
X18796Y-34606D01*
X19158Y-34456D01*
X19436Y-34179D01*
X19586Y-33817D01*
X19586Y-33425D01*
X19586Y-34216D01*
X19550Y-34252D01*
X19451Y-34491D01*
X19451Y-34749D01*
X19550Y-34988D01*
X19732Y-35171D01*
X19971Y-35270D01*
X20230Y-35270D01*
X20469Y-35172D01*
X20652Y-34989D01*
X20751Y-34750D01*
X20751Y-34492D01*
X20652Y-34253D01*
X20555Y-34155D01*
X20707Y-34155D01*
X20904Y-34074D01*
X21054Y-33924D01*
X21136Y-33727D01*
X21136Y-33514D01*
X21136Y-35382D01*
X18206Y-35382D01*
X18152Y-35253D01*
X17970Y-35070D01*
X17731Y-34970D01*
X17472Y-34970D01*
X17233Y-35069D01*
X17136Y-35166D01*
X17136Y-33514D01*
X17055Y-33318D01*
X16905Y-33167D01*
X16708Y-33085D01*
X16495Y-33085D01*
X16298Y-33167D01*
X16148Y-33317D01*
X16066Y-33513D01*
X16066Y-33726D01*
X16147Y-33923D01*
X16298Y-34074D01*
X16494Y-34155D01*
X16707Y-34155D01*
X16904Y-34074D01*
X17054Y-33924D01*
X17136Y-33727D01*
X17136Y-33514D01*
X17136Y-35166D01*
X17050Y-35252D01*
X16997Y-35381D01*
X13636Y-35381D01*
X13636Y-33514D01*
X13555Y-33318D01*
X13404Y-33167D01*
X13208Y-33085D01*
X13036Y-33085D01*
X13036Y-30176D01*
X12886Y-29814D01*
X12610Y-29537D01*
X12248Y-29387D01*
X11856Y-29386D01*
X11494Y-29536D01*
X11216Y-29813D01*
X11066Y-30175D01*
X11066Y-30567D01*
X11215Y-30929D01*
X11492Y-31206D01*
X11854Y-31356D01*
X12246Y-31357D01*
X12608Y-31207D01*
X12885Y-30930D01*
X13036Y-30568D01*
X13036Y-30176D01*
X13036Y-33085D01*
X12995Y-33085D01*
X12798Y-33167D01*
X12648Y-33317D01*
X12566Y-33513D01*
X12566Y-33726D01*
X12647Y-33923D01*
X12694Y-33970D01*
X12472Y-33970D01*
X12233Y-34069D01*
X12050Y-34252D01*
X11951Y-34491D01*
X11951Y-34749D01*
X12050Y-34988D01*
X12232Y-35171D01*
X12471Y-35270D01*
X12730Y-35270D01*
X12969Y-35172D01*
X13152Y-34989D01*
X13251Y-34750D01*
X13251Y-34492D01*
X13152Y-34253D01*
X13055Y-34155D01*
X13207Y-34155D01*
X13404Y-34074D01*
X13554Y-33924D01*
X13636Y-33727D01*
X13636Y-33514D01*
X13636Y-35381D01*
X10705Y-35381D01*
X10652Y-35253D01*
X10470Y-35070D01*
X10340Y-35016D01*
X10340Y-34253D01*
X10542Y-34455D01*
X10904Y-34605D01*
X11296Y-34606D01*
X11658Y-34456D01*
X11935Y-34179D01*
X12086Y-33817D01*
X12086Y-33425D01*
X11936Y-33063D01*
X11660Y-32786D01*
X11298Y-32636D01*
X10906Y-32635D01*
X10544Y-32785D01*
X10266Y-33062D01*
X10127Y-33398D01*
X8536Y-31807D01*
X8536Y-29636D01*
X8356Y-29200D01*
X8023Y-28867D01*
X7588Y-28686D01*
X7116Y-28686D01*
X6681Y-28866D01*
X6347Y-29199D01*
X6167Y-29634D01*
X6166Y-30105D01*
X6346Y-30540D01*
X6679Y-30874D01*
X7114Y-31055D01*
X7585Y-31055D01*
X8021Y-30875D01*
X8354Y-30542D01*
X8535Y-30107D01*
X8536Y-29636D01*
X8536Y-31807D01*
X8180Y-31451D01*
X8102Y-31399D01*
X8010Y-31381D01*
X5205Y-31381D01*
X5152Y-31253D01*
X4970Y-31070D01*
X4731Y-30970D01*
X4472Y-30970D01*
X4233Y-31069D01*
X4050Y-31252D01*
X3951Y-31491D01*
X3951Y-31749D01*
X4050Y-31988D01*
X4232Y-32171D01*
X4471Y-32270D01*
X4730Y-32270D01*
X4969Y-32172D01*
X5152Y-31989D01*
X5205Y-31860D01*
X7911Y-31860D01*
X9137Y-33085D01*
X8995Y-33085D01*
X8798Y-33167D01*
X8648Y-33317D01*
X8566Y-33513D01*
X8566Y-33726D01*
X8647Y-33923D01*
X8703Y-33979D01*
X8483Y-34070D01*
X8300Y-34253D01*
X8246Y-34382D01*
X7983Y-34382D01*
X8185Y-34180D01*
X8336Y-33818D01*
X8336Y-33426D01*
X8186Y-33064D01*
X7910Y-32787D01*
X7548Y-32637D01*
X7156Y-32636D01*
X6794Y-32786D01*
X6516Y-33063D01*
X6373Y-33409D01*
X6328Y-33342D01*
X6328Y-33342D01*
X5437Y-32451D01*
X5359Y-32399D01*
X5268Y-32381D01*
X3636Y-32381D01*
X3636Y-30176D01*
X3486Y-29814D01*
X3210Y-29537D01*
X2848Y-29387D01*
X2456Y-29386D01*
X2094Y-29536D01*
X1816Y-29813D01*
X1666Y-30175D01*
X1666Y-30567D01*
X1815Y-30929D01*
X2092Y-31206D01*
X2454Y-31356D01*
X2846Y-31357D01*
X3208Y-31207D01*
X3485Y-30930D01*
X3636Y-30568D01*
X3636Y-30176D01*
X3636Y-32381D01*
X2705Y-32381D01*
X2652Y-32253D01*
X2470Y-32070D01*
X2231Y-31970D01*
X1972Y-31970D01*
X1733Y-32069D01*
X1550Y-32252D01*
X1451Y-32491D01*
X1451Y-32749D01*
X1550Y-32988D01*
X1647Y-33085D01*
X1495Y-33085D01*
X1298Y-33167D01*
X1148Y-33317D01*
X1066Y-33513D01*
X1066Y-33726D01*
X1147Y-33923D01*
X1297Y-34074D01*
X1494Y-34155D01*
X1707Y-34155D01*
X1904Y-34074D01*
X2054Y-33924D01*
X2136Y-33727D01*
X2136Y-33514D01*
X2055Y-33318D01*
X2007Y-33270D01*
X2230Y-33270D01*
X2469Y-33172D01*
X2652Y-32989D01*
X2705Y-32860D01*
X2969Y-32860D01*
X2766Y-33062D01*
X2616Y-33424D01*
X2616Y-33815D01*
X2765Y-34178D01*
X3042Y-34455D01*
X3404Y-34605D01*
X3796Y-34606D01*
X4158Y-34456D01*
X4435Y-34179D01*
X4586Y-33817D01*
X4586Y-33425D01*
X4436Y-33063D01*
X4233Y-32860D01*
X5169Y-32860D01*
X5396Y-33087D01*
X5245Y-33086D01*
X5048Y-33168D01*
X4898Y-33318D01*
X4816Y-33515D01*
X4816Y-33727D01*
X4897Y-33924D01*
X5047Y-34075D01*
X5244Y-34156D01*
X5457Y-34157D01*
X5477Y-34148D01*
X5494Y-34155D01*
X5707Y-34155D01*
X5904Y-34074D01*
X6040Y-33938D01*
X6893Y-34791D01*
X6893Y-34791D01*
X6971Y-34843D01*
X7063Y-34861D01*
X7063Y-34861D01*
X7063Y-34861D01*
X8246Y-34861D01*
X8300Y-34989D01*
X8482Y-35172D01*
X8721Y-35271D01*
X8980Y-35272D01*
X9219Y-35173D01*
X9402Y-34990D01*
X9501Y-34751D01*
X9501Y-34493D01*
X9402Y-34254D01*
X9305Y-34157D01*
X9457Y-34157D01*
X9654Y-34075D01*
X9804Y-33925D01*
X9855Y-33803D01*
X9862Y-33810D01*
X9862Y-35016D01*
X9733Y-35069D01*
X9550Y-35252D01*
X9496Y-35382D01*
X6955Y-35382D01*
X6902Y-35254D01*
X6720Y-35071D01*
X6481Y-34972D01*
X6222Y-34971D01*
X5983Y-35070D01*
X5800Y-35253D01*
X5701Y-35492D01*
X5701Y-35750D01*
X5800Y-35989D01*
X5982Y-36172D01*
X6221Y-36271D01*
X6480Y-36272D01*
X6719Y-36173D01*
X6902Y-35990D01*
X6955Y-35861D01*
X9497Y-35861D01*
X9550Y-35988D01*
X9732Y-36171D01*
X9971Y-36270D01*
X10230Y-36270D01*
X10469Y-36172D01*
X10652Y-35989D01*
X10705Y-35860D01*
X11431Y-35860D01*
X11373Y-35918D01*
X11251Y-36212D01*
X11251Y-36530D01*
X11372Y-36824D01*
X11557Y-37010D01*
X11494Y-37036D01*
X11216Y-37313D01*
X11066Y-37675D01*
X11066Y-38067D01*
X11215Y-38429D01*
X11492Y-38706D01*
X11854Y-38856D01*
X12246Y-38857D01*
X12608Y-38707D01*
X12885Y-38430D01*
X13036Y-38068D01*
X13036Y-37676D01*
X12886Y-37314D01*
X12610Y-37037D01*
X12544Y-37010D01*
X12729Y-36825D01*
X12851Y-36531D01*
X12851Y-36213D01*
X12729Y-35919D01*
X12670Y-35860D01*
X16997Y-35860D01*
X17050Y-35988D01*
X17232Y-36171D01*
X17471Y-36270D01*
X17730Y-36270D01*
X17969Y-36172D01*
X18152Y-35989D01*
X18205Y-35861D01*
X24497Y-35861D01*
X24550Y-35989D01*
X24732Y-36172D01*
X24971Y-36271D01*
X25230Y-36272D01*
X25469Y-36173D01*
X25652Y-35990D01*
X25657Y-35978D01*
X26066Y-36387D01*
X25906Y-36386D01*
X25544Y-36536D01*
X25267Y-36813D01*
X25116Y-37175D01*
X25116Y-37567D01*
X25266Y-37929D01*
X25542Y-38206D01*
X25904Y-38356D01*
X26296Y-38357D01*
X26658Y-38207D01*
X26936Y-37930D01*
X27086Y-37568D01*
X27086Y-37407D01*
X27616Y-37937D01*
X27550Y-38003D01*
X27451Y-38242D01*
X27451Y-38500D01*
X27550Y-38739D01*
X27732Y-38922D01*
X27971Y-39021D01*
X28230Y-39022D01*
X28469Y-38923D01*
X28652Y-38740D01*
X28751Y-38501D01*
X28751Y-38243D01*
X28751Y-41271D01*
X28693Y-41271D01*
X28603Y-41309D01*
X28636Y-41228D01*
X28636Y-41016D01*
X28555Y-40819D01*
X28405Y-40668D01*
X28208Y-40587D01*
X27995Y-40586D01*
X27798Y-40668D01*
X27648Y-40818D01*
X27566Y-41015D01*
X27566Y-41227D01*
X27647Y-41424D01*
X27695Y-41472D01*
X27472Y-41471D01*
X27233Y-41570D01*
X27086Y-41717D01*
X27086Y-40926D01*
X26937Y-40564D01*
X26660Y-40287D01*
X26636Y-40277D01*
X26636Y-39266D01*
X26555Y-39069D01*
X26405Y-38918D01*
X26208Y-38837D01*
X25995Y-38836D01*
X25798Y-38918D01*
X25648Y-39068D01*
X25566Y-39265D01*
X25566Y-39477D01*
X25647Y-39674D01*
X25798Y-39825D01*
X25994Y-39906D01*
X26207Y-39907D01*
X26404Y-39825D01*
X26554Y-39675D01*
X26636Y-39478D01*
X26636Y-39266D01*
X26636Y-40277D01*
X26298Y-40137D01*
X25906Y-40136D01*
X25544Y-40286D01*
X25267Y-40563D01*
X25116Y-40925D01*
X25116Y-41317D01*
X25266Y-41679D01*
X25542Y-41956D01*
X25904Y-42106D01*
X26296Y-42107D01*
X26658Y-41957D01*
X26936Y-41680D01*
X27086Y-41318D01*
X27086Y-40926D01*
X27086Y-41717D01*
X27050Y-41753D01*
X26951Y-41992D01*
X26951Y-42250D01*
X27050Y-42489D01*
X27232Y-42672D01*
X27471Y-42771D01*
X27730Y-42772D01*
X27969Y-42673D01*
X28152Y-42490D01*
X28155Y-42482D01*
X28172Y-42524D01*
X28397Y-42749D01*
X28691Y-42871D01*
X29010Y-42872D01*
X29304Y-42750D01*
X29481Y-42573D01*
X29481Y-43944D01*
M02*
